<svg xmlns="http://www.w3.org/2000/svg" viewBox="0 0 37.89 21.72"><defs><style>.cls-1{fill:none;stroke:#e9528e;stroke-linecap:round;stroke-linejoin:round;stroke-width:1.13px;}</style></defs><title>アセット 9</title><g id="レイヤー_2" data-name="レイヤー 2"><g id="kategorie_active"><path class="cls-1" d="M7.32,17.4c.14.24,9.49-5.8,9.63-5.56s-5.36,5.36-5.27,5.52,5.93-3.63,6-3.47-5.24,3.33-5.16,3.47,5.23-3.2,5.31-3.07-4.45,3-4.39,3.16S18,14.69,18,14.81s-4.45,2.75-4.38,2.87,4.42-2.7,4.49-2.59S14,18.87,14.1,19s4.45-2.72,4.52-2.61S15,20.51,15,20.63s4.19-2.56,4.25-2.46-.94,2.67-.91,2.73,1.5-.92,1.52-.88-1.12.85-1.11.88,1.1-.67,1.12-.64"/><path class="cls-1" d="M10.25,6.34c.06.1,3.82-2.34,3.88-2.24S10.67,7.8,10.73,7.91s3.9-2.38,4-2.28-3.94,2.42-3.88,2.52,3.91-2.39,4-2.29-4,2.23-4,2.33,3.91-2.39,4-2.29-3.71,3.24-3.64,3.34,4-2.42,4-2.32-4.06,2.27-4,2.37,4-2.42,4-2.32-3.64,3.66-3.57,3.77,4-2.46,4.09-2.36S11.94,11.93,12,12s4.09-2.5,4.15-2.4-4.11,2.63-4,2.74S16.22,9.88,16.28,10s-4,2.91-4,3,4.14-2.53,4.2-2.42S12.25,12.92,12.31,13s4.14-2.53,4.2-2.42"/><path class="cls-1" d="M7.25,2.27S9.06,1.16,9.09,1.2,6.51,3.82,6.56,3.9,11.84.67,11.92.8,6.44,3.86,6.52,4,12,.67,12,.81,5.33,6.82,5.44,7s7.94-4.86,8.06-4.65-9.17,7.1-9,7.35,5.19-3.17,5.27-3-6,4.76-5.94,4.92S9.11,8.36,9.18,8.49s-6,4.51-5.94,4.68S8.64,9.86,8.72,10s-6,4.08-5.86,4.24S8.32,10.9,8.4,11s-6.89,6.41-6.77,6.62,6.81-4.16,6.91-4S.71,20.11.84,20.33c.23.4,15.64-9.56,15.87-9.16S3.23,20.55,3.43,20.9c0,.06,2.32-1.42,2.35-1.36S4,20.86,4,20.9,5.51,20,5.53,20"/><path class="cls-1" d="M10.14,6.88s.35-.22.36-.21.15,1.9.18,1.94.35-.21.35-.2,0,1.29,0,1.32.35-.21.35-.2.39,2.64.42,2.7.34-.21.34-.2-.16.81-.15.83.34-.21.34-.2"/><path class="cls-1" d="M9.63,6.55s.68-.42.69-.4-1,1.33-1,1.37.49-.3.5-.29S9,8.58,9,8.61s.49-.3.49-.29-1.19,2.4-1.16,2.45.49-.3.49-.28-1.07,2-1,2.07.48-.3.49-.28.19,1.49.21,1.52.73-.44.74-.43-.43.4-.42.41.72-.44.73-.42l.43.38s.72-.44.73-.42.8.34.81.36.9-.55.91-.53"/><path class="cls-1" d="M9.28,1.31s.91-.56.93-.53-.52.45-.52.47.91-.56.93-.53.72.25.73.27.7-.43.71-.41.78.73.79.75.32-.19.32-.19.47,2,.5,2.08S14,3,14,3s-.3.3-.29.31.33-.2.34-.19.43,2.32.46,2.37.33-.2.34-.19.5,2.52.54,2.57.33-.2.34-.19.15,1.53.17,1.57.33-.2.34-.19-.15.7-.14.72.33-.2.34-.19.14,1.52.16,1.56.33-.2.34-.19-.26.4-.26.41.33-.2.34-.19.07,1.3.08,1.33.33-.2.34-.19.51,2.54.55,2.6.33-.2.34-.19.32,2,.34,2,.33-.2.34-.19-.14.74-.13.75.33-.2.34-.19-.33.21-.33.22.33-.2.34-.19-.12.8-.11.82.33-.2.34-.19.23,1.77.26,1.81.33-.2.34-.19-.26.7-.25.72.39-.24.39-.23"/><path class="cls-1" d="M7.44,17.66s.68-.41.69-.4,3.64.27,3.69.35.67-.41.68-.39l.18.38s.59-.36.6-.35.15.52.16.53.32-.2.33-.19-.22.45-.21.46.34-.21.35-.2.05,1.5.07,1.53.34-.21.34-.2.71,1.71.73,1.75.48-.29.49-.28,2.94.42,3,.49.66-.4.67-.39-.3.38-.3.39,1.22-.75,1.24-.71"/><path class="cls-1" d="M6.15,17.91s1.1-.67,1.12-.65-1.86,2.6-1.82,2.67.56-.34.57-.33"/><path class="cls-1" d="M7.09,2.07S9,.92,9,1,6.3,3.65,6.35,3.73s.5-.31.51-.3-.55.37-.54.39.5-.31.51-.3S5.19,6.77,5.23,6.85s.51-.31.51-.3-1.52,2.92-1.48,3,.51-.31.51-.3-1.22,2.13-1.19,2.18.51-.31.52-.3S3,13,3,13s.51-.31.52-.3-.92,1.33-.9,1.37.51-.31.52-.3S1.38,17.4,1.43,17.48s.51-.31.52-.3S.53,20.13.57,20.2,1,20,1,20s1.5,1.14,1.53,1.19.65-.4.66-.38l.44.38s.72-.44.74-.42-.24.41-.23.42,1.62-1,1.64-.95"/><path class="cls-1" d="M23.83,1.8S25.18,1,25.2,1,23.68,3,23.71,3.1,27.28.92,27.34,1s-3.68,2.07-3.62,2.17S27.37.93,27.43,1s-3.79,4.42-3.72,4.55S28.13,2.87,28.2,3s-4.57,4.59-4.48,4.73S28.13,5,28.2,5.13s-4.56,4-4.48,4.08,4.42-2.7,4.48-2.59-4.56,3.7-4.48,3.83,4.42-2.7,4.48-2.59-4.56,3.32-4.48,3.44,4.42-2.7,4.48-2.59-4.57,5.15-4.48,5.3,4.42-2.7,4.48-2.59-4.57,4.67-4.48,4.81,4.42-2.7,4.48-2.59-4.57,4.52-4.48,4.66,4.42-2.7,4.48-2.59-4.55,3.11-4.48,3.23,4.42-2.7,4.48-2.59-4.56,3.28-4.48,3.4,4.42-2.7,4.48-2.59-1.76,3.68-1.71,3.77,1.63-1,1.65-1-1.38.92-1.36,1,1.29-.79,1.31-.76"/><path class="cls-1" d="M25.45,1.16s.7-.43.71-.41S28,2.1,28,2.15s.36-.22.36-.21-.37.68-.36.69.38-.23.39-.22-.4.83-.39.85.38-.23.39-.22S28,3.59,28,3.6s.38-.23.39-.22S28,5.13,28,5.17s.38-.23.39-.22S28,7.29,28,7.34s.38-.23.38-.22S28,9.5,28,9.55s.38-.23.38-.22S28,10.55,28,10.58s.38-.23.38-.22S28,12.67,28,12.73s.38-.23.38-.22-.41,2-.38,2,.38-.23.38-.22-.39.59-.38.61.38-.23.38-.22-.39.42-.38.43.38-.23.38-.22S28,16,28,16s.38-.23.38-.22S28,18.24,28,18.29s.38-.23.38-.22-.52,1.93-.5,2,.49-.3.49-.28"/><path class="cls-1" d="M23.64,1.65s1.47-.9,1.49-.86S23.46,2.91,23.49,3s.38-.23.38-.22-.39.28-.38.29.38-.23.38-.22-.42,2.57-.38,2.62.38-.23.38-.22-.41,2.31-.38,2.36.38-.23.38-.22S23.47,9,23.49,9.08s.38-.23.38-.22-.4,1.43-.38,1.46.38-.23.38-.22-.4,1-.38,1.07.38-.23.38-.22-.42,2.87-.38,2.93.38-.23.38-.22-.41,2.39-.38,2.44.38-.23.38-.22-.41,2.24-.38,2.29.38-.23.39-.22-.4.84-.38.86.38-.23.39-.22-.4,1-.39,1,.38-.23.39-.22,1.75,1.7,1.78,1.75.66-.4.67-.38l.51.38s1.41-.86,1.43-.83"/><path class="cls-1" d="M32.73,1.8S34.07,1,34.09,1,32.58,3,32.61,3.1,36.18.92,36.24,1s-3.68,2.07-3.62,2.17S36.27.93,36.33,1s-3.79,4.42-3.72,4.55S37,2.87,37.1,3s-4.57,4.59-4.48,4.73S37,5,37.1,5.13s-4.56,4-4.48,4.08S37,6.51,37.1,6.62s-4.56,3.7-4.48,3.83S37,7.75,37.1,7.86s-4.56,3.32-4.48,3.44S37,8.6,37.1,8.71s-4.57,5.15-4.48,5.3,4.42-2.7,4.48-2.59-4.57,4.67-4.48,4.81,4.42-2.7,4.48-2.59-4.57,4.52-4.48,4.66S37,15.6,37.1,15.71s-4.55,3.11-4.48,3.23,4.42-2.7,4.48-2.59-4.56,3.28-4.48,3.4,4.42-2.7,4.48-2.59-1.76,3.68-1.71,3.77,1.63-1,1.65-1-1.38.92-1.36,1S37,20.14,37,20.18"/><path class="cls-1" d="M34.35,1.16s.7-.43.71-.41,1.84,1.35,1.87,1.4.36-.22.36-.21-.37.68-.36.69.38-.23.39-.22-.4.83-.39.85.38-.23.39-.22-.39.54-.39.56.38-.23.39-.22-.41,1.75-.38,1.79.38-.23.39-.22-.41,2.34-.38,2.4.38-.23.38-.22-.41,2.37-.38,2.43.38-.23.38-.22-.4,1.23-.38,1.26.38-.23.38-.22-.41,2.31-.38,2.36.38-.23.38-.22-.41,2-.38,2,.38-.23.38-.22-.39.59-.38.61.38-.23.38-.22-.39.42-.38.43.38-.23.38-.22S36.92,16,36.93,16s.38-.23.38-.22-.41,2.43-.38,2.48.38-.23.38-.22-.52,1.92-.49,2,.49-.3.49-.29"/><path class="cls-1" d="M32.54,1.65S34,.75,34,.79,32.36,2.91,32.39,3s.38-.23.38-.22-.39.28-.38.29.38-.23.38-.22-.42,2.57-.38,2.62.38-.23.38-.22-.41,2.31-.38,2.36.38-.23.38-.22S32.37,9,32.39,9.08s.38-.23.38-.22-.4,1.43-.38,1.46.38-.23.38-.22-.4,1-.38,1.07.38-.23.38-.22-.42,2.87-.38,2.93.38-.23.38-.22-.42,2.39-.38,2.44.38-.23.38-.22-.41,2.24-.38,2.29.38-.23.39-.22-.4.84-.38.86.38-.23.39-.22-.4,1-.39,1,.38-.23.39-.22,1.76,1.7,1.79,1.75.65-.4.66-.38l.51.38s1.44-.88,1.46-.85"/></g></g></svg>