<svg xmlns="http://www.w3.org/2000/svg" width="37.85" height="21.71" viewBox="0 0 37.85 21.71">  <defs>    <style>      .a {        fill: none;        stroke: #0075c2;        stroke-linecap: round;        stroke-linejoin: round;        stroke-width: 1.13px;      }    </style>  </defs>  <title>アセット 18</title>  <g>    <g>      <path class="a" d="M7.28,17.39c.14.24,9.49-5.8,9.63-5.56s-9.09,5.33-9,5.56S16.9,11.91,17,12.14s-6,5-5.9,5.21,6.35-3.88,6.44-3.72-4.9,3.57-4.82,3.71,5-3.07,5.1-2.94S14,18.83,14.06,19s4.45-2.72,4.52-2.61-4,3.91-3.91,4S19,17.7,19.11,17.81s-2.68,3-2.63,3.08,3.05-1.87,3.1-1.79-.86,1.75-.83,1.79,1.1-.67,1.12-.64"/>      <path class="a" d="M10.21,6.32c.06.1,3.82-2.34,3.88-2.24s-3.24,4.41-3.17,4.53,3.93-2.4,4-2.3S11.27,9.86,11.33,10s4-2.44,4.05-2.34-4,2.53-4,2.63,4-2.45,4.07-2.35-4,2.53-4,2.63,4-2.46,4.08-2.36-4.07,2.48-4,2.58,4-2.46,4.09-2.36-3.87,3.18-3.8,3.29S15.94,9.21,16,9.31s-3.87,3.33-3.81,3.44,4.12-2.52,4.19-2.42S12.21,12.91,12.27,13s4.14-2.53,4.2-2.42"/>      <path class="a" d="M7.21,2.25S9,1.14,9,1.19s-3,3.64-2.91,3.75,6.55-4,6.65-3.84S5.4,6.5,5.51,6.69,13.27,2,13.38,2.15,4.14,9.84,4.29,10.1,9.51,6.91,9.59,7s-5.94,4.45-5.85,4.61S9,8.41,9.12,8.54,2.87,13.62,3,13.79s5.44-3.33,5.52-3.19-5.89,3.83-5.8,4,5.49-3.35,5.57-3.22S2.34,15.15,2.43,15.3,8,11.92,8,12.06s-7,6.49-6.85,6.7,8.83-5.4,9-5.17S1,18.82,1.09,19.05s9.37-5.73,9.51-5.49S.66,19.69.81,19.95s11-6.71,11.14-6.43S1.51,20.62,1.67,20.89c.06.11,4.39-2.68,4.45-2.57S4,20.82,4,20.89,5.47,20,5.49,20"/>      <path class="a" d="M10.1,6.87s.35-.22.36-.21.37,2.59.4,2.65.35-.21.35-.2.31,2.38.34,2.44.34-.21.35-.2-.27.45-.27.46.34-.21.35-.2,0,1.21,0,1.24.34-.21.34-.2"/>      <path class="a" d="M9.59,6.54s.68-.42.69-.4S9,8.46,9,8.52s.49-.3.5-.29-1.36,2.91-1.32,3,.49-.3.49-.28-1,2.61-1,2.67.34-.21.34-.2l.3.39s.73-.44.74-.43,2.42.25,2.45.3.9-.55.91-.53"/>      <path class="a" d="M9.24,1.29s.91-.56.93-.53,1.46.12,1.48.15.58-.36.59-.34l1,1.46s.33-.2.34-.19.1,1.4.12,1.43.33-.2.34-.19.09,1.37.11,1.4.33-.2.34-.19-.24.47-.23.48.33-.2.34-.19.25,1.82.28,1.86.33-.2.34-.19.42,2.29.45,2.34.33-.2.34-.19.16,1.56.18,1.59.33-.2.34-.19.12,1.47.14,1.5.33-.2.34-.19-.25.44-.24.45.33-.2.34-.19,0,1.05,0,1.08.33-.2.34-.19.38,2.18.41,2.23.33-.2.34-.19-.3.3-.29.31.33-.2.34-.19.06,1.28.07,1.31.33-.2.34-.19.43,2.32.46,2.38.33-.2.34-.19.34,2.36.37,2.41.39-.24.4-.23"/>      <path class="a" d="M7.4,17.64s.68-.41.69-.4,0,.38,0,.39.68-.41.69-.4,2.47.31,2.5.36.67-.41.68-.39.94.35.95.38.5-.31.51-.29.49,2,.52,2.07.34-.21.34-.2.4,1.5.42,1.53.33-.2.34-.2,1.57.6,1.59.64.66-.4.67-.38,1.54.35,1.56.38,1.22-.75,1.24-.72"/>      <path class="a" d="M6.11,17.91s1.12-.68,1.13-.65-1.87,2.6-1.83,2.67.56-.34.57-.33"/>      <path class="a" d="M7,2.06S8.94.9,9,.95s-3.09,3.71-3,3.82.5-.31.51-.3-1.17,2-1.14,2.05.51-.31.51-.3S4,9.84,4.09,9.93s.51-.31.51-.3-1.1,1.81-1.07,1.85.51-.31.51-.3-1.32,2.38-1.28,2.44.51-.31.52-.3-.82,1.06-.8,1.09.51-.31.52-.3-.79,1-.77,1,.51-.31.52-.3S.94,18.5,1,18.59s.51-.31.52-.3-.63.58-.62.6.51-.31.52-.3S.55,19.77.57,19.8s.5-.3.5-.29S1,20.95,1,21s.44-.27.45-.26S4,21.08,4,21.14s1.67-1,1.69-1-1.7.94-1.67,1,1.64-1,1.67-1"/>    </g>    <g>      <path class="a" d="M23.79,1.78S25.14,1,25.16,1s-1.52,2.85-1.48,2.92S27.91,1.33,28,1.44s-4.37,3.75-4.3,3.88,4.42-2.7,4.48-2.59S23.59,7.86,23.67,8s4.42-2.7,4.48-2.59-4.56,3.7-4.48,3.83,4.42-2.7,4.48-2.59-4.56,4.15-4.48,4.29,4.42-2.7,4.48-2.59-4.55,3.1-4.48,3.22S28.09,8.87,28.16,9s-4.55,3-4.48,3.16,4.42-2.7,4.48-2.59-4.57,5.18-4.48,5.33,4.42-2.7,4.48-2.59S23.61,15,23.67,15.12s4.42-2.7,4.48-2.59-4.55,3.2-4.48,3.32,4.42-2.7,4.48-2.59-4.56,3.91-4.48,4,4.42-2.7,4.48-2.59-4.56,4.35-4.48,4.49,4.42-2.7,4.48-2.59-4.55,2.49-4.48,2.6,4.42-2.7,4.48-2.59S23.88,20.34,24,20.46,28.1,17.93,28.16,18s-2.35,2.81-2.31,2.89,2.27-1.39,2.31-1.33-1.45,1.29-1.42,1.33S28,20.13,28,20.16"/>      <path class="a" d="M25.41,1.15s.7-.43.71-.41,0,.37,0,.38.7-.43.71-.41,1.07,1.14,1.09,1.18.37-.22.37-.21S28,2.75,28,2.77s.38-.23.39-.22S28,5.08,28,5.14s.38-.23.38-.22-.41,2-.38,2,.38-.23.38-.22S28,8.43,28,8.47s.38-.23.38-.22S28,10.34,28,10.39s.38-.23.38-.22S28,11.43,28,11.46s.38-.23.38-.22-.39.37-.38.38.38-.23.38-.22S28,12,28,12.06s.38-.23.38-.22S28,13.23,28,13.26s.38-.23.38-.22S28,14.52,28,14.56s.38-.23.38-.22-.4,1.27-.38,1.3.38-.23.38-.22S28,17,28,17s.38-.23.38-.22S28,18.28,28,18.31s.38-.23.38-.22S27.86,20,27.88,20s.49-.3.49-.29"/>      <path class="a" d="M23.6,1.64s1.47-.9,1.49-.86-1.68,2.94-1.64,3,.38-.23.38-.22-.4,1.58-.38,1.62.38-.23.38-.22-.42,2.86-.38,2.92.38-.23.38-.22-.4,1.42-.38,1.46.38-.23.38-.22-.41,1.88-.38,1.92.38-.23.38-.22-.4.83-.38.85.38-.23.38-.22-.39.77-.38.79.38-.23.38-.22-.42,2.9-.38,3,.38-.23.38-.22-.39.44-.38.46.38-.23.38-.22-.4.93-.38,1,.38-.23.38-.22-.41,1.63-.38,1.67.38-.23.38-.22-.41,2.07-.38,2.12.38-.23.39-.22-.39.22-.39.23.38-.23.39-.22-.23,1.5-.21,1.54.38-.23.39-.22,1,.94,1,1,.65-.4.66-.38,1.09.36,1.11.38,1.44-.88,1.46-.85"/>    </g>    <g>      <path class="a" d="M32.69,1.78S34,1,34.05,1s-1.52,2.85-1.48,2.93,4.24-2.59,4.3-2.48-4.37,3.75-4.3,3.88S37,2.61,37.06,2.73,32.49,7.86,32.57,8,37,5.31,37.06,5.42s-4.56,3.7-4.48,3.83S37,6.55,37.06,6.66s-4.56,4.15-4.48,4.29S37,8.25,37.06,8.36s-4.55,3.1-4.48,3.22S37,8.87,37.06,9s-4.55,3-4.48,3.16S37,9.44,37.06,9.55s-4.57,5.18-4.48,5.33,4.42-2.7,4.48-2.59S32.51,15,32.57,15.12s4.42-2.7,4.48-2.59-4.55,3.2-4.48,3.32,4.42-2.7,4.48-2.59-4.56,3.91-4.48,4,4.42-2.7,4.48-2.59-4.56,4.35-4.48,4.49,4.42-2.7,4.48-2.59-4.55,2.49-4.48,2.6,4.42-2.7,4.48-2.59-4.28,3.72-4.21,3.84S37,17.93,37.06,18s-2.35,2.81-2.31,2.89,2.27-1.39,2.31-1.33-1.45,1.29-1.42,1.33,1.29-.79,1.31-.76"/>      <path class="a" d="M34.31,1.15S35,.72,35,.74s0,.37,0,.38.7-.43.71-.41,1.07,1.14,1.09,1.18.37-.22.37-.21-.32,1.08-.31,1.1.38-.23.39-.22-.42,2.53-.38,2.59.38-.23.39-.22-.41,2-.38,2,.38-.23.38-.22-.41,1.74-.38,1.78.38-.23.38-.22-.41,2.1-.38,2.14.38-.23.38-.22-.4,1.26-.38,1.29.38-.23.38-.22-.39.37-.38.38.38-.23.38-.22-.39.66-.38.67.38-.23.38-.22-.4,1.38-.38,1.42.38-.23.38-.22-.4,1.49-.38,1.52.38-.23.38-.22-.4,1.27-.38,1.3.38-.23.38-.22S36.87,17,36.89,17s.38-.23.38-.22-.4,1.49-.38,1.52.38-.23.38-.22S36.76,20,36.78,20s.49-.3.49-.29"/>      <path class="a" d="M32.5,1.64S34,.74,34,.78s-1.68,2.94-1.64,3,.38-.23.38-.22-.4,1.58-.38,1.62.38-.23.38-.22-.42,2.86-.38,2.92.38-.23.38-.22-.4,1.42-.38,1.46.38-.23.38-.22-.41,1.88-.38,1.92.38-.23.38-.22-.4.83-.38.85.38-.23.38-.22-.39.77-.38.79.38-.23.38-.22-.42,2.9-.38,3,.38-.23.38-.22-.39.44-.38.46.38-.23.38-.22-.4.93-.38,1,.38-.23.38-.22-.41,1.63-.38,1.67.38-.23.38-.22-.41,2.07-.38,2.12.38-.23.39-.22-.39.22-.39.23.38-.23.39-.22-.23,1.5-.21,1.54.38-.23.38-.22,1,.94,1,1,.65-.4.66-.38,1.09.36,1.11.38,1.44-.88,1.46-.84"/>    </g>  </g></svg>