<svg xmlns="http://www.w3.org/2000/svg" width="72.51" height="80.35" viewBox="0 0 72.51 80.35">  <defs>    <style>      .a, .b {        fill: #e9528e;      }      .a {        stroke: #ff0;        stroke-linecap: round;        stroke-linejoin: round;        stroke-width: 4px;      }      .c {        fill: #fff;      }    </style>  </defs>  <title>btn_back</title>  <g>    <path class="a" d="M41.14,10.19,36.26,2l-4.88,8.19a34.26,34.26,0,1,0,9.76,0Z"/>    <path class="b" d="M41.14,10.19,36.26,2l-4.88,8.19a34.26,34.26,0,1,0,9.76,0Z"/>    <g>      <path class="c" d="M34.38,53.17a1.27,1.27,0,0,1-1.53.41,57.16,57.16,0,0,1-5.85-3l-.46-.28a.09.09,0,0,0-.13,0l-.25.47c-.5.93-.89,1.61-1.3,2.24a1.53,1.53,0,0,1-1.56.66l-1.67-.32a.57.57,0,0,1-.3-.95,26.82,26.82,0,0,0,2.36-3.22l.56-.88a.05.05,0,0,0,0-.08l-1.65.05a1.54,1.54,0,0,1-1.41-.82.64.64,0,0,1,.51-.94l3.5-.3a.17.17,0,0,0,.14-.1l.1-.24c.14-.32.32-.77.39-1l.29-.77a.06.06,0,0,0-.06-.09l-4.92.29a.14.14,0,0,0-.13.1l-.09.31c0,.08-.22.95-.24,1l-.24.83h0a0,0,0,0,1,0,0l-.29,1.14c-.28,1.08-.6,2.22-.87,3.15a1.06,1.06,0,0,1-1.26.74l-1-.25a.91.91,0,0,1-.65-1.18,77.39,77.39,0,0,0,2.76-10.92,1,1,0,0,1,1.15-.83l.75.08h.2l9.65-1a3.35,3.35,0,0,1,1.88.36l.63.33A1.17,1.17,0,0,1,34,39.8l-1,3a1.49,1.49,0,0,1-1.32,1l-2.32.14a.15.15,0,0,0-.13.1l-.1.29c0,.13-.07.21-.3.79l-.32.81a.06.06,0,0,0,.06.08l3.93-.33a1.45,1.45,0,0,1,1.43.82l.25.52a.66.66,0,0,1-.57.94l-3.71.14a.13.13,0,0,0-.12.1l-.18,1a.15.15,0,0,0,.11.15c2.11.91,3.75,1.51,5.07,1.94A.69.69,0,0,1,35,52.32ZM21.84,40.59a.13.13,0,0,0-.11.11l0,.38c0,.17-.1.58-.13.69l-.14.69a.07.07,0,0,0,.08.09l8.36-.78a.14.14,0,0,0,.12-.11l.47-1.82a.07.07,0,0,0-.07-.09ZM19,35.84a.51.51,0,0,1,.35-.84l12.58-1a1.69,1.69,0,0,1,1.54.76l.08.12a.59.59,0,0,1-.45.91l-12.26.91a2,2,0,0,1-1.64-.69Z"/>      <path class="c" d="M49.55,54.06c-2.35,0-6.3-2.22-6.3-3.55,0-1,1.5-2.58,2.35-3.2a4.29,4.29,0,0,1,2.68-.75,19.55,19.55,0,0,1,3.82.52l.68.15a.08.08,0,0,0,.09-.08l0-.7A2.76,2.76,0,0,0,50,43.92c-2,0-4.58,1.11-7.52,3.31a1.31,1.31,0,0,1-1.59.17l-1-.59a.71.71,0,0,1-.12-1.14c3.54-3,5.78-5,7.95-7l.53-.48a.13.13,0,0,0,0-.15l-.46-.85a.13.13,0,0,0-.14-.06l-4.81,1.29a1.44,1.44,0,0,1-1.54-.56l-.87-1.23a.63.63,0,0,1,.41-1l8.92-1.45a2.21,2.21,0,0,1,1.76.47l1.73,1.43a.84.84,0,0,1,0,1.29c-1.92,1.63-2.56,2.16-3.7,3.06l-1.31,1a0,0,0,0,0,0,.06l1.83,0a7.11,7.11,0,0,1,3.58.81,6.3,6.3,0,0,1,2.89,5C56.58,50.56,52.45,54.06,49.55,54.06ZM48.4,49a3.6,3.6,0,0,0-1.21.19l-1.08.33a.05.05,0,0,0,0,.09l.89.65a4.53,4.53,0,0,0,2.54,1,2.45,2.45,0,0,0,1.57-.69l.79-.62a.06.06,0,0,0,0-.1l-.93-.34A7.78,7.78,0,0,0,48.4,49Z"/>    </g>  </g></svg>