<svg xmlns="http://www.w3.org/2000/svg" width="92.3" height="19.45" viewBox="0 0 92.3 19.45">  <defs>    <style>      .a {        fill: none;        stroke: #e9528e;        stroke-linecap: round;        stroke-linejoin: round;      }    </style>  </defs>  <title>bg_date</title>  <path class="a" d="M.5,18.95H69.26l5.45-.17c.79,0,1.59-.14,2.38-.12a7.55,7.55,0,0,0,2.32-.18,12,12,0,0,0,2.39-1.22,21.39,21.39,0,0,0,2.59-1.43,10.18,10.18,0,0,0,2.23-2.64,13.16,13.16,0,0,0,1.65-3.08,4.79,4.79,0,0,0,0-3.43,5.08,5.08,0,0,1-.44-1,.9.9,0,0,1,.38-1c.36-.18.78,0,1.17,0a2.41,2.41,0,0,0,1.11-.36,3.32,3.32,0,0,0,1.06-.73,1.13,1.13,0,0,0,.22-1.2,1.68,1.68,0,0,0-1-.68L88,.72a2.41,2.41,0,0,0-1-.21,1.82,1.82,0,0,0-1.32,1.07,2.18,2.18,0,0,0-.27,1.23,1,1,0,0,0,.66.85l.25.41s-.06.17-.1.22a18.29,18.29,0,0,1-2,2.78,13.42,13.42,0,0,0-1.21,1.3c-.26.36-.45.75-.73,1.1A5.3,5.3,0,0,1,80,10.9a19.14,19.14,0,0,1-8.84,1.5,6.54,6.54,0,0,0-2.58.11.63.63,0,0,0-.39.28.7.7,0,0,0,0,.49l.43,1.48a2.36,2.36,0,0,0,.45,1,2.66,2.66,0,0,0,.94.56l1.15.05a3.38,3.38,0,0,0,1.28-.14,2.78,2.78,0,0,1,.67-.17,5.59,5.59,0,0,1,1.23.3,8.5,8.5,0,0,0,2-.27A6,6,0,0,0,78,16a11.61,11.61,0,0,0,1.25-.77,7.64,7.64,0,0,1,1-.31,6.25,6.25,0,0,0,1.74-1l1.66-1.25a4.62,4.62,0,0,0,.85-.76c.68-.84.7-2.06,1.28-3"/></svg>