<svg xmlns="http://www.w3.org/2000/svg" width="105.42" height="25.7" viewBox="0 0 105.42 25.7">  <defs>    <style>      .a {        fill: #0075c2;      }    </style>  </defs>  <title>btn_normal_on</title>  <g>    <g>      <path class="a" d="M21.86,20.77l-.15,0a.57.57,0,0,1-.23-.12.58.58,0,0,1-.16-.18A.58.58,0,0,1,21,20.2c-.16-.29-.16-.29.56-2l-.49.3C19,19.78,19,19.78,18.72,19.7a.58.58,0,0,1-.35-.27c-.17-.3-.22-.38.45-1.14l-.24.15c-3.28,2-3.3,2-3.62,1.91a.59.59,0,0,1-.36-.27.57.57,0,0,1,.41-.84c.37-.17,1.87-1.09,3-1.77,3.28-2,3.3-2,3.62-1.91a.58.58,0,0,1,.36.27c.17.29.21.37-.37,1.06,1-.59,1-.57,1.27-.52a.58.58,0,0,1,.36.27c.16.27.16.28-.55,1.94.94-.58,1-.58,1.23-.52a.58.58,0,0,1,.35.27c.24.41.13.55-.79,1.26,0,.23-.2.4-.49.58v0l-.38.23C22.18,20.68,22,20.77,21.86,20.77Z"/>      <path class="a" d="M5,25.5l-.16,0a.58.58,0,0,1-.36-.27c-.14-.25-.14-.25.32-1.63-1.25.76-1.28.78-1.55.71A.57.57,0,0,1,2.89,24a.57.57,0,0,1-.06-.46h0l0-.16,0-.29,0-.15-.21-.46.24-.14c.36-.22.48-.3.73-.24a.57.57,0,0,1,.35.27.45.45,0,0,1,.08.29l.18-.11c1.33-.81,1.36-.83,1.63-.76a.57.57,0,0,1,.35.26c.14.25.15.25-.34,1.7l1.58-1c2.93-1.79,3-1.79,3.27-1.71a.58.58,0,0,1,.36.27c.15.26.15.26-.5,2.05l-.06.18,1-.63c2.47-1.51,2.47-1.5,2.78-1.42a.58.58,0,0,1,.36.27c.12.21.12.21-.18,1.7l0,.12,1.57-1C18.86,21,18.88,21,19.19,21.08a.58.58,0,0,1,.36.27c.12.21.18.31,0,.56,1.74-1.06,1.79-1,2.06-1a.58.58,0,0,1,.36.27c.17.29.21.37-.39,1.08.32-.17.4-.16.56-.12a.58.58,0,0,1,.35.27.86.86,0,0,1,.11.26c.08.14.09.16,0,.85l.09,0a.57.57,0,0,1,.35.27c.21.37,0,.63-.25.8l0,0-.19.11c-.27.17-.42.25-.62.22a.48.48,0,0,1-.51-.26c-.09-.16-.1-.18-.07-.76l-.41.25c-1.46.89-1.49.91-1.77.84l-.12,0a.54.54,0,0,1-.45.06.58.58,0,0,1-.35-.26c-.17-.3-.22-.38.42-1.12-2.52,1.54-2.55,1.54-2.86,1.46a.58.58,0,0,1-.36-.27c-.12-.21-.18-.32,0-.57-1.62,1-1.67,1-1.93.9A.58.58,0,0,1,13.3,25c-.12-.22-.12-.22.17-1.68l0-.13-1.28.78c-2.46,1.5-2.47,1.5-2.77,1.42a.58.58,0,0,1-.36-.27c-.15-.26-.15-.26.5-2.05l.07-.2-1.54.94C5.69,25.24,5.25,25.5,5,25.5Z"/>      <path class="a" d="M19.66,14.9l-.16,0a.58.58,0,0,1-.35-.27.57.57,0,0,1,.21-.77l.16-.06c.25-.12,1.09-.64,1.71-1,2-1.23,2-1.23,2.32-1.16a.58.58,0,0,1,.35.27.6.6,0,0,1,.12.36c.09.16.09.18,0,1h.06l-.09.32,0,.31.2.43-.21.13c-.34.21-.46.28-.7.22a.57.57,0,0,1-.35-.26c-.09-.15-.1-.17,0-.9l-.61.37c-1.65,1-1.68,1-2,1a.57.57,0,0,1-.2-.09A1,1,0,0,1,19.66,14.9Zm4.21-.82-.08.26Z"/>      <path class="a" d="M20.79,4.59l-.16,0a.57.57,0,0,1-.35-.27.57.57,0,0,1,.2-.78l.13-.05c.15-.08.6-.35.9-.54,1.18-.72,1.2-.74,1.47-.67a.57.57,0,0,1,.35.27c.13.22.11.29-.08,1l-.06.23.17.36-.22.13c-.34.21-.47.29-.71.22a.57.57,0,0,1-.35-.27A.49.49,0,0,1,22,4C21.17,4.47,21,4.59,20.79,4.59Z"/>      <path class="a" d="M16.9,2.16l-.16,0a.57.57,0,0,1-.34-.26c-.21-.34,0-.56.32-1l0,0L16.66.62l.22-.13c.34-.21.47-.29.71-.23a.58.58,0,0,1,.23.12.57.57,0,0,1,.51-.1l-.14.55L18,.94l.18-.1.21.52-.57.34C17.24,2.06,17.06,2.16,16.9,2.16Z"/>      <path class="a" d="M16.59,6.44l-.15,0a.58.58,0,0,1-.36-.27c-.12-.21-.2-.35,0-.55-.11-.22-.08-.37.4-.8a.58.58,0,0,1-.17-.12h0A.57.57,0,0,1,16,4.56c-.44.24-.52.22-.69.17A.58.58,0,0,1,15,4.47c-.15-.25-.21-.36.16-.78C13,5,12.94,5,12.66,4.91a.58.58,0,0,1-.36-.27c-.13-.23-.17-.32.12-.78C10.31,5.15,10.3,5.15,10,5.08a.58.58,0,0,1-.36-.27A.57.57,0,0,1,10,4c.26-.13,1.19-.7,1.88-1.12,2.18-1.33,2.19-1.33,2.49-1.26a.58.58,0,0,1,.36.27c.14.24.17.32-.16.83l.95-.58C18.66.21,18.68.21,19,.3a.58.58,0,0,1,.36.27c.14.25.21.36-.14.75,1-.61,1.09-.59,1.31-.53a.58.58,0,0,1,.36.27l.08.15.13,0a.58.58,0,0,1,.35.27.55.55,0,0,1,.12.35c.83-.47.91-.45,1.11-.4a.59.59,0,0,1,.36.27.67.67,0,0,1,.13.35.57.57,0,0,1-.41.83c-.36.17-1.79,1-2.84,1.68C17.31,6.18,16.85,6.44,16.59,6.44Z"/>      <path class="a" d="M16.35,9.46l-.16,0a.58.58,0,0,1-.35-.27c-.12-.21-.18-.34-.07-.51s-.08-.48-.18-1.14l-.05-.36-.11.06c-1,.59-1,.61-1.27.54a.57.57,0,0,1-.27-.16l-.36-.33-.11-.1L13,7.45C12,8,12,8.07,11.7,8a.57.57,0,0,1-.34-.25.5.5,0,0,1-.06-.14h0c-1,.59-1,.62-1.27.55l.14-.55.49-.28-.5.28L10,7.08c.11-.05.42-.25.74-.44,1-.6,1-.62,1.27-.55a.58.58,0,0,1,.34.25.51.51,0,0,1,.07.14c1-.59,1-.61,1.27-.55a.57.57,0,0,1,.27.16l.36.33.11.1.45-.27c1-.59,1-.61,1.27-.54a.57.57,0,0,1,.35.26c.07.12.07.12.26,1.37l.06.39,1.07-.65C19.77,5.9,19.78,5.9,20.07,6a.58.58,0,0,1,.35.27c.12.22.18.35.05.53a.57.57,0,0,1-.28.53L20,7.37c-.24.12-1,.6-1.62,1C16.88,9.28,16.56,9.46,16.35,9.46Z"/>      <path class="a" d="M16.14,12.41l-.16,0a.58.58,0,0,1-.35-.27c-.18-.32-.24-.41.56-1.19a.65.65,0,0,1-.18,0,.58.58,0,0,1-.19-.09L15,10.38l-.7-.35-.54.33c-1,.6-1,.62-1.28.55a.57.57,0,0,1-.36-.27L12,10.36l-.24.15c-.94.58-1,.6-1.24.53l-.07,0a.5.5,0,0,1-.43.06l.1-.4a.44.44,0,0,1,0-.32L9.91,10c.1,0,.41-.24.71-.42.93-.57,1-.59,1.23-.52l.07,0A.51.51,0,0,1,12.37,9a.57.57,0,0,1,.36.27l.13.28.28-.17c1-.59,1-.62,1.28-.55a.57.57,0,0,1,.19.09l.86.43.72.35c.34-.19,1-.59,1.51-.91,2-1.2,2-1.19,2.26-1.12a.58.58,0,0,1,.35.27c.19.33.24.42-.62,1.25l.14,0a.57.57,0,0,1,.35.27.57.57,0,0,1-.21.77l-.16.06c-.24.12-1,.6-1.62,1C16.67,12.22,16.36,12.41,16.14,12.41Z"/>      <path class="a" d="M18.07,17.67l-.16,0a.58.58,0,0,1-.35-.27c-.15-.27-.17-.29.39-1.41-1,.58-1,.58-1.25.52a.58.58,0,0,1-.29-.18.59.59,0,0,1-.13-.16c-.18-.31-.24-.41.5-1.1-.85.49-.93.48-1.14.42a.58.58,0,0,1-.36-.27,1.48,1.48,0,0,1-.1-.19L15,15a.58.58,0,0,1-.36-.27c-.07-.13-.07-.13-.2-1.31l0-.25-1.09.66C11.4,15,11.39,15,11.1,15a.58.58,0,0,1-.35-.27.57.57,0,0,1,.21-.77l.16-.06c.24-.12,1.06-.62,1.67-1,2-1.21,2-1.21,2.28-1.13a.58.58,0,0,1,.35.27c.07.13.07.13.2,1.31l0,.26,1.53-.92c2.4-1.47,2.41-1.47,2.72-1.39a.58.58,0,0,1,.36.27l0,.09c1-.58,1.07-.56,1.28-.51a.58.58,0,0,1,.36.27c.27.47.28.48-2.34,2.72a.57.57,0,0,1,.15.17c.15.27.17.29-.39,1.42,1.18-.72,1.2-.72,1.46-.65a.57.57,0,0,1,.35.27.57.57,0,0,1-.21.77l-.13.05c-.18.09-.74.44-1.16.69C18.52,17.51,18.26,17.67,18.07,17.67Z"/>      <path class="a" d="M11.13,18,11,18a.57.57,0,0,1-.35-.26c-.18-.3-.08-.46.26-1l.09-.16-.11-.23.21-.12c.33-.2.46-.28.7-.22a.57.57,0,0,1,.34.25c.43-.25.5-.26.7-.2l-.14.55-.49.28.49-.28.2.52c-.1,0-.39.23-.69.41C11.48,17.93,11.3,18,11.13,18Z"/>      <path class="a" d="M10.95,21.82l-.15,0a.59.59,0,0,1-.36-.27c-.15-.26-.22-.39.13-.73a.57.57,0,0,1-.12-.14c-.2-.34-.24-.41.79-1.48-2,1.21-2,1.2-2.31,1.13a.58.58,0,0,1-.24-.13c-.59.33-.67.3-.85.26a.58.58,0,0,1-.22-.11c-.52.29-.59.27-.77.23a.58.58,0,0,1-.35-.27.44.44,0,0,1,0-.51c-.68.4-.72.39-.94.34a.58.58,0,0,1-.35-.27.57.57,0,0,1,.21-.77L5.5,19c.18-.09.72-.42,1.12-.67,1.41-.86,1.43-.87,1.71-.8a.58.58,0,0,1,.35.27.45.45,0,0,1,0,.53c1.84-1.13,1.86-1.12,2.14-1.05a.58.58,0,0,1,.23.12C13.44,16,13.47,16,13.77,16.06a.58.58,0,0,1,.26.14c.29-.13.36-.11.5-.08a.58.58,0,0,1,.36.27c.2.34.24.41-.77,1.46,1.66-1,1.71-1,2-.93a.58.58,0,0,1,.36.27l.06.11c1-.6,1.11-.58,1.32-.52a.59.59,0,0,1,.36.27.57.57,0,0,1-.41.84c-.39.18-2,1.15-3.16,1.87C11.72,21.54,11.22,21.82,10.95,21.82Z"/>      <path class="a" d="M3.24,21.45l-.16,0a.57.57,0,0,1-.35-.27c-.11-.19-.18-.31,0-.52-.31.15-.4.13-.54.09a.58.58,0,0,1-.36-.27c-.3-.51-.32-.56,3.64-3.62C.9,19.61.81,19.59.48,19.5a.6.6,0,0,1-.36-.27c-.29-.51-.31-.55,3.55-3.59a.48.48,0,0,1-.32,0A.58.58,0,0,1,3,15.39c-.72.4-.81.38-1,.33a.59.59,0,0,1-.36-.27c-.09-.16-.09-.16-.08-1.33,0,0,0,0,0,0a.52.52,0,0,1-.43.06.57.57,0,0,1-.35-.26.69.69,0,0,1-.07-.14C.57,13.4.77,13.16,1,13l0-.06.22-.13c.31-.19.44-.27.64-.24l.15,0a.49.49,0,0,1,.29,0,.57.57,0,0,1,.36.27c.09.15.09.15.08,1.32,0,0,0,.08,0,.12.72-.42,1.84-1.1,2.74-1.65,3.66-2.24,3.7-2.23,4-2.15a.59.59,0,0,1,.36.27c.13.23.21.37,0,.62l0,.06c.29.51.32.54-3.48,3.54,5.08-3.1,5.17-3.09,5.52-3a.6.6,0,0,1,.36.27c.3.52.32.56-3.9,3.81a.47.47,0,0,1,.26,0,.58.58,0,0,1,.36.27c.29.5.29.5-2.77,2.87L4.61,20.42l.1.24L4.16,21C3.57,21.35,3.4,21.45,3.24,21.45Z"/>      <path class="a" d="M5.82,3l-.16,0a.58.58,0,0,1-.35-.27.45.45,0,0,1,0-.56l0,0c-.19-.32-.06-.5.27-1L5.61,1,5.51.81,5.72.68c.23-.14.65-.4.95-.07C6.94.46,7,.46,7.19.5a.58.58,0,0,1,.32.22C7.92.49,8,.5,8.18.55a.58.58,0,0,1,.35.27.57.57,0,0,1-.21.77l-.13.05c-.16.08-.63.37-1,.59C6.23,2.83,6,3,5.82,3Z"/>      <path class="a" d="M5.77,13l-.16,0a.58.58,0,0,1-.36-.27c-.13-.23-.21-.36,0-.58-.1-.18-.16-.3-.08-.45s0-.32.35-.68a.57.57,0,0,1-.26-.23.58.58,0,0,1-.12-.4c0-.11,0-.22.17-.38l-.05-.08C5,9.55,5,9.52,6.63,7.73c-.76.45-.82.44-1,.38a.58.58,0,0,1-.35-.27C5,7.42,5,7.38,7.19,5.31c-1.3.78-1.36.76-1.6.7a.58.58,0,0,1-.36-.27C5,5.38,5,5.32,6.21,4.06,3.72,5.58,3.69,5.58,3.38,5.5A.58.58,0,0,1,3,5.23l-.55-1-.22-.41c-.27.13-.59.21-.82-.16a.57.57,0,0,1,.18-.78l.08,0,.2-.12c.28-.17.76-.47,1.06,0l.51,1,.29.54c.56-.32,1.58-.94,2.38-1.43C9.16.93,9.18.93,9.5,1a.58.58,0,0,1,.36.27c.21.36.24.42-1,1.66,1.92-1.17,2-1.15,2.23-1.08a.58.58,0,0,1,.36.27c.25.44.27.47-2.19,2.76a.53.53,0,0,1,.21,0,.58.58,0,0,1,.35.27c.22.39.24.42-1.42,2.24,2.16-1.32,2.18-1.3,2.47-1.23a.58.58,0,0,1,.36.27c.25.43.29.5-1.39,1.68a.56.56,0,0,1,0,.14c.1.2.08.34-.31.72a.58.58,0,0,1,.27.24l.06.12c.5-.27.58-.25.75-.21a.58.58,0,0,1,.36.27.57.57,0,0,1-.38.84c-.3.14-1.4.81-2.21,1.31C6.4,12.81,6,13,5.77,13Z"/>      <path class="a" d="M17.47,17.45l-.15,0a.57.57,0,0,1-.35-.27l-.43-.66-.17-.26a.51.51,0,0,1-.62-.22s-.34-.29-.66-.58L14.65,15c-.45.27-.55.34-.8.27h0l-.91-.11L12,15.06l-.16.1c-.45.28-.56.34-.8.28l.14-.55.49-.28-.49.28L11,14.38l.3-.18c.44-.27.55-.34.79-.28h0L13,14l.87.11.16-.1c.45-.28.56-.34.8-.28a.57.57,0,0,1,.29.17l.71.65.46.41a.54.54,0,0,1,.73.18l.45.7.16.25a.52.52,0,0,1,.29,0l-.08.33.09.14-.14.08.25.51-.13.08A.91.91,0,0,1,17.47,17.45Zm.25-.72-.4.23Z"/>      <path class="a" d="M15.37,18.23l-.16,0a.56.56,0,0,1-.27-.17l-.66-.58-.4-.35c-.36.22-.48.29-.71.23a.57.57,0,0,1-.19-.09l-.33-.19L12.51,17l-.05,0c-.42.26-.53.33-.78.26l.14-.55.2-.11h0l-.2.11-.23-.51.28-.17c.32-.2.72-.44,1-.15l.31.17.11.06,0,0c.4-.24.52-.32.76-.25a.57.57,0,0,1,.28.17l.66.58.41.35h0c.48-.29.58-.35.82-.29l.06,0,.6.11.51.09.14-.08c.37-.23.84-.51,1.14,0a.57.57,0,0,1-.19.78l-.09,0-.27.16c-.43.26-.54.33-.79.27l-.05,0-.6-.11-.51-.09-.18.11C15.68,18.14,15.54,18.23,15.37,18.23Z"/>      <path class="a" d="M10.89,17.83l-.15,0a.57.57,0,0,1-.36-.28.51.51,0,0,1-.06-.38c-.06-.26.11-.46.43-.8l-.08-.19.28-.17c.42-.26.54-.33.78-.26a.57.57,0,0,1,.35.27c.18.31.06.52-.22.84a1.06,1.06,0,0,1-.37.6h0l0,.1-.15.09A1,1,0,0,1,10.89,17.83Z"/>      <path class="a" d="M8.5,18.79l-.15,0A.57.57,0,0,1,8,18.5c-.22-.38-.22-.38,1.49-2.67l.64-.86,0-.13.11-.07h0l-.12.07-.21-.52.54-.32c.73-.45.79-.49,1-.42a.57.57,0,0,1,.35.27c.22.38.22.38-1.49,2.66l-.59.79.18,0,.34.09.2-.12c.53-.32.62-.38.87-.32l-.14.55-.37.22.37-.22.23.52-.36.22c-.53.32-.62.38-.87.32l-.09,0-.46-.12-.34-.09-.18.11C8.8,18.7,8.66,18.79,8.5,18.79Zm2.29-1h0Z"/>      <path class="a" d="M15.88,12.17l-.15,0a.57.57,0,0,1-.35-.26.5.5,0,0,1-.06-.44.46.46,0,0,1,0-.24L15,11l-.28-.21,0,0c-.46.28-.57.35-.82.28h0C13.63,11,13,11,12.53,11c-.63,0-1-.06-1.28-.09L11,11c-.48.29-.59.36-.83.29l.15-.55.3-.16h0l-.3.16-.23-.52.33-.19c.48-.3.59-.36.83-.29h0c.18,0,.81.06,1.28.08.63,0,1,.06,1.28.09l.19-.11c.46-.28.58-.35.82-.28a.57.57,0,0,1,.25.13l.52.38.28.2a.62.62,0,0,1,.54-.12.57.57,0,0,1,.34.26.49.49,0,0,1,0,.49c.11.29-.08.51-.32.81l-.05.06.06.12-.16.09A1,1,0,0,1,15.88,12.17Z"/>      <path class="a" d="M9.25,13.29l-.15,0A.57.57,0,0,1,8.75,13c-.12-.21-.12-.27.08-1a.56.56,0,0,1-.14-.16c-.18-.32-.09-.46.42-1.18L9,10.35l.36-.22c.51-.32.61-.37.86-.31a.57.57,0,0,1,.34.25c.19.32.11.46-.37,1.13,0,.12,0,.26-.09.66l1.3,0c.72,0,1.16,0,1.44.06l.19-.12c.46-.28.58-.35.82-.29l.13.05a.59.59,0,0,1,.51-.1l.07,0a.55.55,0,0,1,.34-.08.46.46,0,0,1,.46.19l.11-.07c.66-.4.73-.45,1-.38a.57.57,0,0,1,.35.27c.21.37,0,.6-.31.86l0,.09-.33.2c-.46.28-.58.35-.8.31a.47.47,0,0,1-.34,0,.57.57,0,0,1-.28-.17,1.92,1.92,0,0,1-.54.25.49.49,0,0,1-.3,0l-.07,0a.54.54,0,0,1-.44.06L13.27,13a.59.59,0,0,1-.51.1h0c-.2,0-.9,0-1.42-.05-.71,0-1.15,0-1.43-.05L9.81,13A1.16,1.16,0,0,1,9.25,13.29Z"/>      <path class="a" d="M16.1,9.24l-.15,0a.57.57,0,0,1-.35-.27.49.49,0,0,1,0-.49c-.06-.13,0-.25.05-.59h0l-1-.07-.93-.07-.22.13c-.5.3-.6.36-.85.3l-.08,0L12.11,8l-.39-.09-.2.12c-.5.3-.6.37-.85.3h0a.5.5,0,0,1-.4,0l.07-.28v0a.5.5,0,0,1,0-.51l-.11-.26.35-.21c.5-.31.6-.37.85-.31h0a.5.5,0,0,1,.38,0l.08,0,.5.12.38.09.18-.11c.5-.3.6-.36.85-.3h0l1,.07.93.07.17-.1c.44-.27.55-.33.79-.27a.57.57,0,0,1,.35.27c.12.21.12.27-.09.94a.68.68,0,0,1,.11.14.53.53,0,0,1,0,.54.57.57,0,0,1-.22.65l-.09,0L16.59,9A1,1,0,0,1,16.1,9.24Z"/>      <path class="a" d="M9.85,10.46l-.15,0a.57.57,0,0,1-.34-.25A.51.51,0,0,1,8.71,10c-.16-.28-.17-.29.34-1.49L9.18,8l.1-.06h0L9.18,8,9,7.45l.37-.22c.53-.32.63-.38.87-.32a.57.57,0,0,1,.35.27c.15.27.15.27-.41,1.6L10,9l0,.06c.34-.2.44-.24.65-.19A.57.57,0,0,1,11,9a1,1,0,0,1,.55-.18.49.49,0,0,1,.28,0h0l1,.08L13.7,9l.19-.11c.33-.2.68-.42,1-.24l.4.1.34.09.17-.11c.49-.3.59-.36.84-.3L16.47,9,16,9.25,16.47,9l.23.52-.34.2c-.49.3-.59.36-.84.3l-.09,0L15,9.83l-.35-.09-.15.09c-.46.28-.58.35-.82.28h0l-1-.08-.93-.08-.19.12c-.41.25-.55.33-.75.3a.48.48,0,0,1-.3,0,.57.57,0,0,1-.2-.1A.92.92,0,0,1,9.85,10.46Z"/>      <path class="a" d="M16.34,6.21l-.15,0a.57.57,0,0,1-.35-.26.57.57,0,0,1-.08-.24L15,5.24l-.81-.46-.08,0c-.46.28-.57.35-.82.29a.57.57,0,0,1-.21-.1c-.29.17-.4.21-.6.15l-.07,0L11.78,5l-.53-.11L11.08,5c-.49.3-.59.36-.84.29l.15-.55.3-.16h0l-.3.16-.23-.52.33-.2c.48-.29.58-.36.83-.29l.06,0,.62.13.53.11.16-.1c.37-.23.75-.46,1-.19.28-.16.39-.2.59-.14a.56.56,0,0,1,.21.11l1,.57.81.46a.65.65,0,0,1,.57-.14.57.57,0,0,1,.34.26c.22.37,0,.63-.29.93l0,0L17,5.9l-.16.1A1,1,0,0,1,16.34,6.21Z"/>      <path class="a" d="M13.14,7.24l-.15,0-.07,0c-.21,0-1-.14-1.6-.22-.8-.1-1.27-.16-1.57-.22h0c-.27.17-.41.25-.65.19a.57.57,0,0,1-.36-.27c-.15-.26-.16-.31.3-1.21a.57.57,0,0,1-.31-.25.5.5,0,0,1-.07-.44v0c0-.17.11-.25.33-.39H9l.36-.21c.4-.24.55-.33.71-.33h.08a.49.49,0,0,1,.23,0,.57.57,0,0,1,.35.27c.17.29.16.32-.48,1.56l0,0,1.26.17c.81.1,1.29.16,1.59.22l.2-.12c.4-.24.54-.33.71-.32a.49.49,0,0,1,.23,0,.49.49,0,0,1,.36,0l.05,0,.63.11.56.1L16,5.7c.5-.3.6-.37.85-.3l-.14.55-.33.19.33-.19.23.52-.34.21c-.5.3-.59.37-.85.3l-.05,0L15,6.84l-.56-.1-.2.12c-.49.3-.6.36-.83.31a.46.46,0,0,1-.23,0Z"/>      <path class="a" d="M2.86,3.72l-.15,0,.14-.55.49-.29-.49.29-.23-.52L3,2.42c.52-.32.61-.37.86-.32l.07,0,.6.12.51.1.21-.13c.52-.32.61-.37.86-.31l-.14.55-.49.29.49-.29L6.17,3l-.36.21c-.52.32-.61.38-.86.31l-.07,0-.6-.12-.51-.1-.21.13C3.17,3.63,3,3.72,2.86,3.72Z"/>      <path class="a" d="M5.56,2.72l-.14,0a.57.57,0,0,1-.36-.27c-.16-.28-.11-.37.33-1.22L5.48,1,5.32.65,5.59.49C6,.23,6.13.16,6.37.22a.57.57,0,0,1,.35.26c.16.28.13.37-.28,1.16a.57.57,0,0,1-.19.76l-.07,0L6,2.52A1,1,0,0,1,5.56,2.72Z"/>      <path class="a" d="M9.36,3.21l-.15,0a.57.57,0,0,1-.35-.26A8.71,8.71,0,0,1,8.5,2l-.08-.23a.58.58,0,0,1-.67,0l-.38-.19-.18-.09-.06,0c-.42.26-.54.33-.78.26l.14-.55L6.94,1l-.47.27L6.24.71,6.52.54c.43-.26.54-.33.79-.27a.55.55,0,0,1,.17.08l.38.19L8,.64l0,0C8.49.36,8.6.3,8.84.36A.57.57,0,0,1,9.2.62a8.71,8.71,0,0,1,.36,1l.08.23c.26-.15.37-.19.57-.13h0c.25,0,1.24,0,2,0,1.07,0,1.67,0,2,0l.23-.14c.51-.31.61-.37.86-.31l.11,0,.42.14.28.09.18-.11c.52-.32.61-.38.86-.32L17,1.66l-.37.22L17,1.66l.23.52-.36.21c-.52.32-.61.38-.86.32l-.12,0-.43-.14-.27-.09-.17.1c-.51.32-.61.37-.85.31h0c-.25,0-1.24,0-2,0-1.07,0-1.67,0-2,0l-.17.1C9.66,3.13,9.52,3.21,9.36,3.21Z"/>      <path class="a" d="M16.67,1.92l-.15,0a.57.57,0,0,1-.35-.27c-.21-.36,0-.57.36-1L16.45.5l.31-.19c.46-.28.57-.35.82-.29a.57.57,0,0,1,.35.27c.23.4,0,.61-.5,1.08l-.17.16,0,.09-.16.09A1,1,0,0,1,16.67,1.92Zm-.08-.53h0Z"/>      <path class="a" d="M22.85,3.94l-.15,0a.57.57,0,0,1-.35-.27c-.08-.14-.09-.15-.07-.72l-.13-.07-.7-.39L21,2.2l0,0c-.42.26-.53.33-.78.26a.57.57,0,0,1-.24-.13L19,1.76l-.72-.48h0c-.43.26-.54.33-.79.27L17.62,1l.2-.11h0l-.2.11L17.39.49l.29-.17c.42-.26.53-.33.78-.26a.56.56,0,0,1,.24.13l.93.62.7.46h0c.42-.26.53-.33.78-.26a.56.56,0,0,1,.2.1l.69.38.49.27a.6.6,0,0,1,.51-.1.57.57,0,0,1,.34.26c.09.15.09.15.07.89,0,.23,0,.46,0,.53h-.14l.17.35-.13.08A.89.89,0,0,1,22.85,3.94Zm0-.57-.15.08Z"/>      <path class="a" d="M21,4.82l-.16,0L21,4.25,21.41,4h0L21,4.25l-.22-.52.37-.22c.54-.33.63-.39.88-.33a.57.57,0,0,1,.2.09l.29.17.07,0,.09-.05c.47-.29.58-.35.83-.29l-.14.55-.29.16.29-.16.23.52-.32.19c-.47.29-.58.35-.83.29a.56.56,0,0,1-.19-.09L22,4.42l-.07,0-.15.09C21.33,4.73,21.18,4.82,21,4.82Z"/>      <path class="a" d="M23.7,14.17l-.15,0a.57.57,0,0,1-.34-.25.55.55,0,0,1-.08-.25h0c-.08-.14-.08-.14-.12-1.09v-.09l-.11,0-1-.18-1-.18-.17.1c-.48.29-.58.35-.82.29a.57.57,0,0,1-.28-.17.54.54,0,0,1-.41.05.57.57,0,0,1-.36-.27c-.13-.23-.13-.23.26-1.84l.13-.54a.56.56,0,0,1-.2-.2c-.14-.24-.13-.3.18-1.08a.58.58,0,0,1-.09-.12.49.49,0,0,1,0-.46.53.53,0,0,1,.07-.41c-.1-.19-.05-.31.27-1.24A.6.6,0,0,1,19.34,6c-.17-.3-.16-.32.49-1.52l.11-.21-.22-.5.37-.22c.53-.33.62-.38.87-.32a.57.57,0,0,1,.35.27c.17.3.16.32-.49,1.52l-.09.16c.14.26.13.29-.21,1.3a.69.69,0,0,1,.1.12.54.54,0,0,1,0,.58.48.48,0,0,1,0,.39c0,.16,0,.33-.25.92a.61.61,0,0,1,.09.12c.13.23.13.23-.26,1.84l-.13.55.12.1c.41-.25.52-.3.75-.24l.07,0c.16,0,.6.12,1,.19l1,.18c.18-.11.65-.37.94.09.09.16.09.16.13,1.11v.12a.57.57,0,0,1,.33.28c.16.3,0,.51-.16.79l-.07.11.05.11-.13.08A.9.9,0,0,1,23.7,14.17Z"/>      <path class="a" d="M20.36,15.1l-.16,0,.15-.55.3-.17h0l-.3.17L20.12,14l.33-.2c.49-.3.59-.36.83-.29l.16.07.32.15.13.06.14-.09c.52-.32.61-.37.86-.31a.57.57,0,0,1,.19.09l.29.16.08,0,.08,0c.46-.28.57-.35.82-.28l-.14.55-.27.15.27-.15.23.52-.31.19c-.46.28-.57.35-.82.28a.58.58,0,0,1-.19-.09l-.3-.17-.07,0-.12.07c-.52.32-.61.37-.86.31l-.16-.07-.32-.15-.13-.06-.12.07C20.67,15,20.52,15.1,20.36,15.1Z"/>      <path class="a" d="M22.73,20l-.16,0a.57.57,0,0,1-.35-.26c-.25-.42-.13-.53,1-1.56l.16-.15,0-.06a.53.53,0,0,1-.26,0,.57.57,0,0,1-.3-.19l-.58-.58-.28-.28a.54.54,0,0,1-.42.05.57.57,0,0,1-.34-.26h0s-.28-.28-.55-.56l-.32-.34a.53.53,0,0,1-.4,0,.57.57,0,0,1-.34-.26.45.45,0,0,1-.08-.31.47.47,0,0,1-.35,0A.57.57,0,0,1,18.8,15c-.17-.3-.06-.51.15-.75l-.09-.19.29-.18c.45-.27.55-.34.8-.28l.08,0a.51.51,0,0,1,.44-.06.57.57,0,0,1,.34.25c.12.19.12.26,0,.81a.55.55,0,0,1,.12.14h0s.28.28.55.56l.32.34a.53.53,0,0,1,.41,0,.57.57,0,0,1,.29.18l.55.55.31.31a.54.54,0,0,1,.41-.06.57.57,0,0,1,.35.26l.16.33a.51.51,0,0,1,.38,0,.57.57,0,0,1,.35.26c.24.41.13.53-.92,1.48l.12.3-.55.33C23.06,19.92,22.89,20,22.73,20Z"/>      <path class="a" d="M21.81,21.05l-.15,0a.57.57,0,0,1-.35-.26l-.18-.36a.51.51,0,0,1-.57-.23,2.1,2.1,0,0,1-.09-.23l-.18,0c-.25,0-1.18,0-1.87,0-1,0-1.6,0-1.94,0l-.33.2c-.62.38-.7.43-1,.37l.13-.55.48-.29-.49.29-.22-.52.45-.27c.62-.38.7-.43,1-.36h0c.24,0,1.18,0,1.87,0,1,0,1.58,0,1.92,0h0c.16-.1.65-.39.95.06a2,2,0,0,1,.1.23l.16,0a.57.57,0,0,1,.34.26l.16.32,0,0c.67-.41.74-.45,1-.39l-.13.55-.49.29.49-.29.22.52-.48.29C22.13,21,22,21.05,21.81,21.05Z"/>      <path class="a" d="M22.32,24.52l-.15,0a.57.57,0,0,1-.35-.27c-.06-.11-.06-.11-.17-1v-.07a.51.51,0,0,1-.36-.24.56.56,0,0,1-.09-.42.57.57,0,0,1-.16-.17.45.45,0,0,1-.07-.19.52.52,0,0,1-.42,0l-.46-.1L19.65,22l-.18.11c-.49.3-.59.36-.83.3l-.09,0-.44-.12-.31-.08-.17.1c-.49.3-.59.36-.84.29l-.05,0-.55-.11-.46-.09-.18.11c-.49.3-.59.36-.83.3a.57.57,0,0,1-.35-.26.53.53,0,0,1-.42.06.57.57,0,0,1-.36-.27c-.16-.27-.16-.28.41-1.53l.13-.54.16-.1h0l-.16.1-.22-.52.41-.25c.58-.35.67-.41.92-.35a.57.57,0,0,1,.36.27c.16.28.16.28-.49,1.68l-.15.32.05.07c.42-.26.53-.31.76-.26l.07,0,.55.11.46.09.18-.11c.49-.3.59-.36.84-.3L18,21l.44.12.32.09.17-.1c.49-.3.59-.36.83-.3l.07,0,.53.11.43.09.14-.08c.42-.26.54-.33.79-.27a.57.57,0,0,1,.34.26.59.59,0,0,1,.08.38.57.57,0,0,1,.29.25.51.51,0,0,1,.07.39.63.63,0,0,1,.15.16c.09.15.09.15.19,1v.08h0c0,.28.06.55.08.62l-.16,0,.2.4-.12.07A.89.89,0,0,1,22.32,24.52Zm.06-.6-.21.12Z"/>      <path class="a" d="M5.43,25.7l-.15,0a.56.56,0,0,1-.2-.1l-.69-.37L3.91,25a.6.6,0,0,1-.5.1.57.57,0,0,1-.34-.25A.52.52,0,0,1,3,24.59a.58.58,0,0,1-.15-.17.52.52,0,0,1-.07-.19.58.58,0,0,1-.13-.16c-.09-.16-.11-.22,0-.61l-.16,0,.14-.55.17-.1h0l-.17.1-.23-.52.34-.21c.5-.3.6-.37.85-.3a.57.57,0,0,1,.35.27c.12.2.11.24-.07,1a.59.59,0,0,1,.12.15.57.57,0,0,1,.06.16.63.63,0,0,1,.12.14.71.71,0,0,1,.08.22h0l.68.36.5.27.06,0c.44-.27.55-.34.79-.27h0c.21,0,1,.08,1.55.12.79.05,1.27.09,1.56.13l.18-.11c.45-.28.56-.34.81-.28a.56.56,0,0,1,.21.1.66.66,0,0,1,.49-.14.5.5,0,0,1,.26,0l.06,0,1,.15.91.14.18-.11c.47-.29.58-.35.83-.29a.57.57,0,0,1,.32.22c.44-.27.54-.32.78-.26h0c.22,0,1.05.09,1.67.14.87.06,1.38.1,1.69.14L19,24c.5-.31.6-.37.85-.3l.11,0,.57.17.43.13.18-.11c.49-.3.6-.37.85-.3a.57.57,0,0,1,.34.25c.32-.2.44-.25.66-.19l-.14.55-.18.11.18-.11.23.51-.28.17c-.41.25-.52.32-.77.26a.57.57,0,0,1-.35-.25c-.48.29-.57.34-.81.28l-.12,0L20.23,25l-.44-.13-.17.1c-.49.3-.59.36-.84.3l-.05,0c-.22,0-1.06-.09-1.68-.14-.86-.06-1.37-.1-1.68-.14l-.19.12c-.48.29-.58.36-.83.3a.57.57,0,0,1-.33-.23c-.42.26-.53.31-.76.26l-.07,0-1-.15-.9-.14-.17.1c-.42.26-.55.34-.75.3a.49.49,0,0,1-.26,0,.57.57,0,0,1-.21-.1.63.63,0,0,1-.55.13h0c-.21,0-1-.08-1.55-.12-.79-.05-1.27-.09-1.56-.13l-.16.1C5.73,25.62,5.59,25.7,5.43,25.7Z"/>      <path class="a" d="M3.81,23.33l-.15,0,.14-.55.49-.29-.49.29-.23-.52L3.93,22c.52-.32.62-.37.86-.32l.15.06.26.11.07,0,.17-.1c.53-.33.63-.39.87-.32l.09,0a.61.61,0,0,1,.53-.12c.2,0,1,0,1.51-.05.8,0,1.27-.06,1.58,0l.29-.18c.57-.35.66-.4.9-.34l-.14.55-.45.26.45-.26.22.52-.4.24c-.56.34-.65.4-.89.34l-1.52.05c-.79,0-1.27.05-1.57,0l-.26.16c-.53.32-.63.38-.87.32l-.09,0a.6.6,0,0,1-.54.12L5,23l-.26-.11-.07,0-.16.1C4.12,23.24,4,23.33,3.81,23.33Z"/>      <path class="a" d="M10.69,21.6l-.15,0a.57.57,0,0,1-.35-.27c-.13-.22-.12-.3.11-.94a.53.53,0,0,1-.11-.13l0,0c-.48.29-.58.35-.83.29h0c-.21,0-1,0-1.56,0-.8,0-1.29,0-1.59,0h0c-.16.1-.66.41-1-.07h0l-.05-.07a.6.6,0,0,1,.22-.81l0-.06.14-.08c.25-.15.39-.24.63-.18a.57.57,0,0,1,.26.15l1.41,0c.81,0,1.3,0,1.6,0l.23-.14c.5-.3.6-.37.85-.3a.57.57,0,0,1,.35.26l0,0a.56.56,0,0,1,.44-.07.57.57,0,0,1,.36.27c.14.24.11.31-.19,1.15-.08.22-.16.44-.2.55l.09.19-.16.1A1,1,0,0,1,10.69,21.6Zm0-.58-.08,0Z"/>      <path class="a" d="M3.2,21.73,3,21.7a.57.57,0,0,1-.35-.26l-.43-.55L2,20.61a.53.53,0,0,1-.7-.21c-.26-.45-.27-.47,2.13-2.89a.5.5,0,0,1-.4,0,.58.58,0,0,1-.35-.27c-.22-.39-.18-.45,1-1.67l-.74-.24L1.88,15a.64.64,0,0,1-.56.13A.57.57,0,0,1,1,14.9c-.11-.18-.12-.2,0-1a.52.52,0,0,1-.19,0L1,13.32l.16-.09h0L1,13.32l-.23-.52L1,12.62c.48-.29.58-.35.82-.29a.57.57,0,0,1,.36.27c.11.19.11.19-.06,1.23l0,.11h0l1.13.37,1.06.35.12-.07c.45-.28.56-.34.81-.28a.57.57,0,0,1,.35.27.56.56,0,0,1,.11.3c.75-.45.82-.44,1-.38a.58.58,0,0,1,.35.27c.26.45.26.45-2.49,3.22-.58.59-1.3,1.31-1.79,1.82l.32.41.18.23.36-.22c.94-.58,1-.6,1.24-.54l-.14.55-.49.29.49-.29.2.52c-.1,0-.41.24-.72.43C3.56,21.61,3.37,21.73,3.2,21.73Z"/>      <path class="a" d="M2.08,13.88l-.15,0,.14-.55L2.55,13l-.49.29-.22-.52.4-.24c.57-.35.65-.4.9-.33l.09,0,.51.14.39.11.22-.13C4.89,12,5,12,5.23,12a.56.56,0,0,1,.2.1c.3-.18.4-.2.6-.15l-.14.55-.24.14.24-.14.22.52-.37.22c-.53.32-.63.38-.87.32a.56.56,0,0,1-.2-.1c-.33.19-.43.23-.63.17l-.1,0-.51-.14L3,13.38l-.22.14C2.39,13.79,2.24,13.88,2.08,13.88Z"/>      <path class="a" d="M5.5,12.8l-.15,0A.57.57,0,0,1,5,12.51.5.5,0,0,1,5,12a.49.49,0,0,1,0-.37c-.05-.15,0-.3.16-.85A.57.57,0,0,1,5,10.64a.54.54,0,0,1-.08-.33A.91.91,0,0,1,5,9.85l0-.06c-.12-.21-.12-.21.15-1.56l.06-.31A.57.57,0,0,1,5,7.7c-.12-.21-.12-.21.15-1.58l.06-.31-.95-.21-.92-.2-.13.08-.25.15c-.55.32-.82,0-.89-.13S2,5.35,1.9,4l0-.32a.51.51,0,0,1-.42.06l.14-.55.25-.15h0l-.25.15-.23-.52.33-.2c.48-.29.58-.36.83-.29a.57.57,0,0,1,.34.26C3,2.63,3,2.63,3,4c0,.1,0,.2,0,.3a.49.49,0,0,1,.36,0l.08,0,1,.22.91.2h0c.28-.17.42-.26.67-.19a.57.57,0,0,1,.34.26c.12.21.12.21-.15,1.58l-.06.32a.58.58,0,0,1,.2.2c.13.23.13.23-.13,1.58l-.06.33a.58.58,0,0,1,.2.19c.13.21.12.34,0,.69l0,.05a.53.53,0,0,1,.08.34,2.4,2.4,0,0,1-.19.77.56.56,0,0,1,.09.11.5.5,0,0,1,.07.44c.08.23,0,.42-.27.8l-.11.19.07.15L6,12.6A1,1,0,0,1,5.5,12.8Zm.29-.45-.06.2Z"/>    </g>    <g>      <path class="a" d="M41.62,20.54l-.16,0a.58.58,0,0,1-.35-.27.57.57,0,0,1,.21-.77l.16-.06c.24-.12,1-.61,1.65-1,1.95-1.19,2-1.19,2.25-1.12a.58.58,0,0,1,.35.27c.11.19.16.31.07.48l.06.09a.62.62,0,0,1,.11.35c.07.18,0,.34-.19.93l-.08.23.15.33-.22.13c-.34.21-.47.29-.71.23a.57.57,0,0,1-.35-.27.55.55,0,0,1-.08-.19c-1,.6-1,.61-1.27.54l-.08,0a.51.51,0,0,1-.44.06.57.57,0,0,1-.34-.24C41.91,20.48,41.75,20.54,41.62,20.54Z"/>      <path class="a" d="M48.59,20.5l-.15,0a.57.57,0,0,1-.35-.26c-.15-.25-.2-.35.14-.77-.36.19-.43.17-.6.13a.57.57,0,0,1-.35-.27c-.15-.26-.2-.35.17-.81-.38.2-.46.19-.63.15a.58.58,0,0,1-.31-.2.55.55,0,0,1-.09-.11,1.4,1.4,0,0,1-.1-.2.58.58,0,0,1-.29-.25l-.06-.1a.57.57,0,0,1-.23-.22c-.16-.28-.2-.35.31-1-.57.33-.65.32-.84.27a.58.58,0,0,1-.35-.27c-.18-.31-.18-.32.76-2-1.37.84-1.41.85-1.68.78a.57.57,0,0,1-.35-.27c-.18-.31-.18-.32.71-1.95-1.35.82-1.36.81-1.62.75a.58.58,0,0,1-.35-.27,1,1,0,0,1-.1-.22.58.58,0,0,1-.29-.25c-.17-.29-.18-.31.62-1.77-1.15.7-1.19.7-1.45.64a.57.57,0,0,1-.32-.22l-.05-.06-.08-.11a.57.57,0,0,1,.21-.77l.14-.06c.19-.1.77-.46,1.21-.72,1.49-.91,1.52-.93,1.8-.85a.57.57,0,0,1,.3.19l.05.06a.57.57,0,0,1,.11.14c.17.29.18.31-.62,1.77,1.26-.77,1.29-.77,1.56-.71a.57.57,0,0,1,.35.27,1.24,1.24,0,0,1,.09.17.57.57,0,0,1,.35.26c.18.31.18.32-.71,2,1.44-.88,1.48-.89,1.75-.82a.58.58,0,0,1,.35.27c.18.3.18.32-.76,2,1.5-.92,1.54-.93,1.82-.86a.58.58,0,0,1,.35.27c.16.28.2.35-.32,1,.65-.39.73-.38.94-.33a.58.58,0,0,1,.35.27l0,0a.58.58,0,0,1,.3.25l.07.13h0a.79.79,0,0,1,.4.31c.15.25.2.35-.17.8.48-.27.56-.26.74-.21a.57.57,0,0,1,.35.27c.24.42.24.42-1.41,2.13l-.92,1,.1.22-.28.17C48.89,20.42,48.75,20.5,48.59,20.5Z"/>      <path class="a" d="M37,17.23l-.16,0a.58.58,0,0,1-.36-.27c-.23-.4-.25-.42,1.72-2.58-1.06.64-1.11.62-1.34.56a.58.58,0,0,1-.35-.27c-.25-.44-.28-.48,2.22-2.73-1.52.92-1.58.9-1.84.84a.58.58,0,0,1-.36-.27.57.57,0,0,1,.21-.77.56.56,0,0,1,.19-.07c.35-.16,1.72-1,2.73-1.62,3-1.85,3.05-1.85,3.37-1.77a.58.58,0,0,1,.36.27c.27.46.28.49-2.5,3a.55.55,0,0,1,.19,0,.58.58,0,0,1,.35.27c.23.4.24.42-1.72,2.58,1.1-.67,1.16-.65,1.4-.59a.58.58,0,0,1,.36.27.57.57,0,0,1-.21.77l-.17.06c-.26.13-1.15.67-1.82,1.08C37.58,17,37.24,17.23,37,17.23Z"/>      <path class="a" d="M37.87,25.27l-.16,0a.58.58,0,0,1-.35-.27c-.21-.36-.23-.39,1.27-2.19-1.61,1-1.65,1-1.91.9a.58.58,0,0,1-.36-.27c-.29-.5-.31-.53,3.32-3.52-2.58,1.57-2.66,1.55-2.94,1.48a.59.59,0,0,1-.36-.27c-.09-.16-.15-.26-.11-.4l-.14,0a.58.58,0,0,1-.36-.27c-.25-.43-.26-.45,2.21-3l-.4.25C33.81,20,33.78,20,33.44,19.9a.59.59,0,0,1-.36-.27c-.13-.23-.15-.26.17-1a.5.5,0,0,1-.43.06l.14-.55.49-.28-.49.28-.21-.52c.1,0,.37-.21.63-.38.84-.52.89-.55,1.15-.48a.57.57,0,0,1,.35.26c.14.24.16.27-.2,1.13L37,16.72c3.78-2.31,3.81-2.29,4.13-2.21a.59.59,0,0,1,.36.27c.25.43.26.45-2.17,2.93,3.2-2,3.23-1.95,3.55-1.87a.58.58,0,0,1,.36.27.93.93,0,0,1,.12.25c1.33-.78,1.42-.76,1.66-.7a.59.59,0,0,1,.36.27c.31.53.31.53-4.13,4.18l-.1.08h0a.58.58,0,0,1,.35.27c.21.37.23.4-1.25,2.17.64-.38.71-.37.92-.32a.57.57,0,0,1,.35.27c.16.27.13.33-.3,1.31l-.12.28.18.41-.27.16c-.42.26-.54.32-.77.26a.57.57,0,0,1-.35-.27.51.51,0,0,1,0-.54l-.11.07C38.37,25.09,38.08,25.27,37.87,25.27Z"/>      <path class="a" d="M42.66,8.35l-.16,0a.58.58,0,0,1-.36-.27.57.57,0,0,1,.41-.84C42.92,7,44.4,6.13,45.5,5.46c3.23-2,3.26-2,3.59-1.89a.58.58,0,0,1,.36.27c.13.22.19.34,0,.58a.58.58,0,0,1,.33.26c.12.2.12.2-.12,1.55a.54.54,0,0,1,.48-.08.57.57,0,0,1,.36.27c.18.32,0,.54-.23.88l.08.18-.21.13c-.33.21-.46.29-.71.22l-.14-.06a.58.58,0,0,1-.52.1.57.57,0,0,1-.35-.26c-.12-.21-.12-.21.12-1.57V6l-1.27.77c-2.42,1.48-2.43,1.48-2.74,1.4a.58.58,0,0,1-.36-.27.87.87,0,0,1-.12-.26C43.11,8.22,42.84,8.35,42.66,8.35Z"/>      <path class="a" d="M37.23,5l-.16,0a.57.57,0,0,1-.35-.27c-.14-.24-.21-.36,0-.6l0-.1c-.11-.22,0-.36.56-1.59l-.16,0a.57.57,0,0,1-.35-.27.49.49,0,0,1,0-.52.57.57,0,0,1,.21-.73l.08,0,.18-.11c.22-.13.65-.39.95-.07a.55.55,0,0,1,.49-.09A.57.57,0,0,1,39,.82c.16.27.17.29-.47,1.58l.13-.07.15-.09c2-1.23,2-1.23,2.31-1.15a.58.58,0,0,1,.35.27l0,.09a.37.37,0,0,1,0,.51h0a.57.57,0,0,1-.21.77l-.16.06c-.24.12-1.08.63-1.71,1C37.77,4.8,37.44,5,37.23,5Z"/>      <path class="a" d="M30.37,21.42l-.15,0a.56.56,0,0,1-.34-.24h0a.57.57,0,0,1-.35-.27c-.22-.38-.25-.43,1.29-2-2.13,1.29-2.17,1.28-2.45,1.21A.58.58,0,0,1,28,19.8l0-.09-.13,0a.59.59,0,0,1-.36-.27c-.31-.54-.36-.63,4.29-3.85-1.94,1.14-2.06,1.1-2.31,1a.58.58,0,0,1-.42-.72c0-.15.07-.25.48-.54.06-.29.51-.69,2.06-1.69l-.08-.11a.61.61,0,0,1,.14-.76,3.72,3.72,0,0,1,1.14-1c-.22-.42-.06-.61,3-3.06a.56.56,0,0,1-.45.05A.58.58,0,0,1,35,8.57c-.26-.44-.28-.47,2.23-2.77l-.81.49c-4.87,3-4.93,3-5.27,2.87a.59.59,0,0,1-.36-.27c-.2-.34-.23-.39.83-1.6C29.31,8.71,29.27,8.7,29,8.63a.58.58,0,0,1-.36-.27c-.07-.11-.07-.11-.28-1.34l-.06-.36a.49.49,0,0,1-.31,0l.14-.55.07,0h0l-.07,0-.24-.51.23-.14c.36-.22.48-.3.73-.24a.57.57,0,0,1,.36.27c.07.11.07.11.27,1.33l.07.4L31.4,6.1c2.68-1.64,2.7-1.64,3-1.56a.58.58,0,0,1,.36.27c.2.36.23.4-1,1.75l2-1.25c4.87-3,4.93-3,5.27-2.87a.59.59,0,0,1,.36.27c.25.43.27.47-2,2.6,2.1-1.27,2.16-1.26,2.44-1.19a.58.58,0,0,1,.36.27c.28.5.31.54-3.21,3.31l.53-.32c6.48-4,6.57-3.93,6.95-3.84a.61.61,0,0,1,.34.23c.76-.41,1-.48,1.19-.45a.63.63,0,0,1,.38,0,.61.61,0,0,1,.37.28c.34.59.4.69-5.76,4.44a.6.6,0,0,1,.17.19c.37.64.38.65-7.53,6.07l-.71.48a.58.58,0,0,1,.22.22c.21.36.28.49-.75,1.22.21.37.09.49-2.05,2.7l-.45.46.07.1c.24.41,0,.59-.67,1.25l-.22.2.06.12-.22.13A1.14,1.14,0,0,1,30.37,21.42Z"/>      <path class="a" d="M36.75,17l-.16,0a.57.57,0,0,1-.33-.26c-.13-.22-.12-.29.09-.91a.56.56,0,0,1-.09-.11c-.12-.21-.12-.21.14-1.48l.05-.26a.56.56,0,0,1-.18-.19c-.18-.31-.05-.51.21-.92l.1-.16-.07-.14.15-.09c.26-.16.4-.24.63-.18a.57.57,0,0,1,.35.26.5.5,0,0,1,0,.49c.08.16.06.29-.18,1.41l-.06.27a.57.57,0,0,1,.18.19c.14.24.12.3-.15,1.09-.08.23-.16.47-.18.55h0l.08.17-.15.09A1,1,0,0,1,36.75,17Zm.3-.52-.08.27Zm-.16-3.78.06-.19Z"/>      <path class="a" d="M35.27,17.9l-.15,0a.57.57,0,0,1-.36-.27l-.4-.58-.13-.19c-.39.24-.5.29-.73.23a.57.57,0,0,1-.35-.26c-.23-.4-.23-.4,1.83-2.91.46-.55,1-1.25,1.38-1.7l-.13-.29.3-.18c.45-.27.55-.34.8-.28a.57.57,0,0,1,.36.27c.23.4.23.4-1.82,2.9l-1,1.18h0l.4.58.13.19c.49-.3.59-.35.83-.3a.58.58,0,0,1,.26.15c.42-.25.52-.31.75-.24l-.14.55-.34.19.34-.19.23.52-.34.21c-.51.31-.6.37-.85.31a.57.57,0,0,1-.27-.15C35.56,17.82,35.42,17.9,35.27,17.9Z"/>      <path class="a" d="M29.12,6.48l-.16,0,.15-.55.44-.25h0l-.44.24-.22-.52.39-.23c.57-.35.66-.4.9-.34h0c.21,0,.94,0,1.48,0,.78,0,1.24,0,1.54,0l.29-.18c.57-.35.66-.4.91-.34h0l1,.06,1,.06.26-.16c.54-.33.64-.39.89-.33l-.14.55-.47.27.47-.27.22.52-.38.23c-.54.33-.64.39-.89.33h0l-1-.06-1-.06-.28.17c-.57.35-.66.4-.91.34h0c-.21,0-.95,0-1.49,0-.77,0-1.24,0-1.53,0l-.29.17C29.43,6.38,29.27,6.48,29.12,6.48Z"/>      <path class="a" d="M37,4.76l-.15,0a.57.57,0,0,1-.35-.26.5.5,0,0,1-.07-.4c0-.15,0-.35.22-1.08h0a.58.58,0,0,1-.13-.15c-.15-.26-.14-.28.31-1.38L37,1.08,36.79.67l.27-.16c.41-.25.52-.32.76-.26a.57.57,0,0,1,.36.27c.15.26.14.28-.31,1.38l0,.08,0,.07c.13.22.13.25-.15,1.24a.58.58,0,0,1,.13.15c.22.37,0,.63-.27.9l0,0,0,.1-.15.09A1,1,0,0,1,37,4.76Z"/>      <path class="a" d="M49.83,7.35l-.15,0a.57.57,0,0,1-.35-.27c-.06-.11-.06-.11-.25-1.2L49,5.51a.48.48,0,0,1-.35-.18L48,4.77l-.44-.35-.07,0c-.52.32-.62.38-.87.31s-1.28,0-2,.08c-1.12.06-1.74.09-2.1.08l-.24.15c-.52.32-.61.38-.86.31A.57.57,0,0,1,41,5.14a1.38,1.38,0,0,1-.14-.43.54.54,0,0,1-.21,0,.57.57,0,0,1-.36-.27c-.12-.2-.12-.2.13-1.76l.08-.53A.51.51,0,0,1,40.37,2L40,1.76l-.18-.12c-.39.24-.51.32-.76.25a.57.57,0,0,1-.24-.13l-.25-.19h0c-.41.25-.52.31-.76.25l.14-.55.18-.1h0l-.18.1L37.68.74,38,.58c.41-.25.52-.32.77-.26A.56.56,0,0,1,39,.46l.26.2c.37-.23.49-.3.73-.24a.56.56,0,0,1,.23.12l.41.28.19.13a.64.64,0,0,1,.54-.13.57.57,0,0,1,.36.27c.12.2.12.2-.13,1.76l-.08.53a.57.57,0,0,1,.27.25,1.35,1.35,0,0,1,.11.36c.31-.19.42-.23.63-.17s1.27,0,2-.08c1.13-.06,1.75-.09,2.11-.08l.25-.15c.53-.32.62-.38.87-.31a.57.57,0,0,1,.26.15l.68.55.46.37a.55.55,0,0,1,.78.18c.08.13.08.13.27,1.23l.06.36h0l0,.1c0,.24.08.44.09.5l-.17,0,.21.42-.12.07A.9.9,0,0,1,49.83,7.35Zm.07-.61-.22.13Z"/>      <path class="a" d="M43.19,8.55l-.15,0,.1-.41a.48.48,0,0,1,0-.26l-.17-.4.33-.2c.48-.29.58-.36.83-.29l.07,0a.54.54,0,0,1,.45-.06l.08,0,.5.13.4.1.18-.11c.52-.32.61-.37.85-.31h0c.2,0,.89.06,1.41.08.7,0,1.13.05,1.41.08l.19-.12c.46-.28.57-.35.81-.28l-.14.55-.27.15.27-.15.23.52-.31.19c-.3.18-.63.39-.91.27L48,8c-.71,0-1.14-.05-1.42-.08l-.23.14c-.5.31-.61.37-.85.31l-.08,0-.51-.13-.38-.1-.17.1c-.49.3-.59.36-.84.29l-.07,0A.6.6,0,0,1,43.19,8.55Z"/>      <path class="a" d="M49.28,19.8l-.16,0a.57.57,0,0,1-.35-.26c-.2-.35-.2-.35.94-1.93l.42-.58a.58.58,0,0,1-.12-.15l-.11-.29-.15,0a.57.57,0,0,1-.34-.26l-.47-.69-.29-.43a.52.52,0,0,1-.3,0,.57.57,0,0,1-.35-.26l0-.08a.57.57,0,0,1-.24-.17.58.58,0,0,1-.14-.16L47.3,14a.53.53,0,0,1-.23,0,.57.57,0,0,1-.34-.26l-.24-.51a.55.55,0,0,1-.21,0,.57.57,0,0,1-.35-.27l-.56-.83-.26-.39a.51.51,0,0,1-.3,0,.56.56,0,0,1-.29-.18.55.55,0,0,1-.12-.15l-.32-.61,0-.09a.53.53,0,0,1-.23,0,.57.57,0,0,1-.36-.28.74.74,0,0,1-.08-.24H43.3a.57.57,0,0,1-.35-.26,8.26,8.26,0,0,1-.4-1.1l-.09-.28c-.27.16-.38.19-.57.14L42,8.05l.24-.14h0L42,8.05l-.23-.52.3-.18c.45-.28.56-.34.81-.28a.57.57,0,0,1,.35.27,8.33,8.33,0,0,1,.37,1l.14.41a.34.34,0,0,1,.14,0,.57.57,0,0,1,.36.28.72.72,0,0,1,.08.24h.07a.57.57,0,0,1,.35.27l.32.61,0,.09a.51.51,0,0,1,.24,0,.85.85,0,0,1,.41.33l.53.78.3.44a.51.51,0,0,1,.3,0,.57.57,0,0,1,.35.26l.24.52a.5.5,0,0,1,.54.24c0,.05.16.31.29.58a.54.54,0,0,1,.23,0,.57.57,0,0,1,.28.18.56.56,0,0,1,.13.16l0,.08a.56.56,0,0,1,.3.25l.56.81.21.3a.51.51,0,0,1,.3,0,.57.57,0,0,1,.36.28l.11.29.16,0a.57.57,0,0,1,.33.25v0a.57.57,0,0,1,.23.22c.2.35.2.35-.94,1.93l-.34.47.19.45-.43.25C49.61,19.7,49.45,19.8,49.28,19.8Z"/>      <path class="a" d="M48.51,20.79l-.15,0a.57.57,0,0,1-.32-.21.59.59,0,0,1-.1-.12,1.35,1.35,0,0,1-.13-.38l-.11,0a.57.57,0,0,1-.34-.25.86.86,0,0,1-.11-.33l-.08,0a.57.57,0,0,1-.34-.26,1.42,1.42,0,0,1-.14-.4l-.1,0a.57.57,0,0,1-.36-.27.46.46,0,0,1-.06-.17.57.57,0,0,1-.31-.26l-.35-.7-.09-.18a.55.55,0,0,1-.22,0l.07-.28-.1-.2.16-.08-.24-.49.12-.07a.71.71,0,0,1,.6-.16.57.57,0,0,1,.36.27l.35.7.09.18a.53.53,0,0,1,.22,0,.57.57,0,0,1,.35.27.46.46,0,0,1,.06.17.57.57,0,0,1,.3.24,1.42,1.42,0,0,1,.14.4l.11,0a.57.57,0,0,1,.36.27.92.92,0,0,1,.1.31h.07a.57.57,0,0,1,.36.28,1.12,1.12,0,0,1,.09.27c.61-.37.69-.41.93-.35a.57.57,0,0,1,.34.26c.25.42,0,.65-.46,1l0,.05-.37.22C48.82,20.7,48.67,20.79,48.51,20.79Zm-2.69-4.45-.22.13Z"/>      <path class="a" d="M44.55,16.31l-.14,0A.57.57,0,0,1,44,16l-.27-.58-.07-.15a.59.59,0,0,1-.2,0,.57.57,0,0,1-.35-.26l-.34-.7-.08-.15a.56.56,0,0,1-.21,0,.57.57,0,0,1-.35-.26.52.52,0,0,1-.05-.12.56.56,0,0,1-.23-.21l-.05-.11a.57.57,0,0,1-.21-.21,2.82,2.82,0,0,1-.2-.53l-.14,0,.05-.22-.11-.32.17-.07-.23-.46.12-.07a.71.71,0,0,1,.6-.16.57.57,0,0,1,.36.28s.1.25.19.51l.14,0a.57.57,0,0,1,.35.26l.05.11a.57.57,0,0,1,.23.23l0,.09a.57.57,0,0,1,.23.22l.34.7.08.15a.5.5,0,0,1,.21,0,.57.57,0,0,1,.35.25l.34.74h0a.49.49,0,0,1,.2,0l-.07.27.1.22-.16.08.24.49-.12.07A.88.88,0,0,1,44.55,16.31Zm0-.59-.19.11Zm-2.65-3.88-.17.1Z"/>      <path class="a" d="M45.36,19.84l-.15,0a.57.57,0,0,1-.35-.27c-.09-.16-.1-.24,0-.57a.58.58,0,0,1-.13-.15c-.1-.17-.1-.17-.06-1.63,0-.1,0-.21,0-.31a.49.49,0,0,1-.34,0l-.06,0-.49-.1-.39-.08-.19.12c-.5.3-.6.36-.84.3a.57.57,0,0,1-.35-.27L41.39,16l-.32-.47a.53.53,0,0,1-.4,0,.57.57,0,0,1-.35-.27c-.12-.2-.12-.2.12-1.76l.09-.61a.57.57,0,0,1-.22-.22.5.5,0,0,1-.06-.41c-.06-.2,0-.39.26-.85l.14-.27L40.56,11l.16-.1c.27-.17.41-.25.66-.19a.57.57,0,0,1,.34.26c.13.21.11.35,0,.67h0a.51.51,0,0,1,.06.4,6.53,6.53,0,0,1-.19,1.66l-.08.55a.58.58,0,0,1,.25.23l.59.86.32.46c.45-.27.55-.33.79-.27l.06,0,.49.1.39.08.17-.1c.48-.29.58-.35.82-.29a.57.57,0,0,1,.36.27c.09.17.09.17.06,1.6,0,.2,0,.4,0,.58A.57.57,0,0,1,46,18c.13.21.11.3,0,.9,0,.17-.08.33-.09.4h-.08l.12.25-.13.08A.91.91,0,0,1,45.36,19.84Zm0-.57-.14.08Zm-4.12-8,.07,0Z"/>      <path class="a" d="M41.86,20.78l-.15,0,0-.08a.58.58,0,0,1-.21-.22.51.51,0,0,1,.13-.69l0-.09.35-.21c.44-.27.58-.35.77-.33a.44.44,0,0,1,.18,0,.5.5,0,0,1,.26,0l.06,0,.89.14.84.13.17-.11c.46-.28.57-.35.81-.28l-.14.55-.27.15.27-.15.23.52-.31.19c-.31.19-.66.4-.94.26L44,20.43l-.84-.13-.21.13c-.45.28-.58.35-.77.33a.42.42,0,0,1-.18,0Z"/>      <path class="a" d="M40.85,24.46l-.14,0a.57.57,0,0,1-.36-.27c-.12-.21-.12-.21.14-1.28v0a.57.57,0,0,1-.15-.17c-.14-.25-.14-.25.36-1.77l0-.09h0l.14-.55.11-.07h0l-.12.07-.23-.52.34-.2c.5-.31.61-.37.85-.3a.57.57,0,0,1,.35.27c.14.25.14.25-.36,1.77l-.16.49a.58.58,0,0,1,.11.13c.12.21.12.21-.14,1.28-.08.34-.17.68-.18.78h0l.11.23-.15.09A1,1,0,0,1,40.85,24.46Zm.31-.55-.09.3Z"/>      <path class="a" d="M38.39,25.43l-.15,0a.57.57,0,0,1-.3-.19l-.62-.63-.37-.37a.6.6,0,0,1-.49.1A.57.57,0,0,1,36.1,24c-.12-.21-.12-.21.17-1.68l.08-.41a.56.56,0,0,1-.23-.22c-.13-.22-.12-.29.09-.88l-1.09-.29L34,20.25a.61.61,0,0,1-.9-.11C33,20,33,20,32.84,19.22v-.06h0l0-.1c0-.23-.08-.44-.1-.49l.17,0-.21-.42.12-.07a.7.7,0,0,1,.61-.16.57.57,0,0,1,.35.27c.05.1.05.1.2.89v.05a.47.47,0,0,1,.22.07l1.21.33,1.15.31c.27-.17.41-.25.65-.18a.57.57,0,0,1,.34.26c.13.22.12.3-.1.92a.58.58,0,0,1,.11.14c.12.21.12.21-.17,1.68L37.3,23a.56.56,0,0,1,.18.15l.64.65.36.36,0,0c.37-.23.73-.44,1-.25l.43.11.38.1.2-.12c.51-.32.6-.37.86-.31l-.14.55-.36.2.36-.2.23.52-.35.21c-.52.32-.61.38-.86.32l-.09,0-.5-.13-.38-.1-.18.11C38.7,25.34,38.55,25.43,38.39,25.43Zm-5-7.12-.21.13h0Z"/>      <path class="a" d="M31,20.79l-.15,0a.57.57,0,0,1-.35-.26.57.57,0,0,1-.08-.25.36.36,0,0,1,.05-.29.43.43,0,0,1,.08-.12,15.12,15.12,0,0,1,1.07-1.16l.55-.57-.1-.23.31-.18c.46-.28.56-.34.81-.28a.57.57,0,0,1,.35.27c.23.4.2.43-1.1,1.78l-.06.06c.12.32-.06.53-.34.72h0l-.34.21C31.3,20.7,31.15,20.79,31,20.79Z"/>      <path class="a" d="M30.33,21.69l-.15,0a.57.57,0,0,1-.35-.27l-.14-.28a.53.53,0,0,1-.28,0,.57.57,0,0,1-.33-.26l-.5-.57L28.31,20a.53.53,0,0,1-.72-.2.55.55,0,0,1-.06-.12l-.14,0a.56.56,0,0,1-.34-.26c-.22-.39-.22-.39,1.51-2.56l.46-.57a.54.54,0,0,1-.08-.11c-.21-.37-.11-.55.42-1,0-.25.44-.61,1.63-1.71l.28-.26a.5.5,0,0,1,.21-.58,5.7,5.7,0,0,1,1.09-1.1c-.05-.23.15-.55,1.12-2l.23-.35-1.23,0c-.8,0-1.28,0-1.58-.05l-.2.12c-.47.29-.58.35-.83.29a.57.57,0,0,1-.29-.19l-.51-.53L29,8.47a.54.54,0,0,1-.72-.19c-.1-.17-.1-.17-.18-1.48l0-.32a.55.55,0,0,1-.47.08L27.77,6l.29-.16h0L27.77,6l-.23-.52.35-.21c.5-.3.6-.37.85-.3a.57.57,0,0,1,.35.26c.09.14.09.14.17,1.49l0,.49a.57.57,0,0,1,.29.19l.53.54.24.25c.46-.28.57-.35.81-.28h0c.21,0,1,0,1.55,0,.8,0,1.28,0,1.58.05l.2-.12c.46-.28.57-.35.82-.28a.57.57,0,0,1,.35.27c.2.34.2.34-1,2.23l-.24.37a.57.57,0,0,1,.13.16c.24.41.17.49-1,1.52a.5.5,0,0,1-.2.52,9.3,9.3,0,0,1-1.6,1.61l-.22.2c.12.29,0,.47-.49.84a11.15,11.15,0,0,1-1.6,2.19l-.94,1.18a.5.5,0,0,1,.41.26l.51.59.26.3a.53.53,0,0,1,.41,0,.57.57,0,0,1,.34.26l.13.26c.38-.23.49-.28.71-.22l-.14.55-.32.19.32-.19.23.52-.34.2C30.64,21.6,30.49,21.69,30.33,21.69Z"/>    </g>    <g>      <path class="a" d="M70.19,21.6l-.16,0a.57.57,0,0,1-.35-.27c-.15-.26-.17-.29.31-1.24-1.25.76-1.26.76-1.53.69a.57.57,0,0,1-.35-.27c-.17-.29-.17-.29.68-2.16l0-.05c-.92.56-1,.56-1.21.5a.57.57,0,0,1-.35-.27.57.57,0,0,1,.21-.77l.13-.05c.16-.08.64-.38,1-.59,1.27-.77,1.29-.79,1.57-.72a.57.57,0,0,1,.35.27c.17.29.17.29-.68,2.16l0,.06c1.37-.84,1.41-.85,1.68-.78a.58.58,0,0,1,.35.27c.16.27.17.3-.39,1.4l.11,0-.13.55-.38.23.38-.23.21.52-.54.32C70.52,21.5,70.35,21.6,70.19,21.6Z"/>      <path class="a" d="M76.37,25.39l-.14,0a.56.56,0,0,1-.17-.07.59.59,0,0,1-.53-.28.52.52,0,0,1-.09-.26C75,25,74.9,25,74.7,25a.57.57,0,0,1-.35-.27c-.16-.28-.2-.34.36-1.09-1.55.95-1.58.94-1.85.87a.58.58,0,0,1-.35-.27c-.22-.38-.25-.43,1.27-2C70.92,24,70.88,24,70.58,23.89a.58.58,0,0,1-.36-.27.57.57,0,0,1,.2-.78.58.58,0,0,1,.2-.07c.36-.17,1.81-1.05,2.88-1.7,3.16-1.93,3.19-1.92,3.51-1.85a.59.59,0,0,1,.36.27c.22.38.25.43-1.21,1.93.58-.33.66-.32.85-.27a.58.58,0,0,1,.35.27c.17.3.2.36-.5,1.28l.12,0a.58.58,0,0,1,.35.27c.14.24.13.35-.16.86a.55.55,0,0,1,.11.13c.21.35,0,.59-.25.92L77,25l.06.12-.16.09A1,1,0,0,1,76.37,25.39Z"/>      <path class="a" d="M73.62,21.21l-.16,0a.58.58,0,0,1-.35-.26c-.15-.26-.22-.38.1-.71a.56.56,0,0,1-.11-.13c-.22-.38-.23-.39,1.55-2.61-.91.55-1,.55-1.21.49a.57.57,0,0,1-.35-.27c-.17-.28-.22-.39.25-.87a.58.58,0,0,1-.26-.24c-.14-.24-.14-.24.4-2l.05-.17,0,0c-1.39.85-1.42.87-1.7.8a.58.58,0,0,1-.35-.27c-.08-.14-.1-.19,0-.52l-.32.19c-1.56,1-1.56.95-1.84.88a.57.57,0,0,1-.35-.27l-.06-.11c-1,.63-1.08.63-1.33.57a.58.58,0,0,1-.35-.26.57.57,0,0,1,.2-.78l.14-.06c.19-.1.8-.47,1.25-.74,1.52-.93,1.55-.95,1.83-.88a.58.58,0,0,1,.35.26l.06.11c1.05-.64,1.1-.64,1.35-.58a.57.57,0,0,1,.35.27c.08.15.11.2,0,.52l.17-.1c1.4-.85,1.43-.87,1.7-.8a.58.58,0,0,1,.35.27c.15.25.15.25-.4,2l-.06.2.32-.19c1.67-1,1.7-1,2-1a.57.57,0,0,1,.35.27c.15.25.21.36-.12.72a.57.57,0,0,1,.32.26c.22.39.23.4-1.55,2.61.89-.53,1-.53,1.19-.48a.57.57,0,0,1,.35.27c.15.26.22.38-.11.71a.55.55,0,0,1,.1.13.57.57,0,0,1-.21.77L77,19.3c-.22.11-.93.55-1.47.87C74.13,21,73.84,21.21,73.62,21.21Z"/>      <path class="a" d="M64.51,25.29l-.16,0A.57.57,0,0,1,64,25c-.54.31-.62.3-.81.25a.58.58,0,0,1-.35-.27c-.21-.36-.24-.41,1.13-1.87-.46.25-.54.24-.71.2a.58.58,0,0,1-.35-.27c-.2-.34-.24-.41.77-1.44a.48.48,0,0,1-.36,0,.58.58,0,0,1-.35-.27c-.17-.29-.24-.41.26-.87a.59.59,0,0,1-.23-.22c-.21-.36-.24-.41,1.09-1.85-.42.23-.5.22-.67.18a.58.58,0,0,1-.35-.27c-.22-.38-.24-.41,1.3-2.11-.61.35-.68.34-.88.29a.58.58,0,0,1-.35-.27c-.15-.26-.16-.37.19-.85a.58.58,0,0,1-.16-.17c-.22-.37,0-.6.33-.92l-.06-.14.3-.18c.43-.27.55-.34.8-.27l.06,0a.56.56,0,0,1,.48-.09.57.57,0,0,1,.36.27.56.56,0,0,1,.1.28c1.42-.87,1.46-.87,1.73-.8a.58.58,0,0,1,.35.27c.22.38.24.41-1.3,2.11.52-.3.6-.29.79-.24a.58.58,0,0,1,.35.27c.21.36.24.41-1.1,1.86,1.7-1,1.74-1,2-1a.58.58,0,0,1,.36.27c.24.42.28.48-1.35,1.74l0,.07c.2.34.24.41-.75,1.43a.5.5,0,0,1,.4,0,.58.58,0,0,1,.35.27c.21.37.24.42-1.13,1.88.51-.29.58-.27.76-.23a.57.57,0,0,1,.35.27c.14.24.19.37,0,.63l0,0c.16.28.12.37-.29,1.19l-.12.23.15.33-.25.15c-.39.24-.5.31-.75.24a.57.57,0,0,1-.35-.27.53.53,0,0,1-.08-.23C64.9,25.17,64.68,25.29,64.51,25.29Z"/>      <path class="a" d="M72.54,8l-.16,0A.57.57,0,0,1,72,7.71a.57.57,0,0,1,.21-.77l.15-.06c.22-.11,1-.56,1.51-.9,1.8-1.1,1.82-1.11,2.11-1a.58.58,0,0,1,.35.27c.08.13.08.15.08.69a.53.53,0,0,1,.24,0l-.14.55-.1.06.1-.06.23.51-.27.16c-.41.25-.52.32-.76.26a.57.57,0,0,1-.35-.26C75.31,7,75.3,7,75.3,6.46l-.82.5C73.06,7.83,72.76,8,72.54,8Z"/>      <path class="a" d="M72.44,4.48l-.16,0a.58.58,0,0,1-.35-.27.57.57,0,0,1,.21-.77l.15-.06c.22-.11,1-.57,1.53-.91,1.83-1.12,1.84-1.12,2.13-1a.58.58,0,0,1,.35.27c.11.18.13.27,0,.6a.56.56,0,0,1,.19,0,.57.57,0,0,1,.36.28c.17.3,0,.51-.2.84l.1.21-.24.14c-.36.22-.49.3-.73.24a.55.55,0,0,1-.16-.07c-.36.21-.44.22-.64.17a.57.57,0,0,1-.35-.26.5.5,0,0,1,0-.55l-.19.12C73,4.3,72.66,4.48,72.44,4.48Z"/>      <path class="a" d="M68.28,3.15l-.16,0a.57.57,0,0,1-.35-.26.5.5,0,0,1-.08-.45.37.37,0,0,1,0-.28c0-.2.06-.39.34-.87l.09-.16L68,.86l.21-.12c.33-.2.46-.28.7-.22a.57.57,0,0,1,.34.25c.44-.26.51-.26.71-.21l.1,0a.45.45,0,0,1,.35,0l.09,0a.47.47,0,0,1,.35,0,.57.57,0,0,1,.15,1l-.14.06c-.17.09-.7.41-1.09.65C68.71,3,68.47,3.15,68.28,3.15Z"/>      <path class="a" d="M68.18,6.89l-.16,0a.58.58,0,0,1-.35-.27c-.12-.21-.2-.34,0-.55-.19-.34-.12-.45,1.55-2.36-2.7,1.65-2.72,1.64-3,1.57A.58.58,0,0,1,65.79,5h0c-.9.54-1,.53-1.19.47a.57.57,0,0,1-.35-.27l-.55-.57-.33-.35-.05,0c-.57.35-.66.4-.91.33a.57.57,0,0,1-.34-.25l0,0,0,0a.59.59,0,0,1,.23-.82l0-.06.24-.14c.31-.19.44-.27.63-.26a.47.47,0,0,1,.21,0,.48.48,0,0,1,.32,0,.57.57,0,0,1,.34.26h0s.28.29.55.57l.35.37,1.3-.78C68,2.29,68,2.28,68.31,2.36a.58.58,0,0,1,.35.27l0,0h0C71.48.95,71.5.95,71.82,1a.58.58,0,0,1,.36.27c.23.39.24.41-1.55,2.46l.45-.27c3.3-2,3.33-2,3.65-1.93a.59.59,0,0,1,.36.27c.31.53.32.56-2.81,2.5a.57.57,0,0,1-.28.44l-.15.06c-.23.12-1,.6-1.6,1C68.7,6.7,68.39,6.89,68.18,6.89Z"/>      <path class="a" d="M68.1,10.05l-.16,0a.58.58,0,0,1-.36-.27l0-.08a.41.41,0,0,1,0-.47l0-.07A27.68,27.68,0,0,1,69.46,6.8l-.2.12c-2.85,1.74-2.87,1.74-3.19,1.66l-.16-.07-1-.38L64,7.8l0,0c-.37.23-.49.3-.73.24l.14-.55.49-.29-.49.28L63.14,7l.24-.14c.36-.22.48-.3.72-.24l.16.07,1,.38.93.35c.44-.24,1.58-.93,2.45-1.46,2.85-1.75,2.88-1.74,3.19-1.66a.58.58,0,0,1,.36.27c.23.4.23.4-1.83,2.9L71,7.14l.1-.06c2.66-1.62,3.23-2,3.51-2a.5.5,0,0,1,.23,0,.58.58,0,0,1,.36.27.57.57,0,0,1-.16.74A29.41,29.41,0,0,1,71.76,8l-.09.05C68.87,9.77,68.38,10.05,68.1,10.05Z"/>      <path class="a" d="M63.67,12.78l-.16,0a.59.59,0,0,1-.28-.16l-.77-.65-.58-.49a.74.74,0,0,1-.21,0,.57.57,0,0,1-.28-.24c-.14-.23-.16-.27.19-1-1.23.75-1.27.77-1.54.7a.58.58,0,0,1-.35-.27.57.57,0,0,1,.21-.77L60,9.73c.18-.09.74-.44,1.16-.69,1.43-.87,1.46-.9,1.74-.82a.58.58,0,0,1,.35.27c.16.28.16.28-.43,1.58l-.24.53.58.48.55.46c.38-.22,1.09-.65,1.63-1,2.14-1.31,2.15-1.31,2.45-1.23a.58.58,0,0,1,.36.27.5.5,0,0,1,.1.34l.19-.11c3.08-1.88,3.11-1.87,3.42-1.8a.58.58,0,0,1,.36.27c.17.29.17.29-.61,2l.69-.42c2.28-1.39,2.3-1.39,2.59-1.32a.58.58,0,0,1,.35.27c.09.16.09.16.09,1.35v.1l.35-.21C77,9.26,77,9.24,77.32,9.32a.57.57,0,0,1,.35.27c.09.15.1.22,0,.61a.53.53,0,0,1,.29.24.57.57,0,0,1-.17.78l-.09,0-.2.12c-.28.17-.76.47-1.06,0a.51.51,0,0,1-.08-.39l-.11.07c-1.33.81-1.35.83-1.63.76a.58.58,0,0,1-.35-.26c-.09-.16-.09-.16-.09-1.35v-.12l-1.31.79c-2.27,1.39-2.28,1.39-2.59,1.31A.58.58,0,0,1,70,11.9c-.17-.28-.17-.28.63-2h0l-1.54.93C66,12.66,66,12.65,65.64,12.57a.59.59,0,0,1-.36-.27.55.55,0,0,1-.11-.31C64.12,12.64,63.85,12.78,63.67,12.78Z"/>      <path class="a" d="M58.46,25.09l-.16,0A.57.57,0,0,1,58,24.8c-.16-.28-.18-.31.41-1.31-1.81,1.11-1.84,1.12-2.12,1a.57.57,0,0,1-.35-.27c-.13-.22-.19-.35,0-.55-.16-.3,0-.47,1.37-2.06-.65.38-.72.37-.92.31a.57.57,0,0,1-.35-.27c-.18-.31-.23-.4.5-1.14l-.12,0a.57.57,0,0,1-.35-.27c-.22-.39-.23-.4,1.52-2.51-.82.49-.9.49-1.12.43a.58.58,0,0,1-.35-.27c-.16-.27-.22-.39.19-.79A.57.57,0,0,1,56,17c-.15-.26-.22-.38.1-.7l-.08-.11c-.13-.23-.19-.35,0-.56a.38.38,0,0,1,0-.52c-.19-.34-.15-.43,1.33-2.18-.63.37-.7.36-.91.31a.58.58,0,0,1-.35-.27.79.79,0,0,1-.12-.28.61.61,0,0,1-.84-.21.57.57,0,0,1,.42-.84c.41-.19,2.1-1.22,3.35-2,3.64-2.23,3.68-2.22,4-2.13a.58.58,0,0,1,.36.27c.3.52.31.53-2.94,2.83.17.32.09.45-1.35,2.15.68-.4.76-.4,1-.35a.57.57,0,0,1,.35.27c.13.23.19.36,0,.57.11.2.16.33,0,.52.12.22.16.34-.11.62a.58.58,0,0,1,.08.11c.16.27.22.38-.17.77a.56.56,0,0,1,.17.19c.22.38.23.4-1.53,2.5.9-.54,1-.53,1.19-.48a.57.57,0,0,1,.35.27c.18.31.23.4-.48,1.11l.13,0a.58.58,0,0,1,.35.27c.22.38.24.41-1.32,2.15.7-.41.77-.4,1-.35a.58.58,0,0,1,.35.27c.12.22.19.34.05.53.11.22.06.35-.53,1.34l.14,0a.57.57,0,0,1,.36.28c.2.35,0,.57-.34.93l.08.18-.31.18c-.46.28-.56.35-.81.28l-.13,0A1,1,0,0,1,58.46,25.09Z"/>      <path class="a" d="M54.53,14a.5.5,0,0,1-.43-.25h0a.56.56,0,0,1-.13-.15c-.26-.45-.29-.5,2.27-2.68-2.36,1.43-2.42,1.41-2.71,1.34a.59.59,0,0,1-.36-.27c-.2-.34-.26-.46.71-1.25a.58.58,0,0,1-.33-.26.56.56,0,0,1-.06-.14.44.44,0,0,1,0-.37l0-.05c.1-.25.31-.65.71-1.4l.09-.17a.57.57,0,0,1-.2-.21c-.13-.24-.09-.41.09-.7a.57.57,0,0,1,.25-.62l.06,0,.1-.06a.71.71,0,0,1,.6-.16.57.57,0,0,1,.36.27v0a.57.57,0,0,1,.33.26c.17.28.18.3-.49,1.58L56.5,8.1,56.65,8c3-1.83,3-1.82,3.33-1.74a.58.58,0,0,1,.36.27l0,.09a.38.38,0,0,1,0,.49c.53-.28.62-.26.79-.22a.59.59,0,0,1,.36.27c.29.51.29.51-3.4,3.64-.86.73-1.94,1.65-2.59,2.23a1,1,0,0,1-.34.57l-.07.07,0,.07-.11.06A1,1,0,0,1,54.53,14Z"/>      <path class="a" d="M56.8,8.75l-.16,0a.57.57,0,0,1-.35-.27c-.21-.36-.23-.39,1.15-2.06-.47.27-.55.26-.74.21a.57.57,0,0,1-.35-.27c-.2-.34-.23-.39.82-1.59a.5.5,0,0,1-.42,0,.58.58,0,0,1-.35-.27c-.13-.22-.13-.22.19-1.81.1-.5.24-1.19.25-1.32l-.12-.24.17-.1c.28-.17.41-.26.66-.19a.57.57,0,0,1,.34.26c.12.22.12.22-.19,1.81l0,.22L58,2.93c1.56-1,1.59-1,1.88-.9a.58.58,0,0,1,.35.27c.2.34.23.39-.81,1.58a.55.55,0,0,1,.48-.08.57.57,0,0,1,.35.27c.21.36.23.39-1.15,2.05.55-.32.62-.31.82-.26a.57.57,0,0,1,.35.26.57.57,0,0,1-.2.78L60,7c-.21.1-.88.51-1.37.82C57.29,8.57,57,8.75,56.8,8.75Zm.61-7.32.06,0Z"/>      <path class="a" d="M76.61,24.87l-.14,0a.57.57,0,0,1-.35-.26c-.14-.23-.12-.3.13-1l-.07-.09c-.12-.21-.12-.21.14-1.7l.08-.48a.59.59,0,0,1-.18-.19c-.13-.23-.13-.23.12-1.52l.06-.29a.56.56,0,0,1-.19-.2c-.12-.22-.12-.22.14-1.3v-.06a.58.58,0,0,1-.16-.17c-.12-.2-.12-.2.12-1.73l.09-.57a.59.59,0,0,1-.19-.2h0a.52.52,0,0,1-.32-.25l-.05-.11a.54.54,0,0,1-.25,0,.57.57,0,0,1-.2-.1l-1-.56-.78-.44-.11.07c-.52.32-.61.37-.85.31h0c-.25,0-1.17,0-1.85.06-1,0-1.58.06-1.92.05l-.25.15c-.52.32-.62.38-.87.32h0c-.16,0-.6,0-1,0l-1,0-.26.16c-.52.32-.62.38-.87.32l.14-.55.39-.23h0l-.39.23-.22-.52.36-.22c.53-.33.63-.38.88-.33h0l1,0,1,0,.25-.15c.52-.32.61-.38.86-.32h0c.24,0,1.17,0,1.85-.06,1,0,1.58-.07,1.92-.05l.24-.15c.51-.31.61-.37.86-.31a.57.57,0,0,1,.21.11l1,.55.79.44a.61.61,0,0,1,.54-.11.57.57,0,0,1,.32.24l.05.11a.53.53,0,0,1,.25,0,.57.57,0,0,1,.32.24l0,0a.53.53,0,0,1,.3.24c.13.22.13.22-.11,1.76l-.08.55a.57.57,0,0,1,.23.22c.13.22.13.22-.14,1.3l0,.07a.56.56,0,0,1,.15.17c.12.21.12.21-.13,1.5l-.06.3a.57.57,0,0,1,.18.2c.12.21.12.21-.14,1.67l-.09.5a.56.56,0,0,1,.2.2c.14.25.12.31-.19,1.14-.09.23-.17.47-.2.56l.08.17-.15.09A1,1,0,0,1,76.61,24.87Zm0-.59-.14.08Z"/>      <path class="a" d="M76.4,25.63l-.15,0a.56.56,0,0,1-.2-.1l-.63-.36L75,24.9c-.31.19-.43.26-.67.2a.56.56,0,0,1-.22-.11l-.52-.32-.29-.18c-.28.17-.41.24-.64.18a.58.58,0,0,1-.18-.08l-.8-.39L71,23.9c-.27.17-.41.24-.64.18a.58.58,0,0,1-.21-.11.47.47,0,0,1-.17,0,.58.58,0,0,1-.35-.27.57.57,0,0,1,.21-.77l.15-.06c.21-.11.89-.52,1.4-.83,1.67-1,1.71-1,2-1a.58.58,0,0,1,.35.27c.29.49.11.61-1.54,1.72l-.15.1.08,0,.62.3c.24-.14.63-.36.92-.07l.48.3.29.18c.3-.18.42-.25.66-.19a.57.57,0,0,1,.21.1l.63.36.43.24c.33-.2.47-.28.71-.22l-.14.55-.1.06.1-.06.24.51-.23.14A1.18,1.18,0,0,1,76.4,25.63Z"/>      <path class="a" d="M73.15,21.7l-.15,0a.57.57,0,0,1-.35-.27c-.17-.29-.07-.5.17-.77a6.22,6.22,0,0,1,.2-.81.58.58,0,0,1-.14-.16c-.12-.21-.12-.21.14-1.35l0-.1a.56.56,0,0,1-.18-.19.51.51,0,0,1,0-.54c-.11-.2-.1-.31.07-.76l-.07-.1c-.12-.21-.12-.21.11-1.3-.27,0-1.25,0-2,.06-1.1,0-1.71.07-2.06.05l-.27.17c-.56.34-.65.4-.89.33l.14-.55.49-.29-.49.29-.22-.52.39-.23c.55-.34.65-.39.9-.33h0c.26,0,1.25,0,2-.06,1.09,0,1.7-.07,2.06-.05l.13-.08c.37-.23.49-.3.74-.24a.57.57,0,0,1,.35.26c.12.21.12.21-.12,1.36l0,.1a.56.56,0,0,1,.2.21c.12.21.11.31-.07.78l.07.1a.51.51,0,0,1,0,.54c.11.2.11.22-.15,1.34l0,.12a.57.57,0,0,1,.17.19c.12.22.12.24-.13,1.12a.67.67,0,0,1,.11.13c.22.38,0,.6-.32,1l.08.17-.26.15C73.45,21.62,73.31,21.7,73.15,21.7Z"/>      <path class="a" d="M71.21,20.76l-.16,0a.57.57,0,0,1-.34-.25c-.06-.1-.08-.13-.09-.42a.53.53,0,0,1-.44-.26c-.22-.4-.18-.49.74-1.41-.16-.33,0-.54.43-.91l-.1-.19c-.37.23-.47.27-.7.22a.57.57,0,0,1-.18-.08c-.46.28-.55.31-.77.26H68.49c-.54,0-.9,0-1.14,0l0,0c-.29.18-.42.26-.66.2a.57.57,0,0,1-.36-.27c-.15-.26-.15-.26.36-1.58h0l.14-.55.13-.07h0l-.13.08L66.55,15l.37-.22c.54-.33.63-.39.88-.32a.57.57,0,0,1,.35.26c.16.27.16.27-.4,1.68l-.07.17h.81c.55,0,.91,0,1.15,0l.31-.19c.61-.37.69-.42.94-.36a.56.56,0,0,1,.17.08c.26-.15.36-.17.56-.12a.57.57,0,0,1,.34.26l.28.53a.51.51,0,0,1,.32,0,.57.57,0,0,1,.35.27.73.73,0,0,1,.08.18l0,.07c.24.41.16.48-1,1.67l-.28.28v0a.49.49,0,0,1,.35,0l-.14.55-.18.1.18-.1.23.52-.3.18C71.52,20.67,71.38,20.76,71.21,20.76Z"/>      <path class="a" d="M70.18,21.84l-.16,0a.58.58,0,0,1-.3-.19l-.43-.44L69.15,21a.55.55,0,0,1-.44.07.57.57,0,0,1-.36-.27c-.18-.31-.18-.36.52-1.36a.57.57,0,0,1-.16-.18c-.05-.09-.06-.11-.12-.56-.44.26-.53.3-.75.24l.14-.55.49-.29-.49.29-.22-.52.45-.27c.63-.38.71-.43,1-.37a.57.57,0,0,1,.36.28c.05.09.06.1.12.56.45-.27.54-.3.76-.25a.57.57,0,0,1,.35.27c.2.34.18.36-.73,1.68l-.21.3.28.29.16.17.3-.19c.83-.51.88-.54,1.14-.47l-.14.55-.49.29.49-.29.21.52c-.09,0-.35.21-.62.37C70.52,21.73,70.35,21.84,70.18,21.84Z"/>      <path class="a" d="M66.72,24.66l-.14,0a.57.57,0,0,1-.36-.28.51.51,0,0,1,0-.51.52.52,0,0,1,0-.51.58.58,0,0,1-.06-.21.47.47,0,0,1,0-.21.47.47,0,0,1,0-.29c-.05-.15,0-.36.2-1.39l.05-.26a.58.58,0,0,1-.18-.19c-.13-.22-.13-.28.11-1a.55.55,0,0,1-.11-.13c-.19-.33-.11-.46.44-1.17l-.17-.39.41-.25c.59-.36.68-.41.93-.35a.57.57,0,0,1,.35.27c.2.35.11.47-.51,1.26a2.13,2.13,0,0,1-.19.84.59.59,0,0,1,.11.14c.12.21.12.21-.14,1.48l-.06.28a.57.57,0,0,1,.2.21.49.49,0,0,1,0,.42.46.46,0,0,1,0,.3v.05a.57.57,0,0,1-.06.38c.15.28,0,.47-.22.91l-.12.2.07.15-.15.09A1,1,0,0,1,66.72,24.66Z"/>      <path class="a" d="M63.51,25.53l-.15,0a.57.57,0,0,1-.34-.24h0a.57.57,0,0,1-.34-.26.55.55,0,0,1-.09-.32.42.42,0,0,1,0-.1,8.41,8.41,0,0,1,.27-1.27l.06-.23a.6.6,0,0,1-.17-.18c-.14-.25-.14-.25.17-1.48l0-.2a.57.57,0,0,1-.17-.18.51.51,0,0,1-.07-.41,6,6,0,0,1,.25-1.29l.06-.26a.58.58,0,0,1-.18-.19c-.13-.22-.11-.32.09-.84l-.06-.08c-.13-.22-.12-.34.06-.75l0-.06c-.15-.26-.15-.26.46-1.89l0-.11-.07,0,.14-.55.19-.11h0l-.19.11-.22-.52.39-.23c.56-.34.65-.4.89-.33a.57.57,0,0,1,.36.27c.15.26.15.26-.46,1.89l-.21.57a.59.59,0,0,1,.09.12c.12.21.11.33-.06.73l0,.06c.13.22.11.32-.09.84l.07.09c.13.22.13.22-.18,1.52l-.05.23a.57.57,0,0,1,.19.2.52.52,0,0,1,.07.38A5.3,5.3,0,0,1,64,21.68l0,.17a.57.57,0,0,1,.18.19c.13.22.13.22-.19,1.53l-.06.23a.57.57,0,0,1,.19.19.48.48,0,0,1,.3,0h0l.93.13.88.12.2-.12c.49-.3.59-.36.84-.3l-.14.55-.35.2.35-.2.23.52-.33.2c-.49.3-.59.36-.84.3l0,0-.93-.13-.88-.12-.15.09C63.81,25.44,63.67,25.53,63.51,25.53Z"/>      <path class="a" d="M63.56,4.28l-.16,0,.14-.55L64,3.44l-.47.27-.22-.52L63.73,3c.57-.35.66-.41.91-.34s.82,0,1.29,0c.65,0,1.06,0,1.32,0l.34-.21c.62-.38.7-.43.95-.37a.57.57,0,0,1,.36.27c.21.36,0,.6-.28.82v0l-.39.23c-.43.26-.58.36-.74.36h0a.48.48,0,0,1-.27,0h0c-.19,0-.82,0-1.28,0-.65,0-1.06,0-1.33,0l-.29.18C63.88,4.19,63.72,4.28,63.56,4.28Z"/>      <path class="a" d="M68,2.91l-.16,0a.57.57,0,0,1-.33-.26c-.14-.24-.13-.33.17-1a.71.71,0,0,1-.13-.16.57.57,0,0,1,.18-.78l.09,0L68.1.54c.42-.26.54-.33.78-.26a.57.57,0,0,1,.35.27c.16.28.13.33-.34,1.28-.12.25-.25.5-.31.63l.08.17-.15.09A1,1,0,0,1,68,2.91Zm0-.59-.14.08Z"/>      <path class="a" d="M76.18,3.5l-.15,0a.57.57,0,0,1-.35-.27c0-.08-.05-.09-.15-.56a.55.55,0,0,1-.47.08c-.19,0-.84,0-1.33,0-.67,0-1.09,0-1.36,0l-.15.09c-.39.24-.51.32-.76.25a.56.56,0,0,1-.35-.27c0-.05,0-.05-.36-.89l-.07-.18a.6.6,0,0,1-.52.11l-.07,0a.49.49,0,0,1-.31,0,.57.57,0,0,1-.32-.21c-.31.19-.42.24-.64.18L69,1.27,69.46,1,69,1.27,68.74.76,69,.59c.42-.26.54-.33.78-.27a.56.56,0,0,1,.32.21c.29-.18.4-.22.61-.17l.07,0a.48.48,0,0,1,.29,0,.57.57,0,0,1,.36.27s.18.44.35.87l.08.2a.59.59,0,0,1,.5-.1c.19,0,.84,0,1.33,0,.67,0,1.09,0,1.36,0l.18-.11c.44-.27.55-.34.79-.27a.57.57,0,0,1,.36.27c0,.09.05.09.18.68h.07l0,.14c0,.21.08.4.1.45l-.16,0,.21.43-.12.07A.89.89,0,0,1,76.18,3.5Zm.06-.6L76,3Z"/>      <path class="a" d="M72.69,4.7l-.16,0v0A.57.57,0,0,1,72.19,4a.52.52,0,0,1,.27-.35h0l.43-.26c.45-.28.61-.38.77-.38h.09A.48.48,0,0,1,74,3h0l.91.07.9.07L76.07,3c.51-.31.61-.37.85-.31l-.14.55-.47.27.47-.27.23.52-.35.21c-.51.31-.6.37-.85.31h0l-.92-.07L74,4.1l-.31.19c-.47.29-.63.38-.79.38h-.18Z"/>      <path class="a" d="M76.23,6.88l-.14,0a.57.57,0,0,1-.31-.21l-1.45-.17c-.82-.09-1.3-.14-1.6-.19l-.22.13c-.52.32-.61.37-.86.31a.57.57,0,0,1-.36-.27c-.14-.24-.14-.24.29-1.66l-.17,0,.14-.55.24-.14h0l-.24.14-.22-.52.39-.23c.56-.34.65-.39.89-.33a.57.57,0,0,1,.35.27c.14.24.14.24-.29,1.69v0l.11,0,.07,0c.21,0,1,.13,1.61.19.81.09,1.29.14,1.59.19a.69.69,0,0,1,.58-.15.57.57,0,0,1,.35.26c.2.33,0,.59-.16.82l0,0,0,.1-.13.08A.88.88,0,0,1,76.23,6.88Z"/>      <path class="a" d="M72.79,8.22l-.15,0,.14-.55.49-.29-.49.29-.22-.52L73,6.84c.67-.41.74-.45,1-.39h0l.89,0,.88,0,.26-.16C76.61,6,76.7,6,77,6l-.14.55-.41.23.41-.23L77,7.1l-.38.23c-.54.33-.63.39-.88.32h0l-.89,0-.89,0-.37.22C73.11,8.12,73,8.22,72.79,8.22Z"/>      <path class="a" d="M77.24,11.12l-.15,0a.57.57,0,0,1-.36-.28.53.53,0,0,1-.07-.23L75.8,10l-.71-.49L75,9.59c-.56.34-.65.4-.9.33l-.15-.06-1-.37L72,9.17a.7.7,0,0,1-.6.16.56.56,0,0,1-.35-.26c-.19-.32-.13-.42.46-1.31l-.2-.47L71.77,7c.59-.36.68-.42.94-.35a.57.57,0,0,1,.34.26c.18.31.13.42-.42,1.24l.66.24.88.32.2-.12c.56-.34.65-.4.9-.34a.56.56,0,0,1,.25.13l.93.64.7.48a.57.57,0,0,1,.46-.07.57.57,0,0,1,.35.28c.14.25.06.43-.1.77l-.1.21h0l.06.13-.12.08A.91.91,0,0,1,77.24,11.12Z"/>      <path class="a" d="M67.83,9.85l-.14,0a.57.57,0,0,1-.36-.27.48.48,0,0,1-.06-.42l-.64-.28-.69-.3-.19.11c-.57.35-.65.4-.9.33a.58.58,0,0,1-.21-.11c-.46.28-.55.32-.78.26L64,8.62l.41-.24h0L64,8.62l-.22-.52.39-.23c.56-.35.65-.4.9-.34a.57.57,0,0,1,.22.11c.46-.28.55-.32.78-.26a.58.58,0,0,1,.17.07l.85.37.69.3A.68.68,0,0,1,68.37,8a.57.57,0,0,1,.34.26c.17.29.07.46-.19.94l-.12.22.08.16-.15.09A1,1,0,0,1,67.83,9.85Zm-.08-.51h0Z"/>      <path class="a" d="M63.27,11.35a.48.48,0,0,1-.42-.28.57.57,0,0,1,.19-.78l.1,0,.38-.23c.37-.23.69-.42,1-.35l1.27-.07c.7,0,1.12-.07,1.4-.07l.32-.19c.58-.35.66-.41.92-.35l-.13.55-.49.29.49-.29.22.52L68,10.3c-.57.35-.67.41-.9.36s-.85,0-1.33.07c-.7,0-1.18.07-1.4.07l-.3.19A1.89,1.89,0,0,1,63.27,11.35Z"/>      <path class="a" d="M67.91,6.66l-.15,0a.56.56,0,0,1-.35-.27c-.12-.21-.11-.29.06-.77a.58.58,0,0,1-.1-.13,2.9,2.9,0,0,1-.27-.3h0c-.52.32-.61.37-.85.31l-.12,0c-.27.15-.37.17-.55.12a.57.57,0,0,1-.25-.14c-.45.28-.55.32-.79.26l-.1,0-.69-.2-.57-.16a.67.67,0,0,1-.57.13.57.57,0,0,1-.34-.26c-.1-.17-.12-.19,0-.76a.54.54,0,0,1-.21,0l.14-.55.19-.11h0l-.19.11L62,3.32l.35-.21c.49-.3.6-.37.85-.3a.57.57,0,0,1,.35.26c.12.2.12.2-.05,1.12l.6.17.58.16.19-.11c.52-.32.62-.38.87-.31a.57.57,0,0,1,.24.14c.45-.27.54-.32.77-.26l.12,0c.26-.15.36-.17.55-.13a.57.57,0,0,1,.35.26h0l.25.28,0,0a.55.55,0,0,1,.78.17c.15.27.12.34-.15,1.07l-.17.47.09.18-.15.09A1,1,0,0,1,67.91,6.66Zm0-.59-.13.08Z"/>      <path class="a" d="M64.31,7.91l-.16,0,.14-.55.49-.28-.49.28-.22-.52.44-.26c.62-.38.69-.43,1-.36l.14.06.34.14.16.07.24-.14c.6-.37.68-.42.93-.36a.57.57,0,0,1,.3.19c.54-.33.63-.38.87-.32l-.13.55-.49.29.49-.29.22.52-.4.24c-.57.35-.65.4-.91.33a.57.57,0,0,1-.29-.19h0c-.61.37-.69.42-.94.36l-.14-.06-.34-.14-.16-.07-.25.15C64.63,7.81,64.47,7.91,64.31,7.91Z"/>      <path class="a" d="M63.28,8.3l-.14,0A.57.57,0,0,1,62.78,8a.82.82,0,0,1-.07-.14c-.19-.33,0-.55.24-.82l-.08-.17.34-.21c.5-.31.61-.37.86-.31l.06,0a.59.59,0,0,1,.86.18c.26.47,0,.68-.8,1.19L63.84,8l0,0-.12.07A.88.88,0,0,1,63.28,8.3Z"/>      <path class="a" d="M62.76,8.74l-.16,0a.56.56,0,0,1-.24-.14L62,8.29l-.12-.1a.62.62,0,0,1-.55.12.56.56,0,0,1-.24-.13l-.42-.32-.17-.13a.64.64,0,0,1-.54.13.57.57,0,0,1-.36-.27c-.09-.16-.09-.16-.09-1.46,0-.12,0-.24,0-.35h0a.57.57,0,0,1-.35-.26.55.55,0,0,1-.08-.33,5.75,5.75,0,0,1,.22-1.07v0a.55.55,0,0,1-.17-.18c-.12-.21-.12-.32,0-.73l0-.07-.66-.66L58.07,2a.67.67,0,0,1-.58.15l.14-.55.49-.29-.49.29-.24-.51L57.6,1c.34-.21.46-.29.71-.22a.57.57,0,0,1,.35.26l.62.61.43.44a.57.57,0,0,1,.81.18c.13.21.12.32,0,.73l0,.07c.14.24.14.24-.13,1.32v0a.56.56,0,0,1,.17.18.53.53,0,0,1,.08.36c0,.17,0,.49,0,1.17,0,.12,0,.24,0,.35h.05a.56.56,0,0,1,.24.13l.42.32.17.13A.62.62,0,0,1,62.07,7a.56.56,0,0,1,.24.14l.38.31.11.09a.62.62,0,0,1,.54-.11l-.13.47,0,0,0,0L63,8.46l.17-.54.24.51-.17.1A1,1,0,0,1,62.76,8.74Z"/>      <path class="a" d="M62.09,10.83l-.16,0a.57.57,0,0,1-.34-.26c-.22-.39-.18-.44,1-1.72l-.18-.45L63,8c.77-.47.83-.51,1.09-.45a.57.57,0,0,1,.35.27c.22.39.18.44-1,1.73l-.66.73.08.17-.21.13A1.11,1.11,0,0,1,62.09,10.83Zm0-.59h0Z"/>      <path class="a" d="M64.12,13l-.15,0a.57.57,0,0,1-.23-.12l-.62-.41-.4-.26a.58.58,0,0,1-.47.08A.57.57,0,0,1,61.9,12a.49.49,0,0,1-.08-.25l-.06-.06a.47.47,0,0,1-.17,0,.57.57,0,0,1-.29-.18l-.36-.36L60.87,11a.67.67,0,0,1-.58.15l.14-.55.49-.29-.49.29-.24-.51L60.4,10c.33-.2.46-.28.7-.22a.57.57,0,0,1,.29.18l.34.33.09.09.14-.08c.63-.39.71-.43,1-.37a.57.57,0,0,1,.36.27c.17.29.08.48-.18.83h0l.62.41.4.26.08,0c.49-.3.59-.36.84-.3h0c.23,0,1.09,0,1.73,0,.92,0,1.46,0,1.78,0l.24-.15c.52-.32.61-.37.86-.31a.57.57,0,0,1,.22.11c.29-.17.41-.22.57-.2a.48.48,0,0,1,.3,0h0c.16,0,.61.06,1.06.09l1,.09.25-.15c.54-.33.63-.39.88-.32a.57.57,0,0,1,.32.23h0c.55-.34.64-.39.88-.33l.06,0,.81.12.76.11.18-.11c.48-.29.58-.35.82-.29l-.13.55-.49.29.49-.29.23.52-.32.19c-.48.29-.58.35-.82.29l-.06,0L76,11.72l-.76-.11-.25.15c-.54.33-.64.39-.89.32a.57.57,0,0,1-.32-.23h0c-.54.33-.63.39-.88.32h0c-.17,0-.61-.06-1.06-.09l-1-.09-.23.14c-.47.29-.59.36-.79.33a.48.48,0,0,1-.29,0,.58.58,0,0,1-.21-.11c-.33.2-.43.23-.64.17h0c-.23,0-1.09,0-1.74,0-.92,0-1.46,0-1.78,0l-.22.13C64.42,12.87,64.28,13,64.12,13Z"/>      <path class="a" d="M59.75,24.39l-.14,0a.57.57,0,0,1-.35-.26c-.12-.21-.12-.32,0-.71l0-.06c-.13-.21-.12-.29.08-.92l-.08-.1c-.13-.23-.13-.23.11-1.57l.06-.36a.57.57,0,0,1-.19-.2c-.12-.2-.12-.2.12-1.8l.09-.6a.56.56,0,0,1-.21-.21c-.13-.21-.12-.31.07-.83l-.07-.1c-.12-.2-.12-.2.12-1.73l.08-.56a.58.58,0,0,1-.21-.21c-.12-.2-.12-.2.12-1.77l.09-.6a.57.57,0,0,1-.22-.22.5.5,0,0,1-.06-.41c-.07-.23,0-.41.32-.9l.1-.17-.11-.23.2-.12c.33-.2.46-.28.7-.22a.56.56,0,0,1,.36.28c.13.24.1.38-.12.76a.48.48,0,0,1,0,.37,6.94,6.94,0,0,1-.18,1.63l-.09.6a.58.58,0,0,1,.22.21c.12.2.12.2-.12,1.73l-.08.56a.57.57,0,0,1,.21.21c.13.21.12.31-.07.83l.08.1c.12.2.12.2-.12,1.77l-.09.62a.58.58,0,0,1,.22.21c.12.2.12.2-.12,1.55l-.06.36a.57.57,0,0,1,.2.21c.12.21.11.28-.09.91l.09.11c.15.25.1.37-.15,1l-.16.4.08.16-.14.09A.94.94,0,0,1,59.75,24.39Zm0-.59-.14.09Zm0-13.88,0-.09Z"/>      <path class="a" d="M56.52,25.55l-.15,0a.57.57,0,0,1-.35-.26c-.09-.16-.1-.17,0-.93a.57.57,0,0,1-.34-.26c-.13-.23-.13-.25.18-1.24a.58.58,0,0,1-.13-.14.53.53,0,0,1-.1-.35.89.89,0,0,1,.12-.39l0,0a.5.5,0,0,1,0-.53c-.11-.19-.09-.25.21-1.29v0a.57.57,0,0,1-.16-.18c-.12-.22-.12-.22.18-1.63l.08-.38a.56.56,0,0,1-.22-.21c-.12-.22-.12-.22.18-1.63l.08-.38a.57.57,0,0,1-.21-.21c-.13-.21-.11-.35,0-.67l0,0c-.11-.2-.11-.2.09-1.5L56,13h-.07a.51.51,0,0,1-.18,0v0a.57.57,0,0,1-.2-.19.55.55,0,0,1,.14-.75l0-.08.23-.14c.36-.22.49-.3.72-.24l.14,0,.13.05a.53.53,0,0,1,.29.25c.12.21.12.21-.08,1.52l0,.27a.57.57,0,0,1,.25.23c.13.21.11.35,0,.67l0,0c.13.22.13.22-.18,1.66l-.08.36a.57.57,0,0,1,.21.21c.13.22.13.22-.18,1.66l-.08.36a.56.56,0,0,1,.22.22c.13.23.13.23-.19,1.33v0a.56.56,0,0,1,.15.16.5.5,0,0,1,0,.55c.09.19.08.32-.06.6l0,0a.54.54,0,0,1,.08.33,5.1,5.1,0,0,1-.26,1,.57.57,0,0,1,.15.17c.08.14.09.16.06.73a.49.49,0,0,1,.39,0h0l.83.06.81.06.23-.14c.52-.31.6-.37.85-.31l-.13.55-.49.29.49-.29.23.52-.36.21c-.51.31-.6.37-.85.31h0l-.83-.06-.81-.06-.25.15C56.83,25.46,56.68,25.55,56.52,25.55Z"/>      <path class="a" d="M54.82,13.56l-.15,0a.57.57,0,0,1-.35-.27c-.21-.38-.05-.56.5-1.11L54.72,12l.33-.2c.47-.29.58-.36.83-.29a.57.57,0,0,1,.34.26c.22.39,0,.59-.55,1.17l-.2.21.06.12-.18.11A1.06,1.06,0,0,1,54.82,13.56Zm0-.57h0Z"/>      <path class="a" d="M54.58,14.37l-.15,0a.57.57,0,0,1-.35-.26l-.36-.72-.09-.18a.53.53,0,0,1-.22,0,.57.57,0,0,1-.35-.27c-.11-.2-.11-.27,0-.8a.57.57,0,0,1-.17-.18c-.16-.28-.16-.28.55-2l.24-.6a.56.56,0,0,1-.11-.13c-.16-.28-.16-.28.47-1.6l.07-.15-.06-.09a.57.57,0,0,1,.19-.78l.08,0,.18-.11c.26-.16.73-.45,1,0,.17.3.17.3-.46,1.62L55,8.28l.06.08c.16.28.16.28-.55,2l-.24.58a.56.56,0,0,1,.11.13c.13.22.12.29-.1,1l.07.09.36.72.07.15a.53.53,0,0,1,.41,0l-.15.55h0l.24.51-.2.12A1.08,1.08,0,0,1,54.58,14.37Z"/>      <path class="a" d="M56.47,9l-.15,0A.57.57,0,0,1,56,8.71a.61.61,0,0,1-.07-.18l-.13,0a.57.57,0,0,1-.34-.26l-.17-.34a.53.53,0,0,1-.23,0l.08-.3L55,7.4l.15-.07-.24-.49.13-.08a.72.72,0,0,1,.61-.17.57.57,0,0,1,.34.26l.17.34a.52.52,0,0,1,.23,0,.57.57,0,0,1,.34.26.48.48,0,0,1,.06.13.52.52,0,0,1,.27,0l-.13.45.05.17h0l.2.42-.17.1A1,1,0,0,1,56.47,9Zm.41-.72-.14.43ZM55.53,7.15l.14-.08Z"/>      <path class="a" d="M56.55,8.22l-.14,0a.57.57,0,0,1-.36-.27c-.13-.22-.13-.22.16-1.41l0-.18a.58.58,0,0,1-.16-.18c-.12-.21-.12-.21.16-1.42l0-.21a.57.57,0,0,1-.16-.17c-.14-.23-.14-.23.28-1.9.08-.33.19-.75.25-1L56.48,1l.24-.14c.37-.23.49-.3.74-.24a.57.57,0,0,1,.35.27c.13.23.13.23-.28,1.87l-.16.65a.59.59,0,0,1,.15.17c.13.22.13.22-.16,1.44l0,.19a.59.59,0,0,1,.16.18c.13.22.13.22-.16,1.41-.1.4-.19.79-.21.91h0l.12.24L57,8A1,1,0,0,1,56.55,8.22Zm.05-.6-.15.09Z"/>    </g>    <g>      <path class="a" d="M82.41,15.39l-.15,0a.57.57,0,0,1-.36-.27.5.5,0,0,1-.08-.39l0,0c-.09-.16-.09-.16-.09-1.33,0-.07,0-.15,0-.22h0l0-.16c0-.27,0-.5,0-.57h0l-.15-.32.17-.1c.28-.17.43-.26.67-.19a.57.57,0,0,1,.34.26c.09.16.09.16.09,1.33v.06c.87-.53.91-.55,1.17-.49a.57.57,0,0,1,.36.27c.24.42.07.57-.86,1.38l-.08.07.08.19-.37.22C82.72,15.29,82.57,15.39,82.41,15.39ZM82,12l-.1.34h0Z"/>      <path class="a" d="M102.61,24.41l-.15,0a.64.64,0,0,1-.45-.56.57.57,0,0,1-.34-.26c-.16-.26-.19-.33.28-1-.49.28-.56.28-.75.23a.57.57,0,0,1-.35-.27.57.57,0,0,1,.21-.77l.14-.06c.18-.09.73-.43,1.13-.68,1.41-.86,1.44-.88,1.71-.81a.57.57,0,0,1,.35.27c.16.28.19.34-.37,1.15a.53.53,0,0,1,.18,0,.57.57,0,0,1,.35.27c.22.38.12.49-.81,1.5l-.44.47.08.16-.21.13A1.15,1.15,0,0,1,102.61,24.41Z"/>      <path class="a" d="M99.57,25.17a.49.49,0,0,1-.42-.23l-.16,0a.57.57,0,0,1-.35-.27c-.11-.2-.18-.31,0-.53-.52.28-.6.26-.78.22a.59.59,0,0,1-.36-.27c-.24-.42-.25-.44,2-2.79-1.87,1.14-1.9,1.13-2.18,1.06a.58.58,0,0,1-.36-.27c-.27-.47-.28-.48,3-3.56-1.28.77-1.35.75-1.59.69a.58.58,0,0,1-.36-.27c-.15-.26-.16-.27.45-1.69-.91.55-.95.56-1.2.5a.57.57,0,0,1-.35-.27c-.21-.37-.16-.45.83-1.54a.57.57,0,0,1,.22-.69l.1-.05.31-.19c.46-.28.89-.54,1.19-.05a.5.5,0,0,1,.09.39l.09,0a.57.57,0,0,1,.35.27c.16.28.16.28-.47,1.76l1.14-.69c2.66-1.63,2.68-1.63,3-1.55a.58.58,0,0,1,.36.27c.27.47.28.48-3,3.56,1.18-.71,1.24-.69,1.49-.63a.58.58,0,0,1,.36.27c.24.42.25.44-2,2.81,2.55-1.56,2.58-1.55,2.88-1.47a.58.58,0,0,1,.36.27c.28.48.28.48-2.4,2.66l-.79.64c.08.27-.1.47-.52,1l-.21.25.06.13-.16.1A1.16,1.16,0,0,1,99.57,25.17Z"/>      <path class="a" d="M100.61,17l-.16,0a.58.58,0,0,1-.35-.27c-.14-.25-.19-.4,0-.62A10.08,10.08,0,0,1,101.86,14a.57.57,0,0,1-.34-.26c-.15-.26-.16-.27.36-1.5l-.81.49c-2.35,1.43-2.36,1.43-2.65,1.35a.59.59,0,0,1-.18-.08c-.83.48-.91.46-1.12.41a.58.58,0,0,1-.36-.27.57.57,0,0,1,.21-.77.56.56,0,0,1,.19-.07c.35-.16,1.71-1,2.72-1.61,3-1.85,3-1.84,3.36-1.76a.58.58,0,0,1,.36.27c.15.26.22.39,0,.65,0,.17,0,.39-.41,1.29.86-.52.91-.53,1.15-.47a.57.57,0,0,1,.35.27c.21.37.24.41-1.23,2,.51-.29.59-.28.78-.23a.57.57,0,0,1,.35.27c.14.24.19.39,0,.6a.57.57,0,0,1-.28.39l-.15.06c-.23.11-1,.58-1.54.92C101.12,16.85,100.82,17,100.61,17Z"/>      <path class="a" d="M100.39,7.71l-.16,0a.58.58,0,0,1-.35-.27c-.2-.35-.25-.43.72-1.32a.58.58,0,0,1-.34-.26c-.18-.31-.18-.31.8-2.24l0-.09-.8.49c-2.49,1.52-2.5,1.52-2.8,1.44a.58.58,0,0,1-.36-.27.57.57,0,0,1,.21-.77.58.58,0,0,1,.18-.07c.3-.14,1.38-.81,2.18-1.3,2.49-1.52,2.5-1.52,2.8-1.44a.58.58,0,0,1,.36.27c.18.3.18.3-.81,2.25l0,.05.16-.1C104.08,2.91,104.1,2.9,104.4,3a.58.58,0,0,1,.35.27c.18.32.24.42-.53,1.14l.07,0a.58.58,0,0,1,.35.27.57.57,0,0,1-.21.77l-.16.06c-.25.12-1.09.64-1.72,1C100.94,7.52,100.61,7.71,100.39,7.71Z"/>      <path class="a" d="M101.31,10.75l-.16,0a.57.57,0,0,1-.35-.27c-.09-.15-.14-.25-.11-.38-.38.21-.46.19-.62.15a.57.57,0,0,1-.35-.27c-.22-.38-.25-.43,1.26-2-2.42,1.48-2.46,1.47-2.76,1.39a.58.58,0,0,1-.36-.27.57.57,0,0,1,.4-.84c.34-.16,1.68-1,2.67-1.59,3-1.81,3-1.81,3.3-1.73a.59.59,0,0,1,.36.27c.22.38.25.43-1.24,2,.33-.17.41-.15.56-.12a.57.57,0,0,1,.35.27c.18.32.23.4-.45,1.09a.57.57,0,0,1,0,1l-.13.05c-.16.08-.63.37-1,.58C101.73,10.61,101.5,10.75,101.31,10.75Z"/>      <path class="a" d="M93.25,14.36l-.16,0a.58.58,0,0,1-.35-.27c-.15-.26-.21-.37.1-.7a.58.58,0,0,1-.11-.13c-.16-.29-.22-.39.26-.88a.57.57,0,0,1-.28-.24c-.11-.19-.16-.32-.09-.47a.34.34,0,0,1,0-.37c-.14-.25-.13-.38.47-1l-.09,0a.57.57,0,0,1-.35-.27c-.14-.25-.2-.35.13-.75-1.25.75-1.31.74-1.55.67a.58.58,0,0,1-.36-.27.57.57,0,0,1,.2-.78.56.56,0,0,1,.18-.07c.3-.14,1.4-.82,2.22-1.32C96,5.94,96,5.94,96.36,6a.58.58,0,0,1,.36.27c.18.3.23.39-.44,1.08l.08,0a.57.57,0,0,1,.35.27c.17.3.22.39-.42,1.07l.1,0a.58.58,0,0,1,.35.27c.12.21.18.34,0,.53a.41.41,0,0,1,.05.38c.08.19,0,.33-.34.72a.58.58,0,0,1,.28.24l.07.12c.38-.2.45-.18.61-.14a.58.58,0,0,1,.35.27.57.57,0,0,1-.21.77.58.58,0,0,1-.16.06c-.26.13-1.18.69-1.87,1.11C93.82,14.16,93.48,14.36,93.25,14.36Z"/>      <path class="a" d="M93.25,19.45l-.16,0a.57.57,0,0,1-.35-.27c-.1-.18-.15-.3-.1-.44s.26-.67,1.63-2.54h0c-.94.57-1,.56-1.23.51a.57.57,0,0,1-.35-.27.51.51,0,0,1-.11-.39c-.76.42-.87.39-1,.35a.59.59,0,0,1-.36-.27L91.1,16c-1.63,1-1.66,1-1.93.92a.58.58,0,0,1-.35-.27.57.57,0,0,1,.21-.77l.16-.06c.25-.12,1.12-.65,1.76-1C93,13.5,93,13.5,93.32,13.57a.58.58,0,0,1,.35.27.89.89,0,0,1,.08.18l2.19-1.33c4.62-2.83,4.68-2.81,5-2.73a.59.59,0,0,1,.36.27c.32.56.32.56-4,3.55l-.57.4c.15.3,0,.5-1.58,2.67h0c.9-.54,1-.54,1.2-.49a.57.57,0,0,1,.35.27c.11.2.16.33.08.49a.56.56,0,0,1-.28.51l-.15.06c-.2.1-.86.5-1.35.8C93.73,19.28,93.46,19.45,93.25,19.45Z"/>      <path class="a" d="M93.4,25.27l-.16,0a.58.58,0,0,1-.35-.27c-.15-.25-.21-.36.13-.73a.58.58,0,0,1-.28-.24c-.2-.35-.23-.39,1-1.78-.39.22-.47.21-.65.16a.57.57,0,0,1-.35-.27c-.21-.37-.23-.4,1.15-2-1.88,1.15-1.91,1.14-2.19,1.07a.58.58,0,0,1-.36-.27.44.44,0,0,1-.08-.31l-.16.1c-1.35.83-1.37.84-1.65.77l-.06,0c-.28.14-.36.13-.51.09a.58.58,0,0,1-.35-.27.57.57,0,0,1,.21-.77l.14-.06c.19-.1.79-.46,1.24-.74,1.51-.92,1.54-.94,1.82-.87a.58.58,0,0,1,.23.12h0a.57.57,0,0,1,.35.27.48.48,0,0,1,.07.35l1.16-.7c2.34-1.43,2.35-1.43,2.65-1.35a.58.58,0,0,1,.36.27c.21.36.23.4-1.13,2,.52-.3.59-.29.79-.24a.57.57,0,0,1,.35.27c.2.35.23.4-1,1.78.38-.21.46-.2.63-.15a.57.57,0,0,1,.35.27c.16.28.22.38-.22.84a.57.57,0,0,1,.23.22c.16.27.13.33-.29,1.27l-.13.28.17.38-.26.16c-.4.24-.52.32-.77.25a.57.57,0,0,1-.34-.26.45.45,0,0,1-.05-.45C93.86,25.11,93.59,25.27,93.4,25.27Z"/>      <path class="a" d="M87.14,25.41l-.16,0a.57.57,0,0,1-.36-.27.48.48,0,0,1,0-.58c-1.48.91-1.52.91-1.79.84a.58.58,0,0,1-.35-.27c-.27-.47-.29-.5,2.83-3.28-2.15,1.31-2.21,1.29-2.49,1.22a.58.58,0,0,1-.36-.27.58.58,0,0,1-.07-.24c-.1-.21,0-.37.51-1-.92.54-1,.53-1.2.47a.58.58,0,0,1-.36-.27l0-.08c-1.09.64-1.17.62-1.39.56a.59.59,0,0,1-.36-.27c-.08-.14-.08-.14-.15-1.37v-.2a.52.52,0,0,1-.44.06l.15-.55.26-.14h0l-.26.14-.23-.52.33-.2c.49-.3.59-.36.83-.29a.57.57,0,0,1,.34.26c.08.14.08.14.15,1.37,0,.09,0,.17,0,.26.62-.36,1.54-.92,2.29-1.38,3.18-1.95,3.21-1.94,3.53-1.86a.58.58,0,0,1,.36.27c.13.22.2.35,0,.58a.57.57,0,0,1,.14.16c.18.31.23.4-.5,1.15C91.24,18,91.29,18,91.6,18.1a.59.59,0,0,1,.36.27l0,.09c.28.48.25.51-3.38,3.74l-.15.14h0a.57.57,0,0,1,.35.27c.15.26.16.34-.24,1a.57.57,0,0,1,.28.24c.21.36,0,.59-.32.93l.07.16-.27.16c-.4.24-.52.32-.76.25l-.11,0A.72.72,0,0,1,87.14,25.41Z"/>      <path class="a" d="M85.09,19l-.16,0a.58.58,0,0,1-.35-.27c-.17-.29-.24-.42.33-.92h0a.58.58,0,0,1-.36-.27c-.21-.37-.26-.45,1.06-1.62-2.86,1.74-2.93,1.73-3.23,1.65a.58.58,0,0,1-.26-.14c-.33.16-.41.14-.55.1a.58.58,0,0,1-.36-.27l-.09-.16A.57.57,0,0,1,81,17c-.09-.15-.11-.21,0-.57a.51.51,0,0,1-.22,0l.14-.55.24-.13h0l-.24.13-.22-.52.38-.23c.54-.33.64-.39.89-.33a.57.57,0,0,1,.35.27c.09.15.11.21,0,.55l.68-.42c1.95-1.19,2-1.19,2.24-1.11a.57.57,0,0,1,.22.11c.8-.47.87-.45,1.08-.4a.58.58,0,0,1,.26.15C90,11.92,90,11.94,90.35,12a.59.59,0,0,1,.36.27c.21.36.26.45-1,1.56,1.47-.88,1.54-.85,1.78-.79a.59.59,0,0,1,.36.27c.3.52.3.53-3.2,3.09a.57.57,0,0,1-.22.75l-.15.06c-.21.11-.88.52-1.38.82C85.58,18.86,85.3,19,85.09,19Z"/>      <path class="a" d="M93.26,7.28l-.16,0A.59.59,0,0,1,92.74,7c-.22-.38-.27-.46,1.19-1.74-.59.33-.68.31-.86.26a.58.58,0,0,1-.36-.27C92.59,5,92.59,5,93,3.57l.2-.8-.21-.46.25-.15c.37-.23.5-.31.75-.24a.57.57,0,0,1,.35.26c.13.23.13.23-.23,1.67h0l1.64-1c2.88-1.76,2.89-1.75,3.21-1.67a.58.58,0,0,1,.36.27c.22.39.27.47-1.29,1.82,3.61-2.2,3.67-2.19,4-2.11a.59.59,0,0,1,.36.27.57.57,0,0,1-.43.85c-.47.21-2.54,1.47-4.06,2.4C94.17,6.93,93.56,7.28,93.26,7.28Z"/>      <path class="a" d="M86.82,14.38l-.16,0a.58.58,0,0,1-.36-.27c-.21-.37-.25-.44.88-1.45a.56.56,0,0,1-.17-.18c-.24-.42-.25-.44,1.9-2.7-.93.56-1,.55-1.22.49a.58.58,0,0,1-.36-.27.69.69,0,0,1-.12-.29c-1.69,1-1.74,1-2,.94a.58.58,0,0,1-.36-.27c-.22-.37-.22-.38,1.43-2.54l-1.09.67c-3.45,2.11-3.48,2.1-3.81,2a.59.59,0,0,1-.36-.27c-.09-.16-.1-.18,0-.94a.49.49,0,0,1-.3,0l.14-.55.22-.13h0l-.22.13-.23-.52.34-.2c.49-.3.59-.36.84-.3a.57.57,0,0,1,.35.26c.1.16.1.18,0,1,.68-.4,1.65-1,2.44-1.47,3.45-2.11,3.49-2.1,3.81-2a.59.59,0,0,1,.36.27c.22.37.22.38-1.4,2.5L87.72,8c2.79-1.7,2.81-1.69,3.11-1.62a.58.58,0,0,1,.36.27.68.68,0,0,1,.12.29c.42-.23.5-.21.67-.17a.58.58,0,0,1,.36.27c.24.42.25.44-2,2.86a.49.49,0,0,1,.22,0,.58.58,0,0,1,.35.27c.13.23.2.35-.05.65a.55.55,0,0,1,.18,0,.58.58,0,0,1,.36.27.57.57,0,0,1-.21.77L91,12c-.26.13-1.18.69-1.86,1.1C87.38,14.17,87,14.38,86.82,14.38Z"/>      <path class="a" d="M89.55,5.61l-.16,0A.58.58,0,0,1,89,5.31a.57.57,0,0,1,.21-.77l.12-.05c.15-.08.5-.3.86-.51,1.14-.7,1.17-.71,1.44-.64A.57.57,0,0,1,92,3.6c.19.32.08.53-.26.82l.07.17-.5.29c-.68.42-.76.46-1,.4h0C89.83,5.53,89.68,5.61,89.55,5.61Z"/>      <path class="a" d="M85.25,7.61l-.15,0a.58.58,0,0,1-.36-.27c-.17-.3-.24-.42.38-1l-.07,0a.58.58,0,0,1-.36-.27.43.43,0,0,1,0-.62,6.86,6.86,0,0,1-1.65.88.48.48,0,0,1-.26,0A.58.58,0,0,1,82.44,6c-.11-.2-.12-.2.07-1.35-.91.55-1,.57-1.21.51A.57.57,0,0,1,81,4.94c-.17-.28-.08-.46.17-.84L81,3.78l.3-.18c.44-.27.55-.34.79-.28a.57.57,0,0,1,.26.14c.75-.46.81-.47,1-.41a.57.57,0,0,1,.35.26c.11.19.12.2-.06,1.32l1.51-.83.14-.08C87.55,2.37,88,2.1,88.25,2.09a.5.5,0,0,1,.21,0,.58.58,0,0,1,.36.27.43.43,0,0,1,0,.62C90.66,1.87,90.71,1.88,91,2a.58.58,0,0,1,.36.27c.14.25.22.37-.11.72a.47.47,0,0,1,.24,0,.58.58,0,0,1,.36.27.57.57,0,0,1-.4.85c-.36.17-1.79,1-2.85,1.69C86,7.35,85.51,7.61,85.25,7.61Z"/>      <path class="a" d="M85.28,3.45l-.16,0a.58.58,0,0,1-.35-.26c-.14-.24-.14-.24.21-1.39l.19-.64L85,.79l.21-.12c.34-.21.46-.28.71-.22a.57.57,0,0,1,.35.26c.12.2.13.23-.09,1l.24-.15c1.6-1,1.6-1,1.89-.91a.58.58,0,0,1,.35.27.57.57,0,0,1-.21.77l-.14.06c-.2.1-.83.49-1.3.78C85.76,3.28,85.49,3.45,85.28,3.45ZM85.74,1h0Z"/>      <path class="a" d="M93,19.24l-.14,0a.57.57,0,0,1-.36-.27c-.12-.21-.12-.21.13-1.44l0-.2a.56.56,0,0,1-.2-.19.49.49,0,0,1-.07-.44.43.43,0,0,1,0-.27h-.52l-.62,0-.4.24c-.62.38-.74.45-.94.42a.53.53,0,0,1-.46.07l.07-.29,0-.06a.48.48,0,0,1,0-.52l-.08-.2.5-.3c.63-.38.75-.45.95-.42a.52.52,0,0,1,.44-.07h.63l.62,0,.17-.11c.44-.27.55-.33.79-.27a.57.57,0,0,1,.36.27c.11.2.11.31,0,.68l.08.11a.49.49,0,0,1,0,.44c.06.16,0,.36-.18,1.34-.09.42-.17.85-.19,1h0l.13.26-.15.09A1,1,0,0,1,93,19.24Zm.32-.57-.1.31Z"/>      <path class="a" d="M92.39,20.11l-.15,0a.57.57,0,0,1-.26-.15l-.06-.06a.55.55,0,0,1-.46.07l-.12-.05c-.16-.06-.75-.25-1.2-.39L89,19.14l-.15.09c-.49.3-.6.36-.84.3a.57.57,0,0,1-.34-.25.49.49,0,0,1-.06-.46l0-.06c-.15-.26-.16-.29.34-1.31h-.05l.14-.55.26-.15h0l-.26.15-.22-.52.47-.28c.67-.41.74-.45,1-.38a.57.57,0,0,1,.35.26c.17.29.17.29-.51,1.66L89,17.9l0,0h0l.12,0,.14.06,1.21.4,1.08.35a.66.66,0,0,1,.58-.14.57.57,0,0,1,.25.15l.07.06.13-.08c.59-.36.68-.42.94-.35l-.14.55-.5.27.5-.27.22.52-.42.25C92.7,20,92.55,20.11,92.39,20.11Z"/>      <path class="a" d="M93,14.16l-.14,0a.56.56,0,0,1-.36-.27c-.12-.2-.11-.32,0-.67l0-.06a.54.54,0,0,1,0-.58h0a.53.53,0,0,1-.08-.35A6.92,6.92,0,0,1,92.61,11l0-.21a.56.56,0,0,1-.21-.21.49.49,0,0,1,0-.46l-.11-.24c-.47.29-.56.34-.8.27l.15-.55.43-.23h0l-.43.23-.22-.52.39-.23c.56-.34.64-.4.9-.33a.57.57,0,0,1,.35.27l.15.35a.51.51,0,0,1,.32,0,.57.57,0,0,1,.33.25.49.49,0,0,1,.05.47c.07.15,0,.31-.19,1.39l0,.21a.57.57,0,0,1,.19.2.54.54,0,0,1,.08.33.69.69,0,0,1-.08.37h0c.14.25.1.37-.17,1l-.16.38.08.17-.15.09A1,1,0,0,1,93,14.16Zm0-.59-.14.08Z"/>      <path class="a" d="M92.23,15.11l-.16,0a.57.57,0,0,1-.35-.27h0a.51.51,0,0,1-.32,0,.57.57,0,0,1-.34-.26,9.93,9.93,0,0,1-.42-1.2l-.15-.43c-.25.15-.36.18-.55.12a.57.57,0,0,1-.35-.26c-.16-.27-.16-.27.55-2.13l.11-.28-.1,0,.14-.55.24-.15h0l-.24.15-.22-.52L90.47,9c.58-.36.67-.41.92-.35a.57.57,0,0,1,.36.27c.16.27.16.27-.55,2.11l-.19.5a.57.57,0,0,1,.27.24A9.93,9.93,0,0,1,91.7,13l.17.5a.49.49,0,0,1,.52.25l0,0,.09-.05c.69-.42.76-.47,1-.4l-.14.55-.49.28.49-.28.22.52-.5.3C92.56,15,92.39,15.11,92.23,15.11Z"/>      <path class="a" d="M100.22,7.51l-.15,0a.57.57,0,0,1-.35-.27C99.58,7,99.58,7,100,5.67l.1-.27L99.67,5l-.24-.19-.4.25c-.88.54-.92.57-1.19.51L98,5l.49-.29L98,5l-.21-.52c.1,0,.38-.22.67-.4.89-.54.94-.57,1.2-.51a.57.57,0,0,1,.26.15l.48.39.23.18a.58.58,0,0,1,.48-.09.57.57,0,0,1,.36.27c.15.25.15.25-.32,1.56-.12.33-.24.66-.3.86l.13.27-.19.11A1.06,1.06,0,0,1,100.22,7.51Zm0-.58h0Z"/>      <path class="a" d="M100.55,10.67l-.15,0a.57.57,0,0,1-.25-.14L99.47,10,99,9.69a.6.6,0,0,1-.51.11.57.57,0,0,1-.35-.26.89.89,0,0,1-.09-.2.5.5,0,0,1-.42,0,.57.57,0,0,1-.35-.27.57.57,0,0,1,.21-.77l.14-.06c.18-.09.72-.42,1.13-.67,1.4-.86,1.43-.87,1.7-.8a.58.58,0,0,1,.35.27c.23.4.16.46-.91,1.61l-.14.15.35.26.45.33a.6.6,0,0,1,.51-.11l-.11.43,0,.08-.08,0,.24.51-.16.09A1,1,0,0,1,100.55,10.67Zm0-.57-.08,0Z"/>      <path class="a" d="M98.79,11.76l-.16,0-.06,0-1-.15-.94-.15h0c-.29.17-.42.25-.65.2a.57.57,0,0,1-.36-.28.51.51,0,0,1,0-.53c-.11-.21-.09-.33.08-.76L95.61,10c-.14-.24-.14-.24.13-1.39l0-.14a.57.57,0,0,1-.18-.19c-.17-.29-.17-.29.66-2.11l0,0a.45.45,0,0,1-.32,0l.13-.55.49-.29-.49.29L95.87,5c.09,0,.34-.2.6-.36.81-.5.86-.53,1.11-.46a.57.57,0,0,1,.36.27c.17.29.17.29-.66,2.11l-.34.77,0,.07c.13.22.13.22-.14,1.39l0,.1a.57.57,0,0,1,.19.19c.13.21.12.32-.06.78L97,10a.5.5,0,0,1,.08.33l.63.09,1,.15.4-.24c.75-.46.81-.49,1.06-.42a.57.57,0,0,1,.18.08l.15.09.21-.13c.62-.38.7-.43,1-.37l-.13.55-.49.29.49-.29.22.52-.45.27c-.62.38-.7.43-1,.36a.58.58,0,0,1-.18-.08l-.16-.09-.32.19C99.12,11.66,98.95,11.76,98.79,11.76Z"/>      <path class="a" d="M100.54,16.55l-.15,0a.57.57,0,0,1-.35-.27.5.5,0,0,1,.07-.65c0-.21.24-.54.91-1.52l0-.06-.79-.06c-.61,0-1-.07-1.25-.11l-.41.25c-.74.45-.8.49-1.06.42L97.7,14l.49-.28L97.7,14l-.21-.52.54-.32c.74-.45.8-.49,1.06-.42h0c.18,0,.79.07,1.25.1s1,.07,1.24.1l.1-.06c.35-.22.49-.3.73-.23a.57.57,0,0,1,.34.26c.2.34.2.34-.81,1.81l-.18.26h0c.23.41,0,.63-.48,1l.05.11-.23.14A1.2,1.2,0,0,1,100.54,16.55Z"/>      <path class="a" d="M100.15,17.39l-.14,0a.57.57,0,0,1-.36-.27.46.46,0,0,1-.06-.16.54.54,0,0,1-.28-.23,6,6,0,0,1-.23-.62.52.52,0,0,1-.2,0l.09-.32-.08-.24.11,0L98.78,15l.14-.09c.18-.11.67-.41,1,.07a3.1,3.1,0,0,1,.23.63.49.49,0,0,1,.48.25l0,0a.5.5,0,0,1,.24,0l-.17.57,0,0L101,17l-.24.14A1.21,1.21,0,0,1,100.15,17.39ZM99,15.55l-.09.06ZM99.2,15l-.14.46Z"/>      <path class="a" d="M96.81,22.86l-.15,0a.57.57,0,0,1-.35-.26c-.23-.39-.16-.46.92-1.66l0,0c-.12-.29,0-.47.48-.94a.58.58,0,0,1,0-.19.49.49,0,0,1,.13-.25l.1-.12v-.06l-.32-.74-.1-.24a.61.61,0,0,1-.19,0,.57.57,0,0,1-.36-.27c-.08-.14-.1-.18,0-.52a.54.54,0,0,1-.18,0,.57.57,0,0,1-.35-.26c-.25-.44-.17-.51,1.21-1.72l.25-.22-.1-.24.47-.28c.67-.41.74-.45,1-.38a.57.57,0,0,1,.35.26c.25.44.17.51-1.21,1.72l-.13.11a4.85,4.85,0,0,1-.08.62.57.57,0,0,1,.16.17l.37.85.1.24a.52.52,0,0,1,.19,0,.57.57,0,0,1,.34.25l0,.09.1.12a.57.57,0,0,1,.08.44.45.45,0,0,1,0,.39,2.33,2.33,0,0,1-.46.54c.06.25-.15.49-1,1.45l-.41.45.11.25-.31.18C97.11,22.77,97,22.86,96.81,22.86Z"/>      <path class="a" d="M82.11,15.19l-.14,0a.57.57,0,0,1-.36-.27c-.09-.16-.1-.22,0-.64a.56.56,0,0,1-.16-.17.5.5,0,0,1-.08-.35c-.15-.26-.13-.32.15-1.17l.07-.2-.21-.45.26-.16c.41-.25.52-.32.76-.26a.57.57,0,0,1,.36.27c.13.23.12.28-.15,1.09l.06.09a.5.5,0,0,1,.08.35v0c.11.19.1.24,0,.88,0,.19-.06.38-.07.45h-.11l.14.29-.13.08A.89.89,0,0,1,82.11,15.19Zm0-.57L82,14.7Z"/>      <path class="a" d="M84.82,18.83l-.15,0a.57.57,0,0,1-.35-.27.49.49,0,0,1,0-.49l-.41-.52-.15-.2-.08,0c-.62.38-.7.43-.95.37a.57.57,0,0,1-.25-.13l-.71-.5-.48-.33a.56.56,0,0,1-.45.07.57.57,0,0,1-.33-.25l0-.08-.08-.11c-.16-.28-.11-.44.17-.8l-.18-.42.5-.3c.69-.42.76-.47,1-.4a.57.57,0,0,1,.36.27c.19.33.09.5-.37,1.05l.55.38.49.34.18-.11c.62-.38.7-.43.95-.37a.57.57,0,0,1,.36.27l.41.51.17.22a.54.54,0,0,1,.42-.05.57.57,0,0,1,.35.26c.18.29.07.47-.2.94l-.11.19.07.15-.15.09A1,1,0,0,1,84.82,18.83Z"/>      <path class="a" d="M82.25,20.2l-.16,0v0a.57.57,0,0,1-.33-.67.5.5,0,0,1,.25-.34h0l.57-.34a3,3,0,0,1,.89-.47l.11,0a.46.46,0,0,1,.31,0,.57.57,0,0,1,.31.2l.14-.08c.67-.41.74-.45,1-.39l-.14.55-.49.28.49-.28.22.52-.48.29c-.67.41-.74.45-1,.39a.57.57,0,0,1-.31-.21l-.24.15c-.56.34-.75.46-.91.47l-.12,0Z"/>      <path class="a" d="M84.73,25.68a.49.49,0,0,1-.43-.26c-.14-.24-.14-.27.1-1.14a.57.57,0,0,1-.17-.19c-.11-.21-.1-.33,0-.65l0,0c-.13-.21-.12-.3.06-.8l-1.11-.36-1.13-.37a.65.65,0,0,1-.56.13.57.57,0,0,1-.34-.27c-.11-.18-.11-.18,0-1.44a.55.55,0,0,1-.48.09l.14-.55.42-.24h0l-.42.24-.22-.52.43-.26c.61-.38.69-.43.94-.36a.57.57,0,0,1,.35.27c.11.18.11.18,0,1.45l0,.34h0c.16.06.78.26,1.24.41l1.14.37c.27-.17.41-.24.63-.18a.57.57,0,0,1,.36.27c.12.22.11.3-.09.83l.08.11c.13.21.12.33,0,.66l0,0c.12.2.13.24-.08,1l1,.08,1.09.09.2-.12c.49-.3.59-.36.84-.3l-.14.55-.49.29.49-.29.23.52-.33.2c-.49.3-.6.36-.84.29h0c-.17,0-.63-.05-1.1-.09l-1.08-.09-.08.05A1.31,1.31,0,0,1,84.73,25.68Z"/>      <path class="a" d="M88.2,24.8l-.15,0a.57.57,0,0,1-.34-.26c-.12-.21-.12-.21.11-1.24v0a.58.58,0,0,1-.16-.17c-.15-.27-.16-.27.37-1.45l.09-.34.08,0h0l-.09,0-.22-.52.37-.22c.54-.33.63-.39.88-.32a.57.57,0,0,1,.35.27c.16.27.16.27-.4,1.52l-.1.23,0,0c.12.21.12.21-.11,1.24-.07.33-.15.65-.16.75h-.06l.12.25-.14.09A.94.94,0,0,1,88.2,24.8Zm.3-.56-.09.31Z"/>      <path class="a" d="M95.68,25.33l-.15,0-.07,0-1-.17L93.52,25h0c-.29.18-.42.25-.65.2a.57.57,0,0,1-.36-.27c-.12-.21-.12-.21.13-1.77l.08-.5a.56.56,0,0,1-.26-.24,9,9,0,0,1-.34-.92l-.1-.27c-.4.24-.5.28-.72.23l-.06,0-.53-.1-.44-.08-.25.15c-.56.34-.65.4-.9.34l.14-.55.44-.26h0l-.44.26L89,20.65l.39-.24c.56-.34.65-.4.9-.34l.07,0,.53.1.44.08.22-.14c.53-.33.63-.38.87-.32a.57.57,0,0,1,.35.26,8.84,8.84,0,0,1,.38,1l.08.22a.49.49,0,0,1,.27,0,.57.57,0,0,1,.36.27c.11.2.11.2-.14,1.74l-.08.52,1,.16,1,.16.19-.12c.5-.3.6-.36.85-.3l-.14.55-.33.19.33-.19.23.52-.34.2C96,25.24,95.84,25.33,95.68,25.33Zm-5.94-4.46,0,0Z"/>      <path class="a" d="M96.1,24.54l-.14,0a.57.57,0,0,1-.36-.27c-.13-.22-.12-.27.1-1a.56.56,0,0,1-.1-.13c-.13-.22-.12-.27.1-1a.55.55,0,0,1-.1-.13c-.11-.2-.11-.2.12-1.73l.09-.57a.57.57,0,0,1-.2-.2.55.55,0,0,1,0-.55c-.11-.18-.09-.25.14-1.49l.06-.3a.57.57,0,0,1-.19-.2c-.12-.21-.12-.21.13-1.47l.05-.26a.57.57,0,0,1-.18-.19c-.21-.35-.09-.54.38-1l-.11-.25.48-.29c.67-.41.74-.45,1-.39a.57.57,0,0,1,.35.26c.24.41,0,.6-.65,1.23,0,.19-.08.5-.2,1.08l-.05.26a.56.56,0,0,1,.18.19c.12.21.12.21-.13,1.5l-.06.32a.55.55,0,0,1,.18.18.52.52,0,0,1,0,.55c.1.18.09.25-.14,1.73l-.09.56a.56.56,0,0,1,.21.21c.13.22.12.27-.1,1a.59.59,0,0,1,.1.12c.14.23.12.28-.14,1.12-.08.25-.16.51-.18.59h0l.1.2-.14.09A.94.94,0,0,1,96.1,24.54Zm0-.59L96,24Z"/>      <path class="a" d="M99.62,25.45l-.15,0a.57.57,0,0,1-.36-.27v0a.54.54,0,0,1-.24,0,.57.57,0,0,1-.24-.14l-.87-.65-.64-.47a.58.58,0,0,1-.48.09l.1-.4-.06-.09.51-.31-.41.25-.25-.51.15-.09c.25-.15.39-.24.63-.18a.56.56,0,0,1,.26.15l.87.65.64.47a.6.6,0,0,1,.49-.1.6.6,0,0,0,.85.16l-.15.55-.16.09.16-.09.24.51-.26.16C99.91,25.36,99.78,25.45,99.62,25.45Z"/>      <path class="a" d="M100.06,24.63l-.15,0a.57.57,0,0,1-.34-.26c-.2-.34-.17-.39.7-1.6l.43-.6-.11-.24.23-.14c.36-.22.48-.3.73-.23a.57.57,0,0,1,.34.26c.2.34.17.39-.7,1.6l-.43.6.11.24-.24.14A1.18,1.18,0,0,1,100.06,24.63Z"/>      <path class="a" d="M102.52,24.69l-.15,0a.57.57,0,0,1-.35-.26.47.47,0,0,1-.07-.23.57.57,0,0,1-.3-.24,4,4,0,0,1-.25-.66l-.14,0,.05-.22-.11-.3.17-.07-.23-.46.12-.07a.71.71,0,0,1,.6-.16.57.57,0,0,1,.35.26,3.91,3.91,0,0,1,.25.65.61.61,0,0,1,.19,0,.57.57,0,0,1,.34.26l0,0a.51.51,0,0,1,.4,0l-.14.55-.2.11.2-.11.23.52-.31.19C102.83,24.6,102.68,24.69,102.52,24.69Zm-.64-2.28-.18.1Z"/>      <path class="a" d="M103.16,23.74l-.15,0a.57.57,0,0,1-.35-.27c-.21-.36-.11-.53.44-1,0-.19.13-.43.48-1h0l-.4-.72-.05-.1a.54.54,0,0,1-.24,0,.57.57,0,0,1-.35-.27.53.53,0,0,1-.08-.22h0a.57.57,0,0,1-.35-.27c-.15-.26-.15-.26.41-1.84l.15-.42a.57.57,0,0,1-.16-.18.49.49,0,0,1,0-.56,11.64,11.64,0,0,1,.83-1.84l.35-.72-.08-.11c-.16-.28-.11-.42.24-.93l-.34-.79-.1-.23a.5.5,0,0,1-.53-.24l0-.07a.57.57,0,0,1-.29-.25c-.14-.24-.13-.29.21-1.15a.54.54,0,0,1-.11-.13c-.15-.26-.15-.26.5-2l.25-.7a.56.56,0,0,1-.12-.14c-.14-.24-.14-.24.3-1.69l.12-.39a.55.55,0,0,1-.14-.16c-.07-.12-.07-.12-.25-1.3l-.06-.4-.08,0a.57.57,0,0,1-.33-.25l-.22-.37a.53.53,0,0,1-.52-.08L101,2.28l-1-.45L99.66,2c-.69.42-.78.48-1,.43l-1.05.1c-.53.06-.88.09-1.12.1l-.22.13c-.45.28-.56.34-.81.28L95.31,3,95,2.87l-.14-.06-.13.08c-.49.3-.59.36-.83.3L94,2.63l.31-.18h0L94,2.63l-.23-.52.33-.2c.49-.3.59-.36.83-.3l.15.06.33.14.14.06.1-.06c.42-.26.54-.34.75-.29l1.06-.1c.54-.06.89-.09,1.13-.1l.45-.27c.73-.45.8-.48,1-.42a.56.56,0,0,1,.19.09c.15.08.64.3,1.13.52l1,.45a.6.6,0,0,1,.87.13l.22.37a.51.51,0,0,1,.31,0,.57.57,0,0,1,.34.26c.07.12.07.12.25,1.3l.05.37.13,0a.57.57,0,0,1,.34.26c.14.24.14.24-.3,1.69l-.11.36a.57.57,0,0,1,.15.17c.16.27.16.27-.5,2.06l-.24.66a.56.56,0,0,1,.13.16c.15.25.13.29-.25,1.27v0l0,.06,0,0a.56.56,0,0,1,.28.24l.36.83.09.2a.52.52,0,0,1,.39,0,.57.57,0,0,1,.35.27c.17.29.11.44-.24.94.13.25.07.38-.78,2.12l-.35.72.08.1a.49.49,0,0,1,0,.56,12.3,12.3,0,0,1-.48,1.49l-.22.62.06.08a.53.53,0,0,1,.08.22h0a.57.57,0,0,1,.35.27l.33.59.13.24a.54.54,0,0,1,.25,0,.68.68,0,0,1,.39.3c.13.23.13.32-.1.78a.58.58,0,0,1,.18.19c.25.43.06.58-.81,1.34l-.09.08.07.17-.34.21C103.47,23.65,103.32,23.74,103.16,23.74Z"/>      <path class="a" d="M93,7.06l-.15,0a.57.57,0,0,1-.35-.27.51.51,0,0,1,0-.52c-.1-.18-.09-.23.14-1.48l.06-.33a.57.57,0,0,1-.19-.19c-.13-.22-.12-.3.08-.9a.53.53,0,0,1-.09-.12c-.21-.36,0-.58.33-.9l-.07-.15.34-.2c.5-.3.6-.36.85-.3a.57.57,0,0,1,.35.26c.22.37,0,.6-.36.94,0,.11-.07.25-.14.45l.08.11c.12.21.12.21-.13,1.54l-.06.31a.57.57,0,0,1,.2.21c.15.28.06.46-.2.91l-.12.22.07.15-.15.09A1,1,0,0,1,93,7.06Zm-.09-.51h0Z"/>      <path class="a" d="M88.79,8.17l-.16,0a.57.57,0,0,1-.35-.27c-.14-.25-.14-.25.35-1.84h0c-.39.23-.47.24-.66.19l.14-.55.49-.29-.49.29-.21-.52c.1,0,.37-.22.64-.38.85-.52.91-.56,1.17-.49a.57.57,0,0,1,.35.27c.14.25.14.25-.35,1.84v0a.48.48,0,0,1,.37,0l.52,0,.47,0,.11-.07c.35-.21.48-.29.72-.23a.57.57,0,0,1,.34.26l.19.27.09-.05c.66-.41.73-.45,1-.39l-.13.55-.49.29.49-.29.22.52-.47.28c-.66.41-.73.45-1,.39a.57.57,0,0,1-.36-.27l-.18-.26a.64.64,0,0,1-.55.13h0l-.52,0L90,7.5l-.39.24C89.12,8.07,89,8.17,88.79,8.17Z"/>      <path class="a" d="M89.8,5.79l-.16,0a.57.57,0,0,1-.35-.27.57.57,0,0,1,.21-.77l.12-.05c.15-.08.51-.3.88-.53,1.16-.71,1.18-.72,1.45-.66a.58.58,0,0,1,.35.26c.2.34.1.55-.26.83l.05.13c-.09,0-.34.2-.59.35-.78.48-.86.52-1.1.46C90.05,5.73,89.92,5.79,89.8,5.79Z"/>      <path class="a" d="M91.34,4.51l-.14,0a.57.57,0,0,1-.35-.27c-.06-.1-.06-.1-.25-1l0-.21a.47.47,0,0,1-.23-.06l-.9-.2-.86-.19h0c-.27.17-.41.25-.66.19a.57.57,0,0,1-.34-.26.5.5,0,0,1,0-.49.49.49,0,0,1-.07-.31l-.29-.1-.42-.14-.08,0c-.4.25-.51.32-.75.25L86,1.17l.16-.1h0l-.16.1L85.82.65,86.08.5c.4-.25.51-.31.75-.25L87,.29l.56.19.41.14a.68.68,0,0,1,.58-.15.57.57,0,0,1,.36.28.49.49,0,0,1,.06.38h0a.5.5,0,0,1,.08.32l.64.14.86.19c.19-.11.64-.35.93.09.07.12.07.12.26,1.07l0,.23h.07l0,.14c0,.22.08.39.09.45l-.17,0,.21.43-.13.08A.88.88,0,0,1,91.34,4.51Zm0-.57L91.18,4ZM86.53.88,86.31,1Z"/>      <path class="a" d="M84.73,15.39l-.16,0a.57.57,0,0,1-.35-.26c-.1-.17-.1-.17-.05-1.63v-.38l-.14,0-.11,0a.51.51,0,0,1-.68-.22h0c-.37.23-.48.28-.71.23l.13-.55.17-.1h0l-.17.1L82.43,12l.26-.16c.41-.25.52-.32.76-.26a.56.56,0,0,1,.29.17l.08.08c.26-.16.57-.32.84-.16a.49.49,0,0,1,.58.25c.11.19.11.19.06,1.61,0,.1,0,.21,0,.31.42-.25.5-.27.71-.22l.15.06c.58-.35.65-.38.88-.32l-.14.55-.47.27.47-.27.21.52-.53.32c-.73.45-.8.48-1,.42l-.15-.06C85,15.31,84.87,15.39,84.73,15.39Zm-1.58-3.2-.11.07Z"/>      <path class="a" d="M86.56,14.15a.49.49,0,0,1-.43-.27c-.2-.35-.16-.42.6-1.5-.12-.21-.1-.28.31-1.71v0l-.16,0c-.29,0-1.22.07-1.94.13-1.08.09-1.69.13-2,.13l-.29.18c-.55.34-.65.39-.89.33a.57.57,0,0,1-.34-.26.45.45,0,0,1-.07-.2h0a.57.57,0,0,1-.35-.26c-.13-.23-.14-.24.24-1.55-.45.27-.52.28-.73.22a.57.57,0,0,1-.35-.26l0-.07c-.21-.35-.06-.57.26-.81l0-.06.44-.26c.5-.31.64-.41.83-.39a.52.52,0,0,1,.27-.07.48.48,0,0,1,.39,0,.57.57,0,0,1,.36.27c.13.23.13.23-.27,1.65l-.13.45.09.12,0,0c.31-.18.41-.21.59-.16h0c.27,0,1.23-.08,1.93-.13,1.07-.08,1.69-.12,2-.13l.28-.17c.55-.34.65-.39.9-.33a.57.57,0,0,1,.34.26c.14.24.14.24-.29,1.75L88,11.3a.57.57,0,0,1,.24.23c.19.33.15.4-.62,1.49l-.37.53.11.23-.22.13A1.33,1.33,0,0,1,86.56,14.15Z"/>      <path class="a" d="M82.13,8.9l-.15,0,.13-.55L82.6,8l-.49.29L81.9,7.8l.54-.32c.74-.45.79-.49,1-.42h0l.36.06.27,0L84.51,7c.68-.42.76-.46,1-.4l-.14.55-.49.28.49-.28.22.52-.49.29c-.68.41-.75.46-1,.4h0l-.36-.06-.27,0-.4.24C82.46,8.8,82.29,8.9,82.13,8.9Z"/>      <path class="a" d="M85,7.4l-.14,0a.57.57,0,0,1-.35-.26c-.12-.21-.12-.28.06-.83L83.35,6l-1.28-.27a.67.67,0,0,1-.58.14.57.57,0,0,1-.34-.26c-.1-.18-.11-.19,0-1a.49.49,0,0,1-.37,0l.14-.55L81.28,4h0l-.34.19-.22-.52.41-.24c.58-.35.67-.41.91-.34a.57.57,0,0,1,.35.26c.12.2.12.2-.06,1.25v.08l1.25.26,1.28.27h0c.28-.17.41-.25.65-.2a.57.57,0,0,1,.36.27c.13.23.11.3-.15,1.09-.08.23-.16.47-.18.56l.09.19-.15.09A1,1,0,0,1,85,7.4Zm0-.57-.09.05Z"/>      <path class="a" d="M82.32,4.59l-.16,0L82.3,4l.49-.29L82.3,4l-.21-.52.54-.32c.75-.46.8-.49,1.06-.43l.12,0,.31.11.16.06.28-.17c.64-.39.72-.44,1-.38L85.41,3l-.49.28L85.41,3l.22.52-.46.28c-.64.39-.72.44-1,.38l-.12,0L83.75,4l-.16-.06-.37.22C82.65,4.49,82.48,4.59,82.32,4.59Z"/>      <path class="a" d="M85,3.24l-.14,0a.57.57,0,0,1-.36-.27c-.15-.25-.15-.25.3-1.44L85,1.08,84.78.63l.28-.17c.42-.26.53-.33.78-.26a.57.57,0,0,1,.35.27c.15.25.15.25-.3,1.44-.14.38-.29.76-.32.87l.08.17L85.51,3A.94.94,0,0,1,85,3.24Zm0-.59-.15.09Z"/>    </g>  </g></svg>