<svg xmlns="http://www.w3.org/2000/svg" width="71.24" height="22.05" viewBox="0 0 71.24 22.05">  <defs>    <style>      .a {        fill: none;        stroke: #002147;        stroke-linecap: round;        stroke-linejoin: round;        stroke-width: 1.13px;      }    </style>  </defs>  <title>アセット 7</title>  <g>    <g>      <path class="a" d="M6.6,12.16c.14.24,9.3-5.69,9.44-5.45s-6.29,5.66-6.18,5.84,3.61-2.21,3.66-2.11-2.66,2.71-2.61,2.8,3.59-2.2,3.65-2.11S11.09,13.86,11.15,14s3.95-2.41,4-2.31-4.49,3.4-4.42,3.52,4.94-3,5-2.89"/>      <path class="a" d="M6.61,4.18c.07.13,5-3.06,5.09-2.94S8.84,4.41,8.9,4.51s4.52-2.76,4.59-2.65S9.81,4.92,9.87,5s4.45-2.72,4.52-2.61S10,5.09,10.06,5.2s4.49-2.75,4.56-2.63S10.2,5.28,10.26,5.4s4.49-2.74,4.56-2.63S10.39,6,10.46,6.09s4.8-2.94,4.87-2.81-4.95,2.9-4.87,3,4.91-3,5-2.88S10.15,7,10.23,7.15s5.47-3.34,5.55-3.2"/>      <path class="a" d="M.93,1.74S2.26.93,2.28,1,.79,2.17.82,2.21,3,.88,3,.94.78,2.82.82,2.88,4.22.8,4.27.89.75,4.82.82,4.94,7.82.66,7.93.84.7,6.85.82,7.05,10.93.88,11.08,1.13.67,7.53.82,7.79,5.55,4.9,5.62,5,.73,9.86.82,10s4.73-2.89,4.8-2.77-4.88,4-4.8,4.17,4.74-2.9,4.81-2.77S.73,13.6.82,13.75C1,14.13,15.93,4.51,16.15,4.9S.59,15.33.82,15.73c.07.12,4.73-2.89,4.8-2.77S.75,15.87.82,16s4.73-2.89,4.8-2.77S.74,16.67.82,16.8,5.55,13.91,5.62,14,.75,17.16.82,17.29s4.73-2.89,4.8-2.77S.76,19.64.85,19.79,5.64,16.87,5.71,17s-2.39,3.74-2.33,3.84c.19.32,12.79-7.82,13-7.5S3.52,20.51,3.71,20.82s12.54-7.66,12.72-7.34S5.66,20.54,5.82,20.82s10.66-6.51,10.81-6.24-9.18,5.93-9,6.16,8.87-5.42,9-5.19-5,4.42-4.89,4.56S15.2,18,15.25,18.06"/>      <path class="a" d="M6.61,12.41s.61-.37.61-.35,2.08.57,2.11.62.46-.28.47-.27l1.07,1.5s.33-.2.33-.19-.36.43-.35.45.41-.25.41-.24-.7,1-.68,1,.56-.34.57-.33"/>      <path class="a" d="M5.51,12.53S6.38,12,6.4,12s-.93,1.08-.91,1.11.38-.23.38-.22-.41,1.88-.38,1.92.39-.24.4-.23-.41,2.19-.39,2.24.4-.24.4-.23-.16.62-.15.63.54-.33.55-.32,1.55,0,1.57,0,2.88-1.76,2.92-1.69"/>      <path class="a" d="M6.65,4.43s.58-.35.59-.34S9.91,5.36,9.95,5.42s.33-.2.34-.19S10,6.83,10,6.86s.49-.3.5-.29S10,7,10,7s.51-.31.51-.3"/>      <path class="a" d="M5.48,4.62s1-.61,1-.58-1,2.79-1,2.86.38-.23.39-.22-.4,1.48-.38,1.51S5.87,8,5.87,8s-.32,1-.31,1,.3-.19.31-.18,1.51.1,1.53.13,2.8-1.71,2.84-1.64"/>      <path class="a" d="M2.52,1.09s.7-.43.71-.41S5.56.92,5.59,1s.69-.42.7-.4S7.47.93,7.49,1s.62-.38.63-.36S8,1,8,1s.62-.38.62-.36S8.47,1,8.47,1,9,.63,9.05.64s.65.42.66.43.57-.35.58-.33S10,1.09,10,1.1s.53-.33.54-.31,2.75,1.08,2.78,1.15.37-.23.38-.22l.19.56s.37-.22.37-.21l1,1.34s.33-.2.33-.19.46,2.57.49,2.63.4-.24.4-.23-.54.84-.53.86.47-.29.48-.28-2.9,4.34-2.83,4.46.37-.23.37-.22.15.55.16.56.35-.22.36-.21l1.24,1.74s.33-.2.33-.19.42,2.55.45,2.61.37-.22.37-.21-.52,1.09-.5,1.12.41-.25.42-.24S15.13,17.9,15.16,18s.87-.53.89-.51"/>      <path class="a" d="M.72,1.57S2.18.68,2.2.72.57,2,.6,2s.5-.31.51-.3-.56,1-.54,1,.38-.23.38-.22S.54,4.74.57,4.79s.38-.23.38-.22S.54,6.86.57,6.91s.38-.23.38-.22-.4.94-.38,1,.38-.23.38-.22S.54,9.81.57,9.86s.38-.23.38-.22-.4,1.58-.38,1.62S.95,11,1,11,.54,13.55.57,13.6s.38-.23.38-.22S.54,15.54.57,15.59s.38-.23.38-.22-.39.47-.38.48.38-.23.38-.22-.4,1-.38,1,.38-.23.38-.22-.39.69-.38.71.38-.23.38-.22S.54,19.6.57,19.66s.38-.23.39-.22S2.41,21,2.44,21.08s.65-.4.66-.38-.34.37-.33.38.65-.4.66-.38,1.43.35,1.45.38.65-.4.66-.38,1,.34,1,.36.71-.44.72-.42,3,0,3.07,0,1.06-.65,1.08-.62l.37.3c.05.09,3.55-2.17,3.61-2.08"/>    </g>    <g>      <path class="a" d="M26.07,9.43c.06.1,3.91-2.39,4-2.29s-2.76,2.52-2.72,2.6S31,7.5,31,7.59,28,10.13,28,10.22,31.69,8,31.74,8.06s-2.26,3.81-2.2,3.91,3.76-2.3,3.82-2.2S29.88,12.85,29.94,13s3.94-2.41,4-2.31-3.62,4.17-3.55,4.29,4.15-2.54,4.22-2.43-4.71,4.85-4.63,5,4.75-2.9,4.82-2.78"/>      <path class="a" d="M21.59,8.85c0,.08,3.33-2,3.38-2S20.8,9.56,20.86,9.67s5.07-3.1,5.15-3-5.75,3.79-5.66,3.94,6.91-4.22,7-4-7.79,6.27-7.67,6.49,4.56-2.79,4.62-2.67S19.62,15,19.7,15.18s4.14-2.53,4.2-2.42-4.12,3-4.05,3.08,4.08-2.49,4.14-2.39-3.54,4.1-3.47,4.22,4-2.43,4-2.33-3.45,3.25-3.39,3.35,4-2.42,4-2.32S22.71,20,22.76,20.11s3.87-2.37,3.93-2.27-2,3-2,3.13c.15.25,9.9-6.05,10-5.8S24.86,20.81,25,21.06s9.6-5.87,9.74-5.62S26,21,26.09,21.24s8.31-5.08,8.44-4.87-7.83,4.74-7.71,4.94,7.45-4.55,7.56-4.36S29.71,21,29.78,21.14s3.12-1.91,3.17-1.83"/>      <path class="a" d="M26.12,9.69s.49-.3.5-.29,1.62,1.28,1.64,1.33.33-.2.33-.19.39,1,.41,1.05.32-.2.33-.19,0,.82,0,.84.32-.2.33-.19.36,2.07.39,2.12.34-.21.34-.2-.33,2.44-.3,2.49.4-.25.41-.24-.76,1.06-.74,1.08.56-.34.57-.33"/>      <path class="a" d="M24.22,10.3s1.72-1,1.74-1-2.28,2.86-2.23,2.94.4-.25.41-.24-.33,1.24-.32,1.27.35-.22.36-.21-.33.46-.33.47.35-.22.36-.21-.33.49-.32.5.35-.22.36-.21-.16.88-.15.9.33-.2.33-.19-.28.36-.27.37.33-.2.33-.19.78,2.24.81,2.29.32-.2.33-.19.09.6.09.62.34-.21.34-.2,1.11,1.21,1.13,1.25.4-.24.4-.23.77.52.78.54,1.68-1,1.71-1"/>      <path class="a" d="M25.21,6.95s.87-.53.89-.51,1.27.26,1.29.29.55-.33.55-.32.66.47.67.49.58-.36.59-.34,2.15,1.32,2.18,1.38.33-.2.33-.19l.51.92s.38-.23.38-.22l.86,1.74s.34-.21.35-.2.56,2.28.59,2.34.32-.2.33-.19-.08,2.06-.06,2.11S35,14,35,14s-.36.24-.36.25.36-.22.36-.21-.4.68-.39.7.4-.24.4-.23-.42.34-.41.36.4-.24.4-.23-.49.93-.47,1,.41-.25.41-.24-1.13,2.23-1.1,2.29.57-.35.58-.33-1.64,1.82-1.61,1.87.86-.53.88-.51"/>      <path class="a" d="M21.42,8.65c0,.09,3.38-2.06,3.43-2s-4.21,2.69-4.15,2.8.93-.57.94-.55-1.52,1.49-1.5,1.53.51-.31.52-.3-1.25,2.69-1.21,2.76.39-.24.4-.23S19.4,15,19.43,15s.35-.22.36-.21-.26.86-.25.88.34-.21.35-.2.28,2,.31,2,.33-.2.33-.19.28,1.2.29,1.23.33-.2.33-.19l1.15,1.68s.36-.22.37-.21S24.08,21,24.1,21s.44-.27.44-.26-.16.34-.16.35.44-.27.44-.26l.45.55s.55-.34.56-.32l.16.39s.56-.34.57-.33,3.28.14,3.32.21,3.19-2,3.24-1.87"/>    </g>    <g>      <path class="a" d="M44.38,9.43c.06.1,3.91-2.39,4-2.29s-2.76,2.52-2.72,2.6,3.66-2.24,3.71-2.14-3.08,2.54-3,2.63S50,8,50,8.06s-2.26,3.81-2.2,3.91,3.76-2.3,3.82-2.2S48.19,12.85,48.25,13s3.94-2.41,4-2.31-3.62,4.17-3.55,4.29,4.15-2.54,4.22-2.43-4.71,4.85-4.63,5,4.75-2.9,4.82-2.78"/>      <path class="a" d="M39.89,8.85c0,.08,3.33-2,3.38-2s-4.17,2.67-4.11,2.78,5.07-3.1,5.15-3-5.75,3.79-5.66,3.94,6.91-4.22,7-4-7.8,6.27-7.67,6.49,4.56-2.79,4.62-2.67S37.92,15,38,15.18s4.14-2.53,4.2-2.42-4.12,3-4.06,3.08,4.08-2.49,4.14-2.39-3.54,4.1-3.47,4.22,4-2.43,4-2.33-3.45,3.25-3.39,3.35,4-2.42,4-2.32S41,20,41.07,20.11s3.87-2.37,3.93-2.27-2,3-2,3.13c.15.25,9.9-6.05,10-5.8s-9.91,5.65-9.76,5.89,9.6-5.87,9.74-5.62S44.27,21,44.4,21.24s8.31-5.08,8.44-4.87S45,21.11,45.12,21.31s7.45-4.55,7.56-4.36S48,21,48.09,21.14s3.12-1.91,3.17-1.83"/>      <path class="a" d="M44.42,9.69s.46-.28.47-.27,1.66,1.26,1.69,1.3.35-.21.35-.2.34,1.06.36,1.08.31-.19.32-.18.1.78.11.8S48,12,48,12s.31,2.1.34,2.15.34-.21.35-.2-.31,2.42-.28,2.48.4-.25.41-.24-.76,1.06-.74,1.09.56-.34.57-.33"/>      <path class="a" d="M42.54,10.29s1.72-1,1.74-1S42,12.15,42,12.23s.39-.24.39-.23-.32,1.23-.31,1.26.35-.22.36-.21-.33.46-.33.47.35-.22.36-.21-.33.49-.32.5.35-.22.36-.21-.16.88-.15.9.33-.2.33-.19-.28.36-.27.37.33-.2.33-.19.78,2.24.81,2.29.32-.2.33-.19.09.6.09.62.34-.21.34-.2,1.11,1.21,1.13,1.25.4-.24.4-.23.77.52.78.54,1.68-1,1.71-1"/>      <path class="a" d="M43.51,7s.88-.54.89-.51,1.28.25,1.29.28.55-.33.55-.32.66.47.67.49.58-.36.59-.34,2.15,1.32,2.18,1.38.33-.2.33-.19l.51.92s.38-.23.38-.22l.86,1.74s.34-.21.35-.2.56,2.28.59,2.34.32-.2.33-.19S53,14.19,53,14.23s.36-.22.36-.21-.36.24-.36.25.36-.22.36-.21-.4.68-.39.7.4-.24.4-.23-.42.34-.41.36.4-.24.4-.23-.49.93-.47,1,.41-.25.41-.24-1.13,2.23-1.1,2.29.57-.35.57-.33-1.64,1.82-1.61,1.87.86-.53.87-.5"/>      <path class="a" d="M39.75,8.64c0,.09,3.37-2.06,3.42-2S39,9.35,39,9.45s1-.6,1-.58-1.62,1.54-1.59,1.59.54-.33.55-.32-1.29,2.71-1.25,2.78.4-.25.41-.24S37.71,15,37.74,15s.35-.22.36-.21-.26.86-.25.88.34-.21.35-.2.28,2,.31,2,.33-.2.33-.19.28,1.2.29,1.23.33-.2.33-.19l1.15,1.68s.36-.22.37-.21S42.39,21,42.41,21s.44-.27.44-.26-.16.34-.16.35.44-.27.44-.26l.45.55s.55-.34.56-.32l.16.39s.56-.34.57-.33,3.27.14,3.31.21,3.19-2,3.24-1.87"/>    </g>    <g>      <path class="a" d="M64.34,8.12S66.18,7,66.21,7,63.34,9.62,63.39,9.7,68,6.86,68.11,7,62.49,10.9,62.58,11s6.53-4,6.62-3.82-6.74,6.26-6.63,6.46,4.76-2.91,4.83-2.79-4.25,3.51-4.18,3.63,3.63-2.22,3.68-2.12S64.24,16,64.3,16.15,67.92,13.93,68,14s-2.73,4.11-2.67,4.22S69,16,69.08,16.07s-3.17,3.76-3.1,3.87,3.76-2.3,3.81-2.2S65.93,19.87,66,20s3.75-2.29,3.81-2.2-3.65,2.46-3.6,2.56,3.68-2.25,3.73-2.16-3.71,2.13-3.65,2.23,3.63-2.22,3.69-2.13-3.16,2.39-3.11,2.48,3.26-2,3.3-1.91-.92,2-.89,2,1.16-.71,1.18-.68"/>      <path class="a" d="M56.92,1.72S58.27.89,58.29.93s-1.51,1.22-1.48,1.26S59,.84,59,.9s-2.28,1.9-2.24,2S60.18.8,60.23.88s-3.49,3.92-3.43,4,4.42-2.7,4.49-2.59S56.72,6.89,56.81,7s4.42-2.7,4.49-2.59-4.56,3.21-4.49,3.33,4.42-2.7,4.49-2.59S56.72,9.84,56.81,10s4.42-2.7,4.49-2.59-4.56,3.86-4.49,4,4.42-2.7,4.49-2.59-4.57,4.79-4.49,4.94,4.42-2.7,4.49-2.59-4.57,4.44-4.49,4.57,4.42-2.7,4.49-2.59S56.74,15.86,56.81,16s4.42-2.7,4.49-2.59-4.56,3.28-4.49,3.4,4.42-2.7,4.49-2.59-4.55,3-4.49,3.07,4.42-2.7,4.49-2.59-4.55,5-4.46,5.1,4.4-2.69,4.46-2.58-2.07,3.57-2,3.66,2-1.21,2-1.16-1.71,1.12-1.68,1.16,1.6-1,1.62-.94-1.38.9-1.36.94,1.29-.79,1.31-.76"/>      <path class="a" d="M66.37,7.2s.7-.43.71-.41l1.36,2.12s.7-.43.71-.41S67,11.15,67,11.22s.7-.43.71-.41-.84,1.87-.82,1.91.33-.2.33-.19.36,1.2.38,1.22.33-.2.33-.19.1.81.11.83.33-.2.33-.19.11,1,.13,1.07.33-.2.33-.19.1,1.08.12,1.11.33-.2.33-.19.29,1.71.31,1.75.33-.2.34-.19.17,1.68.2,1.71.33-.2.34-.19-.23.95-.22,1,.42-.26.42-.25"/>      <path class="a" d="M64.21,7.94s1.9-1.16,1.93-1.11S62,11.32,62.08,11.45s.67-.41.68-.4-.94,1.77-.91,1.82.35-.21.35-.2,0,.85,0,.87.32-.19.32-.19l.91,1.82s.37-.23.37-.22.62,1.9.64,1.95.36-.22.36-.21-.11.72-.1.73.33-.2.34-.2-.15.57-.14.58.31-.19.32-.18.07,1.22.08,1.25.34-.21.35-.2-.23.52-.22.53.34-.21.34-.2l1.32,2s.55-.33.55-.32.08.37.09.38.65-.4.66-.38.94.36.95.38,1.25-.76,1.27-.73"/>      <path class="a" d="M58.54,1.08s.7-.43.71-.41,1.59.68,1.61.72.35-.21.35-.2-.11,1.11-.1,1.14.38-.23.39-.22-.39.49-.39.5.38-.23.39-.22-.39.52-.39.53.38-.23.39-.22-.4,1-.39,1,.38-.23.39-.22-.39.42-.39.43.38-.23.39-.22-.42,2.91-.38,3,.38-.23.38-.22-.4.87-.38.89.38-.23.38-.22-.41,2.08-.38,2.13.38-.23.38-.22-.42,3.07-.38,3.13.38-.23.38-.22-.39.76-.38.78.38-.23.38-.22-.42,3-.38,3,.38-.23.38-.22-.39.85-.38.88.38-.23.38-.22-.42,2.61-.38,2.67.38-.23.38-.22S61,19.93,61,20s.49-.3.49-.29"/>      <path class="a" d="M56.74,1.57S58.2.67,58.22.71,56.59,2,56.62,2s.5-.31.51-.3-.56,1-.54,1S57,2.5,57,2.51s-.41,2.23-.38,2.28.38-.23.38-.22-.41,2.28-.38,2.34.38-.23.38-.22-.4.94-.38,1,.38-.23.38-.22-.41,2.38-.38,2.44.38-.23.38-.22-.4,1.58-.38,1.62S57,11,57,11s-.42,2.51-.38,2.57.38-.23.38-.22-.41,2.16-.38,2.21.38-.23.38-.22-.39.47-.38.48.38-.23.38-.22-.4,1-.38,1,.38-.23.38-.22-.39.69-.38.71.38-.23.38-.22-.42,2.68-.38,2.74.38-.23.39-.22,1.45,1.59,1.48,1.64.65-.4.66-.38-.34.37-.33.38.66-.4.67-.38l.48.38s1.44-.88,1.46-.85"/>    </g>  </g></svg>