<svg xmlns="http://www.w3.org/2000/svg" viewBox="0 0 147.65 29"><defs><style>.cls-1{fill:none;stroke:#7f2334;stroke-linecap:round;stroke-linejoin:round;stroke-width:1.13px;}</style></defs><title>アセット 5</title><g id="レイヤー_2" data-name="レイヤー 2"><g id="nav"><path class="cls-1" d="M10.19,6.25c.11.19,7.48-4.57,7.59-4.38s-5,4.6-4.89,4.75S19,2.86,19.12,3s-5.4,3.76-5.32,3.9S18.61,4,18.68,4.1s-4.35,3-4.28,3.09,3.76-2.3,3.82-2.2S15.85,7.76,15.9,7.84s1.15-.7,1.16-.67"/><path class="cls-1" d="M4.05,3.88C4.11,4,8.27,1.3,8.34,1.41S2,6.11,2.14,6.28,11.46.59,11.6.82,1.57,6.9,1.72,7.15,12.57.52,12.73.8,1.54,6.92,1.7,7.2,12.62.53,12.78.8.73,9.92.92,10.24,16.07,1,16.3,1.37.57,11.29.8,11.7c.1.18,7.1-4.34,7.21-4.16S.7,11.54.8,11.72,7.88,7.39,8,7.57.87,13.13,1,13.33,7,9.67,7.06,9.82s-5.54,5.65-5.44,5.82,5.43-3.32,5.51-3.18-4.5,5.14-4.41,5.29,5.37-3.28,5.45-3.15S3.76,19.06,3.83,19.2s5.68-3.47,5.76-3.33-5.37,3.66-5.29,3.8,5.9-3.61,6-3.46-4.76,4.46-4.68,4.6,6.64-4.06,6.74-3.89S6.06,21,6.15,21.16s6.91-4.23,7-4.05-4.62,5.21-4.53,5.36,8.75-5.35,8.88-5.13S8.58,22.28,8.71,22.5s8.82-5.39,8.95-5.16-6,5.91-5.89,6.1S17.54,19.9,17.62,20s-5.06,3.44-5,3.57S17,21,17,21.08s-2.82,2.7-2.78,2.79,1.74-1.06,1.76-1-1.63,1-1.6,1S15.91,23,15.93,23"/><path class="cls-1" d="M8.47,1.5S9.68.76,9.7.79s-.49.5-.48.52,1-.59,1-.56S12,.9,12,.94s.64-.39.65-.37,2.05.53,2.08.58.45-.28.46-.27S17.92,2,18,2.1s.41-.25.41-.24-.39.24-.38.25.41-.25.41-.24L18.91,3s.4-.24.4-.23S18.51,4,18.53,4s.61-.38.62-.36-1.9,2.64-1.86,2.71.61-.37.62-.36-1,1-1,1,.61-.37.62-.36"/><path class="cls-1" d="M10.3,6.45S11,6,11,6.06s2.61,1,2.64,1,.4-.24.41-.23l.59.7s.4-.24.4-.23.77.72.79.74,1.49-.91,1.51-.87-1.43.86-1.41.9,1.33-.81,1.35-.78"/><path class="cls-1" d="M7.94,7.37C8,7.42,10.13,6,10.16,6.09S6.81,9.8,6.87,9.91s.45-.27.45-.26-.55,1.11-.53,1.14.39-.24.4-.23-.38.81-.37.83.35-.22.36-.21-.12,1.71-.09,1.75.33-.2.33-.19.9,2.29.94,2.35.34-.21.35-.2,0,.49,0,.5.34-.21.34-.2,1.71,1.34,1.74,1.39.41-.25.42-.24,0,.39,0,.4.41-.25.42-.24,1,.63,1,.66.48-.29.48-.28,2.17.63,2.2.68.61-.37.62-.36l.42.38s.69-.42.7-.4-.46.38-.45.39.7-.43.71-.41.45,2.33.48,2.38.66-.4.67-.38-2.64,3.65-2.59,3.75.65-.4.66-.38"/><path class="cls-1" d="M3.91,3.7C4,3.81,8.16,1.1,8.23,1.21S1.89,5.94,2,6.11c0,0,.67-.41.68-.39S1.51,7,1.54,7s.58-.36.59-.34S1.51,7,1.52,7s.57-.35.57-.33S.67,10,.72,10.1s.38-.23.39-.22-.56,1.66-.54,1.7.39-.24.39-.23-.4.23-.39.24.38-.23.39-.22-.22,1.79-.2,1.83.35-.22.36-.21.21,2.49.25,2.54.33-.2.33-.19.69,2.27.72,2.33.32-.2.33-.19.7,1.63.73,1.67.34-.2.34-.2.13.65.14.67.34-.21.34-.2l.89,1.39s.37-.22.37-.21.16.54.17.56.36-.22.37-.21,2,1.52,2,1.58.41-.25.42-.24-.35.26-.35.27.41-.25.42-.24,2.53,1.16,2.56,1.22.46-.28.46-.27l.39.47s.51-.31.52-.3,1.06.54,1.08.56.51-.31.52-.3-.37.32-.37.33.52-.31.52-.3l.26.36s1.52-.93,1.54-.89"/><path class="cls-1" d="M22.87,15.22c.06.11,4.18-2.56,4.24-2.45S21.3,17.82,21.4,18s7.48-4.57,7.59-4.38-7.73,5-7.61,5.23,8-4.9,8.13-4.7-8.15,5-8,5.25,8.29-5.07,8.41-4.86-8,6-7.85,6.23,5.94-3.63,6-3.48-4.31,5.18-4.23,5.33,5.31-3.25,5.39-3.11-5,3.22-5,3.35,5.57-3.4,5.65-3.26-3.07,4-3,4.13,9.89-6,10-5.79-9.64,5.62-9.5,5.86,9.36-5.72,9.5-5.48-7.75,5.44-7.63,5.64,7.52-4.6,7.63-4.41-4.31,4.27-4.23,4.4,4.17-2.55,4.23-2.44-3,2.26-3,2.34,2.93-1.79,3-1.72-2.74,1.62-2.7,1.69,2.66-1.63,2.7-1.56-1.54,1.37-1.52,1.41,1.4-.86,1.43-.82"/><path class="cls-1" d="M22.91,9s1.93-1.18,2-1.13-2.5,2.64-2.46,2.72S27.93,7.23,28,7.37s-5.86,3.81-5.78,4,6.88-4.21,7-4-7.1,3.9-7,4.08,7-4.26,7.07-4.08S26,11.61,26.11,11.73s6.85-4.19,6.95-4-4.42,3.77-4.35,3.89,5.61-3.43,5.7-3.29-5.75,3.15-5.67,3.29,5.6-3.42,5.69-3.28-4,3.87-3.94,4,5.06-3.09,5.14-3-4.45,5.06-4.37,5.2,5.3-3.24,5.37-3.1-5.43,5.65-5.33,5.82,5.55-3.39,5.64-3.25-5.73,4.72-5.64,4.88,5.56-3.4,5.64-3.26"/><path class="cls-1" d="M25,8s1-.63,1-.6-.41.46-.41.47,1-.63,1-.6,1.77.17,1.79.21.74-.45.75-.44,2.26.4,2.29.45.56-.35.57-.33,2.42,1.35,2.45,1.41.36-.22.37-.21-.35.22-.35.23.36-.22.37-.21l.55,1.1s.33-.2.33-.19.1.74.11.75.33-.2.33-.19.16,1.5.18,1.54.33-.2.33-.19-.16,1.21-.14,1.24.35-.21.36-.21-.25,1.77-.23,1.81.37-.23.38-.22-.38.57-.37.58.37-.23.38-.22-.4,2.62-.37,2.68.38-.23.38-.22-.39,1-.38,1,.38-.23.38-.22-.42,2.84-.38,2.9.38-.23.38-.22-.4,1.35-.38,1.38.38-.23.38-.22-.39.85-.38.87.38-.23.38-.22-.47.7-.46.72.46-.28.46-.27"/><path class="cls-1" d="M22.75,15c.06.11,4.25-2.6,4.31-2.49s-6.07,5.8-6,6c0,0,.4-.24.4-.23s-.25,1.15-.24,1.17.35-.21.35-.2,0,1.17,0,1.2.33-.2.33-.19,0,.78,0,.8.33-.2.34-.2.48,1.15.49,1.17.34-.21.35-.2l.29.78s.38-.23.38-.22-.27.28-.26.29.38-.23.38-.22l.5.72s.37-.23.38-.22,2.74,1,2.78,1.06.55-.33.56-.32,2.25.45,2.28.5.67-.41.68-.39l.21.37s.69-.42.7-.41,1.76.24,1.78.27.82-.5.83-.48.89.26.9.28S37,23,37,23"/><path class="cls-1" d="M27.18,12.92s.64-.39.65-.37,1.12,1.23,1.14,1.27.34-.21.34-.2.17.71.18.73.34-.21.34-.2,0,.61,0,.62.34-.21.35-.2-2.38,3-2.33,3,.44-.27.45-.26,1,2.27,1,2.32.47-.29.48-.28l.21.36s1.48-.9,1.5-.87-1.28.81-1.26.84S31.44,19,31.46,19"/><path class="cls-1" d="M22.75,8.86s2-1.2,2-1.15-2.57,2.67-2.52,2.75.46-.28.46-.27-.66,1-.65,1,.46-.28.47-.27-.48.3-.48.31.46-.28.47-.27,2.08,1.32,2.11,1.38,1.3-.8,1.32-.76,2.08.12,2.1.17.57-.35.57-.33-.55.32-.55.33.57-.35.58-.33,1.41.85,1.43.89.39-.24.4-.23.54,2.3.57,2.36.36-.22.37-.21-.36,2.87-.33,2.93.38-.23.39-.22-.41,1.76-.39,1.8.38-.23.39-.23"/><path class="cls-1" d="M54.46,12.3c.09.15,5.84-3.57,5.92-3.42s-5.21,3.68-5.13,3.82,5.51-3.37,5.59-3.23-5,4.14-4.9,4.28,5.39-3.3,5.47-3.16-5.3,5.2-5.2,5.36,5.51-3.37,5.59-3.23-5.69,5-5.59,5.15,5.56-3.4,5.64-3.26-5.74,4.63-5.64,4.79,5.56-3.4,5.64-3.26-5.74,5-5.64,5.14,5.56-3.4,5.64-3.26-5.65,4.54-5.56,4.7,5.48-3.35,5.56-3.21S59,23.29,59.08,23.4s2.74-1.67,2.78-1.6-1.3,1.56-1.27,1.6,1.18-.72,1.2-.69"/><path class="cls-1" d="M46.6,12.3c.09.15,5.81-3.55,5.89-3.4S48,13.81,48.13,14,58.59,7.57,58.74,7.83s-10.63,6.81-10.47,7.08S59.5,8.05,59.66,8.34s-11.52,7.45-11.35,7.75c.08.14,5.54-3.39,5.63-3.25s-5.71,3.89-5.63,4,5.56-3.4,5.64-3.26-5.74,4.56-5.64,4.72,5.56-3.4,5.64-3.26-5.73,4.06-5.64,4.21S53.88,15.88,54,16s-5.73,3.25-5.64,3.4S53.88,16,54,16.16s-5.73,4.11-5.64,4.27S53.88,17,54,17.17,48.41,22.81,48.51,23,53.88,19.7,54,19.83s-3.09,3.46-3,3.57,3-1.83,3-1.75-2.21,1.69-2.18,1.75,2.15-1.31,2.18-1.26-1.3,1.22-1.27,1.26,1.18-.72,1.2-.69"/><path class="cls-1" d="M40.52,8.53s1.24-.76,1.25-.72-1.36,2-1.33,2.07,3.7-2.26,3.75-2.17-3.81,2.69-3.75,2.79,4.76-2.91,4.83-2.79-4.9,2.71-4.83,2.83,4.81-2.94,4.88-2.82-5,5.25-4.88,5.41,9.49-5.8,9.63-5.56-9.78,6.69-9.63,6.94,10.88-6.65,11-6.37-11.2,6.12-11,6.39S51.34,7.87,51.5,8.15s-11.23,7.8-11.06,8.1c.08.14,5.56-3.4,5.64-3.26s-5.75,5.76-5.64,5.94,5.56-3.4,5.64-3.26-5.75,5.82-5.64,6,5.56-3.4,5.64-3.26-5,4.77-4.91,4.92,4.83-3,4.91-2.83-3.78,2.79-3.72,2.89,3.67-2.24,3.72-2.15-1.31,2.09-1.27,2.15S46,22.67,46,22.7"/><path class="cls-1" d="M42,8s.7-.43.71-.41,1.22.3,1.23.33.7-.43.71-.41l1.26,1.76S46.3,9,46.31,9s-.33.77-.32.79,1.93-1.18,2-1.13"/><path class="cls-1" d="M49.88,7.7s.53-.32.54-.31,0,.4,0,.41.39-.24.4-.23S52.32,8.93,52.34,9s.34-.21.34-.2.57,1.37.59,1.4,2.32-1.42,2.35-1.36-2.36,1.32-2.32,1.38S55.38,8.93,55.41,9"/><path class="cls-1" d="M57.76,7.71s.52-.32.53-.31,1.49,1.19,1.52,1.23.34-.21.34-.2l.78,1.41s.31-.19.32-.18-.12.63-.11.64.35-.21.36-.21-.33.3-.32.31.35-.21.35-.2,0,1.56,0,1.59.37-.23.38-.22-.27,2.88-.23,2.95.38-.23.38-.22-.42,3-.38,3.07.38-.23.38-.22-.39.79-.38.81.38-.23.38-.22-.42,2.66-.38,2.72.38-.23.38-.22-.4,1.45-.38,1.48.38-.23.38-.22-.45,1-.43,1,.43-.26.43-.25"/><path class="cls-1" d="M54.48,12.55s.41-.25.42-.24l.65,1.11s.31-.19.32-.18.05,1.58.07,1.61.34-.21.35-.2-.33,3-.29,3.1.38-.23.38-.22S56,18.74,56,18.77s.38-.23.38-.22-.39.31-.38.33.38-.23.38-.22S56,21.16,56,21.22s.38-.23.38-.22-.1,2.17-.08,2.21.33-.2.33-.19,3.93.51,4,.6,1.37-.84,1.39-.8-1.38.77-1.36.8S62,22.8,62,22.84"/><path class="cls-1" d="M53.76,12.47s.61-.37.62-.36-.6,1.17-.58,1.2.37-.23.38-.22-.4,1.63-.37,1.67.38-.23.38-.22-.41,2.52-.38,2.57.38-.23.38-.22S53.77,19,53.8,19s.38-.23.38-.22-.4,1.71-.38,1.75.38-.23.38-.22-.42,2.06-.39,2.11.39-.24.39-.23-.44.31-.43.33.43-.26.43-.25"/><path class="cls-1" d="M46.69,12.61s.42-.26.43-.25-.16.32-.16.33.36-.22.37-.21.35,1,.36,1,.34-.21.34-.2,0,1.72,0,1.76.35-.22.36-.21-.36,2.95-.33,3,.38-.23.38-.22-.39.24-.38.25.38-.23.38-.22-.4,1.6-.38,1.64.38-.23.38-.22-.4,1-.38,1,.38-.23.38-.22-.41,1.82-.38,1.86.38-.23.38-.22-.31,1.3-.3,1.33.38-.23.39-.22,1.21.93,1.23,1,.65-.4.66-.38,0,.37,0,.38.65-.4.66-.38,1.63.35,1.65.38,1.3-.79,1.32-.76"/><path class="cls-1" d="M45.91,12.46s.61-.37.62-.36-.65,2.84-.62,2.9.39-.24.39-.23S45.9,16,45.92,16s.39-.24.39-.23-.41,1.39-.39,1.42.38-.23.39-.23-.4,1-.39,1,.38-.23.39-.22-.41,1.64-.39,1.68.38-.23.39-.22-.4,1.14-.39,1.17.38-.23.39-.22-.39.35-.39.36.38-.23.39-.22-.4,1.2-.38,1.23.38-.23.38-.22-.45,1.19-.44,1.21.43-.26.44-.25"/><path class="cls-1" d="M40.34,8.38s1.35-.83,1.37-.79-1.52,2.1-1.49,2.16.38-.23.38-.22-.39.83-.38.85.38-.23.38-.22-.39.25-.38.26.38-.23.38-.22-.42,2.75-.38,2.82.38-.23.38-.22-.4,1.57-.38,1.61.38-.23.38-.22-.39.23-.38.24.38-.23.38-.22-.41,1.89-.38,1.94.38-.23.38-.22-.42,2.84-.38,2.91.38-.23.38-.22-.42,2.9-.38,3,.38-.23.39-.22.08,2,.1,2,.4-.25.41-.24l.43.5s.65-.4.66-.38,2.6.32,2.63.38,1.34-.82,1.36-.79-1.35.75-1.33.79,1.3-.79,1.32-.76"/><path class="cls-1" d="M71.36,21.11c.14.25,9.89-6,10-5.79s-8.27,7-8.13,7.24,7.8-4.77,7.91-4.57S73.92,23,74,23.15s6.46-3.95,6.55-3.78S75,23.53,75.11,23.68s3.5-2.14,3.55-2.05"/><path class="cls-1" d="M71.69,12.85c.09.15,5.92-3.62,6-3.47s-4,4.07-3.94,4.2,5.2-3.18,5.27-3-4.76,3.41-4.69,3.54,5.08-3.1,5.15-3-4.88,3.26-4.8,3.39,5.06-3.09,5.13-3-4.67,4.21-4.59,4.35,5.28-3.22,5.35-3.09-6.54,5.12-6.43,5.3,6.85-4.19,7-4"/><path class="cls-1" d="M65.5,8.55s1.22-.75,1.24-.72-1.34,2-1.31,2.06,3.68-2.25,3.73-2.15-3.79,2.68-3.73,2.78,4.82-2.95,4.9-2.83-5,2.74-4.9,2.86,4.89-3,5-2.87-5.06,5.3-5,5.46S74.23,7.77,74.36,8s-9.07,6.3-8.94,6.54S75.81,8.18,76,8.45s-10.69,5.84-10.54,6.1S75.83,8.19,76,8.46,65.26,16,65.42,16.27,70.93,12.9,71,13s-5.69,5.73-5.59,5.91,5.52-3.37,5.6-3.23-5.7,5.8-5.6,6S71,18.31,71,18.45s-5.71,5.16-5.61,5.33c.23.4,15.63-9.55,15.86-9.15s-16.09,9.5-15.86,9.9c.08.14,5.5-3.36,5.58-3.22s-5.68,5-5.58,5.12,5.5-3.36,5.59-3.22-5.67,3.73-5.59,3.88,5.5-3.36,5.59-3.22-2.81,4.22-2.74,4.33S71,26.54,71,26.6s-2.66,1.52-2.63,1.58S71,26.61,71,26.67s-1.28,1.47-1.25,1.51,1.16-.71,1.18-.68"/><path class="cls-1" d="M71.77,13.14s.51-.31.52-.3,2,1.51,2,1.56.34-.21.34-.2.28,1.85.3,1.89.4-.24.4-.23-1.24,1.81-1.21,1.86.74-.45.75-.44-.81.48-.8.5.76-.46.77-.44"/><path class="cls-1" d="M70.87,13.08s.68-.42.69-.4-.71,1.84-.69,1.88.39-.24.39-.23-.41,1.84-.39,1.88.38-.23.39-.22-.42,3.09-.38,3.15.38-.23.38-.22-.36,1.16-.35,1.19,3.19-2,3.24-1.87"/><path class="cls-1" d="M67,8s.7-.43.71-.41.88.33.89.35.7-.43.71-.41,1.94.27,2,.32.61-.37.61-.36,2.75.69,2.78.75.51-.31.51-.3,1.47,1,1.5,1.06.4-.25.41-.24l.85,1s.38-.23.39-.23l.86,1.38s.33-.2.33-.19S80,11.9,80,11.93s.32-.2.33-.19.52,1.91.54,2,.33-.2.34-.19.12,2.44.15,2.5.35-.22.36-.21-.61,1.83-.58,1.87.46-.28.47-.27S81,17.94,81,18s.46-.28.47-.27-.85,1.15-.83,1.18.59-.36.6-.34-2.69,2.89-2.64,3,1.25-.76,1.27-.73"/><path class="cls-1" d="M71.5,21.49s.35-.21.36-.21-.19.33-.18.34.35-.21.36-.21l.56.92s.35-.21.36-.21l1,1.23s.35-.22.36-.21.93.73.94.76,3.58-2.19,3.63-2.1"/><path class="cls-1" d="M70.86,21.21s.51-.31.51-.3-.54,2.78-.5,2.84.39-.24.4-.23-.41,1.23-.39,1.26.39-.24.39-.23-.41,1.39-.39,1.42.38-.23.39-.22-.4,1-.38,1,.38-.23.38-.22-.45.82-.44.84.43-.26.44-.25"/><path class="cls-1" d="M65.29,8.38s1.35-.83,1.37-.79-1.52,2.1-1.49,2.16.38-.23.38-.22-.39.83-.38.85.38-.23.38-.22-.39.25-.38.26.38-.23.38-.22-.42,2.75-.38,2.81.38-.23.38-.22-.4,1.57-.38,1.61.38-.23.38-.22-.39.23-.38.24.38-.23.38-.22-.41,1.89-.38,1.94.38-.23.38-.22-.42,2.84-.38,2.9.38-.23.38-.22-.42,2.9-.38,3,.38-.23.38-.22-.41,2.26-.38,2.31.38-.23.38-.22-.4.95-.38,1,.38-.23.38-.22-.41,2.08-.38,2.12.38-.23.39-.22-.4.86-.39.88.38-.23.39-.22,1.74,1.67,1.77,1.72.65-.4.66-.38-.55.37-.55.38.65-.4.66-.38,1.69.34,1.71.38,1.3-.8,1.32-.76"/><path class="cls-1" d="M85.17,15.22c.06.11,4.18-2.56,4.24-2.45S83.61,17.82,83.71,18s7.48-4.57,7.59-4.38-7.73,5-7.61,5.23,8-4.9,8.13-4.7-8.15,5-8,5.25,8.29-5.07,8.41-4.86-8,6-7.85,6.23,5.94-3.63,6-3.48-4.31,5.18-4.23,5.33,5.31-3.25,5.39-3.11-5,3.22-5,3.35,5.57-3.4,5.65-3.26-3.07,4-3,4.13,9.89-6,10-5.79-9.64,5.62-9.5,5.86,9.36-5.72,9.5-5.48-7.75,5.44-7.63,5.64,7.52-4.6,7.63-4.41S94.93,23.8,95,23.93s4.17-2.55,4.23-2.44-3,2.26-3,2.34,2.93-1.79,3-1.72-2.74,1.62-2.7,1.69,2.66-1.63,2.7-1.56-1.54,1.37-1.52,1.41,1.4-.86,1.43-.82"/><path class="cls-1" d="M85.22,9s1.93-1.18,2-1.13-2.5,2.64-2.46,2.72,5.51-3.37,5.59-3.23-5.86,3.81-5.78,4,6.88-4.21,7-4-7.1,3.9-7,4.08,7-4.26,7.07-4.08-3.25,4.31-3.18,4.43,6.85-4.19,6.95-4S90.94,11.48,91,11.61s5.61-3.43,5.7-3.29S91,11.47,91,11.61s5.6-3.43,5.69-3.28-4,3.87-3.94,4,5.06-3.09,5.14-3-4.45,5.06-4.37,5.2,5.3-3.24,5.37-3.1-5.43,5.65-5.33,5.82,5.55-3.39,5.64-3.25S93.5,18.74,93.6,18.9s5.56-3.4,5.64-3.26"/><path class="cls-1" d="M87.31,8s1-.63,1-.6-.41.46-.41.47,1-.63,1-.6,1.77.17,1.79.21.74-.45.75-.44,2.23.42,2.26.47.59-.36.59-.34,2.41,1.35,2.44,1.41.41-.25.41-.24-.4.25-.39.26.41-.25.42-.24l.52,1.12s.37-.23.38-.22,0,.76.06.78.3-.18.31-.18.2,1.48.22,1.51.33-.2.33-.19-.14,1.2-.12,1.23.34-.21.34-.2S99,14,99.07,14.07s.37-.23.38-.22-.38.57-.37.58.37-.23.38-.22-.41,2.63-.37,2.68.38-.23.38-.22-.39,1-.38,1,.38-.23.38-.22-.42,2.84-.38,2.9.38-.23.38-.22-.4,1.35-.38,1.38.38-.23.38-.22-.39.85-.38.87.38-.23.38-.22-.47.7-.46.72.46-.28.46-.27"/><path class="cls-1" d="M85.05,15c.06.11,4.25-2.6,4.31-2.49s-6.06,5.8-6,6c0,0,.4-.24.4-.23s-.25,1.15-.24,1.17.35-.21.35-.2,0,1.17,0,1.2.33-.2.33-.19,0,.78,0,.8.33-.2.34-.19.48,1.15.49,1.17.34-.21.35-.2l.29.78s.38-.23.38-.22-.27.28-.26.29.38-.23.38-.22l.5.72s.37-.23.38-.22,2.74,1,2.78,1.06.55-.33.56-.32,2.25.45,2.28.5.67-.41.68-.39l.21.37s.69-.42.7-.41,1.76.24,1.78.27.82-.5.83-.48.89.26.9.28S99.29,23,99.32,23"/><path class="cls-1" d="M89.48,12.92s.64-.39.65-.37,1.12,1.23,1.14,1.27.34-.21.34-.2.17.71.18.73.34-.21.34-.2,0,.61,0,.62.34-.21.35-.2-2.38,3-2.33,3,.44-.27.45-.26.91,2.29.94,2.35.52-.32.52-.3l.22.36s1.47-.9,1.49-.86-1.27.8-1.25.83S93.74,19,93.76,19"/><path class="cls-1" d="M85.06,8.86s2-1.2,2-1.15-2.57,2.67-2.52,2.75.46-.28.46-.27-.66,1-.65,1,.46-.28.47-.27-.48.3-.48.31.46-.28.47-.27,2.08,1.32,2.11,1.38,1.3-.8,1.32-.76,2.08.12,2.11.17.54-.33.55-.32-.53.31-.52.32.54-.33.55-.32,1.5.8,1.52.84.35-.22.36-.21.51,2.32.54,2.37.36-.22.36-.21-.36,2.86-.32,2.93.38-.23.38-.22-.41,1.76-.38,1.8.38-.23.38-.22"/><path class="cls-1" d="M103.06,8.53s1.24-.76,1.25-.72-1.37,2.63-1.33,2.69,4.76-2.91,4.83-2.79S102.9,11.2,103,11.33s5.44-3.32,5.52-3.18-5.6,3.66-5.52,3.8,5.56-3.4,5.64-3.26-5.74,4.79-5.64,5,5.56-3.4,5.64-3.26-5.75,6-5.64,6.15,5.56-3.4,5.64-3.26S102.89,16.86,103,17s5.56-3.4,5.64-3.26-5.74,5.48-5.64,5.65,5.56-3.4,5.64-3.26-5.73,3.49-5.64,3.64,5.56-3.4,5.64-3.26S102.89,20.86,103,21s5.56-3.4,5.64-3.26-5.61,5-5.52,5.14,5.44-3.32,5.52-3.19-5.19,3.44-5.11,3.57,5-3.08,5.11-3-5,2.87-5,3,4.88-3,5-2.86-1.31,2.86-1.27,2.93,1.18-.72,1.2-.69"/><path class="cls-1" d="M103.06,2s1.24-.76,1.25-.72-1.36,2-1.33,2.07,3.7-2.26,3.75-2.17S102.92,3.89,103,4s4.76-2.91,4.83-2.79S102.91,3.91,103,4s4.81-2.94,4.88-2.82-4.29,4.88-4.2,5,4.9-3,5-2.87S106,6.14,106.08,6.22s2.5-1.53,2.54-1.47-2.54,1.4-2.5,1.46,2.47-1.51,2.5-1.45-1.35,1.36-1.33,1.4,1.23-.75,1.25-.72"/><path class="cls-1" d="M104.47,8s.7-.43.71-.41-.28.38-.27.39.7-.43.71-.41,1.59.28,1.61.32.62-.38.63-.36.58,1.4.6,1.43.38-.23.39-.22-.42,3-.38,3,.38-.23.39-.22-.39.24-.39.25.38-.23.39-.22-.41,1.6-.38,1.64.38-.23.38-.22-.4,1-.38,1,.38-.23.38-.22-.41,1.82-.38,1.86.38-.23.38-.22-.4,1.35-.38,1.38.38-.23.38-.22-.41,1.85-.38,1.9.38-.23.38-.22-.39.57-.38.59.38-.23.38-.22-.42,2.63-.38,2.69.38-.23.38-.22-.4,1-.38,1,.38-.23.38-.22-.45.68-.44.7.43-.26.44-.25"/><path class="cls-1" d="M102.87,8.38s1.35-.83,1.37-.79-1.53,3.33-1.49,3.41.38-.23.38-.22-.4,1.23-.38,1.26.38-.23.38-.22-.4,1.39-.38,1.42.38-.23.38-.22-.4,1-.38,1,.38-.23.38-.22-.4,1.64-.38,1.68.38-.23.38-.22-.4,1.14-.38,1.17.38-.23.38-.22-.39.35-.38.36.38-.23.38-.22-.4,1.2-.38,1.23.38-.23.38-.22-.42,2.82-.38,2.88.38-.23.38-.22-.41,2-.38,2,.38-.23.39-.22-.37.68-.36.7.35-.22.36-.21.24,1.13.25,1.16.46-.28.47-.27,2.24.36,2.27.41.66-.4.67-.38.61.37.61.38,1.3-.79,1.32-.76"/><path class="cls-1" d="M104.47,1.46s.7-.43.71-.41,2.67.3,2.7.36.43-.26.44-.25.07.77.08.79.37-.22.37-.21-.32.78-.31.8.38-.23.39-.22-.41,1.87-.38,1.91.38-.23.38-.22-.46,1.28-.45,1.31.44-.27.45-.26"/><path class="cls-1" d="M102.87,1.88s1.35-.83,1.37-.79-1.52,2.1-1.49,2.16.38-.23.38-.22-.39.83-.38.85.38-.23.38-.22-.39.25-.38.26.38-.23.38-.22,0,2.51,0,2.57.4-.25.41-.24,1.58.42,1.6.46.7-.43.71-.41-.69.39-.68.41.7-.43.71-.41,1.4.29,1.42.33,1.34-.82,1.36-.78"/><path class="cls-1" d="M119,21.07c.07.12,4.57-2.79,4.63-2.68s-3.57,2.79-3.51,2.89,4.47-2.73,4.53-2.62-3.21,3.17-3.15,3.27,4.52-2.76,4.58-2.65-3.85,4.19-3.78,4.32,5.2-3.18,5.28-3"/><path class="cls-1" d="M119.47,16.53c.12.21,8.44-5.16,8.56-4.94s-8.34,4.77-8.22,5,8.13-5,8.24-4.76-6.22,4.61-6.12,4.78,5.91-3.61,6-3.46-3.85,3-3.79,3.13,3.06-1.87,3.1-1.79"/><path class="cls-1" d="M119.4,10.74c.1.18,7-4.28,7.11-4.1s-4.68,4.44-4.6,4.58,5.83-3.56,5.92-3.42-5.29,3.7-5.2,3.84,5.66-3.46,5.75-3.32S122.92,11.9,123,12s5.69-3.48,5.77-3.33-5.75,3.66-5.66,3.81,5.88-3.6,6-3.45"/><path class="cls-1" d="M113.44,9.4c0,.08,3-1.85,3.07-1.77s-3.9,3.4-3.83,3.51,6.57-4,6.67-3.85-6.76,4.29-6.65,4.47,7.55-4.62,7.66-4.42-7.77,4.27-7.66,4.46,7.61-4.65,7.72-4.46-6.84,6.27-6.72,6.48,4.22-2.58,4.28-2.47-4.28,3.69-4.21,3.82,4.65-2.84,4.71-2.72-4.8,2.63-4.73,2.75,4.68-2.86,4.75-2.74-6.64,5.3-6.54,5.49,8.24-5,8.36-4.83-7.7,6.83-7.57,7.05,5.92-3.62,6-3.47-7.13,6.58-7,6.79,9.31-5.69,9.44-5.45-9,6.95-8.84,7.19,4.92-3,5-2.88-4.73,3.31-4.65,3.43,4.73-2.89,4.8-2.77-3.44,3.74-3.37,3.85,4.54-2.78,4.61-2.66-4.06,2.85-4,3,4.62-2.82,4.69-2.71S117.93,27.94,118,28c.15.26,10.32-6.3,10.47-6s-10.53,5.8-10.38,6.06,10.25-6.26,10.4-6-5.83,5.82-5.72,6,5.39-3.3,5.47-3.16-3.86,2.7-3.81,2.8,3.07-1.88,3.11-1.8"/><path class="cls-1" d="M119.07,21.33s.54-.33.55-.32.75.58.76.6.41-.25.41-.24L122,23.13s.33-.2.34-.19-.26.51-.25.52.34-.21.35-.2"/><path class="cls-1" d="M117.36,21.84s1.55-.95,1.57-.91-1.75,1.37-1.72,1.42.43-.27.44-.25.51,1.92.53,2,.36-.22.36-.21,1.58.77,1.6.81.68-.42.69-.4,0,.38,0,.38,1.56-1,1.58-.91"/><path class="cls-1" d="M119.4,11s.55-.34.56-.32,2.57,1.16,2.61,1.22.33-.2.33-.19,0,.64,0,.66.31-.19.31-.18"/><path class="cls-1" d="M117.79,11.43s1.38-.84,1.4-.81-.23,2.18-.2,2.22.4-.24.41-.23,1.89.71,1.92.75.6-.37.61-.35-.05.37,0,.38,1.36-.83,1.38-.8"/><path class="cls-1" d="M116.71,7.68s.84-.51.85-.49,1,.28,1,.3.77-.47.78-.45,1.7.41,1.73.45.53-.32.53-.31,1.86.77,1.89.81,1.9-1.16,1.93-1.11"/><path class="cls-1" d="M126.24,6.7s.42-.26.43-.25-.19.34-.19.35.39-.24.4-.23l.48,1s.34-.21.35-.2l.81,1.31s.34-.21.34-.2-1,3.29-.93,3.36.35-.22.36-.21-.36.23-.36.23.36-.22.36-.21-.62,1.72-.6,1.76.44-.27.45-.26-1.12,1.24-1.1,1.28.8-.49.82-.47"/><path class="cls-1" d="M119.52,16.79s.55-.34.56-.32,4.16-.1,4.21,0,3-1.82,3-1.75"/><path class="cls-1" d="M118.33,17s1.1-.68,1.12-.65.41,1.64.43,1.67.58-.35.59-.34.68.41.69.43.58-.35.59-.34l.36.41s.55-.34.56-.32,1.54.76,1.56.79.47-.29.48-.27S126.87,20,126.91,20s.33-.2.34-.2,0,.49,0,.5.33-.2.34-.2.76,1.89.79,1.94.34-.21.35-.2-.29.53-.29.55.34-.21.35-.2-.28,1.36-.26,1.39.41-.25.41-.24-1.49,2.3-1.46,2.36.86-.53.87-.5"/><path class="cls-1" d="M113.37,9.12c0,.07,2.86-1.75,2.9-1.67s-3.87,3.38-3.8,3.49.47-.29.48-.28-.54.91-.53.93.37-.22.37-.21-.37.24-.36.25.36-.22.36-.21.45,2.27.48,2.32.35-.21.35-.2-.05,1.37,0,1.4.74-.45.75-.43-.78.44-.77.46.76-.46.77-.44-2.61,3.1-2.56,3.19.73-.44.74-.43.24,2.47.27,2.53.82-.5.83-.48-2.21,3.89-2.15,4,.35-.21.35-.2.15,1.95.18,2,.33-.2.33-.19,0,.75,0,.76.33-.2.34-.19l.94,1.36s.38-.23.39-.23l.22.53s.39-.24.39-.23,2.59,1.17,2.62,1.23.53-.32.54-.31-.45.31-.44.32.53-.32.54-.31,3.73.43,3.78.52.79-.48.8-.46.59.33.6.34,1.15-.71,1.17-.68l.29.36c0,.08,3.15-1.93,3.2-1.85"/><path class="cls-1" d="M137.57,11.34c.08.14,5.62-3.43,5.7-3.29s-3.16,4.22-3.1,4.33,5-3.06,5.09-2.94-4.63,3.54-4.56,3.67,5-3.08,5.11-2.95S141,14,141.07,14.11s5.21-3.19,5.29-3.05-5.29,3.66-5.2,3.8,5.34-3.26,5.42-3.13-5.44,4.4-5.35,4.55,5.5-3.36,5.58-3.22-5.67,4-5.58,4.17,5.56-3.4,5.64-3.26-5.73,3.25-5.64,3.4,5.56-3.4,5.64-3.26-5.73,4.11-5.64,4.27,5.56-3.4,5.64-3.26-5.75,5.74-5.64,5.92,5.56-3.4,5.64-3.26-5.64,4.85-5.55,5,5.47-3.34,5.55-3.2-5.38,3.41-5.3,3.55,5.22-3.19,5.3-3.06-3.56,3.22-3.5,3.32,3.45-2.11,3.5-2-1.3,2-1.27,2,1.18-.72,1.2-.69"/><path class="cls-1" d="M131.34,8.53s1.24-.76,1.25-.72-1.36,2-1.33,2.07S135,7.61,135,7.71s-3.81,2.69-3.75,2.79S136,7.59,136.1,7.71s-4.9,2.71-4.83,2.83,4.81-2.94,4.88-2.82-5,5.25-4.88,5.41,9.71-5.94,9.86-5.69-10,6.81-9.86,7.07,11.35-6.94,11.52-6.65-11.69,6.38-11.52,6.67,11.37-7,11.54-6.66-11.72,8.07-11.54,8.38c.08.14,5.56-3.4,5.64-3.26s-5.75,5.77-5.64,5.94,5.56-3.4,5.64-3.26-5.75,5.82-5.64,6,5.56-3.4,5.65-3.26-5,4.77-4.91,4.92,4.83-3,4.91-2.83-3.78,2.79-3.72,2.89,3.67-2.24,3.72-2.15-1.31,2.09-1.27,2.15,1.18-.72,1.2-.69"/><path class="cls-1" d="M132.83,8s.7-.43.71-.41,2,.25,2.05.3.6-.37.61-.35.52,1.31.54,1.35.38-.23.38-.22-.33.84-.32.86,3.82-2.33,3.87-2.24"/><path class="cls-1" d="M141.07,7.59s.61-.37.62-.36l.5.57s.41-.25.42-.24,1,.81,1.06.84.35-.21.35-.2,1.3,1.54,1.32,1.59.32-.2.33-.19.54,1.56.57,1.6.33-.2.34-.19,0,1.48,0,1.52.36-.22.36-.21-.29,2-.27,2,.38-.23.38-.22-.4,1.67-.38,1.71.38-.23.38-.22-.41,2.43-.38,2.49.38-.23.38-.22-.42,2.74-.38,2.8.38-.23.38-.22-.4,1.72-.38,1.76.38-.23.38-.22-.41.46-.4.47.4-.24.4-.23-.44.3-.43.31.43-.26.43-.25"/><path class="cls-1" d="M137.62,11.62s.59-.36.6-.34-.24.36-.24.37.53-.32.53-.31.88.7.89.73.39-.24.4-.23l.68,1.38s.33-.2.33-.19.14,2.66.17,2.72.38-.23.38-.22-.39.24-.38.25.38-.23.38-.22-.4,1.6-.38,1.63.38-.23.38-.22-.4,1-.38,1,.38-.23.38-.22-.41,1.82-.38,1.86.38-.23.38-.22-.4,1.35-.38,1.38.38-.23.38-.22-.4,1.85-.37,1.89.37-.22.37-.22-.29.52-.29.53.34-.21.35-.2,2.46,1,2.49,1,.66-.4.66-.38.69.37.7.38.85-.52.86-.5-.53.48-.52.5,1.3-.79,1.32-.76"/><path class="cls-1" d="M136.74,11.58s.71-.44.72-.42-.76,2.9-.72,3,.38-.24.39-.23-.41,1.23-.39,1.26.38-.23.39-.22-.41,1.39-.39,1.42.38-.23.39-.22-.4,1-.39,1,.38-.23.39-.22-.41,1.64-.39,1.68.38-.23.39-.22-.4,1.14-.38,1.17.38-.23.39-.22-.39.35-.38.36.38-.23.38-.22-.4,1.2-.38,1.23.38-.23.38-.22-.46,2-.44,2.08.43-.26.44-.25"/><path class="cls-1" d="M131.16,8.38s1.35-.83,1.37-.79S131,9.69,131,9.75s.38-.23.38-.22-.39.83-.38.85.38-.23.38-.22-.39.25-.38.26.38-.23.38-.22S131,12.94,131,13s.38-.23.38-.22-.4,1.57-.38,1.61.38-.23.38-.22-.39.23-.38.24.38-.23.38-.22-.41,1.89-.38,1.94.38-.23.38-.22S131,18.74,131,18.8s.38-.23.38-.22-.42,2.9-.38,3,.38-.23.39-.22.07,2,.09,2,.41-.25.42-.24l.43.5s.65-.4.66-.38,2.6.32,2.63.38,1.37-.84,1.39-.8"/></g></g></svg>