<svg xmlns="http://www.w3.org/2000/svg" width="109.5" height="20.24" viewBox="0 0 109.5 20.24">  <defs>    <style>      .a {        fill: #ff0;      }    </style>  </defs>  <title>アセット 3</title>  <g>    <g>      <path class="a" d="M11,12.55h-.07a.3.3,0,0,1-.18-.13.27.27,0,0,1,.1-.37A.29.29,0,0,1,11,12c.33-.12,1.75-1,2.71-1.61C15.86,9,15.89,9.06,16.06,9.1a.29.29,0,0,1,.17.13c.08.13.08.13-.29,1.05l-.29.73.13-.08c1.12-.71,1.23-.75,1.39-.71a.29.29,0,0,1,.18.13.27.27,0,0,1-.22.4c-.17.08-.72.42-1.05.63-.78.49-.81.51-1,.48a.28.28,0,0,1-.17-.13c-.09-.15-.1-.17.5-1.66l.06-.16L14,10.85C11.68,12.29,11.21,12.55,11,12.55Z"/>      <path class="a" d="M10.24,18.86a.23.23,0,0,1-.2-.12c-.09-.16-.11-.19.59-1.84l-1,.62c-.39.24-.39.24-.5.21a.27.27,0,0,1-.17-.13c-.11-.2-.1-.22.87-1.5l.19-.26-.43.27c-.57.35-.57.35-.69.32a.27.27,0,0,1-.17-.13c-.09-.16-.11-.19.64-1.06-.5.29-.55.28-.65.25a.28.28,0,0,1-.17-.13c-.11-.19-.12-.21,1-1.72l-.12.07L8.89,14c-.25.15-.45.27-.59,0s-.17-.29,1.55-1.59c-1.28.76-1.43.78-1.57.75a.29.29,0,0,1-.17-.13c-.11-.19-.11-.19.61-.88l.76-.73c-3.14,1.89-3.22,1.87-3.38,1.83a.28.28,0,0,1-.17-.13c-.07-.15,0-.21.09-.42.35-.61.59-1,.75-1.32-.56.33-1.4.84-2.08,1.25C2.53,14,2.51,14,2.35,14a.28.28,0,0,1-.17-.13c-.11-.19-.12-.21.57-.78-1.27.77-1.48.85-1.65.81a.3.3,0,0,1-.18-.13c-.07-.12-.07-.12.1-.52l.38-.93c-.46.29-.54.32-.67.29a.28.28,0,0,1-.17-.13.27.27,0,0,1,.1-.37l.09,0,.51-.31c.51-.32.56-.36.7-.32a.28.28,0,0,1,.17.13c.08.14.1.17-.47,1.53.55-.32,1.41-.85,2-1.21,1.62-1,1.63-1,1.78-1a.28.28,0,0,1,.17.13c.09.16.13.23-.41.72,2-1.21,2.05-1.2,2.2-1.16a.29.29,0,0,1,.17.13c.09.15.12.21-.73,1.69.92-.52,2.44-1.44,3.22-1.91s.89-.54,1-.51a.27.27,0,0,1,.17.13c.12.21.15.27-1.29,1.66l1.82-1.1c2-1.21,2-1.21,2.15-1.17a.27.27,0,0,1,.17.13c.14.24.14.24-1.93,1.77L10.6,12.57a.28.28,0,0,1,.09.1c.1.17.1.17-.6,1.12l-.5.69.79-.48c.24-.15.43-.26.57,0s.1.18-.55.93l-.17.19c.57-.34.62-.33.73-.3a.28.28,0,0,1,.17.13c.12.2.08.25-.88,1.51l-.1.13c.89-.54.94-.52,1.06-.49a.29.29,0,0,1,.17.13c.07.12.07.12-.18.72L10.77,18c.45-.27.48-.26.58-.23a.28.28,0,0,1,.17.13.27.27,0,0,1-.1.37l-.08,0c-.13.06-.58.34-.75.45A.77.77,0,0,1,10.24,18.86Z"/>      <path class="a" d="M9.81,6.7H9.75l.06-.26L10,6.29l-.23.14-.12-.24.55-.34C14,3.47,14.37,3.38,14.58,3.43a.31.31,0,0,1,.18.13c.1.17.1.17-.8,1.28l-.07.08c1.28-.78,1.35-.76,1.48-.73a.29.29,0,0,1,.18.13.27.27,0,0,1-.23.4c-.28.11-1.49.86-2,1.15s-.56.35-.68.32a.27.27,0,0,1-.17-.13c-.1-.17-.1-.17,1-1.57l.07-.09c-1,.57-2.47,1.49-3.08,1.87S9.89,6.7,9.81,6.7Z"/>      <path class="a" d="M7.81,10.47H7.74a.27.27,0,0,1-.17-.13c-.1-.17-.12-.21.48-.85-.35.21-.37.2-.47.18a.27.27,0,0,1-.17-.13c-.09-.15-.09-.15.51-1.09l.64-1L8,7.81c-.55.34-.55.34-.67.31A.27.27,0,0,1,7.12,8C7,7.78,7,7.78,8.06,7c.52-.39,1.5-1.12,2.35-1.77-.81.49-1.72,1.06-2.26,1.4-1,.63-1,.63-1.13.6a.27.27,0,0,1-.17-.13c-.11-.19-.14-.24,1-1.37L7,6.27c-2,1.25-2.05,1.25-2.21,1.2a.28.28,0,0,1-.17-.13c-.07-.12-.11-.18.09-.36-1.21.75-1.4.82-1.57.78a.31.31,0,0,1-.18-.13c-.12-.21-.11-.28,1-1.33l-.63.4C1.49,7.84,1.4,7.87,1.22,7.83A.29.29,0,0,1,1,7.7C1,7.58,1,7.51,1.1,7.35c-.15.07-.19.06-.25,0a.27.27,0,0,1-.17-.13c-.09-.15-.09-.16.4-.88-.35.18-.39.13-.48,0A.27.27,0,0,1,.69,6l0,0,.9-.52c.21-.12.25-.14.36-.11a.27.27,0,0,1,.16.12c.09.15.1.17-.4.91l.79-.48C4,5,4,5,4.11,5.05a.27.27,0,0,1,.17.13c.05.09.09.15,0,.24,1-.58,1.15-.64,1.3-.6A.31.31,0,0,1,5.79,5c.12.22.12.22-1,1.27l-.17.16,1.09-.69C8.3,4.06,8.62,3.91,8.85,4A.32.32,0,0,1,9,4.1a.23.23,0,0,1,0,.32c.46-.25.54-.25.64-.23a.29.29,0,0,1,.17.13c.1.19.1.19-.51.77l-.47.45C11.54,3.87,12,3.7,12.19,3.76a.32.32,0,0,1,.19.14c.15.26.21.37-2.89,2.7l0,0c.11.18.11.19-1,2C9.48,8,9.5,8,9.63,8a.27.27,0,0,1,.17.13c.11.19.11.19-.55.86l0,0c.43-.25.47-.24.57-.22A.28.28,0,0,1,10,9a.27.27,0,0,1-.1.37l-.08,0c-.15.07-.75.43-1.11.65C8,10.4,7.9,10.47,7.81,10.47Z"/>      <path class="a" d="M6.74,5H6.67a.27.27,0,0,1-.17-.13c-.08-.14-.1-.18.25-.53a.28.28,0,0,1-.21,0,.28.28,0,0,1-.17-.13c-.1-.18-.12-.2.86-1.91l.08-.13,0,0c-.86.54-.91.56-1.05.53A.28.28,0,0,1,6,2.56c-.09-.16-.09-.2.28-.62h0l.07-.26.23-.13-.23.13-.1-.25.58-.34c.47-.28.59-.35.73-.12s.08.2-.08.42c.39-.24.45-.24.56-.22a.28.28,0,0,1,.17.13c.09.16.09.16-.53,1.24l-.49.87.33-.21c.88-.55.92-.58,1.07-.54a.28.28,0,0,1,.17.13c.08.14.11.18-.28.57.14-.07.17-.06.24,0l-.07.26-.23.13.23-.13.09.25L8,4.29C7,4.85,6.85,5,6.74,5Z"/>      <path class="a" d="M10.44,5h-.08a.28.28,0,0,1-.17-.13l-.63-.56L9.21,4,9,4.18c-.58.35-.58.35-.71.32a.27.27,0,0,1-.16-.12C8,4.23,8,4.19,8.46,3.12l-.08,0c-.18.11-.22.14-.34.11a.27.27,0,0,1-.17-.13c-.05-.09-.05-.09,0-.83C8,2.1,8,1.78,8,1.52l-.33.2c-.19.12-.23.14-.35.12l.07-.26-.13-.24.13-.08c.84-.52.86-.51,1-.48a.28.28,0,0,1,.17.13c.06.11.07.12-.12,1.49v.09c.44-.27.49-.27.6-.24a.28.28,0,0,1,.17.13c.07.12.07.12-.22.84l-.17.42c.36-.22.37-.22.48-.19a.27.27,0,0,1,.17.13,5.3,5.3,0,0,1,.43.37l.57.51c.23-.13.72-.43,1.07-.65,1.14-.71,1.16-.71,1.3-.67A.28.28,0,0,1,13,3.2l.35.27.5.38.31-.18c1.1-.65,1.1-.65,1.24-.41s.07.12-.11.92c.43-.26.44-.25.55-.23l-.07.26-.24.13.24-.13.1.25-.45.27c-.47.28-.47.28-.59.25a.27.27,0,0,1-.17-.13c-.05-.1-.05-.1.07-.65l.07-.29-.36.21c-.56.33-.56.33-.68.3a.27.27,0,0,1-.13-.08L13,3.9l-.25-.19-.92.56C10.79,4.92,10.58,5,10.44,5Z"/>      <path class="a" d="M10.24,7.19h-.07l.07-.26.23-.14-.23.13-.1-.25.58-.36c1.71-1.07,1.83-1.1,2-1.06l.08,0,.31.15,1,.51.74-.44c.71-.43.71-.43.83-.39l-.07.26-.23.13.23-.13.1.25L15.13,6c-1,.57-1,.58-1.09.54l-.09,0-1.08-.54-.24-.12c-.29.13-1.18.69-1.62,1S10.33,7.19,10.24,7.19Z"/>      <path class="a" d="M11.55,10.88h-.06a.27.27,0,0,1-.17-.13l-.19-.41L11,10.09l-.33.21c-.84.53-.92.57-1.07.53a.28.28,0,0,1-.17-.13c-.07-.13-.08-.17.17-.65a.33.33,0,0,1-.27.05A.28.28,0,0,1,9.17,10c-.08-.13-.08-.13.23-.82l.14-.32C9.3,9,9.24,9,9.13,9A.27.27,0,0,1,9,8.85c-.07-.12-.08-.13.33-1-.21.12-.26.13-.36.11a.27.27,0,0,1-.17-.13c-.08-.14-.08-.14.31-1.14l0,0c-.28.14-.34.12-.44-.05a.27.27,0,0,1,.09-.37l.05,0,.52-.31c.18-.11.36-.21.5,0s.09.15-.24,1L9.5,7c.28-.17.33-.18.43-.16A.28.28,0,0,1,10.1,7c.07.12.07.12-.25.85l-.09.19c.23-.14.29-.15.39-.13a.27.27,0,0,1,.17.13c.08.14.08.18-.34,1.14.27-.17.3-.18.41-.15a.27.27,0,0,1,.17.13c.08.14.06.16-.16.56l-.09.15.08-.05c.64-.4.66-.42.8-.38a.27.27,0,0,1,.17.13l.25.52.06.13,1.57-.92C13.88,9,13.88,9,14,9a.27.27,0,0,1,.16.12c0,.05,0,.05.1.68l.9-.55c1-.64,1-.63,1.17-.6a.27.27,0,0,1,.17.13c0,.07,0,.07,0,.43v.18c.58-.35.59-.35.71-.32a.27.27,0,0,1,.17.13c.07.13.08.14-.2.75.32-.19.33-.19.44-.17l-.07.26-.23.13.23-.13.1.25-.32.19c-.61.38-.67.41-.8.37a.28.28,0,0,1-.17-.13c-.07-.12-.08-.13.21-.75-.3.18-.31.17-.41.15A.27.27,0,0,1,16,10c0-.08-.05-.11,0-.63l-.55.34c-1.31.81-1.33.8-1.48.76a.28.28,0,0,1-.17-.13s0,0-.07-.46l0-.18-.17.1A10.15,10.15,0,0,1,11.55,10.88Z"/>      <path class="a" d="M11.38,13h-.07a.28.28,0,0,1-.17-.13.27.27,0,0,1,.1-.37l.09,0c.19-.09,1-.58,1.5-.88.92-.56.93-.56,1.05-.53a.27.27,0,0,1,.17.13c0,.06,0,.06.1.61l0,.14c.61-.31,2.09-1.24,2.71-1.63s.69-.43.81-.41a.27.27,0,0,1,.17.13c.09.16.08.18-.3.63l-.28.34a.23.23,0,0,1,.11,0l-.06.26-.23.13.23-.13.1.25-.36.22c-.69.43-.76.46-.9.43a.28.28,0,0,1-.17-.13c-.08-.15-.11-.19.36-.77-2.08,1.29-2.28,1.33-2.46,1.29a.31.31,0,0,1-.18-.14c0-.06,0-.06-.1-.56v-.11l-.49.3C11.74,12.91,11.5,13,11.38,13Z"/>      <path class="a" d="M10.86,18c-.08,0-.13,0-.18-.14s-.09-.18.18-.55h-.05a.27.27,0,0,1-.17-.13c-.08-.13-.08-.14.29-1-.19.11-.24.13-.34.1a.27.27,0,0,1-.17-.13c-.07-.12-.1-.17.34-1.52-.41.24-.5.26-.63.05s-.09-.15.18-.56a.19.19,0,0,1-.15,0,.27.27,0,0,1-.16-.12c-.13-.23-.05-.32,1-1.25-.85.51-.85.52-1,.48a.27.27,0,0,1-.17-.13c-.07-.13-.08-.18.19-.62h0a.27.27,0,0,1-.17-.13A.27.27,0,0,1,9.9,12L10,12l.38-.23c.38-.23.39-.24.51-.21a.27.27,0,0,1,.17.13c.08.14,0,.2-.15.5l0,.06c1.69-1,1.72-1,1.87-1a.28.28,0,0,1,.17.13c.14.25.05.35-1.35,1.63l-.23.21,0,.05c.07.12.09.15-.16.55a.2.2,0,0,1,.13,0,.27.27,0,0,1,.16.12c.06.11,0,.17,0,.34-.19.57-.31,1-.39,1.22.32-.2.39-.23.51-.2a.28.28,0,0,1,.17.13c.08.14.08.14-.29.94h0c.2-.11.25-.12.34-.09a.27.27,0,0,1,.17.13c.07.13.08.18-.13.48a.21.21,0,0,1,.1,0l-.07.26-.24.13.24-.13.1.25-.5.29A1.72,1.72,0,0,1,10.86,18Z"/>      <path class="a" d="M10.07,19.31H10a.27.27,0,0,1-.16-.13c0-.05,0-.05-.09-.48l0-.28c-.5.31-.57.35-.71.32a.28.28,0,0,1-.17-.13c-.07-.12-.06-.13.15-1l.12-.52c-.4.25-.44.28-.57.24a.27.27,0,0,1-.17-.13c-.07-.12-.05-.16.07-.46l.32-.77c-.25.15-.33.18-.44.15A.28.28,0,0,1,8.15,16c-.07-.12-.08-.14.36-1.56h0c-.39.23-.39.24-.51.21a.27.27,0,0,1-.17-.13c-.07-.12-.07-.12.23-1.36l0-.18c-1.38.84-1.41.83-1.55.8a.28.28,0,0,1-.17-.13c-.08-.11,0-.2,0-.37l.09-.19-.34.22c-1.25.79-1.35.83-1.51.79l-.09,0c-.15-.06-.9-.28-1.31-.41l-.51-.16c-.2.1-.76.45-1,.62-.52.32-.52.32-.64.29a.27.27,0,0,1-.18-.14.43.43,0,0,1,0-.22l.08-.4,0,0c-.39.25-.42.26-.55.23a.27.27,0,0,1-.17-.13C.11,13.57.1,13.55.89,12l0-.07c-.34.21-.41.23-.52.2A.28.28,0,0,1,.23,12a.27.27,0,0,1,.1-.37l.08,0,.52-.31c.52-.32.54-.34.67-.3a.27.27,0,0,1,.17.13c.09.15.09.15-.4,1.12L1,12.95c.21-.12.27-.13.37-.11a.28.28,0,0,1,.17.13c0,.08.06.11,0,.6,1.12-.69,1.15-.68,1.29-.65l.06,0,.55.16c.78.23,1.15.34,1.33.41.21-.11.76-.45,1.14-.69,1.06-.67,1.09-.68,1.24-.64a.28.28,0,0,1,.17.13c.06.11.07.16-.1.56L8,12.36c.41-.25.41-.25.52-.22a.27.27,0,0,1,.17.13c.06.1.06.1-.15,1l-.13.55c.46-.27.47-.27.58-.24a.27.27,0,0,1,.17.12c.06.1.05.14,0,.39l-.37,1.19c.35-.22.39-.24.51-.21a.27.27,0,0,1,.17.13c.07.12.09.16-.33,1.19.2-.12.27-.14.37-.11a.28.28,0,0,1,.17.13c.07.12.07.17-.2,1.3l-.06.24h0c.36-.23.39-.25.51-.21a.27.27,0,0,1,.17.13c0,.06,0,.07.13.75h0c1.41-.86,1.42-.85,1.57-.81a.28.28,0,0,1,.17.13.27.27,0,0,1-.1.37l-.09,0c-.18.08-.94.54-1.27.75S10.14,19.31,10.07,19.31Z"/>      <path class="a" d="M1.86,12.41H1.79a.29.29,0,0,1-.18-.13.27.27,0,0,1,.22-.4c.17-.08.72-.42,1.09-.66,1-.62,1-.65,1.19-.61a.29.29,0,0,1,.13.07c.11.08.8.49,1,.62l.08,0c.29-.14,1.12-.65,1.64-1,1.14-.71,1.15-.71,1.29-.68a.28.28,0,0,1,.17.13c.08.14.09.2-.25.66a.23.23,0,0,1,.12,0l-.06.26L8,10.88l.23-.14.09.25c-.07,0-.3.17-.52.3-.52.32-.52.32-.65.29A.27.27,0,0,1,7,11.46c-.09-.16-.08-.17.28-.66h0c-1.74,1.09-1.85,1.12-2,1.07l-.09,0L5,11.75l-1-.59-.8.5C2.23,12.29,2,12.41,1.86,12.41Z"/>      <path class="a" d="M7.29,10.43H7.21A.27.27,0,0,1,7,10.29c-.07-.12-.08-.18.09-.43h0a.27.27,0,0,1-.17-.13c-.09-.15-.07-.21.35-1.15-.39.22-.47.23-.58,0S6.61,8.47,7,7.07l-.35.21c-1,.63-1,.63-1.18.6l-.08,0L5,7.65,4,7.19c-.28.15-1,.6-1.47.86-.76.45-.76.45-.88.43a.27.27,0,0,1-.17-.13,3.07,3.07,0,0,1-.16-.49l-.1-.31h0c-.62.37-.63.38-.76.35a.27.27,0,0,1-.17-.12c-.07-.12-.08-.15.11-.49-.12.07-.17.08-.26.06A.27.27,0,0,1,0,7.22C0,7.06-.05,7.06.7,5.92.57,6,.52,6,.43,6l.07-.26L.36,5.49l.12-.07c1-.59,1-.59,1.11-.55A.28.28,0,0,1,1.76,5c.09.15.09.15-.56,1.14l-.12.18a.25.25,0,0,1,.12,0,.28.28,0,0,1,.17.13c.07.12.07.16-.1.48.12-.06.14-.06.22,0A.27.27,0,0,1,1.66,7a5.05,5.05,0,0,1,.22.69l0,.11.37-.23c1.68-1,1.69-1,1.84-1a.27.27,0,0,1,.11.06c.11.07.66.34,1,.49l.29.14.83-.49c1-.59,1-.58,1.1-.55a.27.27,0,0,1,.17.13c.06.1.06.1-.09.71l-.2.82c.55-.32.62-.35.76-.13s.08.16-.27.94L7.69,9c.3-.18.32-.17.42-.15a.27.27,0,0,1,.17.13c.07.13.07.18-.11.43h.05a.28.28,0,0,1,.17.13.27.27,0,0,1-.1.37l-.07,0-.35.21C7.49,10.36,7.38,10.43,7.29,10.43Z"/>      <path class="a" d="M1.9,6.29c-.08,0-.12-.05-.16-.13a.27.27,0,0,1,.09-.37l.05,0C2.07,5.68,3.3,5,3.71,4.71s.47-.28.61-.06.05.09.05.67l1.26-.75C7,3.75,7,3.75,7.13,3.79a.27.27,0,0,1,.17.13c.08.14.1.19-.15.45h.07a.28.28,0,0,1,.17.13.27.27,0,0,1-.1.37l-.11,0c-.13.06-.5.3-.75.45-.69.44-.75.47-.89.44a.28.28,0,0,1-.17-.13c-.07-.12-.09-.18.05-.35C4.2,6.06,4.18,6,4,6a.27.27,0,0,1-.17-.13c0-.07,0-.07,0-.54V5.26A8.26,8.26,0,0,1,1.9,6.29Z"/>      <path class="a" d="M6.15,4.56H6.08a.27.27,0,0,1-.17-.13C5.84,4.3,5.82,4.27,6,4H6a.28.28,0,0,1-.17-.13c-.11-.2-.13-.23,1.21-2.13l.09-.12L7,1.68c-1.1.69-1.15.7-1.3.67a.28.28,0,0,1-.17-.13C5.39,2,5.4,2,6,1.38l0-.19.23-.13-.23.13L6,.94,6.58.59c.48-.29.48-.29.6-.26a.27.27,0,0,1,.16.13c.07.12.08.2-.09.41C7.83.51,7.89.5,8,.54a.28.28,0,0,1,.17.13c.1.18.1.18-.74,1.37L6.79,3A.24.24,0,0,1,7,3a.27.27,0,0,1,.17.13c.07.12.09.15-.11.43h.06L7,3.79l-.24.13L7,3.79,7.12,4l-.35.21C6.33,4.5,6.23,4.56,6.15,4.56Z"/>    </g>    <g>      <path class="a" d="M30.74,14c-.08,0-.11-.05-.17-.15s-.12-.21.3-.62c-.71.42-.74.41-.86.38a.28.28,0,0,1-.17-.13c-.13-.22-.13-.22,1.43-1.54.54-.46,1.3-1.1,2-1.68l-.82.49c-1.14.69-1.14.68-1.26.65a.27.27,0,0,1-.17-.13c-.14-.24-.14-.24,1.67-1.77l.43-.37c-.41.23-.45.22-.54.2a.27.27,0,0,1-.17-.13c-.11-.19-.12-.21.55-.81l-1.26.78c-.77.48-.77.48-.89.45a.27.27,0,0,1-.17-.13c-.09-.16-.09-.16.82-1.45l.06-.08c-1,.55-2.56,1.54-3.21,1.94s-.66.41-.78.38l.06-.26.23-.14-.23.14-.12-.24L28,9.42C31.79,7.06,32.1,7,32.31,7a.31.31,0,0,1,.18.14c.09.16.09.16-.62,1.17l-.08.11c2.52-1.56,2.72-1.61,2.9-1.56a.3.3,0,0,1,.18.13c.09.15.11.22-.26.57.51-.3.53-.3.63-.27a.27.27,0,0,1,.17.13c.14.24.16.28-1.8,1.95,1.12-.66,1.17-.65,1.29-.62a.28.28,0,0,1,.17.13c.15.25.19.33-2.59,2.71.58-.35.62-.33.72-.31a.27.27,0,0,1,.17.13c.11.2.11.2-.7.91l-.48.41.06.09a.27.27,0,0,1-.1.37l0,0-.56.33A2.75,2.75,0,0,1,30.74,14Z"/>      <path class="a" d="M28.14,19.74h-.07a.27.27,0,0,1-.16-.13c-.08-.14-.09-.15.48-1.18l-.51.3c-.56.34-.56.34-.68.31A.27.27,0,0,1,27,18.9c-.11-.19-.09-.22.81-1.48-.79.5-.87.54-1,.5a.28.28,0,0,1-.17-.13c-.1-.18-.11-.18.89-1.73-1.11.64-1.13.61-1.25.42s-.1-.17.64-1.48l.35-.63-.36.22c-.76.46-.76.46-.89.43a.27.27,0,0,1-.17-.13c-.09-.16-.12-.21.45-.84-.37.22-.39.22-.49.19a.27.27,0,0,1-.17-.12c-.09-.14-.09-.14.44-1l.56-1-.59.36c-.53.33-.53.33-.65.3a.27.27,0,0,1-.17-.13c-.1-.17-.08-.19.31-.65l.52-.62-.37.23c-.42.27-.43.27-.54.24a.27.27,0,0,1-.17-.13c-.12-.21-.17-.29,1.51-1.59C25.05,11,25,11,24.88,11a.28.28,0,0,1-.17-.13c-.07-.13-.11-.19.1-.37-1,.61-1.13.65-1.29.61a.3.3,0,0,1-.18-.13c-.13-.22-.12-.3,1.21-1.46l-.86.54c-2.08,1.32-2.26,1.41-2.45,1.36a.29.29,0,0,1-.18-.13.24.24,0,0,1,0-.34c-.23.12-.27.11-.34.09a.27.27,0,0,1-.17-.13c-.08-.15-.09-.15.35-.85-.26.14-.29.14-.37.12l.07-.26.23-.13-.23.13-.11-.25.93-.54c.13-.08.28-.17.43,0l0,.06c.08.15.09.16-.36.88l1-.57c1.5-.9,1.5-.9,1.64-.86a.27.27,0,0,1,.17.13c.06.1.09.16,0,.26C26,8,26.26,7.85,26.46,7.9a.32.32,0,0,1,.18.14c.13.23.13.23-1.19,1.38l-.08.07.36-.23c2.25-1.43,2.51-1.55,2.73-1.5a.31.31,0,0,1,.18.14.23.23,0,0,1,0,.32c1.34-.8,1.46-.83,1.61-.79a.29.29,0,0,1,.17.13c.12.21.12.21-1,1C28.91,9,28,9.68,27.18,10.3a.29.29,0,0,1,.11.1c.09.16.12.22-.54,1,.48-.28.52-.26.62-.24a.28.28,0,0,1,.17.13c.1.18.1.18-.91,1.91,1-.6,1-.6,1.15-.56a.27.27,0,0,1,.17.13c.11.18.11.18-.5.83l0,0c.45-.26.48-.25.58-.23a.28.28,0,0,1,.17.13c.09.16.09.16-.76,1.69l-.21.38.8-.47c.32-.19.41-.24.56-.09l0,.06c.09.15.09.15-.49,1l-.47.73,0,0c.9-.57,1-.6,1.12-.57a.29.29,0,0,1,.17.13c.1.18.1.18-.65,1.23l-.18.26c.85-.51.88-.5,1-.47a.27.27,0,0,1,.17.13c.08.14.08.14-.27.76l-.22.4c.26-.15.29-.14.38-.12l-.07.26-.23.13.23-.13.1.25-.58.34C28.3,19.69,28.21,19.74,28.14,19.74Z"/>      <path class="a" d="M24.39,8.66h-.07a.27.27,0,0,1-.17-.13c-.08-.14-.1-.18.3-.61-.18.09-.23.09-.31.07A.28.28,0,0,1,24,7.86c-.09-.16-.11-.19.71-1.81l.07-.14-.06,0c-.8.5-.85.53-1,.49a.28.28,0,0,1-.17-.13c-.09-.16-.08-.19.25-.6h0l.07-.26.23-.14-.23.14-.1-.25.52-.3c.42-.25.57-.34.71-.1s.08.19-.08.42c.39-.24.45-.25.56-.22a.28.28,0,0,1,.17.13c.09.15.09.15-.44,1.18l-.41.83.3-.19c.82-.52.86-.54,1-.5a.28.28,0,0,1,.17.13c.08.15.1.18-.34.65.25-.14.27-.13.36-.11l-.07.26-.23.14.23-.14.09.25L25.53,8C24.66,8.56,24.5,8.66,24.39,8.66Z"/>      <path class="a" d="M31.77,12.86H31.7a.27.27,0,0,1-.16-.12c-.12-.2-.12-.2,1-1.27.46-.45,1.19-1.14,1.8-1.75-.27.14-.32.13-.4.11a.28.28,0,0,1-.17-.13c-.11-.19-.13-.22.77-1.06l-.05-.07c-.06-.11-.06-.11.08-1l.05-.35-.33.2-.44.26c-.17.1-.34.2-.47.11l-.83-.17c-.81-.16-1.19-.23-1.38-.29-.28.13-1.15.67-1.64,1-.8.49-.8.49-.93.46a.27.27,0,0,1-.17-.12s0,0-.22-.54l-.05-.14-.8.5c-.93.59-1,.62-1.15.58A.28.28,0,0,1,26,8.85c-.06-.1-.09-.15.18-1.43-.44.26-.45.26-.56.23a.27.27,0,0,1-.16-.12c-.08-.13-.09-.14.16-.55a.2.2,0,0,1-.18,0,.27.27,0,0,1-.16-.12c-.08-.14-.06-.2.24-.83-.23.13-.35.15-.47,0s-.08-.16.07-.5c-.26.16-.31.16-.41.14a.27.27,0,0,1-.17-.13.27.27,0,0,1,.1-.37l.07,0,.48-.29c.45-.27.45-.28.58-.25a.27.27,0,0,1,.17.13c.07.12,0,.17-.07.42l0,.09c.2-.11.24-.12.33-.09a.27.27,0,0,1,.17.13c.08.14.05.23-.23.82.23-.13.26-.13.34-.1a.27.27,0,0,1,.17.13c.07.12.08.15-.15.53a.2.2,0,0,1,.18,0,.27.27,0,0,1,.15.1c.07.1.06.17,0,.33-.12.57-.19.94-.24,1.18l.46-.29c1.06-.67,1.14-.7,1.29-.66a.29.29,0,0,1,.17.13l.17.43.08.21.45-.27c1.81-1.11,1.84-1.09,2-1.06l.08,0c.15.05.85.19,1.32.28l.84.17L34,6.9c1-.61,1-.61,1.17-.37s.07.11-.08,1.06l0,.32.3-.17c.48-.28.58-.34.73-.13s.12.21-.38.66h.09a.27.27,0,0,1,.17.13c.14.24.18.31-2.38,2.79.36-.2.4-.19.49-.17a.28.28,0,0,1,.17.13.27.27,0,0,1-.1.37l-.08,0c-.19.09-1.1.64-1.55.9S31.85,12.86,31.77,12.86Z"/>      <path class="a" d="M30.68,14.43H30.6a.28.28,0,0,1-.17-.13c-.06-.1,0-.16,0-.31l0-.18c-.5.32-.57.35-.71.32a.28.28,0,0,1-.17-.13c-.12-.21-.13-.22,1.48-2.34l-.7.43c-.73.45-.73.45-.85.42a.27.27,0,0,1-.17-.13c-.12-.2,0-.32.23-.47L31,10.77H31a.28.28,0,0,1-.17-.13,4.87,4.87,0,0,1-.22-1.1l0-.22-.83.51c-1.53,1-1.6,1-1.77.93a.29.29,0,0,1-.17-.13.27.27,0,0,1,.22-.4c.2-.09.94-.55,1.43-.85,1.22-.76,1.23-.75,1.37-.72a.28.28,0,0,1,.17.13c0,.06,0,.06.14.67l.11.64.45-.28C32.84,9.07,33,9,33.12,9.06a.29.29,0,0,1,.18.13c.11.19.17.29-1.18,1.39a.29.29,0,0,1,.14.12c.1.17.1.17-.68,1.19L30.73,13A.27.27,0,0,1,31,13a.27.27,0,0,1,.17.13c.05.09.07.12,0,.53L32.16,13c.42-.26.42-.26.54-.23l-.07.26-.23.13.23-.13.12.24-.31.19C31.06,14.3,30.81,14.43,30.68,14.43Z"/>      <path class="a" d="M28.72,18.89a.23.23,0,0,1-.2-.13c-.09-.15-.08-.17.29-1.06l0-.11c-.23.14-.41.24-.55,0s-.08-.15.23-.86c-.21.11-.25.11-.33.09a.28.28,0,0,1-.17-.13c-.07-.13-.08-.14.28-1.31-.35.21-.36.21-.47.18a.27.27,0,0,1-.17-.13c-.07-.13-.08-.14.25-.89-.21.12-.25.12-.34.1a.27.27,0,0,1-.17-.13c-.06-.12-.06-.12.11-.53l.19-.47c-.29.17-.32.16-.41.14a.27.27,0,0,1-.18-.14c0-.1,0-.14,0-.32.15-.48.25-.81.31-1.05-.39.24-.4.24-.52.21a.27.27,0,0,1-.17-.12c-.08-.14-.07-.16.19-.61a.28.28,0,0,1-.22,0,.28.28,0,0,1-.17-.13c-.06-.11-.06-.12.06-.48l.29-.9c-.23.14-.31.17-.41.14a.28.28,0,0,1-.17-.13.27.27,0,0,1,.1-.37l.08,0,.35-.21c.38-.24.43-.27.56-.24a.27.27,0,0,1,.17.13c.07.12.09.15-.31,1.36.3-.18.32-.19.44-.17a.27.27,0,0,1,.17.13c.07.12.08.18-.16.6a.23.23,0,0,1,.19,0,.27.27,0,0,1,.17.13c.07.11.09.16-.27,1.36l.1-.06c.22-.13.25-.15.37-.12a.27.27,0,0,1,.16.12c.07.12.09.15-.26,1,.25-.15.27-.15.37-.12a.27.27,0,0,1,.17.13c.07.12.07.12-.19.73l-.08.19c.25-.15.28-.14.37-.12a.27.27,0,0,1,.17.13c.06.11.06.11-.15.81l-.16.53.21-.13c.08-.05.3-.19.45,0s.08.14-.15.67l-.09.21c.2-.11.25-.12.34-.09a.28.28,0,0,1,.17.13c.08.15.08.16-.3,1.06l0,.06c.34-.2.38-.19.47-.17a.27.27,0,0,1,.17.13.27.27,0,0,1-.1.37l-.09,0c-.13.06-.56.33-.7.42A.68.68,0,0,1,28.72,18.89Z"/>      <path class="a" d="M28.39,20.24h-.07a.27.27,0,0,1-.16-.12c-.09-.15-.1-.18.22-.53l-.19.12c-.6.38-.6.38-.73.35a.27.27,0,0,1-.17-.12c-.06-.09-.06-.09,0-.49l0-.22h0c-.38.24-.42.27-.54.23a.27.27,0,0,1-.17-.13c-.07-.12-.08-.15.23-1.1h0c-.24.14-.45.26-.59,0s-.07-.17.25-1.19l0-.15L26.4,17c-.17.11-.22.14-.33.11A.27.27,0,0,1,25.9,17c-.06-.11-.06-.11.12-.59l.17-.44c-.3.17-.32.17-.41.14a.27.27,0,0,1-.16-.12c-.08-.14-.07-.18.27-1-.22.13-.27.14-.37.12a.28.28,0,0,1-.17-.13c-.07-.12-.07-.18.13-.52a.2.2,0,0,1-.13,0,.27.27,0,0,1-.17-.13c-.08-.14-.07-.2.29-1.12-.32.19-.34.18-.43.15a.27.27,0,0,1-.16-.12c-.07-.12-.08-.13.29-1.53-.41.25-.43.25-.54.22a.27.27,0,0,1-.17-.13c0-.06,0-.06-.05-.53,0-.17,0-.45,0-.68l-1.46.86c-.85.51-.85.51-1,.48a.28.28,0,0,1-.16-.12l-.15-.24-.28-.46-.09.06c-.66.4-.67.4-.8.37a.27.27,0,0,1-.17-.13c-.06-.11-.07-.14.1-.48-.14.09-.18.1-.28.08a.27.27,0,0,1-.17-.13c-.09-.15-.09-.15.62-1.28h0c-.18.11-.23.14-.34.11l.07-.26-.13-.24.12-.07c1-.61,1-.6,1.14-.57a.28.28,0,0,1,.17.13c.09.15.09.15-.51,1.1l-.12.19a.22.22,0,0,1,.12,0,.28.28,0,0,1,.17.13c.06.11.07.15-.08.47.25-.15.27-.15.37-.12a.27.27,0,0,1,.17.13l.41.68v0l.52-.31c1.86-1.12,1.88-1.12,2-1.08a.28.28,0,0,1,.17.13c0,.08.05.09.1,1.18l.08,0c.51-.31.51-.31.63-.28a.27.27,0,0,1,.16.12c.06.1.06.1-.11.74l-.21.81c.43-.25.44-.25.55-.22a.27.27,0,0,1,.16.12c.08.13.07.15-.22.9l-.09.22c.31-.19.33-.18.43-.16a.27.27,0,0,1,.17.13c.08.13.07.16-.15.53a.24.24,0,0,1,.16,0,.27.27,0,0,1,.17.13c.07.13.07.13-.23.85l-.07.16c.29-.17.31-.16.4-.14a.27.27,0,0,1,.16.12c.07.11.07.12-.27,1,.24-.13.29-.13.38-.11a.28.28,0,0,1,.17.13c.07.12.07.12-.2,1l-.11.34.06,0c.32-.19.32-.19.44-.16a.27.27,0,0,1,.16.12c.07.11.07.11-.1.62l-.16.49c.28-.17.36-.2.47-.17a.28.28,0,0,1,.17.13c.05.09.06.11,0,.67,1.6-1,1.72-1,1.89-1a.29.29,0,0,1,.18.13c.1.17.12.2-.48.82l.07.09a.27.27,0,0,1-.09.37l-.05,0-.45.27C28.56,20.18,28.46,20.24,28.39,20.24Z"/>      <path class="a" d="M21.65,10h-.06l.07-.26.23-.13-.23.13-.09-.25c.17-.08,2-1.13,2.63-1.52s.62-.36.76-.13.09.15-.26.81a.21.21,0,0,1,.19,0l-.07.26L24.59,9l.23-.14.11.25-.32.19c-.53.32-.53.32-.65.29a.27.27,0,0,1-.17-.12c-.08-.14-.08-.14.27-.8A13.47,13.47,0,0,1,21.65,10Z"/>      <path class="a" d="M23.8,8.39h-.08a.27.27,0,0,1-.16-.12c-.07-.12-.09-.14.15-.55a.25.25,0,0,1-.17,0,.28.28,0,0,1-.17-.13c-.11-.2-.13-.23,1.13-2.08l.09-.13-.15.1c-1.09.68-1.14.7-1.29.66A.28.28,0,0,1,23,6c-.11-.19-.1-.21.52-.84l0-.18.23-.14L23.54,5l-.1-.25L24,4.4c.46-.27.46-.27.57-.24a.27.27,0,0,1,.16.13c.07.12.08.2-.09.42.62-.38.68-.39.8-.36a.28.28,0,0,1,.17.13c.1.17.1.17-.7,1.35l-.61.9a.24.24,0,0,1,.17,0,.27.27,0,0,1,.17.13c.07.12.08.14-.16.55a.2.2,0,0,1,.18,0l-.07.26-.23.14.23-.14.11.25-.34.2C24,8.33,23.87,8.39,23.8,8.39Z"/>    </g>    <g>      <path class="a" d="M44.2,18.68h-.07a.29.29,0,0,1-.17-.13c-.12-.21-.16-.28.91-1-1.24.77-1.25.76-1.37.73a.27.27,0,0,1-.17-.13c-.07-.13-.08-.13.42-1.17l-.27.17c-.19.12-.23.14-.34.11l.07-.26-.13-.24.12-.07c1-.65,1.07-.64,1.21-.61a.28.28,0,0,1,.17.13c.07.13.07.13-.32,1l-.08.16.88-.55c6-3.71,7.14-4.29,7.48-4.21a.35.35,0,0,1,.19.14c.12.21.18.3-1,1.1a.27.27,0,0,1,.15.12c.15.26.18.32-2,1.78l0,.06a.27.27,0,0,1-.1.37l-.1,0c-.25.11-1.51.87-2.2,1.28-1,.62-1,.62-1.15.59a.27.27,0,0,1-.16-.13c-.07-.13-.11-.2.12-.41C44.73,18.51,44.37,18.68,44.2,18.68Z"/>      <path class="a" d="M48.61,14.36h-.06a.27.27,0,0,1-.17-.13c-.14-.25-.18-.31,1.71-1.59L50,12.57c-.14-.25-.16-.28,2.53-2.67-1.06.6-1.09.55-1.19.37s-.1-.18,1-1.69l.53-.73L52,8.41c-1.19.72-1.2.73-1.33.69A.27.27,0,0,1,50.47,9c-.1-.17-.12-.22.54-.92l-.6.36c-1.19.72-1.19.72-1.32.68A.27.27,0,0,1,48.93,9c-.05-.09-.05-.09.07-.77l.15-.83c-.53.29-1.47.88-2,1.2-.89.55-.89.55-1,.52A.27.27,0,0,1,46,9c-.09-.16-.07-.19.29-.63l.56-.69c-.59.35-1.34.82-1.71,1.05-.69.43-.69.43-.81.4A.27.27,0,0,1,44.12,9c-.1-.17-.12-.2.62-1.12l-.68.41c-1.43.87-1.43.87-1.58.84A.28.28,0,0,1,42.32,9c-.08-.14-.11-.19.15-.43-.9.56-1,.59-1.15.56A.29.29,0,0,1,41.14,9c-.11-.18-.09-.25.64-1.11l-.47.29C40,9,39.92,9,39.76,9a.29.29,0,0,1-.17-.13c-.07-.12-.1-.18,0-.34-.21.11-.25.1-.33.08a.27.27,0,0,1-.17-.13c-.08-.15-.09-.15.34-.86a.2.2,0,0,1-.16,0l.07-.26.23-.13-.23.13-.11-.25.65-.38c.2-.11.24-.14.35-.1a.27.27,0,0,1,.16.12c.08.14.09.16-.33.86l.47-.28c1.12-.67,1.12-.67,1.25-.64a.27.27,0,0,1,.17.13c.06.1.09.16,0,.28.68-.42.81-.45.94-.41a.29.29,0,0,1,.18.13c.11.19.11.19-.63,1.06l-.05.06.35-.22c1.58-1,1.74-1.07,1.92-1a.3.3,0,0,1,.18.13c.07.12.1.18-.06.36.9-.54.94-.53,1.07-.49a.29.29,0,0,1,.17.13c.09.17.08.18-.28.63l-.33.41c1.89-1.17,2.07-1.21,2.24-1.17a.3.3,0,0,1,.18.13c.09.16.12.21-.5,1,1.85-1.14,2-1.18,2.17-1.14a.29.29,0,0,1,.18.13c.07.11.07.11-.18,1.49v0L50.13,8c2.2-1.33,2.23-1.32,2.39-1.28a.28.28,0,0,1,.17.13c.11.19.11.19-.54.86l0,0c1.52-.92,1.55-.91,1.7-.87A.28.28,0,0,1,54,7c.11.19.11.19-1.16,1.94l-.31.42L54,8.47c.72-.42.74-.43.88-.22s.1.17-.09.39h0c-.19.21-.58.56-1.35,1.25L52,11.11c1.53-1,1.68-1,1.86-1a.3.3,0,0,1,.18.13c.11.19.15.25-.59.77h.05a.28.28,0,0,1,.17.13.27.27,0,0,1-.1.37.26.26,0,0,1-.12,0c-.35.14-2.35,1.34-3.43,2A6.56,6.56,0,0,1,48.61,14.36Z"/>      <path class="a" d="M52.25,4.21h-.07A.28.28,0,0,1,52,4.08c-.09-.15-.09-.16.31-.8-1.48.92-1.61,1-1.77.91a.3.3,0,0,1-.18-.13c-.1-.17-.11-.19.68-1l-1.17.72c-.72.45-.72.44-.84.42a.27.27,0,0,1-.17-.13c-.06-.11-.08-.14.31-1.58-.47.27-1.19.71-1.68,1-1.18.73-1.18.73-1.32.69A.27.27,0,0,1,46,4.05c-.1-.18-.1-.18.64-1.09l.05-.07-.29.17c-1.92,1.16-1.93,1.15-2.08,1.11a.28.28,0,0,1-.17-.13c-.08-.15-.11-.18.34-.62-1.19.74-1.33.79-1.5.75a.29.29,0,0,1-.18-.13c-.06-.11-.07-.12.1-1.38l0-.21-.6.37c-1.05.66-1.1.67-1.24.64a.28.28,0,0,1-.17-.13c-.09-.16-.08-.19.29-.66l.06-.24.23-.14-.23.14-.1-.25.48-.28c.39-.23.39-.23.5-.2a.27.27,0,0,1,.16.13c.07.12.07.19-.1.43.9-.56,1-.57,1.09-.54a.28.28,0,0,1,.17.13c.06.1.06.1-.05.89,0,.22-.07.51-.1.75.38-.22,1-.59,1.41-.87,1.51-.95,1.54-.94,1.69-.9a.28.28,0,0,1,.17.13c.09.16.11.19-.44.72,1.46-.88,1.46-.88,1.61-.84a.27.27,0,0,1,.17.13c.1.18.1.22-.6,1.08,2-1.21,2.09-1.25,2.27-1.21a.29.29,0,0,1,.18.13.32.32,0,0,1,0,.27c-.16.58-.26,1-.33,1.24l.1-.06c2.63-1.62,2.71-1.61,2.88-1.57a.29.29,0,0,1,.17.13c.1.17.11.19-.64,1l.35-.22c.69-.43.69-.43.81-.4a.27.27,0,0,1,.17.13c.09.15.08.2-.33.85a.2.2,0,0,1,.15,0l-.06.26-.23.14.23-.14.11.25-.28.17C52.47,4.14,52.35,4.21,52.25,4.21Z"/>      <path class="a" d="M49.49,15.84h-.07a.27.27,0,0,1-.17-.13c-.15-.26-.16-.28,2.87-2.93a.27.27,0,0,1-.15-.12c-.11-.19-.15-.26,1.08-1.47a.28.28,0,0,1-.13-.12c-.11-.2-.14-.24.94-1.49a.19.19,0,0,1-.14,0,.27.27,0,0,1-.16-.13c-.11-.19-.06-.28.63-1.22h0A.28.28,0,0,1,54,8.08c-.06-.1-.06-.11.1-.72-.61.37-.64.37-.76.34a.27.27,0,0,1-.17-.13c-.06-.11-.07-.14.06-.4l-.15.1c-.64.4-.64.4-.77.37a.27.27,0,0,1-.17-.13c-.06-.1-.06-.1.08-.58l-.67.41c-.53.33-.53.33-.65.3a.27.27,0,0,1-.12-.06l-.62-.42-.61-.41-.6.37c-.84.53-.91.56-1.07.53a.28.28,0,0,1-.17-.13l-.42-.74-.66.41c-.75.47-.79.49-.93.46a.28.28,0,0,1-.17-.13c0-.07,0-.09-.08-.63v0L45.18,7c-1,.64-1.09.67-1.25.63a.28.28,0,0,1-.17-.13,3.33,3.33,0,0,1-.18-.66c-1.34.84-1.39.82-1.53.79a.29.29,0,0,1-.17-.13c0-.05,0-.06-.11-.56l0-.1-.2.12c-1.08.65-1.08.65-1.23.62a.28.28,0,0,1-.17-.13.27.27,0,0,1,.1-.37l.08,0c.13-.06.64-.37.94-.55.62-.38.62-.37.74-.35a.27.27,0,0,1,.17.13c0,.06,0,.06.11.58l0,.11c.32-.18.83-.5,1-.63.36-.22.36-.22.47-.2a.27.27,0,0,1,.15.1s0,0,.1.31l.1.42.72-.44c.68-.43.68-.43.81-.39a.27.27,0,0,1,.17.13c0,.07,0,.07.08.55V7l.36-.22c.93-.58,1-.6,1.12-.56a.28.28,0,0,1,.17.13L48,7l.6-.37c.8-.5.84-.53,1-.49a.28.28,0,0,1,.12.07l.69.47.52.35.28-.17c1.26-.78,1.29-.78,1.44-.74a.28.28,0,0,1,.17.13c.05.09.06.11-.06.52.93-.58,1-.59,1.12-.56a.28.28,0,0,1,.17.13c.06.1.08.13,0,.38h0c.41-.25.41-.25.53-.22a.27.27,0,0,1,.17.13c.06.11.06.11-.1.7v0c.3-.19.35-.21.47-.18a.27.27,0,0,1,.17.13c.11.18.08.22-.58,1.12l0,0c.38-.22.4-.21.49-.19a.27.27,0,0,1,.17.13c.1.17.1.17-.37.7l-.75.87c.42-.23.45-.18.55,0s.12.21-.49.8l-.6.58c.18-.09.23-.08.31-.06a.29.29,0,0,1,.17.13c.12.21.12.21-1.57,1.7l-1.2,1c1-.62,1-.61,1.18-.57a.28.28,0,0,1,.17.13.27.27,0,0,1-.1.37l-.09,0c-.18.08-.94.54-1.5.88C49.82,15.71,49.61,15.84,49.49,15.84Z"/>      <path class="a" d="M44.42,17.07h-.07a.29.29,0,0,1-.18-.13.27.27,0,0,1,.1-.37.25.25,0,0,1,.14,0c.34-.13,2-1.12,3-1.79,2.16-1.32,2.18-1.32,2.34-1.28a.28.28,0,0,1,.17.13.27.27,0,0,1-.1.37l-.1,0c-.21.1-1.18.69-2,1.21C45.08,16.83,44.63,17.07,44.42,17.07Z"/>      <path class="a" d="M43.76,19h-.07a.27.27,0,0,1-.17-.14.43.43,0,0,1,0-.22l.08-.41-.07,0c-.4.26-.43.28-.57.24a.27.27,0,0,1-.17-.13c-.1-.16-.11-.19.69-1.78l0-.07c-.6.37-.66.4-.79.36a.28.28,0,0,1-.17-.13.27.27,0,0,1,.1-.37l.09,0c.11-.06.45-.26.67-.4.63-.39.65-.4.78-.37a.27.27,0,0,1,.17.13c.09.15.09.15-.41,1.13l-.37.74c.24-.15.31-.16.42-.14a.28.28,0,0,1,.17.13c0,.08.06.11,0,.6,1.28-.79,1.31-.78,1.45-.74h0l.39.09c.55.13.83.2,1,.24.23-.11.91-.54,1.38-.83,1.23-.77,1.27-.79,1.43-.75a.28.28,0,0,1,.17.13.27.27,0,0,1-.1.37l-.1,0c-.16.07-.68.41-1.11.68-1.44.91-1.57,1-1.75.92l-.07,0c-.12,0-.65-.17-.95-.24L45.53,18c-.21.1-.85.5-1.17.69S43.84,19,43.76,19Z"/>      <path class="a" d="M49.43,13h-.07a.27.27,0,0,1-.17-.13c-.13-.22-.16-.27,2-2.66h-.09a.27.27,0,0,1-.16-.13c-.06-.1-.06-.11.07-.95l0-.26-.78.47c-.5.31-.5.31-.62.28a.27.27,0,0,1-.17-.13c0-.05,0-.06-.12-.65-1.33.82-1.38.81-1.51.78a.28.28,0,0,1-.17-.13l-.53-.56L47,8.73l-.81.48c-.73.44-.73.44-.85.4a.27.27,0,0,1-.16-.12A2.82,2.82,0,0,1,45,8.81L44.74,9c-1.12.68-1.13.68-1.27.64a.28.28,0,0,1-.17-.13,1.84,1.84,0,0,1-.11-.27L43,8.79h0c-1.41.86-1.43.85-1.58.82a.28.28,0,0,1-.12-.07l-.07-.07-.79-.74L40,9c-.59.36-.59.36-.71.33a.27.27,0,0,1-.17-.12c-.07-.11-.06-.13.08-.53v0c-.26.15-.32.17-.43.15a.28.28,0,0,1-.17-.13c-.08-.13-.07-.14.18-.58l.56-1c-.27.16-.34.19-.45.16a.28.28,0,0,1-.17-.13.27.27,0,0,1,.1-.37l.09,0,.47-.29c.48-.31.54-.34.67-.3a.28.28,0,0,1,.17.13c.09.15.11.19-.66,1.56a.23.23,0,0,1,.2,0,.27.27,0,0,1,.16.13c.06.1.07.15-.08.55.59-.36.62-.37.74-.33a.27.27,0,0,1,.17.13l.81.75c.28-.16.91-.54,1.18-.7s.37-.22.48-.2a.27.27,0,0,1,.17.13s0,0,.28.71l.78-.47c.67-.41.67-.4.79-.37a.27.27,0,0,1,.17.13s0,0,.1.4l.06.27.32-.19C47.13,8,47.13,8,47.28,8.25h0l.28.3L48,9c.21-.11.64-.37,1.27-.76.24-.15.26-.17.38-.14a.27.27,0,0,1,.16.12c0,.05,0,.05.08.41l0,.26.07,0c1.27-.79,1.3-.78,1.45-.74a.28.28,0,0,1,.17.13c.06.1.06.11-.07.95l0,.21c.86-.53.9-.52,1-.49a.28.28,0,0,1,.17.13c.1.18.1.18-.71,1.07-.35.38-.95,1-1.45,1.61.82-.49.87-.48,1-.45a.28.28,0,0,1,.17.13.27.27,0,0,1-.1.37l-.11,0c-.23.1-1.2.7-1.58.93S49.5,13,49.43,13Z"/>      <path class="a" d="M52.75,3.1c-.08,0-.12,0-.18-.14s0,0-.41-1l-.05-.13-.52.31c-.94.57-.94.57-1.08.54a.28.28,0,0,1-.13-.08l-.27-.24-.62-.57-1,.57c-.57.34-.57.34-.68.31a.27.27,0,0,1-.17-.13l-.41-.72-.34.2c-1.12.68-1.13.68-1.27.64a.27.27,0,0,1-.17-.13c-.07-.11-.07-.13.09-.51l-.68.42c-.4.25-.4.25-.51.22a.27.27,0,0,1-.17-.13L43.91,2l-.09-.18c-.22.12-.6.35-1.16.7-.27.17-.29.18-.4.15l.06-.26.23-.14-.23.14-.13-.24.18-.11c1.44-.9,1.49-.89,1.63-.85a.28.28,0,0,1,.17.13l.21.41.15.29.05,0c1.36-.85,1.4-.84,1.54-.8a.28.28,0,0,1,.17.13c.06.11.07.14-.07.48l.39-.24c.66-.4.66-.4.78-.37a.27.27,0,0,1,.17.13l.41.71.24-.14c1.22-.74,1.23-.74,1.37-.7a.27.27,0,0,1,.17.13l.7.63.15.13.69-.41c.87-.53.87-.53,1-.49a.27.27,0,0,1,.17.13l.18.44.27.67.18-.11c.51-.3.51-.3.62-.27l-.07.26-.23.14.23-.14.12.24-.4.23A1.83,1.83,0,0,1,52.75,3.1Z"/>      <path class="a" d="M42.1,3.91a.22.22,0,0,1-.2-.13A.27.27,0,0,1,42,3.41h0l.18-.11a.37.37,0,0,1,.32,0l-.27.47.14-.23.13.23A1,1,0,0,1,42.1,3.91Z"/>      <path class="a" d="M52.23,4.72h-.08A.27.27,0,0,1,52,4.58a.22.22,0,0,1,0-.26c-.7.41-.75.41-.86.37a.28.28,0,0,1-.17-.13l-.33-.38-.31-.36-.19.12c-1.22.76-1.3.78-1.45.74a.28.28,0,0,1-.17-.13c0-.08-.05-.09,0-.61l-.85.51c-.41.25-.41.25-.52.22A.27.27,0,0,1,47,4.56h0s-.32-.24-1-.78c-.21.11-.65.39-.91.55-.63.39-.63.39-.75.36a.27.27,0,0,1-.17-.12s0,0-.11-.48l0-.2-.4.24c-1,.6-1,.6-1.14.57a.27.27,0,0,1-.18-.14h0L42,4.26h0l-.08,0c-.38.24-.44.27-.57.24a.28.28,0,0,1-.17-.13c-.11-.19-.13-.22,1.07-2l.1-.15L42,2.46c-1.26.79-1.31.81-1.47.77a.28.28,0,0,1-.17-.13c-.11-.18-.1-.2.48-.8l.05-.2L41.11,2l-.23.13-.1-.25.63-.37c.48-.29.48-.29.59-.26a.27.27,0,0,1,.17.13c.07.13.08.2-.11.43.94-.58,1-.6,1.15-.56a.28.28,0,0,1,.17.13c.1.17.1.17-.66,1.32l-.62,1h.06a.27.27,0,0,1,.17.12l.13.18.12.16.72-.43c.81-.49.81-.49.94-.45a.27.27,0,0,1,.17.13,2.49,2.49,0,0,1,.15.64V4l.22-.13c1.13-.7,1.16-.69,1.3-.66l.1.05h0l1.08.83L47.38,4c1.36-.84,1.39-.83,1.54-.79a.28.28,0,0,1,.17.13c.05.08.05.08,0,.6h0l.76-.47c.49-.3.48-.3.61-.27a.27.27,0,0,1,.17.13l.42.49.24.28c.3-.16,1-.58,1.42-.85,1-.65,1-.65,1.19-.61a.27.27,0,0,1,.17.13.27.27,0,0,1-.05.34l-.3.27a.28.28,0,0,1,.16.13.27.27,0,0,1-.1.37l-.1,0c-.14.07-.57.34-.82.49C52.41,4.66,52.31,4.72,52.23,4.72Z"/>    </g>    <g>      <path class="a" d="M61.12,18.73h-.07a.3.3,0,0,1-.17-.13c-.12-.21-.16-.28,1-1.06-1.43.89-1.43.89-1.56.85a.27.27,0,0,1-.17-.13c-.09-.15-.09-.16.67-1.33l-.39.24c-.21.13-.4.25-.55,0a.27.27,0,0,1,.07-.37h0l.16-.1c1.35-.84,1.39-.83,1.53-.8a.28.28,0,0,1,.17.13c.09.15.09.15-.55,1.13l-.09.13.71-.44c6.17-3.84,7.42-4.47,7.78-4.38a.35.35,0,0,1,.19.14c.13.23.19.32-1.45,1.4a.27.27,0,0,1,.12.11.27.27,0,0,1-.1.37l-.08,0c-.22.1-1.36.79-2.46,1.46C62,18.41,61.36,18.73,61.12,18.73Z"/>      <path class="a" d="M64.74,14.68h0a.27.27,0,0,1-.16-.13c-.16-.27-.16-.28,2.92-2.35a.27.27,0,0,1-.14-.12c-.13-.22-.17-.3,1.38-1.46h0a.27.27,0,0,1-.17-.13c-.12-.2-.12-.2,1.41-1.62l1.78-1.66L71,7.68c-.84.52-.84.52-1,.49A.27.27,0,0,1,69.82,8c-.12-.2-.12-.2.67-.86l1.25-1-.5.31c-.61.39-.61.38-.73.36a.27.27,0,0,1-.17-.13c-.11-.18-.13-.23.88-1.23-.76.46-.77.46-.9.42a.27.27,0,0,1-.17-.13c-.08-.14-.11-.18.15-.43-.91.57-1,.6-1.16.57A.29.29,0,0,1,69,5.74c-.1-.18-.09-.24.61-1.1L69,5c-1.37.87-1.44.9-1.61.86a.29.29,0,0,1-.17-.13c-.07-.11-.09-.18,0-.33-.83.49-.87.49-1,.46a.28.28,0,0,1-.17-.13c-.1-.17-.11-.18.57-1-1.92,1.13-1.94,1.13-2.07,1.09l.07-.26.23-.14-.23.14-.09-.25c.18-.08,2.12-1.22,2.75-1.59.48-.28.48-.28.6-.24a.27.27,0,0,1,.15.12c.1.17.11.19-.58,1l.5-.3c1.44-.87,1.44-.87,1.59-.83a.27.27,0,0,1,.17.13c.06.1.09.16,0,.27.68-.41.81-.44.94-.41a.3.3,0,0,1,.18.13c.1.18.1.18-.59,1l-.05.06.32-.2c1.51-1,1.64-1,1.82-1a.29.29,0,0,1,.18.13c.07.12.09.19-.07.37.43-.25.48-.24.57-.21a.28.28,0,0,1,.17.13c.11.18.11.18-.48.75l-.47.46c1-.59,1.1-.6,1.24-.57a.3.3,0,0,1,.18.13c.11.19.16.28-.93,1.24.32-.16.38-.15.46-.13a.29.29,0,0,1,.18.13c.14.25.16.27-2.67,2.91C72.2,8,72.24,8,72.38,8a.28.28,0,0,1,.17.13c.13.23.13.23-1.41,1.34.55-.31.6-.29.7-.27a.28.28,0,0,1,.17.13c.13.23.16.29-1.42,1.37.55-.31.57-.28.69-.12a.27.27,0,0,1-.05.38l0,0-.81.47C65.38,14.4,64.89,14.68,64.74,14.68Z"/>      <path class="a" d="M59.22,10.56h-.07a.27.27,0,0,1-.17-.13c-.13-.22-.19-.33,2.93-3l-2,1.23c-2.09,1.29-2.09,1.29-2.25,1.25a.28.28,0,0,1-.17-.13c-.17-.29-.17-.3,3.25-2.58-.64.36-.7.35-.79.32a.28.28,0,0,1-.17-.13c-.12-.21-.14-.25,1.71-1.54a.3.3,0,0,1-.16-.13c-.15-.26-.19-.33,2.75-3h0c-.34.2-.4.2-.5.17a.28.28,0,0,1-.17-.13c-.12-.2-.12-.2.66-1l.27-.26v0l0,0h0l-.05,0-.1-.25.49-.29c.41-.24.41-.24.52-.21a.27.27,0,0,1,.16.13c.07.12.08.2-.09.41.44-.26.5-.27.61-.24a.28.28,0,0,1,.17.13c.14.24.14.24-1.69,1.93-.48.44-1.13,1-1.66,1.56l1-.63c1.85-1.16,1.93-1.18,2.1-1.14a.29.29,0,0,1,.17.13c.1.17.13.22-.78.88.58-.34.63-.33.72-.3a.27.27,0,0,1,.17.13c.15.26.2.35-2.41,2.12a.35.35,0,0,1,.17,0,.31.31,0,0,1,.18.14c.1.2,0,.31-.18.44C62.16,7.86,61.09,8.8,60.45,9.4a.28.28,0,0,1,.12.11.27.27,0,0,1-.1.37l-.09,0c-.14.07-.62.36-.8.48S59.29,10.56,59.22,10.56Z"/>      <path class="a" d="M66.21,15.88h-.07a.27.27,0,0,1-.17-.13c-.16-.29-.18-.31,2.66-2.42l.24-.18a.28.28,0,0,1-.09-.09c-.14-.24-.15-.26,1.59-1.82a.27.27,0,0,1-.16-.13c-.12-.21-.12-.21,1.09-1.48l.3-.31a.21.21,0,0,1-.18,0,.27.27,0,0,1-.16-.12c-.1-.17-.1-.17.56-1,.26-.33.66-.85,1-1.3-.29.16-.34.15-.42.13a.28.28,0,0,1-.17-.13c-.09-.16-.12-.2.42-.76A.34.34,0,0,1,72.53,6c-.08-.14-.08-.16.32-1.22L73,4.44c-.42.25-.42.25-.54.22a.27.27,0,0,1-.16-.12h0l-.42-.39-.61-.58c-.24.13-.72.43-1,.6-.58.35-.58.35-.7.32a.27.27,0,0,1-.17-.13,3.42,3.42,0,0,1-.17-.58l0-.13L68.6,4c-.75.47-.82.52-1,.48a.28.28,0,0,1-.17-.13l-1-.77L66,3.87c-.71.42-.71.42-.83.39A.27.27,0,0,1,65,4.12c-.08-.16-.1-.18.34-.64-.22.1-.26.06-.35-.09s-.06-.28.72-1.17l.07-.08A.27.27,0,0,1,65.63,2c-.06-.11-.07-.15.09-.5-.25.15-.29.15-.39.13a.28.28,0,0,1-.17-.13.27.27,0,0,1,.1-.37l.07,0,.5-.3c.48-.29.48-.29.6-.26a.27.27,0,0,1,.17.13c.07.12,0,.18-.09.43l0,.08c.21-.12.24-.11.33-.09a.27.27,0,0,1,.17.13c.11.2,0,.32-.57,1,.27-.15.3-.14.37-.12a.27.27,0,0,1,.16.12c.09.16.11.19-.39.74h0l.1.05,1.08.84.57-.36C69.16,3,69.25,3,69.4,3a.28.28,0,0,1,.17.13,2.75,2.75,0,0,1,.15.5l.05.18L70,3.7c1.25-.77,1.27-.76,1.41-.72a.28.28,0,0,1,.17.13l.69.65.33.31.24-.14c.61-.36.61-.36.73-.33a.27.27,0,0,1,.17.13c.08.14.07.18-.33,1.25l-.12.31.17-.1c.49-.29.49-.29.6-.26a.27.27,0,0,1,.16.12c.11.18.11.18-.42.71h0a.27.27,0,0,1,.16.13c.11.2.14.24-1.39,2.23C72.84,8,72.87,8,73,8a.27.27,0,0,1,.17.13c.12.21.14.24-1.24,1.68a.3.3,0,0,1,.25,0,.28.28,0,0,1,.17.13c.13.22.13.22-1.29,1.49l-.15.14c.19-.11.23-.1.31-.08a.28.28,0,0,1,.17.13c.15.25.16.28-1.85,1.78a.38.38,0,0,1,.26,0,.3.3,0,0,1,.18.13.27.27,0,0,1-.1.37.29.29,0,0,1-.15,0c-.28.11-1.44.83-2.15,1.27C66.5,15.77,66.32,15.88,66.21,15.88Zm.06-12.46a.24.24,0,0,0,.09.09Z"/>      <path class="a" d="M61.83,16.87h-.08a.3.3,0,0,1-.18-.13.27.27,0,0,1,.1-.37.29.29,0,0,1,.14,0c.25-.1,1.24-.72,1.9-1.13,1.56-1,1.58-1,1.74-.93a.28.28,0,0,1,.17.13.27.27,0,0,1-.1.37l-.1,0c-.18.08-.86.51-1.42.86C62.32,16.7,62,16.87,61.83,16.87Z"/>      <path class="a" d="M62.61,19.05h-.07l-.08,0-.08,0-1-.59-.45.27c-.55.34-.56.34-.68.31a.27.27,0,0,1-.17-.13c-.06-.1-.05-.11.05-.48v0c-.32.19-.39.22-.5.19a.28.28,0,0,1-.17-.13c-.09-.15-.09-.15.3-.67l.86-1.16c-.82.52-.9.55-1,.51a.28.28,0,0,1-.17-.13.27.27,0,0,1,.1-.37l.11,0c.15-.07.59-.35.89-.54.83-.53.88-.55,1-.52a.28.28,0,0,1,.17.13c.1.18.13.23-1.1,1.88h0a.27.27,0,0,1,.17.13c.06.1.06.14-.05.54.57-.34.58-.35.71-.32a.28.28,0,0,1,.13.07c.05,0,.26.17,1,.61.48-.23,2.49-1.44,3.28-1.92s.78-.47.9-.44l-.06.26-.23.14.23-.14.12.24-.67.4C63.22,18.83,62.78,19.05,62.61,19.05Z"/>      <path class="a" d="M64.59,14.2h-.07a.28.28,0,0,1-.17-.13c-.17-.3-.12-.42,3-2.77l.34-.26-.07-.1c-.13-.22-.14-.25,1.84-2.43a.23.23,0,0,1-.18,0,.27.27,0,0,1-.17-.13c-.1-.16-.1-.16.56-1l.69-.92c-.23.13-.25.13-.34.11a.27.27,0,0,1-.16-.12s0,0-.13-.54l-.06-.3-.26.16c-1.14.69-1.15.69-1.29.65a.28.28,0,0,1-.17-.13c-.07-.11-.07-.13.1-.51l-.7.43c-.39.24-.53.33-.67.1l-.28-.58-.08-.18c-.22.12-.63.37-1.2.73-.28.18-.3.19-.42.16l.07-.26-.13-.24.19-.12c1.49-.93,1.54-.92,1.68-.88a.29.29,0,0,1,.17.13l.21.43.13.28,0,0c1.38-.86,1.43-.86,1.57-.82a.28.28,0,0,1,.17.13c.06.11.07.15-.08.48l.4-.24c.67-.4.66-.4.79-.37A.27.27,0,0,1,70,5a3.37,3.37,0,0,1,.17.74l0,.09h0c.87-.52.87-.52,1-.49a.27.27,0,0,1,.17.13c.11.19.13.22-1.11,1.86.38-.23.41-.22.51-.2a.27.27,0,0,1,.17.13c.11.18.11.18-.85,1.23L69,9.82c.61-.36.63-.35.73-.33a.27.27,0,0,1,.17.13c.16.28.16.29-2.22,2.1l-.58.44c1.07-.64,1.1-.64,1.23-.6a.28.28,0,0,1,.17.13.27.27,0,0,1-.1.37l-.09,0c-.2.09-1.07.62-1.71,1A8.86,8.86,0,0,1,64.59,14.2Z"/>      <path class="a" d="M62,7.85h-.07a.28.28,0,0,1-.17-.13c-.12-.21-.12-.21,1.14-1.37l.74-.69-.1-.24.69-.4c.2-.12.24-.14.35-.11a.27.27,0,0,1,.16.12c.12.2.13.22-.93,1.2L64.16,6C66,4.86,66,4.86,66.2,4.9a.27.27,0,0,1,.17.13.27.27,0,0,1-.1.37l-.08,0c-.18.09-1,.61-1.75,1A12.38,12.38,0,0,1,62,7.85Z"/>      <path class="a" d="M58.84,11.15h-.07a.29.29,0,0,1-.18-.13c-.05-.08-.05-.09,0-.6l-.43.26c-.3.19-.31.19-.42.17a.27.27,0,0,1-.17-.13c-.11-.19-.15-.26,1.61-2.32l-.82.5c-1.11.69-1.11.69-1.25.66A.27.27,0,0,1,57,9.43c-.15-.26-.15-.26,2.22-2l.48-.36h0a.28.28,0,0,1-.17-.13c-.12-.22-.13-.23,1.59-1.56A.27.27,0,0,1,61,5.27c-.16-.27-.2-.34,3-3.2h0c-.6.36-.66.37-.79.34A.28.28,0,0,1,63,2.29c-.12-.21-.12-.21.72-1l0,0,0-.13L64.07,1l-.24.13-.1-.25.67-.39c.53-.31.64-.38.78-.15s.08.21-.09.42c.73-.44.79-.45.92-.42a.28.28,0,0,1,.17.13c.14.24.14.24-1.85,2L62.74,3.94c.4-.24.45-.24.56-.22a.28.28,0,0,1,.17.13c.11.19.13.22-1,1.11h0a.27.27,0,0,1,.17.13c.15.26.18.31-2.25,2.11h0a.29.29,0,0,1,.17.13.33.33,0,0,1-.1.39c-.77.89-1.3,1.52-1.66,2a.25.25,0,0,1,.19,0,.28.28,0,0,1,.17.13c.05.09.05.09,0,.62v0c.42-.24,1.07-.64,1.43-.87.69-.43.69-.44.82-.4l-.07.26-.23.13.23-.13.11.25-.57.35C59.33,11,59,11.15,58.84,11.15Z"/>    </g>    <g>      <path class="a" d="M88.81,14.54h-.08a.28.28,0,0,1-.17-.13c-.07-.12-.07-.14.13-.55l.49-1-.29.19c-1.17.74-1.27.78-1.43.74a.29.29,0,0,1-.18-.13.27.27,0,0,1,.22-.41c.17-.08.72-.42,1.09-.66,1-.61,1-.65,1.19-.61a.28.28,0,0,1,.17.13c.08.14.1.18-.55,1.51l.14-.09c.61-.38.61-.38.74-.35l-.07.26-.23.13.23-.13.09.25-.49.3C89.09,14.44,88.93,14.54,88.81,14.54Z"/>      <path class="a" d="M80.13,18.73h-.08a.29.29,0,0,1-.18-.13c-.07-.12-.12-.21.09-.42-.82.47-.88.45-1,.42a.29.29,0,0,1-.17-.13c-.2-.35.12-.72,3.84-3.15-4.36,2.56-4.38,2.56-4.53,2.51a.27.27,0,0,1-.17-.13c-.19-.33-.26-.45,7.16-5.53H85a.29.29,0,0,1-.17-.13c-.07-.13-.07-.13.22-.8l.33-.77-.86.52c-.69.42-.69.42-.81.38a.27.27,0,0,1-.16-.13c-.09-.15-.09-.15.41-1l.14-.25c-1.28.78-1.3.77-1.44.74a.28.28,0,0,1-.17-.13c-.09-.16-.11-.19.29-.61l-.15.09c-.47.29-.46.29-.58.26a.27.27,0,0,1-.17-.13c-.07-.13-.07-.13.43-1.18l-.21.13c-.18.12-.23.14-.34.11l.14-.52L81.84,9l-.13-.24.12-.07c1-.63,1-.62,1.17-.59a.28.28,0,0,1,.17.13c.07.13.07.13-.34,1l-.07.14c1.26-.78,1.32-.76,1.45-.73a.29.29,0,0,1,.17.13c.08.15.1.2-.22.55.57-.34.58-.34.69-.31a.27.27,0,0,1,.17.13c.09.16.09.19-.52,1.24,1.29-.78,1.31-.77,1.45-.74a.27.27,0,0,1,.17.13c.08.14.09.16-.51,1.58C86.18,11,87,10.47,87.74,10c2.57-1.56,2.59-1.56,2.75-1.51a.28.28,0,0,1,.17.13c.15.25.15.25-3.45,2.7-1.68,1.14-4.17,2.84-6.08,4.19l2.48-1.46C88.87,11,88.87,11,89,11.06a.27.27,0,0,1,.17.13c.19.33.21.37-4.32,3.3l-2.09,1.36.13-.08c3.93-2.39,4-2.37,4.17-2.33a.29.29,0,0,1,.17.13c.16.27.16.27-2.39,1.9a.29.29,0,0,1,.17.13.27.27,0,0,1-.1.37.26.26,0,0,1-.13,0c-.26.11-1.34.78-2.14,1.28C80.67,18.53,80.31,18.73,80.13,18.73Z"/>      <path class="a" d="M87.22,10.32h-.06a.27.27,0,0,1-.17-.13c-.12-.21-.12-.21,1.44-1.64L90.22,6.9l-.7.43c-.83.51-.83.52-1,.48a.27.27,0,0,1-.17-.13c-.12-.2-.12-.2.67-.86l1.25-1-.5.31c-.61.38-.61.38-.73.36a.27.27,0,0,1-.17-.13c-.11-.18-.13-.23.88-1.23-.84.51-.85.51-1,.47a.27.27,0,0,1-.17-.13c-.08-.14-.11-.18.15-.44-.91.57-1,.6-1.16.57a.29.29,0,0,1-.18-.13c-.1-.18-.09-.24.61-1.1l-.6.38c-1.38.87-1.44.9-1.6.85a.29.29,0,0,1-.17-.13c-.07-.11-.09-.18,0-.33-.83.49-.86.49-1,.46a.28.28,0,0,1-.17-.13c-.1-.17-.1-.18.56-1-1.92,1.13-1.94,1.12-2.07,1.09l.07-.26.23-.13-.23.13L83,5c.18-.08,2.1-1.21,2.73-1.58s.62-.37.76-.14.11.19-.58,1L86.45,4c1.45-.87,1.45-.87,1.6-.84a.27.27,0,0,1,.17.13c.06.1.09.16,0,.27.67-.41.8-.44.94-.41a.3.3,0,0,1,.18.13c.11.18.11.18-.59,1l0,.06L89,4.24c1.48-.94,1.62-1,1.79-1a.3.3,0,0,1,.18.13c.07.12.09.19-.07.37.56-.33.6-.31.71-.29a.28.28,0,0,1,.17.13c.11.18.11.18-.48.75l-.47.46c1-.59,1.11-.61,1.24-.57a.3.3,0,0,1,.18.13c.11.19.16.28-.94,1.24.31-.16.36-.14.44-.12a.29.29,0,0,1,.18.13c.14.25.16.27-2.7,2.91,1.48-.89,1.52-.87,1.66-.84a.28.28,0,0,1,.17.13.27.27,0,0,1-.1.37l-.11,0c-.26.11-1.51.87-2.27,1.32C87.51,10.21,87.33,10.32,87.22,10.32Z"/>      <path class="a" d="M77.4,10.61h-.08a.27.27,0,0,1-.17-.13c-.13-.22-.19-.34,3.12-3.25L78.2,8.5c-2.1,1.3-2.11,1.3-2.26,1.26a.27.27,0,0,1-.17-.13c-.17-.3-.17-.3,3.44-2.69-.5.28-.56.26-.65.24a.28.28,0,0,1-.17-.13c-.12-.21-.14-.24,1.65-1.5a.3.3,0,0,1-.16-.13c-.15-.26-.19-.32,2.7-3h0c-.39.23-.44.23-.55.2a.28.28,0,0,1-.17-.13c-.12-.2-.12-.2.68-1l.31-.3,0,0h0l-.1-.25.48-.28c.37-.22.53-.31.67-.08s.08.21-.09.41c.44-.26.5-.27.61-.24a.28.28,0,0,1,.17.13c.14.24.14.24-1.66,1.91-.47.44-1.1,1-1.62,1.53l.93-.58c1.78-1.12,1.87-1.16,2-1.11a.29.29,0,0,1,.17.13c.1.17.13.22-.77.87.81-.47.85-.47,1-.44a.28.28,0,0,1,.17.13c.15.27.21.36-2.7,2.31h.11a.31.31,0,0,1,.18.14c.13.17,0,.32-.19.45-1.75,1.52-2.84,2.49-3.51,3.11a.28.28,0,0,1,.16.13.27.27,0,0,1-.1.37l-.09,0c-.16.07-.71.42-.93.55S77.46,10.61,77.4,10.61Z"/>      <path class="a" d="M89.8,13.72h-.07a.27.27,0,0,1-.17-.13c-.07-.12-.07-.14.16-.89l.05-.17c-.42.25-.42.25-.54.22a.27.27,0,0,1-.16-.12c-.06-.1-.06-.15,0-.34-.27.15-.29.14-.38.12a.27.27,0,0,1-.17-.12c-.1-.18-.1-.18.51-.92h0c-.51.31-.55.31-.67.28a.28.28,0,0,1-.17-.13c-.11-.19-.11-.19.62-.88l.54-.5a.22.22,0,0,1-.16,0,.27.27,0,0,1-.17-.13c-.13-.22-.1-.3,1.16-1.59-.07,0-.12,0-.18-.14s-.12-.21,1.14-1.86l.27-.35c-.23.13-.27.12-.36.1A.28.28,0,0,1,90.93,6c-.09-.16-.09-.16.55-1.17l.11-.18a.22.22,0,0,1-.29-.12c-.06-.11-.07-.16.08-.68-.56.34-.61.37-.75.34a.28.28,0,0,1-.17-.13c0-.06,0-.06,0-.49V3.44c-1.3.77-1.3.77-1.43.73A.27.27,0,0,1,88.84,4a3.35,3.35,0,0,1-.17-.48l-.07-.22-.37.23c-1,.6-1,.63-1.18.6A.29.29,0,0,1,86.87,4c0-.08-.06-.1,0-.56l-.06,0c-1,.65-1.14.7-1.29.65A.28.28,0,0,1,85.35,4l-.2-.37L85,3.32l-.39.25c-.66.42-.72.45-.86.41a.28.28,0,0,1-.17-.13c-.09-.16-.1-.17.72-1.26-.17.09-.22.1-.31.08a.28.28,0,0,1-.17-.13c-.09-.15-.09-.15.44-1.23h0c-.3.17-.33.16-.42.14l.07-.26L84.1,1l-.23.14L83.77.93,84.51.5c.21-.13.41-.25.55,0s.08.14-.36,1.06l-.1.2c.54-.34.6-.37.73-.33a.28.28,0,0,1,.17.13c.09.16.09.16-.6,1.08l-.14.19c.22-.13.28-.14.38-.11a.28.28,0,0,1,.17.13l.32.59.08.15.82-.5c.64-.4.64-.4.77-.37a.27.27,0,0,1,.17.13c0,.08,0,.09,0,.4l0,.21.51-.32c.7-.44.73-.46.87-.43a.28.28,0,0,1,.17.13,4.86,4.86,0,0,1,.2.57l0,.13,1-.57c.48-.28.48-.28.59-.25a.27.27,0,0,1,.14.1c.05.07.05.07,0,.71l.22-.13c.54-.34.55-.35.68-.31A.27.27,0,0,1,92,3.2c.06.1.06.11-.06.55l0,.13c.35-.21.37-.2.47-.18a.27.27,0,0,1,.17.13c.1.17.1.17-.63,1.3.42-.26.43-.26.54-.23a.27.27,0,0,1,.17.13c.11.2.11.2-1,1.71l-.41.54c.36-.21.38-.2.47-.18a.27.27,0,0,1,.16.13c.12.21.12.21-.9,1.24l-.32.32c.27-.16.3-.15.38-.13a.27.27,0,0,1,.17.13c.11.2.15.26-1,1.34h0a.27.27,0,0,1,.17.13c.1.18.09.24-.6,1.08a.27.27,0,0,1,.16.13c.05.09.06.15,0,.33.23-.13.25-.13.34-.1a.27.27,0,0,1,.17.13c.08.13.06.18-.19,1h0c.43-.26.5-.26.6-.24a.28.28,0,0,1,.17.13.27.27,0,0,1-.1.37l-.1,0c-.09,0-.34.19-.74.44C89.93,13.68,89.87,13.72,89.8,13.72Z"/>      <path class="a" d="M89.38,15.13H89.3a.28.28,0,0,1-.17-.13c-.07-.11-.1-.17.08-.39-.63.37-.7.35-.81.33a.29.29,0,0,1-.18-.13c0-.08,0-.09,0-.63v-.07c-.61.37-.62.37-.74.34l.07-.26.23-.14-.23.13-.09-.25c.07,0,.34-.2.56-.33.42-.25.42-.25.54-.22a.27.27,0,0,1,.16.13c0,.08,0,.1,0,.68,0,0,0,.06,0,.09.43-.24,1.18-.71,1.52-.92s.47-.3.59-.27a.27.27,0,0,1,.17.12c.11.18.07.22-.31.62l-.15.15-.06.25-.23.13.23-.13.1.25-.36.22C89.64,15,89.49,15.13,89.38,15.13Z"/>      <path class="a" d="M83.86,16.15H83.8a.27.27,0,0,1-.17-.13c-.15-.27-.19-.32,2.66-2.45a.27.27,0,0,1,.14-.26l.07,0L87,13c.44-.27.44-.27.56-.24a.27.27,0,0,1,.17.13c.12.2.12.21-.61.76,1-.56,1-.55,1.14-.52a.28.28,0,0,1,.17.13.27.27,0,0,1-.22.4c-.29.12-1.76,1-2.64,1.54C84.19,16,84,16.15,83.86,16.15Z"/>      <path class="a" d="M80.63,19.13h-.08a.29.29,0,0,1-.13-.07l-.1-.09-.61-.55-.31.19c-.64.4-.73.45-.87.42a.28.28,0,0,1-.17-.13c-.15-.25-.2-.35,3.86-3.65L80.1,16.52c-2.34,1.41-2.34,1.41-2.49,1.38a.27.27,0,0,1-.17-.13c-.17-.3-.19-.33,4.57-4l2.14-1.65c0-.09,0-.16,0-.29l.06-.18c-.35.22-.42.25-.55.22a.28.28,0,0,1-.17-.13s0,0-.39-1l-.06-.17-.39.24c-.33.2-.34.21-.46.18a.27.27,0,0,1-.18-.14.44.44,0,0,1,0-.22l.08-.4,0,0c-.39.25-.42.26-.54.23a.27.27,0,0,1-.17-.13c-.09-.16-.11-.19.65-1.75l0-.07c-.4.25-.46.27-.59.24a.27.27,0,0,1-.17-.13.27.27,0,0,1,.1-.37l.09,0L82,7.92c.54-.33.56-.35.69-.32a.27.27,0,0,1,.17.13c.08.14.08.14-.39,1.12l-.35.73c.21-.13.28-.14.38-.11a.28.28,0,0,1,.17.13c0,.08.06.11,0,.6.44-.27.5-.29.62-.26a.28.28,0,0,1,.17.13s0,0,.19.5l.26.7.23-.14c.44-.28.49-.31.62-.27a.27.27,0,0,1,.17.13c.05.09.07.12,0,.5l.16-.1c.19-.12.39-.24.54,0s.16.27-3.22,2.86L80.42,15.7c4.11-2.48,4.19-2.46,4.38-2.41a.29.29,0,0,1,.17.13c.12.2.12.2-.62.8q-3.05,2.46-4.42,3.63a.27.27,0,0,1,.08.09l.67.6c.27-.14.91-.55,1.44-.88,1.89-1.19,2.11-1.3,2.3-1.25a.3.3,0,0,1,.18.13.27.27,0,0,1-.1.37.24.24,0,0,1-.16,0c-.26.1-1.27.74-1.94,1.16C81,19,80.78,19.13,80.63,19.13Z"/>      <path class="a" d="M86.39,10.94h-.07a.28.28,0,0,1-.17-.13.44.44,0,0,1,0-.15l-.2-.91-.25.15c-.52.32-.52.32-.64.29a.27.27,0,0,1-.17-.12c-.06-.11-.06-.12.06-.5v0c-.43.27-.5.29-.62.26a.28.28,0,0,1-.17-.13s0,0-.08-.29l-.19-.74-.15.1c-.56.36-.64.4-.78.37a.28.28,0,0,1-.17-.13.27.27,0,0,1,.1-.37l.09,0,.48-.29c.48-.31.54-.34.67-.31a.28.28,0,0,1,.17.13,6.63,6.63,0,0,1,.28,1l.3-.19c.43-.27.45-.28.57-.25a.27.27,0,0,1,.17.13c.06.1.06.14-.06.53.48-.29.5-.3.62-.26a.27.27,0,0,1,.17.13,5.55,5.55,0,0,1,.27,1.07l.92-.55c.34-.21.34-.21.46-.18l-.14.52.07-.26L88,10l-.23.14C86.7,10.83,86.5,10.94,86.39,10.94Z"/>      <path class="a" d="M87,9.79H86.9a.27.27,0,0,1-.17-.13c-.12-.2-.13-.23,1.14-1.52h0A.27.27,0,0,1,87.69,8c-.1-.17-.1-.17.55-1l.68-.91c-.21.12-.23.12-.32.1A.27.27,0,0,1,88.43,6a3.78,3.78,0,0,1-.17-.48l-.11-.32-.29.18c-1.14.69-1.15.69-1.29.65a.28.28,0,0,1-.17-.13c-.07-.11-.07-.13.1-.52l-.7.43c-.4.25-.4.25-.52.22A.27.27,0,0,1,85.11,6l-.35-.75c-.22.12-.62.37-1.2.72-.25.16-.44.27-.58,0a.27.27,0,0,1,.08-.37h0l.19-.12c1.49-.93,1.53-.91,1.68-.88a.28.28,0,0,1,.17.13l.12.25.22.47,0,0c1.38-.86,1.43-.85,1.57-.82a.28.28,0,0,1,.17.13c.06.11.07.14-.08.48l.4-.24c.67-.4.66-.4.79-.37a.27.27,0,0,1,.17.13,6,6,0,0,1,.24.67l0,.12,0,0c.85-.51.85-.51,1-.48a.27.27,0,0,1,.17.13c.11.19.13.22-1.08,1.85.3-.18.33-.17.42-.15A.27.27,0,0,1,89.5,7c.11.19.11.19-.68,1l-.46.46c.34-.17.36-.12.46,0a.27.27,0,0,1-.1.37l0,0-.75.44C87.2,9.71,87.05,9.79,87,9.79Z"/>      <path class="a" d="M78.89,9.09h-.08A.29.29,0,0,1,78.64,9c-.15-.25-.18-.31,1.7-1.54l0-.06c-.12-.21-.12-.21,1.1-1.35l.5-.47,0,0a.27.27,0,0,1,.1-.37l0,0,.72-.42c.12-.07.27-.16.42,0l0,.06c.11.2.13.22-.9,1.18l.41-.25c1.84-1.11,1.84-1.11,2-1.07a.27.27,0,0,1,.17.13C85,5,85,5,82.09,6.91h0l0,0a.27.27,0,0,1-.1.37.33.33,0,0,1-.14,0c-.22.09-1,.58-1.52.92C79.25,9,79,9.09,78.89,9.09Z"/>      <path class="a" d="M77,11.15H76.9a.3.3,0,0,1-.18-.13c0-.08-.05-.08,0-.59l-.37.23c-.27.17-.29.18-.41.15a.27.27,0,0,1-.17-.13c-.11-.19-.16-.27,1.85-2.45l-.82.5c-1.19.73-1.19.74-1.33.7a.27.27,0,0,1-.17-.13c-.15-.26-.15-.26,2.25-2l.66-.49h0a.27.27,0,0,1-.17-.13c-.12-.22-.13-.23,1.54-1.53A.28.28,0,0,1,79.52,5c-.16-.27-.2-.34,3-3.18h0c-.64.39-.71.4-.83.37a.28.28,0,0,1-.17-.13c-.12-.21-.12-.21.73-1L82.29,1l0-.12.23-.13-.23.13-.1-.25.66-.38c.51-.3.51-.3.63-.28a.27.27,0,0,1,.17.13c.07.12.08.21-.09.41.71-.44.78-.45.91-.42a.29.29,0,0,1,.17.13c.14.24.14.24-1.82,2L81.26,3.71c.4-.24.45-.24.56-.22a.28.28,0,0,1,.17.13c.11.19.13.22-1.09,1.18a.27.27,0,0,1,.17.13c.14.25.18.3-2.12,2H79a.29.29,0,0,1,.18.13c.09.18,0,.28-.14.43-.93,1-1.55,1.69-2,2.15h.07a.28.28,0,0,1,.17.13c0,.08,0,.08,0,.6v0c.48-.27,1.29-.78,1.74-1.06.78-.49.78-.49.91-.46l-.06.26-.23.14.23-.14.1.25-.66.41C77.52,11,77.16,11.15,77,11.15Z"/>    </g>    <g>      <path class="a" d="M96.62,11.13h-.07a.3.3,0,0,1-.18-.13c-.09-.15-.1-.18.58-1.73L97,9.09l-.46.29c-1.12.7-1.17.72-1.32.68a.28.28,0,0,1-.17-.13c-.1-.16-.09-.2.32-.66-.05,0-.09-.06-.13-.14a.27.27,0,0,1,.09-.37l.05,0,.52-.3c.44-.27.44-.26.56-.23a.27.27,0,0,1,.16.13c.07.12.08.2-.1.43.88-.55.94-.56,1.08-.53a.28.28,0,0,1,.17.13c.08.14.08.14-.35,1.12l-.38.87c.46-.27,1.14-.7,1.65-1,1.76-1.1,1.85-1.14,2-1.1a.29.29,0,0,1,.17.13c.09.16.12.2-.55.78,1.57-.94,1.57-.94,1.72-.9a.27.27,0,0,1,.17.13c.11.2.13.23-.82,1.19,2.13-1.31,2.31-1.36,2.48-1.32a.3.3,0,0,1,.18.13.31.31,0,0,1,0,.33c-.35.66-.6,1.12-.76,1.45l0,0c3-1.88,3.25-1.94,3.44-1.89a.3.3,0,0,1,.18.13c.11.19.12.2-1,1.2l1-.62c1-.63,1-.63,1.14-.6a.27.27,0,0,1,.17.13c.11.19.09.21-.77,1.51l-.07.1.39-.24c.84-.52.85-.52,1-.49l-.06.26-.23.14.23-.14.09.25c-.07,0-.43.25-.72.43-1.34.82-1.36.82-1.51.78a.28.28,0,0,1-.17-.13c-.1-.17-.1-.17.63-1.27l.19-.28c-2.58,1.62-2.89,1.74-3.1,1.69a.31.31,0,0,1-.18-.13c-.11-.19-.12-.21.94-1.17l-1.29.79c-.87.53-.87.53-1,.5a.27.27,0,0,1-.17-.13c-.09-.15-.11-.19.78-1.87-.56.33-1.37.82-1.93,1.17-1.39.86-1.39.86-1.54.82a.27.27,0,0,1-.17-.13c-.12-.2-.12-.2.94-1.27l.05-.05-.21.13c-2.28,1.37-2.3,1.37-2.45,1.33a.28.28,0,0,1-.17-.13c-.08-.15-.11-.19.38-.63C97.07,11,96.78,11.13,96.62,11.13Z"/>      <path class="a" d="M96.87,11.67H96.8a.27.27,0,0,1-.17-.13s0,0-.24-.69l0-.07a.34.34,0,0,1-.19,0l.07-.26-.14-.23c.28-.17.34-.21.47-.18a.27.27,0,0,1,.18.14l.14.41L97,11l0,0c1.51-.94,1.57-.93,1.71-.89a.28.28,0,0,1,.17.13c.07.11.07.15-.1.5l.39-.23c.69-.42.69-.42.82-.39a.27.27,0,0,1,.17.13l.27.62.06.14.25-.15c1.3-.78,1.3-.78,1.45-.74a.27.27,0,0,1,.17.13l.63.69.12.13.72-.43c.9-.55.9-.55,1-.52a.28.28,0,0,1,.12.07l.31.27.7.61.72-.42c1.05-.62,1.05-.62,1.19-.39a1.82,1.82,0,0,1,.13.49l0,.21.16-.1c.55-.33.55-.33.67-.3l-.06.26-.23.14.23-.14.1.25-.42.25c-.56.34-.56.34-.68.31a.27.27,0,0,1-.17-.13,2.9,2.9,0,0,1-.17-.63v-.06l-.51.3c-1,.58-1,.58-1.1.55a.27.27,0,0,1-.16-.12l-.78-.67-.19-.16-.65.39c-1,.6-1,.59-1.13.56a.28.28,0,0,1-.17-.13l-.22-.23-.54-.59-1,.61c-.6.36-.6.36-.72.33a.27.27,0,0,1-.16-.12L100,11l-.13-.32-.34.21c-1.2.73-1.21.72-1.35.69a.28.28,0,0,1-.17-.13c-.07-.12-.07-.15.12-.54l-.77.47C97,11.62,96.94,11.67,96.87,11.67Z"/>      <path class="a" d="M108.15,10.27h-.07a.27.27,0,0,1-.17-.13c-.08-.13-.08-.19.18-.54a.23.23,0,0,1-.17-.13l-.2-.47-.28-.69c-.28.16-.78.47-1.06.64-.53.33-.53.33-.65.3a.27.27,0,0,1-.17-.12c0-.06,0-.06-.05-.29l0-.46c-.32.19-.83.5-1.06.65-.41.26-.41.26-.53.23a.27.27,0,0,1-.17-.13c0-.07,0-.08-.07-.71l-.62.38c-.81.5-.81.5-.95.46a.27.27,0,0,1-.17-.13c-.07-.12-.07-.16.09-.43l-.06,0c-.83.53-.89.56-1,.52a.28.28,0,0,1-.17-.13c0-.08,0-.08,0-.71l-.57.35c-.77.49-.83.52-1,.49A.28.28,0,0,1,99,9.1c-.06-.11-.07-.16,0-.35-.86.52-.87.51-1,.48a.27.27,0,0,1-.17-.13c0-.09,0-.09,0-.59V8.45c-1.32.78-1.33.78-1.46.75l.07-.26.23-.13-.23.13-.1-.25c.11-.05,1.07-.61,1.43-.83s.46-.27.6-.06.06.1,0,.68l.53-.32c.85-.51.85-.51,1-.48a.27.27,0,0,1,.17.13c.06.11.07.16,0,.34.77-.48.85-.51,1-.47a.28.28,0,0,1,.17.13c0,.07,0,.07,0,.53v.17l.43-.27c.89-.56,1-.6,1.13-.57a.28.28,0,0,1,.17.13c.06.11.07.16-.05.39.91-.56.93-.55,1.06-.52a.28.28,0,0,1,.17.13c0,.05,0,.05,0,.32V8.5c1.38-.86,1.43-.85,1.57-.81a.29.29,0,0,1,.17.13c0,.06,0,.08.09.69l.07,0c1.37-.85,1.4-.84,1.55-.8a.28.28,0,0,1,.17.13s0,0,.4,1l.06.15,0,0c.73-.44.82-.49,1-.25s.08.19-.13.45a.22.22,0,0,1,.14,0,.28.28,0,0,1,.17.13.27.27,0,0,1-.1.37l-.07,0-.61.36C108.32,10.22,108.23,10.27,108.15,10.27Z"/>      <path class="a" d="M95.89,11.6h-.07a.27.27,0,0,1-.17-.13c-.05-.09-.06-.11.06-.48-.35.22-.42.25-.54.22a.28.28,0,0,1-.17-.13c-.12-.21-.14-.24,1.29-2.18l.1-.14-.25.16c-1.23.77-1.29.8-1.45.76a.29.29,0,0,1-.17-.13c-.11-.19-.1-.21.55-.88l0-.16.23-.14-.23.14L95,8.25l.57-.33c.45-.27.45-.27.56-.24a.27.27,0,0,1,.16.13c.07.13.08.2-.1.43.93-.58,1-.6,1.14-.56a.28.28,0,0,1,.17.13c.11.18.11.18-.79,1.41l-.68.93a.25.25,0,0,1,.21,0,.27.27,0,0,1,.17.13c.06.11.06.11-.13.69l0,.11,0,.08h0l.12.24-.13.08C96,11.56,96,11.6,95.89,11.6Z"/>    </g>  </g></svg>