<svg xmlns="http://www.w3.org/2000/svg" width="187.61" height="26.46" viewBox="0 0 187.61 26.46">  <defs>    <style>      .a {        fill: none;        stroke: #002147;        stroke-linecap: round;        stroke-linejoin: round;        stroke-width: 1.13px;      }    </style>  </defs>  <title>アセット 5</title>  <g>    <g>      <path class="a" d="M6.6,12.47C6.73,12.7,15.9,6.78,16,7s-6.87,5.5-6.76,5.69,3.84-2.35,3.9-2.25-2.09,3.71-2,3.8,3.95-2.41,4-2.31-4.48,3.4-4.41,3.53,4.94-3,5-2.89"/>      <path class="a" d="M6.61,4.48c.07.13,5-3.06,5.09-2.94s-3.46,3-3.4,3.13S12.91,1.86,13,2s-2.71,3.85-2.65,3.95S14.91,3.12,15,3.23s-4.58,3.08-4.51,3.2,4.82-2.95,4.89-2.82-5.11,3.32-5,3.46S15.55,3.88,15.62,4s-5.47,3.3-5.39,3.44,5.47-3.34,5.55-3.2"/>      <path class="a" d="M.93,2.05s1.33-.81,1.35-.78S.77,4.88.82,5,7.37,1,7.47,1.13.71,6.78.82,7s9.6-5.87,9.74-5.62S.66,9.08.82,9.35c.07.12,4.73-2.89,4.8-2.77s-4.89,5-4.8,5.13,4.74-2.9,4.81-2.77S.74,12.4.82,12.53,6,9.37,6.06,9.5s-5.31,3-5.24,3.17S6.42,9.25,6.51,9.39.73,13.76.82,13.92C1,14.3,15.9,4.7,16.12,5.08S.6,13.86.82,14.24,16,5,16.19,5.37.58,16.25.82,16.66c.07.12,4.73-2.89,4.8-2.77S.75,17.31.82,17.44s4.73-2.89,4.8-2.77-4.89,4.82-4.8,5,4.74-2.9,4.81-2.78-4.34,4-4.27,4.08,6.56-4,6.65-3.84-4.19,3.9-4.11,4c.18.31,12.37-7.56,12.55-7.25S8.87,20.7,9,20.92s7.23-4.42,7.34-4.24-5.61,3.82-5.53,4,4.79-2.93,4.86-2.81-4,2.48-4,2.58,3.51-2.14,3.56-2.05"/>      <path class="a" d="M6.61,12.72s.61-.37.61-.35,1.46.46,1.48.5.53-.32.53-.31l.13.44s.46-.28.47-.27l.18.46s.4-.24.4-.23.35,1.66.37,1.7.48-.29.49-.28-.71.88-.7.91.56-.34.57-.33"/>      <path class="a" d="M5.51,12.84s.87-.53.88-.51-.91.6-.89.62,1-.64,1.06-.61-1.09.69-1.07.72.4-.24.4-.23-.44,2.52-.41,2.57.39-.24.4-.23-.41,1-.4,1,.4-.24.4-.23,1.94,1.28,2,1.34,2.88-1.76,2.92-1.69"/>      <path class="a" d="M6.65,4.74s.58-.35.59-.34,2.32,1,2.35,1.06.38-.23.38-.22,0,2,0,2.07.51-.31.51-.3"/>      <path class="a" d="M5.48,4.93s1-.61,1-.58-1,2.32-1,2.37.38-.23.39-.22-.34,2.74-.31,2.8.31-.19.31-.18,1.51.11,1.53.14,2.8-1.71,2.84-1.64"/>      <path class="a" d="M2.52,1.39S3.22,1,3.23,1s1.44.3,1.45.33.7-.43.71-.41,3.43.34,3.47.41S9.43,1,9.44,1l.33.41s.56-.35.57-.33l.22.42s.51-.31.51-.3.67.48.68.5.43-.26.43-.25.72.63.73.65.42-.26.43-.25S15,3.42,15,3.48s.33-.2.34-.2.41,1.31.43,1.34.33-.2.33-.19-.23,2.4-.2,2.45.48-.29.49-.28-.85,1-.83,1,.64-.39.65-.37-2.93,3.5-2.87,3.6.37-.23.38-.22l.46.75s.35-.22.36-.21l1.33,2s.33-.2.33-.19.25,2.47.28,2.53.41-.25.42-.24-.51.79-.5.81.41-.25.42-.24-1.72,2.45-1.68,2.52.87-.53.89-.51"/>      <path class="a" d="M.72,1.88S2.18,1,2.2,1,.52,4.73.57,4.82.95,4.59,1,4.6.54,6.78.57,6.83.95,6.6,1,6.6.54,9.15.57,9.2.95,9,1,9,.54,11.5.57,11.56s.38-.23.38-.22-.4,1-.38,1,.38-.23.38-.22-.39.36-.38.37.38-.23.38-.22-.4,1.43-.38,1.46.38-.23.38-.22-.39.53-.38.55.38-.23.38-.22S.54,16.46.57,16.51s.38-.23.38-.22-.4,1-.38,1,.38-.23.38-.22S.54,19.44.57,19.49s.38-.23.39-.22,0,1.59,0,1.62.31-.19.31-.18,1.67.63,1.7.67.65-.4.66-.38,4.19.19,4.24.28.78-.47.79-.45.82.27.84.29.91-.56.93-.54,1.36,0,1.38.07,3.55-2.17,3.61-2.08"/>    </g>    <g>      <path class="a" d="M20.39,2s1.35-.82,1.37-.79-1.53,3.62-1.48,3.71,4.42-2.7,4.48-2.59S20.19,6.81,20.27,7s4.42-2.7,4.48-2.59-4.57,4.82-4.48,5,4.42-2.7,4.48-2.59-4.57,4.8-4.48,4.95S24.69,9,24.76,9.09s-4.55,3.29-4.48,3.41,4.42-2.7,4.48-2.59-4.55,2.62-4.48,2.74,4.42-2.7,4.48-2.59-4.56,3.7-4.48,3.83,4.42-2.7,4.48-2.59-4.55,2.8-4.48,2.92,4.42-2.7,4.48-2.59-4.57,4.86-4.48,5,4.42-2.7,4.48-2.59-4.55,3.25-4.48,3.37,4.42-2.7,4.48-2.59-4.57,4.64-4.48,4.79,4.42-2.7,4.48-2.59-4,3.79-4,3.91,3.91-2.39,4-2.29-1.53,2.45-1.49,2.51,1.38-.84,1.4-.81-1.34.77-1.32.81,1.29-.79,1.31-.76"/>      <path class="a" d="M22,1.39s.7-.43.71-.41,1.19.44,1.21.47.43-.27.44-.25.19,2.24.22,2.29.38-.23.39-.22-.4.8-.39.82.38-.23.39-.22-.4.76-.39.78S25,4.4,25,4.41s-.4,1.09-.38,1.12S25,5.3,25,5.31s-.4,1.27-.38,1.3.38-.23.38-.22-.42,2.76-.38,2.82S25,9,25,9s-.41,1.77-.38,1.81.38-.23.38-.22-.42,2.5-.38,2.56.38-.23.38-.22-.39.71-.38.72.38-.23.38-.22-.41,2.12-.38,2.17.38-.23.38-.22-.4,1.21-.38,1.24.38-.23.38-.22-.42,2.87-.38,2.94.38-.23.38-.22-.51,1.15-.49,1.17S25,20,25,20"/>      <path class="a" d="M20.2,1.88S21.67,1,21.69,1,20,4.73,20.05,4.82s.38-.23.38-.22S20,6.78,20.05,6.82s.38-.23.38-.22S20,9.14,20.05,9.2s.38-.23.38-.22-.42,2.52-.38,2.58.38-.23.38-.22-.4,1-.38,1,.38-.23.38-.22-.39.36-.38.37.38-.23.38-.22-.4,1.43-.38,1.46.38-.23.38-.22-.39.53-.38.55.38-.23.38-.22-.42,2.58-.38,2.64.38-.23.38-.22-.4,1-.38,1,.38-.23.38-.22-.42,2.37-.38,2.42.38-.23.39-.22,0,1.6,0,1.64.33-.2.33-.19,1.68.63,1.7.67.66-.4.66-.38l.29.38s1.44-.88,1.46-.85"/>    </g>    <g>      <path class="a" d="M38.19,18.27c.06.11,4.44-2.71,4.5-2.6s-4.56,3.63-4.49,3.76,4.42-2.7,4.49-2.59S39.31,21,39.38,21.16s3.26-2,3.31-1.91-2.31,1.85-2.27,1.91,2.24-1.37,2.27-1.31-1.45,1.27-1.42,1.31,1.29-.79,1.31-.76"/>      <path class="a" d="M38.32,8.12s1.34-.82,1.36-.79-1.5,1.35-1.48,1.4,2.46-1.5,2.49-1.44-2.55,3.55-2.49,3.65,4.41-2.7,4.48-2.59S38.14,10.85,38.2,11s4.42-2.7,4.48-2.59-4.56,3.91-4.48,4,4.42-2.7,4.49-2.59-4.57,4.77-4.49,4.92,4.42-2.7,4.49-2.59-4.55,3.08-4.49,3.2,4.42-2.7,4.49-2.59-4.56,4-4.49,4.12,4.42-2.7,4.49-2.59"/>      <path class="a" d="M29.15,8.12s1.35-.82,1.37-.79S29,11,29,11s4.42-2.7,4.48-2.59S29,12.88,29.09,13s4.37-2.67,4.43-2.56-4.32,4.68-4.24,4.82,4.2-2.57,4.26-2.46-3.86,4.42-3.79,4.54,4.12-2.52,4.18-2.42-4,3-3.94,3.09,4.17-2.55,4.23-2.44S30,18,30.06,18.15s4.16-2.54,4.22-2.44S30.52,19,30.58,19.1s4.36-2.66,4.42-2.55-4.3,2.66-4.24,2.77,4.44-2.71,4.5-2.6-3,4-2.89,4.09,10.18-6.22,10.32-6-9.77,6.09-9.63,6.34c.05.09,3.63-2.22,3.68-2.13s-3.47,2.13-3.42,2.22,2.47-1.51,2.51-1.45"/>      <path class="a" d="M30.78,7.48s.7-.43.71-.41.64.34.65.36.57-.35.58-.33-.16.39-.15.4S33,7.2,33,7.22s.3,2.67.33,2.73.38-.23.38-.22-.4,3-.36,3,.37-.23.38-.22-.29,1.18-.28,1.2.35-.22.36-.21.57,2.53.61,2.59.32-.2.33-.19,1.57,1.41,1.6,1.45.52-.32.53-.31l.49.46s1-.59,1-.57"/>      <path class="a" d="M38.13,8s1.46-.89,1.48-.85-1.53.94-1.51,1,1.68-1,1.7-1S38,8.16,38.07,8.21s.55-.33.55-.32-.68,2.65-.65,2.71.38-.23.38-.22-.4,1-.38,1,.38-.23.38-.22S38,13.79,38,13.85s.38-.23.38-.22S38,16.27,38,16.33s.38-.23.38-.22-.39.62-.38.63.38-.23.38-.22"/>      <path class="a" d="M39.83,7.49s.7-.43.71-.41,1.94,1.22,2,1.28.34-.21.34-.2-.38,3-.34,3,.38-.23.38-.22-.41,1.94-.38,2,.38-.23.38-.22-.41,1.86-.38,1.91.38-.23.38-.22-.4,1.17-.38,1.19.38-.23.38-.22-.41,2.18-.38,2.23.38-.23.38-.22-.4,1.21-.38,1.24.38-.23.38-.22-.52,1.82-.49,1.86.48-.3.49-.28"/>      <path class="a" d="M38,18.63s.38-.23.38-.22-.33,1.92-.3,2,.37-.23.37-.22,2.4,1.16,2.44,1.22.66-.4.67-.39-.22.38-.21.38,1.41-.86,1.43-.83"/>      <path class="a" d="M36.56,19s1.62-1,1.65-1-2.52,1.59-2.48,1.65,1.86-1.13,1.88-1.09"/>      <path class="a" d="M29,8s1.47-.9,1.49-.86-1.69,3.71-1.64,3.8.38-.23.38-.22-.36,2.15-.33,2.19.36-.22.37-.21S29,15.11,29,15.16s.35-.21.35-.2.07,2.25.1,2.3.33-.2.33-.19-.08.84-.07.86l.29-.17s-.24.28-.24.29l.28-.16s.21,1.09.22,1.12.3-.18.3-.18-.14.39-.13.4l.27-.16L32,20.78s.33-.2.33-.19l.23.64S33,21,33,21l.4.52c0,.06,2.55-1.56,2.58-1.49"/>    </g>    <g>      <path class="a" d="M46.63,13.8s1.3-.79,1.32-.76.61,2.43.65,2.48,4.19-2.56,4.25-2.45-.81,2.4-.78,2.45,1.79-1.1,1.82-1-1.41,1-1.39,1,1.29-.79,1.31-.76"/>      <path class="a" d="M48.09,13.2s.65-.4.66-.38l.28.38s.65-.4.66-.38,3.08.34,3.12.41.46-.28.46-.27-.45.27-.44.28.46-.28.47-.27.42,1.17.44,1.2.32-.2.33-.19-.44.63-.43.65.49-.3.49-.28"/>      <path class="a" d="M46.4,13.69s1.49-.91,1.51-.87-.15,2.86-.12,2.92.65-.4.66-.38,2.78.32,2.81.38.66-.4.67-.38.61.37.62.38S54,14.88,54,14.92"/>    </g>    <g>      <path class="a" d="M66.36,11.45c0,.07,2.6-1.59,2.64-1.52s-1.59,1.31-1.57,1.35,1.42-.87,1.44-.83"/>      <path class="a" d="M57.91,8.12s1.35-.82,1.37-.79S57.74,11,57.79,11s4.42-2.7,4.49-2.59S57.71,12.9,57.79,13,68.15,6.71,68.3,7s-10.68,8.15-10.51,8.44S69,8.57,69.17,8.85s-11.55,8.61-11.37,8.92c.06.11,4.42-2.7,4.49-2.59s-4.56,3.29-4.48,3.41,4.42-2.7,4.49-2.59-4.55,2.62-4.49,2.74,4.42-2.7,4.49-2.59-4.56,3.7-4.49,3.83,4.42-2.7,4.49-2.59-4.48,2.76-4.41,2.87,4.35-2.66,4.41-2.55-1.81,3.35-1.76,3.44,1.69-1,1.72-1-1.39,1-1.37,1,1.29-.79,1.31-.76"/>      <path class="a" d="M59.53,7.48s.7-.43.71-.41-.53.39-.52.4.7-.43.71-.41-.53.39-.52.4.7-.43.71-.41,1.46,1.44,1.49,1.48.37-.22.37-.22-.36,1-.35,1,.35-.22.36-.21-.22.42-.21.43,4-2.47,4.1-2.37"/>      <path class="a" d="M66.65,7.49s1.1-.67,1.11-.64S69,8.47,69.05,8.52s.42-.26.43-.25-.74,2-.71,2,.44-.27.44-.25"/>      <path class="a" d="M66.44,11.66s.93-.57.94-.54l.11.38S69,10.57,69,10.6"/>      <path class="a" d="M62.56,13.46c.05.09,3.69-2.26,3.75-2.16S62,14.76,62.12,14.88s.38-.23.38-.22-.41,2.58-.38,2.64.38-.23.38-.22-.39.8-.38.82.38-.23.38-.22-.39.76-.38.77.38-.23.38-.22-.4,1.09-.38,1.12.38-.23.38-.22S62,20.24,62,20.27s.49-.3.49-.29"/>      <path class="a" d="M57.72,8s1.47-.9,1.49-.86-1.69,3.71-1.64,3.8.38-.23.38-.22-.41,2.18-.38,2.23.38-.23.38-.22-.42,2.54-.38,2.6.38-.23.38-.22-.42,2.52-.38,2.58.38-.23.38-.22-.4,1-.38,1,.38-.23.38-.22-.39.36-.38.37.38-.23.38-.22-.4,1.43-.38,1.46.38-.23.39-.22-.36.52-.35.53S58,20,58,20s1.71,1.37,1.73,1.42.65-.4.66-.38l.56.38s1.41-.86,1.43-.83"/>    </g>    <g>      <path class="a" d="M73.08,14.33c.06.1,3.79-2.32,3.85-2.22s-4.59,3-4.52,3.15,5.22-3.19,5.29-3.06S71.94,17.51,72,17.68s6.69-4.09,6.79-3.92S71.95,17.53,72,17.7s6.69-4.09,6.78-3.92-6.41,4.92-6.31,5.1,4.8-2.93,4.87-2.81-3.54,4.21-3.47,4.33S78,17.88,78.1,18s-3.7,2.62-3.64,2.72,4.18-2.55,4.24-2.45-2.21,3.08-2.16,3.17,9.07-5.54,9.2-5.31-8,5.29-7.87,5.5,7.75-4.74,7.87-4.54-6.52,4.45-6.42,4.62,6.33-3.87,6.42-3.71-5.45,3.6-5.37,3.74,5.29-3.23,5.37-3.1-1.64,2.79-1.6,2.86,1.46-.89,1.48-.85"/>      <path class="a" d="M73.38,8.5c0,.05,2-1.25,2.07-1.2s-.54,3.07-.5,3.14S80.9,6.81,81,7s-2.14,3.13-2.1,3.22,4.37-2.67,4.43-2.56-2.58,3.73-2.52,3.83S84.85,9,84.91,9.08s-3.74,4.35-3.67,4.47,4.28-2.62,4.35-2.51-4.39,3.2-4.32,3.32,4.36-2.66,4.42-2.55-4.48,2.59-4.42,2.7,4.37-2.67,4.43-2.56-4.5,3.67-4.43,3.8,4.41-2.7,4.48-2.59-4.55,2.8-4.48,2.91,4.42-2.7,4.48-2.59-4.56,3.92-4.49,4.05,4.42-2.7,4.49-2.59"/>      <path class="a" d="M75.6,7.46s1-.6,1-.57,2.86.06,2.89.12.59-.36.6-.34,2.85.89,2.89,1,.37-.23.38-.22l.62.82s.34-.21.35-.2.81,2.05.84,2.1.33-.2.33-.19,0,2.31.06,2.36.36-.22.37-.21-.37,1.7-.34,1.74.37-.23.38-.22-.39.55-.38.56.38-.23.38-.22-.41,2.38-.38,2.44.38-.23.38-.22-.4,1-.38,1.05S86,17,86,17s-.39.57-.38.58.38-.23.38-.22-.41,2-.38,2,.38-.23.38-.22-.53,1.26-.51,1.29.48-.29.48-.28"/>      <path class="a" d="M73,14.13c.06.1,3.8-2.32,3.86-2.23s-5,3.88-4.95,4,.46-.28.47-.27-.43,2.59-.39,2.64.32-.2.33-.19-.09.63-.08.65.32-.2.32-.19-.1.59-.09.61.32-.2.33-.19.15.78.16.8.33-.2.34-.19l.35.88s.37-.23.38-.22,2.19,1.26,2.23,1.31.49-.3.5-.29,1.72.54,1.74.58.6-.37.61-.35,3.55.18,3.6.26.74-.45.75-.44l.23.37s.75-.46.76-.44-.14.39-.13.4,1.49-.91,1.51-.87"/>      <path class="a" d="M76.87,12.32s.64-.39.65-.38.13.45.14.46.41-.25.42-.24.32,2,.35,2,.62-.38.62-.36-.67.38-.66.4.64-.39.65-.38-1.94,2.48-1.9,2.55.47-.28.47-.27.43,2,.46,2.06.37-.23.38-.22l.21.49s.51-.31.52-.3.7.35.71.37,1.48-.9,1.5-.87"/>      <path class="a" d="M73.18,8.29s1.94-1.18,2-1.13-2.09,3.93-2,4,1.09-.66,1.1-.64,3.84-.33,3.89-.24.58-.35.59-.34,1.74,1.31,1.77,1.35.32-.2.33-.19.18,2.19.2,2.24.35-.22.36-.21-.32,1-.31,1,.38-.23.38-.22-.39.36-.38.37.38-.23.38-.22S81,15.53,81,15.56s.38-.23.38-.22-.39.53-.38.55.38-.23.38-.22S81,17.38,81,17.42s.38-.23.38-.22"/>    </g>    <g>      <path class="a" d="M99.12,8.24s1.54-.94,1.56-.9S98.75,8.92,98.78,9s2.87-1.75,2.91-1.68S97.88,11.54,98,11.67s5.51-3.37,5.59-3.23-5.68,3.11-5.6,3.25,5.51-3.37,5.59-3.23-6.23,4.83-6.14,5,5.52-3.37,5.6-3.23-6.58,5.87-6.47,6.06,5.52-3.38,5.6-3.24-5.92,3.83-5.83,4,5.53-3.38,5.61-3.24-6.43,5.39-6.32,5.57,5.53-3.38,5.61-3.24-6.06,4.24-6,4.4,5.53-3.38,5.61-3.24-6,4.19-6,4.35,5.53-3.38,5.61-3.24-5.94,3.87-5.85,4,5.53-3.38,5.61-3.24S93.89,24.68,94,24.86s5.42-3.31,5.5-3.18-2.62,3.89-2.56,4,1.48-.9,1.5-.87"/>      <path class="a" d="M89.33,8.1s1.32-.81,1.34-.77-1.19,3.44-1.15,3.52,4.08-2.5,4.14-2.39-3.91,4.1-3.84,4.22,3.93-2.4,4-2.3-3.52,4.25-3.45,4.37,3.73-2.28,3.78-2.19-3.13,4-3.06,4.12,3.53-2.16,3.59-2.07-3.36,2.64-3.31,2.73,3.5-2.14,3.55-2-3.55,2.08-3.5,2.17,3.49-2.13,3.54-2-3.13,2.93-3.08,3,3.43-2.1,3.48-2S92,18.56,92.08,18.64s3.35-2,3.39-2S93,18.92,93.07,19s2.37-1.45,2.4-1.39"/>      <path class="a" d="M100.84,7.49s.7-.43.71-.41,1.76.72,1.79.76.36-.22.37-.21-1.12,3.17-1.08,3.25.48-.3.49-.28-1,1.67-.93,1.72.48-.29.49-.28-1.49,3.34-1.45,3.42.48-.29.49-.28-1.42,3.12-1.38,3.19.48-.29.49-.28-1.09,2.1-1.06,2.15.48-.29.49-.28-.62.68-.61.7.48-.29.49-.28-1.35,2.9-1.31,3,.48-.29.48-.28-.81,1.26-.79,1.29.48-.29.48-.28-.66.59-.65.61.56-.34.57-.33"/>      <path class="a" d="M98.91,8.09s1.66-1,1.68-1S98.33,9.5,98.37,9.57s.48-.29.49-.28-1.43,3.14-1.39,3.22.48-.29.49-.28-.73,1-.71,1,.48-.29.49-.28-.71.93-.7,1,.48-.3.49-.28S96.68,15,96.7,15s.48-.3.49-.28-.92,1.55-.89,1.59.49-.3.49-.28-1.51,3.36-1.46,3.44.49-.3.49-.28-1.11,2.16-1.08,2.21.48-.3.49-.28-1.4,3.05-1.36,3.13.48-.3.49-.28-.6.82-.59.84.4-.24.4-.23,1,1.29,1.07,1.33.65-.4.66-.38,1.09.36,1.11.38,1.64-1,1.66-1"/>      <path class="a" d="M90.83,7.48s.7-.43.71-.41l.3.37s.68-.41.69-.4l1,1.64s.36-.22.37-.21-.37.22-.36.23.36-.22.37-.21-.26,1.56-.24,1.59.36-.22.36-.21-.09,2.31-.06,2.36.34-.21.34-.2-.23.73-.23.74.34-.21.34-.2,0,1.84.07,1.88.33-.2.33-.19-.05,1,0,1,.33-.2.33-.19S95,16,95.05,16s.33-.2.33-.19-.15.7-.14.72.33-.2.33-.19-.25,1.13-.24,1.16.45-.27.45-.26"/>      <path class="a" d="M89.12,8s1.47-.9,1.49-.86-1.37,3.54-1.33,3.62.35-.21.36-.21-.1,2-.07,2,.34-.21.34-.2.17,2.21.2,2.26.34-.2.34-.2.33,2.1.36,2.15.33-.2.33-.19-.06.83-.05.85.33-.2.33-.19-.29.3-.28.31.33-.2.33-.19.08,1.16.09,1.19.33-.2.33-.19-.17.41-.16.42.32-.2.33-.19,1.09.76,1.11.79,2.44-1.49,2.48-1.43"/>    </g>    <g>      <path class="a" d="M119.3,19.67c.06.1,3.94-2.41,4-2.31s-2.49,3.72-2.43,3.82,2.49-1.52,2.53-1.46S121,21.18,121,21.24s1.92-1.17,1.94-1.12"/>      <path class="a" d="M113,12.51c.06.1,3.86-2.36,3.92-2.26s-3.28,2.93-3.23,3,3.86-2.36,3.92-2.26-2.55,3.76-2.49,3.85S119,12.5,119,12.6s-3.63,2.57-3.57,2.66,3.87-2.37,3.93-2.27-3.66,2.53-3.6,2.63,3.87-2.37,3.93-2.27-3.67,2.77-3.62,2.87,6.59-4,6.69-3.86"/>      <path class="a" d="M114.42,3.75c.06.1,3.9-2.38,4-2.28S115,3.84,115.05,3.93s3.73-2.28,3.78-2.18-2.29,3.41-2.23,3.5,3.78-2.31,3.84-2.22-3.88,2.14-3.83,2.23,3.78-2.31,3.84-2.22-2.8,2.95-2.75,3,2.38-1.45,2.42-1.39"/>      <path class="a" d="M109.83,2.89C109.88,3,113,1,113,1.05s-4.33,5.16-4.25,5.31,8.77-5.36,8.9-5.14S109.2,7.81,109.33,8s3.76-2.3,3.82-2.2-4.63,4.85-4.54,5,5.72-3.49,5.8-3.35-7.74,6.53-7.62,6.75,8.9-5.44,9-5.22-9.3,5.87-9.16,6.11,9.51-5.82,9.65-5.57-9.82,5.49-9.68,5.73,9.62-5.88,9.76-5.64-9.84,6.58-9.7,6.84,4.77-2.92,4.84-2.79-4.87,3-4.8,3.1,4.54-2.77,4.6-2.66-3.89,4.49-3.82,4.62,4-2.42,4-2.32-3.67,2.77-3.61,2.87,4-2.42,4-2.32-2.59,3.56-2.53,3.66c.2.35,13.64-8.34,13.84-8S110.84,21,111,21.35s13-7.94,13.18-7.61-11.08,7.66-10.91,8,9.81-6,10-5.75-7.79,5.21-7.67,5.42,7.34-4.49,7.45-4.3"/>      <path class="a" d="M112.92,12.81s.34-.21.34-.2l1.19,1.91s.34-.21.34-.2.2.79.21.81.34-.21.34-.2l.49,1.15s.3-.19.31-.18"/>      <path class="a" d="M111.81,13s1.16-.71,1.17-.68-1.95,3-1.9,3.07.34-.21.35-.2-.24.83-.23.85.38-.23.38-.22.1,1.06.11,1.08.38-.23.38-.22l.35.81s.47-.28.47-.27.82.5.83.52,2.41-1.47,2.44-1.41"/>      <path class="a" d="M113.25,1.14s.81-.49.82-.47.75.27.76.29.66-.4.67-.39-.11.36-.1.37.54-.33.54-.31,2.85,1.18,2.89,1.25.35-.21.35-.2l1.36,2s.36-.22.36-.21S120,4.56,120,4.6s.81-.5.83-.48"/>      <path class="a" d="M114.51,4s.42-.26.43-.25-.31.27-.31.28.42-.26.43-.25-.31.27-.3.28.41-.25.42-.24,1.24,1.56,1.27,1.61.34-.21.34-.2.13.69.14.7.34-.21.34-.2l.44.61c0,.06,2.53-1.55,2.57-1.48"/>      <path class="a" d="M112.9,4.49s1.49-.91,1.52-.87-1,2.89-.95,3,.33-.2.34-.2l1.3,2.08s.33-.2.34-.2l.71,1.35s.34-.21.34-.2l.66,1.3s.34-.21.34-.2.22.82.23.84.34-.21.35-.2l.85,1.52s.34-.21.35-.2.25.85.26.87.34-.21.35-.2,0,.41,0,.42,2.57-1.57,2.6-1.5"/>      <path class="a" d="M122.64,12.47s.44-.27.45-.26l.81,1.32s.33-.2.33-.19-1.56,3.41-1.51,3.49.3-.19.31-.18.33,1,.34,1,.33-.2.34-.2-.87,2.53-.84,2.59,1.12-.68,1.13-.65"/>      <path class="a" d="M119.27,20s.35-.21.35-.2.33.95.34,1,.34-.21.34-.2l.83,1S123,20.38,123,20.42"/>      <path class="a" d="M109.65,2.71c0,.08,3.21-2,3.26-1.88s-4.5,5.25-4.41,5.4.35-.21.35-.2.14,1.87.16,1.91.33-.2.33-.19-.93,2.82-.89,2.89,1.44-.88,1.46-.84-3.42,4.17-3.35,4.29.41-.25.42-.24-.56,1.11-.54,1.14.41-.25.42-.24-.45.39-.44.4.41-.25.42-.24-.41,1.43-.39,1.47.35-.21.36-.21-.32.5-.32.51.35-.21.36-.21.3,2.18.33,2.23.33-.2.33-.19.07.72.08.74.33-.2.33-.19L109,20.62s.36-.22.36-.21,1.09.95,1.11,1,.42-.25.42-.24,1.62.66,1.64.7.54-.33.55-.32,2.58,0,2.61.05,3.54-2.16,3.59-2.07"/>    </g>    <g>      <path class="a" d="M133.86,5c.08.13,5.14-3.14,5.21-3s-4.47,3-4.4,3.08,4.84-3,4.91-2.83-2.48,3.52-2.42,3.61,4.23-2.59,4.29-2.48-4.34,2.38-4.28,2.49,4.23-2.59,4.29-2.48-3.25,3.2-3.19,3.3,4.09-2.5,4.15-2.39-3.05,3.94-3,4.05,4.16-2.54,4.22-2.44-4.07,2.82-4,2.93,4.23-2.59,4.29-2.48-4,4.07-3.95,4.2,4.53-2.77,4.6-2.65-4.67,3.48-4.6,3.61,4.81-2.94,4.88-2.82-5.14,3.7-5.06,3.83,5.14-3.14,5.22-3-5.6,3.68-5.51,3.82S145,10,145.1,10.11s-6.59,4.49-6.49,4.67,6.5-4,6.59-3.81"/>      <path class="a" d="M128.17,2.05s1.33-.81,1.35-.78S128,4.88,128.06,5s6.49-4,6.59-3.8-6.7,5.62-6.59,5.81,9.28-5.67,9.41-5.44-9.57,7.55-9.41,7.81,4.73-2.89,4.8-2.77-4.89,5-4.8,5.13,4.73-2.89,4.8-2.77-4.88,3.46-4.8,3.59,4.73-2.89,4.8-2.77-4.87,2.8-4.8,2.92,4.73-2.89,4.8-2.77-4.88,3.88-4.8,4,4.73-2.89,4.8-2.77-4.87,3-4.8,3.1,4.73-2.89,4.8-2.77-4.89,5-4.8,5.19,4.73-2.89,4.8-2.77-4.88,3.42-4.8,3.55,4.73-2.89,4.8-2.77-4.89,4.82-4.8,5,4.87-3,4.94-2.85-4.47,4-4.4,4.16c.24.42,16.39-10,16.63-9.6s-14.3,9.41-14.08,9.78,13.67-8.36,13.87-8-8.86,7.51-8.71,7.77,7.07-4.32,7.18-4.14-5.34,3.58-5.26,3.72,4-2.45,4.07-2.35"/>      <path class="a" d="M133.91,5.26s.58-.35.59-.34,1.7.75,1.73.79.42-.26.43-.25,1.64,1.61,1.67,1.66.33-.2.33-.19.31,1,.32,1,.32-.2.33-.19.34,2.32.37,2.37.35-.21.35-.2-.53,2.63-.5,2.69.44-.27.44-.26-1.58,2.19-1.55,2.25.84-.51.85-.49"/>      <path class="a" d="M132.72,5.46s1-.62,1-.6-1.06,1.72-1,1.76.38-.23.39-.22S132.69,9,132.72,9s.38-.23.39-.22-.4.8-.39.82.38-.23.39-.22-.4.76-.39.78.38-.23.39-.22-.4,1.09-.39,1.12.38-.23.39-.22-.4,1.27-.39,1.3.38-.23.39-.22-.42,2.76-.38,2.82.38-.23.39-.22-.41,1.77-.39,1.81.38-.23.39-.22,2.38.53,2.41.59,3.13-1.91,3.17-1.83"/>      <path class="a" d="M129.67,1.4s.7-.43.71-.41l.3.37s.7-.43.71-.41,3.2.27,3.24.34.57-.35.57-.33-.55.32-.54.33.57-.35.57-.33,1.58.49,1.61.53.45-.28.46-.26,2.11,1,2.14,1.09.38-.23.38-.22.15.51.16.52.38-.23.38-.22,1.16,1.2,1.18,1.24.34-.21.34-.2.28.77.29.79.34-.21.34-.2.25.75.26.76.33-.2.34-.2,0,.64,0,.66.32-.2.33-.19.62,1.66.64,1.7.33-.2.33-.19.44,2.46.47,2.52.35-.21.36-.21-.29.86-.27.88.35-.21.36-.21-.33,2.82-.29,2.88.42-.25.42-.24-1.15,2.69-1.12,2.76.51-.31.52-.3-1.22,1.58-1.2,1.63.62-.38.63-.36-2.09,2-2,2.06,1.08-.66,1.09-.63"/>      <path class="a" d="M128,1.88S129.42,1,129.44,1s-1.69,3.71-1.64,3.8.38-.23.38-.22-.41,2.18-.38,2.23.38-.23.38-.22-.42,2.54-.38,2.6.38-.23.38-.22-.42,2.52-.38,2.58.38-.23.38-.22-.4,1-.38,1,.38-.23.38-.22-.39.36-.38.37.38-.23.38-.22-.4,1.43-.38,1.46.38-.23.38-.22-.39.53-.38.55.38-.23.38-.22-.42,2.58-.38,2.64.38-.23.38-.22-.4,1-.38,1,.38-.23.38-.22-.42,2.37-.38,2.42.38-.23.39-.22,0,1.6,0,1.63.33-.2.33-.19,1.68.63,1.7.67.65-.4.66-.38,4.24.16,4.29.26.83-.51.84-.48.92.21.94.23,1.31-.8,1.33-.77l.16.43c.06.1,4-2.44,4.05-2.34"/>    </g>    <g>      <path class="a" d="M160.6,2.12s1.49-.91,1.51-.87-1.77,1.5-1.74,1.55,2.7-1.65,2.74-1.58-3.39,4-3.33,4.13,6.08-3.72,6.17-3.56-6.27,3.43-6.18,3.59,6.09-3.72,6.18-3.57-6.67,5.06-6.56,5.24,6.15-3.76,6.24-3.6-7,6.08-6.85,6.28,6-3.66,6.07-3.51-6.33,4-6.24,4.21,5.94-3.63,6-3.48-6.65,5.51-6.54,5.7,5.81-3.55,5.89-3.4-6.24,4.34-6.15,4.5,5.74-3.51,5.83-3.36-6.16,4.25-6.07,4.41,5.68-3.47,5.76-3.33-6,3.91-5.93,4.06,5.63-3.44,5.72-3.3-5.81,3.19-5.72,3.33,5.63-3.44,5.71-3.3"/>      <path class="a" d="M148.29,1.95s1.21-.74,1.23-.71-.71,3.17-.67,3.24,4.49-2.75,4.56-2.63-4.15,4.23-4.08,4.36,4.48-2.74,4.55-2.63-4.06,4.54-4,4.67,4.36-2.66,4.42-2.55-3.93,4.45-3.86,4.58,4.23-2.58,4.29-2.48-4.16,3.07-4.09,3.19,4.19-2.56,4.25-2.45-4.27,2.47-4.21,2.58,4.18-2.55,4.24-2.45-4,3.4-3.94,3.52,4.11-2.51,4.17-2.41-4.15,2.58-4.09,2.69,4.09-2.5,4.15-2.4-3.65,4.36-3.58,4.48,4-2.42,4-2.32-3.9,2.89-3.84,3,3.92-2.4,4-2.3-3.52,4.07-3.45,4.19,3.81-2.33,3.86-2.23-3.54,3.52-3.47,3.63,4.07-2.49,4.13-2.38-3.8,3.69-3.73,3.81,9.24-5.65,9.38-5.41-6.87,6.43-6.75,6.63,5.75-3.51,5.83-3.37S157,21,157.1,21.16s4.17-2.55,4.24-2.45-2.08,2.38-2,2.45,1.46-.89,1.48-.86"/>      <path class="a" d="M149.66,1.4s.69-.42.7-.41,2.26.42,2.29.47.42-.26.43-.25.57,2.23.6,2.28.35-.21.35-.2-.15,1.23-.13,1.26.35-.21.35-.2.1,2.46.13,2.51.35-.21.35-.2.06,2.3.09,2.35.35-.21.36-.2-.09,1.55-.07,1.58.35-.21.36-.21-.3.5-.29.51.35-.21.36-.21,0,2.14.05,2.18.35-.22.36-.21-.22.93-.2.95.35-.22.36-.21-.3.52-.29.53.35-.22.36-.21,0,1.79,0,1.83.35-.22.36-.21.12,1.06.14,1.08.93-.57.94-.54"/>      <path class="a" d="M160.44,2S162,1,162,1,160,3.31,160,3.38s.44-.27.45-.26-1.13,3-1.09,3,.44-.27.45-.26-.62.93-.61,1,.44-.27.45-.26-.61.87-.6.9.44-.27.45-.26-.71,1.26-.69,1.29.44-.27.45-.26-.76,1.47-.74,1.5.45-.27.45-.26-1.18,3.18-1.14,3.26.45-.27.45-.26-.9,2-.87,2.09.45-.27.45-.26-.65,1-.64,1.07.45-.27.45-.26"/>      <path class="a" d="M162.2,1.41s.7-.43.71-.41l.29.37s.69-.42.71-.41,1.87,1.07,1.9,1.12.39-.24.4-.23-.4.24-.39.25.39-.24.39-.23-.87,1.9-.85,1.94.47-.29.48-.28-1.3,3-1.26,3.05.47-.29.48-.28-.7,1-.68,1,.47-.29.48-.28-1.16,2.51-1.12,2.57.47-.29.48-.28-.82,1.38-.8,1.42.47-.29.48-.27-.8,1.33-.78,1.36.47-.29.48-.27-.71,1-.69,1,.47-.29.48-.27-1.21,2.68-1.17,2.75.47-.29.47-.27-1.46,3.52-1.41,3.6.47-.28.47-.27-.73,1.1-.71,1.13.47-.28.47-.27-.82,1.14-.8,1.17.55-.34.56-.32"/>      <path class="a" d="M148.11,1.79s1.31-.8,1.32-.76-.89,3.27-.85,3.35.34-.21.34-.2.11,1.88.14,1.93.34-.21.34-.2.2,2.2.23,2.25.34-.21.34-.2.19,2.18.22,2.23.34-.21.34-.2-.16.89-.15.91.34-.21.34-.2-.31.31-.31.32.34-.21.34-.2-.06,1.24,0,1.27.34-.21.34-.2-.27.47-.26.48.34-.21.34-.2.21,2.23.24,2.28.34-.21.34-.2-.17.85-.16.87.34-.21.34-.2.16,2,.18,2.09.34-.21.34-.2,0,1.56,0,1.59.34-.21.34-.2,0,1.59.05,1.62.34-.21.34-.2,1.68,1.69,1.71,1.75.65-.4.66-.38.67.36.68.38.65-.4.66-.38,2.42.33,2.45.38,1.59-1,1.62-.93"/>    </g>    <g>      <path class="a" d="M175.44,5c.08.13,5.14-3.14,5.21-3s-4.47,3-4.4,3.08,4.84-3,4.91-2.83-2.48,3.52-2.42,3.61S183,3.27,183,3.38s-4.34,2.38-4.28,2.49S183,3.28,183,3.39s-3.25,3.2-3.19,3.3,4.09-2.5,4.15-2.39-3.05,3.94-3,4.05,4.16-2.54,4.22-2.44-4.07,2.82-4,2.93,4.23-2.59,4.29-2.48-4,4.07-3.95,4.2,4.53-2.77,4.6-2.65-4.67,3.48-4.6,3.61,4.81-2.94,4.88-2.82-5.14,3.7-5.06,3.83,5.14-3.14,5.22-3-5.6,3.68-5.51,3.82,5.5-3.36,5.58-3.22-6.59,4.49-6.49,4.67,6.5-4,6.59-3.81"/>      <path class="a" d="M169.75,2.05s1.33-.81,1.35-.78-1.51,3.61-1.46,3.7,6.49-4,6.59-3.8-6.7,5.62-6.59,5.81,9.28-5.67,9.41-5.44-9.57,7.55-9.41,7.81,4.73-2.89,4.8-2.77-4.89,5-4.8,5.13,4.73-2.89,4.8-2.77-4.88,3.46-4.8,3.59,4.73-2.89,4.8-2.77-4.87,2.8-4.8,2.92,4.73-2.89,4.8-2.77-4.88,3.88-4.8,4,4.73-2.89,4.8-2.77-4.87,3-4.8,3.1,4.73-2.89,4.8-2.77-4.89,5-4.8,5.19,4.73-2.89,4.8-2.77-4.88,3.42-4.8,3.55,4.73-2.89,4.8-2.77-4.89,4.82-4.8,5,4.87-3,4.94-2.85-4.47,4-4.4,4.16c.24.42,16.39-10,16.63-9.6s-14.3,9.41-14.08,9.78,13.67-8.36,13.87-8-8.86,7.51-8.71,7.77,7.07-4.32,7.18-4.14-5.34,3.58-5.26,3.72,4-2.45,4.07-2.35"/>      <path class="a" d="M175.55,5.26s.58-.36.59-.34,2.31,1,2.35,1.06.36-.22.37-.21,1.51,1.88,1.55,1.94.33-.2.33-.19.32,1.53.34,1.57.33-.2.33-.19-.08,1.68-.06,1.72.35-.21.35-.2-.38,1.15-.36,1.18.39-.24.4-.23-1.43,2.75-1.4,2.81.74-.45.75-.43-1.07.81-1.05.84.84-.51.85-.49"/>      <path class="a" d="M174.3,5.46s1-.62,1-.6-1.06,2.33-1,2.39.38-.23.39-.22-.42,2.78-.38,2.85.38-.23.39-.22-.4,1.37-.39,1.4.38-.23.39-.22-.42,2.75-.38,2.81.38-.23.39-.22-.42,2.57-.39,2.62.38-.23.39-.22l.57,1.21s.93-.57.95-.55-.12.4-.11.41.93-.57.94-.54.05.37.06.38,3.13-1.91,3.17-1.83"/>      <path class="a" d="M171.34,1.4S172,1,172,1s1.44.3,1.45.33.7-.43.71-.41,3.28.42,3.33.5.57-.35.57-.33l.31.42s.45-.28.46-.27l.18.45s.45-.28.46-.26l.58.56s.45-.27.46-.26l.64.71s.38-.23.38-.22,1.68,1.56,1.71,1.61.34-.21.34-.2l.7,1.18s.34-.21.34-.2.74,1.85.77,1.9.32-.2.33-.19-.12.56-.12.57.33-.2.33-.19.22,1.76.25,1.8.33-.2.33-.19-.13,1.06-.11,1.09.35-.21.36-.21-.21,2.76-.18,2.82.4-.24.4-.23-1.34,3.36-1.29,3.44.56-.34.56-.33-1,1-.94,1.07.67-.41.68-.39-2.31,2.4-2.27,2.47,1.07-.66,1.09-.63"/>      <path class="a" d="M169.54,1.88S171,1,171,1s-1.68,3.71-1.63,3.8.38-.23.38-.22-.41,2.18-.38,2.23.38-.23.38-.22-.42,2.54-.38,2.6.38-.23.38-.22-.42,2.52-.38,2.58.38-.23.38-.22-.4,1-.38,1,.38-.23.38-.22-.39.36-.38.37.38-.23.38-.22-.4,1.43-.38,1.46.38-.23.38-.22-.39.53-.38.55.38-.23.38-.22-.42,2.58-.38,2.64.38-.23.38-.22-.4,1-.38,1,.38-.23.38-.22-.42,2.37-.38,2.42.38-.23.39-.22,0,1.6,0,1.63.33-.2.33-.19,1.68.63,1.7.67.65-.4.66-.38,4.26.15,4.31.25.71-.43.72-.41,1,.16,1,.18,1.08-.66,1.09-.63l.44.26c.06.1,4-2.42,4-2.32"/>    </g>  </g></svg>