<svg xmlns="http://www.w3.org/2000/svg" viewBox="0 0 89.5 24.4"><defs><style>.cls-1{fill:none;stroke:#7f2334;stroke-linecap:round;stroke-linejoin:round;stroke-width:1.13px;}</style></defs><title>アセット 4</title><g id="レイヤー_2" data-name="レイヤー 2"><g id="nav"><path class="cls-1" d="M7.54,14.43c.12.2,8-4.86,8.07-4.66s-4,4.49-3.94,4.63,4-2.44,4.06-2.34-4,2.24-3.92,2.34,3.87-2.36,3.92-2.26-1.31,2.19-1.28,2.24,1.19-.73,1.21-.7"/><path class="cls-1" d="M7.54,5.9c.13.22,8.56-5.23,8.69-5s-5.75,4.83-5.65,5,6.19-3.79,6.29-3.63-1.42,3.51-1.37,3.6S17,4.93,17,5s-1.23.85-1.21.88S17,5.14,17,5.17"/><path class="cls-1" d="M.86,1.68S2.07.94,2.08,1,.76,2.78.79,2.83,4,.87,4.05.95.72,5.31.79,5.43,8.55.68,8.67.88.67,6.18.79,6.39,10.23.62,10.37.86.65,6.48.79,6.72,10.82.59,11,.85.64,7,.79,7.25,11.73.56,11.89.83.62,8,.79,8.33,13.63.48,13.82.81.6,8.81.79,9.14,15.05.42,15.26.79.58,9.13.79,9.5C.88,9.65,6.84,5.8,6.93,6S.69,10.54.79,10.71s6-3.66,6.07-3.51S.69,11.81.79,12s6-3.66,6.08-3.51S.69,12.73.79,12.89s6-3.66,6.08-3.51S.68,15.55.79,15.74s10.86-6.64,11-6.36S.61,17.92.79,18.23c.09.15,6-3.66,6.07-3.51S.7,18.17.79,18.32s6-3.66,6.07-3.51S.69,19.93.79,20.1s6-3.66,6.08-3.51-6.08,5.66-6,5.84,7.36-4.5,7.47-4.31S4.11,22.9,4.19,23,12.83,17.76,13,18,5.37,22.84,5.49,23s8.71-5.32,8.84-5.1-4.68,5-4.59,5.1,7.2-4.4,7.3-4.21S14,22.92,14,23s2.79-1.71,2.83-1.64S15.42,23,15.44,23s1.25-.76,1.27-.73"/><path class="cls-1" d="M2.24,1.13s.67-.41.68-.39,1.59.32,1.62.36.67-.41.68-.39l.56.37s.67-.41.68-.39.95.35,1,.37.67-.41.68-.39,2.3.3,2.33.35.67-.41.68-.39,3.15.27,3.19.34S15,.55,15,.57l.17.38s.66-.4.67-.38l.71.86s.36-.22.37-.21-.21.67-.2.68.36-.22.36-.21-.23,2.55-.2,2.6.36-.22.37-.21-.34.75-.33.77.36-.22.37-.21-.42.38-.41.39.41-.25.42-.24"/><path class="cls-1" d="M7.66,6.17s.75-.46.76-.44l.42.43s.74-.45.75-.43.11.41.11.42.73-.45.74-.43-.14.41-.14.42.73-.44.74-.43,3.81.29,3.86.37.68-.41.69-.4l.25.39s1.33-.81,1.35-.78"/><path class="cls-1" d="M6.7,6.2s.8-.49.81-.47-.82.49-.81.51.88-.54.89-.51-.91.77-.89.8.38-.23.39-.22S6.66,9.16,6.7,9.22,7.13,9,7.14,9s-.25.69-.24.7.62-.38.63-.37,3.13.2,3.17.27.7-.43.71-.41,3.61.29,3.65.37.41-.25.42-.24.05,2.74.09,2.8.38-.23.38-.22-.46,1.62-.43,1.65.43-.26.44-.25"/><path class="cls-1" d="M7.66,14.69s.75-.46.76-.44,3.37.31,3.42.38.7-.43.71-.41-.58.39-.57.41.7-.43.71-.41,1.79.33,1.82.37,1.31-.8,1.33-.77"/><path class="cls-1" d="M6.7,14.73s.8-.49.81-.47-.84,2.15-.81,2.2.41-.25.41-.24L8.4,18.28s.69-.42.7-.41,2.09.27,2.11.32.69-.42.7-.4,3.59.19,3.63.27.65-.4.66-.38.6,1.63.63,1.67.39-.24.4-.23-.53,1.8-.5,1.84.39-.24.4-.23-.55,1.43-.53,1.46.45-.27.45-.26"/><path class="cls-1" d="M.68,1.53S2,.72,2,.76.54,2.65.57,2.71s.38-.23.38-.22S.53,5.24.57,5.31s.38-.23.38-.22S.55,6.24.57,6.26.94,6,1,6s-.39.54-.38.56.38-.23.38-.22-.39.73-.38.74S.94,6.89,1,6.9.55,8.18.57,8.21.95,8,1,8,.55,9,.57,9,.95,8.79,1,8.8s-.39.56-.38.57.38-.23.38-.22-.4,1.41-.38,1.44.38-.23.38-.22-.4,1.46-.38,1.49.38-.23.38-.22-.4,1.11-.38,1.13.38-.23.38-.22-.42,3-.38,3.07.38-.23.38-.22S.53,18,.57,18.1s.38-.23.38-.22-.39.3-.38.31S.95,18,1,18s-.41,2-.38,2,.38-.23.39-.22S.59,22.27.62,22.33s.34-.21.35-.2,2.37,1.07,2.4,1.13.65-.4.66-.38.63.37.64.38.65-.4.66-.38,3.54.3,3.58.38.65-.4.66-.38,3.59.3,3.64.38.65-.4.66-.38,1.66.35,1.68.38,1.33-.82,1.35-.78"/><path class="cls-1" d="M29.36,8.27s1.41-.86,1.43-.83-2.1,2.84-2.06,2.92,5.2-3.18,5.28-3-6.27,6.17-6.16,6.36S34.2,9.79,34.3,10s-7,5.34-6.93,5.54,6.25-3.82,6.34-3.66-7,5.6-6.9,5.79S32.93,13.88,33,14"/><path class="cls-1" d="M19,8.1s1.12-.69,1.14-.66-1,1.63-1,1.67,3-1.83,3-1.76-2.52,3.92-2.46,4,4.84-3,4.91-2.83S19.92,12.08,20,12.21s4.8-2.93,4.87-2.81-4.87,3-4.8,3.1,4.79-2.93,4.86-2.8S20.12,12.83,20.19,13,25,10,25,10.17s-4.67,3.61-4.59,3.74,4.72-2.89,4.79-2.77-4.68,3.35-4.61,3.47,4.69-2.87,4.76-2.75-4.75,2.93-4.68,3.05,4.68-2.86,4.75-2.74S20.89,15.85,21,16s4.63-2.83,4.7-2.71S21.17,17,21.24,17.08s4.58-2.8,4.65-2.68-4.52,3.35-4.44,3.48S26,15.1,26.06,15.21s-4.06,5-4,5.14,4.43-2.71,4.5-2.6-3.89,4.56-3.81,4.69,9.16-5.6,9.3-5.37-9.39,5.2-9.25,5.43S31.89,17,32,17.2,24.88,22.84,25,23s6.26-3.83,6.35-3.67S28.94,22.94,29,23s1.39-.85,1.41-.81"/><path class="cls-1" d="M20.33,7.59s.7-.43.71-.41-.64.39-.63.41.7-.43.71-.41-.19.38-.18.39.7-.43.71-.41,2.77,1,2.8,1.08.32-.19.32-.19-.23.67-.22.69.35-.21.35-.2,0,2,0,2.08.35-.21.36-.21.06,2.37.1,2.43.36-.22.36-.21.12,2.69.16,2.75.36-.22.37-.21,0,2.17,0,2.22.87-.53.88-.51-.76,1.16-.74,1.19.49-.3.5-.29"/><path class="cls-1" d="M29.22,8.1s1.49-.91,1.51-.87S28.29,10.86,28.35,11s.47-.29.48-.28-.51.35-.5.37.47-.29.48-.28-1.18,2.71-1.14,2.78.48-.3.49-.28-1,2-.95,2,.49-.3.5-.29S27,16,27,16s.49-.3.5-.29-.68.89-.67.91.5-.3.5-.29"/><path class="cls-1" d="M30.84,7.6s.7-.43.71-.41,2.48.22,2.51.28.51-.31.52-.3S34,10.24,34,10.31s.49-.3.49-.28-1.11,2.11-1.08,2.16.49-.3.49-.28-1.44,3.1-1.4,3.17.48-.3.49-.28-1.3,2.69-1.27,2.76.48-.29.49-.28-1.11,2.12-1.08,2.18.48-.29.49-.28-1.09,2-1.06,2.1.48-.29.49-.28-.78,1.08-.76,1.11.5-.3.51-.29"/><path class="cls-1" d="M18.84,8s1.25-.76,1.26-.73S18.92,9,18.95,9s.34-.21.34-.2.2,2.41.24,2.46.34-.21.34-.2-.14,1-.13,1,.34-.21.34-.2-.28.48-.27.49.34-.21.34-.2-.24.64-.23.66.34-.21.34-.2-.12,1.12-.1,1.14.34-.21.34-.2-.18.89-.16.91.34-.21.34-.2-.27.49-.27.51.34-.21.34-.2-.09,1.23-.07,1.26.34-.21.35-.2S21,16.94,21,17s.34-.21.35-.2-.15,1-.14,1,.34-.21.35-.2.26,2.62.29,2.68.34-.21.35-.2.23,2.29.26,2.34.33-.2.34-.19-.31.26-.3.26.34-.21.35-.2,1.33,1,1.35,1,.65-.4.66-.38,3.43.31,3.47.38.65-.4.66-.38l.11.38s1.49-.91,1.51-.87"/><path class="cls-1" d="M44.94,10.53c.07.12,4.64-2.84,4.71-2.72s-3.38,3.54-3.32,3.65S51,8.61,51.06,8.73s-5.13,4-5,4.15,5.73-3.5,5.81-3.35"/><path class="cls-1" d="M39.35,9.27c0,.08,3.3-2,3.34-1.93S37.93,11,38,11.16,45.18,6.77,45.29,7,37,14,37.12,14.27,48.7,7.19,48.87,7.48s-11.94,7.44-11.76,7.75c.08.14,5.71-3.49,5.79-3.34s-5.84,3.51-5.75,3.65,5.42-3.31,5.5-3.18S37.13,15.89,37.22,16s5.1-3.12,5.18-3-5.12,3.86-5,4,4.77-2.91,4.84-2.79-4.63,3.32-4.56,3.44,4.58-2.8,4.65-2.68-4.59,2.85-4.53,3,4.63-2.83,4.7-2.71-4.34,3.56-4.27,3.68c.21.36,14.26-8.72,14.47-8.35s-14,8.86-13.77,9.22S53,11.15,53.25,11.51s-14.06,8.55-13.85,8.91,14-8.57,14.23-8.22-12.14,9.41-11.95,9.74c.09.15,6.09-3.72,6.18-3.57s-3.6,4.4-3.53,4.53,8.36-5.11,8.49-4.9-8.49,4.71-8.37,4.92,8.31-5.08,8.43-4.87-6.23,5.14-6.12,5.32S52,20.17,52.08,20.3s-2.68,3.19-2.63,3.28,1.45-.89,1.47-.85"/><path class="cls-1" d="M45,10.79s.44-.27.44-.26-.4.26-.39.27.42-.26.43-.25-.15.36-.14.36.35-.21.36-.21-.12,2.06-.09,2.1S47,12,47,12"/><path class="cls-1" d="M43,11.43s1.8-1.1,1.83-1.06-2.86,3.87-2.8,4,.39-.24.4-.23-.4.29-.39.3.37-.23.38-.22-.24,1-.23,1S46,12.91,46.1,13"/><path class="cls-1" d="M43.06,7.34s.8-.49.81-.47,2.52.2,2.55.26S47,6.79,47,6.8,49.72,7.95,49.75,8s.36-.22.36-.21l.88,1s.32-.2.33-.19l1.07,1.75s.32-.2.32-.19.58,1.64.6,1.68.33-.2.33-.19c.1.17-6.09,4.84-6,5s5.83-3.56,5.92-3.42-6.52,5-6.42,5.19c0,0,.61-.37.61-.35s1,.35,1.06.37.71-.43.72-.42,2.95.85,3,.92.58-.36.59-.34-1.35,1.85-1.32,1.9.58-.35.59-.34-1.12,1.38-1.09,1.42.58-.35.58-.34-1.08,1.3-1.06,1.34.57-.35.58-.34"/><path class="cls-1" d="M39.37,9c0,.08,3.18-1.94,3.22-1.86s-4.91,3.76-4.83,3.9.73-.45.74-.43S36.86,14,36.91,14.1s.4-.25.41-.24-.49,1.21-.48,1.23.35-.21.35-.2-.32.5-.31.51.35-.21.35-.2-.3.67-.29.69.35-.21.35-.2-.23,1.19-.22,1.21.35-.21.35-.2-.12.86-.11.88.33-.2.33-.19-.22.46-.21.47.33-.2.33-.19.07,1.14.09,1.17.33-.2.33-.19.31,1.06.32,1.08.33-.2.33-.19.16.79.17.81.33-.2.33-.19,1.74,1.77,1.77,1.83.41-.25.41-.24S43.62,23,43.65,23s.48-.29.49-.28-.38.3-.37.31.48-.29.49-.28,1.72.73,1.74.77.51-.31.51-.3,3,.54,3,.61S51,22.91,51,23"/><path class="cls-1" d="M63,11c.08.14,5.62-3.43,5.7-3.29s-3.29,4.1-3.22,4.21,5-3.05,5.07-2.93-5.09,2.85-5,3,5-3.06,5.08-2.93-4.22,4.37-4.14,4.51,5.18-3.16,5.25-3-5.18,4.26-5.09,4.41,5.41-3.31,5.49-3.17-5.56,3.61-5.47,3.76,5.47-3.34,5.55-3.21-5.65,5.06-5.55,5.22,5.56-3.4,5.64-3.26-5.74,5.26-5.64,5.43,5.56-3.4,5.64-3.26-5.74,4.71-5.64,4.87,5.56-3.4,5.64-3.26-5.65,4.2-5.56,4.35S72.2,19,72.28,19.16s-5,3.68-4.89,3.81,4.82-2.94,4.89-2.82S68.36,22.93,68.42,23s3.8-2.32,3.85-2.22S71,23,71,23s1.18-.72,1.2-.69"/><path class="cls-1" d="M56.76,8.17S58,7.41,58,7.44s-1.36,1.83-1.33,1.88,3.35-2,3.39-2-3.47,4.43-3.39,4.56,5.57-3.4,5.65-3.26-5.74,4.07-5.65,4.22,9.89-6,10-5.79-10.18,5.87-10,6.13S67.07,6.86,67.22,7.12s-10.7,6.34-10.54,6.61S67.6,7.06,67.76,7.33s-11.25,7.2-11.09,7.49,5.56-3.4,5.64-3.26-5.73,3.92-5.64,4.07,5.56-3.4,5.64-3.26S56.59,15.84,56.68,16s5.56-3.4,5.64-3.26S56.59,17,56.68,17.2s5.56-3.4,5.64-3.26-5.74,4.37-5.64,4.53,5.56-3.4,5.64-3.26-5.73,4-5.64,4.17,5.56-3.4,5.64-3.26S56.61,22,56.72,22.2s5.53-3.38,5.61-3.24-2.8,4-2.73,4.07,2.7-1.65,2.73-1.58S59.71,23,59.75,23s2.54-1.55,2.58-1.49S61,23,61.05,23s1.18-.72,1.2-.69"/><path class="cls-1" d="M58.25,7.6s.7-.43.71-.41,1.67.28,1.7.31.69-.42.7-.41l.34.5s.41-.25.41-.24,0,.87,0,.89S62.5,8,62.5,8s-.3,1-.28,1.07,3.83-2.34,3.89-2.25"/><path class="cls-1" d="M66.48,7.23s.61-.37.62-.36l.31.49s.41-.25.42-.24.08.43.09.44.41-.25.42-.24-.07.37-.06.38.41-.25.42-.24S70.37,9,70.4,9.07s.35-.21.35-.2.05.62.06.64.32-.2.33-.19-.33.19-.32.2.32-.2.33-.19,0,.59,0,.61.33-.2.33-.19.55,2.48.58,2.53.36-.22.36-.21-.31,1.2-.29,1.23.36-.22.37-.21-.36.89-.35.92.38-.23.38-.22-.39.61-.38.62.38-.23.38-.22S72.09,16,72.11,16s.38-.23.38-.22-.41,1.87-.38,1.91.38-.23.38-.22-.42,3.09-.38,3.16.38-.23.38-.22-.4,1.46-.38,1.5.38-.23.38-.22-.44.45-.43.46.43-.26.43-.25"/><path class="cls-1" d="M63,11.26s.59-.36.6-.34-.54.34-.53.35.58-.35.58-.34-.16.36-.15.37S64,11,64,11s1.73,1.63,1.76,1.68.34-.2.34-.2-.12.61-.11.63.32-.2.33-.19,0,2,0,2.08.35-.21.35-.2-.38,2.62-.35,2.68.38-.23.38-.22-.42,3-.38,3.07.38-.23.38-.22-.3,2.34-.27,2.39.35-.22.36-.21,2.73.9,2.77,1,.66-.4.66-.38.73.37.74.38,1.33-.81,1.35-.78"/><path class="cls-1" d="M62.15,11.22s.71-.44.72-.42-.76,2.71-.72,2.77.38-.24.39-.23-.4.29-.39.3.38-.24.39-.23-.42,2.29-.39,2.34.38-.23.39-.22-.41,1.65-.39,1.69.38-.23.39-.22-.4.8-.39.82.38-.23.39-.22-.41,2.19-.38,2.24.38-.23.38-.22S62.13,22,62.16,22s.38-.23.38-.22-.45.4-.44.41.43-.26.44-.25"/><path class="cls-1" d="M56.57,8s1.35-.83,1.37-.79-1.52,1.91-1.49,2,.38-.23.38-.22-.42,2.76-.38,2.82.38-.23.38-.22-.4,1.15-.38,1.18.38-.23.38-.22-.39.54-.38.56.38-.23.38-.22-.39.73-.38.75.38-.23.38-.22-.4,1.28-.38,1.31.38-.23.38-.22-.4,1-.38,1,.38-.23.38-.22-.39.56-.38.57.38-.23.38-.22-.4,1.41-.38,1.44.38-.23.38-.22-.4,1.46-.38,1.49.38-.23.38-.22-.4,1.11-.38,1.13.38-.23.38-.22-.42,3-.38,3.06.37-.23.38-.22,1.89,1.33,1.92,1.38.65-.4.66-.38-.51.37-.51.38.65-.4.66-.38,1.49.35,1.5.38,1.36-.83,1.38-.79"/><path class="cls-1" d="M85,11.77c.05.09,3.65-2.23,3.7-2.14s-1.69,2-1.66,2.1,1.32-.81,1.34-.78"/><path class="cls-1" d="M75.44,8.25s1.33-.81,1.35-.78S75,10.16,75,10.23c.13.23,9.17-5.6,9.3-5.37s-7.45,6.81-7.32,7,7.76-4.75,7.88-4.55-6.31,4.95-6.21,5.12,8.83-5.4,9-5.17-9.09,7.28-8.95,7.53S88.68,8.71,88.82,9s-10.29,7.6-10.13,7.88,5.54-3.38,5.62-3.24-5.63,4.59-5.54,4.75,5.47-3.34,5.55-3.2S78.91,19.55,79,19.7s5.37-3.28,5.45-3.14-5.21,3.8-5.12,3.94,5.41-3.31,5.49-3.17S81,22,81.12,22.1s6.79-4.15,6.89-4-5.9,4.33-5.81,4.48,6.14-3.75,6.23-3.6S83,22.76,83,22.91,87.83,20,87.9,20.1s-3.67,3.06-3.61,3.16,2.85-1.74,2.89-1.67-1.93,1.83-1.9,1.88,1.35-.82,1.37-.79"/><path class="cls-1" d="M78.79,3.61s1.58-1,1.6-.93-1.76,2-1.73,2.1S83,2.15,83,2.26,78.58,6.9,78.66,7s5.56-3.4,5.65-3.26"/><path class="cls-1" d="M80.57,2.82s.92-.56.93-.54,2,.08,2,.12.46-.28.47-.27,0,.65.05.67.38-.23.39-.22-.3,1.06-.29,1.09.39-.24.39-.23-.41,1.88-.39,1.92.41-.25.41-.24-.31,2.29-.28,2.34.57-.35.58-.33l.17.38s.68-.41.69-.4,1.56.32,1.58.35.67-.41.68-.39l.27.41s.44-.27.44-.26-.21,2.53-.18,2.59.43-.26.43-.25-.56.87-.55.89.43-.26.43-.25-.52.55-.51.57.45-.27.45-.26-.49.3-.48.31.47-.29.47-.27"/><path class="cls-1" d="M85.13,12s.75-.46.76-.44l.47.4s.71-.43.72-.41.05.38.06.39,1.42-.87,1.44-.83"/><path class="cls-1" d="M84.14,12.07s.81-.49.82-.47-.83.5-.82.52.89-.54.9-.52-.91.78-.9.8.38-.23.38-.22-.41,2.85-.37,2.91.37-.22.37-.22-.37.75-.36.77.36-.22.37-.21.13,2,.15,2,.33-.2.34-.2,2.57.92,2.61,1,.51-.31.51-.3-1.1,3.37-1.05,3.45.58-.36.59-.34-1.18,1.49-1.16,1.53.58-.35.59-.34"/><path class="cls-1" d="M75.25,8.08s1.43-.87,1.45-.84-2.06,3.42-2,3.51.43-.26.44-.25-.46.33-.45.34.43-.26.44-.25l1,1.54s.68-.41.69-.4,1.56.51,1.58.55.43-.26.44-.25-.43.82-.42.84.41-.25.42-.24-.41,2.18-.38,2.23.37-.23.38-.22S78.45,17,78.48,17s.37-.23.37-.22-.3,1.73-.28,1.77.36-.22.36-.21-.22,1.23-.2,1.26.35-.21.36-.21-.08,1-.06,1,.33-.2.34-.2,0,.66,0,.67.32-.2.32-.19,1.23,1.48,1.26,1.52.39-.24.39-.23l.19.51s.39-.24.39-.23-.36.24-.35.25.39-.24.4-.23,1.17.81,1.19.84.44-.27.44-.26,1.76.73,1.79.78,1.42-.87,1.44-.83"/><path class="cls-1" d="M76.79,7.63s.73-.45.74-.43l.47.4s.81-.5.83-.48"/><path class="cls-1" d="M78.56,3.41s1.56-1,1.59-.92-1.74,2-1.71,2.09.38-.23.38-.22-.41,2.41-.38,2.47.38-.23.38-.22"/></g></g></svg>