<svg xmlns="http://www.w3.org/2000/svg" width="108.98" height="19.06" viewBox="0 0 108.98 19.06">  <defs>    <style>      .a, .b {        fill: #ff0;      }      .b {        fill-rule: evenodd;      }    </style>  </defs>  <title>アセット 6</title>  <g>    <g>      <g>        <path class="a" d="M14.87,16.91h-.08a.3.3,0,0,1-.18-.13c-.11-.18-.12-.21.75-1.13l-.23.14c-1.71,1.08-1.88,1.16-2.07,1.12a.3.3,0,0,1-.18-.13c-.1-.17-.11-.2.61-.92-1.85,1.1-1.89,1.09-2,1.05a.28.28,0,0,1-.17-.13c-.09-.15-.09-.16.72-1.61l-1.24.77c-1.54,1-1.63,1-1.8,1a.29.29,0,0,1-.18-.13c-.09-.14-.11-.19.59-.85l-.24.15c-1.4.86-1.41.87-1.56.83a.27.27,0,0,1-.17-.13c0-.1,0-.1,0-.48l.25-1.23-.26.15c-2.93,1.73-2.93,1.72-3.08,1.68a.27.27,0,0,1-.17-.13c-.09-.16-.09-.16.58-1.54v0l-.33.21c-2.26,1.42-2.52,1.52-2.72,1.47a.31.31,0,0,1-.18-.13c-.09-.15-.09-.16.76-1.36C.81,16.27.8,16.23.68,16s-.08-.22.32-.75H.95a.28.28,0,0,1-.17-.13.27.27,0,0,1,.09-.37l.09,0,.51-.31c.32-.2.35-.21.46-.19a.27.27,0,0,1,.17.13c.09.15.07.22-.26.67l1.1-.64c.27-.16.32-.19.46-.11a.27.27,0,0,1,.09.08c.11.16.11.16-.56,1.08l-.32.45c.51-.3,1.14-.7,1.56-1,1.15-.72,1.15-.72,1.29-.69a.28.28,0,0,1,.17.13c.08.14.08.14-.37,1.07L5,16l2.19-1.28c.87-.51.86-.51,1-.48a.27.27,0,0,1,.17.13c.06.1.06.1-.27,1.72l.83-.51c2.27-1.4,2.31-1.38,2.48-1.34a.28.28,0,0,1,.17.13c.08.22.08.22-.35.61l-.12.11c1.31-.82,1.5-.9,1.68-.86a.3.3,0,0,1,.18.13c.08.14.08.14-.28.77l-.46.82,2.07-1.23c1-.6,1-.61,1.15-.37s.12.21-.73,1l.17-.11c1.64-1,1.79-1.11,2-1.07a.29.29,0,0,1,.18.13c.11.19.11.19-.83,1.18l-.08.09.82-.51c1.08-.68,1.08-.68,1.23-.64a.28.28,0,0,1,.17.13c.1.18.1.18-.53,1l-.06.08c.55-.33.61-.33.73-.3a.29.29,0,0,1,.17.13.27.27,0,0,1-.1.37.26.26,0,0,1-.12,0c-.17.08-.74.43-1.06.63-.63.4-.64.4-.76.36a.27.27,0,0,1-.17-.13c-.1-.17-.08-.26.5-1C15.37,16.75,15,16.91,14.87,16.91Z"/>        <path class="a" d="M16.18,5.54h-.07A.27.27,0,0,1,16,5.4c-.08-.14-.08-.14.29-.79l.18-.32-.72.43c-1.37.83-1.37.82-1.51.79A.28.28,0,0,1,14,5.39c-.07-.12-.08-.14.25-1.69-.43.24-1.26.73-2.84,1.68-.26.16-.28.17-.39.14l.07-.26L11,5l.17-.1c3.36-2,3.42-2,3.56-2a.28.28,0,0,1,.17.13c.05.09.05.09-.07.66-.05.24-.15.68-.21,1l.82-.49C17,3.34,17,3.34,17.12,3.38a.28.28,0,0,1,.17.13c.09.15.07.23-.39,1,.14-.08.2-.09.3,0a.27.27,0,0,1,.12.36.26.26,0,0,1-.11.12L17,5.09C16.4,5.47,16.26,5.54,16.18,5.54Z"/>        <path class="a" d="M8.42,14.11H8.35A.29.29,0,0,1,8.17,14c-.1-.17-.1-.17.63-1.07l.9-1.12L9.41,12c-1.09.65-1.09.66-1.24.42s-.09-.28.53-.84c-.26.14-.29.13-.37.11a.27.27,0,0,1-.17-.13c-.12-.21-.12-.21,1-1.32-.86.49-.88.46-1,.26s-.1-.23,1-1.59l.53-.66c-1.12.7-1.19.71-1.34.68a.29.29,0,0,1-.18-.13c-.1-.16-.1-.16.44-.82L9.68,6.61c-1.1.7-1.18.73-1.34.69a.29.29,0,0,1-.18-.13C8,6.93,8,6.87,9.63,5.65c-1,.63-1.15.65-1.29.61a.3.3,0,0,1-.18-.13C8,5.93,8,5.9,8.89,5.25c-.76.41-.79.36-.89.2s-.09-.15.77-1.58l-1.23.76c-1.49.93-1.5.92-1.65.88a.28.28,0,0,1-.17-.13c-.11-.19-.11-.19.69-1.08l.21-.23L5.43,4.8c-1.22.75-1.22.75-1.36.72a.27.27,0,0,1-.17-.13c-.11-.2-.11-.2.76-1.18l.07-.08-.54.34c-1.4.88-1.46.91-1.62.87l-.08,0c-.18-.11-.12-.3-.08-.42l.35-1.12-.06,0c-.29.18-.32.2-.44.16l.16-.51-.09.26-.12-.24.2-.12c.68-.41.71-.43.84-.39a.27.27,0,0,1,.17.13c.07.12.08.14-.33,1.46L3.91,4c1.63-1,1.79-1.1,2-1.06a.3.3,0,0,1,.18.13c.11.19.09.26-.65,1.1C7.49,2.9,7.56,2.91,7.72,3a.29.29,0,0,1,.17.13c.11.19.09.27-.66,1.11h0C9.13,3,9.33,2.9,9.53,2.95a.3.3,0,0,1,.18.13c.08.14.08.14-.4.94L9,4.6l2-1.18c1-.58,1-.58,1.12-.35s.13.23-.24.56c1.2-.73,1.25-.73,1.4-.69a.29.29,0,0,1,.17.13c.16.28.17.3-2.39,2.19l-.32.23a.29.29,0,0,1,.13.11c.11.2.14.24-1.35,2.06l.08-.05c.94-.59,1-.6,1.1-.56a.28.28,0,0,1,.17.13c.12.21.1.28-1.28,2l-.19.24.25-.14c1.09-.64,1.08-.63,1.22-.41s.11.27-.91,1.29c.63-.37.65-.36.75-.34a.27.27,0,0,1,.17.13c.11.19.08.28-.47.79.19-.1.23-.09.3-.07a.27.27,0,0,1,.17.13c.12.2.14.23-1.37,2.1l0,0c1-.61,1-.63,1.16-.6a.28.28,0,0,1,.17.13.27.27,0,0,1-.1.37l-.1,0c-.13.06-.54.33-.85.52C8.81,14,8.57,14.11,8.42,14.11Z"/>        <path class="a" d="M16.77,4.71H16.7a.27.27,0,0,1-.17-.13c0-.09,0-.09,0-.65l.09-.53-.53.33c-.37.23-.37.23-.49.2a.27.27,0,0,1-.17-.13c-.06-.1-.07-.14.05-.5l-.08.05c-1,.61-1,.62-1.17.59a.28.28,0,0,1-.17-.13,3.4,3.4,0,0,1-.28-.29L13.39,3l-.24.15c-1.26.77-1.27.76-1.41.72a.28.28,0,0,1-.17-.13c-.06-.11-.07-.15.07-.46l-.35.21c-.67.41-.66.41-.79.38a.27.27,0,0,1-.16-.12c0-.05,0-.06-.13-.66L10,3.28C8.85,4,8.84,4,8.7,3.92a.27.27,0,0,1-.17-.13l-.46-.45L7.76,3c-.23.13-.7.41-1,.58-.55.34-.55.34-.67.31A.26.26,0,0,1,6,3.85l-.38-.31L5,3l-.8.48c-.7.43-.7.44-.84.4a.27.27,0,0,1-.07-.5l.06,0L3.88,3c1-.62,1.06-.64,1.2-.6a.28.28,0,0,1,.17.13l.7.55.27.21.29-.18c1.22-.75,1.24-.75,1.38-.71a.28.28,0,0,1,.17.13h0L8.45,3l.38.37.86-.51c.66-.4.66-.41.79-.37a.27.27,0,0,1,.17.14s0,0,.05.27l.06.37L11,3.08c1-.65,1.11-.68,1.26-.64a.28.28,0,0,1,.17.13c.06.12.07.15-.08.47l.51-.31c.53-.32.52-.32.64-.29a.27.27,0,0,1,.16.12l.54.56.19.2.76-.46c.76-.47.77-.48.91-.45a.27.27,0,0,1,.17.12c.06.12.05.15,0,.44l0,.06c.7-.43.76-.43.88-.4a.28.28,0,0,1,.17.13c.06.11.07.12-.11,1.15l.07,0c.51-.3.51-.3.63-.27l-.07.26L17.51,4l.23-.13.11.25-.39.23C17,4.64,16.85,4.71,16.77,4.71Z"/>        <path class="a" d="M11.42,6.09h-.07A.28.28,0,0,1,11.18,6a.27.27,0,0,1,.09-.37l.08,0c.1-.05.39-.23.62-.38,1-.63,1.08-.67,1.24-.63a.29.29,0,0,1,.17.13l.12.18.4.59,1-.6c.53-.32.53-.32.64-.29a.27.27,0,0,1,.17.13h0L16,5l.37.45.33-.21c.7-.44.76-.48.91-.44a.28.28,0,0,1,.17.13.27.27,0,0,1-.1.37l-.1,0c-.11.05-.41.25-.6.37-.57.36-.62.39-.75.35a.28.28,0,0,1-.17-.13l-.48-.59-.13-.16-.24.14c-1.3.78-1.31.78-1.45.74a.27.27,0,0,1-.17-.13l-.52-.76v0c-.21.12-.56.34-.8.49C11.67,6,11.53,6.09,11.42,6.09Z"/>        <path class="a" d="M17.86,16.05h-.07a.27.27,0,0,1-.16-.12c-.07-.11-.06-.16.08-1l0-.22c-.92.55-.92.55-1.06.52a.27.27,0,0,1-.17-.13c-.06-.1-.08-.14.08-.43l-.28.17c-.67.42-.67.41-.8.38a.27.27,0,0,1-.17-.13s-.45-.34-.71-.54l-.3-.23-.67.41c-.77.49-.84.53-1,.49a.29.29,0,0,1-.17-.13l-.36-.64-.06-.11c-.22.12-.58.35-.81.49-.58.37-.59.36-.71.33a.27.27,0,0,1-.17-.13c-.07-.12-.09-.16.25-1-.37.23-.41.24-.54.22a.27.27,0,0,1-.17-.13c-.08-.13-.08-.13.28-.87l.39-.82c-.37.21-.4.21-.5.18A.27.27,0,0,1,10,12.5c-.08-.15-.08-.15.57-1.46h0c-.29.17-.31.17-.41.14a.27.27,0,0,1-.17-.13c-.09-.15-.11-.18.56-1.48-.24.14-.29.15-.39.13a.27.27,0,0,1-.17-.13c-.07-.13-.07-.13.32-1l.35-.82c-.31.19-.38.22-.49.19a.28.28,0,0,1-.17-.13c-.12-.2-.16-.27,1.23-1.68-.84.52-.92.53-1.05.49a.28.28,0,0,1-.17-.13c-.08-.15-.09-.15.35-1a.21.21,0,0,1-.13,0A.27.27,0,0,1,10,5.34.27.27,0,0,1,10.1,5l.07,0,.48-.29c.18-.11.23-.15.35-.11a.27.27,0,0,1,.16.12c.09.15.09.15-.34,1l0,.08.74-.46c1.2-.75,1.21-.75,1.36-.71a.28.28,0,0,1,.17.13c.11.19.11.19-.64.94L11.22,6.84a.27.27,0,0,1,.16.13c.09.15.09.15-.62,1.79l0,0c.32-.2.37-.21.48-.18a.27.27,0,0,1,.17.13c.08.14.08.14-.29.85l-.34.67c.34-.21.37-.21.48-.18a.27.27,0,0,1,.16.11c.09.13.09.13-.38,1.08l-.21.41,0,0c.28-.17.3-.19.42-.15a.27.27,0,0,1,.16.12c.09.15.1.18-.61,1.67.3-.18.35-.19.46-.17a.28.28,0,0,1,.17.13c.07.11.06.14-.08.49l-.22.55c.94-.59,1-.59,1.14-.56a.29.29,0,0,1,.17.13l.42.74.53-.33c.82-.53.92-.57,1.06-.53a.29.29,0,0,1,.13.07h0l.39.31.65.51L16,14.4c1.12-.7,1.18-.71,1.32-.67a.28.28,0,0,1,.17.13c.09.1,0,.2-.08.42l.11-.07c.48-.29.48-.29.6-.26a.27.27,0,0,1,.16.12c.07.11.06.16-.08,1l0,.24.1-.06c.49-.29.5-.3.62-.26l-.16.51.08-.26.11.24-.38.22C18.06,16,17.94,16.05,17.86,16.05Z"/>        <path class="a" d="M2.52,17.42H2.45a.27.27,0,0,1-.16-.13l-.51-.59-.19-.23-.07,0c-.65.41-.71.44-.85.4a.28.28,0,0,1-.17-.13c-.1-.17-.11-.18,1.23-1.62-1.39.81-1.41.79-1.5.77A.27.27,0,0,1,0,15.8c-.11-.18-.08-.24.5-.88h0a.28.28,0,0,1-.17-.13.27.27,0,0,1,.1-.37l.09,0c.11-.06.45-.27.64-.38l.23-.14c.08,0,.32-.2.46,0s.08.26-.35.74L2.8,13.9c.28-.16.33-.19.46-.11a.27.27,0,0,1,.09.08c.12.18.12.18-.92,1.31l-.64.7a.28.28,0,0,1,.1.1l.31.36.41.47,1.12-.65c.42-.25.43-.25.53-.22l.1,0,1.36.81.07,0,.47-.28c1.07-.66,1.08-.66,1.23-.62a.28.28,0,0,1,.17.13.27.27,0,0,1,0,.14.41.41,0,0,1,0,.14l-.07.25.15-.09c.87-.55,1-.6,1.13-.56a.29.29,0,0,1,.17.13H9l.23.25.45.51,1.07-.63c.48-.29.58-.35.73-.13s.05.1,0,.62h0l.4-.25c.8-.51.86-.53,1-.5a.28.28,0,0,1,.17.13c0,.06,0,.06.07.49v.18l.74-.46c.6-.38.6-.38.73-.35a.27.27,0,0,1,.17.14s0,0,.08.41l0,.24.17-.11c1.11-.7,1.18-.71,1.33-.67a.29.29,0,0,1,.17.13c.06.1.07.13,0,.42,2.15-1.34,2.23-1.31,2.39-1.28a.3.3,0,0,1,.18.13c.1.17.1.17-.39.75l-.17.2h0a.27.27,0,0,1,.17.13.27.27,0,0,1-.1.37l-.07,0-.35.21c-.5.31-.58.36-.71.33a.27.27,0,0,1-.17-.13c-.09-.16-.11-.2.46-.89l-1.24.76c-.54.34-.54.34-.66.31a.27.27,0,0,1-.17-.13c-.07-.12-.06-.13.09-.51l-.46.29c-.6.38-.6.38-.73.35a.27.27,0,0,1-.17-.13c0-.06,0-.07-.12-.65l-.17.11c-1.11.7-1.18.71-1.33.67a.29.29,0,0,1-.17-.13c0-.06,0-.06-.08-.66l-.42.26c-.82.52-.9.56-1.05.52a.28.28,0,0,1-.17-.13c0-.08,0-.08,0-.59-1.26.75-1.26.75-1.41.72a.28.28,0,0,1-.17-.13l-.55-.61-.13-.15-.7.43c-.72.46-.78.49-.93.46a.28.28,0,0,1-.17-.13c0-.08-.06-.1.06-.55L6.52,17c-.7.43-.7.43-.82.39l-.08,0-.19-.11-1.25-.75L4,16.62A6.56,6.56,0,0,1,2.52,17.42Z"/>        <path class="a" d="M5,15.25H5a.28.28,0,0,1-.13-.08c-.11-.09-.79-.52-1.09-.71l-.21-.13c-.16.09-.52.3-1.36.8-.13.08-.29.17-.43,0a.27.27,0,0,1,0-.38l.06,0,.1-.06c1.58-1,1.59-.94,1.73-.91l.1,0L4,14l1,.66.64-.38c1-.6,1-.6,1.13-.56a.27.27,0,0,1,.17.13,3.74,3.74,0,0,1,.19.72l1.13-.66c.49-.29.49-.28.6-.25l-.16.52.08-.26.13.24-.38.22c-1.54.9-1.53.89-1.65.86a.27.27,0,0,1-.16-.13,1.58,1.58,0,0,1-.11-.38l-.08-.35L6,14.74C5.28,15.17,5.14,15.25,5,15.25Z"/>        <path class="a" d="M7.91,13.8H7.83a.28.28,0,0,1-.17-.13c-.07-.13-.07-.13.24-.8l.4-.86c-.37.22-.38.22-.49.19a.28.28,0,0,1-.17-.13c-.09-.16-.07-.22.3-.72a.19.19,0,0,1-.14,0,.27.27,0,0,1-.17-.13c-.09-.16-.09-.16.44-1l0,0c-.31.16-.36.13-.46,0s-.09-.16.41-1.24L8.3,8.4c-.33.2-.39.22-.51.19a.28.28,0,0,1-.17-.13c-.07-.12-.07-.12.18-.64l.48-1C8,7,7.9,7.05,7.78,7a.28.28,0,0,1-.17-.13C7.51,6.73,7.54,6.68,8,6,7.83,6,7.78,6,7.7,6a.28.28,0,0,1-.17-.13c-.07-.1-.06-.13.07-.49-1.12.65-1.13.65-1.25.62A.27.27,0,0,1,6.2,5.9l-.45-.57-.15-.2-.74.46C4.14,6,4.11,6.05,4,6a.28.28,0,0,1-.17-.13c0-.05,0-.05-.1-.44l0-.25-.59.36c-.53.33-.53.33-.65.29a.27.27,0,0,1-.16-.12c-.06-.1-.06-.11,0-.67l0-.11c-.41.26-.45.29-.58.26a.27.27,0,0,1-.17-.12.27.27,0,0,1,0-.27l.78-1.42h0c-.36.22-.36.22-.47.19L2,3.07l-.08.26-.12-.24L2,2.94c.85-.52.86-.52,1-.48a.27.27,0,0,1,.17.13c.08.15.11.18-.7,1.63a.26.26,0,0,1,.2,0,.27.27,0,0,1,.17.13c.06.09.06.13,0,.76.93-.57.95-.57,1.09-.54a.28.28,0,0,1,.17.13c0,.06,0,.06.14.67l.33-.21c1-.61,1-.63,1.18-.59a.28.28,0,0,1,.17.13L6.18,5l.33.42,1.1-.64c.45-.26.45-.27.57-.22a.27.27,0,0,1,.15.12c.06.1.06.16-.05.48.38-.23.41-.24.53-.22A.27.27,0,0,1,9,5.06c.09.16.08.2-.37.94.17-.1.23-.11.32-.09A.28.28,0,0,1,9.08,6c.09.14.1.17-.6,1.61.29-.18.32-.19.43-.16a.27.27,0,0,1,.17.13c.09.16.09.2-.54,1.54l-.11.23c.37-.22.38-.22.49-.19a.27.27,0,0,1,.16.13c.09.16.08.21-.42,1,.16-.09.19-.08.27-.06a.27.27,0,0,1,.16.12c.09.16.07.24-.28.72a.21.21,0,0,1,.12,0,.28.28,0,0,1,.17.13c.09.15.1.17-.58,1.62.25-.16.3-.17.41-.15a.27.27,0,0,1,.07.5l-.07,0-.33.21C8.15,13.72,8,13.8,7.91,13.8Z"/>      </g>      <g>        <path class="a" d="M32,12.23h-.07a.29.29,0,0,1-.17-.13.27.27,0,0,1,.22-.4c.23-.1,1.16-.68,1.9-1.16C36.38,8.91,36.78,8.72,37,8.77a.32.32,0,0,1,.19.14c.09.16.09.16-.53,1l-.57.74,1-.62c.84-.5.84-.5,1-.47a.27.27,0,0,1,.17.13c.09.16.1.18-.27.59h0a.28.28,0,0,1,.17.13.27.27,0,0,1-.09.37l-.09,0c-.1.05-.37.22-.53.32-.52.33-.56.35-.69.32a.27.27,0,0,1-.17-.13c-.07-.12-.09-.17.08-.39-1.39.83-1.41.81-1.55.78a.28.28,0,0,1-.17-.13c-.11-.19-.11-.2,1.13-1.81-.6.35-1.38.85-2,1.23C32.43,12.05,32.12,12.23,32,12.23Z"/>        <path class="a" d="M30.67,18.37H30.6a.29.29,0,0,1-.17-.13c-.1-.17-.1-.17.7-1.28l.13-.18-.34.21c-.71.44-.71.44-.84.41a.27.27,0,0,1-.17-.13c-.1-.17-.13-.23.76-1.31-.61.38-.65.38-.78.35a.28.28,0,0,1-.17-.13c-.09-.16-.09-.16.49-1l.62-.93c-1,.63-1.09.62-1.22.59a.28.28,0,0,1-.17-.13c-.1-.16-.1-.17,1.1-1.76-1,.64-1,.63-1.18.6a.27.27,0,0,1-.17-.13c-.13-.23-.17-.3,2-2.32l-.54.33c-2.33,1.45-2.45,1.49-2.63,1.44a.3.3,0,0,1-.18-.13c-.06-.1-.06-.1.14-.9l.21-.83c-.43.25-1.1.67-1.68,1-2.4,1.51-2.68,1.64-2.89,1.59a.3.3,0,0,1-.18-.13c-.11-.18-.13-.23.9-1.54l-.29.18c-1.87,1.17-2,1.2-2.16,1.16a.3.3,0,0,1-.18-.13c-.09-.16-.09-.16.41-1-.28.16-.31.15-.41.13a.28.28,0,0,1-.17-.13.27.27,0,0,1,.1-.37l.08,0c.13-.06.58-.34.78-.46s.33-.2.44-.17a.27.27,0,0,1,.17.12c.09.16.09.16-.44,1l-.06.1,1.14-.7c1.55-1,1.57-1,1.72-.92a.29.29,0,0,1,.17.13c.1.16.1.16-.43.81l-.77,1c.52-.31,1.2-.73,1.75-1.08,2.13-1.33,2.22-1.36,2.4-1.32a.29.29,0,0,1,.18.13c.07.13.07.13-.29,1.57l0,.16c.49-.28,1.27-.77,1.9-1.16C32.66,9.51,32.78,9.47,33,9.52a.29.29,0,0,1,.17.13c.12.21.12.21-1.07,1.32l-1.2,1.14c.61-.37.64-.36.75-.33a.27.27,0,0,1,.17.13c.1.15.1.15-.74,1.27l-.41.54.45-.28c.49-.3.49-.3.61-.27a.27.27,0,0,1,.16.12c.11.18.12.21-1,1.92,1-.6,1-.61,1.14-.57a.28.28,0,0,1,.17.13c.1.17.09.18-.33.67l-.61.73c.78-.48.86-.48,1-.45a.29.29,0,0,1,.17.13c.1.18.11.18-.76,1.37.6-.38.69-.41.83-.38a.28.28,0,0,1,.18.13.27.27,0,0,1-.1.37.27.27,0,0,1-.12,0c-.13.06-.52.31-.78.48C31,18.27,30.79,18.37,30.67,18.37Z"/>        <path class="a" d="M30.81,6.39h-.07a.31.31,0,0,1-.18-.14.27.27,0,0,1,.1-.37.26.26,0,0,1,.17,0C31.2,5.71,33,4.61,33.93,4c1.49-.93,1.49-.92,1.63-.89a.27.27,0,0,1,.17.13c.11.19.11.28-.58.86L36,3.64a.28.28,0,0,1,.21,0,.27.27,0,0,1,.16.14c.07.14.07.14-.4.84v0c.2-.12.23-.12.32-.1l-.07.26-.23.13.23-.13.11.25L36,5.21c-.79.5-.85.52-1,.49a.28.28,0,0,1-.17-.13c-.08-.13-.09-.15.4-.86-2.52,1.46-2.53,1.44-2.66,1.22s-.09-.25.32-.62C31.38,6.21,31,6.39,30.81,6.39Z"/>        <path class="a" d="M28.76,10.05h-.07a.27.27,0,0,1-.16-.13c-.11-.19-.11-.2.87-1.42-.72.45-.77.47-.91.44a.28.28,0,0,1-.17-.13c-.1-.17-.1-.17.55-1L29.54,7l-.5.31c-.68.42-.68.42-.8.39a.27.27,0,0,1-.17-.13c-.06-.1-.09-.16.13-.38h0l0,0c.19-.18.55-.47,1.18-1-1.07.64-1.32.73-1.49.69a.31.31,0,0,1-.18-.14c-.09-.17-.09-.17.74-1.18l.35-.43c-3.95,2.3-4,2.3-4.1,2.06s-.11-.2.71-1.07l.44-.46-1.14.69c-2.14,1.3-2.15,1.29-2.31,1.25a.28.28,0,0,1-.17-.13c-.07-.12-.08-.14.25-1.66L22,6.09a.31.31,0,0,1-.33.05.27.27,0,0,1,0-.48l.07,0C22.81,5,22.82,5,23,5a.27.27,0,0,1,.17.14c0,.09,0,.09-.07.62-.06.25-.16.72-.23,1.07l1.62-1C26.88,4.4,26.9,4.4,27.07,4.44a.28.28,0,0,1,.17.13c.12.2.1.29-.92,1.38l2.48-1.44C30,3.78,30,3.78,30.18,4s.1.18-1.24,1.81c.62-.37,1.4-.85,2-1.21,1.85-1.16,1.87-1.16,2-1.12a.28.28,0,0,1,.17.13c.12.22.12.22-2.56,2.33a.29.29,0,0,1,.09.09c.11.19.13.24-1,1.65.69-.43.74-.44.88-.41a.28.28,0,0,1,.17.13c.1.18.1.18-.75,1.25l-.15.18c.8-.48.82-.47.94-.44a.27.27,0,0,1,.17.13.27.27,0,0,1-.1.37l-.08,0c-.16.08-.86.5-1.25.73S28.84,10.05,28.76,10.05Z"/>        <path class="a" d="M27.6,4.09h-.07a.27.27,0,0,1-.17-.13c-.12-.2-.12-.2.78-1.19-.62.39-.67.4-.8.37A.28.28,0,0,1,27.17,3a.27.27,0,0,1,0-.13.42.42,0,0,1,0-.14l.6-1.32-.05,0c-.34.2-.34.21-.46.18l.07-.26.23-.13-.23.13-.12-.24L27.45,1c.81-.49.81-.49.94-.45a.27.27,0,0,1,.17.12c.08.14.1.17-.55,1.55l.12-.08c1-.66,1.13-.69,1.28-.65a.29.29,0,0,1,.17.13c.11.19.09.26-.66,1.09.52-.31.57-.3.67-.27a.28.28,0,0,1,.17.13.27.27,0,0,1-.09.37l-.11,0c-.18.08-.84.48-1.2.71C27.81,4,27.69,4.09,27.6,4.09Z"/>        <path class="a" d="M29.7,4.86h-.08a.28.28,0,0,1-.17-.13c-.06-.11-.08-.15.09-.5a.34.34,0,0,1-.28.06.28.28,0,0,1-.17-.13C29,4,29,4,29.33,3l.17-.61-.25.16c-.11.07-.17.11-.29.08a.27.27,0,0,1-.16-.12c-.07-.11-.07-.12.15-1.2-.44.27-.49.27-.6.25a.28.28,0,0,1-.17-.13.27.27,0,0,1,.1-.37l.09,0c.12-.06.46-.27.62-.37s.43-.27.57,0,.07.12-.08.8l-.09.41c.42-.26.46-.25.57-.22a.28.28,0,0,1,.17.13c.07.12.08.14-.29,1.41l-.1.34h0c.4-.25.42-.27.55-.23a.27.27,0,0,1,.19.18c0,.11,0,.17-.08.32L30.3,4l.76-.47c.53-.33.53-.32.64-.3l.09,0c.12.06.63.24,1,.37l.63.23c.22-.11.82-.48,1.19-.71.84-.53.84-.53,1-.49a.27.27,0,0,1,.17.13,2.7,2.7,0,0,1,.15.61l.11.48.3-.18c.26-.16.45-.27.59,0a.27.27,0,0,1-.09.37l0,0-.19.11c-.64.4-.69.42-.82.38a.27.27,0,0,1-.17-.13,4.66,4.66,0,0,1-.22-.89l0-.18-.45.28c-1.32.83-1.4.85-1.56.81l-.08,0-.65-.24-.95-.35-.3.19C30.08,4.73,29.83,4.86,29.7,4.86Z"/>        <path class="a" d="M31.17,6.88A.22.22,0,0,1,31,6.75a.27.27,0,0,1,.07-.37h0l.29-.17c2.16-1.29,2.17-1.29,2.33-1.25a.27.27,0,0,1,.16.12l.38.66,1-.59c1.42-.86,1.42-.86,1.57-.82a.27.27,0,0,1,.07.49l-.08,0c-.15.07-.81.47-1.29.76-1.3.78-1.3.78-1.44.74a.28.28,0,0,1-.17-.13l-.38-.66c-.44.25-1.49.87-1.88,1.1A1.21,1.21,0,0,1,31.17,6.88Z"/>        <path class="a" d="M31.64,10.73h-.08a.28.28,0,0,1-.17-.13,2.51,2.51,0,0,1-.15-.62l0-.17-.45.28c-.2.13-.24.15-.35.12a.27.27,0,0,1-.17-.13c-.08-.14-.07-.15.31-1.21l.09-.24-.05,0c-.3.19-.32.2-.44.17A.27.27,0,0,1,30,8.68c-.1-.17-.1-.17.33-.66l1.59-1.84-.5.31c-1.37.86-1.39.85-1.54.82a.28.28,0,0,1-.17-.13c-.08-.13-.08-.14.29-.77-.13.07-.15.06-.23,0l.07-.26L30,6.07l-.24.13L29.69,6,30,5.8c.71-.43.71-.43.85-.4a.27.27,0,0,1,.16.13c.07.13.08.14-.31.79L31.1,6c1.59-1,1.68-1,1.85-1a.29.29,0,0,1,.18.13c.12.21.14.25-1.91,2.6a.27.27,0,0,1,.11.1C31.4,8,31.4,8,31,9l-.1.28c.35-.21.4-.21.51-.18a.28.28,0,0,1,.17.13,2.38,2.38,0,0,1,.14.59l0,.22.83-.52c1.17-.74,1.24-.76,1.4-.73l.11.05,1.19.65c.17-.09.55-.33.84-.51,1.07-.68,1.13-.69,1.28-.66a.29.29,0,0,1,.17.13c0,.07,0,.07.09.7v.12l.3-.18c.27-.16.3-.18.41-.15l-.15.52.08-.26.12.24-.18.11c-.71.43-.74.44-.87.41a.27.27,0,0,1-.17-.13c0-.06,0-.06-.09-.64l0-.2-.7.44c-1,.64-1.06.65-1.21.62l-.08,0-.06,0-1.16-.64c-.2.11-.66.4-1,.62C32,10.61,31.77,10.73,31.64,10.73Z"/>        <path class="a" d="M32.35,12.73h-.07l.07-.26.23-.14-.23.14-.09-.25c.07,0,.48-.28.83-.5,1.59-1,1.62-1,1.76-.92a.28.28,0,0,1,.17.13c.07.12.09.16-.11.44l.62-.38c.74-.46.73-.46.86-.43a.27.27,0,0,1,.17.13l.47.43.21.2.28-.17c.69-.42.7-.43.84-.39a.27.27,0,0,1,.07.5l-.07,0-.56.33c-.55.33-.55.33-.67.3a.27.27,0,0,1-.13-.08l-.33-.31-.38-.36-.47.29c-1.65,1-1.76,1.06-1.93,1a.3.3,0,0,1-.18-.13c-.07-.13-.09-.15.11-.42l-.44.27C32.6,12.64,32.45,12.73,32.35,12.73Z"/>        <path class="a" d="M31.89,17.71h-.07a.27.27,0,0,1-.17-.13c-.07-.13-.07-.13.25-.75l.09-.18c-.16.08-.2.08-.28.06a.28.28,0,0,1-.17-.13c-.07-.12-.08-.18.13-.49h-.1a.27.27,0,0,1-.17-.13c-.07-.12-.08-.14.28-.87-.18.1-.21.09-.29.07a.27.27,0,0,1-.16-.12c-.08-.13-.08-.13.31-1.23l.06-.17h0c-.33.2-.34.21-.45.18a.27.27,0,0,1-.17-.13c-.07-.12-.07-.12.22-.91l.24-.67c-.32.2-.35.21-.46.18L31,12l.23-.14L31,12l-.1-.25.29-.18c.52-.32.59-.37.73-.33a.28.28,0,0,1,.17.13c.08.14.09.15-.41,1.53.3-.17.34-.17.44-.15a.27.27,0,0,1,.17.13c.07.12.07.12-.26,1.06l-.12.34c.35-.21.36-.22.47-.18a.27.27,0,0,1,.15.11c.09.13.09.13-.15.61l-.14.28c.16-.09.22-.1.31-.08a.28.28,0,0,1,.17.13c.08.13.08.17-.15.5a.21.21,0,0,1,.12,0,.27.27,0,0,1,.16.13c.07.12.08.14-.33.93.24-.14.27-.15.37-.12l-.07.26-.24.13.24-.13.1.25-.35.21C32.12,17.63,32,17.71,31.89,17.71Z"/>        <path class="a" d="M31.53,19.06h-.07a.28.28,0,0,1-.17-.13l-.63-1.09-.3.18c-.4.25-.42.26-.54.22a.27.27,0,0,1-.16-.12c-.07-.12-.08-.14.24-.82-.17.1-.23.11-.32.09a.27.27,0,0,1-.17-.13c-.07-.12-.07-.12.22-.94l.17-.48c-.32.19-.37.19-.47.16a.27.27,0,0,1-.17-.13c-.08-.13-.07-.15.25-1l.13-.36c-.32.2-.38.21-.49.18a.28.28,0,0,1-.17-.13c-.06-.1-.06-.1.06-.55.07-.26.2-.77.3-1.18-.86.53-.9.54-1,.5a.28.28,0,0,1-.17-.13c-.05-.11-.06-.11.09-.58l-.38.23c-1.4.85-1.42.85-1.57.81a.28.28,0,0,1-.17-.13,6.54,6.54,0,0,1-.25-.66L23.89,14c-.32.19-.47.27-.61.06s-.07-.2.11-.58l-.27.17c-.79.5-.83.52-1,.48A.28.28,0,0,1,22,14c0-.07,0-.08-.12-1h0c-.53.32-.54.32-.66.28a.27.27,0,0,1-.17-.13c-.09-.16-.1-.17.68-1.43-.2.12-.25.13-.34.1a.27.27,0,0,1-.17-.13.27.27,0,0,1,.1-.37l.06,0,.36-.22c.61-.39.7-.44.84-.4a.28.28,0,0,1,.17.13c.08.15.08.15-.36.86l-.38.62a.2.2,0,0,1,.16,0,.27.27,0,0,1,.17.13c0,.06,0,.06.07.55l0,.5.39-.25c1-.61,1-.64,1.19-.6a.29.29,0,0,1,.17.13c.07.12.06.18-.1.53,1.74-1,1.75-1,1.89-1a.27.27,0,0,1,.17.13l.12.32.12.34,1.08-.64c1.06-.64,1.06-.64,1.19-.6a.27.27,0,0,1,.17.14c.05.09.06.1-.1.58l.3-.18c.59-.36.69-.43.84-.19s.08.14-.34,1.73l.06,0c.34-.21.36-.22.48-.2a.27.27,0,0,1,.17.13c.08.14.07.18-.33,1.28l0,.12.13-.08c.17-.11.22-.14.33-.11a.27.27,0,0,1,.17.13c.08.14.08.15-.37,1.4v0c.29-.18.34-.2.45-.17a.27.27,0,0,1,.17.13c.07.13.07.13-.18.65l-.08.17c.19-.11.24-.12.33-.09a.28.28,0,0,1,.17.13l.63,1.1L32,18.2c.4-.25.42-.27.54-.23l-.07.26-.23.13.23-.13.1.25-.29.18C31.77,19,31.63,19.06,31.53,19.06Z"/>        <path class="a" d="M22.83,12.1h-.07a.28.28,0,0,1-.17-.13.27.27,0,0,1,.1-.37l.11,0c.23-.1,1.2-.69,1.62-1s.56-.35.68-.31a.27.27,0,0,1,.17.13,4,4,0,0,1,.17.46l.08.22c.27-.15.71-.43,1-.63,1.09-.68,1.1-.68,1.25-.64a.28.28,0,0,1,.17.13l.17.24.33.46.24-.15c.42-.26.46-.29.59-.25a.27.27,0,0,1,.17.13.27.27,0,0,1-.11.37l-.06,0L29,11c-.47.3-.53.34-.67.3a.28.28,0,0,1-.17-.13l-.45-.63-.06-.08-.81.5c-1.33.83-1.39.85-1.54.8a.28.28,0,0,1-.17-.13,4.69,4.69,0,0,1-.19-.54l0-.1-.18.11C23.24,12,23,12.1,22.83,12.1Z"/>        <path class="a" d="M28.26,10.11h-.07A.28.28,0,0,1,28,10c-.07-.12-.09-.15.11-.43h-.06a.27.27,0,0,1-.16-.12c-.07-.12-.08-.13.36-1.33-.3.19-.35.21-.46.18a.28.28,0,0,1-.17-.12c-.06-.12-.08-.15.2-.61a.21.21,0,0,1-.18,0l-.06,0-.28-.13L26,6.72l-.36.21C23.67,8.08,23.67,8.08,23.52,8a.28.28,0,0,1-.17-.13l-.59-.48-.29-.24-.09.06c-.63.39-.69.42-.82.39a.28.28,0,0,1-.17-.13c-.1-.18-.11-.19,1.38-1.71-1.55.9-1.57.89-1.67.86a.27.27,0,0,1-.16-.12c-.11-.18-.08-.24.49-.88h0a.28.28,0,0,1-.17-.13.27.27,0,0,1,.1-.37l.09,0c.11-.05.44-.26.62-.37.4-.25.41-.25.52-.22a.27.27,0,0,1,.17.13c.1.17.07.25-.35.73L24,4.47c.29-.17.34-.2.47-.12a.27.27,0,0,1,.1.1c.06.1.09.15-.1.37h0c-.15.18-.43.47-.95,1l-.84.85,0,0,.41.34.53.44c.35-.19,1.23-.72,1.7-1s.58-.35.7-.32l.08,0,1.43.7L27.7,7l.21-.13c.6-.37.65-.4.78-.36a.28.28,0,0,1,.17.13c.09.13,0,.19-.14.49l-.07.12a.26.26,0,0,1,.18,0,.28.28,0,0,1,.17.13c.07.1.07.1-.15.69l-.24.66.08,0c.23-.14.41-.24.55,0s.09.17-.11.46h.05a.28.28,0,0,1,.17.13.27.27,0,0,1-.1.37l-.08,0-.34.21C28.48,10,28.37,10.11,28.26,10.11Z"/>        <path class="a" d="M22.93,6a.24.24,0,0,1-.17-.08.27.27,0,0,1,0-.38l.06,0,.1-.06C25,4.18,25,4.18,25.14,4.22l0,0,.41.13c.84.27,1.25.4,1.45.48l.35-.21c.65-.39.65-.39.78-.36l-.07.26-.24.13.24-.13.09.25-.52.31c-.57.35-.57.35-.7.31l-.1,0c-.17-.08-1.06-.36-1.45-.48l-.35-.11c-.15.08-.59.32-1.89,1.11A.56.56,0,0,1,22.93,6Z"/>        <path class="a" d="M27,3.77h-.08a.27.27,0,0,1-.16-.12c-.09-.14-.08-.16.28-.88l0,0c-.18.11-.23.12-.32.09a.27.27,0,0,1-.17-.13.27.27,0,0,1,0-.27L27.42,1c-.33.2-.33.2-.45.17l.15-.52L27,.87,26.93.63l.24-.15C28,0,28,0,28.15,0a.28.28,0,0,1,.17.13c.08.14.1.18-.75,1.66a.26.26,0,0,1,.18,0,.28.28,0,0,1,.17.13c.08.14.06.21-.28.88.17-.09.22-.1.31-.08a.28.28,0,0,1,.17.13.27.27,0,0,1-.1.37l-.07,0-.51.3C27.17,3.72,27.1,3.77,27,3.77Z"/>      </g>      <g>        <path class="a" d="M57.75,7.44h-.07a.27.27,0,0,1-.17-.13c-.08-.14-.08-.14.46-1.38l-1.17.73c-1.29.82-1.31.82-1.46.78a.28.28,0,0,1-.17-.13.27.27,0,0,1,.1-.37l.1,0c.16-.08.7-.42,1.15-.7,1.66-1.05,1.86-1.14,2-1.09a.3.3,0,0,1,.18.13c.07.13.07.13-.2.74l-.25.58.12-.07c.37-.23.37-.22.49-.19l-.16.51.09-.26.12.24-.25.15C58,7.35,57.85,7.44,57.75,7.44Z"/>        <path class="a" d="M52.84,5.16h-.07A.28.28,0,0,1,52.59,5c-.11-.19-.11-.2.68-1-.34.2-.41.2-.51.18a.29.29,0,0,1-.17-.13c-.11-.18-.14-.24.94-1.52-.58.36-.65.36-.76.33a.28.28,0,0,1-.17-.13c-.1-.17-.1-.17.51-1.08a.22.22,0,0,1-.15,0,.27.27,0,0,1-.17-.13.27.27,0,0,1,.1-.37l.08,0c.11-.06.48-.28.64-.38s.28-.17.4-.14a.27.27,0,0,1,.16.12c.1.17.1.17-.51,1.08l0,0,.14-.09c.88-.55.91-.56,1-.53a.28.28,0,0,1,.17.13c.1.17.1.17-.46.84l-.73.87,0,0c1-.6,1-.62,1.14-.58a.28.28,0,0,1,.17.13c.1.18.13.22-.58.92.28-.16.32-.15.41-.13a.28.28,0,0,1,.17.13.27.27,0,0,1-.1.37l-.1,0c-.14.07-.6.35-.94.56C53.14,5.05,53,5.16,52.84,5.16Z"/>        <path class="a" d="M48.57,18.29h-.07a.27.27,0,0,1-.17-.13c-.07-.12-.11-.18.12-.38h0c.14-.12.38-.29.77-.56C48,18,48,18,47.84,17.93a.28.28,0,0,1-.17-.13c-.12-.21-.12-.36.92-1.14-.31.14-.45.17-.55.14a.34.34,0,0,1-.19-.14c-.17-.3-.18-.31,3.7-3l-.06-.07c-.11-.19-.13-.22.93-1.13-.14.06-.18.05-.23,0a.28.28,0,0,1-.17-.13c-.11-.2-.13-.22,1.48-2-.76.48-.8.48-.93.45a.28.28,0,0,1-.17-.13c-.08-.14-.11-.19.51-.78-.15.08-.18.07-.25,0a.27.27,0,0,1-.17-.13c-.1-.18-.1-.18.7-.95L55.7,6.46c-2.78,1.64-2.81,1.63-3,1.6a.27.27,0,0,1-.17-.13c-.12-.21-.13-.22,1.27-1.93-2.19,1.37-2.44,1.47-2.64,1.42A.31.31,0,0,1,51,7.28c-.08-.15-.09-.16.68-1.31-2.53,1.47-2.54,1.47-2.66,1.44a.27.27,0,0,1-.16-.12c-.1-.17-.09-.24.33-.65-1.3.79-1.44.82-1.59.78a.3.3,0,0,1-.18-.13.27.27,0,0,1,.1-.37.2.2,0,0,1,.15,0c.3-.11,1.55-.9,2.24-1.32,1.11-.69,1.11-.69,1.25-.66a.27.27,0,0,1,.17.13c.11.19.08.28-.47.8L52.23,5c.29-.17.34-.2.47-.12a.27.27,0,0,1,.1.1c.08.15.08.15-.49,1L52,6.5c.54-.32,1.24-.76,1.71-1,1.18-.74,1.18-.74,1.32-.7a.28.28,0,0,1,.17.13c.1.19.1.19-.88,1.39L53.76,7l2.54-1.49c1-.61,1-.61,1.15-.59a.27.27,0,0,1,.17.13c.12.21.13.23-3,3.27.25-.13.29-.13.38-.1a.28.28,0,0,1,.17.13c.12.18.09.21-.4.66l-.09.08A.37.37,0,0,1,54.93,9a.29.29,0,0,1,.18.13c.1.17.1.17-.68,1l-1,1.07.61-.36c.64-.39.64-.38.76-.35a.27.27,0,0,1,.16.12c.11.19.13.22-.84,1,.29-.16.36-.17.46-.14a.29.29,0,0,1,.18.13c.15.26.15.26-2.76,2.3l-.32.22.42-.26c2-1.24,2-1.23,2.14-1.19a.28.28,0,0,1,.17.13c.15.25.16.27-1.84,1.64.78-.44,1-.52,1.19-.48a.33.33,0,0,1,.19.14c.11.19.16.28-.87,1a.32.32,0,0,1,.15.13.27.27,0,0,1-.27.4c-.44.15-2.69,1.55-3.55,2.09C48.79,18.21,48.66,18.29,48.57,18.29Z"/>        <path class="a" d="M45.74,12.45h-.07a.27.27,0,0,1-.17-.13c-.07-.13-.1-.18.19-.51-.36.22-.38.21-.48.18a.28.28,0,0,1-.17-.13c-.07-.13-.09-.2.09-.39H45a.27.27,0,0,1-.17-.13c-.12-.2-.12-.21,1-1.52-.68.43-.73.43-.86.4a.28.28,0,0,1-.17-.13c-.1-.19-.1-.19.64-1l.81-.93-.45.28c-.7.43-.7.44-.83.41a.27.27,0,0,1-.17-.13c-.06-.1-.09-.16.14-.38h0c.18-.18.52-.45,1.11-.94-.76.45-.93.5-1.08.47a.31.31,0,0,1-.18-.13c-.09-.18-.09-.18.8-1.22L46.05,6c-2.59,1.51-2.6,1.49-2.73,1.26s-.13-.23,1.27-1.39l.83-.69-1,.61c-2.59,1.57-2.61,1.56-2.78,1.52a.28.28,0,0,1-.17-.13c-.06-.11-.07-.13.12-1.58l-.3.18a.34.34,0,0,1-.31,0l.13-.23L41,5.37c.88-.53.88-.53,1-.5a.27.27,0,0,1,.17.13c0,.08,0,.08,0,.6,0,.24-.09.69-.13,1,.49-.28,1.38-.82,2.13-1.27,2.92-1.77,3-1.77,3.13-1.72a.28.28,0,0,1,.17.13c.13.23.17.3-1.47,1.69l.38-.22c.87-.51.88-.51,1-.48a.27.27,0,0,1,.16.13c.09.17.09.17-1.3,1.8l1.35-.84c1.57-1,1.58-1,1.73-.94a.28.28,0,0,1,.17.13c.12.21.12.22-2.06,2a.29.29,0,0,1,.14.12c.11.2.15.25-1.14,1.73.68-.42.74-.43.87-.4a.28.28,0,0,1,.17.13c.11.19.11.19-.93,1.35l-.17.19c.78-.46.81-.45.93-.42a.27.27,0,0,1,.17.13c.09.15.11.2-.19.48h0a.28.28,0,0,1,.17.13c.09.18.07.21-.3.6a.21.21,0,0,1,.13,0,.27.27,0,0,1,.17.13.27.27,0,0,1-.1.37l-.09,0c-.13.06-.53.3-1.2.71C45.87,12.42,45.8,12.45,45.74,12.45Z"/>        <path class="a" d="M45.13,4.59h-.07a.27.27,0,0,1-.17-.13c-.12-.21-.12-.21.9-1.25-.54.34-.59.35-.72.32a.28.28,0,0,1-.17-.13.27.27,0,0,1,0-.26l.73-1.39c-.23.14-.25.15-.36.11l.16-.51-.09.26-.12-.24.2-.12c.72-.44.75-.45.88-.42a.28.28,0,0,1,.17.13c.08.14.1.18-.66,1.61l.09-.06c1.1-.69,1.18-.73,1.34-.69a.29.29,0,0,1,.17.13c.11.2.09.28-.75,1.14.46-.27.5-.25.6-.23a.28.28,0,0,1,.17.13.27.27,0,0,1-.1.37l-.11,0c-.19.08-.89.52-1.28.76C45.34,4.51,45.22,4.59,45.13,4.59Z"/>        <path class="a" d="M49.25,5.89h-.07a.29.29,0,0,1-.13-.07l-.47-.35L48,5l-.08,0c-.92.57-.95.57-1.08.53a.28.28,0,0,1-.17-.13c-.07-.12-.1-.17.18-.58H46.7a.28.28,0,0,1-.17-.13c-.09-.15-.09-.15.41-1.29l.28-.65L47,2.94c-.11.07-.18.11-.29.08a.27.27,0,0,1-.16-.12c-.07-.13-.08-.14.28-1.27-.39.23-.43.24-.54.21a.28.28,0,0,1-.17-.13.27.27,0,0,1,.1-.37l.09,0c.12-.06.47-.28.63-.38s.44-.28.59,0,.07.12-.17.87l-.13.41c.43-.26.48-.25.58-.22a.28.28,0,0,1,.17.13c.09.15.09.16-.52,1.58L47.28,4c.39-.25.41-.26.54-.23a.27.27,0,0,1,.17.13c.09.15,0,.24-.11.43l-.13.17c.19-.12.21-.11.3-.09a.27.27,0,0,1,.17.13s.42.3.69.5l.38.28c.2-.11.63-.38.9-.55.7-.44.7-.44.83-.41a.27.27,0,0,1,.17.13l.35.36.43.45.8-.48c.44-.28.45-.28.57-.25l-.06.26L53,5l.23-.14.11.24-.33.2c-1,.65-1.07.65-1.22.61a.28.28,0,0,1-.17-.13l-.51-.53L50.9,5l-.43.27C49.59,5.77,49.39,5.89,49.25,5.89Z"/>        <path class="a" d="M52.31,4.41l-.08,0a.27.27,0,0,1-.16-.12c-.09-.16-.1-.17.52-1.49l.16-.35c-.47.28-.56.31-.69.1s-.06-.29.68-1.27a.24.24,0,0,1-.33-.09A.27.27,0,0,1,52.5.79h0L52.65.7c1-.57,1-.57,1.09-.53a.27.27,0,0,1,.16.13c.11.19.07.25-.65,1.2l-.05.07a.22.22,0,0,1,.18,0,.27.27,0,0,1,.17.13c.09.16.08.18-.46,1.35l-.23.5c.49-.28.51-.25.63-.07a.27.27,0,0,1-.07.37l0,0-.65.37C52.45,4.37,52.38,4.41,52.31,4.41Z"/>        <path class="a" d="M58.47,6.61h-.07a.27.27,0,0,1-.17-.13c-.07-.12-.08-.16.13-.5a.25.25,0,0,1-.15,0A.27.27,0,0,1,58,5.87l-.19-.26L57.4,5l-.61.38c-.82.52-.88.55-1,.51a.28.28,0,0,1-.17-.13,3.74,3.74,0,0,1-.19-.55L55.33,5l-.48.29c-.2.13-.24.15-.35.12a.27.27,0,0,1-.17-.13c-.09-.15-.09-.17.45-1.32l.11-.23,0,0c-.32.2-.34.21-.46.18a.27.27,0,0,1-.15-.1c-.09-.12-.08-.16.08-.54s.32-.76.49-1.19c-.27.17-.31.18-.42.15a.27.27,0,0,1-.17-.13c-.06-.13-.06-.13.16-.7-.39.23-.39.23-.5.2L54,1.38l-.12-.24L54.13,1c.74-.45.74-.45.88-.41a.27.27,0,0,1,.17.13c.06.1.06.11-.16.66.22-.13.28-.15.39-.13a.27.27,0,0,1,.17.13c.08.14.09.16-.53,1.65.32-.19.37-.19.47-.17a.27.27,0,0,1,.17.13c.09.14.09.14-.41,1.22l-.13.29c.27-.15.32-.15.41-.13a.28.28,0,0,1,.17.13,4.09,4.09,0,0,1,.19.56l.07.2.52-.33c.84-.53.9-.56,1-.52a.28.28,0,0,1,.17.13l.56.77.05.07.2-.12c.45-.29.52-.33.66-.29a.27.27,0,0,1,.17.13c.07.12.08.16-.13.5.18-.1.31-.12.42.06a.27.27,0,0,1-.09.37h0l-.2.12C58.7,6.53,58.56,6.61,58.47,6.61Z"/>        <path class="a" d="M55.72,8h-.07l.07-.26L56,7.57l-.24.13-.1-.25.57-.34c1.15-.7,1.16-.7,1.31-.66a.28.28,0,0,1,.17.13c.06.11.08.14-.09.44l1.06-.65c.79-.49.79-.49.91-.46a.27.27,0,0,1,.17.13c.1.17.11.2-.53.88l0,.14-.21.12L59.16,7l.09.25c-.07,0-.31.18-.53.32-.51.31-.51.31-.63.28a.27.27,0,0,1-.17-.13c-.07-.12-.09-.16.08-.36-.89.54-1,.55-1.13.52a.29.29,0,0,1-.18-.13c-.06-.11-.07-.14.06-.38l-.27.17C55.93,7.9,55.81,8,55.72,8Z"/>        <path class="a" d="M52.47,15.69H52.4a.27.27,0,0,1-.16-.12c-.12-.2-.15-.25.92-1.21l-.06-.07c-.09-.16-.09-.16.61-1.12l.48-.66c-.19.1-.23.09-.31.07a.27.27,0,0,1-.17-.13c-.1-.17-.08-.24.38-.74a.27.27,0,0,1-.13-.12c-.08-.15-.1-.17.49-1-.18.07-.24,0-.33-.11s-.09-.16.56-1.4l.09-.16c-.28.17-.29.17-.39.14a.27.27,0,0,1-.16-.12c-.07-.13-.07-.13.25-.94l.26-.67c-.14.08-.18.09-.27.07l.06-.26L54.76,7l-.23.14-.1-.25.24-.14c.44-.27.5-.31.63-.27a.28.28,0,0,1,.17.13c.08.14.09.16-.47,1.57.35-.21.39-.21.5-.18a.27.27,0,0,1,.17.13c.09.15.09.15-.49,1.23L55,9.65c.35-.21.48-.26.61-.05s.09.17-.27.67l-.24.34a.28.28,0,0,1,.23,0,.28.28,0,0,1,.17.13c.09.16.11.18-.32.64h0a.27.27,0,0,1,.17.13c.09.16.09.17-1.08,1.77.31-.19.34-.19.45-.16a.27.27,0,0,1,.17.13c.11.2.11.2-.58.81l-.08.07h.08a.29.29,0,0,1,.17.13.27.27,0,0,1-.1.37.27.27,0,0,1-.12,0c-.2.09-1,.56-1.29.77S52.55,15.69,52.47,15.69Z"/>        <path class="a" d="M48.71,18.91h-.07a.27.27,0,0,1-.17-.13c0-.06,0-.07,0-.67h0c-.53.33-.59.38-.74.34a.28.28,0,0,1-.17-.13c-.13-.23-.13-.23,1.51-1.74l.81-.75c-2.29,1.4-2.51,1.45-2.69,1.41a.3.3,0,0,1-.18-.14c-.16-.27-.17-.29,2.43-2.32.55-.43,1.24-1,1.82-1.44a.29.29,0,0,1-.12-.11c-.09-.14-.09-.14.31-.75l1-1.49c-.24.13-.29.13-.38.11a.28.28,0,0,1-.17-.13c-.09-.14-.1-.15.39-.78h-.06a.27.27,0,0,1-.17-.13c-.09-.16-.08-.22.46-1.05a.28.28,0,0,1-.29,0,.28.28,0,0,1-.1-.1c-.09-.16-.07-.24.27-.67h-.07a.28.28,0,0,1-.17-.13,4,4,0,0,1-.18-1h0l-.12.07c-1.29.78-1.3.77-1.44.74a.28.28,0,0,1-.17-.13L49.64,7h0c-.21.12-.56.34-.8.49-.73.46-.77.49-.92.45a.28.28,0,0,1-.17-.13.27.27,0,0,1,.09-.37l.08,0,.62-.38c1-.63,1.08-.67,1.24-.63a.29.29,0,0,1,.17.13l.12.17.4.59,1-.59c.62-.37.68-.41.82-.19s0,.07.11.5l.08.5.07,0c.53-.34.61-.38.75-.35a.28.28,0,0,1,.17.13c.09.16.07.24-.26.66h.09a.27.27,0,0,1,.16.12c.09.16.09.16-.38.87L53,9.17c.17-.1.2-.09.28-.07a.27.27,0,0,1,.17.12c.08.14.1.16-.34.73a.2.2,0,0,1,.12,0,.27.27,0,0,1,.17.13c.11.18.11.2-1.21,2.23.49-.3.49-.3.61-.27a.27.27,0,0,1,.17.13c.17.3.1.44-3.21,3l-.35.27,1.41-.87c.73-.45.73-.45.84-.42a.27.27,0,0,1,.17.13c.15.26.17.29-2.41,2.66l-.48.44,0,.06c0,.07,0,.07,0,.45,0,.08,0,.17,0,.25l1.29-.78c2.61-1.61,2.77-1.66,3-1.61a.29.29,0,0,1,.17.13.27.27,0,0,1-.1.37.36.36,0,0,1-.14,0c-.31.12-1.69,1-2.61,1.54C49.08,18.76,48.84,18.91,48.71,18.91ZM52.14,8.56l.13.23Z"/>        <path class="a" d="M46.76,11.64h-.07a.28.28,0,0,1-.17-.12c-.08-.14-.08-.14.32-1l.35-.82c-.31.19-.38.22-.49.19a.28.28,0,0,1-.17-.13c-.12-.2-.15-.27,1.25-1.69-.86.53-.94.54-1.08.51a.29.29,0,0,1-.17-.13c-.09-.15-.09-.16.38-1h-.11a.27.27,0,0,1-.06-.5l.06,0,.46-.28c.18-.11.38-.23.52,0s.09.16-.35,1l0,.09.75-.46c1.23-.77,1.24-.76,1.39-.73a.28.28,0,0,1,.17.13c.11.19.11.19-.66,1-.3.3-.8.8-1.24,1.25a.27.27,0,0,1,.15.12c.09.16.09.16-.62,1.8l0,0c.32-.2.37-.21.48-.18a.28.28,0,0,1,.17.13.27.27,0,0,1-.1.37l-.07,0-.41.25C47,11.58,46.85,11.64,46.76,11.64Z"/>        <path class="a" d="M46,13.1h-.08a.27.27,0,0,1-.17-.12c0-.07,0-.08-.07-.67-.56.35-.62.37-.75.34a.28.28,0,0,1-.17-.13c-.07-.12-.08-.13.2-.79-.23.14-.29.15-.39.13a.28.28,0,0,1-.17-.13c-.08-.14-.09-.16.32-.78a.23.23,0,0,1-.19,0,.27.27,0,0,1-.17-.13c-.08-.14-.08-.15.55-1.43-.24.15-.29.16-.39.13a.27.27,0,0,1-.17-.13c-.07-.12-.09-.15.27-.65a.22.22,0,0,1-.12,0,.27.27,0,0,1-.15-.11c0-.06,0-.06-.07-.41s-.06-.74-.09-1.07c-1.37.81-1.37.81-1.5.77a.27.27,0,0,1-.16-.12L42,7.25,41.76,7l-.1.06c-.67.42-.74.46-.88.42a.28.28,0,0,1-.17-.13c-.1-.17-.1-.19,1.18-1.6-1.49.86-1.51.82-1.63.63s-.08-.24.48-.87h0a.27.27,0,0,1-.17-.13.27.27,0,0,1,.1-.37l.09,0c.11-.06.46-.27.63-.38.4-.25.4-.25.52-.22a.27.27,0,0,1,.17.13c.1.17.07.25-.35.72l1.21-.7c.27-.16.33-.19.46-.11a.27.27,0,0,1,.1.1c.1.17.1.17-.89,1.26l-.58.64a.28.28,0,0,1,.12.11h0l.34.33.45.46,1.11-.65c.45-.26.45-.27.56-.23a.27.27,0,0,1,.16.13A6.56,6.56,0,0,1,44.81,8c.63-.39.68-.42.82-.38a.28.28,0,0,1,.17.13c.09.14,0,.21-.16.49l-.13.17h.11a.28.28,0,0,1,.17.13c.08.12.08.12-.23.74l-.36.73h0c.29-.17.3-.18.41-.15a.27.27,0,0,1,.17.13c.08.14.09.15-.32.79a.25.25,0,0,1,.15,0,.27.27,0,0,1,.17.13c.07.13.07.13-.21.77l0,0c.31-.2.34-.21.45-.18a.27.27,0,0,1,.17.13c0,.06,0,.06.05.47,0,.07,0,.14,0,.21l.12-.07c1.08-.68,1.15-.69,1.29-.65a.29.29,0,0,1,.17.13.27.27,0,0,1-.1.37.27.27,0,0,1-.12,0c-.16.07-.68.4-1,.58C46.2,13,46.1,13.1,46,13.1Z"/>        <path class="a" d="M44.83,5.89h-.08a.27.27,0,0,1-.17-.13l-.83-.69L43.63,5c-.16.09-.54.31-1.41.83a.35.35,0,0,1-.31,0,.27.27,0,0,1-.14-.23.27.27,0,0,1,.13-.24l.14.23-.1-.25c1.64-1,1.66-1,1.79-.95a.27.27,0,0,1,.12.07l.24.2.76.64L45,5.19c.44-.27.59-.36.74-.12a.27.27,0,0,1-.09.37l-.06,0-.32.19C45,5.84,44.9,5.89,44.83,5.89Z"/>        <path class="a" d="M44.63,4.25h-.08a.27.27,0,0,1-.16-.12c-.1-.16-.09-.18.42-1h0a.3.3,0,0,1-.26.05.27.27,0,0,1-.17-.13.27.27,0,0,1,0-.27l.9-1.48c-.3.18-.31.18-.42.15l.07-.26L44.82.95,45.07.8c.85-.52.86-.51,1-.48a.27.27,0,0,1,.17.13c.09.15.11.19-.81,1.68a.29.29,0,0,1,.21,0,.28.28,0,0,1,.17.13c.09.17.06.24-.39,1a.28.28,0,0,1,.4.1.27.27,0,0,1-.11.37l-.07,0L45.07,4C44.78,4.21,44.7,4.25,44.63,4.25Z"/>      </g>      <g>        <path class="a" d="M72,4.89H72a.28.28,0,0,1-.17-.13c-.16-.28-.2-.35,3-2.64a.23.23,0,0,1,0,0A.27.27,0,0,1,75,1.83l.08.13h0L75,1.8C76.39,1,76.4,1,76.54,1a.27.27,0,0,1,.17.13c.12.21.13.23-.92,1,1.33-.79,1.38-.78,1.51-.75a.28.28,0,0,1,.17.13.27.27,0,0,1-.1.37l-.11,0C77,2,75.61,2.83,74.6,3.44A13.09,13.09,0,0,1,72,4.89Z"/>        <path class="a" d="M70.91,18.25h-.07a.29.29,0,0,1-.17-.13c-.09-.16-.09-.16.43-.94l.66-1-.55.33c-1,.59-1,.59-1.11.56a.27.27,0,0,1-.17-.13c-.11-.2-.09-.27.55-.84-.24.13-.28.12-.36.1a.27.27,0,0,1-.17-.13c-.12-.21-.12-.22,1-1.34-.73.42-.75.42-.85.39A.27.27,0,0,1,70,15c-.12-.21-.1-.23,1-1.61l.53-.66c-1.15.72-1.23.74-1.38.7A.29.29,0,0,1,70,13.3c-.1-.17-.1-.17.45-.83l1.1-1.34h0c-1.12.72-1.2.75-1.37.71a.28.28,0,0,1-.18-.13c-.12-.21-.07-.29.87-1.2-.55.33-.59.32-.7.29a.28.28,0,0,1-.17-.13c-.11-.19-.12-.21.51-.75-.25.13-.28.12-.35.1A.26.26,0,0,1,70,9.9c-.1-.17-.11-.18,1.32-1.84h0c-1,.6-1,.62-1.15.59a.27.27,0,0,1-.17-.13c-.16-.28-.16-.28,2.63-2.19.76-.52,1.71-1.16,2.5-1.72-1.78,1-4.5,2.68-6.38,3.84-4,2.47-4,2.47-4.24,2.42a.28.28,0,0,1-.17-.13c-.2-.35-.24-.41,5.68-4,2.09-1.27,4.72-2.86,6.17-3.86-1.65.91-4.55,2.74-6.84,4.18-5.34,3.37-6.51,4-6.85,3.94a.35.35,0,0,1-.19-.14.27.27,0,0,1,0-.13.42.42,0,0,1,0-.12l.47-1.26-.3.18c-.42.26-.54.33-.69.11a.27.27,0,0,1,.07-.37l0,0,.29-.18c1-.59,1-.59,1.12-.55a.28.28,0,0,1,.17.13c.07.13.09.15-.49,1.66,1-.53,3.7-2.2,6.07-3.7C74.92,2.88,77,1.67,77.48,1.79a.4.4,0,0,1,.21.15c.14.24,0,.49-1.18,1.33a.72.72,0,0,1,.37-.06.35.35,0,0,1,.19.14c.19.33.08.5-4.21,3.43l-.17.12,0,0c.09.18.09.18-.72,1.13l-.63.73.51-.3c.65-.38.69-.41.83-.19s.12.25-.31.65a.24.24,0,0,1,.14,0,.28.28,0,0,1,.17.13c.12.21.09.27-.89,1.21.51-.32.59-.33.71-.3a.28.28,0,0,1,.17.13c.11.2.14.24-1.38,2.09l.09-.06c1-.6,1-.61,1.12-.58a.28.28,0,0,1,.17.13c.13.22.1.29-1.31,2l-.2.25.27-.16c1.09-.64,1.09-.64,1.24-.41s.11.27-.93,1.3c.78-.46.8-.44.93-.23s.09.29-.48.81c.2-.11.24-.1.31-.08a.28.28,0,0,1,.17.13c.1.18.12.21-1,1.86.59-.37.65-.4.78-.37a.28.28,0,0,1,.17.13.27.27,0,0,1-.09.37l-.09,0-.58.36C71.22,18.15,71,18.25,70.91,18.25Z"/>        <path class="a" d="M68.07,7.71H68a.32.32,0,0,1-.18-.14c-.13-.23-.15-.26,4.28-3.31-.4.18-.44.13-.5,0-.17-.29-.09-.36,2.17-2l1-.68h0a.27.27,0,0,1,.1-.37l.1,0c.13-.06.54-.32.77-.46.46-.29.46-.29.58-.26a.27.27,0,0,1,.17.13c.12.2.12.3-.76,1L76.92.89c.31-.18.35-.2.49-.13a.26.26,0,0,1,.1.1c.05.09.09.15-.12.33l0,0-.2.12c-.42.34-1.33,1-3.2,2.25L72.35,4.74a.27.27,0,0,1,.05.49l-.07,0c-.14.07-.67.4-1.19.73C68.8,7.45,68.3,7.71,68.07,7.71Z"/>        <path class="a" d="M71.94,17.57h-.07a.27.27,0,0,1-.17-.13c-.09-.16-.09-.16.53-1.16l0,0c-.14.07-.19.08-.26.06a.27.27,0,0,1-.17-.13.27.27,0,0,1,0-.14.44.44,0,0,1,.08-.2l.23-.32a.2.2,0,0,1-.12,0,.27.27,0,0,1-.16-.12c-.08-.13-.08-.13.32-1l.34-.76-.18.11c-.15.09-.21.13-.33.09a.27.27,0,0,1-.15-.12c-.07-.13-.1-.17.21-.59h0A.27.27,0,0,1,71.8,13c-.08-.14-.08-.2.16-.5a.27.27,0,0,1-.16-.13c-.09-.16-.09-.16.49-1.2-.18.11-.23.11-.32.09a.27.27,0,0,1-.17-.13c-.08-.13-.08-.13.27-.79l.34-.65c-.31.19-.32.2-.43.17a.27.27,0,0,1-.17-.12c-.09-.14-.09-.15.38-.91a.29.29,0,0,1-.21,0,.28.28,0,0,1-.17-.13c-.12-.18-.12-.18,1.32-1.53l.58-.54c-1.76,1-1.78,1-1.9.78s-.15-.26,2.06-1.83l1.41-1a.23.23,0,0,1-.16,0,.28.28,0,0,1-.17-.13c-.12-.21-.15-.26,1.58-2.46a.26.26,0,0,1-.15,0,.27.27,0,0,1,0-.47l.14.23-.1-.25c1-.63,1-.62,1.18-.59a.27.27,0,0,1,.17.13c.09.17.09.17-.57,1-.3.38-.78,1-1.17,1.5l.34-.21c1.56-.95,1.57-.94,1.72-.91a.27.27,0,0,1,.17.13c.17.29.1.47-2.63,2.45h0a.27.27,0,0,1,.16.13c.05.09.08.14-.11.36h0l0,0c-.26.29-.86.85-2.16,2.07l-.3.28,0,0c.08.13.08.14-.38.9a.28.28,0,0,1,.39.1c.09.15.11.18-.52,1.38.2-.12.26-.13.35-.1a.27.27,0,0,1,.17.13c.09.15.09.15-.41,1l-.11.19c.34-.19.41-.16.51,0s.09.19-.17.5h0a.27.27,0,0,1,.17.13c.09.17.05.21-.21.55l0,0h.07a.28.28,0,0,1,.17.13c.09.16.09.16-.62,1.72.34-.2.35-.21.46-.18a.27.27,0,0,1,.16.12c.07.12.09.16-.26.65h.09a.27.27,0,0,1,.17.13c.09.15.09.15-.55,1.2.28-.16.29-.16.39-.13l-.07.26-.24.13.24-.13.11.24-.35.21C72.16,17.49,72,17.57,71.94,17.57Z"/>        <path class="a" d="M71.66,18.88h-.07a.27.27,0,0,1-.17-.13c-.08-.13-.09-.18.13-.43-.84.5-.87.49-1,.46a.28.28,0,0,1-.17-.13.36.36,0,0,1,0-.27l.08-.41c-.33.21-.41.25-.54.22a.28.28,0,0,1-.17-.13c-.07-.11-.07-.11.16-.75l.27-.79c-.44.27-.45.27-.57.24a.27.27,0,0,1-.17-.13c-.09-.16-.07-.22.31-.73-.13,0-.2,0-.28-.13s-.09-.16.41-1v0c-.18.09-.2.08-.28.06a.27.27,0,0,1-.15-.12c-.09-.15-.09-.15.39-1.21l.24-.53c-.29.18-.35.19-.46.16a.28.28,0,0,1-.17-.13c-.08-.12-.08-.12.17-.64l.45-1c-.27.17-.34.19-.45.16a.28.28,0,0,1-.17-.13c-.09-.16-.07-.22.4-.95a.28.28,0,0,1-.23,0,.27.27,0,0,1-.17-.13c-.09-.16-.08-.18.27-.64a.18.18,0,0,1-.11,0,.27.27,0,0,1-.16-.13c-.05-.1-.05-.1.19-1.28-.66.35-2,1.21-3,1.82-2.36,1.48-2.46,1.52-2.64,1.47a.28.28,0,0,1-.17-.13c0-.05,0-.05-.1-.44l0-.25L63,11.2c-.58.36-.58.36-.7.33a.27.27,0,0,1-.17-.13c-.05-.09-.05-.09,0-.65v-.11h0c-.41.26-.45.29-.59.25a.27.27,0,0,1-.17-.13.27.27,0,0,1,0-.13.39.39,0,0,1,.05-.16L62.21,9l-.13.08c-.41.25-.42.25-.53.22l.07-.26.24-.13-.24.13-.12-.24.3-.18c1-.6,1-.6,1.14-.56a.28.28,0,0,1,.17.13c.08.14.1.18-.76,1.66a.25.25,0,0,1,.16,0,.27.27,0,0,1,.17.13c.05.1.05.13,0,.75l0,0c1.09-.67,1.11-.66,1.25-.63a.28.28,0,0,1,.17.13c0,.05,0,.06.15.69v0c.43-.24,1.3-.79,2.09-1.28,3-1.87,3.45-2.11,3.7-2a.32.32,0,0,1,.18.14c0,.11,0,.11-.06.64l-.11.53.3-.17c.19-.11.28-.16.41-.08a.27.27,0,0,1,.1.1c.08.14.07.22-.23.63h.06a.27.27,0,0,1,.17.13c.09.16.08.2-.4,1a.28.28,0,0,1,.23,0,.28.28,0,0,1,.17.13c.08.14.1.17-.56,1.59.25-.15.29-.16.39-.13a.27.27,0,0,1,.17.13c.09.16.08.2-.51,1.52l-.1.23c.34-.2.35-.19.45-.17a.27.27,0,0,1,.16.13c.09.16.08.2-.41,1,.21-.11.3-.09.4.07s.07.24-.28.72a.2.2,0,0,1,.11,0,.27.27,0,0,1,.16.13c.08.13.09.15-.38,1.51.25-.15.3-.17.41-.14a.27.27,0,0,1,.17.13c0,.09.06.11,0,.71l1-.63c.88-.53.88-.53,1-.5a.27.27,0,0,1,.17.13c.11.18.08.25-.46.82a.27.27,0,0,1,0,.46l-.08,0-.46.27C71.84,18.82,71.74,18.88,71.66,18.88Z"/>      </g>      <g>        <path class="a" d="M92.07,12H92a.27.27,0,0,1-.17-.13c-.08-.13-.08-.13.26-.79l.36-.71-1,.62c-.75.46-.75.47-.88.43a.27.27,0,0,1-.17-.13c-.09-.16-.1-.17.59-1-1.16.72-1.25.74-1.4.7a.29.29,0,0,1-.18-.13c-.08-.15-.08-.15.45-1l.22-.37c-1.68,1-1.69,1-1.8.94a.27.27,0,0,1-.16-.12c-.1-.17-.1-.17.46-.92l.26-.35-.38.23c-1.24.75-1.24.75-1.39.72a.27.27,0,0,1-.17-.13c-.08-.14-.09-.16.4-1.77L85.43,9.22c-.11.07-.21.13-.35.05L85.22,9l-.14-.23.07,0c2.48-1.5,2.52-1.48,2.66-1.45a.28.28,0,0,1,.17.13c.06.11.06.11-.12.69-.08.25-.22.71-.32,1.08l.65-.39C89.6,8,89.61,8,89.75,8a.28.28,0,0,1,.17.13c.1.17.1.24-.61,1.19l.86-.5c.76-.44.76-.44.9-.26s.1.19-.69,1.47l.71-.44c1-.63,1-.63,1.15-.59a.28.28,0,0,1,.17.13c.09.14.1.16-.57,1,1-.62,1.08-.61,1.21-.58a.29.29,0,0,1,.17.13c.09.15.1.18-.51,1.38.51-.32.57-.34.7-.31a.27.27,0,0,1,.17.13.27.27,0,0,1-.1.37l-.09,0c-.1.05-.39.23-.59.35C92.31,11.94,92.18,12,92.07,12Z"/>        <path class="a" d="M83.75,18.41h-.07A.27.27,0,0,1,83.5,18c.31-.59.63-1.24.85-1.7l-.59.36c-1,.64-1,.64-1.18.6a.28.28,0,0,1-.17-.13c-.1-.18-.12-.21.43-.7-.14.06-.18.06-.25,0a.28.28,0,0,1-.17-.13c-.11-.19,0-.26.26-.53l.62-.58c-.47.28-.55.29-.68.27a.29.29,0,0,1-.18-.13c-.1-.17-.1-.17.6-1L84,13.2l-.28.17c-.93.56-.93.56-1.05.53a.27.27,0,0,1-.17-.13c-.11-.19-.09-.27.53-.83-.25.14-.28.13-.36.11a.27.27,0,0,1-.17-.13c-.12-.21-.12-.21,1-1.31-.84.48-.86.44-1,.25s-.15-.27,2-2.2l1.11-1,0,0c-2.39,1.5-2.68,1.64-2.91,1.59a.31.31,0,0,1-.18-.14c-.1-.18-.1-.18.55-.88.33-.36.89-1,1.37-1.5l-.11.07c-1.33.85-1.45.9-1.62.86a.3.3,0,0,1-.18-.13c-.12-.21-.07-.29.83-1.19-.51.31-.55.3-.66.27a.28.28,0,0,1-.17-.13c-.11-.18-.12-.2.49-.74-.23.12-.26.11-.33.1a.27.27,0,0,1-.16-.13c-.1-.17-.1-.18,1.25-1.8-.91.57-.94.58-1.08.55a.28.28,0,0,1-.17-.13c-.12-.21-.12-.21.88-1.2L83.5,4c-.74.46-.75.45-.87.42a.27.27,0,0,1-.17-.13c-.12-.21-.12-.22.93-1.27-.6.37-.64.38-.77.35a.28.28,0,0,1-.17-.13.27.27,0,0,1,0-.14.39.39,0,0,1,0-.15l.7-1.36c-.2.12-.35.17-.47,0a.27.27,0,0,1,.07-.37l0,0L83,1.1c.66-.4.7-.43.84-.39A.28.28,0,0,1,84,.84c.08.14.1.17-.64,1.6l.15-.09c1.15-.72,1.24-.76,1.39-.72a.29.29,0,0,1,.17.13c.12.2.09.29-.78,1.16.51-.3.55-.29.66-.26a.28.28,0,0,1,.17.13c.11.19.11.26-.75,1.13.39-.23.46-.23.56-.2a.29.29,0,0,1,.17.13c.1.16.1.16-.73,1.16l-.55.66.47-.27c.56-.33.56-.33.69-.28a.27.27,0,0,1,.13.11c.09.16.11.23-.31.64a.22.22,0,0,1,.14,0,.28.28,0,0,1,.17.13c.12.22.09.27-.9,1.24,1.06-.68,1.17-.71,1.32-.68a.29.29,0,0,1,.18.13c.12.22.15.26-1.8,2.39l1.35-.84c1.83-1.15,1.86-1.15,2-1.11a.29.29,0,0,1,.17.13c.15.27.18.32-2.61,2.79l-.34.3c.34-.19.36-.18.45-.16a.27.27,0,0,1,.16.12c.12.21.1.26-.9,1.27.61-.36.63-.36.73-.33a.27.27,0,0,1,.16.13c.11.19.08.28-.46.79.18-.1.22-.09.3-.07a.27.27,0,0,1,.17.13c.12.2.13.23-1.34,2.08l0,0c.94-.6,1-.62,1.14-.59a.28.28,0,0,1,.17.13c.09.16.14.24-.63,1,.35-.2.37-.2.46-.18a.27.27,0,0,1,.17.13c.09.16.1.24-.34.66a.28.28,0,0,1,.18,0,.29.29,0,0,1,.17.13c.07.13.12.21-.71,1.85.26-.15.29-.15.38-.12l-.07.26-.24.13.24-.13.1.25-.43.26C83.93,18.34,83.83,18.41,83.75,18.41Z"/>        <path class="a" d="M92.94,11.18h-.07A.27.27,0,0,1,92.7,11c-.09-.15-.05-.22.26-1h0c-.4.23-.48.22-.6,0s-.07-.12,0-.39c-.38.24-.39.24-.51.21a.27.27,0,0,1-.17-.13l-.45-.9-.07-.15-.28.18c-.49.31-.57.36-.7.33A.28.28,0,0,1,90,9.12a2.4,2.4,0,0,1-.14-.59l-.06-.27-.38.24c-.42.26-.43.26-.54.23a.27.27,0,0,1-.17-.13,3.2,3.2,0,0,1-.18-.8l-.22.14c-.56.35-.6.38-.74.35a.27.27,0,0,1-.17-.13l-.14-.24-.42-.75c-.91.56-.93.56-1.06.52a.28.28,0,0,1-.17-.13l-.29-.72-.08-.21-.18.11c-.49.3-.5.3-.62.27a.27.27,0,0,1-.16-.13c-.09-.15-.1-.17.49-1.44-.28.17-.33.18-.44.16a.27.27,0,0,1-.17-.13c-.08-.13-.08-.13.33-1l.34-.8c-.32.2-.39.22-.5.19a.28.28,0,0,1-.17-.13c-.08-.14-.1-.18.47-1.27a.31.31,0,0,1-.25,0,.28.28,0,0,1-.17-.13c-.07-.11-.07-.12.15-.85-.44.27-.48.27-.59.24a.28.28,0,0,1-.17-.13.27.27,0,0,1,.1-.37l.08,0c.12-.06.5-.29.67-.4s.45-.28.59,0,.07.12-.14.81l0,.07c.35-.22.39-.24.51-.21a.27.27,0,0,1,.17.13c.08.14.08.14-.21.67L85,2.89c.27-.17.32-.18.42-.15a.27.27,0,0,1,.17.12c.09.16.09.16-.61,1.78l0,.06c.31-.19.36-.21.47-.18a.27.27,0,0,1,.17.13c.08.13.08.13-.24.82l-.31.66c.28-.17.3-.16.4-.14a.27.27,0,0,1,.17.13l.21.53.16.4.59-.36c.27-.16.45-.27.59-.05l.57,1h0l.29-.18c.58-.36.63-.39.76-.36a.27.27,0,0,1,.17.13s0,0,.06.25l.1.54h0c.71-.44.78-.47.92-.44a.28.28,0,0,1,.17.13,3,3,0,0,1,.16.69l0,.15.17-.11c.52-.33.61-.39.76-.35a.28.28,0,0,1,.17.13l.2.4.31.63.1-.06c.69-.42.73-.45.88-.41a.28.28,0,0,1,.13.07h0c.13.13.08.24,0,.45.27-.17.29-.17.4-.14a.27.27,0,0,1,.16.12c.09.15.05.22-.26,1v0c.4-.24.41-.23.51-.2l-.16.51.08-.26.11.24-.37.22C93.13,11.11,93,11.18,92.94,11.18Z"/>        <path class="a" d="M92.1,12.53H92a.28.28,0,0,1-.17-.13c0-.07-.05-.09,0-.52l-.15.09c-.48.29-.48.3-.61.27a.27.27,0,0,1-.16-.11l-.69-1.17c-.87.51-.87.51-1,.47a.27.27,0,0,1-.16-.12s0,0-.35-.86l-.05-.14-.05,0c-.76.48-.83.5-1,.47a.28.28,0,0,1-.17-.13,3.72,3.72,0,0,1-.16-.78v0c-.9.52-.91.51-1,.48a.27.27,0,0,1-.15-.12c-.06-.1-.06-.14.05-.53-.61.37-.66.38-.78.35a.28.28,0,0,1-.17-.13.27.27,0,0,1,.1-.37l.1,0c.12-.06.49-.29.7-.42.43-.27.43-.27.55-.24a.27.27,0,0,1,.17.12c.06.11.06.15-.06.55l.57-.33a.27.27,0,0,1,.37.1s0,0,.11.5l.06.35.42-.26c.4-.25.41-.26.53-.23a.27.27,0,0,1,.18.14l.19.46.22.54.52-.31c.29-.17.4-.23.54-.09l0,.06.68,1.16.16-.1c.71-.44.75-.45.88-.42a.27.27,0,0,1,.17.13.27.27,0,0,1,0,.14s0,.09,0,.11l-.06.27.23-.15c.94-.59,1-.63,1.17-.59a.29.29,0,0,1,.17.13.27.27,0,0,1-.1.37l-.11,0c-.14.07-.56.33-.84.51C92.37,12.44,92.22,12.53,92.1,12.53Z"/>        <path class="a" d="M84.5,17.12h-.08a.27.27,0,0,1-.16-.12c-.09-.15-.09-.16.46-1.18-.2.12-.25.12-.34.1a.27.27,0,0,1-.17-.13c-.08-.13-.08-.13.26-.79l.34-.66c-.31.19-.33.2-.44.17a.27.27,0,0,1-.17-.13c-.07-.14-.07-.14.39-.89a.29.29,0,0,1-.39-.1c-.06-.15-.06-.15.31-.87l.22-.42c-.39.21-.42.17-.52,0s-.1-.16.31-.83l.18-.3c-.22.13-.24.12-.33.1a.27.27,0,0,1-.16-.13c-.08-.14-.1-.16.44-1.76a.25.25,0,0,1-.21,0,.27.27,0,0,1,0-.48c.63-.38.64-.38.76-.35a.27.27,0,0,1,.17.13c.06.11.06.11-.14.7-.09.26-.24.71-.35,1.08.47-.28.48-.28.59-.25a.27.27,0,0,1,.17.13c.09.15.09.21-.43,1.09.18-.1.27-.12.39,0l0,.06c.07.13.07.13-.52,1.27.21-.13.25-.14.35-.11a.27.27,0,0,1,.17.13c.07.13.08.14-.39.89a.28.28,0,0,1,.38.1c.09.15.11.18-.51,1.38.19-.11.25-.12.34-.1a.28.28,0,0,1,.17.13c.08.15.08.15-.37,1l-.1.19c.23-.13.26-.12.35-.1l-.07.26-.23.14.23-.14.09.25c-.08,0-.37.21-.59.35S84.56,17.12,84.5,17.12Z"/>        <path class="a" d="M83.63,18.9h-.08a.28.28,0,0,1-.17-.13c0-.07,0-.07,0-.6h0l0,0c-.59.35-.59.35-.71.32a.27.27,0,0,1-.2-.32c.12-.53.24-1.1.31-1.49l-.06,0c-.48.3-.51.31-.63.28a.27.27,0,0,1-.17-.13c-.09-.15-.09-.18.29-.66H82.1A.27.27,0,0,1,82,16.1c-.14-.16,0-.28.08-.47l.3-.44a.31.31,0,0,1-.22,0,.28.28,0,0,1-.17-.13c-.07-.12-.07-.12.25-.81l.39-.84c-.36.22-.37.22-.48.19a.27.27,0,0,1-.17-.13c-.09-.16-.07-.22.3-.72a.2.2,0,0,1-.13,0,.27.27,0,0,1-.17-.13c-.09-.16-.09-.16.43-1l0,0c-.31.16-.34.12-.45,0s-.09-.16.4-1.23l.24-.53c-.31.19-.37.21-.48.18a.28.28,0,0,1-.17-.13c-.07-.14-.07-.14.16-.62l.48-1c-.29.18-.36.21-.47.18a.28.28,0,0,1-.17-.13c-.09-.16-.07-.22.41-1a.29.29,0,0,1-.24,0,.27.27,0,0,1-.17-.13c-.09-.16-.08-.18.27-.64-.15.06-.19,0-.27-.11s-.09-.15.55-1.4c-.25.16-.29.16-.39.13a.27.27,0,0,1-.17-.12c-.09-.16-.09-.16.38-.89l.07-.11c-.18.11-.2.1-.29.08a.27.27,0,0,1-.16-.12c-.1-.16-.09-.18.42-1h0a.3.3,0,0,1-.26.06.27.27,0,0,1-.21-.26.39.39,0,0,1,.06-.17l.9-1.46c-.27.16-.4.22-.54,0a.27.27,0,0,1,.06-.38l0,0,.24-.14c.82-.5.84-.5,1-.47a.28.28,0,0,1,.17.13c.09.15.11.19-.82,1.7a.29.29,0,0,1,.21,0,.28.28,0,0,1,.17.13c.09.16.06.24-.39,1,.14-.07.18-.07.26,0a.27.27,0,0,1,.17.13c.09.16.08.22-.39,1a.3.3,0,0,1,.22,0,.28.28,0,0,1,.17.13c.07.14.07.14-.29.84l-.29.57c.27-.16.43-.24.57,0s.08.24-.22.65h.06a.27.27,0,0,1,.17.13c.1.17.08.2-.41,1a.3.3,0,0,1,.24,0,.28.28,0,0,1,.17.13c.09.15.1.17-.58,1.6.27-.17.31-.17.41-.15a.27.27,0,0,1,.17.13c.09.16.08.2-.53,1.53l-.1.23c.37-.22.38-.22.5-.17a.27.27,0,0,1,.13.11c.09.16.08.21-.42,1,.15-.08.18-.08.26-.05a.27.27,0,0,1,.16.12c.09.16.07.24-.28.72a.21.21,0,0,1,.11,0,.28.28,0,0,1,.17.13c.09.15.1.17-.58,1.62.25-.16.31-.17.41-.14a.27.27,0,0,1,.17.13c.08.13.11.18-.33.84a.19.19,0,0,1,.16,0,.27.27,0,0,1,.17.12c.09.15.08.22-.26.66h.07a.27.27,0,0,1,.17.13c.05.09.09.15-.23,1.65.53-.32.53-.32.65-.29a.27.27,0,0,1,.17.13c0,.08,0,.08,0,.64l.72-.44c.59-.36.59-.36.71-.33l-.07.26-.24.13.24-.13.11.25-.46.28C83.94,18.79,83.74,18.9,83.63,18.9Z"/>      </g>    </g>    <g>      <path class="b" d="M99.75,7a.26.26,0,0,1,0,.2c-.12.07-.31,0-.2-.21C99.65,7,99.66,6.92,99.75,7Z"/>      <path class="b" d="M100.36,16.87c-.42-.14-.28-.65-.37-.95s-.48-.62-.35-1c-.1-.51-.4-.9-.47-1.42,0-.15,0,0,.13,0,0-.18-.22-.17-.26-.3.19-.32-.29-.37-.08-.59a.83.83,0,0,1-.18-.7c-.33-.33-.11-1.1-.36-1.56-.1-1.33-.17-2.3-.29-3.57.25-.37-.12-1.2.19-1.61a2.5,2.5,0,0,1-.06-.3c0-.1.06-.16.12-.18a4.78,4.78,0,0,1,.39-1.77,2.49,2.49,0,0,1,.16-.75l.12,0c0-.27.06-.8.36-.87A1.65,1.65,0,0,1,100.11,0s.18.15.17,0c.09,0,.06.07.05.14s.19-.06.3-.06.19.31.46.35c1.21,2,.79,5,1,7.56a1,1,0,0,0,.36-.7,19.64,19.64,0,0,1,1.79-2.91l.06-.28c.33-.2.43-.74.81-.86A1.94,1.94,0,0,1,106,2.14c.08-.12-.12-.06,0-.17s.26-.16.35-.29c.07,0,.08.09,0,.17s.09-.14.16-.17c-.2,0,0-.3.1-.1,0-.27.37-.29.52-.51,0,0,0,.08.1.1.13-.17.17-.17.44-.11a2.46,2.46,0,0,1,0,.62c.4.18.49,0,.88-.06,0-.12-.05-.17.05-.24l.3.15a7.68,7.68,0,0,1-.75,1.94c.14.06.18,0,.32,0s-.08-.26.11-.31c.17.22,0,.57-.05.81a8.35,8.35,0,0,1-.92,1.78c-.1-.48.45-1.09.45-1.68-.18-.05-.12.27-.3.22a8.06,8.06,0,0,1-.7,1.7c-.17.34-.27.91-.53,1.12,0,.39-.21.48-.31.84.17.07.27-.13.22-.24.41-.6.65-1.45,1.09-2a15.32,15.32,0,0,1-.76,2.15s0-.08-.06-.1,0,.22-.08.36a.18.18,0,0,1,0-.18,25.6,25.6,0,0,1-1.26,2.74c0,.13-.14,0-.15.13s-.28.62-.24.53c-.06.11-.15.42-.35.46a3.57,3.57,0,0,1-.64,1.22,13.5,13.5,0,0,1-.89,1.42c-.14.49-.36.66-.54,1.16a.2.2,0,0,1-.13,0c0,.47-.53.71-.69,1.09a3,3,0,0,0-.17,1.37c-.14.11-.16.41-.38.41s0-.2-.11-.23a.89.89,0,0,0-.57.7.32.32,0,0,1-.32-.07,5.43,5.43,0,0,1,.54-1,.83.83,0,0,1-.44-.63.52.52,0,0,1,.29,0c-.17.19-.11.36.1.48a3.36,3.36,0,0,0,.75-1.36c-.23.19-.55,0-.74.17-.2-.17-.19-.46-.21-.75a.31.31,0,0,1-.26-.14C100,16.08,100.5,16.41,100.36,16.87Zm6.28-15c.25,0,.35-.34.68-.27,0-.08.16-.27,0-.32A2,2,0,0,0,106.64,1.9Zm.19.66c-.09-.1.1,0,.1-.06s.08-.33.26-.23c0-.2.16-.14.16-.34s-.25.15-.31-.11l0,.2c-.45.19-.68.74-1.12,1-.07.21-.3.63-.57.7.05.23-.15.36-.3.43.12.22-.24.52-.55.42,0,.09-.25.17-.18.25.08-.14.29.09.47.1s.41-.52.68-.84c.09-.1.21-.06.29-.18.23-.34.32-.38.28-.52C106.37,3.23,106.42,2.61,106.82,2.56ZM99.89.67c.35.09.59.22.75,0A.41.41,0,0,0,99.89.67Zm1.29,2c.14.07.13-.07.25,0a2.7,2.7,0,0,0-.58-1.9A14.76,14.76,0,0,1,101.18,2.69Zm5.68.08c-.13-.06-.18,0-.25,0,0,.26-.21.1-.2.33.22.09.17-.24.4-.12.08-.28.31-.33.41-.57A.4.4,0,0,0,106.86,2.77ZM99.63,2c.22.13,0,.51.27.64.15-.13.12-.3.11-.51s.28-1,0-1.12C99.69,1.22,99.82,1.72,99.63,2Zm.59,2.19a4.83,4.83,0,0,0,.17-2.31l-.08,0C100.22,2.65,99.87,3.62,100.23,4.21Zm5.15-.9c.12,0,.11-.14.2-.16C105.49,3,105.38,3.15,105.38,3.32ZM98.54,6.08a27,27,0,0,0,.11,3.45,1.36,1.36,0,0,1,.09.72c.38-.27-.19-1.2.25-1.51,0-.07-.19,0-.18-.12,0-.64,0-1.24,0-2,0-.07.11-.08.12-.18a5.89,5.89,0,0,1,0-1.19A18.69,18.69,0,0,0,99.27,2,11.64,11.64,0,0,0,98.54,6.08Zm7.66-1.84c.12,0,.14-.06.16-.17l-.12,0Zm-5-.67c.12,0,.13-.08.22-.08A.49.49,0,0,0,101.4,3,4.72,4.72,0,0,1,101.24,3.57Zm4.7,1c.15,0,.25-.07.26-.27C106.07,4.29,105.91,4.47,105.94,4.55Zm1.09.28c0-.1,0-.2-.07-.22S106.86,4.85,107,4.83Zm-7.84.73c.2.18,0,.6.1.85-.07.07-.16.11-.21.2s.2,0,.18.12-.07.13-.09.23c.2.18.09.52.08.76a.26.26,0,0,0-.19-.08c-.08.21.2.07.21.17,0,.44.07,1.06.05,1.46.21.09.28-.05.43-.07,0-.08-.24-.05-.21-.17.18-.18,0-.27,0-.42.1,0,.14,0,.18-.08a.75.75,0,0,1-.08-.76c.1,0,.23.07.25,0s-.3,0-.31-.11,0-.18,0-.33c.23-.12.12.22.22.3a1.29,1.29,0,0,0,.11-.72c-.15-.06-.23,0-.36,0a.53.53,0,0,1,.15-.3c.16,0,0,.23.2.21.07-.19,0-.5.12-.76,0-.05-.14-.07-.13-.15.12-.27.33-1,.09-1.18,0,.45-.24,1.09-.13,1.37a.86.86,0,0,1-.17.21c.12,0,.17.23.07.26s-.11-.11-.17-.16c.16-.24-.12-.66.17-.79-.14-.68.18-1.7,0-2.44l-.12,0A16.8,16.8,0,0,1,99.19,5.56ZM105.42,5c0,.19-.31.62-.57.7-.06.12,0,.43-.2.33,0,.25-.16.36-.31.47-.35,1-1.05,1.59-1.37,2.71.27,0,.29-.39.45-.56.09,0,0,.15.17.16s0-.32,0-.46c.35-.07.52-.43.73-.71-.17,0-.24,0-.2.16-.12,0-.17.05-.24-.05a.24.24,0,0,0,.12-.35c.23,0,.27-.32.43-.44,0,.08.12.06.09.14s-.19.06-.21.2,0,.07,0,.13c.26,0,.27-.25.38-.41-.12,0-.18.06-.19-.08s.15,0,.19-.12c-.2-.25.24-.29.28-.52,0-.05-.14,0-.09-.14a1,1,0,0,0,.37-.37c.18,0-.15.25.06.3a3.41,3.41,0,0,1,.64-1.43c-.06,0,0-.11-.1-.11C105.76,4.81,105.57,4.88,105.42,5Zm-4.71-.9a1,1,0,0,0-.26.23c.19.15-.1.25-.13.39s.09,0,.14-.05a2.74,2.74,0,0,0-.07,1.27,2.39,2.39,0,0,0,.18-1.4c.19-.09.38-.78.18-1C100.62,3.75,100.55,4,100.71,4.11Zm4.08,1.18c.08,0,.11-.21,0-.21A.2.2,0,0,0,104.78,5.29Zm-1,.12c.1,0,.26,0,.3-.06-.12-.12.12-.12.1-.27l-.12,0C104,5.19,103.86,5.23,103.81,5.41Zm2,.39.2,0,0-.12A.17.17,0,0,0,105.79,5.8ZM103.92,6a1.59,1.59,0,0,1-.52.88c0,.45-.59.72-.5,1.17a5,5,0,0,0,.89-1.42l.17,0a.91.91,0,0,1,.5-.8C104.2,5.41,104.14,5.92,103.92,6Zm-.53.13c.24,0,.25-.28.38-.41-.05,0-.05-.08-.1-.1C103.68,5.83,103.46,5.89,103.4,6.14Zm1.65.19c.19,0,.2.1.32.07s-.17-.16-.28-.23Zm-3.58-.62c.09,0,.14-.31,0-.29C101.53,5.55,101.29,5.66,101.47,5.72Zm3.65.88c.16.06.16-.13.08-.19S105.06,6.52,105.12,6.6ZM101.36,6c0,.1.11,0,.11.06a4.41,4.41,0,0,0-.18,2.31,20.55,20.55,0,0,1,.35-2.52c-.15,0-.14,0-.19-.08A.35.35,0,0,0,101.36,6Zm3.54.61c-.1,0-.09.06-.14.09.15.06.16.22.26.3.09-.15-.06-.14,0-.25s.06.1.14.11,0-.14-.08-.18S104.8,6.79,104.9,6.64Zm-4.33,1.7c.37-.3,0-.9.23-1.44-.11-.33,0-.7,0-1A9,9,0,0,0,100.57,8.33Zm4-.71c.1,0,.19,0,.18.12s-.2.08-.28.14,0,.07,0,.13a.28.28,0,0,1,.24.05c.08-.4.63-.68.5-1.17A.82.82,0,0,1,104.52,7.63ZM100.15,7c0-.07.1-.22,0-.24S100,7,100.15,7Zm4.17,1.12c-.09.19.07.23.18.29,0-.18.11-.18.15-.3S104.43,8.32,104.32,8.16ZM102.51,8c.1.05.21-.16.13-.22A.92.92,0,0,0,102.51,8Zm1.53.54c.1,0,.21,0,.23-.12S104,8.36,104,8.51Zm-.15.13c0,.18-.17.15-.1.27.27-.06.42-.3.72-.3a.11.11,0,0,0-.05-.14A1.31,1.31,0,0,1,103.89,8.64Zm-1.24-.19c0-.19.34-.15.15-.3C102.74,8.21,102.53,8.48,102.65,8.46ZM100,8.28a.34.34,0,0,0,.24,0c0-.18-.07-.23,0-.4-.08,0-.08-.06-.15-.07C100,8,100.14,8.12,100,8.28Zm4,.83c.07.17-.16.31-.28.35.09,0,.15,0,.14.11s-.17.05-.17.21.13,0,.25,0a5.66,5.66,0,0,1,.45-.93s0-.06-.11-.07A.4.4,0,0,1,103.95,9.11Zm-1.74-.17c0-.12.26-.4.1-.47C102.29,8.68,102.1,8.79,102.21,8.94Zm-.9.34c0-.13.1-.29-.06-.3A.37.37,0,0,0,101.31,9.28Zm1.46.32c.12,0,.26-.16.18-.25C102.91,9.47,102.69,9.46,102.77,9.6Zm.57,0s.27.11.26-.07l-.2,0A.19.19,0,0,1,103.34,9.64Zm.23.26c-.07.11.07.09.14.11l0-.12A.23.23,0,0,0,103.57,9.9Zm-1,.27c.12,0,.4-.3.22-.45C102.71,9.9,102.34,10,102.52,10.16Zm-2.61-.69a.26.26,0,0,0,.21,0c0-.09,0-.15,0-.18S99.89,9.3,99.91,9.47Zm-.48.68a.22.22,0,0,0,0,.38c0-.13.07-.14.09-.23s-.15-.06-.08-.18.1,0,.17,0c-.07-.17-.16-.38,0-.53-.1,0-.13-.15-.2-.21A.66.66,0,0,0,99.43,10.15Zm.92.7c.27-.36,0-.79.05-1.18A2.8,2.8,0,0,0,100.35,10.84ZM99.92,10c.12,0,.09.08.19.08a.18.18,0,0,0-.11-.23C100,9.9,99.93,9.9,99.92,10Zm3.19.7.12,0c0-.09,0-.15,0-.18S103.12,10.58,103.12,10.66Zm-.07.11c0-.11-.07-.29-.16-.2C103,10.62,102.87,10.79,103.05,10.77Zm-.8.28c0-.18.11-.41,0-.5C102.29,10.76,102,11,102.25,11.05Zm.14.86c.12-.37.37-.51.39-.86C102.58,11.13,102.37,11.72,102.39,11.91Zm-3.47-1.13c.18-.14-.12-.2,0-.41C98.76,10.43,98.83,10.69,98.92,10.78Zm.21-.2c0,.17.23.15.32.23,0-.08.11-.23,0-.21S99.28,10.58,99.13,10.58Zm.4.42a.11.11,0,0,0-.05-.14c0,.13-.07.18-.1.27.14.09.1-.09.21,0-.06.1,0,.11,0,.2s-.14.09-.17.21a.66.66,0,0,0,.29,0,1.71,1.71,0,0,0,0-.83C99.58,10.79,99.7,11,99.53,11Zm.89.85c0-.3.28-.83.06-1C100.48,11.15,100.24,11.58,100.42,11.85Zm-1.18-.26c.08-.09.19-.3,0-.4C99.28,11.32,99.16,11.52,99.24,11.59Zm.66.56c.16-.17.07-.47.06-.65C99.91,11.72,99.76,12,99.9,12.15Zm-.55,0,.2,0c0,.11.06.14,0,.25s-.1,0-.14.05a.37.37,0,0,0,.06.3c.1-.11.13-.33.25-.4-.15,0,0-.26-.1-.31s-.1.06-.17,0c.08-.12-.12-.06,0-.17a.17.17,0,0,1,.22-.08c.06-.14,0-.2-.11-.23s0,.15-.07.15-.07-.29-.21-.17A1.46,1.46,0,0,1,99.36,12.2Zm.82,0c.07,0,.06-.24,0-.32C100.21,12,100.1,12.16,100.18,12.21Zm-.7.76a.22.22,0,0,0,.15.24c0-.13.13-.11.14-.26S99.57,12.94,99.48,13Zm.23.67a3.84,3.84,0,0,0,.48,1.76.66.66,0,0,0-.06-.47c.08,0,.08.06.15.07s-.08-.2-.1-.31a.11.11,0,0,1-.11.1c-.06-.14,0-.15,0-.32-.4-.21-.12-.87-.36-1.19-.05.11-.08-.06-.16,0C99.49,13.45,99.65,13.51,99.7,13.63ZM102.34,15a6.26,6.26,0,0,0,.43-.65c-.05,0,0-.06-.11-.06C102.63,14.6,102.23,14.64,102.34,15Zm-.15.3,0-.16A.09.09,0,1,0,102.19,15.29Zm-.95.37c.09-.13.13-.33.22-.45s-.05-.08-.1-.1S101.12,15.58,101.24,15.66Zm-.34.63c.07-.08.19-.42.06-.48C101,16,100.77,16.17,100.9,16.29Zm.46,1.67c-.09,0-.21.07-.25.19s.16,0,.24,0c0-.2.16-.49.1-.64C101.37,17.67,101.26,17.8,101.36,18Z"/>    </g>  </g></svg>