<svg xmlns="http://www.w3.org/2000/svg" width="89.98" height="22.36" viewBox="0 0 89.98 22.36">  <defs>    <style>      .a {        fill: none;        stroke: #002147;        stroke-linecap: round;        stroke-linejoin: round;        stroke-width: 1.13px;      }    </style>  </defs>  <title>アセット 8</title>  <g>    <g>      <path class="a" d="M10,9.88s1.2-.73,1.22-.7S10,10.33,10,10.37s2.06-1.26,2.09-1.21-1.92,2-1.88,2S13.8,9,13.85,9.12s-3.4,2.86-3.35,3,5.11-3.12,5.18-3S11,12.66,11.1,12.79,17.5,8.88,17.6,9s-3.85,4-3.78,4.12,4.92-3,5-2.88-5,3-4.89,3.1,4.82-2.95,4.89-2.82-4.94,4-4.86,4.09,4.79-2.93,4.86-2.81-4.94,3.41-4.86,3.54,4.79-2.93,4.86-2.81-4.94,3.75-4.86,3.89,4.79-2.93,4.86-2.81-4.93,3.42-4.86,3.55,4.79-2.93,4.86-2.81"/>      <path class="a" d="M10.07,4.43c.08.14,5.4-3.3,5.48-3.17s-1.94,3.79-1.89,3.88S17.94,2.53,18,2.64s-3.77,2.79-3.71,2.89S18,3.28,18,3.37s-3.44,2.3-3.38,2.39,3-1.85,3.08-1.78-2.36,2.07-2.32,2.13,1.35-.83,1.37-.79"/>      <path class="a" d="M3.82,3.63C3.88,3.73,8,1.06,8.09,1.16s-6.71,5.79-6.6,6S12.49.42,12.65.7,1.07,7.54,1.24,7.84,13.31.46,13.48.76.58,10.54.78,10.89C.86,11,6.29,7.53,6.37,7.67S1,13.41,1.09,13.58s4.72-2.88,4.79-2.76S1.54,15,1.62,15.14,6.13,12.38,6.2,12.5s-3.72,4.27-3.65,4.39S7,14.17,7.06,14.29s-2.9,4.39-2.84,4.5S8.74,16,8.8,16.15,6.18,19.94,6.24,20,10.91,17.18,11,17.3s-3.55,3.08-3.5,3.18,4.93-3,5-2.89S9.55,20.89,9.6,21s9.08-5.55,9.21-5.32S10,20.86,10.16,21.08s8.53-5.21,8.65-5-5.34,5-5.25,5.15,5.18-3.16,5.25-3S17.29,21,17.34,21.1s1.34-.82,1.36-.78"/>      <path class="a" d="M8.36,1.31S9.52.6,9.54.63,13.1.82,13.14.9s.57-.35.57-.33,1.4.72,1.42.76.46-.28.47-.27,2.07,1.49,2.1,1.54.38-.23.39-.22S17.51,4,17.53,4s.67-.41.68-.39S16.81,4.94,16.84,5s.78-.48.79-.46-.9.57-.88.59.78-.48.79-.46"/>      <path class="a" d="M10.09,4.63s.8-.49.82-.47,1.66.72,1.68.76.41-.25.42-.24.86.84.88.87.37-.22.37-.21,1.2,1,1.22,1,1.44-.88,1.46-.84"/>      <path class="a" d="M7.35,5.76c0,.06,2.56-1.56,2.59-1.5S6.22,7.38,6.28,7.49s.61-.37.62-.36S5.79,8.87,5.82,8.92s.48-.29.49-.28-.64,1.91-.61,2,.35-.21.35-.2-.34.34-.34.35.35-.21.35-.2-.3.67-.29.68.35-.21.35-.2-.28.88-.27.9.35-.21.35-.2.2,1.8.22,1.84.33-.2.33-.19.27,1.18.28,1.2.33-.2.33-.19l1.21,1.82s.35-.21.35-.2l.69.91s.4-.25.41-.23-.37.24-.37.25.4-.25.41-.23,2.65,1.07,2.69,1.13.53-.32.54-.31-.51.3-.5.31.53-.32.54-.31-.18.35-.18.36.94-.57.95-.55"/>      <path class="a" d="M9.87,9.72s1.3-.79,1.32-.76S9.78,10.2,9.81,10.24s.43-.26.43-.25S10,11.07,10,11.09s.34-.21.34-.2S10.2,12,10.22,12s.33-.2.34-.2.14,1,.15,1,.33-.2.34-.19,2.13.64,2.16.69.51-.31.52-.3-.11.33-.1.34.33-.2.33-.19-.25,1.39-.23,1.42.38-.23.39-.22-.4.94-.38,1,.38-.23.39-.22-.4,1.28-.38,1.3.38-.23.39-.22-.4.94-.38,1,.38-.23.38-.22"/>      <path class="a" d="M11.44,9.34s.68-.42.69-.4,4.28.19,4.33.29.68-.41.69-.4l.59.41s.48-.29.49-.28,0,.45,0,.46.39-.24.39-.23,0,1.89,0,1.94.38-.23.39-.22-.39.64-.38.66.38-.23.39-.22-.42,2.91-.38,3,.38-.23.38-.22-.4.81-.38.83.38-.23.38-.22-.39.32-.38.33.38-.23.38-.22-.42,2.75-.38,2.81.38-.23.38-.22-.41,1.77-.38,1.8S19,19,19,19s-.39.5-.38.52.38-.23.38-.22-.39.55-.38.57.38-.23.38-.22-.51.53-.5.54.49-.3.49-.29"/>      <path class="a" d="M3.37,3.69C3.44,3.8,7.86.94,7.92,1.06s-6.79,5.83-6.68,6c0,0,.52-.32.52-.3S1,7.72,1,7.75s.5-.31.51-.29-1,3.28-1,3.36.4-.24.4-.23S.81,13.46.84,13.52s.34-.21.35-.2.16,1.73.18,1.76.33-.2.33-.19.54,1.91.57,2,.32-.2.33-.19l1.3,2.12s.33-.2.34-.2S5.81,20,5.84,20.07s.38-.23.38-.22.77.69.78.71.44-.27.45-.26S9,21.07,9,21.11s.5-.31.51-.29,0,.39,0,.39.5-.31.51-.29,2.66.5,2.69.56.67-.41.68-.39,3.88.15,3.93.24,1.45-.88,1.47-.85"/>    </g>    <g>      <path class="a" d="M28.7,9.6c.06.1,3.91-2.39,4-2.29s-1.44,3.51-1.39,3.6S34.93,8.68,35,8.77s-3.38,2.58-3.32,2.67,3.79-2.31,3.84-2.22-3.67,2.43-3.62,2.53,3.78-2.31,3.83-2.21-3.15,3.64-3.09,3.74,3.94-2.41,4-2.31-3.92,2.57-3.86,2.67,3.94-2.41,4-2.31-3.78,4.75-3.7,4.89,4.24-2.59,4.31-2.49-4.46,3-4.4,3.15,4.4-2.69,4.46-2.58-4.58,2.6-4.51,2.71,4.46-2.73,4.53-2.61-4.9,3.13-4.83,3.26,4.75-2.9,4.82-2.78"/>      <path class="a" d="M24.22,9c0,.08,3.34-2,3.38-2s-5.23,5-5.14,5.13S31.39,6.74,31.52,7s-9.27,5.59-9.14,5.82,9.71-5.93,9.85-5.69-10,8.2-9.86,8.49c.06.1,4.12-2.52,4.19-2.42S23.15,17.84,23.22,18s3.95-2.41,4-2.31-3.1,3.52-3,3.62S28.07,16.9,28.13,17s-2.3,3.49-2.25,3.58,3.9-2.38,4-2.29-.57,3.1-.53,3.17S36.93,16.81,37,17s-4.71,4.16-4.63,4.3,3.12-1.91,3.17-1.83"/>      <path class="a" d="M28.76,9.86s.49-.3.5-.29.74.65.75.67.37-.22.37-.21l.52.87s.33-.2.33-.19.52,1.26.54,1.29.32-.2.33-.19-.27.3-.26.31.32-.2.33-.19-.12.56-.11.58.32-.2.33-.19-.06.76,0,.77.33-.2.34-.19.08,1.87.1,1.91.35-.22.36-.21-.32,1.51-.3,1.54.41-.25.41-.24-.83,1.55-.81,1.59.56-.34.57-.33"/>      <path class="a" d="M26.85,10.47s1.72-1,1.74-1-2.07,1.6-2,1.66.55-.34.56-.32-.75,1.35-.73,1.38.4-.24.41-.23-.38,1.2-.37,1.23.35-.21.35-.2-.24,1.17-.23,1.19.34-.21.35-.2.21,1.77.24,1.81.31-.19.32-.18-.2.38-.19.39.32-.19.32-.19.3,1.08.31,1.11.3-.19.31-.18.14.64.15.65.32-.2.33-.19l.42.84s.36-.22.37-.21,1,.81,1.05.84.49-.3.49-.29-.28.32-.28.33.72-.44.73-.42-.46.46-.46.47,1.68-1,1.71-1"/>      <path class="a" d="M27.83,7.13s.88-.54.89-.51,3.59.61,3.63.69.41-.25.41-.24l.32.57s.46-.28.47-.27,0,.45,0,.46.4-.24.4-.23S35,8.91,35,8.95s.36-.22.36-.21-.07.46-.06.47S35.6,9,35.6,9s.95,2.13,1,2.19.34-.21.34-.2-.17.69-.16.7.36-.22.36-.21-.34.29-.33.3.35-.22.36-.21.09,2.46.13,2.52.36-.22.37-.21-.44,1.79-.42,1.83.4-.24.4-.23-.5.56-.49.58.45-.28.46-.26-.57.65-.56.67.45-.28.46-.26-1.9,2.89-1.85,3,.86-.53.87-.5-1,.67-1,.7.86-.53.87-.51"/>      <path class="a" d="M24.07,8.82c0,.09,3.37-2.06,3.42-2s-5.37,5.05-5.28,5.21.47-.29.48-.28-.57.85-.55.87.41-.25.41-.24-.49,3-.45,3.06.35-.21.36-.21.41,2.55.44,2.61.33-.2.33-.19.57,1.49.59,1.53.33-.2.33-.19,1.23,1.52,1.25,1.56.36-.22.37-.21,2.7,1.22,2.74,1.29.56-.34.57-.33,3.4.15,3.44.22,3.19-2,3.24-1.87"/>    </g>    <g>      <path class="a" d="M47,9.6c.06.1,3.91-2.39,4-2.29s-1.44,3.51-1.39,3.6,3.65-2.23,3.7-2.14S49.92,11.35,50,11.44s3.79-2.31,3.84-2.22-3.67,2.43-3.62,2.53S54,9.44,54,9.54s-3.15,3.64-3.09,3.74,3.94-2.41,4-2.31S51,13.54,51.08,13.64s3.94-2.41,4-2.31-3.78,4.75-3.7,4.89,4.24-2.59,4.31-2.49-4.46,3-4.4,3.15,4.4-2.69,4.46-2.58-4.58,2.6-4.51,2.72,4.46-2.73,4.53-2.61-4.9,3.13-4.83,3.26,4.75-2.9,4.82-2.78"/>      <path class="a" d="M42.53,9c0,.08,3.33-2,3.38-2s-5.23,5-5.14,5.13S49.69,6.74,49.83,7s-9.27,5.59-9.14,5.82,9.71-5.93,9.85-5.69-10,8.2-9.86,8.49c.06.1,4.12-2.52,4.18-2.42S41.45,17.84,41.53,18s3.95-2.41,4-2.31-3.1,3.52-3,3.62S46.38,16.9,46.44,17s-2.3,3.49-2.25,3.58,3.9-2.38,4-2.29-.57,3.1-.53,3.17,7.62-4.66,7.73-4.46-4.7,4.16-4.63,4.3,3.12-1.91,3.17-1.83"/>      <path class="a" d="M47.06,9.86s.49-.3.5-.29.74.65.75.67.37-.22.37-.21l.52.87s.33-.2.33-.19.52,1.26.54,1.29.32-.2.33-.19-.27.3-.26.31.32-.2.33-.19-.12.56-.11.58.32-.2.33-.19-.06.76,0,.77.33-.2.34-.19.08,1.87.1,1.91.35-.22.36-.21-.32,1.51-.3,1.54.41-.25.41-.24-.83,1.55-.81,1.59.56-.34.57-.33"/>      <path class="a" d="M45.16,10.47s1.72-1,1.74-1-2.07,1.6-2,1.66.55-.34.56-.32-.75,1.35-.73,1.38.4-.24.41-.23-.39,1.21-.37,1.24.35-.22.36-.21-.26,1.17-.24,1.2.35-.22.36-.21.22,1.76.24,1.8.32-.2.33-.19-.2.38-.19.39.32-.2.33-.19.28,1.1.29,1.12.32-.2.33-.19.12.65.13.67.34-.21.34-.2l.41.85s.37-.23.38-.22,1,.81,1,.84.49-.3.49-.28-.28.32-.28.33.71-.44.72-.42-.46.46-.45.47,1.68-1,1.71-1"/>      <path class="a" d="M46.26,7.08s.81-.5.83-.48,3.55.64,3.59.72.42-.26.43-.25l.37.54s.4-.24.4-.23,0,.44,0,.45.36-.22.37-.21,1.08,1.29,1.1,1.33.34-.21.34-.2-.06.46-.06.47S54,9,54,9s.9,2.16.93,2.21.33-.2.33-.19-.15.68-.15.69.33-.2.33-.19-.3.27-.3.28.33-.2.33-.19.11,2.45.15,2.51.35-.21.36-.21-.47,1.8-.44,1.84.43-.26.44-.25-.48.55-.47.57.41-.25.42-.24-.56.65-.55.67.47-.29.48-.28-2,2.94-1.95,3,.88-.54.89-.52-1.14.7-1.12.73,1-.63,1-.61"/>      <path class="a" d="M42.36,8.82c0,.09,3.38-2.06,3.43-2s-5.34,5-5.25,5.2.44-.27.45-.26-.54.83-.53.85.41-.25.41-.24-.51,3-.47,3.07.35-.21.36-.21.4,2.56.43,2.62.32-.19.32-.19.54,1.51.56,1.54.35-.22.36-.21,1.22,1.52,1.25,1.56.4-.24.4-.23,2.67,1.24,2.71,1.3.58-.36.59-.34,3.4.14,3.45.21S54,19.61,54,19.69"/>    </g>    <g>      <path class="a" d="M61.13,8.89c0,.08,3-1.84,3.05-1.76S58.72,12.85,58.82,13s7.65-4.68,7.76-4.48-7.95,5.07-7.83,5.27S67,8.78,67.11,9s-8.41,5-8.29,5.23,8.38-5.12,8.5-4.91S59.07,15.73,59.2,16,63.9,13.09,64,13.21s-4.67,3-4.6,3.09,4.43-2.71,4.5-2.6-3.27,4.48-3.2,4.6,4.11-2.51,4.17-2.41S61,18.6,61,18.7s4.16-2.54,4.22-2.44S61,18.67,61.08,18.78s4.2-2.56,4.26-2.46S63,20.14,63,20.24c.14.25,9.86-6,10-5.78s-8.5,6.19-8.37,6.41,8.25-5,8.37-4.83S64.92,20.76,65,21s7.88-4.82,8-4.62-7.67,4.52-7.55,4.71S72.93,16.5,73,16.69s-4.66,4.4-4.58,4.54S73,18.47,73,18.58,71.52,21,71.56,21.1s1.34-.82,1.36-.79"/>      <path class="a" d="M68.66,1.89S70,1.07,70,1.1s-1.52,3-1.48,3,4.27-2.61,4.34-2.5-4.4,2.94-4.34,3.05S73,2,73,2.09s-4.56,5.22-4.47,5.38S73,4.77,73,4.88s-4.57,5.3-4.49,5.45S73,7.63,73,7.74s-4.56,4.32-4.49,4.46S73,9.5,73,9.61s-4.57,4.73-4.49,4.87S73,11.78,73,11.89s-4.57,4.69-4.49,4.83S73,14,73,14.14"/>      <path class="a" d="M70.29,1.25S71,.82,71,.84s1.62.74,1.64.78S73,1.4,73,1.41s-.15,1.42-.13,1.45.38-.23.39-.22S72.84,5,72.87,5s.38-.23.39-.22-.42,2.36-.38,2.41.38-.23.38-.22-.41,2.19-.38,2.24.38-.23.38-.22-.4,1.4-.38,1.43.38-.23.38-.22-.42,2.8-.38,2.87.38-.23.38-.22-.41,2.17-.38,2.22.38-.23.38-.22-.4,1.2-.38,1.23.38-.23.38-.22-.4,1.36-.38,1.39.38-.23.38-.22-.54,3-.5,3.11.48-.3.49-.28"/>      <path class="a" d="M61,8.7c0,.08,3.06-1.87,3.11-1.79s-4.84,3.72-4.77,3.86.65-.4.66-.38-1.32,1.86-1.29,1.91.48-.29.49-.28-.68,1.93-.66,2,.34-.21.35-.2-.33.34-.32.35.34-.21.35-.2-.28.65-.27.67.34-.21.35-.2-.25.86-.24.88.34-.21.35-.2.27,1.76.29,1.8.32-.2.33-.19.27,1.18.29,1.2.33-.2.33-.19l1.23,1.8s.35-.22.36-.21l.67.92S63,20,63,20s-.33.22-.33.23S63,20,63,20s2.46,1.19,2.49,1.25S66,21,66,21s-.48.28-.47.3S66,21,66,21s3.61.32,3.65.4.7-.43.71-.41,1.21.31,1.22.33,1.45-.89,1.47-.85"/>      <path class="a" d="M64.26,7.27s.47-.29.48-.27,0,.46,0,.47.42-.26.42-.24l.39.73s.35-.21.36-.21l.4.79s.35-.21.36-.21l.35.86s.35-.22.36-.21-3.57,3.85-3.51,4,.57-.35.58-.33-.71.66-.7.68.49-.3.5-.29-.49,1.53-.47,1.56.35-.21.35-.2-.12.78-.11.8.35-.21.35-.2.19.95.2,1,.37-.23.37-.22l.76,1s.4-.25.41-.24-.25.3-.24.31.39-.24.4-.23,1.33.7,1.35.74.56-.34.57-.33-.41.35-.41.36.91-.56.93-.53"/>      <path class="a" d="M68.48,1.74S69.95.85,70,.88s-1.68,3-1.64,3.11.38-.23.38-.22-.39.75-.38.77.38-.23.38-.22-.42,3-.38,3,.38-.23.38-.22-.42,3-.38,3.09.38-.23.38-.22-.41,2-.38,2.09.38-.23.38-.22-.42,2.45-.38,2.51.38-.23.38-.22-.42,2.4-.38,2.46.38-.23.39-.22"/>    </g>    <g>      <path class="a" d="M76.69,17.78s1.19-.72,1.2-.69-1.35,1.21-1.33,1.25,1.9-1.16,1.93-1.12-2.12,2.1-2.08,2.16,3.25-2,3.3-1.91-3.38,2.84-3.32,2.94,4.67-2.86,4.74-2.74S76.94,21,77,21.12s5.76-3.52,5.84-3.37-3.16,3.63-3.1,3.73,9.18-5.61,9.31-5.38-9,5.18-8.87,5.4,8.83-5.39,9-5.17-7,5.06-6.86,5.25,6.79-4.15,6.89-4-5.54,3.75-5.46,3.89S89,18.29,89,18.43s-3.35,2.67-3.29,2.76,2.64-1.61,2.68-1.55"/>      <path class="a" d="M83.09,10.25c.07.13,5-3.08,5.12-3s-1.37,3.34-1.32,3.42,1.29-.79,1.31-.76"/>      <path class="a" d="M77.2,8.8c0,.07,2.81-1.71,2.85-1.64s-3.69,4.14-3.62,4.26,8-4.88,8.11-4.68-8.17,5-8,5.2,8.81-5.39,8.94-5.16-7.62,6.9-7.49,7.12,3.7-2.26,3.75-2.16-1,3.33-.94,3.41,3.86-2.36,3.92-2.26-1.88,2.85-1.84,2.93,3.66-2.24,3.71-2.14-2.32,3.2-2.27,3.29,3.85-2.35,3.9-2.25"/>      <path class="a" d="M80.49,7.21s.93-.57.95-.55,3.6.17,3.65.24.59-.36.6-.34,1.66.57,1.68.61.49-.3.5-.29.25,2.54.29,2.59.46-.28.47-.27-.59.66-.57.68.46-.28.47-.27"/>      <path class="a" d="M83.2,10.46s.65-.4.66-.38,1.89.58,1.91.62.48-.29.49-.28.73.51.74.53,1.31-.8,1.33-.77"/>      <path class="a" d="M81.42,11S83,10.06,83,10.1s-1.3,1.79-1.27,1.84.36-.22.37-.21.78.68.8.71.44-.27.45-.26,1.28.82,1.3.85.42-.26.43-.25-.26.3-.26.31.42-.26.43-.25.12.43.12.44.4-.25.41-.24l.31.57s.39-.24.4-.23,1.28,1.17,1.3,1.21.35-.22.36-.21l.48,1.09s.33-.2.34-.19,0,2.42.06,2.48.41-.25.41-.24-1,1.81-1,1.86.59-.36.6-.34-.64.39-.63.4.59-.36.6-.34-.65.41-.64.42.59-.36.6-.34"/>      <path class="a" d="M76.51,17.61s1.29-.79,1.31-.75-1.47,1.27-1.45,1.32.43-.26.43-.25-.6,1.27-.58,1.3.42-.25.42-.24-.51,1.28-.5,1.31.37-.23.38-.22,0,1,0,1,.39-.24.4-.23,2,.71,2,.76.56-.34.57-.33-.16.36-.16.37.59-.36.6-.34,1.43.42,1.44.45.63-.38.64-.37.63.35.64.37.72-.44.73-.42,1.44.21,1.46.24S86,21,86,21s-.16.42-.15.43,2.77-1.69,2.81-1.62"/>      <path class="a" d="M77.89,17.25s.49-.3.49-.29,3.21.84,3.25.91.58-.35.59-.34.66.35.67.37S84.39,17,84.41,17"/>      <path class="a" d="M77,8.72c0,.08,3.06-1.87,3.1-1.79s-4,4.31-3.93,4.44.35-.21.36-.21-.3.7-.29.72.34-.21.35-.2.93,2.19,1,2.24.36-.22.37-.21,2.33,1.44,2.36,1.5.43-.26.43-.25,1.61.89,1.63.93.44-.27.45-.26S84,16.76,84,16.8s.31-.19.31-.18"/>    </g>  </g></svg>