<svg xmlns="http://www.w3.org/2000/svg" width="5.22" height="9.33" viewBox="0 0 5.22 9.33">  <defs>    <style>      .a {        fill: #0075c2;      }    </style>  </defs>  <title>ico</title>  <path class="a" d="M4,.06c-.13,0-.21.07-.31.15a9.68,9.68,0,0,0-.84,2.88c-.05,0-.07,0-.07.08a.69.69,0,0,1,0,.48A18.9,18.9,0,0,0,1.42.86C1,.67,1,.11.46,0,.31.12.26.5.41.54.22.7.21,1,.14,1.15s-.1.1-.11.16A4.74,4.74,0,0,0,.26,3,23.69,23.69,0,0,0,2.65,7.45c.07,0,.11.14.2.19.31.42.55.63.77,1,.23.06.47.7,1,.72.19-.24.49-.69.14-.92,0-.12,0-.17,0-.28s-.08,0-.08,0c.06-.64.42-1.32.2-1.92.12-.13.08-.39.11-.5a2.18,2.18,0,0,1,.1.85A4.78,4.78,0,0,0,5.09,8,1.85,1.85,0,0,0,5,8.83a5.52,5.52,0,0,0,.2-1.29C5.1,6.16,5.11,4.6,5,3.18a.13.13,0,0,1-.07.1C5,3,4.8,2.68,5,2.43a.28.28,0,0,0,0,.23,3.65,3.65,0,0,0-.1-.87,3,3,0,0,0,0-.52s-.08-.08-.1-.13,0-.14,0-.23C4.72.65,4.32.07,4,.06ZM2,4.87c0-.13.18-.1.27,0s-.09.1-.09.22S2.1,4.86,2,4.87ZM1.72,4c.11.05,0,.09,0,.17l-.1-.07C1.69,4.08,1.68,4.13,1.72,4Zm-.27-.27s.08,0,.09,0,.06.14.08.21C1.47,3.93,1.42,3.85,1.44,3.73Zm0-.88c.05,0,.1.1,0,.15S1.48,2.92,1.49,2.85ZM1.36,2.6c-.07,0-.08-.09-.09-.16h.08A.19.19,0,0,1,1.36,2.6Zm-.27-.84c.15.07.18.23.23.38C1.22,2,1,2,1.08,1.76ZM2.32,6.24l.11,0A.06.06,0,1,1,2.32,6.24ZM2.39,5s0,.07,0,.11l-.11,0C2.26,5.05,2.3,5,2.39,5Zm0,.17s.14,0,.13.11S2.35,5.3,2.36,5.22ZM1.88,3.88c-.07-.28-.28-.47-.37-.74a.18.18,0,0,1,0-.14,3.33,3.33,0,0,1,.82,1.59C2.12,4.42,2.13,4.05,1.88,3.88ZM1.45,1.44C1.21,1.3,1,.93.6.82,1,.52,1.25,1.25,1.45,1.44Zm-.16,2,.11,0c0,.09,0,.22-.11.18A.44.44,0,0,0,1.29,3.42Zm.57,1.92c-.12,0-.16-.14-.11-.19S1.89,5.22,1.86,5.34ZM.3,1.06C.33,1,.37.91.47.92A.15.15,0,0,1,.3,1.06Zm2,5.43c-.1,0-.08-.24-.19-.09-.08,0,0-.09,0-.14S2.27,6.36,2.26,6.49Zm-.19-.8a.14.14,0,0,1,.09.16C2.08,5.83,2,5.78,2.06,5.69Zm.26.93a.66.66,0,0,1,.19.23c.14-.12.19.08.3.13A.57.57,0,0,1,2.32,6.61Zm.57.6a.5.5,0,0,1,.21.32C3,7.42,2.9,7.37,2.89,7.22Zm.44.3c-.08,0-.11-.07-.09-.16S3.37,7.41,3.33,7.51ZM3.15,7c0-.11,0-.22-.16-.25,0-.41-.43-.64-.46-1a.31.31,0,0,0-.2-.17c.08,0,.2-.11.05-.16.39-.23.61.73.76,1-.14,0,0-.18-.2-.17.05.26.23.43.3.68,0,0,0,0,0-.08S3.27,7.09,3.15,7ZM3.25,6c-.07-.14-.17-.26-.22-.41C3.21,5.5,3.24,5.88,3.25,6Zm.15-.78c0-.06,0-.07,0-.11s.11.07.09.16S3.48,5.16,3.4,5.17ZM4.5,8.32c-.08,0,0-.15-.08-.21s.07.06.16.05S4.55,8.3,4.5,8.32ZM3.8,5.41c.06,0,.07,0,.11,0a1,1,0,0,0-.07.28A.24.24,0,0,1,3.8,5.41Zm.2.75a1.36,1.36,0,0,0,.13-.84,6.74,6.74,0,0,1,.13-2,11.29,11.29,0,0,1-.12,3C4.14,6.31,4.13,6.13,4,6.15ZM3.52,3.47c-.07-.13.21-.06.2-.2s.06.19,0,.22S3.55,3.4,3.52,3.47Zm.19-.66c.08,0,0,.14,0,.17S3.71,2.86,3.7,2.81Zm.85,4.77c-.24-.27,0-.7.08-1s-.11-.46,0-.62c0,0,0,0,.08,0A6.81,6.81,0,0,1,4.55,7.58Zm.14-1.7c-.07-.8,0-1.74,0-2.63A10.4,10.4,0,0,1,4.7,5.89ZM3.76,1.68a1,1,0,0,1-.14.58c0,.1.06.09,0,.18s-.06.1-.08.16a.16.16,0,0,1-.12,0c.08.18-.11.4,0,.52a1.67,1.67,0,0,0,0,.8.24.24,0,0,0,.1-.27s.11,0,.12,0c0,.1-.07.25-.06.36a.24.24,0,0,0-.17,0c-.06.19.09.21.19.29s0,.13,0,.15-.09.06-.1.13a.49.49,0,0,1-.08.5c-.31-.15-.21-.61-.45-.81.12-.45-.08-.63.06-1.14,0-.08-.08,0-.14,0a.47.47,0,0,0,.19-.32c-.06,0-.06,0-.07.08-.05-.25.24-.55.19-.89.17-.15.06-.46.26-.56,0-.1,0-.13,0-.22.27.13-.17.55.07.67C3.78,1.46,3.72,1,4,.73,4.17,1,3.87,1.45,3.76,1.68Zm1,1.5c0-.08-.12-.13-.07-.27C4.77,3,4.79,3,4.77,3.17Zm0-.29c-.06,0,0-.14,0-.2A.14.14,0,0,1,4.72,2.88Z"/></svg>