<svg xmlns="http://www.w3.org/2000/svg" width="6.59" height="11.79" viewBox="0 0 6.59 11.79">  <defs>    <style>      .a {        fill: #e9528e;      }    </style>  </defs>  <title>アセット 15</title>  <path class="a" d="M5.1.07c-.16,0-.26.09-.39.19-.3,1-1.12,2.43-1.06,3.64-.06,0-.09,0-.09.1a.87.87,0,0,1-.05.61A23.88,23.88,0,0,0,1.79,1.09C1.23.84,1.3.13.58,0,.39.16.33.64.52.68c-.25.2-.26.53-.34.78,0,.09-.12.12-.14.2A6,6,0,0,0,.33,3.83c1,1.93,1.64,3.92,3,5.58.08,0,.14.17.25.23.39.53.69.79,1,1.23.29.07.6.88,1.2.91.25-.3.62-.87.18-1.17.05-.15,0-.22,0-.36s-.1,0-.11,0c.08-.81.53-1.67.26-2.42.15-.16.1-.5.13-.63a2.76,2.76,0,0,1,.13,1.07,6,6,0,0,0,0,1.89,2.34,2.34,0,0,0-.08,1,7,7,0,0,0,.25-1.63C6.45,7.78,6.45,5.81,6.34,4a.16.16,0,0,1-.09.13c.08-.34-.18-.77,0-1.08a.36.36,0,0,0,0,.29,4.61,4.61,0,0,0-.12-1.1,3.85,3.85,0,0,0,0-.65c0-.06-.11-.1-.12-.16s0-.18,0-.29C6,.83,5.46.09,5.1.07ZM2.47,6.15c0-.16.23-.13.34-.06s-.12.12-.11.27C2.54,6.35,2.65,6.14,2.47,6.15Zm-.3-1.1c.14.07,0,.12,0,.21L2,5.17C2.13,5.15,2.12,5.21,2.17,5.05Zm-.35-.34s.1,0,.11,0S2,4.87,2,5C1.85,5,1.8,4.87,1.82,4.71ZM1.88,3.6c.07,0,.13.13,0,.19S1.87,3.69,1.88,3.6Zm-.17-.32c-.09,0-.11-.11-.12-.2l.11,0A.24.24,0,0,1,1.71,3.28ZM1.37,2.22c.18.09.23.29.29.48C1.54,2.55,1.31,2.49,1.37,2.22ZM2.93,7.88l.14,0A.08.08,0,1,1,2.93,7.88ZM3,6.38s0,.09,0,.14l-.14,0C2.86,6.38,2.91,6.34,3,6.38Zm0,.21c.06,0,.18,0,.16.13S3,6.69,3,6.59ZM2.37,4.9C2.28,4.54,2,4.3,1.9,4A.23.23,0,0,1,2,3.79a4.2,4.2,0,0,1,1,2C2.67,5.58,2.69,5.12,2.37,4.9ZM1.83,1.82C1.53,1.64,1.24,1.18.75,1,1.28.65,1.58,1.58,1.83,1.82Zm-.2,2.5.14,0c0,.11,0,.28-.14.23A.56.56,0,0,0,1.63,4.32Zm.72,2.42c-.15,0-.2-.18-.14-.24S2.39,6.6,2.35,6.74Zm-2-5.4c0-.1.09-.2.21-.18A.19.19,0,0,1,.38,1.34ZM2.85,8.2c-.12,0-.1-.3-.24-.11-.1,0,0-.11,0-.18S2.87,8,2.85,8.2Zm-.24-1a.18.18,0,0,1,.11.2C2.62,7.36,2.58,7.3,2.61,7.18Zm.33,1.17a.83.83,0,0,1,.24.29c.18-.16.24.11.38.16A.72.72,0,0,1,2.93,8.35Zm.72.76a.63.63,0,0,1,.27.4C3.84,9.37,3.66,9.31,3.65,9.11Zm.56.37c-.1,0-.14-.08-.11-.2C4.15,9.34,4.26,9.36,4.21,9.49ZM4,8.87c0-.14,0-.28-.2-.32,0-.51-.54-.81-.58-1.21a.39.39,0,0,0-.26-.22C3,7.1,3.19,7,3,6.92c.5-.29.77.92,1,1.3C3.8,8.21,3.91,8,3.71,8c.07.33.29.54.38.85,0,0,0-.06.05-.1S4.13,9,4,8.87Zm.13-1.35C4,7.34,3.9,7.19,3.83,7,4.05,6.94,4.09,7.43,4.11,7.52Zm.19-1c0-.08,0-.09.06-.14s.14.08.11.2S4.4,6.52,4.3,6.53Zm1.39,4c-.11,0-.06-.19-.1-.27.11,0,.09.08.21.07C5.74,10.36,5.75,10.48,5.68,10.51ZM4.79,6.83c.08,0,.09,0,.14.06a1.31,1.31,0,0,0-.09.35A.3.3,0,0,1,4.79,6.83ZM5,7.77a1.72,1.72,0,0,0,.16-1.06A8.51,8.51,0,0,1,5.37,4.2,14.26,14.26,0,0,1,5.22,8C5.23,8,5.21,7.74,5,7.77ZM4.44,4.39c-.09-.16.26-.07.26-.25s.08.24,0,.28S4.49,4.29,4.44,4.39Zm.24-.83c.1,0,.06.18,0,.22S4.69,3.62,4.68,3.55Zm1.07,6c-.3-.34.06-.88.09-1.33s-.14-.58,0-.79c.06,0,.06,0,.1.05A8.6,8.6,0,0,1,5.75,9.58Zm.18-2.14c-.09-1,0-2.2,0-3.32A13.13,13.13,0,0,1,5.93,7.44ZM4.75,2.12a1.26,1.26,0,0,1-.18.73c-.06.13.07.11,0,.22-.12-.05-.07.13-.1.2a.21.21,0,0,1-.15,0c.1.23-.14.5,0,.65a2.11,2.11,0,0,0,0,1,.3.3,0,0,0,.12-.34s.14,0,.15-.05c0,.13-.09.31-.07.46a.3.3,0,0,0-.22,0c-.07.23.12.27.24.36s0,.17,0,.19-.11.08-.13.16a.62.62,0,0,1-.1.64c-.4-.19-.27-.77-.57-1,.16-.56-.1-.79.07-1.44,0-.11-.1,0-.18,0a.6.6,0,0,0,.24-.4c-.07,0-.07,0-.09.1-.07-.31.3-.7.24-1.12.21-.19.08-.59.32-.71,0-.13-.05-.17,0-.28.34.17-.22.69.09.85.23-.46.16-1,.46-1.38C5.27,1.22,4.89,1.83,4.75,2.12ZM6,4c-.05-.1-.16-.16-.09-.34C6,3.73,6,3.85,6,4ZM6,3.64c-.08,0,0-.18,0-.25A.18.18,0,0,1,6,3.64Z"/></svg>