<svg xmlns="http://www.w3.org/2000/svg" viewBox="0 0 67.89 36.64"><defs><style>.cls-1,.cls-3{fill:none}.cls-1{stroke:#f03c00;stroke-linecap:round;stroke-linejoin:round;stroke-width:.5px}.cls-2{fill:#f2511b}.cls-3{stroke:#f68e6b;stroke-miterlimit:10;stroke-width:.1px}</style></defs><title>img_new</title><g id="レイヤー_2" data-name="レイヤー 2"><g id="text"><path class="cls-1" d="M23.63 10.34s.72-.44.73-.42-.92 1.49-.9 1.53 1.57-1 1.6-.92-1.63 2.58-1.6 2.65 1.67-1 1.69-1-1.73 2.55-1.69 2.62 1.67-1 1.69-1-1.7 2.27-1.67 2.33 1.64-1 1.67-1S23.51 17 23.54 17s1.59-1 1.62-.93-1.6 1.56-1.57 1.61 1.55-.95 1.57-.91-1.5 2.28-1.47 2.34 1.44-.88 1.47-.85"/><path class="cls-1" d="M18.21 12.3s1.17-.72 1.19-.69-.91 1.25-.89 1.28 1.2-.73 1.22-.7-.6 1.93-.58 2 1.26-.77 1.28-.74-.73 1.78-.7 1.82 1.29-.79 1.3-.75-.6 2-.57 2.05 1.29-.79 1.31-.75-.72 1.8-.69 1.84 1.28-.78 1.3-.75-.62 2-.59 2 1.21-.76 1.21-.73-.72 1.65-.69 1.69 1.18-.72 1.19-.69-.4 1.88-.37 1.92 2-1.21 2-1.16-1 1.62-1 1.66.77-.47.78-.45"/><path class="cls-1" d="M16.77 10.36s.77-.47.78-.45-1 2.18-1 2.24 2.33-1.42 2.36-1.36-2.41 2.85-2.36 2.93 1.49-.91 1.51-.87-1.55 2-1.51 2.06 1.58-1 1.6-.92-1.63 1.79-1.6 1.85 1.63-1 1.65-1-1.68 1.75-1.65 1.8 1.67-1 1.69-1-1.73 2.4-1.69 2.47 1.68-1 1.71-1-1.74 2-1.71 2 1.68-1 1.71-1-1.74 2.38-1.71 2.44 1.68-1 1.71-1-1.38 1.72-1.35 1.77 1.33-.81 1.35-.78"/><path class="cls-1" d="M17.62 10.05s.33-.2.34-.2l.32.41.25-.14.27.66.25-.14s.24 1 .25 1l.25-.14s.36 1.21.38 1.24l.24-.14.39 1.27.24-.14s.28 1.06.29 1.09l.24-.14s.25 1 .27 1l.24-.14s.39 1.28.41 1.3l.24-.14s.31 1.27.33 1.3l.26-.15s.21 1.1.23 1.12.45-.28.46-.27"/><path class="cls-1" d="M23.5 10.23s.82-.5.83-.48-1.07 2.05-1 2.1l.28-.16s-.29.88-.28.9l.28-.16s-.3 1.08-.28 1.1l.28-.16s-.29.8-.28.82l.28-.16s-.29 1-.28 1.07l.28-.16s-.27 1.19-.25 1.21l.27-.16s-.24 1-.22 1.06l.27-.16s-.2 1.37-.19 1.4l.27-.16m.61-8.13l.3-.17s.35 1 .37 1l.28-.16s-.29.8-.28.81l.28-.16s-.3.86-.28.88l.28-.16S25 13.27 25 13.3l.28-.16s-.3 1.6-.28 1.63l.28-.16s-.3 1-.28 1.05l.28-.16s-.3.81-.28.83l.28-.16s-.28 1.17-.28 1.2l.28-.16S25 18.85 25 18.88l.28-.16S25 20.21 25 20.24l.28-.16s-.41.88-.4.9.35-.22.36-.21m-6.83-7.65l.26-.15s.13.91.14.93l.25-.15s.43 1.43.45 1.47l.24-.14.45 1.38.24-.14s.32 1.15.34 1.17l.24-.14s.12.79.13.8l.24-.14s0 .66.05.67l.24-.14s.4 1.29.42 1.32l.24-.14s.08.73.09.74l.24-.14s.23.8.24.82l.24-.14s1.08.75 1.1.78.77-.47.78-.45"/><path class="cls-1" d="M17.93 12.3l.25-.15L18 13s.55-.33.55-.32-.47 1.86-.44 1.9l.27-.16S18.15 16 18.16 16l.28-.16s-.3 1.84-.27 1.88l.28-.16s-.3 1.57-.28 1.6l.28-.16s-.33 1.81-.31 1.85.3-.19.31-.18"/><path class="cls-1" d="M16.65 10.24s.86-.53.88-.51-1.16 2.27-1.13 2.33l.28-.16s-.31 1.69-.28 1.73l.28-.16s-.3 1.32-.28 1.35l.28-.16s-.3 1.06-.28 1.09l.28-.16s-.3 1-.28 1l.28-.16s-.3 1.62-.28 1.66l.28-.16s-.3 1.16-.28 1.19l.28-.16s-.3 1.59-.28 1.62l.28-.16v1l.23-.13.51.52s.83-.51.84-.48m12.98-7.26S33 13 33.06 13s-.5 1.26-.48 1.29 1.26-.77 1.28-.74-.44 1.92-.42 2 1.24-.76 1.25-.72-1.16 1.42-1.13 1.46 1.27-.78 1.29-.75m-5.16 2.13s2-1.2 2-1.15-.69 1.12-.69 1.15 2-1.2 2-1.15l.83 1.12s.95-.58 1-.56"/><path class="cls-1" d="M29 13.76s1.45-.88 1.47-.85-2.77 3.09-2.72 3.23 2-1.24 2.05-1.19-2.21 2.74-2.17 2.82 2.13-1.3 2.16-1.25-2 2.26-2 2.33 1.48-.85 1.5-.85-1.18 1.55-1.16 1.59 1.36-.83 1.38-.79-1 1.38-1 1.42 1.34-.82 1.36-.79-.36 1.65-.34 1.69 1.4-.86 1.42-.82-.46 1.25-.44 1.28 2.1-1.28 2.13-1.23.22 1.29.24 1.32 1.54-.94 1.57-.9m-3.1-6.52s.46-.28.46-.27l.42.35.29-.17.36.61.24-.14s.14 1.05.16 1.08l.26-.15"/><path class="cls-1" d="M29.88 14.72s1.2-.73 1.22-.7-1.83 2.47-1.79 2.53.37-.23.38-.22.79.25.8.27.47-.29.48-.28 1.14.25 1.16.27.48-.29.48-.28.58.26.59.28.44-.27.44-.26M30.6 13s.78-.47.79-.45 1.34.44 1.36.47.32-.19.32-.19l.25.51.26-.15.3.54.26-.15s.2.87.22.89l.24-.14s.17 1.33.19 1.36l.25-.15s0 .84.05.86l.11-.06m-5.47 1.6s.6-.37.61-.35 1.18.29 1.19.32.55-.34.56-.32 1.8.2 1.83.24 1-.61 1-.59"/><path class="cls-1" d="M29.2 17.86s.46-.28.46-.27-.32.92-.31.94l.25-.14s.42 1.36.44 1.39l.24-.14s1 .78 1 .81.37-.23.38-.22 2.57.16 2.61.22l.25-.14"/><path class="cls-1" d="M28.89 13.58s1.44-.88 1.46-.85-2.91 3.27-2.86 3.33.39-.24.39-.23-.49 1.79-.46 1.83l.26-.15s-.1 1.2-.08 1.23l.26-.15v.92l.24-.14s.14.75.15.76l.24-.14.69 1.1.27-.15.55.7s.33-.2.34-.2 1.59.49 1.61.53.61-.37.62-.36.93 0 .94 0 .95-.58 1-.56m12.4-7.71s.78-.48.8-.46-1.34 2-1.31 2 1.87-1.14 1.9-1.1-2.11 1.79-2.08 1.85 1.85-1.13 1.88-1.09-2.1 1.87-2.1 1.93 1.84-1.12 1.86-1.08-2.18 2.18-2.14 2.25 1.81-1.11 1.84-1.06-2.23 2.66-2.18 2.73 1.71-1 1.74-1"/><path class="cls-1" d="M42.46 14.82s1.12-.68 1.13-.65-1 1.51-.94 1.55 1.15-.7 1.17-.68-.82 2.15-.82 2.2 1.21-.74 1.22-.71-.89 2.09-.86 2.14 1.21-.74 1.23-.71-1 1.86-.92 1.9 1.2-.73 1.21-.7-1 1.42-1 1.46 1.17-.72 1.19-.69-.87 1.16-.85 1.2 2.53-1.55 2.57-1.48-1.38 1.84-1.35 1.89.76-.47.77-.45"/><path class="cls-1" d="M41.61 13.34s.75-.46.76-.44-1.18 1.39-1.15 1.43 1.91-1.17 1.93-1.12-2.48 3-2.43 3 1.42-.87 1.44-.83-1.9 2.42-1.86 2.49 1.49-.87 1.51-.87-2 2.79-2 2.86S41.3 19 41.32 19"/><path class="cls-1" d="M36.51 13.34s.71-.44.72-.42-.49 1.9-.47 1.94 1.51-.92 1.54-.89-1.2 2.18-1.17 2.24 1.48-.9 1.5-.87-1.25 1.84-1.22 1.89 1.45-.89 1.48-.85S37.6 18 37.63 18s1.44-.88 1.46-.84-1.28 1.53-1.26 1.57 1.41-.86 1.43-.82-1.12 2.09-1.09 2.16 1.32-.81 1.34-.77-1 1.56-1 1.6 2.7-1.65 2.74-1.58-1.46 2.19-1.42 2.25.77-.47.78-.45"/><path class="cls-1" d="M37.29 13.06s.31-.19.32-.18l.47.81.23-.13v1l.26-.15s.07 1.54.09 1.57l.25-.15s-.1.79-.09.8l.25-.15s0 1.46.06 1.49l.26-.15v1.6l.27-.16s-.18.66-.17.68.47-.29.48-.28"/><path class="cls-1" d="M41.5 13.2s.77-.47.78-.45S41 14.26 41 14.3s.34-.21.34-.2-.63 1.22-.61 1.25.34-.21.34-.2-.74 1.85-.71 1.85.33-.2.34-.2-.7 1.45-.7 1.48.33-.2.33-.19-.54 1-.53 1 .33-.2.33-.19m2.29-5.9l.32-.19.3.42.23-.14s.11.73.12.75l.25-.15v1.16l.25-.15s.07 1.38.08 1.41l.25-.15s.08 1.41.09 1.45l.25-.15v1.24l.26-.15v1.21c0 .03.65-.4.66-.38s-.52 1-.51 1 .36-.22.36-.21"/><path class="cls-1" d="M46.8 13.21s.81-.49.82-.47-1.48 2.26-1.44 2.32.33-.2.34-.19-.55 1-.54 1 .33-.2.34-.19-.62 1.32-.6 1.32.33-.2.33-.19-.52.93-.51 1 .32-.2.33-.19-.56 1.19-.55 1.22.32-.2.33-.19M47.72 13l.28-.16s.11 1.16.12 1.18.33-.2.34-.2-.55.94-.54 1 .33-.2.34-.2-.57 1-.56 1 .33-.2.34-.2-.67 1.35-.65 1.39.34-.21.34-.2-.81 1.88-.79 1.92.34-.21.34-.2-.63 1.21-.61 1.24.34-.21.34-.2-.56 1-.54 1 .34-.21.34-.2m-4.37-4.57l.28-.16s-.08 1-.07 1l.26-.15L43 18l.25-.15s.09 1.54.11 1.57l.25-.15s0 1.31.05 1.34l.26-.15s.16.76.17.78l.24-.14.35.5s.31-.19.32-.18m-2.83-6.57s.3-.18.31-.18-.49 1-.48 1 .32-.2.33-.19-.79 2-.77 2.09.33-.2.34-.19-.76 1.8-.74 1.84.33-.2.34-.19-1 1.91-.94 2 .49-.3.5-.29m-4.68-7.51s.83-.5.84-.48-.67 2-.65 2l.25-.15s.1 1.46.11 1.5l.25-.15v1.17l.25-.15v.95l.25-.15s-.07.86-.05.88l.25-.15L38 20l.25-.15s0 1 .05 1l.23-.13.83 1 .32-.19m11.16-1.76s.8-.49.81-.47-1.11 1.36-1.09 1.39 1.91-1.17 1.93-1.12-1 2.13-.92 2.18 1.28-.78 1.3-.75m-1.82-10.91s.74-.45.75-.43-.91 2.13-.88 2.18 1.67-1 1.69-1-1.67 2.46-1.61 2.53 1.54-.94 1.56-.9-1.56 2-1.56 2.05 1.45-.89 1.47-.85-1.46 1.7-1.43 1.75 1.38-.84 1.4-.81-1.39 1.59-1.36 1.64 1.31-.8 1.33-.77-1.16 2.09-1.13 2.15 1.07-.63 1.09-.63"/><path class="cls-1" d="M51.82 19.45s.4-.25.41-.24l.47 1L53 20s-.29.8-.28.82.37-.23.38-.22m-2.43-.93s.9-.55.92-.53-1.2 1.64-1.17 1.69l.27-.16.79 1.27s.74-.45.75-.43m-.41-11.73l.29-.17.27.61.23-.13s-.18 1.7-.16 1.73l.28-.16s-.36 1.57-.34 1.61l.28-.16S52.31 15 52.33 15l.29-.17s-.36 1.6-.34 1.64l.29-.17s-.39 1-.38 1.06.34-.21.35-.2"/><path class="cls-1" d="M50.93 10s.83-.51.85-.49-1.07 2.22-1 2.27l.22-.18s-.23 1.65-.21 1.69l.27-.16s-.24 1.29-.23 1.32l.28-.16s-.25 1-.24 1.06l.28-.16s-.26 1-.24 1l.29-.19s-.12 1.52-.1 1.55l.23-.13.4.58s.62-.38.63-.37"/><path class="cls-2" d="M67.6 1.8a5.66 5.66 0 0 0-.91-.06 4.74 4.74 0 0 0 .91.06zm-.92-.06zM.25 3.9zm49.84-2.3l-.09.08c-.81 0-.24-.09-1-.07a14.61 14.61 0 0 1-1.51 0h-.34a2.38 2.38 0 0 1-.61 0h.12-.53c-.21 0-.26-.06 0-.06-1.39 0-8.05-.08-9.55-.05a8.24 8.24 0 0 1 .83.09h-.76c-.15-.11-.87 0-1.17-.14l-.11.06h-.2a16.25 16.25 0 0 1-1.94 0c-.89 0-1.32.09-1.81.06.07 0 .27 0 0 .05 0-.05-.62 0-.73 0s-1 0-.71.07c-.12 0-.78-.05-.39-.08H29h.28a14.9 14.9 0 0 0-1.64 0h.28a3.37 3.37 0 0 1-1-.06h.46-1.8.22c-.78.07-4.89.13-5.61.22l.33.06h-.62c.07 0 .3-.18.36-.17h-9.5c-.5 0-.09-.09-.08-.1-.6 0-.26.06-.77.06-.14 0 0 0 .11-.05a2.31 2.31 0 0 0-.45 0c.28 0 .16.09.28.14h-.59a4.38 4.38 0 0 1-1 .1C7.17 2 6 2 4.88 2a1.91 1.91 0 0 1 .48-.06 4.78 4.78 0 0 1-.51 0c.27 0-.46 0-.25.05-.81.11-1.85 0-2.56.08C2 2.15.51 3.73.51 3.85H0a3.47 3.47 0 0 0 .72 0v-.06h.64a2.74 2.74 0 0 1-.87.07 4.14 4.14 0 0 0 .91 0c.36 0 0 .06.39.08a8 8 0 0 1 1.06 0c.85.05 1.3-.08 2.08 0h-.08 1.31c-.14 0-.26 0 0-.05h1.78c2 0 9.84-.06 11.84-.07h-.08c3 0 9.29 0 12.43-.09.49 0 1.16 0 1.66.05-.28 0-.19-.06 0-.05 1.55 0 .1 0 1.67-.05h10.29c.86-.07 1.93 0 2.77-.06h-.08 7.07-.14a9.84 9.84 0 0 1 1.63.13c-.09-.08.69-.13 1-.13.45 0 1.47-.08 2.22-.09h2.24c1 0 2.6.1 4 0l.88.13h.13s1.31-1.49-.47-1.81h-.96.59c-.43 0-.13 0 0-.06h-.37a6.08 6.08 0 0 1-.83 0c-.44 0 0-.07-.54-.08-2.71 0-5.33-.09-8.07-.08h.09-2.31a1.22 1.22 0 0 1-.33-.07c.16.04-4.11.05-4.18.04zm17.65 26.68a1 1 0 0 0-.37-.06.83.83 0 0 0 .37.06zm-.37-.07h-.01l.01.01v-.01zm-27.05 2.16z"/><path class="cls-2" d="M60.61 28.08v.08c-.33 0-.1-.09-.4-.07-.12.11-.51 0-.61 0h-.56c-.08 0-.11-.06 0-.06-.57 0-3.28-.08-3.89-.05.08 0 .27 0 .34.09h-.31c-.06-.11-.35 0-.48-.14v.06h-.08a2.71 2.71 0 0 1-.79 0 6.61 6.61 0 0 1-.74.06s.11 0 0 .05-.25 0-.3 0-.39 0-.29.07c-.05 0-.32-.05-.16-.08a1 1 0 0 0-.24 0h.12a2.48 2.48 0 0 0-.67 0h.11c-.18 0-.33 0-.4-.06h.19a4.5 4.5 0 0 0-.73 0h.09c-.32.07-2 .13-2.29.22l.14.06h-.25s.12-.18.15-.17h-3.87c-.2 0 0-.09 0-.1-.25 0-.11.06-.32.06-.06 0 0 0 0-.05s-.18 0-.18 0l.11.14H44a.81.81 0 0 1-.42.1H42.2s.1 0 .2-.06a.8.8 0 0 1-.21 0c.11 0-.19 0-.1.05-.33.11-.75 0-1 .08 0 .1-.62 1.68-.62 1.79h-.21a.59.59 0 0 0 .29 0v-.06h.26c0 .05-.18.06-.35.07h.37c.06 0 0 .06.16.08a1.35 1.35 0 0 1 .43 0c.35.05.53-.08.85 0h.54c-.06 0-.11 0 0-.05s.39 0 .56 0h.16c.81 0 4-.06 4.82-.07 1.24 0 3.78 0 5.06-.09a4.31 4.31 0 0 0 .68.05c-.11 0-.08-.06 0-.05.63 0 0 0 .68-.05s3.54 0 4.19 0c.35-.07.79 0 1.13-.06h2.88-.17c.37 0 .32 0 .62.06 0-.08.28-.13.4-.13.18 0 .6-.08.9-.09a6.84 6.84 0 0 1 .91 0 10.81 10.81 0 0 0 1.61 0l.36.13h.05s.58-1.53-.16-1.85h-.39.24c-.18 0-.05 0 0-.06h-.2.05a1 1 0 0 1-.34 0c-.18 0 0-.07-.22-.08-1.1 0-2.17-.09-3.29-.08h-.94a.28.28 0 0 1-.13-.07c.11.33-1.63.34-1.66.33zm-30.16 1.26c0 .07.09.11.15.15a.28.28 0 0 0-.15-.15zm.15.16l-.01-.01.01.01zM44.65 35h-.06zm-10.88-3.54v-.06c.16.09 0 .11.16.17s.24.15.32.13.06.05 0 .08.08 0 .13 0h.11v.06c.26.17 1.54 1 1.84 1.1 0-.06-.12-.09-.12-.17s.11.08.16.06.16.12.16.25h.05v.05c.37.14.09 0 .39.2s.3.06.39.15 0-.06 0-.05.14 0 .13.09.19.11.18 0 .13.13 0 .12a.32.32 0 0 0 .12.06c.15.07.2.17.33.16v-.06c.09 0 .17.08.16.16h-.1a1.4 1.4 0 0 0 .38.16c.19 0 1 .43 1.21.43v-.09h.15s-.15.13-.15.1c.26.14 1.64.88 1.86 1s0 .09 0 .1.08 0 .18 0 .08.06.09 0 0-.1 0-.15l.13.08s.13-.06.25 0 .44.26.66.39h-.12c-.05 0 .08 0 .09.07s.11 0 .08 0c.21 0 .37.2.54.21s1.13-1.29 1.18-1.39l.09.07s-.08-.09-.13-.1c-.11 0 0 0-.11-.1s.12 0 .2 0c-.07 0-.13-.12-.18-.09s0 0 0-.12-.17 0-.22-.09c-.14-.14-.29-.08-.42-.21 0-.06-.16-.08-.25-.16s0 .07 0 0-.19-.11-.25-.19h-.1c-.38-.23-2-1-2.35-1.25-.61-.32-1.83-1-2.48-1.3a1.36 1.36 0 0 0-.3-.23s0 .07 0 0c-.3-.18 0 0-.35-.14a20.16 20.16 0 0 1-2-1.18 5 5 0 0 1-.57-.25c-.19-.08-1.16-.7-1.37-.8-.2-.06-.14-.12-.27-.22 0 .08-.2 0-.26 0-.1 0-.33-.09-.48-.16a2.11 2.11 0 0 1-.45-.22 3.31 3.31 0 0 0-.76-.47l-.11-.21s-1 1.17-.84 1.65h.07c.07.07.14 0 .11.08l-.11-.07c.08.06 0 0 0 0l.09.08s.14 0 .18.06 0 .07.07.13c.51.33 1 .67 1.54 1 .17.08.31.16.47.23a.15.15 0 0 1 0 .09 6.29 6.29 0 0 1 .6.76zm10.73 5.02a.13.13 0 0 0 0-.12.11.11 0 0 0 0 .12zm.05-.11zm-2.95-7.75z"/><path class="cls-2" d="M44.49 34.36h-.08c0-.1.09 0 .06-.13s0-.15-.07-.18 0 0 0-.07v-.06h.06a8.4 8.4 0 0 0-.06-1.15s0 .08-.08.11 0-.07 0-.09c.11 0 0-.11.12-.15h-.06c-.08-.2 0 0 0-.23s-.11-.15-.08-.21 0 0-.05 0 0-.07 0-.09 0-.12-.08-.08 0-.1.08-.05 0-.05 0-.07v-.19c0-.05 0-.1.05-.13v.05a.43.43 0 0 0-.07-.21c-.08-.09-.19-.57-.29-.65h-.05l-.06-.07H44a10.09 10.09 0 0 1-.12-1.14c0-.06.09 0 .1 0s-.06 0-.06-.09 0 0 .05 0 0-.05 0-.05h-.13v.07s-.13 0-.11-.11 0-.27 0-.41 0 0 .06.05 0 0 0-.06 0-.05-.05 0 0-.22-.11-.3-1.69 0-1.8 0a.12.12 0 0 1 0-.06v.09h.06v.08c0 .08-.07 0-.08-.1s0 .09 0 .11-.06 0-.08.05.07.08 0 .12c0 .11.09.15.05.25s0 .1 0 .16 0 0 .05 0 0 .12 0 .17h.05c0 .24.18 1.17.21 1.41.06.36.13 1.11.24 1.48v.2c0 .06.05 0 .05 0 0 .19 0 0 .07.19a5.8 5.8 0 0 1 .08 1.24c.08.1 0 .23.1.33 0 .11 0 .73.07.85.06.11 0 .1 0 .19s.13.07.14.11a1.87 1.87 0 0 1 .12.26.62.62 0 0 1 .06.26 1 1 0 0 0 0 .48l-.12.12a5.4 5.4 0 0 0 1.84-.23v-.07.07c0-.05 0 0 .06 0a.13.13 0 0 1 0-.06s-.06-.06 0-.1.07 0 .07-.07a7.07 7.07 0 0 0 0-1s0-.19-.06-.27a.14.14 0 0 1 .06 0 1.82 1.82 0 0 1-.38-.57zm-11.4-6.08a1.39 1.39 0 0 0-.45-.06 1.17 1.17 0 0 0 .45.06zm-.45-.07h-.01l.01.01v-.01zM.12 30.37z"/><path class="cls-2" d="M24.52 28.08v.08c-.4 0-.12-.09-.48-.07-.14.11-.61 0-.74 0h-.67c-.1 0-.13-.06 0-.06-.68 0-3.94-.08-4.67-.05.09 0 .32 0 .41.09H18c-.07-.11-.43 0-.57-.14l-.06.06h-.1a3.91 3.91 0 0 1-.95 0c-.44 0-.64.09-.89.06 0 0 .13 0 0 .05s-.3 0-.36 0-.47 0-.35.07c-.06 0-.38-.05-.19-.08a1.49 1.49 0 0 0-.29 0h.14a3.58 3.58 0 0 0-.8 0h.13a.84.84 0 0 1-.49-.06h.22a6.49 6.49 0 0 0-.88 0h.11c-.38.07-2.39.13-2.75.22l.16.06h-.3s.15-.18.18-.17H5.31c-.24 0 0-.09 0-.1-.3 0-.13.06-.38.06-.07 0 0 0 .05-.05s-.21 0-.22 0 .08.09.14.14h-.37a1.12 1.12 0 0 1-.5.1H2.37s.12 0 .23-.06a1.16 1.16 0 0 1-.25 0c.13 0-.23 0-.12.05-.4.11-.91 0-1.25.08 0 .1-.75 1.68-.75 1.79H0a.84.84 0 0 0 .35 0v-.06h.31c0 .05-.22.06-.43.07h.45c.08 0 0 .06.19.08a1.94 1.94 0 0 1 .52 0c.42.05.64-.08 1 0h.64c-.07 0-.13 0 0-.05s.47 0 .67 0h.2c1 0 4.82-.06 5.79-.07 1.49 0 4.55 0 6.09-.09a6.22 6.22 0 0 0 .81.05c-.14 0-.09-.06 0-.05.76 0 .05 0 .82-.05s4.25 0 5 0c.42-.07.94 0 1.36-.06h3.46-.07a2.39 2.39 0 0 1 .74.06c0-.08.34-.13.48-.13.22 0 .72-.08 1.09-.09a9.88 9.88 0 0 1 1.09 0 15.6 15.6 0 0 0 1.94 0l.43.13H33s.7-1.53-.19-1.85h-.46.29c-.21 0-.06 0 0-.06h-.24.06a1.48 1.48 0 0 1-.41 0c-.22 0 0-.07-.27-.08-1.33 0-2.61-.09-4-.08h-1.13a.36.36 0 0 1-.16-.07c.15.33-1.94.34-1.97.33zM66 31.62a1.28 1.28 0 0 0 .06-.43 1.07 1.07 0 0 0-.06.43zm.09-.43v.01-.01zM63.93.12v.13a.91.91 0 0 0 0-.13z"/><path class="cls-2" d="M66.23 23.44h-.08c0-.38.09-.11.07-.46-.11-.14 0-.58 0-.71v-.45.06-.25c0-.1.06-.12.06 0 0-.65.08-3.77.05-4.47 0 .09 0 .31-.09.39v-.35c.11-.07 0-.41.14-.55l-.06-.05v-.09a3.56 3.56 0 0 1 0-.91c0-.42-.09-.62-.06-.85 0 0 0 .13-.05 0s0-.29 0-.34 0-.45-.07-.33c0-.06.05-.36.08-.18a1.32 1.32 0 0 0 0-.28v.13a3.29 3.29 0 0 0 0-.77v.13a.77.77 0 0 1 .06-.46v.21a6 6 0 0 0 0-.84v.1c-.07-.37-.13-2.29-.22-2.63l-.06.16v-.29s.18.14.17.17V5.09c0-.23.09 0 .1 0 0-.28-.06-.12-.06-.36 0-.07 0 0 .05.05s0-.2 0-.21-.09.08-.14.13v-.37a1 1 0 0 1-.1-.48V2.27s0 .12.06.22a1 1 0 0 1 0-.24c0 .12 0-.22-.05-.12-.11-.38 0-.87-.08-1.2C65.68.92 64.1.24 64 .24A1.57 1.57 0 0 1 64 0a.77.77 0 0 0 0 .34h.06v.3c-.05 0-.06-.21-.07-.41v.43c0 .08-.06 0-.08.18a1.79 1.79 0 0 1 0 .49c-.05.4.08.61 0 1v.61c0-.07 0-.12.05 0s0 .45 0 .64v.19c0 .93.06 4.6.07 5.54 0 1.42 0 4.35.09 5.82a5.61 5.61 0 0 0-.05.78c0-.13.06-.09.05 0a7.78 7.78 0 0 0 .05.78v4.81c.07.4 0 .9.06 1.3v3.31V26a2.19 2.19 0 0 1-.06.71c.08 0 .13.32.13.46 0 .21.08.69.09 1a9 9 0 0 1 0 1 14.31 14.31 0 0 0 0 1.85l-.13.41v.06s1.53.66 1.85-.18v-.45.27c0-.2 0-.06.06 0a1.59 1.59 0 0 1 0-.23v.06a1.37 1.37 0 0 1 0-.39c0-.21.07 0 .08-.25 0-1.27.09-2.5.08-3.78v-1.08a.33.33 0 0 1 .07-.15c-.18.16-.18-1.84-.17-1.87zM3.51 31.62a1.28 1.28 0 0 0 .06-.43 1.07 1.07 0 0 0-.06.43zm.06-.43v.01-.01zM1.41.12v.13a.91.91 0 0 0 0-.13z"/><path class="cls-2" d="M3.71 23.44h-.08c0-.38.09-.11.07-.46-.11-.14 0-.58 0-.71v-.45.06-.25c0-.1.06-.12.06 0 0-.65.08-3.77.05-4.47 0 .09 0 .31-.09.39v-.35c.11-.07 0-.41.14-.55l-.06-.05v-.09a3.56 3.56 0 0 1 0-.91c0-.42-.09-.62-.06-.85 0 0 0 .13-.05 0s0-.29 0-.34 0-.45-.07-.33c0-.06.05-.36.08-.18a1.35 1.35 0 0 0 0-.28v.13a3.29 3.29 0 0 0 0-.77v.13a.77.77 0 0 1 .06-.46v.21a6 6 0 0 0 0-.84v.1c-.07-.37-.13-2.29-.22-2.63l-.06.16v-.29s.18.14.17.17V5.09c0-.23.09 0 .1 0 0-.28-.06-.12-.06-.36 0-.07 0 0 .05.05s0-.2 0-.21-.09.08-.14.13v-.37a1 1 0 0 1-.1-.48V2.27s0 .12.06.22a1.06 1.06 0 0 1 0-.24c0 .12 0-.22-.05-.12-.11-.38 0-.87-.08-1.2C3.16.92 1.58.24 1.46.24a1.51 1.51 0 0 1 0-.24.78.78 0 0 0 0 .34h.06v.3c-.05 0-.06-.21-.07-.41v.43c0 .08-.06 0-.08.18a1.79 1.79 0 0 1 0 .49c-.05.4.08.61 0 1v.61c0-.07 0-.12.05 0s0 .45 0 .64v.19c0 .93.06 4.6.07 5.54 0 1.42 0 4.35.09 5.82a5.61 5.61 0 0 0-.05.78c0-.13.06-.09.05 0a7.78 7.78 0 0 0 .05.78v4.81c.07.4 0 .9.06 1.3v3.31V26c0 .43 0 .37-.06.71.08 0 .13.32.13.46 0 .21.08.69.09 1a9 9 0 0 1 0 1 14.3 14.3 0 0 0 0 1.85l-.13.41v.06s1.53.66 1.85-.18v-.45.27c0-.2 0-.06.06 0a1.59 1.59 0 0 1 0-.23v.06a1.37 1.37 0 0 1 0-.39c0-.21.07 0 .08-.25 0-1.27.09-2.5.08-3.78v-1.08a.34.34 0 0 1 .07-.15c-.16.16-.16-1.84-.15-1.87z"/></g></g></svg>