<svg xmlns="http://www.w3.org/2000/svg" width="361.18" height="151.22" viewBox="0 0 361.18 151.22">  <defs>    <style>      .a {        fill: #1b3f86;      }      .b, .c {        fill: none;      }      .b {        stroke: #25478b;        stroke-miterlimit: 10;        stroke-width: 0.1px;      }      .c {        stroke: #0098f5;        stroke-linecap: round;        stroke-linejoin: round;        stroke-width: 1.13px;      }    </style>  </defs>  <title>アセット 1</title>  <g>    <g>      <g>        <path class="a" d="M1.56,148.28c1.12,0,3,.05,4.86.06C5,148.29,3.53,148.27,1.56,148.28Z"/>        <path class="a" d="M6.45,148.34h0Z"/>        <path class="a" d="M359.83,146.18h0Z"/>        <path class="a" d="M94.67,148.48l.28-.08c4.32,0,1.26.09,5.25.07,1.56-.11,6.64,0,8,0,0,0,1.92,0,1.8,0,.6-.06,2,0,3.25,0,.45,0-.33,0-.66,0l2.83,0c1.1,0,1.38.06.18.06,7.39,0,42.84.08,50.8.05-1,0-3.48,0-4.41-.09,2.1,0,3.1,0,4,0,.81.11,4.62,0,6.22.14l.6-.06,1,0c9.25-.06,2.11,0,10.31,0,4.75,0,7-.09,9.64-.06-.39,0-1.44,0-.21-.05.21.05,3.27,0,3.87,0,1.2,0,5.11,0,3.79-.07.66,0,4.14.05,2.07.08,1.17,0,2.31,0,3.16,0l-1.51,0c4,0,6.13,0,8.71,0l-1.47,0c2.37,0,4.35,0,5.29.06l-2.43,0c3.93,0,6.3,0,9.58,0h-1.17c4.18-.07,26-.13,29.87-.22l-1.77-.06,3.31,0c-.39,0-1.6.18-1.92.17,7.09,0,44,0,50.52,0,2.64,0,.48.09.45.1,3.21,0,1.39-.06,4.12-.06.75,0-.15,0-.57.05,1.2,0,2.31,0,2.4,0a6,6,0,0,1-1.5-.14h3.52l-.16,0c.78,0,2-.12,5.44-.1,5.83,0,12.16,0,18,0-.09,0-1.32,0-2.55.06.79,0,2,0,2.71,0-1.42,0,2.46,0,1.35-.05,4.29-.11,9.84,0,13.63-.08.33-.1,8.11-1.68,8.11-1.79h2.71c-.3,0-2.62,0-3.84,0l-.21.06c-2.83,0-.66,0-3.42,0-.15-.05,2.39-.06,4.63-.07-2,0-4,0-4.84,0-1.89,0,.21-.06-2.07-.08-1.62,0-3.76.06-5.62,0h0c-4.53-.05-6.94.08-11.08,0l.45,0c-1.46,0-4.35,0-7,0,.75,0,1.41,0-.18.05-3,0-5.11,0-7.33,0l-2.13,0c-10.58,0-52.35.06-63,.07H256c-16.19,0-49.42,0-66.15.09-2.59,0-6.16,0-8.86-.05,1.5,0,1,.06-.18.05-8.23,0-.56,0-8.87.05-9.58,0-46.23,0-54.74,0-4.57.07-10.27,0-14.74.06l.45,0c-4.81,0-32,0-37.59,0h.75c-4.87,0-4.21,0-8-.06.5.08-3.67.13-5.26.13l.06,0c-2.4,0-7.84.08-11.8.09l.15,0c-3.31,0-9.52,0-11.9,0-5.43,0-13.81-.1-21.08,0l-4.69-.13H2.83s-7.56,1.53,2,1.85l-.15,0h1.9c2.28,0,3.33,0,3.17,0H6.67c2.29,0,.69,0-.18.06l2.64,0c.45,0-.33,0-.69,0,1.23,0,2.94-.06,4.44,0,2.34,0,.15.07,2.88.08,14.41,0,28.38.09,42.94.08.33,0-.06,0-.48,0l12.29,0c1.11,0,1.41,0,1.74.07C71.59,148.47,94.31,148.47,94.67,148.48Z"/>      </g>      <g>        <path class="a" d="M1.25,74.15c.85,0,2.32.05,3.71.06C3.89,74.16,2.75,74.14,1.25,74.15Z"/>        <path class="a" d="M5,74.21H5Z"/>        <path class="a" d="M274.49,72h0Z"/>        <path class="a" d="M72.26,74.35l.21-.08c3.3,0,1,.09,4,.07,1.19-.11,5.06,0,6.11,0,0,0,1.47,0,1.37,0,.46-.06,1.53,0,2.48,0,.34,0-.25,0-.5,0l2.16,0c.84,0,1.05.06.13.06,5.63,0,32.68.08,38.74.05-.78,0-2.65,0-3.36-.09,1.6,0,2.36,0,3.07,0,.62.11,3.53,0,4.74.14l.46-.06.8,0c7.06-.06,1.61,0,7.87,0,3.62,0,5.34-.09,7.35-.06-.3,0-1.1,0-.16-.05.16.05,2.5,0,3,0,.92,0,3.89,0,2.89-.07.5,0,3.16.05,1.58.08.9,0,1.76,0,2.41,0l-1.15,0c3,0,4.67,0,6.64,0l-1.12,0c1.81,0,3.32,0,4,.06l-1.86,0c3,0,4.81,0,7.31,0h-.89c3.18-.07,19.84-.13,22.78-.22L192,73.93l2.52,0c-.3,0-1.22.18-1.47.17,5.41,0,33.53,0,38.53,0,2,0,.36.09.34.1,2.45,0,1.06-.06,3.14-.06.57,0-.12,0-.44.05.91,0,1.76,0,1.83,0a3.54,3.54,0,0,1-1.14-.14H238l-.12,0c.6,0,1.52-.12,4.15-.1,4.44,0,9.27,0,13.74,0-.07,0-1,0-1.95.06.6,0,1.51,0,2.06,0-1.08,0,1.88,0,1-.05,3.27-.11,7.51,0,10.4-.08.25-.1,6.19-1.68,6.19-1.79h2.06c-.23,0-2,0-2.93,0l-.16.06c-2.16,0-.51,0-2.61,0-.11-.05,1.82-.06,3.53-.07-1.54,0-3.07,0-3.69,0-1.44,0,.16-.06-1.58-.08-1.24,0-2.86.06-4.29,0h0c-3.46-.05-5.29.08-8.45,0l.34,0c-1.12,0-3.32,0-5.33,0,.57,0,1.07,0-.14.05-2.32,0-3.9,0-5.59,0l-1.63,0c-8.07,0-39.93.06-48,.07h.32c-12.35,0-37.69,0-50.45.09-2,0-4.7,0-6.75-.05,1.15,0,.75.06-.14.05-6.27,0-.42,0-6.77.05-7.31,0-35.26,0-41.75,0-3.48.07-7.83,0-11.24.06l.34,0c-3.67,0-24.41,0-28.67,0h.57c-3.71,0-3.21,0-6.14-.06a38.28,38.28,0,0,1-4,.13l0,0c-1.83,0-6,.08-9,.09l.12,0c-2.52,0-7.26,0-9.07,0-4.14,0-10.53-.1-16.08,0l-3.58-.13H2.22s-5.76,1.53,1.55,1.85l-.12,0H5.1c1.74,0,2.54,0,2.42,0H5.14c1.74,0,.53,0-.14.06l2,0c.34,0-.25,0-.52,0,.94,0,2.24-.06,3.39,0,1.79,0,.11.07,2.2.08,11,0,21.64.09,32.75.08.25,0,0,0-.37,0l9.37,0c.85,0,1.08,0,1.33.07C54.66,74.34,72,74.34,72.26,74.35Z"/>      </g>      <path class="b" d="M271.11,74.27"/>      <g>        <path class="a" d="M288.44,73.48a1.06,1.06,0,0,0-.25-.3A.9.9,0,0,0,288.44,73.48Z"/>        <polygon class="a" points="288.19 73.17 288.19 73.17 288.19 73.17 288.19 73.17"/>        <path class="a" d="M265.6,56l.09.08Z"/>        <path class="a" d="M283,68.38l-.07,0c-.26-.23,0-.14-.27-.33-.17,0-.39-.36-.51-.39s-.11-.11-.08-.13-.13-.1-.21-.15,0,0,0,.06l-.18-.13c-.05-.07,0-.11,0-.06-.43-.41-2.51-2.34-3-2.74,0,.09.2.2.21.3-.15-.08-.18-.18-.26-.19s-.26-.26-.28-.43h-.08l0-.08a3,3,0,0,1-.63-.54,7.18,7.18,0,0,1-.62-.46s.06.11,0,.05-.22-.14-.22-.22-.31-.27-.28-.15c0-.06-.21-.26-.07-.17a1.13,1.13,0,0,0-.19-.17l.08.1c-.24-.2-.34-.36-.53-.45l.07.1c-.15-.12-.27-.22-.27-.33l.16.11a5,5,0,0,0-.6-.47l.07.06c-.3-.17-1.65-1.28-1.94-1.42l.07.14-.23-.14s.22-.05.23,0c-.43-.37-2.66-2.3-3-2.67-.14-.16,0-.09,0-.1-.21-.15-.12,0-.28-.18s0,0,.07,0-.13-.13-.15-.12,0,.11,0,.18l-.21-.19,0,0s-.2,0-.39-.22-.73-.65-1.07-1c0,0,.11,0,.19.09a.89.89,0,0,1-.15-.15c.05.11-.17-.11-.11,0-.33-.15-.6-.52-.87-.66-.08.06-1.6.82-1.67.91a1.3,1.3,0,0,1-.15-.15s.13.17.21.22l.05,0c.18.13,0,.06.18.21,0,0-.18-.08-.32-.2.12.11.21.25.3.25s-.05,0,.07.17a1.46,1.46,0,0,1,.36.27h0c.24.28.47.31.68.57h0c.07.1.27.22.4.39,0,0-.05-.11,0,0s.31.27.41.42l.16.08c.63.57,3.17,2.73,3.81,3.29l0,0c1,.84,3,2.61,4,3.45a4.64,4.64,0,0,0,.5.51c-.08-.1,0-.09,0,0,.49.44.06,0,.57.43s2.76,2.46,3.24,2.94c.32.19.63.53.92.74h0c.31.23,1.89,1.73,2.24,2l0,0c.32.23.23.25.44.47,0-.09.3.1.4.18h0c.15.12.52.35.77.56l0,0a7.49,7.49,0,0,1,.73.61,11.81,11.81,0,0,0,1.24,1.15l.2.34,0,0s1.47-.74,1.11-1.49l0,0-.12-.1c-.12-.14-.22-.15-.18-.18l.18.17c-.13-.13,0-.06.05,0A1.35,1.35,0,0,1,288,73s0,0,0,.06a1.13,1.13,0,0,1-.29-.21c-.14-.13,0-.06-.12-.21-.84-.79-1.64-1.57-2.52-2.34,0,0,0,0,0,0-.27-.22-.5-.43-.76-.63a.29.29,0,0,1-.06-.14C284.38,69.61,283,68.41,283,68.38Z"/>      </g>      <g>        <path class="a" d="M266.19,54.52a.56.56,0,0,0,0,.28A.47.47,0,0,0,266.19,54.52Z"/>        <polygon class="a" points="266.19 54.8 266.19 54.8 266.19 54.8 266.19 54.8"/>        <path class="a" d="M272.21,74l0-.08A.36.36,0,0,0,272.21,74Z"/>        <path class="a" d="M267,59.72h.08c0,.24-.08.09,0,.31.13.06.06.37.14.44s0,.11,0,.11,0,.11.07.17,0,0,0,0l.05.15c0,.07,0,.09-.06,0,.06.41.39,2.39.51,2.83,0-.07,0-.2,0-.26.06.11,0,.17.07.22s0,.26-.06.37l.07,0,0,.07a1.48,1.48,0,0,1,.13.57c.06.26.17.37.17.52,0,0,0-.09.05,0s.07.17,0,.22.06.28.11.2,0,.24-.06.13a.56.56,0,0,0,0,.17v-.09c.05.22,0,.35.12.48v-.09c0,.13.06.24,0,.31l0-.13a2.48,2.48,0,0,0,.15.52v-.07c.12.22.42,1.42.55,1.61l0-.11.08.17s-.2-.05-.18-.07c.08.39.53,2.43.57,2.8,0,.15-.08,0-.09,0,.06.17.07.07.1.22s0,0-.06,0,0,.13,0,.13.08-.07.12-.11l0,.2h0s.14.09.16.28.13.67.19,1c0,0-.06-.07-.08-.13a.44.44,0,0,1,0,.15c0-.09.06.13.07.07.15.22.12.54.23.74.1,0,1.73.12,1.85.1a.64.64,0,0,1,0,.15.33.33,0,0,0,0-.22h-.06c-.05-.15,0,0,0-.2s.09.12.12.24c0-.11,0-.23-.07-.27s.06,0,.06-.13a.75.75,0,0,1-.1-.3h0c0-.26-.15-.37-.15-.61l0,0c0-.09-.06-.24-.06-.39,0,0,0,.09-.05,0s-.06-.28,0-.41l-.07-.11c-.11-.59-.64-2.89-.76-3.48v0c-.2-.89-.57-2.74-.82-3.65a2.38,2.38,0,0,0,0-.5c0,.09,0,.07-.05,0-.09-.46,0,0-.15-.48s-.5-2.57-.56-3c-.12-.24-.13-.57-.22-.81l0,0c-.08-.26-.31-1.78-.4-2.09v0c-.1-.26,0-.24,0-.46-.07,0-.17-.18-.19-.27h0c0-.13-.17-.42-.22-.64h0a3.76,3.76,0,0,1-.16-.65,5.9,5.9,0,0,0-.2-1.18l.07-.28,0,0s-1.58-.12-1.79.47h0l0,.1c0,.13.07.18,0,.18l0-.17c0,.13,0,0-.06,0a.7.7,0,0,1,0,.15s0,0,0,0a.58.58,0,0,1,.08.24c0,.13-.07,0,0,.17.13.81.23,1.59.4,2.4,0,0,0,0,0,0,.07.24.1.46.17.68a.2.2,0,0,1,0,.11A11.13,11.13,0,0,1,267,59.72Z"/>      </g>      <path class="b" d="M287.88,74.27"/>      <g>        <path class="a" d="M284.86,74.15a7.19,7.19,0,0,0,1,.06A6,6,0,0,0,284.86,74.15Z"/>        <path class="a" d="M285.9,74.21h0Z"/>        <path class="a" d="M360.89,72h0Z"/>        <path class="a" d="M304.62,74.35l.06-.08c.92,0,.27.09,1.11.07.33-.11,1.41,0,1.7,0,0,0,.41,0,.38,0a3,3,0,0,1,.69,0c.1,0-.07,0-.14,0l.6,0c.23,0,.29.06,0,.06,1.57,0,9.09.08,10.78.05-.22,0-.74,0-.94-.09.45,0,.66,0,.85,0,.17.11,1,0,1.32.14l.13-.06.22,0a20.73,20.73,0,0,1,2.19,0c1,0,1.49-.09,2-.06-.08,0-.31,0,0-.05,0,.05.69,0,.82,0s1.08,0,.8-.07c.14,0,.88.05.44.08.25,0,.49,0,.67,0l-.32,0c.84,0,1.3,0,1.85,0l-.31,0a4.29,4.29,0,0,1,1.12.06l-.52,0c.83,0,1.34,0,2,0H332c.89-.07,5.52-.13,6.34-.22l-.38-.06.7,0c-.08,0-.34.18-.41.17,1.5,0,9.33,0,10.72,0,.56,0,.1.09.09.1.68,0,.29-.06.87-.06.16,0,0,0-.12.05a2.94,2.94,0,0,0,.51,0c-.32,0-.18-.09-.32-.14h.75l0,0a5.56,5.56,0,0,1,1.15-.1c1.24,0,2.58,0,3.82,0a2.43,2.43,0,0,1-.54.06c.17,0,.42,0,.57,0-.3,0,.52,0,.29-.05.91-.11,2.09,0,2.89-.08.07-.1,1.72-1.68,1.72-1.79h.57a4.41,4.41,0,0,0-.82,0l0,.06c-.6,0-.14,0-.73,0a3.47,3.47,0,0,1,1-.07,5.27,5.27,0,0,0-1,0c-.4,0,0-.06-.44-.08a10.19,10.19,0,0,1-1.19,0h0c-1-.05-1.47.08-2.35,0l.09,0c-.31,0-.92,0-1.48,0,.16,0,.3,0,0,.05-.65,0-1.08,0-1.56,0l-.45,0c-2.24,0-11.11.06-13.36.07h.09c-3.44,0-10.49,0-14,.09-.55,0-1.31,0-1.88-.05.32,0,.21.06,0,.05-1.75,0-.12,0-1.88.05-2,0-9.81,0-11.62,0-1,.07-2.18,0-3.13.06l.1,0c-1,0-6.79,0-8,0h.16a12.54,12.54,0,0,1-1.71-.06c.11.08-.78.13-1.12.13v0c-.51,0-1.66.08-2.5.09l0,0c-.7,0-2,0-2.52,0-1.15,0-2.93-.1-4.47,0l-1-.13h-.15s-1.6,1.53.43,1.85l0,0h.4c.48,0,.71,0,.67,0h-.66c.49,0,.15,0,0,.06l.56,0c.1,0-.07,0-.15,0a7.78,7.78,0,0,1,.94,0c.5,0,0,.07.61.08,3.06,0,6,.09,9.11.08.07,0,0,0-.1,0l2.61,0a1.54,1.54,0,0,1,.37.07C299.72,74.34,304.54,74.34,304.62,74.35Z"/>      </g>      <g>        <path class="a" d="M3.21,69.94A8.18,8.18,0,0,0,3.15,71,6.83,6.83,0,0,0,3.21,69.94Z"/>        <path class="a" d="M3.15,71.05h0Z"/>        <path class="a" d="M5.31,150.92c0-.1,0-.22,0-.34C5.31,150.69,5.31,150.81,5.31,150.92Z"/>        <path class="a" d="M3,91l.08.06c0,1-.09.28-.07,1.19.11.35,0,1.5,0,1.81,0,0,0,.43,0,.41a3.41,3.41,0,0,1,0,.73c0,.1,0-.07,0-.15l0,.64c0,.25-.06.31-.06,0C3,97.39,3,105.4,3,107.2c0-.23,0-.79.09-1,0,.48,0,.7,0,.91-.11.18,0,1-.14,1.4l.06.14,0,.24c.06,2.09,0,.48,0,2.33,0,1.07.09,1.58.06,2.18,0-.09,0-.33.05,0-.05,0,0,.74,0,.88s0,1.15.07.86c0,.15-.05.94-.08.47,0,.27,0,.52,0,.71l0-.34c0,.9,0,1.38,0,2l0-.33a4.86,4.86,0,0,1-.06,1.19l0-.55c0,.89,0,1.42,0,2.17v-.26c.07.94.13,5.88.22,6.75l.06-.4,0,.75c0-.09-.18-.36-.17-.44,0,1.6,0,9.94,0,11.42,0,.6-.09.11-.1.1,0,.73.06.31.06.93,0,.17,0,0-.05-.13a3.36,3.36,0,0,0,0,.54c0-.34.09-.2.14-.34v.79l0,0a6.31,6.31,0,0,1,.1,1.23c0,1.32,0,2.75,0,4.07a2.71,2.71,0,0,1-.06-.58c0,.18,0,.45,0,.61,0-.32,0,.56.05.31.11,1,0,2.23.08,3.08.1.07,1.67,1.83,1.79,1.83,0,.27,0,.53,0,.61a5,5,0,0,0,0-.87l-.06,0c0-.64,0-.15,0-.77a3.93,3.93,0,0,1,.07,1,5.93,5.93,0,0,0,0-1.09c0-.43.06,0,.08-.47a11.73,11.73,0,0,1,0-1.27h0c.05-1-.08-1.57,0-2.5l0,.1c0-.33,0-1,0-1.58,0,.17,0,.32-.05,0,0-.69,0-1.15,0-1.66l0-.48c0-2.39-.06-11.83-.07-14.23v.09c0-3.66,0-11.17-.09-14.95,0-.58,0-1.39.05-2,0,.34-.06.22-.05,0,0-1.86,0-.13-.05-2,0-2.16,0-10.45,0-12.37-.07-1,0-2.32-.06-3.33l0,.1c0-1.09,0-7.23,0-8.5v.17a14.24,14.24,0,0,1,.06-1.82c-.08.11-.13-.83-.13-1.19H5c0-.54-.08-1.77-.1-2.67l0,0c0-.75,0-2.15,0-2.69,0-1.23.1-3.12,0-4.76l.13-1.06v-.16s-1.53-1.71-1.85.46l0,0v.43c0,.51,0,.75,0,.72v-.7c0,.52,0,.16-.06,0,0,.22,0,.43,0,.6s0-.07,0-.16a8.77,8.77,0,0,1,0,1c0,.53-.07,0-.08.65,0,3.26-.09,6.41-.08,9.71,0,.07,0,0,0-.11,0,1,0,1.87,0,2.78a1.7,1.7,0,0,1-.07.39C3,85.77,3,90.91,3,91Z"/>      </g>      <g>        <path class="a" d="M356.61,69.94a8.1,8.1,0,0,0-.06,1.1A6.83,6.83,0,0,0,356.61,69.94Z"/>        <path class="a" d="M356.55,71.05h0Z"/>        <path class="a" d="M358.71,150.92c0-.1,0-.22,0-.34C358.71,150.69,358.71,150.81,358.71,150.92Z"/>        <path class="a" d="M356.41,91l.08.06c0,1-.09.28-.07,1.19.11.35,0,1.5,0,1.81,0,0,0,.43,0,.41a3.45,3.45,0,0,1,0,.73c0,.1,0-.07,0-.15l0,.64c0,.25-.06.31-.06,0,0,1.67-.08,9.68-.05,11.48,0-.23,0-.79.09-1,0,.48,0,.7,0,.91-.11.18,0,1-.14,1.4l.06.14,0,.24c.06,2.09,0,.48,0,2.33,0,1.07.09,1.58.06,2.18,0-.09,0-.33.05,0-.05,0,0,.74,0,.88s0,1.15.07.86c0,.15-.05.94-.08.47,0,.27,0,.52,0,.71l0-.34c0,.9,0,1.38,0,2l0-.33a4.83,4.83,0,0,1-.06,1.19l0-.55c0,.89,0,1.42,0,2.17v-.26c.07.94.13,5.88.22,6.75l.06-.4,0,.75c0-.09-.18-.36-.17-.44,0,1.6,0,9.94,0,11.42,0,.6-.09.11-.1.1,0,.73.06.31.06.93,0,.17,0,0-.05-.13a3.29,3.29,0,0,0,0,.54c0-.34.09-.2.14-.34v.79l0,0a6.31,6.31,0,0,1,.1,1.23c0,1.32,0,2.75,0,4.07a2.71,2.71,0,0,1-.06-.58c0,.18,0,.45,0,.61,0-.32,0,.56.05.31.11,1,0,2.23.08,3.08.1.07,1.67,1.83,1.79,1.83,0,.27,0,.53,0,.61a5.05,5.05,0,0,0,0-.87l-.06,0c0-.64,0-.15,0-.77a3.93,3.93,0,0,1,.07,1,6,6,0,0,0,0-1.09c0-.43.06,0,.08-.47a11.48,11.48,0,0,1,0-1.27h0c.05-1-.08-1.57,0-2.5l0,.1c0-.33,0-1,0-1.58,0,.17,0,.32-.05,0,0-.69,0-1.15,0-1.66l0-.48c0-2.39-.06-11.83-.07-14.23v.09c0-3.66,0-11.17-.09-14.95,0-.58,0-1.39.05-2,0,.34-.06.22-.05,0,0-1.86,0-.13-.05-2,0-2.16,0-10.45,0-12.37-.07-1,0-2.32-.06-3.33l0,.1c0-1.09,0-7.23,0-8.5v.17a14.24,14.24,0,0,1,.06-1.82c-.08.11-.13-.83-.13-1.19h0c0-.54-.08-1.77-.1-2.67l0,0c0-.75,0-2.15,0-2.69,0-1.23.1-3.12,0-4.76l.13-1.06v-.16s-1.53-1.71-1.85.46l0,0v.43c0,.51,0,.75,0,.72v-.7c0,.52,0,.16-.06,0,0,.22,0,.43,0,.6s0-.07,0-.16a8.77,8.77,0,0,1,0,1c0,.53-.07,0-.08.65,0,3.26-.09,6.41-.08,9.71,0,.07,0,0,0-.11,0,1,0,1.87,0,2.78a1.7,1.7,0,0,1-.07.39C356.42,85.77,356.42,90.91,356.41,91Z"/>      </g>    </g>    <g>      <path class="c" d="M138.81,52.23c.06.1,4-2.45,4.08-2.35s-4.06,4.43-4,4.56,3.94-2.41,4-2.31S139,55.64,139,55.75s3.81-2.33,3.87-2.23-3.25,3.1-3.19,3.2,3.15-1.93,3.2-1.85"/>      <path class="c" d="M144,48.53c.07.11,4.46-2.73,4.53-2.61s-.5,2.2-.47,2.25,2.8-1.71,2.84-1.64-1.24,2-1.21,2,2.19-1.34,2.22-1.28-2.93,4-2.86,4.06,4.11-2.51,4.17-2.41-5.51,5.35-5.42,5.52,5.42-3.31,5.5-3.17-4.2,3.68-4.13,3.8,3.52-2.15,3.57-2.06"/>      <path class="c" d="M129.81,44.1c0,.05,2-1.21,2-1.16s-3.08,3.35-3,3.45,6.31-3.86,6.4-3.7-5.91,5.7-5.8,5.88,3.68-2.25,3.73-2.15-1.41,2.87-1.37,2.94,3.44-2.1,3.49-2-1.07,2-1,2.09c.12.22,8.5-5.2,8.63-5S129,54,129.18,54.39s13.74-8.4,13.94-8-12.93,9.45-12.73,9.79,12.43-7.6,12.61-7.28"/>      <path class="c" d="M144,43.19c.11.19,7.61-4.65,7.73-4.46s-4.74,4-4.66,4.11,4.38-2.68,4.45-2.57"/>      <path class="c" d="M144,38.31c.1.17,6.88-4.21,7-4s-3.7,4.42-3.62,4.55,3.29-2,3.34-1.93-3.76,3.39-3.7,3.5,4.37-2.67,4.43-2.56"/>      <path class="c" d="M142.83,30.29s1.82-1.11,1.85-1.07-3.25,3.9-3.18,4,4.24-2.59,4.3-2.48-2.68,3.66-2.62,3.76.76-.46.77-.44"/>      <path class="c" d="M145.42,33.14c.07.12,4.69-2.86,4.75-2.74s-2.1,3-2.05,3.08,4.77-2.92,4.84-2.8-5.47,4.28-5.38,4.43,5.55-3.39,5.63-3.25"/>      <path class="c" d="M128.59,38.49s1.3-.8,1.32-.76-.58,1.9-.56,1.94,4-2.44,4-2.33-.55,2.32-.52,2.37,5-3,5.05-2.92-.28,2.26-.25,2.31,4.75-2.9,4.82-2.78-3.64,4.13-3.57,4.25c.18.31,12.31-7.52,12.49-7.21s-17,10.57-16.79,11c.12.2,7.91-4.84,8-4.63s-5,4.11-4.93,4.25,4.89-3,5-2.86-3.83,4.52-3.75,4.65c.18.32,12.58-7.69,12.77-7.37"/>      <path class="c" d="M137.4,32.87s2-1.2,2-1.15"/>      <path class="c" d="M132.32,32.54c0,.07,2.9-1.78,2.95-1.7S133,34.4,133,34.49s5.94-3.63,6-3.48-5.54,4.87-5.45,5,2.92-1.79,3-1.71"/>      <path class="c" d="M129.62,30.29s1.9-1.16,1.93-1.11-3.86,4.16-3.79,4.28,5-3,5-2.91-4.51,4.22-4.43,4.35,3.11-1.9,3.15-1.82"/>      <g>        <path class="c" d="M135.17,44.79s1.9-1.16,1.93-1.11,1.25.9,1.27.94.81-.5.82-.48-.84,2-.81,2,.92-.56.94-.54"/>        <path class="c" d="M133.21,44.84s1.49-.91,1.51-.87-2.08,2.5-2,2.57,1.1-.67,1.11-.64.86,1.86.89,1.9,1.92-1.17,1.95-1.12,1.29.72,1.31.76,1.28-.79,1.3-.75"/>        <path class="c" d="M144.12,38.8s1.95-1.19,2-1.14.53,2.05.56,2.1,1.06-.65,1.07-.62"/>        <path class="c" d="M142.38,38.78s1.43-.87,1.45-.84-1.59,3-1.55,3,.92-.56.93-.54,1.73,1.17,1.75,1.22,2.48-1.52,2.52-1.45"/>        <path class="c" d="M137.64,33.38c0,.06,2.21-1.35,2.24-1.29"/>        <path class="c" d="M131.77,29.53s1-.59,1-.56-.37,1.75-.35,1.79.95-.58,1-.56,1.71,1,1.74,1,2-1.21,2-1.16,1.44,1,1.47,1,.8-.49.82-.47"/>        <path class="c" d="M135.91,33.34s1.45-.89,1.47-.85-1.18,1.93-1.15,2S137,34,137,34s-.21,2-.18,2.06.77-.47.78-.45.16,1.47.18,1.5,1.66-1,1.68-1,2.79.5,2.82.57,1.9-1.16,1.93-1.11,2.14.6,2.16.65,1.48-.9,1.5-.87"/>        <path class="c" d="M145.63,33.62c0,.05,2-1.23,2-1.18s-.54,2.28-.51,2.33,1.13-.69,1.15-.66"/>        <path class="c" d="M142.52,29.89s2-1.2,2-1.15-3.52,3.94-3.45,4.06,1.23-.75,1.24-.72-.7,2.11-.67,2.16,1-.61,1-.58.53,1.56.55,1.6,1-.62,1-.59"/>        <path class="c" d="M144.73,29.61s1-.62,1-.59-.32,1.91-.3,2,1-.63,1-.6,1.74.62,1.77.66,2-1.2,2-1.15,2.18.81,2.21.86.8-.49.81-.47-2.51,3.42-2.46,3.51,2.74-1.68,2.78-1.61-3.69,3.46-3.62,3.57,1.27-.77,1.28-.74-.51,2.39-.48,2.45.76-.46.77-.45-.2,1.65-.18,1.69.78-.48.79-.46-1.46,2.81-1.42,2.88,1.26-.77,1.28-.74"/>        <path class="c" d="M144.06,43.73c0,.05,2-1.21,2-1.16s1.28.72,1.3.76S149.58,42,149.61,42"/>        <path class="c" d="M142.49,43.59s1.3-.8,1.32-.76-1.3,3.18-1.25,3.26.85-.52.86-.5l.57,1.17s1.83-1.12,1.86-1.07,1.59.65,1.62.69,1.6-1,1.62-.93l.9,1.07s1-.59,1-.56.32,1.22.34,1.25.81-.49.82-.47.32,1.53.34,1.56.75-.46.76-.44-.11,2.28-.08,2.33.89-.54.9-.52-1.43,2.6-1.39,2.66,1.1-.67,1.11-.64-1.85,2.37-1.81,2.44,1.21-.74,1.23-.71"/>        <path class="c" d="M144.1,49.08S146,47.94,146,48s2.78.57,2.82.63,1.1-.67,1.12-.64-.88,1.85-.85,1.89,1-.59,1-.57S146,52.86,146,53s3.61-2.21,3.67-2.12-2.94,3.55-2.88,3.66.93-.57.94-.54l1.08,1.46s.93-.57.94-.54.89,1,.9,1,1.81-1.11,1.84-1.06"/>        <path class="c" d="M142.57,48.91s1.26-.77,1.28-.74-1.37,2.68-1.33,2.75.89-.54.9-.52-1,1.8-.92,1.85.91-.56.93-.53-.92,2.85-.88,2.92.87-.53.89-.51"/>        <path class="c" d="M138.41,53.09s.87-.53.88-.51-.91,2.16-.88,2.21.87-.53.88-.51-.21,2.57-.17,2.63.82-.5.83-.48,1,1.09,1,1.12,1.94-1.19,2-1.14"/>        <path class="c" d="M136.39,53.19c0,.06,2.46-1.5,2.49-1.44"/>        <path class="c" d="M129.47,43.73c0,.05,2.12-1.3,2.15-1.24s-3.51,4.32-3.44,4.44,1-.62,1-.6-.38,2.49-.34,2.54.82-.5.84-.48l.77,1.19s1.09-.66,1.1-.64,2.28.9,2.31,1,.87-.53.89-.51c.1.18-6.32,5.43-6.21,5.61s6.66-4.07,6.76-3.9-5.75,5.12-5.65,5.29.94-.57,1-.55,1.41,1,1.43,1.05,3.73-2.28,3.78-2.18"/>        <path class="c" d="M132,43.29s1.53-.93,1.55-.9,2.9.42,2.94.48,2.82-1.72,2.86-1.65"/>        <path class="c" d="M128.2,38.11s1.49-.91,1.51-.87-1.07,2.44-1,2.49.81-.5.82-.47,1.73,1.1,1.75,1.15,1.93-1.18,2-1.13,3.48.31,3.53.39,1.74-1.07,1.77-1-.12,1.81-.1,1.85.9-.55.91-.53"/>        <path class="c" d="M130,38.11c0,.05,2-1.21,2-1.16s.82.82.84.84,1.42-.87,1.44-.83"/>        <path class="c" d="M132.13,33.45s.76-.47.77-.45-.39,1.52-.37,1.55.76-.47.77-.45-.2,2-.17,2.08.76-.47.77-.45"/>        <path class="c" d="M131.32,32.63s1-.6,1-.58"/>        <path class="c" d="M129.31,29.89c0,.05,2-1.25,2.07-1.2s-4.12,4.3-4,4.43,1.53-.94,1.56-.9-1.45,2.54-1.41,2.61.74-.45.75-.43l.51,1.1c0,.07,2.92-1.78,3-1.71"/>      </g>    </g>    <g>      <path class="c" d="M215,50.81c.06.1,3.88-2.37,3.94-2.27s-2.11,3-2.06,3.06,3.59-2.2,3.65-2.1-3.85,3.68-3.78,3.8,3.44-2.1,3.49-2"/>      <path class="c" d="M210.92,49.57s1.82-1.11,1.85-1.07-2.19,2.75-2.15,2.83,7.51-4.59,7.62-4.4-7.61,6.38-7.49,6.6,2.84-1.74,2.88-1.66-2.81,3.18-2.75,3.27,2.67-1.63,2.71-1.56-2,2.79-1.94,2.86,4.25-2.6,4.32-2.49-1.77,2.84-1.73,2.92,5.6-3.43,5.69-3.28-2.47,3.1-2.42,3.18,1.86-1.14,1.89-1.09"/>      <path class="c" d="M211.55,40.45s1.63-1,1.65-1-1.29,2-1.26,2,4.82-2.95,4.89-2.82-1.6,3-1.56,3.08,4-2.47,4.1-2.37-4.67,3.94-4.59,4.08,4.67-2.85,4.74-2.73-5.89,5.31-5.79,5.49,2.91-1.78,2.95-1.7-.73,2.89-.69,3,2.35-1.44,2.39-1.38"/>      <path class="c" d="M228,49.5c.09.15,5.83-3.56,5.92-3.42s-1.11,2.89-1.07,3,3.35-2,3.39-2-3.32,3.86-3.26,4,4.29-2.62,4.36-2.52-4.7,4-4.62,4.18,4.74-2.9,4.81-2.78"/>      <path class="c" d="M222.83,48s1.8-1.1,1.83-1.05-2.15,3.19-2.1,3.27,9.08-5.55,9.21-5.32-9.26,7-9.12,7.26,10.42-6.37,10.57-6.1-10.64,8-10.47,8.26c.06.1,3.85-2.35,3.91-2.26s-3.7,3.63-3.64,3.74,3.72-2.28,3.78-2.18-1.38,3.22-1.33,3.29,6-3.65,6.06-3.5-3,3.27-3,3.37,8.57-5.23,8.69-5-4.13,4.69-4.05,4.83,3.62-2.21,3.67-2.12"/>      <path class="c" d="M233,42.21c.06.11,4.28-2.62,4.34-2.51"/>      <path class="c" d="M221.05,41.07s1.55-.95,1.58-.91-1.2,2.13-1.17,2.18,4.75-2.9,4.82-2.78-3.14,3.49-3.09,3.6,8.51-5.2,8.63-5-5.24,4.53-5.15,4.68,8-4.87,8.09-4.67-7.5,6.49-7.38,6.7,9.53-5.83,9.67-5.59"/>      <path class="c" d="M233.22,33.47c0,.06,2.33-1.42,2.36-1.36"/>      <path class="c" d="M210.33,34.46s1.51-.92,1.53-.89-.53,2.49-.49,2.54,6.28-3.84,6.37-3.68-3.32,3.41-3.26,3.52,6-3.68,6.11-3.53-.78,2.86-.75,2.92S226.91,31,227,31.2s-4.05,4.11-4,4.24,9.71-5.93,9.85-5.69-5.38,5.34-5.29,5.51,7.39-4.52,7.5-4.33-7.67,6.28-7.55,6.5,4.21-2.57,4.27-2.46-4.37,3.72-4.3,3.84,4.22-2.58,4.29-2.48"/>      <path class="c" d="M214.07,30s1.55-.95,1.57-.91-1.93,3-1.88,3.07,3.47-2.12,3.52-2"/>      <g>        <path class="c" d="M228,50s1.87-1.14,1.9-1.09,2.38.58,2.41.64,1-.63,1.05-.61-1.08,2.52-1,2.58,1-.61,1-.58"/>        <path class="c" d="M226.37,49.94s1.38-.84,1.4-.81-1.54,2.55-1.5,2.62.89-.54.9-.52-.82,2.29-.79,2.34.81-.5.83-.48,1.09,1,1.11,1,1.78-1.09,1.81-1,1.5.69,1.52.72S233,53,233,53"/>        <path class="c" d="M215.14,51.3s1.67-1,1.7-1-.54,1.73-.51,1.77,1-.58,1-.56"/>        <path class="c" d="M213.36,51.3s1.46-.89,1.48-.86-1.6,3.32-1.56,3.4.85-.52.86-.5,1.09,1,1.11,1.06,1.87-1.14,1.89-1.09"/>        <path class="c" d="M213.44,39.83c0,.06,2.47-1.51,2.5-1.44s2.51.7,2.55.76.83-.51.84-.49-.12,1.63-.1,1.67.82-.5.83-.48-4,4.33-3.93,4.45,2-1.24,2.06-1.19-1,2.07-1,2.12.84-.51.85-.49-.06,1.38,0,1.41.77-.47.78-.45-.68,2.74-.64,2.8S219,48,219,48s.44,1.29.46,1.32.87-.53.88-.51-.51,2.25-.48,2.3,1.29-.79,1.31-.75-1.71,3.09-1.66,3.17,1-.59,1-.56-1.46,2.39-1.42,2.45,1.14-.7,1.16-.67"/>        <path class="c" d="M210.57,49.18c0,.05,2-1.21,2-1.16s-2.5,3.27-2.44,3.36.84-.51.85-.49-.79,1.91-.77,2,.84-.51.85-.49-.77,2.3-.74,2.35.84-.51.85-.49-.35,2.09-.33,2.14.75-.46.76-.44l1,1.44s1.48-.91,1.51-.87,2.42.75,2.45.81,3.44-2.1,3.49-2"/>        <path class="c" d="M212.89,48.87c0,.05,2-1.21,2-1.16"/>        <path class="c" d="M211.11,40.08s1.78-1.09,1.8-1-1.76,2.32-1.72,2.39.76-.46.77-.44.07,1.26.09,1.28.92-.56.93-.54,1,.82,1,.85,2.18-1.33,2.21-1.27-2.81,2.95-2.76,3,2.36-1.45,2.4-1.39-2.58,3.35-2.53,3.44.74-.45.75-.43.58,1.43.6,1.46.93-.57.94-.54"/>        <path class="c" d="M233.31,34c0,.07,2.68-1.64,2.72-1.57"/>        <path class="c" d="M215.81,29.53s1-.59,1-.56.3,1.91.32,2,.75-.46.77-.44,0,2.36.08,2.41,2-1.22,2-1.17,1.45,1.31,1.47,1.35,2.88-1.76,2.92-1.69,4.27-.34,4.32-.25,3-1.84,3.06-1.77,1.79.86,1.82.9.93-.57.94-.55.14,1.27.16,1.3.77-.47.78-.45-.28,1.5-.26,1.53.83-.51.84-.48"/>        <path class="c" d="M231.54,34s1.6-1,1.62-.94-1.78,2.79-1.73,2.87.9-.55.91-.52-.87,2.78-.83,2.85.84-.51.85-.49,1.86.81,1.88.86,1.55-.95,1.58-.91.33,1.11.35,1.14.83-.5.84-.48-.07,2.31,0,2.36.92-.56.93-.54"/>        <path class="c" d="M233,42.75s1.93-1.18,2-1.13"/>        <path class="c" d="M231.47,42.64s1.38-.84,1.4-.81-1.53,2.12-1.49,2.17.92-.56.93-.54-.72,2.52-.69,2.58.94-.57.95-.55l.85.94s1.19-.73,1.21-.7,1.12,1.44,1.14,1.48.8-.49.81-.47S237,49,237.07,49s.78-.48.79-.46-1,2.55-.92,2.61,1-.58,1-.56-1.27,2.44-1.24,2.5,1-.58,1-.56-1.47,2.54-1.43,2.61,1.14-.7,1.16-.67"/>        <path class="c" d="M222.48,47.6s2-1.2,2-1.15S222,50.09,222,50.19s.87-.53.88-.51-.82,2.49-.78,2.54.84-.51.85-.49-.78,2.84-.74,2.9.85-.52.86-.5-.11,2.54-.08,2.59.82-.5.84-.48,1.21,1.14,1.23,1.17,1.62-1,1.64-.95,1.82.76,1.84.81,1.62-1,1.64-.95,1.1.81,1.12.84,1.62-1,1.64-.95,1.82.72,1.84.76,2-1.24,2.05-1.19"/>        <path class="c" d="M224.78,47.3c0,.07,2.94-1.8,3-1.72"/>        <path class="c" d="M220.62,40.71s1.72-1.05,1.74-1-1.57,2.6-1.53,2.67.75-.46.76-.44.61,1.51.63,1.55,1.14-.7,1.16-.67,2.3.56,2.33.61,1.52-.93,1.54-.89-.46,2.24-.43,2.29.94-.58,1-.55"/>        <path class="c" d="M222.74,40.54c0,.05,2.16-1.32,2.19-1.27s1.31.65,1.32.68,1.54-.94,1.56-.9"/>        <path class="c" d="M212,33.94c0,.05,2.08-1.27,2.11-1.22"/>        <path class="c" d="M209.95,34.07s1.65-1,1.68-1-1.27,2.9-1.23,3,.81-.5.83-.48l.91,1.11S214,35.58,214,35.62s3.41.42,3.46.5,1.88-1.15,1.91-1.1,2.08.68,2.1.72,1-.6,1-.58,4.07,0,4.12.08,1.15-.7,1.16-.67-.75,2.5-.71,2.56.91-.56.93-.54-1,1.91-.93,2,.89-.54.9-.52"/>        <path class="c" d="M213.65,29.72s1.87-1.14,1.9-1.1-2.32,3.21-2.27,3.29.9-.55.91-.53"/>      </g>    </g>    <g>      <path class="c" d="M165.11,6.39c0,.08,3.35-2,3.39-2S164,9.25,164,9.4c.19.33,12.9-7.89,13.09-7.56S163.77,10.54,164,10.89,180.42.83,180.67,1.25,163.59,13,163.85,13.43,185.09.45,185.4,1s-21.94,13.3-21.62,13.85S187.14.57,187.48,1.16s-24.14,15-23.79,15.6S189.52,1,189.9,1.63s-26.46,16.24-26.07,16.91S191.59,1.57,192,2.28c.3.52-20,12.82-19.73,13.33s21.26-13,21.57-12.45c.21.37-13.84,9.9-13.63,10.27s15.3-9.35,15.52-9-13.29,8.68-13.09,9S196.58,5,196.79,5.31s-12.33,8.46-12.14,8.79,13-7.94,13.18-7.61-11.78,8.39-11.6,8.7,12.46-7.62,12.64-7.3-12,8.78-11.77,9.1,12.55-7.67,12.74-7.35S187,18.08,187.2,18.41s12.88-7.87,13.06-7.54-13.91,9.69-13.7,10.06,14.05-8.59,14.26-8.23-16,10.94-15.73,11.36,15.72-9.61,16-9.21S183,26.52,183.28,27s17.6-10.76,17.86-10.31S181.31,28.86,181.6,29.37,200.75,17.66,201,18.14s-23.37,15-23,15.64,22.13-13.53,22.45-13-26.53,16.3-26.14,17,25-15.25,25.32-14.62c.48.83-32.61,20.12-32.13,21s30.2-18.46,30.65-17.69c.53.92-36.48,22-35.94,22.91s33.56-20.51,34.05-19.66-34.49,20.29-34,21.16,31.9-19.5,32.37-18.69S162.57,51.73,163,52.55,191.57,35.11,192,35.84s-28.62,17.38-28.2,18.1S189,38.55,189.34,39.19,164.62,55,165,55.67s20-12.23,20.31-11.72-18.71,12.38-18.43,12.87,18.95-11.58,19.23-11.1-16.75,11-16.5,11.4S189.45,45,189.74,45.49s-17,11.19-16.76,11.64,20.28-12.39,20.57-11.88S177,56.68,177.26,57.12s20.8-12.71,21.1-12.18-17.77,11.72-17.5,12.18,19.75-12.07,20-11.57-17.09,11.13-16.83,11.57S201.37,46.55,201.63,47s-14,9.77-13.77,10.14,13.42-8.2,13.61-7.86-9.61,7.59-9.45,7.86,9-5.48,9.1-5.25-6.37,5.08-6.27,5.25,5.94-3.63,6-3.48-3.12,3.31-3.06,3.41,2.27-1.39,2.3-1.33"/>      <g>        <path class="c" d="M169,4.68c.06.1,3.77-2.3,3.83-2.21s1.45.48,1.47.51,2.73-1.67,2.77-1.6,1.58.58,1.6.62S180.82.69,180.85.74s1,.79,1.05.82,1.69-1,1.71-1,2.39.83,2.42.88,1.32-.8,1.33-.77S189.51,1.9,189.54,2s1.07-.65,1.09-.63,1.22,1.31,1.25,1.35.92-.56.94-.54S194,3.65,194,3.69s.84-.51.85-.49.17,1.23.19,1.26.83-.51.84-.49.65,1.67.67,1.71.78-.48.79-.46.19,1.56.21,1.6.78-.48.79-.46.18,1.79.21,1.83.76-.47.77-.45-.15,1.56-.13,1.59.76-.46.77-.45,0,2.32,0,2.37.77-.47.79-.45-.31,2.25-.28,2.3.82-.5.83-.48-.72,1.92-.69,2,.82-.5.83-.48-.76,2.8-.72,2.86.88-.54.89-.51-1.16,2.45-1.13,2.51,1-.6,1-.58-1.64,2.89-1.6,3,1.08-.66,1.1-.63-2.06,3-2,3,1.21-.74,1.23-.71-2.68,3.49-2.62,3.59,1.38-.84,1.4-.81-2.6,2.76-2.56,2.84,1.48-.9,1.5-.87-3,3-2.9,3.09,1.6-1,1.62-.94-3.75,3.79-3.69,3.91,1.77-1.08,1.79-1-5.39,5.4-5.3,5.56,2.08-1.27,2.11-1.22-5.53,5-5.43,5.17S188.41,41,188.44,41s-4.38,4.89-4.29,5,1.31-.8,1.33-.77,2.87.63,2.91.7,1.7-1,1.72-1,1.29.77,1.31.8,1.69-1,1.72-1,2.26.69,2.29.74,1.69-1,1.72-1,1.11.78,1.12.81,1.43-.87,1.45-.84l.56,1.09s.82-.5.83-.48,0,1.35,0,1.38.74-.45.75-.43-.78,2.83-.75,2.89,1-.58,1-.56-1.38,3.24-1.34,3.32,1-.58,1-.56-1.31,2.75-1.27,2.81,1-.58,1-.56"/>        <path class="c" d="M164.82,6c.05.09,3.47-2.12,3.52-2s-4.85,5-4.76,5.14,1-.59,1-.57-1.08,2-1.05,2.06.89-.55.91-.52-1.06,3-1,3.06.89-.55.91-.52-1,1.88-1,1.93.89-.55.91-.52-1,2.38-1,2.44.89-.55.91-.52-.88,2.29-.85,2.35.75-.46.77-.44.31,1.71.33,1.75,7-4.29,7.13-4.11,6.19-1.36,6.27-1.22,2.12-1.3,2.15-1.24,1.1.79,1.12.82,1.36-.83,1.38-.8,1.11,1.09,1.13,1.12,1-.6,1-.58l.84,1.52s.81-.49.82-.47.32,2.06.35,2.1.79-.48.8-.46-.64,1.79-.61,1.83.83-.51.84-.49-1.47,2.91-1.43,3,1.15-.7,1.16-.67-2.65,3.67-2.6,3.77,1.4-.85,1.42-.82-3.28,3.63-3.21,3.73,1.67-1,1.69-1-3.42,3.25-3.36,3.35,1.85-1.13,1.87-1.08-5.53,5.31-5.43,5.48S180,32,180,32.07s-6.09,5.17-6,5.34,2.72-1.66,2.76-1.59c.16.27-9.74,7.67-9.59,7.93.06.1,3.78-2.31,3.84-2.21.15.26-9.41,7.24-9.26,7.5,0,0,1.3-.79,1.32-.76s-1.42,2.28-1.39,2.34.83-.51.84-.49-.19,2.19-.16,2.24.75-.46.76-.44,0,1.79,0,1.83.75-.46.76-.44.32,2.18.35,2.22.79-.48.8-.46.72,1.76.75,1.8.91-.56.93-.53,1.2,1.14,1.22,1.17,1.38-.85,1.4-.81,1.84.84,1.87.88,1.5-.92,1.52-.88,2.72.82,2.76.88,1.5-.92,1.53-.88,2,.83,2.07.88,1.5-.92,1.53-.88,1.66.84,1.68.88,1.5-.92,1.53-.88,2.23.83,2.26.88,1.5-.92,1.53-.88,2.6.82,2.63.88,1.5-.92,1.53-.88,1.29.85,1.3.88,1.5-.92,1.53-.88,1.48.84,1.5.88,1.61-1,1.63-.94"/>      </g>    </g>  </g></svg>