<svg xmlns="http://www.w3.org/2000/svg" width="361.18" height="152.72" viewBox="0 0 361.18 152.72">  <defs>    <style>      .a {        fill: #1b3f86;      }      .b, .c, .d {        fill: none;      }      .b {        stroke: #25478b;        stroke-miterlimit: 10;        stroke-width: 0.1px;      }      .c, .d {        stroke: #0098f5;        stroke-linecap: round;        stroke-linejoin: round;      }      .c {        stroke-width: 0.8px;      }      .d {        stroke-width: 1.1px;      }    </style>  </defs>  <title>アセット 1</title>  <g>    <g>      <g>        <path class="a" d="M1.56,149.78c1.12,0,3,.05,4.86.06C5,149.79,3.53,149.77,1.56,149.78Z" transform="translate(0 0)"/>        <path class="a" d="M6.45,149.84h0Z" transform="translate(0 0)"/>        <path class="a" d="M359.83,147.68h0Z" transform="translate(0 0)"/>        <path class="a" d="M94.67,150l.28-.08c4.32,0,1.26.09,5.25.07,1.56-.11,6.64,0,8,0,0,0,1.92,0,1.8,0,.6-.06,2,0,3.25,0,.45,0-.33,0-.66,0l2.83,0c1.1,0,1.38.06.18.06,7.39,0,42.84.08,50.8.05-1,0-3.48,0-4.41-.09,2.1,0,3.1,0,4,0,.81.11,4.62,0,6.22.14l.6-.06,1,0c9.25-.06,2.11,0,10.31,0,4.75,0,7-.09,9.64-.06-.39,0-1.44,0-.21-.05.21.05,3.27,0,3.87,0,1.2,0,5.11,0,3.79-.07.66,0,4.14.05,2.07.08,1.17,0,2.31,0,3.16,0l-1.51,0c4,0,6.13,0,8.71,0l-1.47,0c2.37,0,4.35,0,5.29.06l-2.43,0c3.93,0,6.3,0,9.58,0h-1.17c4.18-.07,26-.13,29.87-.22l-1.77-.06,3.31,0c-.39,0-1.6.18-1.92.17,7.09,0,44,0,50.52,0,2.64,0,.48.09.45.1,3.21,0,1.39-.06,4.12-.06.75,0-.15,0-.57.05,1.2,0,2.31,0,2.4,0a6,6,0,0,1-1.5-.14h3.52l-.16,0c.78,0,2-.12,5.44-.1,5.83,0,12.16,0,18,0-.09,0-1.32,0-2.55.06.79,0,2,0,2.71,0-1.42,0,2.46,0,1.35-.05,4.29-.11,9.84,0,13.63-.08.33-.1,8.11-1.68,8.11-1.79h2.71c-.3,0-2.62,0-3.84,0l-.21.06c-2.83,0-.66,0-3.42,0-.15-.05,2.39-.06,4.63-.07-2,0-4,0-4.84,0-1.89,0,.21-.06-2.07-.08-1.62,0-3.76.06-5.62,0h0c-4.53-.05-6.94.08-11.08,0l.45,0c-1.46,0-4.35,0-7,0,.75,0,1.41,0-.18.05-3,0-5.11,0-7.33,0l-2.13,0c-10.58,0-52.35.06-63,.07H256c-16.19,0-49.42,0-66.15.09-2.59,0-6.16,0-8.86-.05,1.5,0,1,.06-.18.05-8.23,0-.56,0-8.87.05-9.58,0-46.23,0-54.74,0-4.57.07-10.27,0-14.74.06l.45,0c-4.81,0-32,0-37.59,0h.75c-4.87,0-4.21,0-8-.06.5.08-3.67.13-5.26.13l.06,0c-2.4,0-7.84.08-11.8.09l.15,0c-3.31,0-9.52,0-11.9,0-5.43,0-13.81-.1-21.08,0l-4.69-.13H2.83s-7.56,1.53,2,1.85l-.15,0h1.9c2.28,0,3.33,0,3.17,0H6.67c2.29,0,.69,0-.18.06l2.64,0c.45,0-.33,0-.69,0,1.23,0,2.94-.06,4.44,0,2.34,0,.15.07,2.88.08,14.41,0,28.38.09,42.94.08.33,0-.06,0-.48,0l12.29,0c1.11,0,1.41,0,1.74.07C71.59,150,94.31,150,94.67,150Z" transform="translate(0 0)"/>      </g>      <g>        <path class="a" d="M1.25,75.64c.85,0,2.32.05,3.71.06C3.89,75.66,2.75,75.64,1.25,75.64Z" transform="translate(0 0)"/>        <path class="a" d="M5,75.71H5Z" transform="translate(0 0)"/>        <path class="a" d="M274.49,73.55h0Z" transform="translate(0 0)"/>        <path class="a" d="M72.26,75.85l.21-.08c3.3,0,1,.09,4,.07,1.19-.11,5.06,0,6.11,0,0,0,1.47,0,1.37,0,.46-.06,1.53,0,2.48,0,.34,0-.25,0-.5,0l2.16,0c.84,0,1.05.06.13.06,5.63,0,32.68.08,38.74.05-.78,0-2.65,0-3.36-.09,1.6,0,2.36,0,3.07,0,.62.11,3.53,0,4.74.14l.46-.06.8,0c7.06-.06,1.61,0,7.87,0,3.62,0,5.34-.09,7.35-.06-.3,0-1.1,0-.16-.05.16.05,2.5,0,3,0,.92,0,3.89,0,2.89-.07.5,0,3.16.05,1.58.08.9,0,1.76,0,2.41,0l-1.15,0c3,0,4.67,0,6.64,0l-1.12,0c1.81,0,3.32,0,4,.06l-1.86,0c3,0,4.81,0,7.31,0h-.89c3.18-.07,19.84-.13,22.78-.22L192,75.43l2.52,0c-.3,0-1.22.18-1.47.17,5.41,0,33.53,0,38.53,0,2,0,.36.09.34.1,2.45,0,1.06-.06,3.14-.06.57,0-.12,0-.44.05.91,0,1.76,0,1.83,0a3.54,3.54,0,0,1-1.14-.14H238l-.12,0c.6,0,1.52-.12,4.15-.1,4.44,0,9.27,0,13.74,0-.07,0-1,0-1.95.06.6,0,1.51,0,2.06,0-1.08,0,1.88,0,1-.05,3.27-.11,7.51,0,10.4-.08.25-.1,6.19-1.68,6.19-1.79h2.06c-.23,0-2,0-2.93,0l-.16.06c-2.16,0-.51,0-2.61,0-.11-.05,1.82-.06,3.53-.07-1.54,0-3.07,0-3.69,0-1.44,0,.16-.06-1.58-.08-1.24,0-2.86.06-4.29,0h0c-3.46-.05-5.29.08-8.45,0l.34,0c-1.12,0-3.32,0-5.33,0,.57,0,1.07,0-.14.05-2.32,0-3.9,0-5.59,0l-1.63,0c-8.07,0-39.93.06-48,.07h.32c-12.35,0-37.69,0-50.45.09-2,0-4.7,0-6.75-.05,1.15,0,.75.06-.14.05-6.27,0-.42,0-6.77.05-7.31,0-35.26,0-41.75,0-3.48.07-7.83,0-11.24.06l.34,0c-3.67,0-24.41,0-28.67,0h.57c-3.71,0-3.21,0-6.14-.06a38.28,38.28,0,0,1-4,.13l0,0c-1.83,0-6,.08-9,.09l.12,0c-2.52,0-7.26,0-9.07,0-4.14,0-10.53-.1-16.08,0l-3.58-.13H2.22s-5.76,1.53,1.55,1.85l-.12,0H5.1c1.74,0,2.54,0,2.42,0H5.14c1.74,0,.53,0-.14.06l2,0c.34,0-.25,0-.52,0,.94,0,2.24-.06,3.39,0,1.79,0,.11.07,2.2.08,11,0,21.64.09,32.75.08.25,0,0,0-.37,0l9.37,0c.85,0,1.08,0,1.33.07C54.66,75.84,72,75.84,72.26,75.85Z" transform="translate(0 0)"/>      </g>      <path class="b" d="M271.11,75.77" transform="translate(0 0)"/>      <g>        <path class="a" d="M288.44,75a1.06,1.06,0,0,0-.25-.3A.9.9,0,0,0,288.44,75Z" transform="translate(0 0)"/>        <polygon class="a" points="288.19 74.67 288.19 74.67 288.19 74.67 288.19 74.67"/>        <path class="a" d="M265.6,57.52l.09.08Z" transform="translate(0 0)"/>        <path class="a" d="M283,69.88l-.07,0c-.26-.23,0-.14-.27-.33-.17,0-.39-.36-.51-.39s-.11-.11-.08-.13-.13-.1-.21-.15,0,0,0,.06l-.18-.13c-.05-.07,0-.11,0-.06-.43-.41-2.51-2.34-3-2.74,0,.09.2.2.21.3-.15-.08-.18-.18-.26-.19s-.26-.26-.28-.43h-.08l0-.08a3,3,0,0,1-.63-.54,7.18,7.18,0,0,1-.62-.46s.06.11,0,.05-.22-.14-.22-.22-.31-.27-.28-.15c0-.06-.21-.26-.07-.17a1.13,1.13,0,0,0-.19-.17l.08.1c-.24-.2-.34-.36-.53-.45l.07.1c-.15-.12-.27-.22-.27-.33l.16.11a5,5,0,0,0-.6-.47l.07.06c-.3-.17-1.65-1.28-1.94-1.42l.07.14-.23-.14s.22-.05.23,0c-.43-.37-2.66-2.3-3-2.67-.14-.16,0-.09,0-.1-.21-.15-.12,0-.28-.18s0,0,.07,0-.13-.13-.15-.12,0,.11,0,.18l-.21-.19,0,0s-.2,0-.39-.22-.73-.65-1.07-1c0,0,.11,0,.19.09a.89.89,0,0,1-.15-.15c.05.11-.17-.11-.11,0-.33-.15-.6-.52-.87-.66-.08.06-1.6.82-1.67.91a1.3,1.3,0,0,1-.15-.15s.13.17.21.22l.05,0c.18.13,0,.06.18.21,0,0-.18-.08-.32-.2.12.11.21.25.3.25s-.05,0,.07.17a1.46,1.46,0,0,1,.36.27h0c.24.28.47.31.68.57h0c.07.1.27.22.4.39,0,0-.05-.11,0,0s.31.27.41.42l.16.08c.63.57,3.17,2.73,3.81,3.29l0,0c1,.84,3,2.61,4,3.45a4.64,4.64,0,0,0,.5.51c-.08-.1,0-.09,0,0,.49.44.06,0,.57.43s2.76,2.46,3.24,2.94c.32.19.63.53.92.74h0c.31.23,1.89,1.73,2.24,2l0,0c.32.23.23.25.44.47,0-.09.3.1.4.18h0c.15.12.52.35.77.56l0,0a7.49,7.49,0,0,1,.73.61A11.81,11.81,0,0,0,286.86,76l.2.34,0,0s1.47-.74,1.11-1.49l0,0-.12-.1c-.12-.14-.22-.15-.18-.18l.18.17c-.13-.13,0-.06.05,0a1.35,1.35,0,0,1-.14-.16s0,0,0,.06a1.13,1.13,0,0,1-.29-.21c-.14-.13,0-.06-.12-.21-.84-.79-1.64-1.57-2.52-2.34,0,0,0,0,0,0-.27-.22-.5-.43-.76-.63a.29.29,0,0,1-.06-.14C284.38,71.11,283,69.91,283,69.88Z" transform="translate(0 0)"/>      </g>      <g>        <path class="a" d="M266.19,56a.56.56,0,0,0,0,.28A.47.47,0,0,0,266.19,56Z" transform="translate(0 0)"/>        <polygon class="a" points="266.19 56.3 266.19 56.3 266.19 56.3 266.19 56.3"/>        <path class="a" d="M272.21,75.47l0-.08A.36.36,0,0,0,272.21,75.47Z" transform="translate(0 0)"/>        <path class="a" d="M267,61.22h.08c0,.24-.08.09,0,.31.13.06.06.37.14.44s0,.11,0,.11,0,.11.07.17,0,0,0,0l.05.15c0,.07,0,.09-.06,0,.06.41.39,2.39.51,2.83,0-.07,0-.2,0-.26.06.11,0,.17.07.22s0,.26-.06.37l.07,0,0,.07a1.48,1.48,0,0,1,.13.57c.06.26.17.37.17.52,0,0,0-.09.05,0s.07.17,0,.22.06.28.11.2,0,.24-.06.13a.56.56,0,0,0,0,.17v-.09c.05.22,0,.35.12.48V67.7c0,.13.06.24,0,.31l0-.13a2.48,2.48,0,0,0,.15.52v-.07c.12.22.42,1.42.55,1.61l0-.11.08.17s-.2-.05-.18-.07c.08.39.53,2.43.57,2.8,0,.15-.08,0-.09,0,.06.17.07.07.1.22s0,0-.06,0,0,.13,0,.13.08-.07.12-.11l0,.2h0s.14.09.16.28.13.67.19,1c0,0-.06-.07-.08-.13a.44.44,0,0,1,0,.15c0-.09.06.13.07.07.15.22.12.54.23.74.1,0,1.73.12,1.85.1a.64.64,0,0,1,0,.15.33.33,0,0,0,0-.22h-.06c-.05-.15,0,0,0-.2s.09.12.12.24c0-.11,0-.23-.07-.27s.06,0,.06-.13a.75.75,0,0,1-.1-.3h0c0-.26-.15-.37-.15-.61l0,0c0-.09-.06-.24-.06-.39,0,0,0,.09-.05,0s-.06-.28,0-.41l-.07-.11c-.11-.59-.64-2.89-.76-3.48v0c-.2-.89-.57-2.74-.82-3.65a2.38,2.38,0,0,0,0-.5c0,.09,0,.07-.05,0-.09-.46,0,0-.15-.48s-.5-2.57-.56-3c-.12-.24-.13-.57-.22-.81l0,0c-.08-.26-.31-1.78-.4-2.09v0c-.1-.26,0-.24,0-.46-.07,0-.17-.18-.19-.27h0c0-.13-.17-.42-.22-.64h0a3.76,3.76,0,0,1-.16-.65A5.9,5.9,0,0,0,268,56l.07-.28,0,0s-1.58-.12-1.79.47h0l0,.1c0,.13.07.18,0,.18l0-.17c0,.13,0,0-.06,0a.7.7,0,0,1,0,.15s0,0,0,0a.58.58,0,0,1,.08.24c0,.13-.07,0,0,.17.13.81.23,1.59.4,2.4,0,0,0,0,0,0,.07.24.1.46.17.68a.2.2,0,0,1,0,.11A11.13,11.13,0,0,1,267,61.22Z" transform="translate(0 0)"/>      </g>      <path class="b" d="M287.88,75.77" transform="translate(0 0)"/>      <g>        <path class="a" d="M284.86,75.64a7.19,7.19,0,0,0,1,.06A6,6,0,0,0,284.86,75.64Z" transform="translate(0 0)"/>        <path class="a" d="M285.9,75.71h0Z" transform="translate(0 0)"/>        <path class="a" d="M360.89,73.55h0Z" transform="translate(0 0)"/>        <path class="a" d="M304.62,75.85l.06-.08c.92,0,.27.09,1.11.07.33-.11,1.41,0,1.7,0,0,0,.41,0,.38,0a3,3,0,0,1,.69,0c.1,0-.07,0-.14,0l.6,0c.23,0,.29.06,0,.06,1.57,0,9.09.08,10.78.05-.22,0-.74,0-.94-.09.45,0,.66,0,.85,0,.17.11,1,0,1.32.14l.13-.06.22,0a20.73,20.73,0,0,1,2.19,0c1,0,1.49-.09,2-.06-.08,0-.31,0,0-.05,0,.05.69,0,.82,0s1.08,0,.8-.07c.14,0,.88.05.44.08.25,0,.49,0,.67,0l-.32,0c.84,0,1.3,0,1.85,0l-.31,0a4.29,4.29,0,0,1,1.12.06l-.52,0c.83,0,1.34,0,2,0H332c.89-.07,5.52-.13,6.34-.22l-.38-.06.7,0c-.08,0-.34.18-.41.17,1.5,0,9.33,0,10.72,0,.56,0,.1.09.09.1.68,0,.29-.06.87-.06.16,0,0,0-.12.05a2.94,2.94,0,0,0,.51,0c-.32,0-.18-.09-.32-.14h.75l0,0a5.56,5.56,0,0,1,1.15-.1c1.24,0,2.58,0,3.82,0a2.43,2.43,0,0,1-.54.06c.17,0,.42,0,.57,0-.3,0,.52,0,.29-.05.91-.11,2.09,0,2.89-.08.07-.1,1.72-1.68,1.72-1.79h.57a4.41,4.41,0,0,0-.82,0l0,.06c-.6,0-.14,0-.73,0a3.47,3.47,0,0,1,1-.07,5.27,5.27,0,0,0-1,0c-.4,0,0-.06-.44-.08a10.19,10.19,0,0,1-1.19,0h0c-1-.05-1.47.08-2.35,0l.09,0c-.31,0-.92,0-1.48,0,.16,0,.3,0,0,.05-.65,0-1.08,0-1.56,0l-.45,0c-2.24,0-11.11.06-13.36.07h.09c-3.44,0-10.49,0-14,.09-.55,0-1.31,0-1.88-.05.32,0,.21.06,0,.05-1.75,0-.12,0-1.88.05-2,0-9.81,0-11.62,0-1,.07-2.18,0-3.13.06l.1,0c-1,0-6.79,0-8,0h.16a12.54,12.54,0,0,1-1.71-.06c.11.08-.78.13-1.12.13v0c-.51,0-1.66.08-2.5.09l0,0c-.7,0-2,0-2.52,0-1.15,0-2.93-.1-4.47,0l-1-.13h-.15s-1.6,1.53.43,1.85l0,0h.4c.48,0,.71,0,.67,0h-.66c.49,0,.15,0,0,.06l.56,0c.1,0-.07,0-.15,0a7.78,7.78,0,0,1,.94,0c.5,0,0,.07.61.08,3.06,0,6,.09,9.11.08.07,0,0,0-.1,0l2.61,0a1.54,1.54,0,0,1,.37.07C299.72,75.84,304.54,75.84,304.62,75.85Z" transform="translate(0 0)"/>      </g>      <g>        <path class="a" d="M3.21,71.44a8.18,8.18,0,0,0-.06,1.1A6.83,6.83,0,0,0,3.21,71.44Z" transform="translate(0 0)"/>        <path class="a" d="M3.15,72.55h0Z" transform="translate(0 0)"/>        <path class="a" d="M5.31,152.42c0-.1,0-.22,0-.34C5.31,152.19,5.31,152.31,5.31,152.42Z" transform="translate(0 0)"/>        <path class="a" d="M3,92.49l.08.06c0,1-.09.28-.07,1.19.11.35,0,1.5,0,1.81,0,0,0,.43,0,.41a3.41,3.41,0,0,1,0,.73c0,.1,0-.07,0-.15l0,.64c0,.25-.06.31-.06,0C3,98.89,3,106.9,3,108.7c0-.23,0-.79.09-1,0,.48,0,.7,0,.91-.11.18,0,1-.14,1.4l.06.14,0,.24c.06,2.09,0,.48,0,2.33,0,1.07.09,1.58.06,2.18,0-.09,0-.33.05,0-.05,0,0,.74,0,.88s0,1.15.07.86c0,.15-.05.94-.08.47,0,.27,0,.52,0,.71l0-.34c0,.9,0,1.38,0,2l0-.33a4.86,4.86,0,0,1-.06,1.19l0-.55c0,.89,0,1.42,0,2.17v-.26c.07.94.13,5.88.22,6.75l.06-.4,0,.75c0-.09-.18-.36-.17-.44,0,1.6,0,9.94,0,11.42,0,.6-.09.11-.1.1,0,.73.06.31.06.93,0,.17,0,0-.05-.13a3.36,3.36,0,0,0,0,.54c0-.34.09-.2.14-.34v.79l0,0a6.31,6.31,0,0,1,.1,1.23c0,1.32,0,2.75,0,4.07a2.71,2.71,0,0,1-.06-.58c0,.18,0,.45,0,.61,0-.32,0,.56.05.31.11,1,0,2.23.08,3.08.1.07,1.67,1.83,1.79,1.83,0,.27,0,.53,0,.61a5,5,0,0,0,0-.87l-.06,0c0-.64,0-.15,0-.77a3.93,3.93,0,0,1,.07,1,5.93,5.93,0,0,0,0-1.09c0-.43.06,0,.08-.47a11.73,11.73,0,0,1,0-1.27h0c.05-1-.08-1.57,0-2.5l0,.1c0-.33,0-1,0-1.58,0,.17,0,.32-.05,0,0-.69,0-1.15,0-1.66l0-.48c0-2.39-.06-11.83-.07-14.23V129c0-3.66,0-11.17-.09-14.95,0-.58,0-1.39.05-2,0,.34-.06.22-.05,0,0-1.86,0-.13-.05-2,0-2.16,0-10.45,0-12.37-.07-1,0-2.32-.06-3.33l0,.1c0-1.09,0-7.23,0-8.5V86a14.24,14.24,0,0,1,.06-1.82C5.08,84.32,5,83.38,5,83H5c0-.54-.08-1.77-.1-2.67l0,0c0-.75,0-2.15,0-2.69,0-1.23.1-3.12,0-4.76l.13-1.06v-.16S3.59,70,3.26,72.19l0,0v.43c0,.51,0,.75,0,.72v-.7c0,.52,0,.16-.06,0,0,.22,0,.43,0,.6s0-.07,0-.16a8.77,8.77,0,0,1,0,1c0,.53-.07,0-.08.65,0,3.26-.09,6.41-.08,9.71,0,.07,0,0,0-.11,0,1,0,1.87,0,2.78a1.7,1.7,0,0,1-.07.39C3,87.27,3,92.41,3,92.49Z" transform="translate(0 0)"/>      </g>      <g>        <path class="a" d="M356.61,71.44a8.1,8.1,0,0,0-.06,1.1A6.83,6.83,0,0,0,356.61,71.44Z" transform="translate(0 0)"/>        <path class="a" d="M356.55,72.55h0Z" transform="translate(0 0)"/>        <path class="a" d="M358.71,152.42c0-.1,0-.22,0-.34C358.71,152.19,358.71,152.31,358.71,152.42Z" transform="translate(0 0)"/>        <path class="a" d="M356.41,92.49l.08.06c0,1-.09.28-.07,1.19.11.35,0,1.5,0,1.81,0,0,0,.43,0,.41a3.45,3.45,0,0,1,0,.73c0,.1,0-.07,0-.15l0,.64c0,.25-.06.31-.06,0,0,1.67-.08,9.68-.05,11.48,0-.23,0-.79.09-1,0,.48,0,.7,0,.91-.11.18,0,1-.14,1.4l.06.14,0,.24c.06,2.09,0,.48,0,2.33,0,1.07.09,1.58.06,2.18,0-.09,0-.33.05,0-.05,0,0,.74,0,.88s0,1.15.07.86c0,.15-.05.94-.08.47,0,.27,0,.52,0,.71l0-.34c0,.9,0,1.38,0,2l0-.33a4.83,4.83,0,0,1-.06,1.19l0-.55c0,.89,0,1.42,0,2.17v-.26c.07.94.13,5.88.22,6.75l.06-.4,0,.75c0-.09-.18-.36-.17-.44,0,1.6,0,9.94,0,11.42,0,.6-.09.11-.1.1,0,.73.06.31.06.93,0,.17,0,0-.05-.13a3.29,3.29,0,0,0,0,.54c0-.34.09-.2.14-.34v.79l0,0a6.31,6.31,0,0,1,.1,1.23c0,1.32,0,2.75,0,4.07a2.71,2.71,0,0,1-.06-.58c0,.18,0,.45,0,.61,0-.32,0,.56.05.31.11,1,0,2.23.08,3.08.1.07,1.67,1.83,1.79,1.83,0,.27,0,.53,0,.61a5.05,5.05,0,0,0,0-.87l-.06,0c0-.64,0-.15,0-.77a3.93,3.93,0,0,1,.07,1,6,6,0,0,0,0-1.09c0-.43.06,0,.08-.47a11.48,11.48,0,0,1,0-1.27h0c.05-1-.08-1.57,0-2.5l0,.1c0-.33,0-1,0-1.58,0,.17,0,.32-.05,0,0-.69,0-1.15,0-1.66l0-.48c0-2.39-.06-11.83-.07-14.23V129c0-3.66,0-11.17-.09-14.95,0-.58,0-1.39.05-2,0,.34-.06.22-.05,0,0-1.86,0-.13-.05-2,0-2.16,0-10.45,0-12.37-.07-1,0-2.32-.06-3.33l0,.1c0-1.09,0-7.23,0-8.5V86a14.24,14.24,0,0,1,.06-1.82c-.08.11-.13-.83-.13-1.19h0c0-.54-.08-1.77-.1-2.67l0,0c0-.75,0-2.15,0-2.69,0-1.23.1-3.12,0-4.76l.13-1.06v-.16s-1.53-1.71-1.85.46l0,0v.43c0,.51,0,.75,0,.72v-.7c0,.52,0,.16-.06,0,0,.22,0,.43,0,.6s0-.07,0-.16a8.77,8.77,0,0,1,0,1c0,.53-.07,0-.08.65,0,3.26-.09,6.41-.08,9.71,0,.07,0,0,0-.11,0,1,0,1.87,0,2.78a1.7,1.7,0,0,1-.07.39C356.42,87.27,356.42,92.41,356.41,92.49Z" transform="translate(0 0)"/>      </g>    </g>    <g>      <g>        <path class="c" d="M139.52,53.29c.06.1,4.07-2.49,4.13-2.38s-4.05,4-4,4.09,3.94-2.41,4-2.31-4.06,3.25-4,3.36,3.94-2.41,4-2.31-3.87,3.23-3.8,3.34,3.76-2.3,3.81-2.2-3.25,2.87-3.2,3,3.16-1.93,3.21-1.85-2.07,2.13-2,2.19,1.63-1,1.65-1" transform="translate(0 0)"/>        <path class="c" d="M144.62,49.69c.07.11,4.5-2.75,4.57-2.64s-1.34,2.29-1.3,2.34,3.37-2.06,3.42-2-1.46,1.77-1.43,1.82,2.22-1.36,2.26-1.3-1.64,1.84-1.61,1.89,2.29-1.4,2.32-1.34-2.62,2.81-2.57,2.89,3.37-2.06,3.42-2-6.54,5-6.44,5.19,6.87-4.2,7-4-6.34,4.53-6.25,4.7,6.19-3.79,6.28-3.63-5,4.1-4.93,4.25,4.47-2.73,4.54-2.62-3.51,3-3.46,3.11,2.9-1.77,2.95-1.7" transform="translate(0 0)"/>        <path class="c" d="M129.91,55.64c0,.06,2.17-1.33,2.2-1.27s-1.87,2.39-1.83,2.45c.24.41,16.28-10,16.52-9.54s-15.9,9.57-15.67,10,12.48-7.63,12.66-7.31-11.09,7.28-10.92,7.57c0,.07,2.85-1.74,2.89-1.67" transform="translate(0 0)"/>        <path class="c" d="M130.67,45.08s1.63-1,1.66-1-2.53,2.56-2.48,2.63,4.71-2.88,4.77-2.76-5.22,4.59-5.13,4.75,4.91-3,5-2.88-4.25,3.81-4.18,3.93,3.48-2.12,3.53-2-2.48,2.38-2.44,2.46,2.64-1.61,2.68-1.55-.7,1.8-.68,1.84,3.7-2.26,3.75-2.17S135.44,51,135.48,51s8-4.9,8.14-4.7-8,5.31-7.87,5.52,7.87-4.81,8-4.61" transform="translate(0 0)"/>        <path class="c" d="M144.58,44.35c.11.2,7.82-4.78,7.94-4.58s-5.86,4.18-5.77,4.34,5.64-3.44,5.72-3.3-2.55,2.81-2.5,2.9,1.7-1,1.72-1" transform="translate(0 0)"/>        <path class="c" d="M144.6,39.47c.1.18,7.15-4.37,7.25-4.19s-3.8,3.77-3.73,3.89,2.92-1.78,3-1.71-3.19,3.36-3.13,3.46,4-2.46,4.09-2.36" transform="translate(0 0)"/>        <path class="c" d="M143.76,31.23s1.47-.9,1.49-.86-2.72,3-2.67,3.08,4-2.42,4-2.32-4,3.72-3.89,3.83,5.2-3.18,5.27-3-4.29,3.29-4.22,3.41,6.3-3.85,6.39-3.69" transform="translate(0 0)"/>        <path class="c" d="M146,34.31c.07.12,4.69-2.87,4.76-2.75s-2,2.39-1.95,2.46,4.39-2.68,4.45-2.57-4.77,4.1-4.69,4.23,5.41-3.31,5.49-3.17" transform="translate(0 0)"/>        <path class="c" d="M129.42,39.49s1-.63,1.05-.61-.77,1.53-.74,1.57,3.16-1.93,3.2-1.85-1.82,2.42-1.78,2.49S137.88,37,138,37.16s-3.62,3.47-3.56,3.58,4.87-3,4.94-2.85-1.55,2.36-1.51,2.42,4.77-2.91,4.84-2.79-3.21,2.66-3.16,2.75,5.09-3.11,5.16-3-5.06,3.73-5,3.87,7-4.3,7.14-4.12S135,45.21,135.16,45.53s8.15-5,8.27-4.77-4.88,4.2-4.8,4.34,4.78-2.92,4.85-2.8-3.84,3.41-3.78,3.52,5.79-3.54,5.87-3.39-6,4.38-5.87,4.55,3.93-2.4,4-2.3" transform="translate(0 0)"/>        <path class="c" d="M137.95,34c0,.06,2.17-1.33,2.2-1.27" transform="translate(0 0)"/>        <path class="c" d="M133,33.62c0,.07,2.75-1.68,2.8-1.61s-2.29,2.89-2.25,3,5.56-3.4,5.64-3.26-5.32,4.2-5.23,4.35,6-3.69,6.13-3.54-5.87,4.34-5.78,4.5,2.92-1.79,3-1.71-2.72,2.63-2.67,2.72,3-1.83,3-1.75" transform="translate(0 0)"/>        <path class="c" d="M130.54,31.23s1.55-.95,1.58-.91-3.08,3.13-3,3.22,4.37-2.67,4.44-2.56-5.2,4.08-5.12,4.22,5.14-3.14,5.21-3-4.8,3.58-4.73,3.71,3.53-2.15,3.58-2.07" transform="translate(0 0)"/>        <g>          <path class="c" d="M135.72,46s1.91-1.17,1.94-1.12,1.46.87,1.49.91.81-.5.82-.48-.84,1.47-.82,1.51.93-.57.94-.54" transform="translate(0 0)"/>          <path class="c" d="M134.08,45.82s1.17-.72,1.19-.69-1.89,2.57-1.85,2.64,1.1-.67,1.11-.64-1.12,1.56-1.09,1.61,1-.6,1-.58,1.65.66,1.67.7,1.93-1.18,2-1.13l.47.85s1.47-.9,1.49-.86" transform="translate(0 0)"/>          <path class="c" d="M144.67,40s1.95-1.19,2-1.14,1,.76,1,.79.87-.53.89-.51-1.24,2.17-1.21,2.22,1-.63,1.05-.61" transform="translate(0 0)"/>          <path class="c" d="M143.19,39.8s1.17-.72,1.19-.69S143,41,143,41.06s.88-.54.89-.52-.69,2.1-.66,2.15,1-.58,1-.56.94.72,1,.75,3.05-1.86,3.1-1.79" transform="translate(0 0)"/>          <path class="c" d="M138.16,34.56c0,.06,2.48-1.51,2.51-1.45" transform="translate(0 0)"/>          <path class="c" d="M132.35,30.68s1.07-.66,1.09-.63-.3,1.83-.28,1.87,1-.59,1-.56L135,32.5c0,.05,2-1.21,2-1.16s.1.86.11.87,1.75-1.07,1.78-1l.47,1.07s.8-.49.81-.47-.42,1.18-.41,1.21.84-.51.85-.49" transform="translate(0 0)"/>          <path class="c" d="M136.71,34.35s1.2-.73,1.22-.7-.93,2-.9,2,.77-.47.78-.45-.32,1.71-.3,1.75.77-.47.78-.45,0,1.64,0,1.67,1.49-.91,1.51-.87,1.56.67,1.58.71,1.9-1.16,1.93-1.11l.48.84s1.9-1.16,1.93-1.12,1.26.72,1.28.75,1.66-1,1.68-1" transform="translate(0 0)"/>          <path class="c" d="M146.18,34.79c0,.05,2-1.23,2-1.18s0,1.26,0,1.29,1-.64,1.06-.61" transform="translate(0 0)"/>          <path class="c" d="M144.57,34.67s1.25-.76,1.27-.73" transform="translate(0 0)"/>          <path class="c" d="M143.44,30.84s1.62-1,1.64-.95-2.58,2.31-2.53,2.39,1.66-1,1.68-1-2.52,2.73-2.48,2.81,1.25-.76,1.26-.73-1,1.64-.95,1.68.75-.46.76-.44l.63,1.19c.05.09,3.48-2.12,3.53-2s-3,2.57-3,2.66.87-.53.89-.51" transform="translate(0 0)"/>          <path class="c" d="M145.25,30.79s1.2-.73,1.22-.7-.34,1.79-.32,1.83,1-.6,1-.57l.56,1s2-1.2,2-1.15.12.85.13.87,2-1.2,2-1.15,1.42,1,1.44,1,.8-.49.82-.47-1.77,2-1.74,2.07,2.14-1.31,2.17-1.25-3.47,3.68-3.41,3.79,1.26-.77,1.28-.74-1.6,2.38-1.56,2.44.74-.45.75-.43-.08,1.19-.07,1.22.76-.46.77-.45-.26,1.31-.25,1.34.75-.46.76-.44-.8,2-.77,2,.94-.57,1-.55-1.56,1.9-1.53,2,1.3-.79,1.32-.76" transform="translate(0 0)"/>          <path class="c" d="M144.62,44.89c0,.05,2-1.21,2-1.16s1.16.74,1.18.77,1.94-1.19,2-1.14l.41.77s1.7-1,1.73-1" transform="translate(0 0)"/>          <path class="c" d="M143.28,44.61s1.07-.65,1.09-.63-1.18,1.87-1.15,1.92.9-.55.91-.53-.9,1.65-.87,1.69.91-.56.92-.53.18,1.36.19,1.4,1.82-1.11,1.85-1.07,1.3.68,1.32.72,1.75-1.07,1.77-1,.27.86.29.88,1.18-.72,1.19-.69l.62,1.18s.84-.51.85-.49,0,1.07,0,1.09.8-.49.81-.47.24,1.52.26,1.56.75-.46.76-.44-.33,1.37-.31,1.4.76-.46.77-.44-.85,2.07-.82,2.12,1-.59,1-.56-1.35,1.67-1.32,1.71,1.1-.67,1.11-.64-2,2.57-1.93,2.65,1.26-.77,1.28-.74" transform="translate(0 0)"/>          <path class="c" d="M144.66,50.23s1.86-1.14,1.89-1.09.32.85.33.87,1.8-1.1,1.83-1.05l.52.82s1.3-.79,1.32-.76-.69,1.67-.67,1.71,1-.59,1-.56-4.19,4-4.12,4.14,3.59-2.2,3.65-2.11-3.13,3.18-3.08,3.27.88-.54.89-.51.39,1.13.4,1.15.93-.57.94-.54l.88,1.32s1.37-.84,1.39-.8" transform="translate(0 0)"/>          <path class="c" d="M143.4,50s1.12-.68,1.14-.66-1.3,2.46-1.26,2.52.9-.55.91-.52-.92,1.54-.9,1.57.89-.54.9-.52-.92,1.62-.89,1.66.88-.54.89-.52-.91,1.59-.88,1.63.87-.53.89-.51-.91,1.5-.89,1.54.88-.54.89-.52" transform="translate(0 0)"/>          <path class="c" d="M139.17,54.13s.87-.53.88-.51-.91,2.05-.88,2.1.87-.53.88-.51-.84,1.43-.82,1.46.81-.5.82-.47-.59,1.26-.57,1.29.74-.45.75-.43.14,1.29.15,1.32,1-.61,1-.58l.6.84s1.59-1,1.61-.93" transform="translate(0 0)"/>          <path class="c" d="M137.69,53.92s1.8-1.1,1.83-1.06" transform="translate(0 0)"/>          <path class="c" d="M132.3,54.69c.05.09,3.69-2.26,3.75-2.16" transform="translate(0 0)"/>          <path class="c" d="M129.52,55.29c0,.06,2.4-1.46,2.43-1.4s-2.6,2.4-2.56,2.48.86-.53.87-.5.13,1.59.16,1.63.93-.57.94-.55.42,1.06.44,1.08c.12.2,8.07-4.93,8.19-4.73" transform="translate(0 0)"/>          <path class="c" d="M130.33,44.71s1.78-1.09,1.8-1-3,3.34-3,3.44,1.19-.73,1.21-.7S129,48.79,129,48.85s.77-.47.78-.45-.35,1.32-.33,1.35.74-.45.75-.44l.58,1.28s1.09-.66,1.1-.64l.67,1s1.44-.88,1.46-.84.86.9.88.92.74-.45.75-.43-.41,1.31-.39,1.34.77-.47.78-.45" transform="translate(0 0)"/>          <path class="c" d="M132.48,44.48s1.59-1,1.62-.93,1.33.72,1.35.75S137.59,43,137.62,43s1,.7,1.06.73S139.94,43,140,43" transform="translate(0 0)"/>          <path class="c" d="M129,39.12s1.22-.75,1.24-.72-1.24,2-1.21,2,.76-.46.77-.44.28,1.32.29,1.35,1.08-.66,1.1-.63,1.73.66,1.75.7,1.91-1.17,1.94-1.12.9.71.91.74,1.86-1.14,1.88-1.09,1.26.63,1.28.66.84-.51.85-.49-.69,1.49-.67,1.52.9-.55.91-.53" transform="translate(0 0)"/>          <path class="c" d="M130.54,39.26c0,.05,2-1.21,2-1.16L133,39c0,.05,2-1.21,2-1.16" transform="translate(0 0)"/>          <path class="c" d="M132.87,34.5s.76-.47.77-.45-.5,1.2-.49,1.23.76-.47.77-.45-.37,1.56-.35,1.6.76-.47.77-.45-.38,1.52-.36,1.56.76-.47.77-.45" transform="translate(0 0)"/>          <path class="c" d="M132.16,33.63s.81-.49.82-.47" transform="translate(0 0)"/>          <path class="c" d="M130.24,30.83s1.69-1,1.72-1-3.28,3.24-3.22,3.34,1.54-.94,1.56-.9-2.45,2.57-2.4,2.65,1.21-.74,1.23-.71-1,1.53-1,1.57.74-.45.75-.43.35,1.23.37,1.26,3.34-2,3.38-2" transform="translate(0 0)"/>        </g>      </g>      <g>        <path class="c" d="M214.72,52c.06.1,4-2.46,4.08-2.35s-2,2.4-2,2.47,3.07-1.87,3.11-1.8-3.24,3.41-3.18,3.51,3.48-2.13,3.53-2" transform="translate(0 0)"/>        <path class="c" d="M211,50.52s1.46-.89,1.48-.85-2,2.19-2,2.25,4.45-2.72,4.51-2.6-4.49,4-4.42,4.16,7.35-4.49,7.46-4.31-7.51,5.26-7.39,5.46,2.84-1.74,2.89-1.67-2.86,2.77-2.81,2.85,2.74-1.68,2.78-1.61S211,56.91,211,57s2.91-1.78,3-1.71-1.79,2.56-1.75,2.62,7.68-4.69,7.79-4.5-5.46,4.42-5.37,4.57,5.06-3.09,5.13-3-3.42,2.81-3.36,2.91,3.1-1.9,3.15-1.82" transform="translate(0 0)"/>        <path class="c" d="M211.52,41.45s1.31-.8,1.33-.77-1.31,1.62-1.28,1.67,3.79-2.32,3.84-2.22-2.72,3-2.67,3.08,5.68-3.47,5.76-3.33-3.7,3-3.64,3.11,4.31-2.64,4.38-2.53-4.55,4-4.48,4.1,4.64-2.83,4.7-2.72-6.05,5.07-6,5.24,2.89-1.76,2.93-1.69-2,2.53-2,2.6,3.07-1.88,3.11-1.8-1.92,2.28-1.88,2.35,2.53-1.55,2.57-1.48" transform="translate(0 0)"/>        <path class="c" d="M227.68,50.66c.09.15,5.88-3.59,6-3.44s-2.53,3-2.48,3.08,4.22-2.58,4.29-2.47-2.39,2.75-2.34,2.83,3.42-2.09,3.47-2-3.84,3.81-3.77,3.92,4.48-2.74,4.54-2.62-4.87,3.89-4.79,4,4.77-2.92,4.84-2.8" transform="translate(0 0)"/>        <path class="c" d="M222.9,48.94s1.44-.88,1.46-.84-2,2.5-1.92,2.56c.13.23,9.11-5.57,9.24-5.34s-9.32,6.46-9.18,6.71,9.07-5.54,9.2-5.31-9.27,6.59-9.13,6.84,4-2.42,4-2.32-4,3.34-4,3.45,3.88-2.37,3.94-2.27-3.88,3.86-3.81,4,3.76-2.3,3.82-2.2-3.46,3-3.41,3.14,4.06-2.48,4.12-2.38-2.4,3-2.35,3.11,5.92-3.62,6-3.47-3.65,3.26-3.59,3.37,9.77-6,9.92-5.73-6.89,5.41-6.78,5.6,6.43-3.93,6.53-3.77-4.16,3.55-4.09,3.67,3.84-2.35,3.9-2.25-2,2-2,2.11,1.44-.88,1.47-.85" transform="translate(0 0)"/>        <path class="c" d="M232.67,43.36c.07.11,4.44-2.71,4.5-2.6s-1.89,2.26-1.85,2.33,1.88-1.15,1.9-1.1" transform="translate(0 0)"/>        <path class="c" d="M221,42.07s1.26-.77,1.28-.74-1.28,1.74-1.25,1.78,3.77-2.3,3.82-2.21-3.05,2.92-3,3c.14.25,9.69-5.92,9.83-5.68s-8.55,5.83-8.42,6.06,8.37-5.11,8.49-4.9-5,4.43-4.95,4.58,8-4.86,8.07-4.66-7.73,5.94-7.61,6.15,9.29-5.67,9.42-5.44-9.64,7-9.49,7.25,4.37-2.67,4.44-2.56" transform="translate(0 0)"/>        <path class="c" d="M232.88,34.66c0,.07,2.59-1.58,2.63-1.52" transform="translate(0 0)"/>        <path class="c" d="M210.32,35.45s1.2-.74,1.22-.71-.91,2.05-.88,2.1,6.7-4.1,6.8-3.93-5.72,4.25-5.63,4.4,6.29-3.85,6.39-3.69-2.77,3.23-2.71,3.33,5.27-3.22,5.34-3.09-2.45,2.67-2.4,2.75,6.43-3.93,6.53-3.77-3.33,3.51-3.27,3.62,8.8-5.38,8.93-5.16S224.7,36,224.8,36.21s8.75-5.35,8.88-5.13-6.27,5.21-6.16,5.39,7.43-4.54,7.54-4.35-7.69,5.59-7.57,5.8,4.2-2.57,4.26-2.46-4.37,4.08-4.3,4.21,4.22-2.58,4.28-2.47" transform="translate(0 0)"/>        <path class="c" d="M214,31s1.27-.78,1.29-.74-1.64,2.26-1.6,2.32,3-1.86,3.08-1.78-3.2,2.81-3.14,2.9,3.59-2.19,3.64-2.1" transform="translate(0 0)"/>        <g>          <path class="c" d="M227.78,51.15s1.84-1.13,1.87-1.08,1.14.74,1.15.77,1.82-1.11,1.84-1.06-.21,1.47-.19,1.51,1-.63,1-.6-1.27,2-1.24,2.06,1-.61,1-.58" transform="translate(0 0)"/>          <path class="c" d="M226.33,51s1.13-.69,1.15-.66-1.33,1.93-1.3,2,.88-.54.89-.51-.92,1.8-.89,1.84.9-.55.92-.53-.83,1.59-.8,1.63.81-.5.83-.48.07,1.09.09,1.11,1.76-1.07,1.78-1,1.26.7,1.28.73,2.75-1.68,2.79-1.61" transform="translate(0 0)"/>          <path class="c" d="M214.84,52.46s1.81-1.1,1.83-1.06-.42,1.24-.4,1.27.94-.58,1-.55-1,1.81-1,1.85.93-.57.94-.54" transform="translate(0 0)"/>          <path class="c" d="M213.32,52.31s1.19-.73,1.21-.7-1.44,2.51-1.4,2.58.92-.56.93-.54-.75,1.58-.73,1.62.86-.52.87-.5,1.63.65,1.65.69,1.08-.66,1.09-.63" transform="translate(0 0)"/>          <path class="c" d="M213.09,41c0,.06,2.47-1.51,2.5-1.45s1.81.47,1.83.51,1.17-.72,1.19-.69.05,1.07.07,1.1.8-.49.81-.47-.55,1.81-.53,1.85,1-.62,1-.6-3.18,2.8-3.13,2.89,2.65-1.62,2.69-1.55-3.54,2.88-3.48,3,1.6-1,1.63-.94-.3,1.83-.27,1.87.8-.49.81-.47-.34,1.27-.32,1.3.81-.49.82-.47S217.51,49,217.54,49s1-.6,1-.58.06,1.48.08,1.51.87-.53.89-.51.6,1.4.62,1.43.87-.53.88-.51-1.34,2.47-1.3,2.53,1-.59,1-.56-1.21,1.93-1.18,2,1-.59,1-.56-1.27,2.14-1.24,2.2,1-.6,1-.58" transform="translate(0 0)"/>          <path class="c" d="M210.56,50.17s1.68-1,1.7-1-2.3,2.6-2.25,2.68,1-.59,1-.57-1,1.57-.93,1.61.84-.51.85-.49-.8,1.76-.78,1.81.84-.51.85-.49-.8,1.78-.77,1.82.84-.51.85-.49-.67,1.75-.64,1.8.78-.48.79-.46,0,1.55,0,1.58.83-.51.85-.49,1.36,1,1.38,1,1.59-1,1.61-.93l.64.86s1.59-1,1.61-.93l.65.73s1.51-.92,1.53-.88" transform="translate(0 0)"/>          <path class="c" d="M212.59,50c0,.05,2-1.21,2-1.16l.66.8s1.43-.87,1.45-.83" transform="translate(0 0)"/>          <path class="c" d="M211.15,41.05s1.4-.85,1.42-.82-1.62,1.85-1.59,1.9.85-.52.86-.5-.49,1.19-.47,1.21.75-.46.77-.44-.09,1-.07,1,1-.59,1-.57.26.84.27.86,2.18-1.33,2.21-1.28-1.7,2.3-1.66,2.36,2.45-1.5,2.48-1.43-3.45,3.13-3.4,3.24,1-.63,1-.6-.69,1.75-.67,1.79.79-.49.81-.47l.7,1.35s.93-.57.94-.54" transform="translate(0 0)"/>          <path class="c" d="M233,35.16c0,.07,2.95-1.8,3-1.73" transform="translate(0 0)"/>          <path class="c" d="M215.62,30.63s1-.59,1-.56.23,1.34.25,1.37.75-.46.76-.44-.56,2-.53,2,.88-.54.9-.52S218,34,218,34s2-1.21,2-1.16.49,1.26.51,1.29,2.06-1.26,2.09-1.21,1.47.48,1.49.51,2.89-1.77,2.93-1.69.22.83.23.85,3-1.81,3-1.74.2.84.21.86,2.32-1.42,2.35-1.36l.6,1s.94-.57.95-.55,0,1.13,0,1.16.77-.47.79-.45-.2,1.17-.19,1.19.73-.45.74-.43" transform="translate(0 0)"/>          <path class="c" d="M231.5,35s1.31-.8,1.32-.76-1.51,2.11-1.47,2.17.88-.54.9-.52-.94,2.15-.91,2.2.91-.56.93-.54-.86,1.81-.83,1.85.83-.51.84-.49S232,40,232,40.06s1.94-1.19,2-1.14,1.68.8,1.7.84.9-.55.92-.53.21,1.59.23,1.63.75-.46.76-.44S236.8,42,236.82,42s1-.59,1-.57" transform="translate(0 0)"/>          <path class="c" d="M232.72,43.9s1.93-1.18,2-1.13l.47.85c0,.06,2.5-1.53,2.53-1.46" transform="translate(0 0)"/>          <path class="c" d="M231.43,43.65s1.14-.7,1.15-.67-1.32,1.62-1.29,1.67.92-.56.93-.54-1,2-.93,2.08.92-.56.94-.54-.76,1.4-.74,1.43.78-.48.79-.46,1,.91,1,.94,1.2-.73,1.22-.7l.85,1.32s.88-.54.89-.51.18,1.32.2,1.35.77-.47.78-.45-.28,1.38-.26,1.41.74-.45.75-.43-.78,2.08-.75,2.13.94-.57,1-.55-1.24,2.3-1.21,2.35,1-.58,1-.56-1.18,1.84-1.15,1.89,1-.58,1-.56-1.33,1.87-1.3,1.92,1.1-.67,1.12-.65" transform="translate(0 0)"/>          <path class="c" d="M222.48,48.59s1.65-1,1.68-1-2.27,2.86-2.22,2.94.9-.55.91-.53S222,52,222,52s.85-.52.87-.5-.81,2.15-.78,2.2.85-.52.86-.5-.8,2.19-.77,2.24.85-.52.86-.5-.73,1.7-.71,1.74.77-.47.78-.45-.28,1.44-.26,1.47.79-.48.8-.46,0,1,0,1.06,1.06-.65,1.08-.62,1.11.81,1.13.84,1.62-1,1.64-.95l.6.86s1.62-1,1.64-.95l.71.85s1.62-1,1.64-.95l.61.86s1.62-1,1.64-.95.76.7.78.72,1.43-.87,1.45-.84" transform="translate(0 0)"/>          <path class="c" d="M224.48,48.46c0,.05,2-1.23,2-1.18" transform="translate(0 0)"/>          <path class="c" d="M220.67,41.66s1.35-.83,1.37-.79S220.47,43,220.51,43s.83-.51.84-.48-.2,1.42-.18,1.45.77-.47.78-.45.36,1.14.38,1.17,1.33-.82,1.35-.78,1.23.69,1.24.72,1.79-1.1,1.82-1.05,0,1.27,0,1.3.89-.55.9-.52-.95,1.52-.92,1.56.94-.58,1-.55-1,1.61-1,1.65.94-.58,1-.55" transform="translate(0 0)"/>          <path class="c" d="M222.42,41.71c0,.05,2.16-1.32,2.19-1.27l.39.84c0,.07,2.79-1.71,2.83-1.63" transform="translate(0 0)"/>          <path class="c" d="M211.69,35.11c0,.06,2.32-1.42,2.35-1.36" transform="translate(0 0)"/>          <path class="c" d="M209.92,35.07s1.36-.83,1.38-.8-1.39,2.32-1.36,2.38.75-.46.76-.44-.1,1.17-.08,1.2.93-.57.95-.55,1.53.82,1.55.86,1.88-1.15,1.91-1.1,1,.74,1,.77,1.88-1.15,1.91-1.1,1.8.64,1.82.68,1.75-1.07,1.78-1l.53,1.2c0,.05,2.1-1.28,2.13-1.23s2.42.36,2.45.41,1-.61,1-.58-.76,1.81-.74,1.85.93-.57.94-.54-1,2.22-.95,2.28.89-.55.91-.52" transform="translate(0 0)"/>          <path class="c" d="M213.7,30.68s1.54-.94,1.56-.9-2.07,2.5-2,2.57.91-.56.92-.53-1,1.61-1,1.65.9-.55.91-.53" transform="translate(0 0)"/>        </g>      </g>      <g>        <path class="d" d="M177.68,26.44c.18.32,12.61-7.71,12.8-7.39s-10.27,7.61-10.11,7.89,11.84-7.24,12-6.94-10.3,7.23-10.14,7.5,11.42-7,11.59-6.69-10.26,7-10.11,7.32,11.1-6.79,11.27-6.5-9.37,7.61-9.21,7.87,10.95-6.69,11.11-6.41-9.9,7.49-9.74,7.76S198,24.16,198.2,24.44s-10.39,7.23-10.23,7.5,11-6.74,11.19-6.46S189,33.7,189.16,34s11.23-6.86,11.39-6.58-11,8-10.81,8.27,11.49-7,11.66-6.73-11.49,7.72-11.32,8S201.81,29.8,202,30.1s-11.88,8.27-11.7,8.59,12.11-7.4,12.29-7.09-12.49,8.87-12.3,9.2,12.65-7.73,12.83-7.41-13.72,10.09-13.51,10.46,13.76-8.41,14-8.06-15.73,10.07-15.5,10.47,15.4-9.41,15.62-9" transform="translate(0 0)"/>        <path class="d" d="M175.72,2.6c0,.07,2.61-1.6,2.65-1.53s-5.21,4.58-5.12,4.73S181,1.06,181.1,1.26s-10,7-9.84,7.23,11.49-7,11.66-6.73S168.33,12.2,168.55,12.59s17.08-10.44,17.33-10S166.94,14.51,167.22,15,187.48,2.62,187.77,3.13s-22.06,13.45-21.73,14S188.45,3.45,188.78,4,164,20.16,164.39,20.8,187.14,6.89,187.48,7.47s-24.66,15.82-24.29,16.45,20.8-12.71,21.1-12.18-22.12,13.77-21.8,14.33,19.63-12,19.92-11.5-20.89,13.5-20.58,14,18.24-11.15,18.51-10.69S161.1,30.26,161.39,30.75s17-10.36,17.2-9.93S160.8,32.63,161.06,33.1s21-12.86,21.36-12.33-21.84,14-21.51,14.56c.41.72,28.23-17.25,28.65-16.54s-29.06,18.24-28.63,19c.21.37,14.65-9,14.86-8.58s-14.94,10.19-14.72,10.58,13.91-8.5,14.12-8.15-14,9.49-13.78,9.86,13.3-8.13,13.5-7.79S161.79,43.5,162,43.86s12.7-7.76,12.89-7.44-12.59,8.29-12.4,8.62,12.42-7.59,12.61-7.28-12,8.77-11.83,9.09,12.15-7.43,12.33-7.12-11.49,8.41-11.31,8.72,11.81-7.22,12-6.92-11.27,7.92-11.1,8.22,11.62-7.1,11.79-6.81-10.63,8-10.46,8.27,11.35-6.94,11.51-6.65-10.23,7.71-10.06,8,11.2-6.84,11.36-6.56-9.61,7.76-9.45,8,11.36-6.94,11.53-6.66-9.47,7.6-9.31,7.87,12.31-7.52,12.49-7.21-10.13,8-10,8.25c.42.72,28.52-17.43,28.94-16.71S176.44,56.28,176.84,57s26-15.86,26.34-15.2-24.36,15.05-24,15.67,23.1-14.12,23.44-13.53-20.75,13.28-20.44,13.81,19-11.62,19.29-11.14S185.76,57.29,186,57.7s13.25-8.1,13.45-7.76-9.84,7-9.69,7.22,6.55-4,6.65-3.84" transform="translate(0 0)"/>        <g>          <path class="d" d="M177.86,27s1.18-.72,1.2-.69,2.1,1.32,2.13,1.38,1-.6,1-.58l.92,1.3s.89-.54.9-.52l.81,1.53s.85-.52.86-.5.32,1.51.34,1.55.78-.47.79-.45.5,1.82.52,1.87.74-.46.76-.44.14,1.88.16,1.92.75-.46.76-.44-.07,2,0,2,.76-.46.77-.44-.16,2.6-.13,2.66.81-.5.82-.48-.7,1.8-.67,1.84.81-.5.83-.48-.79,2.1-.76,2.15.91-.56.93-.54-1.28,2.64-1.24,2.7,1.05-.64,1.07-.62-2.72,3.83-2.66,3.93,1.63-1,1.66-1" transform="translate(0 0)"/>          <path class="d" d="M176.46,26.62s1-.63,1-.6-2.29,3.52-2.24,3.62,1.07-.66,1.09-.63-1.59,2.57-1.55,2.63,1-.59,1-.57-1.29,2.41-1.26,2.46.9-.55.91-.53-1,2.65-1,2.72.83-.51.84-.49-.74,1.86-.71,1.91.81-.5.82-.48-.54,2.05-.51,2.1.8-.49.81-.47-.38,1.88-.36,1.93.76-.46.77-.44,0,2.27,0,2.32.74-.45.75-.43.11,2,.13,2,.71-.44.72-.42.13,1.64.16,1.68.72-.44.73-.42.47,1.72.49,1.76.79-.48.8-.46.57,1.5.59,1.54.93-.57.94-.54l.63,1.26s1.17-.71,1.19-.69,1.95.88,2,.93,3.12-1.91,3.16-1.83" transform="translate(0 0)"/>          <path class="d" d="M178.7,1.37s1.4-.85,1.42-.82,1.4,1.18,1.42,1.23,1.06-.64,1.07-.62l.86,1.15s1.06-.64,1.07-.62l.66,1.1s1.06-.65,1.07-.62S188,3.65,188,3.7s.81-.49.82-.47-.47,2.34-.44,2.39,1.1-.68,1.12-.65-3.43,3.44-3.37,3.55,2.05-1.25,2.08-1.2-5.47,5.65-5.37,5.83,1.72-1,1.74-1-3.83,4.08-3.76,4.2,1.58-1,1.61-.93-3.06,3.12-3,3.22,1.56-1,1.58-.91-3.34,3.62-3.27,3.72,1.55-.95,1.58-.91S178.6,23,178.63,23s7.88-4.82,8-4.62,3.14.76,3.18.83,1-.63,1-.61l1,1.48s.89-.55.91-.52l.92,1.54s.84-.51.85-.49l1.06,1.89s.86-.53.87-.5.51,1.63.53,1.67.78-.48.79-.46.37,1.64.39,1.68.78-.48.79-.46.29,1.74.31,1.78.79-.48.8-.46.28,2,.31,2,.74-.45.75-.43-.16,1.53-.14,1.57.76-.47.77-.45-.21,1.52-.19,1.55.76-.46.77-.44-.14,2.08-.11,2.12.76-.46.77-.44-.24,2.27-.21,2.32.77-.47.78-.45-.47,2.07-.45,2.12.8-.49.81-.47-.64,2.39-.61,2.45.84-.52.86-.49-1.05,2.83-1,2.9.92-.56.93-.54-1.45,3.06-1.41,3.13,1.05-.64,1.07-.62-1.67,2.48-1.63,2.55,1.12-.68,1.13-.65-2.21,2.95-2.17,3,1.26-.77,1.27-.74-3.69,4.28-3.62,4.41,1.77-1.08,1.8-1-5.38,4.54-5.29,4.69,3-1.85,3.06-1.77" transform="translate(0 0)"/>          <path class="d" d="M175.45,2.18c0,.07,2.7-1.65,2.74-1.58s-5.36,4.66-5.27,4.81,2-1.21,2-1.16-4.07,3.74-4,3.86,1.81-1.11,1.84-1.06-4.62,5-4.54,5.15,1.67-1,1.7-1-3.1,3.3-3,3.4,1.45-.88,1.47-.85-2.69,2.9-2.65,3,1.44-.88,1.46-.85S164,20.31,164,20.43s1.26-.77,1.28-.74-2.58,3.78-2.52,3.88,1.12-.68,1.14-.66-1.87,2.73-1.83,2.8,1.12-.68,1.13-.65-1.88,3.14-1.83,3.22,1-.61,1-.59-1.49,2.67-1.45,2.73,1-.61,1-.59-1.42,2.88-1.38,3,.91-.55.92-.53S160.39,35,160.43,35s.9-.55.92-.53-1,2.93-1,3,.83-.51.84-.49-.73,2.44-.7,2.49.83-.51.84-.49-.59,2.17-.56,2.22.79-.48.8-.46-.28,2.8-.25,2.86.78-.48.8-.46-.34,1.61-.32,1.64.76-.46.77-.44,0,2.23,0,2.28.76-.46.77-.44.18,2,.21,2.07.75-.46.76-.44.05,1.73.08,1.77.75-.46.76-.44.52,1.88.54,1.92.77-.47.78-.45.54,1.81.57,1.85.81-.49.82-.47l1.07,2s.81-.49.82-.47L171,55.26s.88-.54.89-.52,1.43,1.6,1.46,1.65,1-.6,1-.58,1.11,1.3,1.13,1.33,1-.63,1-.61,1.17,1.09,1.19,1.13,1.14-.7,1.16-.67,1.54,1.07,1.56,1.11,1.36-.83,1.38-.79,2.05.94,2.08,1,1.65-1,1.68-1,1.41.76,1.43.8,2.18-1.33,2.21-1.28,1.93.33,2,.38,4.34-2.65,4.4-2.54" transform="translate(0 0)"/>        </g>      </g>    </g>  </g></svg>