<svg xmlns="http://www.w3.org/2000/svg" width="361.18" height="151.72" viewBox="0 0 361.18 151.72">  <defs>    <style>      .a {        fill: #8d3a49;      }      .b, .c, .d {        fill: none;      }      .b {        stroke: #9f5b67;        stroke-miterlimit: 10;        stroke-width: 0.1px;      }      .c, .d {        stroke: #e9528e;        stroke-linecap: round;        stroke-linejoin: round;      }      .c {        stroke-width: 0.8px;      }      .d {        stroke-width: 1.1px;      }    </style>  </defs>  <title>アセット 1</title>  <g>    <g>      <g>        <path class="a" d="M1.56,148.77c1.12,0,3,.05,4.86.06C5,148.79,3.53,148.77,1.56,148.77Z"/>        <path class="a" d="M6.45,148.83h0Z"/>        <path class="a" d="M359.83,146.67h0Z"/>        <path class="a" d="M94.67,149l.28-.08c4.32,0,1.26.09,5.25.07,1.56-.11,6.64,0,8,0,0,0,1.92,0,1.8,0,.6-.06,2,0,3.25,0,.45,0-.33,0-.66,0l2.83,0c1.1,0,1.38.06.18.06,7.39,0,42.84.08,50.8.05-1,0-3.48,0-4.41-.09,2.1,0,3.1,0,4,0,.81.11,4.62,0,6.22.14l.6-.06,1,0c9.25-.06,2.11,0,10.31,0,4.75,0,7-.09,9.64-.06-.39,0-1.44,0-.21-.05.21.05,3.27,0,3.87,0,1.2,0,5.11,0,3.79-.07.66,0,4.14.05,2.07.08,1.17,0,2.31,0,3.16,0l-1.51,0c4,0,6.13,0,8.71,0l-1.47,0c2.37,0,4.35,0,5.29.06l-2.43,0c3.93,0,6.3,0,9.58,0h-1.17c4.18-.07,26-.13,29.87-.22l-1.77-.06,3.31,0c-.39,0-1.6.18-1.92.17,7.09,0,44,0,50.52,0,2.64,0,.48.09.45.1,3.21,0,1.39-.06,4.12-.06.75,0-.15,0-.57.05,1.2,0,2.31,0,2.4,0a6,6,0,0,1-1.5-.14h3.52l-.16,0c.78,0,2-.12,5.44-.1,5.83,0,12.16,0,18,0-.09,0-1.32,0-2.55.06.79,0,2,0,2.71,0-1.42,0,2.46,0,1.35-.05,4.29-.11,9.84,0,13.63-.08.33-.1,8.11-1.68,8.11-1.79h2.71c-.3,0-2.62,0-3.84,0l-.21.06c-2.83,0-.66,0-3.42,0-.15-.05,2.39-.06,4.63-.07-2,0-4,0-4.84,0-1.89,0,.21-.06-2.07-.08-1.62,0-3.76.06-5.62,0h0c-4.53-.05-6.94.08-11.08,0l.45,0c-1.46,0-4.35,0-7,0,.75,0,1.41,0-.18.05-3,0-5.11,0-7.33,0l-2.13,0c-10.58,0-52.35.06-63,.07H256c-16.19,0-49.42,0-66.15.09-2.59,0-6.16,0-8.86-.05,1.5,0,1,.06-.19.05-8.23,0-.55,0-8.87.05-9.58,0-46.23,0-54.74,0-4.57.07-10.27,0-14.74.06l.45,0c-4.81,0-32,0-37.59,0h.75c-4.87,0-4.21,0-8-.06.5.08-3.67.13-5.26.13l.06,0c-2.4,0-7.84.08-11.8.09l.15,0c-3.31,0-9.52,0-11.9,0-5.43,0-13.81-.1-21.08,0l-4.69-.13H2.83s-7.56,1.53,2,1.85l-.15,0h1.9c2.28,0,3.33,0,3.17,0H6.67c2.29,0,.69,0-.18.06l2.64,0c.45,0-.33,0-.69,0,1.23,0,2.94-.06,4.44,0,2.34,0,.15.07,2.88.08,14.41,0,28.38.09,42.94.08.33,0-.06,0-.48,0l12.28,0c1.11,0,1.41,0,1.74.07C71.59,149,94.31,149,94.67,149Z"/>      </g>      <g>        <path class="a" d="M1.25,74.64c.85,0,2.32.05,3.71.06C3.89,74.66,2.75,74.63,1.25,74.64Z"/>        <path class="a" d="M5,74.7H5Z"/>        <path class="a" d="M274.49,72.54h0Z"/>        <path class="a" d="M72.26,74.84l.21-.08c3.3,0,1,.09,4,.07,1.19-.11,5.06,0,6.11,0,0,0,1.47,0,1.37,0,.46-.06,1.53,0,2.48,0,.34,0-.25,0-.51,0l2.16,0c.84,0,1.05.06.13.06,5.63,0,32.68.08,38.74.05-.78,0-2.65,0-3.36-.09,1.6,0,2.36,0,3.07,0,.62.11,3.53,0,4.74.14l.46-.06.8,0c7.06-.06,1.61,0,7.87,0,3.62,0,5.34-.09,7.35-.06-.3,0-1.1,0-.16-.05.16.05,2.5,0,3,0,.92,0,3.89,0,2.89-.07.51,0,3.16.05,1.58.08.9,0,1.76,0,2.41,0l-1.15,0c3,0,4.67,0,6.64,0l-1.12,0c1.81,0,3.32,0,4,.06l-1.86,0c3,0,4.81,0,7.31,0h-.89c3.18-.07,19.84-.13,22.78-.22L192,74.43l2.52,0c-.3,0-1.22.18-1.47.17,5.41,0,33.53,0,38.53,0,2,0,.36.09.34.1,2.45,0,1.06-.06,3.14-.06.57,0-.12,0-.44.05.91,0,1.76,0,1.83,0a3.54,3.54,0,0,1-1.14-.14H238l-.12,0c.6,0,1.52-.12,4.15-.1,4.44,0,9.27,0,13.74,0-.07,0-1,0-1.95.06.6,0,1.51,0,2.06,0-1.08,0,1.88,0,1-.05,3.27-.11,7.51,0,10.4-.08.25-.1,6.19-1.68,6.19-1.79h2.06c-.23,0-2,0-2.93,0l-.16.06c-2.16,0-.5,0-2.61,0-.11-.05,1.82-.06,3.53-.07-1.54,0-3.07,0-3.69,0-1.44,0,.16-.06-1.58-.08-1.24,0-2.87.06-4.29,0h0c-3.46-.05-5.29.08-8.45,0l.34,0c-1.12,0-3.32,0-5.33,0,.57,0,1.07,0-.14.05-2.32,0-3.9,0-5.59,0l-1.63,0c-8.07,0-39.93.06-48,.07h.32c-12.35,0-37.69,0-50.45.09-2,0-4.7,0-6.75-.05,1.15,0,.75.06-.14.05-6.27,0-.42,0-6.77.05-7.31,0-35.26,0-41.75,0-3.48.07-7.83,0-11.24.06l.34,0c-3.67,0-24.41,0-28.67,0h.57c-3.71,0-3.21,0-6.14-.06a38.29,38.29,0,0,1-4,.13l0,0c-1.83,0-6,.08-9,.09l.12,0c-2.52,0-7.26,0-9.07,0-4.14,0-10.53-.1-16.08,0l-3.58-.13H2.22s-5.76,1.53,1.55,1.85l-.12,0H5.1c1.74,0,2.54,0,2.42,0H5.14c1.74,0,.53,0-.14.06l2,0c.34,0-.25,0-.52,0,.94,0,2.24-.06,3.39,0,1.79,0,.11.07,2.2.08,11,0,21.64.09,32.75.08.25,0,0,0-.37,0l9.37,0c.85,0,1.08,0,1.33.07C54.66,74.83,72,74.83,72.26,74.84Z"/>      </g>      <path class="b" d="M271.11,74.76"/>      <g>        <path class="a" d="M288.44,74a1.07,1.07,0,0,0-.25-.3A.9.9,0,0,0,288.44,74Z"/>        <polygon class="a" points="288.19 73.67 288.19 73.67 288.19 73.67 288.19 73.67"/>        <path class="a" d="M265.6,56.52l.09.08Z"/>        <path class="a" d="M283,68.88l-.07,0c-.26-.23,0-.14-.27-.33-.17,0-.39-.36-.51-.39s-.11-.11-.08-.13-.13-.1-.21-.15,0,0,0,.06l-.18-.13c-.05-.07,0-.11,0-.06-.43-.41-2.51-2.34-3-2.74,0,.09.2.2.21.3-.15-.08-.18-.18-.26-.19s-.26-.26-.28-.43h-.08l0-.08a3,3,0,0,1-.63-.54,7.26,7.26,0,0,1-.62-.46s.06.11,0,.05-.22-.14-.22-.22-.31-.27-.28-.15c0-.06-.21-.26-.07-.17a1.12,1.12,0,0,0-.19-.17l.08.1c-.24-.2-.34-.36-.53-.45l.07.1c-.14-.12-.27-.22-.27-.33l.16.11a4.91,4.91,0,0,0-.6-.47l.07.06c-.3-.17-1.65-1.28-1.94-1.42l.07.14-.23-.14s.22-.05.23,0c-.43-.37-2.66-2.3-3-2.67-.14-.16,0-.09,0-.1-.21-.15-.12,0-.28-.18s0,0,.07,0-.13-.13-.15-.12,0,.11,0,.18l-.21-.19,0,0s-.2,0-.39-.22-.73-.65-1.07-1c0,0,.11,0,.19.09a.85.85,0,0,1-.15-.15c.05.11-.17-.11-.12,0-.33-.15-.6-.52-.87-.66-.08.06-1.6.82-1.67.91a1.26,1.26,0,0,1-.15-.15s.13.17.21.22l.05,0c.18.13,0,.06.18.21,0,0-.18-.08-.32-.2.12.11.21.25.3.25s-.05,0,.07.17a1.47,1.47,0,0,1,.36.27h0c.24.28.47.31.68.57h0c.07.1.27.22.4.39,0,0-.05-.11,0,0s.31.27.41.42l.16.08c.63.57,3.17,2.73,3.81,3.29l0,0c1,.84,3,2.61,4,3.45a4.73,4.73,0,0,0,.5.51c-.08-.09,0-.09,0,0,.49.44.06,0,.57.43s2.76,2.46,3.24,2.94c.32.19.63.53.92.74h0c.31.23,1.89,1.73,2.24,2l0,0c.32.23.23.25.44.47,0-.09.3.1.4.18h0c.15.12.52.35.77.56l0,0a7.49,7.49,0,0,1,.73.61A11.8,11.8,0,0,0,286.86,75l.2.34,0,0s1.47-.74,1.11-1.49l0,0-.12-.1c-.12-.14-.22-.15-.18-.18l.18.17c-.13-.13,0-.06.05,0a1.4,1.4,0,0,1-.14-.16s0,0,0,.06a1.13,1.13,0,0,1-.29-.21c-.14-.13,0-.06-.12-.21-.84-.79-1.64-1.57-2.52-2.34,0,0,0,0,0,0-.28-.22-.5-.43-.76-.63a.3.3,0,0,1-.06-.14C284.38,70.11,283,68.9,283,68.88Z"/>      </g>      <g>        <path class="a" d="M266.19,55a.56.56,0,0,0,0,.28A.47.47,0,0,0,266.19,55Z"/>        <polygon class="a" points="266.19 55.29 266.19 55.29 266.19 55.29 266.19 55.29"/>        <path class="a" d="M272.21,74.47l0-.08A.36.36,0,0,0,272.21,74.47Z"/>        <path class="a" d="M267,60.21h.08c0,.24-.08.09,0,.31.13.06.06.37.14.44s0,.11,0,.11,0,.11.07.17,0,0,0,0l.05.15c0,.07,0,.09-.06,0,.06.41.39,2.39.51,2.83,0-.07,0-.2,0-.26.06.11,0,.17.07.22s0,.26-.06.37l.07,0,0,.07a1.48,1.48,0,0,1,.13.57c.06.26.17.37.17.52,0,0,0-.09.05,0s.07.17,0,.22.06.28.11.2,0,.24-.06.13a.56.56,0,0,0,0,.17v-.09c.05.22,0,.35.12.48V66.7c0,.13.06.24,0,.31l0-.13a2.45,2.45,0,0,0,.15.52v-.07c.12.22.42,1.42.55,1.61l0-.11.08.17s-.2-.05-.18-.07c.08.39.53,2.43.57,2.8,0,.15-.08,0-.09,0,.06.17.07.07.1.22s0,0-.06,0,0,.13,0,.13.08-.07.12-.11l0,.2h0s.14.09.16.28.13.67.19,1c0,0-.06-.07-.08-.13a.44.44,0,0,1,0,.15c0-.09.06.13.06.07.15.22.12.54.23.74.1,0,1.73.12,1.85.1a.64.64,0,0,1,0,.15.33.33,0,0,0,0-.22h-.06c-.05-.15,0,0,0-.2s.09.12.12.24c0-.11,0-.23-.07-.27s.06,0,.06-.13a.74.74,0,0,1-.1-.3h0c0-.26-.15-.37-.15-.61l0,0c0-.09-.06-.24-.06-.39,0,0,0,.09-.05,0s-.06-.28,0-.41l-.07-.11c-.11-.59-.64-2.89-.76-3.48v0c-.2-.89-.57-2.74-.82-3.65a2.38,2.38,0,0,0,0-.5c0,.09,0,.07-.05,0-.09-.46,0,0-.15-.48s-.5-2.57-.56-3c-.12-.24-.13-.57-.22-.81l0,0c-.08-.26-.31-1.78-.4-2.09v0c-.1-.26,0-.24,0-.46-.07,0-.17-.18-.19-.27h0c0-.13-.17-.42-.22-.64h0a3.71,3.71,0,0,1-.16-.65A5.9,5.9,0,0,0,268,55l.07-.28,0,0s-1.58-.12-1.79.47h0l0,.1c0,.13.07.18,0,.18l0-.17c0,.13,0,0-.06,0a.71.71,0,0,1,0,.15s0,0,0,0a.58.58,0,0,1,.09.24c0,.13-.07,0,0,.17.13.81.23,1.59.4,2.4,0,0,0,0,0,0,.07.24.1.46.17.68a.2.2,0,0,1,0,.11A11.24,11.24,0,0,1,267,60.21Z"/>      </g>      <path class="b" d="M287.88,74.76"/>      <g>        <path class="a" d="M284.86,74.64a7.2,7.2,0,0,0,1,.06A6,6,0,0,0,284.86,74.64Z"/>        <path class="a" d="M285.9,74.7h0Z"/>        <path class="a" d="M360.89,72.54h0Z"/>        <path class="a" d="M304.62,74.84l.06-.08c.92,0,.27.09,1.11.07.33-.11,1.41,0,1.7,0,0,0,.41,0,.38,0a3,3,0,0,1,.69,0c.09,0-.07,0-.14,0l.6,0c.23,0,.29.06,0,.06,1.57,0,9.09.08,10.78.05-.22,0-.74,0-.94-.09.45,0,.66,0,.85,0,.17.11,1,0,1.32.14l.13-.06.22,0a20.72,20.72,0,0,1,2.19,0c1,0,1.49-.09,2-.06-.08,0-.31,0,0-.05,0,.05.69,0,.82,0s1.08,0,.8-.07c.14,0,.88.05.44.08.25,0,.49,0,.67,0l-.32,0c.84,0,1.3,0,1.85,0l-.31,0a4.29,4.29,0,0,1,1.12.06l-.52,0c.83,0,1.34,0,2,0H332c.89-.07,5.52-.13,6.34-.22l-.38-.06.7,0c-.08,0-.34.18-.41.17,1.5,0,9.33,0,10.72,0,.56,0,.1.09.09.1.68,0,.29-.06.87-.06.16,0,0,0-.12.05a2.94,2.94,0,0,0,.51,0c-.32,0-.18-.09-.32-.14h.75l0,0a5.56,5.56,0,0,1,1.15-.1c1.24,0,2.58,0,3.82,0a2.42,2.42,0,0,1-.54.06c.17,0,.42,0,.57,0-.3,0,.52,0,.29-.05.91-.11,2.09,0,2.89-.08.07-.1,1.72-1.68,1.72-1.79h.57a4.42,4.42,0,0,0-.82,0l0,.06c-.6,0-.14,0-.73,0a3.47,3.47,0,0,1,1-.07,5.27,5.27,0,0,0-1,0c-.4,0,0-.06-.44-.08a10.21,10.21,0,0,1-1.19,0h0c-1-.05-1.47.08-2.35,0l.09,0c-.31,0-.92,0-1.48,0,.16,0,.3,0,0,.05-.64,0-1.08,0-1.56,0l-.45,0c-2.24,0-11.11.06-13.36.07h.09c-3.44,0-10.49,0-14,.09-.55,0-1.31,0-1.88-.05.32,0,.21.06,0,.05-1.75,0-.12,0-1.88.05-2,0-9.81,0-11.62,0-1,.07-2.18,0-3.13.06l.1,0c-1,0-6.79,0-8,0h.16a12.54,12.54,0,0,1-1.71-.06c.11.08-.78.13-1.12.13v0c-.51,0-1.66.08-2.5.09l0,0c-.7,0-2,0-2.52,0-1.15,0-2.93-.1-4.47,0l-1-.13h-.15s-1.6,1.53.43,1.85l0,0h.4c.48,0,.71,0,.67,0h-.66c.49,0,.15,0,0,.06l.56,0c.1,0-.07,0-.15,0a7.76,7.76,0,0,1,.94,0c.5,0,0,.07.61.08,3.06,0,6,.09,9.11.08.07,0,0,0-.1,0l2.61,0a1.52,1.52,0,0,1,.37.07C299.72,74.83,304.54,74.83,304.62,74.84Z"/>      </g>      <g>        <path class="a" d="M3.21,70.44a8.18,8.18,0,0,0-.06,1.1A6.86,6.86,0,0,0,3.21,70.44Z"/>        <path class="a" d="M3.15,71.54h0Z"/>        <path class="a" d="M5.31,151.41c0-.1,0-.22,0-.34C5.31,151.19,5.31,151.3,5.31,151.41Z"/>        <path class="a" d="M3,91.48l.08.06c0,1-.09.28-.07,1.19.11.35,0,1.5,0,1.81,0,0,0,.44,0,.41a3.41,3.41,0,0,1,0,.73c0,.1,0-.07,0-.15l0,.64c0,.25-.06.31-.06,0C3,97.88,3,105.9,3,107.69c0-.23,0-.79.09-1,0,.48,0,.7,0,.91-.11.18,0,1-.14,1.4l.06.14,0,.24c.06,2.09,0,.48,0,2.33,0,1.07.09,1.58.06,2.18,0-.09,0-.33.05,0-.05,0,0,.74,0,.88s0,1.15.07.86c0,.15-.05.94-.08.47,0,.27,0,.52,0,.71l0-.34c0,.9,0,1.38,0,2l0-.33a4.86,4.86,0,0,1-.06,1.19l0-.55c0,.89,0,1.42,0,2.17v-.26c.07.94.13,5.88.22,6.75l.06-.4,0,.75c0-.09-.18-.36-.17-.44,0,1.6,0,9.94,0,11.42,0,.6-.09.11-.1.1,0,.73.06.31.06.93,0,.17,0,0-.05-.13a3.34,3.34,0,0,0,0,.54c0-.34.09-.2.14-.34v.79l0,0a6.29,6.29,0,0,1,.1,1.23c0,1.32,0,2.75,0,4.07a2.75,2.75,0,0,1-.06-.58c0,.18,0,.45,0,.61,0-.32,0,.56.05.31.11,1,0,2.23.08,3.08.1.07,1.68,1.83,1.79,1.83,0,.27,0,.53,0,.61a5,5,0,0,0,0-.87l-.06,0c0-.64,0-.15,0-.77a3.92,3.92,0,0,1,.07,1,6,6,0,0,0,0-1.09c0-.43.06,0,.08-.47a11.6,11.6,0,0,1,0-1.27h0c.05-1-.08-1.57,0-2.5l0,.1c0-.33,0-1,0-1.58,0,.17,0,.32-.05,0,0-.69,0-1.15,0-1.66l0-.48c0-2.39-.06-11.83-.07-14.23v.09c0-3.66,0-11.17-.09-14.95,0-.58,0-1.39.05-2,0,.34-.06.22-.05,0,0-1.86,0-.13-.05-2,0-2.16,0-10.45,0-12.37-.07-1,0-2.32-.06-3.33l0,.1c0-1.09,0-7.23,0-8.5V85a14.24,14.24,0,0,1,.06-1.82C5.08,83.31,5,82.37,5,82H5c0-.54-.08-1.77-.09-2.67l0,0c0-.75,0-2.15,0-2.69,0-1.23.1-3.12,0-4.76l.13-1.06v-.16S3.59,69,3.26,71.18l0,0v.43c0,.51,0,.75,0,.72v-.7c0,.52,0,.16-.06,0,0,.22,0,.43,0,.6s0-.07,0-.16a8.82,8.82,0,0,1,0,1c0,.53-.07,0-.08.65,0,3.26-.09,6.41-.08,9.71,0,.07,0,0,0-.11,0,1,0,1.87,0,2.78a1.72,1.72,0,0,1-.07.39C3,86.26,3,91.4,3,91.48Z"/>      </g>      <g>        <path class="a" d="M356.61,70.44a8.19,8.19,0,0,0-.06,1.1A6.83,6.83,0,0,0,356.61,70.44Z"/>        <path class="a" d="M356.55,71.54h0Z"/>        <path class="a" d="M358.71,151.41c0-.1,0-.22,0-.34C358.71,151.19,358.71,151.3,358.71,151.41Z"/>        <path class="a" d="M356.41,91.48l.08.06c0,1-.09.28-.07,1.19.11.35,0,1.5,0,1.81,0,0,0,.44,0,.41a3.41,3.41,0,0,1,0,.73c0,.1,0-.07,0-.15l0,.64c0,.25-.06.31-.06,0,0,1.67-.08,9.68-.05,11.48,0-.23,0-.79.09-1,0,.48,0,.7,0,.91-.11.18,0,1-.14,1.4l.06.14,0,.24c.06,2.09,0,.48,0,2.33,0,1.07.09,1.58.06,2.18,0-.09,0-.33.05,0-.05,0,0,.74,0,.88s0,1.15.07.86c0,.15-.05.94-.08.47,0,.27,0,.52,0,.71l0-.34c0,.9,0,1.38,0,2l0-.33a4.85,4.85,0,0,1-.06,1.19l0-.55c0,.89,0,1.42,0,2.17v-.26c.07.94.13,5.88.22,6.75l.06-.4,0,.75c0-.09-.18-.36-.17-.44,0,1.6,0,9.94,0,11.42,0,.6-.09.11-.1.1,0,.73.06.31.06.93,0,.17,0,0-.05-.13a3.32,3.32,0,0,0,0,.54c0-.34.09-.2.14-.34v.79l0,0a6.25,6.25,0,0,1,.1,1.23c0,1.32,0,2.75,0,4.07a2.71,2.71,0,0,1-.06-.58c0,.18,0,.45,0,.61,0-.32,0,.56.05.31.11,1,0,2.23.08,3.08.1.07,1.67,1.83,1.79,1.83,0,.27,0,.53,0,.61a5,5,0,0,0,0-.87l-.06,0c0-.64,0-.15,0-.77a3.93,3.93,0,0,1,.07,1,6,6,0,0,0,0-1.09c0-.43.06,0,.08-.47a11.48,11.48,0,0,1,0-1.27h0c.05-1-.08-1.57,0-2.5l0,.1c0-.33,0-1,0-1.58,0,.17,0,.32-.05,0,0-.69,0-1.15,0-1.66l0-.48c0-2.39-.06-11.83-.07-14.23v.09c0-3.66,0-11.17-.09-14.95,0-.58,0-1.39.05-2,0,.34-.06.22-.05,0,0-1.86,0-.13-.06-2,0-2.16,0-10.45,0-12.37-.07-1,0-2.32-.06-3.33l0,.1c0-1.09,0-7.23,0-8.5V85a14.23,14.23,0,0,1,.06-1.82c-.08.11-.13-.83-.13-1.19h0c0-.54-.08-1.77-.09-2.67l0,0c0-.75,0-2.15,0-2.69,0-1.23.1-3.12,0-4.76l.13-1.06v-.16s-1.53-1.71-1.85.46l0,0v.43c0,.51,0,.75,0,.72v-.7c0,.52,0,.16-.06,0,0,.22,0,.43,0,.6s0-.07,0-.16a8.77,8.77,0,0,1,0,1c0,.53-.07,0-.08.65,0,3.26-.09,6.41-.08,9.71,0,.07,0,0,0-.11,0,1,0,1.87,0,2.78a1.73,1.73,0,0,1-.07.39C356.42,86.26,356.42,91.4,356.41,91.48Z"/>      </g>    </g>    <g>      <g>        <path class="c" d="M139.17,52c.06.1,4.07-2.49,4.13-2.38s-4.05,4-4,4.09,3.94-2.41,4-2.31-4.06,3.25-4,3.36,3.94-2.41,4-2.31-3.87,3.23-3.8,3.34,3.76-2.3,3.81-2.2-3.25,2.87-3.2,3,3.16-1.93,3.21-1.85-2.07,2.13-2,2.19,1.63-1,1.65-1"/>        <path class="c" d="M144.26,48.41c.07.11,4.5-2.75,4.57-2.64s-1.33,2.29-1.3,2.34,3.37-2.06,3.42-2-1.46,1.77-1.43,1.82,2.22-1.36,2.25-1.3-1.64,1.84-1.61,1.89,2.29-1.4,2.32-1.34-2.62,2.81-2.57,2.89,3.37-2.06,3.42-2-6.54,5-6.44,5.19,6.87-4.2,7-4-6.34,4.53-6.25,4.7,6.19-3.79,6.28-3.63-5,4.1-4.93,4.24,4.47-2.73,4.54-2.62S150,55,150,55.1s2.9-1.77,2.95-1.7"/>        <path class="c" d="M129.55,54.36c0,.05,2.17-1.33,2.2-1.27s-1.87,2.39-1.83,2.45c.24.41,16.28-10,16.52-9.54s-15.9,9.57-15.67,10,12.48-7.63,12.66-7.31S132.35,56,132.51,56.24c0,.07,2.85-1.74,2.89-1.67"/>        <path class="c" d="M130.32,43.81s1.63-1,1.66-1-2.53,2.56-2.48,2.63,4.71-2.88,4.77-2.76-5.22,4.59-5.13,4.75,4.91-3,5-2.88-4.25,3.81-4.18,3.93,3.48-2.12,3.53-2S131,48.88,131,49s2.64-1.61,2.68-1.55-.7,1.8-.68,1.84,3.7-2.26,3.75-2.17-1.7,2.61-1.66,2.68,8-4.9,8.14-4.7-8,5.31-7.87,5.52,7.87-4.81,8-4.61"/>        <path class="c" d="M144.23,43.07c.11.2,7.82-4.78,7.94-4.58s-5.87,4.18-5.77,4.34,5.64-3.44,5.72-3.3-2.55,2.81-2.5,2.9,1.7-1,1.72-1"/>        <path class="c" d="M144.24,38.19c.1.18,7.15-4.37,7.25-4.19s-3.8,3.77-3.73,3.89,2.92-1.78,3-1.71-3.19,3.36-3.13,3.46,4-2.46,4.09-2.36"/>        <path class="c" d="M143.4,30s1.47-.9,1.49-.86-2.72,3-2.67,3.07,4-2.42,4-2.32-4,3.72-3.89,3.83,5.2-3.18,5.27-3-4.29,3.29-4.22,3.41,6.3-3.85,6.39-3.69"/>        <path class="c" d="M145.61,33c.07.12,4.69-2.87,4.76-2.75s-2,2.39-1.95,2.46,4.39-2.68,4.45-2.57-4.77,4.1-4.69,4.23,5.41-3.31,5.49-3.17"/>        <path class="c" d="M129.07,38.22s1-.63,1-.61-.76,1.53-.74,1.57,3.16-1.93,3.2-1.85-1.82,2.42-1.78,2.49,6.73-4.11,6.83-3.94-3.62,3.47-3.56,3.58,4.87-3,4.94-2.85S137.45,39,137.49,39s4.77-2.91,4.84-2.79-3.21,2.66-3.16,2.75,5.09-3.11,5.16-3-5.06,3.73-5,3.87,7-4.3,7.14-4.12-11.85,8.18-11.67,8.49,8.15-5,8.27-4.77-4.88,4.2-4.8,4.34,4.78-2.92,4.85-2.8-3.84,3.41-3.78,3.53,5.79-3.54,5.87-3.39-6,4.38-5.87,4.55,3.93-2.4,4-2.3"/>        <path class="c" d="M137.6,32.76c0,.06,2.17-1.33,2.2-1.27"/>        <path class="c" d="M132.66,32.34c0,.07,2.75-1.68,2.8-1.61s-2.29,2.89-2.25,3,5.56-3.4,5.64-3.26-5.32,4.2-5.23,4.35,6-3.69,6.13-3.54-5.87,4.34-5.77,4.5,2.92-1.79,3-1.71-2.72,2.63-2.67,2.72,3-1.82,3-1.75"/>        <path class="c" d="M130.19,30s1.55-.95,1.58-.91-3.08,3.13-3,3.22,4.37-2.67,4.44-2.56-5.2,4.08-5.12,4.22,5.14-3.14,5.21-3-4.8,3.58-4.73,3.71,3.53-2.15,3.58-2.07"/>        <g>          <path class="c" d="M135.36,44.68s1.91-1.17,1.94-1.12,1.46.87,1.48.91.81-.5.82-.48-.84,1.47-.82,1.51.93-.57.94-.54"/>          <path class="c" d="M133.73,44.54s1.17-.72,1.19-.69-1.89,2.57-1.85,2.64,1.1-.67,1.11-.64-1.12,1.56-1.09,1.61,1-.6,1-.58,1.65.66,1.67.7,1.93-1.18,2-1.13l.48.85s1.47-.9,1.49-.86"/>          <path class="c" d="M144.32,38.69s1.95-1.19,2-1.14,1,.76,1,.79.87-.53.89-.51S147,40,147,40s1-.63,1.05-.61"/>          <path class="c" d="M142.84,38.52s1.17-.72,1.19-.69-1.37,1.9-1.34,2,.88-.54.89-.52-.69,2.1-.66,2.15,1-.58,1-.56.94.72,1,.75,3.05-1.87,3.1-1.79"/>          <path class="c" d="M137.81,33.29c0,.06,2.48-1.52,2.52-1.45"/>          <path class="c" d="M132,29.41s1.07-.66,1.09-.63-.3,1.83-.28,1.87,1-.59,1-.56l.87,1.14c0,.05,2-1.21,2-1.16s.09.86.1.88,1.75-1.07,1.78-1L139,31s.8-.49.81-.47-.42,1.18-.41,1.21.84-.51.85-.49"/>          <path class="c" d="M136.35,33.08s1.2-.73,1.21-.7-.93,2-.9,2,.77-.47.78-.45-.32,1.71-.3,1.75.77-.47.78-.45,0,1.64,0,1.67,1.49-.91,1.51-.87,1.56.67,1.58.71,1.9-1.16,1.93-1.11l.48.84s1.9-1.16,1.93-1.12,1.26.72,1.28.75,1.66-1,1.68-1"/>          <path class="c" d="M145.82,33.51c0,.05,2-1.23,2.05-1.18s0,1.26,0,1.29S149,33,149,33"/>          <path class="c" d="M144.22,33.4s1.25-.76,1.26-.73"/>          <path class="c" d="M143.09,29.57s1.61-1,1.64-.95-2.58,2.31-2.54,2.39,1.66-1,1.69-1-2.52,2.73-2.48,2.81,1.24-.76,1.26-.73-1,1.63-.94,1.68.75-.46.76-.44l.63,1.19c.05.09,3.48-2.12,3.53-2s-3,2.57-3,2.66.87-.53.89-.51"/>          <path class="c" d="M144.89,29.52s1.2-.73,1.22-.7-.34,1.79-.32,1.83,1-.6,1-.57l.56,1s2-1.2,2-1.15.12.85.13.87,2-1.2,2-1.15,1.42,1,1.45,1,.8-.49.82-.47-1.77,2-1.73,2.07,2.14-1.31,2.17-1.25-3.47,3.68-3.41,3.79S152,34,152,34s-1.6,2.38-1.56,2.45.74-.45.75-.43-.08,1.19-.07,1.22.76-.46.77-.44-.26,1.31-.25,1.34.75-.46.76-.44-.79,2-.77,2,.94-.57,1-.55-1.56,1.9-1.53,2,1.3-.79,1.32-.76"/>          <path class="c" d="M144.26,43.62c0,.05,2-1.21,2-1.16s1.16.74,1.18.77,1.94-1.18,2-1.13l.42.77s1.71-1,1.73-1"/>          <path class="c" d="M143,43.38s1.17-.71,1.19-.68-1.32,2-1.29,2,.9-.55.91-.53-.88,1.64-.85,1.68.89-.54.9-.52.31,1.29.33,1.32S146,45.53,146,45.58s1.3.68,1.32.72,1.72-1,1.74-1,.27.86.29.88,1.14-.7,1.16-.67l.6,1.19s.84-.51.85-.49,0,1.07,0,1.1.8-.49.81-.47.23,1.53.25,1.56.75-.46.76-.44-.35,1.38-.33,1.41.76-.46.77-.44-.89,2.09-.86,2.14,1-.6,1-.57S153,52.16,153,52.21s1.1-.67,1.11-.64-1.94,2.5-1.9,2.57,1.26-.77,1.28-.74"/>          <path class="c" d="M144.31,49s1.86-1.14,1.89-1.09.32.85.33.87,1.8-1.1,1.82-1.05l.52.82s1.3-.79,1.32-.76-.69,1.67-.67,1.71,1-.59,1-.56-4.19,4-4.12,4.14,3.59-2.2,3.65-2.11-3.13,3.18-3.08,3.27.88-.54.89-.51.39,1.13.4,1.15.93-.57.94-.54l.88,1.32s1.37-.84,1.39-.8"/>          <path class="c" d="M143,48.69s1.12-.68,1.14-.66-1.3,2.46-1.26,2.52.9-.55.91-.53-.92,1.54-.9,1.57.89-.54.9-.52-.92,1.62-.89,1.66.88-.54.89-.52-.91,1.59-.88,1.63.87-.53.89-.51-.91,1.5-.89,1.54.88-.54.89-.52"/>          <path class="c" d="M138.82,52.85s.87-.53.88-.51-.91,2.05-.88,2.1.87-.53.88-.51-.84,1.43-.82,1.46.81-.5.82-.47-.59,1.26-.57,1.29.74-.45.75-.43.14,1.29.15,1.32,1-.61,1-.58l.6.84s1.59-1,1.61-.93"/>          <path class="c" d="M137.34,52.64s1.8-1.1,1.83-1.05"/>          <path class="c" d="M131.93,53.43c.05.09,3.72-2.27,3.77-2.18"/>          <path class="c" d="M129.17,54c0,.06,2.39-1.46,2.43-1.4S129,55,129,55.09s.81-.49.82-.47.19,1.56.21,1.6.93-.57.94-.55.42,1.06.44,1.08c.12.2,8.07-4.93,8.19-4.73"/>          <path class="c" d="M130,43.43s1.78-1.09,1.8-1-3,3.34-3,3.44,1.19-.73,1.21-.7-1.41,2.38-1.37,2.45.77-.47.78-.45-.35,1.32-.33,1.35.74-.45.75-.44l.58,1.28s1.09-.67,1.1-.64l.67,1s1.44-.88,1.46-.84.86.9.88.92.74-.45.75-.43-.41,1.31-.4,1.34.77-.47.78-.45"/>          <path class="c" d="M132.13,43.2s1.59-1,1.61-.93,1.34.72,1.35.75,2.14-1.31,2.17-1.25,1,.7,1.05.73,1.26-.77,1.28-.74"/>          <path class="c" d="M128.67,37.84s1.22-.75,1.24-.71-1.23,2-1.2,2,.76-.46.77-.44.28,1.32.29,1.35,1.08-.66,1.1-.63,1.73.66,1.75.7S134.52,39,134.55,39s.9.71.91.74,1.86-1.14,1.89-1.09,1.26.63,1.28.66.84-.52.86-.49-.69,1.49-.67,1.52.9-.55.91-.53"/>          <path class="c" d="M130.19,38c0,.05,2-1.21,2-1.16l.45.88c0,.05,2-1.21,2-1.16"/>          <path class="c" d="M132.51,33.23s.76-.47.77-.45-.5,1.2-.48,1.23.76-.47.77-.45-.37,1.56-.35,1.6.76-.47.77-.45-.38,1.52-.36,1.56.76-.47.77-.45"/>          <path class="c" d="M131.8,32.35s.81-.5.82-.47"/>          <path class="c" d="M129.89,29.56s1.69-1,1.72-1-3.28,3.24-3.22,3.34,1.54-.94,1.56-.9-2.45,2.57-2.4,2.65,1.21-.74,1.23-.71-1,1.53-1,1.57.74-.45.75-.43.35,1.23.37,1.26,3.34-2,3.38-2"/>        </g>      </g>      <g>        <path class="c" d="M214.37,50.7c.06.1,4-2.45,4.08-2.35s-2,2.4-2,2.47,3.07-1.87,3.11-1.8-3.24,3.41-3.18,3.51,3.48-2.13,3.53-2"/>        <path class="c" d="M210.63,49.24s1.46-.89,1.48-.85-2,2.19-2,2.25,4.45-2.72,4.51-2.6-4.49,4-4.42,4.16,7.35-4.49,7.46-4.31-7.51,5.26-7.39,5.46,2.84-1.74,2.89-1.67-2.86,2.77-2.81,2.85,2.74-1.68,2.78-1.61-2.53,2.71-2.48,2.79,2.91-1.78,3-1.71-1.79,2.56-1.75,2.62,7.68-4.69,7.79-4.5-5.46,4.42-5.37,4.57,5.06-3.09,5.13-3-3.42,2.81-3.36,2.91,3.1-1.9,3.15-1.82"/>        <path class="c" d="M211.16,40.18s1.32-.8,1.33-.77-1.31,1.62-1.28,1.67,3.79-2.32,3.84-2.22-2.72,3-2.67,3.08,5.68-3.47,5.76-3.33-3.7,3-3.64,3.11,4.31-2.64,4.38-2.53-4.55,4-4.48,4.1,4.64-2.83,4.7-2.72-6.05,5.07-6,5.24S216,44,216.09,44.12s-2,2.53-2,2.6,3.07-1.88,3.11-1.8-1.92,2.28-1.88,2.35,2.53-1.55,2.57-1.48"/>        <path class="c" d="M227.33,49.38c.09.15,5.88-3.59,6-3.44s-2.53,3-2.48,3.08,4.22-2.58,4.29-2.47-2.39,2.75-2.34,2.83,3.42-2.09,3.47-2-3.84,3.81-3.77,3.92,4.48-2.74,4.54-2.62-4.87,3.89-4.79,4,4.77-2.92,4.84-2.8"/>        <path class="c" d="M222.54,47.66s1.44-.88,1.46-.84-2,2.5-1.92,2.56c.13.23,9.11-5.57,9.24-5.34s-9.32,6.46-9.18,6.71,9.07-5.54,9.2-5.31-9.27,6.59-9.13,6.84,4-2.42,4-2.32-4,3.34-4,3.45,3.88-2.37,3.94-2.27-3.88,3.86-3.81,4,3.76-2.3,3.81-2.2-3.46,3-3.41,3.14,4.06-2.48,4.12-2.38-2.4,3-2.35,3.11,5.92-3.62,6-3.47-3.65,3.26-3.59,3.37,9.77-6,9.92-5.73-6.89,5.41-6.78,5.6,6.43-3.93,6.53-3.77-4.16,3.55-4.09,3.67,3.84-2.35,3.9-2.25-2,2-2,2.11,1.44-.88,1.47-.85"/>        <path class="c" d="M232.32,42.09c.07.11,4.44-2.71,4.5-2.6s-1.89,2.26-1.85,2.33,1.88-1.15,1.9-1.1"/>        <path class="c" d="M220.68,40.8s1.26-.77,1.28-.74-1.28,1.74-1.25,1.78,3.77-2.3,3.82-2.21-3.05,2.92-3,3c.14.25,9.69-5.92,9.83-5.68s-8.55,5.83-8.42,6.06,8.37-5.11,8.49-4.9-5,4.43-4.95,4.58,8-4.86,8.07-4.66S226.83,44,227,44.2s9.29-5.67,9.42-5.44-9.64,7-9.49,7.25,4.37-2.67,4.44-2.56"/>        <path class="c" d="M232.52,33.38c0,.07,2.59-1.58,2.63-1.52"/>        <path class="c" d="M210,34.17s1.2-.74,1.22-.7-.91,2.05-.88,2.1,6.7-4.1,6.8-3.93-5.72,4.25-5.63,4.4,6.29-3.85,6.39-3.69-2.77,3.23-2.71,3.33,5.27-3.22,5.34-3.09-2.45,2.67-2.4,2.75,6.43-3.93,6.53-3.77-3.33,3.51-3.27,3.62,8.8-5.38,8.93-5.16-5.94,4.72-5.84,4.88,8.75-5.35,8.88-5.13-6.27,5.21-6.16,5.39,7.43-4.54,7.54-4.35-7.69,5.59-7.57,5.8,4.2-2.57,4.26-2.46-4.37,4.08-4.3,4.21,4.22-2.58,4.28-2.47"/>        <path class="c" d="M213.67,29.76S214.94,29,215,29s-1.64,2.26-1.6,2.32,3-1.86,3.08-1.78-3.2,2.81-3.14,2.9,3.59-2.19,3.64-2.1"/>        <g>          <path class="c" d="M227.39,49.89s1.87-1.14,1.9-1.1,1.13.74,1.14.77,1.83-1.12,1.85-1.07S232.08,50,232.1,50s1-.63,1-.6-1.27,2-1.24,2.06,1-.61,1-.58"/>          <path class="c" d="M226,49.68s1.13-.69,1.15-.66-1.33,1.93-1.3,2,.88-.54.89-.51-.92,1.8-.89,1.84.9-.55.92-.53-.83,1.59-.8,1.63.81-.5.83-.48.07,1.09.09,1.11,1.76-1.07,1.78-1,1.26.7,1.28.73,2.75-1.68,2.79-1.61"/>          <path class="c" d="M214.49,51.19s1.81-1.1,1.83-1.06-.42,1.24-.4,1.27.94-.58,1-.55-1,1.81-1,1.85.93-.57.94-.55"/>          <path class="c" d="M213,51s1.19-.73,1.21-.7-1.44,2.51-1.4,2.58.92-.56.93-.54S213,54,213,54s.86-.52.87-.5,1.63.65,1.65.69,1.08-.66,1.09-.63"/>          <path class="c" d="M212.74,39.75c0,.06,2.47-1.51,2.5-1.45s1.81.47,1.83.51,1.17-.72,1.19-.69.05,1.07.07,1.1.8-.49.81-.47-.55,1.81-.53,1.85,1-.62,1-.6-3.18,2.8-3.13,2.9,2.65-1.62,2.69-1.55-3.54,2.89-3.48,3,1.6-1,1.63-.94-.3,1.83-.27,1.87.8-.49.81-.47-.34,1.27-.32,1.3.81-.49.82-.47-1.24,2.07-1.2,2.13,1-.6,1-.58.06,1.48.08,1.51.87-.53.89-.51.6,1.4.62,1.43.87-.53.88-.51-1.34,2.47-1.3,2.53,1-.59,1-.56-1.21,1.93-1.18,2,1-.59,1-.56-1.27,2.14-1.24,2.2,1-.6,1-.58"/>          <path class="c" d="M210.21,48.89s1.68-1,1.7-1-2.3,2.6-2.25,2.68,1-.59,1-.57-1,1.57-.93,1.61.84-.51.85-.49-.8,1.76-.78,1.81.84-.51.85-.49-.8,1.78-.77,1.82.84-.51.85-.49-.67,1.75-.64,1.8.78-.48.79-.46,0,1.55,0,1.58.83-.51.85-.49,1.36,1,1.38,1,1.59-1,1.61-.93l.64.86s1.59-1,1.61-.93l.65.73s1.51-.92,1.53-.89"/>          <path class="c" d="M212.24,48.76c0,.05,2-1.21,2-1.16l.65.8s1.42-.87,1.44-.83"/>          <path class="c" d="M210.8,39.78s1.39-.85,1.41-.82-1.62,1.84-1.59,1.9.85-.52.86-.5-.49,1.19-.47,1.22.75-.46.77-.44-.09,1-.07,1,1-.59,1-.57.26.84.27.86,2.18-1.33,2.21-1.28-1.7,2.3-1.66,2.36S216,42.05,216,42.11s-3.45,3.13-3.4,3.24,1-.63,1-.6-.69,1.75-.67,1.79.8-.49.81-.47l.7,1.35s.93-.57.94-.54"/>          <path class="c" d="M232.61,33.88c0,.07,2.95-1.8,3-1.73"/>          <path class="c" d="M215.27,29.35s1-.59,1-.56.23,1.34.25,1.37.75-.46.76-.44-.56,2-.53,2,.88-.54.9-.52,0,1.48.06,1.52,2-1.21,2-1.16.49,1.26.51,1.29,2.06-1.26,2.09-1.21,1.47.48,1.49.52,2.89-1.77,2.93-1.69.22.83.23.85,3-1.81,3-1.74.2.84.21.86,2.32-1.42,2.35-1.36l.6,1s.94-.57.95-.55,0,1.13,0,1.16.77-.47.79-.45-.2,1.17-.19,1.19.73-.45.74-.43"/>          <path class="c" d="M231.15,33.77s1.3-.8,1.32-.76S231,35.11,231,35.17s.88-.54.9-.52-.94,2.15-.91,2.2.91-.56.93-.54-.86,1.81-.83,1.85.83-.51.84-.49-.29,1.08-.28,1.1,1.94-1.19,2-1.14,1.68.8,1.7.84.89-.55.91-.52.21,1.59.24,1.62.74-.46.76-.44-.76,1.54-.74,1.58,1-.59,1-.57"/>          <path class="c" d="M232.37,42.63s1.93-1.18,2-1.13l.47.85c0,.06,2.5-1.53,2.53-1.46"/>          <path class="c" d="M231.08,42.38s1.14-.7,1.15-.67-1.32,1.62-1.29,1.67.92-.56.93-.54-1,2-.93,2.08.92-.56.94-.54-.76,1.4-.74,1.43.78-.48.79-.46,1,.91,1,.94,1.2-.73,1.22-.7L235,46.9s.88-.54.89-.51.18,1.32.2,1.35.77-.47.78-.45-.28,1.38-.26,1.41.74-.45.75-.43-.78,2.08-.75,2.13.94-.58,1-.55-1.24,2.3-1.21,2.35,1-.58,1-.56-1.18,1.84-1.15,1.89,1-.58,1-.56-1.33,1.87-1.3,1.92,1.1-.67,1.12-.65"/>          <path class="c" d="M222.12,47.31s1.65-1,1.68-1-2.27,2.86-2.23,2.94.9-.55.91-.53-.87,1.92-.85,2,.84-.52.86-.49-.8,2.14-.77,2.19.84-.52.86-.49-.8,2.19-.77,2.24.85-.52.86-.5-.73,1.7-.71,1.74.77-.47.78-.45-.28,1.44-.26,1.47.79-.48.8-.46,0,1,0,1.06,1.06-.65,1.07-.62,1.11.81,1.13.84,1.62-1,1.64-.95l.61.86s1.62-1,1.64-.95l.71.85s1.62-1,1.64-.95l.61.86s1.62-1,1.64-.95.76.7.77.72,1.43-.87,1.45-.84"/>          <path class="c" d="M224.13,47.19c0,.05,2-1.23,2-1.18"/>          <path class="c" d="M220.32,40.39s1.35-.83,1.37-.79-1.57,2.09-1.53,2.14.83-.51.84-.48-.2,1.42-.18,1.45.77-.47.78-.45.36,1.14.38,1.17,1.34-.82,1.36-.78,1.22.69,1.24.72,1.79-1.1,1.82-1.05,0,1.27,0,1.3.89-.54.9-.52-.94,1.52-.92,1.56.94-.58,1-.55-1,1.61-1,1.65.94-.58,1-.55"/>          <path class="c" d="M222.06,40.43c0,.05,2.16-1.32,2.19-1.27l.39.84c0,.07,2.79-1.7,2.83-1.63"/>          <path class="c" d="M211.33,33.83c0,.06,2.32-1.42,2.35-1.36"/>          <path class="c" d="M209.57,33.8s1.36-.83,1.38-.8-1.39,2.32-1.36,2.38.75-.46.76-.44-.1,1.17-.09,1.2.93-.57.95-.55,1.53.82,1.55.86,1.88-1.15,1.91-1.1,1,.74,1,.77,1.88-1.15,1.91-1.1,1.8.64,1.82.68,1.75-1.07,1.78-1l.53,1.2c0,.05,2.1-1.28,2.13-1.23s2.42.36,2.45.41,1-.61,1-.58-.76,1.81-.74,1.85.93-.57.94-.54-1,2.22-.95,2.28.89-.55.91-.52"/>          <path class="c" d="M213.35,29.41s1.54-.94,1.56-.9-2.07,2.5-2,2.57.91-.56.92-.53-1,1.61-1,1.65.9-.55.91-.53"/>        </g>      </g>      <g>        <path class="d" d="M162.3,46.43s1.46-.89,1.48-.85-1.51,2.33-1.48,2.39,3.8-2.32,3.86-2.23-2.92,4.1-2.86,4.21,7.17-4.38,7.27-4.2-6.38,6-6.27,6.19,11.54-7.05,11.71-6.76-11.29,7.65-11.12,7.94,17.05-10.42,17.3-10-16.86,10.94-16.6,11.38c.5.87,34.19-20.89,34.69-20S165.9,55.24,166.41,56.11s34-20.77,34.49-19.91-34.15,20.17-33.66,21,33.5-20.47,34-19.62-32.45,20-32,20.83S201,39,201.48,39.83s-28.62,17.9-28.2,18.63,27.62-16.88,28-16.18-25.15,15.26-24.78,15.89S200.61,43.46,201,44.07s-19,12.76-18.69,13.26,17.18-10.5,17.43-10.06-13.11,8.62-12.91,9,11-6.72,11.15-6.44"/>        <path class="d" d="M169.73,26.21c0,.06,2.34-1.43,2.37-1.37s-2.85,4.06-2.78,4.17c.44.76,29.93-18.29,30.36-17.53s-30.37,19-29.92,19.74S199.63,13,200.07,13.73s-30,18.6-29.54,19.36,28.88-17.65,29.31-16.92-28,17.16-27.62,17.88S198.64,17.89,199,18.56s-21.81,14.27-21.48,14.83S195.22,22.6,195.47,23s-15,10-14.8,10.42,9.84-6,10-5.77-7.24,6.5-7.12,6.71,10.11-6.18,10.26-5.92-8.87,6.89-8.73,7.14,10.58-6.47,10.74-6.2-10.12,7.2-10,7.46,11.14-6.81,11.3-6.52-11.2,7.72-11,8,12-7.31,12.13-7-13.91,9.75-13.69,10.11,14.65-9,14.87-8.58"/>        <path class="d" d="M161.79,7c0,.08,3.27-2,3.32-1.92s-3.82,4.32-3.74,4.45c.18.32,12.59-7.7,12.78-7.38S162,11.08,162.2,11.41,179.68.73,179.94,1.17,162.74,12.55,163,13,183.48.48,183.78,1s-20.17,13.28-19.87,13.8,23-14.07,23.36-13.49-22.82,14.16-22.49,14.74S189,1.23,189.41,1.84s-23.28,14.32-22.94,14.91S190.83,1.87,191.18,2.48c.23.39-14.89,10.37-14.67,10.77s16.57-10.13,16.81-9.71-12.91,8.81-12.71,9.15,14-8.54,14.17-8.18-11.61,8.67-11.43,9,12.86-7.86,13-7.53-12.09,8.27-11.91,8.59,12.71-7.77,12.9-7.45S184.82,16.49,185,16.83,198.44,8.63,198.64,9s-15.25,10-15,10.45S199.1,10,199.33,10.34"/>        <g>          <path class="d" d="M165.34,5.48c.07.11,4.45-2.72,4.52-2.61s4.78-.53,4.84-.42S177,1.06,177,1.12s1.59.55,1.61.59,1.71-1,1.73-1,2.22.68,2.25.73,1.52-.93,1.54-.89,1.15.92,1.17,1,1.32-.81,1.34-.78,2,1.26,2.06,1.31,1-.63,1-.6S191.57,3,191.6,3.07s.9-.55.91-.53l1.28,1.76s.84-.51.85-.49.56,1.54.58,1.57.8-.49.81-.47.22,1.47.24,1.51S197,6,197,6s.66,2.26.7,2.31.76-.46.77-.44.18,2.13.21,2.17.77-.47.78-.45-.28,1.86-.25,1.91S200,11,200,11s-.49,2-.47,2,.81-.5.83-.48-.85,2.38-.81,2.43.94-.57,1-.55-1.71,3.34-1.66,3.42,1.23-.75,1.25-.72-3.12,3.62-3.06,3.72,1.89-1.15,1.91-1.1c.16.28-10.54,7.43-10.38,7.71S195.9,23,196,23.19s-4.87,4.88-4.78,5,1.09-.67,1.11-.64,1.7,1.35,1.73,1.4.9-.55.91-.53,1.26,1.67,1.29,1.72.82-.5.83-.48.35,1.41.37,1.44.81-.49.82-.47S199,32.92,199,33s.76-.46.77-.44,0,1.85,0,1.9.76-.46.77-.44-.05,2.46,0,2.51.78-.48.8-.46-.39,2.64-.35,2.7.81-.49.82-.47S201,41,201,41.1s.91-.56.92-.53-1.35,3.06-1.31,3.13,1-.63,1-.61-1.65,2.37-1.62,2.43,1.19-.72,1.2-.69-2.23,2.65-2.19,2.73,1.46-.89,1.48-.85-5,4.56-4.91,4.71,3-1.82,3-1.74"/>          <path class="d" d="M161.93,46.1s1.62-1,1.64-.95-1.72,3-1.68,3.06.75-.46.77-.44-.23,1.52-.21,1.55.75-.46.77-.44-.1,1.78-.07,1.82.75-.46.77-.44,0,2,0,2,.75-.46.76-.44-.08,1.82-.05,1.86.75-.46.76-.44.18,2.33.21,2.38.75-.46.76-.44.22,2,.24,2.06.75-.46.76-.44.33,1.39.35,1.43.87-.53.88-.51S170.29,59,170.32,59s1.57-1,1.59-.92,1.11.78,1.13.81,1.69-1,1.72-1,3.07.49,3.1.56,1.93-1.18,2-1.13,4.18,0,4.24.1,2.92-1.79,3-1.71,3.27-.32,3.31-.25,5.88-3.59,6-3.44"/>          <path class="d" d="M163.89,46s1.34-.82,1.36-.78,1.43.94,1.45,1,1.44-.88,1.46-.84,3.17.72,3.21.79,1.75-1.07,1.78-1,1.38.67,1.4.71,2.22-1.35,2.25-1.3,3.48-.18,3.53-.11,4.37-2.67,4.43-2.56"/>          <path class="d" d="M169.46,25.83c0,.06,2.42-1.48,2.45-1.42s-3.22,3.26-3.16,3.36.93-.57.95-.55-.67,2.86-.64,2.92.79-.49.81-.47-.29,2.66-.26,2.71.74-.45.75-.43-.07,1.52,0,1.55.77-.47.78-.45l.77,1.35s1.38-.84,1.4-.81,3,.28,3,.35,1.72-1.05,1.74-1,1.25.83,1.27.86,1.31-.8,1.33-.77,1.78,1.28,1.81,1.33.92-.56.94-.54l1,1.75s.77-.47.78-.45,0,1.52.06,1.55.74-.45.75-.43-.5,2.68-.47,2.74,1-.61,1-.58"/>          <path class="d" d="M172.24,25.23c0,.07,2.93-1.79,3-1.72s2.56-.06,2.59,0,5.27-3.22,5.34-3.09"/>          <path class="d" d="M161.46,6.64c0,.08,3.08-1.88,3.12-1.8s-3.83,4.33-3.76,4.46.77-.47.78-.45,0,2.33,0,2.38.75-.46.76-.44,0,2,0,2,.75-.46.76-.44.12,2.2.14,2.25.75-.46.76-.44,0,1.71,0,1.75.77-.47.78-.45.37,1.41.39,1.44,1-.63,1.05-.61,6-1.34,6.08-1.21,3.71-2.27,3.76-2.17,2.46.32,2.49.37,1.78-1.09,1.81-1,1.91,1.21,1.94,1.26.94-.58,1-.55.46,1.4.48,1.44.76-.47.77-.45,0,2.51,0,2.57.85-.52.86-.5-2.19,2.93-2.14,3S185,18,185.07,18"/>        </g>      </g>    </g>  </g></svg>