<svg xmlns="http://www.w3.org/2000/svg" viewBox="0 0 361.18 149.88"><defs><style>.cls-1{fill:#8d3a49;}.cls-2,.cls-3{fill:none;}.cls-2{stroke:#9f5b67;stroke-miterlimit:10;stroke-width:0.1px;}.cls-3{stroke:#e9528e;stroke-linecap:round;stroke-linejoin:round;stroke-width:1.13px;}</style></defs><title>txt_title01</title><g id="レイヤー_2" data-name="レイヤー 2"><g id="text"><path class="cls-1" d="M1.56,146.93c1.12,0,3,.05,4.86.06C5,146.95,3.53,146.93,1.56,146.93Z"/><path class="cls-1" d="M6.45,147h0Z"/><path class="cls-1" d="M359.83,144.83h0Z"/><path class="cls-1" d="M94.67,147.13l.28-.08c4.32,0,1.26.09,5.25.07,1.56-.11,6.64,0,8,0,0,0,1.92,0,1.8,0,.6-.06,2,0,3.25,0,.45,0-.33,0-.66,0l2.83,0c1.1,0,1.38.06.18.06,7.39,0,42.84.08,50.8.05-1,0-3.48,0-4.41-.09,2.1,0,3.1,0,4,0,.81.11,4.62,0,6.22.14l.6-.06,1,0c9.25-.06,2.11,0,10.31,0,4.75,0,7-.09,9.64-.06-.39,0-1.44,0-.21-.05.21.05,3.27,0,3.87,0,1.2,0,5.11,0,3.79-.07.66,0,4.14.05,2.07.08,1.17,0,2.31,0,3.16,0L205,147c4,0,6.13,0,8.71,0l-1.47,0c2.37,0,4.35,0,5.29.06l-2.43,0c3.93,0,6.3,0,9.58,0h-1.17c4.18-.07,26-.13,29.87-.22l-1.77-.06,3.31,0c-.39,0-1.6.18-1.92.17,7.09,0,44,0,50.52,0,2.64,0,.48.09.45.1,3.21,0,1.39-.06,4.12-.06.75,0-.15,0-.57.05,1.2,0,2.31,0,2.4,0a6,6,0,0,1-1.5-.14h3.52l-.16,0c.78,0,2-.12,5.44-.1,5.83,0,12.16,0,18,0-.09,0-1.32,0-2.55.06.79,0,2,0,2.71,0-1.42,0,2.46,0,1.35-.05,4.29-.11,9.84,0,13.63-.08.33-.1,8.11-1.68,8.11-1.79h2.71c-.3,0-2.62,0-3.84,0l-.21.06c-2.83,0-.66,0-3.42,0-.15-.05,2.39-.06,4.63-.07-2,0-4,0-4.84,0-1.89,0,.21-.06-2.07-.08-1.62,0-3.76.06-5.62,0h0c-4.53-.05-6.94.08-11.08,0l.45,0c-1.46,0-4.35,0-7,0,.75,0,1.41,0-.18.05-3,0-5.11,0-7.33,0l-2.13,0c-10.58,0-52.35.06-63,.07H256c-16.19,0-49.42,0-66.15.09-2.59,0-6.16,0-8.86-.05,1.5,0,1,.06-.19.05-8.23,0-.55,0-8.87.05-9.58,0-46.23,0-54.74,0-4.57.07-10.27,0-14.74.06l.45,0c-4.81,0-32,0-37.59,0h.75c-4.87,0-4.21,0-8-.06.5.08-3.67.13-5.26.13l.06,0c-2.4,0-7.84.08-11.8.09l.15,0c-3.31,0-9.52,0-11.9,0-5.43,0-13.81-.1-21.08,0L3.52,145H2.83s-7.56,1.53,2,1.85l-.15,0h1.9c2.28,0,3.33,0,3.17,0H6.67c2.29,0,.69,0-.18.06l2.64,0c.45,0-.33,0-.69,0,1.23,0,2.94-.06,4.44,0,2.34,0,.15.07,2.88.08,14.41,0,28.38.09,42.94.08.33,0-.06,0-.48,0l12.28,0c1.11,0,1.41,0,1.74.07C71.59,147.13,94.31,147.12,94.67,147.13Z"/><path class="cls-1" d="M1.25,72.8c.85,0,2.32.05,3.71.06C3.89,72.81,2.75,72.79,1.25,72.8Z"/><path class="cls-1" d="M5,72.86H5Z"/><path class="cls-1" d="M274.49,70.7h0Z"/><path class="cls-1" d="M72.26,73l.21-.08c3.3,0,1,.09,4,.07,1.19-.11,5.06,0,6.11,0,0,0,1.47,0,1.37,0,.46-.06,1.53,0,2.48,0,.34,0-.25,0-.51,0l2.16,0c.84,0,1.05.06.13.06,5.63,0,32.68.08,38.74.05-.78,0-2.65,0-3.36-.09,1.6,0,2.36,0,3.07,0,.62.11,3.53,0,4.74.14l.46-.06.8,0c7.06-.06,1.61,0,7.87,0,3.62,0,5.34-.09,7.35-.06-.3,0-1.1,0-.16-.05.16.05,2.5,0,3,0,.92,0,3.89,0,2.89-.07.51,0,3.16.05,1.58.08.9,0,1.76,0,2.41,0l-1.15,0c3,0,4.67,0,6.64,0l-1.12,0c1.81,0,3.32,0,4,.06l-1.86,0c3,0,4.81,0,7.31,0h-.89c3.18-.07,19.84-.13,22.78-.22L192,72.59l2.52,0c-.3,0-1.22.18-1.47.17,5.41,0,33.53,0,38.53,0,2,0,.36.09.34.1,2.45,0,1.06-.06,3.14-.06.57,0-.12,0-.44.05.91,0,1.76,0,1.83,0a3.54,3.54,0,0,1-1.14-.14H238l-.12,0c.6,0,1.52-.12,4.15-.1,4.44,0,9.27,0,13.74,0-.07,0-1,0-1.95.06.6,0,1.51,0,2.06,0-1.08,0,1.88,0,1-.05,3.27-.11,7.51,0,10.4-.08.25-.1,6.19-1.68,6.19-1.79h2.06c-.23,0-2,0-2.93,0l-.16.06c-2.16,0-.5,0-2.61,0-.11-.05,1.82-.06,3.53-.07-1.54,0-3.07,0-3.69,0-1.44,0,.16-.06-1.58-.08-1.24,0-2.87.06-4.29,0h0c-3.46-.05-5.29.08-8.45,0l.34,0c-1.12,0-3.32,0-5.33,0,.57,0,1.07,0-.14.05-2.32,0-3.9,0-5.59,0l-1.63,0c-8.07,0-39.93.06-48,.07h.32c-12.35,0-37.69,0-50.45.09-2,0-4.7,0-6.75-.05,1.15,0,.75.06-.14.05-6.27,0-.42,0-6.77.05-7.31,0-35.26,0-41.75,0-3.48.07-7.83,0-11.24.06l.34,0c-3.67,0-24.41,0-28.67,0h.57c-3.71,0-3.21,0-6.14-.06a38.29,38.29,0,0,1-4,.13l0,0c-1.83,0-6,.08-9,.09l.12,0c-2.52,0-7.26,0-9.07,0-4.14,0-10.53-.1-16.08,0l-3.58-.13H2.22s-5.76,1.53,1.55,1.85l-.12,0H5.1c1.74,0,2.54,0,2.42,0H5.14c1.74,0,.53,0-.14.06l2,0c.34,0-.25,0-.52,0,.94,0,2.24-.06,3.39,0,1.79,0,.11.07,2.2.08,11,0,21.64.09,32.75.08.25,0,0,0-.37,0l9.37,0c.85,0,1.08,0,1.33.07C54.66,73,72,73,72.26,73Z"/><path class="cls-2" d="M271.11,72.92"/><path class="cls-1" d="M288.44,72.13a1.07,1.07,0,0,0-.25-.3A.9.9,0,0,0,288.44,72.13Z"/><polygon class="cls-1" points="288.19 71.83 288.19 71.82 288.19 71.83 288.19 71.83"/><path class="cls-1" d="M265.6,54.68l.09.08Z"/><path class="cls-1" d="M283,67l-.07,0c-.26-.23,0-.14-.27-.33-.17,0-.39-.36-.51-.39s-.11-.11-.08-.13-.13-.1-.21-.15,0,0,0,.06l-.18-.13c-.05-.07,0-.11,0-.06-.43-.41-2.51-2.34-3-2.74,0,.09.2.2.21.3-.15-.08-.18-.18-.26-.19s-.26-.26-.28-.43h-.08l0-.08a3,3,0,0,1-.63-.54,7.26,7.26,0,0,1-.62-.46s.06.11,0,.05-.22-.14-.22-.22-.31-.27-.28-.15c0-.06-.21-.26-.07-.17a1.12,1.12,0,0,0-.19-.17l.08.1c-.24-.2-.34-.36-.53-.45l.07.1c-.14-.12-.27-.22-.27-.33l.16.11a4.91,4.91,0,0,0-.6-.47l.07.06c-.3-.17-1.65-1.28-1.94-1.42l.07.14-.23-.14s.22-.05.23,0c-.43-.37-2.66-2.3-3-2.67-.14-.16,0-.09,0-.1-.21-.15-.12,0-.28-.18s0,0,.07,0-.13-.13-.15-.12,0,.11,0,.18l-.21-.19,0,0s-.2,0-.39-.22-.73-.65-1.07-1c0,0,.11,0,.19.09a.85.85,0,0,1-.15-.15c.05.11-.17-.11-.12,0-.33-.15-.6-.52-.87-.66-.08.06-1.6.82-1.67.91a1.26,1.26,0,0,1-.15-.15s.13.17.21.22l.05,0c.18.13,0,.06.18.21,0,0-.18-.08-.32-.2.12.11.21.25.3.25s-.05,0,.07.17a1.47,1.47,0,0,1,.36.27h0c.24.28.47.31.68.57h0c.07.1.27.22.4.39,0,0-.05-.11,0,0s.31.27.41.42l.16.08c.63.57,3.17,2.73,3.81,3.29l0,0c1,.84,3,2.61,4,3.45a4.73,4.73,0,0,0,.5.51c-.08-.09,0-.09,0,0,.49.44.06,0,.57.43s2.76,2.46,3.24,2.94c.32.19.63.53.92.74h0c.31.23,1.89,1.73,2.24,2l0,0c.32.23.23.25.44.47,0-.09.3.1.4.18h0c.15.12.52.35.77.56l0,0a7.49,7.49,0,0,1,.73.61,11.8,11.8,0,0,0,1.24,1.15l.2.34,0,0s1.47-.74,1.11-1.49l0,0-.12-.1c-.12-.14-.22-.15-.18-.18l.18.17c-.13-.13,0-.06.05,0a1.4,1.4,0,0,1-.14-.16s0,0,0,.06a1.13,1.13,0,0,1-.29-.21c-.14-.13,0-.06-.12-.21-.84-.79-1.64-1.57-2.52-2.34,0,0,0,0,0,0-.28-.22-.5-.43-.76-.63a.3.3,0,0,1-.06-.14C284.38,68.27,283,67.06,283,67Z"/><path class="cls-1" d="M266.19,53.17a.56.56,0,0,0,0,.28A.47.47,0,0,0,266.19,53.17Z"/><polygon class="cls-1" points="266.19 53.45 266.19 53.45 266.19 53.45 266.19 53.45"/><path class="cls-1" d="M272.21,72.63l0-.08A.36.36,0,0,0,272.21,72.63Z"/><path class="cls-1" d="M267,58.37h.08c0,.24-.08.09,0,.31.13.06.06.37.14.44s0,.11,0,.11,0,.11.07.17,0,0,0,0l.05.15c0,.07,0,.09-.06,0,.06.41.39,2.39.51,2.83,0-.07,0-.2,0-.26.06.11,0,.17.07.22s0,.26-.06.37l.07,0,0,.07a1.48,1.48,0,0,1,.13.57c.06.26.17.37.17.52,0,0,0-.09.05,0s.07.17,0,.22.06.28.11.2,0,.24-.06.13a.56.56,0,0,0,0,.17v-.09c.05.22,0,.35.12.48v-.09c0,.13.06.24,0,.31l0-.13a2.45,2.45,0,0,0,.15.52v-.07c.12.22.42,1.42.55,1.61l0-.11.08.17s-.2-.05-.18-.07c.08.39.53,2.43.57,2.8,0,.15-.08,0-.09,0,.06.17.07.07.1.22s0,0-.06,0,0,.13,0,.13.08-.07.12-.11l0,.2h0s.14.09.16.28.13.67.19,1c0,0-.06-.07-.08-.13a.44.44,0,0,1,0,.15c0-.09.06.13.06.07.15.22.12.54.23.74.1,0,1.73.12,1.85.1a.64.64,0,0,1,0,.15.33.33,0,0,0,0-.22h-.06c-.05-.15,0,0,0-.2s.09.12.12.24c0-.11,0-.23-.07-.27s.06,0,.06-.13a.74.74,0,0,1-.1-.3h0c0-.26-.15-.37-.15-.61l0,0c0-.09-.06-.24-.06-.39,0,0,0,.09-.05,0s-.06-.28,0-.41l-.07-.11c-.11-.59-.64-2.89-.76-3.48v0c-.2-.89-.57-2.74-.82-3.65a2.38,2.38,0,0,0,0-.5c0,.09,0,.07-.05,0-.09-.46,0,0-.15-.48s-.5-2.57-.56-3c-.12-.24-.13-.57-.22-.81l0,0c-.08-.26-.31-1.78-.4-2.09v0c-.1-.26,0-.24,0-.46-.07,0-.17-.18-.19-.27h0c0-.13-.17-.42-.22-.64h0a3.71,3.71,0,0,1-.16-.65,5.9,5.9,0,0,0-.2-1.18l.07-.28,0,0s-1.58-.12-1.79.47h0l0,.1c0,.13.07.18,0,.18l0-.17c0,.13,0,0-.06,0a.71.71,0,0,1,0,.15s0,0,0,0a.58.58,0,0,1,.09.24c0,.13-.07,0,0,.17.13.81.23,1.59.4,2.4,0,0,0,0,0,0,.07.24.1.46.17.68a.2.2,0,0,1,0,.11A11.24,11.24,0,0,1,267,58.37Z"/><path class="cls-2" d="M287.88,72.92"/><path class="cls-1" d="M284.86,72.8a7.2,7.2,0,0,0,1,.06A6,6,0,0,0,284.86,72.8Z"/><path class="cls-1" d="M285.9,72.86h0Z"/><path class="cls-1" d="M360.89,70.7h0Z"/><path class="cls-1" d="M304.62,73l.06-.08c.92,0,.27.09,1.11.07.33-.11,1.41,0,1.7,0,0,0,.41,0,.38,0a3,3,0,0,1,.69,0c.09,0-.07,0-.14,0l.6,0c.23,0,.29.06,0,.06,1.57,0,9.09.08,10.78.05-.22,0-.74,0-.94-.09.45,0,.66,0,.85,0,.17.11,1,0,1.32.14l.13-.06.22,0a20.72,20.72,0,0,1,2.19,0c1,0,1.49-.09,2-.06-.08,0-.31,0,0-.05,0,.05.69,0,.82,0s1.08,0,.8-.07c.14,0,.88.05.44.08.25,0,.49,0,.67,0l-.32,0c.84,0,1.3,0,1.85,0l-.31,0a4.29,4.29,0,0,1,1.12.06l-.52,0c.83,0,1.34,0,2,0H332c.89-.07,5.52-.13,6.34-.22l-.38-.06.7,0c-.08,0-.34.18-.41.17,1.5,0,9.33,0,10.72,0,.56,0,.1.09.09.1.68,0,.29-.06.87-.06.16,0,0,0-.12.05a2.94,2.94,0,0,0,.51,0c-.32,0-.18-.09-.32-.14h.75l0,0a5.56,5.56,0,0,1,1.15-.1c1.24,0,2.58,0,3.82,0a2.42,2.42,0,0,1-.54.06c.17,0,.42,0,.57,0-.3,0,.52,0,.29-.05.91-.11,2.09,0,2.89-.08.07-.1,1.72-1.68,1.72-1.79h.57a4.42,4.42,0,0,0-.82,0l0,.06c-.6,0-.14,0-.73,0a3.47,3.47,0,0,1,1-.07,5.27,5.27,0,0,0-1,0c-.4,0,0-.06-.44-.08a10.21,10.21,0,0,1-1.19,0h0c-1-.05-1.47.08-2.35,0l.09,0c-.31,0-.92,0-1.48,0,.16,0,.3,0,0,.05-.64,0-1.08,0-1.56,0l-.45,0c-2.24,0-11.11.06-13.36.07h.09c-3.44,0-10.49,0-14,.09-.55,0-1.31,0-1.88-.05.32,0,.21.06,0,.05-1.75,0-.12,0-1.88.05-2,0-9.81,0-11.62,0-1,.07-2.18,0-3.13.06l.1,0c-1,0-6.79,0-8,0h.16a12.54,12.54,0,0,1-1.71-.06c.11.08-.78.13-1.12.13v0c-.51,0-1.66.08-2.5.09l0,0c-.7,0-2,0-2.52,0-1.15,0-2.93-.1-4.47,0l-1-.13h-.15s-1.6,1.53.43,1.85l0,0h.4c.48,0,.71,0,.67,0h-.66c.49,0,.15,0,0,.06l.56,0c.1,0-.07,0-.15,0a7.76,7.76,0,0,1,.94,0c.5,0,0,.07.61.08,3.06,0,6,.09,9.11.08.07,0,0,0-.1,0l2.61,0a1.52,1.52,0,0,1,.37.07C299.72,73,304.54,73,304.62,73Z"/><path class="cls-1" d="M3.21,68.6a8.18,8.18,0,0,0-.06,1.1A6.86,6.86,0,0,0,3.21,68.6Z"/><path class="cls-1" d="M3.15,69.7h0Z"/><path class="cls-1" d="M5.31,149.57c0-.1,0-.22,0-.34C5.31,149.35,5.31,149.46,5.31,149.57Z"/><path class="cls-1" d="M3,89.64l.08.06c0,1-.09.28-.07,1.19.11.35,0,1.5,0,1.81,0,0,0,.44,0,.41a3.41,3.41,0,0,1,0,.73c0,.1,0-.07,0-.15l0,.64c0,.25-.06.31-.06,0C3,96,3,104.06,3,105.85c0-.23,0-.79.09-1,0,.48,0,.7,0,.91-.11.18,0,1-.14,1.4l.06.14,0,.24c.06,2.09,0,.48,0,2.33,0,1.07.09,1.58.06,2.18,0-.09,0-.33.05,0-.05,0,0,.74,0,.88s0,1.15.07.86c0,.15-.05.94-.08.47,0,.27,0,.52,0,.71l0-.34c0,.9,0,1.38,0,2l0-.33a4.86,4.86,0,0,1-.06,1.19l0-.55c0,.89,0,1.42,0,2.17v-.26c.07.94.13,5.88.22,6.75l.06-.4,0,.75c0-.09-.18-.36-.17-.44,0,1.6,0,9.94,0,11.42,0,.6-.09.11-.1.1,0,.73.06.31.06.93,0,.17,0,0-.05-.13a3.34,3.34,0,0,0,0,.54c0-.34.09-.2.14-.34v.79l0,0a6.29,6.29,0,0,1,.1,1.23c0,1.32,0,2.75,0,4.07a2.75,2.75,0,0,1-.06-.58c0,.18,0,.45,0,.61,0-.32,0,.56.05.31.11,1,0,2.23.08,3.08.1.07,1.68,1.83,1.79,1.83,0,.27,0,.53,0,.61a5,5,0,0,0,0-.87l-.06,0c0-.64,0-.15,0-.77a3.92,3.92,0,0,1,.07,1,6,6,0,0,0,0-1.09c0-.43.06,0,.08-.47a11.6,11.6,0,0,1,0-1.27h0c.05-1-.08-1.57,0-2.5l0,.1c0-.33,0-1,0-1.58,0,.17,0,.32-.05,0,0-.69,0-1.15,0-1.66l0-.48c0-2.39-.06-11.83-.07-14.23v.09c0-3.66,0-11.17-.09-14.95,0-.58,0-1.39.05-2,0,.34-.06.22-.05,0,0-1.86,0-.13-.05-2,0-2.16,0-10.45,0-12.37-.07-1,0-2.32-.06-3.33l0,.1c0-1.09,0-7.23,0-8.5v.17a14.24,14.24,0,0,1,.06-1.82c-.08.11-.13-.83-.13-1.19H5c0-.54-.08-1.77-.09-2.67l0,0c0-.75,0-2.15,0-2.69,0-1.23.1-3.12,0-4.76L5.12,69v-.16s-1.53-1.71-1.85.46l0,0v.43c0,.51,0,.75,0,.72v-.7c0,.52,0,.16-.06,0,0,.22,0,.43,0,.6s0-.07,0-.16a8.82,8.82,0,0,1,0,1c0,.53-.07,0-.08.65,0,3.26-.09,6.41-.08,9.71,0,.07,0,0,0-.11,0,1,0,1.87,0,2.78a1.72,1.72,0,0,1-.07.39C3,84.42,3,89.56,3,89.64Z"/><path class="cls-1" d="M356.61,68.6a8.19,8.19,0,0,0-.06,1.1A6.83,6.83,0,0,0,356.61,68.6Z"/><path class="cls-1" d="M356.55,69.7h0Z"/><path class="cls-1" d="M358.71,149.57c0-.1,0-.22,0-.34C358.71,149.35,358.71,149.46,358.71,149.57Z"/><path class="cls-1" d="M356.41,89.64l.08.06c0,1-.09.28-.07,1.19.11.35,0,1.5,0,1.81,0,0,0,.44,0,.41a3.41,3.41,0,0,1,0,.73c0,.1,0-.07,0-.15l0,.64c0,.25-.06.31-.06,0,0,1.67-.08,9.68-.05,11.48,0-.23,0-.79.09-1,0,.48,0,.7,0,.91-.11.18,0,1-.14,1.4l.06.14,0,.24c.06,2.09,0,.48,0,2.33,0,1.07.09,1.58.06,2.18,0-.09,0-.33.05,0-.05,0,0,.74,0,.88s0,1.15.07.86c0,.15-.05.94-.08.47,0,.27,0,.52,0,.71l0-.34c0,.9,0,1.38,0,2l0-.33a4.85,4.85,0,0,1-.06,1.19l0-.55c0,.89,0,1.42,0,2.17v-.26c.07.94.13,5.88.22,6.75l.06-.4,0,.75c0-.09-.18-.36-.17-.44,0,1.6,0,9.94,0,11.42,0,.6-.09.11-.1.1,0,.73.06.31.06.93,0,.17,0,0-.05-.13a3.32,3.32,0,0,0,0,.54c0-.34.09-.2.14-.34v.79l0,0a6.25,6.25,0,0,1,.1,1.23c0,1.32,0,2.75,0,4.07a2.71,2.71,0,0,1-.06-.58c0,.18,0,.45,0,.61,0-.32,0,.56.05.31.11,1,0,2.23.08,3.08.1.07,1.67,1.83,1.79,1.83,0,.27,0,.53,0,.61a5,5,0,0,0,0-.87l-.06,0c0-.64,0-.15,0-.77a3.93,3.93,0,0,1,.07,1,6,6,0,0,0,0-1.09c0-.43.06,0,.08-.47a11.48,11.48,0,0,1,0-1.27h0c.05-1-.08-1.57,0-2.5l0,.1c0-.33,0-1,0-1.58,0,.17,0,.32-.05,0,0-.69,0-1.15,0-1.66l0-.48c0-2.39-.06-11.83-.07-14.23v.09c0-3.66,0-11.17-.09-14.95,0-.58,0-1.39.05-2,0,.34-.06.22-.05,0,0-1.86,0-.13-.06-2,0-2.16,0-10.45,0-12.37-.07-1,0-2.32-.06-3.33l0,.1c0-1.09,0-7.23,0-8.5v.17a14.23,14.23,0,0,1,.06-1.82c-.08.11-.13-.83-.13-1.19h0c0-.54-.08-1.77-.09-2.67l0,0c0-.75,0-2.15,0-2.69,0-1.23.1-3.12,0-4.76l.13-1.06v-.16s-1.53-1.71-1.85.46l0,0v.43c0,.51,0,.75,0,.72v-.7c0,.52,0,.16-.06,0,0,.22,0,.43,0,.6s0-.07,0-.16a8.77,8.77,0,0,1,0,1c0,.53-.07,0-.08.65,0,3.26-.09,6.41-.08,9.71,0,.07,0,0,0-.11,0,1,0,1.87,0,2.78a1.73,1.73,0,0,1-.07.39C356.42,84.42,356.42,89.56,356.41,89.64Z"/><path class="cls-3" d="M138.81,50.88c.06.1,4-2.45,4.08-2.35s-4.06,4.43-4,4.56,3.94-2.41,4-2.31S139,54.29,139,54.4s3.81-2.33,3.87-2.23-3.25,3.1-3.19,3.2,3.15-1.93,3.2-1.85"/><path class="cls-3" d="M144,47.19c.07.11,4.46-2.73,4.53-2.61s-.5,2.2-.47,2.25,2.8-1.71,2.84-1.64-1.24,2-1.21,2,2.19-1.34,2.22-1.28-2.93,4-2.86,4.06,4.11-2.51,4.17-2.41-5.51,5.35-5.42,5.52,5.42-3.31,5.5-3.17-4.2,3.68-4.13,3.8,3.52-2.15,3.57-2.06"/><path class="cls-3" d="M129.81,42.76c0,.05,2-1.21,2-1.16s-3.08,3.35-3,3.45,6.31-3.86,6.4-3.7-5.9,5.7-5.8,5.88,3.68-2.25,3.73-2.15-1.41,2.87-1.37,2.94,3.44-2.1,3.49-2-1.07,2-1,2.09c.12.22,8.5-5.2,8.63-5S129,52.68,129.18,53s13.74-8.4,13.94-8-12.93,9.45-12.73,9.79,12.43-7.6,12.61-7.28"/><path class="cls-3" d="M144,41.84c.11.19,7.61-4.65,7.72-4.46s-4.74,4-4.66,4.11,4.38-2.68,4.45-2.57"/><path class="cls-3" d="M144,37c.1.17,6.88-4.21,7-4s-3.7,4.42-3.62,4.55,3.29-2,3.34-1.93S147,38.93,147,39s4.37-2.67,4.43-2.56"/><path class="cls-3" d="M142.83,28.94s1.82-1.11,1.85-1.07-3.25,3.9-3.18,4,4.24-2.59,4.3-2.48-2.68,3.66-2.62,3.76.76-.46.77-.44"/><path class="cls-3" d="M145.42,31.8c.07.12,4.69-2.86,4.75-2.74s-2.1,3-2.05,3.08,4.77-2.92,4.84-2.8-5.47,4.28-5.38,4.43,5.55-3.39,5.63-3.25"/><path class="cls-3" d="M128.59,37.14s1.3-.79,1.32-.76-.58,1.9-.56,1.94,4-2.43,4-2.33-.55,2.32-.52,2.37,5-3,5.05-2.92-.28,2.26-.25,2.31,4.75-2.9,4.82-2.78-3.64,4.13-3.57,4.25c.18.31,12.31-7.52,12.49-7.21s-17,10.58-16.79,11c.12.2,7.91-4.84,8-4.63s-5,4.11-4.93,4.25,4.89-3,5-2.86-3.83,4.52-3.75,4.65c.18.32,12.58-7.69,12.77-7.37"/><path class="cls-3" d="M137.4,31.53s2-1.2,2-1.15"/><path class="cls-3" d="M132.32,31.19c0,.07,2.9-1.78,2.95-1.7S133,33.06,133,33.15s5.94-3.63,6-3.48-5.54,4.87-5.45,5,2.92-1.79,3-1.71"/><path class="cls-3" d="M129.62,28.94s1.9-1.16,1.93-1.11-3.86,4.16-3.79,4.28,5-3,5-2.91-4.51,4.22-4.43,4.35,3.1-1.9,3.15-1.82"/><path class="cls-3" d="M135.17,43.44s1.9-1.16,1.93-1.11,1.25.9,1.27.93.81-.5.82-.48-.84,2-.81,2,.92-.56.94-.54"/><path class="cls-3" d="M133.21,43.49s1.48-.9,1.5-.87-2.07,2.49-2,2.56,1.1-.67,1.11-.64.85,1.86.88,1.91,1.92-1.17,1.95-1.12,1.3.72,1.31.75,1.28-.79,1.3-.75"/><path class="cls-3" d="M144.12,37.46s1.95-1.19,2-1.14.53,2.05.56,2.1,1.06-.65,1.07-.62"/><path class="cls-3" d="M142.38,37.44s1.43-.87,1.45-.84-1.59,3-1.55,3,.92-.56.93-.54,1.73,1.17,1.76,1.22,2.48-1.51,2.51-1.45"/><path class="cls-3" d="M137.64,32c0,.06,2.21-1.35,2.24-1.29"/><path class="cls-3" d="M131.77,28.19s1-.59,1-.56-.37,1.75-.35,1.79.95-.58,1-.56,1.71,1,1.73,1,2-1.21,2-1.16,1.45,1,1.47,1,.8-.49.82-.47"/><path class="cls-3" d="M135.91,32s1.45-.89,1.47-.85-1.18,1.93-1.15,2,.76-.47.78-.45-.21,2-.18,2.06.77-.47.78-.45.16,1.47.18,1.5,1.66-1,1.69-1,2.79.5,2.82.57,1.9-1.16,1.93-1.11,2.13.6,2.16.65,1.48-.91,1.5-.87"/><path class="cls-3" d="M145.63,32.27c0,.05,2-1.23,2-1.18s-.54,2.28-.51,2.33,1.13-.69,1.15-.66"/><path class="cls-3" d="M142.52,28.55s2-1.2,2-1.15-3.52,3.94-3.45,4.06,1.23-.75,1.24-.72-.7,2.11-.67,2.16,1-.61,1-.58.53,1.56.55,1.6,1-.62,1-.6"/><path class="cls-3" d="M144.73,28.27s1-.62,1-.59-.32,1.91-.3,2,1-.63,1-.6,1.74.62,1.77.66,2-1.2,2-1.15,2.18.81,2.21.86.8-.49.81-.47-2.51,3.42-2.45,3.51,2.74-1.68,2.78-1.61-3.69,3.46-3.63,3.57,1.27-.77,1.28-.74-.51,2.4-.48,2.45.76-.46.77-.45-.2,1.65-.18,1.69.78-.48.79-.46-1.46,2.82-1.42,2.89S152,39,152,39"/><path class="cls-3" d="M144.06,42.39c0,.05,2-1.21,2-1.16s1.28.72,1.3.76,2.21-1.35,2.24-1.29"/><path class="cls-3" d="M142.49,42.24s1.3-.79,1.32-.76-1.3,3.18-1.25,3.26.85-.52.86-.5l.57,1.17s1.83-1.12,1.86-1.07,1.59.65,1.62.69,1.59-1,1.62-.93l.9,1.07s1-.59,1-.56.32,1.23.34,1.25.81-.5.82-.47.32,1.53.34,1.56.75-.46.76-.44-.11,2.28-.08,2.33.89-.54.9-.52-1.43,2.6-1.39,2.66,1.1-.67,1.11-.64-1.85,2.37-1.81,2.44,1.21-.74,1.23-.71"/><path class="cls-3" d="M144.1,47.73S146,46.59,146,46.64s2.78.57,2.82.63,1.1-.67,1.12-.64-.88,1.85-.85,1.9,1-.59,1-.57-4.08,3.56-4,3.67,3.61-2.21,3.67-2.12-2.94,3.56-2.88,3.66.93-.57.94-.54l1.08,1.46s.93-.57.94-.54.89,1,.9,1,1.81-1.11,1.84-1.06"/><path class="cls-3" d="M142.57,47.56s1.26-.77,1.28-.74-1.37,2.68-1.34,2.75.89-.55.91-.52-.92,1.78-.9,1.83.89-.54.9-.52-.92,2.85-.88,2.92.87-.53.88-.51"/><path class="cls-3" d="M138.41,51.74s.87-.53.88-.51-.91,2.16-.88,2.21.87-.53.88-.51-.21,2.57-.17,2.63.82-.5.83-.48,1,1.09,1,1.12,1.94-1.19,2-1.14"/><path class="cls-3" d="M136.39,51.84c0,.06,2.46-1.5,2.49-1.44"/><path class="cls-3" d="M129.47,42.38c0,.05,2.12-1.3,2.15-1.24s-3.51,4.32-3.44,4.44,1-.63,1-.6-.38,2.49-.34,2.54.82-.5.84-.48l.77,1.19s1.09-.67,1.1-.64,2.28.9,2.31,1,.87-.53.89-.51c.1.18-6.32,5.43-6.21,5.61s6.67-4.07,6.76-3.9-5.75,5.12-5.65,5.29.94-.57,1-.55,1.41,1,1.44,1,3.72-2.27,3.78-2.18"/><path class="cls-3" d="M132,41.95s1.53-.93,1.55-.9,2.9.42,2.94.48,2.82-1.72,2.86-1.65"/><path class="cls-3" d="M128.2,36.76s1.49-.91,1.51-.87-1.07,2.44-1,2.49.81-.5.82-.47,1.73,1.1,1.75,1.15,1.93-1.18,2-1.13,3.48.31,3.53.39,1.74-1.07,1.77-1-.12,1.8-.1,1.84.9-.55.91-.53"/><path class="cls-3" d="M130,36.76c0,.05,2-1.21,2-1.16s.82.82.84.84,1.42-.87,1.44-.83"/><path class="cls-3" d="M132.13,32.1s.76-.47.77-.45-.38,1.52-.36,1.55.76-.47.77-.45-.2,2-.17,2.08.76-.47.77-.45"/><path class="cls-3" d="M131.32,31.29s1-.6,1-.58"/><path class="cls-3" d="M129.31,28.55c0,.05,2-1.25,2.07-1.2s-4.12,4.3-4,4.43,1.54-.94,1.56-.9-1.45,2.54-1.41,2.61.74-.45.75-.43l.51,1.1c0,.07,2.92-1.78,3-1.71"/><path class="cls-3" d="M215,49.46c.06.1,3.88-2.37,3.94-2.27s-2.11,3-2.06,3.06,3.59-2.2,3.65-2.1-3.85,3.68-3.78,3.8,3.44-2.1,3.49-2"/><path class="cls-3" d="M210.92,48.22s1.82-1.11,1.85-1.07-2.19,2.75-2.15,2.83,7.51-4.59,7.62-4.4-7.61,6.38-7.49,6.6,2.84-1.74,2.88-1.66-2.81,3.18-2.75,3.27,2.67-1.63,2.71-1.56-2,2.79-1.94,2.86,4.25-2.6,4.32-2.49-1.77,2.84-1.73,2.92,5.61-3.43,5.69-3.28-2.47,3.1-2.42,3.18,1.86-1.14,1.89-1.09"/><path class="cls-3" d="M211.55,39.1s1.63-1,1.65-1-1.29,2-1.26,2,4.82-2.95,4.89-2.82-1.6,3-1.56,3.08,4-2.47,4.1-2.37-4.67,3.94-4.59,4.08,4.67-2.85,4.74-2.73-5.89,5.31-5.79,5.48,2.91-1.78,2.95-1.7-.73,2.89-.69,3,2.35-1.44,2.39-1.38"/><path class="cls-3" d="M228,48.15c.09.15,5.83-3.56,5.92-3.42s-1.11,2.89-1.07,3,3.35-2,3.39-2-3.32,3.86-3.26,4,4.29-2.62,4.36-2.52-4.69,4-4.62,4.18,4.74-2.9,4.81-2.78"/><path class="cls-3" d="M222.83,46.64s1.8-1.1,1.82-1.05-2.15,3.19-2.1,3.27,9.08-5.55,9.21-5.32-9.26,7-9.12,7.26,10.42-6.37,10.57-6.1-10.64,8-10.47,8.26c.06.1,3.85-2.35,3.91-2.26s-3.7,3.63-3.64,3.74,3.72-2.28,3.78-2.18-1.38,3.22-1.33,3.29,6-3.65,6.06-3.5-3,3.27-3,3.37,8.57-5.23,8.69-5-4.13,4.69-4.05,4.83,3.62-2.21,3.67-2.12"/><path class="cls-3" d="M233,40.86c.06.11,4.28-2.62,4.34-2.51"/><path class="cls-3" d="M221.05,39.73s1.55-.95,1.58-.91-1.2,2.13-1.17,2.18,4.75-2.9,4.82-2.78-3.14,3.49-3.09,3.6,8.51-5.2,8.63-5-5.24,4.53-5.15,4.68,8-4.87,8.09-4.67-7.5,6.49-7.38,6.7,9.53-5.83,9.67-5.59"/><path class="cls-3" d="M233.22,32.13c0,.06,2.33-1.42,2.36-1.36"/><path class="cls-3" d="M210.33,33.11s1.51-.92,1.53-.89-.52,2.49-.49,2.54,6.28-3.84,6.37-3.68-3.32,3.41-3.26,3.52,6-3.68,6.11-3.53-.78,2.86-.75,2.92,7.07-4.32,7.18-4.14S223,34,223,34.09s9.71-5.93,9.85-5.69-5.38,5.34-5.29,5.51,7.39-4.52,7.5-4.33-7.67,6.28-7.55,6.5,4.21-2.57,4.27-2.46-4.37,3.72-4.3,3.84,4.22-2.58,4.29-2.47"/><path class="cls-3" d="M214.07,28.67s1.55-.95,1.57-.91-1.93,3-1.88,3.07,3.47-2.12,3.52-2"/><path class="cls-3" d="M228,48.66s1.87-1.14,1.9-1.1,2.38.58,2.41.64,1-.63,1.05-.61-1.08,2.52-1,2.58,1-.61,1-.58"/><path class="cls-3" d="M226.37,48.6s1.38-.84,1.4-.81-1.54,2.55-1.5,2.62.89-.54.9-.52-.82,2.29-.79,2.34.81-.5.83-.48,1.09,1,1.11,1,1.78-1.09,1.81-1,1.5.69,1.52.72,1.32-.81,1.34-.77"/><path class="cls-3" d="M215.14,50s1.67-1,1.7-1-.54,1.73-.51,1.77,1-.58,1-.56"/><path class="cls-3" d="M213.36,50s1.46-.89,1.48-.86-1.6,3.32-1.55,3.4.85-.52.86-.5,1.09,1,1.11,1.06,1.87-1.14,1.89-1.09"/><path class="cls-3" d="M213.44,38.49c0,.06,2.47-1.51,2.5-1.45s2.51.7,2.55.76.83-.51.84-.49-.12,1.63-.1,1.67.82-.5.83-.48-4,4.33-3.93,4.45,2-1.24,2.06-1.19-1,2.07-1,2.12.84-.51.85-.49-.06,1.38,0,1.41.77-.47.78-.45-.68,2.74-.64,2.8.88-.54.89-.51.44,1.29.46,1.32.87-.53.88-.51-.51,2.25-.48,2.3,1.27-.77,1.29-.74-1.68,3.08-1.64,3.15,1-.59,1-.56S219.06,54,219.09,54s1.14-.7,1.16-.67"/><path class="cls-3" d="M210.57,47.83c0,.05,2-1.21,2-1.16s-2.5,3.27-2.44,3.36.84-.51.85-.49-.79,1.91-.77,2,.84-.51.85-.49-.77,2.3-.74,2.35.84-.51.85-.49-.35,2.09-.33,2.14.75-.46.76-.44l1,1.44s1.48-.91,1.5-.87,2.42.75,2.46.81,3.44-2.1,3.49-2"/><path class="cls-3" d="M212.89,47.52c0,.05,2-1.21,2-1.16"/><path class="cls-3" d="M211.11,38.74s1.78-1.09,1.8-1-1.76,2.32-1.72,2.39.76-.46.77-.44.07,1.26.09,1.28.92-.56.93-.54,1,.82,1,.84,2.17-1.33,2.21-1.27-2.81,2.95-2.76,3,2.36-1.45,2.4-1.39-2.58,3.35-2.53,3.44.74-.45.75-.43.58,1.43.6,1.46.93-.57.94-.54"/><path class="cls-3" d="M233.31,32.63c0,.07,2.68-1.64,2.72-1.57"/><path class="cls-3" d="M215.81,28.19s1-.59,1-.56.3,1.91.32,2,.75-.46.77-.44,0,2.36.08,2.41,2-1.22,2-1.17,1.45,1.31,1.47,1.35S224.34,30,224.38,30s4.27-.34,4.32-.25,3-1.84,3.06-1.77,1.79.86,1.82.9.93-.57.94-.54.14,1.27.16,1.3.77-.47.78-.45-.28,1.5-.26,1.53.83-.51.84-.48"/><path class="cls-3" d="M231.54,32.68s1.6-1,1.62-.94-1.78,2.8-1.73,2.87.9-.55.91-.52-.87,2.78-.83,2.85.84-.51.85-.49,1.86.81,1.88.86,1.55-.94,1.57-.91.34,1.11.35,1.13.82-.5.83-.48-.07,2.3,0,2.35.92-.56.93-.54"/><path class="cls-3" d="M233,41.4s1.93-1.18,2-1.13"/><path class="cls-3" d="M231.47,41.29s1.38-.84,1.4-.81-1.53,2.11-1.49,2.17.92-.56.93-.54-.72,2.52-.69,2.58.94-.57.95-.55l.85.94s1.19-.73,1.21-.7,1.12,1.44,1.14,1.48.8-.49.81-.47.47,2.22.5,2.27.78-.48.79-.46-1,2.55-.92,2.61,1-.58,1-.56-1.28,2.44-1.24,2.5,1-.58,1-.56-1.47,2.55-1.43,2.61,1.14-.7,1.16-.67"/><path class="cls-3" d="M222.48,46.25s2-1.2,2-1.15S222,48.75,222,48.84s.86-.52.87-.5-.81,2.48-.77,2.54.84-.52.86-.49-.78,2.84-.74,2.9.85-.52.86-.5-.11,2.54-.08,2.59.82-.5.84-.48,1.21,1.14,1.23,1.17,1.62-1,1.64-.95,1.82.76,1.84.81,1.62-1,1.64-.95,1.1.81,1.12.84,1.62-1,1.64-.95,1.82.72,1.84.76,2-1.24,2.05-1.18"/><path class="cls-3" d="M224.78,46c0,.07,2.94-1.79,3-1.72"/><path class="cls-3" d="M220.62,39.36s1.72-1,1.74-1S220.79,41,220.83,41s.75-.46.76-.44.61,1.51.63,1.55,1.15-.7,1.16-.67,2.3.56,2.33.61,1.51-.93,1.54-.89-.46,2.24-.43,2.29.94-.58,1-.55"/><path class="cls-3" d="M222.74,39.19c0,.05,2.16-1.32,2.19-1.27s1.31.65,1.33.68,1.53-.94,1.56-.9"/><path class="cls-3" d="M212,32.59c0,.05,2.08-1.27,2.11-1.22"/><path class="cls-3" d="M209.95,32.72s1.65-1,1.67-1-1.27,2.9-1.23,3,.81-.5.83-.48l.91,1.11S214,34.23,214,34.28s3.41.42,3.46.5,1.88-1.15,1.91-1.1,2.08.68,2.11.72,1-.6,1-.58,4.07,0,4.12.08,1.15-.7,1.17-.67-.75,2.5-.71,2.56.91-.56.93-.54-1,1.91-.93,2,.89-.54.9-.52"/><path class="cls-3" d="M213.65,28.38s1.87-1.14,1.9-1.1-2.32,3.21-2.27,3.29.9-.55.91-.53"/><path class="cls-3" d="M164.67,7.41c0,.05,2-1.22,2-1.17s-2,3.1-2,3.18,8.2-5,8.32-4.8-7.89,6.38-7.76,6.6S179.39,2.6,179.59,3s-14.09,9.33-13.87,9.7,18.82-11.5,19.1-11-18.78,12.49-18.5,13S188.78.88,189.11,1.45,166.72,16,167.05,16.59s22.12-13.52,22.44-13-21.38,13.31-21.07,13.85S189.19,4.8,189.49,5.32,172.8,16,173,16.4s16.21-9.91,16.45-9.5S175.68,16.67,175.89,17s13.4-8.19,13.6-7.85-13.8,8.94-13.6,9.3,13.4-8.19,13.6-7.85-13.8,8.95-13.6,9.3,13.4-8.19,13.6-7.85-13.8,9.16-13.6,9.52,13.4-8.19,13.6-7.85-13.8,9.19-13.6,9.55,13.4-8.19,13.6-7.85-13.8,8.94-13.6,9.3,13.4-8.19,13.6-7.85-13.81,9.46-13.6,9.83,13.4-8.19,13.6-7.85-13.8,8.93-13.6,9.28,13.4-8.19,13.6-7.85-13.81,9.9-13.6,10.27,13.4-8.19,13.6-7.85-13.8,9.22-13.6,9.58,13.4-8.19,13.6-7.85-13.81,9.47-13.6,9.83,13.4-8.19,13.6-7.85-13.8,9-13.6,9.31,13.4-8.19,13.6-7.85-13.81,10-13.6,10.34,13.4-8.19,13.6-7.85-13.81,9.71-13.6,10.07,13.4-8.19,13.6-7.85-13.81,9.6-13.6,10,13.4-8.19,13.6-7.85-13.8,8.86-13.6,9.21,13.4-8.19,13.6-7.85-13.81,9.7-13.6,10.07,13.4-8.19,13.6-7.85-13.8,9.26-13.6,9.62,13.4-8.19,13.6-7.85-13.81,10-13.6,10.35,13.4-8.19,13.6-7.85-13.8,9.14-13.6,9.5,13.4-8.19,13.6-7.85-13.8,9.13-13.6,9.48,13.4-8.19,13.6-7.85-13.31,9.33-13.11,9.69S189.3,47.66,189.49,48s-10.89,8-10.72,8.32,10.56-6.46,10.72-6.19-7.65,6-7.53,6.19,7.42-4.54,7.53-4.35-4,4.22-4,4.35,3.9-2.39,4-2.29"/><path class="cls-3" d="M167,6.59c0,.07,2.78-1.7,2.82-1.63s4.34-.31,4.4-.21S177,3.06,177,3.13s4-.2,4-.11,2.78-1.7,2.82-1.63,3.17,0,3.21.09,1.55-.95,1.58-.91.38,1.63.4,1.66.76-.47.78-.45-.77,2.14-.74,2.19.87-.53.88-.51-.91,2.35-.88,2.41.87-.53.88-.51-.91,2.34-.88,2.39.87-.53.88-.51-.92,3-.88,3.07.87-.53.88-.51-.92,2.53-.88,2.59.87-.53.88-.51-.91,1.85-.88,1.9.87-.53.88-.51-.91,2.07-.88,2.12.87-.53.88-.51-.92,2.67-.88,2.73.87-.53.88-.51-.92,2.78-.88,2.85.87-.53.88-.51-.91,2.42-.88,2.47.87-.53.88-.51-.91,2.48-.88,2.54.87-.53.88-.51-.91,2.14-.88,2.19.87-.53.88-.51-.92,2.62-.88,2.68.87-.53.88-.51-.91,2.13-.88,2.18.87-.53.88-.51-.91,1.92-.88,2,.87-.53.88-.51-.92,2.61-.88,2.67.87-.53.88-.51-.91,1.9-.88,1.94.87-.53.88-.51-.91,2.44-.88,2.5.87-.53.88-.51-.92,2.74-.88,2.81.87-.53.88-.51-.91,2-.88,2.1.87-.53.88-.51-.91,1.84-.88,1.89.87-.53.88-.51-.91,2-.88,2,.87-.53.88-.51-.92,2.6-.88,2.66.87-.53.88-.51-.92,3-.88,3.05.87-.53.88-.51-.91,2.17-.88,2.22.87-.53.88-.51-.91,2-.88,2,.87-.53.88-.51-.91,1.87-.88,1.91.87-.53.88-.51-1.08,2.78-1,2.85,1-.62,1-.59"/><path class="cls-3" d="M164.33,7.06c0,.05,2.15-1.31,2.18-1.26s-2.41,3.32-2.35,3.41.77-.47.78-.45-.26,2.2-.23,2.25.77-.47.78-.45-.36,1.84-.34,1.88.77-.47.78-.45-.21,2.35-.18,2.4.77-.47.78-.45-.15,2.42-.12,2.47.74-.45.75-.43.17,1.55.19,1.58.9-.55.91-.53,1.32.77,1.34.8,3-1.83,3-1.76,2.65.67,2.69.73.94-.58,1-.55-1,1.95-1,2,.94-.57,1-.55-1,2-.95,2,.94-.57.95-.55-1,2.16-.95,2.21.93-.57.95-.55-1,2.19-.94,2.25.93-.57.94-.54-1,1.94-.94,2,.93-.57.94-.54-1,2.46-.94,2.52.92-.56.94-.54-1,1.93-.93,2,.92-.56.93-.54-1,2.89-.93,3,.92-.56.93-.54-1,2.21-.93,2.26.91-.56.93-.53-1,2.46-.92,2.52.91-.56.92-.53-.95,1.94-.92,2,.91-.55.92-.53-1,2.95-.91,3,.9-.55.91-.53-.95,2.69-.91,2.75.9-.55.91-.53-.94,2.58-.91,2.64.89-.55.91-.52-.93,1.84-.9,1.88.89-.54.9-.52-.94,2.67-.9,2.73.89-.54.9-.52-.93,2.24-.9,2.29.88-.54.9-.52-.93,2.95-.89,3,.88-.54.89-.51-.92,2.11-.89,2.17.87-.53.89-.51-.91,2.1-.88,2.15.87-.53.88-.51-.64,2.42-.61,2.47.77-.47.78-.45.74,1.65.76,1.69,1.29-.79,1.31-.76,1.64.84,1.66.88,1.5-.92,1.53-.88,2,.83,2,.88,1.5-.92,1.53-.88,1.54.84,1.56.88,2.91-1.78,2.95-1.7"/></g></g></svg>