<svg xmlns="http://www.w3.org/2000/svg" width="361.18" height="152" viewBox="0 0 361.18 152">  <defs>    <style>      .a {        fill: #1b3f86;      }      .b, .c, .d {        fill: none;      }      .b {        stroke: #25478b;        stroke-miterlimit: 10;        stroke-width: 0.1px;      }      .c, .d {        stroke: #0098f5;        stroke-linecap: round;        stroke-linejoin: round;      }      .c {        stroke-width: 0.8px;      }      .d {        stroke-width: 1.1px;      }    </style>  </defs>  <title>アセット 7</title>  <g>    <g>      <g>        <path class="a" d="M1.56,149.05c1.12,0,3,.05,4.86.06C5,149.07,3.53,149,1.56,149.05Z"/>        <path class="a" d="M6.45,149.11h0Z"/>        <path class="a" d="M359.83,147h0Z"/>        <path class="a" d="M94.67,149.25l.28-.08c4.32,0,1.26.09,5.25.07,1.56-.11,6.64,0,8,0,0,0,1.92,0,1.8,0,.6-.06,2,0,3.25,0,.45,0-.33,0-.66,0l2.83,0c1.1,0,1.38.06.18.06,7.39,0,42.84.08,50.8.05-1,0-3.48,0-4.41-.09,2.1,0,3.1,0,4,0,.81.11,4.62,0,6.22.14l.6-.06,1,0c9.25-.06,2.11,0,10.31,0,4.75,0,7-.09,9.64-.06-.39,0-1.44,0-.21-.05.21.05,3.27,0,3.87,0,1.2,0,5.11,0,3.79-.07.66,0,4.14.05,2.07.08,1.17,0,2.31,0,3.16,0l-1.51,0c4,0,6.13,0,8.71,0l-1.47,0c2.37,0,4.35,0,5.29.06l-2.43,0c3.93,0,6.3,0,9.58,0h-1.17c4.18-.07,26-.13,29.87-.22l-1.77-.06,3.31,0c-.39,0-1.6.18-1.92.17,7.09,0,44,0,50.52,0,2.64,0,.48.09.45.1,3.21,0,1.39-.06,4.12-.06.75,0-.15,0-.57.05,1.2,0,2.31,0,2.4,0a6,6,0,0,1-1.5-.14h3.52l-.16,0c.78,0,2-.12,5.44-.1,5.83,0,12.16,0,18,0-.09,0-1.32,0-2.55.06.79,0,2,0,2.71,0-1.42,0,2.46,0,1.35-.05,4.29-.11,9.84,0,13.63-.08.33-.1,8.11-1.68,8.11-1.79h2.71c-.3,0-2.62,0-3.84,0l-.21.06c-2.83,0-.66,0-3.42,0-.15-.05,2.39-.06,4.63-.07-2,0-4,0-4.84,0-1.89,0,.21-.06-2.07-.08-1.62,0-3.76.06-5.62,0h0c-4.53-.05-6.94.08-11.08,0l.45,0c-1.46,0-4.35,0-7,0,.75,0,1.41,0-.18.05-3,0-5.11,0-7.33,0l-2.13,0c-10.58,0-52.35.06-63,.07H256c-16.19,0-49.42,0-66.15.09-2.59,0-6.16,0-8.86-.05,1.5,0,1,.06-.18.05-8.23,0-.56,0-8.87.05-9.58,0-46.23,0-54.74,0-4.57.07-10.27,0-14.74.06l.45,0c-4.81,0-32,0-37.59,0h.75c-4.87,0-4.21,0-8-.06.5.08-3.67.13-5.26.13l.06,0c-2.4,0-7.84.08-11.8.09l.15,0c-3.31,0-9.52,0-11.9,0-5.43,0-13.81-.1-21.08,0l-4.69-.13H2.83s-7.56,1.53,2,1.85l-.15,0h1.9c2.28,0,3.33,0,3.17,0H6.67c2.29,0,.69,0-.18.06l2.64,0c.45,0-.33,0-.69,0,1.23,0,2.94-.06,4.44,0,2.34,0,.15.07,2.88.08,14.41,0,28.38.09,42.94.08.33,0-.06,0-.48,0l12.29,0c1.11,0,1.41,0,1.74.07C71.59,149.25,94.31,149.24,94.67,149.25Z"/>      </g>      <g>        <path class="a" d="M1.25,74.92C2.1,75,3.57,75,5,75,3.89,74.94,2.75,74.92,1.25,74.92Z"/>        <path class="a" d="M5,75H5Z"/>        <path class="a" d="M274.49,72.82h0Z"/>        <path class="a" d="M72.26,75.12l.21-.08c3.3,0,1,.09,4,.07,1.19-.11,5.06,0,6.11,0,0,0,1.47,0,1.37,0,.46-.06,1.53,0,2.48,0,.34,0-.25,0-.5,0l2.16,0c.84,0,1.05.06.13.06,5.63,0,32.68.08,38.74.05-.78,0-2.65,0-3.36-.09,1.6,0,2.36,0,3.07,0,.62.11,3.53,0,4.74.14l.46-.06.8,0c7.06-.06,1.61,0,7.87,0,3.62,0,5.34-.09,7.35-.06-.3,0-1.1,0-.16-.05.16.05,2.5,0,3,0,.92,0,3.89,0,2.89-.07.5,0,3.16.05,1.58.08.9,0,1.76,0,2.41,0l-1.15,0c3,0,4.67,0,6.64,0l-1.12,0c1.81,0,3.32,0,4,.06l-1.86,0c3,0,4.81,0,7.31,0h-.89c3.18-.07,19.84-.13,22.78-.22L192,74.71l2.52,0c-.3,0-1.22.18-1.47.17,5.41,0,33.53,0,38.53,0,2,0,.36.09.34.1,2.45,0,1.06-.06,3.14-.06.57,0-.12,0-.44.05.91,0,1.76,0,1.83,0a3.54,3.54,0,0,1-1.14-.14H238l-.12,0c.6,0,1.52-.12,4.15-.1,4.44,0,9.27,0,13.74,0-.07,0-1,0-1.95.06.6,0,1.51,0,2.06,0-1.08,0,1.88,0,1-.05,3.27-.11,7.51,0,10.4-.08.25-.1,6.19-1.68,6.19-1.79h2.06c-.23,0-2,0-2.93,0l-.16.06c-2.16,0-.51,0-2.61,0-.11-.05,1.82-.06,3.53-.07-1.54,0-3.07,0-3.69,0-1.44,0,.16-.06-1.58-.08-1.24,0-2.86.06-4.29,0h0c-3.46-.05-5.29.08-8.45,0l.34,0c-1.12,0-3.32,0-5.33,0,.57,0,1.07,0-.14.05-2.32,0-3.9,0-5.59,0l-1.63,0c-8.07,0-39.93.06-48,.07h.32c-12.35,0-37.69,0-50.45.09-2,0-4.7,0-6.75-.05,1.15,0,.75.06-.14.05-6.27,0-.42,0-6.77.05-7.31,0-35.26,0-41.75,0-3.48.07-7.83,0-11.24.06l.34,0c-3.67,0-24.41,0-28.67,0h.57c-3.71,0-3.21,0-6.14-.06a38.28,38.28,0,0,1-4,.13l0,0c-1.83,0-6,.08-9,.09l.12,0c-2.52,0-7.26,0-9.07,0-4.14,0-10.53-.1-16.08,0L2.74,73H2.22s-5.76,1.53,1.55,1.85l-.12,0H5.1c1.74,0,2.54,0,2.42,0H5.14c1.74,0,.53,0-.14.06l2,0c.34,0-.25,0-.52,0,.94,0,2.24-.06,3.39,0,1.79,0,.11.07,2.2.08,11,0,21.64.09,32.75.08.25,0,0,0-.37,0l9.37,0c.85,0,1.08,0,1.33.07C54.66,75.12,72,75.11,72.26,75.12Z"/>      </g>      <path class="b" d="M271.11,75"/>      <g>        <path class="a" d="M288.44,74.25a1.06,1.06,0,0,0-.25-.3A.9.9,0,0,0,288.44,74.25Z"/>        <polygon class="a" points="288.19 73.95 288.19 73.95 288.19 73.95 288.19 73.95"/>        <path class="a" d="M265.6,56.8l.09.08Z"/>        <path class="a" d="M283,69.16l-.07,0c-.26-.23,0-.14-.27-.33-.17,0-.39-.36-.51-.39s-.11-.11-.08-.13-.13-.1-.21-.15,0,0,0,.06l-.18-.13c-.05-.07,0-.11,0-.06-.43-.41-2.51-2.34-3-2.74,0,.09.2.2.21.3-.15-.08-.18-.18-.26-.19s-.26-.26-.28-.43h-.08l0-.08a3,3,0,0,1-.63-.54,7.18,7.18,0,0,1-.62-.46s.06.11,0,.05-.22-.14-.22-.22-.31-.27-.28-.15c0-.06-.21-.26-.07-.17a1.13,1.13,0,0,0-.19-.17l.08.1c-.24-.2-.34-.36-.53-.45l.07.1c-.15-.12-.27-.22-.27-.33l.16.11a5,5,0,0,0-.6-.47l.07.06c-.3-.17-1.65-1.28-1.94-1.42l.07.14L273.1,61s.22-.05.23,0c-.43-.37-2.66-2.3-3-2.67-.14-.16,0-.09,0-.1-.21-.15-.12,0-.28-.18s0,0,.07,0-.13-.13-.15-.12,0,.11,0,.18l-.21-.19,0,0s-.2,0-.39-.22-.73-.65-1.07-1c0,0,.11,0,.19.09a.89.89,0,0,1-.15-.15c.05.11-.17-.11-.11,0-.33-.15-.6-.52-.87-.66-.08.06-1.6.82-1.67.91a1.3,1.3,0,0,1-.15-.15s.13.17.21.22l.05,0c.18.13,0,.06.18.21,0,0-.18-.08-.32-.2.12.11.21.25.3.25s-.05,0,.07.17a1.46,1.46,0,0,1,.36.27h0c.24.28.47.31.68.57h0c.07.1.27.22.4.39,0,0-.05-.11,0,0s.31.27.41.42l.16.08c.63.57,3.17,2.73,3.81,3.29l0,0c1,.84,3,2.61,4,3.45a4.64,4.64,0,0,0,.5.51c-.08-.1,0-.09,0,0,.49.44.06,0,.57.43s2.76,2.46,3.24,2.94c.32.19.63.53.92.74h0c.31.23,1.89,1.73,2.24,2l0,0c.32.23.23.25.44.47,0-.09.3.1.4.18h0c.15.12.52.35.77.56l0,0a7.49,7.49,0,0,1,.73.61,11.81,11.81,0,0,0,1.24,1.15l.2.34,0,0s1.47-.74,1.11-1.49l0,0-.12-.1c-.12-.14-.22-.15-.18-.18l.18.17c-.13-.13,0-.06.05,0a1.35,1.35,0,0,1-.14-.16s0,0,0,.06a1.13,1.13,0,0,1-.29-.21c-.14-.13,0-.06-.12-.21-.84-.79-1.64-1.57-2.52-2.34,0,0,0,0,0,0-.27-.22-.5-.43-.76-.63a.29.29,0,0,1-.06-.14C284.38,70.39,283,69.19,283,69.16Z"/>      </g>      <g>        <path class="a" d="M266.19,55.29a.56.56,0,0,0,0,.28A.47.47,0,0,0,266.19,55.29Z"/>        <polygon class="a" points="266.19 55.57 266.19 55.58 266.19 55.57 266.19 55.57"/>        <path class="a" d="M272.21,74.75l0-.08A.36.36,0,0,0,272.21,74.75Z"/>        <path class="a" d="M267,60.49h.08c0,.24-.08.09,0,.31.13.06.06.37.14.44s0,.11,0,.11,0,.11.07.17,0,0,0,0l.05.15c0,.07,0,.09-.06,0,.06.41.39,2.39.51,2.83,0-.07,0-.2,0-.26.06.11,0,.17.07.22s0,.26-.06.37l.07,0,0,.07a1.48,1.48,0,0,1,.13.57c.06.26.17.37.17.52,0,0,0-.09.05,0s.07.17,0,.22.06.28.11.2,0,.24-.06.13a.56.56,0,0,0,0,.17v-.09c.05.22,0,.35.12.48V67c0,.13.06.24,0,.31l0-.13a2.48,2.48,0,0,0,.15.52v-.07c.12.22.42,1.42.55,1.61l0-.11.08.17s-.2-.05-.18-.07c.08.39.53,2.43.57,2.8,0,.15-.08,0-.09,0,.06.17.07.07.1.22s0,0-.06,0,0,.13,0,.13.08-.07.12-.11l0,.2h0s.14.09.16.28.13.67.19,1c0,0-.06-.07-.08-.13a.44.44,0,0,1,0,.15c0-.09.06.13.07.07.15.22.12.54.23.74.1,0,1.73.12,1.85.1a.64.64,0,0,1,0,.15.33.33,0,0,0,0-.22h-.06c-.05-.15,0,0,0-.2s.09.12.12.24c0-.11,0-.23-.07-.27s.06,0,.06-.13a.75.75,0,0,1-.1-.3h0c0-.26-.15-.37-.15-.61l0,0c0-.09-.06-.24-.06-.39,0,0,0,.09-.05,0s-.06-.28,0-.41l-.07-.11c-.11-.59-.64-2.89-.76-3.48v0c-.2-.89-.57-2.74-.82-3.65a2.38,2.38,0,0,0,0-.5c0,.09,0,.07-.05,0-.09-.46,0,0-.15-.48s-.5-2.57-.56-3c-.12-.24-.13-.57-.22-.81l0,0c-.08-.26-.31-1.78-.4-2.09v0c-.1-.26,0-.24,0-.46-.07,0-.17-.18-.19-.27h0c0-.13-.17-.42-.22-.64h0a3.76,3.76,0,0,1-.16-.65,5.9,5.9,0,0,0-.2-1.18l.07-.28,0,0s-1.58-.12-1.79.47h0l0,.1c0,.13.07.18,0,.18l0-.17c0,.13,0,0-.06,0a.7.7,0,0,1,0,.15s0,0,0,0a.58.58,0,0,1,.08.24c0,.13-.07,0,0,.17.13.81.23,1.59.4,2.4,0,0,0,0,0,0,.07.24.1.46.17.68a.2.2,0,0,1,0,.11A11.13,11.13,0,0,1,267,60.49Z"/>      </g>      <path class="b" d="M287.88,75"/>      <g>        <path class="a" d="M284.86,74.92a7.19,7.19,0,0,0,1,.06A6,6,0,0,0,284.86,74.92Z"/>        <path class="a" d="M285.9,75h0Z"/>        <path class="a" d="M360.89,72.82h0Z"/>        <path class="a" d="M304.62,75.12l.06-.08c.92,0,.27.09,1.11.07.33-.11,1.41,0,1.7,0,0,0,.41,0,.38,0a3,3,0,0,1,.69,0c.1,0-.07,0-.14,0l.6,0c.23,0,.29.06,0,.06,1.57,0,9.09.08,10.78.05-.22,0-.74,0-.94-.09.45,0,.66,0,.85,0,.17.11,1,0,1.32.14l.13-.06.22,0a20.73,20.73,0,0,1,2.19,0c1,0,1.49-.09,2-.06-.08,0-.31,0,0-.05,0,.05.69,0,.82,0s1.08,0,.8-.07c.14,0,.88.05.44.08.25,0,.49,0,.67,0L328,75c.84,0,1.3,0,1.85,0l-.31,0a4.29,4.29,0,0,1,1.12.06l-.52,0c.83,0,1.34,0,2,0H332c.89-.07,5.52-.13,6.34-.22l-.38-.06.7,0c-.08,0-.34.18-.41.17,1.5,0,9.33,0,10.72,0,.56,0,.1.09.09.1.68,0,.29-.06.87-.06.16,0,0,0-.12.05a2.94,2.94,0,0,0,.51,0c-.32,0-.18-.09-.32-.14h.75l0,0a5.56,5.56,0,0,1,1.15-.1c1.24,0,2.58,0,3.82,0a2.43,2.43,0,0,1-.54.06c.17,0,.42,0,.57,0-.3,0,.52,0,.29-.05.91-.11,2.09,0,2.89-.08.07-.1,1.72-1.68,1.72-1.79h.57a4.41,4.41,0,0,0-.82,0l0,.06c-.6,0-.14,0-.73,0a3.47,3.47,0,0,1,1-.07,5.27,5.27,0,0,0-1,0c-.4,0,0-.06-.44-.08a10.19,10.19,0,0,1-1.19,0h0c-1-.05-1.47.08-2.35,0l.09,0c-.31,0-.92,0-1.48,0,.16,0,.3,0,0,.05-.65,0-1.08,0-1.56,0l-.45,0c-2.24,0-11.11.06-13.36.07h.09c-3.44,0-10.49,0-14,.09-.55,0-1.31,0-1.88-.05.32,0,.21.06,0,.05-1.75,0-.12,0-1.88.05-2,0-9.81,0-11.62,0-1,.07-2.18,0-3.13.06l.1,0c-1,0-6.79,0-8,0h.16a12.54,12.54,0,0,1-1.71-.06c.11.08-.78.13-1.12.13v0c-.51,0-1.66.08-2.5.09l0,0c-.7,0-2,0-2.52,0-1.15,0-2.93-.1-4.47,0l-1-.13h-.15s-1.6,1.53.43,1.85l0,0h.4c.48,0,.71,0,.67,0h-.66c.49,0,.15,0,0,.06l.56,0c.1,0-.07,0-.15,0a7.78,7.78,0,0,1,.94,0c.5,0,0,.07.61.08,3.06,0,6,.09,9.11.08.07,0,0,0-.1,0l2.61,0a1.54,1.54,0,0,1,.37.07C299.72,75.12,304.54,75.11,304.62,75.12Z"/>      </g>      <g>        <path class="a" d="M3.21,70.72a8.18,8.18,0,0,0-.06,1.1A6.83,6.83,0,0,0,3.21,70.72Z"/>        <path class="a" d="M3.15,71.82h0Z"/>        <path class="a" d="M5.31,151.69c0-.1,0-.22,0-.34C5.31,151.47,5.31,151.58,5.31,151.69Z"/>        <path class="a" d="M3,91.76l.08.06c0,1-.09.28-.07,1.19.11.35,0,1.5,0,1.81,0,0,0,.43,0,.41a3.41,3.41,0,0,1,0,.73c0,.1,0-.07,0-.15l0,.64c0,.25-.06.31-.06,0C3,98.16,3,106.18,3,108c0-.23,0-.79.09-1,0,.48,0,.7,0,.91-.11.18,0,1-.14,1.4l.06.14,0,.24c.06,2.09,0,.48,0,2.33,0,1.07.09,1.58.06,2.18,0-.09,0-.33.05,0-.05,0,0,.74,0,.88s0,1.15.07.86c0,.15-.05.94-.08.47,0,.27,0,.52,0,.71l0-.34c0,.9,0,1.38,0,2l0-.33a4.86,4.86,0,0,1-.06,1.19l0-.55c0,.89,0,1.42,0,2.17v-.26c.07.94.13,5.88.22,6.75l.06-.4,0,.75c0-.09-.18-.36-.17-.44,0,1.6,0,9.94,0,11.42,0,.6-.09.11-.1.1,0,.73.06.31.06.93,0,.17,0,0-.05-.13a3.36,3.36,0,0,0,0,.54c0-.34.09-.2.14-.34v.79l0,0a6.31,6.31,0,0,1,.1,1.23c0,1.32,0,2.75,0,4.07a2.71,2.71,0,0,1-.06-.58c0,.18,0,.45,0,.61,0-.32,0,.56.05.31.11,1,0,2.23.08,3.08.1.07,1.67,1.83,1.79,1.83,0,.27,0,.53,0,.61a5,5,0,0,0,0-.87l-.06,0c0-.64,0-.15,0-.77a3.93,3.93,0,0,1,.07,1,5.93,5.93,0,0,0,0-1.09c0-.43.06,0,.08-.47a11.73,11.73,0,0,1,0-1.27h0c.05-1-.08-1.57,0-2.5l0,.1c0-.33,0-1,0-1.58,0,.17,0,.32-.05,0,0-.69,0-1.15,0-1.66l0-.48c0-2.39-.06-11.83-.07-14.23v.09c0-3.66,0-11.17-.09-14.95,0-.58,0-1.39.05-2,0,.34-.06.22-.05,0,0-1.86,0-.13-.05-2,0-2.16,0-10.45,0-12.37-.07-1,0-2.32-.06-3.33l0,.1c0-1.09,0-7.23,0-8.5v.17a14.24,14.24,0,0,1,.06-1.82c-.08.11-.13-.83-.13-1.19H5c0-.54-.08-1.77-.1-2.67l0,0c0-.75,0-2.15,0-2.69,0-1.23.1-3.12,0-4.76l.13-1.06V71s-1.53-1.71-1.85.46l0,0v.43c0,.51,0,.75,0,.72v-.7c0,.52,0,.16-.06,0,0,.22,0,.43,0,.6s0-.07,0-.16a8.77,8.77,0,0,1,0,1c0,.53-.07,0-.08.65,0,3.26-.09,6.41-.08,9.71,0,.07,0,0,0-.11,0,1,0,1.87,0,2.78a1.7,1.7,0,0,1-.07.39C3,86.55,3,91.68,3,91.76Z"/>      </g>      <g>        <path class="a" d="M356.61,70.72a8.1,8.1,0,0,0-.06,1.1A6.83,6.83,0,0,0,356.61,70.72Z"/>        <path class="a" d="M356.55,71.82h0Z"/>        <path class="a" d="M358.71,151.69c0-.1,0-.22,0-.34C358.71,151.47,358.71,151.58,358.71,151.69Z"/>        <path class="a" d="M356.41,91.76l.08.06c0,1-.09.28-.07,1.19.11.35,0,1.5,0,1.81,0,0,0,.43,0,.41a3.45,3.45,0,0,1,0,.73c0,.1,0-.07,0-.15l0,.64c0,.25-.06.31-.06,0,0,1.67-.08,9.68-.05,11.48,0-.23,0-.79.09-1,0,.48,0,.7,0,.91-.11.18,0,1-.14,1.4l.06.14,0,.24c.06,2.09,0,.48,0,2.33,0,1.07.09,1.58.06,2.18,0-.09,0-.33.05,0-.05,0,0,.74,0,.88s0,1.15.07.86c0,.15-.05.94-.08.47,0,.27,0,.52,0,.71l0-.34c0,.9,0,1.38,0,2l0-.33a4.83,4.83,0,0,1-.06,1.19l0-.55c0,.89,0,1.42,0,2.17v-.26c.07.94.13,5.88.22,6.75l.06-.4,0,.75c0-.09-.18-.36-.17-.44,0,1.6,0,9.94,0,11.42,0,.6-.09.11-.1.1,0,.73.06.31.06.93,0,.17,0,0-.05-.13a3.29,3.29,0,0,0,0,.54c0-.34.09-.2.14-.34v.79l0,0a6.31,6.31,0,0,1,.1,1.23c0,1.32,0,2.75,0,4.07a2.71,2.71,0,0,1-.06-.58c0,.18,0,.45,0,.61,0-.32,0,.56.05.31.11,1,0,2.23.08,3.08.1.07,1.67,1.83,1.79,1.83,0,.27,0,.53,0,.61a5.05,5.05,0,0,0,0-.87l-.06,0c0-.64,0-.15,0-.77a3.93,3.93,0,0,1,.07,1,6,6,0,0,0,0-1.09c0-.43.06,0,.08-.47a11.48,11.48,0,0,1,0-1.27h0c.05-1-.08-1.57,0-2.5l0,.1c0-.33,0-1,0-1.58,0,.17,0,.32-.05,0,0-.69,0-1.15,0-1.66l0-.48c0-2.39-.06-11.83-.07-14.23v.09c0-3.66,0-11.17-.09-14.95,0-.58,0-1.39.05-2,0,.34-.06.22-.05,0,0-1.86,0-.13-.05-2,0-2.16,0-10.45,0-12.37-.07-1,0-2.32-.06-3.33l0,.1c0-1.09,0-7.23,0-8.5v.17a14.24,14.24,0,0,1,.06-1.82c-.08.11-.13-.83-.13-1.19h0c0-.54-.08-1.77-.1-2.67l0,0c0-.75,0-2.15,0-2.69,0-1.23.1-3.12,0-4.76l.13-1.06V71s-1.53-1.71-1.85.46l0,0v.43c0,.51,0,.75,0,.72v-.7c0,.52,0,.16-.06,0,0,.22,0,.43,0,.6s0-.07,0-.16a8.77,8.77,0,0,1,0,1c0,.53-.07,0-.08.65,0,3.26-.09,6.41-.08,9.71,0,.07,0,0,0-.11,0,1,0,1.87,0,2.78a1.7,1.7,0,0,1-.07.39C356.42,86.55,356.42,91.68,356.41,91.76Z"/>      </g>    </g>    <g>      <g>        <path class="c" d="M144,50.79c.06.1,4.07-2.49,4.13-2.38s-4.05,4-4,4.09,3.94-2.41,4-2.31-4.06,3.25-4,3.36,3.94-2.41,4-2.31-3.87,3.23-3.8,3.34,3.76-2.3,3.81-2.2-3.25,2.87-3.2,3,3.16-1.93,3.21-1.85-2.06,2.13-2,2.19,1.63-1,1.65-1"/>        <path class="c" d="M149.07,47.18c.07.11,4.5-2.75,4.57-2.64s-1.34,2.29-1.3,2.34,3.37-2.06,3.42-2-1.46,1.77-1.43,1.82,2.22-1.36,2.26-1.3-1.64,1.84-1.61,1.89,2.29-1.4,2.32-1.34-2.62,2.81-2.57,2.89,3.37-2.06,3.42-2-6.54,5-6.44,5.19,6.87-4.2,7-4-6.34,4.53-6.25,4.7,6.19-3.79,6.29-3.63-5,4.1-4.93,4.25,4.47-2.73,4.54-2.62-3.51,3-3.46,3.11,2.9-1.77,2.95-1.7"/>        <path class="c" d="M134.36,53.13c0,.06,2.17-1.33,2.2-1.27s-1.87,2.39-1.83,2.45c.24.41,16.28-10,16.52-9.54s-15.9,9.57-15.67,10,12.48-7.63,12.66-7.31S137.15,54.72,137.32,55c0,.07,2.85-1.74,2.89-1.67"/>        <path class="c" d="M135.13,42.58s1.63-1,1.66-1-2.53,2.56-2.48,2.63,4.71-2.88,4.77-2.76-5.22,4.59-5.13,4.75,4.91-3,5-2.88-4.25,3.81-4.18,3.93,3.48-2.12,3.53-2-2.48,2.38-2.44,2.46,2.64-1.61,2.68-1.55-.7,1.8-.68,1.84,3.7-2.26,3.75-2.17-1.7,2.61-1.66,2.68,8-4.9,8.14-4.7-8,5.31-7.87,5.52,7.87-4.81,8-4.61"/>        <path class="c" d="M149,41.84c.11.2,7.82-4.78,7.94-4.58s-5.86,4.18-5.77,4.34,5.64-3.44,5.72-3.3-2.55,2.81-2.5,2.9,1.7-1,1.72-1"/>        <path class="c" d="M149.05,37c.1.18,7.15-4.37,7.25-4.19s-3.8,3.77-3.73,3.89,2.92-1.78,3-1.71-3.19,3.36-3.13,3.46,4-2.46,4.09-2.36"/>        <path class="c" d="M148.21,28.72s1.47-.9,1.49-.86-2.72,3-2.67,3.08,4-2.42,4-2.32-4,3.72-3.89,3.83,5.2-3.18,5.27-3-4.29,3.29-4.22,3.41,6.3-3.85,6.39-3.69"/>        <path class="c" d="M150.42,31.8c.07.12,4.69-2.87,4.76-2.75s-2,2.39-1.95,2.46,4.39-2.68,4.45-2.57S152.91,33,153,33.18s5.41-3.31,5.49-3.17"/>        <path class="c" d="M133.88,37s1-.63,1.05-.61-.77,1.53-.74,1.57,3.16-1.93,3.2-1.85-1.82,2.42-1.78,2.49,6.73-4.11,6.83-3.94-3.62,3.47-3.56,3.58,4.87-3,4.94-2.85-1.55,2.36-1.51,2.42,4.77-2.91,4.84-2.79-3.21,2.66-3.16,2.75,5.09-3.11,5.16-3-5.06,3.73-5,3.87,7-4.3,7.14-4.12S139.44,42.71,139.62,43s8.15-5,8.27-4.77-4.88,4.2-4.8,4.34,4.78-2.92,4.85-2.8-3.84,3.41-3.78,3.53,5.79-3.54,5.87-3.39-6,4.38-5.87,4.55,3.93-2.4,4-2.3"/>        <path class="c" d="M142.4,31.53c0,.06,2.17-1.33,2.2-1.27"/>        <path class="c" d="M137.47,31.11c0,.07,2.75-1.68,2.8-1.61s-2.29,2.89-2.25,3,5.56-3.4,5.64-3.26-5.32,4.2-5.23,4.35,6-3.69,6.13-3.54-5.87,4.34-5.78,4.5,2.92-1.79,3-1.71-2.72,2.63-2.67,2.72,3-1.83,3-1.75"/>        <path class="c" d="M135,28.72s1.55-.95,1.58-.91-3.08,3.13-3,3.22,4.37-2.67,4.44-2.56-5.2,4.08-5.12,4.22,5.14-3.14,5.21-3-4.8,3.58-4.73,3.71,3.53-2.15,3.58-2.07"/>        <g>          <path class="c" d="M140.17,43.45s1.91-1.17,1.94-1.12,1.46.87,1.49.91.81-.5.82-.48-.84,1.47-.82,1.51.93-.57.94-.54"/>          <path class="c" d="M138.53,43.31s1.17-.72,1.19-.69-1.89,2.57-1.85,2.64,1.1-.67,1.11-.64-1.12,1.56-1.09,1.61,1-.6,1-.58,1.65.66,1.67.7,1.93-1.18,2-1.13l.47.85s1.47-.9,1.49-.86"/>          <path class="c" d="M149.13,37.46s1.95-1.19,2-1.14,1,.76,1,.79.87-.53.89-.51-1.24,2.17-1.21,2.22,1-.63,1.05-.61"/>          <path class="c" d="M147.64,37.29s1.17-.72,1.19-.69-1.36,1.9-1.34,1.95.88-.54.89-.52-.69,2.1-.66,2.15,1-.58,1-.56.94.72,1,.75,3.05-1.87,3.1-1.79"/>          <path class="c" d="M142.62,32.05c0,.06,2.48-1.52,2.52-1.45"/>          <path class="c" d="M136.8,28.17s1.07-.66,1.09-.63-.3,1.83-.28,1.87,1-.59,1-.56l.87,1.14c0,.05,2-1.21,2-1.16s.1.86.11.87,1.75-1.07,1.78-1l.46,1.07s.8-.49.81-.47-.42,1.18-.4,1.21.84-.51.85-.49"/>          <path class="c" d="M141.16,31.84s1.2-.73,1.21-.7-.93,2-.9,2,.77-.47.78-.45-.32,1.71-.3,1.75.77-.47.78-.45,0,1.64,0,1.67,1.49-.91,1.51-.87,1.56.67,1.58.71,1.9-1.16,1.93-1.11l.48.84s1.9-1.16,1.93-1.12,1.26.72,1.28.75,1.66-1,1.69-1"/>          <path class="c" d="M150.63,32.28c0,.05,2-1.23,2-1.18s0,1.26,0,1.29,1-.64,1.06-.61"/>          <path class="c" d="M149,32.16s1.25-.76,1.27-.73"/>          <path class="c" d="M147.9,28.33s1.62-1,1.64-.95S147,29.7,147,29.78s1.66-1,1.69-1-2.52,2.73-2.47,2.81,1.24-.76,1.26-.73-1,1.63-.94,1.68.75-.46.76-.44l.63,1.19c.05.09,3.48-2.13,3.53-2s-3,2.57-3,2.66.87-.53.89-.51"/>          <path class="c" d="M149.7,28.28s1.2-.73,1.22-.7-.34,1.79-.32,1.83,1-.6,1-.57l.56,1s2-1.2,2-1.15.12.85.13.87,2-1.2,2-1.15,1.42,1,1.45,1,.8-.49.82-.47-1.77,2-1.74,2.07,2.14-1.31,2.17-1.25-3.47,3.68-3.41,3.79,1.26-.77,1.28-.74-1.6,2.38-1.56,2.45.74-.45.75-.43S155.95,36,156,36s.76-.46.77-.45-.26,1.31-.25,1.34.75-.46.76-.44-.79,2-.77,2,.94-.57,1-.55-1.56,1.9-1.53,2,1.3-.79,1.32-.76"/>          <path class="c" d="M149.07,42.38c0,.05,2-1.21,2-1.16s1.16.74,1.18.77,1.94-1.19,2-1.14l.41.77s1.7-1,1.73-1"/>          <path class="c" d="M147.78,42.14s1.17-.71,1.18-.68-1.32,2-1.29,2,.9-.55.91-.53-.88,1.64-.86,1.68.89-.54.9-.52.31,1.29.33,1.32,1.83-1.12,1.85-1.07,1.3.68,1.32.72,1.72-1.05,1.74-1,.27.86.29.88,1.14-.7,1.16-.67l.6,1.19s.84-.51.85-.49,0,1.07,0,1.1.8-.49.81-.47.23,1.53.25,1.56.75-.46.76-.44-.35,1.38-.33,1.41.76-.46.77-.44-.89,2.09-.86,2.14,1-.6,1-.57-1.37,1.68-1.34,1.72,1.1-.67,1.11-.64-1.94,2.5-1.9,2.57,1.26-.77,1.28-.74"/>          <path class="c" d="M149.12,47.72S151,46.58,151,46.63s.32.85.33.87,1.8-1.1,1.82-1.05l.52.82s1.3-.79,1.32-.76-.69,1.67-.67,1.71,1-.59,1-.56-4.19,4-4.12,4.14,3.6-2.2,3.65-2.11-3.14,3.18-3.08,3.27.88-.54.89-.51.39,1.13.4,1.15.93-.57.94-.54l.88,1.32s1.37-.84,1.39-.8"/>          <path class="c" d="M147.85,47.46s1.12-.69,1.14-.66-1.3,2.46-1.26,2.52.9-.55.91-.52-.92,1.54-.9,1.57.89-.54.9-.52-.92,1.62-.89,1.66.88-.54.89-.52-.91,1.59-.88,1.63.87-.53.89-.51-.91,1.5-.89,1.54.88-.54.89-.52"/>          <path class="c" d="M143.63,51.62s.87-.53.88-.51-.91,2.05-.88,2.1.87-.53.88-.51-.84,1.43-.82,1.46.81-.5.82-.47-.59,1.26-.57,1.29.74-.45.75-.43.14,1.29.15,1.32,1-.61,1-.58l.6.83s1.58-1,1.61-.93"/>          <path class="c" d="M142.15,51.41s1.8-1.1,1.83-1.06"/>          <path class="c" d="M136.74,52.19c.05.09,3.72-2.28,3.78-2.18"/>          <path class="c" d="M134,52.78c0,.06,2.39-1.46,2.43-1.4s-2.6,2.4-2.56,2.48.81-.49.82-.47.19,1.56.21,1.6.93-.57.94-.54.42,1.06.44,1.08c.12.2,8.07-4.93,8.19-4.73"/>          <path class="c" d="M134.79,42.2s1.78-1.09,1.81-1-3,3.34-3,3.44,1.19-.73,1.21-.7-1.4,2.38-1.37,2.44.77-.47.78-.45-.35,1.32-.33,1.35.74-.45.75-.44l.58,1.28s1.09-.67,1.1-.64l.67,1s1.44-.88,1.46-.84.86.9.88.92.74-.45.75-.43-.41,1.31-.39,1.34.77-.47.78-.45"/>          <path class="c" d="M136.94,42s1.59-1,1.62-.93,1.33.72,1.35.75,2.14-1.31,2.17-1.25,1,.7,1.06.73,1.26-.77,1.27-.74"/>          <path class="c" d="M133.48,36.61s1.22-.75,1.24-.71-1.23,2-1.2,2,.76-.46.77-.44.28,1.32.29,1.35,1.08-.66,1.1-.63,1.73.66,1.75.7,1.91-1.17,1.94-1.12.9.71.91.74,1.86-1.14,1.88-1.09,1.26.63,1.28.66.84-.52.86-.49-.69,1.49-.67,1.52.9-.55.91-.53"/>          <path class="c" d="M135,36.75c0,.05,2-1.21,2-1.16l.45.88c0,.05,2-1.21,2-1.16"/>          <path class="c" d="M137.32,32s.76-.47.77-.45-.5,1.2-.49,1.23.76-.47.77-.45-.37,1.56-.35,1.6.76-.47.77-.45-.38,1.52-.36,1.56.76-.47.77-.45"/>          <path class="c" d="M136.61,31.12s.81-.5.82-.48"/>          <path class="c" d="M134.7,28.33s1.69-1,1.72-1-3.28,3.24-3.22,3.34,1.54-.94,1.56-.9-2.45,2.57-2.4,2.65,1.21-.74,1.23-.71-1,1.53-1,1.57.74-.45.75-.43.35,1.23.37,1.26,3.34-2,3.38-2"/>        </g>      </g>      <g>        <path class="c" d="M224.85,49.46c.06.1,4-2.46,4.08-2.35s-2,2.4-2,2.47S230,47.7,230,47.78s-3.24,3.41-3.18,3.51,3.48-2.13,3.53-2"/>        <path class="c" d="M221.11,48s1.46-.89,1.48-.85-2,2.19-2,2.25,4.45-2.72,4.51-2.6-4.49,4-4.42,4.16,7.35-4.49,7.46-4.31-7.51,5.26-7.39,5.46,2.84-1.74,2.89-1.67-2.86,2.77-2.81,2.85,2.74-1.68,2.78-1.61-2.53,2.71-2.48,2.79,2.91-1.78,3-1.71-1.79,2.56-1.75,2.62,7.68-4.69,7.79-4.5-5.46,4.42-5.37,4.57,5.06-3.09,5.13-3-3.42,2.81-3.36,2.91,3.1-1.9,3.15-1.82"/>        <path class="c" d="M221.64,38.94s1.31-.8,1.33-.77-1.31,1.62-1.28,1.67,3.79-2.32,3.84-2.22-2.72,3-2.67,3.08,5.68-3.47,5.76-3.33-3.7,3-3.64,3.11,4.31-2.64,4.38-2.53-4.55,4-4.48,4.1,4.64-2.83,4.7-2.72-6.05,5.07-6,5.24,2.89-1.76,2.93-1.69-2,2.53-2,2.6,3.07-1.88,3.11-1.8S225.8,46,225.84,46s2.53-1.55,2.57-1.48"/>        <path class="c" d="M237.81,48.15c.09.15,5.88-3.59,6-3.44s-2.53,3-2.48,3.08,4.22-2.58,4.29-2.47-2.39,2.75-2.34,2.83,3.42-2.09,3.47-2-3.84,3.81-3.77,3.92,4.48-2.74,4.54-2.62-4.87,3.89-4.79,4,4.77-2.92,4.84-2.8"/>        <path class="c" d="M233,46.43s1.44-.88,1.46-.84-2,2.5-1.92,2.57c.13.23,9.11-5.57,9.24-5.34s-9.32,6.46-9.18,6.71,9.07-5.54,9.2-5.31S232.56,50.8,232.7,51s4-2.42,4-2.32-4,3.34-4,3.45,3.88-2.37,3.94-2.27-3.88,3.86-3.81,4,3.76-2.3,3.82-2.2-3.47,3-3.41,3.14,4.06-2.48,4.12-2.38-2.4,3-2.35,3.11,5.92-3.62,6-3.47-3.65,3.26-3.59,3.37,9.77-6,9.92-5.73-6.89,5.41-6.78,5.6,6.43-3.93,6.53-3.77S243,55.11,243,55.23s3.84-2.35,3.9-2.25-2,2-2,2.11,1.44-.88,1.47-.85"/>        <path class="c" d="M242.8,40.85c.07.11,4.44-2.71,4.5-2.6s-1.89,2.26-1.85,2.33,1.88-1.15,1.9-1.1"/>        <path class="c" d="M231.16,39.57s1.26-.77,1.28-.74-1.28,1.74-1.25,1.78S235,38.31,235,38.4s-3.05,2.92-3,3c.14.25,9.69-5.92,9.83-5.68s-8.55,5.83-8.42,6.06,8.37-5.11,8.49-4.9-5,4.43-4.95,4.58,8-4.86,8.07-4.66-7.73,5.94-7.61,6.15,9.29-5.67,9.42-5.44-9.64,7-9.49,7.25,4.37-2.67,4.44-2.56"/>        <path class="c" d="M243,32.15c0,.07,2.59-1.58,2.63-1.52"/>        <path class="c" d="M220.45,32.94s1.2-.74,1.22-.7-.91,2.05-.88,2.1,6.7-4.1,6.8-3.93-5.72,4.25-5.63,4.4,6.29-3.85,6.39-3.69-2.77,3.23-2.71,3.33,5.27-3.22,5.34-3.09-2.45,2.67-2.4,2.75,6.43-3.93,6.53-3.77-3.33,3.51-3.27,3.62,8.8-5.38,8.93-5.16-5.94,4.72-5.84,4.88,8.75-5.35,8.88-5.13-6.27,5.21-6.16,5.39,7.43-4.54,7.54-4.35-7.69,5.59-7.57,5.8,4.2-2.57,4.26-2.46-4.37,4.08-4.3,4.21,4.22-2.58,4.28-2.47"/>        <path class="c" d="M224.15,28.53s1.27-.78,1.29-.74-1.64,2.26-1.6,2.32,3-1.86,3.08-1.78-3.2,2.81-3.14,2.9,3.59-2.19,3.64-2.1"/>        <g>          <path class="c" d="M237.87,48.65s1.87-1.14,1.9-1.1,1.12.74,1.14.77,1.83-1.12,1.85-1.07-.21,1.47-.19,1.51,1-.63,1-.6-1.27,2-1.24,2.06,1-.61,1-.58"/>          <path class="c" d="M236.46,48.44s1.13-.69,1.15-.66-1.33,1.93-1.3,2,.88-.54.89-.51-.92,1.8-.89,1.84.9-.55.92-.53-.83,1.59-.8,1.63.81-.5.83-.48.07,1.09.09,1.11,1.76-1.07,1.78-1,1.26.7,1.28.73,2.75-1.68,2.79-1.61"/>          <path class="c" d="M225,50s1.81-1.1,1.83-1.06-.42,1.24-.4,1.27.94-.58,1-.55-1,1.81-1,1.85.93-.57.94-.54"/>          <path class="c" d="M223.45,49.8s1.19-.73,1.21-.7-1.44,2.51-1.4,2.58.91-.56.93-.54-.75,1.58-.73,1.62.86-.52.87-.5,1.63.65,1.65.69,1.08-.66,1.09-.63"/>          <path class="c" d="M223.22,38.51c0,.06,2.47-1.51,2.5-1.44s1.81.47,1.83.51,1.17-.72,1.19-.69.06,1.07.07,1.1.8-.49.81-.47-.55,1.81-.53,1.85,1-.62,1-.6-3.18,2.8-3.13,2.89,2.65-1.62,2.69-1.55-3.54,2.89-3.48,3,1.6-1,1.63-.94-.3,1.83-.27,1.87.8-.49.81-.47-.34,1.27-.32,1.3.81-.49.82-.47-1.24,2.07-1.2,2.13,1-.6,1-.58.06,1.48.08,1.51.87-.53.89-.51.6,1.4.62,1.43.87-.53.88-.51-1.34,2.47-1.3,2.53,1-.59,1-.56-1.21,1.93-1.18,2,1-.59,1-.56-1.27,2.14-1.24,2.2,1-.6,1-.58"/>          <path class="c" d="M220.69,47.66s1.68-1,1.7-1-2.3,2.6-2.25,2.68,1-.59,1-.57-1,1.57-.93,1.61.84-.51.85-.49-.8,1.76-.78,1.81.84-.51.85-.49-.8,1.78-.77,1.82.84-.51.85-.49-.67,1.75-.64,1.8.78-.48.79-.46,0,1.55,0,1.58.83-.51.85-.49,1.36,1,1.38,1,1.59-1,1.61-.93l.64.86s1.59-1,1.61-.93l.64.74s1.51-.92,1.54-.89"/>          <path class="c" d="M222.71,47.52c0,.05,2-1.21,2-1.16l.66.8s1.43-.87,1.45-.84"/>          <path class="c" d="M221.27,38.54s1.4-.85,1.42-.82-1.62,1.85-1.59,1.9.85-.52.86-.5-.49,1.19-.47,1.22.75-.46.77-.44-.09,1-.07,1,1-.59,1-.57.26.84.27.86,2.18-1.33,2.21-1.28-1.7,2.3-1.66,2.36,2.45-1.5,2.48-1.43S223,44,223.07,44.12s1-.63,1-.6-.69,1.75-.67,1.79.8-.49.81-.47l.7,1.35s.93-.57.94-.55"/>          <path class="c" d="M243.09,32.65c0,.07,2.95-1.8,3-1.73"/>          <path class="c" d="M225.75,28.12s1-.59,1-.56.23,1.34.25,1.37.75-.46.76-.44-.56,2-.53,2,.88-.54.9-.52,0,1.48.06,1.52,2-1.21,2-1.16.49,1.26.51,1.29,2.06-1.26,2.09-1.21,1.47.48,1.49.51,2.89-1.77,2.93-1.69.22.83.23.85,3-1.81,3-1.74.2.84.21.86S243,27.82,243,27.88l.6,1s.94-.57.95-.55,0,1.13,0,1.16.77-.47.79-.45-.2,1.17-.19,1.19.73-.45.74-.43"/>          <path class="c" d="M241.62,32.53s1.3-.8,1.32-.76-1.51,2.11-1.47,2.17.88-.54.9-.52-.94,2.15-.91,2.2.91-.56.93-.54-.86,1.81-.83,1.85.83-.51.84-.49-.29,1.08-.27,1.1,1.94-1.19,2-1.14,1.68.8,1.7.84.9-.55.92-.53.21,1.59.23,1.63.75-.46.76-.44-.76,1.54-.74,1.58,1-.59,1-.57"/>          <path class="c" d="M242.85,41.39s1.93-1.18,2-1.13l.47.85c0,.06,2.5-1.53,2.53-1.46"/>          <path class="c" d="M241.56,41.14s1.14-.7,1.15-.67-1.32,1.62-1.29,1.67.92-.56.93-.54-1,2-.93,2.08.92-.56.94-.54-.76,1.4-.74,1.43.78-.48.79-.46,1,.91,1,.94,1.2-.73,1.22-.7l.84,1.32s.88-.54.89-.51.18,1.32.2,1.35.77-.47.78-.45-.28,1.38-.26,1.41.74-.45.75-.43-.78,2.08-.75,2.13.94-.57,1-.55-1.24,2.3-1.21,2.35,1-.58,1-.56-1.18,1.84-1.15,1.88,1-.58,1-.56-1.33,1.87-1.3,1.92,1.1-.67,1.12-.65"/>          <path class="c" d="M232.6,46.08s1.66-1,1.68-1S232,48,232.05,48s.9-.55.91-.53-.88,1.92-.85,2S233,49,233,49s-.81,2.15-.78,2.2.85-.52.86-.5-.8,2.19-.77,2.24.85-.52.86-.5-.73,1.7-.71,1.74.77-.47.78-.45-.28,1.44-.26,1.47.79-.48.8-.46,0,1,0,1.06,1.06-.65,1.08-.62,1.11.81,1.13.84,1.62-1,1.64-.95l.61.86s1.62-1,1.64-.95l.71.85s1.62-1,1.64-.95l.61.86s1.62-1,1.64-.95.76.7.77.72,1.43-.87,1.45-.84"/>          <path class="c" d="M234.61,46c0,.05,2-1.23,2-1.18"/>          <path class="c" d="M230.8,39.15s1.35-.83,1.37-.79-1.57,2.09-1.53,2.14.83-.51.84-.48-.2,1.42-.18,1.45.77-.47.78-.45.36,1.14.38,1.17,1.33-.82,1.35-.78,1.23.69,1.24.72,1.79-1.1,1.82-1.05,0,1.27,0,1.3.89-.54.9-.52-.95,1.52-.92,1.56.94-.58,1-.55-1,1.61-1,1.65.94-.58,1-.55"/>          <path class="c" d="M232.54,39.2c0,.05,2.16-1.32,2.19-1.27l.39.84c0,.07,2.79-1.7,2.83-1.63"/>          <path class="c" d="M221.81,32.6c0,.06,2.32-1.41,2.35-1.36"/>          <path class="c" d="M220,32.56s1.36-.83,1.38-.8-1.39,2.32-1.36,2.38.75-.46.76-.44-.1,1.17-.08,1.2.93-.57.95-.55,1.53.82,1.55.86,1.88-1.15,1.91-1.1,1,.74,1,.77,1.88-1.15,1.91-1.1,1.8.64,1.82.68,1.75-1.07,1.78-1l.53,1.2c0,.05,2.1-1.28,2.13-1.23s2.42.36,2.45.41,1-.61,1-.58-.76,1.81-.74,1.85.93-.57.94-.54-1,2.22-.95,2.28.89-.55.91-.52"/>          <path class="c" d="M223.83,28.17s1.54-.94,1.56-.9-2.07,2.5-2,2.57.91-.56.92-.53-1,1.61-1,1.65.9-.55.91-.53"/>        </g>      </g>      <g>        <path class="d" d="M205.47,46.91c.08.15,5.78-3.53,5.87-3.39s-2.72,3.19-2.67,3.28,2-1.21,2-1.16"/>        <path class="d" d="M191.54,13.84c.19.33,13.06-8,13.25-7.65s-13.45,9-13.24,9.36,13.05-8,13.24-7.65-13.44,9.32-13.24,9.68,13-8,13.24-7.64-13.44,10-13.23,10.33,13-8,13.24-7.64-13.44,10-13.23,10.32,13-8,13.23-7.64-13.43,8.89-13.23,9.24,13-8,13.23-7.64-13.43,9.8-13.22,10.16,13-8,13.22-7.63-13.42,8.95-13.22,9.3,13-8,13.22-7.63-13.42,9-13.22,9.37,13-8,13.22-7.63S191.38,31.63,191.58,32s13-8,13.22-7.63S191.38,33.65,191.59,34s13-8,13.21-7.63"/>        <path class="d" d="M186.89,3.21c0,.07,2.87-1.75,2.91-1.68s-4.67,4-4.59,4.09,7.39-4.52,7.5-4.33-9.53,7.1-9.38,7.36S196.08.85,196.26,1.17,180.73,12,181,12.44,200.44.54,200.72,1s-21.8,13.63-21.48,14.18,23.68-14.47,24-13.87S176.67,18,177.06,18.72,204.19,2.14,204.58,2.83s-30.21,18.73-29.77,19.5S204.36,4.27,204.8,5,171.74,25.65,172.23,26.5c.25.44,17.17-10.5,17.43-10.06s-19.12,11.85-18.84,12.34S188,18.25,188.28,18.69s-19.87,13-19.58,13.47S186,21.6,186.24,22s-19,12.41-18.71,12.9,16.5-10.08,16.74-9.67-17.41,11.84-17.15,12.3,14.68-9,14.9-8.6-15.14,10.36-14.91,10.76S179.82,32,180,32.28s-13.09,9.35-12.89,9.7,10.68-6.53,10.83-6.25-11,8.1-10.83,8.4,14.36-8.78,14.58-8.41S167.22,45,167.44,45.39s16.65-10.18,16.9-9.76-15.45,10.8-15.21,11.21S188.47,35,188.76,35.51s-17.21,11.06-17,11.5c.48.83,32.53-19.88,33-19.05s-30.47,18.28-30,19,29.59-18.09,30-17.34S178.86,46.33,179.24,47s25.19-15.4,25.56-14.76S182.09,46.4,182.43,47s22.05-13.48,22.38-12.92S186.18,46.49,186.46,47s20.32-12.42,20.62-11.91S189.32,46.5,189.58,47s20-12.2,20.25-11.69S191.3,46.93,191.57,47.41s19.07-11.65,19.35-11.17-19.63,12.11-19.34,12.61,19.5-11.92,19.79-11.42-20.08,13.17-19.78,13.69,19.54-11.94,19.83-11.45-20.08,13.09-19.78,13.61,19.45-11.89,19.74-11.4S191.72,54,192,54.53c.18.32,12.59-7.7,12.78-7.38S193.87,55.65,194,55.95s10.59-6.47,10.75-6.21-8.22,6.07-8.1,6.29,8-4.88,8.1-4.67S200,55.89,200.07,56s4.6-2.81,4.67-2.7"/>        <g>          <path class="d" d="M191.08,15.48s.88-.54.89-.52-.92,2-.89,2,.88-.54.89-.52-.93,2.85-.89,2.92.88-.54.89-.51-.93,2.86-.89,2.93.88-.54.89-.51-.93,2.83-.89,2.9.88-.54.89-.51-.92,2.13-.89,2.18.87-.53.89-.51-.92,2.5-.89,2.56.87-.53.89-.51-.91,2-.88,2.08.87-.53.88-.51-.91,2-.88,2.07.87-.53.88-.51-.91,1.89-.88,1.94.87-.53.88-.51-.91,2.24-.88,2.3.87-.53.88-.51"/>          <path class="d" d="M191,13.52s.7-.43.71-.41-3.18,4.23-3.12,4.35,1.57-1,1.59-.92S186.32,20.9,186.4,21s1.57-1,1.59-.92-3.7,4.13-3.63,4.25,1.57-1,1.59-.92-3,3.11-3,3.21,1.57-1,1.59-.92-3.85,4.36-3.77,4.49,1.57-1,1.59-.92S179,33,179,33.06s1.57-1,1.59-.92-2.67,4-2.61,4.08,1.63-1,1.65-1,3,.75,3.06.82,1.63-1,1.66-1,2.14.79,2.17.85,1.63-1,1.66-1,1.69.82,1.71.86,2-1.22,2-1.17"/>          <path class="d" d="M190.1,1.85s1.77-1.08,1.8-1,2.51.74,2.55.8,1.59-1,1.61-.93,2.42.75,2.45.8,1.59-1,1.61-.93,1.83.78,1.86.83,1.16-.71,1.17-.68.6,1.49.62,1.52.74-.45.75-.43-.2,1.71-.18,1.74.78-.48.79-.46-.76,2-.73,2.05.87-.53.88-.51-.92,2.71-.88,2.78.87-.53.89-.51-.92,2.75-.89,2.82.88-.54.89-.51-.92,1.93-.89,2,.88-.54.89-.52-.93,2.37-.89,2.43.89-.54.9-.52-.93,2.69-.9,2.75.89-.54.9-.52-.94,2.86-.9,2.92.89-.55.91-.52-.94,2.78-.91,2.84.9-.55.91-.53-.95,2.58-.91,2.64.9-.55.92-.53-.95,2.41-.92,2.47.91-.55.92-.53-.95,2-.92,2,.91-.56.92-.53-1,2.21-.92,2.26.91-.56.93-.53-1,2.57-.93,2.63.92-.56.93-.54-1,3-.93,3.1.92-.56.94-.54-1,2.63-.94,2.7.93-.57.94-.54l1.18,1.88s1.61-1,1.63-.94.86.9.87.93,1-.63,1-.6.45,1.48.47,1.52.74-.45.75-.43-.27,2.27-.24,2.32.86-.52.87-.5-1,2.86-.92,2.92.88-.54.89-.51-1,2.33-.93,2.39.88-.54.89-.51-1,2.2-1,2.26,1-.59,1-.56"/>          <path class="d" d="M205.87,47.43s1.62-1,1.64-.95,1.34.74,1.36.77S211,46,211,46"/>          <path class="d" d="M204.4,47.09s1-.6,1-.58-1,2.24-1,2.29.87-.53.88-.51-.92,2.49-.88,2.54.87-.53.88-.51-1,3.18-1,3.25,1-.59,1-.56"/>          <path class="d" d="M186.57,2.82c0,.08,3-1.83,3-1.76s-4.85,4.05-4.77,4.19,1.59-1,1.62-.93-3.57,3.85-3.5,4,1.59-1,1.62-.93-4.05,4.59-4,4.73,1.59-1,1.62-.93-3.4,3.6-3.34,3.71,1.59-1,1.62-.93-3.87,4.31-3.79,4.43,1.59-1,1.62-.93-3.94,4.42-3.86,4.55,1.59-1,1.62-.93-4.29,5-4.21,5.1,1.59-1,1.62-.93-3.09,3.12-3,3.21,1.59-1,1.62-.93-3.79,4.2-3.72,4.32,1.59-1,1.62-.93-2.91,3.64-2.85,3.74,1.1-.67,1.12-.65-1.62,3.23-1.57,3.31.92-.56.93-.54-1,2.65-1,2.71.87-.53.88-.51-.92,2.7-.88,2.77.87-.53.88-.51-.92,2.59-.88,2.65.87-.53.88-.51-.69,1.79-.67,1.84.78-.48.79-.46.45,2.1.48,2.15.82-.5.84-.48,1,1.1,1,1.13,1.5-.92,1.52-.88,1.42.84,1.44.88,1.51-.92,1.54-.89,2.9.81,2.93.87,1.51-.93,1.54-.89,1.63.84,1.65.88,1.52-.93,1.54-.89,2.46.82,2.49.88,1.52-.93,1.54-.89,1.57.84,1.59.88,1.52-.93,1.54-.89,1.21.85,1.23.88,1.28-.78,1.3-.75-.77,1.83-.74,1.87S192,48,192,48s-.94,2.72-.9,2.79.89-.54.9-.52-.92,2.63-.88,2.7.87-.53.88-.51-.66,1.81-.63,1.85.78-.48.79-.46.69,2.12.72,2.17.93-.57.94-.55,1,1,1,1,1.51-.92,1.53-.88,1.83.84,1.85.88,1.51-.92,1.53-.88,2.59.76,2.62.82,2.15-1.32,2.18-1.26"/>        </g>      </g>    </g>  </g></svg>