<svg xmlns="http://www.w3.org/2000/svg" width="17.81" height="17.73" viewBox="0 0 17.81 17.73">  <defs>    <style>      .a {        fill: #f03c00;      }    </style>  </defs>  <title>ico_movie</title>  <g>    <path class="a" d="M8.12,14.12H8a.37.37,0,0,1-.26-.45c0-.13.09-.22.69-.59a37,37,0,0,1,4.1-3.39l1.27-1h-.05a.36.36,0,0,1-.22-.17l-.06-.11-.11,0a.36.36,0,0,1-.22-.17c-.15-.26-.15-.26,1.31-2l.16-.2-.37.23c-2,1.22-2,1.22-2.21,1.17a.36.36,0,0,1-.22-.17c-.15-.26-.15-.26,1.42-2.27l.43-.56-.78.47c-2.25,1.37-2.27,1.37-2.47,1.32A.37.37,0,0,1,10.21,6a.38.38,0,0,1-.08-.21.3.3,0,0,1-.2,0,.37.37,0,0,1-.22-.17c-.16-.29-.17-.29,1.66-2.09l-.07,0C9,5,9,5,8.76,4.93a.37.37,0,0,1-.22-.17c-.15-.26-.15-.26,1.34-2.14l.32-.41-.61.37C7.48,3.87,7.46,3.86,7.26,3.81A.36.36,0,0,1,7,3.64.33.33,0,0,1,7,3.41a.33.33,0,0,1-.26,0,.36.36,0,0,1-.22-.17.35.35,0,0,1,.13-.48l.12,0C7,2.63,7.87,2.08,8.54,1.66c2-1.23,2-1.22,2.22-1.17A.37.37,0,0,1,11,.66a.38.38,0,0,1,.08.21c.33-.17.38-.16.49-.13a.36.36,0,0,1,.22.17c.15.25.15.25-1.34,2.15l-.33.42.82-.5c2.31-1.41,2.33-1.4,2.53-1.35a.37.37,0,0,1,.22.17c.16.29.17.29-1.66,2.09l0,0c2.29-1.4,2.31-1.39,2.51-1.34a.37.37,0,0,1,.22.17.32.32,0,0,1,.07.24.32.32,0,0,1,.13,0,.37.37,0,0,1,.22.17c.15.26.15.26-1.42,2.27l-.42.54.51-.31c2-1.22,2-1.22,2.21-1.17a.36.36,0,0,1,.22.17c.15.26.15.26-1.31,2l-.14.17h0c1.66-1,1.67-1,1.87-1A.36.36,0,0,1,17,6c.07.13.12.2,0,.33a.36.36,0,0,1,.1.11c.21.37.22.38-4.11,3.79l-1.06.84.81-.5C16.89,8,17,8,17.2,8.1a.38.38,0,0,1,.23.17.38.38,0,0,1,0,.2.35.35,0,0,1-.33.44c-.39.27-1.27.79-3.35,1.95l-1,.6C9,13.79,8.39,14.12,8.12,14.12Z"/>    <path class="a" d="M7.38,17.37H7.29a.38.38,0,0,1-.23-.17c-.23-.39-.24-.41,5-4.2l1.09-.79-1.71,1c-5.54,3.39-5.85,3.51-6.14,3.44A.39.39,0,0,1,5,16.5c-.1-.18-.11-.19.32-1-1,.61-1,.62-1.19.57a.36.36,0,0,1-.22-.17c-.12-.22-.14-.24.58-1.09-1,.62-1,.61-1.2.57a.36.36,0,0,1-.22-.17c-.13-.22-.16-.27.54-.93-.79.47-.83.47-1,.43a.36.36,0,0,1-.22-.17c-.16-.28-.16-.28,1.71-2.24l.14-.14-.14.09C2,13.55,2,13.54,1.76,13.49a.36.36,0,0,1-.22-.17c-.13-.23-.17-.3.65-1-.67.39-.73.38-.87.34a.37.37,0,0,1-.22-.17c-.18-.31-.18-.31,2.38-2.81l.63-.62-.5.3C1,11,.95,11,.73,11a.37.37,0,0,1-.22-.17c-.19-.32-.19-.32,2.69-3l.65-.6-.31.19C.81,9.07.79,9.05.58,9a.37.37,0,0,1-.22-.17c-.1-.18-.16-.27.2-.57a.37.37,0,0,1-.13-.13c-.23-.39-.24-.41,4.87-4C1.54,6.37,1.34,6.44,1.1,6.38a.38.38,0,0,1-.23-.17C.68,5.88.68,5.88,3.49,3.3l.46-.42c-.41.23-.45.22-.57.19a.36.36,0,0,1-.22-.17.35.35,0,0,1,.13-.48l.11,0c.18-.09.82-.48,1.29-.77C6.17.7,6.17.71,6.36.75a.36.36,0,0,1,.22.17c.19.32.19.32-2.61,2.9l-.75.69L5.54,3.1C9.9.44,10.1.36,10.36.42a.38.38,0,0,1,.23.17c.23.39.23.41-4.79,4,.2-.09.26-.08.34-.06a.37.37,0,0,1,.22.17c.1.17.15.26-.14.52a.37.37,0,0,1,.14.14c.19.32.19.32-2.69,3L3,8.92l.21-.13C5.91,7.17,5.93,7.18,6.14,7.23a.37.37,0,0,1,.22.17c.18.31.18.31-2.38,2.81l-.6.59.17-.1C5.91,9.26,5.94,9.26,6.15,9.31a.37.37,0,0,1,.22.17c.13.23.17.3-.7,1,.32-.17.37-.15.47-.13a.36.36,0,0,1,.22.17c.16.28.16.28-1.71,2.24l-.1.11C5.94,12,6,12,6.15,12.09a.36.36,0,0,1,.22.17c.13.22.16.27-.56,1,.2-.1.25-.09.34-.06a.36.36,0,0,1,.22.17c.12.22.14.24-.57,1.08.32-.19.37-.18.49-.15a.36.36,0,0,1,.22.17c.11.19.11.19-.41,1.17,1.12-.63,3.18-1.89,4.92-3,5.56-3.4,5.86-3.51,6.14-3.44a.39.39,0,0,1,.23.17c.23.39.24.41-5,4.2l-.76.56.14-.09c4.43-2.71,4.64-2.8,4.91-2.73a.38.38,0,0,1,.23.17c.18.32.18.32-2.63,3l-.58.55c.5-.29.54-.28.67-.25a.36.36,0,0,1,.22.17.35.35,0,0,1-.13.48l-.11,0c-.18.09-.82.48-1.29.77-1.49.91-1.5.9-1.68.86a.36.36,0,0,1-.22-.17c-.18-.32-.18-.32,2.64-3l.86-.81L12.2,14.62C8.26,17,7.65,17.37,7.38,17.37Z"/>    <path class="a" d="M7.93,13.87l-.1,0a.37.37,0,0,1-.22-.17C7.4,13.31,7.4,13.31,11,11l.92-.6c-.09-.2,0-.32,1.09-1.32l.39-.37-.12-.4v0c-.21.12-.27.15-.41.11a.35.35,0,0,1-.22-.16c0-.07,0-.08-.06-.3a.34.34,0,0,1-.29,0,.36.36,0,0,1-.22-.16l-.33-.6-.15-.27c-.27.16-.33.19-.47.16a.36.36,0,0,1-.2-.13.33.33,0,0,1-.2-.16L10.17,6l-.38-.51c-.29.18-.36.22-.51.18a.35.35,0,0,1-.22-.17l-.32-.59L8.6,4.69c-.26.16-.33.19-.47.15a.36.36,0,0,1-.18-.12l-.1-.06a.36.36,0,0,1-.12-.12l-.36-.61-.19-.31c-.27.16-.33.2-.48.16l.08-.34.3-.18-.3.18-.14-.32L6.85,3c.31-.19.38-.23.53-.19A.36.36,0,0,1,7.61,3L8,3.57l.19.31c.27-.16.34-.2.48-.16a.36.36,0,0,1,.14.08l.09.08A.36.36,0,0,1,9,4l.32.59.14.26c.27-.16.32-.19.47-.16a.36.36,0,0,1,.22.17l.54.72.39.52c.29-.18.36-.22.51-.18a.36.36,0,0,1,.2.14.36.36,0,0,1,.19.16l.33.6.15.27c.26-.16.33-.19.47-.16a.36.36,0,0,1,.22.16c0,.07,0,.08.06.3a.34.34,0,0,1,.29,0,.35.35,0,0,1,.21.16,2.76,2.76,0,0,1,.18.54h0c.18-.11.25-.13.37-.09a.36.36,0,0,1,.22.17c.1.16.13.23-.11.5l.11,0a.36.36,0,0,1,.22.17c.2.34.22.37-2.43,2.1v0a.35.35,0,0,1-.13.48l-.13,0c-.24.11-1.21.7-1.92,1.14C8.41,13.7,8.1,13.87,7.93,13.87Z"/>    <path class="a" d="M6.49,15.34l-.1,0a.36.36,0,0,1-.22-.17c0-.06,0-.07-.06-.27a.34.34,0,0,1-.28,0,.36.36,0,0,1-.22-.17c-.08-.14-.08-.14.19-1.4l.09-.4a.31.31,0,0,1-.15,0,.36.36,0,0,1-.22-.16c-.09-.15-.08-.23.05-.45l0-.06c-.09-.16-.09-.16.24-1.33l.08-.27h-.1a.36.36,0,0,1-.22-.17c-.09-.15-.09-.15.24-1.49l.11-.47H5.74a.35.35,0,0,1-.22-.17c-.09-.15-.09-.22.1-.55a.35.35,0,0,1-.1-.11c-.09-.16-.09-.16.24-1.21l0-.15H5.73a.36.36,0,0,1-.22-.17C5.43,6,5.43,6,5.76,4.75l.1-.39H5.74a.36.36,0,0,1-.22-.17c-.12-.21-.1-.26.37-.88l0-.06h0l0,0-.13-.33.34-.2c.47-.29.5-.31.66-.27A.36.36,0,0,1,7,2.64c.12.2.1.25-.33.83l0,0c.09.16.09.16-.23,1.43l-.1.39h.12a.35.35,0,0,1,.22.17c.09.16.09.16-.24,1.21l0,.15h.07A.35.35,0,0,1,6.68,7c.09.15.09.22-.1.55a.35.35,0,0,1,.1.11c.09.15.09.15-.24,1.49l-.11.47a.31.31,0,0,1,.13,0,.35.35,0,0,1,.22.17c.09.15.09.15-.24,1.31l-.08.27h.1a.36.36,0,0,1,.22.16c.09.15.08.23-.05.45l.05.07c.08.14.08.14-.19,1.4l-.09.43h.08a.35.35,0,0,1,.23.18c0,.06,0,.07.06.27l.42-.25c1-.61,1-.6,1.17-.56a.36.36,0,0,1,.22.17.35.35,0,0,1-.13.48l-.09,0c-.12.06-.51.3-.8.48C6.77,15.24,6.61,15.34,6.49,15.34Z"/>    <path class="a" d="M14.22,15.23l-.1,0A.36.36,0,0,1,13.9,15c-.14-.24-.13-.34.37-.66a5,5,0,0,1,1-.91c-.09-.18,0-.29.85-1.49l.18-.25a.36.36,0,0,1-.1-.11c-.11-.19-.11-.19.47-1.34l.09-.17a.36.36,0,0,1-.19-.16c-.1-.17-.1-.19.21-.79A.35.35,0,0,1,16.61,9c-.08-.13-.08-.13.11-1.2l0-.27h-.12a.35.35,0,0,1-.22-.16c-.07-.12-.07-.12,0-.78h-.12a.35.35,0,0,1-.22-.16.37.37,0,0,1-.06-.19c0-.11,0-.31,0-.74,0-.06,0-.12,0-.19a.32.32,0,0,1-.46-.12,9,9,0,0,1-.36-1L15,3.67c-.19.11-.26.13-.38.1a.35.35,0,0,1-.21-.16A6.06,6.06,0,0,1,14.18,3l-.07-.18c-.22.13-.28.16-.42.12a.36.36,0,0,1-.22-.17,2.07,2.07,0,0,1-.14-.49c-.23.14-.29.16-.42.12a.35.35,0,0,1-.22-.17l-.32-.48-.13-.2h0c-.37.23-.42.26-.58.22a.36.36,0,0,1-.22-.16l-.27-.34L11,1.11l-.05,0c-.39.24-.44.27-.6.23l-.09,0L9.38,1,8.5.75,8.09,1c-.67.41-.68.42-.85.38l-.1,0c-.52.31-.55.32-.7.28a.36.36,0,0,1-.22-.17A.35.35,0,0,1,6.35,1l.08,0L7.09.54C7.91,0,7.93,0,8.1.06l.1,0C8.41,0,8.46,0,8.57,0l.09,0,.93.3.88.28.16-.1c.39-.24.44-.27.6-.23a.35.35,0,0,1,.22.16l.27.34.11.14,0,0c.37-.22.43-.26.58-.22a.36.36,0,0,1,.22.17l.3.45.15.23c.32-.2.38-.23.54-.19a.35.35,0,0,1,.21.16A1.86,1.86,0,0,1,14,2c.18-.11.24-.13.37-.09a.36.36,0,0,1,.22.16,6.62,6.62,0,0,1,.25.62l.07.19c.2-.12.26-.14.39-.11a.36.36,0,0,1,.22.17,10.42,10.42,0,0,1,.35,1l.18.53c.18-.11.25-.13.38-.1a.35.35,0,0,1,.22.16c.05.09.05.09.09.92v.16a.32.32,0,0,1,.25,0,.36.36,0,0,1,.23.17l0,.07a.22.22,0,0,1,0,.08.29.29,0,0,1,0,.06c0,.1,0,.26-.09.58h.11a.36.36,0,0,1,.22.17c.08.13.08.13-.11,1.2l0,.25a.31.31,0,0,1,.15,0,.35.35,0,0,1,.22.16c.1.16.1.19-.18.74a.36.36,0,0,1,.16.15c.11.19.11.19-.47,1.34l0,.09h0a.36.36,0,0,1,.22.17c.13.23.13.23-.82,1.54l-.06.09a.35.35,0,0,1,.19.16c.14.23.16.27-.5.85l0,0c.12.2.12.3-.17.52a.35.35,0,0,1-.17.21l-.08,0-.7.42C14.5,15.13,14.34,15.23,14.22,15.23Z"/>    <path class="a" d="M10,17.73l-.1,0-.07,0c-.15,0-.8-.18-1.29-.28-.68-.14-1.06-.22-1.27-.28l-.17.11c-.39.24-.44.27-.6.23a.36.36,0,0,1-.17-.1l-.61-.51-.47-.4-.05,0c-.34.21-.4.24-.55.2a.35.35,0,0,1-.22-.17l-.3-.58,0-.06c-.25.15-.31.18-.45.14a.36.36,0,0,1-.22-.16,3.68,3.68,0,0,1-.21-.58l0-.06c-.2.12-.27.14-.4.11a.36.36,0,0,1-.22-.17c0-.07,0-.08-.1-.59a.34.34,0,0,1-.28,0A.35.35,0,0,1,2,14.44a4.07,4.07,0,0,1-.22-.86l-.07-.29a.38.38,0,0,1-.33.07.35.35,0,0,1-.22-.16c-.06-.1-.06-.11,0-.64a.31.31,0,0,1-.18,0,.36.36,0,0,1-.22-.17c-.06-.11-.06-.11,0-1.23,0-.13,0-.28,0-.42a.32.32,0,0,1-.26,0,.35.35,0,0,1-.22-.17c-.08-.14-.08-.14.2-1.41l.09-.4a.3.3,0,0,1-.18,0,.35.35,0,0,1-.22-.17C0,8.47,0,8.4.21,8a.37.37,0,0,1-.08-.09C0,7.74,0,7.74.78,6.38l.11-.2H.83A.36.36,0,0,1,.61,6C.42,5.67.42,5.67,3.29,3.05l.47-.43c-.4.23-.44.22-.56.18A.36.36,0,0,1,3,2.64a.35.35,0,0,1,.13-.48l.11,0C3.39,2,4,1.63,4.52,1.34,6,.42,6,.42,6.22.47a.36.36,0,0,1,.22.17c.19.32.19.32-2.68,2.94L2,5.16H2c.12.21.12.21-.65,1.56l-.22.38a.35.35,0,0,1,.15.14c.1.17.09.23-.15.6a.36.36,0,0,1,.08.1c.08.14.08.14-.2,1.41L1,9.78h.12a.36.36,0,0,1,.22.17c.06.11.06.11,0,1.21,0,.14,0,.29,0,.44a.31.31,0,0,1,.23,0,.36.36,0,0,1,.22.17c.06.1.06.1,0,.64a.3.3,0,0,1,.18,0,.36.36,0,0,1,.22.17,4.07,4.07,0,0,1,.22.86l.07.29c.21-.11.41-.16.55.08,0,.08,0,.09.1.6a.36.36,0,0,1,.53.11,4,4,0,0,1,.19.54l0,.1c.2-.12.27-.14.4-.11a.36.36,0,0,1,.22.17l.2.4.12.23c.29-.18.36-.21.5-.17a.36.36,0,0,1,.18.11l.62.52.46.39.09-.06c.39-.24.44-.27.6-.23l.07,0c.15,0,.81.18,1.29.28.69.14,1.07.22,1.28.28l.65-.39c.89-.55.91-.56,1.09-.51a.36.36,0,0,1,.22.17.37.37,0,0,1,.05.18l1-.58c1.5-.92,1.51-.92,1.7-.87a.36.36,0,0,1,.22.17.35.35,0,0,1-.13.48l-.11,0c-.18.09-.83.49-1.32.78-1.5.92-1.51.92-1.7.87a.36.36,0,0,1-.22-.17.32.32,0,0,1,0-.16L11,17.2C10.25,17.63,10.09,17.73,10,17.73Z"/>  </g></svg>