<svg xmlns="http://www.w3.org/2000/svg" width="83.34" height="22.07" viewBox="0 0 83.34 22.07">  <defs>    <style>      .a {        fill: none;        stroke: #002147;        stroke-linecap: round;        stroke-linejoin: round;        stroke-width: 1.13px;      }    </style>  </defs>  <title>アセット 6</title>  <g>    <g>      <path class="a" d="M17.09,11.3c.07.12,4.8-2.93,4.87-2.81s-4.89,2.72-4.82,2.84S21.91,8.42,22,8.54s-4.48,4.52-4.4,4.66,4.63-2.83,4.7-2.71-4.42,5.07-4.33,5.22S22.6,12.86,22.67,13s-4.52,4.52-4.44,4.66S22.9,14.79,23,14.91s-4.73,3.15-4.66,3.27,4.67-2.86,4.74-2.74-3.93,5-3.85,5.14,4.2-2.57,4.26-2.46-1.09,2.58-1.05,2.64S23.62,20,23.64,20"/>      <path class="a" d="M15.13,1.76s1.56-1,1.58-.91S13.92,4.69,14,4.8,20.34.91,20.44,1.07,13,7,13.14,7.2s7.8-4.77,7.91-4.57-9,7-8.85,7.24,9-5.51,9.15-5.28S12,9.73,12.18,10s9.06-5.54,9.19-5.31S11.68,10.72,11.83,11s9.52-5.82,9.66-5.58"/>      <path class="a" d="M7.05,11.31c.05.09,3.61-2.21,3.67-2.12s-3.13,3.42-3.07,3.52,3.48-2.13,3.53-2-3.1,3.37-3,3.47c.19.34,13.3-8.13,13.49-7.79s-13.24,8.75-13,9.09,13.08-8,13.27-7.66-13.18,8.13-13,8.47c.11.18,7.2-4.4,7.3-4.22S8.91,16.48,9,16.67s6.83-4.18,6.93-4-6.47,5.47-6.36,5.66S15,15,15.08,15.15s-5.25,3.92-5.17,4.06,4.63-2.83,4.7-2.71-4.42,3.15-4.35,3.27,4-2.42,4-2.32-2.87,2.74-2.82,2.83,2.26-1.38,2.3-1.33S11.94,20.23,12,20.28s1.51-.92,1.53-.89"/>      <path class="a" d="M3.14,1.67S4.56.8,4.58.84s-1.74,2-1.71,2.11S6.61.66,6.66.76s-4.07,3.7-4,3.82S8.08,1.26,8.16,1.4,2.43,5.48,2.52,5.63,8.43,2,8.52,2.17,2.15,7.48,2.25,7.66,8.92,3.59,9,3.76s-7.16,5.8-7,6S9.42,5.21,9.53,5.4s-7.89,5.79-7.77,6S9.81,6.48,9.93,6.68,1.58,11.62,1.7,11.83,9.92,6.81,10,7,1.56,11.76,1.68,12s8.26-5.05,8.39-4.84S1.15,14.64,1.3,14.9s4.83-3,4.9-2.83S.93,16.86,1,17,5.88,14,6,14.17.82,17.8.9,17.94s4.88-3,4.95-2.86S.69,18.77.77,18.91s4.89-3,5-2.87-4.68,4.41-4.6,4.55S5.44,18,5.5,18.08s-1.74,2.61-1.7,2.68,1.37-.83,1.39-.8"/>      <path class="a" d="M4.81,1s.7-.43.71-.41,2.54,1,2.58,1.07.34-.21.35-.2-.35.2-.34.21.34-.21.35-.2.26,1.89.28,1.94.34-.2.34-.2,0,1.38,0,1.41.33-.2.34-.2-.16.8-.15.81.33-.2.34-.2.13,1.72.15,1.76.33-.2.34-.2.22,2,.25,2.07.33-.2.34-.2S10.78,10,10.8,10s.33-.2.34-.2-.1,1-.08,1,.33-.2.34-.19-.09.81-.08.82.65-.4.66-.38"/>      <path class="a" d="M14.93,1.62s1.69-1,1.71-1S13.94,4,14,4.09s.5-.31.51-.29-1.75,3.64-1.7,3.73.5-.31.51-.3-1.21,2.15-1.18,2.2.51-.31.51-.3-1,1.53-1,1.57.51-.31.52-.3"/>      <path class="a" d="M16.77,1s.7-.43.71-.41,1.68.28,1.7.32.6-.37.61-.35l1.08,1.91s.35-.21.36-.21S21,3.32,21,3.35s.35-.21.36-.21-.32.47-.31.48.35-.21.36-.21-.27.79-.26.81.35-.21.36-.21-.24,1-.22,1,.35-.21.36-.21-.25,1-.23,1,.35-.21.36-.21-.31.5-.31.51.35-.21.36-.21-.22,1.14-.21,1.16.35-.21.36-.21-.19,1.34-.17,1.37.35-.21.36-.21-.33.39-.32.4.35-.21.36-.21-.24,1-.23,1,.35-.21.36-.21-.34.35-.33.36.35-.21.36-.21-.11,1.92-.08,2,.35-.21.36-.21-.35.29-.34.3.35-.21.36-.21-.2,1.3-.18,1.32.35-.21.36-.21-.29.66-.28.67.35-.21.36-.21-.16,1.56-.14,1.6.35-.21.36-.21-.17,1.47-.15,1.5.35-.21.36-.21-.36.21-.35.22.35-.21.36-.21-.28.72-.27.74.35-.21.36-.21-.13,1.77-.11,1.81.35-.21.36-.21-.22,1.15-.2,1.17.35-.21.36-.21-.3,1.4-.28,1.43.44-.27.44-.26"/>      <path class="a" d="M17.07,11.61s.33-.2.33-.19-.21.78-.2.8.36-.22.37-.21-.08,2.31,0,2.36.36-.22.36-.21-.32.53-.31.54.36-.22.36-.21-.22,1.29-.2,1.32.36-.22.36-.21S18,17.68,18,17.73s.36-.22.36-.21-.31.6-.3.62.35-.22.36-.21-.34.36-.34.37.35-.22.36-.21.33,2.38.36,2.44.33-.2.33-.19,3.26.57,3.3.64,1.36-.83,1.38-.8"/>      <path class="a" d="M16.12,11.67s.94-.57,1-.55-1,.6-1,.62,1-.62,1-.6-2,3.18-2,3.26.5-.31.51-.29-1.75,3.61-1.7,3.7.5-.31.51-.29-1.09,1.69-1.07,1.73.57-.35.58-.33"/>      <path class="a" d="M7,11.59s.31-.19.32-.18.35,2.11.37,2.15.34-.21.35-.2.19,1.76.21,1.8.34-.21.34-.2.25,1.94.27,2,.34-.21.34-.2-.33.25-.32.25.34-.21.34-.2.22,1.83.24,1.87.33-.2.34-.2l1,1.89s.5-.3.51-.29.72.41.73.43,1.66-1,1.68-1"/>      <path class="a" d="M6.08,11.69s1-.59,1-.56S5.83,13.5,5.86,13.56s.41-.25.41-.24-.65,2-.63,2.07.41-.25.41-.24S5.43,17,5.45,17.06s.41-.25.41-.24-.55,1.25-.53,1.28.41-.25.41-.24-.49.76-.48.78.41-.25.41-.24S5,19.8,5,19.83s.51-.31.52-.3"/>      <path class="a" d="M3,1.52S4.49.58,4.52.62,2.63,2.75,2.67,2.81s.41-.25.42-.24S2.43,4.4,2.45,4.44s.41-.25.42-.24S2.3,5.47,2.31,5.5s.41-.25.42-.24S2,7.47,2,7.53s.41-.25.42-.24-.72,2.28-.69,2.34.41-.25.42-.24-.66,1.84-.63,1.88S2,11,2,11s-.49.66-.48.67.41-.25.42-.24-.44.36-.44.38.41-.25.42-.24-.84,3.1-.8,3.17.41-.25.42-.24-.73,2.31-.7,2.37.41-.25.42-.24S.68,17.77.69,17.8s.41-.25.42-.24S.55,18.74.57,18.77s.41-.25.42-.24-.25,2-.23,2,.36-.22.37-.21,2.38.58,2.41.63,1-.62,1-.59-.72.57-.71.59,1.48-.9,1.5-.87"/>    </g>    <g>      <path class="a" d="M36.31,17.86c.06.11,4.44-2.71,4.5-2.6S36.4,20,36.48,20.13s4.27-2.61,4.34-2.5-2.14,3-2.09,3.13,2.06-1.26,2.09-1.21-1.45,1.17-1.42,1.21S40.69,20,40.71,20"/>      <path class="a" d="M36.45,7.71s1.34-.82,1.36-.79-1.52,2.53-1.48,2.6,4-2.46,4.09-2.36-4.16,3.95-4.09,4.07,4.42-2.7,4.49-2.59-4.56,4-4.49,4.15,4.42-2.7,4.49-2.59-4.56,3.44-4.49,3.56,4.42-2.7,4.49-2.59-4.55,3-4.49,3.1,4.42-2.7,4.49-2.59-4.57,4.43-4.49,4.57,4.42-2.7,4.49-2.59-4.55,2.7-4.49,2.81,4.42-2.7,4.49-2.59"/>      <path class="a" d="M27.28,7.71s1.35-.82,1.37-.79-1.51,1.92-1.48,2,3.43-2.1,3.48-2-3.55,3.41-3.48,3.52,4.38-2.68,4.45-2.57-4.51,3.42-4.44,3.54,4.41-2.7,4.48-2.59-4.49,4.28-4.41,4.42,4.35-2.66,4.41-2.55S27.36,14.91,27.43,15s4.19-2.56,4.25-2.45-4,3.69-4,3.81S31.84,13.88,31.9,14s-4.14,2.65-4.08,2.76,4.1-2.51,4.16-2.4-4.19,2.4-4.13,2.51S32,14.33,32,14.43s-3.18,4.39-3.11,4.5,4.45-2.72,4.51-2.6-3.31,3.73-3.24,3.83,5.42-3.31,5.5-3.18-4.94,3.53-4.86,3.66,9.86-6,10-5.78-9.5,5.76-9.36,6c0,.06,2.47-1.51,2.51-1.45"/>      <path class="a" d="M28.9,7.08s.7-.43.71-.41,1.69.9,1.71.94.39-.24.39-.23-.27,2.81-.23,2.88.38-.23.38-.22-.4,1.7-.38,1.74.37-.23.38-.22-.16,2.36-.13,2.41.33-.2.33-.19.42,1.86.44,1.9.32-.19.32-.19l.6,1s.38-.23.38-.22,1.29.74,1.31.78.54-.33.55-.32-.17.36-.17.37,1-.59,1-.57"/>      <path class="a" d="M36.26,7.56s1.46-.89,1.48-.86S36.07,8.89,36.11,9s.38-.23.38-.22-.42,2.7-.38,2.76.38-.23.38-.22-.4,1.14-.38,1.16.38-.23.38-.22-.39.51-.38.52.38-.23.38-.22-.4.86-.38.88.38-.23.38-.22-.4,1.11-.38,1.13.38-.23.38-.22-.4,1.05-.38,1.08.38-.23.38-.22-.39.54-.38.56.38-.23.38-.22-.4,1-.38,1.07.38-.23.38-.22"/>      <path class="a" d="M38,7.08s.7-.43.71-.41l.56.36s.62-.38.63-.36.76,1.83.79,1.87.38-.23.39-.22-.39.57-.39.58.38-.23.39-.22-.4,1.39-.38,1.42.38-.23.38-.22-.41,2.26-.38,2.31S41,12,41,12s-.39.65-.38.67.38-.23.38-.22-.39.39-.38.4.38-.23.38-.22-.42,2.8-.38,2.86.38-.23.38-.22-.42,2.71-.38,2.77.38-.23.38-.22-.4,1.59-.38,1.63.38-.23.38-.22-.48.6-.47.61.46-.28.47-.27-.5.31-.49.33.48-.3.49-.28"/>      <path class="a" d="M36.11,18.23s.38-.23.38-.22-.39.27-.38.28.38-.23.38-.22-.21,2.18-.19,2.23.39-.24.39-.23,2.72.84,2.76.9,1.44-.88,1.46-.84"/>      <path class="a" d="M34.67,18.61s1.64-1,1.66-1-2.53,1.59-2.49,1.66,1.86-1.14,1.89-1.09"/>      <path class="a" d="M27.1,7.57s1.47-.9,1.49-.86-1.67,2-1.64,2.07.38-.23.38-.22-.4,1.69-.38,1.73.38-.23.38-.22-.4,1.17-.38,1.2.37-.23.38-.22-.33,2-.3,2,.36-.22.37-.21-.21,2-.19,2,.34-.21.35-.2-.13,1.55-.11,1.58.34-.21.34-.2-.25.52-.24.54.34-.21.35-.2-.31.29-.31.3.33-.2.34-.2.67,2.25.7,2.3l.27-.16.91,1.43s.32-.19.32-.18l.3.68s.34-.21.35-.2l.48.62s.65-.4.66-.38-.41.42-.4.43,2.55-1.56,2.59-1.49"/>    </g>    <g>      <path class="a" d="M44.47,17.51s1.19-.72,1.2-.69S44.12,20,44.16,20.05s4.55-2.78,4.61-2.66-3.06,3.55-3,3.65c.15.26,10.44-6.38,10.6-6.12S48.92,21.08,49,21.29s7.83-4.79,7.94-4.59S49,21.1,49.16,21.3s7.72-4.72,7.83-4.52S53,20.9,53.1,21s3.18-1.95,3.23-1.86-2.86,1.68-2.82,1.75,2.64-1.61,2.68-1.55"/>      <path class="a" d="M50.87,10c.07.13,5-3.08,5.12-3s-2.5,3.07-2.45,3.16,2.69-1.64,2.73-1.58-1.63,1.78-1.6,1.83,1.29-.79,1.31-.76"/>      <path class="a" d="M45,8.53c0,.07,2.81-1.71,2.85-1.64S44.24,9.94,44.3,10s6.09-3.72,6.18-3.57-6.33,4.93-6.23,5.1,8.68-5.31,8.81-5.08-8.66,5.68-8.53,5.9,9.8-6,9.94-5.74-8.93,6.71-8.79,6.95,3.71-2.27,3.77-2.18-2,3-1.94,3.06,3.83-2.34,3.89-2.24S49.1,15,49.14,15.06,53,12.71,53,12.81s-3.51,2.3-3.45,2.39,3.81-2.33,3.86-2.23-3.78,2.18-3.72,2.27,3.79-2.31,3.84-2.22S52,16.52,52.06,16.6s3.79-2.32,3.85-2.22S52,16.57,52,16.67s3.85-2.35,3.9-2.25"/>      <path class="a" d="M48.27,6.94s.93-.57.95-.55,1.86.18,1.88.22.67-.41.68-.39,3.2.59,3.24.67.53-.32.53-.31l.42.7s.36-.22.36-.21-.23.42-.22.43.35-.22.36-.21-.26.78-.25.8.38-.23.39-.22-.68,1.26-.66,1.29.46-.28.47-.27-.6.71-.59.73.46-.28.47-.27"/>      <path class="a" d="M51,10.19s.65-.4.66-.38l.46.41s.57-.35.58-.34,2.06.74,2.09.79,1.31-.8,1.33-.77"/>      <path class="a" d="M49.21,10.72s1.53-.94,1.56-.9-1.61.93-1.58,1,1.68-1,1.71-1-.36,2.26-.33,2.32.44-.27.44-.26,2.44,1.23,2.47,1.29.4-.24.4-.23,1.45,1.21,1.47,1.25.36-.22.36-.21.08.52.08.53.35-.21.35-.2.66,2.46.69,2.52.36-.22.36-.21-1.06,2.57-1,2.63.59-.36.6-.34"/>      <path class="a" d="M44.29,17.34s1.29-.79,1.3-.75-1.72,3.26-1.68,3.34.36-.22.36-.21l.78,1.47s.55-.34.56-.32,2.62.55,2.65.61.59-.36.6-.34-.5.34-.49.35.59-.36.6-.35,2.9.25,2.94.31.89-.55.91-.52.79.21.8.23,2.77-1.69,2.81-1.62"/>      <path class="a" d="M45.67,17s.49-.3.49-.29,1.73.69,1.75.73.53-.32.53-.31,2,.49,2,.54,1.7-1,1.73-1-1.56.93-1.54,1,1.5-.91,1.52-.88"/>      <path class="a" d="M44.8,8.45c0,.08,3.06-1.87,3.1-1.79S44,9.87,44.1,10s.43-.26.43-.25S44,11.48,44,11.52s.35-.21.35-.2-.11,1-.1,1,.32-.19.32-.18l.72,1.46s.36-.22.37-.21,1.38,1.09,1.41,1.12.41-.25.41-.24,1.16.81,1.18.84.44-.27.44-.26,0,.39,0,.4.44-.27.44-.26-.31.29-.31.3.44-.27.44-.26,2.09,1.4,2.12,1.46.31-.19.31-.18"/>    </g>    <g>      <path class="a" d="M60.58,7.71s1.35-.82,1.37-.79-1.52,2.54-1.48,2.6,4-2.46,4.09-2.36-4.16,3.95-4.09,4.07S64.89,8.53,65,8.65s-4.56,4-4.48,4.15,4.42-2.7,4.48-2.59-4.56,3.44-4.48,3.56,4.42-2.7,4.48-2.59-4.55,3-4.48,3.1,4.42-2.7,4.48-2.59-4.56,4.43-4.48,4.57,4.42-2.7,4.48-2.59-4.56,3.54-4.48,3.67,4.42-2.7,4.48-2.59S60.4,18,60.47,18.09s4.42-2.7,4.48-2.59-4.56,3.66-4.48,3.79,4.42-2.7,4.48-2.59-3.76,3.84-3.7,4,3.64-2.23,3.7-2.13-2.67,2.16-2.62,2.24,2.58-1.58,2.62-1.51-1.45,1.47-1.42,1.51S64.82,20,64.84,20"/>      <path class="a" d="M60.58,1.62S61.93.8,61.95.83s-1.51,1.92-1.48,2S63.9.71,63.95.8,60.6,4.1,60.66,4.2s4.19-2.56,4.26-2.46-3.45,2.84-3.4,2.94S64.9,2.62,65,2.7s-1.51,1.88-1.48,1.94,1.34-.82,1.36-.79"/>      <path class="a" d="M62.11,7.08s.7-.43.71-.41,1.38.47,1.39.5.42-.25.42-.24.12,2.4.15,2.45.38-.23.39-.22-.4,1.14-.38,1.16.38-.23.39-.22-.39.51-.38.52.38-.23.38-.22-.4.86-.38.88.38-.23.38-.22-.4,1.11-.38,1.13.38-.23.38-.22S64.77,13,64.79,13s.38-.23.38-.22-.39.54-.38.56.38-.23.38-.22-.4,1.24-.38,1.26.38-.23.38-.22-.4,1.46-.38,1.49.38-.23.38-.22-.39.43-.38.44.38-.23.38-.22-.4,1.06-.38,1.09.38-.23.38-.22-.39.37-.38.39.38-.23.38-.22-.41,2.09-.38,2.14.38-.23.38-.22-.39.32-.38.33.38-.23.38-.22-.51,1.11-.5,1.13.49-.3.49-.28"/>      <path class="a" d="M60.4,7.57s1.47-.9,1.49-.86-1.67,1.58-1.64,1.63.39-.24.39-.23-.43,2.5-.39,2.56.38-.23.38-.22-.39.57-.38.58.38-.23.38-.22-.4,1.39-.38,1.42.38-.23.38-.22-.41,2.26-.38,2.31.38-.23.38-.22-.39.65-.38.67.38-.23.38-.22-.39.39-.38.4.38-.23.38-.22-.42,2.8-.38,2.86.38-.23.38-.22-.29,2.64-.26,2.7.36-.22.36-.21l.61,1.06s.52-.32.52-.3-.07.37-.07.38.65-.4.66-.38,1.11.36,1.12.38S65,20.11,65,20.15"/>      <path class="a" d="M62.2,1s.7-.43.71-.41S62.3,1,62.31,1,63,.55,63,.57s1.67,1.1,1.69,1.15.37-.22.37-.22-.44,2.15-.42,2.2.48-.3.49-.28"/>      <path class="a" d="M60.4,1.47s1.47-.9,1.49-.86-1.67,2-1.64,2.07.38-.23.38-.22-.29,1.63-.27,1.66.4-.24.4-.23.19.84.2.86.46-.28.47-.27,2.08.33,2.11.38S65,4,65,4"/>    </g>    <g>      <path class="a" d="M75.27,9.71c.07.11,4.46-2.72,4.52-2.61s-2.68,3.17-2.62,3.26,4.26-2.61,4.33-2.5-3,3.31-2.94,3.41,3.93-2.4,4-2.3-3,2.84-3,2.93,1.56-1,1.58-.91"/>      <path class="a" d="M70.55,8.67c0,.08,3.27-2,3.32-1.92s-4.74,3.69-4.67,3.82,7-4.29,7.13-4.11-7.77,5.71-7.64,5.92,9.65-5.9,9.79-5.65-10.05,6.44-9.9,6.7,5.11-3.13,5.19-3-5.09,4.61-5,4.76,4.26-2.61,4.33-2.5-3.81,4-3.74,4.09,4.18-2.56,4.24-2.45S70,17.75,70.11,17.86s4.27-2.61,4.33-2.5S70.26,18,70.32,18.13s4.35-2.66,4.42-2.55-4.39,2.51-4.33,2.62,4.36-2.66,4.42-2.55-2.4,4-2.34,4.06,5-3.06,5.08-2.93-3.11,3.62-3.05,3.73,6-3.67,6.09-3.51-5.18,3.66-5.1,3.79S81.95,16.85,82,17s-5.47,3.86-5.38,4,5.48-3.35,5.56-3.21-2.94,3.4-2.88,3.49,1.6-1,1.62-.94"/>      <path class="a" d="M74.11,6.84s.82-.5.83-.48-.72.45-.71.47.82-.5.83-.48,2.91.36,3,.42.47-.29.47-.27S80.93,7.72,81,7.78s.39-.24.4-.23l1,1.55s.44-.27.45-.26-1,1.1-.95,1.13.81-.5.83-.48S81,10.82,81.06,10.86s1-.6,1-.58"/>      <path class="a" d="M75.31,9.94s.49-.3.49-.29,1.88,1.22,1.91,1.27.35-.21.36-.21,1.14,1.21,1.17,1.24.38-.23.39-.22,0,.38,0,.39,1.66-1,1.68-1"/>      <path class="a" d="M73.45,10.57s1.76-1.08,1.79-1-2.37,3-2.32,3.09.35-.22.36-.21,0,1.67,0,1.7.32-.2.33-.19.42,1.27.44,1.3.34-.2.34-.2l.36.76s.33-.2.34-.19,0,.47,0,.49.4-.24.41-.23,1.66,1,1.68,1,.47-.29.48-.28.94.5,1,.52.57-.35.58-.34l.58.42s.73-.44.74-.43,1.36.38,1.37.41.37-.23.38-.22-1,2.35-1,2.41.57-.35.58-.34-1,1.15-1,1.18.59-.36.6-.35"/>      <path class="a" d="M70.32,8.52c0,.09,3.37-2.06,3.42-2s-4.7,3.66-4.63,3.79.59-.36.6-.35-1.23,2.14-1.2,2.2.4-.25.41-.24-.56,1.26-.54,1.29.4-.25.41-.24-.29,2-.26,2,.35-.22.36-.21.16,1.79.18,1.83.33-.2.34-.19.35,1.28.37,1.31.33-.2.34-.19S70,18,70,18.05s.33-.2.34-.2-.28.27-.27.28.33-.2.34-.2S72,19.65,72,19.7s.37-.23.38-.22,1.49,1,1.52,1.09.46-.28.47-.27l.54.54s.46-.28.47-.27l.6.55s.47-.28.47-.27,2.21.56,2.24.61.56-.34.57-.33l.16.38s1.69-1,1.71-1"/>    </g>  </g></svg>