<svg xmlns="http://www.w3.org/2000/svg" width="69.38" height="21" viewBox="0 0 69.38 21">  <defs>    <style>      .a {        fill: #fff;      }      .b {        fill: #ff0;      }      .c {        fill: none;      }    </style>  </defs>  <title>アセット 7</title>  <g>    <g>      <g>        <path class="a" d="M16.44,17h-.08a.27.27,0,0,1-.17-.13c-.07-.12-.07-.12.27-.89l.28-.63c-.47.27-1.13.68-1.59,1C14,17,14,17,13.89,17a.28.28,0,0,1-.17-.13c-.1-.19-.06-.24.31-.53-1.17.71-1.2.7-1.33.66a.28.28,0,0,1-.17-.13c-.11-.18-.09-.19.36-.66l.71-.74-2.26,1.35C11,17,11,17,10.91,17a.27.27,0,0,1-.17-.13c-.12-.21-.1-.27.75-1l-.35.22c-1.55,1-1.55.95-1.7.91a.28.28,0,0,1-.17-.13c-.11-.2,0-.26.33-.57L10,16C8.24,17,8.22,17,8.06,17a.28.28,0,0,1-.17-.13c-.12-.2-.1-.22.8-1.28l.24-.29-1.4.84C6.07,17,6.07,17,5.93,17a.27.27,0,0,1-.17-.13c-.13-.22-.06-.29,1-1.46l0,0L5.86,16C4.13,17.05,4.11,17,3.95,17a.29.29,0,0,1-.17-.13c-.11-.2-.11-.2.6-.86l.56-.53L3.19,16.55c-.81.5-.81.5-.93.47a.27.27,0,0,1-.17-.13c-.11-.2-.11-.26.84-1.24-1.73,1-1.72,1-1.86,1a.27.27,0,0,1-.16-.13c-.09-.15-.1-.17.49-1.4-.21.13-.27.14-.37.12a.27.27,0,0,1-.17-.13.27.27,0,0,1,.1-.37l.07,0,.33-.2c.49-.31.58-.37.72-.33a.28.28,0,0,1,.17.13c.08.13.08.13-.27.85l-.29.6,1-.59,1.1-.64c.63-.37.73-.42.87-.18s.12.2-.85,1.19l0,0c2.3-1.4,2.39-1.37,2.54-1.34a.29.29,0,0,1,.17.13c.1.17.14.24-.61,1C7.68,14.21,7.81,14.17,8,14.21a.3.3,0,0,1,.18.13c.12.21.07.28-.91,1.35h0c2.52-1.52,2.55-1.51,2.71-1.47a.28.28,0,0,1,.17.13c.12.21.08.29-.93,1.47l.55-.34c2.13-1.31,2.16-1.3,2.33-1.26a.29.29,0,0,1,.17.13c.08.14.12.21-.27.59,1.21-.73,1.33-.76,1.47-.72a.29.29,0,0,1,.17.13c.1.17.08.29-.38.7,1.5-.88,1.57-.86,1.68-.83a.28.28,0,0,1,.17.13c.1.17.12.21-.84,1.21l.18-.11c2-1.24,2.05-1.23,2.21-1.19a.28.28,0,0,1,.17.13c.06.1.1.17,0,.34.35-.19.44-.19.53-.17a.29.29,0,0,1,.18.13c.07.13.08.13-.5,1.42.29-.17.31-.17.41-.14l-.07.26-.23.14.23-.14.1.25-.36.21C16.63,17,16.53,17,16.44,17Z"/>        <path class="a" d="M10.74,6.52h-.07a.28.28,0,0,1-.17-.13c-.07-.13-.07-.13.23-1.2l.18-.63c-.61.34-1.71,1-2.32,1.39-1,.6-1,.6-1.1.57a.27.27,0,0,1-.17-.13c-.1-.17-.08-.22.58-1.44L8,4.75,6.89,5.4C5,6.54,5,6.54,4.83,6.51a.27.27,0,0,1-.17-.13c-.09-.16-.12-.21.25-.54-1.17.7-1.19.7-1.31.67a.27.27,0,0,1-.17-.12c-.11-.18-.11-.18.51-.82l.33-.34C2.94,6,2.94,6,2.79,6a.28.28,0,0,1-.17-.13c-.09-.16-.06-.24.41-1.08a.3.3,0,0,1-.25,0,.28.28,0,0,1-.17-.13.27.27,0,0,1,.1-.37l.09,0c.12-.06.47-.28.61-.37s.27-.17.38-.14A.27.27,0,0,1,4,3.93c.09.16.08.17-.38,1l-.09.15L4,4.76c1.59-1,1.61-1,1.77-.93A.28.28,0,0,1,5.95,4c.09.16.11.2-.73,1.08,2.08-1.25,2.1-1.24,2.25-1.2A.28.28,0,0,1,7.64,4c.09.15.11.22-.21.51,1.14-.67,1.16-.67,1.27-.64A.27.27,0,0,1,8.87,4c.1.16.08.18-.5,1.25l-.19.35.12-.08c2.81-1.72,2.87-1.7,3-1.66a.29.29,0,0,1,.17.13c.07.13.08.14-.27,1.38l-.12.41,1.42-.85c1.85-1.12,1.86-1.12,2-1.08a.28.28,0,0,1,.17.13c0,.13,0,.13,0,.4L14.33,5.7l.53-.31c.95-.55.94-.56,1.06-.52l-.07.26-.23.13.23-.13.12.24-.84.48c-1.17.68-1.17.68-1.29.65a.27.27,0,0,1-.16-.12c-.06-.11-.07-.11.39-1.79l-1.25.75A9.57,9.57,0,0,1,10.74,6.52Z"/>        <path class="a" d="M2.67,17.57a.23.23,0,0,1-.2-.12s-.07-.15-.13-.33l-.17-.45a.24.24,0,0,1-.21,0l.18-.51L2,16.44l-.12-.24L2,16.14c.18-.11.39-.23.53,0,0,0,0,.09.3.77C4.41,16,4.42,16,4.56,16a.27.27,0,0,1,.17.13l.31.45.24.34.43-.27C6.75,16,6.84,16,7,16a.28.28,0,0,1,.17.13c.06.11.06.18-.06.42,1-.57,1-.57,1.1-.54a.27.27,0,0,1,.17.14c0,.09,0,.13,0,.34l-.07.25.21-.13c1-.62,1-.64,1.19-.6a.28.28,0,0,1,.17.13h0l.2.43.17.36.79-.47c.77-.47.77-.47.9-.44a.27.27,0,0,1,.17.13l.53.53.29.29,1-.59c.65-.39.65-.39.77-.36a.27.27,0,0,1,.17.13c.07.11.07.12-.13.56l.93-.57c.17-.11.22-.14.33-.11a.27.27,0,0,1,.16.12c.06.1.06.11-.06.52l0,.08.94-.55c1.19-.69,1.19-.69,1.32-.46a.27.27,0,0,1-.09.37h0l-.94.54c-1.72,1-1.72,1-1.86.77s-.06-.15,0-.55c-1.16.72-1.23.7-1.35.67a.28.28,0,0,1-.17-.13c-.06-.1-.07-.12.09-.49-1.09.65-1.1.65-1.23.62a.28.28,0,0,1-.17-.13L12.25,17l-.43-.44-.5.3c-1.12.68-1.12.68-1.26.64a.27.27,0,0,1-.17-.13l-.3-.62-.08-.17-.71.44c-.81.5-.84.52-1,.48a.28.28,0,0,1-.17-.13c-.05-.09-.06-.11.07-.6l-.7.41c-.67.39-.7.41-.85.21s-.08-.19.09-.48L6,17.12c-.72.45-.74.46-.87.43A.27.27,0,0,1,5,17.42l-.36-.52-.19-.28L3,17.45A.66.66,0,0,1,2.67,17.57Zm7.2-1.44h0Z"/>        <path class="a" d="M17,15.59H17a.27.27,0,0,1-.17-.13s0-.07-.37-.89l-.11-.26-1,.61c-.55.33-.55.34-.67.3a.27.27,0,0,1-.16-.13l-.26-.4-.25-.38-.23.14c-1.36.82-1.36.81-1.51.78a.27.27,0,0,1-.17-.13c-.06-.1-.08-.14.07-.4l-.17.11c-.71.45-.72.46-.86.42a.28.28,0,0,1-.17-.13l-.17-.43-.13-.34-.54.33c-1,.6-1,.61-1.14.57a.28.28,0,0,1-.17-.13l-.64-.53-.36-.3-.68.41c-.9.56-.95.58-1.09.55a.28.28,0,0,1-.17-.13l-.14-.27-.28-.53c-.25.14-.68.41-.94.57-.63.39-.63.39-.76.36a.27.27,0,0,1-.17-.13c0-.08,0-.08,0-.68l-.56.34c-.77.47-.77.46-.9.43l.07-.26.23-.13-.24.13L2,14.67l.65-.38c1.06-.64,1.07-.64,1.21-.61a.27.27,0,0,1,.17.13c0,.08,0,.08,0,.58v.08l.11-.07c1.19-.74,1.26-.76,1.41-.72a.28.28,0,0,1,.17.13l.4.76,0,0,.63-.38c.89-.55.93-.57,1.07-.54a.28.28,0,0,1,.17.13H8s.21.16.42.34l.58.49.74-.45c.85-.53.88-.54,1-.51a.27.27,0,0,1,.17.13s0,.1.26.65l0,.11.37-.23c1.05-.66,1.15-.7,1.3-.66a.29.29,0,0,1,.17.13c.07.12.06.17-.09.41l.39-.24c.54-.33.54-.33.66-.3a.27.27,0,0,1,.17.13l.38.59.13.2.23-.14c1.35-.82,1.37-.81,1.51-.78a.27.27,0,0,1,.17.13l.23.55.24.58.08,0c.56-.35.62-.39.77-.35a.28.28,0,0,1,.17.13.27.27,0,0,1-.1.37l-.08,0-.47.28C17.19,15.54,17.11,15.59,17,15.59Z"/>        <path class="a" d="M1.84,17.54H1.77a.27.27,0,0,1-.16-.13,5.31,5.31,0,0,1-.21-.67l-.08-.27c-.58.36-.65.39-.78.36a.27.27,0,0,1-.17-.13c-.12-.2-.12-.2,1-1.39l.23-.23c-1.23.75-1.26.73-1.4.7a.28.28,0,0,1-.17-.13c-.11-.19-.11-.2.57-.9l0-.17.23-.13-.23.13-.1-.25L1,14.07c.65-.4.69-.43.83-.39a.27.27,0,0,1,.17.13c.08.15.11.19-.23.55l.1-.06c1.07-.65,1.07-.65,1.21-.62a.27.27,0,0,1,.17.13c.13.22.13.23-1.45,1.88l-.15.16a.27.27,0,0,1,.08.08,4.69,4.69,0,0,1,.21.66l.09.3h.1l0,.18,0,.11h0l.09.21-.1.06A.37.37,0,0,1,1.84,17.54Zm0-.28-.06,0Z"/>        <path class="a" d="M15.3,5.69h-.07a.27.27,0,0,1-.17-.13c-.08-.13-.07-.2.16-.57h-.09A.27.27,0,0,1,15,4.83l-.46-.38-.64-.55-.65.38c-.9.54-.89.53-1,.5A.27.27,0,0,1,12,4.66c-.06-.11-.06-.14.06-.47-1,.63-1.06.64-1.21.6a.28.28,0,0,1-.17-.13L10.38,4c-1.38.87-1.46.86-1.59.82a.29.29,0,0,1-.17-.13,5.43,5.43,0,0,1-.21-.55L8.36,4l-.47.29c-.86.54-.94.58-1.09.54a.28.28,0,0,1-.13-.08l-.51-.37-.64-.46-.72.44c-.73.45-.77.49-.91.45a.28.28,0,0,1-.17-.13.27.27,0,0,1,.1-.37l.08,0,.62-.38c.93-.58,1-.59,1.12-.56a.28.28,0,0,1,.17.13l.67.46.44.31.69-.43c.75-.48.81-.51,1-.48a.28.28,0,0,1,.17.13l.18.49L9,4.17c.19-.11.57-.33,1.28-.78a.3.3,0,0,1,.3-.07.27.27,0,0,1,.15.12l.07.16.26.57.81-.5c.64-.4.64-.4.76-.37a.27.27,0,0,1,.17.13c.06.11.06.15-.06.49l.19-.11c.91-.54.9-.55,1-.51a.27.27,0,0,1,.17.13l.71.6.38.33.16-.1c.5-.31.55-.34.69-.31a.27.27,0,0,1,.17.13c.08.14.08.17-.17.55.16-.09.19-.09.27-.07l-.07.26L16.06,5l.23-.14.11.25-.33.2C15.53,5.61,15.4,5.69,15.3,5.69Z"/>        <path class="a" d="M3.77,6.24H3.7L3.77,6,4,5.83,3.77,6l-.11-.24.08,0c.16-.1.23-.14.35-.12L4,5.82,3.79,6,4,5.82l.1.25L4,6.13A.48.48,0,0,1,3.77,6.24Z"/>        <path class="a" d="M11.94,7a.15.15,0,0,1-.13-.09l-1.3-.79-.07,0-.63.38C8.89,7,8.89,7,8.75,7a.28.28,0,0,1-.12-.07L8,6.55l-.73-.44c-.24.13-.79.46-1.07.64C5.69,7,5.69,7,5.57,7L5.5,7c-.12,0-.62-.14-1-.2l-.79-.16-.18.11c-.39.23-.39.23-.5.2A.27.27,0,0,1,2.9,6.8c-.06-.11-.07-.14.06-.43-.35.21-.36.21-.47.18a.27.27,0,0,1-.16-.12c-.08-.12-.08-.12.11-.55l.11-.24c-.32.2-.34.2-.45.17a.27.27,0,0,1-.17-.13c-.11-.19-.06-.28.63-1.21a.26.26,0,0,1-.2,0,.28.28,0,0,1-.17-.13A.27.27,0,0,1,2.29,4l.09,0c.14-.07.59-.35.77-.46s.31-.19.43-.17a.27.27,0,0,1,.17.13c.1.18.09.2-.6,1.13L3,4.73a.22.22,0,0,1,.13,0,.27.27,0,0,1,.17.13c.06.11.07.13-.2.77.34-.2.36-.19.46-.17a.27.27,0,0,1,.17.13c.06.11.07.14-.07.46h.1l.06,0,.79.16c.52.1.8.16,1,.2l.27-.17C7.18,5.5,7.2,5.5,7.34,5.54a.28.28,0,0,1,.13.07c.08.06.5.31.78.47l.59.36L9.53,6c.86-.52.86-.52,1-.49l.08,0,.19.11L12,6.44,12.81,6c.81-.47.81-.47.92-.44l.09,0,.78.5.46.29.38-.23c.47-.29.47-.29.59-.26L16,6.16l-.23.13L16,6.16l.1.25-.35.21C15.11,7,15.1,7,15,7l-.09,0-.58-.37-.67-.43-.57.33A4.19,4.19,0,0,1,11.94,7Z"/>      </g>      <g>        <path class="a" d="M23.7,18.17h-.08a.28.28,0,0,1-.17-.13c-.1-.18-.1-.18.46-.77l.4-.43-1.52.92c-.71.44-.71.44-.83.41a.27.27,0,0,1-.17-.13c-.11-.18-.09-.25.64-1.12l-.19.11c-1.63,1-1.63,1-1.76.92a.27.27,0,0,1-.16-.12c-.08-.13-.08-.14.31-1.3-.24.15-.29.16-.4.14a.27.27,0,0,1-.17-.13.27.27,0,0,1,.1-.37l.07,0,.29-.18c.45-.28.53-.33.67-.3a.28.28,0,0,1,.17.13c.07.11.07.11-.16.76l-.2.57,1-.57c1.53-.9,1.54-.91,1.67-.87a.27.27,0,0,1,.17.13c.11.18.11.18-.62,1l0,0c2.11-1.28,2.18-1.27,2.33-1.23a.29.29,0,0,1,.17.13c.09.16.13.22-.52.93,1.73-1.08,1.84-1.11,2-1.07a.29.29,0,0,1,.18.13c.11.19.08.24-.68,1.22l.13-.08c2.19-1.32,2.21-1.32,2.37-1.27a.28.28,0,0,1,.17.13c.11.18.08.25-.67,1.32l.73-.45c2-1.24,2.06-1.23,2.22-1.19a.28.28,0,0,1,.17.13c.08.14.12.21-.26.59.95-.57,1-.56,1.13-.52a.29.29,0,0,1,.17.13c.1.17.07.28-.35.69,1.51-.89,1.57-.87,1.69-.84a.28.28,0,0,1,.17.13c.09.15.11.19-.65,1.08,1.15-.7,1.17-.69,1.3-.66a.28.28,0,0,1,.17.13c.07.13.11.18-.15.5h.08a.28.28,0,0,1,.17.13.27.27,0,0,1-.1.37l-.1,0c-.14.06-.58.34-.82.49-.52.32-.52.33-.65.29A.27.27,0,0,1,33.4,18c-.11-.18,0-.27.19-.49-1.08.66-1.08.65-1.22.62A.27.27,0,0,1,32.2,18c-.1-.16-.07-.19.27-.6l.54-.64L31,18c-.29.17-.3.18-.42.14a.27.27,0,0,1-.15-.12c-.11-.2-.08-.26.6-.92l-.41.25c-1.35.83-1.35.83-1.5.79a.27.27,0,0,1-.17-.13c-.12-.19,0-.27.3-.55l.39-.34c-1.72,1.06-1.74,1.06-1.9,1a.28.28,0,0,1-.17-.13c-.1-.18-.09-.19.56-1.13l.18-.25L27,17.41c-1.3.78-1.3.79-1.43.75a.27.27,0,0,1-.17-.13c-.11-.2-.07-.26.73-1.28l0,0-.88.54C24.06,18,23.83,18.17,23.7,18.17Z"/>        <path class="a" d="M29.35,15.9h-.07a.27.27,0,0,1-.17-.13c-.12-.2-.12-.2.89-1.21l.7-.71h0c-1,.64-1,.64-1.18.6a.28.28,0,0,1-.17-.13c-.09-.16-.11-.19.5-.73a.24.24,0,0,1-.2,0,.28.28,0,0,1-.17-.13c-.09-.17-.09-.17,1.1-1.65l.71-.88c-1.24.73-1.25.73-1.37.7a.27.27,0,0,1-.16-.12c-.1-.17-.11-.18,1.65-2.48-1.15.7-1.16.7-1.3.66a.28.28,0,0,1-.17-.13c-.07-.13-.07-.13.23-1.2l.17-.62c-.57.32-1.55.92-2.09,1.25-.91.56-.91.56-1,.52A.27.27,0,0,1,27,9.41c-.09-.15-.07-.2.38-1.3l.08-.2-1.06.63c-1.75,1-1.75,1-1.88,1a.27.27,0,0,1-.17-.13c-.09-.15-.12-.21.24-.54-1.19.72-1.2.71-1.33.68a.27.27,0,0,1-.16-.12c-.1-.17-.1-.17.43-.77l.29-.33-.14.09c-1.3.8-1.3.79-1.45.75A.28.28,0,0,1,22.08,9c-.09-.16-.06-.23.36-1a.29.29,0,0,1-.23,0A.28.28,0,0,1,22,7.9a.27.27,0,0,1,.1-.37l.08,0c.11-.05.43-.25.56-.33S23,7,23.15,7a.27.27,0,0,1,.16.13c.09.15.08.16-.32.95l-.08.16L23.42,8C25,7,25,7,25.13,7.05a.28.28,0,0,1,.17.13c.09.16.11.19-.63,1,2-1.19,2-1.19,2.15-1.15a.27.27,0,0,1,.17.13c.09.15.11.21-.21.51C27.92,7,27.94,7,28.06,7.06a.27.27,0,0,1,.17.13c.08.14.08.16-.32,1.13l-.14.35.18-.11C30.53,7,30.59,7,30.75,7a.29.29,0,0,1,.17.13c.07.13.08.14-.27,1.37l-.11.39.64-.38c1.15-.7,1.15-.7,1.3-.66a.27.27,0,0,1,.17.13c.1.15.1.15-.34.72l-1.37,1.8.22-.13c1.14-.66,1.14-.67,1.26-.64a.27.27,0,0,1,.16.12c.1.18.1.18-1.59,2.29l-.21.26.16-.1c1.05-.64,1.05-.64,1.19-.61a.27.27,0,0,1,.17.13c.08.14.1.19-.47.71a.27.27,0,0,1,.17,0,.29.29,0,0,1,.17.13c.12.21.15.26-1.17,1.61.58-.34.67-.35.78-.32a.29.29,0,0,1,.18.13.27.27,0,0,1-.23.4c-.23.09-1.08.62-1.54.92S29.44,15.9,29.35,15.9Z"/>        <path class="a" d="M34.59,17h-.07a.27.27,0,0,1-.17-.13,3.37,3.37,0,0,1-.18-.8l0-.22h0c-1.27.79-1.31.78-1.45.74a.28.28,0,0,1-.17-.13h0l-.12-.26L32,15.5l-.42.26c-.44.27-.45.28-.57.25a.27.27,0,0,1-.17-.13c-.09-.15-.11-.18.68-1.46-.24.14-.26.13-.35.11a.27.27,0,0,1-.17-.13c-.09-.15-.11-.18.26-.59a.27.27,0,0,1-.16-.12c-.11-.18-.07-.27.68-1.48L32,12c-.22.13-.29.15-.39.12a.28.28,0,0,1-.17-.13c-.1-.18-.09-.24.72-1.51-.16.09-.22.1-.32.08a.28.28,0,0,1-.17-.13c-.09-.16-.11-.19.55-1.19a.24.24,0,0,1-.19,0,.28.28,0,0,1-.17-.13C31.73,9,31.73,9,32,8.06c-.28.16-.3.16-.4.13a.27.27,0,0,1-.17-.13l-.34-.45-.37-.5c-.24.13-.68.41-.94.57-.58.36-.57.36-.7.33a.27.27,0,0,1-.17-.13l-.39-.42-.3-.33-.34.21c-1.13.7-1.16.7-1.3.66a.28.28,0,0,1-.17-.13l-.24-.45-.14-.27-.36.22c-1.09.66-1.1.66-1.24.62a.28.28,0,0,1-.17-.13c-.06-.11-.07-.14.07-.46l-.23.14c-.76.47-.76.47-.9.43a.27.27,0,0,1-.17-.13.27.27,0,0,1,.1-.37l.07,0,.62-.37c1-.59,1-.6,1.14-.57a.28.28,0,0,1,.17.13c.06.11.07.14-.07.46l.33-.2c.69-.42.69-.42.81-.39a.27.27,0,0,1,.17.13l.27.52.11.22.84-.51c.62-.39.62-.39.75-.36a.27.27,0,0,1,.17.13l.41.44.28.3.29-.19c1.16-.73,1.24-.74,1.39-.71a.29.29,0,0,1,.17.13l.47.64.22.29.33-.2c.36-.21.36-.21.47-.19a.27.27,0,0,1,.17.14c0,.1,0,.12,0,.39l-.22.68c.38-.24.46-.27.58-.24a.28.28,0,0,1,.17.13c.09.14.09.14-.24.65l-.37.56c.17-.1.23-.11.33-.09a.28.28,0,0,1,.17.13c.1.17.1.17-.51,1.12l-.28.44c.23-.14.29-.16.39-.13a.28.28,0,0,1,.17.13c.1.18.08.23-.63,1.38l-.2.33c.28-.16.33-.16.42-.14a.28.28,0,0,1,.17.13c.09.15.11.18-.25.58a.27.27,0,0,1,.17.14c.07.13,0,.21-.09.39L31.84,15c.24-.14.29-.14.39-.12a.28.28,0,0,1,.17.13s0,.08.46,1c.27-.15.73-.44,1-.58.44-.27.44-.27.56-.24a.27.27,0,0,1,.16.12c0,.05,0,.06.15.68l.06.34c.61-.37.63-.37.75-.33l-.07.26-.23.13.23-.13.09.25c-.08,0-.49.28-.65.38S34.66,17,34.59,17Z"/>        <path class="a" d="M22.86,18.68h-.08a.28.28,0,0,1-.17-.13l-.32-.69c-1.3.82-1.37.8-1.5.77a.29.29,0,0,1-.17-.13c0-.06,0-.06-.11-.67v-.1h0c-.44.28-.51.32-.65.29a.28.28,0,0,1-.17-.13c-.09-.15-.08-.17.41-1.21l.26-.56c-.38.24-.42.25-.54.22a.27.27,0,0,1-.17-.13.27.27,0,0,1,.1-.37l.06,0,.37-.23c.56-.35.63-.39.77-.36a.28.28,0,0,1,.17.13c.09.16.08.21-.54,1.55l-.09.19c.17-.1.22-.11.31-.09a.28.28,0,0,1,.17.13c0,.06,0,.06.1.61l0,.2c.2-.11.55-.32,1.15-.7a.4.4,0,0,1,.26-.06.27.27,0,0,1,.16.13l.08.17.25.56.81-.5c.64-.4.64-.4.77-.37a.27.27,0,0,1,.17.13c.06.11.06.16-.06.49l.18-.11c.91-.55.91-.55,1-.51a.27.27,0,0,1,.13.07c.1.07.57.34.89.53l.52.3.52-.32c1-.61,1-.63,1.17-.59a.28.28,0,0,1,.17.13c0,.06,0,.06.06.47V18l.67-.4c.69-.42.69-.42.81-.39a.27.27,0,0,1,.17.13,5.27,5.27,0,0,1,.23.66v0l.46-.28c.91-.56,1-.58,1.1-.55a.28.28,0,0,1,.17.13l.26.42.2.32,1.27-.74c.92-.55.92-.55,1.06-.32a.27.27,0,0,1-.09.37l0,0-.66.39c-1.56.93-1.56.93-1.71.89a.27.27,0,0,1-.17-.13L32.78,18l-.14-.22-.65.4c-.81.5-.83.51-1,.47a.27.27,0,0,1-.17-.13,2.62,2.62,0,0,1-.14-.39l-.1-.3-.32.19c-1.09.67-1.1.67-1.25.63a.28.28,0,0,1-.17-.13c0-.07,0-.08-.08-.66l-.58.36c-.74.46-.76.47-.89.43a.28.28,0,0,1-.11-.06l-.59-.35-.84-.49-.67.4c-.89.53-.89.53-1,.5a.27.27,0,0,1-.17-.13c-.06-.11-.06-.14.06-.47C23.17,18.58,23,18.68,22.86,18.68Z"/>        <path class="a" d="M27.15,16.66h-.08a.28.28,0,0,1-.17-.13c0-.07,0-.07,0-.39l0-.29-1,.59c-.39.24-.54.33-.68.1,0-.07,0-.07-.13-.69l-.48.28c-1,.56-1,.56-1.07.53a.27.27,0,0,1-.16-.12l-.55-.63-.12-.14-.68.42c-.72.46-.78.49-.93.46A.28.28,0,0,1,21,16.5a.27.27,0,0,1,.1-.37l.09,0c.1-.05.4-.24.62-.38.86-.55,1-.59,1.11-.55a.28.28,0,0,1,.17.13h0l.22.24.44.51.67-.39c.91-.54.91-.54,1-.5a.27.27,0,0,1,.17.13c0,.05,0,.05.09.46l0,.21c1.41-.86,1.44-.86,1.58-.82a.28.28,0,0,1,.17.13c0,.08.06.09,0,.66l.77-.47c1.52-1,1.6-1,1.76-.93a.29.29,0,0,1,.17.13c.1.17.08.21-.48,1.07h0l-.07.26-.23.14.23-.14.09.25-.39.23c-.32.19-.34.21-.45.17a.27.27,0,0,1-.16-.13c-.1-.17-.07-.22.46-1l-.69.43C27.47,16.55,27.27,16.66,27.15,16.66Z"/>        <path class="a" d="M28.9,15.48h-.08a.27.27,0,0,1-.17-.13c-.09-.16-.09-.16.43-.91l.28-.4c-.19.11-.23.11-.32.09a.27.27,0,0,1-.18-.14c-.07-.15-.08-.16.35-.69h0a.27.27,0,0,1-.17-.13c-.07-.13-.07-.13.53-1.31l.35-.69-.06,0c-.2.12-.41.24-.55,0s-.07-.11.4-1.77l-.17.1c-.86.52-.87.53-1,.49a.27.27,0,0,1-.12-.07l-.66-.4L27,9.13c-.24.13-.79.47-1.08.64-.48.29-.48.29-.59.27a.27.27,0,0,1-.17-.13l-.49-.45-.32-.3-.62.36c-.86.51-.86.51-1,.48a.27.27,0,0,1-.16-.12c-.06-.1-.06-.13,0-.43-.46.27-.46.27-.58.24a.27.27,0,0,1-.16-.12c-.07-.11-.07-.11.09-.54L22,8.8c-.33.2-.35.2-.46.18a.27.27,0,0,1-.17-.13c-.11-.18-.06-.27.59-1.18a.26.26,0,0,1-.21,0,.28.28,0,0,1-.17-.13.27.27,0,0,1,.1-.37l.09,0c.13-.06.57-.34.75-.44s.3-.19.41-.16a.27.27,0,0,1,.17.13c.1.18.09.2-.56,1.1l-.1.14a.23.23,0,0,1,.14,0,.27.27,0,0,1,.17.13c.06.1.07.12-.17.75.43-.26.44-.25.55-.22a.27.27,0,0,1,.17.13c.06.1.06.13,0,.43l.14-.08c1-.61,1-.61,1.17-.37l.41.37.41.38.21-.13c1.29-.79,1.32-.79,1.46-.75a.28.28,0,0,1,.13.07c.08.06.5.31.78.47l.59.36.63-.38c.82-.49.82-.5.95-.46a.27.27,0,0,1,.16.11c.07.1.07.1,0,.49l-.36,1.29h0c.55-.32.55-.32.66-.29a.27.27,0,0,1,.16.13c.08.14.08.14-.74,1.75l-.13.25c.34-.2.35-.2.46-.17a.27.27,0,0,1,.17.13c.07.13.09.16-.34.69h0a.28.28,0,0,1,.17.13c.1.17.09.24-.6,1.24a.29.29,0,0,1,.39.1.27.27,0,0,1-.1.37l-.1,0c-.12.06-.47.28-.65.39S29,15.48,28.9,15.48Z"/>      </g>      <g>        <path class="a" d="M49.6,11.29h-.08a.27.27,0,0,1-.17-.13c-.08-.14-.09-.16.26-.62-1.44.84-1.45.84-1.59.61s-.08-.14.57-1.9l-1.3.78c-2.12,1.29-2.14,1.28-2.3,1.24a.28.28,0,0,1-.17-.13c-.08-.15-.08-.16.37-1.3l.26-.66c-.66.37-1.83,1.08-2.47,1.48-1,.64-1,.64-1.17.61a.27.27,0,0,1-.17-.13c-.11-.19-.08-.24.75-1.54l.12-.19-1.17.69c-2.07,1.23-2.07,1.23-2.21,1.19a.27.27,0,0,1-.17-.13c-.09-.16-.12-.21.25-.54-1.1.66-1.11.65-1.24.62a.27.27,0,0,1-.16-.12c-.12-.19-.12-.19.58-.88l.34-.34c-1.26.77-1.27.77-1.41.73a.28.28,0,0,1-.17-.13c-.1-.17-.06-.25.46-1.1a.29.29,0,0,1-.24,0,.28.28,0,0,1-.17-.13.27.27,0,0,1,.1-.37l.09,0c.12-.06.5-.29.65-.39s.27-.17.39-.14a.27.27,0,0,1,.17.13c.09.16.08.18-.42,1l-.09.15.5-.3c1.63-1,1.65-1,1.81-1a.28.28,0,0,1,.17.13c.1.17.12.2-.8,1.11,2.14-1.28,2.17-1.28,2.32-1.24a.28.28,0,0,1,.17.13c.09.15.11.22-.21.51,1.14-.67,1.16-.66,1.27-.63a.27.27,0,0,1,.17.13c.1.18.09.2-.64,1.34l-.23.36.09-.05c3-1.84,3.08-1.83,3.26-1.78a.29.29,0,0,1,.17.13c.09.15.08.19-.44,1.49l-.16.42L47,9.56c2-1.2,2-1.19,2.14-1.15a.28.28,0,0,1,.17.13c.06.12.06.12-.09.52l-.5,1.36.71-.42c1.13-.66,1.13-.66,1.25-.63a.27.27,0,0,1,.17.13c.08.14.09.16-.36.74h0l-.07.26-.23.14.23-.14.1.25-.34.2C49.8,11.23,49.69,11.29,49.6,11.29Z"/>        <path class="a" d="M50.21,10.32h-.07a.28.28,0,0,1-.17-.13c-.08-.14-.06-.21.23-.81-.18.11-.22.11-.31.09a.27.27,0,0,1-.13-.07L49.21,9l-.76-.52-.66.39c-.89.54-.89.53-1,.5a.27.27,0,0,1-.17-.13c-.06-.11-.06-.14.06-.47-1,.63-1.07.64-1.21.6a.28.28,0,0,1-.17-.13L45,8.56c-1.39.87-1.46.85-1.59.82a.29.29,0,0,1-.17-.13,5.58,5.58,0,0,1-.2-.54l-.06-.16-.47.29c-.85.54-.94.58-1.09.54a.28.28,0,0,1-.13-.08l-.51-.37-.63-.46-.71.43c-.72.45-.77.48-.91.44a.27.27,0,0,1-.17-.13.27.27,0,0,1,.1-.37l.08,0,.61-.37c.88-.55,1-.59,1.1-.55a.28.28,0,0,1,.17.13L41,8.5l.44.31.69-.43c.76-.48.82-.52,1-.48a.28.28,0,0,1,.17.13l.19.49.09.24c.19-.11.57-.33,1.29-.78a.35.35,0,0,1,.39,0l0,.06.08.17.26.56.81-.5c.63-.4.63-.4.76-.36A.27.27,0,0,1,47.4,8c.06.11.06.16-.06.49l.18-.11c.91-.55.91-.54,1-.51a.27.27,0,0,1,.17.13l.79.53.46.31.2-.12c.53-.33.58-.36.72-.33a.28.28,0,0,1,.17.13c.08.14.08.14-.22.75l0,.09c.33-.2.34-.2.45-.17l-.07.26-.24.13.24-.13.11.25L51,9.92C50.43,10.24,50.31,10.32,50.21,10.32Z"/>        <path class="a" d="M38.24,11h-.07l.07-.26.24-.13-.24.13-.11-.24.08-.05c.16-.1.22-.15.35-.12l-.06.26-.23.13.23-.13.11.25-.1.06A.5.5,0,0,1,38.24,11Z"/>        <path class="a" d="M49.35,11.79h-.07l-.09,0-.59-.38-.73-.48-.56.33c-1,.59-1,.6-1.14.57l-.1,0-1.28-.78-.12-.07-.64.38c-.92.56-.92.56-1.06.52a.28.28,0,0,1-.12-.07l-.66-.4-.73-.44c-.24.13-.79.46-1.07.64-.49.3-.49.29-.6.27l-.09,0c-.11,0-.54-.18-.83-.27l-.67-.21-.21.12c-.42.25-.42.25-.54.22a.27.27,0,0,1-.16-.12c-.06-.1-.07-.14.05-.43-.24.14-.25.13-.35.11a.27.27,0,0,1-.16-.12c-.08-.13-.08-.13.18-.61l.12-.23c-.3.18-.33.18-.43.16a.27.27,0,0,1-.17-.13c-.11-.19-.06-.28.64-1.23A.23.23,0,0,1,37,9a.28.28,0,0,1-.17-.13.27.27,0,0,1,.1-.37l.09,0c.12-.06.52-.3.67-.4s.29-.18.4-.15a.27.27,0,0,1,.17.13c.1.18.09.2-.58,1.11l-.08.12a.25.25,0,0,1,.22,0,.28.28,0,0,1,.17.13c.07.12.08.14-.28.83a.23.23,0,0,1,.2,0,.27.27,0,0,1,.16.12c.06.1.06.15-.05.43a.21.21,0,0,1,.19,0l.08,0,.7.23.81.26.26-.16c1.29-.79,1.31-.79,1.46-.75a.28.28,0,0,1,.13.07c.08.06.5.31.78.47l.59.36.69-.41c.86-.52.86-.52,1-.49l.08,0,.24.14,1.18.72.79-.46c.86-.5.93-.54,1-.37l.82.53.48.31.86-.51c.81-.49.81-.49.94-.46l-.07.26-.23.13.23-.13.09.25-.68.41C49.63,11.69,49.46,11.79,49.35,11.79Z"/>      </g>      <g>        <path class="a" d="M67.27,18.29h-.08a.27.27,0,0,1-.16-.11c-.1-.15-.07-.21.18-.55l.38-.53-.93.56c-.13.08-.29.17-.43,0l0-.06c-.11-.18-.08-.24.45-.8-.64.39-.65.39-.77.36A.27.27,0,0,1,65.7,17c-.1-.18,0-.26.21-.5l.22-.22c-.58.35-.6.35-.72.32a.28.28,0,0,1-.17-.13c-.1-.18-.09-.2.58-1.14l.15-.21-.34.2c-.81.49-.8.49-.93.45a.27.27,0,0,1-.17-.13c-.11-.19-.07-.25.65-1.22l-.1.06c-.9.56-.93.58-1.08.54a.28.28,0,0,1-.17-.13c-.1-.17-.1-.17.37-.72l.26-.31-.5.31c-.45.28-.45.28-.57.25a.27.27,0,0,1-.17-.13c-.1-.17-.09-.24.54-1.06l-.52.31c-.39.23-.55.32-.69.08s-.1-.18.61-1.5l-.3.19c-.87.55-.93.59-1.08.55a.28.28,0,0,1-.17-.13.27.27,0,0,1,.1-.37l.1,0c.12-.06.49-.3.77-.47,1-.67,1.14-.71,1.3-.67a.29.29,0,0,1,.18.13c.08.14.08.14-.32.89l-.33.61.27-.16c1-.61,1-.61,1.16-.58a.27.27,0,0,1,.16.12c.1.17.1.17-.52,1l0,.06c.93-.56,1-.55,1.1-.52a.28.28,0,0,1,.17.13c.09.15.12.2-.42.86.66-.41.73-.41.85-.38a.28.28,0,0,1,.17.13c.11.19.08.23-.62,1.18,1-.6,1-.6,1.15-.56a.27.27,0,0,1,.17.13c.11.18.08.25-.66,1.29,1.08-.66,1.09-.66,1.23-.62a.28.28,0,0,1,.17.13c.08.13.11.19-.24.59.41-.24.46-.23.55-.2a.28.28,0,0,1,.17.13c.1.17.07.27-.34.7.47-.27.52-.25.6-.23a.27.27,0,0,1,.17.13c.08.14.1.17-.47,1,.23-.13.26-.12.34-.1l-.06.26-.23.14.23-.14.09.25L68,17.9C67.47,18.22,67.36,18.29,67.27,18.29Z"/>        <path class="a" d="M54.27,18.37H54.2a.28.28,0,0,1-.17-.13c-.16-.28-.16-.28,3.38-2.79l.27-.19-1.1.64L54.1,17.32c-1.31.76-1.3.76-1.44.52-.23-.4.15-.75,5.5-4.25,1.1-.72,2.32-1.52,3.32-2.2l-1.84,1.14c-1.83,1.14-1.83,1.14-2,1.1a.27.27,0,0,1-.17-.13c-.16-.27-.16-.27,2.5-2.13.76-.53,1.74-1.22,2.63-1.86-1.52.95-1.55.94-1.7.9a.28.28,0,0,1-.17-.13c-.11-.19-.12-.22,1.2-1.18h-.05A.28.28,0,0,1,61.72,9c-.11-.2-.11-.2,2-2.2L65,5.56c-1.4.82-1.41.81-1.52.78a.27.27,0,0,1-.16-.12c-.1-.16-.1-.18,1.45-2.39l-.62.37c-1.83,1.11-1.85,1.11-2,1.07A.28.28,0,0,1,62,5.15C61.93,5,61.93,5,62.12,4l.12-.61c-.57.32-1.63,1-2.21,1.32-.92.56-.92.56-1,.53a.27.27,0,0,1-.17-.13c-.09-.16-.07-.21.46-1.36l.09-.2-1.09.64c-1.8,1.07-1.8,1.07-1.95,1a.27.27,0,0,1-.16-.13c-.09-.16-.12-.21.25-.54-1.24.75-1.25.75-1.38.71a.27.27,0,0,1-.17-.12c-.1-.18-.1-.18.49-.81l.3-.32,0,0c-1.31.8-1.32.81-1.47.77A.27.27,0,0,1,54,4.72c-.09-.16-.06-.24.4-1.07a.3.3,0,0,1-.24,0A.28.28,0,0,1,54,3.56a.27.27,0,0,1,.1-.37l.09,0c.11-.06.46-.27.59-.36s.39-.24.54,0,.09.18-.36,1l-.08.15.49-.3c1.55-1,1.57-1,1.73-.91a.28.28,0,0,1,.17.13c.09.16.11.19-.68,1.05,2-1.22,2-1.21,2.21-1.18a.28.28,0,0,1,.17.13c.09.15.11.21-.21.51,1.14-.67,1.15-.67,1.27-.64a.27.27,0,0,1,.17.13c.09.15.08.17-.39,1.18l-.16.35.14-.09c2.66-1.63,2.72-1.61,2.89-1.57a.29.29,0,0,1,.17.13c.07.11.07.13-.15,1.29l-.08.4,1.31-.79c1.7-1,1.71-1,1.87-1a.28.28,0,0,1,.17.13c.08.16.08.16-.28.68L64.43,5.28l.82-.48c1.52-.89,1.52-.89,1.64-.86a.27.27,0,0,1,.16.13c.05.09.08.14-.12.37h0c-.29.34-1,1-2.81,2.69l-.36.34L64,7.34c1.61-1,1.61-1,1.76-.94a.27.27,0,0,1,.17.13c.06.1.09.16-.16.39h0c-.13.12-.35.29-.68.54h.13a.3.3,0,0,1,.18.13c.16.27.1.49-2.26,2.2.43-.22.61-.26.73-.23a.33.33,0,0,1,.19.14c.23.4-.19.79-5.59,4.33l-1.78,1.17c4.69-2.73,4.7-2.73,4.83-2.69a.27.27,0,0,1,.16.13c.17.3.18.31-4,3.24l-.2.14a.29.29,0,0,1,.14.12.27.27,0,0,1-.22.4c-.2.09-1,.57-1.56.93C54.63,18.24,54.4,18.37,54.27,18.37Z"/>        <path class="a" d="M68.06,17.53H68a.27.27,0,0,1-.18-.14c-.08-.15,0-.23.14-.43l.08-.1h0a.28.28,0,0,1-.17-.13c0-.07-.05-.09-.13-1.31v-.06l-.19.12c-.37.22-.37.22-.48.19a.27.27,0,0,1-.17-.13c-.05-.09-.06-.11.09-.64-.41.24-.51.27-.63.06s0-.08-.05-1c0,0,0-.09,0-.13-.53.32-.53.32-.65.29a.27.27,0,0,1-.17-.12c-.06-.1-.06-.11.07-.72l-.17.1c-.23.14-.26.16-.37.13a.27.27,0,0,1-.17-.13c0-.07,0-.08-.09-.89v-.19c-.51.31-.57.33-.69.3a.28.28,0,0,1-.17-.13s0,0-.07-.39c0-.19-.06-.53-.08-.79l-.21.13c-.36.23-.38.24-.51.21a.27.27,0,0,1-.17-.13c-.1-.18-.13-.22,1.08-1.69-.63.38-.65.38-.76.35A.27.27,0,0,1,63,10c-.12-.2-.13-.23.78-1A.27.27,0,0,1,63.69,9c-.14-.24-.1-.32,1.51-2l.24-.25a.31.31,0,0,1-.23,0A.29.29,0,0,1,65,6.65c-.13-.22-.1-.3,1.24-1.85h-.09A.28.28,0,0,1,66,4.66c-.08-.13-.09-.15.32-1.06-.32.2-.35.21-.47.18a.27.27,0,0,1-.17-.13,6.41,6.41,0,0,1-.25-.81L65.19,3c-1.2.72-1.2.72-1.34.68a.27.27,0,0,1-.17-.13l-.43-.32-.58-.46c-.22.12-.69.41-1,.58-.57.35-.57.36-.69.32a.27.27,0,0,1-.17-.13l-.41-.44-.28-.31L59.83,3c-1.13.7-1.16.7-1.3.66a.28.28,0,0,1-.17-.13l-.24-.45L58,2.84l-.36.22c-1.09.66-1.1.66-1.24.62a.28.28,0,0,1-.17-.13c-.06-.11-.07-.14.07-.46l-.21.13c-.75.46-.75.46-.88.43A.27.27,0,0,1,55,3.52a.27.27,0,0,1,.1-.37l.06,0,.61-.36c.94-.58,1-.59,1.12-.56a.28.28,0,0,1,.17.13c.06.11.07.14-.07.46l.33-.2c.69-.42.69-.42.81-.39a.27.27,0,0,1,.17.13l.27.52.11.21.84-.51c.63-.39.63-.39.75-.36a.27.27,0,0,1,.17.12l.39.42.3.33.28-.18c1.14-.71,1.21-.73,1.36-.7a.29.29,0,0,1,.17.13l.62.48L64,3.1l1-.56c.64-.38.64-.38.76-.35a.27.27,0,0,1,.17.14l0,.15.19.64.08,0c.59-.37.67-.42.81-.38a.28.28,0,0,1,.17.13c.07.13.07.13-.13.56l-.23.52c.43-.27.52-.32.65-.28a.28.28,0,0,1,.17.13c.12.2.12.2-.86,1.34l-.44.51c.32-.2.39-.22.5-.19a.28.28,0,0,1,.17.13c.14.24.07.32-1.39,1.85l-.38.39c.39-.23.43-.21.53-.19a.28.28,0,0,1,.17.13c.11.2.13.23-.69.9a.27.27,0,0,1,.1.1c.1.15,0,.24-.18.49L64,10.61h0a.28.28,0,0,1,.17.13c0,.07,0,.08.16,1.19l.3-.18c.25-.16.29-.18.41-.15a.27.27,0,0,1,.16.12c0,.07,0,.07.08.76l0,.33c.55-.33.57-.33.69-.3a.27.27,0,0,1,.17.13c.06.1.06.1-.07.69v0c.42-.25.55-.32.69-.1s0,.08,0,.74v.36l0,0c.51-.3.51-.3.63-.27a.27.27,0,0,1,.15.11c.07.11.06.13,0,.45l-.06.21c.34-.2.37-.2.48-.18a.27.27,0,0,1,.17.12c0,.06,0,.06.07.6,0,.21,0,.53.06.78l.08,0c.43-.27.48-.3.61-.27a.27.27,0,0,1,.17.13c.06.11.09.15-.1.41h.1a.27.27,0,0,1,.07.5l-.07,0-.55.32C68.23,17.47,68.13,17.53,68.06,17.53Z"/>        <path class="a" d="M67.8,18.81h-.07a.27.27,0,0,1-.17-.13c0-.06,0-.06,0-.47V18l-.06,0c-.81.49-.83.5-1,.47a.28.28,0,0,1-.17-.13c-.06-.1-.06-.14.06-.72-.38.23-.4.25-.52.22a.27.27,0,0,1-.17-.13c0-.06,0-.07-.12-.79,0-.2-.05-.45-.08-.65l-.08,0c-.51.31-.64.38-.78.14s-.07-.15.07-.48c-.19.11-.25.12-.34.09a.28.28,0,0,1-.17-.13c-.05-.09-.06-.1,0-.88-.45.27-.5.26-.6.24a.28.28,0,0,1-.17-.13c-.06-.1-.06-.1,0-.81v0c-.41.26-.48.3-.61.26a.28.28,0,0,1-.17-.13c0-.07,0-.07-.12-.78l-.06-.51-.15.1c-.43.27-.47.29-.6.26a.27.27,0,0,1-.07-.5l.06,0,.32-.2c.51-.32.57-.36.71-.32a.28.28,0,0,1,.17.13c0,.07,0,.09.15,1l0,.28.11-.07c.43-.27.48-.3.61-.27a.27.27,0,0,1,.17.13c.05.09.05.09,0,.76l0,.13.37-.23a.31.31,0,0,1,.36,0c.09.13.09.13.05.47l-.06.51.11-.07c.34-.21.37-.23.49-.2a.27.27,0,0,1,.17.13c.07.11.06.16-.08.5.3-.17.4-.18.51,0s.06.13.18,1.15l0,.28c.5-.31.56-.35.69-.31A.27.27,0,0,1,67,17c.05.09.05.09,0,.59l0,.15.26-.16c.54-.33.53-.32.66-.29a.27.27,0,0,1,.17.13c0,.07,0,.08.06.64l0,0c.55-.34.58-.36.71-.32a.27.27,0,0,1,.17.13.27.27,0,0,1-.1.37l-.07,0-.43.26C68,18.75,67.88,18.81,67.8,18.81Z"/>        <path class="a" d="M57.1,16.17c-.08,0-.11-.05-.16-.13-.17-.29-.19-.33,3.26-3l.48-.37a.27.27,0,0,1,.13-.3l.07,0,.31-.19c.47-.3.55-.36.7-.32a.28.28,0,0,1,.17.13c.13.23.13.23-1.53,1.51l-.83.64c1.79-1.06,1.8-1.05,1.93-1l-.07.26-.23.14.23-.14.09.25c-.12.06-1.22.7-2.1,1.22A11.51,11.51,0,0,1,57.1,16.17Z"/>        <path class="a" d="M53.4,18.83h-.07a.29.29,0,0,1-.18-.13,3.63,3.63,0,0,1-.17-.79l-.09-.47-.16.09c-.49.29-.57.33-.72.14-.22-.38-.1-.56,4.41-3.67l1.39-1c-.27.16-.3.15-.39.13a.27.27,0,0,1-.17-.13c-.14-.24-.14-.24,1.77-1.72L60.69,10h-.1a.28.28,0,0,1-.17-.13c-.12-.2-.12-.2,1.08-1.22a.27.27,0,0,1-.12-.11c-.1-.16-.1-.16,1.12-1.68L63.24,6a.18.18,0,0,1-.12,0A.27.27,0,0,1,63,5.83l-1-.93,0,0-.61.36c-.93.57-.93.57-1.07.53a.27.27,0,0,1-.12-.07l-.66-.4-.73-.44c-.24.13-.79.46-1.07.64-.49.3-.49.3-.6.27a.27.27,0,0,1-.17-.13l-.5-.45-.33-.3-.6.35c-.87.51-.87.51-1,.48a.27.27,0,0,1-.16-.12c-.06-.1-.07-.14,0-.43-.39.23-.4.23-.51.2a.27.27,0,0,1-.16-.12c-.08-.12-.08-.12.11-.55l.1-.24c-.34.21-.36.21-.47.18a.27.27,0,0,1-.17-.13c-.11-.19-.06-.28.62-1.21a.24.24,0,0,1-.18,0,.28.28,0,0,1-.17-.13.27.27,0,0,1,.1-.37l.09,0c.13-.06.57-.34.75-.44s.3-.19.41-.16a.27.27,0,0,1,.17.13c.1.18.09.2-.59,1.12l-.1.14a.23.23,0,0,1,.15,0,.27.27,0,0,1,.17.13c.06.1.07.12-.2.77.35-.21.37-.2.47-.18a.27.27,0,0,1,.17.13c.06.1.07.14-.05.43l.12-.07c.87-.51.87-.51,1-.48a.27.27,0,0,1,.16.13l.41.37.41.38L57.39,5c1.29-.79,1.31-.79,1.45-.75a.28.28,0,0,1,.13.07c.08.06.5.31.78.48l.59.36.7-.42c.87-.52.86-.52,1-.49a.27.27,0,0,1,.12.07l.16.15.93.85.44-.25c.66-.39.7-.41.85-.2s.11.19-1.59,2.29l-.2.25c.62-.38.64-.37.75-.34a.27.27,0,0,1,.17.13c.1.17.12.2-.88,1.05a.29.29,0,0,1,.16.13c.15.26.1.43-2.17,2.22a.43.43,0,0,1,.3,0,.3.3,0,0,1,.18.13c.2.35.09.54-4.5,3.7-1.19.82-2.58,1.77-3.44,2.42h0a3.76,3.76,0,0,1,.21.94l.08.4c.54-.28,1.84-1.09,2.92-1.76,3.28-2,3.67-2.22,3.9-2.17a.3.3,0,0,1,.18.13c.16.27.2.34-2.63,2.19a.27.27,0,0,1-.11.34l-.12,0c-.18.08-.79.47-1.29.79-1.62,1-1.79,1.11-2,1.06a.3.3,0,0,1-.18-.13c-.05-.09-.09-.15,0-.25C53.69,18.76,53.51,18.83,53.4,18.83Z"/>      </g>    </g>    <g>      <g>        <path class="b" d="M16.44,17h-.08a.27.27,0,0,1-.17-.13c-.07-.12-.07-.12.27-.89l.28-.63c-.47.27-1.13.68-1.59,1C14,17,14,17,13.89,17a.28.28,0,0,1-.17-.13c-.1-.19-.06-.24.31-.53-1.17.71-1.2.7-1.33.66a.28.28,0,0,1-.17-.13c-.11-.18-.09-.19.36-.66l.71-.74-2.26,1.35C11,17,11,17,10.91,17a.27.27,0,0,1-.17-.13c-.12-.21-.1-.27.75-1l-.35.22c-1.55,1-1.55.95-1.7.91a.28.28,0,0,1-.17-.13c-.11-.2,0-.26.33-.57L10,16C8.24,17,8.22,17,8.06,17a.28.28,0,0,1-.17-.13c-.12-.2-.1-.22.8-1.28l.24-.29-1.4.84C6.07,17,6.07,17,5.93,17a.27.27,0,0,1-.17-.13c-.13-.22-.06-.29,1-1.46l0,0L5.86,16C4.13,17.05,4.11,17,3.95,17a.29.29,0,0,1-.17-.13c-.11-.2-.11-.2.6-.86l.56-.53L3.19,16.55c-.81.5-.81.5-.93.47a.27.27,0,0,1-.17-.13c-.11-.2-.11-.26.84-1.24-1.73,1-1.72,1-1.86,1a.27.27,0,0,1-.16-.13c-.09-.15-.1-.17.49-1.4-.21.13-.27.14-.37.12a.27.27,0,0,1-.17-.13.27.27,0,0,1,.1-.37l.07,0,.33-.2c.49-.31.58-.37.72-.33a.28.28,0,0,1,.17.13c.08.13.08.13-.27.85l-.29.6,1-.59,1.1-.64c.63-.37.73-.42.87-.18s.12.2-.85,1.19l0,0c2.3-1.4,2.39-1.37,2.54-1.34a.29.29,0,0,1,.17.13c.1.17.14.24-.61,1C7.68,14.21,7.81,14.17,8,14.21a.3.3,0,0,1,.18.13c.12.21.07.28-.91,1.35h0c2.52-1.52,2.55-1.51,2.71-1.47a.28.28,0,0,1,.17.13c.12.21.08.29-.93,1.47l.55-.34c2.13-1.31,2.16-1.3,2.33-1.26a.29.29,0,0,1,.17.13c.08.14.12.21-.27.59,1.21-.73,1.33-.76,1.47-.72a.29.29,0,0,1,.17.13c.1.17.08.29-.38.7,1.5-.88,1.57-.86,1.68-.83a.28.28,0,0,1,.17.13c.1.17.12.21-.84,1.21l.18-.11c2-1.24,2.05-1.23,2.21-1.19a.28.28,0,0,1,.17.13c.06.1.1.17,0,.34.35-.19.44-.19.53-.17a.29.29,0,0,1,.18.13c.07.13.08.13-.5,1.42.29-.17.31-.17.41-.14l-.07.26-.23.14.23-.14.1.25-.36.21C16.63,17,16.53,17,16.44,17Z"/>        <path class="b" d="M10.74,6.52h-.07a.28.28,0,0,1-.17-.13c-.07-.13-.07-.13.23-1.2l.18-.63c-.61.34-1.71,1-2.32,1.39-1,.6-1,.6-1.1.57a.27.27,0,0,1-.17-.13c-.1-.17-.08-.22.58-1.44L8,4.75,6.89,5.4C5,6.54,5,6.54,4.83,6.51a.27.27,0,0,1-.17-.13c-.09-.16-.12-.21.25-.54-1.17.7-1.19.7-1.31.67a.27.27,0,0,1-.17-.12c-.11-.18-.11-.18.51-.82l.33-.34C2.94,6,2.94,6,2.79,6a.28.28,0,0,1-.17-.13c-.09-.16-.06-.24.41-1.08a.3.3,0,0,1-.25,0,.28.28,0,0,1-.17-.13.27.27,0,0,1,.1-.37l.09,0c.12-.06.47-.28.61-.37s.27-.17.38-.14A.27.27,0,0,1,4,3.93c.09.16.08.17-.38,1l-.09.15L4,4.76c1.59-1,1.61-1,1.77-.93A.28.28,0,0,1,5.95,4c.09.16.11.2-.73,1.08,2.08-1.25,2.1-1.24,2.25-1.2A.28.28,0,0,1,7.64,4c.09.15.11.22-.21.51,1.14-.67,1.16-.67,1.27-.64A.27.27,0,0,1,8.87,4c.1.16.08.18-.5,1.25l-.19.35.12-.08c2.81-1.72,2.87-1.7,3-1.66a.29.29,0,0,1,.17.13c.07.13.08.14-.27,1.38l-.12.41,1.42-.85c1.85-1.12,1.86-1.12,2-1.08a.28.28,0,0,1,.17.13c0,.13,0,.13,0,.4L14.33,5.7l.53-.31c.95-.55.94-.56,1.06-.52l-.07.26-.23.13.23-.13.12.24-.84.48c-1.17.68-1.17.68-1.29.65a.27.27,0,0,1-.16-.12c-.06-.11-.07-.11.39-1.79l-1.25.75A9.57,9.57,0,0,1,10.74,6.52Z"/>        <path class="b" d="M2.67,17.57a.23.23,0,0,1-.2-.12s-.07-.15-.13-.33l-.17-.45a.24.24,0,0,1-.21,0l.18-.51L2,16.44l-.12-.24L2,16.14c.18-.11.39-.23.53,0,0,0,0,.09.3.77C4.41,16,4.42,16,4.56,16a.27.27,0,0,1,.17.13l.31.45.24.34.43-.27C6.75,16,6.84,16,7,16a.28.28,0,0,1,.17.13c.06.11.06.18-.06.42,1-.57,1-.57,1.1-.54a.27.27,0,0,1,.17.14c0,.09,0,.13,0,.34l-.07.25.21-.13c1-.62,1-.64,1.19-.6a.28.28,0,0,1,.17.13h0l.2.43.17.36.79-.47c.77-.47.77-.47.9-.44a.27.27,0,0,1,.17.13l.53.53.29.29,1-.59c.65-.39.65-.39.77-.36a.27.27,0,0,1,.17.13c.07.11.07.12-.13.56l.93-.57c.17-.11.22-.14.33-.11a.27.27,0,0,1,.16.12c.06.1.06.11-.06.52l0,.08.94-.55c1.19-.69,1.19-.69,1.32-.46a.27.27,0,0,1-.09.37h0l-.94.54c-1.72,1-1.72,1-1.86.77s-.06-.15,0-.55c-1.16.72-1.23.7-1.35.67a.28.28,0,0,1-.17-.13c-.06-.1-.07-.12.09-.49-1.09.65-1.1.65-1.23.62a.28.28,0,0,1-.17-.13L12.25,17l-.43-.44-.5.3c-1.12.68-1.12.68-1.26.64a.27.27,0,0,1-.17-.13l-.3-.62-.08-.17-.71.44c-.81.5-.84.52-1,.48a.28.28,0,0,1-.17-.13c-.05-.09-.06-.11.07-.6l-.7.41c-.67.39-.7.41-.85.21s-.08-.19.09-.48L6,17.12c-.72.45-.74.46-.87.43A.27.27,0,0,1,5,17.42l-.36-.52-.19-.28L3,17.45A.66.66,0,0,1,2.67,17.57Zm7.2-1.44h0Z"/>        <path class="b" d="M17,15.59H17a.27.27,0,0,1-.17-.13s0-.07-.37-.89l-.11-.26-1,.61c-.55.33-.55.34-.67.3a.27.27,0,0,1-.16-.13l-.26-.4-.25-.38-.23.14c-1.36.82-1.36.81-1.51.78a.27.27,0,0,1-.17-.13c-.06-.1-.08-.14.07-.4l-.17.11c-.71.45-.72.46-.86.42a.28.28,0,0,1-.17-.13l-.17-.43-.13-.34-.54.33c-1,.6-1,.61-1.14.57a.28.28,0,0,1-.17-.13l-.64-.53-.36-.3-.68.41c-.9.56-.95.58-1.09.55a.28.28,0,0,1-.17-.13l-.14-.27-.28-.53c-.25.14-.68.41-.94.57-.63.39-.63.39-.76.36a.27.27,0,0,1-.17-.13c0-.08,0-.08,0-.68l-.56.34c-.77.47-.77.46-.9.43l.07-.26.23-.13-.24.13L2,14.67l.65-.38c1.06-.64,1.07-.64,1.21-.61a.27.27,0,0,1,.17.13c0,.08,0,.08,0,.58v.08l.11-.07c1.19-.74,1.26-.76,1.41-.72a.28.28,0,0,1,.17.13l.4.76,0,0,.63-.38c.89-.55.93-.57,1.07-.54a.28.28,0,0,1,.17.13H8s.21.16.42.34l.58.49.74-.45c.85-.53.88-.54,1-.51a.27.27,0,0,1,.17.13s0,.1.26.65l0,.11.37-.23c1.05-.66,1.15-.7,1.3-.66a.29.29,0,0,1,.17.13c.07.12.06.17-.09.41l.39-.24c.54-.33.54-.33.66-.3a.27.27,0,0,1,.17.13l.38.59.13.2.23-.14c1.35-.82,1.37-.81,1.51-.78a.27.27,0,0,1,.17.13l.23.55.24.58.08,0c.56-.35.62-.39.77-.35a.28.28,0,0,1,.17.13.27.27,0,0,1-.1.37l-.08,0-.47.28C17.19,15.54,17.11,15.59,17,15.59Z"/>        <path class="b" d="M1.84,17.54H1.77a.27.27,0,0,1-.16-.13,5.31,5.31,0,0,1-.21-.67l-.08-.27c-.58.36-.65.39-.78.36a.27.27,0,0,1-.17-.13c-.12-.2-.12-.2,1-1.39l.23-.23c-1.23.75-1.26.73-1.4.7a.28.28,0,0,1-.17-.13c-.11-.19-.11-.2.57-.9l0-.17.23-.13-.23.13-.1-.25L1,14.07c.65-.4.69-.43.83-.39a.27.27,0,0,1,.17.13c.08.15.11.19-.23.55l.1-.06c1.07-.65,1.07-.65,1.21-.62a.27.27,0,0,1,.17.13c.13.22.13.23-1.45,1.88l-.15.16a.27.27,0,0,1,.08.08,4.69,4.69,0,0,1,.21.66l.09.3h.1l0,.18,0,.11h0l.09.21-.1.06A.37.37,0,0,1,1.84,17.54Zm0-.28-.06,0Z"/>        <path class="b" d="M15.3,5.69h-.07a.27.27,0,0,1-.17-.13c-.08-.13-.07-.2.16-.57h-.09A.27.27,0,0,1,15,4.83l-.46-.38-.64-.55-.65.38c-.9.54-.89.53-1,.5A.27.27,0,0,1,12,4.66c-.06-.11-.06-.14.06-.47-1,.63-1.06.64-1.21.6a.28.28,0,0,1-.17-.13L10.38,4c-1.38.87-1.46.86-1.59.82a.29.29,0,0,1-.17-.13,5.43,5.43,0,0,1-.21-.55L8.36,4l-.47.29c-.86.54-.94.58-1.09.54a.28.28,0,0,1-.13-.08l-.51-.37-.64-.46-.72.44c-.73.45-.77.49-.91.45a.28.28,0,0,1-.17-.13.27.27,0,0,1,.1-.37l.08,0,.62-.38c.93-.58,1-.59,1.12-.56a.28.28,0,0,1,.17.13l.67.46.44.31.69-.43c.75-.48.81-.51,1-.48a.28.28,0,0,1,.17.13l.18.49L9,4.17c.19-.11.57-.33,1.28-.78a.3.3,0,0,1,.3-.07.27.27,0,0,1,.15.12l.07.16.26.57.81-.5c.64-.4.64-.4.76-.37a.27.27,0,0,1,.17.13c.06.11.06.15-.06.49l.19-.11c.91-.54.9-.55,1-.51a.27.27,0,0,1,.17.13l.71.6.38.33.16-.1c.5-.31.55-.34.69-.31a.27.27,0,0,1,.17.13c.08.14.08.17-.17.55.16-.09.19-.09.27-.07l-.07.26L16.06,5l.23-.14.11.25-.33.2C15.53,5.61,15.4,5.69,15.3,5.69Z"/>        <path class="b" d="M3.77,6.24H3.7L3.77,6,4,5.83,3.77,6l-.11-.24.08,0c.16-.1.23-.14.35-.12L4,5.82,3.79,6,4,5.82l.1.25L4,6.13A.48.48,0,0,1,3.77,6.24Z"/>        <path class="b" d="M11.94,7a.15.15,0,0,1-.13-.09l-1.3-.79-.07,0-.63.38C8.89,7,8.89,7,8.75,7a.28.28,0,0,1-.12-.07L8,6.55l-.73-.44c-.24.13-.79.46-1.07.64C5.69,7,5.69,7,5.57,7L5.5,7c-.12,0-.62-.14-1-.2l-.79-.16-.18.11c-.39.23-.39.23-.5.2A.27.27,0,0,1,2.9,6.8c-.06-.11-.07-.14.06-.43-.35.21-.36.21-.47.18a.27.27,0,0,1-.16-.12c-.08-.12-.08-.12.11-.55l.11-.24c-.32.2-.34.2-.45.17a.27.27,0,0,1-.17-.13c-.11-.19-.06-.28.63-1.21a.26.26,0,0,1-.2,0,.28.28,0,0,1-.17-.13A.27.27,0,0,1,2.29,4l.09,0c.14-.07.59-.35.77-.46s.31-.19.43-.17a.27.27,0,0,1,.17.13c.1.18.09.2-.6,1.13L3,4.73a.22.22,0,0,1,.13,0,.27.27,0,0,1,.17.13c.06.11.07.13-.2.77.34-.2.36-.19.46-.17a.27.27,0,0,1,.17.13c.06.11.07.14-.07.46h.1l.06,0,.79.16c.52.1.8.16,1,.2l.27-.17C7.18,5.5,7.2,5.5,7.34,5.54a.28.28,0,0,1,.13.07c.08.06.5.31.78.47l.59.36L9.53,6c.86-.52.86-.52,1-.49l.08,0,.19.11L12,6.44,12.81,6c.81-.47.81-.47.92-.44l.09,0,.78.5.46.29.38-.23c.47-.29.47-.29.59-.26L16,6.16l-.23.13L16,6.16l.1.25-.35.21C15.11,7,15.1,7,15,7l-.09,0-.58-.37-.67-.43-.57.33A4.19,4.19,0,0,1,11.94,7Z"/>      </g>      <g>        <path class="b" d="M23.7,18.17h-.08a.28.28,0,0,1-.17-.13c-.1-.18-.1-.18.46-.77l.4-.43-1.52.92c-.71.44-.71.44-.83.41a.27.27,0,0,1-.17-.13c-.11-.18-.09-.25.64-1.12l-.19.11c-1.63,1-1.63,1-1.76.92a.27.27,0,0,1-.16-.12c-.08-.13-.08-.14.31-1.3-.24.15-.29.16-.4.14a.27.27,0,0,1-.17-.13.27.27,0,0,1,.1-.37l.07,0,.29-.18c.45-.28.53-.33.67-.3a.28.28,0,0,1,.17.13c.07.11.07.11-.16.76l-.2.57,1-.57c1.53-.9,1.54-.91,1.67-.87a.27.27,0,0,1,.17.13c.11.18.11.18-.62,1l0,0c2.11-1.28,2.18-1.27,2.33-1.23a.29.29,0,0,1,.17.13c.09.16.13.22-.52.93,1.73-1.08,1.84-1.11,2-1.07a.29.29,0,0,1,.18.13c.11.19.08.24-.68,1.22l.13-.08c2.19-1.32,2.21-1.32,2.37-1.27a.28.28,0,0,1,.17.13c.11.18.08.25-.67,1.32l.73-.45c2-1.24,2.06-1.23,2.22-1.19a.28.28,0,0,1,.17.13c.08.14.12.21-.26.59.95-.57,1-.56,1.13-.52a.29.29,0,0,1,.17.13c.1.17.07.28-.35.69,1.51-.89,1.57-.87,1.69-.84a.28.28,0,0,1,.17.13c.09.15.11.19-.65,1.08,1.15-.7,1.17-.69,1.3-.66a.28.28,0,0,1,.17.13c.07.13.11.18-.15.5h.08a.28.28,0,0,1,.17.13.27.27,0,0,1-.1.37l-.1,0c-.14.06-.58.34-.82.49-.52.32-.52.33-.65.29A.27.27,0,0,1,33.4,18c-.11-.18,0-.27.19-.49-1.08.66-1.08.65-1.22.62A.27.27,0,0,1,32.2,18c-.1-.16-.07-.19.27-.6l.54-.64L31,18c-.29.17-.3.18-.42.14a.27.27,0,0,1-.15-.12c-.11-.2-.08-.26.6-.92l-.41.25c-1.35.83-1.35.83-1.5.79a.27.27,0,0,1-.17-.13c-.12-.19,0-.27.3-.55l.39-.34c-1.72,1.06-1.74,1.06-1.9,1a.28.28,0,0,1-.17-.13c-.1-.18-.09-.19.56-1.13l.18-.25L27,17.41c-1.3.78-1.3.79-1.43.75a.27.27,0,0,1-.17-.13c-.11-.2-.07-.26.73-1.28l0,0-.88.54C24.06,18,23.83,18.17,23.7,18.17Z"/>        <path class="b" d="M29.35,15.9h-.07a.27.27,0,0,1-.17-.13c-.12-.2-.12-.2.89-1.21l.7-.71h0c-1,.64-1,.64-1.18.6a.28.28,0,0,1-.17-.13c-.09-.16-.11-.19.5-.73a.24.24,0,0,1-.2,0,.28.28,0,0,1-.17-.13c-.09-.17-.09-.17,1.1-1.65l.71-.88c-1.24.73-1.25.73-1.37.7a.27.27,0,0,1-.16-.12c-.1-.17-.11-.18,1.65-2.48-1.15.7-1.16.7-1.3.66a.28.28,0,0,1-.17-.13c-.07-.13-.07-.13.23-1.2l.17-.62c-.57.32-1.55.92-2.09,1.25-.91.56-.91.56-1,.52A.27.27,0,0,1,27,9.41c-.09-.15-.07-.2.38-1.3l.08-.2-1.06.63c-1.75,1-1.75,1-1.88,1a.27.27,0,0,1-.17-.13c-.09-.15-.12-.21.24-.54-1.19.72-1.2.71-1.33.68a.27.27,0,0,1-.16-.12c-.1-.17-.1-.17.43-.77l.29-.33-.14.09c-1.3.8-1.3.79-1.45.75A.28.28,0,0,1,22.08,9c-.09-.16-.06-.23.36-1a.29.29,0,0,1-.23,0A.28.28,0,0,1,22,7.9a.27.27,0,0,1,.1-.37l.08,0c.11-.05.43-.25.56-.33S23,7,23.15,7a.27.27,0,0,1,.16.13c.09.15.08.16-.32.95l-.08.16L23.42,8C25,7,25,7,25.13,7.05a.28.28,0,0,1,.17.13c.09.16.11.19-.63,1,2-1.19,2-1.19,2.15-1.15a.27.27,0,0,1,.17.13c.09.15.11.21-.21.51C27.92,7,27.94,7,28.06,7.06a.27.27,0,0,1,.17.13c.08.14.08.16-.32,1.13l-.14.35.18-.11C30.53,7,30.59,7,30.75,7a.29.29,0,0,1,.17.13c.07.13.08.14-.27,1.37l-.11.39.64-.38c1.15-.7,1.15-.7,1.3-.66a.27.27,0,0,1,.17.13c.1.15.1.15-.34.72l-1.37,1.8.22-.13c1.14-.66,1.14-.67,1.26-.64a.27.27,0,0,1,.16.12c.1.18.1.18-1.59,2.29l-.21.26.16-.1c1.05-.64,1.05-.64,1.19-.61a.27.27,0,0,1,.17.13c.08.14.1.19-.47.71a.27.27,0,0,1,.17,0,.29.29,0,0,1,.17.13c.12.21.15.26-1.17,1.61.58-.34.67-.35.78-.32a.29.29,0,0,1,.18.13.27.27,0,0,1-.23.4c-.23.09-1.08.62-1.54.92S29.44,15.9,29.35,15.9Z"/>        <path class="b" d="M34.59,17h-.07a.27.27,0,0,1-.17-.13,3.37,3.37,0,0,1-.18-.8l0-.22h0c-1.27.79-1.31.78-1.45.74a.28.28,0,0,1-.17-.13h0l-.12-.26L32,15.5l-.42.26c-.44.27-.45.28-.57.25a.27.27,0,0,1-.17-.13c-.09-.15-.11-.18.68-1.46-.24.14-.26.13-.35.11a.27.27,0,0,1-.17-.13c-.09-.15-.11-.18.26-.59a.27.27,0,0,1-.16-.12c-.11-.18-.07-.27.68-1.48L32,12c-.22.13-.29.15-.39.12a.28.28,0,0,1-.17-.13c-.1-.18-.09-.24.72-1.51-.16.09-.22.1-.32.08a.28.28,0,0,1-.17-.13c-.09-.16-.11-.19.55-1.19a.24.24,0,0,1-.19,0,.28.28,0,0,1-.17-.13C31.73,9,31.73,9,32,8.06c-.28.16-.3.16-.4.13a.27.27,0,0,1-.17-.13l-.34-.45-.37-.5c-.24.13-.68.41-.94.57-.58.36-.57.36-.7.33a.27.27,0,0,1-.17-.13l-.39-.42-.3-.33-.34.21c-1.13.7-1.16.7-1.3.66a.28.28,0,0,1-.17-.13l-.24-.45-.14-.27-.36.22c-1.09.66-1.1.66-1.24.62a.28.28,0,0,1-.17-.13c-.06-.11-.07-.14.07-.46l-.23.14c-.76.47-.76.47-.9.43a.27.27,0,0,1-.17-.13.27.27,0,0,1,.1-.37l.07,0,.62-.37c1-.59,1-.6,1.14-.57a.28.28,0,0,1,.17.13c.06.11.07.14-.07.46l.33-.2c.69-.42.69-.42.81-.39a.27.27,0,0,1,.17.13l.27.52.11.22.84-.51c.62-.39.62-.39.75-.36a.27.27,0,0,1,.17.13l.41.44.28.3.29-.19c1.16-.73,1.24-.74,1.39-.71a.29.29,0,0,1,.17.13l.47.64.22.29.33-.2c.36-.21.36-.21.47-.19a.27.27,0,0,1,.17.14c0,.1,0,.12,0,.39l-.22.68c.38-.24.46-.27.58-.24a.28.28,0,0,1,.17.13c.09.14.09.14-.24.65l-.37.56c.17-.1.23-.11.33-.09a.28.28,0,0,1,.17.13c.1.17.1.17-.51,1.12l-.28.44c.23-.14.29-.16.39-.13a.28.28,0,0,1,.17.13c.1.18.08.23-.63,1.38l-.2.33c.28-.16.33-.16.42-.14a.28.28,0,0,1,.17.13c.09.15.11.18-.25.58a.27.27,0,0,1,.17.14c.07.13,0,.21-.09.39L31.84,15c.24-.14.29-.14.39-.12a.28.28,0,0,1,.17.13s0,.08.46,1c.27-.15.73-.44,1-.58.44-.27.44-.27.56-.24a.27.27,0,0,1,.16.12c0,.05,0,.06.15.68l.06.34c.61-.37.63-.37.75-.33l-.07.26-.23.13.23-.13.09.25c-.08,0-.49.28-.65.38S34.66,17,34.59,17Z"/>        <path class="b" d="M22.86,18.68h-.08a.28.28,0,0,1-.17-.13l-.32-.69c-1.3.82-1.37.8-1.5.77a.29.29,0,0,1-.17-.13c0-.06,0-.06-.11-.67v-.1h0c-.44.28-.51.32-.65.29a.28.28,0,0,1-.17-.13c-.09-.15-.08-.17.41-1.21l.26-.56c-.38.24-.42.25-.54.22a.27.27,0,0,1-.17-.13.27.27,0,0,1,.1-.37l.06,0,.37-.23c.56-.35.63-.39.77-.36a.28.28,0,0,1,.17.13c.09.16.08.21-.54,1.55l-.09.19c.17-.1.22-.11.31-.09a.28.28,0,0,1,.17.13c0,.06,0,.06.1.61l0,.2c.2-.11.55-.32,1.15-.7a.4.4,0,0,1,.26-.06.27.27,0,0,1,.16.13l.08.17.25.56.81-.5c.64-.4.64-.4.77-.37a.27.27,0,0,1,.17.13c.06.11.06.16-.06.49l.18-.11c.91-.55.91-.55,1-.51a.27.27,0,0,1,.13.07c.1.07.57.34.89.53l.52.3.52-.32c1-.61,1-.63,1.17-.59a.28.28,0,0,1,.17.13c0,.06,0,.06.06.47V18l.67-.4c.69-.42.69-.42.81-.39a.27.27,0,0,1,.17.13,5.27,5.27,0,0,1,.23.66v0l.46-.28c.91-.56,1-.58,1.1-.55a.28.28,0,0,1,.17.13l.26.42.2.32,1.27-.74c.92-.55.92-.55,1.06-.32a.27.27,0,0,1-.09.37l0,0-.66.39c-1.56.93-1.56.93-1.71.89a.27.27,0,0,1-.17-.13L32.78,18l-.14-.22-.65.4c-.81.5-.83.51-1,.47a.27.27,0,0,1-.17-.13,2.62,2.62,0,0,1-.14-.39l-.1-.3-.32.19c-1.09.67-1.1.67-1.25.63a.28.28,0,0,1-.17-.13c0-.07,0-.08-.08-.66l-.58.36c-.74.46-.76.47-.89.43a.28.28,0,0,1-.11-.06l-.59-.35-.84-.49-.67.4c-.89.53-.89.53-1,.5a.27.27,0,0,1-.17-.13c-.06-.11-.06-.14.06-.47C23.17,18.58,23,18.68,22.86,18.68Z"/>        <path class="b" d="M27.15,16.66h-.08a.28.28,0,0,1-.17-.13c0-.07,0-.07,0-.39l0-.29-1,.59c-.39.24-.54.33-.68.1,0-.07,0-.07-.13-.69l-.48.28c-1,.56-1,.56-1.07.53a.27.27,0,0,1-.16-.12l-.55-.63-.12-.14-.68.42c-.72.46-.78.49-.93.46A.28.28,0,0,1,21,16.5a.27.27,0,0,1,.1-.37l.09,0c.1-.05.4-.24.62-.38.86-.55,1-.59,1.11-.55a.28.28,0,0,1,.17.13h0l.22.24.44.51.67-.39c.91-.54.91-.54,1-.5a.27.27,0,0,1,.17.13c0,.05,0,.05.09.46l0,.21c1.41-.86,1.44-.86,1.58-.82a.28.28,0,0,1,.17.13c0,.08.06.09,0,.66l.77-.47c1.52-1,1.6-1,1.76-.93a.29.29,0,0,1,.17.13c.1.17.08.21-.48,1.07h0l-.07.26-.23.14.23-.14.09.25-.39.23c-.32.19-.34.21-.45.17a.27.27,0,0,1-.16-.13c-.1-.17-.07-.22.46-1l-.69.43C27.47,16.55,27.27,16.66,27.15,16.66Z"/>        <path class="b" d="M28.9,15.48h-.08a.27.27,0,0,1-.17-.13c-.09-.16-.09-.16.43-.91l.28-.4c-.19.11-.23.11-.32.09a.27.27,0,0,1-.18-.14c-.07-.15-.08-.16.35-.69h0a.27.27,0,0,1-.17-.13c-.07-.13-.07-.13.53-1.31l.35-.69-.06,0c-.2.12-.41.24-.55,0s-.07-.11.4-1.77l-.17.1c-.86.52-.87.53-1,.49a.27.27,0,0,1-.12-.07l-.66-.4L27,9.13c-.24.13-.79.47-1.08.64-.48.29-.48.29-.59.27a.27.27,0,0,1-.17-.13l-.49-.45-.32-.3-.62.36c-.86.51-.86.51-1,.48a.27.27,0,0,1-.16-.12c-.06-.1-.06-.13,0-.43-.46.27-.46.27-.58.24a.27.27,0,0,1-.16-.12c-.07-.11-.07-.11.09-.54L22,8.8c-.33.2-.35.2-.46.18a.27.27,0,0,1-.17-.13c-.11-.18-.06-.27.59-1.18a.26.26,0,0,1-.21,0,.28.28,0,0,1-.17-.13.27.27,0,0,1,.1-.37l.09,0c.13-.06.57-.34.75-.44s.3-.19.41-.16a.27.27,0,0,1,.17.13c.1.18.09.2-.56,1.1l-.1.14a.23.23,0,0,1,.14,0,.27.27,0,0,1,.17.13c.06.1.07.12-.17.75.43-.26.44-.25.55-.22a.27.27,0,0,1,.17.13c.06.1.06.13,0,.43l.14-.08c1-.61,1-.61,1.17-.37l.41.37.41.38.21-.13c1.29-.79,1.32-.79,1.46-.75a.28.28,0,0,1,.13.07c.08.06.5.31.78.47l.59.36.63-.38c.82-.49.82-.5.95-.46a.27.27,0,0,1,.16.11c.07.1.07.1,0,.49l-.36,1.29h0c.55-.32.55-.32.66-.29a.27.27,0,0,1,.16.13c.08.14.08.14-.74,1.75l-.13.25c.34-.2.35-.2.46-.17a.27.27,0,0,1,.17.13c.07.13.09.16-.34.69h0a.28.28,0,0,1,.17.13c.1.17.09.24-.6,1.24a.29.29,0,0,1,.39.1.27.27,0,0,1-.1.37l-.1,0c-.12.06-.47.28-.65.39S29,15.48,28.9,15.48Z"/>      </g>      <g>        <path class="b" d="M49.6,11.29h-.08a.27.27,0,0,1-.17-.13c-.08-.14-.09-.16.26-.62-1.44.84-1.45.84-1.59.61s-.08-.14.57-1.9l-1.3.78c-2.12,1.29-2.14,1.28-2.3,1.24a.28.28,0,0,1-.17-.13c-.08-.15-.08-.16.37-1.3l.26-.66c-.66.37-1.83,1.08-2.47,1.48-1,.64-1,.64-1.17.61a.27.27,0,0,1-.17-.13c-.11-.19-.08-.24.75-1.54l.12-.19-1.17.69c-2.07,1.23-2.07,1.23-2.21,1.19a.27.27,0,0,1-.17-.13c-.09-.16-.12-.21.25-.54-1.1.66-1.11.65-1.24.62a.27.27,0,0,1-.16-.12c-.12-.19-.12-.19.58-.88l.34-.34c-1.26.77-1.27.77-1.41.73a.28.28,0,0,1-.17-.13c-.1-.17-.06-.25.46-1.1a.29.29,0,0,1-.24,0,.28.28,0,0,1-.17-.13.27.27,0,0,1,.1-.37l.09,0c.12-.06.5-.29.65-.39s.27-.17.39-.14a.27.27,0,0,1,.17.13c.09.16.08.18-.42,1l-.09.15.5-.3c1.63-1,1.65-1,1.81-1a.28.28,0,0,1,.17.13c.1.17.12.2-.8,1.11,2.14-1.28,2.17-1.28,2.32-1.24a.28.28,0,0,1,.17.13c.09.15.11.22-.21.51,1.14-.67,1.16-.66,1.27-.63a.27.27,0,0,1,.17.13c.1.18.09.2-.64,1.34l-.23.36.09-.05c3-1.84,3.08-1.83,3.26-1.78a.29.29,0,0,1,.17.13c.09.15.08.19-.44,1.49l-.16.42L47,9.56c2-1.2,2-1.19,2.14-1.15a.28.28,0,0,1,.17.13c.06.12.06.12-.09.52l-.5,1.36.71-.42c1.13-.66,1.13-.66,1.25-.63a.27.27,0,0,1,.17.13c.08.14.09.16-.36.74h0l-.07.26-.23.14.23-.14.1.25-.34.2C49.8,11.23,49.69,11.29,49.6,11.29Z"/>        <path class="b" d="M50.21,10.32h-.07a.28.28,0,0,1-.17-.13c-.08-.14-.06-.21.23-.81-.18.11-.22.11-.31.09a.27.27,0,0,1-.13-.07L49.21,9l-.76-.52-.66.39c-.89.54-.89.53-1,.5a.27.27,0,0,1-.17-.13c-.06-.11-.06-.14.06-.47-1,.63-1.07.64-1.21.6a.28.28,0,0,1-.17-.13L45,8.56c-1.39.87-1.46.85-1.59.82a.29.29,0,0,1-.17-.13,5.58,5.58,0,0,1-.2-.54l-.06-.16-.47.29c-.85.54-.94.58-1.09.54a.28.28,0,0,1-.13-.08l-.51-.37-.63-.46-.71.43c-.72.45-.77.48-.91.44a.27.27,0,0,1-.17-.13.27.27,0,0,1,.1-.37l.08,0,.61-.37c.88-.55,1-.59,1.1-.55a.28.28,0,0,1,.17.13L41,8.5l.44.31.69-.43c.76-.48.82-.52,1-.48a.28.28,0,0,1,.17.13l.19.49.09.24c.19-.11.57-.33,1.29-.78a.35.35,0,0,1,.39,0l0,.06.08.17.26.56.81-.5c.63-.4.63-.4.76-.36A.27.27,0,0,1,47.4,8c.06.11.06.16-.06.49l.18-.11c.91-.55.91-.54,1-.51a.27.27,0,0,1,.17.13l.79.53.46.31.2-.12c.53-.33.58-.36.72-.33a.28.28,0,0,1,.17.13c.08.14.08.14-.22.75l0,.09c.33-.2.34-.2.45-.17l-.07.26-.24.13.24-.13.11.25L51,9.92C50.43,10.24,50.31,10.32,50.21,10.32Z"/>        <path class="b" d="M38.24,11h-.07l.07-.26.24-.13-.24.13-.11-.24.08-.05c.16-.1.22-.15.35-.12l-.06.26-.23.13.23-.13.11.25-.1.06A.5.5,0,0,1,38.24,11Z"/>        <path class="b" d="M49.35,11.79h-.07l-.09,0-.59-.38-.73-.48-.56.33c-1,.59-1,.6-1.14.57l-.1,0-1.28-.78-.12-.07-.64.38c-.92.56-.92.56-1.06.52a.28.28,0,0,1-.12-.07l-.66-.4-.73-.44c-.24.13-.79.46-1.07.64-.49.3-.49.29-.6.27l-.09,0c-.11,0-.54-.18-.83-.27l-.67-.21-.21.12c-.42.25-.42.25-.54.22a.27.27,0,0,1-.16-.12c-.06-.1-.07-.14.05-.43-.24.14-.25.13-.35.11a.27.27,0,0,1-.16-.12c-.08-.13-.08-.13.18-.61l.12-.23c-.3.18-.33.18-.43.16a.27.27,0,0,1-.17-.13c-.11-.19-.06-.28.64-1.23A.23.23,0,0,1,37,9a.28.28,0,0,1-.17-.13.27.27,0,0,1,.1-.37l.09,0c.12-.06.52-.3.67-.4s.29-.18.4-.15a.27.27,0,0,1,.17.13c.1.18.09.2-.58,1.11l-.08.12a.25.25,0,0,1,.22,0,.28.28,0,0,1,.17.13c.07.12.08.14-.28.83a.23.23,0,0,1,.2,0,.27.27,0,0,1,.16.12c.06.1.06.15-.05.43a.21.21,0,0,1,.19,0l.08,0,.7.23.81.26.26-.16c1.29-.79,1.31-.79,1.46-.75a.28.28,0,0,1,.13.07c.08.06.5.31.78.47l.59.36.69-.41c.86-.52.86-.52,1-.49l.08,0,.24.14,1.18.72.79-.46c.86-.5.93-.54,1-.37l.82.53.48.31.86-.51c.81-.49.81-.49.94-.46l-.07.26-.23.13.23-.13.09.25-.68.41C49.63,11.69,49.46,11.79,49.35,11.79Z"/>      </g>      <g>        <path class="b" d="M67.27,18.29h-.08a.27.27,0,0,1-.16-.11c-.1-.15-.07-.21.18-.55l.38-.53-.93.56c-.13.08-.29.17-.43,0l0-.06c-.11-.18-.08-.24.45-.8-.64.39-.65.39-.77.36A.27.27,0,0,1,65.7,17c-.1-.18,0-.26.21-.5l.22-.22c-.58.35-.6.35-.72.32a.28.28,0,0,1-.17-.13c-.1-.18-.09-.2.58-1.14l.15-.21-.34.2c-.81.49-.8.49-.93.45a.27.27,0,0,1-.17-.13c-.11-.19-.07-.25.65-1.22l-.1.06c-.9.56-.93.58-1.08.54a.28.28,0,0,1-.17-.13c-.1-.17-.1-.17.37-.72l.26-.31-.5.31c-.45.28-.45.28-.57.25a.27.27,0,0,1-.17-.13c-.1-.17-.09-.24.54-1.06l-.52.31c-.39.23-.55.32-.69.08s-.1-.18.61-1.5l-.3.19c-.87.55-.93.59-1.08.55a.28.28,0,0,1-.17-.13.27.27,0,0,1,.1-.37l.1,0c.12-.06.49-.3.77-.47,1-.67,1.14-.71,1.3-.67a.29.29,0,0,1,.18.13c.08.14.08.14-.32.89l-.33.61.27-.16c1-.61,1-.61,1.16-.58a.27.27,0,0,1,.16.12c.1.17.1.17-.52,1l0,.06c.93-.56,1-.55,1.1-.52a.28.28,0,0,1,.17.13c.09.15.12.2-.42.86.66-.41.73-.41.85-.38a.28.28,0,0,1,.17.13c.11.19.08.23-.62,1.18,1-.6,1-.6,1.15-.56a.27.27,0,0,1,.17.13c.11.18.08.25-.66,1.29,1.08-.66,1.09-.66,1.23-.62a.28.28,0,0,1,.17.13c.08.13.11.19-.24.59.41-.24.46-.23.55-.2a.28.28,0,0,1,.17.13c.1.17.07.27-.34.7.47-.27.52-.25.6-.23a.27.27,0,0,1,.17.13c.08.14.1.17-.47,1,.23-.13.26-.12.34-.1l-.06.26-.23.14.23-.14.09.25L68,17.9C67.47,18.22,67.36,18.29,67.27,18.29Z"/>        <path class="b" d="M54.27,18.37H54.2a.28.28,0,0,1-.17-.13c-.16-.28-.16-.28,3.38-2.79l.27-.19-1.1.64L54.1,17.32c-1.31.76-1.3.76-1.44.52-.23-.4.15-.75,5.5-4.25,1.1-.72,2.32-1.52,3.32-2.2l-1.84,1.14c-1.83,1.14-1.83,1.14-2,1.1a.27.27,0,0,1-.17-.13c-.16-.27-.16-.27,2.5-2.13.76-.53,1.74-1.22,2.63-1.86-1.52.95-1.55.94-1.7.9a.28.28,0,0,1-.17-.13c-.11-.19-.12-.22,1.2-1.18h-.05A.28.28,0,0,1,61.72,9c-.11-.2-.11-.2,2-2.2L65,5.56c-1.4.82-1.41.81-1.52.78a.27.27,0,0,1-.16-.12c-.1-.16-.1-.18,1.45-2.39l-.62.37c-1.83,1.11-1.85,1.11-2,1.07A.28.28,0,0,1,62,5.15C61.93,5,61.93,5,62.12,4l.12-.61c-.57.32-1.63,1-2.21,1.32-.92.56-.92.56-1,.53a.27.27,0,0,1-.17-.13c-.09-.16-.07-.21.46-1.36l.09-.2-1.09.64c-1.8,1.07-1.8,1.07-1.95,1a.27.27,0,0,1-.16-.13c-.09-.16-.12-.21.25-.54-1.24.75-1.25.75-1.38.71a.27.27,0,0,1-.17-.12c-.1-.18-.1-.18.49-.81l.3-.32,0,0c-1.31.8-1.32.81-1.47.77A.27.27,0,0,1,54,4.72c-.09-.16-.06-.24.4-1.07a.3.3,0,0,1-.24,0A.28.28,0,0,1,54,3.56a.27.27,0,0,1,.1-.37l.09,0c.11-.06.46-.27.59-.36s.39-.24.54,0,.09.18-.36,1l-.08.15.49-.3c1.55-1,1.57-1,1.73-.91a.28.28,0,0,1,.17.13c.09.16.11.19-.68,1.05,2-1.22,2-1.21,2.21-1.18a.28.28,0,0,1,.17.13c.09.15.11.21-.21.51,1.14-.67,1.15-.67,1.27-.64a.27.27,0,0,1,.17.13c.09.15.08.17-.39,1.18l-.16.35.14-.09c2.66-1.63,2.72-1.61,2.89-1.57a.29.29,0,0,1,.17.13c.07.11.07.13-.15,1.29l-.08.4,1.31-.79c1.7-1,1.71-1,1.87-1a.28.28,0,0,1,.17.13c.08.16.08.16-.28.68L64.43,5.28l.82-.48c1.52-.89,1.52-.89,1.64-.86a.27.27,0,0,1,.16.13c.05.09.08.14-.12.37h0c-.29.34-1,1-2.81,2.69l-.36.34L64,7.34c1.61-1,1.61-1,1.76-.94a.27.27,0,0,1,.17.13c.06.1.09.16-.16.39h0c-.13.12-.35.29-.68.54h.13a.3.3,0,0,1,.18.13c.16.27.1.49-2.26,2.2.43-.22.61-.26.73-.23a.33.33,0,0,1,.19.14c.23.4-.19.79-5.59,4.33l-1.78,1.17c4.69-2.73,4.7-2.73,4.83-2.69a.27.27,0,0,1,.16.13c.17.3.18.31-4,3.24l-.2.14a.29.29,0,0,1,.14.12.27.27,0,0,1-.22.4c-.2.09-1,.57-1.56.93C54.63,18.24,54.4,18.37,54.27,18.37Z"/>        <path class="b" d="M68.06,17.53H68a.27.27,0,0,1-.18-.14c-.08-.15,0-.23.14-.43l.08-.1h0a.28.28,0,0,1-.17-.13c0-.07-.05-.09-.13-1.31v-.06l-.19.12c-.37.22-.37.22-.48.19a.27.27,0,0,1-.17-.13c-.05-.09-.06-.11.09-.64-.41.24-.51.27-.63.06s0-.08-.05-1c0,0,0-.09,0-.13-.53.32-.53.32-.65.29a.27.27,0,0,1-.17-.12c-.06-.1-.06-.11.07-.72l-.17.1c-.23.14-.26.16-.37.13a.27.27,0,0,1-.17-.13c0-.07,0-.08-.09-.89v-.19c-.51.31-.57.33-.69.3a.28.28,0,0,1-.17-.13s0,0-.07-.39c0-.19-.06-.53-.08-.79l-.21.13c-.36.23-.38.24-.51.21a.27.27,0,0,1-.17-.13c-.1-.18-.13-.22,1.08-1.69-.63.38-.65.38-.76.35A.27.27,0,0,1,63,10c-.12-.2-.13-.23.78-1A.27.27,0,0,1,63.69,9c-.14-.24-.1-.32,1.51-2l.24-.25a.31.31,0,0,1-.23,0A.29.29,0,0,1,65,6.65c-.13-.22-.1-.3,1.24-1.85h-.09A.28.28,0,0,1,66,4.66c-.08-.13-.09-.15.32-1.06-.32.2-.35.21-.47.18a.27.27,0,0,1-.17-.13,6.41,6.41,0,0,1-.25-.81L65.19,3c-1.2.72-1.2.72-1.34.68a.27.27,0,0,1-.17-.13l-.43-.32-.58-.46c-.22.12-.69.41-1,.58-.57.35-.57.36-.69.32a.27.27,0,0,1-.17-.13l-.41-.44-.28-.31L59.83,3c-1.13.7-1.16.7-1.3.66a.28.28,0,0,1-.17-.13l-.24-.45L58,2.84l-.36.22c-1.09.66-1.1.66-1.24.62a.28.28,0,0,1-.17-.13c-.06-.11-.07-.14.07-.46l-.21.13c-.75.46-.75.46-.88.43A.27.27,0,0,1,55,3.52a.27.27,0,0,1,.1-.37l.06,0,.61-.36c.94-.58,1-.59,1.12-.56a.28.28,0,0,1,.17.13c.06.11.07.14-.07.46l.33-.2c.69-.42.69-.42.81-.39a.27.27,0,0,1,.17.13l.27.52.11.21.84-.51c.63-.39.63-.39.75-.36a.27.27,0,0,1,.17.12l.39.42.3.33.28-.18c1.14-.71,1.21-.73,1.36-.7a.29.29,0,0,1,.17.13l.62.48L64,3.1l1-.56c.64-.38.64-.38.76-.35a.27.27,0,0,1,.17.14l0,.15.19.64.08,0c.59-.37.67-.42.81-.38a.28.28,0,0,1,.17.13c.07.13.07.13-.13.56l-.23.52c.43-.27.52-.32.65-.28a.28.28,0,0,1,.17.13c.12.2.12.2-.86,1.34l-.44.51c.32-.2.39-.22.5-.19a.28.28,0,0,1,.17.13c.14.24.07.32-1.39,1.85l-.38.39c.39-.23.43-.21.53-.19a.28.28,0,0,1,.17.13c.11.2.13.23-.69.9a.27.27,0,0,1,.1.1c.1.15,0,.24-.18.49L64,10.61h0a.28.28,0,0,1,.17.13c0,.07,0,.08.16,1.19l.3-.18c.25-.16.29-.18.41-.15a.27.27,0,0,1,.16.12c0,.07,0,.07.08.76l0,.33c.55-.33.57-.33.69-.3a.27.27,0,0,1,.17.13c.06.1.06.1-.07.69v0c.42-.25.55-.32.69-.1s0,.08,0,.74v.36l0,0c.51-.3.51-.3.63-.27a.27.27,0,0,1,.15.11c.07.11.06.13,0,.45l-.06.21c.34-.2.37-.2.48-.18a.27.27,0,0,1,.17.12c0,.06,0,.06.07.6,0,.21,0,.53.06.78l.08,0c.43-.27.48-.3.61-.27a.27.27,0,0,1,.17.13c.06.11.09.15-.1.41h.1a.27.27,0,0,1,.07.5l-.07,0-.55.32C68.23,17.47,68.13,17.53,68.06,17.53Z"/>        <path class="b" d="M67.8,18.81h-.07a.27.27,0,0,1-.17-.13c0-.06,0-.06,0-.47V18l-.06,0c-.81.49-.83.5-1,.47a.28.28,0,0,1-.17-.13c-.06-.1-.06-.14.06-.72-.38.23-.4.25-.52.22a.27.27,0,0,1-.17-.13c0-.06,0-.07-.12-.79,0-.2-.05-.45-.08-.65l-.08,0c-.51.31-.64.38-.78.14s-.07-.15.07-.48c-.19.11-.25.12-.34.09a.28.28,0,0,1-.17-.13c-.05-.09-.06-.1,0-.88-.45.27-.5.26-.6.24a.28.28,0,0,1-.17-.13c-.06-.1-.06-.1,0-.81v0c-.41.26-.48.3-.61.26a.28.28,0,0,1-.17-.13c0-.07,0-.07-.12-.78l-.06-.51-.15.1c-.43.27-.47.29-.6.26a.27.27,0,0,1-.07-.5l.06,0,.32-.2c.51-.32.57-.36.71-.32a.28.28,0,0,1,.17.13c0,.07,0,.09.15,1l0,.28.11-.07c.43-.27.48-.3.61-.27a.27.27,0,0,1,.17.13c.05.09.05.09,0,.76l0,.13.37-.23a.31.31,0,0,1,.36,0c.09.13.09.13.05.47l-.06.51.11-.07c.34-.21.37-.23.49-.2a.27.27,0,0,1,.17.13c.07.11.06.16-.08.5.3-.17.4-.18.51,0s.06.13.18,1.15l0,.28c.5-.31.56-.35.69-.31A.27.27,0,0,1,67,17c.05.09.05.09,0,.59l0,.15.26-.16c.54-.33.53-.32.66-.29a.27.27,0,0,1,.17.13c0,.07,0,.08.06.64l0,0c.55-.34.58-.36.71-.32a.27.27,0,0,1,.17.13.27.27,0,0,1-.1.37l-.07,0-.43.26C68,18.75,67.88,18.81,67.8,18.81Z"/>        <path class="b" d="M57.1,16.17c-.08,0-.11-.05-.16-.13-.17-.29-.19-.33,3.26-3l.48-.37a.27.27,0,0,1,.13-.3l.07,0,.31-.19c.47-.3.55-.36.7-.32a.28.28,0,0,1,.17.13c.13.23.13.23-1.53,1.51l-.83.64c1.79-1.06,1.8-1.05,1.93-1l-.07.26-.23.14.23-.14.09.25c-.12.06-1.22.7-2.1,1.22A11.51,11.51,0,0,1,57.1,16.17Z"/>        <path class="b" d="M53.4,18.83h-.07a.29.29,0,0,1-.18-.13,3.63,3.63,0,0,1-.17-.79l-.09-.47-.16.09c-.49.29-.57.33-.72.14-.22-.38-.1-.56,4.41-3.67l1.39-1c-.27.16-.3.15-.39.13a.27.27,0,0,1-.17-.13c-.14-.24-.14-.24,1.77-1.72L60.69,10h-.1a.28.28,0,0,1-.17-.13c-.12-.2-.12-.2,1.08-1.22a.27.27,0,0,1-.12-.11c-.1-.16-.1-.16,1.12-1.68L63.24,6a.18.18,0,0,1-.12,0A.27.27,0,0,1,63,5.83l-1-.93,0,0-.61.36c-.93.57-.93.57-1.07.53a.27.27,0,0,1-.12-.07l-.66-.4-.73-.44c-.24.13-.79.46-1.07.64-.49.3-.49.3-.6.27a.27.27,0,0,1-.17-.13l-.5-.45-.33-.3-.6.35c-.87.51-.87.51-1,.48a.27.27,0,0,1-.16-.12c-.06-.1-.07-.14,0-.43-.39.23-.4.23-.51.2a.27.27,0,0,1-.16-.12c-.08-.12-.08-.12.11-.55l.1-.24c-.34.21-.36.21-.47.18a.27.27,0,0,1-.17-.13c-.11-.19-.06-.28.62-1.21a.24.24,0,0,1-.18,0,.28.28,0,0,1-.17-.13.27.27,0,0,1,.1-.37l.09,0c.13-.06.57-.34.75-.44s.3-.19.41-.16a.27.27,0,0,1,.17.13c.1.18.09.2-.59,1.12l-.1.14a.23.23,0,0,1,.15,0,.27.27,0,0,1,.17.13c.06.1.07.12-.2.77.35-.21.37-.2.47-.18a.27.27,0,0,1,.17.13c.06.1.07.14-.05.43l.12-.07c.87-.51.87-.51,1-.48a.27.27,0,0,1,.16.13l.41.37.41.38L57.39,5c1.29-.79,1.31-.79,1.45-.75a.28.28,0,0,1,.13.07c.08.06.5.31.78.48l.59.36.7-.42c.87-.52.86-.52,1-.49a.27.27,0,0,1,.12.07l.16.15.93.85.44-.25c.66-.39.7-.41.85-.2s.11.19-1.59,2.29l-.2.25c.62-.38.64-.37.75-.34a.27.27,0,0,1,.17.13c.1.17.12.2-.88,1.05a.29.29,0,0,1,.16.13c.15.26.1.43-2.17,2.22a.43.43,0,0,1,.3,0,.3.3,0,0,1,.18.13c.2.35.09.54-4.5,3.7-1.19.82-2.58,1.77-3.44,2.42h0a3.76,3.76,0,0,1,.21.94l.08.4c.54-.28,1.84-1.09,2.92-1.76,3.28-2,3.67-2.22,3.9-2.17a.3.3,0,0,1,.18.13c.16.27.2.34-2.63,2.19a.27.27,0,0,1-.11.34l-.12,0c-.18.08-.79.47-1.29.79-1.62,1-1.79,1.11-2,1.06a.3.3,0,0,1-.18-.13c-.05-.09-.09-.15,0-.25C53.69,18.76,53.51,18.83,53.4,18.83Z"/>      </g>    </g>    <rect class="c" width="69.38" height="21"/>  </g></svg>