<svg xmlns="http://www.w3.org/2000/svg" width="8.07" height="10.89" viewBox="0 0 8.07 10.89">  <defs>    <style>      .a {        fill: none;        stroke: #0098f5;        stroke-linecap: round;        stroke-linejoin: round;        stroke-width: 0.57px;      }    </style>  </defs>  <title>アセット 4</title>  <g>    <path class="a" d="M.46.58S.86.33.87.35.33,2.59.35,2.64,2.47,1.34,2.5,1.4.31,4.63.36,4.72,4,2.48,4.08,2.57.29,6.31.36,6.43s4.94-3,5-2.9-5.11,5-5,5.15S7,4.64,7.08,4.8.25,10.41.36,10.61,7.68,6.13,7.78,6.32"/>    <path class="a" d="M1,.35,1.09.28s1.53,1.2,1.55,1.24l.08,0s1.5,1.2,1.53,1.24l.08,0s1.29,1,1.31,1.08l.08,0S7.18,4.87,7.2,4.91l.08,0C7.34,5,4.84,8.41,4.89,8.5s.61-.38.62-.36"/>    <path class="a" d="M.33.57.52.46S.26,2.55.29,2.59l.08,0S.26,4.63.29,4.67l.09,0S.27,6.35.29,6.39l.09-.05S.26,8.59.29,8.64l.09-.05s-.11,1.93-.09,2l.09-.05"/>  </g></svg>