<svg xmlns="http://www.w3.org/2000/svg" width="46.93" height="11.75" viewBox="0 0 46.93 11.75">  <defs>    <style>      .a {        fill: none;        stroke: #ff8c00;        stroke-linecap: round;        stroke-linejoin: round;        stroke-width: 0.57px;      }    </style>  </defs>  <title>アセット 1</title>  <g>    <g>      <g>        <path class="a" d="M6.8.91s.61-.37.62-.36-.73,2-.7,2,1.18-.72,1.2-.69S6.69,3.18,6.71,3.22s1.18-.72,1.2-.69S6.69,4.07,6.71,4.11s1.18-.72,1.2-.69S6.68,5.75,6.72,5.81s1.18-.72,1.2-.69-1.19,2-1.16,2,1.14-.7,1.16-.67-1.12,2-1.09,2,1.07-.66,1.09-.63-1.06,1.41-1,1.45,1-.63,1-.6"/>        <path class="a" d="M1.7,2.31s.85-.52.86-.5S2.2,3.29,2.22,3.33s.89-.54.9-.52-.17,1.92-.15,2,.93-.57.94-.55-.15,2-.12,2,.93-.57.95-.55-.63,1.12-.61,1.14.93-.57.95-.55-.67,1.05-.65,1.08.94-.57.95-.55-.46,1.42-.45,1.45.92-.56.93-.54-.62,1.1-.6,1.13.89-.55.91-.52-.41,1.4-.4,1.44.85-.52.87-.5-.1,1.63-.08,1.67,1.33-.81,1.35-.78"/>        <path class="a" d="M.62.92s.65-.4.66-.38S.49,2,.51,2s1.61-1,1.64-.94S.47,3.75.51,3.82s1.08-.66,1.1-.63S.47,5.45.51,5.5s1.17-.72,1.19-.69S.48,6.65.51,6.7,1.7,6,1.72,6,.48,8,.51,8s1.19-.73,1.21-.7S.48,9,.51,9s1.19-.73,1.21-.7S.54,10.72.57,10.78s1.13-.69,1.15-.66S1,11.18,1,11.21s.61-.37.61-.35"/>        <path class="a" d="M1.37.73s.45-.27.46-.26.31.92.32.94.33-.2.33-.19.06.88.07.9.33-.2.33-.19.36,1.42.38,1.45.33-.2.33-.19S4,4.7,4,4.73s.33-.2.33-.19,0,.76,0,.77.33-.2.33-.19,0,.71,0,.73S5,5.65,5,5.66s0,.69,0,.71.33-.2.33-.19.09.94.1,1,.33-.2.33-.19S6,8.31,6,8.34s.34-.21.35-.2-.1.69-.09.71S7,8.41,7,8.42s-.19,1.23-.17,1.26l.26-.15"/>        <path class="a" d="M6.63.76s.75-.46.76-.44-.92,1.33-.9,1.37.38-.23.38-.22-.4,1-.38,1.07.38-.23.38-.22-.4,1.6-.38,1.63.38-.23.38-.22-.4,1.09-.38,1.11.38-.23.38-.22-.4,1.59-.38,1.63S6.87,6,6.88,6,6.55,8,6.57,8s.36-.22.37-.21"/>        <path class="a" d="M7.44.73S7.82.49,7.83.5s-.11,1.88-.08,1.92.38-.23.38-.22-.4,1-.38,1,.38-.23.38-.22-.4,1.35-.38,1.38.38-.23.38-.22-.4,1.48-.38,1.52.38-.23.38-.22-.4.94-.38,1,.38-.23.38-.22S7.73,7.93,7.75,8s.38-.23.38-.22-.4,1.58-.38,1.61.38-.23.38-.22-.46,1.54-.44,1.57.43-.26.44-.25"/>        <path class="a" d="M2,3.38s.34-.21.35-.2.28,1.39.3,1.43S3,4.4,3,4.41s-.06.68,0,.69.33-.2.33-.19,0,.85,0,.87.33-.2.33-.19S4,7,4,7.06s.33-.2.33-.19.24,1.2.25,1.23.33-.2.33-.19.24,1.22.26,1.25S5.5,9,5.51,9s.12,1,.13,1S6,9.78,6,9.79s.38,1.23.39,1.26.33-.2.33-.19l.54.6s.7-.43.71-.41"/>        <path class="a" d="M1.37,2.21l.25-.15s-.18,1.38-.16,1.41S2.24,3,2.25,3s-.73,2.23-.7,2.29.37-.23.37-.22S1.53,7.2,1.56,7.25,1.93,7,1.94,7s-.4,1-.38,1,.38-.23.38-.22-.4.9-.38.93.38-.23.38-.22-.4,1.38-.38,1.41.38-.23.38-.22-.43,1-.42,1,.41-.25.42-.24"/>        <path class="a" d="M.46.77s.78-.48.79-.46-1,1.56-1,1.6.38-.23.38-.22-.41,2-.38,2,.38-.23.38-.22S.26,5.35.29,5.39s.38-.23.38-.22S.27,6.55.29,6.58s.38-.23.38-.22S.27,7.89.29,7.92s.38-.23.38-.22S.27,8.88.29,8.91s.38-.23.38-.22-.39,2-.36,2,.36-.22.36-.21.1.84.12.86,1.11-.68,1.12-.65"/>      </g>      <g>        <path class="a" d="M12.53,6.17S14.43,5,14.46,5.05l.85,1.11s.68-.41.69-.4"/>        <path class="a" d="M12.53,1.61S14.41.46,14.43.51s.37,1.07.39,1.09,1.68-1,1.71-1-.45,1-.44,1,.64-.39.65-.38"/>        <path class="a" d="M11.08,1.08s1-.6,1-.57-1.28,1.72-1.26,1.77,3-1.84,3.06-1.77S10.76,4,10.82,4.06s1.27-.77,1.28-.74-1.32,2.37-1.28,2.43,1.34-.82,1.36-.78-1.39,1.92-1.36,2S14,5,14.09,5.05s-3.33,3.13-3.28,3.23,1.26-.77,1.28-.74-1.31,1.68-1.28,1.72,1.27-.77,1.28-.74-1,2.28-.95,2.34,1.23-.75,1.25-.72-.33,1.08-.31,1.11S14,10.09,14,10.14s-.22,1.08-.21,1.11,1.89-1.16,1.92-1.11-.26,1.08-.25,1.11,1.36-.83,1.38-.8"/>        <path class="a" d="M12.21.67s.66-.4.67-.38,1.27.35,1.28.38.66-.4.67-.39,1,.36,1,.38.58-.35.59-.34.24.76.25.77S17,.89,17,.9"/>        <path class="a" d="M12.61,1.87s.75-.46.76-.44.74.4.75.41.71-.43.72-.42.78.37.79.39.68-.41.69-.4"/>        <path class="a" d="M11.95,1.74s.51-.31.52-.3-.56,2.14-.53,2.18.41-.25.41-.24-.42,1-.41,1,.42-.26.43-.25.11,1.06.12,1.08.66-.4.67-.38,1.56.35,1.58.38.66-.4.67-.38l.39.51s.31-.19.32-.18"/>        <path class="a" d="M12.61,6.43s.74-.46.76-.44,2,.34,2,.38.78-.48.79-.46"/>        <path class="a" d="M11.95,6.3s.51-.31.52-.3-.56,1.59-.53,1.63.39-.24.4-.23-.42,2.06-.4,2.11.42-.26.43-.25,1.53,1,1.56,1,.66-.4.67-.38.69.37.7.38.66-.4.67-.38l.52.41s.38-.23.39-.22"/>        <path class="a" d="M10.89.89s1-.61,1-.58S10.57,2.05,10.6,2.1s.38-.23.38-.22-.41,2-.38,2,.38-.23.38-.22-.41,1.87-.38,1.91.38-.23.38-.22-.4,1.38-.38,1.41.38-.23.38-.22-.4,1.53-.38,1.56.38-.23.38-.22-.4,1.18-.38,1.21.38-.23.38-.22-.19,1.85-.16,1.89.37-.23.37-.22.22.77.23.79.48-.3.49-.28,1,.39,1,.42.65-.4.66-.38,1,.36,1,.38.65-.4.66-.38,1.09.36,1.1.38.67-.41.68-.4"/>      </g>      <g>        <path class="a" d="M21.87,6.69s.93-.57.94-.54-.33,1.74-.31,1.78,1-.59,1-.56-.73,1-.71,1.08,1-.6,1-.57-.65,1.23-.63,1.26,1-.61,1-.58-.34,1.84-.32,1.88,1-.62,1-.59-.08,1.34-.06,1.37.57-.35.58-.33"/>        <path class="a" d="M23.92,1s.87-.53.88-.51-1.94,2.35-1.9,2.41,1.79-1.09,1.81-1-2.65,2.63-2.61,2.71,1.63-1,1.65-1"/>        <path class="a" d="M18.58.88s.54-.33.55-.32-.23,1.14-.22,1.17,1-.63,1-.6-.32,1.92-.3,2,1-.61,1-.59-.33,1.83-.31,1.87,1-.59,1-.57-.51,1.44-.49,1.47.95-.58,1-.56-1.39,2.07-1.36,2.13,2.24-1.37,2.27-1.31-3.11,2.66-3.06,2.75,1.68-1,1.7-1-3.12,3.46-3.06,3.56,1.76-1.07,1.78-1"/>        <path class="a" d="M19.18.74s.44-.27.45-.26.3.92.31.94.33-.2.33-.19,0,.89,0,.91.33-.2.33-.19S21,3.4,21,3.43s.33-.2.33-.19.38,1.53.4,1.57.64-.39.65-.38"/>        <path class="a" d="M23.81.83s.89-.54.9-.52S23.05,2,23.08,2.09s.6-.37.61-.35-1.24,1.51-1.22,1.55.59-.36.6-.35S22,4.19,22,4.23s.56-.34.57-.33"/>        <path class="a" d="M24.82.69s.38-.23.39-.22-1.39,2.59-1.35,2.66.64-.39.65-.38-1.27,1.43-1.25,1.47.65-.4.66-.38-1.4,1.9-1.37,1.95S23,5.5,23,5.51s0,1.28,0,1.31.34-.21.34-.2,0,.74,0,.76.34-.21.34-.2S24,8.56,24,8.6s.33-.2.34-.19.23,1.22.25,1.25.33-.2.33-.19.28,1.31.3,1.34.32-.19.32-.19"/>        <path class="a" d="M21.85,7.12s.32-.2.33-.19.28,1.39.3,1.42.33-.2.33-.19-.07.68-.06.7.33-.2.33-.19,0,.86,0,.88.33-.2.33-.19.38,1.43.4,1.47.32-.2.33-.19l.74.81s.61-.37.62-.36"/>        <path class="a" d="M21.52,6.66s.31-.19.32-.18-1.25,2-1.22,2,.59-.36.6-.35-1.74,2.38-1.7,2.44.63-.38.64-.37"/>        <path class="a" d="M18.39.67S19,.3,19,.31s-.44,1.26-.43,1.29.33-.2.34-.19.39,1.52.41,1.55.33-.2.34-.2S20,4.2,20,4.24s.34-.21.34-.2.14,1.08.16,1.1.34-.21.34-.2-.57,1.62-.55,1.66.66-.4.67-.39S19.53,8,19.56,8s.65-.4.66-.38-2.09,2.9-2,3,.6-.37.61-.35-.37,1.11-.35,1.13,1.56-1,1.59-.92"/>      </g>      <g>        <path class="a" d="M31.28,1.61S33.16.46,33.18.51s.11,1.07.12,1.09.64-.39.65-.38"/>        <path class="a" d="M26.48.88s.64-.39.65-.38S27,1.58,27,1.6,28.91.46,28.94.51s.61,1.39.63,1.42S32,.44,32,.51s-2.52,3-2.47,3.11,1.25-.77,1.27-.73-1.3,1.87-1.27,1.92,1.25-.77,1.27-.73-1.3,2-1.27,2.08,1.25-.77,1.27-.73-1.3,1.67-1.27,1.72,1.25-.76,1.27-.73-1.3,2.46-1.27,2.52,1.25-.76,1.27-.73-1.29,1.61-1.27,1.66,1.25-.76,1.27-.73-1.21,1.63-1.18,1.67,1.17-.71,1.18-.68-.75,1.07-.73,1.1.62-.38.63-.37"/>        <path class="a" d="M27.23.67s.65-.4.66-.38,2.56.32,2.59.38.65-.4.66-.38.64.37.64.38.66-.4.67-.38,1.19.43,1.21.46S34,.53,34,.53"/>        <path class="a" d="M31.36,1.87s.74-.45.75-.43,1.22.36,1.23.39.76-.47.77-.45"/>        <path class="a" d="M30.69,1.74s.52-.31.52-.3S30.66,3,30.68,3.07s.38-.23.38-.22-.41,2.06-.38,2.1.38-.23.38-.22-.41,2.12-.38,2.17.38-.23.38-.22-.4,1-.38,1,.38-.23.38-.22-.4.9-.38.93.38-.23.38-.22-.4,1.38-.38,1.41.38-.23.38-.22-.4,1-.38,1,.38-.23.38-.22"/>        <path class="a" d="M26.32.74s.77-.47.78-.45-.59,1.34-.57,1.37.39-.24.39-.23,2.35.37,2.38.42.38-.23.38-.22-.4,1.86-.37,1.9.42-.26.43-.25-.44,1.4-.42,1.43.42-.25.42-.24S29.31,6,29.33,6.05s.41-.25.41-.24S29.32,7,29.33,7s.4-.25.41-.23-.42,2-.39,2,.39-.24.4-.23-.4,1.13-.39,1.15.38-.23.39-.23-.35,1.16-.34,1.18.33-.2.34-.2.19.83.2.85,1-.64,1.06-.61"/>      </g>    </g>    <g>      <path class="a" d="M38.8,2.47,39,2.39s-.17,1.18-.15,1.21S40,2.88,40,2.91s-1.22,2.15-1.19,2.2,2.55-1.56,2.59-1.49-2.64,2.91-2.59,3,3.92-2.39,4-2.29-4,3.78-4,3.9,5.38-3.29,5.46-3.15S38.72,9,38.8,9.16,45,5.35,45.13,5.51s-1.66,2-1.63,2S46.09,5.95,46.12,6"/>      <g>        <path class="a" d="M39.19,2.69s.39-.24.39-.23.88.85.9.88.39-.24.39-.23,1.08.95,1.1,1,.39-.24.39-.23,1.21,1,1.23,1,.39-.24.39-.23l.72.79s.39-.24.39-.23l.7.78s.39-.24.39-.23"/>        <path class="a" d="M38.58,2.12,38.73,2s-.17,1.18-.15,1.21S39,3,39,3s-.4,1.7-.38,1.74.37-.23.38-.22-.4,1.68-.38,1.72S39,6,39,6s-.4,1.79-.38,1.83.37-.23.38-.22-.4,1.13-.38,1.16.37-.23.38-.22-.4,1.27-.38,1.3.63-.39.64-.37,5.21-2.37,5.28-2.25S46.61,6,46.64,6"/>      </g>    </g>  </g></svg>