<svg xmlns="http://www.w3.org/2000/svg" viewBox="0 0 94.27 24.68"><defs><style>.cls-1{fill:none;stroke:#7f2334;stroke-linecap:round;stroke-linejoin:round;stroke-width:1.13px;}</style></defs><title>アセット 7</title><g id="レイヤー_2" data-name="レイヤー 2"><g id="nav"><path class="cls-1" d="M10,5.63c.1.17,6.63-4,6.72-3.88S12.48,5.88,12.56,6s5.64-3.45,5.72-3.3-4,4.55-3.89,4.69,5.47-3.34,5.55-3.2-5.38,3.32-5.3,3.46,5.47-3.34,5.55-3.2-4.49,5.15-4.41,5.3,5.67-3.46,5.75-3.32-5.48,4.18-5.39,4.33,5.73-3.5,5.81-3.36-5.56,4.93-5.47,5.09,6-3.64,6-3.49-6.14,5.33-6,5.5,6.32-3.87,6.42-3.7-6.58,4.15-6.48,4.32,6.43-3.93,6.53-3.77-6.71,4.19-6.61,4.36,6.55-4,6.65-3.84-7.78,5.69-7.66,5.9,7.53-4.6,7.64-4.41"/><path class="cls-1" d="M4.29,3.59c.06.1,3.9-2.39,4-2.29S2.4,5.7,2.49,5.86,11.2.53,11.33.76,1.11,8.52,1.27,8.8,14.51.7,14.7,1,.63,11.42.85,11.8c.09.15,6-3.65,6.06-3.5S.74,12.36.83,12.52,6.6,9,6.68,9.14,1,14.84,1.1,15s5.46-3.34,5.54-3.2-5.25,4.3-5.16,4.44S6.75,13,6.83,13.17s-5,4.07-5,4.21,5.27-3.22,5.35-3.09-4.14,5.09-4.06,5.23,5.21-3.18,5.28-3.05-4.16,4.29-4.08,4.42,5.33-3.26,5.41-3.12S6.53,22.32,6.6,22.44s5.87-3.58,6-3.44S7.84,23,7.92,23.09c.22.37,14.72-9,14.93-8.62S8,22.8,8.18,23.17s14.41-8.8,14.62-8.44S8.71,23,8.92,23.37s13.54-8.27,13.73-7.93S11.85,23.57,12,23.86s9.36-5.72,9.5-5.49-7.93,5.16-7.81,5.37,6.87-4.2,7-4-5.26,3.53-5.18,3.66,4-2.42,4-2.32"/><path class="cls-1" d="M10.13,5.87s.72-.44.73-.42-.34.34-.34.35.54-.33.55-.32,2.44,1.36,2.47,1.42.34-.21.34-.2l.61,1.21s.33-.2.33-.19.11.85.12.87.32-.2.33-.19.15,1.17.17,1.2.32-.2.33-.19.36,2.58.39,2.64.36-.22.36-.21-.33.61-.32.62.36-.22.36-.21-.32,2-.29,2,.39-.24.4-.23-.45.7-.44.72.39-.24.4-.23-1.43,3-1.39,3,.63-.39.64-.37"/><path class="cls-1" d="M7.48,6.89c0,.06,2.32-1.42,2.36-1.36S6.37,9.85,6.44,10s.4-.24.4-.23-.3,2.74-.26,2.8.35-.22.36-.21-.18,1-.17,1.07.33-.2.34-.19.19,1.69.21,1.72.32-.2.33-.19,1,2.11,1,2.16S9,16.7,9,16.7s1.34,1.56,1.37,1.61.38-.23.39-.22,2.47,1,2.5,1.07,2.21-1.35,2.25-1.3"/><path class="cls-1" d="M8.49,1.34S9.68.62,9.69.65s2.75.18,2.79.24S13,.55,13,.57s2.59.86,2.62.92.44-.27.45-.26,0,.39,0,.4.42-.26.43-.25S18.46,2.95,18.49,3s.35-.21.35-.2l.51.92s.33-.2.34-.19L20.45,5s.32-.2.33-.19.57,1.64.59,1.68.32-.2.33-.19-.08.6-.07.61.32-.2.33-.19-.16.62-.15.63.33-.2.33-.19.41,2.41.44,2.46.33-.2.33-.19-.21,1.36-.19,1.39.35-.22.36-.21-.23,1.49-.21,1.52.35-.22.36-.21-.65,2.92-.61,3,.45-.27.46-.26-1.42,3-1.38,3.06.54-.33.55-.32-2.8,3.43-2.75,3.53,1-.63,1-.6"/><path class="cls-1" d="M4.09,3.39c.06.1,4-2.42,4-2.32s-6,4.45-5.87,4.61S3,5.24,3,5.26,1,8.52,1.06,8.6s.46-.28.46-.27-1,3.22-.92,3.29.39-.24.4-.23-.45.94-.44,1,.37-.23.38-.22S.77,14.81.81,14.87s.36-.22.36-.21,0,1.43,0,1.46.33-.2.34-.2,0,1.3,0,1.33.33-.2.34-.2.84,2.33.87,2.38.34-.21.34-.2L4,20.8s.34-.21.34-.2S6,22.39,6,22.45s.4-.24.4-.23.92.84.93.87.39-.24.4-.23-.19.33-.18.34S8,22.95,8,23l.25.49s.46-.28.46-.27,2.43.8,2.46.86.56-.34.57-.33.78.39.79.4.79-.48.8-.46,2.36-.1,2.39,0,3.82-2.34,3.88-2.24"/><path class="cls-1" d="M35.08,12c.05.09,3.65-2.23,3.71-2.14s-1.69,2-1.66,2.1,1.32-.81,1.34-.78"/><path class="cls-1" d="M25.52,8.53s1.33-.81,1.35-.78-1.85,2.82-1.81,2.9c.13.23,9.19-5.62,9.33-5.39s-7.9,6.7-7.77,6.92,7.77-4.75,7.89-4.55S27.23,12,27.34,12.16s7.76-4.74,7.88-4.55-6.59,6.29-6.47,6.49S38.85,7.93,39,8.18,28.6,15,28.75,15.32s10-6.09,10.11-5.84S28.62,17,28.78,17.23s5.53-3.38,5.61-3.24-5.56,5-5.46,5.17,5.41-3.3,5.49-3.17-5.49,3.55-5.41,3.7,5.39-3.29,5.47-3.16S29.07,20,29.15,20.16,34.49,16.9,34.57,17s-4,4.84-3.92,5,6.35-3.88,6.44-3.72-5.41,4.21-5.33,4.36,6.65-4.06,6.75-3.9-5.39,4.31-5.3,4.46,4.66-2.85,4.72-2.73-2.62,3.18-2.57,3.27,1.35-.82,1.37-.79"/><path class="cls-1" d="M28.87,3.88s1.58-1,1.6-.93-1.76,2.16-1.73,2.22,4.6-2.81,4.67-2.69-4.75,4.69-4.67,4.83,5.56-3.4,5.65-3.26"/><path class="cls-1" d="M30.66,3.09s.91-.56.93-.53,2.14.12,2.16.16.43-.26.43-.25-.17.4-.16.41.35-.21.35-.2-.19,2.75-.15,2.81.41-.25.41-.24-.42,2.25-.39,2.3.41-.25.42-.24,1.56.42,1.58.45.67-.41.68-.4.83.35.84.37.61-.37.62-.36.37,1.54.39,1.57.43-.26.44-.25-.47.41-.47.43.43-.26.44-.25-.52.67-.51.68.43-.26.43-.25-.77,1.76-.74,1.8.47-.29.47-.27"/><path class="cls-1" d="M35.21,12.3s.75-.46.76-.44.68.37.69.39.7-.43.71-.41-.51.39-.5.4.94-.57,1-.55-.61.52-.6.54,1.42-.87,1.44-.83"/><path class="cls-1" d="M34.23,12.35s.81-.49.82-.47-.83.61-.82.63,1.09-.66,1.1-.64-1.14,3.4-1.09,3.48.37-.22.37-.22-.26,1.66-.24,1.69.34-.21.34-.2,0,.93,0,1,.33-.2.33-.19l.78.84s.46-.28.47-.27,1.77,1.77,1.8,1.82.58-.36.59-.34-.9.92-.88.95.58-.36.59-.34-1.81,2.72-1.77,2.8.58-.35.59-.34"/><path class="cls-1" d="M25.33,8.36s1.43-.87,1.45-.84-2.08,3.56-2,3.65.43-.26.44-.25,2,1.41,2,1.46.68-.42.69-.4l.55.66s.43-.26.43-.25-.41,2-.39,2.07.38-.23.39-.22-.39,2.87-.35,2.93.37-.23.38-.22-.21,2.45-.18,2.5.33-.2.33-.19.64,2.26.67,2.31.34-.21.35-.2l.52.91s.35-.21.35-.2,1.46,1.08,1.48,1.12.43-.26.44-.25,2.52,1,2.55,1,1.42-.87,1.45-.83"/><path class="cls-1" d="M26.88,7.91s.73-.45.74-.43l.47.4s.82-.5.83-.48"/><path class="cls-1" d="M28.65,3.69s1.56-1,1.58-.91S28.49,4.92,28.53,5s.38-.23.38-.22-.41,2.3-.38,2.35.38-.23.38-.22"/><path class="cls-1" d="M48,11c.08.14,5.57-3.4,5.65-3.26s-3.26,4.2-3.19,4.32,5.14-3.14,5.21-3-4,4.78-3.94,4.92,5.24-3.2,5.32-3.07-5.28,3.83-5.2,4,5.39-3.3,5.47-3.16-5.49,4.8-5.4,5,5.53-3.38,5.61-3.24-5.71,5.79-5.61,6,5.56-3.4,5.64-3.26-5.74,5.48-5.64,5.66,5.56-3.4,5.64-3.26S53.92,23.18,54,23.31s3.51-2.14,3.56-2.05-1.5,2-1.47,2.05,1.41-.86,1.43-.82-1.25.79-1.23.82,1.18-.72,1.2-.69"/><path class="cls-1" d="M41.91,1.94s1.24-.76,1.25-.72-1.36,1.94-1.33,2S45.4,1,45.45,1.12s-3.69,4.2-3.62,4.32S47.4,2,47.48,2.18,41.73,8,41.83,8.2s5.57-3.4,5.65-3.26-5.74,3.82-5.65,4,5.57-3.4,5.65-3.26-5.75,5.74-5.65,5.92,5.58-3.41,5.66-3.27S41.74,12.87,41.83,13s9.8-6,9.94-5.74-10.1,6.82-9.94,7.08,5.56-3.4,5.64-3.26-5.75,6-5.64,6.15,5.56-3.4,5.64-3.26-5.74,5.15-5.64,5.32,5.56-3.4,5.64-3.26S41.73,22,41.84,22.17s5.56-3.4,5.65-3.26-5.11,4.17-5,4.31,5-3,5-2.9-4.82,2.85-4.75,3,4.68-2.86,4.75-2.74-3.76,2.67-3.71,2.77,3.65-2.23,3.71-2.14-1.31,2.09-1.27,2.14,1.18-.72,1.2-.69"/><path class="cls-1" d="M43.4,1.37s.7-.43.71-.41,1.89.26,1.92.3.63-.39.64-.37-.1.37-.1.38S47,1,47.05,1s.23,2.51.26,2.57.38-.23.38-.22-.41,2.25-.38,2.3.38-.23.38-.22S47.3,7,47.32,7s.38-.23.38-.22-.4,1-.38,1.07.38-.23.38-.22-.34,1.63-.32,1.67S51.12,7,51.18,7.11"/><path class="cls-1" d="M51.48,7.47s.66-.41.67-.39l.42.54s.49-.3.5-.29-.38.32-.37.33.5-.31.51-.29,1.51,1.21,1.54,1.25.41-.25.41-.24-.39.25-.39.26.41-.25.41-.24l1.41,2s.33-.2.33-.19-.2.48-.19.5.33-.2.33-.19,0,1.08,0,1.1.34-.21.35-.2-.12,2.46-.09,2.52.37-.22.37-.21-.38,2.06-.35,2.1.38-.23.38-.22-.41,2.46-.38,2.52.38-.23.38-.22S57.37,19,57.39,19s.38-.23.38-.22-.41,2.15-.38,2.19.38-.23.38-.22-.46,1.67-.43,1.71.43-.26.43-.25"/><path class="cls-1" d="M48.1,11.33s.52-.32.52-.3-.33.34-.33.35.49-.3.5-.29,2,1.61,2,1.67.3-.18.3-.18.3,1.34.32,1.37.32-.19.32-.18-.21,1-.2,1.06.36-.22.37-.21-.29,1.42-.27,1.45.38-.23.38-.22-.42,3-.38,3.08.38-.23.38-.22-.39.64-.38.66.38-.23.38-.22-.41,2-.38,2.06.38-.23.38-.22-.39.67-.38.69.38-.23.38-.22.63,2,.66,2.06.6-.37.61-.35,1.1.36,1.12.38.65-.4.66-.38.72.36.73.38.66-.4.67-.38-.18.38-.17.38,1.3-.79,1.32-.76"/><path class="cls-1" d="M47.31,11.18s.6-.37.61-.35-.65,2.77-.61,2.83.38-.23.39-.22-.42,2.8-.38,2.87.38-.23.38-.22-.4,1.17-.38,1.2.38-.23.38-.22-.41,2-.38,2.07.38-.23.38-.22-.42,2.88-.38,2.95.38-.23.38-.22-.45.83-.44.85.43-.26.44-.25"/><path class="cls-1" d="M41.73,1.79S43.08,1,43.1,1s-1.52,2-1.49,2.09.38-.23.38-.22-.41,2.4-.38,2.45.38-.23.38-.22-.42,2.91-.38,3,.38-.23.38-.22-.4.91-.38.93.38-.23.38-.22-.42,2.81-.38,2.87.38-.23.38-.22-.41,1.65-.38,1.68.38-.23.38-.22-.4,1.53-.38,1.56S42,14,42,14s-.42,3-.38,3.11.38-.23.38-.22-.41,2.23-.38,2.28S42,19,42,19s-.42,3-.38,3.08.38-.23.39-.22,0,1.36,0,1.39.36-.22.37-.21-.23.35-.22.36.45-.27.46-.26l.31.45s.65-.4.66-.38,2.62.32,2.65.38,1.3-.8,1.32-.76"/><path class="cls-1" d="M68.45,10.8c.07.12,4.64-2.84,4.71-2.72s-3.31,3.62-3.25,3.73S74.58,9,74.64,9.08s-5.2,3.93-5.12,4.08,5.73-3.5,5.81-3.35"/><path class="cls-1" d="M62.86,9.55c0,.08,3.3-2,3.34-1.93s-4.87,3.86-4.79,4S68.94,7,69,7.2,60.52,14,60.66,14.28,71.93,7.39,72.1,7.67s-11.47,9-11.28,9.27c.07.12,4.89-3,5-2.87S60.9,17.44,61,17.56s4.69-2.87,4.76-2.75-3.79,4.67-3.71,4.8c.21.36,14.21-8.68,14.42-8.32s-13.81,9-13.61,9.32S76.9,12,77.11,12.37s-13.5,8.67-13.3,9,8-4.89,8.12-4.69-5.58,5.87-5.48,6.05,7.09-4.33,7.19-4.15-4.85,4.67-4.77,4.81,7.29-4.45,7.39-4.27-3.38,4.6-3.31,4.72S74.41,23,74.43,23"/><path class="cls-1" d="M68.5,11.07s.44-.27.44-.26-.27.3-.26.31.38-.23.38-.22,0,2.15,0,2.2,1.4-.85,1.42-.82"/><path class="cls-1" d="M66.55,11.7s1.8-1.1,1.83-1.05-2.85,4-2.79,4.09.36-.22.36-.21-.23,1-.22,1,3.81-2.33,3.87-2.23"/><path class="cls-1" d="M66.57,7.62s.8-.49.81-.47,2.7.22,2.73.27.56-.34.57-.33,2.34,1,2.38,1.07.36-.22.36-.21,0,.41,0,.42.36-.22.36-.21S75.3,9.94,75.33,10s.33-.2.33-.19.32,1,.34,1,.32-.2.33-.19.54,1.57.56,1.61.33-.2.33-.19c.13.22-8,6.37-7.92,6.59,0,0,.54-.33.55-.32l.3.4s.58-.35.58-.34l.29.38s.61-.37.62-.36,4.58-.07,4.64,0,.34-.21.34-.2-1,1.79-1,1.84.58-.36.59-.34S74.73,22,74.76,22s.58-.35.58-.34-1,1.2-1,1.24.57-.35.58-.34"/><path class="cls-1" d="M62.88,9.24c0,.08,3.18-1.94,3.22-1.86s-5,3.92-4.91,4.06.68-.41.69-.4-1.48,3-1.43,3.06.4-.25.41-.24-.35,2.87-.31,2.94.35-.21.35-.2-.24.83-.23.85.33-.2.33-.19.63,2.22.66,2.27.33-.2.33-.19.46,1.16.47,1.19.33-.2.33-.19l.57,1s.35-.22.36-.21,2.14,1.57,2.17,1.63.41-.25.41-.24,1.86.92,1.89,1,.48-.29.49-.28,3.47.74,3.52.82.58-.35.59-.34l.25.4s1.51-.92,1.53-.88"/><path class="cls-1" d="M90,13c0,.08,3.07-1.88,3.12-1.8s-1.38,1.63-1.35,1.67,1.13-.69,1.15-.66"/><path class="cls-1" d="M80.41,8.44s1.24-.76,1.25-.72-1.36,1.94-1.33,2,3.56-2.18,3.62-2.09-3.69,4.2-3.62,4.32S85.9,8.54,86,8.68s-5.75,5.84-5.65,6S93,7,93.14,7.31s-13,7.78-12.8,8.1,13-7.95,13.2-7.62S80.12,17.7,80.33,18.07,93,10.32,93.2,10.64s-13.06,8.55-12.86,8.89c.08.14,5.56-3.4,5.64-3.26s-5.74,4.44-5.64,4.6,5.56-3.4,5.64-3.26-4.9,5.5-4.81,5.67,4.74-2.9,4.81-2.78-1.35,2.75-1.31,2.82,1.22-.75,1.24-.72-1.22.69-1.21.72,1.18-.72,1.2-.69"/><path class="cls-1" d="M81.83,7.87s.7-.43.71-.41.74.33.75.35.7-.43.71-.41-.51.39-.5.4.7-.43.71-.41,1.58,1.17,1.6,1.21.36-.22.36-.21-.37.24-.36.25.36-.22.37-.21-.37,1.28-.36,1.31,3.41-2.08,3.46-2"/><path class="cls-1" d="M90,7.87s1.16-.71,1.18-.68-.71.54-.7.56,1.06-.65,1.08-.62S93.25,9,93.28,9s.42-.26.43-.25-.71,1.91-.69,2,.42-.26.43-.25-.6,1.25-.58,1.28.42-.26.42-.24-.48.51-.47.52.42-.26.42-.24"/><path class="cls-1" d="M90.09,13.14s.92-.56.93-.54.78.43.79.45,1.3-.8,1.32-.76"/><path class="cls-1" d="M86.2,14.94c.05.09,3.69-2.25,3.74-2.16S85.74,16.89,85.81,17s.37-.23.38-.22-.41,2.6-.38,2.66.38-.23.38-.22-.39.6-.38.61.38-.23.38-.22-.47,2.79-.44,2.85.43-.26.44-.25"/><path class="cls-1" d="M80.22,8.29s1.36-.83,1.38-.79-1.52,2-1.49,2.09.38-.23.38-.22-.41,2.4-.38,2.45.38-.23.38-.22-.42,2.91-.38,3,.38-.23.38-.22-.4.91-.38.93.38-.23.38-.22-.42,2.81-.38,2.87.38-.23.38-.22-.41,1.65-.38,1.68.38-.23.38-.22-.4,1.53-.38,1.56.38-.23.38-.22.12,2.74.16,2.8.43-.26.43-.25,2.73.41,2.76.47.66-.4.67-.38l.25.38s1.33-.81,1.35-.78"/></g></g></svg>