<svg xmlns="http://www.w3.org/2000/svg" width="8.11" height="11.14" viewBox="0 0 8.11 11.14">  <defs>    <style>      .a {        fill: none;        stroke: #0098f5;        stroke-linecap: round;        stroke-linejoin: round;        stroke-width: 0.57px;      }    </style>  </defs>  <title>アセット 3</title>  <g>    <path class="a" d="M6,1.09S7.37.26,7.39.3C7.51.5.24,6.15.36,6.35S7.65,1.9,7.76,2.08,1.81,7.36,1.91,7.54,7.67,4,7.76,4.16,3.13,8.36,3.2,8.5,7.69,5.76,7.76,5.87,4.85,9.67,4.91,9.77s2.8-1.71,2.85-1.64-1.43,2.66-1.39,2.72S7.74,10,7.76,10"/>    <path class="a" d="M7.46.33l.07,0s.17,2,.2,2l.09-.05s-.11,2.13-.09,2.18l.09-.05s-.11,1.85-.09,1.89l.09,0s-.11,2.06-.08,2.1l.08,0s-.11,2.25-.08,2.3l.08,0"/>    <path class="a" d="M6,1s.59-.36.6-.35C6.68.87.18,6.13.28,6.32l.06,0S1.75,7.49,1.78,7.53l.08,0s1.19,1,1.21,1l.08,0s1.6,1.27,1.63,1.32l.08,0s1.35,1.09,1.37,1.13l.08,0"/>  </g></svg>