<svg xmlns="http://www.w3.org/2000/svg" viewBox="0 0 143.63 24.38"><defs><style>.cls-1{fill:none;stroke:#7f2334;stroke-linecap:round;stroke-linejoin:round;stroke-width:1.13px;}</style></defs><title>アセット 6</title><g id="レイヤー_2" data-name="レイヤー 2"><g id="nav"><path class="cls-1" d="M7.15,15.28c.17.29,11.28-6.89,11.44-6.61S7,15,7.18,15.31s11.23-6.86,11.4-6.58-10.14,7.66-10,7.94S17.86,11,18,11.24s-7.86,6.46-7.73,6.68,3.49-2.14,3.55-2"/><path class="cls-1" d="M7.5,5.46c.09.16,6.14-3.75,6.23-3.6S9.93,6.26,10,6.39,15.73,2.89,15.82,3,11.23,7.46,11.31,7.6,17,4.12,17.09,4.26,11.57,8.88,11.66,9s6.1-3.73,6.19-3.58-8.14,5.77-8,6,8.32-5.09,8.45-4.88"/><path class="cls-1" d="M.89,1.66S2.11.92,2.13.95.78,3.39.82,3.45,5.3.71,5.37.83.74,5.08.82,5.21,8.32.62,8.43.81.7,6.06.82,6.27,10,.68,10.09.91.68,6.59.82,6.83s9.87-6,10-5.78S.67,7.18.82,7.43,11.47.92,11.63,1.19.64,9.57.82,9.87s5.93-3.62,6-3.47-6.11,4.35-6,4.51,5.94-3.63,6-3.48S.71,13,.82,13.15s5.95-3.64,6-3.48-6.14,6.2-6,6.39,6-3.64,6-3.49-6.16,6.08-6,6.27,5.93-3.62,6-3.47S.72,20,.82,20.12s5.93-3.62,6-3.47-5.86,5.81-5.76,6,5.68-3.47,5.76-3.33-5.68,3.34-5.6,3.48,5.52-3.37,5.6-3.23-2,3.33-2,3.42,1.93-1.18,2-1.13S5.56,22.94,5.58,23s1.16-.71,1.18-.68"/><path class="cls-1" d="M7.61,5.75s.5-.31.51-.29S10.2,6.75,10.23,6.8s.34-.21.35-.2-.31.22-.31.23.34-.2.34-.2l.56,1.28s.33-.2.34-.2-.09,1-.08,1.07.34-.21.35-.2S11,9.8,11.06,9.83s.63-.39.64-.37-2,1.72-2,1.78,1.38-.84,1.4-.81"/><path class="cls-1" d="M6.69,5.68s.67-.41.68-.39S6.67,6.95,6.69,7s.39-.24.39-.23-.42,2.75-.39,2.81.38-.23.39-.22-.4.64-.39.66.38-.23.39-.22-.42,3-.38,3.06.38-.23.38-.22-.38.76-.37.78,3.15-1.93,3.2-1.85"/><path class="cls-1" d="M2.28,1.07S3,.65,3,.66L3.54,1s.7-.43.71-.41S7.79.85,7.84.93s.62-.38.62-.36,3.41.72,3.46.8.46-.28.47-.27l.42.55s.42-.26.43-.25,1.67,1.16,1.7,1.21.38-.23.38-.22l.33.7s.35-.21.35-.2-.26.28-.25.28.35-.21.35-.2l.45.93s.33-.2.33-.19.38,1.06.39,1.09.33-.2.33-.19.56,2,.58,2,.32-.2.33-.19-.2,1-.18,1,.35-.21.35-.2-.32.46-.32.47.35-.21.35-.2-.31.54-.3.56.35-.21.35-.2-.64,2.51-.61,2.57.47-.29.48-.28-3,3.84-3,3.95,1.16-.71,1.17-.68-3.19,2.27-3.14,2.35,2-1.21,2-1.16"/><path class="cls-1" d="M7.29,15.71s.34-.21.34-.2-.31.23-.31.23.34-.21.34-.2l1,1.57s.34-.21.34-.2,1.24,1.21,1.26,1.25,3.56-2.18,3.61-2.09"/><path class="cls-1" d="M6.67,15.35s.49-.3.5-.29-.52,2.6-.49,2.66.39-.24.4-.23-.42,2.14-.39,2.19.39-.24.39-.23-.41,1.82-.38,1.86.38-.23.39-.22-.45,1.06-.44,1.09.43-.26.44-.25"/><path class="cls-1" d="M.68,1.49S2,.67,2.05.7.53,3.24.57,3.31s.38-.23.38-.22S.54,5,.57,5.07s.38-.23.38-.22S.55,6.09.57,6.12s.38-.23.38-.22-.39.77-.38.79.38-.23.38-.22-.39.81-.38.83.38-.23.38-.22S.53,9.66.57,9.72.94,9.49,1,9.5s-.4,1.23-.38,1.26.38-.23.38-.22S.54,13,.57,13s.38-.23.38-.22S.53,15.84.57,15.91s.38-.23.38-.22-.42,2.93-.38,3,.38-.23.38-.22S.55,19.94.57,20s.38-.23.39-.22S.68,22.5.71,22.56s.36-.22.37-.21-.26.39-.25.4.34-.21.34-.2,2.73.63,2.76.69.66-.4.66-.38,1,.36,1,.38,1.3-.8,1.32-.76"/><path class="cls-1" d="M31.16,12.65c0,.08,3.07-1.88,3.12-1.8s-3,1.69-3,1.77,2.91-1.78,2.95-1.7-1.37,1.57-1.34,1.61,1.13-.69,1.15-.66"/><path class="cls-1" d="M21.57,8.14s1.24-.76,1.25-.72-1.37,2.46-1.33,2.52S26,7.17,26.08,7.28s-4.67,4.27-4.59,4.41,5.57-3.4,5.65-3.26-5.74,4.16-5.65,4.31S27.2,9.26,27.28,9.4s-5.88,3.76-5.79,3.91S32,6.91,32.12,7.17s-10.79,6.47-10.63,6.74S33.37,6.66,33.54,7,21.3,16,21.49,16.35,34.4,8.46,34.59,8.78,21.29,17,21.49,17.39,34.23,9.6,34.42,9.92s-13.13,9.36-12.93,9.71c.08.14,5.56-3.4,5.64-3.26s-5.63,5.92-5.53,6.1,5.45-3.33,5.53-3.19S25.43,22.92,25.48,23s1.63-1,1.65-1-1.29.92-1.27,1,1.18-.72,1.2-.69"/><path class="cls-1" d="M23,7.57s.7-.43.71-.41,1.71.27,1.73.31.7-.43.71-.41.81,2.05.84,2.1.38-.23.38-.22-.38.48-.37.5,3.4-2.08,3.45-2"/><path class="cls-1" d="M31.2,7.57s1.17-.71,1.18-.68.67.27.68.29.81-.5.82-.48.51,2,.54,2.07.42-.26.43-.25-.92,3.14-.88,3.21.42-.26.42-.24"/><path class="cls-1" d="M31.24,12.84s.92-.56.93-.54-.79.49-.78.51.86-.52.87-.5.69.43.7.44,1.3-.8,1.32-.76"/><path class="cls-1" d="M27.36,14.64c.05.09,3.69-2.25,3.74-2.16S26.89,17.11,27,17.24s.37-.23.38-.22-.41,2.14-.38,2.18.38-.23.38-.22S27,20.8,27,20.84s.38-.23.38-.22-.46,1.52-.44,1.56.43-.26.44-.25"/><path class="cls-1" d="M21.38,8s1.36-.83,1.38-.79-1.53,2.55-1.49,2.61.38-.23.38-.22-.41,1.94-.38,2,.38-.23.38-.22-.4,1.25-.38,1.27.38-.23.38-.22-.39.77-.38.79.38-.23.38-.22-.39.81-.38.83.38-.23.38-.22-.42,2.59-.38,2.65.38-.23.38-.22-.4,1.23-.38,1.26.38-.23.38-.22-.42,2.41-.38,2.47.38-.23.38-.22-.36,3-.32,3.09.36-.22.36-.21,2.92,1,3,1.07.66-.4.66-.38l.6.38s1.3-.8,1.32-.76"/><path class="cls-1" d="M44.09,10.83c.07.13,5.09-3.11,5.17-3s-3,4-2.94,4.07S51,9,51.12,9.15s-3.83,4-3.76,4.13,4.8-2.93,4.87-2.81-4.4,4-4.33,4.13,4.93-3,5-2.89-4.67,5.1-4.58,5.25,5.25-3.21,5.33-3.08-5.9,4.65-5.8,4.81,5.85-3.58,5.94-3.43"/><path class="cls-1" d="M39.05,9.37c.05.09,3.5-2.14,3.55-2S37.17,12,37.26,12.16,46,6.79,46.17,7s-9.5,6.91-9.36,7.16,11.39-7,11.56-6.67S36.52,15,36.7,15.29c.08.14,5.57-3.4,5.65-3.26s-5.7,3.66-5.62,3.81,5.37-3.28,5.45-3.14-5.45,3.56-5.37,3.7,5.23-3.2,5.31-3.06-4.84,5-4.75,5.17,5-3.06,5.08-2.93-4.79,3.63-4.72,3.76,5-3,5-2.91-4,4.38-3.93,4.51,4.92-3,5-2.88S41,22.47,41,22.58s5.21-3.18,5.28-3-2,3.82-2,3.92,9-5.48,9.1-5.25-7,5.11-6.94,5.3,6-3.69,6.13-3.54-4.42,3.15-4.35,3.26,3.26-2,3.31-1.91"/><path class="cls-1" d="M44.15,11.1s.5-.3.51-.29l.32.5s.39-.24.39-.23,1.25,1.6,1.27,1.64.38-.23.38-.22.69,2.33.72,2.38.33-.2.33-.19-.19.88-.18.9.38-.23.39-.22-.35,2.32-.32,2.37.43-.26.44-.25-.73,1-.71,1,.6-.37.61-.35"/><path class="cls-1" d="M42.41,11.6s1.58-1,1.6-.92-1.66,1-1.63,1,1.68-1,1.71-1S42,14,42,14s.35-.21.35-.2.06,2.12.08,2.17.32-.2.32-.19.32,1.47.34,1.5.31-.19.31-.18,0,.65,0,.66.3-.19.31-.18-.09.46-.09.47.32-.2.33-.19,1.46,1.49,1.49,1.54.42-.25.42-.24l.23.43s.77-.47.78-.45-.51.5-.5.51S48,18.77,48,18.81"/><path class="cls-1" d="M42.94,7.33s.89-.54.9-.52,3.3.37,3.34.45.49-.3.49-.28,1.6,1,1.62,1,.36-.22.37-.21l.91,1.11s.36-.22.37-.21l1.2,1.91s.33-.2.33-.19.51,1.77.53,1.81.33-.2.34-.19.23,2.69.26,2.75.35-.22.36-.21-.35,1.87-.33,1.91.39-.24.39-.23S52.38,20,52.43,20s.65-.39.65-.38-1.6,1.5-1.57,1.55.94-.58,1-.55"/><path class="cls-1" d="M38.91,9.16C39,9.25,42.44,7,42.49,7.09S37,11.81,37.08,12s.54-.33.55-.32S36.55,14,36.58,14s.4-.25.41-.24-.57,1.34-.55,1.37.4-.24.41-.23-.39.76-.38.78.38-.23.39-.22-.34.77-.33.79.38-.23.39-.22.11,2.3.14,2.35.3-.18.3-.18,0,1,.06,1l.24-.14s.77,1.75.79,1.79.32-.2.33-.19,1.72,1.84,1.75,1.89.42-.26.42-.24,2.52,1.24,2.56,1.3.57-.35.58-.33,1.35.47,1.37.51.69-.42.7-.4,2.29,0,2.32,0,3.31-2,3.36-1.94"/><path class="cls-1" d="M66.6,11.07c.08.14,5.53-3.38,5.61-3.24s-5.7,3.16-5.61,3.3,5.53-3.38,5.61-3.24-5.7,5.24-5.61,5.41,5.52-3.38,5.61-3.24-5.69,5.28-5.6,5.45,5.52-3.37,5.6-3.23S66.54,17,66.63,17.2s5.51-3.37,5.59-3.23-5.67,3.55-5.59,3.7,5.51-3.37,5.59-3.23"/><path class="cls-1" d="M59,9.23c.05.09,3.5-2.14,3.55-2.05s-6.22,5.72-6.12,5.91,8-4.88,8.1-4.68-8.45,6.53-8.31,6.76S65.85,9.29,66,9.53s-9.68,6.88-9.53,7.14,7.56-4.62,7.67-4.43-6.84,6.28-6.72,6.49,5.11-3.12,5.19-3-4.14,4.33-4.06,4.46,5.14-3.14,5.22-3-3.19,4.58-3.12,4.7c.17.29,11.43-7,11.59-6.69s-10.08,7.18-9.93,7.45,9.79-6,9.93-5.73-6,6.11-5.92,6.29,5.83-3.56,5.92-3.42S68.8,23,68.86,23.12s3.31-2,3.36-1.94S70.88,23,70.91,23s1.21-.74,1.23-.71"/><path class="cls-1" d="M66.7,1.66S67.93.91,67.95.94,66.6,3.39,66.63,3.45,71.14.7,71.21.81s-4.65,4.26-4.58,4.4S72.14,1.85,72.22,2s-5.67,4.13-5.59,4.28S72.14,2.9,72.22,3s-5.67,3.65-5.59,3.79,5.51-3.37,5.59-3.23-5.67,3.68-5.59,3.83,5.51-3.37,5.59-3.23-5.69,5.18-5.59,5.35,5.52-3.37,5.6-3.23"/><path class="cls-1" d="M66.38,11.42s.38-.23.38-.22-.42,2.72-.38,2.78.38-.23.39-.22-.39.27-.39.28.38-.23.39-.22-.41,1.78-.39,1.82.38-.23.39-.22-.41,1.22-.39,1.25.39-.24.39-.23-.41,1-.39,1.05.39-.24.39-.23-.4.24-.39.25.39-.24.39-.23"/><path class="cls-1" d="M63.43,12.68c0,.08,3.26-2,3.31-1.91s-4.5,4.35-4.42,4.49.34-.21.35-.2,1,2.17,1,2.22.37-.23.38-.22l.53.71s.41-.25.42-.24,1.1.63,1.12.66.66-.41.67-.39"/><path class="cls-1" d="M68.17,1.07s.7-.43.71-.41,1.71.27,1.73.31.68-.42.69-.4.75,2.09.78,2.14.38-.23.39-.22-.39.64-.39.66.38-.23.39-.22S72,5.91,72.08,6s.38-.23.39-.22-.4,1-.38,1,.38-.23.38-.22-.4,1.54-.38,1.58.38-.23.38-.22-.4,1-.38,1,.38-.23.38-.22-.41,2-.38,2,.38-.23.38-.22-.42,2.9-.38,3,.38-.23.38-.22-.41,2.39-.38,2.44.38-.23.38-.22-.4,1-.38,1,.38-.23.38-.22-.4,1.64-.38,1.68.38-.23.38-.22-.42,2.55-.38,2.61.38-.23.38-.22-.47,2-.44,2.08.43-.27.44-.25"/><path class="cls-1" d="M58.81,9c.05.09,3.58-2.19,3.63-2.1s-5.09,3.45-5,3.58,1-.61,1-.59S56,13.63,56,13.73s.44-.27.44-.26-.31,2.89-.27,3,.34-.21.35-.2-.21.89-.2.91.32-.2.32-.19.48,1.85.51,1.89.32-.2.33-.19.1.8.11.82.33-.2.33-.19-.26.27-.25.28.33-.2.33-.19.35,1,.36,1,.33-.2.33-.19l.51,1s.35-.22.36-.21,1.51,1.43,1.53,1.47.41-.25.42-.24l.52.61s.42-.25.42-.24-.13.35-.12.36.43-.27.44-.25,0,.38,0,.38.49-.3.5-.29,2.66.6,2.7.66.62-.38.63-.36,3.39.17,3.43.24.7-.43.71-.41l.22.38s1.34-.82,1.36-.78"/><path class="cls-1" d="M62.54,7.32S63,7,63,7.06s-.41.28-.4.29.45-.27.46-.26,1.31,1.36,1.33,1.4.35-.21.36-.21S66,9.72,66,9.76s.35-.21.36-.2-.11.39-.11.4.51-.31.52-.3"/><path class="cls-1" d="M66.5,1.49S67.85.66,67.87.7s-1.53,2.55-1.49,2.61.38-.23.39-.22-.41,1.94-.39,2,.39-.24.39-.23-.41,1.25-.39,1.28.39-.24.39-.23-.41.77-.39.79.39-.24.4-.23-.41.81-.4.83.39-.24.4-.23-.43,2.13-.4,2.18.4-.24.4-.23"/><path class="cls-1" d="M85.61,20.32c.08.14,5.58-3.41,5.66-3.27s-5.74,3.18-5.66,3.33,5.58-3.41,5.66-3.27-5.62,5.2-5.53,5.36,5.45-3.33,5.53-3.19S88.59,22.91,88.65,23s2.58-1.58,2.62-1.51S90,23,90,23s1.18-.72,1.2-.69"/><path class="cls-1" d="M85.7,8.14s1.23-.75,1.25-.72-1.37,3.07-1.33,3.14,5.21-3.18,5.28-3-5.37,4.86-5.28,5,5.56-3.4,5.64-3.26S85.53,14,85.62,14.16s5.56-3.4,5.64-3.26-5.75,5.69-5.64,5.86,5.56-3.4,5.64-3.26-5.73,4.06-5.64,4.21,5.56-3.4,5.64-3.26"/><path class="cls-1" d="M75.92,8.14s1.24-.76,1.25-.72S75.8,9.87,75.84,9.94s4.53-2.77,4.59-2.65-4.67,4.27-4.59,4.41,5.56-3.4,5.64-3.26-5.72,4.15-5.63,4.3,5.55-3.39,5.63-3.25-5.7,3.66-5.61,3.8,5.53-3.38,5.61-3.24-5.67,3.68-5.59,3.83,5.51-3.37,5.59-3.23S76,16,76.08,16.21s5.33-3.26,5.41-3.12S76.14,17,76.22,17.17s5.24-3.2,5.32-3.07-4.86,4.85-4.77,5,5.16-3.16,5.24-3-4,5-3.92,5.17,5.72-3.49,5.8-3.35-3.91,4.85-3.83,5,11-6.75,11.21-6.47S80.84,23,81,23.25c0,.06,2.25-1.37,2.28-1.32"/><path class="cls-1" d="M77.41,7.57s.7-.43.71-.41,3,.71,3.08.78.38-.23.38-.22-.37.26-.36.27.38-.23.39-.22-.31,1.73-.29,1.77.38-.23.38-.22-.4,1.22-.38,1.25.38-.23.38-.22-.4,1-.38,1,.38-.23.38-.22-.39,2.44-.36,2.5.38-.23.38-.22-.1,2.17-.08,2.22.36-.22.36-.21-.32.32-.31.33.35-.21.35-.2l1,2.07s.38-.23.38-.22,1.57.81,1.59.85.72-.44.73-.42"/><path class="cls-1" d="M85.52,8s1.35-.82,1.37-.79S85.36,9.92,85.4,10s.38-.23.38-.22-.42,2.95-.38,3,.38-.23.39-.22-.4,1.21-.39,1.24.38-.23.39-.22-.41,2.11-.39,2.15.38-.23.39-.22-.42,2-.39,2.05.39-.24.39-.23"/><path class="cls-1" d="M87.08,7.57s.7-.43.72-.41,1.71.27,1.73.31.7-.43.71-.41.83,2,.86,2.09.38-.23.39-.22-.39.64-.39.66.38-.23.39-.22-.42,3-.38,3.06.38-.23.38-.22-.4,1-.38,1,.38-.23.38-.22-.4,1.54-.38,1.58.38-.23.38-.22-.4,1-.38,1,.38-.23.38-.22-.41,2-.38,2,.38-.23.38-.22-.42,2.9-.38,3,.38-.23.38-.22-.46,2.41-.43,2.47.43-.26.43-.25"/><path class="cls-1" d="M85.4,20.75s.38-.23.38-.22-.39.88-.38.9.38-.23.38-.22.66,1.94.69,2,.59-.36.6-.35,2.94.32,3,.38,1.34-.82,1.35-.78"/><path class="cls-1" d="M84.27,20.86S85.7,20,85.72,20,84,21,84.06,21s1.66-1,1.69-1-2.67,1.71-2.63,1.77S85,20.68,85,20.73"/><path class="cls-1" d="M75.74,8s1.35-.83,1.37-.79-1.53,2.55-1.49,2.61.38-.23.38-.22-.41,1.94-.38,2,.38-.23.38-.22-.39,1.24-.37,1.27.37-.23.37-.22-.37.75-.35.77S76,12.95,76,13s-.36.79-.35.81.37-.22.37-.22-.24,2.49-.2,2.55.35-.22.36-.21S76,17,76,17.06s.35-.21.36-.21.14,2.1.16,2.15.34-.21.34-.2.87,2.33.9,2.38.34-.21.35-.2,1.54,1.82,1.57,1.87.36-.22.37-.21l.8.83s1-.62,1-.59-.91.61-.89.63,2.43-1.49,2.47-1.42"/><path class="cls-1" d="M101.81,11.24c.08.14,5.67-3.46,5.75-3.32s-3.41,4.19-3.34,4.31,5.42-3.31,5.5-3.18-4.13,4.18-4.05,4.31,3.71-2.27,3.77-2.17-3.07,2.57-3,2.66,1.44-.88,1.46-.84"/><path class="cls-1" d="M96.5,9.28c.05.09,3.42-2.09,3.47-2s-5.37,4.64-5.28,4.8,8.73-5.33,8.86-5.11-9.47,6.89-9.32,7.14,11.49-7,11.66-6.73S94,14.87,94.19,15.18s12.68-7.75,12.87-7.43-13,7.63-12.8,8c.08.15,5.79-3.54,5.88-3.39s-5.89,3.8-5.81,4,5.52-3.37,5.6-3.23-5,5.13-4.95,5.29,5.12-3.13,5.2-3S95.34,19,95.41,19.11s5.21-3.18,5.29-3.05-4,4.41-4,4.54,5.59-3.42,5.68-3.28S99.09,22,99.16,22.1,105.9,18,106,18.15s-3.86,4.82-3.78,5,7.69-4.7,7.8-4.5-6.14,4.62-6,4.79,5.13-3.13,5.2-3-2.68,3.12-2.63,3.21,1.51-.92,1.53-.88"/><path class="cls-1" d="M100.3,7.32s.86-.53.87-.5.61.31.62.33.82-.5.83-.48,2.8.68,2.83.74.44-.27.45-.26,2.42,1.32,2.46,1.38.38-.24.39-.23l.34.6s.39-.24.39-.23,0,2.13,0,2.18.87-.53.88-.51-2.43,2.2-2.39,2.27,1-.61,1-.58-1.26.82-1.24.85,1-.61,1-.58-1.05.59-1,.62,1-.61,1-.58"/><path class="cls-1" d="M101.86,11.47s.47-.29.47-.27-.41.28-.4.29.46-.28.47-.27,1.68,1.14,1.7,1.19.36-.22.37-.21,1.23,1.45,1.26,1.49.35-.21.36-.21l.31.58s1.67-1,1.69-1"/><path class="cls-1" d="M100.13,12s1.61-1,1.63-.94-2,3.42-2,3.51.34-.21.34-.2.37,1.7.4,1.74.32-.2.33-.19l.82,1.16s.35-.21.36-.21,2.34,1.18,2.38,1.23.48-.29.49-.28,2.84.39,2.87.45.84-.51.85-.49.28,2.66.31,2.72.57-.35.58-.34-1.61,2.36-1.57,2.42.57-.35.58-.34"/><path class="cls-1" d="M96.19,9.22C96.25,9.31,99.9,7,100,7s-5.5,4.72-5.41,4.87.52-.32.53-.3S94,13.91,94,14s.41-.25.41-.24S93.94,15,94,15.07s.35-.21.36-.21-.3.72-.29.73.35-.21.36-.21-.3.75-.29.77.35-.21.35-.2.23,2.23.26,2.28.31-.19.31-.18.08,1,.1,1,.31-.19.31-.18l.94,1.7s.34-.21.35-.2,2,1.7,2,1.75.35-.21.35-.2,2.54,1.22,2.58,1.29.53-.32.54-.31,1.13.6,1.15.63.55-.33.56-.32,2.69.55,2.73.61,1.55-.95,1.58-.91"/><path class="cls-1" d="M122.55,11.74c.05.09,3.65-2.23,3.7-2.14s-3.65,2-3.6,2.14,3.54-2.16,3.59-2.07-1.68,2-1.65,2,1.32-.81,1.34-.78"/><path class="cls-1" d="M113,8.22s1.33-.81,1.35-.78-2,3.39-1.91,3.48,9.3-5.68,9.43-5.45-7.8,6.18-7.67,6.4,7.77-4.75,7.88-4.55-6,4.85-5.86,5,8.66-5.29,8.79-5.07-8.92,7.42-8.77,7.67,10-6.1,10.12-5.85S116.1,16.76,116.26,17s5.52-3.38,5.61-3.24-5.38,5.77-5.28,5.95,5.36-3.27,5.44-3.14-4.79,4.3-4.71,4.44,5.67-3.46,5.75-3.32-3.44,4.69-3.37,4.82,6.22-3.8,6.31-3.64-4.87,4-4.79,4.16,3.84-2.35,3.9-2.25-2.3,2.56-2.26,2.64,1.35-.82,1.37-.79"/><path class="cls-1" d="M116.34,3.58s1.58-1,1.6-.93-1.77,2.68-1.73,2.75,5.21-3.18,5.29-3.05S116.13,6.86,116.22,7s5.56-3.4,5.65-3.26"/><path class="cls-1" d="M118.13,2.79s.92-.56.93-.54,2.49.42,2.52.48.38-.23.38-.22-.3,2.88-.26,2.94.41-.25.42-.24-.43,1.23-.41,1.25.42-.26.43-.25,1.17,1.2,1.19,1.24.68-.41.69-.4,2.27.88,2.3.94.39-.24.39-.23S126,9.94,126,10s.43-.26.43-.25-.63,1-.61,1.06.47-.29.47-.27"/><path class="cls-1" d="M122.68,12s.75-.46.76-.44,1.23.34,1.25.37,1.42-.87,1.44-.83"/><path class="cls-1" d="M121.7,12s.81-.49.82-.47-.84,1.13-.82,1.16.38-.23.38-.22-.4,2.54-.37,2.59.37-.22.37-.22.25,2.58.28,2.63.37-.22.37-.21l.36.59s.46-.28.46-.27,2.23.83,2.26.89.35-.22.36-.21-.68,1.24-.67,1.27.58-.36.59-.34-.69.51-.68.53.58-.36.59-.34-1.42,1.94-1.39,2,.58-.36.59-.34-1.15,1.42-1.13,1.46.58-.35.59-.34"/><path class="cls-1" d="M112.8,8.06s1.43-.87,1.45-.84-1.5.88-1.48.91,1.57-1,1.59-.92-2.14,3.29-2.09,3.38.43-.26.44-.25.75,1.72.78,1.77.68-.41.69-.4,1.75.64,1.77.68.43-.26.43-.25-.43.9-.42.92.41-.25.42-.24-.41.64-.4.65.4-.24.4-.23-.4,2.56-.37,2.61.37-.23.38-.22-.38.76-.37.78.37-.23.38-.22-.21,2.86-.17,2.92.33-.2.33-.19.48,2.15.51,2.2.34-.21.34-.2l.4.81s.35-.21.35-.2,1.42,1.19,1.44,1.23.41-.25.41-.24,1,.7,1,.73.44-.27.45-.26,1.41.63,1.43.67,1.42-.87,1.44-.83"/><path class="cls-1" d="M114.35,7.61s.73-.45.74-.43l.47.4s.82-.5.83-.48"/><path class="cls-1" d="M116.12,3.38s1.56-1,1.58-.91S116,5.14,116,5.21s.38-.23.38-.22S116,6.77,116,6.81s.38-.23.38-.22"/><path class="cls-1" d="M128.71,18.4s1.05-.64,1.07-.62-1.13.67-1.11.7,1.17-.71,1.18-.68-1.56,3-1.52,3,4.19-2.56,4.25-2.45-4.09,4.4-4,4.53,7.39-4.51,7.49-4.33-5.38,4.6-5.29,4.75,11.48-7,11.64-6.72-10.8,6.55-10.65,6.82,10.73-6.56,10.88-6.28-10.38,6.07-10.23,6.33,10.18-6.22,10.32-6-6.4,5.85-6.29,6,6.1-3.73,6.19-3.57-5.07,3.32-5,3.45,4.6-2.81,4.67-2.7-3.39,2.33-3.34,2.42,2.9-1.77,2.94-1.7"/><path class="cls-1" d="M135.94,11.49c.09.16,6.22-3.8,6.31-3.65s-3,3.94-2.9,4.05,2.49-1.52,2.52-1.46-1.41,1.7-1.38,1.75,1.07-.65,1.09-.63"/><path class="cls-1" d="M129.21,9.27c0,.08,3.24-2,3.29-1.9s-4.19,4-4.12,4.13,7.9-4.83,8-4.63-8.06,6.12-7.93,6.34S139,6.74,139.2,7s-10.5,6.76-10.35,7,11.62-7.1,11.79-6.81S129,14.15,129.13,14.44s12.09-7.39,12.27-7.08-12.05,7.16-11.88,7.46S141.79,7.32,142,7.63s-10.55,8.13-10.38,8.42c.07.13,5-3.07,5.1-2.94s-4.1,3.25-4,3.37,5.08-3.11,5.16-3-2.75,3.7-2.69,3.8,4.85-3,4.93-2.84-3.45,3.44-3.39,3.55,4.62-2.82,4.69-2.71"/><path class="cls-1" d="M132.65,7.51s1-.62,1-.59,3.1.05,3.14.12.62-.38.63-.36,3.45.7,3.5.77.51-.31.51-.3l.55.7s.35-.21.35-.2-.54,2.18-.51,2.23.46-.28.47-.27-.91,1.81-.88,1.85.46-.28.47-.27"/><path class="cls-1" d="M136,11.7s.64-.39.64-.37,1.4.46,1.41.49.49-.3.5-.29,1.93.84,2,.89,1.21-.74,1.23-.71"/><path class="cls-1" d="M134.51,12.16s1.4-.85,1.42-.82-1.09,1.27-1.07,1.3.39-.24.4-.23,2.14,1.07,2.17,1.12.42-.26.43-.25,2.32,1.38,2.35,1.44.37-.23.37-.22l.28.63s.34-.21.35-.2l1,1.62s.32-.2.33-.19,0,.86,0,.88.35-.21.36-.21-.34.32-.34.33.35-.21.36-.2-.2,1.28-.19,1.3.35-.21.35-.2-.6,1.61-.58,1.65.44-.27.45-.26-1.21,1.63-1.19,1.67.72-.44.73-.42"/><path class="cls-1" d="M128.52,18.26s1.19-.73,1.21-.7-1.25.74-1.23.77,1.31-.8,1.33-.77-1.73,3.07-1.69,3.15.42-.25.42-.24-.42,2.39-.39,2.44.33-.2.33-.19,1.58.74,1.6.78.55-.33.56-.32l.43.43s.55-.34.56-.32.06.38.06.39.58-.36.59-.34,3.29.41,3.33.48.75-.46.76-.44l.32.38s.78-.48.79-.46,1.54.05,1.56.09,3-1.83,3-1.75"/><path class="cls-1" d="M129.81,18s.48-.29.48-.28,2.5.86,2.53.92.51-.31.52-.3,2.31.45,2.34.5,1.2-.73,1.22-.7"/><path class="cls-1" d="M129.11,9.07c0,.08,3.18-1.94,3.22-1.86s-4.23,4-4.15,4.15.43-.26.44-.25-.41,1.94-.38,2,.34-.21.34-.2,0,1,0,1.06.32-.19.32-.19-.11.61-.1.62.32-.19.32-.18,0,.56.05.57.34-.21.34-.2,1.56,1.47,1.59,1.51.41-.25.41-.24l.64.67s.42-.25.42-.24,2,1,2,1.08.44-.27.44-.26,1.29.82,1.31.85.36-.22.37-.21"/></g></g></svg>