<svg xmlns="http://www.w3.org/2000/svg" width="155.15" height="20.25" viewBox="0 0 155.15 20.25">  <defs>    <style>      .a {        fill: #ff0;      }    </style>  </defs>  <title>アセット 2</title>  <g>    <g>      <path class="a" d="M15.7,18.19h-.07a.27.27,0,0,1-.17-.13c-.08-.14-.1-.17.28-.66-.74.44-.78.43-.89.4a.27.27,0,0,1-.17-.13c-.09-.15-.09-.15.51-1.18l.23-.4-.17.1c-1.12.69-1.13.68-1.27.65a.28.28,0,0,1-.17-.13c-.07-.13-.1-.2.12-.45-.39.2-.42.14-.51,0s-.11-.18.68-1.49c-1.07.67-1.16.71-1.32.67a.29.29,0,0,1-.17-.13c-.08-.14-.08-.14.37-1.12l.27-.6c-1.33.81-1.38.8-1.51.77a.28.28,0,0,1-.17-.13c-.08-.13-.08-.13.39-1.28l.2-.49-.44.27c-.94.57-.94.57-1.07.54a.27.27,0,0,1-.17-.13c-.09-.17-.09-.17.43-.8l.06-.07c-1,.56-1,.53-1.09.32a.27.27,0,0,1,.09-.37l.05,0,1-.61C12,11,12,11,12.11,11a.27.27,0,0,1,.17.13c.08.15.1.18-.42.82.7-.42.72-.42.85-.39a.27.27,0,0,1,.17.13c.08.13.08.13-.44,1.42l-.15.38,1.12-.68c.33-.2.33-.2.44-.17a.27.27,0,0,1,.17.13c.09.16.09.16-.57,1.61l-.07.16.47-.3c.86-.54.89-.56,1-.52a.28.28,0,0,1,.17.13c.09.16.09.16-.49,1.13l-.24.41.49-.29c.83-.48.83-.48.94-.45a.27.27,0,0,1,.16.13c.09.15.09.2-.18.46.3-.17.33-.16.43-.14a.28.28,0,0,1,.17.13c.09.16.09.16-.68,1.51l0,.09.65-.39c.51-.31.61-.37.76-.14s.1.18-.4.84h0l-.15.52.08-.26.14.23C16,18.1,15.79,18.19,15.7,18.19Z"/>      <path class="a" d="M2.45,18.19H2.39a.28.28,0,0,1-.17-.13c-.2-.34-.08-.52,4.82-4,.83-.59,1.75-1.25,2.53-1.82-.9.55-2,1.24-2.93,1.86-4.07,2.61-5.41,3.4-5.81,3.3a.38.38,0,0,1-.21-.15C.48,17,.48,17,2,16.07c.93-.57,2.6-1.6,4.31-2.67-.3.14-.42.15-.51.13a.31.31,0,0,1-.18-.14c-.16-.28-.17-.29,4.54-3.86-.66.4-.67.4-.78.37a.27.27,0,0,1-.17-.13c-.06-.11-.09-.16.12-.37h0c.2-.2.59-.54,1.35-1.17l1.94-1.65L11.95,7c-.75.47-.75.47-.87.44a.27.27,0,0,1-.17-.13c-.12-.21-.13-.3.94-1.12a.21.21,0,0,1-.14,0A.27.27,0,0,1,11.54,6c-.13-.22-.13-.22,1.22-1.52L13,4.24c-1.46.89-1.5.88-1.65.85A.28.28,0,0,1,11.23,5c-.09-.16-.12-.21.69-1.4l-1.45.85c-1.2.71-1.2.71-1.32.68A.27.27,0,0,1,9,5c-.07-.12-.08-.13.22-1.5l.05-.23c-.44.25-1.16.71-1.65,1-1.41.89-1.42.89-1.58.85A.28.28,0,0,1,5.87,5c-.1-.17-.1-.17.64-1.53L5.53,4c-1.69,1.06-1.84,1.13-2,1.09A.29.29,0,0,1,3.33,5c-.08-.14-.08-.14.44-1.53l0-.11-.55.34c-.92.58-1,.6-1.11.56A.28.28,0,0,1,2,4.13c-.1-.18-.08-.2.36-.7l0,0,0-.17.22-.13h0l-.22.13L2.31,3l.4-.24c.5-.3.5-.3.62-.27a.27.27,0,0,1,.16.13.24.24,0,0,1,0,.31c.67-.41.76-.44.89-.4a.29.29,0,0,1,.17.13c.07.12.07.12-.26,1L4,4.34l1.22-.76c1.7-1.07,1.79-1.1,2-1.05a.29.29,0,0,1,.18.13c.08.14.08.14-.38,1l-.28.51.61-.38C9.24,2.58,9.47,2.47,9.68,2.52a.31.31,0,0,1,.18.14c.06.1.06.1-.12.92l-.16.74.62-.36c2.51-1.48,2.51-1.48,2.66-1.44a.27.27,0,0,1,.17.13c.09.15.07.18-.22.59l-.62.91,1-.59c1.35-.82,1.34-.82,1.49-.78a.27.27,0,0,1,.17.13c.13.22.14.25-1.37,1.72,1.48-.89,1.51-.88,1.65-.84a.28.28,0,0,1,.17.13c.12.21.13.28-.88,1a.32.32,0,0,1,.21,0,.3.3,0,0,1,.18.13c.14.24.15.26-2.67,2.66C13.35,7,13.43,7,13.55,7a.29.29,0,0,1,.17.13c.13.22.13.22-2.5,2.22l-3,2.29,2.1-1.28c1.6-1,1.6-1,1.73-.95a.27.27,0,0,1,.17.13c.1.17.18.31-.76,1a.43.43,0,0,1,.16,0,.36.36,0,0,1,.2.15c.18.32.22.38-4.47,3.73L5.21,16c.4-.23.43-.23.52-.21l-.07.26-.24.13.24-.13.11.25-.9.53A12,12,0,0,1,2.45,18.19Z"/>      <path class="a" d="M16.27,17.35h-.08a.27.27,0,0,1-.17-.13c-.08-.15-.07-.2.3-.9a.29.29,0,0,1-.25,0,.27.27,0,0,1-.17-.13c0-.07,0-.07-.08-.77,0-.15,0-.3,0-.44l0,0c-.57.34-.66.39-.8.16,0-.08,0-.08,0-.53,0-.15,0-.37,0-.56-.44.28-.51.32-.65.29a.28.28,0,0,1-.17-.13c0-.07,0-.07-.16-1.23l-.06,0c-.43.27-.5.31-.63.28a.28.28,0,0,1-.17-.13,4.85,4.85,0,0,1-.2-1.19v0h0c-.6.35-.6.35-.71.32a.27.27,0,0,1-.16-.12c0-.08,0-.08-.06-.84,0-.14,0-.32,0-.48l-.1.06c-.56.35-.61.38-.74.34a.28.28,0,0,1-.17-.13c-.12-.2-.12-.2,1.05-1.51l.71-.8c-.7.43-.7.42-.82.39a.27.27,0,0,1-.17-.13c-.13-.23-.08-.3.93-1.14a.28.28,0,0,1-.11-.11c-.12-.2-.12-.21.84-1.11h0a.28.28,0,0,1-.17-.13c-.1-.18-.15-.25.91-1.35h0a.27.27,0,0,1-.17-.13c-.08-.14-.1-.17.63-1.79l-.12.07c-.25.15-.27.16-.39.13a.27.27,0,0,1-.16-.12L13.2,3l-.55-.41c-.18.1-.51.31-.75.46-.73.46-.79.5-.93.46a.27.27,0,0,1-.17-.13c-.06-.11-.07-.16.07-.47l-.34.21c-.68.42-.68.42-.81.39a.27.27,0,0,1-.17-.13c-.06-.11-.07-.15,0-.38l0,0c-.8.5-.84.52-1,.49a.28.28,0,0,1-.17-.13c0-.08,0-.09,0-.63l-.6.37c-.69.42-.69.42-.81.39a.27.27,0,0,1-.17-.13c-.06-.1-.06-.16,0-.36-.79.49-.86.52-1,.49a.28.28,0,0,1-.17-.13l-.41-.45L5,2.61,4.44,3c-.8.51-.88.55-1,.51a.28.28,0,0,1-.17-.13A.27.27,0,0,1,3.33,3l.11,0c.12-.06.47-.28.71-.43C4.9,2,5,2,5.11,2a.28.28,0,0,1,.17.13l.37.4L6,2.91l.68-.42C7.41,2,7.46,2,7.6,2a.28.28,0,0,1,.17.13c.06.11.07.16,0,.35C8.59,2,8.62,2,8.74,2a.28.28,0,0,1,.17.13c0,.08,0,.08,0,.31l0,.31.35-.22C10.14,2,10.2,2,10.34,2a.28.28,0,0,1,.17.13c.06.1.07.15,0,.35.84-.51.87-.51,1-.47a.28.28,0,0,1,.17.13c.07.11.06.14-.07.45h0C12.53,2,12.6,2,12.75,2a.28.28,0,0,1,.17.13s.35.24.59.42l.59.44h0c1.06-.63,1.06-.63,1.21-.39s.06.15-.1.5q-.39.86-.6,1.35l.2-.12c.59-.36.59-.36.71-.33a.27.27,0,0,1,.16.12c.11.18,0,.27-.21.5l-.83.84c.13-.07.17-.07.25,0a.28.28,0,0,1,.17.13c.12.2.13.23-.78,1.08h0a.28.28,0,0,1,.17.13c.12.21.07.33-.69,1a.28.28,0,0,1,.14.12c.13.22.15.25-1.6,2.21l-.14.16h0a.27.27,0,0,1,.17.13c0,.08.05.09.07,1.05,0,.09,0,.17,0,.25l.11-.07c.47-.28.58-.34.72-.12,0,.06,0,.06.1.53l.1.71.08-.05c.43-.27.49-.32.63-.28a.27.27,0,0,1,.17.13c0,.06,0,.06.06.38l.09.85.09-.05c.42-.26.47-.3.6-.27a.28.28,0,0,1,.17.13c0,.08,0,.08,0,1.08l0,0c.5-.29.5-.29.61-.26a.27.27,0,0,1,.17.13c0,.07,0,.08.1,1v.23l.18-.11c.35-.22.37-.23.48-.2a.27.27,0,0,1,.17.13c.08.15.08.16-.32.91h0c.38-.22.39-.22.5-.19l-.07.26-.23.14.23-.14.1.25-.48.29C16.46,17.28,16.35,17.35,16.27,17.35Z"/>      <path class="a" d="M16,18.63c-.08,0-.13,0-.18-.14s0-.09,0-.37l0-.31-.19.12c-.68.43-.75.47-.89.43a.28.28,0,0,1-.17-.13c0-.05,0-.05-.12-.85l0-.4-.08,0c-.43.27-.47.29-.6.26a.27.27,0,0,1-.17-.12c-.05-.1-.06-.11,0-1l-.16.1c-.3.19-.33.2-.44.17a.27.27,0,0,1-.17-.13c-.06-.11-.06-.12.08-.77-.4.24-.41.23-.51.2a.27.27,0,0,1-.16-.13c-.06-.1-.06-.17,0-.38-.19.11-.21.1-.3.08a.27.27,0,0,1-.17-.13s0,0-.09-.43l-.16-.93,0,0c-.61.35-.61.35-.72.32a.27.27,0,0,1-.11-.07c-.09-.09-.09-.11,0-.47l.05-.47c-.53.31-.54.3-.64.28l.07-.26.23-.13-.23.13-.12-.24.74-.43c.19-.11.27-.16.41-.08a.27.27,0,0,1,.09.08c.05.08.06.08,0,.9l0,0c.47-.27.47-.27.59-.24a.27.27,0,0,1,.16.12,7,7,0,0,1,.26,1.36l.13-.08c.47-.29.47-.28.59-.26a.27.27,0,0,1,.17.13c.06.11.06.17,0,.39.18-.1.2-.09.28-.07a.27.27,0,0,1,.16.13c.06.1.06.1-.08.73v0c.33-.2.39-.22.51-.19a.28.28,0,0,1,.17.13c0,.08,0,.08,0,.54l0,.48c.44-.27.49-.3.62-.27a.28.28,0,0,1,.17.13c0,.06,0,.06.13.91l0,.35.32-.2c.63-.4.69-.44.84-.4a.28.28,0,0,1,.17.13c0,.07,0,.08,0,.66.68-.4.72-.42.86-.19a.27.27,0,0,1-.09.37l0,0-.5.29A1.62,1.62,0,0,1,16,18.63Z"/>      <path class="a" d="M6.3,15.28H6.23a.27.27,0,0,1-.17-.13c-.12-.21-.12-.21,1.18-1.24l1.89-1.51L9,12.2l.46-.27c.48-.28.48-.28.6-.25a.27.27,0,0,1,.16.13c.11.18.14.24-.87,1.06,1.23-.73,1.27-.72,1.4-.69a.28.28,0,0,1,.17.13.27.27,0,0,1-.1.37l-.11,0c-.26.11-1.47.84-2.36,1.38A10.12,10.12,0,0,1,6.3,15.28Z"/>      <path class="a" d="M2.67,18.64c-.08,0-.13,0-.18-.14l-.09-.12L2,17.89l-.09.05c-.81.49-.81.49-.94.45a.27.27,0,0,1-.17-.13c-.16-.28-.19-.32,3-3l1.1-.91L3.8,15.1c-2.71,1.73-3.28,2-3.55,2a.34.34,0,0,1-.19-.14c-.13-.23-.13-.23,1.1-1,.92-.58,2.77-1.75,4.43-2.85H5.53a.29.29,0,0,1-.18-.13c-.15-.26-.15-.26,3.66-3.44a.27.27,0,0,1-.16-.13c-.1-.18-.1-.18.91-1.22L10.86,7a.21.21,0,0,1-.18,0,.27.27,0,0,1-.17-.13c-.12-.21-.07-.28.79-1.14a.27.27,0,0,1-.13-.11c0-.05,0-.05-.11-.57l0-.3L10.66,5c-1,.63-1,.62-1.17.59a.28.28,0,0,1-.17-.13L8.9,4.8l0-.07L8,5.27c-.6.36-.6.36-.72.33a.27.27,0,0,1-.13-.07c-.1-.07-.6-.39-.9-.58l-.42-.26c-.19.1-.58.35-.83.51-.69.44-.72.45-.85.42a.28.28,0,0,1-.17-.13l-.53-.54-.18-.19-.3.19c-.53.33-.59.37-.73.34A.28.28,0,0,1,2,5.16C1.9,5,1.9,5,3.23,3.13l0-.05-.38.24C1.78,4,1.75,4,1.6,4a.28.28,0,0,1-.17-.13c-.11-.19-.1-.2.48-.77l0,0,0-.15.23-.13L2,2.89l-.1-.25.51-.3C3,2,3,2,3.11,2a.27.27,0,0,1,.17.13.23.23,0,0,1,0,.29C4,2,4.08,2,4.22,2a.29.29,0,0,1,.18.13c.1.17.1.17-.73,1.3l-.54.75a.28.28,0,0,1,.22,0,.28.28,0,0,1,.17.13h0l.28.27L4.23,5l.44-.28c1-.62,1.06-.65,1.22-.61A.29.29,0,0,1,6,4.18l.49.31L7.33,5l.35-.21C9,4,9,4,9.19,4.24l.17.28L9.65,5l.73-.44c.76-.47.76-.46.89-.43a.27.27,0,0,1,.17.13c0,.06,0,.06.15.77V5.1L11.7,5c.74-.45.74-.45.87-.41a.27.27,0,0,1,.17.13c.11.19.11.22-.55.89a.21.21,0,0,1,.12,0,.28.28,0,0,1,.17.13C12.6,6,12.61,6,10.71,8c.36-.2.41-.19.49-.16a.28.28,0,0,1,.17.13c.12.21.12.21-1.82,1.83L7.68,11.32,8.15,11c1-.6,1-.6,1.09-.56a.27.27,0,0,1,.17.13c.14.24.24.41-2.56,2.29a.3.3,0,0,1,.08.09c.16.28.18.31-2.77,2.75-.61.5-1.33,1.1-1.9,1.59a.27.27,0,0,1,.07.08l.46.61.15-.09c2.89-1.71,2.89-1.71,3-1.66l-.07.26-.23.14.23-.14.09.25c-.19.08-2.15,1.23-2.79,1.61A1.47,1.47,0,0,1,2.67,18.64Z"/>    </g>    <g>      <path class="a" d="M31.38,14.52H31.3a.28.28,0,0,1-.17-.13c-.1-.17-.07-.23.52-1.33l.09-.16-.3.19c-1.1.7-1.19.74-1.35.7a.29.29,0,0,1-.18-.13.27.27,0,0,1,.1-.37.27.27,0,0,1,.13,0c.16-.07.67-.4,1-.62,1-.64,1.1-.69,1.27-.65a.29.29,0,0,1,.18.13c.1.16.06.22-.47,1.21l-.15.28.07,0c.71-.45.76-.47.9-.44a.28.28,0,0,1,.17.13.27.27,0,0,1-.1.37l-.08,0-.6.37C31.65,14.43,31.49,14.52,31.38,14.52Z"/>      <path class="a" d="M23,18.67H23a.27.27,0,0,1-.17-.13c-.07-.12-.1-.17.13-.37h0l.06,0c.22-.17.61-.45,1.3-.93-2,1.21-2.45,1.45-2.68,1.4a.33.33,0,0,1-.19-.14c-.14-.24-.14-.24,4.89-3.9l2.54-1.85L26.4,14.2c-4.18,2.61-5,3.07-5.27,3a.32.32,0,0,1-.18-.14c-.22-.37,0-.73,6.55-5a.27.27,0,0,1-.07-.08c-.1-.17-.09-.2.52-1-1.09.64-1.1.64-1.22.61a.27.27,0,0,1-.16-.13c-.07-.12-.08-.21.07-.38-.34.2-.37.18-.47.16A.27.27,0,0,1,26,11.1c-.06-.09-.06-.09.09-.68l.26-1-.34.2c-1.23.71-1.23.72-1.35.68a.27.27,0,0,1-.12-.07c-.14-.14-.1-.22.07-.55L24.92,9c-.42.24-.44.23-.52.21L24.46,9l.24-.13L24.46,9l-.12-.24.89-.51c.26-.15.37-.22.52-.07l0,.06c.06.11.07.13-.42,1.1l.35-.2c1-.56,1-.56,1.07-.53a.27.27,0,0,1,.16.13c.07.12.07.12-.33,1.71l.61-.37c1-.6,1-.61,1.13-.57a.27.27,0,0,1,.17.13c.08.13.08.22-.11.43.42-.25.44-.24.54-.22a.27.27,0,0,1,.17.13c.1.17.1.18-.53,1L29,10.7c3.29-2,3.85-2.34,4.12-2.27a.32.32,0,0,1,.18.14c.16.28.16.28-3.55,2.66-1.79,1.15-4.56,2.92-6.42,4.21l2.73-1.69c4.57-2.85,5.57-3.4,5.9-3.33a.34.34,0,0,1,.19.14c.14.25.14.25-5.59,4.42l-1.1.8.19-.12c3.41-2.15,3.82-2.36,4.07-2.29a.31.31,0,0,1,.18.14c.13.23.16.27-3.2,2.61l0,.14-.23.14.23-.14.1.25c-.12.06-1.24.71-2.06,1.19s-1.36.8-1.56.9h0A.46.46,0,0,1,23,18.67Z"/>      <path class="a" d="M29.85,10.33h-.07a.28.28,0,0,1-.17-.13c-.11-.19-.13-.23.79-.91h0a.28.28,0,0,1-.17-.13c-.11-.18-.16-.27.71-.94a.27.27,0,0,1-.1-.1c-.14-.24-.16-.27,1.85-2.13-.7.42-.82.45-1,.42a.29.29,0,0,1-.18-.13c-.09-.16-.09-.16.62-1.28l.42-.66c-2.12,1.29-2.18,1.27-2.33,1.23a.28.28,0,0,1-.17-.13c-.05-.09-.05-.09,0-1l.05-.49-1.32.79c-1.46.88-1.46.89-1.61.85a.28.28,0,0,1-.17-.13c-.1-.17-.1-.17.52-.86l.06-.07,0,0c-1.82,1.08-1.82,1.08-2,1l.07-.26L26,5.17l-.23.14-.09-.25c.12-.05,1-.59,1.71-1,1.5-.89,1.5-.89,1.63-.85a.27.27,0,0,1,.16.13c.09.16.11.19-.5.88,1.73-1.05,1.75-1,1.9-1a.28.28,0,0,1,.17.13c.05.09.05.09-.06,1.13l0,.39c.61-.34,1.76-1,2.21-1.32s.46-.28.57-.25a.27.27,0,0,1,.17.13c.11.19.11.19-1,1.86l-.11.17L33.31,5c1.18-.75,1.22-.77,1.38-.73a.28.28,0,0,1,.17.13c.13.23.13.23-1.52,1.75l-.71.65.29-.17c1.18-.69,1.18-.69,1.3-.66a.27.27,0,0,1,.16.12c.12.2.13.22-.61.75h.09a.28.28,0,0,1,.17.13c.1.17.13.23-.56.76h0L33.44,8l-.23.13L33.44,8l.11.24-.72.43C30.39,10.13,30,10.33,29.85,10.33Z"/>      <path class="a" d="M19.34,10.53h-.06a.27.27,0,0,1-.16-.13c-.2-.35,0-.61,5.58-4.74L25.62,5c-.86.52-1.8,1.12-2.57,1.61-3,1.87-3.21,2-3.43,2a.3.3,0,0,1-.18-.13c-.17-.29-.21-.37,3.72-3.25a.32.32,0,0,1-.19,0A.29.29,0,0,1,22.79,5c-.14-.25-.15-.26,2.4-2.69-.31.19-.37.19-.47.17a.28.28,0,0,1-.17-.13c-.11-.19-.11-.19.53-.8l.41-.39-.1-.25.39-.23L26,.56c.11-.07.35-.21.49,0a.24.24,0,0,1,0,.29c.31-.18.38-.18.48-.16a.29.29,0,0,1,.18.13c.12.21.12.21-1.5,1.76L24.47,3.78l.45-.29c1.89-1.19,2-1.22,2.17-1.18a.29.29,0,0,1,.18.13c.15.27.15.27-2.79,2.41L22.61,6.22l.15-.09c3.92-2.48,4.9-3,5.26-2.94a.36.36,0,0,1,.2.15c.16.28.16.28-3.19,2.75-1,.75-2.31,1.7-3.37,2.51,1-.59,1-.58,1.15-.55l-.07.26-.23.13.23-.13.08.25c-.15.06-1.47.84-2.25,1.3C19.61,10.43,19.44,10.53,19.34,10.53Z"/>      <path class="a" d="M32.42,13.71h-.07a.27.27,0,0,1-.17-.13c-.07-.12-.07-.13.17-1.11-.44.27-.44.27-.55.24a.27.27,0,0,1-.17-.13c-.08-.13-.08-.18.28-1l-.11.07c-.67.41-.67.41-.8.38a.27.27,0,0,1-.17-.13c-.12-.2-.12-.2,1-1.44l.51-.54L32.2,10c-.16.1-.34.21-.49,0s-.15-.26,1.48-2.2l.23-.27c-.16.08-.2.07-.27.05A.28.28,0,0,1,33,7.48c-.08-.15-.11-.19.59-.91h0a.27.27,0,0,1-.17-.13c-.11-.2-.08-.25.63-1h0a.28.28,0,0,1-.17-.13c-.05-.09-.05-.09.12-1l.08-.44-.51.31c-.16.1-.21.13-.32.1a.27.27,0,0,1-.17-.13l-.15-.29-.29-.56L32,3.62c-.93.58-1,.59-1.12.56A.28.28,0,0,1,30.74,4c-.06-.1-.06-.13.05-.48-1.07.65-1.11.64-1.24.61a.28.28,0,0,1-.12-.07l-.29-.24-.71-.58-.62.36c-.94.55-.94.55-1.05.51A.27.27,0,0,1,26.59,4c-.05-.09-.08-.15,0-.36-.24.15-.3.16-.4.13a.28.28,0,0,1-.17-.13c-.12-.21,0-.33.67-1.1h-.1a.28.28,0,0,1-.17-.13c-.08-.14-.08-.14.37-1.08l0-.09c-.31.18-.33.18-.43.15l.07-.26L26.73,1l-.23.13L26.4.93l.54-.32c.46-.27.46-.28.58-.25a.27.27,0,0,1,.17.13c.08.14.08.14-.38,1.12l0,0c.46-.29.54-.32.66-.29a.28.28,0,0,1,.17.13c.12.21,0,.33-.69,1.13h.07a.28.28,0,0,1,.17.13.32.32,0,0,1-.06.36l0,0c1-.56,1-.56,1.1-.33l.78.63.19.15c.17-.09.54-.3,1.32-.79.19-.12.23-.14.34-.11a.27.27,0,0,1,.17.13c.06.11.06.13-.07.53l.31-.19c.86-.54.9-.56,1-.52a.28.28,0,0,1,.17.13l.42.8v0c.93-.57,1-.57,1.09-.53a.28.28,0,0,1,.17.13c.06.1.06.1-.15,1.18l-.05.26c.56-.35.62-.38.76-.35a.28.28,0,0,1,.17.13c.11.18.06.28-.46.85a.21.21,0,0,1,.11,0,.27.27,0,0,1,.12.07c.19.19,0,.34-.16.54l-.4.41h0a.27.27,0,0,1,.17.13c.12.21.12.21-1.17,1.73L33,8.91c.5-.29.55-.28.65-.26a.27.27,0,0,1,.17.13c.13.22.14.24-1.41,1.9a.23.23,0,0,1,.14,0,.27.27,0,0,1,.17.13c.07.12.07.12-.18.71l-.13.3c.3-.18.34-.18.44-.15a.27.27,0,0,1,.17.13c.06.1.06.1-.07.59l-.13.53.28-.17c.21-.13.4-.25.54,0a.27.27,0,0,1-.09.37h0l-.16.1C32.66,13.63,32.52,13.71,32.42,13.71Z"/>      <path class="a" d="M32,15.14h-.07a.28.28,0,0,1-.17-.13c-.09-.16-.09-.2.26-.56-.81.49-.9.5-1,.47a.29.29,0,0,1-.18-.13c0-.08,0-.08,0-.58v-.09c-.57.35-.59.36-.72.32l.07-.26.23-.13-.23.13-.09-.25.48-.28c.5-.3.5-.3.62-.27a.27.27,0,0,1,.16.13c.05.09.05.1,0,.73.35-.2.89-.54,1.22-.75.8-.5.8-.49.93-.47a.27.27,0,0,1,.17.13c.09.16.11.23-.44.82a.27.27,0,0,1,.14.12.27.27,0,0,1-.1.37l-.06,0-.4.25C32.25,15,32.11,15.14,32,15.14Z"/>      <path class="a" d="M26.88,15.87h-.06a.27.27,0,0,1-.17-.13c-.15-.25-.16-.28,2.27-2.15a.27.27,0,0,1,.13-.27l.07,0,.41-.24c.46-.28.49-.3.62-.27a.27.27,0,0,1,.17.12c.1.17.11.21-.22.47.54-.3.6-.28.7-.25a.29.29,0,0,1,.18.13.27.27,0,0,1-.1.37.24.24,0,0,1-.14,0c-.33.12-1.85,1.06-2.68,1.57S27,15.87,26.88,15.87Z"/>      <path class="a" d="M22.23,19.3h-.07a.31.31,0,0,1-.18-.14,8.36,8.36,0,0,1-.3-.83v0l-.48.29c-.3.18-.31.19-.43.15a.27.27,0,0,1-.16-.12c-.14-.24-.14-.25,1.52-1.39h0c-1.66,1-1.66,1-1.81,1a.28.28,0,0,1-.17-.13c-.09-.16-.15-.26.38-.67a.43.43,0,0,1-.24,0,.31.31,0,0,1-.18-.14c-.19-.32-.23-.4,4.74-3.92l1.87-1.34c0-.06-.05-.2-.15-.57l-.1-.42-.49.29c-.16.09-.36.21-.5,0s0-.08-.06-.49v-.36l-.35.22c-.25.16-.29.18-.4.15a.27.27,0,0,1-.16-.12c-.06-.1-.07-.13,0-.45-.31.18-.33.18-.43.15a.27.27,0,0,1-.17-.13c-.09-.16-.1-.17.66-1.69l0-.09c-.38.23-.45.26-.57.23a.28.28,0,0,1-.17-.13.27.27,0,0,1,.1-.37l.08,0,.5-.31c.56-.35.6-.38.74-.34a.27.27,0,0,1,.17.13c.08.14.08.14-.42,1.15l-.34.68c.24-.14.25-.14.35-.11a.27.27,0,0,1,.17.13c.06.1.06.14,0,.43.33-.2.39-.2.5-.18a.28.28,0,0,1,.17.13c0,.06,0,.07.07.81.62-.37.63-.37.75-.34a.27.27,0,0,1,.17.13,4.67,4.67,0,0,1,.22.82l.06.22.11-.07c.56-.34.58-.35.71-.32a.27.27,0,0,1,.17.13c.16.28.16.28-3,2.52-.88.62-2,1.4-2.89,2.07,1.47-.86,3.42-2,4.49-2.7,1.62-1,1.62-1,1.74-1a.27.27,0,0,1,.17.13c.17.29.19.32-2.7,2.15a.33.33,0,0,1,.15.13c.17.3.21.36-3.51,2.9l-.5.34.09.24.19.55c.71-.32,3.11-1.8,4.45-2.62,1.91-1.17,1.9-1.18,2.05-1.14a.28.28,0,0,1,.17.13.27.27,0,0,1-.1.37l-.07,0c-.17.08-1,.59-1.77,1.07C23.25,18.92,22.51,19.3,22.23,19.3Z"/>      <path class="a" d="M28.89,10.87h-.07a.27.27,0,0,1-.17-.13c-.06-.1-.07-.15,0-.35-.28.17-.32.18-.43.16a.28.28,0,0,1-.17-.13c-.05-.09-.06-.1,0-.65L28,9.82c-.46.28-.46.28-.58.25a.27.27,0,0,1-.17-.13c-.06-.1-.06-.15,0-.34-.26.16-.32.17-.42.14a.27.27,0,0,1-.17-.13,3.44,3.44,0,0,1-.18-.74l-.05-.25-.17.11c-.51.32-.6.38-.75.35A.28.28,0,0,1,25.37,9a.27.27,0,0,1,.1-.37l.09,0L26,8.28c.49-.31.56-.36.71-.33a.28.28,0,0,1,.17.13,2.91,2.91,0,0,1,.17.68l.07.32.22-.13c.48-.3.52-.33.65-.29a.27.27,0,0,1,.17.13c.06.1.06.15,0,.35.29-.17.34-.18.45-.16a.27.27,0,0,1,.17.13c.05.1,0,.12,0,.35l-.06.29c.52-.32.58-.36.71-.32a.28.28,0,0,1,.17.13c.06.1.07.14,0,.35,1-.62,1-.62,1.17-.58a.28.28,0,0,1,.17.13.27.27,0,0,1-.1.37l-.1,0c-.15.07-.69.4-1,.6C29.1,10.8,29,10.87,28.89,10.87Z"/>      <path class="a" d="M29.61,9.8h-.07a.28.28,0,0,1-.17-.13c-.12-.21-.15-.25,1.19-1.62h0a.27.27,0,0,1-.17-.13c-.12-.2-.11-.23.78-1.19a.2.2,0,0,1-.13,0,.27.27,0,0,1-.16-.13c-.08-.15-.07-.24.18-.52H31l-.09,0-.31-.19-1-.66L29,5.51c-1.16.68-1.16.68-1.3.45l-.27-.72c-1.64,1-1.64.95-1.77.72a.27.27,0,0,1,.09-.37l0,0,1.43-.83c.31-.18.41-.24.55-.09s.19.44.31.76L28.68,5c.89-.52,1-.56,1.07-.38l1.11.71.19.12.55-.33c.64-.39.64-.39.76-.35a.27.27,0,0,1,.17.13c.08.14.08.22-.14.47a.19.19,0,0,1,.11,0,.27.27,0,0,1,.17.13c.11.2.12.2-.81,1.2a.26.26,0,0,1,.12,0,.28.28,0,0,1,.17.13c.11.19.11.19-.72,1L31,8.4c.19-.1.25-.1.33-.08a.28.28,0,0,1,.17.13.27.27,0,0,1-.1.37l-.09,0c-.12.06-.5.3-.76.46C29.86,9.71,29.71,9.8,29.61,9.8Z"/>      <path class="a" d="M20.95,9.6h-.07a.28.28,0,0,1-.17-.13c-.14-.25-.15-.26,2.47-2.09h0A.28.28,0,0,1,23,7.25c-.11-.19-.11-.19.74-1l1-.91-.11-.24.45-.26c.47-.28.47-.28.58-.25a.27.27,0,0,1,.16.13c.1.17.12.21-.67,1,1.89-1.14,1.92-1.14,2.07-1.1a.28.28,0,0,1,.17.13c.16.27.16.28-3.15,2.58l0,.15L24,7.59l.23-.14.13.24-.38.23C21.5,9.41,21.11,9.6,20.95,9.6Z"/>      <path class="a" d="M19.54,11.14h-.08a.28.28,0,0,1-.17-.13,5.52,5.52,0,0,1-.25-.84l-.26.16c-.35.21-.35.21-.46.18a.27.27,0,0,1-.16-.13C18,10.1,18,10,21.07,7.2l.12-.11-.3.19c-1.39.88-1.41.88-1.56.84A.28.28,0,0,1,19.15,8C19,7.7,19,7.66,22.5,4.81l.06,0a.28.28,0,0,1-.12-.11c-.15-.25-.16-.27,2.65-2.84-.58.36-.63.36-.75.33A.28.28,0,0,1,24.17,2c-.12-.2-.12-.2.57-.82L24.93,1l0-.1.23-.13h0L25,.92l-.1-.25L25.4.35C26,0,26,0,26.14,0a.27.27,0,0,1,.17.13.23.23,0,0,1,0,.28c.54-.33.64-.35.77-.32a.29.29,0,0,1,.18.13c.12.22.12.22-1.66,1.85L24.38,3.2a.33.33,0,0,1,.26,0,.28.28,0,0,1,.17.13c.14.24.14.24-2,2l-1.05.85c.82-.5,1-.55,1.14-.51a.31.31,0,0,1,.18.14c.13.23.13.23-1.68,1.89-.6.55-1.45,1.34-2.06,1.93l.07.1a1.45,1.45,0,0,1,.07.2l.19.68c.36-.2,1-.61,1.52-.91,1.35-.82,1.34-.83,1.5-.79a.27.27,0,0,1,.17.13.27.27,0,0,1-.1.37l-.08,0c-.15.07-.73.43-1.21.72C20,11,19.68,11.14,19.54,11.14Z"/>    </g>    <g>      <path class="a" d="M42.48,19.38H42.4a.3.3,0,0,1-.18-.13c-.13-.22-.13-.22,3.59-3.15l1.73-1.37-2,1.25c-3.64,2.27-4.06,2.49-4.31,2.43a.31.31,0,0,1-.18-.14c-.22-.38,0-.71,6.35-4.92l0,0c-.13-.23-.16-.27,1.46-1.56-.18.09-.21.08-.28.06a.27.27,0,0,1-.17-.13c-.12-.21-.07-.33.61-.85a.28.28,0,0,1-.12-.11c-.1-.17-.1-.17.72-1.1L51,8c-1.17.68-1.18.68-1.29.65a.27.27,0,0,1-.17-.14c-.07-.14-.07-.14.23-.57l.59-.84h0l.08-.26-.12-.24.54-.31c.22-.13.34-.2.49-.05l0,.06c.07.13.08.15-.68,1.25l.24-.14c1.12-.65,1.12-.65,1.24-.62a.27.27,0,0,1,.16.12c.13.22.14.23-2,2.67l.13-.08c1.29-.78,1.29-.78,1.43-.74a.27.27,0,0,1,.17.13c.11.19.08.3-.46.72h0a.27.27,0,0,1,.16.13c.13.23.15.25-1.28,1.39.44-.24.54-.25.65-.22a.3.3,0,0,1,.18.13c.15.27.15.27-2.94,2.32-1.24.82-3.06,2-4.51,3l1.37-.85c3.93-2.46,4.53-2.77,4.81-2.7a.32.32,0,0,1,.19.14c.13.23.13.23-4.09,3.55l-.63.49c1.8-1.12,2-1.21,2.18-1.16a.3.3,0,0,1,.18.13.27.27,0,0,1-.1.37.28.28,0,0,1-.15,0c-.28.11-1.41.82-2.33,1.4C43.14,19.13,42.7,19.38,42.48,19.38Z"/>      <path class="a" d="M45.18,10.68c-.08,0-.12,0-.18-.14s-.09-.21.27-.71c-.6.37-.68.39-.81.36a.28.28,0,0,1-.17-.13c-.08-.14-.08-.14.45-1.17l.32-.62c-1,.63-1.07.61-1.2.58a.28.28,0,0,1-.17-.13c-.08-.14-.08-.14.53-1.37l.24-.49L44.29,7c-.81.49-.81.49-.94.46a.27.27,0,0,1-.17-.13c-.08-.15-.08-.15.27-.69l.07-.1a.19.19,0,0,1-.15,0l.07-.26.24-.13-.24.13L43.33,6l.45-.26c.48-.29.6-.35.74-.13s.09.16-.28.76c.75-.45.76-.45.89-.42a.27.27,0,0,1,.17.13c.08.14.08.14-.59,1.51L44.53,8l.82-.49c.26-.16.44-.27.58,0s.1.17-.7,1.71l-.07.13.21-.13c.72-.45.76-.48.9-.44a.28.28,0,0,1,.17.13c.09.16.1.17-.39.85.09,0,.14,0,.2.12a.27.27,0,0,1-.07.37l0,0-.27.16A2.12,2.12,0,0,1,45.18,10.68Z"/>      <path class="a" d="M40.51,12a.23.23,0,0,1-.19-.12c-.09-.16-.1-.18.38-1.64l.05-.16-.5.31c-.73.46-.76.48-.9.45a.28.28,0,0,1-.17-.13c-.1-.17-.11-.19.76-1.55-.82.52-.89.55-1,.51a.28.28,0,0,1-.17-.13c-.09-.16-.09-.16.65-1.67l0-.06-.13.08c-.68.43-.74.47-.88.43a.28.28,0,0,1-.17-.13c-.1-.17-.07-.2.32-.67h0l0-.18.2-.11h0l-.2.11-.1-.25.38-.22.27-.16c.11-.07.35-.21.49,0a.25.25,0,0,1,0,.31c.28-.17.35-.18.45-.15a.28.28,0,0,1,.17.13c.08.14.08.14-.39,1.08l-.33.67.18-.11c.86-.54.92-.58,1.07-.54a.28.28,0,0,1,.17.13c.09.16.09.16-.49,1.07l-.31.49c.85-.54.94-.57,1.09-.53a.29.29,0,0,1,.17.13c.07.12.07.12-.22,1l-.24.76c.36-.21.38-.21.48-.18l-.07.26-.23.13.23-.13.11.25-.55.32A1.07,1.07,0,0,1,40.51,12Z"/>      <path class="a" d="M46.41,16.88h-.08a.28.28,0,0,1-.17-.13c-.17-.29-.09-.4,2.41-2.29a.28.28,0,0,1-.07-.08c-.12-.21-.14-.24,1.19-1.46h0a.28.28,0,0,1-.17-.13c-.12-.21-.1-.27.79-1.06a.27.27,0,0,1-.09-.1c-.11-.19-.11-.19.75-1.15l.17-.2a.23.23,0,0,1-.21,0,.27.27,0,0,1-.17-.13c-.11-.2-.12-.21,1-1.63l.05-.06a.28.28,0,0,1-.25,0,.27.27,0,0,1-.16-.12c-.09-.16-.1-.17.35-.77h-.06a.27.27,0,0,1-.17-.13c-.06-.1-.08-.13.07-.43-.19.11-.23.11-.32.09A.27.27,0,0,1,51.08,7a.27.27,0,0,1,.1-.37l.07,0,.42-.25c.47-.29.5-.31.62-.28a.27.27,0,0,1,.17.12c.08.13,0,.21-.06.39l0,.05c.14-.08.19-.08.27-.06a.28.28,0,0,1,.17.13c.08.15.08.21-.25.66.16-.08.19-.07.25-.05a.27.27,0,0,1,.16.12c.11.19.11.19-.81,1.39L52,9.15c.25-.14.31-.14.4-.12a.28.28,0,0,1,.17.13c.11.19.13.22-.83,1.3a.25.25,0,0,1,.22,0,.27.27,0,0,1,.17.13c.11.2.13.22-.65.9h0a.27.27,0,0,1,.17.13c.12.2.12.2-.93,1.17l-.16.15a.25.25,0,0,1,.2,0,.28.28,0,0,1,.17.13c.15.26.12.3-1.63,1.62.19-.09.23-.08.3-.06a.28.28,0,0,1,.17.13.27.27,0,0,1-.1.37l-.11,0c-.19.08-.91.53-1.44.86C46.78,16.75,46.54,16.88,46.41,16.88Z"/>      <path class="a" d="M43.42,19.77h-.07a.29.29,0,0,1-.17-.13L42.8,19h0l-.7.42c-.35.21-.5.3-.64.07s-.06-.14.08-.53h0l0,0c-.34.21-.36.22-.47.19a.27.27,0,0,1-.17-.13c-.09-.16-.14-.24.32-.62-.26.12-.34.12-.42.1a.3.3,0,0,1-.18-.13c-.19-.32-.23-.41,4.88-4l.78-.55,0-.05c-.13-.23-.13-.23,1.46-1.8l.64-.64a.23.23,0,0,1-.29-.11c-.11-.19-.11-.19.67-1.08L49,9.8a.21.21,0,0,1-.19,0,.27.27,0,0,1-.17-.13c-.1-.18-.1-.22.45-.78h0a.27.27,0,0,1-.17-.13c-.11-.19-.12-.21,1.08-2l.05-.07a.29.29,0,0,1-.22,0,.28.28,0,0,1-.17-.13.27.27,0,0,1,.1-.37l.08,0L50.29,6c.5-.32.56-.35.69-.31a.27.27,0,0,1,.17.13c.1.17.1.17-.7,1.33l-.52.76c.43-.26.43-.25.54-.23a.27.27,0,0,1,.17.13c.1.17.09.23-.41.74h0a.29.29,0,0,1,.17.13c.1.17.11.19-.92,1.39.14-.07.18-.06.24,0a.27.27,0,0,1,.16.13c.14.24.15.25-1.85,2.23l-.05,0c.55-.33.58-.31.69-.29a.28.28,0,0,1,.17.13c.17.29.17.29-3.08,2.57-.77.54-1.72,1.21-2.56,1.82l1.92-1.17c1.13-.69,1.13-.69,1.25-.66a.27.27,0,0,1,.17.13c.16.28.16.28-2.36,2-.59.4-1.35.92-1.95,1.35,0,.08,0,.16-.08.44.65-.38.66-.38.78-.35a.27.27,0,0,1,.16.12l.14.22.25.42c.36-.19,1.18-.7,1.66-1,.83-.51.83-.51.95-.47l-.07.26-.23.13.23-.13.1.25-.7.42C43.85,19.61,43.56,19.77,43.42,19.77Z"/>      <path class="a" d="M45.8,9.36h-.08a.27.27,0,0,1-.17-.13c-.07-.12-.08-.16.07-.4h-.1a.27.27,0,0,1-.17-.13c-.07-.11-.08-.14.18-.72-.18.11-.21.1-.3.08a.27.27,0,0,1-.17-.13c-.06-.11-.07-.18.07-.4H45a.28.28,0,0,1-.17-.13c-.06-.11-.06-.16.1-1l0-.17c-.42.27-.51.32-.65.29a.28.28,0,0,1-.17-.13.27.27,0,0,1,.1-.37l.09,0,.39-.24c.45-.29.52-.33.66-.3a.28.28,0,0,1,.17.13c.06.11.06.13-.09.92l-.05.28c.4-.25.43-.27.56-.24a.27.27,0,0,1,.17.13c.07.12.07.17-.08.41h.11a.27.27,0,0,1,.17.12c.07.13.05.17-.08.46l-.12.26c.17-.1.23-.11.32-.09a.27.27,0,0,1,.17.13c.07.11.08.16-.07.4h.1a.28.28,0,0,1,.17.13.27.27,0,0,1-.1.37l-.08,0-.45.27C45.95,9.32,45.87,9.36,45.8,9.36Z"/>      <path class="a" d="M44.94,11.1h-.07A.28.28,0,0,1,44.7,11c0-.07,0-.08-.15-.95l-.22.14c-.29.18-.32.2-.43.17a.27.27,0,0,1-.17-.13c-.07-.13-.07-.15.21-.84-.27.15-.29.15-.38.12a.27.27,0,0,1-.16-.13c-.07-.12-.07-.19.08-.43a.23.23,0,0,1-.11,0,.27.27,0,0,1-.16-.12c-.05-.09-.05-.09,0-.63,0-.26.12-.67.17-1-.48.28-.48.27-.59.24a.27.27,0,0,1-.11-.07c-.16-.16-.09-.26.12-.57L43.29,6c-.2.11-.23.1-.3.08l.07-.26.24-.13-.24.13-.12-.24.86-.5c.25-.15.37-.21.51-.07l0,.06c.07.13.08.15-.65,1.26.11,0,.17,0,.24.11s.08.14-.18,1.64c.42-.25.42-.25.54-.22a.27.27,0,0,1,.17.13c.07.12.06.19-.09.44a.21.21,0,0,1,.29.12c.08.14.08.14-.2.83.19-.11.26-.12.35-.1a.28.28,0,0,1,.17.13c0,.05,0,.05.08.46l.06.49.47-.29c.95-.59,1-.6,1.13-.57a.28.28,0,0,1,.17.13.27.27,0,0,1-.1.37l-.1,0c-.13.06-.54.32-.83.5C45.21,11,45.05,11.1,44.94,11.1Z"/>      <path class="a" d="M41.16,11h-.07a.28.28,0,0,1-.17-.13c-.06-.1-.06-.1.1-.91l.11-.56c-.42.25-.45.24-.55.22a.27.27,0,0,1-.17-.13c-.05-.09-.05-.09.1-1.06L40.57,8c-.44.27-.44.27-.56.24a.27.27,0,0,1-.17-.13c-.06-.11-.06-.11.1-.56l0-.11c-.4.24-.42.23-.52.21l.07-.26.24-.13-.24.13-.11-.25.49-.29c.53-.31.52-.31.64-.28a.27.27,0,0,1,.16.12c.06.11.07.12-.13.66.26-.15.29-.15.38-.13a.27.27,0,0,1,.17.13c.06.1.06.1-.11,1.18L41,8.83l.26-.16c.14-.09.2-.12.31-.09a.27.27,0,0,1,.16.13c.07.12.07.12-.17,1.33l0,.15c.39-.24.43-.27.56-.24l-.06.26-.23.14.23-.14.09.25-.31.19C41.39,10.91,41.27,11,41.16,11Z"/>      <path class="a" d="M40.78,12.47h-.07a.27.27,0,0,1-.17-.13s0-.07-.29-.71l-.35.21c-.38.23-.38.23-.5.19a.27.27,0,0,1-.16-.12c-.06-.1-.07-.12.06-1.38l0-.17-.06,0c-.37.23-.41.26-.53.22a.27.27,0,0,1-.17-.13c-.07-.12-.07-.13.2-1.23-.31.2-.37.22-.49.19a.28.28,0,0,1-.17-.13c-.11-.19-.11-.19,1.11-2l0,0L39,7.46c-.95.6-1,.63-1.15.59a.28.28,0,0,1-.17-.13c-.11-.19-.1-.2.47-.76h0l0-.18.23-.14L38.19,7l-.1-.25.52-.3c.65-.39.74-.44.88-.21a.24.24,0,0,1,0,.3c.47-.28.55-.3.67-.26a.29.29,0,0,1,.18.13c.09.16.09.16-.67,1.26l-.53.77h.1a.28.28,0,0,1,.17.13c.06.11.06.11-.11.8l-.11.44c.3-.19.38-.22.5-.19a.28.28,0,0,1,.17.13c.05.09.05.09,0,.84,0,.2,0,.47-.07.7.56-.33.57-.33.68-.3a.27.27,0,0,1,.15.11,1.4,1.4,0,0,1,.1.24l.2.49.23-.14c.43-.27.44-.27.56-.24l-.07.26-.24.13.24-.13.1.25-.32.19C41,12.4,40.87,12.47,40.78,12.47Z"/>    </g>    <g>      <path class="a" d="M59.85,18.22h-.07a.29.29,0,0,1-.17-.13c-.15-.27-.15-.27,3.75-3.28l2-1.55-3,1.82C58,17.71,58,17.68,57.77,17.64a.29.29,0,0,1-.17-.13c-.09-.17-.09-.17.37-.76l.07-.09c-.16.08-.19.07-.25.05l.07-.26.24-.13-.24.13-.11-.25.62-.36c.71-.42.75-.44.89-.22s.11.18-.47.94c.85-.5,2.11-1.26,3.27-2,5.13-3.11,5.45-3.23,5.67-3.18a.3.3,0,0,1,.17.13c.17.29.17.29-4.22,3.67l-1.25,1,1.35-.82c.66-.4.66-.4.77-.37l-.15.52.08-.26.12.24-.55.33C60.56,18,60,18.22,59.85,18.22Z"/>      <path class="a" d="M62.92,13.92h-.07a.28.28,0,0,1-.17-.13c-.17-.29-.2-.34,3.39-3.18l.71-.56c-.53.32-.65.35-.78.31a.3.3,0,0,1-.18-.13c-.11-.21-.09-.23.47-.66l.88-.69c-.4.22-.46.2-.55.18a.29.29,0,0,1-.17-.13c-.12-.21-.13-.22,2.15-2.5L68,6.74c-.61.37-.6.37-.72.34A.27.27,0,0,1,67.16,7c-.1-.18-.1-.18.8-1.17l1-1.12-.62.38c-.56.35-.56.35-.67.32a.27.27,0,0,1-.17-.13c-.11-.19-.08-.27.55-.89L68,4.42c-1.27.77-1.27.77-1.41.73A.27.27,0,0,1,66.39,5c-.09-.17-.09-.17.57-1.12l.19-.27-.5.3C64.57,5.2,64.54,5.2,64.37,5.15A.29.29,0,0,1,64.2,5c-.09-.16-.12-.21.67-1.39l-1.43.84c-1.2.71-1.2.71-1.32.68A.27.27,0,0,1,62,5c-.07-.12-.08-.13.22-1.5l0-.23c-.44.25-1.16.71-1.65,1-1.4.89-1.42.89-1.58.85A.28.28,0,0,1,58.84,5c-.1-.17-.1-.17.64-1.53l-1,.6c-1.74,1.1-1.84,1.12-2,1.08A.29.29,0,0,1,56.33,5c-.08-.14-.08-.14.44-1.54l0-.09-.52.33c-.9.57-.94.59-1.09.55A.28.28,0,0,1,55,4.16c-.09-.16-.08-.2.28-.61a.32.32,0,0,1-.11-.12.27.27,0,0,1,.09-.37l.05,0,.38-.22L56,2.65c.11-.07.35-.21.49,0a.25.25,0,0,1,0,.32c.67-.42.76-.44.89-.41a.29.29,0,0,1,.18.13c.07.12.07.12-.24,1l-.26.7,1.21-.75c1.69-1.06,1.77-1.09,1.94-1a.29.29,0,0,1,.18.13c.09.14.09.14-.39,1l-.27.5.61-.38c1.91-1.21,2.15-1.32,2.35-1.27a.31.31,0,0,1,.18.13c.06.1.06.1-.12.92l-.16.74L63.17,4c2.47-1.46,2.46-1.45,2.62-1.42a.27.27,0,0,1,.17.13c.09.15.07.17-.22.59l-.61.91,1.24-.75c1.5-.92,1.5-.92,1.66-.88a.28.28,0,0,1,.17.13c.1.18.09.21-.7,1.35L67.68,4c1.85-1.12,1.86-1.11,2-1.07a.28.28,0,0,1,.17.13c.1.17.11.22-.43.75.61-.35.67-.34.78-.31a.29.29,0,0,1,.17.13c.11.19.12.21-1.56,2C70,4.93,70.07,4.94,70.2,5a.28.28,0,0,1,.17.13c.11.19.11.19-1.13,1.43L68.07,7.7l.7-.43c.81-.5.81-.5.94-.47a.27.27,0,0,1,.17.13c.1.17.15.27-.75,1a.35.35,0,0,1,.25,0,.3.3,0,0,1,.18.13c.16.28.19.32-3.14,3l-1.59,1.27,1.84-1.1c1.67-1,1.66-1,1.8-1l-.07.26-.23.13.23-.13.1.25c-.09,0-.8.47-1.55.92C63.56,13.67,63.1,13.92,62.92,13.92Z"/>      <path class="a" d="M63.44,15.78h-.07a.3.3,0,0,1-.18-.13c-.14-.24-.16-.28,2.23-2-.13-.23-.13-.29,2.32-2.73-.08,0-.12-.05-.18-.15s-.12-.21,1-1.58L69,8.62c-.2.12-.26.12-.35.1a.28.28,0,0,1-.17-.13c-.1-.18-.1-.18.71-1.31l.47-.66c-.3.18-.31.17-.41.15a.27.27,0,0,1-.17-.13c-.1-.18-.07-.25.43-.78h0a.28.28,0,0,1-.17-.13c-.1-.17-.1-.18.47-.88h0a.28.28,0,0,1-.17-.13c-.06-.11-.09-.15.21-.85-.15.08-.19.08-.28.06a.27.27,0,0,1-.17-.12l-.67-1.06-1.06.62c-.36.22-.5.29-.64.08L66.26,3l-.65-.38c-.17.09-.51.31-.75.46-.71.45-.77.49-.92.45a.28.28,0,0,1-.17-.13c-.06-.11-.07-.16.07-.47l-.34.21c-.68.42-.68.42-.8.39a.28.28,0,0,1-.17-.13c-.06-.11-.07-.15,0-.38l0,0c-.8.5-.84.52-1,.48a.28.28,0,0,1-.17-.13c0-.07,0-.08,0-.62l-.61.37c-.68.42-.68.42-.81.38a.27.27,0,0,1-.17-.13c-.06-.1-.06-.16,0-.36-.82.51-.86.52-1,.49a.28.28,0,0,1-.17-.13L58.23,3,58,2.68,57.43,3c-.8.51-.88.55-1,.51a.29.29,0,0,1-.17-.13.27.27,0,0,1,.1-.37l.11,0c.12-.06.47-.28.71-.43.73-.46.81-.51,1-.48a.28.28,0,0,1,.17.13l.35.39L59,3l.68-.42c.77-.48.81-.51,1-.47a.28.28,0,0,1,.17.13c.06.1.07.15,0,.35.85-.52.88-.52,1-.48a.28.28,0,0,1,.17.13c0,.06,0,.06,0,.34l0,.28.34-.21c.87-.54.93-.57,1.08-.54a.28.28,0,0,1,.17.13c.06.1.07.15,0,.35.84-.51.86-.51,1-.47a.28.28,0,0,1,.17.13c.06.11.06.14-.07.44h0c.92-.58,1-.6,1.14-.57a.28.28,0,0,1,.13.07c.08.06.43.26.69.41l.7.41.13-.07c1.37-.81,1.38-.81,1.5-.77a.27.27,0,0,1,.15.11l.68,1.07L70,3.15c.35-.21.51-.31.66-.09a.34.34,0,0,1,0,.34L70.35,4c.34-.21.38-.23.5-.2A.27.27,0,0,1,71,3.9c.09.16.11.19-.36.77a.25.25,0,0,1,.13,0A.28.28,0,0,1,71,4.8c.1.18.05.29-.41.78a.27.27,0,0,1,.17.12c.11.2.13.22-1.07,1.89h0c.26-.16.31-.16.41-.14a.28.28,0,0,1,.17.13c.12.21.13.23-1.26,2l-.17.21c.37-.21.38-.2.48-.17a.26.26,0,0,1,.15.12c.12.2.12.2-1.08,1.39L67,12.43c.76-.47.84-.49,1-.46a.29.29,0,0,1,.17.13c.13.21.13.21-.93,1l-.08.06a.29.29,0,0,1,.17.13.27.27,0,0,1-.23.4c-.21.09-1,.59-1.59,1C64,15.59,63.62,15.78,63.44,15.78Z"/>      <path class="a" d="M59.06,16.45c-.08,0-.1,0-.14-.1A.27.27,0,0,1,59,16l0,0c.23-.12,2.74-1.58,3.82-2.21.79-.46.79-.45.9-.42l-.16.52.08-.26.13.24-.68.39C60,16,59.3,16.45,59.06,16.45Z"/>      <path class="a" d="M58.25,18.56h-.07a.27.27,0,0,1-.17-.13c-.14-.25-.14-.25,2.89-2.79l1.37-1.15-1.79,1.08c-3.11,1.88-3.14,1.89-3.31,1.84a.28.28,0,0,1-.17-.13c-.11-.17-.11-.17.53-.87l.06-.07c-.17.09-.2.08-.27.06l.07-.26.23-.13-.23.13-.1-.25.78-.45c.75-.44.75-.44.87-.41a.27.27,0,0,1,.17.13c.1.16.11.19-.58,1l1.69-1c3.86-2.34,3.91-2.33,4.1-2.28a.29.29,0,0,1,.17.13c.15.26.15.26-3.24,3.09L59.7,17.35l.82.2.56.14c.23-.1.94-.55,1.42-.86,1.16-.73,1.17-.73,1.32-.69a.28.28,0,0,1,.17.13.27.27,0,0,1-.1.37l-.09,0c-.14.07-.62.37-1,.61-1.46.92-1.61,1-1.78.94l-.06,0-.55-.13-.87-.21,0,0C58.55,18.46,58.36,18.56,58.25,18.56Z"/>      <path class="a" d="M62.63,13.5h-.07a.28.28,0,0,1-.17-.13c-.15-.26-.17-.29,2.38-2.59l.86-.77h0a.28.28,0,0,1-.17-.13c-.1-.18,0-.24.26-.55l.6-.61h-.08a.28.28,0,0,1-.17-.13c-.1-.17-.1-.17,1.09-1.86-.27.16-.41.24-.55,0s-.09-.16.24-.83l.36-.77-.49.3c-.38.24-.38.24-.5.21A.27.27,0,0,1,66,5.53c-.05-.09,0-.13,0-.59l-.5.3c-.75.45-.75.45-.87.42a.27.27,0,0,1-.17-.13l-.19-.34-.21-.38-.43.26c-1,.63-1,.62-1.18.59a.28.28,0,0,1-.17-.13l-.45-.73L61,5.32c-.73.43-.74.43-.88.23L59.23,5l-.42-.26c-.19.1-.58.35-.83.5-.69.43-.71.45-.85.41A.28.28,0,0,1,57,5.54L56.43,5l-.16-.17L56,5c-.53.33-.59.37-.73.34a.28.28,0,0,1-.17-.13c-.11-.19-.11-.19,1.2-2l0-.06-.39.25c-1.1.7-1.14.71-1.29.67a.28.28,0,0,1-.17-.13c-.11-.18-.09-.2.43-.74l.06-.06L55,3l.23-.13L55,3l-.1-.25.46-.27c.55-.33.55-.33.67-.3a.27.27,0,0,1,.17.13.24.24,0,0,1,0,.3c.83-.52.94-.55,1.09-.51a.29.29,0,0,1,.18.13c.1.17.1.17-.72,1.3l-.53.74a.28.28,0,0,1,.23,0,.28.28,0,0,1,.17.13,3.28,3.28,0,0,1,.26.27l.43.46.43-.27c1-.62,1.06-.65,1.21-.61a.29.29,0,0,1,.11.06l.49.31.83.53.37-.22c1.2-.71,1.2-.71,1.33-.67a.28.28,0,0,1,.16.12l.07.12.39.63.73-.44c.75-.46.76-.46.88-.43a.27.27,0,0,1,.17.13l.34.61.06.11.42-.25c1.05-.64,1.06-.63,1.19-.6a.28.28,0,0,1,.17.13c.05.09.05.1,0,.56,1-.64,1.07-.63,1.21-.6A.28.28,0,0,1,68,4.4c.08.14.08.14-.56,1.49.54-.32.57-.32.68-.29a.28.28,0,0,1,.17.13c.09.16.09.16-.57,1.08l-.57.81c.36-.22.36-.22.47-.19a.27.27,0,0,1,.16.13c.1.17.14.23-.66,1.07h0a.28.28,0,0,1,.17.13c.15.25.16.28-2.21,2.41l-1,.86.46-.28c1-.58,1-.58,1.1-.55l-.07.26-.24.13.24-.13.11.25-.85.51A11.23,11.23,0,0,1,62.63,13.5Z"/>    </g>    <g>      <path class="a" d="M81.47,13.72h-.07a.28.28,0,0,1-.17-.13c-.12-.21-.07-.28.92-1.58l.18-.24h0a.28.28,0,0,1-.17-.13.27.27,0,0,1,.1-.37l.08,0,.33-.2c.4-.25.46-.29.59-.26a.27.27,0,0,1,.17.13c.12.2.06.27-.82,1.43l-.24.32.15-.09c1-.61,1-.64,1.18-.6a.28.28,0,0,1,.17.13.27.27,0,0,1-.1.37l-.09,0c-.13.06-.55.33-.87.53C81.8,13.61,81.6,13.72,81.47,13.72Z"/>      <path class="a" d="M79.91,15.43h-.07a.27.27,0,0,1-.17-.13c-.08-.15-.08-.17.32-.91-.72.43-.74.43-.86.4a.27.27,0,0,1-.16-.13c-.07-.12-.07-.2.07-.39-.24.13-.27.13-.36.1a.27.27,0,0,1-.17-.13c0-.07,0-.07,0-.63,0-.24.07-.63.11-.95l-.14.08c-1,.59-1,.59-1.15.37a.27.27,0,0,1,0-.15c0-.05,0-.06.06-.19l.29-.71c-.77.45-.78.44-.89.42l.07-.26.24-.13-.24.13L76.72,12l1.1-.63c.35-.2.38-.22.51-.14a.27.27,0,0,1,.09.09c.06.1.07.12-.3,1l.11-.06c.81-.47.81-.46.95-.25s.07.12-.1,1.59l.33-.2c.72-.43.72-.44.85-.4a.27.27,0,0,1,.17.13c.07.13.07.2-.09.42.29-.17.32-.16.4-.14a.27.27,0,0,1,.17.13c.08.15.09.15-.32.9l.11-.07c2.22-1.39,2.4-1.44,2.59-1.4a.3.3,0,0,1,.18.13.27.27,0,0,1-.1.37.24.24,0,0,1-.15,0c-.3.11-1.55.89-2.23,1.32S80,15.43,79.91,15.43Z"/>      <path class="a" d="M78.1,9.9H78a.29.29,0,0,1-.18-.13c-.12-.22-.12-.22,1.05-1.21L79,8.43A.28.28,0,0,1,79,8.34c-.07-.13-.07-.13.37-1.26l.18-.47,0,0c-.61.37-.62.38-.74.34a.27.27,0,0,1-.17-.13c-.06-.12-.06-.12.14-.58l.05-.12c-1.07.63-1.07.63-1.21.39a.27.27,0,0,1,.09-.37l0,0,.81-.47c.76-.45.76-.45.88-.42a.27.27,0,0,1,.16.12c.07.11.08.13-.16.69.57-.34.58-.34.7-.31a.27.27,0,0,1,.17.13c.07.13.07.13-.42,1.4l-.14.36.59-.36c.26-.16.28-.17.39-.14a.27.27,0,0,1,.17.13c.09.16.13.22-.38.67a.24.24,0,0,1,.18,0,.28.28,0,0,1,.17.13.27.27,0,0,1-.1.37l-.09,0c-.13.07-.57.34-.93.57C78.52,9.75,78.26,9.9,78.1,9.9Z"/>      <path class="a" d="M77.83,18.09h-.08a.31.31,0,0,1-.18-.14c-.13-.22-.13-.22.65-.77l1-.71c-2.39,1.44-2.77,1.58-3,1.53a.32.32,0,0,1-.18-.14c0-.07,0-.07-.07-1.16v-.06l-.85.51c-.39.24-.39.24-.5.21a.27.27,0,0,1-.17-.13c-.05-.1-.05-.1.11-.67l.19-.71-.56.34c-.34.21-.49.31-.64.09s-.09-.24.34-.78c-.35.21-.37.2-.46.18a.27.27,0,0,1-.17-.13c-.12-.21-.12-.21,1-1.4l.24-.25c-1.07.65-1.1.64-1.23.6a.28.28,0,0,1-.17-.13c-.14-.25-.23-.4,2.66-2.52-1.75,1-1.76,1-1.9.79s-.15-.25,1.62-2.41l0,0a.29.29,0,0,1-.25,0,.27.27,0,0,1-.17-.13C75,10,75,10,75.69,8.69c-.57.36-.64.39-.77.36a.27.27,0,0,1-.17-.13c-.14-.24-.14-.24,2.13-2.58v0l-.29.18c-1.39.88-1.45.9-1.62.86a.28.28,0,0,1-.17-.13c-.12-.21-.12-.21.68-.89l.06-.05,0-.16L75.84,6l-.24.13-.09-.25.71-.41C77,5,77,5,77.12,5a.27.27,0,0,1,.16.12.22.22,0,0,1,0,.27c.77-.47.91-.51,1-.47a.3.3,0,0,1,.18.13c.11.2.11.2-1.27,1.62l-1,1h.11a.28.28,0,0,1,.17.13c.08.14.08.14-.35,1L76,9.31c.52-.32.6-.35.73-.32a.28.28,0,0,1,.17.13c.11.19.11.19-.93,1.46l-.88,1.08.9-.53c4.3-2.54,4.33-2.54,4.49-2.49a.28.28,0,0,1,.17.13c.13.23.13.23-1.2,1.16-.82.58-2.38,1.68-3.68,2.64a.22.22,0,0,1,.17,0,.27.27,0,0,1,.17.13c.12.21.14.24-1.2,1.64a.23.23,0,0,1,.17,0,.28.28,0,0,1,.17.13c.09.16.09.21-.34.73.22-.12.27-.1.34-.09a.28.28,0,0,1,.17.13c.06.11.07.12-.26,1.33,1-.62,1-.61,1.17-.57a.28.28,0,0,1,.17.13c0,.06,0,.06.05.6,0,.22,0,.48,0,.68.82-.4,3.2-1.86,4.56-2.7,1.69-1,1.69-1,1.83-1a.27.27,0,0,1,.17.13c.1.18.16.29-.85,1.09a.35.35,0,0,1,.22,0,.31.31,0,0,1,.18.14c.06.1.06.11-.07,1.08l-.06.46.62-.37c.53-.32.53-.32.65-.29A.27.27,0,0,1,84,16c.07.12.09.16-.23.86.3-.16.33-.11.43,0a.27.27,0,0,1-.08.37l0,0-.67.39c-.14.08-.23.14-.37.06a.28.28,0,0,1-.1-.1c-.07-.12,0-.19.07-.43l.21-.46c-.89.53-.9.53-1,.49a.27.27,0,0,1-.17-.13c-.06-.1-.06-.11.08-1.15l.06-.45c-.43.24-1.16.71-1.74,1.08C78.48,17.86,78.05,18.09,77.83,18.09Z"/>      <path class="a" d="M79.17,15.49h-.07a.27.27,0,0,1-.17-.13c-.07-.11-.05-.15.08-.49h0c-.39.23-.48.24-.6,0s-.07-.14,0-.36c-.16.09-.2.1-.29.07a.27.27,0,0,1-.17-.13c-.07-.12-.05-.19.06-.74-.4.25-.44.27-.56.24a.27.27,0,0,1-.17-.13c0-.08,0-.08,0-.81V12.9c-.56.33-.56.33-.69.3l.07-.26.24-.13-.24.13-.1-.25.51-.3c.47-.28.59-.36.74-.13s.05.09,0,.82v.14c.42-.26.49-.3.62-.27a.28.28,0,0,1,.17.13c.07.11.05.19-.06.73.36-.23.43-.26.56-.23a.28.28,0,0,1,.17.13.3.3,0,0,1,0,.33l0,.06c.31-.17.39-.16.5,0s.06.17-.06.5l.13-.08c.07,0,.3-.18.44,0a.27.27,0,0,1-.07.37h0l-.07,0C79.42,15.4,79.27,15.49,79.17,15.49Z"/>      <path class="a" d="M77.72,17.16h-.08a.29.29,0,0,1-.17-.13l-.41-.61L77,16.25l-.11.07c-.83.5-.84.5-1,.47a.27.27,0,0,1-.17-.13c-.06-.11-.06-.13,0-.46-.33.2-.39.22-.5.19a.27.27,0,0,1-.17-.13c-.05-.09-.05-.09,0-.76l.1-.66c-.45.28-.52.32-.65.28a.28.28,0,0,1-.17-.13c-.11-.18-.11-.18.53-.82l.13-.12c-.32.18-.39.18-.49.16a.29.29,0,0,1-.17-.13c-.12-.21-.12-.21.94-1.26l.48-.47,0-.09.16-.1h0l-.17.1L75.75,12l.46-.27c.49-.3.62-.38.77-.14s.12.25-.75,1.11c.28-.17.31-.17.4-.14a.27.27,0,0,1,.17.13c.12.2.14.25-1.07,1.45l0,.06c.06.11.07.12-.12,1.38v0h0c.44-.27.47-.29.59-.26a.27.27,0,0,1,.16.13c.06.1.06.14,0,.48l.17-.1c.43-.26.43-.26.54-.23a.27.27,0,0,1,.16.12l.25.37.29.44c.29-.16.89-.53,1.32-.79,1.19-.74,1.2-.73,1.34-.7a.28.28,0,0,1,.17.13.27.27,0,0,1-.1.37l-.09,0c-.14.07-.64.38-1,.63C78.1,17,77.86,17.16,77.72,17.16Z"/>      <path class="a" d="M78.59,8.32l-.11,0a.27.27,0,0,1-.1-.1c-.08-.15-.08-.16.25-.68a.23.23,0,0,1-.31-.11c-.06-.1-.08-.13,0-.44-.36.22-.4.23-.51.2a.27.27,0,0,1-.06-.5l.07,0,.48-.29c.53-.33.55-.34.68-.31a.27.27,0,0,1,.15.09c.1.13.06.22,0,.43l0,0c.2-.11.25-.11.34-.09a.28.28,0,0,1,.17.13c.08.14.07.2-.2.64.31-.16.35-.11.44,0a.27.27,0,0,1-.08.37l-.05,0-.91.53A.48.48,0,0,1,78.59,8.32Z"/>      <path class="a" d="M77.23,10.87h-.07a.27.27,0,0,1-.17-.13c-.11-.19-.12-.22.56-.81l-.42.25c-.43.26-.44.26-.54.23a.27.27,0,0,1-.17-.13c-.06-.1-.06-.1.09-.65l.08-.31-.1.06c-.23.14-.26.16-.37.14a.27.27,0,0,1-.17-.13c-.07-.13-.08-.17.14-.52a.22.22,0,0,1-.14,0,.28.28,0,0,1-.17-.13c-.1-.18-.11-.19.91-1.85l0-.07c-.25.15-.32.17-.42.14a.28.28,0,0,1-.17-.13.27.27,0,0,1,.1-.37l.08,0,.5-.3c.56-.35.6-.38.74-.34a.28.28,0,0,1,.17.13c.09.16.09.16-.58,1.26l-.44.72c.13-.07.15-.06.23,0a.27.27,0,0,1,.17.12c.08.13.07.18-.14.53h.11a.28.28,0,0,1,.17.13c.06.11.06.11-.16.94,2.39-1.42,2.42-1.42,2.56-1.38a.27.27,0,0,1,.17.13c.13.23.11.26-1.05,1.27a.28.28,0,0,1,.08.08.27.27,0,0,1-.1.37l-.07,0-.67.4C77.44,10.8,77.32,10.87,77.23,10.87Z"/>      <path class="a" d="M80.85,14.61h-.08a.27.27,0,0,1-.16-.12c-.09-.15-.08-.23.22-.57-.44.27-.51.28-.63.25A.28.28,0,0,1,80,14c-.06-.11-.07-.11.1-.6-.34.21-.41.24-.53.21a.28.28,0,0,1-.17-.13c-.05-.09-.07-.12.05-.77C79,13,79,13,78.88,13a.28.28,0,0,1-.17-.13c-.08-.14-.1-.17.6-1.79l-1,.59c-.42.25-.42.25-.53.22a.27.27,0,0,1-.17-.13c-.14-.25-.09-.35,1.78-2.3l.7-.73h0a.27.27,0,0,1-.17-.13c-.09-.15-.08-.22.27-.67A.27.27,0,0,1,80,7.8c-.07-.13-.08-.17.12-.46h-.05a.27.27,0,0,1-.17-.12c-.06-.11-.07-.14.14-.7-.22.13-.25.14-.34.11a.27.27,0,0,1-.17-.13c-.06-.1-.06-.16,0-.35-.17.09-.23.1-.32.08a.27.27,0,0,1-.17-.13,6.09,6.09,0,0,1-.25-.68l-.09-.27-.44.27c-.77.49-.84.53-1,.49a.28.28,0,0,1-.17-.13.27.27,0,0,1,.1-.37l.1,0c.12-.06.45-.27.67-.41.71-.45.79-.5.94-.46a.28.28,0,0,1,.17.13,5.33,5.33,0,0,1,.22.6l.12.34.22-.14c.46-.29.5-.31.63-.28a.27.27,0,0,1,.17.13c.06.11.07.16,0,.36a.27.27,0,0,1,.21,0,.28.28,0,0,1,.17.12c.06.13.05.15-.06.45l-.1.25c.24-.14.3-.16.4-.14a.27.27,0,0,1,.17.13c.07.13.08.17-.11.45h.06a.28.28,0,0,1,.17.13c.08.14.08.18-.2.54h.1a.28.28,0,0,1,.17.13c.14.24.1.32-1.63,2.12L79,10.6c.76-.44.78-.44.9-.41a.27.27,0,0,1,.15.11c.08.12.07.15-.09.51l-.56,1.31c.36-.22.36-.22.48-.19a.27.27,0,0,1,.17.14.33.33,0,0,1,0,.25l-.1.53,0,0c.45-.28.48-.31.61-.27a.27.27,0,0,1,.17.13c.06.11.07.12-.1.63l.35-.22c.94-.59,1-.62,1.16-.58a.28.28,0,0,1,.17.13c.11.19,0,.3-.53.91a.4.4,0,0,1,.09.1.27.27,0,0,1-.09.37l-.07,0-.5.3C81,14.56,80.92,14.61,80.85,14.61Z"/>      <path class="a" d="M81.23,13h-.07a.27.27,0,0,1-.11-.07c-.17-.17-.13-.22.27-.72l.64-.8h0c-.07,0-.1,0-.15-.1a.27.27,0,0,1,0-.38l.06,0,.7-.41c.31-.18.34-.2.47-.13a.26.26,0,0,1,.11.11c.08.14.09.16-.85,1.35.2-.1.23-.09.3-.07l-.19.5.1-.25.12.24-.55.32C81.45,12.88,81.31,13,81.23,13Z"/>      <path class="a" d="M83.58,17.06h-.07a.27.27,0,0,1-.16-.12c-.06-.1-.06-.11.08-.95-.41.26-.49.3-.62.26a.28.28,0,0,1-.17-.13c-.07-.12-.07-.12.23-1l.19-.57c-1,.58-1,.57-1.11.54a.28.28,0,0,1-.17-.13c-.11-.18-.11-.18,1.09-1.73l.44-.56c-.19.11-.22.1-.3.08a.27.27,0,0,1-.17-.13c-.09-.15-.09-.15.31-.73l.09-.13c-.12,0-.18,0-.25-.13a.27.27,0,0,1,.08-.37l0,0,.44-.26c.47-.28.47-.27.58-.25a.27.27,0,0,1,.16.12c.08.14.1.16-.32.77.35-.2.42-.18.53,0s.11.19-1.23,1.92l-.31.4.2-.12c.25-.16.27-.17.39-.14a.27.27,0,0,1,.17.13c.08.14.08.14-.36,1.46l0,.14c.35-.22.39-.24.51-.21a.27.27,0,0,1,.17.13c.06.1.06.1-.05.73l0,.24.07,0c.41-.24.4-.24.52-.21l-.07.26-.23.13.23-.13.12.24-.3.17C83.77,17,83.66,17.06,83.58,17.06Z"/>      <path class="a" d="M76,18.5H76a.28.28,0,0,1-.17-.13.4.4,0,0,1,0-.22c0-.16,0-.28,0-.38-.66.4-.69.41-.82.38a.28.28,0,0,1-.17-.13,9.28,9.28,0,0,1-.31-1.05h0l-.36.22c-.2.12-.24.15-.35.12a.27.27,0,0,1-.16-.12c0-.08,0-.08,0-.62,0-.17,0-.41.05-.63l-.24.15c-.22.14-.26.16-.37.13a.27.27,0,0,1-.16-.13c-.08-.14-.07-.19.22-.7-.18.09-.28.07-.37-.08s-.1-.18.51-1.11l.15-.22c-.39.23-.42.23-.53.2a.28.28,0,0,1-.17-.13c-.12-.21-.17-.3,1.51-1.85-.34.19-.36.19-.45.17a.27.27,0,0,1-.16-.13c-.11-.19-.12-.21,1.09-2.08l.07-.1h-.1a.28.28,0,0,1-.17-.13c-.08-.14-.08-.15.36-1.32-.3.19-.37.21-.48.18a.28.28,0,0,1-.17-.13C74,8.4,74,8.39,76.59,5.89l0,0-.33.21c-1.52,1-1.6,1-1.77,1a.29.29,0,0,1-.17-.13c-.12-.21-.12-.21.78-.94l.08-.07,0-.15.23-.13-.23.13-.09-.25c.07,0,.49-.28.79-.46.85-.51.85-.52,1-.48a.27.27,0,0,1,.17.13c.05.09.08.15,0,.25.83-.5,1-.54,1.12-.51a.31.31,0,0,1,.18.13c.12.21.12.21-1.46,1.73L75.45,7.75a.28.28,0,0,1,.09.09c.07.12.07.12-.22.88l-.16.44c.21-.13.29-.15.39-.12a.28.28,0,0,1,.17.13c.1.16.1.16-.63,1.27l-.59.91c1.6-.94,1.6-.94,1.74-.91a.27.27,0,0,1,.17.13c.1.19.1.19-.58.81-.37.33-1.06,1-1.65,1.51h0a.27.27,0,0,1,.17.13c.1.18.09.21-.66,1.34a.21.21,0,0,1,.12,0,.28.28,0,0,1,.17.13c.08.14.08.17-.22.68a.26.26,0,0,1,.2,0,.28.28,0,0,1,.17.13c.05.09.05.09,0,1.2.41-.25.45-.26.57-.23a.28.28,0,0,1,.17.13s.06.18.12.39l.19.68.45-.27C76,17,76,17,76.07,17a.27.27,0,0,1,.17.13c0,.07,0,.09,0,.63l.28-.18c.62-.4.69-.44.83-.4l.09,0c.1,0,.54.18.86.28l.93.3c.31-.16,1.32-.76,1.88-1.1.91-.54.91-.55,1-.52a.27.27,0,0,1,.16.13c0,.06.05.09.16,1,2.07-1.22,2.08-1.23,2.23-1s.1.18-.5.94h0l-.07.26-.24.13.24-.13.1.25-.51.3c-.45.27-.45.27-.57.24a.28.28,0,0,1-.17-.13c-.09-.16-.1-.2.4-.83l-.73.43c-.42.25-.49.29-.64.14a.26.26,0,0,1-.06-.09.63.63,0,0,1,0-.19c0-.37-.07-.62-.1-.8l-.49.29c-2.08,1.24-2.08,1.23-2.23,1.19l-.09,0c-.11,0-.58-.19-.93-.3l-.86-.27-.48.3C76.31,18.4,76.15,18.5,76,18.5Z"/>    </g>    <g>      <path class="a" d="M98,12.55h-.07a.31.31,0,0,1-.18-.13.27.27,0,0,1,.1-.37A.28.28,0,0,1,98,12c.3-.11,1.56-.91,2.49-1.49,2.27-1.43,2.39-1.47,2.57-1.42a.29.29,0,0,1,.18.13c.08.14.08.14-.37,1.12l-.31.68.77-.46c.75-.45.75-.45.86-.42l-.07.26-.23.13.23-.13.11.25-.63.37c-1.47.89-1.49.89-1.63.85a.28.28,0,0,1-.17-.13c-.09-.16-.09-.17.57-1.63l.09-.21c-.46.27-1.13.69-1.7,1.05C98.67,12.31,98.23,12.55,98,12.55Z"/>      <path class="a" d="M97.3,18.87h-.07a.28.28,0,0,1-.17-.13c-.09-.16-.09-.16.42-.93l.08-.12-.29.17c-.75.46-.75.45-.87.42a.27.27,0,0,1-.17-.13c-.09-.16-.08-.24.26-.58-.22.12-.27.12-.36.1a.28.28,0,0,1-.17-.13c-.1-.18-.11-.2.49-.8-.29.17-.35.16-.45.14a.29.29,0,0,1-.17-.13c-.09-.16-.13-.23.6-1.06-.46.27-.49.26-.6.23a.28.28,0,0,1-.17-.13c-.1-.17-.12-.21,1.05-2l-.67.39c-.41.24-.41.25-.53.22a.27.27,0,0,1-.16-.13c-.15-.26-.09-.38,2-2.45l.88-.86-1.45.91c-2,1.28-2.12,1.31-2.31,1.27a.29.29,0,0,1-.18-.13c-.09-.15-.13-.23.27-.58-1.68,1-1.69,1-1.85,1a.27.27,0,0,1-.17-.13c-.06-.1-.1-.17,0-.28-1.16.71-1.27.72-1.42.69a.3.3,0,0,1-.18-.13c-.11-.19-.14-.23.93-1.2L90.85,13c-1.86,1.14-1.85,1.14-2,1.1a.27.27,0,0,1-.17-.13.23.23,0,0,1,0-.27c-.37.2-.45.2-.54.17a.3.3,0,0,1-.18-.13c-.09-.15-.07-.21.4-1.24l.06-.13c-.41.26-.49.29-.62.26a.28.28,0,0,1-.17-.13.27.27,0,0,1,.1-.37l.09,0,.47-.29c.51-.33.59-.38.74-.35a.27.27,0,0,1,.17.13c.09.15.06.21-.35,1.13l-.16.36c.45-.26,1.09-.66,1.61-1,1.88-1.17,1.91-1.16,2.07-1.12a.29.29,0,0,1,.17.13c.06.1.09.16,0,.26,1.09-.65,1.23-.67,1.36-.64a.3.3,0,0,1,.18.13c.11.2.11.2-.53.77l-.57.51.8-.5c2.69-1.68,3-1.84,3.22-1.78a.3.3,0,0,1,.18.13c.05.09.09.16,0,.26.34-.18.43-.18.52-.15a.3.3,0,0,1,.18.13c.08.13.11.19-.14.41,1.3-.81,1.53-.89,1.71-.84a.32.32,0,0,1,.18.14c.15.25.11.33-1.88,2.27l-.85.83c.54-.31.57-.3.66-.27a.27.27,0,0,1,.15.11c.1.15.08.17-.19.6l-1,1.53.38-.23c.8-.49.8-.49.93-.45a.27.27,0,0,1,.15.1c.13.18,0,.3-.16.5l-.71.79c.73-.46.76-.47.9-.43a.28.28,0,0,1,.17.13c.1.17.12.21-.44.78.28-.16.34-.16.43-.14a.28.28,0,0,1,.17.13c.09.16.07.26-.24.58a.27.27,0,0,1,.23,0,.28.28,0,0,1,.17.13c.1.17.06.25-.42,1a.29.29,0,0,1,.41.08.27.27,0,0,1-.09.37l-.07,0-.41.25C97.51,18.8,97.4,18.87,97.3,18.87Z"/>      <path class="a" d="M96.81,6.7h0l.07-.26.23-.14-.23.14-.11-.25c.17-.08,2.63-1.51,3.81-2.2s1.07-.62,1.22-.44.08.15-.09.4h0c-.13.19-.38.5-.82,1l.21-.12c1.35-.79,1.35-.78,1.49-.57a.27.27,0,0,1-.07.37l0,0-1.11.64c-1.75,1-1.75,1-1.9.8a.27.27,0,0,1,0-.15c0-.1,0-.1.24-.38l.75-.89A27.3,27.3,0,0,1,96.81,6.7Z"/>      <path class="a" d="M94.81,10.35h-.07a.28.28,0,0,1-.17-.13c-.1-.16-.1-.16.73-1.32l.29-.4c-.94.58-1,.58-1.1.54a.28.28,0,0,1-.17-.13c-.07-.13-.1-.21.16-.49a.19.19,0,0,1-.12,0,.27.27,0,0,1-.16-.13C94,8,94,8,96.58,5.85,94.53,7.13,94.23,7.26,94,7.21a.32.32,0,0,1-.18-.14c-.1-.17-.1-.17.7-1.33L95,5.06c-4.54,2.77-4.67,2.73-4.84,2.69A.29.29,0,0,1,90,7.62c-.07-.12-.07-.12.32-1.23l.18-.5-1.09.65c-1.41.86-1.41.85-1.55.81a.27.27,0,0,1-.17-.13c-.09-.16-.09-.16.32-.73l.05-.08c-.17.09-.2.08-.27.06l.07-.26.24-.12-.24.12L87.74,6l.56-.33c.59-.35.59-.35.71-.32a.27.27,0,0,1,.16.12c.08.14.1.17-.35.8l.29-.18c1.73-1,1.74-1,1.89-1a.27.27,0,0,1,.17.13c.07.12.07.12-.36,1.36L90.66,7c1-.56,3.45-2,4.35-2.58S95.77,4,95.9,4a.27.27,0,0,1,.16.12c.11.19.11.2-1.08,1.94l-.18.26C95.4,6,96.23,5.43,96.86,5c2.08-1.31,2.11-1.3,2.27-1.25a.29.29,0,0,1,.17.13c.15.25.15.25-2,2l-1,.86c.15-.05.19,0,.27.11s.1.22-.22.52a.24.24,0,0,1,.18,0,.28.28,0,0,1,.17.13c.1.18.1.18-1,1.67l-.06.08.49-.3c.5-.3.49-.3.61-.27L96.72,9l-.23.14L96.72,9l.12.24-.38.23C95.17,10.22,94.94,10.35,94.81,10.35Z"/>      <path class="a" d="M93.77,5H93.7a.28.28,0,0,1-.17-.13c-.1-.18-.11-.23.52-.91-.36.22-.42.21-.52.19A.28.28,0,0,1,93.36,4c-.1-.18-.1-.18.88-1.83l0,0-.1.06c-.74.47-.8.5-.95.47a.28.28,0,0,1-.17-.13c-.09-.17-.08-.2.27-.59l.06-.24.23-.14-.23.14-.1-.25.47-.28c.56-.34.57-.34.68-.31a.27.27,0,0,1,.17.13.24.24,0,0,1,0,.3c.3-.17.36-.18.46-.15a.28.28,0,0,1,.17.13c.09.15.09.15-.52,1.17l-.43.72.16-.1c.94-.59,1-.63,1.16-.59a.28.28,0,0,1,.17.13c.11.18.11.19-.6.93.38-.22.47-.23.57-.21a.29.29,0,0,1,.18.13.27.27,0,0,1-.23.4c-.17.08-.71.42-1,.63C94,4.87,93.88,5,93.77,5Z"/>      <path class="a" d="M95.83,5.19h-.07A.29.29,0,0,1,95.58,5c-.06-.11-.06-.11.08-.55l.13-.41c-.4.25-.41.25-.53.21a.27.27,0,0,1-.16-.12C95,4,95,4,95.43,3.1l-.09.06c-.23.15-.36.06-.43,0s-.05-.11,0-.47.11-.75.16-1.13l-.31.19c-.16.1-.37.23-.52,0a.27.27,0,0,1,.07-.37l0,0,.13-.08c.8-.5.85-.51,1-.48a.28.28,0,0,1,.17.13c.06.1.07.13-.13,1.52.44-.27.49-.26.59-.23a.28.28,0,0,1,.17.13c.08.12.08.12-.21.77l-.13.3c.29-.17.31-.16.41-.14a.27.27,0,0,1,.17.13c.07.11.07.12-.2,1l.82-.5c.69-.43.69-.43.82-.4a.27.27,0,0,1,.13.07c.1.1.11.11,0,.69l.74-.46c1.09-.68,1.13-.7,1.28-.66a.29.29,0,0,1,.17.13c.07.12.06.16-.12.61l1.4-.85a.31.31,0,0,1,.3,0,.27.27,0,0,1,.11.12s0,0,0,.17c.08.56.13.91.16,1.12l0,0c.55-.35.63-.39.77-.36a.28.28,0,0,1,.17.13.27.27,0,0,1-.1.37l-.09,0-.47.28c-.41.26-.44.28-.57.25a.27.27,0,0,1-.17-.13,5.62,5.62,0,0,1-.22-1.29c-1.7,1.06-1.78,1-1.91,1a.29.29,0,0,1-.17-.13c-.07-.12-.06-.14.11-.58L99,4.23c-1.24.78-1.35.82-1.51.79a.29.29,0,0,1-.18-.13c0-.12,0-.13.07-.57l0,0C96.21,5.06,96,5.19,95.83,5.19Z"/>      <path class="a" d="M97.25,7.19h-.06l.07-.26.23-.14-.23.14-.09-.25c.13-.06,1.26-.73,1.81-1s.67-.39.78-.36l.06,0,.25.14L101,6l.59-.35c1-.59,1-.59,1.12-.56a.28.28,0,0,1,.17.13.27.27,0,0,1-.1.37l-.07,0c-.12.06-.55.32-.84.5-.82.49-.82.49-.94.46l-.09,0L99.8,5.9l-.12-.07-.43.25A10.37,10.37,0,0,1,97.25,7.19Z"/>      <path class="a" d="M97.57,11.06h-.07a.28.28,0,0,1-.17-.13c-.07-.11-.07-.15.09-.5-.69.42-.73.41-.84.38a.28.28,0,0,1-.17-.13c-.06-.11-.06-.11.13-.72l.26-.81c-.44.26-.45.26-.56.23a.27.27,0,0,1-.16-.13c-.06-.11-.08-.17.1-.46h0a.27.27,0,0,1-.17-.13c-.09-.15-.05-.24.28-.85-.15.09-.2.09-.28.07a.28.28,0,0,1-.17-.13c-.07-.13-.07-.13.28-1l0-.1c-.16.09-.18.08-.27.06l.07-.26.23-.14-.23.14-.1-.25.41-.24c.37-.22.37-.22.49-.19a.27.27,0,0,1,.16.12c.07.13.07.13-.3,1.06l0,0c.23-.14.3-.16.4-.13a.28.28,0,0,1,.17.13c.09.16.05.25-.27.84.15-.08.21-.09.29-.07a.27.27,0,0,1,.17.12.33.33,0,0,1-.08.38l-.06.08c.13,0,.19,0,.26.13s.09.16-.35,1.54l.68-.41c.15-.09.2-.13.32-.09a.27.27,0,0,1,.16.13c.07.12.07.15-.12.56l.53-.33c1.14-.71,1.18-.73,1.33-.69a.28.28,0,0,1,.13.07l.7.51.19.13.1-.06c2-1.24,2.07-1.23,2.22-1.19a.28.28,0,0,1,.17.13,7.3,7.3,0,0,1,.25.76l.11.37,0,0c.47-.3.55-.34.68-.31a.28.28,0,0,1,.17.13.27.27,0,0,1-.1.37l-.08,0-.39.24c-.39.24-.42.26-.55.24a.27.27,0,0,1-.17-.13,6.9,6.9,0,0,1-.24-.75l-.13-.42c-.3.16-.87.5-1.71,1-.36.22-.36.21-.47.19l-.1-.06-.31-.22-.63-.45c-.2.11-.62.37-.94.57C97.91,10.94,97.7,11.06,97.57,11.06Z"/>      <path class="a" d="M98.4,13.05h-.07a.27.27,0,0,1-.17-.13.27.27,0,0,1,.1-.37l.09,0c.17-.08.83-.48,1.28-.75,1.12-.68,1.13-.68,1.27-.65a.27.27,0,0,1,.17.13c0,.08,0,.09,0,.7h0c.35-.2.89-.54,1.23-.75.79-.49.79-.5.92-.46a.27.27,0,0,1,.17.13c0,.08.06.1,0,.63l.28-.17c.59-.37.62-.4.76-.36a.27.27,0,0,1,.17.13.27.27,0,0,1-.09.37l-.07,0-.48.29c-.76.47-.82.5-1,.47a.28.28,0,0,1-.17-.13c0-.09,0-.09,0-.39l0-.23-.26.16c-1.58,1-1.68,1-1.85,1a.29.29,0,0,1-.17-.13c0-.07,0-.07,0-.57,0,0,0-.07,0-.1l-.66.4C98.74,12.93,98.52,13.05,98.4,13.05Z"/>      <path class="a" d="M98,17.89H97.9a.27.27,0,0,1-.17-.13c-.08-.13-.09-.15.27-.84a.31.31,0,0,1-.25.05.28.28,0,0,1-.17-.12c-.08-.13-.08-.19.14-.54a.21.21,0,0,1-.12,0,.27.27,0,0,1-.17-.13c-.08-.13-.08-.13.25-.83l.09-.19c-.24.15-.27.15-.37.13a.27.27,0,0,1-.17-.13c-.08-.14-.07-.16.32-1.21l0-.11-.18.11a.39.39,0,0,1-.33,0,.27.27,0,0,1-.1-.1c-.11-.19-.12-.21.66-.91-.52.32-.54.32-.65.29a.27.27,0,0,1-.16-.13c-.07-.13-.09-.16.18-.58h0a.27.27,0,0,1-.06-.5L97,12l.34-.21c.41-.25.43-.26.56-.24a.27.27,0,0,1,.17.13c.08.15,0,.22-.12.45h0c1.47-.9,1.52-.89,1.67-.86a.29.29,0,0,1,.17.13c.14.24.1.29-1.45,1.66.08.14.08.16-.26,1l-.1.27c.27-.16.34-.18.44-.15a.28.28,0,0,1,.17.13c.08.14.07.18-.31,1,.22-.13.24-.12.34-.1a.27.27,0,0,1,.17.13c.08.13.08.17-.16.54a.2.2,0,0,1,.14,0,.27.27,0,0,1,.16.12c.08.14.08.14-.23.73l-.07.13c.21-.12.25-.12.33-.1l-.06.26-.23.14.23-.14.09.25-.4.24C98.16,17.83,98.06,17.89,98,17.89Z"/>      <path class="a" d="M97.51,19.39c-.08,0-.12,0-.18-.14l-.26-.47-.25-.44-.2.13c-.41.26-.47.3-.6.26a.27.27,0,0,1-.17-.4l.1-.18a.28.28,0,0,1-.37-.1c-.06-.11-.06-.11.15-.72l.22-.64c-.31.18-.36.2-.47.17a.28.28,0,0,1-.17-.13c-.07-.13-.09-.15.35-1.21h0c-.27.16-.29.17-.4.14a.27.27,0,0,1-.17-.13c-.08-.14-.07-.17.21-.59-.15.07-.25.06-.35-.09s-.08-.2.18-.61a.22.22,0,0,1-.17,0,.28.28,0,0,1-.17-.13c-.07-.13-.08-.14.25-1.21l-.51.31c-1,.59-1,.59-1.11.56l-.1-.05-.55-.29-.66-.35c-.25.14-.92.52-2,1.16-.37.22-.37.22-.49.17a.28.28,0,0,1-.14-.11l-.15-.24-.27-.42-.76.46c-.35.22-.35.22-.47.19a.27.27,0,0,1-.17-.13c-.06-.11-.06-.15.07-.46-.25.14-.28.14-.37.11a.27.27,0,0,1-.16-.13c-.09-.16-.1-.17.67-1.7l0-.09c-.32.19-.39.22-.5.19a.28.28,0,0,1-.17-.13.27.27,0,0,1,.1-.37l.08,0,.47-.29c.53-.34.58-.36.71-.33a.28.28,0,0,1,.17.13c.08.14.08.14-.43,1.15l-.34.68c.23-.14.25-.14.35-.11a.27.27,0,0,1,.17.13c.06.1.06.15-.06.44.58-.36.65-.36.76-.33a.28.28,0,0,1,.17.13l.39.63,0,0c2.19-1.31,2.2-1.3,2.35-1.26a.27.27,0,0,1,.11.06L93,13l.48.25.75-.45c1.13-.69,1.14-.69,1.29-.66a.27.27,0,0,1,.17.13c.07.12.07.12-.15.83l-.12.39.17-.11c.22-.13.4-.25.55,0s.09.18-.19.62a.27.27,0,0,1,.17,0,.28.28,0,0,1,.17.13c.08.13.08.19-.16.57a.22.22,0,0,1,.13,0,.27.27,0,0,1,.16.12c.07.12.07.12-.18.73L96,16c.32-.19.33-.2.45-.18a.27.27,0,0,1,.17.13c.07.13.08.13-.35,1.36.26-.16.31-.17.41-.15a.27.27,0,0,1,.17.13c.06.09.08.13-.08.44a.26.26,0,0,1,.19,0,.27.27,0,0,1,.17.13l.38.67.13.22.24-.14c.6-.35.59-.35.71-.32l-.07.26-.24.13.24-.13.12.24-.48.28A2,2,0,0,1,97.51,19.39Z"/>      <path class="a" d="M88.88,12.42h-.08a.29.29,0,0,1-.18-.13.27.27,0,0,1,.1-.37.26.26,0,0,1,.12,0c.16-.07.67-.4,1-.62,1-.64,1.1-.69,1.26-.65a.29.29,0,0,1,.13.07l.48.33.5.35c.27-.14,1-.58,1.46-.88,1.4-.87,1.42-.87,1.58-.83a.29.29,0,0,1,.17.13c.08.14.09.2-.16.46h.08a.28.28,0,0,1,.17.13.27.27,0,0,1-.1.37l-.09,0c-.14.07-.61.35-.89.53-.66.4-.66.4-.78.37a.27.27,0,0,1-.17-.13c-.06-.11-.08-.19,0-.34-1.18.73-1.27.75-1.41.71a.29.29,0,0,1-.14-.08l-.55-.38L91,11.17c-.19.1-.57.35-.87.54C89.24,12.29,89,12.42,88.88,12.42Z"/>      <path class="a" d="M94.26,10.44c-.07,0-.12,0-.18-.13s-.06-.21.12-.47a.16.16,0,0,1-.08,0,.28.28,0,0,1-.17-.13c-.06-.11-.06-.11.26-1.15l.13-.42c-.37.23-.41.24-.53.21a.27.27,0,0,1-.17-.13c-.07-.12-.08-.14.23-1.2L93,7.54c-.63.4-.63.39-.75.36a.27.27,0,0,1-.17-.12c0-.05,0-.06-.13-.6V7.13l-.62.37c-1.47.87-1.47.87-1.6.83a.27.27,0,0,1-.16-.12c-.07-.12-.07-.19.06-.4-1,.63-1,.63-1.19.59a.28.28,0,0,1-.17-.13s0,0-.11-.47L88,6.93,88,7c-.74.43-.76.44-.9.23A.27.27,0,0,1,87,7c0-.08,0-.08.18-.34l.51-.77c-.17.09-.2.08-.26.06l.08-.26-.12-.24L88.28,5c.19-.11.27-.16.41-.08a.28.28,0,0,1,.1.1c.07.13.08.15-.65,1.25a.18.18,0,0,1,.14,0,.27.27,0,0,1,.16.12,7.46,7.46,0,0,1,.28,1.32v0l.77-.46c1-.58,1-.58,1.09-.54a.28.28,0,0,1,.17.13c.07.12.06.19-.09.42L91.07,7c1-.61,1-.62,1.16-.58a.27.27,0,0,1,.16.13c0,.05,0,.05.11.51l0,.13.21-.13c1.37-.85,1.46-.88,1.61-.84a.29.29,0,0,1,.17.13c.06.11.06.11-.1.66l-.15.5c.39-.24.44-.26.56-.23a.27.27,0,0,1,.17.13c.06.12.06.12-.3,1.29L94.63,9c.32-.2.37-.22.49-.2a.27.27,0,0,1,.17.12c.06.11.08.15-.12.46.12,0,.17,0,.24.13a.27.27,0,0,1-.09.37l0,0-.46.27A1.56,1.56,0,0,1,94.26,10.44Z"/>      <path class="a" d="M88.93,6.31c-.08,0-.11-.05-.17-.14a.27.27,0,0,1,.09-.37l.06,0L90,5.12c1-.61,1-.61,1.15-.58a.27.27,0,0,1,.16.12c.05.08.06.09,0,.63l.88-.53C94,3.69,94,3.7,94.14,3.74a.28.28,0,0,1,.17.13c.08.13.08.14-.29.9a.24.24,0,0,1,.19,0l-.15.52L94.13,5l.13.24-.09.05c-.68.41-.71.42-.83.39a.27.27,0,0,1-.16-.12c-.08-.14-.08-.14.31-.93h0l-1,.59c-1.42.86-1.42.86-1.56.82a.28.28,0,0,1-.17-.13c0-.09,0-.09,0-.44l0-.17-.48.29A5.35,5.35,0,0,1,88.93,6.31Z"/>      <path class="a" d="M93.17,4.56H93.1a.27.27,0,0,1-.17-.13c-.08-.13-.08-.18.2-.65a.25.25,0,0,1-.18,0,.27.27,0,0,1-.17-.13c-.11-.2-.11-.2,1.21-2l0,0-.16.1c-.93.58-1,.62-1.13.58a.28.28,0,0,1-.17-.13c-.11-.19-.1-.2.47-.76l0,0,0-.16.24-.13-.24.13L93,.94l.49-.29c.63-.38.73-.43.87-.2a.24.24,0,0,1,0,.3c.43-.25.51-.27.62-.24a.29.29,0,0,1,.18.13c.1.17.1.17-.73,1.3l-.58.8h.09a.28.28,0,0,1,.17.13c.08.13.09.14-.22.66a.29.29,0,0,1,.38.11.27.27,0,0,1-.1.37l-.09,0-.43.26C93.35,4.51,93.26,4.56,93.17,4.56Z"/>    </g>    <g>      <path class="a" d="M117,14h-.07a.27.27,0,0,1-.17-.13c-.1-.18-.14-.24.57-.89l-.05,0c-1,.6-1,.6-1.1.57a.27.27,0,0,1-.17-.13c-.14-.24-.16-.28,1.49-1.56-.8.47-.84.45-.94.43a.27.27,0,0,1-.17-.13c-.14-.25-.13-.35,1.24-1.28l-.07-.08c-.1-.17-.1-.17.7-1.09l1.41-1.63-.42.24c-2.33,1.35-2.33,1.35-2.44,1.31a.27.27,0,0,1-.19-.2c0-.12,0-.12.28-.53l.54-.71c-3.63,2.11-3.62,2.1-3.75,2.07l.07-.26.23-.14-.23.14-.11-.25c.17-.08,2.77-1.6,3.89-2.24.88-.51.88-.51,1-.47a.27.27,0,0,1,.14.12c.08.14.1.16-.78,1.32L119,7.85c1.88-1.09,1.88-1.09,2-.86s.13.23-2,2.68l.58-.35c1.59-1,1.6-1,1.75-.93a.28.28,0,0,1,.17.13c.13.22.09.33-.8,1a.27.27,0,0,1,.13.11c.14.25.15.26-1.6,1.61a.37.37,0,0,1,.25,0,.3.3,0,0,1,.18.13c.12.2.12.2-.77,1l-.54.47a.29.29,0,0,1,.1.1.27.27,0,0,1-.1.37l-.08,0-.55.33C117.21,13.88,117.09,14,117,14Z"/>      <path class="a" d="M114.33,19.74h-.07a.28.28,0,0,1-.17-.13c-.09-.16-.09-.22.46-1.24-1.07.64-1.08.64-1.22.6a.27.27,0,0,1-.17-.13c-.09-.15-.1-.18.45-.79-.39.21-.44.2-.52.18a.28.28,0,0,1-.17-.13c-.09-.19,0-.3.11-.4l.56-.59-.46.27a.39.39,0,0,1-.33,0,.27.27,0,0,1-.11-.11c-.07-.13-.07-.13.19-.57.16-.28.52-.9.81-1.42-1.07.65-1.11.63-1.23.6a.28.28,0,0,1-.17-.13c-.1-.17-.1-.18.74-1.25-.69.41-.73.4-.84.38a.28.28,0,0,1-.17-.13c-.09-.16-.09-.16.64-1.27l.27-.4c-.92.57-.94.57-1.08.53a.28.28,0,0,1-.17-.13c-.08-.13-.1-.2.14-.48a.19.19,0,0,1-.14,0,.27.27,0,0,1-.17-.13c-.11-.18-.11-.2.84-1.57-.78.48-.86.51-1,.47a.29.29,0,0,1-.17-.13c-.12-.2-.12-.2,1.3-1.69l.79-.84c-3.28,2-3.38,2-3.54,1.92a.29.29,0,0,1-.17-.13c-.06-.1-.06-.1.13-1.07l.1-.51-1.26.75c-1.47.89-1.46.89-1.61.85a.27.27,0,0,1-.17-.13c-.09-.14-.09-.14.28-.71l.05-.08c-.33.18-.38.15-.49,0a.27.27,0,0,1,.09-.37l0,0,.55-.32c.56-.33.56-.33.68-.3a.27.27,0,0,1,.17.13c.08.14.09.16-.31.78l.44-.26c1.79-1.09,1.81-1.08,2-1a.28.28,0,0,1,.17.13c.06.1.06.1-.16,1.23l-.08.4c.89-.47,3-1.74,3.74-2.22s.69-.42.8-.39a.27.27,0,0,1,.17.13c.14.24.14.24-2,2.47l0,0c.3-.18.36-.19.46-.17a.28.28,0,0,1,.17.13c.1.17.1.17-.63,1.22l-.29.42.24-.14c.74-.43.74-.43.85-.4a.27.27,0,0,1,.16.13c.09.16.09.21-.21.49a.25.25,0,0,1,.2,0,.28.28,0,0,1,.17.13c.1.17.1.17-.86,1.62l0,.07.5-.3c.5-.3.61-.37.75-.14s.11.19-.8,1.35l.57-.35c.2-.12.24-.15.37-.11a.27.27,0,0,1,.15.12c.09.16.11.19-.91,2,1.18-.7,1.21-.66,1.33-.45s.13.22-.44.87l.14-.09c.17-.11.37-.23.52,0s.11.19-.53.91c.56-.33.62-.35.75-.15s.09.16-.29.88l-.23.42c.29-.18.34-.19.44-.16a.28.28,0,0,1,.17.13.27.27,0,0,1-.1.37l-.07,0-.36.22C114.56,19.66,114.43,19.74,114.33,19.74Z"/>      <path class="a" d="M110.6,8.86h-.08a.27.27,0,0,1-.17-.13c-.1-.18-.12-.2.73-1.3-.61.38-.68.41-.82.37a.28.28,0,0,1-.17-.13c-.1-.16-.1-.16.75-1.74l0,0-.1.06c-.69.44-.74.47-.9.44a.28.28,0,0,1-.17-.13c-.09-.16-.08-.19.24-.57l.06-.24.23-.14-.23.14-.1-.25.43-.25c.51-.31.52-.31.64-.28a.27.27,0,0,1,.17.12.24.24,0,0,1,0,.31c.29-.17.36-.18.46-.15a.28.28,0,0,1,.17.13c.08.14.08.14-.43,1.1l-.37.7.14-.09c.88-.55.93-.58,1.09-.55a.28.28,0,0,1,.17.13c.1.18.1.18-.58,1.05l-.2.26c.67-.42.76-.45.9-.41a.29.29,0,0,1,.17.13.27.27,0,0,1-.1.37.28.28,0,0,1-.12,0c-.16.07-.67.39-1,.59C110.84,8.78,110.7,8.86,110.6,8.86Z"/>      <path class="a" d="M117.86,13h-.07a.28.28,0,0,1-.17-.13c-.14-.24-.18-.31,1.94-2.17h0a.27.27,0,0,1-.16-.12c-.12-.21-.12-.21.75-.92h0a.29.29,0,0,1-.11-.1c-.12-.2-.09-.27.84-1.22l-.06-.07c0-.07-.05-.08-.12-1V7l-.52.32c-.92.57-1,.58-1.09.55a.28.28,0,0,1-.17-.13,3.41,3.41,0,0,1-.18-.58l0-.08-.95.57c-1.31.81-1.33.8-1.47.76a.28.28,0,0,1-.17-.13c0-.06,0-.06-.09-.64l-.47.29c-1.69,1-1.73,1-1.88,1a.28.28,0,0,1-.17-.13c-.07-.12-.07-.17.11-.5-1.11.68-1.12.68-1.26.64a.28.28,0,0,1-.17-.13c-.07-.12-.07-.12.17-.77l.07-.2c-.33.21-.35.22-.47.19a.27.27,0,0,1-.17-.13c-.07-.13-.07-.15.26-1.16l0-.12-.21.12a.38.38,0,0,1-.33,0,.27.27,0,0,1-.1-.1c-.07-.13-.07-.15.19-.63-.16.08-.29.1-.4-.07s-.08-.14.06-.44c-.22.13-.27.13-.36.11a.27.27,0,0,1-.17-.13.27.27,0,0,1,.11-.37l.07,0,.42-.25c.49-.3.51-.32.64-.28a.27.27,0,0,1,.19.18c0,.11,0,.15-.07.33l0,.06c.15-.08.2-.08.28-.06a.27.27,0,0,1,.17.13c.07.13.07.18-.17.62.27-.13.3-.08.39.06s.08.14-.2,1l-.09.27c.31-.19.39-.21.5-.19a.28.28,0,0,1,.17.13c.07.13.07.15-.23,1l.43-.26c.9-.55.9-.55,1-.51a.27.27,0,0,1,.17.13c.07.13.07.16-.15.56l.89-.54c.91-.56.92-.56,1-.53a.27.27,0,0,1,.17.13c0,.05,0,.05.06.41l0,.25.89-.54c1.3-.8,1.31-.8,1.46-.76a.27.27,0,0,1,.17.13,2.26,2.26,0,0,1,.14.45l.06.21.58-.36c.92-.57,1-.59,1.1-.55a.28.28,0,0,1,.17.13c0,.07,0,.07.09.71l0,.49,0,0c.49-.31.56-.36.71-.32a.28.28,0,0,1,.17.13c.1.18.11.19-.48.79.16-.09.2-.08.27-.06a.27.27,0,0,1,.17.13c.11.19.14.24-.6.87a.26.26,0,0,1,.08.09c.13.22.13.22-1.13,1.31l-.93.82c.41-.24.45-.23.55-.21a.28.28,0,0,1,.17.13.27.27,0,0,1-.1.37l-.09,0c-.15.07-.67.39-1,.62C118.15,12.88,118,13,117.86,13Z"/>      <path class="a" d="M116.78,14.41h-.08a.27.27,0,0,1-.17-.13c0-.06,0-.06-.12-.72l0-.39-.5.3c-.14.08-.29.17-.44,0l0-.05c-.11-.19-.11-.19,1-1.26l.51-.5-.18.11c-.58.36-.57.36-.7.33a.27.27,0,0,1-.17-.13c-.14-.25-.12-.28,1.31-1.37a.27.27,0,0,1-.08-.09,6.34,6.34,0,0,1-.27-1l-.06-.23-1,.6c-1.41.89-1.48.91-1.65.87a.29.29,0,0,1-.17-.13.27.27,0,0,1,.22-.4c.19-.08.86-.5,1.31-.79,1.28-.8,1.33-.82,1.49-.78a.28.28,0,0,1,.17.13,3.21,3.21,0,0,1,.17.62l.15.61,1-.6c.69-.41.69-.42.81-.39a.27.27,0,0,1,.17.13c.13.22.1.29-.91,1.07a.29.29,0,0,1,.14.12c.12.21.12.22-1.93,2.19l0,.06c0,.07,0,.08.15.89l0,.24.61-.37c1.21-.74,1.23-.74,1.38-.71a.28.28,0,0,1,.17.13.27.27,0,0,1-.1.37l-.09,0c-.15.07-.7.41-1.08.64C117,14.31,116.88,14.41,116.78,14.41Z"/>      <path class="a" d="M114.94,18.89h-.07a.27.27,0,0,1-.17-.13c-.08-.14-.09-.16.19-.59a.24.24,0,0,1-.12,0,.28.28,0,0,1-.17-.13c-.07-.11-.09-.15.22-.86-.19.11-.23.11-.32.09a.28.28,0,0,1-.17-.13c-.07-.11-.08-.14.26-1.58l-.17.1c-.16.09-.36.22-.5,0s-.08-.19.17-1.3l.09-.42c-.38.24-.42.26-.55.23a.27.27,0,0,1-.17-.13c-.07-.12-.07-.18.11-.48a.24.24,0,0,1-.12,0,.27.27,0,0,1-.16-.12c-.07-.12-.08-.17.09-.43a.14.14,0,0,1-.08,0,.28.28,0,0,1-.17-.13c-.07-.12-.08-.14.21-.73-.21.11-.32.12-.43-.05s-.07-.19.08-.44h-.07a.27.27,0,0,1-.17-.13c-.08-.14-.07-.19.28-1.17l0-.14c-.2.12-.27.15-.38.12a.27.27,0,0,1-.17-.13.27.27,0,0,1,.1-.37l.08,0,.32-.2c.39-.25.45-.29.59-.25a.27.27,0,0,1,.17.13c.08.13.06.19-.25,1l-.09.27c.29-.18.33-.2.45-.17a.27.27,0,0,1,.17.12c.07.13.07.19-.09.43h.08a.27.27,0,0,1,.17.13c.08.12.06.16-.12.5L114,12c.14-.08.2-.09.29-.07a.27.27,0,0,1,.17.13c.07.12.08.17-.09.43h.08a.27.27,0,0,1,.17.13c.08.13.07.17-.13.49a.25.25,0,0,1,.13,0,.28.28,0,0,1,.17.13c.07.12.07.15-.16,1.19l-.11.5c.44-.26.46-.25.56-.22a.27.27,0,0,1,.14.1c.08.1.07.12,0,.48s-.17.75-.26,1.15l0,0c.39-.24.41-.24.52-.22a.27.27,0,0,1,.15.09c.1.13.06.23,0,.4l-.24.53c.23-.14.27-.15.38-.13a.28.28,0,0,1,.17.13c.08.13.09.17-.16.56a.25.25,0,0,1,.19,0,.27.27,0,0,1,.17.13.27.27,0,0,1-.1.37l-.07,0-.38.23C115.15,18.82,115,18.89,114.94,18.89Z"/>      <path class="a" d="M114.33,20.25h-.08a.27.27,0,0,1-.16-.13,3.48,3.48,0,0,1-.19-.74c-.62.37-.63.37-.75.34a.27.27,0,0,1-.16-.13c-.05-.09-.05-.09.14-1.26l0-.16c-.38.23-.44.25-.56.22a.27.27,0,0,1-.17-.13c-.08-.13-.09-.14.18-.61a.26.26,0,0,1-.21,0,.27.27,0,0,1-.17-.13c-.08-.13-.07-.17.21-1.08l.09-.28c-.29.19-.37.22-.49.19a.28.28,0,0,1-.17-.13c-.08-.14-.06-.22.16-.58-.17.07-.24,0-.33-.09s-.07-.12.08-.61l.21-.71c-.29.18-.36.2-.47.18a.27.27,0,0,1-.17-.13c-.06-.09-.06-.09.19-1.11l.1-.4c-.37.23-.41.24-.53.21a.28.28,0,0,1-.17-.13c-.07-.13-.09-.15.3-1.19h0c-.29.18-.47.3-.62.07s-.08-.16.21-.86l-.14.08c-1.26.75-1.26.75-1.39.71a.27.27,0,0,1-.17-.13c-.07-.12-.07-.19.07-.4h0c-1.4.85-1.41.84-1.56.81a.28.28,0,0,1-.17-.13l-.11-.3-.33-.95-.1.06c-.59.34-.59.34-.71.3a.27.27,0,0,1-.17-.18c0-.12,0-.12.25-.55l.38-.6c-.23.12-.26.12-.33.09l.08-.26-.12-.24.82-.47c.34-.2.36-.21.49-.14a.27.27,0,0,1,.12.13c.06.12.07.14-.63,1.21a.19.19,0,0,1,.12,0,.27.27,0,0,1,.16.12s0,0,.45,1.27l1.06-.63c1.14-.69,1.14-.69,1.29-.66a.27.27,0,0,1,.17.13c.07.12.07.19-.09.42l.13-.08c1-.62,1-.62,1.18-.38s.08.14-.21.83c.26-.15.32-.16.42-.14a.28.28,0,0,1,.17.13c.07.12.07.12-.14.69l-.19.51c.3-.19.36-.2.47-.17a.28.28,0,0,1,.17.13c.06.09.06.09-.22,1.21l-.07.29c.34-.21.39-.23.51-.2a.27.27,0,0,1,.17.13c.06.1.07.11-.29,1.3.44-.25.5-.26.63-.06s.07.21-.15.57a.27.27,0,0,1,.17,0,.28.28,0,0,1,.17.13c.07.13.07.16-.23,1.14l-.07.21c.3-.18.37-.21.48-.18a.28.28,0,0,1,.17.13c.07.13.08.16-.18.62a.24.24,0,0,1,.21,0,.27.27,0,0,1,.16.12c.05.09.05.09-.08.91l-.09.54.07,0c.39-.23.54-.32.68-.09a1.27,1.27,0,0,1,.09.34l.09.41,0,0c1.12-.68,1.13-.68,1.28-.64A.28.28,0,0,1,116,19a.27.27,0,0,1-.1.37l-.07,0c-.14.07-.71.41-1,.58S114.4,20.25,114.33,20.25Z"/>      <path class="a" d="M107.83,10h-.06l.07-.26.23-.13-.23.13-.09-.25c.11-.05,1-.57,1.65-1,1.44-.85,1.45-.86,1.58-.82a.27.27,0,0,1,.16.12c.08.13.09.15-.28.75a.22.22,0,0,1,.19,0l-.07.26-.23.13.23-.13.09.25-.47.27c-.49.3-.49.3-.61.27a.27.27,0,0,1-.17-.14c-.07-.14-.07-.14.26-.67l.06-.1-.47.28A9.17,9.17,0,0,1,107.83,10Z"/>      <path class="a" d="M110,8.47h-.07a.27.27,0,0,1-.17-.13c-.07-.13-.07-.18.25-.89-.19.11-.25.12-.34.1a.27.27,0,0,1-.17-.13c-.11-.19-.11-.19,1.14-2l0,0-.19.12c-.93.59-1,.61-1.12.57a.28.28,0,0,1-.17-.13c-.11-.18-.09-.2.45-.75l.05-.05,0-.15.23-.13-.23.13-.1-.25.48-.28c.56-.34.56-.33.68-.3a.27.27,0,0,1,.17.12.23.23,0,0,1,0,.3c.45-.27.53-.29.65-.25a.29.29,0,0,1,.18.13c.1.16.1.16-.69,1.28l-.54.77h.11a.28.28,0,0,1,.17.13c.07.12.07.12-.21.76l-.06.14c.19-.11.26-.13.36-.11a.28.28,0,0,1,.17.13.27.27,0,0,1-.1.37l-.09,0-.42.26C110.17,8.41,110.08,8.47,110,8.47Z"/>    </g>    <g>      <path class="a" d="M138.17,18.19h-.07a.27.27,0,0,1-.17-.13c-.08-.14-.1-.17.28-.66-.74.44-.78.43-.89.4a.27.27,0,0,1-.17-.13c-.09-.15-.09-.15.5-1.17l.23-.4-.16.1c-1.12.69-1.13.69-1.28.65a.28.28,0,0,1-.17-.13c-.07-.13-.1-.2.12-.45-.39.2-.42.14-.51,0s-.11-.18.68-1.49c-1.06.67-1.16.71-1.32.67a.29.29,0,0,1-.17-.13c-.08-.14-.08-.14.37-1.12l.27-.59c-1.33.81-1.38.8-1.51.76a.28.28,0,0,1-.17-.13c-.07-.13-.07-.13.39-1.28l.2-.49-.44.27c-1.1.67-1.09.66-1.24.41s-.1-.17.43-.8l.06-.07c-.95.55-1,.53-1.09.32a.27.27,0,0,1,.09-.37l.06,0,1.05-.61c1-.56,1-.56,1.07-.53a.27.27,0,0,1,.16.13c.09.15.11.18-.42.82.7-.42.72-.42.85-.39a.28.28,0,0,1,.17.13c.08.13.08.13-.44,1.42l-.15.38,1.12-.67c.34-.21.34-.21.47-.17a.28.28,0,0,1,.15.12c.09.16.09.16-.57,1.61l-.07.16.47-.3c.86-.54.89-.55,1-.52a.28.28,0,0,1,.17.13c.09.16.09.16-.49,1.12l-.25.41.5-.29c.82-.48.82-.48.94-.45a.27.27,0,0,1,.16.12c.09.15.09.2-.18.46.3-.17.33-.16.43-.14a.28.28,0,0,1,.17.13c.09.15.09.15-.69,1.51l0,.08.65-.39c.51-.31.61-.37.76-.14s.1.18-.41.85l.09,0-.26.47.13-.23.14.23C138.43,18.1,138.27,18.19,138.17,18.19Z"/>      <path class="a" d="M124.93,18.19h-.07a.28.28,0,0,1-.17-.13c-.2-.34-.08-.52,4.82-4,.83-.59,1.75-1.25,2.53-1.82-.9.56-2,1.24-2.94,1.86-4.06,2.6-5.38,3.39-5.81,3.3a.38.38,0,0,1-.21-.15C123,17,123,17,124.45,16.07c.92-.57,2.6-1.6,4.31-2.67-.3.14-.42.16-.5.13a.31.31,0,0,1-.18-.14c-.16-.28-.17-.29,4.54-3.86-.66.4-.67.4-.78.37a.27.27,0,0,1-.17-.13c-.06-.11-.09-.16.12-.37h0c.2-.2.59-.54,1.34-1.17l1.95-1.66-.66.41c-.75.47-.75.47-.87.44a.27.27,0,0,1-.17-.13c-.12-.21-.13-.3.94-1.11a.21.21,0,0,1-.14,0A.28.28,0,0,1,134,6c-.12-.22-.12-.22,1.22-1.52l.29-.28c-1.47.89-1.5.88-1.65.85a.28.28,0,0,1-.17-.13c-.09-.16-.12-.21.69-1.4l-1.46.86c-1.2.71-1.2.7-1.32.67a.27.27,0,0,1-.16-.12c-.07-.12-.08-.13.22-1.5l.05-.23c-.45.25-1.16.71-1.65,1-1.41.89-1.42.88-1.58.85a.28.28,0,0,1-.17-.13c-.1-.16-.1-.17.64-1.53L128,4c-1.69,1.07-1.85,1.13-2,1.09a.3.3,0,0,1-.18-.13c-.08-.14-.08-.14.45-1.53l0-.11-.55.34c-.92.58-1,.6-1.11.57a.28.28,0,0,1-.17-.13c-.1-.18-.08-.2.36-.7l0,0,0-.17.21-.11h0l-.21.11-.1-.25.4-.24c.5-.3.5-.3.62-.27a.27.27,0,0,1,.16.12.24.24,0,0,1,0,.31c.67-.41.76-.44.89-.4a.29.29,0,0,1,.17.13c.07.12.07.12-.26,1l-.26.69,1.22-.76c1.7-1.07,1.79-1.1,2-1.05a.29.29,0,0,1,.18.13c.08.14.08.14-.38,1l-.28.52.61-.38c1.91-1.21,2.14-1.32,2.35-1.27a.31.31,0,0,1,.18.14c.06.1.06.1-.12.92l-.16.74.61-.36c2.52-1.49,2.52-1.48,2.67-1.44a.27.27,0,0,1,.17.13c.09.15.07.18-.22.59l-.62.91,1-.59c1.34-.82,1.35-.82,1.49-.78a.27.27,0,0,1,.17.13c.13.22.14.25-1.37,1.72,1.48-.89,1.51-.88,1.65-.84a.28.28,0,0,1,.17.13c.12.21.13.28-.88,1a.32.32,0,0,1,.21,0,.3.3,0,0,1,.18.13c.14.24.15.26-2.67,2.66C135.82,7,135.91,7,136,7a.29.29,0,0,1,.17.13c.13.22.13.22-2.51,2.23l-3,2.29,2.1-1.28c1.6-1,1.59-1,1.73-.95a.27.27,0,0,1,.17.13c.1.17.18.31-.76,1a.42.42,0,0,1,.16,0,.36.36,0,0,1,.2.15c.18.32.22.38-4.47,3.73L127.69,16c.4-.24.43-.23.52-.21l-.07.26-.24.13.24-.13.11.25-.9.53A12,12,0,0,1,124.93,18.19Z"/>      <path class="a" d="M138.74,17.35h-.08a.27.27,0,0,1-.16-.13c-.09-.15-.07-.2.3-.9a.3.3,0,0,1-.25,0,.28.28,0,0,1-.17-.13c0-.07,0-.07-.08-.78l0-.42-.07,0c-.5.3-.5.3-.62.26a.27.27,0,0,1-.16-.12c0-.07,0-.07,0-.55v-.53c-.44.28-.51.32-.65.29a.28.28,0,0,1-.17-.13c0-.06,0-.06-.16-1.23l-.06,0c-.43.27-.5.32-.63.28a.27.27,0,0,1-.17-.13,4.77,4.77,0,0,1-.19-1.16V12h0c-.67.39-.73.43-.87.2s0-.09-.06-.85c0-.14,0-.32,0-.47l-.09.06c-.55.34-.59.37-.73.34a.28.28,0,0,1-.17-.12c-.12-.21-.12-.21,1-1.52l.7-.8c-.7.43-.7.43-.83.4a.27.27,0,0,1-.17-.13c-.13-.23-.08-.3.93-1.14A.28.28,0,0,1,135,7.9c-.12-.2-.12-.21.84-1.11h0a.28.28,0,0,1-.17-.13c-.1-.18-.15-.25.91-1.35h0a.28.28,0,0,1-.17-.13c-.08-.15-.1-.18.63-1.8l-.12.07c-.25.15-.27.16-.38.13a.27.27,0,0,1-.16-.12L135.68,3l-.56-.41c-.18.1-.51.31-.75.46-.73.46-.79.5-.93.46a.28.28,0,0,1-.17-.13c-.06-.11-.07-.16.07-.47l-.34.21c-.68.42-.67.42-.8.38a.27.27,0,0,1-.17-.13c-.06-.1-.07-.15.05-.37l0,0c-.81.5-.84.52-1,.49a.28.28,0,0,1-.17-.13c0-.07,0-.08,0-.63l-.61.37c-.68.42-.68.42-.81.38a.27.27,0,0,1-.16-.12c-.06-.1-.07-.16,0-.36-.78.49-.86.52-1,.49a.28.28,0,0,1-.17-.13l-.42-.47-.26-.29-.55.34c-.8.51-.88.55-1,.51a.28.28,0,0,1-.17-.13.27.27,0,0,1,.1-.37l.11,0c.12-.06.47-.28.71-.43.73-.47.82-.52,1-.48a.28.28,0,0,1,.17.13l.35.39.33.37.68-.42c.76-.48.81-.5.95-.47a.28.28,0,0,1,.17.13c.06.1.06.16,0,.35.85-.52.88-.52,1-.48a.28.28,0,0,1,.17.13c0,.06,0,.06,0,.34l0,.28.35-.22c.87-.54.93-.57,1.07-.53a.28.28,0,0,1,.17.13c.06.1.07.14,0,.34.84-.51.86-.51,1-.47a.28.28,0,0,1,.17.13c.06.11.06.14-.07.44l0,0c.92-.58,1-.62,1.15-.58a.29.29,0,0,1,.17.13s.35.24.59.42l.59.44h0c.92-.55.92-.55,1-.51a.27.27,0,0,1,.16.11c.08.13.07.15-.09.52q-.38.85-.59,1.34l.21-.13C137.9,4,137.9,4,138,4a.27.27,0,0,1,.16.12c.11.18,0,.27-.21.5l-.83.84a.29.29,0,0,1,.25,0,.28.28,0,0,1,.17.13c.11.2.13.22-.78,1.08h0a.28.28,0,0,1,.17.13c.12.21.07.33-.69,1a.27.27,0,0,1,.14.12c.13.23.15.26-1.58,2.2l-.15.17h0a.27.27,0,0,1,.17.13c0,.08.05.09.07,1,0,.09,0,.18,0,.26l.11-.07c.46-.27.46-.27.58-.23a.27.27,0,0,1,.15.12c0,.05,0,.05.1.55l.1.68.08,0c.43-.27.5-.32.64-.28a.27.27,0,0,1,.17.13c0,.05,0,.05.06.37s.06.58.09.86l.09-.05c.42-.26.47-.29.6-.26a.27.27,0,0,1,.17.13c0,.08,0,.08,0,1.07h0c.58-.34.65-.38.8-.17s.05.09.11,1v.24l.17-.11c.36-.22.37-.23.49-.2a.27.27,0,0,1,.17.13c.09.15.08.16-.32.91.38-.23.39-.22.5-.19l-.07.26-.23.14.23-.14.1.25-.48.28C138.94,17.28,138.83,17.35,138.74,17.35Z"/>      <path class="a" d="M138.43,18.63c-.08,0-.13,0-.18-.14s0-.09,0-.38l0-.31-.19.12c-.69.43-.75.47-.91.44a.28.28,0,0,1-.17-.13s0,0-.12-.89l0-.36-.08,0c-.43.27-.47.29-.6.26a.27.27,0,0,1-.17-.13c-.05-.09-.06-.11,0-1l-.16.1c-.3.19-.32.2-.44.17a.27.27,0,0,1-.17-.13c-.06-.11-.06-.12.08-.77-.47.27-.55.29-.68.08s-.06-.17,0-.38c-.19.11-.22.1-.3.08a.27.27,0,0,1-.16-.11c0-.05,0-.05-.11-.52l-.15-.86,0,0c-.73.42-.74.43-.88.22a.27.27,0,0,1,0-.18l.08-.72c-.53.31-.54.3-.64.28l.07-.26.23-.13-.23.13-.12-.24.74-.43c.19-.11.27-.16.41-.08a.28.28,0,0,1,.1.1c0,.07,0,.08,0,.89l.06,0c.46-.27.46-.27.57-.23a.27.27,0,0,1,.16.13,7.61,7.61,0,0,1,.25,1.32v0l.14-.09c.47-.28.46-.28.58-.25a.27.27,0,0,1,.17.13c.06.11.06.17,0,.39.18-.1.2-.09.28-.07a.27.27,0,0,1,.17.13c.06.1.06.1-.08.73v0c.34-.21.4-.22.51-.19a.28.28,0,0,1,.17.13c0,.08,0,.08,0,.56,0,.13,0,.31,0,.47.44-.27.49-.3.61-.27a.28.28,0,0,1,.17.13c0,.05,0,.05.12.87l0,.39.33-.21c.65-.41.71-.44.85-.41a.28.28,0,0,1,.17.13c0,.07,0,.08,0,.67.57-.33.57-.33.68-.3l-.07.26-.24.13.24-.13.11.24-.51.29A1.62,1.62,0,0,1,138.43,18.63Z"/>      <path class="a" d="M128.78,15.28h-.07a.28.28,0,0,1-.17-.13c-.12-.21-.12-.21,1.18-1.24.55-.44,1.33-1.05,1.89-1.51l-.08-.19.46-.27c.48-.29.49-.29.6-.26a.27.27,0,0,1,.17.13c.11.18.14.24-.87,1.05,1.23-.74,1.28-.72,1.4-.69a.29.29,0,0,1,.17.13.27.27,0,0,1-.1.37l-.11,0c-.26.11-1.46.84-2.36,1.38A10.1,10.1,0,0,1,128.78,15.28Z"/>      <path class="a" d="M125.18,18.64l-.09,0a.27.27,0,0,1-.14-.12l-.06-.08-.4-.53-.08.05c-.82.49-.82.49-.95.46a.27.27,0,0,1-.17-.13c-.16-.28-.19-.32,3-3l1.11-.92-1.11.71c-2.71,1.74-3.28,2-3.55,2a.34.34,0,0,1-.19-.14c-.13-.23-.13-.23,1.09-1,.92-.58,2.77-1.76,4.44-2.86H128a.29.29,0,0,1-.17-.13c-.15-.26-.15-.26,3.66-3.44a.27.27,0,0,1-.16-.12c-.11-.18-.11-.18.92-1.24L133.33,7a.2.2,0,0,1-.18,0,.27.27,0,0,1-.17-.13c-.12-.21-.07-.28.77-1.13a.32.32,0,0,1-.11-.12c0-.06,0-.06-.12-.58l0-.29-.34.21c-1,.63-1,.63-1.18.59a.28.28,0,0,1-.17-.13l-.45-.73-.91.53c-.6.35-.6.35-.71.32a.27.27,0,0,1-.12-.07c-.1-.07-.6-.39-.9-.57l-.42-.26c-.19.1-.58.35-.83.51-.69.44-.72.45-.85.42a.28.28,0,0,1-.17-.13l-.52-.53-.19-.19-.31.19c-.52.33-.59.37-.73.34a.28.28,0,0,1-.17-.13c-.11-.2-.11-.2,1.23-2l0,0-.39.24c-1.1.69-1.13.71-1.29.67a.28.28,0,0,1-.17-.13c-.11-.19-.1-.2.48-.77l0,0,0-.15.23-.14-.23.14-.1-.25.51-.3c.63-.38.73-.44.88-.2a.24.24,0,0,1,0,.3c.7-.43.81-.46.95-.43a.29.29,0,0,1,.18.13c.09.17.09.17-.72,1.29l-.55.76a.28.28,0,0,1,.22,0,.28.28,0,0,1,.17.13h0l.28.28.43.44.44-.28c1-.62,1.07-.65,1.22-.62a.29.29,0,0,1,.11.06l.49.31.83.52.35-.21c1.22-.72,1.22-.72,1.35-.69a.27.27,0,0,1,.16.12l0,.08.42.67.73-.44c.76-.46.76-.46.89-.43a.27.27,0,0,1,.17.13c0,.06,0,.06.14.76v.1l.1-.06c.74-.45.74-.45.87-.41a.27.27,0,0,1,.17.13c.11.19.11.22-.55.89a.23.23,0,0,1,.12,0,.28.28,0,0,1,.17.13c.12.21.13.22-1.78,2.18.36-.2.41-.19.49-.16a.28.28,0,0,1,.17.13c.12.21.12.21-1.82,1.83l-1.88,1.57.47-.29c1-.6,1-.6,1.1-.57a.27.27,0,0,1,.17.13c.14.24.23.41-2.56,2.29a.29.29,0,0,1,.08.09c.16.28.18.31-2.77,2.75-.6.5-1.33,1.1-1.89,1.59a.28.28,0,0,1,.07.08l.46.61.16-.1c2.87-1.7,2.88-1.7,3-1.66l-.07.26-.23.13.23-.13.09.25c-.19.08-2.14,1.23-2.78,1.61C125.35,18.58,125.26,18.64,125.18,18.64Z"/>    </g>    <g>      <path class="a" d="M152.78,12.26h-.07a.28.28,0,0,1-.17-.13c-.07-.12-.1-.19.1-.43-.64.36-.67.31-.78.14s-.1-.18.67-1.5l-.2.12c-1.38.87-1.51.93-1.69.89a.29.29,0,0,1-.18-.13c-.07-.13-.07-.13.31-1.07l.24-.59c-1.88,1.14-1.92,1.12-2.07,1.09a.28.28,0,0,1-.17-.13c-.07-.12-.07-.12.32-1.24l.17-.49-.82.5c-1.2.72-1.19.73-1.34.69a.27.27,0,0,1-.17-.13c-.1-.17-.1-.17.5-.85l.06-.06c-1.23.73-1.23.72-1.36.69l.07-.26.24-.13-.24.13-.09-.25c.1,0,.82-.47,1.35-.78,1.23-.73,1.22-.72,1.34-.69a.27.27,0,0,1,.17.13c.09.15.11.19-.48.86,1.14-.69,1.16-.69,1.3-.65a.28.28,0,0,1,.17.13c.07.12.07.12-.36,1.36l-.14.39c.52-.3,1.29-.77,1.61-1s.4-.25.52-.21a.27.27,0,0,1,.16.13c.08.15.08.15-.48,1.55l-.07.19L152,10c1.1-.69,1.11-.69,1.26-.65a.28.28,0,0,1,.17.13c.09.16.09.16-.47,1.12l-.24.41.61-.35c1-.59,1-.59,1.15-.36s.08.21-.21.5a.23.23,0,0,1,.16,0,.28.28,0,0,1,.17.13.27.27,0,0,1-.1.37l-.08,0c-.11.05-.45.26-.7.42C153,12.17,152.89,12.26,152.78,12.26Z"/>      <path class="a" d="M144.74,18.72h-.08a.27.27,0,0,1-.16-.12c-.1-.17-.1-.2.5-1l-.77.45c-.29.17-.44.26-.59,0s-.09-.2.29-.66c.2-.24.61-.73,1-1.18-1.18.71-1.2.7-1.34.67a.28.28,0,0,1-.17-.13c-.12-.2-.13-.22,1.17-1.88l.33-.43c-1,.67-1.13.7-1.3.66a.29.29,0,0,1-.18-.13c-.1-.19,0-.25.29-.56l.53-.5c-.5.29-.55.27-.65.25a.28.28,0,0,1-.17-.13c-.11-.18-.11-.19,1.37-2.05l-.59.36c-.5.31-.5.31-.62.28a.27.27,0,0,1-.17-.13c-.09-.16-.09-.16.62-1l.81-1-.64.4c-.51.32-.51.32-.63.29a.27.27,0,0,1-.17-.13c-.12-.21-.13-.3.83-1-.54.31-.57.31-.67.28a.28.28,0,0,1-.17-.13c-.12-.21-.12-.21,1.19-1.5l.28-.27c-1.13.68-1.16.68-1.3.64a.28.28,0,0,1-.17-.13c-.11-.19-.15-.25,1.07-1.6h0c-.78.46-.78.46-.89.42a.27.27,0,0,1-.16-.12c-.12-.21-.14-.23,1.41-2.27l.08-.11-.26.16c-.88.55-.91.57-1.06.54a.28.28,0,0,1-.17-.13c-.12-.2-.13-.23,1.24-1.82-.87.54-.93.55-1.07.52a.29.29,0,0,1-.17-.13c-.11-.19-.11-.19,1.07-1.94v0h0c-.75.47-.81.51-1,.47a.27.27,0,0,1-.17-.13c-.1-.17-.08-.19.35-.67a.38.38,0,0,1-.09-.11.27.27,0,0,1,.09-.37l.05,0,.39-.23c.49-.3.5-.3.61-.27a.27.27,0,0,1,.17.13.23.23,0,0,1,0,.3c.3-.18.37-.18.47-.16a.29.29,0,0,1,.17.13c.09.16.09.16-.64,1.25l-.51.76.2-.13c1.09-.69,1.15-.7,1.29-.67a.28.28,0,0,1,.17.13c.11.19.11.19-.84,1.29l-.49.57c.86-.53,1-.57,1.12-.54a.29.29,0,0,1,.18.13c.11.18.11.18-.81,1.39l-.75,1c1.27-.75,1.27-.75,1.4-.71a.27.27,0,0,1,.16.12c.11.18.1.19-.38.72l-1,1.09.43-.27c1.2-.74,1.2-.73,1.34-.7a.27.27,0,0,1,.17.13c.13.23.15.25-1.36,1.73,2.39-1.44,2.42-1.43,2.58-1.39a.28.28,0,0,1,.17.13c.16.28.12.31-2,1.86l-.06,0a.29.29,0,0,1,.1.1c.1.18.11.2-1.24,1.87.91-.54,1-.53,1.07-.5a.28.28,0,0,1,.17.13c.1.16.1.16-.72,1.19l-.72.9.52-.32c.63-.39.63-.39.74-.36a.27.27,0,0,1,.17.13c.09.16.13.23-.55.92.21-.12.29-.12.37-.1a.29.29,0,0,1,.18.13c.12.2.12.21-1.08,1.76l-.48.61.53-.32c.74-.44.74-.45.86-.41a.27.27,0,0,1,.17.13c.1.18.14.25-1,1.69.78-.46.81-.45.92-.42a.27.27,0,0,1,.16.12c.1.17.1.17-.52,1a.21.21,0,0,1,.16,0l-.07.26-.23.14.23-.14.09.25-.54.32C144.9,18.67,144.81,18.72,144.74,18.72Z"/>      <path class="a" d="M153.93,11.49h-.07a.28.28,0,0,1-.17-.13c-.07-.13-.08-.17.15-.54h-.09a.27.27,0,0,1-.16-.12,4.13,4.13,0,0,1-.21-.67l-.14-.49-.2.13c-.57.35-.61.38-.75.35a.27.27,0,0,1-.17-.13l-.25-.54-.23-.48-.41.25c-.46.28-.45.28-.58.25a.27.27,0,0,1-.16-.12c-.06-.1-.06-.16,0-.49-.47.29-.53.33-.66.3a.28.28,0,0,1-.17-.13c-.05-.1-.05-.1,0-.57-.61.38-.67.41-.81.38a.28.28,0,0,1-.17-.13c0-.06,0-.08-.08-.69h0c-.73.44-.76.46-.89.43a.27.27,0,0,1-.17-.13l-.66-1.05-.68.4c-.25.15-.27.16-.39.13a.27.27,0,0,1-.16-.12c-.07-.13-.07-.18.21-1.31l.11-.42,0,0c-.46.29-.5.31-.63.28a.27.27,0,0,1-.17-.13c-.08-.14-.08-.21.21-.58h0a.27.27,0,0,1-.16-.12c-.08-.14-.09-.19.18-.52h0a.28.28,0,0,1-.17-.13c-.08-.14-.1-.17.33-.81a.21.21,0,0,1-.17,0,.28.28,0,0,1-.16-.12c-.09-.15-.07-.23.19-.55a.28.28,0,0,1-.16-.13c-.07-.12-.06-.17.17-1.08l0-.16c-.42.27-.5.31-.64.28a.28.28,0,0,1-.17-.13.27.27,0,0,1,.1-.37l.09,0,.41-.25c.47-.3.53-.34.68-.31a.28.28,0,0,1,.17.13c.07.12.06.17-.15,1l-.07.28c.46-.29.5-.31.63-.28a.27.27,0,0,1,.17.13c.08.15.08.2-.19.53h0a.27.27,0,0,1,.17.13c.09.15.06.18-.19.56l-.19.27a.25.25,0,0,1,.18,0,.27.27,0,0,1,.17.13c.08.14.09.19-.18.52h0a.28.28,0,0,1,.17.13c.09.15.08.18-.23.57h.07a.28.28,0,0,1,.17.13c.07.13.07.16-.19,1.22l-.13.5c.8-.47.81-.44.94-.23l.67,1.06.45-.27c.5-.3.5-.3.62-.27a.27.27,0,0,1,.16.11.35.35,0,0,1,0,.22c0,.22,0,.39,0,.52l.24-.15c.52-.32.55-.34.68-.31a.28.28,0,0,1,.17.13c.05.09.06.1,0,.57l0,0c.53-.33.58-.37.72-.33a.28.28,0,0,1,.17.13c.06.1.05.17,0,.47.51-.31.54-.31.66-.28a.28.28,0,0,1,.17.12l.36.76.12.27.28-.17c.55-.34.58-.36.71-.32a.27.27,0,0,1,.17.13,6.16,6.16,0,0,1,.27.86l.08.28.18-.11c.45-.27.45-.26.56-.23a.27.27,0,0,1,.16.12c.08.13.07.17-.14.5a.27.27,0,0,1,.19,0,.27.27,0,0,1,.17.13.27.27,0,0,1-.1.37l-.08,0-.39.24C154.16,11.42,154,11.49,153.93,11.49Z"/>      <path class="a" d="M152.8,12.78h-.07a.28.28,0,0,1-.17-.13,5.35,5.35,0,0,1-.26-.85v0l-.42.26c-.34.21-.51.32-.66.09s-.05-.09,0-.71h0c-.68.4-.68.41-.81.37a.27.27,0,0,1-.17-.13c-.05-.1-.05-.16,0-.37-.4.24-.41.23-.52.21a.27.27,0,0,1-.17-.14l-.39-.61-.3-.48-.25.14c-.74.43-.74.43-.85.4s-.18-.08-.24-.59l0-.33c-1,.59-1,.57-1.15.37a.27.27,0,0,1,.07-.37l0,0,1-.57c.2-.12.28-.16.41-.08a.27.27,0,0,1,.09.08c0,.06,0,.06.12.81l.29-.17c.58-.33.58-.34.7-.3a.27.27,0,0,1,.14.12l.44.69.26.42.32-.2c.53-.32.53-.33.66-.29a.27.27,0,0,1,.17.13c.06.1.05.16,0,.38.42-.25.43-.25.53-.22a.27.27,0,0,1,.17.13c0,.08,0,.08,0,.61,0,0,0,.05,0,.08.61-.38.68-.4.81-.37a.28.28,0,0,1,.17.13,2.1,2.1,0,0,1,.12.4l.14.48.66-.41c1.09-.68,1.14-.7,1.3-.66a.28.28,0,0,1,.17.13.27.27,0,0,1-.1.37l-.1,0c-.15.07-.65.38-1,.59C153.1,12.68,152.92,12.78,152.8,12.78Z"/>      <path class="a" d="M145.48,17.42h-.07a.27.27,0,0,1-.17-.13c-.07-.13-.07-.13.37-1.07l.18-.37c-.28.17-.32.18-.43.15a.27.27,0,0,1-.17-.13c-.08-.13-.07-.21.18-.55h0a.27.27,0,0,1-.16-.12c-.09-.16-.1-.17.54-1.4-.21.12-.27.13-.37.11a.28.28,0,0,1-.17-.13c-.08-.13-.08-.13.36-1.11l.27-.6c-.33.2-.37.19-.47.16a.27.27,0,0,1-.17-.13c-.09-.16-.09-.16.82-1.56l.34-.53,0,0c-.84.51-.84.51-1,.47a.27.27,0,0,1-.17-.12c-.08-.13-.08-.13.2-.65l.11-.2h0l.16-.51-.08.26L145.42,9l.28-.16c.31-.19.47-.28.62-.07s.09.16-.22.74c1-.58,1-.58,1.09-.54a.28.28,0,0,1,.17.13c.1.17.1.17-.91,1.72l-.23.36a.25.25,0,0,1,.24,0,.28.28,0,0,1,.15.12c.09.16.09.16-.56,1.6L146,13c.29-.18.33-.19.44-.17a.27.27,0,0,1,.17.13c.08.14.08.14-.39,1.06l-.2.39c.31-.18.32-.18.42-.15a.27.27,0,0,1,.16.12c.09.16.06.21-.22.55h0a.27.27,0,0,1,.17.13c.08.14.08.14-.51,1.4l0,.06h0c.26-.15.29-.17.4-.14l-.15.52.08-.26.13.24-.17.1C145.71,17.34,145.58,17.42,145.48,17.42Z"/>      <path class="a" d="M145.1,19.18H145a.27.27,0,0,1-.16-.12c-.08-.13-.1-.17.16-.47-.9.54-.9.53-1,.5a.27.27,0,0,1-.16-.13c-.05-.09-.05-.09,0-1,0-.08,0-.15,0-.22l-.33.19c-.19.11-.32.19-.47,0l0-.06c-.07-.13-.05-.15.12-.49l.48-.94c-.35.2-.37.19-.47.17a.27.27,0,0,1-.17-.13c-.09-.15-.09-.16.49-1.46l.16-.36c-.27.17-.35.2-.46.17a.28.28,0,0,1-.17-.13c-.07-.16,0-.23.12-.44l.28-.41a.27.27,0,0,1-.23,0,.28.28,0,0,1-.17-.13c-.08-.14-.08-.14.59-1.58l0,0c-.22.13-.4.25-.55,0s-.08-.15.24-.82l.36-.75,0,0c-.25.16-.28.18-.39.15a.27.27,0,0,1-.17-.13c-.09-.16-.08-.21.3-.75a.19.19,0,0,1-.14,0,.27.27,0,0,1-.16-.12c-.09-.15-.09-.15.4-1l.12-.22c-.23.13-.27.13-.36.11a.27.27,0,0,1-.17-.13c-.08-.15-.11-.19.49-1.27-.26.15-.37.17-.49,0s-.11-.19.6-1.79l0-.09c-.33.21-.37.22-.49.19a.28.28,0,0,1-.17-.13c-.09-.16-.1-.17.55-1.43-.22.13-.28.15-.39.12a.28.28,0,0,1-.17-.13c-.12-.21-.12-.21,1.47-2.18l0,0-.08.05c-1,.64-1,.65-1.2.62a.28.28,0,0,1-.17-.13c-.11-.18-.1-.2.43-.72a.44.44,0,0,1-.09-.11.27.27,0,0,1,.09-.37l.06,0,.48-.28c.57-.34.58-.34.7-.31a.27.27,0,0,1,.16.13.23.23,0,0,1,0,.29c.55-.33.63-.34.75-.31a.29.29,0,0,1,.18.13c.1.18.1.18-.89,1.41l-.7.87h.08a.27.27,0,0,1,.17.13c.08.14.08.14-.35,1l-.24.46c.25-.15.32-.16.43-.14a.28.28,0,0,1,.17.13c.08.14.08.14-.34,1.08l-.35.8c.41-.24.43-.24.53-.21a.27.27,0,0,1,.16.12c.09.14.07.16-.16.58l-.42.75c.3-.18.31-.18.42-.15a.27.27,0,0,1,.17.13c.09.16.09.19-.5,1.23.22-.13.25-.12.34-.09a.27.27,0,0,1,.16.12c.09.16.09.2-.31.75a.25.25,0,0,1,.14,0,.28.28,0,0,1,.17.13c.08.13.09.14-.57,1.49.27-.16.31-.15.39-.12a.27.27,0,0,1,.17.12c.07.13.07.13-.29.91l-.32.68c.29-.18.46-.28.61-.05s.11.19-.31.83a.24.24,0,0,1,.14,0,.28.28,0,0,1,.17.13c.09.16.08.18-.45,1.36l-.22.49h0c.37-.22.51-.3.65-.09s.12.2-.5,1.41c.19-.1.22-.09.3-.07a.27.27,0,0,1,.16.12c0,.08,0,.08,0,.83,0,.13,0,.3,0,.44l.52-.31c1.46-.88,1.47-.88,1.61-.84a.28.28,0,0,1,.17.13c.1.18.11.19-.54.89l0,.13-.2.12.2-.12.1.25-.43.25C145.29,19.11,145.18,19.18,145.1,19.18Z"/>    </g>  </g></svg>