<svg xmlns="http://www.w3.org/2000/svg" viewBox="0 0 54 54"><defs><style>.cls-1,.cls-2{fill:none;}.cls-1{stroke:#e9528e;stroke-linecap:round;stroke-linejoin:round;stroke-width:0.7px;}</style></defs><title>アセット 272</title><g id="レイヤー_2" data-name="レイヤー 2"><g id="レイヤー_1-2" data-name="レイヤー 1"><path class="cls-1" d="M42.89,15.38c.07.12,4.9-3,5-2.87s-4.21,4-4.14,4.14,4.85-3,4.92-2.84S44.51,17.86,44.58,18,49.4,15,49.47,15.16s-4.32,4.21-4.25,4.34,4.87-3,4.94-2.85-4.48,4-4.41,4.11,4.85-3,4.92-2.84S46,21.76,46,21.89,51,18.84,51.1,19s-4.72,4.51-4.64,4.65,5-3.07,5.09-2.94-5,4.76-4.9,4.91,5.25-3.21,5.33-3.07-5.31,4-5.23,4.15,5.33-3.25,5.4-3.12-5.61,5-5.51,5.14,5.57-3.41,5.66-3.27-6,4.95-5.88,5.12,5.91-3.61,6-3.46-6.59,5.42-6.48,5.61S52.2,28.86,52.29,29s-7,4.83-6.86,5,6.69-4.09,6.79-3.92-7.5,5.21-7.38,5.41,7-4.31,7.15-4.13-8.83,6.56-8.69,6.79,8.19-5,8.31-4.8S38.84,42.34,39,42.68s11.59-7.09,11.76-6.79"/><path class="cls-1" d="M19.65,8.68c.17.29,11.44-7,11.61-6.7s-6.92,5.24-6.81,5.43,8.63-5.27,8.75-5.05-5.57,4.76-5.48,4.92S35.06,2.79,35.17,3s-5,4.37-4.95,4.52,6.62-4,6.72-3.88-4.45,4.31-4.37,4.45,6.09-3.72,6.18-3.57-4.3,4.16-4.22,4.29,5.75-3.52,5.84-3.37-4.16,4-4.09,4.15,5.45-3.33,5.53-3.2-4.1,4-4,4.14,5.28-3.23,5.36-3.09-6.47,5.53-6.36,5.71,7.66-4.68,7.77-4.49-11.21,7.48-11,7.77S45.25,9.24,45.42,9.54,29.1,20.18,29.34,20.6s16.85-10.3,17.1-9.87S24.52,24.55,24.84,25.11,47.2,11.45,47.53,12,20.34,28.54,20.74,29.23c.27.47,18.71-11.44,19-11S16.86,32.21,17.19,32.79s18.71-11.44,19-11S12.66,36.39,13,37,31.72,25.56,32,26"/><path class="cls-1" d="M11.74,6.68c.07.13,5-3,5-2.9S8,9.8,8.11,10,21.47,1.87,21.67,2.21,5.53,12.64,5.78,13.05,25.17,1.2,25.45,1.69s-21.29,13-21,13.55S27.69,1.05,28,1.64,3.36,16.17,3.72,16.79,29.4,1.1,29.78,1.75,2.69,17.74,3.08,18.43c.16.27,10.82-6.61,11-6.34s-11.82,8-11.64,8.33,8.29-5.07,8.41-4.86-8.91,6.37-8.77,6.61,7.24-4.43,7.35-4.24-7.8,6-7.68,6.23,6.58-4,6.68-3.86S1.49,26,1.6,26.22s6-3.69,6.13-3.54S1.53,27.86,1.63,28s5.66-3.46,5.74-3.31-5.69,5-5.6,5.2,5.38-3.29,5.46-3.15S1.82,31,1.9,31.13,7.2,27.9,7.28,28s-5.08,4.61-5,4.76,5.07-3.1,5.15-3-4.86,4.41-4.78,4.55,5-3.08,5.11-2.95S2.91,35.18,3,35.32s5-3,5-2.9S3.59,36.86,3.67,37s4.86-3,4.93-2.85-4.44,4.13-4.36,4.26,4.88-3,5-2.86-4.46,3.67-4.39,3.79,4.82-2.94,4.89-2.82S5.33,40.21,5.4,40.34s4.84-3,4.91-2.84-4.27,3.9-4.19,4,4.87-3,4.95-2.86S7.2,42.86,7.28,43c.27.46,18.17-11.11,18.44-10.65S8.25,44,8.51,44.44c.17.3,11.93-7.29,12.11-7s-11.34,7.66-11.17,8S17,40.82,17.07,41s-6.61,5.19-6.5,5.37,5.23-3.2,5.3-3.06-4.4,3.79-4.32,3.92,5.43-3.32,5.51-3.18-4.65,3.68-4.57,3.81,5.49-3.36,5.57-3.22-4,4.16-4,4.29,5.87-3.59,6-3.44-4.7,4-4.63,4.14S21.61,45.86,21.7,46s-4.92,4.16-4.84,4.3,6.58-4,6.67-3.85S19,51,19.07,51.13s7.45-4.55,7.56-4.36-5.28,4.86-5.19,5,9.26-5.66,9.39-5.42-6.62,5.71-6.51,5.9c.37.65,25.51-15.59,25.89-14.94s-22.67,14.46-22.33,15S48.25,39.92,48.55,40.44,31.76,51.45,32,51.88s13.84-8.46,14-8.11-9,6.23-8.84,6.46,5-3,5-2.9"/><path class="cls-1" d="M42.83,16.15s.77-.47.79-.45-.2,1.4-.18,1.43.78-.48.79-.46.12,2,.14,2,.73-.44.74-.43-.31,1.55-.29,1.59.75-.46.76-.44-.26,1.76-.24,1.8.78-.48.79-.46-.42,2.09-.39,2.14.78-.48.79-.46S46,24,46,24.08s.81-.49.82-.47-.71,2.07-.68,2.12.83-.51.84-.48-.8,2.27-.77,2.32.89-.54.9-.52-1,1.88-1,1.92.91-.55.92-.53-1.17,2.16-1.14,2.22,1-.62,1-.59-1.54,2.52-1.5,2.59,1-.63,1-.61-1.69,2.17-1.65,2.23S46,33.54,46,33.57s-1.93,2.23-1.9,2.29,1.25-.76,1.27-.73-3.07,3.39-3,3.49,1.66-1,1.69-1S39,41.84,39.09,42s3.06-1.87,3.1-1.79"/><path class="cls-1" d="M42.39,15.06s.57-.35.58-.34-3.19,2.8-3.14,2.89,3.63-2.22,3.69-2.13S35,22.11,35.11,22.34c0,.07,2.95-1.8,3-1.73s-5.9,4.39-5.81,4.55,3-1.82,3-1.74-7.9,6.28-7.78,6.5,3-1.84,3.06-1.77-6.29,4.72-6.19,4.89,3-1.86,3.09-1.78-6,4.42-5.89,4.58,3.07-1.88,3.11-1.8S18,39.13,18.14,39.31s3.1-1.89,3.15-1.82-6.8,5.3-6.69,5.49,2.83-1.73,2.87-1.66S16.19,43.91,16.23,44s.84-.51.85-.49.48,1.29.5,1.33.88-.54.89-.51l.85,1.28s.95-.58,1-.55,1.1,1.29,1.12,1.32,1.1-.67,1.12-.65l.85,1.07s1.15-.7,1.16-.67,1.37.92,1.39,1,1.35-.83,1.37-.79,2.49.57,2.53.63,2.35-1.44,2.38-1.38,3-.25,3-.18,4-2.45,4.07-2.35"/><path class="cls-1" d="M19.88,9.12c0,.08,3.2-2,3.25-1.88s2.41.53,2.44.58,1.66-1,1.68-1,1.56,1,1.59,1,1.31-.8,1.33-.77,1.47,1.21,1.5,1.25,1.07-.66,1.09-.63.33,1,.34,1,1-.59,1-.56L35,9.5s.92-.56.93-.54l1,1.59s.84-.51.85-.49.15,1.07.17,1.1.81-.5.82-.48-3.93,3.5-3.86,3.61,3.13-1.91,3.18-1.83-6.48,4.87-6.38,5,3.13-1.91,3.17-1.83-7.2,5.56-7.08,5.76S30.93,19.52,31,19.6s-7.55,5.9-7.43,6.11,3.12-1.91,3.16-1.83-6.82,5.2-6.71,5.39,3.11-1.9,3.16-1.82-7.82,6.16-7.69,6.37,3.11-1.9,3.15-1.82-7,5.4-6.91,5.59,3.1-1.9,3.15-1.82"/><path class="cls-1" d="M14.76,11c.06.11,4.25-2.59,4.31-2.49S10.63,14.81,10.76,15c0,.06,2.22-1.35,2.25-1.3s-4.07,4-4,4.15,1.54-.94,1.56-.9S7.95,20.27,8,20.36s1.21-.74,1.23-.71-1.79,2.51-1.75,2.58,1-.63,1-.6-1.42,2-1.39,2.09,1-.62,1-.59S6.91,25.74,6.95,25.8s.9-.55.92-.53-1,2.57-.95,2.63.84-.51.85-.49S7,28.95,7,29s.82-.5.84-.48-.63,2.25-.6,2.3.8-.49.81-.47-.47,1.94-.44,2,.77-.47.78-.45-.32,2-.29,2,.77-.47.78-.45-.44,1.27-.43,1.3.75-.46.76-.44-.39,1.33-.38,1.36.73-.45.74-.43,0,1.75,0,1.78.77-.47.78-.45.19,2,.22,2.06,3.33-2,3.37-1.95"/><path class="cls-1" d="M17.48,3.82c0,.08,3.29-2,3.34-1.93s1.7.47,1.72.51,1.92-1.17,1.95-1.13S26.23,2,26.26,2s1.48-.91,1.5-.87,1.18.94,1.19,1,1.32-.81,1.34-.78,1.38,1.07,1.4,1.11,1.09-.67,1.11-.64S34,3,34,3s1.08-.66,1.1-.63l.85,1.3s.95-.58,1-.55l.87,1.31s.95-.58,1-.55l.86,1.55s.85-.52.87-.5.29,1.19.31,1.22.85-.52.87-.5.52,1.43.54,1.47.79-.49.81-.47.51,1.57.53,1.61.79-.49.81-.47.4,1.48.42,1.51.76-.47.77-.45.08,1.43.09,1.46.76-.47.77-.45.23,1.61.25,1.64.76-.47.77-.45.1,1.55.12,1.59.75-.46.76-.44-.13,1.46-.12,1.49.75-.46.76-.44.18,2,.21,2,.75-.46.76-.44,0,2.09,0,2.13.76-.46.77-.44S50.3,18,50.32,18s.76-.46.77-.44-.35,1.47-.33,1.51.76-.46.77-.44-.47,1.64-.45,1.68.78-.48.79-.46-.39,2.22-.36,2.27.78-.48.79-.46-.59,1.48-.57,1.51.8-.49.82-.47-.76,1.45-.74,1.49.83-.51.84-.49-.78,1.48-.76,1.52.83-.51.84-.49S52,26.59,52,26.64s.83-.51.84-.49S51.94,27.91,52,28s.91-.56.92-.53-1,1.66-1,1.7.91-.56.92-.53-1,1.69-1,1.73.91-.56.92-.53S51.44,32,51.48,32s1-.63,1-.6S51,33.88,51,33.95s1-.63,1-.6-1.66,2.3-1.63,2.36S51.66,35,51.68,35s-1.84,2-1.8,2.09,1.23-.75,1.25-.72-2.36,2.8-2.31,2.88,1.45-.89,1.47-.85S47,41.84,47.09,41.95s1.66-1,1.68-1S45,44.24,45,44.35,47.29,43,47.32,43"/><path class="cls-1" d="M11.47,6.24c.07.12,4.9-3,5-2.87s-8.73,6-8.6,6.22c0,.08,3.08-1.88,3.13-1.8s-5.63,4.71-5.54,4.87,1.84-1.12,1.87-1.08S4,14.77,4.08,14.87s1.57-1,1.59-.92-2.34,2.38-2.3,2.45,1.23-.75,1.25-.72-2,2.31-1.93,2.38,1.23-.75,1.25-.72S2,20,2.06,20s1-.63,1-.6-1.51,2.34-1.48,2.4,1-.63,1-.6S1.27,23.75,1.3,23.81s.91-.56.92-.53-1.12,2.55-1.08,2.62.91-.56.92-.53-1,2.33-1,2.38.83-.51.84-.49-.73,2.31-.7,2.37.83-.51.84-.49-.77,1.68-.75,1.72.83-.51.84-.49-.51,2.11-.48,2.16.78-.48.79-.46-.44,2-.42,2,.78-.48.79-.46-.57,1.42-.55,1.45.78-.47.79-.45S3,36.73,3,36.77s.76-.46.77-.44-.21,1.81-.18,1.85.76-.46.77-.44-.3,1.39-.28,1.43.75-.46.76-.44-.17,1.39-.16,1.42.75-.46.76-.44-.05,1.59,0,1.63.75-.46.76-.44.28,1.9.3,1.94.76-.47.77-.45.45,1.86.47,1.9.76-.47.77-.45.08,1.43.09,1.46.78-.48.8-.46.3,1.4.32,1.43.79-.49.81-.47.17,1.29.19,1.32.79-.49.81-.47,0,1.14,0,1.16.8-.49.82-.47l.82,1.53s.85-.52.87-.5.35,1.23.37,1.26.85-.52.87-.5.48,1.2.49,1.23.95-.58,1-.55,1.13,1.39,1.15,1.43.95-.58,1-.55,1.27,1.24,1.29,1.28,1.09-.67,1.11-.64,1.5,1.22,1.52,1.27S24,51.8,24,51.83s1.92,1,1.95,1S27.42,52,27.44,52s1.94.71,2,.76,1.93-1.18,2-1.13,1.42.56,1.43.59,3.59-2.2,3.64-2.1,1.08.51,1.09.53S42.09,47.9,42.16,48"/><rect class="cls-2" width="54" height="54"/></g></g></svg>