<svg xmlns="http://www.w3.org/2000/svg" width="361.18" height="152.03" viewBox="0 0 361.18 152.03">  <defs>    <style>      .a {        fill: #8d3a49;      }      .b, .c, .d {        fill: none;      }      .b {        stroke: #9f5b67;        stroke-miterlimit: 10;        stroke-width: 0.1px;      }      .c, .d {        stroke: #e9528e;        stroke-linecap: round;        stroke-linejoin: round;      }      .c {        stroke-width: 0.8px;      }      .d {        stroke-width: 1.1px;      }    </style>  </defs>  <title>アセット 6</title>  <g>    <g>      <g>        <path class="a" d="M1.56,149.08c1.12,0,3,.05,4.86.06C5,149.1,3.53,149.08,1.56,149.08Z" transform="translate(0 0)"/>        <path class="a" d="M6.45,149.14h0Z" transform="translate(0 0)"/>        <path class="a" d="M359.83,147h0Z" transform="translate(0 0)"/>        <path class="a" d="M94.67,149.28l.28-.08c4.32,0,1.26.09,5.25.07,1.56-.11,6.64,0,8,0,0,0,1.92,0,1.8,0,.6-.06,2,0,3.25,0,.45,0-.33,0-.66,0l2.83,0c1.1,0,1.38.06.18.06,7.39,0,42.84.08,50.8.05-1,0-3.48,0-4.41-.09,2.1,0,3.1,0,4,0,.81.11,4.62,0,6.22.14l.6-.06,1,0c9.25-.06,2.11,0,10.31,0,4.75,0,7-.09,9.64-.06-.39,0-1.44,0-.21-.05.21.05,3.27,0,3.87,0,1.2,0,5.11,0,3.79-.07.66,0,4.14.05,2.07.08,1.17,0,2.31,0,3.16,0l-1.51,0c4,0,6.13,0,8.71,0l-1.47,0c2.37,0,4.35,0,5.29.06l-2.43,0c3.93,0,6.3,0,9.58,0h-1.17c4.18-.07,26-.13,29.87-.22l-1.77-.06,3.31,0c-.39,0-1.6.18-1.92.17,7.09,0,44,0,50.52,0,2.64,0,.48.09.45.1,3.21,0,1.39-.06,4.12-.06.75,0-.15,0-.57.05,1.2,0,2.31,0,2.4,0a6,6,0,0,1-1.5-.14h3.52l-.16,0c.78,0,2-.12,5.44-.1,5.83,0,12.16,0,18,0-.09,0-1.32,0-2.55.06.79,0,2,0,2.71,0-1.42,0,2.46,0,1.35-.05,4.29-.11,9.84,0,13.63-.08.33-.1,8.11-1.68,8.11-1.79h2.71c-.3,0-2.62,0-3.84,0l-.21.06c-2.83,0-.66,0-3.42,0-.15-.05,2.39-.06,4.63-.07-2,0-4,0-4.84,0-1.89,0,.21-.06-2.07-.08-1.62,0-3.76.06-5.62,0h0c-4.53-.05-6.94.08-11.08,0l.45,0c-1.46,0-4.35,0-7,0,.75,0,1.41,0-.18.05-3,0-5.11,0-7.33,0l-2.13,0c-10.58,0-52.35.06-63,.07H256c-16.19,0-49.42,0-66.15.09-2.59,0-6.16,0-8.86-.05,1.5,0,1,.06-.19.05-8.23,0-.55,0-8.87.05-9.58,0-46.23,0-54.74,0-4.57.07-10.27,0-14.74.06l.45,0c-4.81,0-32,0-37.59,0h.75c-4.87,0-4.21,0-8-.06.5.08-3.67.13-5.26.13l.06,0c-2.4,0-7.84.08-11.8.09l.15,0c-3.31,0-9.52,0-11.9,0-5.43,0-13.81-.1-21.08,0l-4.69-.13H2.83s-7.56,1.53,2,1.85l-.15,0h1.9c2.28,0,3.33,0,3.17,0H6.67c2.29,0,.69,0-.18.06l2.64,0c.45,0-.33,0-.69,0,1.23,0,2.94-.06,4.44,0,2.34,0,.15.07,2.88.08,14.41,0,28.38.09,42.94.08.33,0-.06,0-.48,0l12.28,0c1.11,0,1.41,0,1.74.07C71.59,149.28,94.31,149.27,94.67,149.28Z" transform="translate(0 0)"/>      </g>      <g>        <path class="a" d="M1.25,75C2.1,75,3.57,75,5,75,3.89,75,2.75,74.95,1.25,75Z" transform="translate(0 0)"/>        <path class="a" d="M5,75H5Z" transform="translate(0 0)"/>        <path class="a" d="M274.49,72.85h0Z" transform="translate(0 0)"/>        <path class="a" d="M72.26,75.15l.21-.08c3.3,0,1,.09,4,.07,1.19-.11,5.06,0,6.11,0,0,0,1.47,0,1.37,0,.46-.06,1.53,0,2.48,0,.34,0-.25,0-.51,0l2.16,0c.84,0,1.05.06.13.06,5.63,0,32.68.08,38.74.05-.78,0-2.65,0-3.36-.09,1.6,0,2.36,0,3.07,0,.62.11,3.53,0,4.74.14l.46-.06.8,0c7.06-.06,1.61,0,7.87,0,3.62,0,5.34-.09,7.35-.06-.3,0-1.1,0-.16-.05.16.05,2.5,0,3,0,.92,0,3.89,0,2.89-.07.51,0,3.16.05,1.58.08.9,0,1.76,0,2.41,0l-1.15,0c3,0,4.67,0,6.64,0l-1.12,0c1.81,0,3.32,0,4,.06l-1.86,0c3,0,4.81,0,7.31,0h-.89c3.18-.07,19.84-.13,22.78-.22L192,74.74l2.52,0c-.3,0-1.22.18-1.47.17,5.41,0,33.53,0,38.53,0,2,0,.36.09.34.1,2.45,0,1.06-.06,3.14-.06.57,0-.12,0-.44.05.91,0,1.76,0,1.83,0a3.54,3.54,0,0,1-1.14-.14H238l-.12,0c.6,0,1.52-.12,4.15-.1,4.44,0,9.27,0,13.74,0-.07,0-1,0-1.95.06.6,0,1.51,0,2.06,0-1.08,0,1.88,0,1-.05,3.27-.11,7.51,0,10.4-.08.25-.1,6.19-1.68,6.19-1.79h2.06c-.23,0-2,0-2.93,0l-.16.06c-2.16,0-.5,0-2.61,0-.11-.05,1.82-.06,3.53-.07-1.54,0-3.07,0-3.69,0-1.44,0,.16-.06-1.58-.08-1.24,0-2.87.06-4.29,0h0c-3.46-.05-5.29.08-8.45,0l.34,0c-1.12,0-3.32,0-5.33,0,.57,0,1.07,0-.14.05-2.32,0-3.9,0-5.59,0l-1.63,0c-8.07,0-39.93.06-48,.07h.32c-12.35,0-37.69,0-50.45.09-2,0-4.7,0-6.75-.05,1.15,0,.75.06-.14.05-6.27,0-.42,0-6.77.05-7.31,0-35.26,0-41.75,0-3.48.07-7.83,0-11.24.06l.34,0c-3.67,0-24.41,0-28.67,0h.57c-3.71,0-3.21,0-6.14-.06a38.29,38.29,0,0,1-4,.13l0,0c-1.83,0-6,.08-9,.09l.12,0c-2.52,0-7.26,0-9.07,0-4.14,0-10.53-.1-16.08,0L2.74,73H2.22s-5.76,1.53,1.55,1.85l-.12,0H5.1c1.74,0,2.54,0,2.42,0H5.14c1.74,0,.53,0-.14.06l2,0c.34,0-.25,0-.52,0,.94,0,2.24-.06,3.39,0,1.79,0,.11.07,2.2.08,11,0,21.64.09,32.75.08.25,0,0,0-.37,0l9.37,0c.85,0,1.08,0,1.33.07C54.66,75.15,72,75.14,72.26,75.15Z" transform="translate(0 0)"/>      </g>      <path class="b" d="M271.11,75.07" transform="translate(0 0)"/>      <g>        <path class="a" d="M288.44,74.28a1.07,1.07,0,0,0-.25-.3A.9.9,0,0,0,288.44,74.28Z" transform="translate(0 0)"/>        <polygon class="a" points="288.19 73.98 288.19 73.97 288.19 73.98 288.19 73.98"/>        <path class="a" d="M265.6,56.83l.09.08Z" transform="translate(0 0)"/>        <path class="a" d="M283,69.19l-.07,0c-.26-.23,0-.14-.27-.33-.17,0-.39-.36-.51-.39s-.11-.11-.08-.13-.13-.1-.21-.15,0,0,0,.06l-.18-.13c-.05-.07,0-.11,0-.06-.43-.41-2.51-2.34-3-2.74,0,.09.2.2.21.3-.15-.08-.18-.18-.26-.19s-.26-.26-.28-.43h-.08l0-.08a3,3,0,0,1-.63-.54A7.26,7.26,0,0,1,277,64s.06.11,0,.05-.22-.14-.22-.22-.31-.27-.28-.15c0-.06-.21-.26-.07-.17a1.12,1.12,0,0,0-.19-.17l.08.1c-.24-.2-.34-.36-.53-.45l.07.1c-.14-.12-.27-.22-.27-.33l.16.11a4.91,4.91,0,0,0-.6-.47l.07.06c-.3-.17-1.65-1.28-1.94-1.42l.07.14L273.1,61s.22-.05.23,0c-.43-.37-2.66-2.3-3-2.67-.14-.16,0-.09,0-.1-.21-.15-.12,0-.28-.18s0,0,.07,0-.13-.13-.15-.12,0,.11,0,.18l-.21-.19,0,0s-.2,0-.39-.22-.73-.65-1.07-1c0,0,.11,0,.19.09a.85.85,0,0,1-.15-.15c.05.11-.17-.11-.12,0-.33-.15-.6-.52-.87-.66-.08.06-1.6.82-1.67.91a1.26,1.26,0,0,1-.15-.15s.13.17.21.22l.05,0c.18.13,0,.06.18.21,0,0-.18-.08-.32-.2.12.11.21.25.3.25s-.05,0,.07.17a1.47,1.47,0,0,1,.36.27h0c.24.28.47.31.68.57h0c.07.1.27.22.4.39,0,0-.05-.11,0,0s.31.27.41.42l.16.08c.63.57,3.17,2.73,3.81,3.29l0,0c1,.84,3,2.61,4,3.45a4.73,4.73,0,0,0,.5.51c-.08-.09,0-.09,0,0,.49.44.06,0,.57.43s2.76,2.46,3.24,2.94c.32.19.63.53.92.74h0c.31.23,1.89,1.73,2.24,2l0,0c.32.23.23.25.44.47,0-.09.3.1.4.18h0c.15.12.52.35.77.56l0,0a7.49,7.49,0,0,1,.73.61,11.8,11.8,0,0,0,1.24,1.15l.2.34,0,0s1.47-.74,1.11-1.49l0,0-.12-.1c-.12-.14-.22-.15-.18-.18l.18.17c-.13-.13,0-.06.05,0a1.4,1.4,0,0,1-.14-.16s0,0,0,.06a1.13,1.13,0,0,1-.29-.21c-.14-.13,0-.06-.12-.21-.84-.79-1.64-1.57-2.52-2.34,0,0,0,0,0,0-.28-.22-.5-.43-.76-.63a.3.3,0,0,1-.06-.14C284.38,70.42,283,69.21,283,69.19Z" transform="translate(0 0)"/>      </g>      <g>        <path class="a" d="M266.19,55.32a.56.56,0,0,0,0,.28A.47.47,0,0,0,266.19,55.32Z" transform="translate(0 0)"/>        <polygon class="a" points="266.19 55.6 266.19 55.6 266.19 55.6 266.19 55.6"/>        <path class="a" d="M272.21,74.78l0-.08A.36.36,0,0,0,272.21,74.78Z" transform="translate(0 0)"/>        <path class="a" d="M267,60.52h.08c0,.24-.08.09,0,.31.13.06.06.37.14.44s0,.11,0,.11,0,.11.07.17,0,0,0,0l.05.15c0,.07,0,.09-.06,0,.06.41.39,2.39.51,2.83,0-.07,0-.2,0-.26.06.11,0,.17.07.22s0,.26-.06.37l.07,0,0,.07a1.48,1.48,0,0,1,.13.57c.06.26.17.37.17.52,0,0,0-.09.05,0s.07.17,0,.22.06.28.11.2,0,.24-.06.13a.56.56,0,0,0,0,.17v-.09c.05.22,0,.35.12.48V67c0,.13.06.24,0,.31l0-.13a2.45,2.45,0,0,0,.15.52v-.07c.12.22.42,1.42.55,1.61l0-.11.08.17s-.2-.05-.18-.07c.08.39.53,2.43.57,2.8,0,.15-.08,0-.09,0,.06.17.07.07.1.22s0,0-.06,0,0,.13,0,.13.08-.07.12-.11l0,.2h0s.14.09.16.28.13.67.19,1c0,0-.06-.07-.08-.13a.44.44,0,0,1,0,.15c0-.09.06.13.06.07.15.22.12.54.23.74.1,0,1.73.12,1.85.1a.64.64,0,0,1,0,.15.33.33,0,0,0,0-.22h-.06c-.05-.15,0,0,0-.2s.09.12.12.24c0-.11,0-.23-.07-.27s.06,0,.06-.13a.74.74,0,0,1-.1-.3h0c0-.26-.15-.37-.15-.61l0,0c0-.09-.06-.24-.06-.39,0,0,0,.09-.05,0s-.06-.28,0-.41l-.07-.11c-.11-.59-.64-2.89-.76-3.48v0c-.2-.89-.57-2.74-.82-3.65a2.38,2.38,0,0,0,0-.5c0,.09,0,.07-.05,0-.09-.46,0,0-.15-.48s-.5-2.57-.56-3c-.12-.24-.13-.57-.22-.81l0,0c-.08-.26-.31-1.78-.4-2.09v0c-.1-.26,0-.24,0-.46-.07,0-.17-.18-.19-.27h0c0-.13-.17-.42-.22-.64h0a3.71,3.71,0,0,1-.16-.65,5.9,5.9,0,0,0-.2-1.18l.07-.28,0,0s-1.58-.12-1.79.47h0l0,.1c0,.13.07.18,0,.18l0-.17c0,.13,0,0-.06,0a.71.71,0,0,1,0,.15s0,0,0,0a.58.58,0,0,1,.09.24c0,.13-.07,0,0,.17.13.81.23,1.59.4,2.4,0,0,0,0,0,0,.07.24.1.46.17.68a.2.2,0,0,1,0,.11A11.24,11.24,0,0,1,267,60.52Z" transform="translate(0 0)"/>      </g>      <path class="b" d="M287.88,75.07" transform="translate(0 0)"/>      <g>        <path class="a" d="M284.86,75a7.2,7.2,0,0,0,1,.06A6,6,0,0,0,284.86,75Z" transform="translate(0 0)"/>        <path class="a" d="M285.9,75h0Z" transform="translate(0 0)"/>        <path class="a" d="M360.89,72.85h0Z" transform="translate(0 0)"/>        <path class="a" d="M304.62,75.15l.06-.08c.92,0,.27.09,1.11.07.33-.11,1.41,0,1.7,0,0,0,.41,0,.38,0a3,3,0,0,1,.69,0c.09,0-.07,0-.14,0l.6,0c.23,0,.29.06,0,.06,1.57,0,9.09.08,10.78.05-.22,0-.74,0-.94-.09.45,0,.66,0,.85,0,.17.11,1,0,1.32.14l.13-.06.22,0a20.72,20.72,0,0,1,2.19,0c1,0,1.49-.09,2-.06-.08,0-.31,0,0-.05,0,.05.69,0,.82,0s1.08,0,.8-.07c.14,0,.88.05.44.08.25,0,.49,0,.67,0L328,75c.84,0,1.3,0,1.85,0l-.31,0a4.29,4.29,0,0,1,1.12.06l-.52,0c.83,0,1.34,0,2,0H332c.89-.07,5.52-.13,6.34-.22l-.38-.06.7,0c-.08,0-.34.18-.41.17,1.5,0,9.33,0,10.72,0,.56,0,.1.09.09.1.68,0,.29-.06.87-.06.16,0,0,0-.12.05a2.94,2.94,0,0,0,.51,0c-.32,0-.18-.09-.32-.14h.75l0,0a5.56,5.56,0,0,1,1.15-.1c1.24,0,2.58,0,3.82,0a2.42,2.42,0,0,1-.54.06c.17,0,.42,0,.57,0-.3,0,.52,0,.29-.05.91-.11,2.09,0,2.89-.08.07-.1,1.72-1.68,1.72-1.79h.57a4.42,4.42,0,0,0-.82,0l0,.06c-.6,0-.14,0-.73,0a3.47,3.47,0,0,1,1-.07,5.27,5.27,0,0,0-1,0c-.4,0,0-.06-.44-.08a10.21,10.21,0,0,1-1.19,0h0c-1-.05-1.47.08-2.35,0l.09,0c-.31,0-.92,0-1.48,0,.16,0,.3,0,0,.05-.64,0-1.08,0-1.56,0l-.45,0c-2.24,0-11.11.06-13.36.07h.09c-3.44,0-10.49,0-14,.09-.55,0-1.31,0-1.88-.05.32,0,.21.06,0,.05-1.75,0-.12,0-1.88.05-2,0-9.81,0-11.62,0-1,.07-2.18,0-3.13.06l.1,0c-1,0-6.79,0-8,0h.16a12.54,12.54,0,0,1-1.71-.06c.11.08-.78.13-1.12.13v0c-.51,0-1.66.08-2.5.09l0,0c-.7,0-2,0-2.52,0-1.15,0-2.93-.1-4.47,0l-1-.13h-.15s-1.6,1.53.43,1.85l0,0h.4c.48,0,.71,0,.67,0h-.66c.49,0,.15,0,0,.06l.56,0c.1,0-.07,0-.15,0a7.76,7.76,0,0,1,.94,0c.5,0,0,.07.61.08,3.06,0,6,.09,9.11.08.07,0,0,0-.1,0l2.61,0a1.52,1.52,0,0,1,.37.07C299.72,75.15,304.54,75.14,304.62,75.15Z" transform="translate(0 0)"/>      </g>      <g>        <path class="a" d="M3.21,70.75a8.18,8.18,0,0,0-.06,1.1A6.86,6.86,0,0,0,3.21,70.75Z" transform="translate(0 0)"/>        <path class="a" d="M3.15,71.85h0Z" transform="translate(0 0)"/>        <path class="a" d="M5.31,151.72c0-.1,0-.22,0-.34C5.31,151.5,5.31,151.61,5.31,151.72Z" transform="translate(0 0)"/>        <path class="a" d="M3,91.79l.08.06c0,1-.09.28-.07,1.19.11.35,0,1.5,0,1.81,0,0,0,.44,0,.41a3.41,3.41,0,0,1,0,.73c0,.1,0-.07,0-.15l0,.64c0,.25-.06.31-.06,0C3,98.19,3,106.21,3,108c0-.23,0-.79.09-1,0,.48,0,.7,0,.91-.11.18,0,1-.14,1.4l.06.14,0,.24c.06,2.09,0,.48,0,2.33,0,1.07.09,1.58.06,2.18,0-.09,0-.33.05,0-.05,0,0,.74,0,.88s0,1.15.07.86c0,.15-.05.94-.08.47,0,.27,0,.52,0,.71l0-.34c0,.9,0,1.38,0,2l0-.33a4.86,4.86,0,0,1-.06,1.19l0-.55c0,.89,0,1.42,0,2.17v-.26c.07.94.13,5.88.22,6.75l.06-.4,0,.75c0-.09-.18-.36-.17-.44,0,1.6,0,9.94,0,11.42,0,.6-.09.11-.1.1,0,.73.06.31.06.93,0,.17,0,0-.05-.13a3.34,3.34,0,0,0,0,.54c0-.34.09-.2.14-.34v.79l0,0a6.29,6.29,0,0,1,.1,1.23c0,1.32,0,2.75,0,4.07a2.75,2.75,0,0,1-.06-.58c0,.18,0,.45,0,.61,0-.32,0,.56.05.31.11,1,0,2.23.08,3.08.1.07,1.68,1.83,1.79,1.83,0,.27,0,.53,0,.61a5,5,0,0,0,0-.87l-.06,0c0-.64,0-.15,0-.77a3.92,3.92,0,0,1,.07,1,6,6,0,0,0,0-1.09c0-.43.06,0,.08-.47a11.6,11.6,0,0,1,0-1.27h0c.05-1-.08-1.57,0-2.5l0,.1c0-.33,0-1,0-1.58,0,.17,0,.32-.05,0,0-.69,0-1.15,0-1.66l0-.48c0-2.39-.06-11.83-.07-14.23v.09c0-3.66,0-11.17-.09-14.95,0-.58,0-1.39.05-2,0,.34-.06.22-.05,0,0-1.86,0-.13-.05-2,0-2.16,0-10.45,0-12.37-.07-1,0-2.32-.06-3.33l0,.1c0-1.09,0-7.23,0-8.5v.17a14.24,14.24,0,0,1,.06-1.82c-.08.11-.13-.83-.13-1.19H5c0-.54-.08-1.77-.09-2.67l0,0c0-.75,0-2.15,0-2.69,0-1.23.1-3.12,0-4.76l.13-1.06V71s-1.53-1.71-1.85.46l0,0v.43c0,.51,0,.75,0,.72v-.7c0,.52,0,.16-.06,0,0,.22,0,.43,0,.6s0-.07,0-.16a8.82,8.82,0,0,1,0,1c0,.53-.07,0-.08.65,0,3.26-.09,6.41-.08,9.71,0,.07,0,0,0-.11,0,1,0,1.87,0,2.78a1.72,1.72,0,0,1-.07.39C3,86.57,3,91.71,3,91.79Z" transform="translate(0 0)"/>      </g>      <g>        <path class="a" d="M356.61,70.75a8.19,8.19,0,0,0-.06,1.1A6.83,6.83,0,0,0,356.61,70.75Z" transform="translate(0 0)"/>        <path class="a" d="M356.55,71.85h0Z" transform="translate(0 0)"/>        <path class="a" d="M358.71,151.72c0-.1,0-.22,0-.34C358.71,151.5,358.71,151.61,358.71,151.72Z" transform="translate(0 0)"/>        <path class="a" d="M356.41,91.79l.08.06c0,1-.09.28-.07,1.19.11.35,0,1.5,0,1.81,0,0,0,.44,0,.41a3.41,3.41,0,0,1,0,.73c0,.1,0-.07,0-.15l0,.64c0,.25-.06.31-.06,0,0,1.67-.08,9.68-.05,11.48,0-.23,0-.79.09-1,0,.48,0,.7,0,.91-.11.18,0,1-.14,1.4l.06.14,0,.24c.06,2.09,0,.48,0,2.33,0,1.07.09,1.58.06,2.18,0-.09,0-.33.05,0-.05,0,0,.74,0,.88s0,1.15.07.86c0,.15-.05.94-.08.47,0,.27,0,.52,0,.71l0-.34c0,.9,0,1.38,0,2l0-.33a4.85,4.85,0,0,1-.06,1.19l0-.55c0,.89,0,1.42,0,2.17v-.26c.07.94.13,5.88.22,6.75l.06-.4,0,.75c0-.09-.18-.36-.17-.44,0,1.6,0,9.94,0,11.42,0,.6-.09.11-.1.1,0,.73.06.31.06.93,0,.17,0,0-.05-.13a3.32,3.32,0,0,0,0,.54c0-.34.09-.2.14-.34v.79l0,0a6.25,6.25,0,0,1,.1,1.23c0,1.32,0,2.75,0,4.07a2.71,2.71,0,0,1-.06-.58c0,.18,0,.45,0,.61,0-.32,0,.56.05.31.11,1,0,2.23.08,3.08.1.07,1.67,1.83,1.79,1.83,0,.27,0,.53,0,.61a5,5,0,0,0,0-.87l-.06,0c0-.64,0-.15,0-.77a3.93,3.93,0,0,1,.07,1,6,6,0,0,0,0-1.09c0-.43.06,0,.08-.47a11.48,11.48,0,0,1,0-1.27h0c.05-1-.08-1.57,0-2.5l0,.1c0-.33,0-1,0-1.58,0,.17,0,.32-.05,0,0-.69,0-1.15,0-1.66l0-.48c0-2.39-.06-11.83-.07-14.23v.09c0-3.66,0-11.17-.09-14.95,0-.58,0-1.39.05-2,0,.34-.06.22-.05,0,0-1.86,0-.13-.06-2,0-2.16,0-10.45,0-12.37-.07-1,0-2.32-.06-3.33l0,.1c0-1.09,0-7.23,0-8.5v.17a14.23,14.23,0,0,1,.06-1.82c-.08.11-.13-.83-.13-1.19h0c0-.54-.08-1.77-.09-2.67l0,0c0-.75,0-2.15,0-2.69,0-1.23.1-3.12,0-4.76l.13-1.06V71s-1.53-1.71-1.85.46l0,0v.43c0,.51,0,.75,0,.72v-.7c0,.52,0,.16-.06,0,0,.22,0,.43,0,.6s0-.07,0-.16a8.77,8.77,0,0,1,0,1c0,.53-.07,0-.08.65,0,3.26-.09,6.41-.08,9.71,0,.07,0,0,0-.11,0,1,0,1.87,0,2.78a1.73,1.73,0,0,1-.07.39C356.42,86.57,356.42,91.71,356.41,91.79Z" transform="translate(0 0)"/>      </g>    </g>    <g>      <g>        <path class="c" d="M140.53,52.55c.06.1,4.07-2.49,4.13-2.38s-4.05,4-4,4.09,3.94-2.41,4-2.31-4.06,3.25-4,3.36,3.94-2.41,4-2.31-3.87,3.23-3.8,3.34,3.76-2.3,3.81-2.2-3.25,2.87-3.2,3,3.16-1.93,3.21-1.85-2.06,2.13-2,2.19,1.63-1,1.65-1" transform="translate(0 0)"/>        <path class="c" d="M145.62,48.94c.07.11,4.5-2.75,4.57-2.64s-1.34,2.29-1.3,2.34,3.37-2.06,3.42-2-1.46,1.77-1.43,1.82,2.22-1.36,2.26-1.3-1.64,1.84-1.61,1.89,2.29-1.4,2.32-1.34-2.62,2.81-2.57,2.89,3.37-2.06,3.42-2-6.54,5-6.44,5.19,6.87-4.2,7-4-6.34,4.53-6.25,4.7,6.19-3.79,6.29-3.63-5,4.1-4.93,4.25,4.47-2.73,4.54-2.62-3.51,3-3.46,3.11,2.9-1.77,2.95-1.7" transform="translate(0 0)"/>        <path class="c" d="M130.91,54.89c0,.06,2.17-1.33,2.2-1.27s-1.87,2.39-1.83,2.45c.24.41,16.28-10,16.52-9.54s-15.9,9.57-15.67,10,12.48-7.63,12.66-7.31-11.09,7.28-10.92,7.57c0,.07,2.85-1.74,2.89-1.67" transform="translate(0 0)"/>        <path class="c" d="M131.67,44.34s1.63-1,1.66-1-2.53,2.56-2.48,2.63,4.71-2.88,4.77-2.76-5.22,4.59-5.13,4.75,4.91-3,5-2.88-4.25,3.81-4.18,3.93,3.48-2.12,3.53-2-2.48,2.38-2.44,2.46,2.64-1.61,2.68-1.55-.7,1.8-.68,1.84,3.7-2.26,3.75-2.17-1.7,2.61-1.66,2.68,8-4.9,8.14-4.7-8,5.31-7.87,5.52,7.87-4.81,8-4.61" transform="translate(0 0)"/>        <path class="c" d="M145.59,43.6c.11.2,7.82-4.78,7.94-4.58s-5.86,4.18-5.77,4.34,5.64-3.44,5.72-3.3-2.55,2.81-2.5,2.9,1.7-1,1.72-1" transform="translate(0 0)"/>        <path class="c" d="M145.6,38.72c.1.18,7.15-4.37,7.25-4.19s-3.8,3.77-3.73,3.89,2.92-1.78,3-1.71-3.19,3.36-3.13,3.46,4-2.46,4.09-2.36" transform="translate(0 0)"/>        <path class="c" d="M144.76,30.49s1.47-.9,1.49-.86-2.72,3-2.67,3.07,4-2.42,4-2.32-4,3.72-3.89,3.83,5.2-3.18,5.27-3-4.29,3.29-4.22,3.41,6.3-3.85,6.39-3.69" transform="translate(0 0)"/>        <path class="c" d="M147,33.56c.07.12,4.69-2.87,4.76-2.75s-2,2.39-1.95,2.46,4.39-2.68,4.45-2.57-4.77,4.1-4.69,4.23,5.41-3.31,5.49-3.17" transform="translate(0 0)"/>        <path class="c" d="M130.43,38.75s1-.63,1.05-.61-.77,1.53-.74,1.57,3.16-1.93,3.2-1.85-1.82,2.42-1.78,2.49,6.73-4.11,6.83-3.94-3.62,3.47-3.56,3.58,4.87-3,4.94-2.85-1.55,2.36-1.51,2.42,4.77-2.91,4.84-2.79-3.21,2.66-3.16,2.75,5.09-3.11,5.16-3-5.06,3.73-5,3.87,7-4.3,7.14-4.12S136,44.47,136.17,44.78s8.15-5,8.27-4.77-4.88,4.2-4.8,4.34,4.78-2.92,4.85-2.8-3.84,3.41-3.78,3.53,5.79-3.54,5.87-3.39-6,4.38-5.87,4.55,3.93-2.4,4-2.3" transform="translate(0 0)"/>        <path class="c" d="M139,33.29c0,.06,2.17-1.33,2.2-1.27" transform="translate(0 0)"/>        <path class="c" d="M134,32.87c0,.07,2.75-1.68,2.8-1.61s-2.29,2.89-2.25,3,5.56-3.4,5.64-3.26-5.32,4.2-5.23,4.35,6-3.69,6.13-3.54-5.87,4.34-5.77,4.5,2.92-1.79,3-1.71-2.72,2.63-2.67,2.72,3-1.83,3-1.75" transform="translate(0 0)"/>        <path class="c" d="M131.55,30.49s1.55-.95,1.58-.91-3.08,3.13-3,3.22,4.37-2.67,4.44-2.56-5.2,4.08-5.12,4.22,5.14-3.14,5.21-3-4.8,3.58-4.73,3.71,3.52-2.15,3.58-2.06" transform="translate(0 0)"/>        <g>          <path class="c" d="M136.72,45.21s1.91-1.17,1.94-1.12,1.46.87,1.48.91.81-.5.82-.48-.84,1.47-.82,1.51.93-.57.94-.54" transform="translate(0 0)"/>          <path class="c" d="M135.08,45.07s1.17-.72,1.19-.69S134.38,47,134.42,47s1.1-.67,1.11-.64-1.12,1.57-1.1,1.61,1-.6,1-.58,1.65.66,1.67.7,1.93-1.18,2-1.13l.47.85S141,46.94,141,47" transform="translate(0 0)"/>          <path class="c" d="M145.68,39.22s1.95-1.19,2-1.14,1,.76,1,.79.87-.53.88-.51-1.24,2.17-1.21,2.22,1-.63,1.05-.61" transform="translate(0 0)"/>          <path class="c" d="M144.19,39s1.17-.72,1.19-.69S144,40.26,144,40.31s.88-.54.89-.52-.69,2.1-.66,2.15,1-.58,1-.56.94.72,1,.75,3.05-1.87,3.1-1.79" transform="translate(0 0)"/>          <path class="c" d="M139.17,33.82c0,.06,2.48-1.51,2.51-1.45" transform="translate(0 0)"/>          <path class="c" d="M133.35,29.94s1.07-.66,1.09-.63-.3,1.83-.28,1.87,1-.59,1-.56l.86,1.14c0,.05,2-1.21,2-1.16s.09.86.11.88,1.75-1.07,1.78-1l.47,1.07s.8-.49.81-.47-.42,1.18-.4,1.21.84-.51.85-.49" transform="translate(0 0)"/>          <path class="c" d="M137.71,33.61s1.2-.73,1.22-.7-.93,2-.9,2,.77-.47.78-.45-.32,1.71-.3,1.75.77-.47.78-.45,0,1.64,0,1.67,1.49-.91,1.51-.87,1.56.67,1.58.71,1.9-1.16,1.93-1.11l.48.84s1.9-1.16,1.93-1.12,1.26.72,1.28.75,1.66-1,1.68-1" transform="translate(0 0)"/>          <path class="c" d="M147.18,34c0,.05,2-1.23,2-1.18s0,1.26,0,1.29,1-.64,1.06-.61" transform="translate(0 0)"/>          <path class="c" d="M145.57,33.93s1.25-.76,1.27-.73" transform="translate(0 0)"/>          <path class="c" d="M144.45,30.09s1.61-1,1.64-.94-2.57,2.31-2.53,2.39,1.66-1,1.68-1-2.52,2.73-2.48,2.81,1.24-.76,1.26-.73-1,1.63-.95,1.68.75-.46.76-.44l.63,1.19c.05.09,3.48-2.12,3.53-2s-3,2.57-3,2.66.87-.53.88-.51" transform="translate(0 0)"/>          <path class="c" d="M146.25,30s1.2-.73,1.22-.7-.34,1.79-.32,1.83,1-.6,1-.57l.56,1s2-1.2,2-1.15.12.85.13.87,2-1.2,2-1.15,1.42,1,1.45,1,.8-.49.82-.47-1.77,2-1.73,2.07,2.14-1.31,2.17-1.25-3.47,3.68-3.41,3.79,1.26-.77,1.28-.74S151.79,37,151.83,37s.74-.45.75-.43-.08,1.19-.07,1.22.76-.46.77-.45-.26,1.31-.25,1.34.75-.46.76-.44-.79,2-.77,2,.94-.57,1-.55-1.56,1.9-1.53,2,1.3-.79,1.32-.76" transform="translate(0 0)"/>          <path class="c" d="M145.62,44.15c0,.05,2-1.21,2-1.16s1.16.74,1.18.77,1.94-1.18,2-1.14l.42.77s1.71-1,1.73-1" transform="translate(0 0)"/>          <path class="c" d="M144.29,43.87s1.07-.66,1.09-.63-1.18,1.87-1.15,1.92.9-.55.91-.53-.9,1.65-.87,1.69.91-.56.92-.53.17,1.37.19,1.4,1.82-1.12,1.85-1.07,1.3.68,1.32.72,1.75-1.07,1.77-1,.28.86.29.88,1.18-.72,1.2-.69l.62,1.18s.84-.51.85-.49,0,1.07,0,1.09.8-.49.81-.47.24,1.52.26,1.56.75-.46.76-.44-.33,1.37-.31,1.4.76-.46.77-.44-.85,2.07-.82,2.12,1-.59,1-.56-1.35,1.67-1.32,1.71,1.1-.67,1.11-.64-2,2.57-1.93,2.65,1.26-.77,1.28-.74" transform="translate(0 0)"/>          <path class="c" d="M145.67,49.48s1.86-1.14,1.89-1.09.32.85.33.87,1.8-1.1,1.82-1.05l.52.82s1.3-.79,1.32-.76-.69,1.67-.67,1.71,1-.59,1-.56-4.19,4-4.11,4.14,3.59-2.2,3.65-2.1-3.13,3.18-3.08,3.27.88-.54.89-.51.39,1.13.4,1.15.93-.57.94-.54l.88,1.32s1.37-.84,1.39-.8" transform="translate(0 0)"/>          <path class="c" d="M144.36,49.18s1-.64,1.06-.61S144.24,51,144.28,51s.9-.55.91-.52-.92,1.54-.9,1.57.89-.54.9-.52-.92,1.62-.89,1.66.88-.54.89-.52-.91,1.59-.88,1.63.87-.53.89-.51-.9,1.49-.88,1.53.87-.53.88-.51" transform="translate(0 0)"/>          <path class="c" d="M140.18,53.38s.87-.53.88-.51-.91,2.05-.88,2.1.87-.53.88-.51-.84,1.43-.82,1.46.81-.5.82-.47-.59,1.26-.57,1.29.74-.45.75-.43.14,1.29.15,1.32,1-.61,1-.58l.6.83s1.58-1,1.61-.93" transform="translate(0 0)"/>          <path class="c" d="M138.7,53.17s1.8-1.1,1.83-1.05" transform="translate(0 0)"/>          <path class="c" d="M133.31,53.95c.05.09,3.68-2.25,3.73-2.16" transform="translate(0 0)"/>          <path class="c" d="M130.52,54.54c0,.06,2.4-1.46,2.43-1.4s-2.6,2.4-2.56,2.48.86-.53.87-.5.13,1.59.16,1.63.93-.57.95-.55.42,1.06.43,1.09c.12.2,8.08-4.94,8.19-4.73" transform="translate(0 0)"/>          <path class="c" d="M131.33,44s1.78-1.09,1.8-1-3,3.34-3,3.44,1.19-.73,1.21-.7S130,48,130,48.11s.77-.47.78-.45-.35,1.32-.33,1.35.74-.45.75-.44l.58,1.28s1.09-.66,1.1-.64l.67,1s1.44-.88,1.46-.84.86.9.88.92.74-.45.75-.43-.41,1.31-.4,1.34.77-.47.78-.45" transform="translate(0 0)"/>          <path class="c" d="M133.49,43.73s1.59-1,1.62-.93,1.33.72,1.35.75,2.14-1.31,2.17-1.25,1,.7,1.06.73,1.26-.77,1.27-.74" transform="translate(0 0)"/>          <path class="c" d="M130,38.37s1.22-.75,1.24-.72-1.24,2-1.21,2,.76-.46.77-.44.28,1.32.29,1.35,1.08-.66,1.1-.63,1.73.66,1.75.7,1.91-1.17,1.94-1.12.9.71.91.74,1.86-1.14,1.88-1.09,1.26.63,1.28.66.84-.51.85-.49-.69,1.49-.67,1.52.9-.55.91-.53" transform="translate(0 0)"/>          <path class="c" d="M131.55,38.52c0,.05,2-1.21,2-1.16l.45.88c0,.05,2-1.21,2-1.16" transform="translate(0 0)"/>          <path class="c" d="M133.87,33.76s.76-.47.77-.45-.5,1.2-.49,1.23.76-.47.77-.45-.37,1.56-.35,1.6.76-.47.77-.45S135,36.76,135,36.8s.76-.47.77-.45" transform="translate(0 0)"/>          <path class="c" d="M133.16,32.88s.81-.49.82-.47" transform="translate(0 0)"/>          <path class="c" d="M131.25,30.09s1.69-1,1.72-1-3.28,3.24-3.22,3.34,1.54-.94,1.56-.9-2.45,2.57-2.4,2.65,1.21-.74,1.23-.71-1,1.53-1,1.57.74-.45.75-.43.35,1.23.36,1.26,3.34-2,3.39-2" transform="translate(0 0)"/>        </g>      </g>      <g>        <path class="c" d="M215.73,51.23c.06.1,4-2.46,4.08-2.35s-2,2.4-2,2.47,3.07-1.87,3.11-1.8-3.24,3.41-3.18,3.51,3.48-2.13,3.53-2" transform="translate(0 0)"/>        <path class="c" d="M212,49.77s1.46-.89,1.48-.85-2,2.19-2,2.25,4.45-2.72,4.51-2.6-4.49,4-4.42,4.16,7.35-4.49,7.46-4.31-7.51,5.26-7.39,5.46,2.84-1.74,2.89-1.67-2.86,2.77-2.81,2.85,2.74-1.68,2.78-1.61S212,56.16,212,56.24s2.91-1.78,3-1.71-1.79,2.56-1.75,2.62,7.68-4.69,7.79-4.5-5.46,4.42-5.37,4.57,5.06-3.09,5.13-3-3.42,2.81-3.36,2.91,3.1-1.9,3.15-1.82" transform="translate(0 0)"/>        <path class="c" d="M212.52,40.71s1.31-.8,1.33-.77-1.31,1.62-1.28,1.67,3.79-2.32,3.84-2.22-2.72,3-2.67,3.08,5.68-3.47,5.76-3.33-3.7,3-3.64,3.11,4.31-2.64,4.38-2.53-4.55,4-4.48,4.1,4.64-2.83,4.7-2.72-6.05,5.07-6,5.24,2.89-1.76,2.93-1.69-2,2.53-2,2.6,3.07-1.88,3.11-1.8-1.92,2.28-1.88,2.35,2.53-1.55,2.57-1.48" transform="translate(0 0)"/>        <path class="c" d="M228.68,49.91c.09.15,5.88-3.59,6-3.45s-2.53,3-2.48,3.08,4.22-2.58,4.29-2.47-2.39,2.75-2.34,2.83,3.42-2.09,3.47-2-3.84,3.81-3.77,3.92,4.48-2.74,4.54-2.62-4.87,3.89-4.79,4,4.77-2.92,4.84-2.8" transform="translate(0 0)"/>        <path class="c" d="M223.9,48.19s1.44-.88,1.46-.84-2,2.5-1.92,2.57c.13.23,9.11-5.57,9.24-5.34s-9.32,6.46-9.18,6.71,9.07-5.54,9.2-5.31-9.27,6.59-9.13,6.84,4-2.42,4-2.32-4,3.34-4,3.45,3.88-2.37,3.94-2.27-3.88,3.86-3.81,4,3.76-2.3,3.82-2.2-3.46,3-3.41,3.14,4.06-2.48,4.12-2.38-2.4,3-2.35,3.11,5.92-3.62,6-3.47-3.65,3.26-3.59,3.37,9.77-6,9.92-5.73-6.89,5.41-6.78,5.6,6.43-3.93,6.53-3.77-4.16,3.55-4.09,3.67,3.84-2.35,3.9-2.25-2,2-2,2.11,1.44-.88,1.47-.85" transform="translate(0 0)"/>        <path class="c" d="M233.68,42.62c.07.11,4.44-2.71,4.5-2.6s-1.89,2.26-1.85,2.33,1.88-1.15,1.9-1.1" transform="translate(0 0)"/>        <path class="c" d="M222,41.33s1.26-.77,1.28-.74-1.28,1.74-1.25,1.78,3.77-2.3,3.82-2.21-3.05,2.92-3,3c.14.25,9.69-5.92,9.83-5.68s-8.55,5.83-8.42,6.06,8.37-5.11,8.49-4.9-5,4.43-4.95,4.58,8-4.86,8.07-4.66-7.73,5.94-7.61,6.15,9.28-5.67,9.42-5.44-9.64,7-9.49,7.25,4.37-2.67,4.44-2.56" transform="translate(0 0)"/>        <path class="c" d="M233.88,33.91c0,.07,2.59-1.58,2.63-1.52" transform="translate(0 0)"/>        <path class="c" d="M211.32,34.7s1.2-.74,1.22-.7-.91,2.05-.88,2.1,6.7-4.1,6.8-3.93-5.72,4.25-5.63,4.4,6.29-3.85,6.39-3.69-2.77,3.23-2.71,3.33,5.27-3.22,5.34-3.09-2.45,2.67-2.4,2.75S225.88,32,226,32.11s-3.33,3.51-3.27,3.62,8.8-5.38,8.93-5.16-5.94,4.72-5.84,4.88,8.75-5.35,8.88-5.13-6.27,5.21-6.16,5.39,7.43-4.54,7.54-4.35-7.69,5.59-7.57,5.8,4.2-2.57,4.26-2.46-4.37,4.08-4.3,4.21,4.22-2.58,4.28-2.47" transform="translate(0 0)"/>        <path class="c" d="M215,30.29s1.27-.78,1.29-.74-1.64,2.26-1.6,2.32,3-1.86,3.08-1.78-3.2,2.81-3.14,2.9,3.59-2.19,3.64-2.1" transform="translate(0 0)"/>        <g>          <path class="c" d="M228.75,50.42s1.87-1.14,1.9-1.1,1.13.74,1.14.77S233.62,49,233.64,49s-.21,1.47-.19,1.51,1-.63,1-.6-1.27,2-1.24,2.06,1-.61,1-.58" transform="translate(0 0)"/>          <path class="c" d="M227.33,50.21s1.13-.69,1.15-.66-1.33,1.93-1.3,2,.88-.54.89-.52-.92,1.8-.89,1.84.9-.55.92-.53-.83,1.59-.8,1.63.81-.5.83-.48.07,1.09.09,1.11,1.76-1.07,1.78-1,1.26.7,1.28.73,2.75-1.68,2.79-1.61" transform="translate(0 0)"/>          <path class="c" d="M215.84,51.72s1.81-1.1,1.83-1.06-.42,1.24-.4,1.27.94-.58,1-.55-1,1.81-1,1.85.93-.57.94-.54" transform="translate(0 0)"/>          <path class="c" d="M214.33,51.57s1.2-.73,1.21-.7-1.44,2.51-1.4,2.58.92-.56.93-.54-.75,1.58-.73,1.62.86-.52.87-.5,1.63.65,1.65.69,1.08-.66,1.09-.63" transform="translate(0 0)"/>          <path class="c" d="M214.1,40.28c0,.06,2.47-1.51,2.5-1.45s1.81.47,1.83.51,1.17-.72,1.19-.69.06,1.07.07,1.1.8-.49.81-.47-.55,1.81-.53,1.85,1-.62,1-.6-3.18,2.8-3.13,2.89,2.65-1.62,2.69-1.55-3.54,2.88-3.48,3,1.6-1,1.63-.94-.3,1.83-.27,1.87.8-.49.81-.47-.34,1.27-.32,1.3.81-.49.82-.47-1.24,2.07-1.2,2.13,1-.6,1-.58.06,1.48.08,1.51.87-.53.89-.51.6,1.4.62,1.43.87-.53.88-.51-1.34,2.47-1.3,2.53,1-.59,1-.56-1.21,1.93-1.18,2,1-.59,1-.56-1.27,2.14-1.24,2.2,1-.6,1-.58" transform="translate(0 0)"/>          <path class="c" d="M211.56,49.42s1.68-1,1.7-1S211,51,211,51.12s1-.59,1-.57-1,1.57-.93,1.61.84-.51.85-.49-.8,1.76-.78,1.81S212,53,212,53s-.8,1.78-.77,1.82.84-.51.85-.49-.67,1.75-.64,1.8.78-.48.79-.46,0,1.55,0,1.58.83-.51.85-.49,1.36,1,1.38,1,1.59-1,1.61-.93l.64.86s1.59-1,1.61-.93l.64.74s1.52-.93,1.54-.89" transform="translate(0 0)"/>          <path class="c" d="M213.59,49.29c0,.05,2-1.21,2-1.16l.66.8s1.43-.87,1.45-.83" transform="translate(0 0)"/>          <path class="c" d="M212.15,40.31s1.39-.85,1.41-.82-1.62,1.84-1.59,1.9.85-.52.86-.5-.49,1.19-.47,1.22.75-.46.77-.44-.09,1-.07,1,1-.59,1-.57.26.84.27.86,2.18-1.33,2.21-1.28-1.7,2.3-1.66,2.36,2.45-1.49,2.48-1.43-3.45,3.13-3.4,3.24,1-.63,1-.6-.69,1.75-.67,1.79.79-.49.81-.47l.7,1.35s.93-.57.94-.54" transform="translate(0 0)"/>          <path class="c" d="M234,34.41c0,.07,2.95-1.8,3-1.73" transform="translate(0 0)"/>          <path class="c" d="M216.62,29.88s1-.59,1-.56.23,1.34.25,1.37.75-.46.76-.44-.56,2-.53,2,.88-.54.9-.52,0,1.48.06,1.52,2-1.21,2-1.16.49,1.26.51,1.29,2.06-1.26,2.09-1.21,1.47.48,1.49.51S228,31,228.08,31s.22.83.23.85,3-1.81,3-1.74.2.84.21.86,2.32-1.42,2.35-1.36l.6,1s.94-.57.95-.55,0,1.13,0,1.16.77-.47.79-.45S236,32,236,32s.73-.45.74-.43" transform="translate(0 0)"/>          <path class="c" d="M232.5,34.3s1.31-.8,1.33-.77-1.51,2.11-1.47,2.17.88-.54.9-.52-.94,2.15-.91,2.2.91-.56.93-.54-.86,1.81-.83,1.85.83-.51.84-.49-.29,1.08-.27,1.1,1.94-1.19,2-1.14,1.68.8,1.7.85.9-.55.92-.53.21,1.59.23,1.63.75-.46.76-.44-.76,1.54-.74,1.58,1-.59,1-.57" transform="translate(0 0)"/>          <path class="c" d="M233.73,43.16s1.93-1.18,2-1.13l.47.85c0,.06,2.5-1.53,2.53-1.46" transform="translate(0 0)"/>          <path class="c" d="M232.43,42.91s1.14-.7,1.16-.67-1.32,1.62-1.29,1.67.92-.56.93-.54-1,2-.93,2.08.92-.56.94-.54-.76,1.4-.74,1.43.78-.48.79-.46,1,.91,1,.94,1.2-.73,1.22-.7l.85,1.32s.88-.54.89-.51.18,1.32.2,1.35.77-.47.78-.45-.28,1.38-.26,1.41.74-.45.75-.43-.78,2.08-.75,2.13.94-.57,1-.55-1.24,2.3-1.21,2.35,1-.58,1-.56-1.18,1.84-1.15,1.88,1-.58,1-.56-1.33,1.87-1.3,1.92,1.1-.67,1.12-.65" transform="translate(0 0)"/>          <path class="c" d="M223.48,47.84s1.65-1,1.68-1-2.27,2.86-2.23,2.94.9-.55.92-.53-.87,1.92-.85,2,.87-.53.88-.51-.83,2.16-.8,2.21.84-.52.86-.49-.8,2.19-.77,2.24.85-.52.86-.5-.73,1.7-.71,1.74.77-.47.78-.45-.28,1.44-.26,1.47.79-.48.8-.46,0,1,0,1.06,1.06-.65,1.07-.62,1.11.81,1.13.84,1.62-1,1.64-.95l.6.86s1.62-1,1.64-.95l.71.85s1.62-1,1.64-.95l.61.86s1.62-1,1.64-.95.76.7.78.72,1.43-.87,1.45-.84" transform="translate(0 0)"/>          <path class="c" d="M225.48,47.72c0,.05,2-1.23,2-1.18" transform="translate(0 0)"/>          <path class="c" d="M221.67,40.92s1.35-.83,1.37-.79-1.57,2.09-1.54,2.15.83-.51.84-.48-.2,1.42-.18,1.45.77-.47.78-.45.36,1.14.38,1.17,1.33-.82,1.35-.78,1.23.69,1.24.72,1.79-1.1,1.82-1.05,0,1.27,0,1.3.89-.55.91-.52-.95,1.52-.92,1.56.94-.58,1-.55-1,1.61-1,1.65.94-.58,1-.55" transform="translate(0 0)"/>          <path class="c" d="M223.42,41c0,.05,2.16-1.32,2.19-1.27l.39.84c0,.07,2.79-1.71,2.83-1.64" transform="translate(0 0)"/>          <path class="c" d="M212.69,34.36c0,.06,2.32-1.42,2.35-1.36" transform="translate(0 0)"/>          <path class="c" d="M210.92,34.33s1.36-.83,1.38-.8-1.39,2.32-1.36,2.38.75-.46.76-.44-.1,1.17-.08,1.2.93-.57.95-.55,1.53.82,1.55.86,1.88-1.15,1.91-1.1,1,.74,1,.77,1.88-1.15,1.91-1.1,1.8.64,1.82.68,1.75-1.07,1.77-1l.53,1.2c0,.05,2.1-1.28,2.13-1.23s2.42.36,2.45.41,1-.61,1-.58-.76,1.81-.74,1.85.93-.57.94-.54-1,2.22-.95,2.28.89-.55.91-.52" transform="translate(0 0)"/>          <path class="c" d="M214.7,29.94s1.53-.94,1.56-.9-2.07,2.5-2,2.57.91-.56.92-.53-1,1.61-1,1.65.9-.55.91-.53" transform="translate(0 0)"/>        </g>      </g>      <g>        <path class="d" d="M180.22,11c.19.32,12.69-7.75,12.87-7.43s-9.65,7.63-9.5,7.9,11.48-7,11.65-6.73S184.92,12,185.08,12.25s11.28-6.89,11.44-6.61-9.74,7.92-9.58,8.2,11.3-6.91,11.47-6.62S187.68,14.69,187.85,15s11.38-7,11.54-6.67-11,7.41-10.82,7.69,11.51-7,11.68-6.74-11,8.26-10.82,8.55,11.73-7.17,11.9-6.87-11.59,8.14-11.41,8.45S202,12,202.16,12.32s-12,8.82-11.82,9.14,12.41-7.59,12.59-7.27S190.31,23,190.5,23.34s12.81-7.83,13-7.51-13.26,8.71-13.06,9.05,13.18-8.06,13.37-7.72-13.88,9.73-13.67,10.09S204,18.8,204.19,19.15,189.17,29.56,189.4,30s14.74-9,15-8.63-16,10.22-15.76,10.63,15.57-9.52,15.8-9.12" transform="translate(0 0)"/>        <path class="d" d="M169.59,4.9c.07.11,4.48-2.74,4.55-2.63s-8.79,6.89-8.65,7.13S179.63.76,179.84,1.12,163.71,11.47,164,11.89,182.4.61,182.67,1.08s-20.38,13.47-20.07,14S185.92.83,186.26,1.42,161.6,16.86,162,17.49,188.5,1.28,188.89,1.95,161.27,19,161.68,19.75,190.74,2,191.16,2.72s-30,18.41-29.58,19.17c.22.38,14.9-9.11,15.12-8.73s-15.2,9.81-15,10.21,13.62-8.33,13.82-8-13.68,9.46-13.47,9.82,12.74-7.79,12.93-7.46-12.44,9.38-12.25,9.71,12.06-7.37,12.24-7.06-11.91,8-11.73,8.35,11.73-7.17,11.9-6.87-11.2,8.32-11,8.62,11.43-7,11.6-6.7-11,7.69-10.8,8,11.18-6.83,11.34-6.55-10.59,7.56-10.43,7.84,11.1-6.78,11.26-6.5-10.5,7.3-10.34,7.58,11-6.7,11.12-6.42-9.7,7.7-9.55,8,11-6.7,11.12-6.42-9.41,7.65-9.26,7.92,11.18-6.83,11.34-6.55-9.74,7.46-9.58,7.72,11.62-7.1,11.79-6.81-10.58,7.27-10.42,7.54,12.08-7.38,12.25-7.07-11,7.47-10.79,7.76,12.63-7.72,12.81-7.4-10.1,7.45-9.94,7.72c.38.66,26.18-16,26.56-15.33.26.45-17.21,11.8-16.95,12.25S203.77,27,204,27.39s-19.52,13.31-19.23,13.82S203.13,30,203.4,30.46s-20.62,12.95-20.31,13.47S202.59,32,202.88,32.51,181,46,181.34,46.6,201.92,34,202.22,34.54,177.73,50.41,178.1,51,200.68,37.24,201,37.82s-25,16.13-24.63,16.77,22.8-13.93,23.13-13.36-22.07,14-21.74,14.61,19.81-12.11,20.1-11.6-18.24,11.71-18,12.18,16.17-9.88,16.4-9.47-13.41,10-13.2,10.34,10.1-6.17,10.24-5.91-7.63,6.28-7.51,6.5,4.38-2.68,4.44-2.56" transform="translate(0 0)"/>        <g>          <path class="d" d="M180.34,11.41s1.5-.92,1.52-.88.93,1.08,1,1.11,1-.59,1-.57l.77,1.42s.85-.52.86-.5.51,1.53.53,1.57.8-.49.81-.47.46,1.83.48,1.87.77-.47.78-.45S188,16,188,16s.72-.44.73-.42.28,2.49.31,2.54.73-.45.74-.43-.17,2.49-.14,2.55.78-.47.79-.45-.59,1.86-.56,1.9.84-.52.86-.49-.73,2.29-.7,2.34.83-.51.84-.49-1.09,3.23-1,3.3.92-.56.94-.54-1.53,2.88-1.49,2.95,1.06-.65,1.08-.62-2.07,3.09-2,3.17,1.24-.76,1.25-.72" transform="translate(0 0)"/>          <path class="d" d="M177,12.32c0,.07,2.91-1.78,3-1.7s-5.12,5.43-5,5.6,1.11-.68,1.13-.65-1.49,2.55-1.45,2.62.93-.57.94-.54-1,2.13-1,2.18.81-.5.82-.48-.59,2.81-.55,2.87.81-.5.82-.48-.26,2.21-.24,2.26.76-.46.77-.44.1,2.39.13,2.44.75-.46.76-.44.21,2,.24,2,.74-.45.76-.44.82,2.06.85,2.11.77-.47.79-.45l1.22,1.91s.86-.53.87-.5.44,1.16.46,1.18,1-.59,1-.57,1.34,1.32,1.36,1.36,1.09-.67,1.1-.64l.76,1s1.18-.72,1.2-.69" transform="translate(0 0)"/>          <path class="d" d="M174.62,2.5c0,.07,2.71-1.65,2.74-1.58s3.22.46,3.27.53,1.53-.93,1.55-.9,1.24.93,1.26,1,1.35-.83,1.37-.79,2.36,1.22,2.4,1.28,1.14-.7,1.16-.67l.91,1.12s1-.61,1-.58L190.83,3s1-.61,1-.58S193.1,3.94,193.13,4s.9-.55.91-.52l.75,1.43s.89-.55.91-.52l.88,1.81s.83-.51.84-.48.55,1.6.57,1.64.79-.48.8-.46.08,1.42.1,1.45.79-.48.8-.46.44,1.89.47,1.93.77-.47.78-.45.24,2.06.27,2.11S202,11,202,11s.25,2.5.28,2.55.77-.47.78-.45-.26,1.71-.24,1.74.77-.47.78-.45-.37,1.9-.34,1.94.79-.48.8-.46-.45,2-.42,2.08.79-.48.8-.46-.54,2.86-.5,2.92.83-.51.84-.49-.78,2.89-.74,3,.9-.55.92-.53-1.06,2.07-1,2.12.9-.55.92-.53-1.07,2.2-1,2.25.91-.55.92-.53-1.24,2.32-1.21,2.38,1-.61,1-.58-1.65,3.44-1.61,3.52,1-.61,1-.59-2.06,3.75-2,3.84,1.12-.68,1.13-.65-2.24,3.51-2.19,3.6,1.24-.76,1.26-.73-2.6,3.55-2.54,3.65,1.26-.77,1.28-.74-2.42,2.85-2.37,2.93,1.43-.87,1.45-.84-3.6,4.47-3.52,4.59,1.45-.89,1.47-.85-4.47,5.1-4.38,5.25,1.69-1,1.71-1-4.94,5-4.85,5.11,2-1.22,2-1.17" transform="translate(0 0)"/>          <path class="d" d="M169.3,4.49c.07.12,4.55-2.78,4.61-2.66S165,8.79,165.13,9c0,.05,2.05-1.25,2.08-1.2s-3.69,3.58-3.63,3.69,1.58-1,1.61-.93-3.09,4-3,4.15,1.25-.76,1.27-.73-1.94,3.07-1.9,3.15,1.05-.64,1.07-.62-1.44,2.82-1.4,2.89.91-.56.93-.54-1.09,2.64-1.06,2.71.85-.52.86-.5-.76,1.94-.74,2,.82-.5.83-.48-.55,2.29-.52,2.34.8-.49.81-.47-.2,2.68-.17,2.74.76-.46.77-.44-.29,1.69-.27,1.73.76-.46.77-.44,0,2.17.06,2.22.76-.47.77-.45,0,1.72,0,1.76.74-.45.75-.43.11,1.71.13,1.75.79-.48.8-.46S166,34,166,34s.75-.46.76-.44.71,2,.73,2,.78-.48.79-.46l1,2s.85-.52.86-.5l.84,1.7s.87-.53.88-.51.42,1.24.44,1.27.9-.55.91-.53.44,1.24.46,1.27.89-.54.9-.52,1.23,1.22,1.26,1.26,1.44-.88,1.46-.84c.12.21,9.31-3.19,9.43-3,0,0,1.79-1.1,1.82-1.05s-4.23,5-4.14,5.11,1.58-1,1.6-.92-3.35,3.54-3.29,3.64,1.6-1,1.62-.94S181,46.1,181,46.21s1.67-1,1.69-1-5,5.26-4.93,5.42,1.94-1.18,2-1.14-4,4.67-3.91,4.81.85-.52.86-.5,0,2,0,2,.85-.52.86-.5,1,1.19,1,1.23,1.06-.65,1.08-.62,2.09,1.44,2.13,1.5,1.06-.65,1.08-.62,1.44,1.27,1.47,1.31,1.24-.76,1.25-.72,1.44.79,1.46.83,2.67-1.63,2.71-1.57" transform="translate(0 0)"/>        </g>      </g>    </g>  </g></svg>