<svg xmlns="http://www.w3.org/2000/svg" width="73.84" height="19.44" viewBox="0 0 73.84 19.44">  <defs>    <style>      .a {        fill: #ff0;      }    </style>  </defs>  <title>アセット 4</title>  <g>    <g>      <path class="a" d="M12.31,18.43h-.08a.28.28,0,0,1-.17-.13c-.13-.22-.13-.22,1.13-1.2.55-.43,1.48-1.16,2.29-1.82L14.34,16c-3.22,2-3.64,2.22-3.89,2.16a.32.32,0,0,1-.18-.14c-.08-.15-.07-.2.25-.7-.25.15-.27.16-.37.14l.06-.26.23-.14-.23.14-.12-.24.19-.12c.95-.59,1-.59,1.11-.55a.27.27,0,0,1,.17.13c.1.16.07.21-.37.87.74-.42,1.92-1.16,2.86-1.75,2.77-1.74,3-1.87,3.25-1.82a.3.3,0,0,1,.18.13c.14.24.2.35-2,2.13.62-.36.67-.35.78-.32a.29.29,0,0,1,.17.13.27.27,0,0,1-.1.37.27.27,0,0,1-.12,0c-.23.1-1.17.68-1.87,1.11C12.73,18.28,12.45,18.43,12.31,18.43Z"/>      <path class="a" d="M14.13,15.42h-.08a.3.3,0,0,1-.18-.13c-.12-.21-.13-.23,1-1.11a.29.29,0,0,1-.09-.09c-.1-.17-.14-.24.67-1h-.1a.28.28,0,0,1-.17-.13c-.09-.15-.12-.2.4-.71h-.07a.27.27,0,0,1-.17-.13c-.08-.14-.07-.16.18-.57l.63-1c-.8.49-.82.48-.95.44a.28.28,0,0,1-.17-.13c-.09-.15-.09-.15.35-.91l.19-.33c-.86.5-.87.5-1,.47a.27.27,0,0,1-.16-.13c-.06-.1-.08-.13.13-1.64l-.78.48c-.55.34-.55.34-.67.31l.07-.26.24-.13-.24.13-.11-.25.42-.26c1.22-.77,1.3-.79,1.46-.75a.29.29,0,0,1,.17.13c0,.09,0,.09,0,.5,0,.25-.1.75-.15,1.12L15.5,9c.73-.43.73-.43.86-.39a.27.27,0,0,1,.15.12c.09.16.08.22-.51,1.23l.21-.13c.61-.37.61-.38.73-.35a.27.27,0,0,1,.17.13c.09.16.11.19-.7,1.52.84-.51.89-.5,1-.47a.28.28,0,0,1,.17.13c.12.18.06.23-.36.63l0,0c.22-.12.26-.12.34-.1a.28.28,0,0,1,.17.13c.11.2.08.22-.41.66l-.61.55c.72-.45.73-.45.85-.42a.27.27,0,0,1,.17.13c.09.15.12.21-.33.58h0a.29.29,0,0,1,.18.13.27.27,0,0,1-.1.37.26.26,0,0,1-.13,0c-.2.09-.88.52-1.39.85C14.61,15.25,14.31,15.42,14.13,15.42Z"/>      <path class="a" d="M8.4,13H8.32a.29.29,0,0,1-.18-.13c-.14-.23-.15-.26,1-1.08a.29.29,0,0,1-.09-.1c-.15-.26-.15-.27,2.26-2.15-.66.4-.78.43-.91.4a.3.3,0,0,1-.18-.13c-.14-.24-.11-.27,1.44-1.66-.88.53-.89.53-1,.49a.27.27,0,0,1-.17-.13c-.08-.16,0-.24.13-.45l1.29-1.74L12,6.11,12.19,6h0L12,6.11l-.1-.25.46-.27c.26-.16.29-.17.41-.14a.27.27,0,0,1,.16.12c.1.18.12.21-1.17,1.94l.11-.06c1.55-.94,1.57-.94,1.72-.9a.28.28,0,0,1,.17.13c.13.23.15.25-1.33,1.58,1.54-1,1.74-1.07,1.93-1a.31.31,0,0,1,.18.14c.15.27.16.27-2.44,2.31.18-.1.21-.09.29-.07a.27.27,0,0,1,.17.13c.11.19.12.3-.51.77a.27.27,0,0,1,.09.09A.27.27,0,0,1,12,11a.28.28,0,0,1-.13,0c-.21.09-1,.58-1.57.94C8.85,12.88,8.56,13,8.4,13Z"/>      <path class="a" d="M6.22,14.76H6.15A.29.29,0,0,1,6,14.62c-.11-.19-.09-.21.72-1.3L6.94,13l0,0c-.74.45-.73.45-.87.42a.27.27,0,0,1-.17-.13c-.1-.17-.12-.21.57-1l-.22.14c-.1.06-.32.19-.46,0s-.07-.3.66-1.14c-.41.25-.46.26-.57.23a.28.28,0,0,1-.17-.13c-.13-.21-.13-.21,1.24-1.27L9,8.49c-3,1.83-3.08,1.81-3.25,1.77a.29.29,0,0,1-.17-.13.27.27,0,0,1,.1-.37.27.27,0,0,1,.13,0c.34-.13,2.1-1.2,3.28-1.92,2.12-1.29,2.13-1.29,2.29-1.25a.28.28,0,0,1,.17.13c.16.28.21.37-3.71,3.4l0,0c.11.19.1.22-.68,1.11.46-.26.51-.25.6-.23a.27.27,0,0,1,.17.13c.1.18.1.18-.49.84l-.15.16c.41-.24.45-.23.55-.21a.28.28,0,0,1,.17.13c.12.2.08.28-.91,1.59l-.07.09,1.41-.88c2.58-1.63,2.9-1.78,3.13-1.72a.32.32,0,0,1,.18.14.27.27,0,0,1-.1.37.27.27,0,0,1-.17,0c-.33.12-1.73,1-2.75,1.64C6.8,14.54,6.42,14.76,6.22,14.76Z"/>      <path class="a" d="M8.38,5.15H8.3A.28.28,0,0,1,8.13,5a.27.27,0,0,1,.1-.37.28.28,0,0,1,.13,0c.24-.1,1.19-.69,1.84-1.09,1.47-.91,1.48-.9,1.62-.86a.28.28,0,0,1,.17.13c.09.17.09.17-.52,1L11.29,4c.5-.3,1.11-.68,1.56-1,1.27-.8,1.27-.8,1.43-.77a.27.27,0,0,1,.17.13c.09.17.12.21-.57,1,1.2-.72,1.22-.71,1.35-.67a.27.27,0,0,1,.17.13.27.27,0,0,1,0,.14.46.46,0,0,1-.1.21l-.22.27h.07l-.07.26-.23.13.23-.13.11.24-.72.42c-.41.24-.44.26-.59.15a.27.27,0,0,1-.07-.08c-.07-.12-.09-.16.22-.55l-.49.29c-1,.62-1,.62-1.16.58a.27.27,0,0,1-.15-.11c-.12-.18-.08-.22.3-.64l.35-.39C10.88,4.91,10.59,5,10.39,5a.3.3,0,0,1-.18-.13c-.09-.15-.09-.17.56-1.06l-.3.19C8.82,5,8.53,5.15,8.38,5.15Z"/>      <path class="a" d="M6.34,3.23H6.27a.28.28,0,0,1-.17-.13C6,2.94,6,2.9,6.42,2.5H6.35a.27.27,0,0,1-.17-.13c-.09-.16-.1-.17.42-.81a.28.28,0,0,1-.15-.12.27.27,0,0,1,.1-.37l.08,0L7,.79C7.44.52,7.47.5,7.6.53a.27.27,0,0,1,.17.12c.08.14.1.18-.2.55.52-.31.57-.3.67-.27a.28.28,0,0,1,.17.13c.08.14.11.19-.21.51a.2.2,0,0,1,.17,0l-.07.26L8.07,2l.23-.13.12.24L8,2.33A7.37,7.37,0,0,1,6.34,3.23Z"/>      <path class="a" d="M4,17.61H3.9a.3.3,0,0,1-.18-.13c-.08-.15-.07-.19.35-1.19l.15-.35-1.67,1c-.75.44-.78.46-.92.23s-.09-.22.4-.84c-.62.39-.71.41-.84.38A.29.29,0,0,1,1,16.53c-.1-.17-.1-.17.51-1l.25-.32-.22.13c-.64.38-.65.38-.76.35a.27.27,0,0,1-.16-.12c-.11-.18-.11-.18.82-1.3l.68-.83-.7.42c-.5.3-.5.3-.61.27A.27.27,0,0,1,.64,14c-.06-.1-.09-.16.12-.36v0l.07,0c.3-.26.94-.74,2.27-1.71S6.38,9.5,7.86,8.38l-2,1.24c-3.58,2.24-4,2.45-4.24,2.39a.32.32,0,0,1-.18-.14c-.13-.23-.13-.23,1.52-1.44L4.81,9.07c-1,.59-1.12.61-1.26.57a.3.3,0,0,1-.18-.13c-.1-.2,0-.31.17-.44,1.18-1,2-1.76,2.59-2.3a.24.24,0,0,1-.21,0,.27.27,0,0,1-.17-.13c-.15-.26-.1-.35,2-2.24l.21-.19-.75.46c-1.07.67-1.07.67-1.21.64a.27.27,0,0,1-.17-.13c-.1-.17-.1-.17.42-.8L7.31,3.11l-1.58,1c-1.87,1.16-1.88,1.15-2,1.11a.28.28,0,0,1-.17-.13c-.09-.15-.11-.18.29-.63-1.22.73-1.25.72-1.38.69A.28.28,0,0,1,2.26,5c0-.08,0-.08,0-.86,0-.17,0-.38,0-.56-.34.22-.41.25-.54.22a.28.28,0,0,1-.17-.13.27.27,0,0,1,.1-.37l.08,0L2,3.08c.35-.22.41-.26.54-.23A.27.27,0,0,1,2.7,3c0,.08.06.1.05,1.16v.29L4.14,3.6C5.17,3,5.17,3,5.3,3a.27.27,0,0,1,.17.13c.09.16.11.18-.38.71l.35-.22C7.91,2.09,8.08,2,8.26,2.08a.3.3,0,0,1,.18.13c.11.19.12.22-1.19,1.82,1.93-1.2,2.09-1.24,2.27-1.2A.31.31,0,0,1,9.7,3c.14.25.1.3-1.61,1.86l-.52.48c.16-.09.2-.08.27-.06A.27.27,0,0,1,8,5.37c.12.21.18.31-2.31,2.52l.41-.25c1.45-.9,1.45-.9,1.6-.86a.27.27,0,0,1,.17.13c.14.25.21.37-2.29,2.25C9.17,6.92,9.85,6.54,10.14,6.6a.32.32,0,0,1,.19.14c.18.31.22.38-6.91,5.6l-.15.11,0,0c.12.21.13.22-1.32,2,.58-.34.61-.33.71-.3a.27.27,0,0,1,.17.13c.1.18.1.24-.65,1.23.78-.5.83-.52,1-.48a.28.28,0,0,1,.17.13c.1.17.11.18-.46.88,1.73-1,1.74-1,1.87-1a.27.27,0,0,1,.17.13c.09.15.07.18-.38,1.27l-.15.37c1-.56,3.39-2,4.27-2.53s.73-.45.85-.42A.27.27,0,0,1,9.7,14c.12.2.12.2-1.07,1.71l-.39.5c.26-.15.31-.15.4-.13a.28.28,0,0,1,.17.13.27.27,0,0,1-.1.37l-.07,0L8,17c-.67.41-.67.41-.8.38A.28.28,0,0,1,7,17.25C6.91,17,6.91,17,8.2,15.4l.24-.31C4.74,17.34,4.17,17.61,4,17.61Z"/>      <path class="a" d="M8.49,12.15H8.41A.28.28,0,0,1,8.24,12c-.11-.2-.11-.2.88-1.09l.32-.29a.27.27,0,0,1-.13-.11c-.11-.19-.11-.19.47-.75l.41-.41A.27.27,0,0,1,10,9.24c-.07-.12-.08-.16.11-.49-1.26.78-1.34.8-1.49.76a.29.29,0,0,1-.17-.13A.27.27,0,0,1,8.7,9c.19-.08.87-.51,1.29-.77.83-.51.82-.51,1-.48a.27.27,0,0,1,.17.13c.07.12.07.16-.1.47.33-.19.36-.18.45-.16a.28.28,0,0,1,.17.13c.1.17.13.23-.54.91.11,0,.14,0,.2.14s.11.21-.9,1.13h.06a.28.28,0,0,1,.17.13.27.27,0,0,1-.1.37l-.1,0c-.13.06-.53.32-.84.51C8.8,12,8.62,12.15,8.49,12.15Z"/>      <path class="a" d="M7.74,13.63H7.67a.28.28,0,0,1-.17-.13c-.08-.13-.07-.16.23-.86-.28.16-.3.16-.4.13a.27.27,0,0,1-.17-.13c-.08-.14-.08-.14.29-.86l.13-.25c-.28.16-.31.15-.4.13A.27.27,0,0,1,7,11.54c-.09-.15-.09-.17.24-.62a.22.22,0,0,1-.12,0A.27.27,0,0,1,7,10.78c-.08-.14-.1-.18.6-1.77l-.19.12a.27.27,0,1,1-.28-.46c1-.6,1-.59,1.12-.56a.27.27,0,0,1,.16.11c.08.12,0,.21,0,.36C8,9.27,7.84,9.73,7.71,10h0c.33-.2.5-.3.64-.07s.08.21-.22.64a.26.26,0,0,1,.17,0,.27.27,0,0,1,.1.1c.09.15.07.21-.39,1.1.19-.11.21-.1.3-.08a.27.27,0,0,1,.16.12c.08.13.07.17-.22.86.61-.38.68-.41.82-.38a.28.28,0,0,1,.17.13.27.27,0,0,1-.1.37l-.1,0c-.11.06-.44.26-.64.39C8,13.56,7.85,13.63,7.74,13.63Z"/>      <path class="a" d="M5.64,14.14a.23.23,0,0,1-.2-.12c-.09-.16-.07-.23.26-.8a.24.24,0,0,1-.21,0,.27.27,0,0,1-.17-.12c-.08-.13-.08-.19.15-.51H5.42a.27.27,0,0,1-.17-.13c-.09-.15-.1-.17.46-1.43l0,0c-.29.18-.31.19-.43.16l.16-.51L5.32,11l-.12-.24.19-.12c.79-.48.82-.49.95-.46a.27.27,0,0,1,.17.13c.07.13.07.13-.26.9L6,11.72c.26-.16.3-.17.41-.15a.27.27,0,0,1,.17.13c.07.13.07.19-.15.51h.05a.27.27,0,0,1,.17.13c.08.14.07.18-.28.78.13-.06.16-.06.23,0a.27.27,0,0,1,.17.13.27.27,0,0,1-.1.37l-.07,0c-.11.06-.52.31-.66.39A.67.67,0,0,1,5.64,14.14Z"/>      <path class="a" d="M4.44,16.08H4.37a.28.28,0,0,1-.17-.13l-.65-.6L3.2,15c-.74.46-.76.45-.88.41a.28.28,0,0,1-.17-.13c-.07-.12-.09-.14.13-.46a.24.24,0,0,1-.13,0A.28.28,0,0,1,2,14.71c-.13-.22-.14-.25,1.54-2.24l.29-.35c-1.18.68-1.2.65-1.32.46s-.11-.35,1.74-2l.34-.31,0-.12L4.84,10l-.23.14L4.5,9.9l.31-.19c.83-.52.87-.53,1-.49A.28.28,0,0,1,6,9.35c.14.25.09.3-1.4,1.63l-.21.19h0c.48-.28.47-.27.61-.2a.27.27,0,0,1,.1.1c.12.21.12.21-1.18,1.76l-.78.93h.09a.27.27,0,0,1,.17.13c.07.13.09.16-.16.52a.25.25,0,0,1,.19.08l0,.06.44.4.58.54,1.07-.64c1-.61,1-.61,1.15-.58l-.07.26-.23.14.23-.14.09.25c-.08,0-.53.31-.89.53C4.76,16,4.56,16.08,4.44,16.08Z"/>      <path class="a" d="M13.07,5.29H13a.27.27,0,0,1-.17-.13.27.27,0,0,1,.1-.37l.09,0c.12-.05.6-.32,2.41-1.4.18-.11.37-.22.51,0a.27.27,0,0,1-.07.37h0l-.14.09A13.43,13.43,0,0,1,13.07,5.29Z"/>      <path class="a" d="M6,4H5.89a.28.28,0,0,1-.17-.13l-.31-.39-.29-.37-.64.39c-.68.43-.74.47-.89.43a.28.28,0,0,1-.17-.13c-.06-.1-.07-.12,0-.37-.75.45-.78.45-.9.42a.28.28,0,0,1-.17-.13.27.27,0,0,1,.1-.37l.08,0c.14-.07.67-.38,1-.56.51-.31.51-.31.63-.28a.27.27,0,0,1,.16.12c.06.1.08.12,0,.38.76-.47.83-.51,1-.48a.28.28,0,0,1,.17.13l.39.51L6,3.34l.14-.09C6.5,3,6.57,3,6.7,3a.27.27,0,0,1,.17.13.27.27,0,0,1-.1.37l-.06,0-.25.15C6.16,3.89,6.06,4,6,4Z"/>      <path class="a" d="M5.85,2.78H5.78a.28.28,0,0,1-.17-.13c-.09-.17-.09-.17.56-1.09l.33-.47c-.17.09-.21.08-.29.06A.27.27,0,0,1,6,1a.27.27,0,0,1,.1-.37l.08,0c.1-.05.4-.24.59-.35C7.27,0,7.26,0,7.39,0a.27.27,0,0,1,.17.13c.1.18.11.2-.83,1.55a.22.22,0,0,1,.19,0l-.06.26-.23.14.23-.14L7,2.17l-.28.17C6.11,2.7,6,2.78,5.85,2.78Z"/>      <path class="a" d="M8.51,3.87H8.44a.27.27,0,0,1-.17-.13c-.07-.11-.07-.13.18-1.31l-.25.15c-.39.24-.39.24-.51.22a.27.27,0,0,1-.17-.13c-.08-.13-.09-.15.41-1.3-.25.15-.31.17-.42.14a.28.28,0,0,1-.17-.13A.27.27,0,0,1,7.45,1l.08,0L8,.7c.43-.27.45-.28.58-.25a.27.27,0,0,1,.17.12c.07.12.07.12-.14.62l-.3.7c.45-.27.49-.27.6-.24a.28.28,0,0,1,.17.13c.05.08.05.08-.05.6,0,.18-.1.47-.15.71l.55-.32c1-.56.95-.56,1.07-.53a.27.27,0,0,1,.17.13c0,.07,0,.07,0,.49V3l.24-.15C12.37,2,12.39,2,12.53,2a.28.28,0,0,1,.17.13c.05.09.06.09-.06.59l1.44-.83c.35-.21.37-.21.5-.15a.26.26,0,0,1,.12.11,3.11,3.11,0,0,1,.14.53L15,3l.17-.11c.44-.28.5-.31.63-.28a.28.28,0,0,1,.17.13.27.27,0,0,1-.1.37l-.07,0-.34.21c-.47.3-.55.35-.7.32a.27.27,0,0,1-.17-.13,6,6,0,0,1-.27-1l0-.12L13.15,3c-1,.58-1,.58-1.14.34s-.06-.09.07-.62l-.87.53c-.73.45-.73.44-.85.41a.27.27,0,0,1-.16-.12c0-.08-.05-.11,0-.63l-.46.27C8.77,3.77,8.61,3.87,8.51,3.87Z"/>      <path class="a" d="M11.45,6.27h-.08a.27.27,0,0,1-.17-.13c-.09-.16-.13-.22.53-1-.57.33-.6.32-.71.3a.28.28,0,0,1-.17-.13,5.48,5.48,0,0,1-.23-.57l0-.1L10.07,5c-1.06.68-1.16.71-1.32.68a.29.29,0,0,1-.18-.13.27.27,0,0,1,.22-.4c.16-.07.65-.38,1-.59.83-.53.87-.55,1-.51a.28.28,0,0,1,.17.13l.17.42.1.26,1.11-.66c.74-.45.74-.44.86-.41a.27.27,0,0,1,.15.11c.12.18,0,.27-.21.53L12.61,5c.16-.08.21-.08.29-.06a.28.28,0,0,1,.17.13.27.27,0,0,1-.1.37l-.1,0c-.13.06-.54.32-.79.47C11.64,6.21,11.53,6.27,11.45,6.27Z"/>      <path class="a" d="M10.1,7.56H10l-.09,0-.68-.27c-.49-.19-.75-.29-.9-.36L8,7.11c-.56.35-.59.36-.72.33a.27.27,0,0,1-.17-.13C7,7.12,7,7.12,7.7,6.39l1-1c-1.19.75-1.26.76-1.42.72A.29.29,0,0,1,7.1,6C7,5.81,7,5.76,7.46,5.16A.24.24,0,0,1,7.28,5a.27.27,0,0,1,.07-.37l0,0,.13-.08c.64-.4.68-.41.82-.38a.28.28,0,0,1,.17.13c.09.16.07.21-.31.75l.44-.27C9.82,4,9.86,4,10,4.07a.28.28,0,0,1,.17.13c.13.22.16.28-1.68,2.15l0,0c.11.06.59.24.91.36L10.1,7c.21-.11.73-.43,1.12-.67,1.29-.79,1.3-.79,1.45-.75a.28.28,0,0,1,.17.13c.09.18.09.18-.38.72L12,6.88l.11.23L12,7.21c-.42.26-.5.31-.64.28a.28.28,0,0,1-.17-.13c-.07-.12-.1-.16.16-.48C10.4,7.46,10.21,7.56,10.1,7.56Z"/>      <path class="a" d="M15.67,16.13H15.6a.27.27,0,0,1-.17-.13c-.12-.21-.07-.31.75-1l0-.05c-.11-.18-.13-.23,1.07-2a.28.28,0,0,1-.4-.1c-.07-.1-.05-.15.07-.45q.3-.74.48-1.18c-.31.19-.34.19-.45.16a.27.27,0,0,1-.17-.13c-.07-.12-.08-.15.11-.44H16.8a.28.28,0,0,1-.17-.13c-.06-.11-.07-.12.15-.74-.23.14-.29.15-.4.12a.27.27,0,0,1-.17-.13c-.06-.1-.08-.13.11-.65-.23.14-.3.16-.41.13a.27.27,0,0,1-.17-.13c-.05-.09-.07-.12.07-.49l0,0c-.22.14-.26.16-.37.13a.27.27,0,0,1-.14-.09c0-.06,0-.06-.1-.38L15,7.78c-.69.42-.72.44-.86.4A.28.28,0,0,1,14,8.05c0-.06,0-.06-.07-.53,0-.11,0-.23,0-.34l-.05,0c-.75.44-.78.45-.92.24s-.08-.14.08-1.6c-.2.13-.25.16-.37.12l.15-.52-.08.26-.12-.24.14-.09c.44-.28.52-.32.66-.29a.27.27,0,0,1,.17.13c0,.09,0,.09,0,.49,0,.24-.09.74-.12,1.11l.13-.07c.56-.33.63-.37.77-.15s.05.09.12.88h0l.29-.17c.4-.25.55-.34.7-.11a4.23,4.23,0,0,1,.21,1c.56-.35.61-.35.73-.32a.28.28,0,0,1,.17.13c.05.13,0,.17,0,.37l0,.12c.27-.17.31-.18.41-.15a.27.27,0,0,1,.18.14c.05.11,0,.15,0,.37l-.11.31c.27-.17.29-.18.4-.15a.27.27,0,0,1,.17.13c.06.11.06.12-.15.75.23-.14.29-.16.39-.13a.27.27,0,0,1,.17.13c.07.11.09.15-.08.41h.1a.27.27,0,0,1,.17.13c.08.13.1.17-.49,1.6.42-.26.45-.26.57-.24a.27.27,0,0,1,.17.13c.09.16.09.16-.41.88-.2.29-.54.79-.83,1.22h0c.66-.38.66-.38.8-.3a.27.27,0,0,1,.1.1c.11.19.12.22-.49.73a.28.28,0,0,1,.14.12.27.27,0,0,1-.1.37l-.08,0c-.15.07-.72.41-1.06.62C15.87,16.05,15.75,16.13,15.67,16.13Z"/>      <path class="a" d="M11.39,17.21h-.07a.28.28,0,0,1-.17-.13.27.27,0,0,1,.1-.37l.09,0c.25-.11,1.62-.93,2.37-1.38,1.1-.66,1.1-.66,1.23-.63l-.07.26-.23.13.23-.13.11.25-1,.58A13.41,13.41,0,0,1,11.39,17.21Z"/>      <path class="a" d="M12,19.08H12a.28.28,0,0,1-.17-.13c0-.08-.05-.09,0-.68l-.94.57a.3.3,0,0,1-.34,0,.27.27,0,0,1-.1-.1c-.06-.1-.06-.14,0-.77h0c-.4.25-.45.28-.58.25a.27.27,0,0,1-.17-.13c-.08-.15-.08-.15.22-.66l.38-.67C9.94,17,9.9,17,9.8,17a.27.27,0,0,1-.06-.5l.06,0,.57-.34c.48-.29.48-.29.6-.26a.27.27,0,0,1,.17.12c.09.15.11.18-.53,1.3a.27.27,0,0,1,.17,0,.28.28,0,0,1,.17.13c.05.09,0,.1,0,.65v.09c1-.64,1.08-.62,1.2-.59a.27.27,0,0,1,.17.13c0,.08,0,.08,0,.43l0,.26,1.39-.85c2.68-1.65,2.85-1.71,3-1.67a.29.29,0,0,1,.18.13.27.27,0,0,1-.1.37.26.26,0,0,1-.15,0c-.32.12-1.74,1-2.7,1.59C12.42,18.93,12.16,19.08,12,19.08Z"/>      <path class="a" d="M13.92,14.91h-.08a.27.27,0,0,1-.16-.13c-.12-.21-.1-.28.79-1l0,0c-.11-.18-.07-.26.65-1.42l.12-.19a.25.25,0,0,1-.22,0,.27.27,0,0,1-.17-.13c-.07-.13-.07-.2.12-.47-.09,0-.15,0-.21-.12s-.08-.14.1-.5c-.17.07-.27.07-.36-.09s0-.15,0-.36l.1-.36c-.29.17-.36.19-.47.17a.28.28,0,0,1-.17-.13c0-.08,0-.09,0-.74-.55.34-.61.37-.74.33a.27.27,0,0,1-.17-.13.27.27,0,0,1,.11-.37l.07,0,.5-.3c.49-.3.5-.31.63-.28a.27.27,0,0,1,.17.13c0,.08,0,.08,0,.61l0,.16.09-.06c.33-.21.35-.22.47-.2a.27.27,0,0,1,.17.13c.06.1.07.12-.11.72.31-.18.33-.18.43-.15a.27.27,0,0,1,.16.12c.08.13,0,.22-.05.38l-.06.11c.15-.08.18-.07.25-.05a.27.27,0,0,1,.16.13c.07.13.07.2-.11.46l.08,0a.27.27,0,0,1,.15.12c.11.19.05.27-.61,1.34l-.17.28c.35-.22.41-.24.53-.21a.28.28,0,0,1,.17.13c.1.17.11.2-.32.57h0a.29.29,0,0,1,.17.13.27.27,0,0,1-.1.37.28.28,0,0,1-.13,0c-.21.09-1,.56-1.3.77S14,14.91,13.92,14.91Z"/>      <path class="a" d="M8.15,16.68H8.08a.28.28,0,0,1-.17-.13c-.1-.17-.06-.27.29-.65a.27.27,0,0,1-.23,0,.27.27,0,0,1-.17-.13c-.14-.24-.08-.33,1.25-1.44a.24.24,0,0,1-.17,0,.28.28,0,0,1-.17-.13C8.56,14,8.55,14,10.58,12l.81-.78c-.2.08-.24,0-.32-.1s-.12-.21.88-1.11a.19.19,0,0,1-.11,0,.27.27,0,0,1-.16-.13c-.1-.18-.1-.18.56-1l.06-.07,0-.06a.27.27,0,0,1,.1-.37l.06,0,.24-.15c.28-.18.33-.21.46-.18a.27.27,0,0,1,.17.13c.08.13.1.17-.2.54.69-.41.74-.4.85-.37a.28.28,0,0,1,.17.13c.12.21.13.23-1.19,1.4A.35.35,0,0,1,13,10c.14.25.16.28-2.06,2.41l-.5.48c.74-.46.77-.44.89-.42a.28.28,0,0,1,.17.13c.15.26.09.33-1.63,1.76l-.1.08a.27.27,0,0,1,.15.12c.13.22.06.28-.76,1.11l-.08.08,0,.12L8.84,16l.22-.13.09.25-.33.2C8.39,16.6,8.26,16.68,8.15,16.68Z"/>      <path class="a" d="M2.15,18H2.07a.27.27,0,0,1-.17-.13,4.43,4.43,0,0,1-.22-.7l-.1-.36-.34.2c-.2.12-.39.23-.53,0s-.07-.17.11-.7c-.21.13-.28.15-.39.12a.28.28,0,0,1-.17-.13c-.07-.14-.07-.14.21-.77l.13-.28c-.28.17-.44.24-.57,0S0,15.17.47,14.27l.36-.65-.11.07c-.25.15-.28.17-.4.14a.27.27,0,0,1-.16-.12c-.11-.18-.11-.18.85-1.21L2.3,11.08c-.9.56-1,.58-1.09.54A.28.28,0,0,1,1,11.49c-.13-.22-.13-.22,1.3-1.31L3.91,9c-.53.3-.62.31-.73.28A.29.29,0,0,1,3,9.12c-.12-.17,0-.31.14-.42C4.2,7.67,4.9,7,5.36,6.51a.27.27,0,0,1-.15-.12c-.08-.13-.07-.19.22-1.15l0-.15-.57.35c-.54.34-.54.34-.67.31a.27.27,0,0,1-.18-.14l-.13-.14-.57-.63-.59.36c-.63.39-.64.4-.77.37a.27.27,0,0,1-.17-.13c-.05-.09-.06-.11.05-.51-.37.22-.4.22-.51.2A.28.28,0,0,1,1.2,5c-.08-.14-.08-.14.36-1.18l.26-.61c-.41.26-.48.29-.61.26A.28.28,0,0,1,1,3.33.27.27,0,0,1,1.12,3l.09,0,.48-.29c.49-.31.55-.35.69-.32a.27.27,0,0,1,.17.13c.09.15.1.17-.51,1.57L2,4.24c.31-.19.32-.18.43-.15a.27.27,0,0,1,.15.12c.06.1.07.11-.05.52.8-.5.86-.53,1-.49a.27.27,0,0,1,.17.13l.66.74,0,0L4.62,5c1.11-.7,1.18-.71,1.33-.68a.29.29,0,0,1,.17.13c.07.13.06.16-.18,1l-.09.31c.57-.34.57-.34.69-.31a.27.27,0,0,1,.17.13c.11.2.16.28-1.81,2.22l.24-.15c1.14-.71,1.14-.71,1.28-.67A.27.27,0,0,1,6.6,7c.15.27.21.37-2.94,2.8a.28.28,0,0,1,.09.09c.13.23.14.24-2.19,2.76a.27.27,0,0,1,.15.12c.1.16.1.17-.73,1.65.25-.13.31-.09.41.07s.07.22-.29,1c.15-.09.21-.1.29-.08a.27.27,0,0,1,.17.13c.07.12.07.13-.13.71.29-.16.31-.16.4-.13a.27.27,0,0,1,.16.13,5.32,5.32,0,0,1,.23.74l.1.34.9-.54c.21-.13.25-.16.38-.11h0l.95.19c.58.11.89.17,1.06.22l.6-.36c.93-.57.94-.57,1.08-.54a.28.28,0,0,1,.17.13.35.35,0,0,1,0,.3l-.1.33.2-.12C9,16,9,16,9.16,16.08a.28.28,0,0,1,.17.13.27.27,0,0,1-.1.37l-.11,0c-.18.08-.85.49-1.26.75-.84.51-.83.51-1,.48a.27.27,0,0,1-.17-.13c-.05-.09-.07-.12.07-.63l-.3.18c-.8.49-.8.49-.94.46l-.06,0c-.13,0-.66-.14-1-.22l-.93-.19,0,0C2.47,17.93,2.26,18,2.15,18Z"/>    </g>    <g>      <path class="a" d="M27,18.6h-.07a.29.29,0,0,1-.17-.13c-.11-.19-.14-.24.83-1.21L25.68,18.4c-.3.19-.31.19-.42.16a.27.27,0,0,1-.17-.13c-.11-.2-.06-.29.7-1.18l-.19.12c-1.13.72-1.18.74-1.34.7a.28.28,0,0,1-.17-.13c-.06-.1-.06-.1.08-.55l.18-.58c-.33.2-.37.2-.47.18l.06-.26.23-.14-.23.14-.09-.25.47-.28c.4-.24.4-.24.52-.21a.27.27,0,0,1,.16.13c.07.12.08.14-.23,1.15l.54-.34c1.35-.86,1.48-.91,1.65-.87a.29.29,0,0,1,.18.13c.11.19.1.21-.64,1.07,2.37-1.44,2.47-1.41,2.6-1.38a.29.29,0,0,1,.17.13c.11.19.11.19-.63.92l-.35.34,1.81-1.11c4.35-2.68,5-3,5.32-3a.32.32,0,0,1,.18.14c.17.29.11.41-2.91,2.85,1.49-.93,1.7-1,1.88-1a.31.31,0,0,1,.18.14.27.27,0,0,1-.1.37.28.28,0,0,1-.16,0c-.29.11-1.44.84-2.22,1.33-1.89,1.19-2,1.23-2.16,1.18a.29.29,0,0,1-.18-.13c-.15-.27-.17-.29,2.36-2.32L34,14.45c-1.05.61-2.49,1.5-3.58,2.18C27.56,18.38,27.16,18.6,27,18.6Z"/>      <path class="a" d="M32.36,14.9h-.07a.27.27,0,0,1-.17-.13c-.11-.19-.13-.23,1.09-1.31a.19.19,0,0,1-.15,0,.27.27,0,0,1-.17-.13c-.11-.19-.13-.22,1.12-2-.8.5-.85.51-1,.48a.29.29,0,0,1-.17-.13c-.1-.17-.07-.24.54-1.35l.1-.18c-1.08.65-1.12.64-1.24.61a.28.28,0,0,1-.17-.13c-.07-.13-.08-.2.1-.41-.43.25-.45.25-.54.22a.27.27,0,0,1-.16-.12c-.07-.12-.1-.16.23-.56-.7.42-.71.42-.82.39a.27.27,0,0,1-.17-.12c-.09-.16-.06-.2.21-.56l.26-.35c-1.48.92-1.6,1-1.77.92a.3.3,0,0,1-.18-.13c-.09-.15-.09-.16.54-1.06l-.57.35c-2.16,1.33-2.27,1.38-2.46,1.33a.29.29,0,0,1-.17-.13.27.27,0,0,1,.23-.4c.26-.11,1.37-.79,2.12-1.25,1.67-1,1.68-1,1.83-1a.28.28,0,0,1,.17.13c.09.16.09.16-.48,1l-.13.18.82-.51C32.06,8,32.06,8,32.2,8a.27.27,0,0,1,.17.13c.09.15.1.18-.42.89,1-.59,1-.59,1.13-.55a.27.27,0,0,1,.17.12.27.27,0,0,1,0,.14.45.45,0,0,1-.11.23L33,9.16c.62-.36.64-.34.73-.32a.27.27,0,0,1,.16.12c.07.13.08.2-.09.41.29-.18.31-.18.42-.15a.27.27,0,0,1,.15.12c.1.17.06.26-.51,1.29l-.17.3.24-.15c.87-.55.93-.57,1.07-.54a.28.28,0,0,1,.17.13c.1.17.1.17-.61,1.14l-.6.85c1.2-.74,1.31-.77,1.46-.73a.29.29,0,0,1,.18.13c.11.2.11.2-.87,1.06l-.12.11c.72-.41.8-.39.9-.37a.29.29,0,0,1,.18.13.27.27,0,0,1-.1.37.27.27,0,0,1-.15,0,29.41,29.41,0,0,0-2.62,1.55C32.5,14.85,32.43,14.9,32.36,14.9Z"/>      <path class="a" d="M22.25,13.59c-.07,0-.11,0-.16-.13s-.11-.2.1-.38h0l0,0,0,0c-.45.24-.58.27-.69.24a.3.3,0,0,1-.18-.13c-.07-.12-.12-.2.11-.43a.5.5,0,0,1-.26,0A.34.34,0,0,1,21,12.6c-.07-.2,0-.25.16-.46l1.26-1.47c-.93.58-1,.58-1.14.55a.28.28,0,0,1-.17-.13c-.11-.19-.07-.3.49-.81a.26.26,0,0,1-.21,0,.28.28,0,0,1-.17-.13c-.12-.21-.1-.28.87-1.21-.42.25-.46.24-.56.21A.28.28,0,0,1,21.4,9c-.12-.21-.13-.22,1.2-1.8l.47-.56c-1.13.67-1.15.66-1.27.63a.27.27,0,0,1-.17-.13c-.1-.18-.11-.19.64-.94-.24.14-.26.13-.35.11a.28.28,0,0,1-.16-.12c-.1-.17-.11-.18.44-.85a.27.27,0,0,1-.13-.12.27.27,0,0,1,.1-.37l.07,0,.36-.22c.39-.25.43-.27.56-.24a.28.28,0,0,1,.17.13c.08.13.1.17-.2.54.59-.35.63-.34.74-.31a.28.28,0,0,1,.17.13c.1.17.11.2-.61.93.61-.36.61-.36.73-.33a.27.27,0,0,1,.16.12c.13.21.13.23-1.32,2L22.66,8h0c1.07-.66,1.07-.66,1.21-.62a.28.28,0,0,1,.17.13c.13.23.07.3-1,1.3.54-.32.55-.32.66-.29a.27.27,0,0,1,.17.13c.11.2.09.27-.56.84.15-.08.19-.07.26-.05a.28.28,0,0,1,.17.13c.11.19.14.24-1.56,2.2,1.09-.61,2.86-1.71,4.06-2.46,2.48-1.55,2.49-1.55,2.66-1.5a.28.28,0,0,1,.17.13c.07.11.1.18-.08.35.89-.51,1.14-.59,1.31-.55a.33.33,0,0,1,.19.14c.2.34.27.47-5.84,4.25l-1,.62a.27.27,0,0,1-.13.17l-.28.16A3.74,3.74,0,0,1,22.25,13.59Z"/>      <path class="a" d="M31.42,4.57h-.07a.27.27,0,0,1-.21-.26.36.36,0,0,1,0-.13l.42-1-.52.31c-1.28.77-1.28.77-1.42.73a.28.28,0,0,1-.17-.13c-.09-.15-.07-.21.4-1.27L30,2.68l-1.18.73c-.83.52-.84.52-1,.49a.27.27,0,0,1-.18-.14c-.05-.1-.05-.1.09-.52l.3-.9-.89.55c-1.09.68-1.1.67-1.24.64a.28.28,0,0,1-.17-.13c-.09-.15-.11-.18.29-.63-1,.58-1,.57-1.13.54a.28.28,0,0,1-.17-.13c-.06-.1-.06-.1.08-1l.09-.57c-.27.17-.34.2-.45.17a.27.27,0,0,1-.17-.13.27.27,0,0,1,.1-.37l.08,0,.31-.19c.35-.22.41-.26.54-.23a.28.28,0,0,1,.17.13c.06.11.07.12-.12,1.3l0,.28,1.15-.69c1-.58,1-.58,1.08-.55a.27.27,0,0,1,.17.13c.09.15.1.18-.32.64.94-.58,1-.59,1.15-.56a.29.29,0,0,1,.17.13c.07.13.08.14-.34,1.35l.13-.08c1.73-1.08,1.85-1.12,2-1.08A.3.3,0,0,1,30.7,2c.08.15.07.18-.33,1.08l-.14.33.56-.34C32,2.32,32,2.32,32.18,2.35a.28.28,0,0,1,.17.13c.07.12.09.16-.35,1.16a.25.25,0,0,1,.23,0l-.07.26L31.92,4l.23-.13.11.24L32,4.25C31.64,4.5,31.52,4.57,31.42,4.57Z"/>      <path class="a" d="M33.48,16.28h-.08a.28.28,0,0,1-.17-.13c-.13-.22-.1-.28,1.33-2l.41-.49h-.08a.28.28,0,0,1-.17-.13c-.08-.14-.08-.14.34-1l.23-.45c-.25.15-.29.16-.4.13a.27.27,0,0,1-.17-.13c-.07-.12-.07-.12.19-.77l.11-.28-.06,0c-.14.09-.21.13-.34.08a.27.27,0,0,1-.14-.11c0-.07,0-.07-.11-1.2,0-.07,0-.15,0-.21L34,9.9a.3.3,0,0,1-.39,0l0-.06a3,3,0,0,1-.15-.52l-.18-.66-.31.19c-.47.29-.49.3-.61.27A.27.27,0,0,1,32.1,9c0-.08-.06-.12,0-.62l-.17.1c-.64.39-.65.4-.78.37A.27.27,0,0,1,31,8.72a5.9,5.9,0,0,1-.25-.77c-1.38.83-1.39.82-1.52.78a.27.27,0,0,1-.17-.13l-.42-.41-.3-.3c-.33.17-1.19.71-1.89,1.16-2.56,1.62-2.9,1.78-3.13,1.72a.32.32,0,0,1-.19-.14c-.08-.14-.08-.18.26-.79-.23.14-.35.2-.5.06l0-.06c-.09-.15-.09-.16.62-1.26-.15.08-.2.07-.27.05A.28.28,0,0,1,23,8.51c-.08-.14-.1-.17.3-.64h0a.27.27,0,0,1-.17-.13c-.09-.15-.12-.2.62-1.45-.13.06-.16.05-.23,0a.27.27,0,0,1-.17-.13c-.07-.13-.08-.13.23-.93-.28.17-.35.2-.46.17A.28.28,0,0,1,23,5.31a.27.27,0,0,1,.1-.37l.09,0,.44-.27c.42-.27.46-.3.6-.26a.27.27,0,0,1,.17.13c.07.12.07.12-.21.85l0,.11c.38-.23.38-.23.5-.2a.27.27,0,0,1,.17.13c.07.14,0,.19-.12.47l-.61,1c.28-.17.34-.17.44-.15a.28.28,0,0,1,.17.13c.09.15.1.17-.3.65h0a.27.27,0,0,1,.16.12c.09.15.09.15-.52,1.09l-.14.22c.21-.11.24-.1.31-.08a.27.27,0,0,1,.16.12c.08.14.08.14-.23.69L24,10c.6-.35,1.52-.93,2.2-1.36,2-1.3,2.14-1.33,2.32-1.28a.29.29,0,0,1,.18.13l.36.36.33.33,1.26-.74c.22-.13.26-.15.37-.12a.27.27,0,0,1,.16.12,1.54,1.54,0,0,1,.1.31l.14.47L31.66,8c.69-.42.71-.44.85-.4a.27.27,0,0,1,.17.13c0,.08,0,.08,0,.43l0,.19c.57-.35.63-.39.76-.35a.28.28,0,0,1,.17.13,6.5,6.5,0,0,1,.3,1l0,.11c.61-.37.63-.36.74-.33a.28.28,0,0,1,.17.13c0,.07,0,.07.07.75,0,.21,0,.44,0,.63.46-.28.51-.28.61-.25a.28.28,0,0,1,.17.13c.08.14.07.19-.26,1,.31-.19.34-.19.45-.17a.27.27,0,0,1,.17.13c.09.16.09.2-.51,1.4.25-.16.33-.18.44-.16a.28.28,0,0,1,.17.13c.12.21.13.23-1.22,1.83l-.52.62.11-.07c.87-.54.86-.53,1-.5a.27.27,0,0,1,.17.13.27.27,0,0,1-.1.37l-.07,0-.72.43C33.81,16.17,33.6,16.28,33.48,16.28Z"/>      <path class="a" d="M25.92,19.11h-.08a.27.27,0,0,1-.17-.13l-.4-.43L24.84,18l-.24.15c-.49.3-.51.32-.65.29a.27.27,0,0,1-.17-.13c-.1-.17-.1-.17.43-.8l.72-.88,0,0c-1.35.85-1.42.86-1.57.82a.29.29,0,0,1-.17-.13c-.1-.17-.08-.23.42-.86h0l.06-.26.23-.14-.23.14L23.49,16l.15-.09c.74-.46.77-.47.91-.43a.28.28,0,0,1,.17.13c.09.16.08.22-.34.76l.25-.15c1.15-.72,1.18-.73,1.33-.69a.28.28,0,0,1,.17.13c.11.19.14.24-1.13,1.78a.27.27,0,0,1,.14.12l.54.6.3.33.64-.38c.89-.55.9-.55,1-.51l.09,0,.37.23.88.55c.32-.15,1.28-.75,1.82-1.09,1-.64,1-.65,1.17-.61a.27.27,0,0,1,.17.13c0,.08,0,.08,0,.4l0,.37.9-.56c.82-.52.82-.51,1-.48a.28.28,0,0,1,.17.13.27.27,0,0,1-.1.37l-.07,0-.67.41c-1.31.82-1.39.84-1.54.8a.29.29,0,0,1-.18-.13c0-.08-.06-.09,0-.72l-.5.31C29.2,19,29.06,19,28.88,19a.29.29,0,0,1-.11-.06l-.94-.59-.26-.16-.67.4C26.17,19,26,19.1,25.92,19.11Z"/>      <path class="a" d="M24.78,17H24.7l.06-.26.23-.14-.23.14-.11-.25.37-.23c1.09-.68,1.16-.7,1.31-.66l.08,0,.27.13c.75.36,1.12.54,1.3.64l1.39-.8c1.37-.8,1.37-.8,1.51-.57s.06.1,0,.7l.92-.56c.75-.46.75-.46.88-.43l-.07.26-.23.14.23-.14.1.25-.63.38c-1.37.84-1.4.84-1.55.8a.28.28,0,0,1-.17-.13c0-.08,0-.08,0-.5V15.6l-.73.43c-1.63,1-1.75,1-1.87.84s-1-.5-1.32-.65l-.2-.1c-.2.1-.69.41-.94.56S24.85,17,24.78,17Z"/>      <path class="a" d="M32,14.52h-.07a.28.28,0,0,1-.17-.13c-.09-.16-.13-.23.91-1.57h0a.28.28,0,0,1-.17-.13c-.08-.13-.07-.15.23-.83l.07-.15c-.2.11-.25.12-.35.1a.28.28,0,0,1-.17-.13c0-.09,0-.09,0-.78v-.14l0,0c-.44.28-.51.33-.65.29a.28.28,0,0,1-.17-.13c0-.07,0-.07-.08-.62v-.18l-.28.17c-.61.37-.61.37-.74.34a.27.27,0,0,1-.13-.07l-.13-.13-.73-.72-.51.31c-1.77,1.06-1.76,1.05-1.92,1a.27.27,0,0,1-.17-.13.27.27,0,0,1,.1-.37l.08,0c.19-.09,1.12-.65,1.63-1,.79-.47.79-.47.91-.44a.27.27,0,0,1,.16.12l.82.8.35-.21c.72-.44.72-.44.85-.4a.27.27,0,0,1,.16.12c0,.07,0,.07.09.72v.08l.06,0c.46-.3.55-.35.69-.32a.28.28,0,0,1,.17.13c.05.09.05.09,0,.82V11l.09-.06c.34-.21.36-.22.48-.19a.27.27,0,0,1,.17.12c.08.14.06.23-.27,1,.23-.14.29-.16.39-.13a.27.27,0,0,1,.21.26.33.33,0,0,1-.07.18c-.4.5-.72.92-1,1.24l.33-.21c.28-.17.3-.19.42-.16l-.15.52.08-.26.13.24-.19.12C32.37,14.4,32.14,14.52,32,14.52Z"/>      <path class="a" d="M24.13,11.63h-.07a.28.28,0,0,1-.17-.13.27.27,0,0,1,.1-.37l.09,0c.19-.08.95-.55,1.46-.86,1-.63,1-.63,1.16-.59l-.07.26-.23.14.23-.14.09.25c-.08,0-.52.3-.91.54C24.5,11.49,24.26,11.63,24.13,11.63Z"/>      <path class="a" d="M22.55,14h-.07a.28.28,0,0,1-.17-.13c-.05-.09,0-.12,0-.62l-.09.06c-.7.44-.77.48-.91.44a.28.28,0,0,1-.17-.13c-.06-.1-.06-.12.11-.59l-.07,0c-.11.07-.27.17-.42,0l0-.06c-.08-.13-.09-.15.37-.94-.24.15-.26.16-.37.13a.27.27,0,0,1-.17-.13c-.1-.17-.11-.2.8-1.77-.21.12-.27.14-.37.11a.28.28,0,0,1-.17-.13c-.1-.18-.07-.26.64-1.41l.11-.18c-.24.13-.28.13-.36.1A.27.27,0,0,1,21,8.72c-.09-.15-.08-.22.24-.58h0A.27.27,0,0,1,21.06,8c-.07-.12-.09-.16.28-.64h0a.27.27,0,0,1-.15-.12c-.09-.16-.06-.2.21-.56l.29-.38a.3.3,0,0,1-.21,0,.28.28,0,0,1-.17-.13c-.09-.16-.1-.17.61-1.11h-.09A.27.27,0,0,1,21.6,5a.27.27,0,0,1,.11-.37l.07,0,.5-.3c.51-.31.65-.4.8-.16s.1.17-.54,1l-.06.08a.21.21,0,0,1,.18,0,.27.27,0,0,1,.17.12c.09.15.11.18-.46,1h.1a.27.27,0,0,1,.2.26.45.45,0,0,1-.1.22L22.33,7c.1,0,.14,0,.21.14s.07.24-.22.58a.26.26,0,0,1,.13.1c.13.22.08.31-.58,1.38l-.16.27c.24-.15.3-.16.4-.14a.28.28,0,0,1,.17.13c.09.15.09.15-.43,1l-.45.78c.3-.17.34-.17.44-.14a.28.28,0,0,1,.17.13c.09.13.09.13-.25.7l-.15.25a.23.23,0,0,1,.15,0,.28.28,0,0,1,.17.13c.06.11.07.12-.11.6l.06,0c.55-.35.6-.38.74-.35a.28.28,0,0,1,.17.13c0,.09,0,.09,0,.59v.05l.29-.18c.44-.28.46-.28.58-.26l-.06.26-.23.14.23-.14.1.25-.33.2C22.82,14,22.66,14,22.55,14Z"/>      <path class="a" d="M31.44,4.47h-.08a.28.28,0,0,1-.17-.13c-.11-.16,0-.28.11-.4l.53-.6a.28.28,0,0,1-.12-.11c-.07-.11-.06-.19.08-.58-.6.36-.61.36-.74.33a.27.27,0,0,1-.17-.12c0-.07,0-.09-.1-.62V2.15l-.23.14c-.74.46-.77.47-.9.44a.28.28,0,0,1-.17-.13L29,2.1l-.39-.42-.12.07c-1,.59-1,.59-1.12.56a.27.27,0,0,1-.17-.13c0-.08,0-.08,0-.56v0l-.4.24c-.45.28-.45.28-.57.24a.27.27,0,0,1-.16-.12c-.06-.1-.07-.11,0-.5-.64.4-.71.44-.85.41a.28.28,0,0,1-.17-.13.27.27,0,0,1,.1-.37l.09,0c.1-.05.39-.23.59-.35.57-.36.61-.38.74-.35a.27.27,0,0,1,.17.13c.05.09.06.11,0,.47.67-.41.72-.42.85-.39A.27.27,0,0,1,27.8,1c0,.09.05.09,0,.59l.45-.27c.41-.24.53-.31.67-.1l.5.55.37.4.49-.3c.65-.4.67-.41.8-.38a.28.28,0,0,1,.17.13c0,.06,0,.08.09.58v.11L31.73,2c.5-.3.5-.3.61-.27a.27.27,0,0,1,.16.13c.07.12.06.16-.09.59.26-.16.3-.17.4-.14a.27.27,0,0,1,.17.13c.08.14.11.19-.29.66C32.9,3,32.93,3,33,3L33,3.31l-.23.14L33,3.31l.1.25-.45.28C31.75,4.36,31.56,4.47,31.44,4.47Z"/>      <path class="a" d="M31.68,5h-.08a.28.28,0,0,1-.17-.13l-.29-.5L31,4.44c-.71.44-.77.47-.91.44a.28.28,0,0,1-.17-.13l-.5-.87L29,4.12c-.73.44-.73.44-.86.41A.27.27,0,0,1,28,4.4l-.28-.53-.18-.34-.61.37c-.45.28-.44.28-.56.25A.27.27,0,0,1,26.2,4l-.51-.89-.43.27c-.55.34-.56.34-.68.31a.27.27,0,0,1-.18-.14c0-.09-.06-.11.06-.5-.34.2-.37.2-.47.18a.27.27,0,0,1-.17-.13c-.08-.15-.08-.15.39-1.2l.27-.61c-.31.2-.4.23-.52.2a.28.28,0,0,1-.17-.13.27.27,0,0,1,.1-.37L24,1,24.4.71c.46-.29.52-.33.65-.3a.28.28,0,0,1,.17.13c.09.16.1.17-.54,1.6l-.1.22c.26-.15.27-.15.37-.13a.27.27,0,0,1,.17.13c.05.1.06.1-.06.51.58-.36.64-.39.78-.36a.28.28,0,0,1,.17.13l.51.88.12-.07c.86-.54.93-.56,1.07-.53a.28.28,0,0,1,.17.13l.31.58.15.29.4-.24c.72-.43.72-.43.85-.4a.27.27,0,0,1,.16.13l.51.88L30.72,4c.46-.29.46-.28.58-.26a.27.27,0,0,1,.17.12l.3.52L32,4.24c.51-.32.57-.35.7-.32a.27.27,0,0,1,.17.13.27.27,0,0,1-.09.37l-.08,0-.42.25C31.88,4.94,31.78,5,31.68,5Z"/>    </g>    <g>      <path class="a" d="M44,18.54c-.08,0-.11,0-.15-.11s-.08-.13.09-1.61l-.39.24c-.41.25-.41.26-.53.23l.06-.26.23-.14-.23.14L43,16.78l.29-.18c.85-.53.92-.56,1.07-.52a.29.29,0,0,1,.17.13c0,.07,0,.07,0,.52,0,.24-.08.73-.12,1.09l2.36-1.37c2.12-1.24,2.12-1.24,2.25-1.21l-.07.26-.24.13.24-.13.11.24-2,1.17A15.6,15.6,0,0,1,44,18.54Z"/>      <path class="a" d="M48,11.81h-.08a.28.28,0,0,1-.17-.13c-.11-.19-.12-.2,1-1.45-.37.23-.43.24-.55.21a.28.28,0,0,1-.17-.13c-.11-.19-.11-.19.67-1.21l0,0c-.7.42-.71.42-.83.39a.27.27,0,0,1-.18-.14c-.07-.14,0-.21.13-.43l1-1.45c-2.34,1.4-2.36,1.39-2.51,1.35a.28.28,0,0,1-.17-.13.27.27,0,0,1,.1-.37l.09,0c.24-.11,1.52-.88,2.22-1.29,1-.62,1-.62,1.15-.59a.27.27,0,0,1,.16.12c.1.17.11.2-1,1.84.71-.43.73-.43.85-.4a.27.27,0,0,1,.17.13c.11.19.08.23-.65,1.19.57-.36.66-.39.79-.36a.28.28,0,0,1,.18.13c.12.2.12.2-1,1.51l0,0,.23-.14c.84-.52.84-.52,1-.48l-.07.26-.23.13.23-.13.09.25-.71.43C48.35,11.68,48.1,11.81,48,11.81Z"/>      <path class="a" d="M46.7,15.23h-.06a.28.28,0,0,1-.17-.13c-.11-.2,0-.31.22-.47l1.69-1.37-.11.07c-1.76,1.08-1.77,1.07-1.92,1a.27.27,0,0,1-.17-.13,11.67,11.67,0,0,1-.2-1.44l-.61.39c-.93.6-1,.64-1.17.6a.29.29,0,0,1-.17-.13c-.09-.16-.06-.25.33-.75-.62.39-.66.4-.8.37a.28.28,0,0,1-.17-.13c-.09-.16-.08-.18.44-1.18l.23-.44-.32.2c-.74.46-.74.46-.87.42a.27.27,0,0,1-.17-.13c-.1-.17-.13-.22.61-1l-.26.16c-.18.11-.32.2-.47,0l0-.06c-.15-.25-.13-.39,1.74-1.69-1.16.71-1.35.78-1.51.74a.3.3,0,0,1-.18-.13c-.11-.19-.11-.19.61-.91l.93-1c-.35.2-.38.19-.48.17a.28.28,0,0,1-.17-.13.27.27,0,0,1,.1-.37l.08,0c.14-.07.66-.38,1-.58.84-.51.88-.54,1-.29s.15.27-1.41,1.87l1.41-.89c3-1.93,3.72-2.31,4-2.24a.34.34,0,0,1,.19.14c.17.3.19.33-3.18,2.61L44.82,9.68l.06.07c.11.19.11.19-.52.86l-.17.18c.34-.2.38-.19.48-.16a.28.28,0,0,1,.17.13c.1.17.09.21-.56,1.45l-.06.12c.89-.56,1-.6,1.13-.57a.28.28,0,0,1,.17.13c.09.16.06.25-.31.74.8-.51.9-.55,1-.51a.28.28,0,0,1,.17.13.27.27,0,0,1,0,.11c0,.25.1.92.15,1.34L48,12.86c2.16-1.32,2.2-1.31,2.36-1.27a.29.29,0,0,1,.17.13c.11.18.17.29-1.15,1.41l.42-.25c.26-.16.41-.25.56-.06a.27.27,0,0,1,0,.38l0,0-.2.12C47.28,15,46.86,15.23,46.7,15.23Z"/>      <path class="a" d="M54.73,5.43a.22.22,0,0,1-.19-.12c-.07-.12-.09-.17.18-.55l-.25.15c-1,.6-1,.6-1.15.37s-.06-.21.23-.57l.31-.38c-1.7,1.06-1.84,1.1-2,1.06a.3.3,0,0,1-.18-.13c-.09-.15-.09-.16.53-1L52,4.32c-1.78,1.1-1.81,1.09-2,1a.29.29,0,0,1-.17-.13.27.27,0,0,1,.22-.4c.22-.09,1.07-.62,1.64-1C53,3,53.05,3.05,53.2,3.09a.28.28,0,0,1,.17.13c.09.16.09.16-.49,1l-.15.2,1.07-.66c1-.66,1.05-.66,1.19-.62a.27.27,0,0,1,.17.13c.09.15.11.19-.47.92.94-.56,1-.55,1.08-.52a.27.27,0,0,1,.17.13.27.27,0,0,1,0,.13.46.46,0,0,1-.09.21l-.19.25c.13,0,.16,0,.23.12a.27.27,0,0,1-.07.37l0,0-.67.39A1,1,0,0,1,54.73,5.43Z"/>      <path class="a" d="M47.67,3.35H47.6a.27.27,0,0,1-.17-.13c-.09-.17-.1-.18.57-.9-.31.19-.33.19-.43.16a.27.27,0,0,1-.17-.13c-.09-.15-.09-.17.34-.72h0a.27.27,0,0,1-.17-.13.27.27,0,0,1,.1-.37l.08,0,.41-.25c.43-.27.47-.29.6-.26A.27.27,0,0,1,48.9.7c.08.14.1.17-.19.54.58-.35.62-.33.73-.31a.28.28,0,0,1,.17.13c.1.17.11.19-.54.89.53-.31.53-.31.64-.28l-.07.26-.23.13.23-.13.12.24-.47.27A7.52,7.52,0,0,1,47.67,3.35Z"/>      <path class="a" d="M47.74,7h-.07a.28.28,0,0,1-.17-.13c-.13-.22-.13-.22,1.06-1.12l.39-.3c-1,.61-1.16.63-1.3.6a.31.31,0,0,1-.13-.08h0c-.17-.17,0-.35,0-.44.55-.69.94-1.18,1.21-1.53l-.66.4c-1.78,1.08-1.79,1.08-1.95,1A.28.28,0,0,1,46,5.28c-.08-.14-.07-.2.31-1.21l.08-.21c-.48.28-1.2.73-1.66,1-1,.63-1,.63-1.14.59a.27.27,0,0,1-.18-.14c0-.1,0-.1.07-.52l.25-.88c-.39.23-1,.57-1.37.84-1.39.86-1.4.86-1.55.82a.28.28,0,0,1-.17-.13c-.09-.15-.11-.19.33-.65-1.45.87-1.5.87-1.64.83a.28.28,0,0,1-.17-.13c-.05-.1-.05-.1,0-.93L39.24,4c-.41.26-.49.3-.62.27a.28.28,0,0,1-.17-.13.27.27,0,0,1,.1-.37l.09,0L39,3.54c.41-.26.46-.29.6-.26a.27.27,0,0,1,.17.13c.06.1.07.11,0,1.24l0,.3c.45-.25,1.2-.71,1.7-1,1.22-.74,1.22-.74,1.35-.71a.27.27,0,0,1,.17.13c.09.16.11.19-.37.67,1.39-.86,1.49-.88,1.64-.84a.29.29,0,0,1,.17.13c.07.12.07.13-.27,1.32l.34-.21c2.08-1.31,2.26-1.36,2.45-1.32a.3.3,0,0,1,.18.13c.08.13.07.17-.25,1l-.12.34,1.15-.69c1.76-1.06,1.76-1.06,1.91-1A.27.27,0,0,1,49.9,3c.1.18.13.23-1.21,1.93l1.59-1c1.48-.92,1.48-.92,1.64-.88a.27.27,0,0,1,.17.13c.15.26.19.34-2.28,2.23l0,0a.27.27,0,0,1-.1.37l-.1,0c-.14.07-.57.34-.86.52C48,6.88,47.86,7,47.74,7Z"/>      <path class="a" d="M47.65,11h-.07a.28.28,0,0,1-.17-.13c-.06-.1-.06-.1.19-1.08l.12-.46c-.33.21-.38.23-.5.2A.27.27,0,0,1,47,9.44c-.06-.1-.07-.12,0-.37-.48.29-.5.28-.61.25a.27.27,0,0,1-.17-.13.27.27,0,0,1,.1-.37l.07,0c.11-.06.5-.29.72-.42.42-.26.42-.26.54-.22a.27.27,0,0,1,.15.11c.06.09.08.12,0,.38.16-.09.22-.1.31-.08a.27.27,0,0,1,.17.13c.07.11.07.11-.23,1.27l-.07.27c.45-.28.51-.32.65-.29a.28.28,0,0,1,.17.13.27.27,0,0,1-.1.37l-.08,0-.38.24C47.89,11,47.76,11,47.65,11Z"/>      <path class="a" d="M45.83,13h-.07a.28.28,0,0,1-.17-.13c0-.06,0-.06-.1-.56l0-.26-.34.21c-.26.16-.29.17-.4.14a.27.27,0,0,1-.16-.13c-.06-.11-.06-.11.17-1.29v-.08c-.42.26-.48.27-.6.24A.27.27,0,0,1,44,11c-.1-.17-.1-.17.68-1.27L45.17,9c-.37.22-.41.22-.51.19a.28.28,0,0,1-.17-.13.27.27,0,0,1,.1-.37l.09,0c.12-.06.5-.29.73-.43.55-.34.55-.33.67-.31a.27.27,0,0,1,.17.13c.11.2.12.21-1.17,2v0h.1a.27.27,0,0,1,.17.13c.05.1.05.1-.1.86l-.1.52c.45-.27.47-.26.58-.24a.27.27,0,0,1,.17.13c0,.06,0,.06.13.73v.11c.37-.21,1-.6,1.44-.86,1-.61,1-.61,1.13-.58a.27.27,0,0,1,.17.12c.1.17.11.19-.6.94a.28.28,0,0,1,.07.08.27.27,0,0,1-.1.37l-.08,0c-.11.05-.44.26-.6.36s-.33.2-.44.17a.27.27,0,0,1-.16-.12c-.08-.14-.11-.17.16-.46C46.13,12.9,45.94,13,45.83,13Z"/>      <path class="a" d="M39.75,4.23h-.07a.28.28,0,0,1-.17-.13.27.27,0,0,1,.1-.37l.11,0c.15-.07.62-.36.91-.54.73-.45.74-.46.88-.43a.28.28,0,0,1,.17.13l.18.21.43.51.28-.17c1.26-.78,1.28-.77,1.43-.74a.28.28,0,0,1,.17.12l.19.16.62.57L45.79,3c.88-.52.88-.53,1-.49a.27.27,0,0,1,.16.12c0,.08,0,.08,0,.54v.1c1-.63,1-.62,1.18-.59a.28.28,0,0,1,.17.13.27.27,0,0,1-.1.37l-.09,0c-.14.07-.62.36-.88.52-.53.33-.53.32-.65.29a.27.27,0,0,1-.16-.12c-.05-.09-.05-.12,0-.65l-.35.21c-1.22.72-1.22.72-1.37.48L44,3.33l-.12-.11c-.24.13-.76.45-1,.62-.57.35-.57.35-.69.32A.27.27,0,0,1,42,4l-.55-.64-.07-.08-.46.29C40.06,4.12,39.88,4.23,39.75,4.23Z"/>      <path class="a" d="M47.11,2.45H47a.27.27,0,0,1-.17-.13c-.1-.17-.11-.18.61-1.17a.26.26,0,0,1-.13,0A.28.28,0,0,1,47.17,1a.27.27,0,0,1,.1-.37l.09,0,.48-.29c.45-.28.5-.31.63-.28a.27.27,0,0,1,.17.13c.1.16.1.16-.59,1.1L48,1.35a.2.2,0,0,1,.18,0l-.07.26-.24.13.24-.13.11.24L47.93,2C47.33,2.37,47.2,2.45,47.11,2.45Z"/>      <path class="a" d="M55.38,4.67h-.07a.28.28,0,0,1-.17-.13c0-.09-.06-.1,0-1.14l0,0C54.1,4,54,4.06,53.87,4A.28.28,0,0,1,53.74,4L53,3.32l-.23-.18-.63.38c-.9.55-.91.55-1,.51a.27.27,0,0,1-.17-.13l-.36-.46-.4-.51-.28.17c-.53.33-.55.34-.69.31A.27.27,0,0,1,49,3.29c-.08-.13-.08-.13.18-.64L49.51,2c-.18.1-.23.11-.33.09A.28.28,0,0,1,49,2c-.07-.12-.07-.17.13-.64L49,1.39c-.24.15-.27.17-.39.14l.07-.26L48.58,1l.16-.1c.85-.52.87-.52,1-.49a.28.28,0,0,1,.17.13c.07.13.06.17-.13.61.22-.13.26-.14.37-.12a.27.27,0,0,1,.17.13c.08.15.1.18-.45,1.26.24-.15.29-.15.39-.13a.27.27,0,0,1,.17.13l.52.66.25.32.62-.37c.88-.54.88-.54,1-.5a.27.27,0,0,1,.12.06l.35.28.69.56c.2-.11.58-.35.81-.49.57-.35.57-.35.69-.32a.27.27,0,0,1,.16.12c0,.08,0,.08,0,.51,0,.17,0,.44,0,.67l.19-.12c.4-.25.42-.27.55-.23l-.07.26L56.07,4l.24-.13.1.25-.3.18C55.63,4.59,55.49,4.67,55.38,4.67Z"/>      <path class="a" d="M50.43,6h-.07l.07-.26.24-.13-.24.13-.11-.25.43-.26C52,4.42,52,4.4,52.2,4.44l.1,0,.24.15,1.13.72,1.42-.83c1.22-.71,1.23-.72,1.35-.68A.27.27,0,0,1,56.6,4c.1.17.07.26-.44.87A.25.25,0,0,1,56.3,5a.27.27,0,0,1-.09.37l0,0-.28.17c-.69.42-.73.44-.86.41a.28.28,0,0,1-.17-.13c-.09-.17-.1-.18.39-.74-1.59.93-1.69,1-1.81.79s-.89-.58-1.18-.76L52.11,5c-.23.12-.79.47-1.08.65S50.51,6,50.43,6Z"/>      <path class="a" d="M47.57,16.64h-.08a.28.28,0,0,1-.17-.13c-.11-.19-.11-.19.68-.93l1.19-1.14h-.05a.26.26,0,0,1-.16-.12c-.11-.19-.1-.2.8-1.52L50,12.4c-.17.09-.21.08-.28.06a.27.27,0,0,1-.17-.12c-.09-.16-.1-.18.33-.72h0a.28.28,0,0,1-.17-.13c-.07-.11-.1-.17.38-1.42-.2.12-.26.13-.35.11a.28.28,0,0,1-.17-.13c-.07-.12-.07-.13.17-.78l.06-.16c-.26.15-.32.17-.42.14a.27.27,0,0,1-.17-.13C49.11,9,49.11,9,49.54,8l0-.06c-.24.15-.31.18-.42.15A.28.28,0,0,1,49,8c-.09-.16-.09-.16.44-1.06l0,0c-.19.11-.21.1-.3.08a.27.27,0,0,1-.2-.26.58.58,0,0,1,0-.15l.52-1.27c-.16.09-.19.08-.27.06l.07-.26L49.52,5l-.23.14-.1-.25.46-.27c.27-.16.44-.26.58,0s.1.17-.47,1.55c.32-.19.35-.19.45-.17a.27.27,0,0,1,.17.13c.09.16.08.2-.44,1.07a.35.35,0,0,1,.27-.06.28.28,0,0,1,.17.13c.08.14.08.14-.36,1.09l0,0c.18-.11.21-.11.31-.09a.27.27,0,0,1,.17.13c.07.13.07.19-.2.94.25-.15.3-.16.4-.14a.27.27,0,0,1,.17.13.27.27,0,0,1,0,.23c-.17.43-.35.9-.48,1.26l.2-.13c.17-.11.22-.13.33-.11a.27.27,0,0,1,.17.13c.09.15.09.2-.26.65h.09a.27.27,0,0,1,.16.13c.11.19.09.22-.85,1.6l-.21.3c.67-.38.69-.34.8-.15s.15.25-1.34,1.68c.26-.15.34-.15.43-.13a.29.29,0,0,1,.18.13.27.27,0,0,1-.23.4c-.17.08-.72.43-1.1.67C47.88,16.53,47.69,16.64,47.57,16.64Z"/>      <path class="a" d="M44.4,17h-.07a.28.28,0,0,1-.17-.13.27.27,0,0,1,.1-.37l.1,0c.19-.09,1-.56,1.51-.89,1.07-.65,1.07-.64,1.2-.61l-.06.26-.23.14.23-.14.09.25c-.08,0-.54.31-.94.56C44.77,16.87,44.53,17,44.4,17Z"/>      <path class="a" d="M45.57,7.73H45.5a.28.28,0,0,1-.17-.13.27.27,0,0,1,.1-.37l.11,0c.19-.08.9-.52,1.38-.82,1.14-.7,1.14-.7,1.28-.66a.28.28,0,0,1,.17.13c.08.12.08.12-.24.78L48,6.78h0L48,7l-.09.05L48,7l.12.24L48,7.36c-.33.21-.4.25-.53.22a.27.27,0,0,1-.17-.13c-.07-.12-.08-.13.26-.83l-.32.2C45.94,7.6,45.71,7.73,45.57,7.73Z"/>      <path class="a" d="M44.57,19.16H44.5a.28.28,0,0,1-.17-.13c-.06-.1-.05-.17,0-.58-.73.46-.81.49-.95.46a.29.29,0,0,1-.17-.13c-.11-.2-.11-.2.9-1.14.56-.51,1.54-1.43,2.31-2.17-3.95,2.29-3.94,2.28-4.06,2.25a.27.27,0,0,1-.16-.13c-.11-.19-.11-.19,1-1.34.42-.43,1-1.06,1.52-1.6a.24.24,0,0,1-.18,0,.28.28,0,0,1-.17-.13c-.05-.09-.06-.13,0-.44-.3.18-.37.2-.48.17a.28.28,0,0,1-.13-.07h0c-.07-.07-.07-.1-.09-.28,0-.38-.07-.64-.1-.82-.45.28-.53.32-.66.29a.28.28,0,0,1-.17-.13c-.07-.12-.06-.19.1-.59-.24.14-.27.13-.36.11a.27.27,0,0,1-.16-.12c-.08-.14-.06-.2.24-.86-.21.13-.26.13-.35.11a.28.28,0,0,1-.17-.13c-.09-.16-.08-.18.46-1.35l.21-.45c-.6.35-.62.32-.74.12s-.14-.24,1.54-1.48c-1,.64-1.06.64-1.18.61a.27.27,0,0,1-.17-.13c-.12-.21-.13-.23,1-1.18a.29.29,0,0,1-.13-.12.27.27,0,0,1,.1-.37l.11,0c.15-.07.62-.36.93-.56.86-.54.89-.55,1-.52a.28.28,0,0,1,.17.13c.08.14.12.2-.23.52,1.47-.89,1.7-1,1.86-.92a.3.3,0,0,1,.18.13c.16.27.16.27-2.83,2.47l-.84.62c0,.12,0,.28-.54,1.39l-.16.34c.22-.13.26-.14.36-.11a.27.27,0,0,1,.17.13c.08.14.07.19-.25.88.21-.13.23-.12.33-.1a.27.27,0,0,1,.17.13c.07.12.06.17-.11.6.22-.14.26-.15.36-.12a.27.27,0,0,1,.17.13c0,.06,0,.08.16,1.06l.25-.16c.36-.22.38-.24.5-.21a.27.27,0,0,1,.17.13c.06.11.06.13-.06.47.63-.39.68-.42.82-.39a.28.28,0,0,1,.17.13c.14.24.17.3-2.2,2.77l2.66-1.54C47.9,14,47.9,14,48,14.21s.2.35-3.15,3.47a.28.28,0,0,1,.09.09c.06.1,0,.17,0,.64.43-.25,1.09-.65,1.66-1C48.82,16,48.84,16,49,16.09a.28.28,0,0,1,.17.13.27.27,0,0,1-.1.37l-.11,0c-.24.1-1.32.76-2.11,1.25A10.67,10.67,0,0,1,44.57,19.16Z"/>      <path class="a" d="M47.18,6.42H47.1a.28.28,0,0,1-.17-.13c-.08-.14-.06-.19.16-.5-.3.18-.36.17-.45.15a.28.28,0,0,1-.13-.07l-.05-.05-.74-.73-.65.39C44.12,6,44.13,6,44,6a.28.28,0,0,1-.17-.13l-.45-.48-.26-.27c-.24.13-.75.45-1,.63-.6.38-.6.38-.73.34a.27.27,0,0,1-.15-.1l-.1-.09-.73-.66-.7.43c-.7.44-.7.44-.84.4A.27.27,0,0,1,38.65,6c-.05-.09-.06-.1,0-.5-.33.2-.36.2-.47.17a.27.27,0,0,1-.16-.13c-.09-.15-.09-.15.41-1.23l.28-.61c-.36.22-.43.25-.55.22A.28.28,0,0,1,38,3.76a.27.27,0,0,1,.09-.37l.09,0,.46-.28c.48-.3.54-.34.68-.31a.27.27,0,0,1,.17.13c.09.16.1.17-.56,1.61l-.1.23c.24-.14.38-.18.49,0s.07.11,0,.53l.07,0c.93-.57,1-.59,1.11-.55a.28.28,0,0,1,.17.13l.8.71.33-.21c1.24-.77,1.31-.79,1.47-.75a.29.29,0,0,1,.17.13l.34.35.36.38.67-.4c.92-.56.92-.55,1.05-.52a.27.27,0,0,1,.17.13l.75.74L47.38,5c.52-.32.52-.32.64-.29a.27.27,0,0,1,.17.13c.07.12.08.18-.14.52a.28.28,0,0,1,.3.13.27.27,0,0,1-.1.37l-.07,0-.41.25C47.38,6.36,47.27,6.42,47.18,6.42Z"/>    </g>    <g>      <path class="a" d="M71.54,5.59h-.07a.27.27,0,0,1-.17-.13c-.08-.13-.07-.18.14-.55-.6.37-.59.37-.72.33a.27.27,0,0,1-.16-.12c-.09-.15-.08-.21.33-.87l-.34.21a.3.3,0,0,1-.34,0,.27.27,0,0,1-.1-.1c-.09-.16-.06-.23.36-1-.49.31-.54.34-.67.3a.28.28,0,0,1-.17-.13c-.06-.1-.06-.1,0-.51l.15-.59c-.12.07-.34.18-.47,0a.27.27,0,0,1,.09-.37l.06,0,.33-.2c.3-.18.33-.2.44-.17a.27.27,0,0,1,.17.13c.06.11.07.13-.17,1.09h0c.73-.46.81-.5.95-.46a.28.28,0,0,1,.17.13c.09.16.08.17-.37.93.55-.32.59-.31.69-.29a.27.27,0,0,1,.17.13c.09.15.09.15-.26.69l-.11.17c.49-.3.53-.3.65-.27a.28.28,0,0,1,.17.13c.08.14.06.21-.19.65h0a.27.27,0,0,1,.17.13.27.27,0,0,1-.1.37l-.07,0-.24.15C71.71,5.54,71.63,5.59,71.54,5.59ZM70.34,4.26"/>      <path class="a" d="M68.62,6.8h-.07a.27.27,0,0,1-.17-.13c-.07-.12-.06-.2.1-.47-.44.26-.47.24-.57.22a.28.28,0,0,1-.17-.13c-.07-.13-.08-.19.09-.41-.21.11-.26.09-.36,0l0-.07c-.06-.11-.08-.15.19-.51-.23.13-.25.12-.33.1a.27.27,0,0,1-.17-.14c-.07-.14,0-.18.14-.47l.22-.35c-.42.25-.49.26-.6.23a.28.28,0,0,1-.17-.13c-.06-.11-.07-.12.21-.84a.27.27,0,0,1-.22,0,.27.27,0,0,1-.07-.49l.07,0L67,3c.34-.21.37-.22.49-.19a.27.27,0,0,1,.17.13c.06.11.06.11-.18.75l-.05.13.25-.16c.51-.32.51-.32.63-.29a.27.27,0,0,1,.17.13c.08.13.09.16-.32.84.46-.27.48-.26.59-.24a.27.27,0,0,1,.2.26.46.46,0,0,1-.09.21l-.15.19c.41-.22.44-.16.53,0s.07.2-.08.4a.22.22,0,0,1,.21,0,.27.27,0,0,1,.17.13c.09.15.06.22-.2.62h0a.27.27,0,0,1,.17.13.27.27,0,0,1-.1.37l-.06,0-.24.15C68.82,6.73,68.72,6.8,68.62,6.8Z"/>      <path class="a" d="M71.06,13.84H71a.28.28,0,0,1-.17-.13.27.27,0,0,1,.1-.37l.09,0c.1-.05.38-.23.58-.35.57-.36.6-.38.74-.35a.27.27,0,0,1,.17.13.27.27,0,0,1-.1.37l-.07,0-.46.28C71.32,13.75,71.18,13.84,71.06,13.84Z"/>      <path class="a" d="M64.47,18.91H64.4a.3.3,0,0,1-.18-.13c-.1-.17-.1-.17.46-.82l.79-.92c-.7.41-1.7,1-2.63,1.61a.27.27,0,0,1-.38-.09c-.07-.12-.1-.17,0-.32-.36.22-.39.21-.49.19a.27.27,0,0,1-.17-.13c-.08-.15-.12-.21.4-.81-.89.55-.91.55-1,.51a.28.28,0,0,1-.17-.13c-.09-.15-.09-.15.49-1.42l.13-.3c-1.38.84-1.42.82-1.55.79a.28.28,0,0,1-.17-.13c-.11-.19-.08-.24.76-1.47l.25-.37-.75.44c-.48.29-.48.29-.59.26a.27.27,0,0,1-.16-.13c-.11-.18-.09-.25.55-.91-.29.17-.37.18-.47.15a.29.29,0,0,1-.18-.13c-.11-.2-.11-.2.76-1.13l.35-.38-.16.09c-.73.44-.73.44-.85.4a.27.27,0,0,1-.16-.12c-.11-.18-.11-.18.79-1.29l.65-.8-.66.4c-.48.29-.48.29-.59.26a.27.27,0,0,1-.17-.13c-.09-.16-.09-.16.57-1l.92-1.22-.06,0c-1,.65-1.07.66-1.22.62a.28.28,0,0,1-.17-.13c-.1-.18-.1-.18.55-.89l.64-.7c-.78.48-.86.48-1,.45A.29.29,0,0,1,59.39,9h0c-.18-.18,0-.36.05-.44.59-.7,1-1.2,1.31-1.57-1.06.64-1.06.64-1.2.6a.27.27,0,0,1-.17-.13c-.13-.22-.1-.28,1.23-1.8l.09-.1-.28.18c-.71.45-.71.44-.84.41A.27.27,0,0,1,59.42,6c-.09-.17-.09-.17.43-.8l1-1.21-.13.08c-1,.6-1,.59-1.1.56a.27.27,0,0,1-.17-.13c-.09-.16-.12-.21.42-.72-.14.06-.18.05-.25,0a.28.28,0,0,1-.17-.13c-.09-.15-.09-.15.47-1.26l.31-.62C60,2,59.92,2,59.81,2a.28.28,0,0,1-.17-.13.27.27,0,0,1,.09-.37l.09,0,.43-.26c.45-.29.51-.32.64-.29a.27.27,0,0,1,.17.13c.09.16.1.18-.65,1.66L60.28,3,61,2.54c.86-.52.86-.52,1-.49a.27.27,0,0,1,.17.13c.09.17.11.2-.47.73a.31.31,0,0,1,.24,0A.29.29,0,0,1,62.1,3c.11.19.12.22-1.2,1.82.75-.45.84-.46,1-.43a.29.29,0,0,1,.18.13c.12.21.08.26-1,1.5l-.33.38c1-.59,1-.59,1.12-.56A.28.28,0,0,1,62,6c.1.18.14.24-1.22,1.87l.07,0c.8-.5.8-.5.94-.47a.27.27,0,0,1,.17.13c.11.19.14.24-1,1.47.58-.36.64-.36.77-.34a.28.28,0,0,1,.17.13c.11.2.12.21-1.34,2.14,1-.58,1-.57,1.13-.54a.28.28,0,0,1,.17.13c.12.2.13.22-1.27,1.95.94-.56,1-.55,1.08-.52a.27.27,0,0,1,.17.13c.11.2.1.28-.89,1.35.52-.33.58-.34.7-.31a.28.28,0,0,1,.17.13c.11.19.12.21-.67,1,.49-.28.52-.27.61-.25a.27.27,0,0,1,.16.13c.11.19.09.23-.81,1.55l-.21.32.92-.56c.31-.19.46-.28.61-.07s.09.16-.43,1.33l-.2.45.38-.23c1.31-.8,1.32-.8,1.47-.76a.28.28,0,0,1,.17.13c.1.18,0,.25-.2.5l-.33.36c1.45-.89,1.5-.88,1.65-.84a.29.29,0,0,1,.17.13.24.24,0,0,1,0,.19c1-.6,1.16-.57,1.24-.55a.3.3,0,0,1,.18.13c.11.19.14.24-1,1.63.78-.46,1.84-1.12,2.77-1.7,3.93-2.45,4.54-2.77,4.81-2.7a.33.33,0,0,1,.19.14c.13.23.13.23-1.47,1.4-.7.52-1.79,1.31-2.73,2l1.37-.84c2.13-1.31,2.14-1.31,2.31-1.27a.28.28,0,0,1,.17.13.27.27,0,0,1-.1.37l-.09,0c-.21.1-1.16.68-2,1.2-3.16,1.95-3.55,2.16-3.8,2.1a.31.31,0,0,1-.18-.13c-.15-.26-.21-.36,2.76-2.58l-.94.59C65.34,18.57,64.73,18.91,64.47,18.91Z"/>      <path class="a" d="M71.64,4.51h-.07a.27.27,0,0,1-.17-.13c-.05-.09-.07-.12.06-1.13-.43.26-.44.25-.56.22a.27.27,0,0,1-.16-.12c-.07-.11-.07-.11.1-.86-.34.21-.43.26-.55.22a.28.28,0,0,1-.17-.13.27.27,0,0,1,.1-.37l.09,0,.42-.25c.41-.26.45-.28.58-.25a.27.27,0,0,1,.17.13c.06.11.06.11-.08.74l0,.15,0,0c.34-.2.49-.3.63-.08s.05.12,0,.33c0,.37-.08.63-.11.82.39-.24.46-.27.58-.24a.27.27,0,0,1,.17.13.27.27,0,0,1-.1.37L72.5,4l-.44.27C71.79,4.46,71.71,4.51,71.64,4.51Z"/>      <path class="a" d="M71.58,6.16h-.07A.28.28,0,0,1,71.34,6s0,0-.32-.83l0-.07-.12.07c-.49.3-.64.39-.79.15s-.06-.1,0-.89c0-.16,0-.35,0-.52h0c-.45.28-.48.3-.61.26a.28.28,0,0,1-.17-.13c-.09-.16-.09-.16.35-.76l.58-.79c-1.09.68-1.15.7-1.3.67a.28.28,0,0,1-.17-.13c-.1-.17-.08-.22.36-.81h0L69.15,2l.23-.14L69.15,2,69,1.76l.15-.09c.73-.45.77-.47.9-.43a.28.28,0,0,1,.17.13c.09.16.08.22-.31.73l.06,0c.95-.59,1-.62,1.14-.58a.28.28,0,0,1,.17.13c.1.18.13.22-.88,1.6h0a.27.27,0,0,1,.17.13c.06.1.06.15,0,1.15,0,.09,0,.17,0,.25.46-.28.48-.29.6-.26a.27.27,0,0,1,.16.12l.16.41.19.5L72,5.34c.32-.2.35-.22.47-.19l-.06.26-.23.14.23-.14.11.24-.23.14C71.82,6.08,71.69,6.16,71.58,6.16Z"/>      <path class="a" d="M69,6.09H68.9A.28.28,0,0,1,68.73,6c-.06-.1-.06-.1.1-.71l.08-.31c-.39.23-.4.23-.5.2A.27.27,0,0,1,68.24,5c0-.08-.06-.11-.09-1.49l-.21.13c-.29.18-.32.2-.43.17l.07-.26.23-.13-.23.13-.12-.24.2-.12c.62-.39.68-.42.82-.38a.28.28,0,0,1,.17.13c0,.07,0,.07,0,.44s0,.71,0,1l.07,0c.51-.3.57-.34.72-.15s.1.16-.13,1h0c.36-.22.37-.23.49-.2l-.07.26-.24.12.24-.12.11.24-.25.15C69.2,6,69.07,6.09,69,6.09Z"/>      <path class="a" d="M68.41,7.28h-.07a.28.28,0,0,1-.17-.13c0-.07,0-.07-.07-.56V6.36c-.46.28-.52.31-.65.28a.28.28,0,0,1-.17-.12c-.06-.11-.06-.11.12-.89l0-.1c-.31.2-.38.23-.5.2a.27.27,0,0,1-.17-.13c-.07-.11-.07-.11.13-.83l0-.1c-.35.21-.37.22-.48.18a.27.27,0,0,1-.12-.07c-.13-.13-.08-.24,0-.42l.47-1.18c-.48.28-.53.26-.65.06a.27.27,0,0,1,.09-.37l.06,0,.6-.35c.37-.22.37-.22.49-.19a.27.27,0,0,1,.16.12c.08.13.09.15-.47,1.53.21-.12.24-.12.34-.1a.27.27,0,0,1,.17.13c.07.12.06.15-.15.91.27-.17.34-.2.46-.17a.28.28,0,0,1,.17.12c.06.11.06.11-.12.9l0,.1h0c.34-.21.36-.22.48-.19a.27.27,0,0,1,.17.13c0,.07,0,.1.09.77v0L69,6.34c.72-.45.78-.48.92-.45a.28.28,0,0,1,.17.13.27.27,0,0,1-.1.37l-.08,0c-.1.05-.4.24-.62.38C68.67,7.19,68.52,7.28,68.41,7.28Z"/>      <path class="a" d="M71,13.21h-.08l.07-.26.23-.14-.23.14-.09-.25.57-.33c.47-.28.46-.28.59-.25l-.07.26-.24.12.24-.12.11.25-.34.2C71.21,13.14,71.08,13.21,71,13.21Z"/>      <path class="a" d="M64.91,17.24h-.07a.28.28,0,0,1-.17-.13,4.62,4.62,0,0,1-.22-.68c-1,.65-1.07.64-1.21.61a.28.28,0,0,1-.17-.13s0-.06-.34-.8l-.18-.44,0,0c-.53.32-.58.36-.72.32a.28.28,0,0,1-.17-.13c-.07-.12-.06-.16.17-1.1v0c-.36.23-.4.25-.52.22a.27.27,0,0,1-.17-.13c-.07-.13-.07-.13.23-.82l.25-.57c-.37.22-.4.21-.5.18a.28.28,0,0,1-.16-.12c-.08-.13-.08-.13.44-1.19l.13-.26c-.22.13-.29.15-.39.12a.28.28,0,0,1-.17-.13c-.08-.15-.09-.16.3-.7h-.11a.28.28,0,0,1-.17-.13c-.1-.17-.06-.24.45-1.06a.32.32,0,0,1-.25,0,.28.28,0,0,1-.17-.13c-.08-.13-.09-.16.31-.72A.24.24,0,0,1,61,9.22c-.09-.15-.1-.17.41-1a.24.24,0,0,1-.21,0A.27.27,0,0,1,61,8.16c-.09-.16-.1-.18.63-1.68-.23.14-.3.16-.41.13a.28.28,0,0,1-.17-.13c-.1-.17-.07-.23.52-1.33l.1-.19c-.28.16-.31.15-.4.13A.28.28,0,0,1,61.11,5c-.08-.14-.07-.21.2-.53a.24.24,0,0,1-.16-.12c-.07-.13-.1-.18.24-.62h-.05a.27.27,0,0,1-.17-.14c-.07-.14,0-.18.15-.48l.26-.4a.27.27,0,0,1-.16,0,.28.28,0,0,1-.17-.13c-.06-.1-.07-.11.17-.82C61,2,61,2,60.85,1.94a.27.27,0,0,1-.07-.5l.07,0,.49-.29c.47-.29.48-.3.61-.27a.27.27,0,0,1,.17.13c.06.11.06.11-.14.72l0,.12c.33-.21.35-.22.47-.19a.27.27,0,0,1,.17.13c.08.14.09.17-.35.86.25-.12.3-.08.39.08a.27.27,0,0,1,0,.31l-.25.31c.1,0,.14,0,.21.13s.08.24-.19.56h0a.27.27,0,0,1,.15.12c.1.17.06.26-.49,1.27l-.14.26c.25-.16.31-.17.41-.14a.28.28,0,0,1,.17.13c.08.14.08.14-.32,1l-.36.74c.3-.18.36-.18.46-.16a.28.28,0,0,1,.17.13c.08.16.08.16-.27.7L62,8.29a.27.27,0,0,1,.23,0,.28.28,0,0,1,.17.13c.08.14.09.15-.31.71a.24.24,0,0,1,.11,0,.27.27,0,0,1,.17.13c.1.17.09.18-.46,1.05l0,0c.16-.09.2-.1.29-.08a.27.27,0,0,1,.17.13c.08.14.09.16-.29.7h.1a.27.27,0,0,1,.17.13c.08.13.08.13-.51,1.32l-.07.15.07,0c.18-.11.22-.14.34-.1a.27.27,0,0,1,.16.12c.08.14.09.16-.43,1.37.19-.11.25-.12.35-.1a.27.27,0,0,1,.17.13c.06.11.06.11-.11.83l-.08.32c.35-.22.37-.23.49-.2a.27.27,0,0,1,.17.13s0,0,.32.76l.21.51c.25-.14.66-.4.83-.51s.29-.18.4-.16a.27.27,0,0,1,.16.11s0,0,.08.21l.16.52.82-.51c1.1-.69,1.15-.7,1.3-.67a.29.29,0,0,1,.17.13,5.77,5.77,0,0,1,.23.68c.35-.19,1-.6,1.45-.87,1.14-.71,1.14-.71,1.29-.67a.28.28,0,0,1,.17.13.27.27,0,0,1-.1.37l-.08,0c-.13.07-.61.36-1,.6-1.69,1.05-1.78,1.08-2,1a.29.29,0,0,1-.17-.13,1.27,1.27,0,0,1-.06-.17l-.16-.5-.79.49C65.23,17.13,65,17.24,64.91,17.24Z"/>      <path class="a" d="M72.06,15.38H72a.27.27,0,0,1-.16-.12c-.11-.18-.11-.18.67-1.06l.07-.07a.27.27,0,0,1-.12-.11c-.07-.12-.08-.13.11-.52-.19.11-.25.12-.35.1a.28.28,0,0,1-.17-.13.27.27,0,0,1,.1-.37l.08,0,.43-.26c.44-.28.47-.3.61-.27a.28.28,0,0,1,.17.13c.06.11.08.13-.11.51.17-.09.22-.09.3-.07a.28.28,0,0,1,.17.13c.09.16.11.19-.47.85.32-.19.33-.19.44-.16l-.07.26-.24.13.24-.13.12.24-.37.22C72.37,15.27,72.17,15.38,72.06,15.38Z"/>      <path class="a" d="M64.57,19.44h-.08a.28.28,0,0,1-.17-.13s0,0-.31-.77l-.45.28c-.66.41-.7.44-.84.4a.28.28,0,0,1-.17-.13,1.17,1.17,0,0,1-.08-.26l-.15-.57-.73.45a.27.27,0,0,1-.38-.09c-.06-.1-.06-.15,0-.33-.26.16-.28.16-.39.13a.27.27,0,0,1-.17-.13c0-.09-.06-.11,0-.6-.37.22-.39.23-.5.2a.27.27,0,0,1-.16-.12c-.05-.09-.05-.09,0-1v-.33c-.48.29-.5.28-.62.26a.28.28,0,0,1-.17-.12c-.08-.13-.07-.15.22-1.11l.1-.33-.19.11c-.19.11-.27.16-.41.08a.28.28,0,0,1-.1-.1c-.09-.15-.08-.19.29-.78a.28.28,0,0,1-.21,0,.28.28,0,0,1-.17-.13c-.09-.15-.09-.15.33-.86l.17-.28c-.27.16-.38.19-.5,0s-.09-.16.33-1l.3-.62-.06,0c-.23.14-.4.24-.54,0s-.09-.15.23-.84l.44-1c-.31.19-.36.21-.47.18a.28.28,0,0,1-.17-.13c-.08-.14-.08-.14.25-.7l.31-.54c-.21.12-.27.13-.36.1a.28.28,0,0,1-.17-.13.28.28,0,0,1,0-.14.35.35,0,0,1,0-.14l.64-1.23c-.31.19-.33.18-.44.16a.27.27,0,0,1-.16-.12c-.1-.17-.07-.23.55-1.38l0-.08c-.26.16-.28.16-.39.14a.27.27,0,0,1-.17-.13c-.07-.13-.07-.13.18-.63l.45-.9c-.29.18-.32.18-.42.16a.27.27,0,0,1-.17-.13c-.08-.14-.09-.16.26-.66h-.09a.27.27,0,0,1-.17-.13c-.09-.16-.09-.16.58-1.33l.37-.65c-.28.17-.35.19-.46.16a.28.28,0,0,1-.17-.13.27.27,0,0,1,.1-.37l.09,0,.47-.29c.48-.31.55-.35.69-.31a.28.28,0,0,1,.17.13c.1.18.11.19-.79,1.76l-.13.22c.2-.12.22-.11.31-.09a.27.27,0,0,1,.16.12c.09.14.1.16-.26.65h.12a.27.27,0,0,1,.17.13c.09.15.09.16-.56,1.47.22-.12.27-.13.37-.1a.29.29,0,0,1,.17.13c.09.16.07.2-.44,1.15l-.17.31c.3-.18.31-.17.41-.14a.27.27,0,0,1,.16.12c.08.14.11.18-.56,1.47.24-.14.26-.14.36-.12a.27.27,0,0,1,.17.13c.09.15.11.18-.48,1.2.14-.08.19-.08.28-.06a.28.28,0,0,1,.17.13c.09.15.09.16-.63,1.74.3-.17.33-.16.42-.14a.27.27,0,0,1,.17.13c.09.16.1.17-.59,1.57.28-.16.31-.16.4-.13a.27.27,0,0,1,.16.13c.09.16.07.24-.43,1.09a.3.3,0,0,1,.25,0,.27.27,0,0,1,.17.13c.09.15.09.17-.32.82.25-.12.29-.07.38.08s.07.17-.24,1.17l-.08.27.16-.1c.14-.09.2-.12.31-.09a.27.27,0,0,1,.16.12c0,.08,0,.08,0,1,0,.13,0,.28,0,.42.47-.29.5-.31.63-.27a.27.27,0,0,1,.12.07c.1.1.08.2,0,.37l-.06.29c.51-.31.56-.33.69-.3a.27.27,0,0,1,.17.13c.05.09.06.14,0,.29.28-.16.33-.14.41-.12a.27.27,0,0,1,.17.13,4.63,4.63,0,0,1,.23.81l.31-.19c.75-.47.8-.49.94-.46a.28.28,0,0,1,.17.13l.1.26.21.53,1-.58c.81-.5.81-.5.94-.46h0L68,18l.66.12c.27-.13,1.42-.82,2.12-1.24,1.14-.69,1.15-.69,1.27-.66l-.07.26-.23.14.23-.14.1.25-1,.61c-2.26,1.36-2.28,1.36-2.44,1.31h0l-.69-.12c-.75-.13-1.14-.2-1.34-.25l-.63.38C64.9,19.33,64.69,19.44,64.57,19.44Z"/>    </g>  </g></svg>