<svg xmlns="http://www.w3.org/2000/svg" width="239.02" height="37.35" viewBox="0 0 239.02 37.35"><defs><style>.a{fill:#6d2e6a}.b{fill:none;stroke:#5d0e5a;stroke-linecap:round;stroke-linejoin:round;stroke-width:.85px}</style></defs><title>tit_cast</title><path class="a" d="M232.05 25c0-.18-.22-.21-.37.16.06.13.12.26.19.39a3.79 3.79 0 0 1 .18-.55zm-1.63 2.48c-.08.55-.44 1.25.07 1.17.19-.7.38-.78.28-1.49.14-.45.36-.73.46-.62 0-.19.27-.64.16-.93a4.2 4.2 0 0 0-.79 2c-.15.13-.14-.07-.18-.13zm.78-5.95l-.2.21a1.3 1.3 0 0 0 .2-.21zm1.58 6.16c.09-.18.1-.27.08-.29-.07.18-.13.32-.08.29zm-2.87 3.36l.18-.15a.4.4 0 0 0-.18.15zm1.29-9.52l.51-.55c-.06-.1-.28.27-.51.55zM225.97 32a1.63 1.63 0 0 0 .39-.28 3.56 3.56 0 0 1-.38.22.22.22 0 0 1-.01.06zm-4.43-3.21h-.22a1.24 1.24 0 0 0-.16.17zm-8.38.62c.09-.05-.14-.3-.19-.43a.5.5 0 0 1-.07.32 1 1 0 0 0 .26.11zm10.38 2.32l.2-.19zM228 26a.21.21 0 0 0 .14 0H228zM10.74 37.05s-.07 0 0 0zM.04 35.66h.15a.56.56 0 0 0 0-.16zM223 34.06c.22-.06.11-.06 0 0zm-78.24.51c.89.25-1.44.32-.1.6-.12-.11 1.21-.44.1-.6zM225.68 32l-.41.13a2 2 0 0 0 .41-.13zm-81.02 3.17h.14zm58.72-.64a.56.56 0 0 0 .2.12s-.04-.06-.2-.12zm14.65.26h-.36a2.42 2.42 0 0 0 .36 0zm-22.24.14a1.53 1.53 0 0 0-.53 0h.08a.77.77 0 0 1 .45 0zm-7.91 0l.15.06h.25zm-153.1 1.99a1.16 1.16 0 0 1-.37-.25c.13.19-1.04.27.37.25zm191.12-5.1c0 .09-.09.15-.22.21l.29-.13s0-.09-.07-.08zm-30.36 5.33h-1.26c.31-.02.77 0 1.26 0zm-104-.27h-.29a.67.67 0 0 0 .29 0zm99 .27a2.8 2.8 0 0 0-.71-.19.51.51 0 0 0-.15.07zm-156.13-.49z"/><path class="a" d="M26.14 37.33c1.2 0 .56-.36.82-.57 1.43-.1.66.27 1.15.46.89-.1 1.58-.44 2.24-.42 0 .06.18.08 0 .16.94-.29 2.8 0 3.9-.38a.33.33 0 0 1 .14.09.53.53 0 0 1-.17-.51c.54 0 1-.23 1.2 0a.72.72 0 0 0-.51.17l.56-.1c.51.35-.77.12-.77.38a18.63 18.63 0 0 1 3.21-.3c.18.34-2 .11-.84.42l-1.3-.13c1 .54-.79 0 .12.54 1.71.1 1.91-.17 3.62-.07.38-.19-.13-.28.26-.47 2.43-.34 1.91.85 3.7.4a2 2 0 0 1 1.91-.43l-.43.38c1.66 0 .94-.55 2.68-.29-.31.15-1.3.13-1.05.17 1.13.3.79-.22 1.66-.22l.18.34c1.76-.05 3.71-.3 5.66-.36-.11.1-.44.21 0 .31a52.09 52.09 0 0 1 7.64.24l.91-.29c.21 0 .39.13.16.19.93.11 0-.19.49-.3s.7.17.36.26a24.09 24.09 0 0 1 6.38-.22l-.33.09c1.34.12 1.51-.6 2.76-.33l-.24.05c2.91.13 6.13-.14 8.35.3.42-.42 2.88.19 3.07-.4a20.3 20.3 0 0 0 3.53.59c.63 0 .93-.37 1.7-.43v.31l1-.32.68.36.72-.08c-.29 0-.61-.14-.57-.23a5.62 5.62 0 0 1 2.79.37l2.68-.26c-.06.12-.51.17-.86.25 1.43-.31.26.32 1.57 0-.18-.07.09-.18.12-.25a12.45 12.45 0 0 0 3.24.11l-.21.21c2 .05 4.19-.1 6.42-.1-.8-.1-.62-.47 0-.5l.26.33c.42-.2-.68-.12.18-.37.83 0 .56.37.09.48l1-.11c.06.1-.18.15-.24.27.41-.2 1.75.33 2.35 0l.06.1c2.23 0 3.24-.11 5.06-.13 0-.28.74-.22 1.28-.45 1.34.09 2.82.31 4.43.29 1.13-.14.33-.24.83-.41.09.26 1.69.23.86.42 1.93 0 2.46-.05 4.9-.26-.27-.11-.56-.15-.41-.24.44 0 1 .11.95.23h-.12c2.74-.38 6.33.75 8.51.21h-.12l2.26-.28c1 0-.62.19.15.35 2.44-.43 3.86.06 5.86-.22 1.56.76 5.52-.05 7.62.43l-.12-.18c.54-.17.66.1 1.06.14-.06-.14-.59-.16-.25-.26 4.6-.21 9.49.26 14.21.42 1.72 0 1-.92 3.15-.5l-.61.33c3.47-.4 7.11 0 10.51-.32-.2.08-.21.18-.54.17a4.85 4.85 0 0 0 2.67-.18c.53 0 .13.18.45.28.72.14 1.81-.31 2.19-.07.07 0-.2.08-.33.1.47-.12 2.19 0 1.74-.25 1.28.13 2.44-.12 3.46 0 .66-.31 2.19.15 2.4-.29-.09.45 2.25.36 3.05.15-.27.14.7.14.39.33.92 0 1.77-.09 1.6-.32 1.71.54 3.41-.44 4.38.26 2.74-.24 5.27-.41 7.73-.51-.08.45-2.72 0-2.61.52a41.27 41.27 0 0 1 6-.46c.6.06-.34.2-.54.27 2.33-.19 4.5-.08 6.57-.37 0 0-.23.09-.44.14.41 0 .95 0 .9-.17l-.4.07c-.33-.14.08-.31.58-.46a3.68 3.68 0 0 0 1.14-.39c-.33.33.21.31.65.33s.79.11.32.48c.23-.05.51-.14.47-.28.4.05.54.13.12.28a3.86 3.86 0 0 0 1.27-.22 10.47 10.47 0 0 1 1.21-.3c0 .1-.28.21-.42.35.78-.32 1.45-.82 2.47-1.34 0 .09.13.09-.17.26.86-.54 1.4-1 2.15-1.46a23.34 23.34 0 0 0 2.4-1.69c-.18.79.66-.45 1-.32.24-.34.46-.69.65-1l-.43.28c.63-.85.86-1.72 1.44-2.41l-.28.72c.33-.55.65-1.11.93-1.71-.21.31-.44.61-.66.89.35-1-.44-.13.28-1.27-.08.26.45-.9.79-1.37 0-.54 0-1.06.13-1.83.12-.21.41.17.49 0-.14-.25-.18-.82-.36-1.41a4.6 4.6 0 0 0-.16-.44l-.1-.21a.88.88 0 0 0-.07-.13 3.12 3.12 0 0 0-.32-.42l-.14-.15a.41.41 0 0 0 .4.14 2.17 2.17 0 0 1-.38-.32c.06-.31.17-.31.34-.17.15-.36.07-.38-.1-.44s-.14 0-.12-.11.14-.21.5-.15c-.08 0 0 0-.16.14a1.73 1.73 0 0 1 .65 0 1 1 0 0 0 .33 0 2.29 2.29 0 0 0 .56-.15 7.36 7.36 0 0 0 .88-.47 4.23 4.23 0 0 0 .9-.66 2.23 2.23 0 0 0 .62-1.11c.21-.29.24.15.08.55s-.46.73-.08.52a1.93 1.93 0 0 0 .08-2.18 3.43 3.43 0 0 0-2-1.07c-.55-.15-1.09-.3-1.62-.46s-1-.35-1.6-.54a4 4 0 0 1 .42.17c-.22.2-.55 0-1.13-.07a1.76 1.76 0 0 0-1.71 1c.13-.27 0-.51 0-.41a3.14 3.14 0 0 0-.73 1.7 2.25 2.25 0 0 0 .17 1.14 1.61 1.61 0 0 0 .68.74l.13.05a2.22 2.22 0 0 1 .26.3l.44-.26a.27.27 0 0 1-.12 0l-.17-.08-.16-.1s0 .07-.08.14l-.54 1v-.3a21.83 21.83 0 0 1-2 2.32c-.09.28-.49.65-.12.56a4.12 4.12 0 0 0-.91.69 5.41 5.41 0 0 0-.66.88 4.55 4.55 0 0 1-1.14 1.3 6.41 6.41 0 0 1-3.45 1.35c.28-.09.63-.32.41-.25a19.83 19.83 0 0 1-2 .66c.21.19.3.08.77.15a3.17 3.17 0 0 1-1.32.53c.92-.33-.08-.36-.5-.42.08.06 0 .16 0 .22-1.15-.26-.12.52-1.67.38l.07-.13a6.78 6.78 0 0 1-1.7.25c-.25-.27.61-.12.64-.35-.84 0-1.71.49-2.48.16.38 0 .9 0 1.27-.07a4.2 4.2 0 0 0-1.57-.38h.06a7.53 7.53 0 0 0-.82-.1 5.14 5.14 0 0 0-1.06 0 4.06 4.06 0 0 1 .55 0c-.32.21-.59.36-.86.51s-.59.3-.64.67a4.21 4.21 0 0 0 .69 2.06c-.4-.6-.5-.72-.51-.58s0 .41-.12.4c0 .36.11 1 0 .86.21.3.36.69.62 1a2 2 0 0 0 .66.54 1.84 1.84 0 0 0 .38.14 1.25 1.25 0 0 0 .56.08s.34.07.46.09.29.07.2.19c.89 0-.2-.18-.12-.3a4.91 4.91 0 0 1 1.18 0 5.46 5.46 0 0 0 1.46-.17.89.89 0 0 1 .4 0 4.49 4.49 0 0 1 .46.16 2.67 2.67 0 0 0 .92.18 2.35 2.35 0 0 0 .92-.19 12.35 12.35 0 0 1 1.71-.59 3 3 0 0 0 1.68-.7c.54-.19-.16.56-.22.54a4.58 4.58 0 0 0 1.08-.6 5.11 5.11 0 0 1 .95-.44c-.14.12 0 .16.35.17.7-.31.33-.49 1.18-.84a1.74 1.74 0 0 1-.42.71 15.38 15.38 0 0 0 1.81-1.7c.27 0-.23.5-.39.76.68-.61 1.78-1.53 1.85-1.92l-.53.28c.26-.21.27.08.11.27-.49.63-.95.6-1 .55l.42-.39c-.41-.05-.85.31-1.32.77a4.72 4.72 0 0 1-1.6 1.23 3.86 3.86 0 0 0 .28-.58 4.8 4.8 0 0 1-1 .73c-.26 0-.5-.21 0-.43a1.15 1.15 0 0 0-.76.22 1.8 1.8 0 0 1-.62.34c-.08 0-.07 0 0-.08a4.16 4.16 0 0 1-.57.52c.09-.15-.23-.2.16-.36a2.42 2.42 0 0 1-.73.21l-.75.07a4.06 4.06 0 0 1-1.2.09l.12-.05c-1 .31-1 .35-1 .46a.16.16 0 0 1 0 .18.93.93 0 0 1-.66.23c-.35-.32-.45-.68-.83-1a2 2 0 0 0-.28.26c-.23-.06-.7 0-.64-.1-.73.45.15.09-.23.42a9.81 9.81 0 0 1-1.74.08c-.6 0-1.1 0-1.07-.35-.17 0 0 .18.11.25s.11 0 .08.06-.15.06-.39 0c0-.33-.34-.38-.64-.6a1.26 1.26 0 0 1-.47-1c.33.22.46.93.42.11a.82.82 0 0 1-.31-.44 2.25 2.25 0 0 1-.09-.31 2.22 2.22 0 0 1 0-.26 2.61 2.61 0 0 1 0-.84c-.23-.16 0-.39.46-.46a4 4 0 0 1 .74-.05h1a14.85 14.85 0 0 0 3.71.32v.06c.21-.38 1.47-.45 2.36-.71 0 .22-.14.34-.62.52l.86-.16a2.75 2.75 0 0 1 1-.45l-.15.32c1.14-.3 2.16-.95 3.6-1.39 0-.26-1.34-.18 0-1 .11.1.27.29-.07.51a2.79 2.79 0 0 1 .64-.39c-.14.17-.29.34-.45.5.66-.22.23-.33.71-.59.1.18.42-.11.44.06s-.46.21-.61.38c.58-.26 1.28-.7 1.58-.84-.13 0-.18-.17.1-.58.64-1 .43-.24.85-.7 0-.27.53-.65.34-.87a.67.67 0 0 1 .51-.2c.16-.24.67-.78 1-1.23s.5-.8.17-.62l-.11.11v-.09a19.79 19.79 0 0 1 1.3-2l.09-.12a.62.62 0 0 0 .07-.13.43.43 0 0 0 0-.15.38.38 0 0 0-.11-.28l.05.06a6.08 6.08 0 0 0-.33-.57c-.28-.15-.38-.24-.43-.35a.91.91 0 0 1-.09-.42 2.66 2.66 0 0 1 .25-1h.09a1.5 1.5 0 0 1 1.06-1 5 5 0 0 1 1.18.11c.32.11.68.44.51.5.42.11.66.15.94.23a4.29 4.29 0 0 1 .47.17 5.19 5.19 0 0 1 .61.3h-.28l-.53-.2.62.3.25.15a2 2 0 0 1 .69.4c-.21-.08-.24.07-.3.23a3.56 3.56 0 0 1-.2.43 1 1 0 0 0 .42-.3.72.72 0 0 1-.28.46 1.72 1.72 0 0 1-.36.22 1 1 0 0 0-.11-.32h-.14a.63.63 0 0 0-.2.07l-.48.22-.14.06h-.34a3 3 0 0 0-.94.06 1.6 1.6 0 0 0-1.17 1 2.59 2.59 0 0 0-.07 1.5c.07.39.26.86.31 1.26.1.08.14.07.14 0a.41.41 0 0 0 0-.17l-.12-.32c-.17-.45-.24-.86 0-.52l.19.49a2 2 0 0 1 .13.45 2.33 2.33 0 0 1 0 .62c0 .38-.17.67-.17.8a2.75 2.75 0 0 0 0 1.18 1.73 1.73 0 0 1-.24 1.3c.17-.12.58-.16.17.89-.55.9-1.07.84-.82.24.12-.21.2-.3.23-.27.12-.31.26-.7 0-.41v.17c-.32.38-1.08 1.57-1.07 1.19-.34.72 0 .39.35-.07a24.22 24.22 0 0 1-2.07 2.62c.18-.09.41-.14.27 0-.69.62-.83.73-.88.88s0 .27-.59.62c-.76.2.06-.5-1.1.25-.83.28-.3-.2 0-.44a8.61 8.61 0 0 1-1.63.87c-.51.22-.93.35-1.21.47l.48-.38a3.41 3.41 0 0 1-.78.48l.39.07c-.32.12-.56.21-.59.11-.24.25.39.29-.18.7-.42 0-1.4.3-1.58 0 .77 0 .7-.05.63-.14s-.15-.19.4-.28a2 2 0 0 1-.83.05c-.05 0 0-.07.14-.09-1.4-.26-.75.28-2.42.41.19-.2-.41-.3-.63-.25.6 0 .3.28-.23.44a5.61 5.61 0 0 0-1.67.12h.63a3.69 3.69 0 0 1-1.48.25c-.06-.14.67-.12.41-.17-.82.34-1.85-.27-3 0-.53-.1-.06-.33-.52-.4-1.28.28-1.39-.23-2.72 0 .39.24.46.18-.48.41l2.2-.17-1.41.35c.67 0 1.4-.15 1.8-.11-.67.2-.6.14-.28.34-.92-.36-1.8.21-2.86 0v-.59c-1.58-.26-2.8.3-4.86.15l.66.1c-.27.23-1.27 0-1.93.13.06-.2-.36-.27-.64-.39 0 .15-1.5 0-1.68.38l-.92-.26c-1.66-.11-1.88.56-3.48.5.48-.21-.25-.35.82-.51-.53 0-1 0-1 .1-.31-.12-1.47.27-2 .08a1.33 1.33 0 0 1-.89.28c-.07 0 0-.1 0-.1s-.93.13-.41.35c-1.65-.62-4.58 0-6-.48-1.16.07-2.56.13-3.61.14.07-.06 0-.1.2-.08-1.46-.18-.89.57-2.54.36-.85-.32.88-.17.35-.29-.24-.65-2 .09-3.11-.29h.27c-.85-.22-2.07.25-3.46.2 0 0 .07-.06 0-.1a19.59 19.59 0 0 1-4.08.53c.41-.25.61-.13.35-.39-.6 0 .18.41-1 .49-.39-.14-1.26-.26-1.37-.54h1.13c-.58-.36-1.46 0-2.06 0l.07-.16c-1.73.05-1.75.44-3.61.42l.19.12c-1 .39-.85-.22-1.86.07l-.28-.24c-.67.1-2.34.38-3.55.46a19.51 19.51 0 0 1 3-.62 10.1 10.1 0 0 0-2.6.22 2.6 2.6 0 0 1 .87-.07 9 9 0 0 1-3.21.46c.23-.77-3.45-.19-4.42-.79-2.34.28-4.65-.12-7.38-.08 1 .6-.8 0-.62.63a2.72 2.72 0 0 1-.94 0l-1.93-.37c-.46-.18.6-.13.54-.27-1.39 0-.59-.26-1.51-.42.19.22-.48.31-1.27.23l1.12.28c-1.94.33-1.69-.51-3.64-.19l.62-.19c-1 .11-3.71 0-4.69.49-.18-.07-.42-.24 0-.28-2.41-.07-5.35.52-7.22.22l.18-.15c-.45 0-.78.28-1.34.13 0-.06.18-.15 0-.16a6.1 6.1 0 0 1-1.78.17l.51-.17c-2.35-.2-3.6.41-5.56.51 0-.44-1.85-.58-2.77-.65v-.06a71.18 71.18 0 0 0-7.16.54c-1.57-.48-5.32-.2-7.84-.47.39.08-.06.34-.51.39s-1.63.31-1.54-.1h.21c-.45-.4-1.67-.29-2.62-.3l-.15.53c-2.49-.77-6.51.28-7.87-.41-.6.13-1.34.13-1.94.26v-.28c-1.66-.07-2.49-.11-4.55 0l.42-.2c-1.16 0-1.46.82-2.53.83l-.33-.49c-2 0-4.07-.36-6.06 0 0-.06.09-.18.42-.2-1 0-3.68-.29-3.33.29 0-.38-2.09 0-3.18.13l.17-.28a5.25 5.25 0 0 1-2.23.55c-.31 0-.27-.22.14-.15-1-.15-.79.26-2 .12l.46-.18a2.58 2.58 0 0 0-1.54.28 3.59 3.59 0 0 1-2.14-.32 1.88 1.88 0 0 1-1.33.29c-.08-.1.14-.15.25-.18-1.75-.19-2.6.32-3.8.05a.26.26 0 0 0-.2-.17h2.4c0-.26-1.12-.3-.23-.66a12.58 12.58 0 0 1-3.53.49.5.5 0 0 1-.15-.09h.11a2.26 2.26 0 0 0-.69 0 7.43 7.43 0 0 0-.91-.08c-.13-.21-1.29-.11-1.85-.13 0 .28-.69.24 0 .47h2.11a2.54 2.54 0 0 1-1.52.11c-.29.18-.6.37-.78.45-.77-.39-2.24-.6-2.45-.85-1.71.16-4 .1-5.09.63-.49.07-.56-.15-.74-.23a4.63 4.63 0 0 0 .77-.12c-1 .14-2.88.05-3.11.42-1.22-.17.69-.34-1-.28l.23-.11c-3.31-.59-5.38.94-9 .18.25 0 .38.07.43.13-4.18-.33-8.62.31-12.74-.22a3.92 3.92 0 0 0-2 .31l-.25-.3-1.22.35c-1.73.26-3-.74-5.2-.26l.28.2c-.79 0-2.5.12-2.37-.11a.61.61 0 0 1-.57.11v-.16l-2.06.29c-1.5-.11.23-.63-2-.66-.81.06-2.32.46-2 .57s.84.1.87.26l-.75.08c-.14.47-.71.94 1.12 1.27l1.26-.29.41.23H1.92a2 2 0 0 0 1.43-.1.89.89 0 0 0 .53.25l1.25-.44c.15.18-.56.36.28.46.59-.21-.56-.41.41-.54.61.21.43.38 1.15.2.1.12-.05.2-.33.25.64-.14 1.69-.06 2-.31.64.26 2.15-.07 2.09.37a6 6 0 0 1 1.71-.36c-1.07.53 2.19 0 1.91.6.79-.47 2.86-.21 4.26-.47a.64.64 0 0 1-.36.09 8 8 0 0 1 1.53.27c.1-.39 1.33-.48 2-.72 1 .38-.59.46-.28.82 0-.32 1.68-.32 1.35-.58.74.23.64.11 1 .44.13-.49.69-.08 1.3-.38 1.07.24.28.46 1.45.31.58.14-.46.31-.46.31zm28-.85h-.58zm2.35 0h-1c-.08-.1 0-.2.24-.19-.19.05.37.11.72.19zm-5-1.95c.37 0 .5 0 .55.07h-.65a.39.39 0 0 1 .08-.07z"/><path class="a" d="M50.8 34.9h-.15l.22.06.13-.09zm180.16-13.12l-.1.06zM88.91 37.02v-.07l-.21.06.21.01zm131.21-9.26a.34.34 0 0 0-.17 0 .43.43 0 0 0 .17 0zm-5.45.09a6.21 6.21 0 0 0-.93-.12l.57.07zm-2.84 2.97a.29.29 0 0 0 .14 0zm6.5 5.84h-.17c-.39.08-.12.06.17 0zm16.42-10.74a4.13 4.13 0 0 1-.1.7c.16-.35.24-.62.1-.7zm-39.11 11.23zm38.59-9.62a2.65 2.65 0 0 0 .41-.91c-.1.29-.31.61-.41.91zm-4.91 2.18l.17-.11v-.05zm.17-.17l.16-.17c-.11.07-.11.13-.16.17zm.52-.54l-.36.37c.13-.09.32-.22.36-.37zm-5.66 3.45v.12a.14.14 0 0 0 0-.12zm-1.93.89a2.89 2.89 0 0 0 1.07-.15 2.68 2.68 0 0 0 .88-.53v-.09c-.05.12-.32.28-.74.46a8.78 8.78 0 0 1-1.21.31zm-7.1-.98a3.78 3.78 0 0 0 1.31 0c-.25-.05-.53-.14 0-.29-.75 0-.66 0-.59.1s.18.26-.72.19zm-2.26-2.26c.18.43.15 0 .23 0-.16-.21-.22-.33-.23 0zm21.78-13.47l-.16.21c.58.16.04-.08.16-.21zm2.19 3.56a4.66 4.66 0 0 0 .8-.28 2.32 2.32 0 0 0 .13-.39 5.17 5.17 0 0 1-.93.67zm-4.41.2a2.21 2.21 0 0 1 .07-.39 2.44 2.44 0 0 0 0 1.42v.06-.06a2.54 2.54 0 0 1-.07-1.03zm-43.34 14.29l.19.32c.4-.06.48-.41-.19-.32zm-23.54.32a1.88 1.88 0 0 0-1.33-.1c.54.02 1.07.1 1.33.1zm-70.6-.51l.47-.11-.89.09.42.02z"/><path class="b" d="M23.6 15.95c.08.14 5.37-3.28 5.45-3.15s-3.05 3.27-3 3.37 4.54-2.77 4.61-2.66-3.06 3.27-3 3.37 2.88-1.74 2.88-1.67m-4.7-13s.94-.58 1-.55-2.2 2.78-2.16 2.86 3.61-2.21 3.67-2.12S23 6.92 23.09 7.07s6.23-3.81 6.32-3.65"/><path class="b" d="M13.81 8.05s1.67-1 1.69-1-1.6 2.47-1.56 2.54 3.36-2.05 3.41-2-2 2.68-1.93 2.75 3.64-2.23 3.69-2.13-2.31 2.86-2.27 2.95c.18.31 12.34-7.54 12.52-7.23s-11.68 8-11.5 8.28 10-6.12 10.16-5.87-9.82 7-9.67 7.22 8.4-5.14 8.53-4.92-9.2 6.62-9.06 6.87 8.83-5.39 9-5.17-11.89 8.09-11.71 8.4 12.15-7.43 12.33-7.12-15.78 10.23-15.55 10.63 16.46-10.06 16.71-9.64-15.64 10.13-15.41 10.53c.1.17 6.54-4 6.63-3.83s-5.11 4.39-5 4.54 2.64-1.61 2.68-1.55"/><path class="b" d="M15.65 7.37s.8-.49.81-.47.95 1 1 1.08.68-.41.69-.4 1.1 1 1.12 1 .82-.5.83-.48M25.54 2s1.22-.75 1.24-.72-2.45 2.94-2.4 3 1-.6 1-.58M26.85 2s.69-.42.7-.4l.81 1.17s.63-.39.64-.37 0 1.58 0 1.62.76-.46.77-.44-2.16 2.78-2.11 2.86 1.06-.64 1.07-.62-2.19 2.77-2.13 2.85.81-.5.82-.48-1 2.12-.92 2.17.57-.35.58-.34 0 1.6 0 1.64.53-.32.54-.31l.57 1.3s.59-.36.59-.34.93 1.06.94 1.09.67-.41.68-.39.34 1.4.36 1.43.67-.41.68-.39m-7.73 2.23s1.19-.73 1.21-.7 1.16.92 1.18 1 .68-.41.69-.4l.87 1.13s.81-.5.82-.48m-7.24.17c0 .06 2.19-1.34 2.22-1.28s-4.48 4-4.4 4.18 1.36-.83 1.38-.8-3.9 3.68-3.82 3.8 1.54-.94 1.56-.9"/><path class="b" d="M13.66 7.72s1.75-1.07 1.78-1-2.21 2.78-2.17 2.86.57-.35.58-.34l.84 1.15s.63-.39.64-.37l.82 1.16s.63-.39.64-.37l.58 1.3s.56-.34.57-.33 0 1.58 0 1.62.56-.34.57-.33-1 2.14-1 2.19.93-.57.95-.55-3.67 3.61-3.61 3.72 1.63-1 1.66-1-5.12 4.4-5 4.54 1.45-.89 1.48-.85-.64 1.94-.61 2 .67-.41.68-.39l.93 1.1s.67-.41.68-.39M54.78 2.52c0 .06 2.17-1.33 2.21-1.27.25.44-17 10.87-16.74 11.3S58.15 1.6 58.41 2.06 41.23 13 41.48 13.47 59.13 2.68 59.39 3.13 42.61 13.88 42.86 14.31c.15.25 10-6.13 10.17-5.87s-4 3.81-4 3.93 3.5-2.14 3.55-2.05-2.72 3.09-2.67 3.18 3.73-2.28 3.78-2.18-3.74 3.68-3.68 3.77 4.09-2.5 4.15-2.4-4.28 3.94-4.21 4.07 4.16-2.54 4.22-2.43-4.35 4-4.28 4.1 4.22-2.58 4.28-2.47-4.42 4-4.34 4.14 4.28-2.62 4.35-2.51-4.48 4-4.41 4.18 4.35-2.66 4.41-2.55-4.55 4.09-4.47 4.22 4.41-2.7 4.48-2.59-3.66 3.6-3.6 3.71 3.55-2.17 3.6-2.08"/><path class="b" d="M57.09 1.56s.69-.42.7-.4l.63 1.28s.58-.35.59-.34-.87 2.07-.84 2.12 1.56-1 1.59-.92c.12.21-7.69 5.8-7.57 6 0 0 1.06-.65 1.07-.62s-.77 2-.74 2.06.54-.33.55-.32l.66 1.25s.53-.32.54-.31-.41 1.82-.39 1.86.62-.38.63-.36-.65 2-.62 2 .62-.38.63-.36-.65 2-.62 2 .62-.38.63-.36-.65 2-.62 2 .62-.38.63-.36-.65 2-.62 2 .62-.38.63-.36-.65 2-.62 2 .61-.42.61-.42-.65 2-.62 2 .62-.38.63-.36"/><path class="b" d="M54.54 2.25c0 .06 2.29-1.4 2.33-1.34.27.44-17.33 11.09-17.09 11.51.1.18 7.11-4.34 7.21-4.16s-6.25 5-6.15 5.19c0 0 .6-.36.61-.35l.68 1.24s.6-.37.61-.35 5.4-1.64 5.47-1.52.78-.48.8-.46.53 1.29.53 1.32.54-.33.55-.32-.44 1.84-.42 1.88.64-.39.65-.37-.73 2-.71 2 .64-.39.65-.37-.73 2-.71 2 .64-.39.65-.37-.73 2-.71 2 .64-.39.65-.37-.73 2-.71 2 .64-.39.65-.37-.73 2-.71 2 .64-.39.65-.37-.25 1.73-.22 1.77.66-.4.67-.39 1.81.53 1.84.58 2.16-1.13 2.23-1.07m15.64-2.43c0 .05 2-1.21 2-1.16s-1.27 2.29-1.23 2.35c.28.48 19-11.62 19.29-11.14S71.73 22.87 72 23.35s17.95-11 18.21-10.51S73.54 23.53 73.77 24s14.33-8.76 14.54-8.4M70.13 3.44s1.3-.8 1.32-.76-.46 1.85-.44 1.89 2.78-1.7 2.82-1.63-1.79 2.58-1.75 2.65 2.9-1.77 2.94-1.7-2 2.69-1.95 2.76 3.09-1.89 3.13-1.81-2.21 2.81-2.16 2.88 3.25-2 3.3-1.9"/><path class="b" d="M72.73 20c.08.13 5.24-3.2 5.31-3.07s11.73-5.51 11.89-5.23c0 0 .67-.41.68-.39s-.76 2-.73 2.06.66-.37.66-.37m-20.65 7.9c0 .05 2.15-1.31 2.18-1.26s-1.72 2.54-1.68 2.6.56-.34.57-.33.46 1.33.48 1.36.56-.34.57-.33l.59 1.29s.88-.54.89-.51M71.76 2.87s1.23-.75 1.25-.72l.84 1.15s.58-.3.59-.3l.6 1.29s.58-.35.59-.34l.6 1.29s.58-.35.59-.34.42 1.35.44 1.38.56-.34.57-.33m-8-2.73s1.5-.92 1.52-.88-.93 2.11-.9 2.16.56-.34.57-.33.52 1.32.52 1.35.56-.34.57-.33.43 1.34.43 1.37.55-.34.56-.32.44 1.37.44 1.4.55-.34.56-.32.44 1.33.44 1.36.75-.46.76-.44m40.31 7.98c.07.12 4.54-2.78 4.61-2.66s-1 2.12-.93 2.17 1.32-.81 1.34-.78"/><path class="b" d="M98.8 15.51s1.15-.7 1.17-.67-.52 1.88-.49 1.92 4.87-3 4.94-2.85-3.68 3.61-3.61 3.72c.15.26 10.42-6.37 10.57-6.1s-7.41 5.64-7.29 5.84 7.93-4.85 8-4.65-5.74 4.74-5.65 4.9 7.5-4.59 7.61-4.39-6.44 5.11-6.33 5.29 10-6.11 10.15-5.86-9.55 6.81-9.4 7.07 11.32-6.92 11.48-6.63-11.29 7.76-11.12 8.06c.06.1 4-2.44 4.05-2.34s-3.9 3.73-3.84 3.85 3.77-2.3 3.83-2.21-3.42 3.48-3.33 3.54 3.6-2.2 3.66-2.11m.41-13.44c.07.11 4.49-2.75 4.56-2.63m-19.28.98s1-.61 1-.59-.46 1.85-.44 1.89 4.36-2.67 4.43-2.56-3.11 3.32-3.06 3.46 9.42-5.76 9.56-5.52-6.26 5-6.15 5.19 7.32-4.47 7.43-4.29-5.42 4.56-5.33 4.72 7.93-4.85 8-4.65-7.31 5.59-7.19 5.79 9.92-6.06 10.07-5.81-10.07 7.09-9.92 7.36S117.85 5.34 118 5.61m-11.84-4.09s.9-.55.91-.52-1.07 2.18-1 2.24 3.21-2 3.25-1.88"/><path class="b" d="M107.28 1.3s1-.6 1-.57.94 1 1 1.08.55-.34.56-.32 0 1.61 0 1.64.54-.33.54-.31.4 1.36.42 1.4.64-.39.65-.38 1.15.93 1.17 1 1.12-.68 1.13-.65 2.18.31 2.21.36 1.08-.66 1.1-.63.54 1.28.56 1.32.54-.33.55-.32 0 1.58 0 1.62.55-.34.56-.32m-4.84 2.52s1.93-1.18 2-1.13"/><path class="b" d="M111.6 9.28s1.87-1.15 1.9-1.1-2.53 3-2.48 3.07.65-.4.66-.38-.12 1.65-.09 1.69.53-.32.53-.31l.77 1.19s.94-.57 1-.55 2.28.26 2.3.31 1.47-.9 1.49-.86 1.8.54 1.82.58.59-.36.6-.35.07 1.55.09 1.59.55-.33.56-.32m-5.04 2.71s1.45-.89 1.47-.85 2.17.32 2.2.37 1.54-.94 1.57-.9M113.61 17s1.73-1.06 1.76-1-2.82 3.14-2.77 3.23.62-.38.63-.36-.57 1.91-.54 1.95.57-.35.58-.34-.34 1.78-.32 1.82.59-.3.59-.3m-15-6.74s1.28-.78 1.3-.75-.86 2.07-.83 2.12.54-.33.55-.32.39 1.37.41 1.4.68-.42.69-.4 1.81.53 1.84.58 1.34-.82 1.36-.78 1.75.57 1.78.61.79-.48.8-.46l.84 1.15s.56-.34.57-.33.28 1.43.3 1.46.57-.35.58-.34-.2 1.7-.17 1.74.58-.35.59-.34-.4 1.81-.37 1.85.58-.36.59-.34-.32 1.77-.3 1.81.56-.34.57-.33 1.12.95 1.13 1 1.56-1 1.59-.92"/><path class="b" d="M100.03 15.11s1.7-1 1.73-1 2.69 0 2.72.06 2.76-1.69 2.8-1.62m-8.66-6.01s1.11-.68 1.13-.65-.78 2-.76 2.07.54-.33.55-.32.36 1.39.38 1.42.71-.43.72-.41 1.92.47 1.94.52 1.35-.82 1.37-.79 1.59.62 1.59.69.65-.4.66-.38.46 1.33.48 1.36.58-.36.59-.34-.33 1.77-.3 1.81.63-.38.64-.37M99.99 6.5s1.4-.85 1.42-.82m4.47-4.38s1.12-.68 1.13-.65S105.68 3 105.71 3s.63-.39.64-.37m35.43 9.16c.06.11 4.33-2.64 4.39-2.53s-1.81 2.59-1.77 2.66 3-1.8 3-1.73-3.69 3.62-3.63 3.73 4.77-2.92 4.77-2.77-5.26 4.47-5.17 4.62 4.63-2.83 4.7-2.71"/><path class="b" d="M133.02 7.33s.89-.54.9-.52-.84 2.06-.82 2.11 2.71-1.66 2.75-1.59-6 4.87-5.89 5 6.48-4 6.58-3.8-6.59 5.2-6.49 5.38 7.49-4.5 7.55-4.31-6.7 5.26-6.59 5.44 8.73-5.34 8.86-5.11-6.41 5.07-6.33 5.28 10.88-6.65 11-6.37-10 7.05-9.84 7.32c.06.11 4.2-2.57 4.26-2.46s-3.81 3.68-3.75 3.8 3.13-1.91 3.18-1.83-2.9 3.18-2.84 3.28 3-1.86 3.09-1.78-2.81 3.13-2.75 3.23 3.1-1.89 3.14-1.81-2.86 3.16-2.81 3.26 3.15-1.92 3.19-1.84-2.91 3.19-2.86 3.29 3.2-2 3.25-1.87-1.7 2.57-1.66 2.57 2-1.23 2-1.18"/><path class="b" d="M134.14 7.12s1-.6 1-.57l.7 1.24s.53-.32.53-.31.1 1.52.17 1.52.56-.34.57-.33l.63 1.33s.7-.43.71-.41 1.77.56 1.8.6 1.93-1.18 2-1.13 2.63 0 2.67.1.8-.49.81-.47l.77 1.19s.58-.36.59-.34l.63 1.27s.58-.36.59-.34.16 1.5.18 1.53.65-.4.66-.38-2.66 3.06-2.61 3.14 1.38-.84 1.4-.81"/><path class="b" d="M142.1 12s1.64-1 1.67-1 .43 1.35.45 1.38.59-.36.6-.35-2.19 2.8-2.15 2.88 1.12-.69 1.14-.66-.37 1.8-.35 1.84.74-.45.76-.44m-4.99-2.72c0 .06 2.4-1.46 2.43-1.4s-3.51 3.52-3.45 3.63.75-.46.76-.44-.7 2-.68 2 .58-.36.59-.34-.23 1.72-.21 1.76.56-.34.56-.33-.2 1.7-.18 1.74.56-.34.56-.33-.2 1.7-.18 1.74.56-.34.57-.33-.2 1.7-.18 1.74.56-.34.57-.33M132.75 7.1s1.08-.66 1.09-.63-1.16 2.23-1.13 2.29.62-.38.63-.36-3.92 3.74-3.85 3.86 3.55-2.17 3.6-2.08-3.55 3.55-3.55 3.66.54-.33.55-.32.26 1.45.28 1.48.57-.35.58-.33 1.64.63 1.67.67.8-.49.81-.47l.79 1.18s.56-.34.57-.33.06 1.55.08 1.59.56-.34.57-.33-.26 1.73-.24 1.77.56-.34.57-.33-.26 1.73-.24 1.77.56-.34.57-.33-.26 1.73-.24 1.77.56-.35.57-.33-.26 1.74-.24 1.77.57-.35.57-.33.18 1.49.2 1.52.84-.51.85-.49m30.45-6.68c.06.1 4.07-2.49 4.13-2.39s-2 2.71-2 2.78 2.94-1.79 3-1.72-1.85 2.65-1.85 2.72 3-1.81 3-1.74-2.07 2.73-2 2.81 3.12-1.91 3.16-1.83-2.24 2.83-2.2 2.91 3.27-2 3.32-1.92-2.43 2.93-2.39 3 3.43-2.1 3.48-2-2.6 3-2.55 3.11 3.18-1.92 3.18-1.82M158.38 4.64l1.16-.64s-.39 1.81-.37 1.85 5.07-3.1 5.15-3-4.22 3.91-4.15 4 8.8-5.38 8.93-5.16-5.35 4.52-5.26 4.68 7.14-4.37 7.25-4.19-2.41 2.92-2.36 3 3.51-2.14 3.56-2.05-2.82 3.17-2.75 3.26 3.87-2.37 3.93-2.27-4.87 4.26-4.79 4.4 5.59-3.41 5.67-3.27-7.36 5.62-7.24 5.82 6.43-3.93 6.5-3.77-9 6.53-8.89 6.77 7.49-4.58 7.6-4.39-11.51 7.88-11.34 8.18 10.45-6.39 10.6-6.12-14.43 9.47-14.22 9.84 14.18-8.58 14.35-8.27-13.38 8.9-13.18 9.25 8.15-5 8.27-4.78-7.11 5.48-7 5.67 3.18-1.94 3.23-1.86"/><path class="b" d="M159.76 4.23s1.88-1.15 1.9-1.1 2.88-.13 2.88-.03 1.87-1.1 1.9-1.1 2.81-.07 2.85 0 1-.59 1-.56l.81 1.17s.58-.35.59-.34l.61 1.29s.58-.35.59-.34l.61 1.29s.58-.35.59-.34-.05 1.62 0 1.65.7-.43.71-.41-2 2.68-1.93 2.75 1-.62 1-.59-2.19 2.8-2.14 2.87.89-.55.91-.52-1.32 2.32-1.28 2.38.62-.38.62-.36-.38 1.8-.35 1.84.54-.33.55-.32.13 1.52.15 1.55.54-.33.55-.32.45 1.34.47 1.37.57-.35.58-.34l.51 1.28s.57-.35.58-.34.52 1.34.52 1.34.57-.35.58-.33.52 1.29.54 1.32.56-.34.57-.33.51 1.3.52 1.33.57-.35.57-.33-1 2.13-.94 2.18 1.43-.87 1.45-.84m-10.55-3.51s1.07-.65 1.08-.63 1 1 1 1.06.58-.36.59-.34.49 1.31.5 1.35.55-.34.56-.32.4 1.36.42 1.4.55-.34.56-.32.38 1.37.4 1.41.55-.33.56-.32.36 1.39.38 1.42.55-.34.56-.32.4 1.36.42 1.39.66-.4.67-.39M166.07 18c0 .05 2-1.24 2.06-1.19s-5.87 4.81-5.78 5 2.21-1.35 2.24-1.3"/><path class="b" d="M158.06 4.43s1.31-.8 1.33-.77-.8 2-.77 2.08.55-.34.56-.32.36 1.38.36 1.41.55-.34.56-.32l.88 1.13c0 .06 2.34-1.43 2.37-1.37s4.23-.93 4.29-.84 1-.59 1-.57.48 1.32.5 1.35.57-.35.58-.33-1.44 2.38-1.4 2.45 1.09-.67 1.11-.64-2.67 3.06-2.62 3.15 1.15-.7 1.17-.67-3.52 3.53-3.46 3.63 1.42-.87 1.44-.83-5.28 4.48-5.19 4.63 2.16-1.32 2.19-1.26-6.1 4.93-6 5.1c0 0 .68-.41.69-.4s.24 1.45.26 1.49.59-.36.6-.34l.64 1.27s.59-.36.6-.35m35.24-13.72s1.44-.88 1.47-.85-1.9 2.64-1.86 2.71 3.64-2.23 3.7-2.13-2.24 2.83-2.2 2.9 3.82-2.34 3.88-2.24-2.4 2.91-2.35 3 4-2.45 4.06-2.35-2.57 3-2.52 3.09 4.21-2.57 4.27-2.47-2.76 3.11-2.71 3.2 4.4-2.69 4.46-2.57-2.92 3.2-2.87 3.29 3-1.83 3-1.75M189.25 1.3s.9-.55.92-.53-1 2.17-1 2.22 3-1.86 3.09-1.78-3.16 3.33-3.11 3.43 3.92-2.39 4-2.29-4.06 3.82-4 3.94 3.94-2.41 4-2.31-4.09 3.83-4 4 4-2.42 4-2.32-4.11 3.85-4 4 4-2.43 4-2.33-4.13 3.86-4.06 4 4-2.45 4.07-2.35-4.16 3.87-4.08 4 4-2.46 4.09-2.36-4.18 3.88-4.11 4 4.05-2.48 4.11-2.37-4.2 3.9-4.13 4 4.07-2.49 4.13-2.39-4.23 3.91-4.15 4 4.1-2.5 4.16-2.4-4.25 3.92-4.18 4 4.12-2.52 4.18-2.41-4.27 3.93-4.2 4.06 4.14-2.53 4.2-2.43-4.29 3.95-4.22 4.07 4.16-2.54 4.22-2.44-4 3.78-3.92 3.9 3.87-2.37 3.93-2.27-1.49 2.41-1.46 2.48 1.38-.84 1.4-.81"/><path class="b" d="M196.54 8.8s.75-.46.76-.44 1 1 1 1.07.69-.42.7-.4 1 1 1 1.07.69-.42.7-.4 1 1 1 1 .71-.43.72-.41 1 1 1 1 .71-.43.72-.41 1 1 1 1 .6-.37.61-.35-1.47 2.4-1.43 2.46 1.3-.79 1.32-.76"/><path class="b" d="M194.87 9s1.47-.9 1.49-.86-2.4 2.91-2.35 3 .55-.34.56-.32l.73 1.21s.65-.39.66-.38l.87 1.14s.64-.39.65-.38l.88 1.13s.65-.4.66-.38l.89 1.12s.66-.4.67-.39l.96 1.11s.67-.41.68-.39 1.08 1 1.09 1 1.37-.84 1.39-.8M190.28 1.08s.83-.5.84-.48 1.17.92 1.19 1 .62-.38.62-.36-.13 1.66-.11 1.7.62-.38.63-.36-.65 2-.63 2 .62-.38.63-.36-.65 2-.63 2 .62-.38.63-.36-.65 2-.63 2 .62-.38.63-.36-.65 2-.62 2 .62-.38.63-.36-.66 2-.63 2 .62-.38.63-.36-.65 2-.63 2 .62-.38.63-.36-.65 2-.63 2 .62-.38.63-.36-.65 2-.63 2 .62-.38.63-.36-.65 2-.63 2 .62-.38.63-.36-.65 2-.63 2 .62-.38.63-.36-.65 2-.63 2 .62-.38.63-.36-.65 2-.63 2 .62-.38.63-.36m-4.53-21.17s1.14-.7 1.16-.67-1.31 2.31-1.27 2.37.63-.38.64-.37-.68 2-.65 2 .63-.38.64-.37-.68 2-.65 2 .63-.38.64-.37-.68 2-.66 2 .63-.38.64-.37-.68 2-.66 2 .63-.38.64-.37-.68 2-.66 2 .63-.38.64-.37-.68 2-.66 2 .63-.38.64-.37-.68 2-.66 2 .63-.38.64-.37-.68 2-.66 2 .63-.38.64-.37-.68 2-.66 2 .63-.38.64-.37-.68 2-.66 2 .63-.38.64-.37-.68 2-.66 2 .63-.38.64-.37-.68 2-.66 2 .63-.38.64-.37-.53 1.89-.51 1.93.58-.35.59-.34l1 1s1.15-.71 1.17-.68"/></svg>