<svg xmlns="http://www.w3.org/2000/svg" width="206.903" height="28.431" viewBox="0 0 206.903 28.431"><defs><style>.cls-1{fill:#f03c00}</style></defs><title>アートボード 21</title><path class="cls-1" d="M57.575 14.966a.385.385 0 0 0-.228-.181c.29-.836.286-.842.192-1a.387.387 0 0 0-.222-.174l-.023-.006c.2-.8.194-.8.1-.949a.378.378 0 0 0-.212-.168c.187-.663.18-.674.095-.82a.384.384 0 0 0-.233-.176.331.331 0 0 0-.193 0v-.042a.27.27 0 0 0-.009-.337c-.032-1.07-.033-1.078-.091-1.181a.384.384 0 0 0-.241-.184.318.318 0 0 0-.169 0c0-.057 0-.115-.008-.173-.045-.988-.045-.988-.1-1.091a.379.379 0 0 0-.239-.179.407.407 0 0 0-.1-.013c.019-.327.01-.343-.044-.435a.382.382 0 0 0-.231-.175.424.424 0 0 0-.1-.014c.015-.292 0-.317-.052-.416a.322.322 0 0 0-.346-.174c.009-.338 0-.354-.062-.461a.359.359 0 0 0-.5-.115l-.058-.2a4.358 4.358 0 0 0-.219-.711.383.383 0 0 0-.229-.176c-.142-.04-.221-.01-.4.1-.261-.43-.7-1.149-.737-1.219a.362.362 0 0 0-.524-.116 1.788 1.788 0 0 0-.145-.452.379.379 0 0 0-.231-.173c-.156-.038-.233 0-.489.156l-.027-.042a.379.379 0 0 0-.123-.125l-.141-.163a52.28 52.28 0 0 0-.384-.444c-.2-.323-.5-.142-.761.018a.932.932 0 0 0-.054-.106.4.4 0 0 0-.242-.181.39.39 0 0 0-.1-.016l-.1-.079c-.3-.237-.612-.478-.688-.545a.384.384 0 0 0-.181-.1c-.166-.044-.24 0-.585.214l-.076.047a49.683 49.683 0 0 0-.595-.349c-.343-.2-.693-.4-.786-.464a.384.384 0 0 0-.15-.076c-.168-.041-.21-.014-.632.241l-.042.026-.14-.192a.384.384 0 0 0-.242-.187c-.176-.04-.229-.006-.686.272l-.145.089c-.106-.048-.251-.11-.451-.2-.24-.1-.487-.208-.6-.263-.189-.193-.441-.043-.8.175l-.252.153c-.182-.041-.471-.089-.949-.169a25.494 25.494 0 0 1-1.012-.182.348.348 0 0 0-.069-.025c-.171-.047-.208-.023-.772.321l-.224.137-.374-.164c-.141-.061-.278-.12-.357-.156-.189-.2-.429-.049-.923.252l-.241.146a.613.613 0 0 0-.067-.144.383.383 0 0 0-.236-.186c-.185-.048-.2-.04-1.138.531-.316.194-.627.386-.722.429l.127.354.059-.034-.06.051c-1.024.884-1.014.9-.854 1.18a.385.385 0 0 0 .236.178l.032.011a5.744 5.744 0 0 0-.042.1c-.5 1.173-.5 1.173-.376 1.379a.374.374 0 0 0 .167.153c-.27.7-.27.721-.179.886a.379.379 0 0 0 .206.174l-.008.019c-.288.816-.288.816-.188 1a.36.36 0 0 0 .187.162c-.288.806-.287.809-.189.973a.379.379 0 0 0 .227.173l.04.009c-.023.092-.049.187-.074.281-.286 1.089-.286 1.089-.192 1.247a.374.374 0 0 0 .207.167v.012c-.3.883-.3.883-.206 1.048a.383.383 0 0 0 .241.18.4.4 0 0 0 .057.011c-.032.147-.064.3-.094.432-.293 1.337-.293 1.337-.2 1.491a.378.378 0 0 0 .228.175l-.031.1c-.293.922-.293.922-.2 1.087a.384.384 0 0 0 .239.176h.016l-.072.258c-.275.981-.275.981-.182 1.136a.378.378 0 0 0 .152.144c-.25.585-.25.6-.157.771a.388.388 0 0 0 .231.18l.036.009-.044.166c-.313 1.185-.313 1.185-.22 1.346a.375.375 0 0 0 .222.175l-.016.048c-.3.92-.3.92-.208 1.082a.4.4 0 0 0 .273.19l-.057.223c-.3 1.193-.3 1.193-.215 1.349a.38.38 0 0 0 .234.179l-.034.107c-.292.935-.292.935-.19 1.111a.316.316 0 0 0 .322.172l.008.009-.059.357c-.183 1.094-.183 1.094-.1 1.235a.385.385 0 0 0 .228.174h.02c-.052.22-.041.27.025.378a.381.381 0 0 0 .229.173.361.361 0 0 0 .28-.04.4.4 0 0 0 .1.087l.047.092.336.651a.382.382 0 0 0 .235.177c.165.044.238 0 .573-.206a.44.44 0 0 0 .208.139.652.652 0 0 0 .313-.034l.483.161c.377.126.74.245.849.289a.384.384 0 0 0 .089.036.722.722 0 0 0 .754-.307l.136-.083.084.068c.116.094.236.19.276.224a.379.379 0 0 0 .167.1c.173.048.21.022.7-.276.1-.062.2-.123.278-.168a.4.4 0 0 0 .2.135c.086.024.182.024.424-.076l.773.065c.549.046 1.294.107 1.471.138a.373.373 0 0 0 .042.014c.174.044.209.02.7-.28.137-.083.279-.172.371-.224h.19a.47.47 0 0 0 .559-.021l.664-.036c.41-.023.923-.054 1.059-.05.172.044.2.032 1.389-.692l.178-.108A8.423 8.423 0 0 0 51 25.113c.633-.386 1.489-.907 1.713-1.013a.388.388 0 0 0 .127-.046.373.373 0 0 0 .18-.294c.132-.078.29-.173.521-.314.325-.2.651-.4.746-.441l-.114-.312c1.561-1.283 1.554-1.3 1.375-1.611a.39.39 0 0 0-.106-.119l.093-.106c1.095-1.245 1.095-1.245.944-1.506a.379.379 0 0 0-.238-.18l.161-.276.031-.053a.559.559 0 0 0 .169-.291c.763-1.311.763-1.346.634-1.572A.346.346 0 0 0 57 16.8c.053-.13.106-.261.156-.38.519-1.274.519-1.274.419-1.454zM55.99 17.3c-.716.34-2.418 1.349-7.042 4.17l-1.1.674.152-.109c4.792-3.129 7.164-4.7 8.3-5.556-.156.403-.256.655-.31.821zm-20.323 7.51c-.008 0-.012-.013-.02-.015a.451.451 0 0 0-.085-.014l.044-.263.077-.466c.395-.2 1.131-.64 2.633-1.559l-.41.354c-1.127.97-1.821 1.569-2.239 1.96zM41.94 2.074l-.409.244c.132-.1.229-.188.307-.262zM48.907 3l-.207.118c.072-.062.112-.106.161-.154zm-.859 3.133c-.5.424-.821.708-1.046.921-.1 0-.193.06-.41.193l-.184-.147a45.09 45.09 0 0 0 1.64-.966zm3.112-1.687a.374.374 0 0 0 .18.113.37.37 0 0 0 .083 0c-.28.159-.651.379-1.186.7.427-.359.716-.616.923-.813zm1.85 1.477l.152.25c-.4.232-1.02.61-2 1.217l-.35.216.148-.15c.991-1.007 1.532-1.559 1.83-1.9zm1 1.345a.327.327 0 0 0 .34.165v.017c-.373.2-1.014.591-2.188 1.309l-.345.21.24-.236c.916-.9 1.482-1.464 1.826-1.831a1.425 1.425 0 0 0 .123.366zm1.664 3.278a.386.386 0 0 0 .23.178.351.351 0 0 0 .173.008c0 .1.006.2.009.309-.4.2-1.169.664-2.831 1.683l-.255.155.23-.21c1.2-1.093 1.944-1.778 2.4-2.227a.314.314 0 0 0 .039.104zm.509 1.767a.369.369 0 0 0 .127.1c-.318.158-.872.479-1.926 1.117.8-.628 1.361-1.067 1.746-1.385a.339.339 0 0 0 .048.168zm-6.468-2.3c-.121-.524-.156-.675-.183-.744.4-.227 1.017-.605 2.03-1.231l.312-.192-.352.346c-.943.927-1.491 1.469-1.812 1.82zm2.165-.19a46.93 46.93 0 0 0-1.523 1.362.987.987 0 0 0 0-.455 85.52 85.52 0 0 0 1.517-.909zm-1.312 5.747a.4.4 0 0 0-.048-.01l.147-.444a11.964 11.964 0 0 0 1.592-.889c-.78.602-1.32 1.028-1.697 1.341zm.474-1.914a.682.682 0 0 0-.042-.071.361.361 0 0 0-.3-.179c0-.025.007-.05.012-.076l.053-.322c.352-.181 1.018-.583 2.426-1.447l.358-.218-.836.765c-.748.685-1.286 1.178-1.678 1.546zm2.058-3.89c.794-.69 1.3-1.132 1.634-1.443a.305.305 0 0 0 .049.149.379.379 0 0 0 .214.163c-.361.197-.924.534-1.897 1.131zm-2.756-2.921l.364-.221-.293.3c-.777.79-1.266 1.287-1.572 1.62a.836.836 0 0 0-.062-.182.383.383 0 0 0-.238-.186c-.141-.037-.215-.007-.415.111l-.064-.087c.373-.2 1.031-.6 2.28-1.355zM47.4 4.8c-.952.9-1.478 1.392-1.77 1.708l-.166-.131c-.2-.254-.476-.083-.792.11l-.1.064-.06-.027c.424-.245 1.083-.644 2.139-1.287l.812-.494zm-3.844 1.3l-.035-.016.125-.074c-.04.037-.057.059-.09.09zm-2.981 11.006c-.172.094-.4.222-.7.4.29-.222.517-.4.719-.56a.959.959 0 0 0-.019.16zm0-5.517c-.173.092-.4.22-.707.4.294-.227.524-.409.728-.573a.86.86 0 0 0-.025.173zm.117 1.135c-.052.2-.086.346-.1.443-.3.165-.777.446-1.584.938.757-.616 1.292-1.055 1.679-1.381zm-.1 2.572a.563.563 0 0 0 .041.081.386.386 0 0 0 .224.17.515.515 0 0 0 .057.012l-.019.076c-.291.129-.9.5-2.474 1.456l.192-.157c.9-.742 1.532-1.261 1.975-1.634zM38.6 19.979c.9-.757 1.535-1.286 1.978-1.67a.315.315 0 0 0 .053.256.358.358 0 0 0 .19.159c-.319.147-.953.521-2.414 1.416zm2.093-.031a.375.375 0 0 0 .168.1l-.016.051c-.211.1-.572.3-1.261.72.48-.366.833-.644 1.111-.871zm.49-13.255l.248-.139zm-.626 1.445c-.1.053-.2.114-.339.193.138-.1.25-.193.361-.28a.431.431 0 0 0-.021.086zm-5.031 1.537a.377.377 0 0 0-.039-.019l-.035-.008c.017-.067.036-.136.054-.2.039-.148.073-.276.1-.389.553-.232 1.753-.938 4.814-2.817-2.729 1.87-4.161 2.858-4.894 3.433zM35.5 21.62a.306.306 0 0 0-.048-.016l.079-.312.093-.367c.34-.174.968-.547 2.24-1.316-1.177.982-1.913 1.601-2.364 2.011zm0-7.27v-.009l.079-.247c.21-.1.536-.284 1.1-.621-.5.382-.87.671-1.145.9a.336.336 0 0 0-.034-.023zm-.015 1.579h-.012c.009-.028.016-.057.024-.086l.111-.4c.308-.155.863-.485 1.974-1.165-.99.8-1.635 1.316-2.053 1.674a.353.353 0 0 0-.048-.023zm.019 3.933l.006-.017.062-.191c.175-.083.434-.225.846-.466-.378.291-.66.512-.886.7-.016-.009-.02-.022-.032-.026zm-.012-1.311l-.036-.009c.027-.107.056-.213.081-.306l.083-.313c.326-.166.922-.521 2.125-1.256-1.116.911-1.818 1.492-2.258 1.884zm-.022-5.557c-.016 0-.031-.007-.046-.009.035-.16.072-.327.1-.476l.12-.552c.395-.2 1.161-.652 2.817-1.669l-.468.417c-1.28 1.142-2.06 1.839-2.528 2.289zm.358-9.039c.145-.079.333-.188.6-.351a89 89 0 0 0-.773.752l.006-.015zm.147 2.594c-.156.112-.291.21-.409.3-.016-.009-.023-.028-.04-.034l.02-.057a4.729 4.729 0 0 0 .424-.21zm-.445 1.409l.014-.038c.1-.044.216-.1.386-.194-.139.1-.256.182-.364.262-.021-.008-.027-.025-.042-.031zm-.014 2.936l.047-.138c.142-.07.34-.179.639-.355-.272.207-.479.369-.66.513-.016-.004-.021-.014-.031-.021zm-.018 12.1l.008-.026.079-.253c.227-.11.588-.318 1.241-.712-.573.444-.98.765-1.281 1.012a.271.271 0 0 0-.052-.022zm2.655-11.3l-.391.237.742-.662a141.194 141.194 0 0 0 2.2-1.987c-.164.658-.153.694-.081.821a.4.4 0 0 0 .069.079c-.381.201-1.092.627-2.544 1.518zm.247 11.724a129.519 129.519 0 0 0 2.308-2.019.383.383 0 0 0 .153.086h.01c-.077.286-.072.349-.017.457-.5.287-1.265.75-2.476 1.493zm2.2 1.072c1.625-1.278 2.464-1.938 2.88-2.323a.952.952 0 0 0 .991-.448c.179-.109.354-.218.465-.282.068.017.151.035.253.058.148.033.3.066.37.084a.339.339 0 0 0 .055.018l.023.005a344.114 344.114 0 0 1-5.782 3.474zm7.883-4.87a.392.392 0 0 0-.239-.178c-.194-.051-.206-.051-1.559.778-.349.214-.807.495-1.008.606-.083-.02-.188-.044-.324-.074s-.265-.058-.32-.073l-.048-.015c-.172-.044-.187-.036-.911.406-.164.1-.319.2-.444.269a.4.4 0 0 0-.1-.048.468.468 0 0 0-.362.055l-.513-.063c-.38-.046-.762-.091-.891-.117l-.016-.006c.1-.353.093-.388.022-.513a.384.384 0 0 0-.24-.183l.03-.1c.3-1 .3-1 .208-1.16a.38.38 0 0 0-.224-.173l.021-.064c.3-.911.3-.911.206-1.077a.385.385 0 0 0-.218-.174c.313-.936.312-.938.215-1.1a.382.382 0 0 0-.232-.176.4.4 0 0 0-.057-.012c.036-.152.073-.306.1-.439.27-1.126.27-1.126.177-1.289a.487.487 0 0 0-.093-.108c.192-.382.189-.435.1-.594a.385.385 0 0 0-.2-.165c.3-.84.294-.844.206-1.005a.384.384 0 0 0-.241-.186l-.028-.012.076-.285c.289-1.1.289-1.1.19-1.275a.337.337 0 0 0-.254-.176l.048-.177c.3-1.115.3-1.115.2-1.283a.333.333 0 0 0-.27-.179c.03-.113.059-.232.089-.349.273-1.071.273-1.071.188-1.222a.36.36 0 0 0-.072-.092l.119-.2c.164-.274.286-.479.381-.643a.261.261 0 0 0 .043 0l-.079.3c.171.043.223.014.708-.283l.14-.086c.136.064.336.151.636.283s.626.273.722.323a.384.384 0 0 0 .122.056c.163.045.23.006.587-.214l.072-.044c.11.086.266.207.493.381.288.223.578.445.649.507a.377.377 0 0 0 .172.1c.137.037.218.005.4-.1a.383.383 0 0 0 .039.019.592.592 0 0 0 .069.009l.234.314.494.657a.38.38 0 0 0 .235.179.345.345 0 0 0 .281-.036c.007.026.015.052.021.079a3.071 3.071 0 0 0 .2.656.354.354 0 0 0 .492.131l.067.289a4.677 4.677 0 0 0 .267 1.036c.086.135.218.209.3.177-.046.437-.04.458.023.565a.384.384 0 0 0 .165.152c-.123.378-.121.42-.042.558a.383.383 0 0 0 .232.177.518.518 0 0 0 .072.013l-.043.257c-.147.9-.147.9-.071 1.031a.38.38 0 0 0 .2.169l-.155.466c-.466 1.4-.466 1.4-.361 1.58a.34.34 0 0 0 .053.071l-.226.319c-.894 1.267-.894 1.267-.759 1.508a.374.374 0 0 0 .093.106c-.36.308-.309.418-.2.609a.4.4 0 0 0 .245.184q2.464.436 4.34-2.391c1.228-.754 2.676-1.643 3.408-2.047-.057.165-.1.292-.129.388-.8.348-2.71 1.484-7.872 4.638a.369.369 0 0 0-.043-.214zm2.061-15.88c-.378.215-1 .591-2.061 1.24l-.464.283c.867-.816 1.385-1.306 1.693-1.627l.063.051a.379.379 0 0 0 .164.1c.167.047.246 0 .51-.157zm-2.989-.973c-.512.3-1.271.757-2.436 1.466-1.046.637-2.305 1.4-2.81 1.674-.009-.008-.015-.018-.024-.025A43.847 43.847 0 0 0 47 2.445l.083.048zm-2.136-.517a.392.392 0 0 0 .04.046c-.165.094-.347.2-.558.324a5.493 5.493 0 0 0 .5-.4zm-1.487-.187c-.285.163-.62.358-1.059.62a5.479 5.479 0 0 0 .851-.709l.173.075zm-4.494.229c.167.043.2.025.7-.284.116-.07.235-.144.322-.195l.061.013c-.492.288-1.206.722-2.279 1.383l-.861.529c.945-.909 1.417-1.366 1.632-1.634.132.058.253.111.3.137a.384.384 0 0 0 .125.051zm-3.023 23.951c.476-.249 1.333-.761 3-1.782-1.234.972-1.929 1.526-2.305 1.87-.174-.136-.395-.031-.6.093zm2.719.509c-.1.061-.2.124-.282.171a16.284 16.284 0 0 0-.465-.159c1.407-.728 4.169-2.38 9.683-5.753l1.757-1.074c-.755.5-1.513.99-2.238 1.463-5.079 3.317-6.989 4.579-7.646 5.171a.376.376 0 0 0-.143-.08c-.159-.041-.2-.021-.666.261zm5.253-.142c-.1.061-.194.12-.265.161-.2-.032-.535-.062-1.078-.108 1.034-.591 2.764-1.63 5.733-3.435a825.06 825.06 0 0 1 3.48-2.107l-1.437 1.058c-3.447 2.535-4.849 3.576-5.375 4.093-.076 0-.15 0-.2.005-.171-.077-.41.059-.858.332zm3.253-.438h-.259c.6-.36 1.408-.85 2.514-1.526-.422.316-.69.529-.866.688l-.409.249c-.347.217-.807.495-.98.588zm2.619-2.636l1.012-.744a351.875 351.875 0 0 0 3.685-2.73.4.4 0 0 0 .059.146.413.413 0 0 0 .035.049l-.088.1a62.26 62.26 0 0 0-.742.853c-.542.265-1.614.89-3.961 2.325zm29.333-4.406a.414.414 0 0 0-.136-.14c.223-.469.219-.514.127-.676a.384.384 0 0 0-.163-.153c.153-.417.153-.466.07-.61a.375.375 0 0 0-.173-.16c.162-.465.16-.5.074-.648a.379.379 0 0 0-.237-.177.619.619 0 0 0-.116-.013c0-.05.008-.1.012-.152.07-.849.07-.849 0-.966a.381.381 0 0 0-.229-.177.325.325 0 0 0-.211 0l-.036-.33c-.116-1.095-.117-1.1-.178-1.2a.33.33 0 0 0-.389-.165c-.02-.429-.025-.437-.076-.522a.384.384 0 0 0-.229-.171.346.346 0 0 0-.267.029 35.328 35.328 0 0 1-.067-.269 3.164 3.164 0 0 0-.2-.722.361.361 0 0 0-.517-.117.387.387 0 0 0-.141-.086l-.161-.3-.4-.73a.383.383 0 0 0-.234-.176c-.144-.036-.231 0-.429.122a.389.389 0 0 0-.162-.14l-.168-.2c-.251-.3-.512-.6-.528-.617a.378.378 0 0 0-.234-.18c-.129-.036-.2-.018-.4.1a1.514 1.514 0 0 0-.1-.235.376.376 0 0 0-.229-.171c-.161-.041-.236 0-.579.208-.054-.053-.123-.116-.207-.194a5.311 5.311 0 0 0-.4-.356.38.38 0 0 0-.244-.187c-.158-.036-.209-.011-.6.225l-.178.108c-.144-.059-.358-.139-.685-.262-.343-.129-.69-.257-.8-.309a.376.376 0 0 0-.113-.051c-.182-.046-.213-.023-.794.332l-.261.159c-.11-.035-.261-.081-.473-.144s-.387-.115-.46-.142a.4.4 0 0 0-.083-.03c-.187-.047-.186-.042-1.081.5-.258.157-.5.308-.625.373a.726.726 0 0 0-.07-.149.386.386 0 0 0-.239-.179c-.206-.051-.216-.054-1.9.973-.506.309-1.189.726-1.376.817a.363.363 0 0 0-.11.043.379.379 0 0 0-.142.518.526.526 0 0 0 .031.046c-1.452 1.03-1.428 1.072-1.253 1.37.017.029.052.038.076.061a.366.366 0 0 0 .066.189l-.03.035c-1.444 1.664-1.444 1.664-1.28 1.948a.372.372 0 0 0 .122.127c-.588.884-.594.911-.468 1.13a.383.383 0 0 0 .158.15l-.02.044c-.407.888-.407.888-.3 1.073a.381.381 0 0 0 .173.155c-.369.861-.367.863-.263 1.041a.378.378 0 0 0 .231.176.357.357 0 0 0 .112.024c-.015.083-.03.169-.043.254-.173 1.016-.173 1.016-.086 1.167a.331.331 0 0 0 .288.178c-.118.766-.118.766-.043.9a.379.379 0 0 0 .235.179.321.321 0 0 0 .149-.007.4.4 0 0 0 .087.1l.031.277c.123 1.088.123 1.088.175 1.18a.387.387 0 0 0 .223.173.335.335 0 0 0 .212 0l.015.113c.085.653.085.653.144.755a.351.351 0 0 0 .479.121.383.383 0 0 0 .083.083l.057.2a3.535 3.535 0 0 0 .218.683.363.363 0 0 0 .527.113c.058.356.061.362.1.441.161.254.384.188.576.087a.384.384 0 0 0 .2.135h.01l.1.127.439.572a.384.384 0 0 0 .23.175c.144.039.221.009.442-.124a.388.388 0 0 0 .183.125l.007.009c.161.2.328.414.335.42a.381.381 0 0 0 .237.185c.168.043.224.008.6-.218l.039-.023a.387.387 0 0 0 .2.133.331.331 0 0 0 .143.014l.2.13c.306.2.624.4.707.464a.386.386 0 0 0 .157.084c.172.043.225.01.66-.256l.194-.119h.008a.4.4 0 0 0 .2.137.391.391 0 0 0 .128.012l.2.087c.252.112.5.221.58.262a.4.4 0 0 0 .116.052.685.685 0 0 0 .7-.28l.222-.135h.114a.4.4 0 0 0 .166.1.592.592 0 0 0 .533-.13c.277-.019.607-.044 1.045-.078a5.18 5.18 0 0 1 1.58-.1c.193.048.2.053 1.663-.842.5-.309 1.183-.726 1.377-.819a.367.367 0 0 0 .124-.045.379.379 0 0 0 .14-.519.392.392 0 0 0-.239-.181c-.1-.024-.153-.035-.354.062-.015-.013-.024-.031-.041-.042l.669-.549a.354.354 0 0 0 .044.021.677.677 0 0 0 .7-.282c.148-.091.3-.186.376-.226a.381.381 0 0 0 .208-.561.566.566 0 0 0-.064-.08c.154-.19.142-.289.075-.411l.05-.076c1.254-1.9 1.254-1.9 1.11-2.146a.383.383 0 0 0-.236-.179l-.032-.007c.022-.053.044-.105.067-.155.575-1.378.575-1.378.453-1.59zM77.3 23.215c-.162.086-.371.2-.662.376.3-.216.562-.405.793-.574zm-14.7 1.307a.361.361 0 0 0-.077-.037.411.411 0 0 0-.353.078l-.034-.119a3.423 3.423 0 0 0-.037-.124c.348-.191.922-.537 1.971-1.182l-.037.033c-.691.646-1.133 1.059-1.433 1.351zm-.964-1.1a.346.346 0 0 0-.233.016.3.3 0 0 0 0-.035v-.036c.248-.13.628-.352 1.271-.739-.423.359-.73.623-.957.828a.376.376 0 0 0-.078-.033zm-.607-1a.336.336 0 0 0-.2 0l-.052-.47-.035-.306c.383-.206 1.057-.613 2.337-1.4l.148-.091-.371.381c-.906.929-1.473 1.51-1.819 1.891zm13.913-11a.382.382 0 0 0 .141.071.35.35 0 0 0 .221-.017c-.25.138-.6.346-1.144.674.35-.31.6-.542.784-.723zm1.662 1.26l.03.122c.048.2.084.344.112.456-.362.2-.946.555-1.986 1.2l-.175.108.131-.135c.817-.844 1.328-1.371 1.64-1.718a.344.344 0 0 0 .249-.029zm-2.8 5.571c.053-.22.053-.3.013-.387.271-.15.664-.384 1.276-.755-.572.506-.982.868-1.285 1.146zm1.162-2.906c-.792.792-1.293 1.3-1.619 1.643a2.784 2.784 0 0 0-.07-.749c.364-.208.931-.553 1.88-1.138l.135-.083zm-.708-1.617l.18-.109-.272.281a88.957 88.957 0 0 0-1.407 1.47.327.327 0 0 0-.046-.135.379.379 0 0 0-.235-.181.373.373 0 0 0-.315.054l-.037-.11c.332-.172.936-.538 2.137-1.266zm-2.936-.02a.7.7 0 0 0-.257.106l-.129-.189c.266-.145.668-.383 1.3-.767-.425.392-.709.655-.909.854zm-2.484-1.56c-.032.029-.044.046-.071.072l-.022-.016zm2.349-.379l.485-.3a1.194 1.194 0 0 1-.036.038c-.6.636-.986 1.041-1.236 1.325l-.027-.041a.385.385 0 0 0-.236-.18c-.164-.041-.241.006-.534.184l-.059-.042c.33-.186.838-.494 1.643-.984zm-.448-2.179l-.128.073c.041-.035.058-.058.09-.088zm-6.3 7.265a.3.3 0 0 0 .053.17.382.382 0 0 0 .182.139c-.29.146-.794.443-1.766 1.035a122.69 122.69 0 0 0 1.532-1.344zm.184 1.49a.591.591 0 0 0 0 .081c-.1.055-.209.118-.347.2.134-.105.243-.194.348-.281zm.191-2.963l.041.009a1.5 1.5 0 0 0-.236.1l.159-.126a.378.378 0 0 0 .037.017zm-2.738-2.376c.19-.106.426-.243.736-.427-.389.288-.729.541-1.027.764zm-1.921 6.606c-.008 0-.011-.012-.019-.014a.426.426 0 0 0-.063-.014l.035-.206.059-.349c.322-.166.886-.5 1.971-1.167l-.01.009a96.211 96.211 0 0 0-1.972 1.741zm.039-2.831l.048-.106a2.906 2.906 0 0 0 .315-.13c-.134.092-.246.171-.353.247zm-.077 1.117c.066-.032.136-.067.233-.12-.1.081-.188.148-.274.216zm.265 2.787a.442.442 0 0 0-.061-.012l.005-.035c.161-.083.388-.212.734-.419-.253.2-.444.361-.609.5a.374.374 0 0 0-.07-.038zm2.978.638l-.5.3.542-.556c.84-.862 1.369-1.4 1.7-1.769.012.592.021.613.079.713a.359.359 0 0 0 .146.131c-.348.193-.922.539-1.968 1.177zm2.364-.3c.038.03.065.073.113.087a.419.419 0 0 0 .075.015v.026a33.11 33.11 0 0 0-1.028.605c.362-.315.633-.551.839-.738zm.875.763l.036.091c.048.123.1.244.143.359-.33.185-.846.5-1.729 1.038.82-.768 1.284-1.207 1.551-1.494zm.039 3.147a67.045 67.045 0 0 0 1.282-1.327.376.376 0 0 0 .153.116c.145.036.223.007.471-.144l.088.119.049.067c-.341.2-.859.513-1.683 1.016l-.525.321c.054-.064.108-.12.163-.174zm2.79-.579a1.706 1.706 0 0 0 .363-.18l.076-.046c.068.029.156.064.259.105-.343.2-.82.486-1.544.924.396-.371.66-.62.844-.809zm1.866-.471c-.127-.054-.313-.128-.59-.238s-.562-.221-.653-.264a.374.374 0 0 0-.1-.046c-.15-.042-.231 0-.468.14l-.013-.006a.628.628 0 0 0-.067-.014l-.156-.211-.27-.364a.383.383 0 0 0-.225-.17c-.135-.038-.208-.016-.391.092l-.042-.106c-.11-.277-.224-.554-.231-.568a.384.384 0 0 0-.241-.181.393.393 0 0 0-.334.068l-.166-.418c-.152-.384-.3-.75-.316-.779a.3.3 0 0 0-.3-.179c.02-.216.007-.244-.047-.332a.372.372 0 0 0-.23-.171.342.342 0 0 0-.135-.012c0-.64 0-.643-.056-.74a.382.382 0 0 0-.241-.182.365.365 0 0 0-.156-.007v-.273c-.016-.9-.016-.9-.076-1a.383.383 0 0 0-.232-.177.507.507 0 0 0-.069-.013l.03-.172c.172-1.033.172-1.033.1-1.168a.383.383 0 0 0-.211-.174c.046-.146.093-.3.134-.422.327-1.032.35-1.107.271-1.255.158-.178.329-.367.479-.533l.54-.6.637-.41-.05.2c.171.041.227.011.746-.306l.125-.077c.1.073.246.172.446.312l.574.4c.181.21.42.1.632-.028l.255.375.443.649a.386.386 0 0 0 .556.121c.042.113.087.238.135.364a8.564 8.564 0 0 0 .332.863.333.333 0 0 0 .422.158v.025c.067.695.067.695.119.782a.381.381 0 0 0 .223.171.329.329 0 0 0 .178.009c0 .086.008.177.014.268.052 1.069.052 1.069.114 1.175a.381.381 0 0 0 .208.168c-.137.516-.136.55-.053.689a.4.4 0 0 0 .146.14c-.154.391-.158.446-.07.6a.383.383 0 0 0 .225.173c-.031.1-.061.207-.088.3-.291.992-.291.992-.191 1.165a.559.559 0 0 0 .041.057l-.106.16c-.756 1.131-.756 1.131-.622 1.361a.313.313 0 0 0 .034.038l-.361.222c-.243.126-.463.266-.604.345zm2.771-2.892a.377.377 0 0 0-.233-.176l-.035-.008.021-.07.119-.405c.319-.158.94-.534 2.316-1.378l.131-.081-.82.748c-.641.577-1.126 1.016-1.501 1.364zm3.831-5.312c.035.3.046.326.081.385v.005c-.323.179-.82.475-1.627.967a88.874 88.874 0 0 0 1.544-1.364zm-1.821 4.5a142.55 142.55 0 0 0 2.261-2.082.5.5 0 0 0 .048.1.376.376 0 0 0 .161.148c-.107.289-.137.4-.117.5-.411.221-1.14.66-2.532 1.514l-.026.016zm1.707-5.551c-.315.157-.912.518-2.241 1.33l-.256.156.225-.225c.881-.883 1.432-1.434 1.766-1.795.011.185.022.2.059.268a.384.384 0 0 0 .237.178.337.337 0 0 0 .2 0l.008.085zm-3.452-3.914c-.328.189-.833.5-1.639.989l-.436.265c.683-.72 1.094-1.156 1.338-1.443.1.007.2-.04.426-.178zM68.557 9.64c.168.043.2.025.724-.293.111-.068.225-.139.313-.19l.029.011c-.711.391-2 1.165-4.426 2.661l-.5.311a32.221 32.221 0 0 0 3.4-2.651c.162.049.314.094.378.118a.349.349 0 0 0 .082.033zm-4.769 16.2c.352-.2.9-.533 1.788-1.079l.4-.244c-.7.709-1.134 1.158-1.413 1.466-.173-.077-.377.038-.554.145zm1.417.9l-.007-.009c.311-.174.769-.447 1.486-.882-.339.312-.58.538-.755.713-.186-.133-.414-.01-.714.171zm2.106.542l-.143.088c-.09-.06-.226-.148-.389-.254.391-.227.97-.577 1.862-1.119l.721-.437a51.826 51.826 0 0 0-1.268 1.5.383.383 0 0 0-.107-.048c-.171-.035-.225 0-.675.277zm2.128.154l-.218.133-.047-.021c.648-.36 1.739-1.015 3.662-2.193-1.363.97-2.091 1.5-2.465 1.828-.089 0-.178.008-.231.008a.147.147 0 0 1-.053 0c-.169-.04-.224-.008-.647.252zm4.9-1.569c-.845.7-1.095.944-1.122 1.118-.2.008-.455.026-.806.053.5-.293 1.129-.675 1.929-1.165zm-1.257-1.547a270.12 270.12 0 0 1-3.44 2.09l.319-.371c.621-.72.975-1.133 1.176-1.4a.4.4 0 0 0 .065.028 1.026 1.026 0 0 0 1.074-.5c.251-.155.621-.382.746-.447a.42.42 0 0 0 .1-.041.371.371 0 0 0 .156-.192c.415-.228 1.132-.662 2.491-1.492.885-.541 2-1.224 2.666-1.6l-.006.014c-.215.5-.337.789-.4.974-.603.293-1.884 1.056-4.947 2.937zM106.4 11.782a.318.318 0 0 0-.345-.174.372.372 0 0 0-.061-.041l.042-.234c.2-1.131.2-1.131.116-1.273a.383.383 0 0 0-.229-.172.358.358 0 0 1-.407-.014.377.377 0 0 0-.123-.013l-.135-.166c-.2-.246-.4-.492-.416-.505a.381.381 0 0 0-.238-.181c-.173-.045-.211-.017-.69.277l-.193.118a.577.577 0 0 0-.053-.115.382.382 0 0 0-.237-.175c-.189-.046-.234-.016-1.038.479-.253.156-.5.312-.611.368a.331.331 0 0 0-.09.038.379.379 0 0 0-.14.519.368.368 0 0 0 .089.1.357.357 0 0 0 .171.275c-1.517 1.938-1.517 1.938-1.358 2.209a.383.383 0 0 0 .223.173l-.186.468c-.548 1.38-.548 1.38-.44 1.564a.4.4 0 0 0 .068.084c-.319.5-.335.567-.219.76a.391.391 0 0 0 .082.095c-.356.588-.37.642-.254.837a.382.382 0 0 0 .144.14c-.512 1.014-.511 1.017-.391 1.227a.448.448 0 0 0 .119.132c-.325.608-.417.789-.405.913a.819.819 0 0 0-.3.108l-.033-.332c-.1-1.022-.1-1.022-.156-1.112a.386.386 0 0 0-.162-.15c.121-.35.112-.394.027-.553a.315.315 0 0 0-.3-.169c0-.032.01-.062.014-.094.132-.9.132-.9.058-1.032a.386.386 0 0 0-.236-.18.5.5 0 0 0-.054-.01l-.013-.025c0-.028.01-.057.014-.085.131-.843.131-.843.057-.974a.387.387 0 0 0-.23-.178.354.354 0 0 0-.134-.014l.028-.388c.081-1.08.081-1.08.006-1.206a.38.38 0 0 0-.23-.174.392.392 0 0 0-.13-.014c0-.077.01-.157.016-.238.074-1.1.074-1.1 0-1.221a.379.379 0 0 0-.23-.176.4.4 0 0 0-.079-.015c.055-.541.051-.549-.015-.661a.382.382 0 0 0-.232-.178.33.33 0 0 0-.23.015.39.39 0 0 0-.24-.182.311.311 0 0 0-.178 0l-.124-.186c-.224-.335-.443-.659-.462-.691a.38.38 0 0 0-.236-.179c-.153-.041-.235 0-.521.176a.5.5 0 0 0-.061.015l-.161-.242a.383.383 0 0 0-.236-.18c-.174-.048-.222-.019-.809.343l-.155.1a.982.982 0 0 0-.05-.1.389.389 0 0 0-.24-.181c-.179-.044-.2-.036-1.023.469-.28.171-.556.342-.642.382l.127.354.03-.017-.029.017-.041.163-.041.04c-1.37 1.358-1.37 1.358-1.2 1.645a.348.348 0 0 0 .063.08c-.343.473-.349.536-.231.734a.382.382 0 0 0 .162.149l-.016.035c-.516 1.1-.516 1.1-.4 1.29a.378.378 0 0 0 .177.158l-.074.159c-.482 1.046-.482 1.046-.37 1.239a.375.375 0 0 0 .138.131.175.175 0 0 0 0 .045c-.5 1.013-.5 1.018-.383 1.216a.383.383 0 0 0 .2.169c-.048.114-.1.226-.138.325-.487 1.134-.487 1.134-.368 1.34a.337.337 0 0 0 .211.157c-.152.157-.193.258-.174.348l-.079.048-.116.071c-.053-.131-.1-.24-.1-.246a.385.385 0 0 0-.237-.186.666.666 0 0 0-.12-.014v-.287c.011-1.123.011-1.123-.057-1.239a.379.379 0 0 0-.228-.176.45.45 0 0 0-.064-.013c.157-.931.156-.933.076-1.071a.4.4 0 0 0-.132-.134c.11-.278.107-.34.026-.477a.381.381 0 0 0-.221-.172.372.372 0 0 0-.081-.017l-.019-.037c-.008-.014-.014-.014-.02-.022l.016-.171c.108-1.152.108-1.152.034-1.28a.38.38 0 0 0-.229-.178.329.329 0 0 0-.132-.015l.031-.388c.089-1.117.089-1.117 0-1.265a.358.358 0 0 0-.2-.158c.146-.52.14-.546.06-.685a.378.378 0 0 0-.236-.177.321.321 0 0 0-.211.007c0-.046-.007-.092-.011-.139a.21.21 0 0 0-.008-.093c-.066-.776-.068-.788-.117-.874a.378.378 0 0 0-.23-.179.348.348 0 0 0-.173-.008c-.028-.28-.036-.293-.079-.37-.2-.319-.495-.146-.753.012l-.226-.242c-.186-.2-.373-.4-.379-.4a.382.382 0 0 0-.234-.174c-.168-.04-.22-.009-.632.243l-.088.054a.6.6 0 0 0-.068-.154.38.38 0 0 0-.241-.183c-.184-.046-.2-.037-1.076.5-.29.176-.57.351-.658.391l.13.354.076-.041-.07.039-.009.032c-.905.816-.895.834-.736 1.1a.38.38 0 0 0 .226.174.372.372 0 0 0 .074.006.4.4 0 0 0 .067.075c-.336 1.053-.337 1.058-.241 1.226a.38.38 0 0 0 .241.182h.02c-.125.609-.122.617-.046.749a.385.385 0 0 0 .236.18l.049.01c-.121.72-.121.721-.041.852a.384.384 0 0 0 .224.169.389.389 0 0 0 .05.011c-.122.69-.12.694-.046.822a.379.379 0 0 0 .24.179.429.429 0 0 0 .119.012l-.019.273c-.061.922-.061.922 0 1.037a.378.378 0 0 0 .241.186.345.345 0 0 0 .058.011c-.12.767-.119.767-.044.9a.38.38 0 0 0 .235.179.362.362 0 0 0 .128.008l.025.029c0 .113 0 .233-.006.355-.019 1.181-.019 1.181.048 1.3a.378.378 0 0 0 .231.176.4.4 0 0 0 .084.015c0 .031-.008.062-.013.093-.1.787-.1.787-.027.914a.382.382 0 0 0 .232.178.266.266 0 0 0 .112.014l-.02.234c-.073.85-.073.85 0 .97a.379.379 0 0 0 .22.168c-.121.479-.119.5-.048.628a.382.382 0 0 0 .243.187.375.375 0 0 0 .128.01l.011.013v.148c-.032 1-.032 1 .036 1.118a.387.387 0 0 0 .231.175.356.356 0 0 0 .166.008v.04c.041.71.041.71.1.8a.384.384 0 0 0 .23.171.365.365 0 0 0 .279-.043.389.389 0 0 0 .173.107l.049.011c.223.337.491.741.522.792.2.328.488.159.816-.045a.385.385 0 0 0 .171.1.32.32 0 0 0 .229-.009l.178.1c.231.124.458.244.53.288a.38.38 0 0 0 .135.065.791.791 0 0 0 .82-.35c.14-.086.26-.159.339-.2a.379.379 0 0 0 .169.1c.192.047.225.025 1.1-.51.277-.171.543-.336.628-.375l-.069-.185a4.552 4.552 0 0 0 .431-.249c.145-.089.288-.179.345-.207l-.139-.346.079-.1c.8-1.042.8-1.042.654-1.3a.457.457 0 0 0-.051-.068c.308-.473.323-.539.2-.743a.408.408 0 0 0-.147-.145l.008-.017c.55-1.132.55-1.132.428-1.349a.371.371 0 0 0-.184-.163 8.2 8.2 0 0 1 .1-.224c.56-1.27.56-1.27.446-1.468a.282.282 0 0 0-.028-.042l.124-.163.212-.143a.374.374 0 0 0 .229 0v.035c-.023.745-.023.745.04.855a.382.382 0 0 0 .239.179.479.479 0 0 0 .1.014c0 .054-.01.111-.015.168-.1 1.107-.1 1.107-.03 1.234a.381.381 0 0 0 .228.175.42.42 0 0 0 .105.017l-.023.206c-.105.954-.105.954-.034 1.078a.381.381 0 0 0 .229.177.321.321 0 0 0 .123.016c0 .065-.011.131-.016.2-.086 1.034-.086 1.034-.011 1.161a.379.379 0 0 0 .223.172.374.374 0 0 0 .14.016v.01c0 .632 0 .632.06.751a.321.321 0 0 0 .3.178c-.015.216 0 .242.055.33a.377.377 0 0 0 .216.161c.162.046.237.006.481-.142l.373.357c.282.27.575.55.6.562.207.332.5.151.831-.055l.107-.066c.128.048.308.111.573.2.247.086.486.168.57.2a.381.381 0 0 0 .1.039 1.6 1.6 0 0 0 1.657-.835c.469-.286 1.1-.671 1.278-.758a.359.359 0 0 0 .111-.043.381.381 0 0 0 .139-.52.388.388 0 0 0-.044-.049l-.053-.125.063-.073c.735-.855.778-.906.628-1.163a.367.367 0 0 0-.136-.109.248.248 0 0 0 .006-.241l.164-.346c.705-1.484.705-1.484.589-1.689a.385.385 0 0 0-.148-.139.268.268 0 0 0-.008-.034l.061-.118c.7-1.369.7-1.369.58-1.581a.377.377 0 0 0-.057-.076c.4-.591.408-.641.286-.86a.516.516 0 0 0-.075-.093c.48-.752.494-.792.37-1a.381.381 0 0 0-.185-.153c.135-.154.162-.25.141-.339l.106-.224c.645-1.348.645-1.348.529-1.55a.379.379 0 0 0-.137-.139l.044-.079c.607-1.086.607-1.086.477-1.308a.368.368 0 0 0-.187-.163l.228-.479c.667-1.392.667-1.392.544-1.61zM102.555 23.1l-.249.525c-.312.16-.871.5-1.968 1.17l.536-.464c.85-.736 1.447-1.255 1.872-1.635zm-5.179 3.337l-.193-.185-.369-.353c.6-.334 1.625-.949 3.461-2.071l.061-.037c-1.764 1.532-2.595 2.253-2.96 2.65zm-2.318-6.6c.229-.13.54-.316 1-.6-.443.477-.775.835-1.026 1.113a3.19 3.19 0 0 0 .025-.509zm-3.578 4.046c.008.014.02.025.029.038-.27.14-.707.4-1.5.882l.146-.128c.548-.483.979-.863 1.324-1.172-.085.218-.062.271 0 .384zm-5.737 1.527c-.02-.009-.03-.033-.052-.038a.353.353 0 0 0-.168-.007v-.07c.273-.136.7-.375 1.431-.809-.571.414-.947.705-1.211.924zm-.528-1.05a.337.337 0 0 0-.139-.017c0-.094.006-.192.01-.289l.006-.193c.621-.3 2-1.117 5.5-3.262-3.14 2.121-4.665 3.177-5.377 3.761zm-1.34-4.9c0-.145 0-.3.007-.461 0-.176.005-.316.007-.441.323-.176.855-.5 1.831-1.1l-.313.345c-.719.794-1.178 1.3-1.481 1.657a.3.3 0 0 0-.051-.001zM82.769 14l-.047-.01v-.022c.088-.045.187-.1.321-.175-.1.082-.175.151-.252.219-.006-.003-.012-.012-.022-.012zm-.22-2.563c.109-.064.231-.136.387-.23-.191.213-.348.389-.487.547l.1-.317zM82.96 15v-.01c.081-.043.167-.09.287-.16-.083.07-.149.128-.218.188A.317.317 0 0 0 82.96 15zm.27 1.507c0-.056.007-.113.011-.169l.023-.363c.28-.151.725-.417 1.505-.9l-.034.033c-.682.66-1.126 1.092-1.433 1.4a.237.237 0 0 0-.072-.008zm.375 1.1a.5.5 0 0 0-.062-.012c0-.034.009-.058.014-.089.125-.068.287-.161.509-.294-.181.156-.325.283-.454.4zm8.792-5.92c-.389.353-.692.629-.96.875a.286.286 0 0 0-.047-.266l-.007-.01c.209-.117.517-.303 1.017-.602zM91.169 14.1a16.9 16.9 0 0 0 .594-.337c-.251.192-.468.358-.658.506a2.94 2.94 0 0 0 .064-.169zm-.546 2.609a.4.4 0 0 0-.146-.144l.017-.033c.352-.16 1.108-.6 3.012-1.757-.151.121-.3.239-.439.354-1.1.888-1.874 1.511-2.419 1.964a.378.378 0 0 0-.026-.385zm5.506-5.347c.031.02.05.057.086.067a.418.418 0 0 0 .135.017v.017c-.248.125-.621.337-1.229.7.44-.342.767-.6 1.008-.802zm2.128 9.054c.018.031.057.039.083.063-.527.321-1.05.638-1.521.919l.061-.062c.619-.642 1.02-1.06 1.293-1.359.037.351.049.376.084.438zm2.466-3.187c.1-.051.217-.117.372-.206l-.448.358zm.44-1.613a.375.375 0 0 0-.053-.166.365.365 0 0 0-.068-.086c.1-.157.161-.263.206-.351.329-.182.866-.506 1.839-1.1l-.182.161a229.31 229.31 0 0 0-1.742 1.541zm1.712-3.412c-.653.609-1.144 1.067-1.515 1.42.126-.318.214-.545.27-.7a47.46 47.46 0 0 0 1.328-.794zm-5.258 6.616a.324.324 0 0 0 .367.157c-.223.11-.616.346-1.408.829l.176-.189c.343-.369.6-.648.82-.887a.587.587 0 0 0 .045.09zm-1.338-3.479c.291-.21.51-.374.7-.519 0 .046-.006.092-.009.132-.17.088-.39.21-.692.387zm.733 2.433c.2-.183.353-.331.491-.464l-.027.189a21.59 21.59 0 0 0-.464.275zm-.367-4.591c-.026.441-.011.47.051.581.021.033.047.041.071.063-.491.252-1.427.813-3.388 2.024l.164-.132c1.587-1.28 2.538-2.047 3.101-2.536zm-6.657 5.551l-.028.015.021-.049a2.859 2.859 0 0 0 .617-.283c-.221.159-.4.293-.565.414zm-2.411-.01a.345.345 0 0 0 .171.007v.119a9.12 9.12 0 0 0-.786.44c.255-.231.448-.41.615-.566zm.168 1.314a.359.359 0 0 0 .051.195.377.377 0 0 0 .088.1c-.285.17-.66.4-1.157.7.44-.424.773-.745 1.017-.995zm-.625-2.759a.4.4 0 0 0 .3.2l-.026.15c0 .026-.007.044-.011.069-.283.154-.758.44-1.652.985l-.214.131.45-.5c.472-.521.826-.912 1.1-1.22a.313.313 0 0 0 .053.185zm-.087-1.614c0 .043-.008.085-.012.124-.1.056-.222.125-.378.218.149-.13.278-.242.39-.342zm-.357-.918a46.99 46.99 0 0 0-1.229.732c.56-.542.96-.932 1.255-1.229-.019.25-.027.402-.027.497zm-.239-1.57l-.013.007.011-.009zm-.384-.919l.161-.141.007.045zm-.1-1.106l-.027.015.02-.018zm-1.723 9.5l.026-.206c.172-.092.408-.229.763-.442a45.37 45.37 0 0 0-.723.659.419.419 0 0 0-.066-.01zm.293 1.388c0-.023 0-.048.006-.072l.029-.339c.24-.133.606-.353 1.208-.723-.534.517-.9.874-1.167 1.143zm7.226-.021c-.147.079-.333.184-.575.324.237-.175.443-.328.625-.465-.02.056-.036.101-.049.142zm-1.269-2.243l-.671.411-.045-.109a43.827 43.827 0 0 0 4.064-2.373c1.233-.753 2.694-1.646 3.38-2.021a.309.309 0 0 0 .031.015.4.4 0 0 0 .069.014l-.005.03-.005.037a78.7 78.7 0 0 0-6.817 3.997zm4.875 1.652c.209-.121.487-.288.888-.532-.388.4-.677.7-.909.95a2.146 2.146 0 0 0 .023-.417zm.28 1.521c.546-.282 1.572-.892 3.666-2.17-1.967 1.429-3.081 2.249-3.7 2.753a5.53 5.53 0 0 0 .036-.581zm.29 1.547c.179-.1.41-.229.719-.412-.3.213-.524.378-.712.522a1.323 1.323 0 0 0-.005-.106zm7.137-3.924c-.034.018-.057.027-.1.049l.09-.066zm.619-1.916c-.153.239-.254.4-.324.526-.436.211-1.236.679-2.862 1.668a189.255 189.255 0 0 0 3.108-2.284.363.363 0 0 0 .08.092zm.744-3.234c-.059.03-.11.055-.188.1l.239-.192zm.325-1.464c-.307.166-.809.464-1.723 1.016l.378-.334a193.06 193.06 0 0 0 1.759-1.561c-.18.384-.315.666-.413.881zm.59-3.047l-.052.288-.1.562c-.375.207-.983.572-2.026 1.21l.229-.213c.988-.918 1.59-1.481 1.951-1.846zm-.92-1.044l.251.307.013.016c-.351.2-.872.518-1.689 1.019l-.374.229c.458-.55.753-.9.948-1.157.13.016.242-.042.743-.349zm-.486-.145l-.047.026zm-8.455.766l.07.1c-.4.233-1.031.612-2.03 1.221l-.422.257a27.316 27.316 0 0 0 2.1-2zm-1.813-.759l-.051.029zm-8.525.771c.009.015.029.017.04.031-.3.18-.712.429-1.307.794l-.057.035c.511-.57.831-.928 1.024-1.17.159.167.294.31.301.31zm1.172 15.635c.479-.267 1.31-.766 2.834-1.691l.379-.229c-1.253 1.1-1.958 1.728-2.338 2.107a.351.351 0 0 0-.058-.028c-.167-.043-.232 0-.574.209-.071-.109-.156-.24-.242-.366zm2.96.547l.076-.28c-.176-.047-.205-.03-.756.308-.112.069-.229.141-.32.2l-.135-.074q1.042-.628 2.078-1.264a11.69 11.69 0 0 0-.942 1.112zm2.844-6.18c-.032.017-.053.025-.09.045l.084-.057zm3.026-2.061l.076-.046c-.239.222-.42.393-.576.544v-.155zm3.629 8.2c.345-.207.786-.476 1.372-.836a11.066 11.066 0 0 0-.982.972l-.149-.052zm29.449-2.76a.33.33 0 0 0-.277-.177l.076-.32v-.012l.005-.023c.293-1.223.293-1.223.2-1.382a.381.381 0 0 0-.211-.165.243.243 0 0 0-.009-.185l.013-.048c.3-1.167.3-1.167.21-1.326a.383.383 0 0 0-.229-.176l.026-.087c.3-.951.3-.951.2-1.113a.384.384 0 0 0-.241-.179.344.344 0 0 0-.048-.009l.094-.408c.283-1.234.283-1.234.194-1.386a.383.383 0 0 0-.106-.117c.193-.39.2-.445.112-.606a.38.38 0 0 0-.241-.187l-.023-.006c0-.014.008-.028.013-.043.251-.934.251-.934.158-1.091a.381.381 0 0 0-.231-.176h-.03l-.031-.056a.39.39 0 0 0-.1-.115l.009-.226c.04-1.1.04-1.1-.03-1.215a.378.378 0 0 0-.228-.175.324.324 0 0 0-.137.01.4.4 0 0 0-.13-.1c-.141-.844-.142-.849-.188-.928a.38.38 0 0 0-.224-.173.315.315 0 0 0-.124-.017c.007-.255 0-.273-.048-.354a.386.386 0 0 0-.235-.182.334.334 0 0 0-.252.021 1.485 1.485 0 0 0-.116-.438.385.385 0 0 0-.227-.177c-.155-.044-.239 0-.448.125l-.188-.236a.653.653 0 0 0-.065-.145.375.375 0 0 0-.165-.144c-.2-.253-.383-.48-.4-.5a.381.381 0 0 0-.23-.175c-.159-.043-.233 0-.52.171l-.217-.21a5.343 5.343 0 0 0-.344-.319.379.379 0 0 0-.238-.175c-.159-.037-.208-.012-.595.221l-.1.058a.391.391 0 0 0-.233-.176c-.16-.041-.223-.057-1.325.6-.261.076-.571.168-.917.272a.736.736 0 0 0-.034-.059.4.4 0 0 0-.242-.184c-.182-.05-.272-.065-1.889.889-.754.222-1.419.412-1.626.445a.33.33 0 0 0-.118.021 1.358 1.358 0 0 0-.044-.081.38.38 0 0 0-.106-.116l-.02-.134c-.126-.868-.126-.868-.172-.947a.384.384 0 0 0-.239-.179c-.162-.041-.238 0-.515.175-.1-.077-.25-.181-.454-.328-.249-.179-.492-.353-.561-.408a.375.375 0 0 0-.169-.094c-.166-.043-.205-.02-.689.276l-.325.2a.613.613 0 0 0-.069-.158.387.387 0 0 0-.237-.179c-.189-.051-.206-.036-1.14.534-.316.194-.626.385-.72.427l.122.34a.364.364 0 0 0-.016.05c-1 .866-1 .886-.838 1.164a.386.386 0 0 0 .234.179l.041.009c-.014.03-.026.059-.037.087-.506 1.187-.506 1.187-.391 1.382a.378.378 0 0 0 .176.155c-.275.712-.276.734-.177.9a.383.383 0 0 0 .2.166v.01c-.294.834-.294.834-.191 1a.383.383 0 0 0 .188.156c-.291.812-.288.815-.194.978a.38.38 0 0 0 .229.177l.04.009c-.023.092-.048.186-.073.279-.287 1.089-.287 1.089-.194 1.247a.381.381 0 0 0 .208.169v.012c-.3.883-.3.883-.205 1.048a.381.381 0 0 0 .237.179.583.583 0 0 0 .061.012c-.032.145-.064.3-.094.43-.293 1.337-.293 1.337-.2 1.491a.382.382 0 0 0 .23.176l-.035.108c-.288.906-.288.906-.2 1.068a.383.383 0 0 0 .237.184l.022.005-.072.255c-.273.982-.273.982-.185 1.137a.384.384 0 0 0 .211.17c-.169.5-.167.524-.086.67a.386.386 0 0 0 .241.185.347.347 0 0 0 .171-.013.4.4 0 0 0 .077.068c0 .035.01.07.016.106.131.884.131.884.179.967a.383.383 0 0 0 .239.178.435.435 0 0 0 .353-.084.385.385 0 0 0 .166.1l.03.007.059.079.287.388a.385.385 0 0 0 .225.168c.168.048.218.014.608-.223l.009-.005a.376.376 0 0 0 .161.094.371.371 0 0 0 .338-.058l.055.018c.246.08.5.163.593.2a.381.381 0 0 0 .09.036 1.041 1.041 0 0 0 1.082-.5c.293-.18.588-.363.709-.424a.373.373 0 0 0 .1-.041.38.38 0 0 0 .134-.521.388.388 0 0 0-.055-.061c.149-.092.291-.18.346-.206l-.116-.292a.367.367 0 0 0 .025-.239l.05-.186a.324.324 0 0 0-.152-.015c.693-1.355.691-1.358.573-1.567a.385.385 0 0 0-.161-.153c.26-.635.253-.645.161-.808a.381.381 0 0 0-.236-.182h-.014a.275.275 0 0 0 .036-.154l.029-.1c.274-.973.274-.973.177-1.142a.33.33 0 0 0-.279-.179l.08-.342c.3-1.255.3-1.255.2-1.411a.384.384 0 0 0-.228-.174.443.443 0 0 0-.053-.012l.072-.3c.3-1.254.3-1.254.208-1.409a.394.394 0 0 0-.1-.112c.189-.378.2-.448.1-.611a.376.376 0 0 0-.206-.158.2.2 0 0 0-.005-.042c.313-.972.313-.978.212-1.146a.378.378 0 0 0-.235-.175h-.015l-.008-.015.047-.173c.307-1.129.307-1.129.213-1.293a.438.438 0 0 0-.043-.061l.082-.124.217-.331a.255.255 0 0 0 .036 0l-.072.273c.171.045.214.017.649-.249l.156-.1.386.238c.21.129.418.255.484.3a.38.38 0 0 0 .151.078c.166.042.233 0 .595-.217l.3.292c.266.259.553.535.564.535a.383.383 0 0 0 .239.178.418.418 0 0 0 .354-.08.561.561 0 0 0 .037.083l.062.181a6.448 6.448 0 0 0 .257.723.381.381 0 0 0 .24.181.333.333 0 0 0 .206-.006l.007.192c.04.947.04.947.111 1.071a.341.341 0 0 0 .241.168c-.2.769-.2.771-.112.919a.366.366 0 0 0 .127.129c-.143.341-.138.391-.055.534a.386.386 0 0 0 .235.177l.031.007-.06.264c-.3 1.3-.3 1.3-.205 1.458a.375.375 0 0 0 .2.159.221.221 0 0 0 .005.044l-.008.025c-.294.889-.294.889-.194 1.055a.381.381 0 0 0 .216.168v.007c-.315.969-.315.969-.218 1.137a.382.382 0 0 0 .236.178 1.54 1.54 0 0 1-.025.083c-.3 1.012-.3 1.012-.212 1.173a.381.381 0 0 0 .148.145c-.176.416-.175.467-.085.619a.382.382 0 0 0 .224.174.377.377 0 0 0 .15.014v.085c-.019.777-.019.777.051.9a.348.348 0 0 0 .479.133.385.385 0 0 0 .22.157c.019 0 .037.008.055.011l.065.1.438.7a.385.385 0 0 0 .233.177c.17.043.234 0 .593-.217l.03-.018a.38.38 0 0 0 .156.088.411.411 0 0 0 .384-.082l.337.072c.291.062.573.121.674.149a.319.319 0 0 0 .061.022 1.009 1.009 0 0 0 1.06-.485c.25-.153.486-.3.561-.334l-.139-.351.093-.369a.657.657 0 0 0-.071-.015c.221-.206.373-.353.471-.463l.035-.02c.1-.059.194-.119.234-.14l-.133-.3c.028-.053.058-.106.086-.161.402-.782.418-.811.294-1.023zm-1.045.777c-.075.14-.129.242-.174.332-.157.086-.367.209-.675.395.314-.333.557-.591.77-.82a.377.377 0 0 0 .079.093zm-6.424-11.369c.26-.152.591-.35 1.029-.615-.369.32-.644.562-.851.753a.376.376 0 0 0-.178-.138zm-5.6 4.553a.384.384 0 0 0 .236.179l.05.01-.018.072c-.309.144-.948.526-2.51 1.478l-.331.2.686-.63c.882-.81 1.5-1.374 1.924-1.781-.119.255-.118.33-.039.471zm.161 5.562c-.072.176-.12.3-.154.393-.279.158-.71.42-1.423.854l.126-.115c.583-.531 1.02-.929 1.346-1.234a.4.4 0 0 0 .103.098zm-1.6-1.383a88.882 88.882 0 0 0 1.539-1.289l-.1.433c-.282.155-.719.415-1.44.855zm1.393-2.413c-.156.085-.355.2-.614.353.242-.191.442-.351.62-.5a.533.533 0 0 0-.012.146zm-3.828 6.292h-.006a.34.34 0 0 0-.266.025l-.043-.286-.021-.144c.367-.2.989-.581 2.113-1.271l.084-.051c-.947.855-1.521 1.381-1.861 1.727zm2.657-15.883c.14.1.276.2.378.271-.385.224-.956.571-1.835 1.113l-.07.043c.808-.78 1.239-1.2 1.468-1.47zm1.094.929l-.023.012.022-.018zm.3 3.328a.306.306 0 0 0 .088.03l-.065.242c-.029.1-.052.191-.075.276-.307.154-.839.467-1.862 1.089.894-.761 1.503-1.276 1.911-1.641zm-4.829 7.852l.094-.294c.2-.1.5-.271.961-.547-.455.357-.791.627-1.055.841zm-.076-1.375l.1-.454c.054-.248.1-.436.13-.6.386-.2 1.1-.625 2.523-1.5l-.43.4c-1.152 1.056-1.876 1.72-2.318 2.154zm.41-6.407c-.117.091-.214.169-.308.244l.036-.1a5.73 5.73 0 0 0 .276-.144zm-.31 1.4l.031-.087c.09-.043.2-.1.337-.175-.139.1-.257.184-.366.265zm-.017 1.484l.122-.465c.322-.166.88-.5 1.948-1.152-1.035.873-1.7 1.433-2.121 1.813.02-.062.038-.124.056-.193zm.068 1.262c.129-.067.3-.161.537-.3-.241.187-.428.336-.594.47zm.8-7.116l-.667.649c.056-.13.1-.245.146-.345a9.57 9.57 0 0 0 .526-.301zm-.9 12.333l.023-.084.126-.452c.3-.156.8-.453 1.741-1.029-.9.737-1.489 1.227-1.882 1.569zm4.35-7.4c.191-.149.351-.275.492-.389a.363.363 0 0 0 .063.031l-.021.065c-.125.061-.29.152-.534.294zm9.914-5.221l.14.175c-.245.141-.562.33-.986.586.379-.331.649-.572.846-.76zm1.463 1.566a.339.339 0 0 0 .233-.016l.047.284v.03c-.388.213-1.047.613-2.239 1.348l-.18.111.131-.127c.877-.857 1.438-1.405 1.794-1.776a.382.382 0 0 0 .212.146zm.8 1.207c0 .119-.01.247-.014.375 0 .146-.01.272-.014.383-.384.21-1.053.615-2.3 1.379l-.143.088.255-.236c1.071-.99 1.73-1.6 2.128-2a.352.352 0 0 0 .092.012zm.252 1.8c0 .022-.011.043-.017.064l-.095.355c-.3.158-.8.45-1.706 1 .812-.667 1.369-1.127 1.747-1.454a.374.374 0 0 0 .076.041zm-4.686 2.825c.039-.174.066-.305.083-.4.273-.149.684-.391 1.327-.781-.613.516-1.069.897-1.405 1.187zm-.091-1.531a.321.321 0 0 0-.163-.1c.078-.3.125-.48.15-.6.385-.214 1.03-.606 2.171-1.31l-.369.341c-.821.771-1.392 1.298-1.784 1.675zm1.492-3.52l-.307.3c-.847.828-1.379 1.348-1.709 1.695a10.12 10.12 0 0 0-.045-.761c.387-.221.992-.584 1.973-1.18zm-1.451 9.672c.052-.174.091-.308.12-.413.264-.143.665-.381 1.311-.774-.636.529-1.09.905-1.425 1.192zm.095-1.659c.126-.407.11-.439.039-.565a.382.382 0 0 0-.2-.163c.333-.164.993-.562 2.474-1.471l.3-.187-.851.773c-.791.73-1.355 1.242-1.756 1.618zm2.275-1.05c1.157-1.049 1.9-1.723 2.371-2.178-.111.485-.175.769-.205.942-.4.216-1.083.629-2.358 1.412zm2.24-.1a2.615 2.615 0 0 0-.094.381c-.267.145-.656.372-1.26.736a72.23 72.23 0 0 0 1.36-1.113zm-3.006-9.982l.027.034c-.353.2-.907.538-1.846 1.11l-.472.288c.763-.763 1.22-1.222 1.491-1.524a.691.691 0 0 0 .083.071.376.376 0 0 0 .226.173c.169.046.242.007.497-.148zM114.8 12.27c.188-.147.34-.268.475-.379a.389.389 0 0 0 .067.05zm-2.849 14.409l-.039-.052c.294-.166.714-.415 1.361-.807-.286.276-.5.484-.658.648a.364.364 0 0 0-.045-.018c-.166-.044-.218-.013-.609.223zm5.988-14.465c-.038.035-.054.056-.086.086l-.028-.018zm1.261.285c.349-.209.8-.484 1.4-.849l.671-.408-.05.049c-.853.853-1.316 1.318-1.567 1.611a7.092 7.092 0 0 0-.338-.317c-.024-.043-.073-.058-.116-.085zm4.261 13.738c.345-.2.875-.521 1.717-1.037l.655-.4-.238.252a54.282 54.282 0 0 0-1.271 1.368l-.021-.008c-.165-.04-.223-.009-.594.217zm14.712-.808c.62-.834.62-.834.484-1.084a.354.354 0 0 0-.21-.17c.319-.843.314-.851.214-1.019a.385.385 0 0 0-.2-.164c.3-.865.3-.866.206-1.032a.382.382 0 0 0-.178-.16c.277-.725.271-.735.178-.9a.384.384 0 0 0-.225-.175.261.261 0 0 0-.02-.234l.021-.094c.313-1.393.313-1.393.219-1.552a.384.384 0 0 0-.225-.173l-.041-.009.05-.191c.312-1.209.312-1.209.22-1.37a.391.391 0 0 0-.134-.137c.229-.507.228-.548.13-.712a.378.378 0 0 0-.124-.127c.215-.466.216-.521.114-.708a.426.426 0 0 0-.122-.124c.227-.508.227-.549.135-.71a.38.38 0 0 0-.217-.171.374.374 0 0 0-.02-.051l.04-.137c.284-.991.284-.991.183-1.17a.334.334 0 0 0-.281-.172c.022-.1.046-.2.069-.309.315-1.41.315-1.41.221-1.57a.388.388 0 0 0-.158-.147c.257-.627.255-.652.157-.817a.385.385 0 0 0-.232-.174h-.021l.072-.255c.274-.973.274-.973.185-1.131a.385.385 0 0 0-.229-.176.427.427 0 0 0-.057-.012l.078-.33c.3-1.268.3-1.268.207-1.424a.379.379 0 0 0-.24-.179.324.324 0 0 0-.041-.008c.025-.1.049-.208.075-.315.295-1.235.295-1.235.209-1.387a.388.388 0 0 0-.109-.121c.186-.375.193-.445.093-.607a.383.383 0 0 0-.227-.168.4.4 0 0 0-.114-.016c.111-.841.11-.842.039-.97a.38.38 0 0 0-.238-.183.4.4 0 0 0-.333.067.364.364 0 0 0-.076-.251.393.393 0 0 0-.113-.121 45.457 45.457 0 0 0-.282-.583.382.382 0 0 0-.239-.179c-.153-.041-.23 0-.5.167l-.155-.142c-.128-.117-.253-.23-.292-.268a.389.389 0 0 0-.189-.114c-.17-.042-.207-.02-.707.283L135 1.57a.614.614 0 0 0-.072-.159.387.387 0 0 0-.232-.176c-.188-.047-.2-.04-1.134.529-.319.195-.632.389-.728.432l.127.354.061-.035-.06.051c-1.025.885-1.017.9-.854 1.181a.384.384 0 0 0 .232.177l.037.009-.042.1c-.5 1.174-.5 1.174-.386 1.366a.381.381 0 0 0 .178.159c-.274.713-.276.735-.177.9a.384.384 0 0 0 .2.166l-.011.032c-.284.8-.284.8-.193.966a.375.375 0 0 0 .2.171c-.292.812-.29.815-.187.992a.334.334 0 0 0 .26.175l-.073.276c-.285 1.084-.285 1.084-.183 1.266a.362.362 0 0 0 .2.157c-.3.883-.3.883-.206 1.048a.393.393 0 0 0 .3.19l-.092.417c-.3 1.351-.3 1.351-.207 1.505a.384.384 0 0 0 .227.176 1.982 1.982 0 0 0-.031.1c-.293.922-.293.922-.2 1.086a.385.385 0 0 0 .22.172l.035.009-.075.27c-.271.969-.271.969-.178 1.125a.383.383 0 0 0 .151.143c-.246.579-.251.612-.149.78a.379.379 0 0 0 .229.173l.031.007a5.697 5.697 0 0 0-.043.166c-.313 1.185-.313 1.185-.222 1.345a.378.378 0 0 0 .222.177c0 .012-.007.025-.012.037-.3.936-.3.936-.2 1.109a.334.334 0 0 0 .262.179l-.052.2c-.307 1.21-.307 1.21-.218 1.366a.385.385 0 0 0 .233.179l-.034.108c-.291.935-.291.935-.2 1.095a.385.385 0 0 0 .233.179.394.394 0 0 0 .085.013l.016.018-.058.346c-.184 1.095-.184 1.095-.1 1.237a.38.38 0 0 0 .23.174h.015c-.044.228-.034.276.032.382a.38.38 0 0 0 .223.166.358.358 0 0 0 .244-.023.394.394 0 0 0 .174.106h.006l.036.075c.15.31.3.621.31.634a.379.379 0 0 0 .233.177c.155.04.24 0 .5-.162a.385.385 0 0 0 .164.1c.091.023.154.032.355-.062l.581.122c.385.08.752.156.871.189a.37.37 0 0 0 .058.02 1.009 1.009 0 0 0 1.064-.486c.25-.152.483-.3.558-.332l-.139-.351.041-.158c.069-.04.148-.088.252-.152.153-.093.308-.19.366-.218l-.141-.35-.03.017.039-.051zm-5.213-.623l-.035-.007.048-.286.086-.518c.381-.2 1.059-.606 2.359-1.4l-.378.336c-1.04.925-1.689 1.499-2.08 1.875zm.262-20.92c.124-.069.277-.158.479-.279l-.619.612c.053-.119.1-.237.141-.333zm-.4 17.7l.082-.321.1-.4c.33-.174.9-.513 1.995-1.174a125.13 125.13 0 0 0-2.178 1.899zm.06-1.763l.075-.233c.164-.082.39-.207.729-.4-.341.267-.6.471-.807.646zm-.05-1.322c.025-.1.051-.194.073-.279l.095-.36c.315-.167.857-.493 1.891-1.125a96.215 96.215 0 0 0-2.06 1.769zm.134-4.471c.2-.1.5-.271.962-.546-.456.357-.8.627-1.056.842zm-.123 1.879l.02-.069.129-.467c.3-.156.8-.454 1.742-1.029-.9.737-1.489 1.227-1.882 1.569zm-.045-2.959l.1-.468.127-.583c.385-.2 1.093-.625 2.525-1.5l-.433.4c-1.154 1.058-1.877 1.722-2.317 2.156zm.138-6.266c.075-.037.155-.077.265-.138l-.3.239zm0 1.156c.069-.035.139-.071.238-.127l-.269.212zm.014 2.851c.13-.067.3-.161.538-.3-.242.187-.429.336-.595.47zm-.119-1.067l.052-.2.121-.464c.322-.166.88-.5 1.947-1.152-1.037.882-1.7 1.442-2.123 1.821zm.046 13.331l.095-.307c.217-.111.545-.3 1.085-.626-.523.414-.905.72-1.188.957zm2.395-11.171l-.32.195.684-.628a123.003 123.003 0 0 0 2.116-1.966v.008a9.219 9.219 0 0 0-.274 1.074c-.393.219-1.047.613-2.21 1.323zm1.345 9.184c.488-.388.853-.681 1.125-.91l-.037.166-.03.133c-.213.114-.531.297-1.062.617zm.9-9.332c.007.013.01.023.018.037a.393.393 0 0 0 .066.068c-.17.089-.4.218-.737.418.251-.199.46-.366.645-.517zm.062 1.335c-.04.183-.067.316-.083.411-.285.158-.719.417-1.411.838a97.013 97.013 0 0 0 1.486-1.244zm.081 2.419c-.18.406-.211.512-.168.623-.349.2-.914.538-1.925 1.155l.172-.144c.884-.747 1.497-1.263 1.913-1.624zm0 1.657c-.044.1-.073.164-.1.231a21.56 21.56 0 0 0-.682.391 33.8 33.8 0 0 0 .776-.617zm-.032-8.879l-.026.111c-.107.057-.236.13-.4.228.154-.122.298-.233.42-.334zm-.054-2.82l-.047.024.04-.032zm-.093-1.088l-.214.12c.084-.066.149-.12.22-.178zm.063 2.346a1.146 1.146 0 0 0-.058.5c-.324.175-.833.476-1.7 1.006.785-.668 1.348-1.146 1.752-1.5zm-1.822 13.466c.929-.8 1.552-1.333 1.97-1.709-.082.316-.137.534-.17.684-.349.188-.923.531-1.974 1.175zm1.893 1.567c.03.028.058.069.09.082a6.405 6.405 0 0 0-.217.613c-.35.191-.915.528-1.924 1.146.95-.843 1.604-1.424 2.045-1.835zm-.854 3.409c.359-.344.63-.605.859-.829-.066.175-.114.306-.146.4-.174.108-.4.241-.718.435zm.056-22.638c-.359.2-.955.558-2.048 1.231l-.056.034c.746-.732 1.16-1.143 1.389-1.409.06.05.1.081.088.078.168.282.41.19.621.072zm-3.047 23.769c.363-.2.932-.544 1.9-1.139-.658.631-1.07 1.03-1.325 1.3a.4.4 0 0 0-.072-.026c-.137-.036-.214 0-.39.1l-.113-.235zm2.3.182a4.248 4.248 0 0 0-.248.3l-.182-.038zm26.512-7.231a.413.413 0 0 0-.136-.14c.223-.469.22-.514.127-.676a.388.388 0 0 0-.164-.153c.155-.419.153-.468.069-.614a.379.379 0 0 0-.172-.156c.162-.465.16-.5.074-.648a.379.379 0 0 0-.224-.174.445.445 0 0 0-.13-.017c0-.05.009-.1.013-.151.07-.849.07-.849 0-.966a.38.38 0 0 0-.229-.177.326.326 0 0 0-.212 0l-.032-.306c-.12-1.118-.12-1.12-.182-1.228a.329.329 0 0 0-.388-.165c-.02-.429-.025-.437-.076-.522a.385.385 0 0 0-.229-.171.346.346 0 0 0-.267.029l-.067-.269a3.092 3.092 0 0 0-.2-.722.361.361 0 0 0-.517-.117.379.379 0 0 0-.141-.086l-.161-.3-.4-.73a.382.382 0 0 0-.235-.176c-.14-.036-.23 0-.427.122a.386.386 0 0 0-.165-.141l-.167-.2c-.251-.3-.512-.6-.528-.617a.376.376 0 0 0-.234-.18c-.13-.036-.2-.018-.4.1a1.11 1.11 0 0 0-.1-.241.379.379 0 0 0-.225-.164c-.162-.041-.235 0-.579.207l-.219-.206c-.187-.174-.378-.354-.392-.354a.381.381 0 0 0-.226-.173c-.165-.046-.224-.013-.6.216l-.187.114c-.145-.059-.361-.14-.691-.265s-.684-.255-.794-.307a.359.359 0 0 0-.111-.05c-.177-.045-.209-.026-.8.333l-.258.157c-.111-.036-.265-.082-.479-.146-.2-.058-.384-.114-.456-.14a.4.4 0 0 0-.08-.029c-.185-.049-.183-.045-1.09.507-.254.155-.494.3-.615.368a.746.746 0 0 0-.071-.148.387.387 0 0 0-.239-.179c-.2-.053-.217-.054-1.9.973-.506.309-1.188.726-1.375.817a.366.366 0 0 0-.11.043.379.379 0 0 0-.143.518.535.535 0 0 0 .031.045c-1.454 1.032-1.43 1.073-1.254 1.372.018.03.054.039.078.063a.372.372 0 0 0 .065.183l-.035.04c-1.44 1.66-1.44 1.66-1.272 1.957a.476.476 0 0 0 .11.126c-.582.875-.588.9-.461 1.121a.383.383 0 0 0 .158.15l-.02.044c-.407.888-.407.888-.3 1.073a.373.373 0 0 0 .173.155c-.369.86-.367.863-.264 1.04a.38.38 0 0 0 .23.176.4.4 0 0 0 .119.025c-.015.083-.03.169-.043.255-.173 1.015-.173 1.015-.093 1.154a.378.378 0 0 0 .237.179.346.346 0 0 0 .058.011c-.117.766-.117.767-.043.9a.378.378 0 0 0 .235.179.323.323 0 0 0 .15-.007.392.392 0 0 0 .086.1l.031.278c.123 1.088.123 1.088.176 1.18a.383.383 0 0 0 .236.176.33.33 0 0 0 .2 0l.017.131c.083.635.083.635.127.712a.376.376 0 0 0 .235.181.346.346 0 0 0 .261-.031.381.381 0 0 0 .078.078l.057.2a4.388 4.388 0 0 0 .207.661.378.378 0 0 0 .235.184.36.36 0 0 0 .3-.045c.06.362.063.367.1.435.158.253.385.188.577.087a.387.387 0 0 0 .2.135h.009l.06.078.478.622a.381.381 0 0 0 .23.175c.145.038.222.009.441-.123a.389.389 0 0 0 .184.125l.007.009c.161.2.328.414.335.42a.38.38 0 0 0 .238.185c.166.045.217.011.6-.221l.034-.02a.38.38 0 0 0 .2.132.335.335 0 0 0 .141.014l.192.125c.289.186.588.379.7.455.2.234.463.075.846-.161l.187-.114h.006a.378.378 0 0 0 .33.149l.209.093c.25.111.491.216.57.257a.365.365 0 0 0 .116.051.671.671 0 0 0 .7-.278l.227-.138h.113a.4.4 0 0 0 .167.1.619.619 0 0 0 .528-.129c.278-.019.611-.045 1.055-.079.563-.043 1.319-.1 1.548-.1h.026c.194.051.2.056 1.665-.842.5-.309 1.18-.724 1.373-.817a.384.384 0 0 0 .12-.043.379.379 0 0 0 .144-.518.388.388 0 0 0-.239-.183c-.1-.027-.153-.038-.353.059-.015-.013-.024-.031-.041-.041l.671-.55a.373.373 0 0 0 .047.022.671.671 0 0 0 .689-.278c.166-.1.337-.209.4-.239l-.136-.351v-.01c.423-.395.426-.51.333-.681l.049-.074c1.253-1.9 1.253-1.9 1.109-2.148a.379.379 0 0 0-.24-.181l-.028-.006c.023-.053.044-.1.066-.154.57-1.383.57-1.383.452-1.595zm-2.293 4.086c-.162.086-.372.2-.662.375.3-.215.562-.4.792-.573zm-14.695 1.305a.372.372 0 0 0-.077-.036.412.412 0 0 0-.353.078c-.011-.039-.022-.079-.035-.119l-.037-.125c.348-.191.922-.537 1.97-1.181l-.03.028c-.696.648-1.142 1.063-1.438 1.356zm-.966-1.1a.317.317 0 0 0-.23.016v-.016l-.007-.055c.247-.129.626-.351 1.269-.738-.423.358-.73.623-.956.827a.378.378 0 0 0-.076-.031zm-.612-1a.344.344 0 0 0-.194 0l-.052-.469-.034-.307c.384-.207 1.059-.614 2.339-1.4l.147-.09-.37.379c-.91.933-1.479 1.516-1.824 1.9-.006-.003-.008-.009-.013-.01zm13.919-11a.386.386 0 0 0 .14.071.361.361 0 0 0 .231-.021c-.251.138-.607.347-1.153.677.347-.308.598-.54.781-.721zm1.662 1.26c.008.04.02.08.029.122l.112.457c-.362.2-.945.554-1.982 1.194l-.18.111.126-.13c.82-.847 1.333-1.376 1.646-1.724a.346.346 0 0 0 .252-.025zm-2.8 5.572a.563.563 0 0 0 .012-.387 42.1 42.1 0 0 0 1.277-.755c-.574.507-.986.87-1.286 1.148zm1.164-2.91c-.792.794-1.3 1.3-1.621 1.647a2.661 2.661 0 0 0-.072-.752 66.1 66.1 0 0 0 1.885-1.137l.132-.082zm-.71-1.615l.182-.109-.278.288c-.669.69-1.1 1.14-1.4 1.465a.335.335 0 0 0-.046-.136.379.379 0 0 0-.235-.181.367.367 0 0 0-.314.054l-.041-.11c.332-.172.936-.537 2.134-1.265zm-2.943-.012a.9.9 0 0 0-.248.1l-.13-.191c.266-.145.668-.383 1.3-.767-.43.399-.72.664-.92.864zm-2.48-1.572c-.032.03-.044.047-.072.073l-.022-.016zm2.353-.382l.481-.293-.041.042a57.81 57.81 0 0 0-1.231 1.32l-.029-.043a.379.379 0 0 0-.233-.177c-.165-.042-.243.006-.539.186l-.058-.041c.337-.187.844-.496 1.652-.988zm-.453-2.175l-.126.072c.04-.034.056-.056.088-.086zm-6.3 7.265a.3.3 0 0 0 .053.17.386.386 0 0 0 .185.141c-.291.146-.8.442-1.768 1.032a94.286 94.286 0 0 0 1.533-1.337zm.184 1.491a.516.516 0 0 0 0 .08c-.1.055-.207.117-.343.2.131-.1.242-.188.346-.274zm.192-2.964l.038.009a1.451 1.451 0 0 0-.231.1c.06-.046.1-.082.155-.123a.331.331 0 0 0 .041.02zm-2.74-2.377c.19-.106.427-.243.738-.427-.391.289-.732.543-1.031.767zm-1.921 6.607c-.007 0-.01-.012-.018-.014a.465.465 0 0 0-.063-.014l.035-.2.06-.353c.323-.167.888-.5 1.974-1.168l-.014.011c-.964.844-1.581 1.381-1.971 1.744zm.039-2.831l.049-.108a2.963 2.963 0 0 0 .314-.13c-.134.092-.246.171-.353.247 0 .005-.002-.001-.007-.003zm-.079 1.114c.066-.032.137-.069.235-.123-.1.081-.19.149-.275.217zm.262 2.784a.512.512 0 0 0-.057-.01l.005-.036c.161-.083.388-.212.734-.418-.253.2-.444.361-.609.5a.385.385 0 0 0-.069-.029zm2.983.637l-.5.3.544-.559c.839-.86 1.368-1.4 1.7-1.767.012.591.021.612.083.723a.363.363 0 0 0 .141.119c-.343.206-.916.553-1.964 1.191zm2.345-.286a.31.31 0 0 0 .2.088v.026c-.231.128-.55.315-1.03.606.364-.297.629-.527.837-.713zm.891.749l.021.052.158.4c-.328.185-.844.5-1.726 1.039.822-.758 1.287-1.197 1.551-1.484zm.039 3.146c.609-.621 1-1.024 1.269-1.313a.376.376 0 0 0 .163.1c.152.041.233 0 .475-.143l.138.186c-.341.2-.859.513-1.683 1.016l-.526.321zm2.773-.561a1.537 1.537 0 0 0 .376-.2l.081-.048.26.105c-.344.2-.821.486-1.546.924.389-.342.648-.587.833-.774zm1.886-.489c-.128-.054-.314-.128-.591-.238s-.562-.221-.653-.264a.383.383 0 0 0-.105-.046c-.146-.039-.229 0-.469.141l-.014-.007a.613.613 0 0 0-.065-.013l-.1-.137a44.87 44.87 0 0 0-.318-.426.379.379 0 0 0-.241-.184c-.127-.033-.2-.01-.381.094l-.009-.022a32.86 32.86 0 0 0-.271-.661.379.379 0 0 0-.225-.17.393.393 0 0 0-.345.066l-.18-.457a15.345 15.345 0 0 0-.3-.73.38.38 0 0 0-.236-.179.4.4 0 0 0-.065-.012c.02-.206.009-.227-.035-.309a.375.375 0 0 0-.243-.192.35.35 0 0 0-.136-.012c0-.64 0-.643-.056-.74a.384.384 0 0 0-.241-.182.359.359 0 0 0-.155-.007v-.256c-.016-.912-.016-.912-.076-1.016a.381.381 0 0 0-.234-.179.517.517 0 0 0-.068-.013c.009-.051.018-.1.026-.156.176-1.054.176-1.054.094-1.192a.384.384 0 0 0-.207-.166c.044-.142.09-.285.13-.408.337-1.068.357-1.128.276-1.27.159-.179.332-.369.482-.537.215-.239.386-.429.537-.6l.635-.409-.05.2c.169.041.226.011.746-.306l.125-.077c.1.074.25.176.457.319.256.178.511.354.583.411a.379.379 0 0 0 .16.09c.155.043.236 0 .455-.13l.233.342.465.683a.382.382 0 0 0 .225.176.368.368 0 0 0 .329-.055l.12.321a9.535 9.535 0 0 0 .345.9.38.38 0 0 0 .21.168.323.323 0 0 0 .214.006v.014c.067.7.067.7.123.79a.332.332 0 0 0 .4.165q.031.725.124 1.445a.383.383 0 0 0 .213.174c-.136.508-.135.543-.051.7a.414.414 0 0 0 .14.141c-.152.385-.152.428-.077.573a.381.381 0 0 0 .235.189c-.031.1-.062.208-.088.3-.289.99-.289.99-.2 1.15a.56.56 0 0 0 .044.061l-.112.166c-.771 1.137-.771 1.137-.631 1.385.009.015.02.019.029.032l-.342.209c-.223.136-.441.275-.582.354zm2.769-2.891a.379.379 0 0 0-.23-.175l-.037-.009.021-.07.119-.409c.321-.159.943-.536 2.318-1.379l.13-.079-.83.757c-.632.583-1.114 1.025-1.488 1.371zm3.832-5.314c.034.3.045.321.078.379l.008.009a57.6 57.6 0 0 0-1.628.971 59.997 59.997 0 0 0 1.545-1.352zm-1.83 4.512c1.084-.987 1.8-1.64 2.271-2.092a.518.518 0 0 0 .045.094.386.386 0 0 0 .162.151c-.109.294-.138.4-.118.5-.41.221-1.138.66-2.532 1.515l-.023.014zm1.717-5.561c-.314.157-.911.517-2.241 1.331l-.257.156.228-.228c.88-.881 1.429-1.432 1.763-1.793.011.185.022.205.059.268a.385.385 0 0 0 .238.178.343.343 0 0 0 .2 0zm-3.452-3.912c-.328.189-.834.5-1.646.991l-.429.262c.683-.72 1.094-1.156 1.337-1.443.1.007.2-.04.426-.178zm-5.771-1.066c.169.045.2.025.721-.291.113-.069.228-.14.317-.192l.027.01c-.71.39-1.992 1.164-4.427 2.664l-.5.306a32.213 32.213 0 0 0 3.4-2.649c.162.049.313.094.377.118a.358.358 0 0 0 .085.034zm-4.768 16.2c.352-.2.9-.534 1.792-1.081l.393-.241a60.062 60.062 0 0 0-1.412 1.465c-.173-.076-.376.038-.552.146l-.221-.288zm1.418.905l-.007-.009c.311-.174.77-.447 1.488-.883-.342.314-.583.541-.759.717a.368.368 0 0 0-.105-.055c-.165-.043-.218-.011-.6.221zm2.114.538l-.151.092c-.09-.06-.226-.148-.389-.254.39-.227.966-.575 1.854-1.114l.73-.442c-.648.752-1.038 1.205-1.269 1.5a.367.367 0 0 0-.108-.049c-.171-.042-.228-.002-.667.269zm2.117.161l-.213.13-.046-.021c.647-.36 1.735-1.014 3.658-2.192-1.362.97-2.09 1.5-2.464 1.828-.088 0-.176.008-.229.008-.177-.074-.403.064-.706.249zm4.9-1.571c-.843.7-1.093.943-1.119 1.117-.2.008-.455.026-.805.053.496-.298 1.126-.679 1.925-1.168zm-1.25-1.558c-1.15.706-2.46 1.51-3.446 2.093l.316-.367c.623-.723.978-1.137 1.181-1.4a.413.413 0 0 0 .065.028 1.028 1.028 0 0 0 1.071-.5c.249-.153.615-.378.737-.442a.353.353 0 0 0 .1-.042.372.372 0 0 0 .155-.191c.413-.227 1.133-.661 2.509-1.5.882-.54 2-1.22 2.657-1.6l-.006.013c-.216.505-.339.792-.4.977-.604.297-1.889 1.06-4.938 2.933zm27.949-1.215a.387.387 0 0 0-.219-.171l-.047-.012c.019-.07.039-.143.057-.216.3-1.167.3-1.167.21-1.326a.385.385 0 0 0-.229-.176l.027-.089c.294-.949.294-.949.193-1.123a.329.329 0 0 0-.281-.176l.046-.2v-.01l.045-.2c.282-1.23.282-1.23.183-1.406a.46.46 0 0 0-.093-.1c.189-.383.2-.439.109-.6a.384.384 0 0 0-.239-.186l.018-.057c.291-.955.291-.955.2-1.118a.378.378 0 0 0-.23-.179c-.015 0-.026 0-.041-.006a.3.3 0 0 0-.033-.308l.015-.107c.167-1.181.167-1.181.085-1.32a.382.382 0 0 0-.228-.174.745.745 0 0 0-.12-.016v-.076c.057-1 .057-1-.016-1.12a.385.385 0 0 0-.227-.172h-.015c.051-.306.042-.34-.015-.444a.381.381 0 0 0-.241-.184.421.421 0 0 0-.115-.014c0-.418 0-.427-.057-.52a.383.383 0 0 0-.228-.173.34.34 0 0 0-.232.019.4.4 0 0 0-.221-.158h-.009l-.116-.218-.383-.713a.389.389 0 0 0-.233-.174c-.141-.034-.219-.006-.414.11l-.124-.2-.279-.441c-.182-.268-.411-.176-.671-.024a.414.414 0 0 0-.3.032 49.593 49.593 0 0 0-.565-.314c-.335-.186-.665-.366-.757-.426a.382.382 0 0 0-.147-.074c-.168-.042-.223-.01-.665.259l-.176.108-.1-.029a.393.393 0 0 0-.231-.171.4.4 0 0 0-.3.034l-.377-.093c-.442-.108-.877-.214-1.007-.256a.371.371 0 0 0-.07-.027c-.176-.048-.223-.02-.772.318-.118.072-.234.144-.314.191-.211-.027-.562-.046-1.17-.081-.423-.024-.993-.056-1.145-.077l-.034-.01c-.171-.044-.186-.035-.813.35l-.457.276a.525.525 0 0 0-.074-.18.383.383 0 0 0-.236-.18c-.2-.049-.218-.033-1.283.617-.3.182-.7.427-.825.492a.357.357 0 0 0-.09.037.38.38 0 0 0-.14.519.26.26 0 0 0 .032.048c-1.013.814-.993.849-.83 1.133a.359.359 0 0 0 .181.157l.021.041a.366.366 0 0 0 .066.073c-.534 1.161-.534 1.168-.413 1.377a.349.349 0 0 0 .481.131.392.392 0 0 0 .1.078c.084.206.164.393.17.4a.386.386 0 0 0 .236.176c.176.043.225.01.72-.294l.245-.148h.045a.4.4 0 0 0 .167.1c.1.026.2.028.516-.123l.377-.021c.4-.022.823-.052.9-.043.155.035.192.012.767-.337l.306-.185a.388.388 0 0 0 .178.112.4.4 0 0 0 .313-.042l.128.033c.256.066.511.131.6.159a.381.381 0 0 0 .072.025c.17.042.234 0 .649-.255l.058-.036a.391.391 0 0 0 .178.11.35.35 0 0 0 .226-.005l.324.167c.3.153.594.3.682.356a.39.39 0 0 0 .141.067c.135.033.216 0 .42-.119a.373.373 0 0 0 .09.066l.043.062.234.457a.385.385 0 0 0 .236.18.346.346 0 0 0 .25-.024.312.312 0 0 0 .031.035l.069.335a4.967 4.967 0 0 0 .257 1.1.377.377 0 0 0 .237.177l.049.01-.017.089c-.167.834-.167.834-.085.974a.38.38 0 0 0 .239.178l.035.007-.067.263c-.239.944-.239.944-.155 1.092a.379.379 0 0 0 .155.15c-.248.583-.248.6-.157.768a.381.381 0 0 0 .236.185l.031.007-.044.169c-.312 1.183-.312 1.183-.219 1.344a.378.378 0 0 0 .219.174l-.017.051c-.3.92-.3.92-.2 1.1a.348.348 0 0 0 .187.153l.02.038a.378.378 0 0 0 .139.133l-.7.432-.086-.233.094-.369c-.185-.049-.209-.03-.931.413l-.267.163a.391.391 0 0 0-.109-.053.365.365 0 0 0-.261.017l-.381-.2c-.262-.134-.512-.261-.59-.307a.386.386 0 0 0-.126-.061.433.433 0 0 0-.369.084.366.366 0 0 0-.068-.033l-.149-.325a48.116 48.116 0 0 0-.376-.8.379.379 0 0 0-.2-.168c.036-.122.074-.253.114-.384.318-1.073.371-1.253.328-1.377l.151-.147c.96-.936.979-.954.82-1.233a.382.382 0 0 0-.238-.182c.893-1.21.887-1.222.73-1.5a.338.338 0 0 0-.425-.131.39.39 0 0 0-.121-.058l-.048-.01-.048-.13a6.69 6.69 0 0 0-.3-.766c-.16-.249-.375-.193-.586-.082a.383.383 0 0 0-.1-.051.342.342 0 0 0-.15-.013c-.126-.128-.24-.255-.235-.223a.385.385 0 0 0-.24-.185c-.173-.045-.206-.023-.788.331l-.073.044a1.255 1.255 0 0 0-.046-.086.387.387 0 0 0-.237-.18c-.208-.054-.219-.053-2.182 1.136-.616.375-1.45.88-1.658.981a.361.361 0 0 0-.112.043.38.38 0 0 0-.139.52.384.384 0 0 0 .145.134.369.369 0 0 0 .028.086c.01.017.028.026.04.042-2.3 1.773-2.29 1.81-2.091 2.15a.381.381 0 0 0 .235.178.435.435 0 0 0 .106.016 1.871 1.871 0 0 0-.038.079c-.7 1.445-.7 1.445-.578 1.65a.382.382 0 0 0 .232.177.224.224 0 0 0 .111.014l-.02.226c-.078.914-.078.914-.013 1.03a.377.377 0 0 0 .241.186.323.323 0 0 0 .181-.013.377.377 0 0 0 .067.073l.028.144a3.884 3.884 0 0 0 .209.932.381.381 0 0 0 .231.178.348.348 0 0 0 .282-.035l.02.035v.016a3.023 3.023 0 0 0 .19.575.382.382 0 0 0 .235.174.34.34 0 0 0 .154.008.441.441 0 0 0 .063.278c.178.284.426.179.657.044a1.2 1.2 0 0 0 .044.088.391.391 0 0 0 .24.18l.028.007.038.039c.284.285.588.592.6.6a.379.379 0 0 0 .235.179c.146.037.229 0 .443-.127a.383.383 0 0 0 .086.042.334.334 0 0 0 .193 0l.121.1.4.333a.375.375 0 0 0 .181.105c.163.042.229 0 .591-.218l.094-.058c.09.053.21.121.371.212.227.129.458.259.532.307a.391.391 0 0 0 .144.074 2.259 2.259 0 0 0 .793-.338c.119.047.293.112.527.2a.377.377 0 0 0 .04.019l.028.006c.291.107.583.214.678.256a.419.419 0 0 0 .1.043c.174.049.232.01.666-.257l.144-.088.062.06a1.667 1.667 0 0 0 .188.171.383.383 0 0 0 .231.169.655.655 0 0 0 .681-.27c.112-.069.23-.142.314-.192.16.039.4.088.783.163.335.067.668.131.782.163a.319.319 0 0 0 .064.023c.168.043.221.014.764-.317a.385.385 0 0 0 .076.036c.119.029.185.037.535-.155l.3.06c.319.063.652.126.765.156a.361.361 0 0 0 .062.022c.194.047.209.032 1.1-.512.256-.157.633-.389.757-.453a.37.37 0 0 0 .1-.041.379.379 0 0 0 .132-.521.384.384 0 0 0-.237-.176.362.362 0 0 0-.126-.016 3.75 3.75 0 0 0 .666-.662c.067-.042.13-.079.16-.094l-.147-.348.085-.348c.208-.223.162-.313.067-.477.37-1.154.37-1.172.27-1.344zm-6.362-7.9l-.1-.476-.06-.287c.385-.206 1.064-.614 2.355-1.408l.162-.1-.371.38a98.81 98.81 0 0 0-1.773 1.839.386.386 0 0 0-.213.059zm-.565-1.65a.359.359 0 0 0-.22.015c.219-.127.5-.3.888-.53-.265.221-.462.39-.626.536a.385.385 0 0 0-.042-.021zm-.227-3.958l.174.047a91.34 91.34 0 0 0-.768.459c.259-.211.45-.374.594-.506zm3.01.6c.056-.029.121-.065.211-.12l.079.126.226.354c-.423.244-1.067.636-2.083 1.257l-.039.024c.859-.854 1.337-1.333 1.606-1.641zm1.417.929l.064.12c-.2.116-.469.274-.84.5.343-.287.582-.495.755-.658zm-3.077 6.823l-.032-.008.015-.062.11-.436c.292-.153.78-.443 1.686-1-.837.701-1.402 1.173-1.78 1.506zm-.05-1.543a.469.469 0 0 0-.074-.014l.041-.2c.2-.1.506-.279 1-.572-.419.329-.728.585-.968.785zm.07 5.456l.073-.223c.155-.077.364-.192.675-.373-.31.239-.546.43-.749.596zm-.05-1.311l.077-.295.092-.35c.315-.166.855-.488 1.887-1.119a86.527 86.527 0 0 0-2.057 1.764zm1.449-6.129c.19-.2.38-.388.554-.568.855-.876 1.391-1.425 1.723-1.79.015.006.021.023.036.027a.4.4 0 0 0 .114.014c0 .424 0 .433.061.528a.384.384 0 0 0 .213.164c-.362.2-.975.573-2.077 1.245zm1.479 10.192c.8-.611 1.37-1.047 1.777-1.372a1.563 1.563 0 0 0-.062.376c-.33.174-.844.471-1.715.996zm1.9-9.734l-.049.357-.021.144c-.286.149-.766.434-1.662.981.833-.701 1.376-1.157 1.727-1.482zm-.314-1.166c0 .086-.009.159-.013.229-.2.109-.491.274-.927.536.41-.332.715-.585.941-.783zm-1.612 5.358c.8-.676 1.373-1.157 1.782-1.513-.064.253-.042.293.018.4a.389.389 0 0 0 .049.055c-.338.184-.917.535-2.022 1.209zm2.061-.088l-.058.252c-.175.086-.437.233-.87.488.394-.311.691-.548.923-.74zm-.127 2.156c-.227.733-.221.755-.136.9 0 .008.013.013.019.021-.564.278-1.736.974-4.457 2.643l-.214.131.336-.254c2.387-1.81 3.723-2.83 4.446-3.441zm-4.98-10.914c.269-.224.455-.387.587-.516l.138.076c-.202.119-.432.258-.731.44zm-3.065-.55a2.848 2.848 0 0 0 .47-.433l.18.045c-.193.11-.401.234-.656.388zm-1.714-.092c-.522.315-1.2.727-2.085 1.274l-1.007.619a17.963 17.963 0 0 0 2.067-1.952l.629.037zM168 12.371c.08-.174.143-.31.2-.437.221-.125.512-.3.932-.549-.5.446-.876.782-1.157 1.041zm1.029.682l.1-.058c-.027.023-.037.036-.061.057zm3.829-1.195c-.3.241-.52.424-.682.569l-.064-.019a.366.366 0 0 0-.065-.023l-.047-.009zm1.9.056c-.234.193-.408.341-.548.467a.285.285 0 0 0-.142-.05zm.8 1.173l-.407-.212c.44-.256 1.088-.65 2.077-1.26l.516-.317-.112.112c-.7.7-1.146 1.142-1.433 1.448-.006 0-.011-.007-.018-.009-.174-.045-.237 0-.574.207zm-.026 11.253h.022l-.093.057zm-1.323-.683c.09.048.218.113.375.194-.435.254-1.067.637-2.02 1.22l-.231.142a.245.245 0 0 0 .023-.023c.66-.63 1.08-1.032 1.353-1.313.118.01.218-.048.46-.2zm-6.771.7a.372.372 0 0 0-.146-.114.328.328 0 0 0-.252.015l-.058-.3-.024-.122c.446-.239 1.279-.738 2.947-1.75l.289-.174-.416.363c-1.219 1.056-1.933 1.682-2.348 2.079zm-.332-4.339a75.126 75.126 0 0 0 2.072-1.234 193.937 193.937 0 0 0-2.324 1.778c.105-.24.187-.414.246-.547zm-.561 2.015c.284-.146.711-.389 1.387-.789-.637.45-1.081.771-1.4 1.02-.005-.093.001-.171.005-.234zm3.5-2.951c1.833-1.39 2.787-2.121 3.264-2.551a.462.462 0 0 0 .286-.079l.1.273.052.138c-.531.292-1.5.874-3.376 2.018zm3.188-.6l-.241.133c.117-.084.2-.149.308-.224zm-2.953 4.364a136.39 136.39 0 0 0 2.315-2.049 109.175 109.175 0 0 0-.249.846c-.338.173-.948.537-2.148 1.276zm2.408-.264a.716.716 0 0 0 .165-.074l.182.393.106.23c-.377.212-1 .587-2.075 1.246l-.362.221.234-.234c.862-.875 1.405-1.422 1.739-1.784zm-4.567 2.488a96.595 96.595 0 0 0 2.106-1.277l.533-.328-.361.362c-.888.889-1.417 1.42-1.73 1.766a.376.376 0 0 0-.2-.147.328.328 0 0 0-.161-.008c-.007-.179-.017-.2-.054-.263s-.095-.075-.144-.106zm1.252 1.213c.39-.222 1-.594 2.015-1.212-.64.612-1.044 1-1.3 1.276-.11 0-.208.059-.446.207zm1.676.6c-.038.035-.054.06-.082.09l-.03-.025zm1.813.407l-.127.079a33.64 33.64 0 0 0-.381-.217c.818-.46 2.245-1.322 4.857-2.926.925-.567 1.979-1.214 2.957-1.8-.687.526-1.4 1.069-2.044 1.556-2.563 1.941-3.7 2.8-4.166 3.254-.135-.05-.255-.1-.323-.123-.21-.181-.456-.026-.784.174zm3.14.077a.38.38 0 0 0-.191-.164c.687-.407 1.656-1 3.047-1.85l.233-.143a24.21 24.21 0 0 0-2.886 2.335l-.013-.013c-.115-.106-.222-.211-.201-.168zm30.836-3.515a.378.378 0 0 0-.135-.132c.234-.527.234-.565.136-.73a.383.383 0 0 0-.229-.174.549.549 0 0 0-.054-.012l.085-.357c.293-1.222.293-1.222.2-1.381a.379.379 0 0 0-.234-.175l-.031-.007.053-.2c.306-1.181.306-1.181.214-1.34a.384.384 0 0 0-.23-.176l.027-.087c.3-.951.3-.951.2-1.113a.384.384 0 0 0-.229-.176.417.417 0 0 0-.061-.013 9.12 9.12 0 0 1 .037-.159.252.252 0 0 0 .04-.175l.016-.071c.285-1.236.285-1.236.2-1.388a.376.376 0 0 0-.106-.117c.193-.39.2-.445.112-.606a.382.382 0 0 0-.232-.185l.019-.06c.3-.962.3-.962.21-1.127a.38.38 0 0 0-.24-.182h-.008a.263.263 0 0 0 .011-.265l.04-.175c.286-1.254.286-1.254.19-1.422a.338.338 0 0 0-.245-.176l.024-.087c.322-1.152.322-1.152.227-1.316a.377.377 0 0 0-.116-.126c.21-.444.21-.5.114-.661a.382.382 0 0 0-.153-.144c.248-.59.251-.627.157-.793a.377.377 0 0 0-.233-.181h-.022l-.025-.044.1-.417c.27-1.131.27-1.131.173-1.3a.356.356 0 0 0-.207-.169.162.162 0 0 0 .009-.024c.3-.908.3-.908.2-1.089a.332.332 0 0 0-.312-.178l.074-.377c.224-1.15.224-1.15.133-1.313a.323.323 0 0 0-.337-.173 1.41 1.41 0 0 0-.049-.09.385.385 0 0 0-.135-.129l-.015-.085c-.152-.879-.152-.879-.2-.954a.389.389 0 0 0-.234-.176c-.169-.043-.245 0-.522.176l-.4-.314a24.856 24.856 0 0 1-.558-.44.383.383 0 0 0-.181-.1c-.168-.04-.208-.014-.638.248-.106.065-.2.124-.284.171a.606.606 0 0 0-.07-.161.387.387 0 0 0-.237-.179 10.823 10.823 0 0 0-1.861.962l.127.354.061-.034-.059.051c-1.024.883-1.015.9-.846 1.2a.329.329 0 0 0 .261.179 1.79 1.79 0 0 1-.037.088c-.5 1.176-.5 1.176-.39 1.369a.381.381 0 0 0 .178.159c-.274.712-.276.734-.177.9a.379.379 0 0 0 .2.166l-.011.032c-.283.8-.283.8-.184.982a.369.369 0 0 0 .186.163c-.288.8-.286.805-.192.968a.381.381 0 0 0 .241.18l.029.006-.077.291c-.282 1.074-.282 1.074-.181 1.254a.361.361 0 0 0 .2.158c-.3.883-.3.883-.209 1.048a.381.381 0 0 0 .242.182.55.55 0 0 0 .058.011l-.091.417c-.3 1.35-.3 1.35-.207 1.5a.382.382 0 0 0 .23.176 1.707 1.707 0 0 0-.031.1c-.294.923-.294.923-.2 1.087a.386.386 0 0 0 .234.176h.022l-.074.267c-.272.971-.272.971-.183 1.126a.385.385 0 0 0 .155.147c-.244.57-.25.6-.159.767a.38.38 0 0 0 .236.185l.034.007-.045.164c-.314 1.186-.314 1.186-.221 1.347a.381.381 0 0 0 .223.176c0 .015-.01.031-.016.046-.3.92-.3.92-.209 1.084a.382.382 0 0 0 .219.177 4.592 4.592 0 0 0-.267.931l-.388.236a.4.4 0 0 0-.118-.058l-.03-.005c-.079-.1-.149-.2-.154-.2a.378.378 0 0 0-.228-.174c-.168-.045-.239 0-.6.215a.382.382 0 0 0-.1-.051.357.357 0 0 0-.158-.013l-.166-.142a29.997 29.997 0 0 1-.494-.427.387.387 0 0 0-.188-.109c-.141-.034-.218 0-.432.125a.38.38 0 0 0-.1-.05l-.057-.013c-.053-.071-.1-.139-.162-.217-.271-.362-.576-.768-.6-.806a.38.38 0 0 0-.242-.185.333.333 0 0 0-.2 0c-.021-.412-.026-.421-.078-.505a.387.387 0 0 0-.223-.165.35.35 0 0 0-.168-.01 7.288 7.288 0 0 0-.072-1.139.47.47 0 0 0-.093-.1c.09-.186.189-.385.276-.56.745-1.508.745-1.508.627-1.716a.389.389 0 0 0-.033-.049c.3-.31.637-.656.945-.97 2.232-2.283 2.232-2.283 2.056-2.59a.374.374 0 0 0-.176-.158c.125-.276.123-.345.041-.486a.382.382 0 0 0-.225-.175.326.326 0 0 0-.187 0 .414.414 0 0 0-.105-.052 2.777 2.777 0 0 0-.178-.719.38.38 0 0 0-.229-.177.37.37 0 0 1-.442.014.327.327 0 0 0-.16-.011l-.12-.131c-.229-.25-.47-.514-.485-.523a.379.379 0 0 0-.241-.184c-.132-.034-.208-.008-.4.106a.379.379 0 0 0-.1-.05.344.344 0 0 0-.234.006l-.038-.026-.343-.234a.378.378 0 0 0-.152-.081c-.165-.041-.2-.027-.763.314l-.079.048a1.255 1.255 0 0 0-.046-.086.386.386 0 0 0-.236-.181c-.194-.047-.2-.044-1.375.67-.359.218-.851.516-.945.558l.092.261c-.009 0-.019.006-.028.011a.378.378 0 0 0-.181.393l-.339.275c-2.617 2.113-2.617 2.113-2.411 2.469a.383.383 0 0 0 .228.177l-.121.171c-1.231 1.732-1.231 1.732-1.085 1.984a.382.382 0 0 0 .236.178l-.09.22c-.5 1.2-.5 1.2-.392 1.381a.385.385 0 0 0 .234.176.354.354 0 0 0 .092.009.4.4 0 0 0 .036.041l-.022.149c-.159 1.065-.159 1.065-.083 1.2a.379.379 0 0 0 .24.183l.034.007.006.017c-.13.716-.129.72-.046.862a.344.344 0 0 0 .236.174c-.04.235-.027.272.036.38a.326.326 0 0 0 .384.162.733.733 0 0 0 .058.115.374.374 0 0 0 .048.054l.018.1a4.237 4.237 0 0 0 .212 1.039.385.385 0 0 0 .243.184.348.348 0 0 0 .218-.025.4.4 0 0 0 .05.024l.019.076a2.386 2.386 0 0 0 .177.63.363.363 0 0 0 .519.119c.01.032.02.065.028.1a4.1 4.1 0 0 0 .209.649.385.385 0 0 0 .234.179.412.412 0 0 0 .33-.065.4.4 0 0 0 .063.173.389.389 0 0 0 .124.126c.12.238.226.449.234.461a.378.378 0 0 0 .237.176.368.368 0 0 0 .3-.047.912.912 0 0 0 .1.314c.18.284.447.167.653.048l.121.194c.152.241.306.486.319.509a.38.38 0 0 0 .239.18c.142.037.221 0 .432-.121a.386.386 0 0 0 .082.04.482.482 0 0 0 .232-.012l.286.209c.289.211.591.431.692.51.2.249.473.08.783-.11l.124-.076c.149.07.375.168.724.32.293.128.58.252.7.312.2.194.444.044.858-.209l.153-.093c.106.044.251.1.452.18.249.1.5.2.591.239a.364.364 0 0 0 .114.05.7.7 0 0 0 .723-.291 2.006 2.006 0 0 0 .38-.171c.191.036.473.079.916.146.391.059.92.139 1.062.173a.35.35 0 0 0 .064.023c.18.044.208.023.766-.321.137-.084.258-.158.35-.211a.387.387 0 0 0 .148.08c.178.046.225.021.944-.422.24-.148.475-.3.556-.333l-.068-.187a5.339 5.339 0 0 0 .512-.3c.179-.11.357-.222.423-.253l-.135-.352-.017.01.021-.024c.569-.656.6-.713.461-.95a.377.377 0 0 0-.1-.113c.208-.389.217-.469.112-.643zm-3.7-22.082l.06.154h-.006a.364.364 0 0 0-.06-.149zm1.242.529c.131.1.257.2.351.27-.376.219-.925.553-1.784 1.081l-.056.035c.776-.762 1.194-1.178 1.417-1.442zm-3.262 4.389c.076-.037.156-.078.267-.139a15.7 15.7 0 0 0-.3.24zm0 1.157c.069-.035.138-.07.236-.126-.1.079-.184.144-.267.211zm-.058 1.6l.125-.478c.323-.167.881-.5 1.947-1.152-1.034.872-1.7 1.432-2.12 1.812.01-.057.027-.118.043-.18zm.073 1.248c.13-.067.3-.161.538-.3-.242.187-.43.336-.6.471zm.078 1.2c.387-.2 1.1-.625 2.522-1.5l-.434.4c-1.154 1.06-1.876 1.723-2.318 2.157.034-.158.07-.321.1-.467.05-.238.091-.423.125-.583zm4.58-5.348a1.972 1.972 0 0 0-.139.562c-.325.176-.832.476-1.69 1 .833-.702 1.416-1.196 1.823-1.555zm0 1.726c-.109.058-.243.133-.417.234.169-.131.315-.246.444-.35zm-.009 1.255c-.163.4-.165.468-.077.614a.374.374 0 0 0 .117.124c-.028.06-.044.1-.066.145-.37.2-1.031.6-2.3 1.372l-.326.2.683-.627c.908-.834 1.537-1.412 1.967-1.822zm-.727 8.142c.391-.306.682-.539.911-.729l-.059.25c-.175.091-.433.236-.854.485zm.653-1.75a.48.48 0 0 0 .041.048c-.339.185-.917.535-2.01 1.2l.169-.143c.8-.672 1.367-1.151 1.777-1.507-.066.255-.042.297.021.408zm.2-2.827l-.042.187c-.269.136-.728.407-1.605.942a70.636 70.636 0 0 0 1.72-1.447c-.029.114-.055.227-.081.327zm-.122-1.356c-.17.088-.4.218-.744.422.338-.267.592-.472.808-.651zm-4.636 2.293c.2-.1.5-.271.961-.546-.456.357-.8.627-1.055.841zm-.125 1.883l.021-.075.129-.464c.3-.156.8-.454 1.741-1.03-.9.739-1.491 1.229-1.884 1.571zm.159 1.947c.317-.168.859-.493 1.888-1.122a83.08 83.08 0 0 0-2.057 1.762c.025-.1.05-.192.073-.276.033-.133.065-.252.093-.358zm-.122 1.97l.079-.241c.164-.081.389-.206.727-.4-.344.27-.598.473-.81.648zm4.626-1.237c-.162.088-.37.207-.651.374.241-.188.441-.346.618-.488a.261.261 0 0 0 .029.123zm.021-13.225h-.007l.008-.006zm.054-1.164c-.089.047-.189.1-.317.175.1-.083.189-.152.274-.221a.449.449 0 0 0 .04.054zm-.294-1l-.058.031.055-.047zm-4.061.673c.123-.069.274-.157.474-.276-.242.237-.438.432-.614.607zm-.33 17.187l.059-.178c.156-.081.369-.2.686-.386a39.5 39.5 0 0 0-.759.608zm4.66.024c-.1.386-.1.483-.07.565-.485.241-1.377.759-3.163 1.843 1.611-1.166 2.616-1.909 3.231-2.399zm-8.425.806l.232.2c-.428.244-1.09.644-2.153 1.293a50.784 50.784 0 0 0 1.395-1.283c.142.024.227-.026.505-.2zm-4.7 2.813a.333.333 0 0 0-.211-.157c.376-.22.9-.537 1.7-1.026a44.819 44.819 0 0 0-1.433 1.323.536.536 0 0 0-.055-.131zm3.474-3.346l.04.053c-.413.233-1.081.638-2.22 1.337l-.575.353.206-.217c.959-1.013 1.521-1.608 1.843-1.983a1.088 1.088 0 0 0 .274-.12c.095.136.233.318.433.586zm-6.33.594c-.028 0-.059-.008-.089.005a70.509 70.509 0 0 1-.069-.392v.004c.318-.168.841-.477 1.8-1.06-.818.703-1.328 1.15-1.641 1.452zm-.411-1.384a.326.326 0 0 0-.186-.116c.04-.236.028-.27-.03-.37a.38.38 0 0 0-.106-.115c.454-.236 1.3-.747 3.048-1.825l.313-.192q-1.528 1.306-3.037 2.627zm1-7.007c.29-.166.684-.4 1.273-.758-.626.477-1.138.867-1.566 1.2.129-.18.224-.321.294-.434zM189.076 16c.22-.11.524-.277.969-.536-.431.3-.759.531-1.044.736l.075-.2zm-.365 2.851a.507.507 0 0 0-.078-.015l.04-.266.045-.3c.571-.287 1.8-1.015 4.742-2.8l.251-.153-.727.537c-2.2 1.624-3.441 2.539-4.121 3.088a.378.378 0 0 0-.153-.096zm8.522-7.5a.367.367 0 0 0 .24-.042l.024.115v.016c-.321.161-.8.43-1.569.887.63-.449 1.033-.751 1.304-.979zm-2.3 4.226c-.233.107-.608.318-1.283.723l2.034-1.5c-.315.317-.557.568-.75.774zm-2.562 3.4c1.057-.9 1.788-1.522 2.29-1.965l-.049.1c-.185.374-.321.65-.422.861-.288.137-.833.458-2.047 1.2zm1.976-.016a.488.488 0 0 0 .075-.012v.442c-.309.163-.819.465-1.756 1.036.821-.711 1.343-1.16 1.682-1.473zm2.16-8.264c-.57.32-1.566.92-3.4 2.04l-.611.372c1.845-1.4 2.8-2.139 3.276-2.569.125.019.218-.029.441-.165zm-2.085-.752zm-3.377 13.7l-.094-.312c.373-.213.962-.571 1.938-1.17l.721-.442c-.212.227-.428.454-.625.662-.669.707-1.1 1.164-1.392 1.49l-.006-.011a.362.362 0 0 0-.508-.1c-.011-.052-.022-.09-.033-.128zm5.192 2.778c.763-.442 1.984-1.184 4.019-2.432.591-.363 1.24-.76 1.884-1.152l-1.059.769c-2.561 1.86-3.7 2.686-4.162 3.124a12.143 12.143 0 0 1-.6-.271.375.375 0 0 0-.081-.05zm3.546.785c-.115-.048-.277-.113-.511-.2s-.462-.181-.544-.22a.43.43 0 0 0-.083-.036c.609-.362 1.456-.877 2.663-1.615.818-.5 1.763-1.078 2.61-1.587-.387.343-.783.692-1.142 1.008a36.553 36.553 0 0 0-2.71 2.481 2.344 2.344 0 0 0-.282.161zm2.75-.7a5.618 5.618 0 0 0-.493.451l-.2-.03c.205-.129.427-.266.694-.429zm.594-1.254l.152-.134a161.033 161.033 0 0 0 2.47-2.2c-.134.582-.121.617-.049.74.01.017.028.026.041.041-.402.199-1.141.645-2.613 1.545zM20.638 13.791c-.124-.031-.185-.031-.377.075l.064-.266.068-.278c.794-.672.732-.8.6-1.032a.448.448 0 0 0-.268-.2.442.442 0 0 0-.177-.009.414.414 0 0 0-.249-.184c-.183-.045-.249 0-.623.226l-.15.092c-.223-.04-.588-.084-1.21-.159-.45-.054-1.06-.127-1.215-.159l-.041-.014.058-.661c.126-1.418.126-1.418.042-1.561a.415.415 0 0 0-.241-.188l.055-.485a.275.275 0 0 0 .025-.225v-.011Q17.731 7.535 16.95 7a.324.324 0 0 0-.049-.2.413.413 0 0 0-.014-.239l.038-.328c.167-1.432.167-1.432.082-1.58a.418.418 0 0 0-.22-.183l.065-.458c.176-1.225.176-1.225.09-1.374a.418.418 0 0 0-.245-.191l-.046-.011c0-.169.01-.361.016-.551 0-.166.008-.308.011-.434a.3.3 0 0 0 .008-.356c.008-.477-.008-.513-.066-.616-.22-.346-.575-.13-.742-.027h-.006c-.228-.048-.6-.106-1.242-.205h-.011a.414.414 0 0 0-.068-.033.371.371 0 0 0-.193-.008 23.323 23.323 0 0 1-.994-.167.378.378 0 0 0-.064-.021c-.176-.045-.257 0-.622.225l-.154.094c-.21-.032-.555-.06-1.108-.1a.347.347 0 0 0-.037-.018.364.364 0 0 0-.218 0l-.5-.035C9.97.136 9.035.072 8.821.036a.426.426 0 0 0-.054-.018c-.171-.043-.255 0-.584.2V.213a.418.418 0 0 0-.259-.2C7.734-.028 7.7-.009 7.1.356c-.183.114-.37.231-.437.263L6.816 1l.11-.061L6.817 1l-.1.4a.345.345 0 0 0 .234-.009l-.042.156c-.61 1.4-.611 1.407-.49 1.617a.414.414 0 0 0 .208.18l-.056.347c-.181 1.124-.181 1.124-.1 1.273a.409.409 0 0 0 .2.176l-.049.281c-.184 1.061-.184 1.061-.089 1.226a.4.4 0 0 0 .205.174l-.062.409C6.5 8.419 6.5 8.419 6.587 8.568a.416.416 0 0 0 .207.179l-.064.407c-.187 1.159-.187 1.159-.092 1.325a.406.406 0 0 0 .176.163l-.056.279c-.19.939-.215 1.063-.158 1.182l-.18.11c-.226-.04-.6-.081-1.238-.153-.458-.051-1.078-.12-1.237-.151a.353.353 0 0 0-.051-.017c-.158-.04-.24 0-.5.151a.414.414 0 0 0-.214-.147c-.187-.048-.245-.011-.707.271-.14.085-.277.171-.331.2l.088.21a.409.409 0 0 0-.083.52c.081.132.275.316.667.087l.046.268c.193 1.132.193 1.132.246 1.221a.417.417 0 0 0 .257.193.369.369 0 0 0 .241-.012l.2.384c.2.379.4.758.407.777a.417.417 0 0 0 .259.195.365.365 0 0 0 .246-.014c.092.169.2.375.308.57l.368.682a.418.418 0 0 0 .255.2.379.379 0 0 0 .26-.017l.812 1.431a.417.417 0 0 0 .255.2.377.377 0 0 0 .244-.011l.192.371c.194.376.389.752.4.771a.412.412 0 0 0 .255.191.371.371 0 0 0 .257-.018l.838 1.468a.418.418 0 0 0 .254.195.38.38 0 0 0 .257-.015l.311.563.433.782a.417.417 0 0 0 .259.2.5.5 0 0 0 .471-.137l.121-.072-.178-.372.047-.027-.028-.05.085-.326c-.019 0-.032.006-.049 0 .417-.235 1.1-.645 2.264-1.359l.344-.21-.242.246c-2.378 2.417-2.378 2.417-2.182 2.757a.416.416 0 0 0 .258.2.787.787 0 0 0 .812-.334c.183-.112.365-.225.431-.257l-.092-.227a1.848 1.848 0 0 0 .607-.31c.158-.1.317-.195.376-.224l-.129-.315c.468-.508 1.159-1.229 1.719-1.814 2.571-2.684 2.571-2.684 2.374-3.028a.422.422 0 0 0-.023-.036c.358-.374.772-.8 1.127-1.163 2.3-2.361 2.3-2.361 2.105-2.7a.422.422 0 0 0-.254-.21zM16.09 18.8a.673.673 0 0 0 .035.052l-.185.2c-.123-.014-.278.041-.893.4l.985-.758a.9.9 0 0 0 .058.106zm3.2-3.894l.025.039-.272.283c-.267 0-.879.329-4.847 2.753l1.032-.763a329.552 329.552 0 0 0 4.108-3.06c-.136.59-.119.624-.046.753zm-9.95 5.752l-.455-.8c.786-.413 2.347-1.347 5.687-3.387l1.565-.956c-.474.351-.948.7-1.4 1.036-3.271 2.418-4.757 3.523-5.397 4.107zm9.467-7.708c-.941.548-2.388 1.423-4.668 2.817-.978.6-2.048 1.252-3.018 1.835l1.524-1.256c2.513-2.065 3.659-3.011 4.148-3.515a1.673 1.673 0 0 0 .2-.1l.019-.011c.224.04.588.084 1.2.158zM6.753 17.43l-.195-.343c.57-.3 1.57-.9 3.436-2.031-1.78 1.258-2.74 1.951-3.241 2.374zm-.992-1.052v-.009l-.3-.554c.735-.383 2.209-1.263 5.4-3.213l.085-.053h-.006c-3.14 2.251-4.568 3.283-5.178 3.83zm-1.218-1.526l-.165-.316c.767-.392 2.348-1.335 5.921-3.519l.09-.055-.015.011c-3.522 2.471-5.068 3.563-5.7 4.13zM7.388 3.826l.077-.484a35.23 35.23 0 0 0 1.286-.761C8.133 3.175 7.7 3.6 7.372 3.921zm7.218-2.739c.267.041.556.087.792.126-.64.356-1.754 1.025-3.8 2.275 1.756-1.351 2.615-2.018 3.007-2.402zM16 4.109c-.047.325-.079.558-.1.713-.523.266-1.557.88-3.8 2.251 2.041-1.524 3.224-2.411 3.9-2.964zm.124 1.82l-.024.213-.031.265c-.4.192-1.166.635-2.787 1.617C14.7 7 15.587 6.356 16.125 5.929zm-.308-2.976c-.547.281-1.626.922-3.946 2.338l.1-.078c1.982-1.492 3.16-2.381 3.853-2.946-.006.343-.009.55-.006.685zM7.549 9.286l.082-.516c.5-.247 1.526-.851 3.848-2.267-2.106 1.573-3.3 2.47-3.967 3.019.011-.079.023-.156.037-.236zm.022 1.8l.082-.408c.4-.2 1.156-.632 2.7-1.568-1.388 1-2.259 1.635-2.8 2.062zm3.9-6.535C9.333 6.162 8.123 7.075 7.458 7.629c.013-.09.026-.18.041-.273l.077-.519c.512-.253 1.568-.879 4-2.367zM7.42 5.686l.021-.12.068-.4c.363-.183 1.01-.566 2.261-1.322-1.142.878-1.878 1.449-2.35 1.842zm8.747 2.156c.033.021.052.06.09.072-.021.189-.044.4-.067.592-.543.234-1.785.961-5.157 3.019 2.84-1.994 4.349-3.06 5.134-3.683zm-.124 2.021c-.022.289 0 .338.053.431a.443.443 0 0 0 .105.115c-.519.231-1.663.9-4.627 2.712 2.336-1.675 3.691-2.65 4.469-3.259zm.2 1.74c-.016.179-.027.316-.036.436-.416.2-1.194.649-2.792 1.615 1.412-.996 2.292-1.628 2.832-2.054zM12.486 1.176a.461.461 0 0 0 .063.008c-.513.307-1.164.7-2.016 1.223l-1.11.678.021-.021c1.131-1.088 1.716-1.653 2.009-1.992.448.033.849.066.98.088a.41.41 0 0 0 .053.016zM8.732.858c.208.032.549.06 1.088.1l-.9.55c-.362.221-.786.48-1.154.7l.072-.181c.152-.379.261-.65.34-.856a2.423 2.423 0 0 0 .4-.22zM3.856 12.733c.227.039.6.081 1.234.152l.436.049c-.679.4-1.246.725-1.589.9l-.131-.5-.129-.491.024-.015zm3.437 5.552c.606-.311 1.847-1.049 4.616-2.741.5-.308 1.04-.635 1.565-.954-.454.375-.918.756-1.356 1.116-2.325 1.911-3.485 2.867-4.033 3.4-.17-.328-.324-.626-.334-.643a.415.415 0 0 0-.251-.19.355.355 0 0 0-.207.012zm3.207 3.693l-.3-.548a.4.4 0 0 0-.048-.055c.657-.358 1.876-1.089 4.271-2.553l.412-.251-.317.244c-2.293 1.76-3.454 2.654-4.018 3.163zm12.365 5.597a.235.235 0 0 0 .045-.023.23.23 0 0 0 .071-.318.191.191 0 0 0-.215-.1l.033-.1c.222-.71.222-.71.164-.811a.2.2 0 0 0-.212-.11.242.242 0 0 0-.146-.109.224.224 0 0 0-.091-.007c-.037-.283-.042-.306-.064-.347a.234.234 0 0 0-.144-.113c-.109-.027-.125-.018-.529.23-.093.057-.186.115-.249.151L21.5 25.9l-.019-.036a.244.244 0 0 0-.146-.11c-.059-.014-.1-.021-.249.051l-.356-.076c-.3-.064-.708-.15-.8-.179a.261.261 0 0 0-.047-.018c-.11-.027-.125-.018-.526.228l-.188.115-.082-.078c-.081-.077-.172-.155-.172-.155a.227.227 0 0 0-.144-.109c-.1-.028-.121-.018-.523.227l-.186.113-.083-.081a5.924 5.924 0 0 0-.164-.149.23.23 0 0 0-.144-.109c-.111-.029-.126-.016-.521.227l-.106.065a.239.239 0 0 0-.091-.069.21.21 0 0 0-.1-.006l-.11-.109a.228.228 0 0 0-.142-.106c-.112-.029-.126-.015-.521.226-.091.056-.182.112-.244.148a18.85 18.85 0 0 0-.793-.173c-.3-.063-.709-.148-.8-.177a.237.237 0 0 0-.049-.018c-.112-.03-.126-.015-.521.226-.088.054-.176.109-.237.144a8.214 8.214 0 0 0-.3-.072.237.237 0 0 0-.106-.08.241.241 0 0 0-.175.019l-.18-.039a18.165 18.165 0 0 1-.778-.175.264.264 0 0 0-.051-.019c-.1-.026-.119-.018-.514.224l-.191.116-.115-.094c-.095-.077-.19-.154-.22-.18a.226.226 0 0 0-.108-.062c-.1-.027-.12-.019-.517.224l-.222.135c-.07-.028-.179-.068-.317-.119-.013-.006-.021-.022-.035-.026a.28.28 0 0 0-.06-.009c-.2-.073-.395-.145-.457-.173a.231.231 0 0 0-.066-.028c-.1-.025-.119-.019-.512.222l-.215.131a11.645 11.645 0 0 0-.3-.141c-.154-.072-.309-.144-.358-.172a.241.241 0 0 0-.079-.036c-.105-.025-.118-.018-.51.221l-.12.073c-.048-.091-.093-.178-.1-.182a.231.231 0 0 0-.145-.11c-.1-.025-.118-.019-.512.222l-.231.141c-.124-.031-.34-.071-.7-.136-.009 0-.014-.015-.023-.017a.206.206 0 0 0-.1-.006l-.058-.01c-.333-.06-.781-.141-.884-.17a.189.189 0 0 0-.042-.016c-.1-.03-.123-.021-.51.217a17.26 17.26 0 0 1-.233.141 9.649 9.649 0 0 0-.528-.108c-.021-.014-.034-.038-.059-.044a.209.209 0 0 0-.141.007l-.124-.023c-.318-.059-.747-.14-.847-.167a.214.214 0 0 0-.042-.016c-.106-.029-.122-.02-.507.215-.1.063-.2.121-.255.153a.233.233 0 0 0-.027-.062.193.193 0 0 0-.17-.1.193.193 0 0 0-.033-.1c-.125-.2-.318-.08-.433-.009l-.083.05a.238.238 0 0 0-.033.017.23.23 0 0 0-.076.317.21.21 0 0 0 .136.106l-.05.265c-.141.737-.141.737-.088.827a.229.229 0 0 0 .143.107h.03a.175.175 0 0 0 .03.094.235.235 0 0 0 .145.11.207.207 0 0 0 .152-.009l.012.047a3.859 3.859 0 0 0 .173.646.228.228 0 0 0 .143.11.5.5 0 0 0 .527-.229l.248-.15h.017l.019.036a.244.244 0 0 0 .146.11.275.275 0 0 0 .245-.049l.334.074c.29.064.681.15.773.179a.23.23 0 0 0 .049.019c.109.028.125.015.518-.224.09-.055.18-.111.242-.147l.03.009.014.026a.241.241 0 0 0 .146.11.261.261 0 0 0 .207-.031l.2.055c.23.063.541.149.618.176a.221.221 0 0 0 .05.021c.106.027.124.02.518-.221.091-.056.183-.113.244-.149l.026.006.017.031a.244.244 0 0 0 .146.11c.059.014.1.019.255-.055l.443.082c.332.061.782.144.886.173a.216.216 0 0 0 .047.018c.105.024.118.018.511-.221l.112-.069a8.5 8.5 0 0 0 .088.182.235.235 0 0 0 .143.106c.106.027.124.016.508-.22.085-.051.168-.1.228-.138l.046.021.007.013a.246.246 0 0 0 .332.087l.158.045c.252.072.5.142.583.171a.233.233 0 0 0 .054.022c.107.03.123.018.507-.216l.226-.137.052.015.007.013a.245.245 0 0 0 .146.11.256.256 0 0 0 .2-.028l.2.051c.221.057.514.132.613.163.119.078.274-.012.347-.055l.226-.137.218-.133.053.016v.009a.244.244 0 0 0 .146.11.249.249 0 0 0 .2-.027l.209.053c.235.059.552.138.63.164a.226.226 0 0 0 .049.019c.112.028.123.018.5-.213l.188-.115.163.107c.107.07.214.14.25.165a.227.227 0 0 0 .093.049c.108.027.119.019.495-.211L16.5 28l.167.107c.108.069.217.138.252.163a.243.243 0 0 0 .093.048c.107.027.121.018.492-.209l.207-.126.1.035a.242.242 0 0 0 .122.091.223.223 0 0 0 .139-.006l.082.027c.208.067.416.133.482.16a.236.236 0 0 0 .059.024c.108.028.131.012.491-.208l.21-.127.072.017a.242.242 0 0 0 .146.11.255.255 0 0 0 .2-.03l.264.058c.257.056.6.131.688.157a.287.287 0 0 0 .048.018c.1.027.126.012.482-.2l.2-.122.118.038a.23.23 0 0 0 .107.082.193.193 0 0 0 .136-.007l.107.033c.214.065.428.128.5.154a.181.181 0 0 0 .045.019c.1.031.156 0 .3-.09l.091-.054-.1-.208-.074.218.141-.439c-.1-.03-.158 0-.3.09l-.014.009-.09-.029a1.278 1.278 0 0 0 .246-.13c.06-.041.123-.08.156-.098zm-.851-1.426l.049-.03.008.066v.015c-.225.131-.561.335-1.09.659l-.292.178c.3-.335.49-.551.618-.706l.128.032a.265.265 0 0 0 .047.018c.113.024.128.019.532-.232zm-4.143 1.4l.328-.2c-.108.1-.18.163-.246.227zm-1.2.011l.336-.2c-.118.1-.2.182-.269.249zm2.271-1.279a.227.227 0 0 0 .057.043l-.3.182c.107-.091.178-.158.243-.221zm1.344-.179l.2.042c-.165.1-.354.213-.6.364a2.74 2.74 0 0 0 .4-.402zm-2.9.051l.185-.113.083.081a1.078 1.078 0 0 0 .164.147c.008.015.027.017.038.029l-.717.436-.816.5.119-.167c.219-.309.367-.519.473-.677.075.011.145-.032.472-.232zm-2.96.917c.325-.457.5-.708.6-.867.285.059.622.13.716.157l-.617.376c-.255.155-.547.334-.812.494zm-1.038-.687c.106.028.123.019.519-.222.091-.055.183-.112.245-.148l.118.029c-.254.149-.61.365-1.154.7-.232.141-.5.3-.742.452l.086-.114c.29-.38.472-.62.585-.782.138.031.253.057.3.071a.277.277 0 0 0 .044.019zm-3.488.011c.1.026.119.018.51-.221l.191-.116.123.1c.093.076.186.151.213.175a.235.235 0 0 0 .046.027l-.642.391c-.353.216-.782.478-1.106.669l.156-.384c.141-.346.23-.569.29-.727.065.025.125.047.152.059a.234.234 0 0 0 .067.027zm-1.745-.034a.235.235 0 0 0 .078.036.192.192 0 0 0 .138-.009l-.6.363c-.256.157-.554.339-.821.5l.119-.169c.369-.524.553-.786.634-.936l.09.042c.157.073.307.145.362.173zM5.9 26.4c.105.031.121.021.51-.217l.123-.075.068.13-1.863 1.13.166-.316c.2-.382.326-.622.4-.78.249.046.486.091.558.11a.188.188 0 0 0 .038.018zm-2.266-.076l.229-.138.231-.14c.079.02.2.043.357.074-.248.147-.58.348-1.056.64-.331.2-.729.445-1.043.633.055-.113.11-.229.162-.333.18-.367.293-.6.365-.759.183.035.346.067.415.085.123.065.272-.023.344-.065zm-2.479 0l.227-.137c.085-.052.17-.1.229-.139.088.022.224.049.418.086l-.56.34c-.2.124-.437.266-.641.389a.223.223 0 0 0-.026-.06c-.009-.015-.028-.017-.04-.03l.013-.067.059-.315a.373.373 0 0 0 .325-.066zm-.012 1.412l-.083.05a12.49 12.49 0 0 0-.073-.295l-.04-.162c.179-.106.417-.251.762-.462l.544-.331c-.052.108-.1.217-.154.316-.155.318-.258.53-.331.687l-.051-.013a.235.235 0 0 0-.047-.019c-.107-.028-.119-.018-.523.23zm2.349 0c-.09.055-.179.11-.24.145-.111-.031-.3-.073-.594-.139.241-.144.551-.332.979-.593.319-.2.7-.429 1.012-.614l-.157.3c-.174.331-.288.55-.367.709l-.025-.005c-.111-.107-.253-.019-.6.197zm2.023 0l-.232.141c-.072-.023-.191-.057-.336-.1.248-.147.576-.346 1.043-.632l.819-.5-.119.169c-.244.347-.4.572-.508.732-.041-.009-.083-.018-.1-.023a.251.251 0 0 0-.047-.017c-.106-.026-.123-.014-.516.227zm2.573 0l-.235.143a16.403 16.403 0 0 0-.785-.154c.236-.141.54-.326.945-.573.353-.216.782-.478 1.106-.669l-.156.384c-.136.334-.224.553-.284.71-.026-.022-.046-.053-.081-.061-.098-.035-.115-.027-.506.212zm2.771 0l-.223.135a8.746 8.746 0 0 0-.264-.079c.249-.147.582-.349 1.062-.642.232-.142.5-.3.744-.452l-.087.115c-.277.364-.453.6-.567.757a2.282 2.282 0 0 1-.107-.031.215.215 0 0 0-.05-.02c-.106-.04-.121-.029-.504.206zm2.012 0l-.224.136c-.073-.022-.19-.053-.333-.091.247-.146.574-.345 1.039-.629.254-.155.546-.334.812-.493l-.117.164c-.255.359-.418.589-.525.75l-.1-.03a.237.237 0 0 0-.049-.019c-.109-.044-.122-.034-.499.197zm2.015 0l-.22.133a9.799 9.799 0 0 0-.341-.09c.247-.146.573-.345 1.035-.627.256-.156.551-.336.817-.5l-.116.163c-.271.382-.441.622-.546.784l-.042-.028a.226.226 0 0 0-.094-.049c-.102-.04-.114-.033-.489.196zm4.053 0l-.205.125-.1-.034c.253-.149.6-.358 1.117-.675l.515-.314c-.321.36-.523.588-.652.746-.062-.015-.115-.027-.14-.035a.273.273 0 0 0-.048-.018c-.104-.05-.126-.039-.483.182zm2.111 0l-.207.126c-.086-.023-.238-.057-.43-.1.2-.122.463-.279.807-.49.262-.16.572-.349.833-.505l-.1.2c-.138.282-.23.472-.3.612l-.071-.023a.252.252 0 0 0-.058-.023c-.091-.051-.114-.038-.47.179z" id="text"/></svg>