<svg xmlns="http://www.w3.org/2000/svg" viewBox="0 0 144.26 28.35"><defs><style>.cls-1,.cls-2{fill:none;stroke:#f03c00;stroke-linecap:round;stroke-linejoin:round;stroke-width:1.13px}</style></defs><title>tit_movie</title><g id="レイヤー_2" data-name="レイヤー 2"><g id="text"><path class="cls-1" d="M10.84 4.93c.09.16 6.15-3.76 6.24-3.6s-5.43 4.05-5.34 4.2 6.51-4 6.6-3.81-4.28 5.45-4.2 5.6S21.28 3 21.38 3.14 15.91 8.54 16 8.71s7.08-4.33 7.18-4.15-6.48 4.57-6.38 4.75 7-4.25 7.05-4.07-4.56 5.84-4.46 6 6.13-3.75 6.22-3.59-4.17 5-4.09 5.18 5-3.08 5.11-3-4.56 3.3-4.49 3.42 4.64-2.83 4.71-2.72c.21.36-13.09 10.31-12.88 10.67s13.19-8.06 13.39-7.73S12.75 21.65 13 22s14.22-8.69 14.43-8.33"/><path class="cls-1" d="M5.51 4.35c.07.11 4.49-2.71 4.49-2.6S1.72 9.39 1.86 9.64 16.23.86 16.44 1.23.91 12.31 1.15 12.73c.12.21 8.41-5.14 8.54-4.93S.9 13.61 1 13.84s8.52-5.21 8.65-5S1.14 16.71 1.29 17s8.27-5.06 8.4-4.85-7.58 7.4-7.44 7.63 7.34-4.48 7.44-4.3S2.83 20.84 2.94 21s6.65-4 6.75-3.87S4.27 22.79 4.37 23s5.24-3.2 5.32-3.07-4.33 4-4.25 4.15 4.19-2.56 4.25-2.46-3 3.47-2.91 3.57 3.09-1.89 3.14-1.81S8.49 26 8.53 26.11c.27.47 18.54-11.33 18.81-10.86s-15.82 11.53-15.57 12 14.66-9 14.87-8.59-8.36 7.84-8.22 8.09 4.45-2.72 4.51-2.6"/><path class="cls-1" d="M10.83 5.48s.82-.5.83-.48l1.17 2s.82-.5.83-.48-.77.48-.76.48.82-.5.83-.48-.62.63-.61.65.82-.5.83-.48l1 1.86s.82-.5.83-.48 1.79 2.39 1.83 2.46.82-.5.83-.48-.56.67-.55.69.82-.5.83-.48l1 1.88s.82-.5.83-.48 0 1.12.06 1.15.82-.5.83-.48.43 1.4.45 1.43.77-.47.78-.45-3.2 3-3.15 3.11 3.45-2.11 3.5-2c.16.27-10.61 6.92-10.45 7.2s6.49-4 6.59-3.8"/><path class="cls-1" d="M9.42 5.22s1.23-.75 1.25-.72-1.4 1.85-1.37 1.9.87-.53.88-.51-.93 3.61-.88 3.69.87-.53.88-.51S9.26 12 9.3 12s.87-.53.88-.51-.91 1.54-.88 1.57.87-.53.88-.51-.93 3.84-.88 3.93.87-.53.88-.51-.93 3.26-.88 3.33.87-.53.88-.51-.9 1.3-.88 1.34.87-.53.88-.51-.79 3.58-.74 3.66.76-.46.77-.45.1 1.05.12 1.08 2.83-1.73 2.87-1.66M10.43 2c0 .06 2.35-1.44 2.38-1.38s-1.13 1-1.11 1S13.53.52 13.55.57s3.17 1 3.21 1.07 1-.63 1-.6l.94 1.21s1-.6 1-.57l1 1.57s.88-.54.9-.52.4 1.34.4 1.37.8-.49.82-.47.69 1.8.72 1.84.76-.47.77-.45 1 2.91 1 3 .75-.46.76-.44.1 2.34.13 2.39.77-.47.78-.45-.78.47-.77.49.77-.47.78-.45-.33 1.94-.3 2 .77-.47.78-.45-.53 3-.49 3.09.82-.5.83-.48-1 1.91-1 2 .92-.56.94-.54-1.56 3.13-1.52 3.21 1.1-.67 1.12-.65-2.62 3.6-2.57 3.7 1.44-.88 1.46-.84-3 2.58-3 2.67 2.15-1.32 2.18-1.26-2.91 1.78-2.86 1.86 2.5-1.53 2.54-1.47"/><path class="cls-1" d="M5.23 3.94c.07.11 4.51-2.76 4.58-2.64S1.3 9 1.45 9.3c0 0 1.3-.8 1.32-.76S.62 12.32.68 12.41s.92-.56.94-.54-1.07 1.61-1 1.65.87-.52.88-.52-.8 3.61-.75 3.7.82-.5.83-.48 0 3.26 0 3.34.77-.47.78-.45-.11 1.7-.09 1.73.75-.46.76-.44.54 2.37.57 2.43.76-.47.77-.45.16 1.56.18 1.59.8-.49.82-.47.51 1.55.53 1.58.8-.49.82-.47l.78 1.52s.88-.54.9-.52 2 1.7 2.08 1.76 1-.62 1-.6 4.35.91 4.41 1 2.57-1.57 2.61-1.51.09.87.1.89 4.51-2.76 4.58-2.64"/><path class="cls-2" d="M58.9 14.88c.1.12 6.1-3.7 6.1-3.55s-5.81 4-5.72 4.18 5.76-3.52 5.85-3.38-5.62 5.45-5.52 5.62 5.78-3.53 5.87-3.39-5.69 5-5.6 5.21 5.8-3.54 5.88-3.4-5.65 5.46-5.55 5.63 5.82-3.55 5.9-3.41-5.89 3.92-5.8 4.07 5.82-3.56 5.91-3.41-5.82 4.47-5.73 4.63 5.83-3.56 5.92-3.42-5.87 4.18-5.78 4.33 5.84-3.57 5.93-3.42-5.62 4.29-5.56 4.44 5.64-3.45 5.73-3.31-3.5 4.27-3.43 4.39 3.72-2.27 3.77-2.18-1.78 2.12-1.75 2.18 1.56-1 1.58-.91M56.56 3.1c0 .05 2-1.23 2.05-1.18s-2.31 1.5-2.28 1.56 2.76-1.69 2.8-1.62-3.95 4.34-3.87 4.46 7.3-4.46 7.41-4.32-8.15 5.82-8 6 8.77-5.36 8.89-5.14-9.2 5.4-9.07 5.63S63.54 3 63.68 3.26s-10.3 7.72-10.14 8 10.39-6.35 10.54-6.08S53 12.05 53.16 12.34 64 5.69 64.2 6 52.86 12.45 53 12.73 64.09 6 64.25 6.25s-11.65 6.91-11.48 7.21 11.39-7 11.56-6.67-12 7.13-11.82 7.43S64.25 7 64.42 7.34"/><path class="cls-2" d="M46.4 14.88c.07.12 4.6-2.78 4.6-2.66s-3.79 4.58-3.72 4.71 4.33-2.65 4.4-2.54-3.89 4.1-3.82 4.22c.26.39 16.56-10.11 16.8-9.69s-16.79 10-16.55 10.38 16.43-10 16.67-9.62S48.24 20 48.49 20.38 64.73 10.45 65 10.86 48.43 20.5 48.67 20.91c.13.23 9.11-5.57 9.24-5.34s-9.26 5.43-9.12 5.67 8.83-5.39 9-5.17-8.35 7.08-8.22 7.32 7-4.27 7.09-4.09-5.91 6.05-5.8 6.24 4.47-2.73 4.54-2.62-2.93 3.08-2.88 3.14 1.94-1.18 2-1.13"/><path class="cls-2" d="M41.69 3s1.88-1.15 1.91-1.1-2.49 3.25-2.43 3.34S46.7 1.83 46.78 2s-6 5-5.87 5.2 7-4.28 7.11-4.1-7.25 4.18-7.14 4.37 7.12-4.4 7.24-4.22-7.69 6.35-7.56 6.56 8.1-5 8.22-4.75-8.65 6.75-8.52 7 8.93-5.46 9.07-5.23-9.63 8.06-9.47 8.33S49.94 9 50.09 9.24s-10.67 7.67-10.5 8 10.84-6.63 11-6.35-11.5 8.48-11.32 8.79c.09.15 6-3.69 6.12-3.53s-6.39 4.47-6.27 4.64 6-3.7 6.14-3.54-6.52 5.45-6.41 5.64 6.08-3.72 6.17-3.56-6.45 4.67-6.35 4.83 6.1-3.73 6.19-3.57S38.91 25.83 39 26s5.52-3.37 5.6-3.23-2.82 3.81-2.76 3.92 2.26-1.38 2.29-1.32-1.94 1.26-1.92 1.31 1.79-1.1 1.82-1"/><path class="cls-2" d="M43.83 2.27s1.61-1 1.64-.95-.84.89-.83.91 1.49-.91 1.51-.87-.93.82-.91.85 1.35-.82 1.37-.79.39 1.12.39 1.15.83-.51.84-.49.09 1.65.12 1.69.75-.46.76-.44-.55 1.15-.53 1.17.77-.47.78-.45-.73.64-.72.66.77-.47.78-.45-.59 1.08-.58 1.11.77-.47.78-.45S48.64 6 48.65 6s.77-.47.78-.45-.21 2.35-.18 2.45.75-.52.75-.5-.54 1.24-.53 1.27.77-.47.78-.45-.72.68-.71.7.77-.47.78-.45-.43 1.61-.41 1.65.77-.47.78-.45-.37 1.82-.34 1.86.77-.47.78-.45-.65.9-.63.93.77-.47.78-.45-.28 1.88-.28 1.92.77-.47.78-.45-.27 1.74-.25 1.78S53 14 53 14.07s-1.19 1-1.17 1 1-.61 1-.59"/><path class="cls-2" d="M56.23 2.75c0 .05 2.15-1.31 2.18-1.26s-3.74 4.73-3.66 4.86 1.15-.7 1.17-.67-1.24.79-1.22.82 1.15-.7 1.17-.67-1.54 1.61-1.51 1.66 1.15-.7 1.17-.67-2.39 3.9-2.33 4 1.15-.7 1.17-.67-2.2 3.41-2.15 3.5 1.15-.7 1.17-.67m5.4-10.69s1.6-1 1.63-.94 1.91 1 1.94 1 .86-.53.87-.5.3 2.59.33 2.65.81-.49.82-.47-.8.64-.79.66.81-.49.82-.47-.75 1-.73 1 .81-.49.82-.47S63.77 6 63.79 6s.81-.49.82-.47-.53 2.48-.5 2.54.81-.49.82-.47-.52 2.57-.48 2.63.81-.49.82-.47-.5 2.68-.47 2.74.81-.49.82-.47-.52 2.55-.49 2.61.81-.49.82-.47-.66 1.58-.64 1.61.81-.49.82-.47-.76.94-.74 1 .81-.49.82-.47-.56 2.27-.53 2.32.81-.49.82-.47-.75 1-.73 1 .81-.49.82-.47-.75 1-.73 1 .81-.49.82-.47-.57 2.25-.54 2.25.81-.49.82-.47-.56 2.28-.53 2.33.81-.49.82-.47-.66 1.62-.63 1.66.81-.49.82-.47-.83 1.82-.81 1.86.94-.58 1-.55"/><path class="cls-2" d="M58.83 15.48s.74-.45.75-.43-.58 1.77-.58 1.82.82-.5.83-.48-.51 2.85-.47 2.91.82-.5.83-.48-.52 2.77-.48 2.84.81-.5.83-.48-.64 1.84-.62 1.88.81-.5.82-.48-.5 2.44-.47 2.5.76-.47.77-.45 0 1.75 0 1.78.83-.51.84-.48l.83 1.19s1.45-.88 1.47-.85 1.26.84 1.28.87 1.73-1.06 1.75-1m-9.57-11.01s1.19-.73 1.21-.7-1.63 1.74-1.6 1.8 1.16-.71 1.17-.68-2.29 3.63-2.24 3.72 1.15-.71 1.17-.68-2.09 3.08-2 3.16 1.15-.71 1.17-.68-2.34 3.45-2.28 3.54 1.29-.79 1.31-.76"/><path class="cls-2" d="M46.29 15.48s.71-.48.77-.48-.71.63-.7.65.78-.48.79-.46-.15 2.3-.15 2.35.78-.47.79-.45-.4 1.59-.38 1.62.77-.47.79-.45-.69.76-.67.78.77-.47.79-.45-.19 2.2-.17 2.24.77-.47.78-.45-.55 1.14-.54 1.17.77-.47.78-.45-.7.69-.69.72.77-.47.78-.45-.63.91-.61.93.77-.47.78-.45-.51 1.24-.5 1.27.77-.47.78-.45-.32 1.79-.3 1.83.76-.47.77-.45-.38 1.11-.36 1.13.74-.45.75-.43.18 1.3.19 1.33.9-.55.91-.53-.55.75-.54.77 1.11-.68 1.13-.65-.28.81-.27.83 3.15-1.93 3.2-1.85-2.52 1.78-2.48 1.84 2.07-1.26 2.1-1.21m-9.66-10.13s1.16-.71 1.18-.68-1.62 3.39-1.57 3.47.94-.57 1-.55S44.47 20 44.5 20.1s.94-.57 1-.55-1.12 1.39-1.1 1.45.94-.57 1-.55-1.14 1.89-1.11 1.94.94-.57 1-.55-1.05 1.2-1 1.24.94-.57 1-.55-1 .94-1 1 .94-.57 1-.55-1.37 2.35-1.34 2.41 1.12-.68 1.13-.65"/><path class="cls-2" d="M41.33 2.63c0 .05 2-1.24 2.06-1.19s-2.72 3.38-2.66 3.47.95-.58 1-.56-1.25 2.46-1.22 2.52.95-.58 1-.55-1 .79-1 .82.95-.58 1-.55-1.31 2.86-1.27 2.93.95-.58 1-.55-1.29 2.73-1.26 2.8.95-.58 1-.55-1.42 3.57-1.37 3.65.95-.58 1-.55-1.27 2.54-1.23 2.61.95-.58 1-.55-1.32 2.92-1.28 3 .95-.58 1-.55-1.14 1.66-1.11 1.7.95-.58 1-.55-1.27 2.59-1.24 2.65.95-.58 1-.55-1.16 1.78-1.13 1.83.95-.58 1-.55-.89 2.48-.86 2.54.74-.45.75-.43l1.07 1.71s1.45-.88 1.47-.85-.31.86-.3.88 3.34-2 3.39-2-2.44 1.86-2.4 1.93 2-1.25 2.07-1.2m33.95-13.47c.07.13 5-3 5-2.91s-2.41 3.82-2.35 3.92 4.56-2.79 4.63-2.67-3.45 3.86-3.38 4 4.64-2.83 4.7-2.72S83 15.28 83 15.4s4.76-2.91 4.83-2.79-4.35 3.64-4.28 3.77 4.79-2.93 4.86-2.81-4.76 3.22-4.68 3.35 4.88-3 5-2.86-4.92 3.06-4.85 3.19 4.94-3 5-2.89-4.64 5.06-4.56 5.21 5.2-3.18 5.28-3-6 5.91-5.89 6.09 6-3.66 6.07-3.51"/><path class="cls-2" d="M73.42 11.58c.05.1 3.75-2.29 3.8-2.2s-5.88 5.1-5.78 5.27S81.12 8.74 81.26 9 70.79 16.47 71 16.75s6-3.75 6.1-3.55-6.27 3.65-6.18 3.8 5.73-3.5 5.82-3.36S70.8 19 70.9 19.22s5.18-3.17 5.25-3-4.94 4.73-4.86 4.88 5-3.07 5.1-2.94-4.17 5.08-4.09 5.22 5-3 5-2.91-4.08 4.08-4 4.21 4.91-3 5-2.88-3.37 4-3.31 4.16 4.85-3 4.92-2.84-4 3.24-4 3.36 5-3 5-2.91-2.81 3.43-2.75 3.55c.17.29 11.28-6.89 11.44-6.61s-9.84 6.49-9.69 6.77 9.15-5.59 9.29-5.36-5.42 4.83-5.33 5 3.37-2.06 3.42-2"/><path class="cls-2" d="M78.9 13s1.1-.72 1.1-.69v.89c0 .02.86-.53.88-.51l.94 1.89s.77-.47.78-.45.18 1.82.2 1.87.75-.46.76-.44 0 2.36 0 2.42.77-.47.78-.45-.65 1.06-.63 1.08.81-.5.82-.48-.72 1.68-.69 1.72.82-.5.83-.48-.9 1.47-.88 1.5.94-.57 1-.55-1.44 1.85-1.41 1.9 1.23-.75 1.25-.72"/><path class="cls-2" d="M76.52 13.27s1.91-1.17 1.94-1.12-2.13 1.41-2.1 1.46S78.94 12 79 12.1s-3.27 4-3.2 4.07.9-.55.91-.52-.78 1.79-.76 1.84.81-.5.83-.48-.8.82-.78.85.81-.5.83-.48-.28 2.24-.25 2.29.76-.46.77-.44-.48 1.1-.46 1.12.75-.46.76-.44-.62.65-.61.67.75-.46.76-.44-.49.84-.48.86.75-.46.76-.44-.3 1.12-.29 1.15.75-.46.76-.44.29 1.45.31 1.48.78-.48.79-.46-.09.95-.08 1 .86-.53.88-.51l.54 1.13S82.48 23 82.5 23s-1 1-1 1 2.62-1.6 2.66-1.53S82 24 82 24s1.94-1.18 2-1.14M77.63 9.65c0 .05 2.06-1.26 2.09-1.21s2.58 1 2.62 1 1.06-.65 1.08-.62 1.11 1.32 1.14 1.36.86-.53.87-.5-.22.92-.21.94.86-.52.87-.5.12 1.19.14 1.22.8-.49.81-.47-.4.85-.39.87.79-.48.8-.46-.56.69-.54.71.78-.48.79-.46.47 2.23.5 2.28.75-.46.76-.44.15 2.72.18 2.78.76-.46.77-.44-.5 2.7-.47 2.76.81-.5.82-.48-1 2.33-1 2.38 1-.59 1-.57-1.41 1.79-1.38 1.84S90 21 90 21s-1.3 1-1.28 1 1.16-.71 1.17-.68-2.4 2.68-2.36 2.81 1.62-1 1.64-.95-2.17 1.36-2.1 1.42S89 23.44 89 23.49"/><path class="cls-2" d="M73.11 11.18c.06.1 3.78-2.31 3.84-2.22s-6.05 5.2-6 5.38 1.33-.82 1.35-.78-1.93 2.83-1.89 2.9 1-.6 1-.58-1 .81-1 .84 1-.6 1-.57-1.1 2.75-1.06 2.81.83-.51.84-.49-.52 2.3-.49 2.36.77-.47.78-.45.1 2.72.14 2.78.76-.47.77-.45.12 1.77.15 1.81.78-.48.79-.46.65 1.82.68 1.86.87-.53.88-.51 0 1 0 1 .91-.55.92-.53l1 1.34s1.06-.65 1.07-.62.31 1 .33 1 1.31-.8 1.33-.77 2 .85 2 .9 2-1.25 2.07-1.2l.54.74c0 .08 3.34-2 3.39-2m17.91-14.65s2-1.2 2-1.15-3.1 4.2-3 4.31 6-3.64 6-3.49-6.79 5.68-6.68 5.87 6.17-3.77 6.26-3.62-6.62 4.41-6.52 4.59 6.12-3.74 6.21-3.58-6.72 4.93-6.61 5.12 6-3.69 6.12-3.53-6.42 4.13-6.32 4.29 6-3.66 6.07-3.51-6.29 3.81-6.2 4 6-3.64 6-3.49-6.42 4.35-6.32 4.52 5.9-3.61 6-3.46"/><path class="cls-2" d="M93.93 10.32s1.52-.93 1.54-.89-1.53 2.73-1.49 2.8 4.16-2.54 4.22-2.43-3.88 3.89-3.81 4 4.7-2.87 4.76-2.75-4.78 2.84-4.71 3 4.73-2.89 4.8-2.77-4.38 4.55-4.31 4.68 4.64-2.83 4.7-2.72-4.32 4.39-4.24 4.52S99.95 15 100 15.07s-4.06 5-4 5.16 4.43-2.71 4.5-2.6-4.15 4.12-4.08 4.25 4.36-2.66 4.42-2.55-4 4.39-3.92 4.52 4.36-2.66 4.42-2.55-4.25 3.36-4.19 3.48c.16.28 10.84-6.63 11-6.35s-10.17 7.45-10 7.72 9.14-5.59 9.27-5.35-8.2 5.62-8.08 5.84S106.9 22 107 22.22s-4.28 4.34-4.2 4.47 3.37-2.06 3.42-2-2.43 1.86-2.39 1.93 1.93-1.18 2-1.13"/><path class="cls-2" d="M95.71 9.84s1.5-.92 1.52-.88 0 .87 0 .89 1-.62 1-.6.58 2 .6 2.08.75-.46.76-.44-.43 2.16-.4 2.21.8-.49.81-.47-.4 2.58-.37 2.64.8-.49.81-.47-.7 1.08-.68 1.11.8-.49.81-.47-.59 1.61-.57 1.65.8-.49.81-.47-.65 1.33-.63 1.36.8-.49.81-.47-.61 1.52-.59 1.55.8-.49.81-.47-.37 2.55-.34 2.61.77-.47.78-.45 0 1.1 0 1.12 1.16-.71 1.18-.68"/><path class="cls-2" d="M105.11 10.27c0 .05 2.08-1.27 2.11-1.22s-2.32 1.51-2.29 1.57S107.76 8.9 107.8 9s-3.8 4.24-3.8 4.37 1.06-.65 1.08-.62-1.52 2.25-1.49 2.25 1.06-.65 1.08-.62-1.22 1.05-1.2 1.09 1.06-.65 1.08-.62-1.8 3.15-1.76 3.15 1.06-.65 1.08-.62S102.5 19 102.53 19s1.06-.65 1.08-.62-1.2 1-1.18 1 1.06-.65 1.08-.62-1.28 1.27-1.26 1.31 1.06-.65 1.08-.62-1.23 1.09-1.21 1.12 1.06-.65 1.08-.62m4.4-10.09s1.57-1 1.59-.92.87 2 .89 2 .87-.53.89-.51-1.68 2.89-1.64 3 1.11-.68 1.13-.65S109 14.4 109 14.44s1.11-.68 1.13-.65-1.65 2.21-1.61 2.21 1.11-.68 1.13-.65-1.4 1.39-1.37 1.44 1.11-.68 1.13-.65-1.3 1.09-1.28 1.13 1.11-.68 1.13-.65-2.17 3.7-2.11 3.79 1.11-.68 1.13-.65S106 23.85 106 24s1.11-.68 1.13-.65-1.69 1.85-1.65 1.9 1.27-.78 1.29-.75"/><path class="cls-2" d="M93.58 10s1.73-1.06 1.76-1-1.94 3-1.9 3 .78-.48.79-.46-.41 2-.39 2 .78-.48.79-.46-.75.65-.74.67.78-.48.79-.46-.33 2.32-.3 2.37.78-.48.79-.46-.36 2.21-.33 2.26.78-.48.79-.46-.19 2.89-.15 3 .78-.48.79-.46-.4 2.06-.37 2.11.78-.48.79-.46-.32 2.37-.29 2.42.78-.48.79-.46-.57 1.35-.56 1.38.78-.48.79-.46-.09 1.93-.06 2 .76-.47.77-.45.06 1.11.07 1.13 1-.6 1-.57 1.81.94 1.84 1 1.5-.92 1.53-.88 1.4.8 1.42.83 2.12-1.3 2.15-1.24m9.57-15.4s1.79-1.09 1.81-1-2.13 3.67-2.08 3.76 5.15-3.15 5.22-3-5.31 4.88-5.22 5S121 11.85 121 12s-5.68 3.9-5.6 4.05 5.52-3.37 5.6-3.23-5.69 4.37-5.6 4.53S121 14 121 14.11s-5.68 3.73-5.6 3.88 5.52-3.37 5.6-3.23-5.68 3.48-5.6 3.62S121 15 121 15.15s-5.7 5.63-5.6 5.81 5.52-3.37 5.6-3.23-5.7 5.94-5.6 6.12 5.6-3.39 5.6-3.25-5.13 5.24-5 5.4 5-3 5-2.91-3.18 3.5-3.12 3.6 3-1.85 3.06-1.77-2 1.71-2 1.77 1.72-1.05 1.75-1M115.71 2.9s1.79-1.09 1.81-1-2.08 3-2 3.11 4.7-2.87 4.77-2.75-4 4-4 4.11 4.66-2.85 4.73-2.73-4.63 2.76-4.56 2.88S121 3.7 121 3.82s-2.07 2.73-2 2.81 1.78-1.09 1.8-1"/><path class="cls-2" d="M117.76 9.85s1.53-.93 1.55-.89 0 .85 0 .87 1-.59 1-.57.31 2.19.34 2.24.82-.5.83-.48-.86 2.4-.83 2.46.87-.53.88-.51-.92 2.87-.88 2.94.87-.53.88-.51-.9 1.19-.88 1.23.87-.53.88-.51-.91 1.79-.88 1.83.87-.53.88-.51-.9 1.47-.88 1.5.87-.53.88-.51-.9 1.68-.88 1.72.87-.53.88-.51-.92 2.85-.88 2.92.87-.53.88-.51-.91 2-.88 2 .87-.53.88-.51-.95 1.3-.93 1.33.91-.56.93-.54-1.08 1-1.06 1 1-.63 1-.6"/><path class="cls-2" d="M115.44 10.11s1.94-1.18 2-1.14-2.26 1.48-2.22 1.54 2.65-1.62 2.69-1.55-3 3.79-2.9 3.9.87-.53.88-.51-.91 1.86-.88 1.91.87-.53.88-.51-.9.88-.88.9.87-.53.88-.51-.92 2.6-.88 2.66.87-.53.88-.51-.9 1.33-.88 1.37.87-.53.88-.51-.9.8-.88.83.87-.53.88-.51-.9 1.06-.88 1.09.87-.53.88-.51-.9 1.45-.88 1.49.87-.53.88-.51-.91 2.12-.88 2.17.87-.53.88-.51-.9 1.39-.88 1.43.87-.53.88-.51-.91 1.9-.88 1.95.87-.53.88-.51-.9.94-.88 1 .87-.53.88-.51-.9 1.14-.88 1.18.87-.53.88-.51-.74 1.31-.72 1.34.78-.48.79-.46-.3 1.27-.29 1.3.79-.48.8-.46.24 1.09.26 1.11 1.27-.77 1.28-.74.91.85.93.88 2.26-1.38 2.3-1.33-2 1.23-2 1.28 1.76-1.13 1.84-1.08m-3.32-23.79s1.53-.93 1.55-.89l1.23 1.85s.78-.48.79-.46-.91 2.47-.88 2.52 1-.63 1-.6-1.06.59-1 .62 1-.63 1-.6"/><path class="cls-2" d="M115.44 2.53s1.94-1.18 2-1.13-2.52 3.24-2.44 3.33.87-.53.88-.51-.37 2-.34 2 .74-.45.75-.43-.64.59-.63.61.79-.48.8-.46 1.73 1.14 1.75 1.19 3.16-1.93 3.2-1.85-2.29 1.74-2.26 1.8S121 5.92 121.06 6m13.06 6c.07.11 4.44-2.72 4.51-2.6s-2.4 3.82-2.35 3.92 4.54-2.77 4.6-2.66-4.39 4.37-4.31 4.51 5.53-3.38 5.61-3.24-6.69 3.77-6.6 3.93 6.57-4 6.66-3.85"/><path class="cls-2" d="M128.15 11.43c.05.09 3.48-2.13 3.53-2s-5.62 5-5.53 5.13 9.52-5.82 9.66-5.58-10.31 7.4-10.15 7.67 6.91-4.22 7-4-7.14 4.13-7 4.3 6.21-3.8 6.3-3.64-6.31 5.6-6.2 5.78 4.86-3 4.93-2.85-4.53 4.5-4.45 4.64 4.51-2.75 4.57-2.64-3.4 4.66-3.33 4.78c.23.4 15.68-9.58 15.91-9.18s-15 10-14.74 10.41 13.72-8.39 13.92-8-12.3 8.92-12.11 9.25c.08.14 5.5-3.36 5.58-3.22s-4.6 3.55-4.53 3.68 6.13-3.75 6.22-3.59-4.17 4.17-4.1 4.3 7.63-4.66 7.74-4.47-6.42 4.65-6.32 4.82 7.21-4.41 7.31-4.22-4.46 4.43-4.38 4.57 3.44-2.1 3.49-2-2.65 1.94-2.61 2S140.95 26 141 26"/><path class="cls-2" d="M134.21 12.57s1-.59 1-.57-.14.93-.13 1 .83-.51.84-.48.45 2.11.48 2.15.9-.55.92-.53-2.06 1.36-2 1.41 2-1.23 2-1.18"/><path class="cls-2" d="M131.62 13c0 .06 2.36-1.44 2.4-1.38s-2.79 1.77-2.75 1.84 3-1.84 3.05-1.76-4.14 4.44-4.07 4.57 1-.61 1-.58-1 1.94-1 2 .83-.5.84-.48-.8.82-.78.85.81-.49.82-.47 0 1.28.06 1.31 4.51-2.76 4.58-2.64"/><path class="cls-2" d="M132.12 9.62c0 .05 2-1.23 2-1.17s2.74.89 2.78 1 1.08-.66 1.1-.63 1.16 1.3 1.18 1.34.88-.54.89-.51-.17.89-.16.91.88-.54.89-.51.06 1.22.08 1.25.79-.48.8-.46-.38.83-.36.85.79-.48.8-.46-.55.68-.53.7.77-.47.78-.45.51 2.21.54 2.26.75-.46.76-.44c.16.28-9.83 8.19-9.67 8.47s7.51-4.59 7.62-4.4-4.92 5.13-4.84 5.28 1.44-.88 1.46-.84 1.65.79 1.68.83 1.66-1 1.68-1 .12 1 .13 1 .83-.51.84-.49-.64.62-.63.64.74-.45.75-.43-1.32 2.09-1.29 2.14 1.32-.81 1.34-.78-1.82 1.67-1.79 1.72 1.32-.81 1.34-.77-1.6 1.06-1.58 1.1 1.43-.87 1.45-.84"/><path class="cls-2" d="M127.81 11.06c.05.09 3.67-2.24 3.73-2.15s-5.84 5.09-5.74 5.24 1.26-.77 1.28-.74-1.9 2.81-1.85 2.88.93-.57.95-.55-1 .78-1 .81.93-.57.95-.55-1 2.68-.94 2.74.81-.49.82-.47-.46 2.27-.43 2.32.75-.46.76-.44.33 2.6.36 2.65.76-.46.77-.44.25 1.7.27 1.74.78-.48.79-.46l.91 1.73s.82-.5.83-.48.09 1 .11 1 .94-.57.95-.55l1 1.38s1.07-.65 1.09-.63.31 1 .33 1 1.08-.66 1.1-.63 1.56 1.08 1.58 1.13 1.27-.78 1.29-.75 1.36.87 1.38.91 2.19-1.34 2.23-1.29"/></g></g></svg>