<svg xmlns="http://www.w3.org/2000/svg" width="239.02" height="38.33" viewBox="0 0 239.02 38.33"><defs><style>.a{fill:none;stroke:#5d0e5a;stroke-linecap:round;stroke-linejoin:round;stroke-width:.85px}.b{fill:#6d2e6a}</style></defs><title>tit_staff</title><path class="a" d="M25.74 17.41c.08.14 5.71-3.49 5.79-3.35s-3.38 3.45-3.32 3.55 4.88-3 4.95-2.86-3.42 3.47-3.36 3.58 3.37-2.06 3.42-2M27.97 2.87s1-.6 1-.58-2.17 2.8-2.13 2.87 3.63-2.21 3.7-2.16-5.1 4.42-5 4.56S31.67 3.81 31.76 4"/><path class="a" d="M15.45 9s1.68-1 1.7-1-1.88 2.63-1.84 2.7S18.94 8.48 19 8.57s-2.24 2.83-2.2 2.9 3.85-2.35 3.9-2.25-2.48 3-2.43 3c.2.34 13.33-8.15 13.53-7.81s-12.52 8.43-12.33 8.76S30.54 6.48 30.7 6.76s-10.75 7.46-10.58 7.74 9.1-5.56 9.23-5.33-9.54 6.8-9.39 7.06 8.89-5.44 9-5.21S17.74 18.75 17.91 19s11.33-6.92 11.49-6.63-15.32 10-15.09 10.35 15.86-9.69 16.09-9.29-16.77 10.79-16.52 11.22c.13.22 8.87-5.42 9-5.19s-7.5 5.69-7.38 5.9 5.22-3.19 5.3-3.06"/><path class="a" d="M17.3 8.32s.77-.47.78-.45 1 1 1 1.07.68-.41.69-.4 1 1 1.06 1 .78-.48.8-.46m6.06-6.42s1.26-.77 1.28-.74S26.54 4.87 26.54 5s1-.59 1-.57-2.32 2.87-2.27 2.95 1-.63 1-.6m2.76-4.18s.67-.41.68-.39l.83 1.16s.63-.39.64-.37.36 1.4.36 1.43.61-.38.62-.36-1.82 2.59-1.78 2.66 1-.63 1-.6-2.42 2.92-2.37 3 1-.63 1-.6S28.6 11 28.64 11s.64-.39.65-.37-.24 1.72-.21 1.76.53-.32.54-.31.35 1.39.37 1.42.58-.36.59-.34l.84 1.15s.67-.41.68-.39.92 1.08.94 1.08.61-.37.61-.36-1.4 2.36-1.36 2.42 1.45-.88 1.47-.85m-7.9 1.53s1.23-.74 1.25-.74 1.13.94 1.15 1 .65-.4.66-.38l.88 1.13s.68-.42.69-.4m-7.15.09c0 .06 2.28-1.39 2.31-1.33s-4.55 4.09-4.47 4.22 1.36-.82 1.36-.79-3.78 3.67-3.71 3.78 1.5-.92 1.52-.88"/><path class="a" d="M15.33 8.65s1.74-1.07 1.77-1-2.52 3-2.47 3.06.56-.34.57-.33l.85 1.15s.63-.39.64-.37l.85 1.13s.63-.39.64-.37l.68 1.25s.56-.34.57-.33.22 1.47.24 1.5.53-.32.54-.31-.46 1.85-.44 1.89.67-.41.68-.39-2.82 3.14-2.76 3.23 1.61-1 1.63-.94-5.27 4.48-5.18 4.63 2.24-1.37 2.27-1.31-3.27 3.39-3.21 3.49.57-.35.58-.33.92 1.07.93 1.1.67-.41.68-.39.92 1.07.93 1.1.78-.48.79-.46M57.42 2.92c.03.08 2.12-1.28 2.12-1.22.27.46-18 11.44-17.78 11.9S60.65 2 60.93 2.52s-18.25 11.55-18 12S61.77 3 62.05 3.51 43.97 15 44.24 15.43s13.52-8.26 13.72-7.92-7.27 5.57-7.15 5.77 4-2.45 4.06-2.35-2.93 3.2-2.87 3.3S55.72 12 55.77 12s-3.62 3.58-3.56 3.69 4.33-2.62 4.43-2.51-4.55 4.09-4.47 4.22 4.43-2.7 4.49-2.59-4.62 4.12-4.54 4.26 4.49-2.74 4.56-2.63-4.69 4.16-4.61 4.3 4.55-2.78 4.62-2.67-4.75 4.2-4.67 4.33 4.62-2.82 4.69-2.71-4.82 4.23-4.74 4.37 4.68-2.86 4.75-2.74-4.82 4.23-4.74 4.37 4.69-2.86 4.76-2.75-3.09 3.29-3 3.39 3-1.83 3-1.76"/><path class="a" d="M59.62 2s.68-.41.69-.4l.63 1.3s.58-.35.59-.34.3 1.44.32 1.44.62-.38.63-.36c.12.21-7.81 5.86-7.68 6.07s3.43-2.1 3.49-2-3.58 3.56-3.52 3.67.52-.32.53-.31.51 1.3.52 1.33.56-.34.57-.33 0 1.61 0 1.65.62-.38.63-.36-.64 1.95-.62 2 .62-.38.63-.36-.64 1.95-.62 2 .62-.38.63-.36-.64 1.95-.62 2 .62-.38.63-.36-.64 1.95-.62 2 .62-.38.63-.36-.64 1.95-.62 2 .62-.38.63-.36-.64 1.95-.62 2 .62-.38.63-.36-.64 1.95-.61 2 .62-.38.63-.36"/><path class="a" d="M57.16 2.67c0 .06 2.23-1.36 2.26-1.3.27.47-18.34 11.6-18.06 12.07.14.24 9.54-5.83 9.68-5.59s-8.87 6.44-8.73 6.68c0 0 .6-.37.61-.35l.69 1.24s.6-.37.61-.35.93 1.06.95 1.09 5.47-3.35 5.55-3.21l.78 1.19s.54-.33.55-.32-.18 1.69-.16 1.73.63-.39.64-.37-.72 2-.69 2 .63-.39.64-.37-.72 2-.7 2 .64-.39.64-.37-.72 2-.7 2 .64-.39.65-.37-.72 2-.7 2 .64-.39.65-.37-.72 2-.7 2 .64-.39.65-.37-.71 2-.69 2 .63-.38.64-.37.19 1.48.21 1.52 1-.64 1.06-.61 1.94.46 2 .5 1.47-.9 1.49-.86m15.13-2.91s1.93-1.18 2-1.13-1.19 2.25-1.16 2.31c.3.51 20.15-12.32 20.45-11.81S73.68 24.29 73.97 24.8s19.08-11.67 19.36-11.18-18.41 11.63-18.14 12.11 17.44-10.66 17.7-10.22M72.05 4s1.28-.78 1.3-.75-.47 1.85-.44 1.89 3-1.83 3-1.76-2 2.7-2 2.77 3.12-1.91 3.16-1.83-2.19 2.8-2.15 2.88 3.29-2 3.34-1.93-2.41 2.92-2.37 3 3.59-2.14 3.65-2.05-2.59 3-2.54 3.1 2.72-1.66 2.76-1.59"/><path class="a" d="M74.63 21.54c.07.13 4.93-3 5-2.89.18.32 13.26-6.45 13.45-6.13 0 0 .64-.39.65-.38s-.73 2-.7 2 .64-.39.65-.37M71.8 22.38c0 .05 2.12-1.3 2.15-1.24s-1.64 2.5-1.6 2.56.56-.34.57-.33.47 1.32.49 1.36.56-.34.57-.33.5 1.31.52 1.34.62-.38.63-.37M73.66 3.44s1.44-.88 1.46-.84l.85 1.15s.58-.35.59-.34l.6 1.29s.58-.35.59-.34l.6 1.29s.58-.35.59-.34l.6 1.28s.55-.34.56-.33m-8.36-2.48s1.49-.91 1.51-.87-.93 2.09-.91 2.16.56-.34.57-.33.48 1.32.5 1.35.56-.34.57-.33.47 1.32.49 1.35.55-.34.56-.32.39 1.37.41 1.4.55-.34.56-.32.39 1.37.41 1.4.55-.34.56-.32m34.81 9.29c.06.11 4.3-2.63 4.36-2.52s-2.23 2.82-2.19 2.9 3.17-1.94 3.22-1.86-2.13 2.76-2.08 2.84 3.2-2 3.25-1.87-2.31 2.86-2.26 2.94 3.35-2.05 3.4-2-2.47 3-2.43 3 3.51-2.14 3.56-2.05-2.67 3.06-2.62 3.15 3.67-2.24 3.72-2.15-2.84 3.15-2.78 3.24 3.68-2.25 3.73-2.16M101.2 5.13s1.13-.69 1.14-.66-.4 1.81-.37 1.85 5.15-3.14 5.22-3-4.34 4-4.26 4.1 9-5.49 9.11-5.26-7 5.4-6.84 5.59 9.13-5.58 9.26-5.35-2.81 3.14-2.76 3.23 3.9-2.38 4-2.29-2.83 3.15-2.78 3.24 3.92-2.4 4-2.3-4.44 4-4.36 4.16 5.36-3.28 5.44-3.14-7 5.41-6.87 5.6 6.66-4.07 6.76-3.9-8.85 6.43-8.71 6.67 7.36-4.56 7.47-4.37-10.57 7.37-10.41 7.7 9.14-5.58 9.27-5.35c.22.38-14.86 9.7-14.64 10.09s14.14-8.74 14.35-8.34-14.74 9.64-14.52 10 14.66-9 14.87-8.59-13.83 9.19-13.62 9.53c.1.17 6.89-4.21 7-4s-5.66 4.69-5.57 4.85 1.63-1 1.65-1"/><path class="a" d="M102.54 4.71s1.9-1.16 1.93-1.11 2.89-.11 2.92-.05 1.9-1.16 1.93-1.11 2.89-.12 2.93-.05 1.29-.78 1.29-.75l.9 1.12s.58-.35.59-.34l.61 1.28s.58-.35.59-.34l.61 1.28s.58-.35.59-.34.4 1.36.42 1.4.53-.33.54-.31-1.33 2.32-1.29 2.38 1-.59 1-.57-2.28 2.84-2.23 2.92 1-.64 1.06-.61-2 2.71-2 2.78.83-.51.84-.49-.87 2.07-.84 2.12.6-.37.61-.35-.14 1.67-.12 1.71.54-.33.55-.32.35 1.39.36 1.43.54-.33.55-.32l.58 1.3s.57-.35.58-.34l.58 1.3s.57-.35.58-.33.54 1.28.56 1.31.57-.35.58-.33.52 1.29.54 1.32.56-.34.57-.33.51 1.3.53 1.33.56-.3.56-.3-1.36 2.34-1.32 2.4 1.71-1 1.73-1m-11.15-3.76s1.11-.68 1.12-.65 1 1 1 1.05.58-.36.59-.34.49 1.31.51 1.34.55-.34.56-.32.41 1.36.43 1.39.55-.34.56-.32.39 1.37.4 1.4.55-.34.56-.32.37 1.38.39 1.41.55-.34.56-.32.35 1.39.37 1.42.55-.34.56-.32m-9.87-4.87c0 .05 2.07-1.27 2.1-1.22s-5.77 4.75-5.67 4.91 2.1-1.28 2.13-1.23"/><path class="a" d="M100.87 4.92s1.32-.8 1.33-.77-.81 2-.78 2.09.55-.34.56-.32.38 1.37.4 1.41.55-.34.56-.32l.65 1.26s1.14-.7 1.16-.67 4.41-1 4.47-.94 2.33-1.43 2.37-1.37l.84 1.15s.54-.33.55-.32-.82 2-.79 2.09 1-.6 1-.57-2.47 2.95-2.42 3 1.08-.66 1.1-.63-3.17 3.33-3.11 3.43 1.41-.86 1.43-.82-4.42 4-4.34 4.14 2-1.21 2-1.16-7.32 5.6-7.21 5.8 3.19-1.95 3.23-1.87-3.84 3.7-3.78 3.82.55-.34.56-.32l.65 1.26s.59-.36.6-.35l.65 1.26s.7-.43.71-.41m42.13-6.19c.07.13 5-3.08 5.11-3s-2.65 3.05-2.6 3.14 1.67-1 1.69-1m-12.23-4.37s1.52-.93 1.54-.89-1.43 2.38-1.39 2.44 4.07-2.49 4.13-2.39-2.9 3.18-2.84 3.28c.15.27 10.57-6.46 10.73-6.19s-10.44 7.3-10.28 7.57 9.12-5.57 9.25-5.34-12.2 8.25-12 8.57 11.75-7.18 11.92-6.88-15.88 10.27-15.68 10.68 16.1-9.84 16.34-9.43-15 9.77-14.77 10.16c.13.22 8.81-5.38 8.93-5.16s-7.41 5.64-7.29 5.85 3.14-1.92 3.19-1.84m-1.96-15.96c.09.15 5.88-3.59 6-3.44s-4.49 4.05-4.41 4.19 8.47-5.18 8.6-5-3.94 3.75-3.87 3.87 5.2-3.18 5.27-3-3.77 3.66-3.71 3.78 4.92-3 5-2.88-4.84 4.24-4.76 4.38 5.38-3.29 5.46-3.15"/><path class="a" d="M136.17 1.46s1.1-.67 1.11-.64-2.74 3.07-2.65 3.18 4.44-2.71 4.5-2.6-6.38 5.09-6.28 5.26 6.58-4 6.68-3.85-9 6.49-8.83 6.73 8.78-5.37 8.91-5.14-10.55 7.33-10.39 7.6 12.26-7.5 12.44-7.18-10.56 7.36-10.4 7.64c0 .08 3.22-2 3.27-1.89"/><path class="a" d="M137.48 1.08s.71-.44.72-.42.95 1 1 1.08.59-.36.6-.34-.73 2-.7 2 .74-.45.75-.43-.31 1.77-.31 1.81.59-.36.6-.34 1.76.57 1.78.61 2.27-1.39 2.3-1.33 2.68 0 2.71.07.67-.41.68-.39l.77 1.19s.6-.36.6-.35l.68 1.24s.6-.36.6-.35.11 1.53.13 1.56.65-.4.66-.38-1.53 2.44-1.49 2.5.9-.55.91-.53-2.1 2.75-2.06 2.82 1-.6 1-.58-1.5 2.42-1.46 2.48.62-.38.63-.36-.18 1.69-.16 1.73.53-.32.54-.31.51 1.3.53 1.33.61-.37.62-.36-.17 1.68-.14 1.72 1-.62 1-.59m-5.43 2.78s1.21-.74 1.22-.71 1.26.86 1.28.9 1.79-1.1 1.82-1.05m-6.94 1.61c0 .06 2.33-1.42 2.37-1.37s-6.64 5.23-6.54 5.41 2.44-1.49 2.48-1.43m-4.1-9.2s1.62-1 1.65-1-2 2.71-2 2.79.6-.37.61-.35l.86 1.14s.56-.34.57-.33 0 1.58 0 1.61.62-.38.63-.36-3.47 3.49-3.4 3.6 2.86-1.75 2.9-1.68-7 5.44-6.92 5.63c0 0 .57-.35.58-.34l.93 1.19s.66-.4.67-.39l.9 1.12s.66-.4.67-.39m3.2-12.59s1-.58 1-.56 1.75.57 1.78.61 3-1.85 3.08-1.78"/><path class="a" d="M137.26 8.19s.7-.43.71-.41l.87 1.13s1.85-1.13 1.88-1.08 2.77 0 2.8 0 .86-.52.87-.5.46 1.33.48 1.36.56-.34.57-.33-1.18 2.25-1.15 2.3 1.17-.72 1.19-.69m-9.76-1.62s1.39-.85 1.41-.81-3.36 3.43-3.3 3.54 1.27-.78 1.29-.75m.82-9.16s1.27-.78 1.29-.74-2.88 3.17-2.82 3.27 1.13-.7 1.13-.7-3 3.22-2.9 3.31 1.26-.77 1.28-.74-3.48 3.54-3.38 3.65 1.47-.9 1.49-.86-3.28 3.39-3.22 3.5.79-.48.8-.46l.64 1.27s.86-.53.87-.5m43.86-2.11s1-.58 1-.56-1.87 2.62-1.83 2.69 3.65-2.23 3.7-2.14-5.05 4.36-5 4.5 5.63-3.44 5.71-3.3-7.55 5.72-7.44 5.93 6.5-4 6.59-3.81-8.84 6.42-8.7 6.66 7.57-4.63 7.68-4.43-11.33 7.8-11.15 8.1 9.81-6 10-5.75-8.94 6.48-8.8 6.72 7.2-4.4 7.3-4.22-5.54 4.63-5.45 4.78 3.51-2.14 3.56-2.05m-6.26-14.07s.95-.58 1-.56-.62 1.94-.6 2 2.37-1.45 2.41-1.39-2 2.68-1.94 2.76 2.58-1.57 2.61-1.51-2.19 2.8-2.15 2.88 2.71-1.65 2.75-1.59m-11.07-1.01s.94-.57.95-.55-.5 1.87-.48 1.91 2.37-1.45 2.4-1.39-1.86 2.62-1.82 2.69 2.53-1.55 2.57-1.48-2 2.71-2 2.79 2.61-1.59 2.65-1.53"/><path class="a" d="M176.14 9.77s.71-.43.72-.41 1 1 1 1l.68-.36s-.55 1.9-.53 1.94.9-.55.91-.53-1.93 2.65-1.89 2.73.92-.56.93-.54-2 2.68-1.94 2.76.95-.58 1-.55-2.43 2.93-2.39 3 1.08-.66 1.09-.63-2.74 3.1-2.69 3.19 1.25-.76 1.27-.73-3.46 3.49-3.4 3.6 1.36-.83 1.38-.79m2.46-13.64s1.16-.71 1.18-.68-2.19 2.8-2.15 2.88.89-.54.9-.52-2.13 2.76-2.13 2.84 1-.62 1-.6-2.8 3.13-2.74 3.22 1.43-.87 1.45-.84-3.61 3.57-3.55 3.69 1.35-.82 1.37-.79-5 4.31-4.88 4.45 1.83-1.12 1.86-1.07-1.32 2.32-1.28 2.38.74-.45.75-.43 1.09 1 1.1 1 .74-.45.75-.43m-1.34-16.08s1-.59 1-.57l.61 1.28s.54-.33.55-.32 0 1.57 0 1.61.54-.33.55-.32 0 1.57 0 1.61.54-.33.55-.32m-4.65-2.95s1.08-.66 1.1-.63-.93 2.11-.9 2.16.55-.34.56-.32-.11 1.65-.09 1.69.55-.34.56-.32-.11 1.65-.09 1.69.55-.34.56-.32.2 1.48.22 1.51.88-.54.9-.52m-8.37-3.38s1-.61 1-.58l.68 1.24s.54-.33.54-.31.09 1.54.11 1.57.54-.33.55-.32 0 1.57.05 1.61.57-.35.58-.33"/><path class="a" d="M158.64 10.42s1.06-.65 1.08-.62-.82 2-.8 2.1.54-.33.55-.32 0 1.58 0 1.62.54-.33.55-.32 0 1.59 0 1.62.54-.33.55-.32.53 1.29.54 1.32 2.47-1.51 2.5-1.44m21.56-8.93s1-.63 1-.6-.41 1.82-.39 1.86 4.17-2.55 4.23-2.44-3.5 3.51-3.44 3.62 7.17-4.38 7.28-4.2-5.82 4.78-5.73 4.94 9.43-5.76 9.57-5.52-5.23 4.47-5.15 4.62 8.9-5.41 9-5.21-4.67 4.15-4.59 4.29 7-4.29 7.11-4.11-2.91 3.19-2.86 3.29 3.94-2.41 4-2.31-2.38 2.9-2.34 3 3.35-2.05 3.4-2-3.16 3.33-3.1 3.43 4.11-2.51 4.17-2.41-5.21 4.45-5.13 4.6 5.51-3.37 5.59-3.23-6.87 5.35-6.76 5.54 5.93-3.63 6-3.47-7.65 5.78-7.53 6 6.57-4 6.67-3.85-8.57 6.28-8.44 6.51 7.34-4.49 7.45-4.3-10 7.07-9.86 7.33 8.59-5.25 8.72-5-11.68 8-11.5 8.28 10-6.13 10.18-5.88-8.76 6.38-8.63 6.62 7-4.26 7.07-4.08-5.32 4.51-5.23 4.66 3.16-1.93 3.2-1.85"/><path class="a" d="M186.43 4.78s1.48-.91 1.51-.87 2.31.24 2.34.29 1.48-.91 1.5-.87 2.31.24 2.34.29 1.48-.9 1.5-.87 2.31.23 2.34.29 1.48-.9 1.5-.87 2.31.23 2.34.28 1.26-.77 1.28-.74 1.06 1 1.08 1 .57-.35.58-.34.48 1.32.5 1.35.56-.34.57-.33.48 1.32.5 1.35.56-.34.57-.33.44 1.34.45 1.37.52-.32.52-.3-.52 1.88-.5 1.92.8-.49.81-.47-1.71 2.53-1.67 2.6.87-.53.89-.51-1.79 2.58-1.75 2.64.87-.53.88-.51-2 2.71-2 2.79 1-.6 1-.57-2.18 2.79-2.14 2.87 1-.6 1-.57-2.53 3-2.48 3.07 1.13-.69 1.14-.66-2.86 3.17-2.81 3.26 1.24-.76 1.26-.72"/><path class="a" d="M184.88 4.87s1.15-.7 1.17-.67-.75 2-.72 2.05.54-.33.55-.32.22 1.46.24 1.5.54-.33.55-.32.46 1.33.47 1.36.79-.49.81-.47 2.48.13 2.51.19 1.72-1.05 1.75-1 2.65 0 2.68.09 1.72-1.05 1.75-1 2.65 0 2.68.09 1.68-1 1.71-1 1.23.88 1.25.91.6-.37.61-.35 0 1.58 0 1.62.63-.38.64-.37-1.59 2.47-1.55 2.53 1-.6 1-.58-2.2 2.87-2.15 2.87 1-.6 1-.57-2.53 3-2.48 3.07 1.14-.7 1.16-.67-3 3.22-2.9 3.31 1.29-.79 1.31-.75-3.75 3.65-3.69 3.76 1.49-.91 1.52-.88-4.59 4.11-4.51 4.24 1.3-.79 1.32-.76-.31 1.76-.28 1.8.73-.45.74-.43 1.08 1 1.1 1 .73-.45.74-.43"/><path class="b" d="M232.05 26c0-.18-.22-.21-.37.16.06.13.12.26.19.39a3.85 3.85 0 0 1 .18-.55zm-1.63 2.46c-.08.55-.44 1.25.07 1.17.19-.7.38-.78.28-1.49.14-.45.36-.73.46-.62 0-.19.27-.64.16-.93a4.2 4.2 0 0 0-.79 2c-.15.13-.14-.07-.18-.13zm.78-5.95l-.2.21a1.3 1.3 0 0 0 .2-.21zm1.58 6.16c.09-.18.1-.27.08-.29-.07.18-.13.32-.08.29zM229.91 32l.18-.15a.4.4 0 0 0-.18.15zm1.29-9.49l.51-.55c-.06-.1-.28.27-.51.55zm-5.23 10.43a1.64 1.64 0 0 0 .39-.28 3.57 3.57 0 0 1-.38.22.24.24 0 0 1-.01.06zm-4.43-3.17h-.22a1.31 1.31 0 0 0-.16.17zm-8.38.62c.09-.05-.14-.3-.19-.43a.5.5 0 0 1-.07.32 1 1 0 0 0 .26.11zm10.38 2.33l.2-.19zM228 27a.21.21 0 0 0 .14 0s-.08-.06-.14 0zM10.74 38s-.07 0 0 0zM.04 36.64h.15a.56.56 0 0 0 0-.16zM223 35c.22 0 .11 0 0 0zm-78.24.55c.89.25-1.44.32-.1.6-.12-.15 1.21-.44.1-.6zM225.68 33l-.41.13a2 2 0 0 0 .41-.13zm-81.02 3.15h.14zm58.72-.64a.56.56 0 0 0 .2.12s-.04-.06-.2-.12zm14.65.26h-.36a2.43 2.43 0 0 0 .36 0zm-22.24.14a1.52 1.52 0 0 0-.53 0h.08a.77.77 0 0 1 .45 0zm-7.91 0l.15.06h.25zM34.78 37.9a1.16 1.16 0 0 1-.37-.25c.13.2-1.04.27.37.25zm191.12-5.1c0 .09-.09.15-.22.21l.29-.13s0-.09-.07-.08zm-30.36 5.33h-1.26c.31-.02.77 0 1.26 0zm-104-.27h-.29a.67.67 0 0 0 .29 0zm99 .27a2.8 2.8 0 0 0-.71-.19.5.5 0 0 0-.15.07zm-156.13-.49z"/><path class="b" d="M26.13 38.31c1.2 0 .56-.36.82-.57 1.43-.1.66.27 1.15.46.89-.1 1.58-.44 2.24-.42 0 .06.18.08 0 .16.94-.29 2.8 0 3.9-.38a.32.32 0 0 1 .14.09.53.53 0 0 1-.17-.51c.54 0 1-.23 1.2 0a.72.72 0 0 0-.51.17l.64-.11c.51.35-.77.12-.77.38a18.62 18.62 0 0 1 3.21-.3c.18.34-2 .11-.84.42l-1.3-.13c1 .54-.79 0 .12.54 1.71.1 1.91-.17 3.62-.07.38-.19-.13-.28.26-.47 2.43-.34 1.91.85 3.7.4a2 2 0 0 1 1.91-.43l-.43.38c1.66 0 .94-.55 2.68-.29-.31.15-1.3.13-1.05.17 1.13.3.79-.22 1.66-.22l.18.34c1.76-.05 3.71-.3 5.66-.36-.11.1-.44.21 0 .31a52.09 52.09 0 0 1 7.64.24l.91-.29c.21 0 .39.13.16.19.93.11 0-.19.49-.3s.7.17.36.26a24.09 24.09 0 0 1 6.38-.22l-.34.09c1.34.12 1.51-.6 2.76-.33l-.24.05c2.91.13 6.13-.14 8.35.3.42-.42 2.88.19 3.07-.4a20.31 20.31 0 0 0 3.53.59c.63 0 .93-.37 1.7-.43v.31l1-.32.62.39.72-.08c-.29 0-.61-.14-.57-.23a5.62 5.62 0 0 1 2.79.37l2.68-.26c-.06.12-.51.17-.86.25 1.43-.31.26.32 1.57 0-.18-.07.09-.18.12-.25a12.46 12.46 0 0 0 3.24.11l-.21.21c2 .05 4.19-.1 6.42-.1-.8-.1-.62-.47 0-.5l.26.33c.42-.2-.68-.12.18-.37.83 0 .56.37.09.48l1-.11c.06.1-.18.15-.24.27.41-.2 1.75.33 2.35 0l.06.1c2.23 0 3.24-.11 5.06-.13 0-.28.74-.22 1.28-.45 1.33.09 2.82.31 4.43.29 1.13-.14.33-.24.83-.41.09.26 1.69.23.86.42 1.93 0 2.46-.05 4.9-.26-.27-.11-.56-.15-.41-.24.44 0 1 .11.95.23h-.12c2.74-.38 6.33.75 8.51.21h-.12l2.26-.28c1 0-.62.19.15.35 2.44-.43 3.86.06 5.86-.22 1.56.76 5.52-.05 7.62.43l-.12-.18c.54-.17.66.1 1.06.14-.06-.14-.59-.16-.25-.26 4.59-.21 9.49.26 14.21.42 1.72 0 1-.92 3.15-.5l-.61.33c3.47-.4 7.11 0 10.51-.32-.2.08-.21.18-.54.17a4.85 4.85 0 0 0 2.67-.18c.53 0 .13.18.45.28.72.14 1.81-.31 2.19-.07.07 0-.2.08-.33.1.47-.12 2.19 0 1.74-.25 1.28.13 2.44-.12 3.47 0 .66-.31 2.19.15 2.4-.29-.09.45 2.25.36 3.05.15-.27.14.7.14.39.33.92 0 1.77-.09 1.6-.32 1.71.54 3.41-.44 4.38.26 2.74-.24 5.27-.41 7.73-.51-.08.45-2.72 0-2.61.52a41.28 41.28 0 0 1 6-.46c.6.06-.34.2-.54.27 2.33-.19 4.5-.08 6.57-.37 0 0-.23.09-.44.14.41 0 .95 0 .9-.17l-.4.07c-.33-.14.08-.31.58-.46a3.69 3.69 0 0 0 1.13-.3c-.33.33.21.31.65.33s.79.11.32.48c.23-.05.51-.14.47-.28.4.05.54.13.12.28a3.86 3.86 0 0 0 1.27-.22 10.46 10.46 0 0 1 1.21-.3c0 .1-.28.21-.42.35.78-.32 1.45-.82 2.47-1.34 0 .09.13.09-.17.26.86-.54 1.4-1 2.15-1.46a23.34 23.34 0 0 0 2.4-1.69c-.18.79.66-.45 1-.32.24-.34.46-.69.65-1l-.43.28c.63-.85.86-1.72 1.44-2.41l-.28.72c.33-.55.65-1.11.93-1.71-.21.31-.44.61-.66.89.35-1-.44-.13.28-1.27-.08.26.45-.9.79-1.37a18.27 18.27 0 0 1 .13-1.83c.12-.21.41.17.49 0-.14-.25-.18-.82-.36-1.41a4.61 4.61 0 0 0-.16-.44l-.1-.21a1 1 0 0 0-.07-.13 3.17 3.17 0 0 0-.32-.42l-.14-.15a.41.41 0 0 0 .4.14 2.17 2.17 0 0 1-.38-.32c.06-.31.17-.31.34-.17.15-.36.07-.38-.1-.44s-.14 0-.12-.11.15-.21.5-.15c-.08 0 0 0-.16.14a3.77 3.77 0 0 1 .83.06 1.62 1.62 0 0 0 .3 0 2.37 2.37 0 0 0 .36-.11 4.29 4.29 0 0 0 .59-.29l.59-.34a3.85 3.85 0 0 0 .57-.44 2.25 2.25 0 0 0 .7-1.19c.21-.29.24.15.08.55s-.46.73-.08.52a1.93 1.93 0 0 0 .08-2.18 3.42 3.42 0 0 0-2-1.07c-.55-.15-1.09-.3-1.62-.46s-1-.35-1.6-.54a4 4 0 0 1 .42.17c-.22.2-.55 0-1.13-.07a1.76 1.76 0 0 0-1.71 1c.13-.27 0-.51 0-.41a3.15 3.15 0 0 0-.73 1.7 2.25 2.25 0 0 0 .21 1.18 1.61 1.61 0 0 0 .68.74l.13.05a2.25 2.25 0 0 1 .27.3l.44-.26a.27.27 0 0 1-.12 0l-.17-.08-.16-.1s0 .07-.08.14l-.54 1v-.3a21.76 21.76 0 0 1-2 2.32c-.09.28-.49.65-.12.56a4.1 4.1 0 0 0-.91.69 5.39 5.39 0 0 0-.66.88 4.55 4.55 0 0 1-1.14 1.3 6.4 6.4 0 0 1-3.45 1.35c.28-.09.63-.32.41-.25a19.85 19.85 0 0 1-2 .66c.21.19.3.08.77.15a3.17 3.17 0 0 1-1.32.53c.92-.33-.08-.36-.5-.42.08.06 0 .16 0 .22-1.15-.26-.12.52-1.67.38l.07-.13a6.79 6.79 0 0 1-1.71.25c-.25-.27.61-.12.64-.35-.84 0-1.71.49-2.48.16.38 0 .9 0 1.27-.07a4.21 4.21 0 0 0-1.57-.38h.06a7.55 7.55 0 0 0-.82-.1 5.14 5.14 0 0 0-1.06 0 4.07 4.07 0 0 1 .55 0c-.32.21-.59.36-.86.51s-.59.3-.64.67a4.21 4.21 0 0 0 .69 2.06c-.4-.6-.5-.72-.51-.58s0 .41-.12.4c0 .36.11 1 0 .86.21.3.36.69.62 1a2 2 0 0 0 .66.54 1.85 1.85 0 0 0 .38.14 1.25 1.25 0 0 0 .56.08s.34.07.46.09.29.07.2.19c.89 0-.2-.18-.12-.3a4.91 4.91 0 0 1 1.18 0 5.46 5.46 0 0 0 1.46-.17.89.89 0 0 1 .4 0 4.47 4.47 0 0 1 .46.16 2.68 2.68 0 0 0 .92.18 2.35 2.35 0 0 0 .91-.19 12.39 12.39 0 0 1 1.71-.59 3.05 3.05 0 0 0 1.68-.7c.54-.19-.16.56-.22.54a4.59 4.59 0 0 0 1.08-.6 5.12 5.12 0 0 1 .95-.44c-.14.12 0 .16.35.17.7-.31.33-.49 1.18-.84a1.74 1.74 0 0 1-.42.71 15.43 15.43 0 0 0 1.81-1.7c.27 0-.23.5-.39.76.68-.61 1.78-1.53 1.85-1.92l-.53.28c.26-.21.27.08.11.27-.49.63-.95.6-1 .55l.42-.39c-.41-.05-.85.31-1.32.77a4.72 4.72 0 0 1-1.6 1.23 3.81 3.81 0 0 0 .28-.58 4.8 4.8 0 0 1-1 .73c-.26 0-.5-.21 0-.43a1.15 1.15 0 0 0-.76.22 1.8 1.8 0 0 1-.62.34c-.08 0-.07 0 0-.08a4.16 4.16 0 0 1-.57.52c.09-.15-.23-.2.16-.36a2.42 2.42 0 0 1-.73.21l-.75.07a4.06 4.06 0 0 1-1.2.09l.12-.05c-1 .31-1 .35-1 .46a.16.16 0 0 1 0 .18.93.93 0 0 1-.66.23c-.35-.32-.45-.68-.82-1a1.91 1.91 0 0 0-.28.26c-.23-.06-.7 0-.64-.1-.73.45.15.09-.22.42a9.82 9.82 0 0 1-1.74.08c-.6 0-1.1 0-1.07-.35-.17 0 0 .18.11.25s.11 0 .08.06-.15.06-.39 0c0-.33-.34-.38-.64-.6a1.26 1.26 0 0 1-.47-1c.33.22.46.93.42.11a.82.82 0 0 1-.31-.44 2.25 2.25 0 0 1-.09-.31 2.34 2.34 0 0 1 0-.26 2.62 2.62 0 0 1 0-.84c-.23-.16 0-.39.46-.46a4 4 0 0 1 .74-.05h1a14.85 14.85 0 0 0 3.71.32v.06c.21-.38 1.47-.45 2.36-.71 0 .22-.14.34-.62.52l.86-.16a2.75 2.75 0 0 1 1-.45l-.15.32c1.14-.3 2.16-.95 3.6-1.39 0-.26-1.34-.18 0-1 .11.1.27.29-.07.51a2.81 2.81 0 0 1 .64-.39c-.14.17-.29.34-.45.5.66-.22.23-.33.71-.59.1.18.42-.11.44.06s-.46.21-.61.38c.58-.26 1.28-.7 1.58-.84-.13 0-.18-.17.1-.58.64-1 .43-.24.85-.7 0-.27.53-.65.34-.87a.66.66 0 0 1 .51-.2c.16-.24.67-.78 1-1.23s.5-.8.17-.62l-.11.11v-.09a19.79 19.79 0 0 1 1.3-2l.09-.12a.62.62 0 0 0 .07-.13.41.41 0 0 0 0-.15.38.38 0 0 0-.11-.28l.05.06a6.17 6.17 0 0 0-.33-.57c-.28-.15-.38-.24-.43-.35a.91.91 0 0 1-.09-.42 2.66 2.66 0 0 1 .25-1h.09a1.5 1.5 0 0 1 1.06-1 5 5 0 0 1 1.18.11c.32.11.68.44.51.5.42.11.66.15.94.23a4.29 4.29 0 0 1 .47.17 5.19 5.19 0 0 1 .61.3h-.28l-.53-.2.62.3.25.15a2 2 0 0 1 .7.4c-.21-.08-.24.07-.3.23a3.65 3.65 0 0 1-.2.43 1 1 0 0 0 .42-.3 1 1 0 0 1-.64.68 1 1 0 0 0-.11-.32h-.14a.63.63 0 0 0-.2.07l-.48.22-.14.06h-.34a3 3 0 0 0-.94.06 1.6 1.6 0 0 0-1.17 1 2.59 2.59 0 0 0-.07 1.5c.07.39.26.86.31 1.26.1.08.13.07.14 0a.41.41 0 0 0 0-.17l-.12-.32c-.17-.45-.24-.86 0-.52l.19.49a2 2 0 0 1 .13.45 2.33 2.33 0 0 1 0 .62c0 .38-.17.67-.17.8a2.74 2.74 0 0 0 0 1.18 1.73 1.73 0 0 1-.24 1.3c.17-.12.58-.16.17.89-.55.9-1.07.84-.82.24.11-.21.2-.3.23-.27.12-.31.26-.7 0-.41v.17c-.32.38-1.08 1.57-1.07 1.19-.34.72 0 .39.35-.07a24.22 24.22 0 0 1-2.07 2.62c.18-.09.41-.14.27 0-.69.62-.83.73-.88.88s0 .27-.59.62c-.76.2.06-.5-1.1.25-.83.28-.3-.2 0-.44a8.59 8.59 0 0 1-1.63.87c-.51.22-.93.35-1.21.47l.48-.38a3.43 3.43 0 0 1-.78.48l.39.07c-.32.12-.56.21-.59.11-.24.25.39.29-.18.7-.42 0-1.39.3-1.58 0 .77 0 .7-.05.63-.14s-.15-.19.4-.28a2 2 0 0 1-.83.05c-.05 0 0-.07.14-.09-1.4-.26-.75.28-2.42.41.19-.2-.41-.3-.63-.25.6 0 .3.28-.23.44a5.61 5.61 0 0 0-1.67.12h.63a3.69 3.69 0 0 1-1.48.25c-.06-.14.67-.12.41-.17-.82.34-1.85-.27-3 0-.53-.1-.06-.33-.52-.4-1.28.28-1.39-.23-2.72 0 .39.24.46.18-.48.41l2.2-.17-1.41.35c.66 0 1.4-.15 1.8-.11-.67.2-.6.14-.28.34-.92-.36-1.8.21-2.86 0v-.59c-1.58-.26-2.8.3-4.86.15l.66.1c-.27.23-1.27 0-1.93.13.06-.2-.36-.27-.64-.39 0 .15-1.5 0-1.68.38l-.92-.26c-1.66-.11-1.88.56-3.48.5.48-.21-.25-.35.82-.51-.53 0-1 0-1 .1-.31-.12-1.47.27-2 .08a1.33 1.33 0 0 1-.89.28c-.07 0 0-.1 0-.1s-.93.13-.41.35c-1.65-.62-4.58 0-6-.48-1.16.07-2.56.13-3.61.14.07-.06 0-.1.2-.08-1.46-.18-.89.57-2.54.36-.85-.32.88-.17.35-.29-.24-.65-2 .09-3.11-.29h.27c-.85-.22-2.07.25-3.46.2 0 0 .07-.06 0-.1a19.61 19.61 0 0 1-4.08.53c.41-.25.61-.13.35-.39-.6 0 .18.41-1 .49-.39-.14-1.26-.26-1.37-.54h1.13c-.58-.36-1.46 0-2.06 0l.07-.16c-1.73.05-1.75.44-3.61.42l.19.12c-1 .39-.85-.22-1.86.07l-.34-.45c-.67.1-2.34.38-3.55.46a19.5 19.5 0 0 1 3-.62 10.1 10.1 0 0 0-2.6.22 2.6 2.6 0 0 1 .87-.07 9 9 0 0 1-3.21.46c.23-.77-3.45-.19-4.42-.79-2.34.28-4.65-.12-7.38-.08 1 .6-.8 0-.62.63a2.72 2.72 0 0 1-.94 0l-1.93-.37c-.46-.18.6-.13.54-.27-1.39 0-.59-.26-1.51-.42.19.22-.48.31-1.28.23l1.12.28c-1.94.33-1.69-.51-3.64-.19l.62-.19c-1 .11-3.71 0-4.69.49-.18-.07-.42-.24 0-.28-2.41-.07-5.35.52-7.22.22l.18-.15c-.45 0-.78.28-1.34.13 0-.06.18-.15 0-.16a6.11 6.11 0 0 1-1.78.17l.51-.17c-2.35-.2-3.6.41-5.56.51 0-.44-1.85-.58-2.77-.65v-.06a71.16 71.16 0 0 0-7.16.54c-1.57-.48-5.32-.2-7.84-.47.39.08-.06.34-.51.39s-1.63.31-1.54-.1h.21c-.45-.4-1.67-.29-2.62-.3l-.15.53c-2.49-.77-6.51.28-7.87-.41-.6.13-1.34.13-1.94.26v-.28c-1.66-.07-2.49-.11-4.54 0l.42-.2c-1.16 0-1.46.82-2.53.83l-.33-.51c-2 0-4.07-.36-6.06 0 0-.06.09-.18.42-.2-1 0-3.68-.29-3.33.29 0-.38-2.09 0-3.18.13l.17-.28a5.25 5.25 0 0 1-2.23.55c-.31 0-.27-.22.14-.15-1-.15-.79.26-2 .12l.46-.18a2.58 2.58 0 0 0-1.54.28 3.59 3.59 0 0 1-2.14-.32 1.88 1.88 0 0 1-1.33.29c-.08-.1.14-.15.25-.18-1.75-.19-2.6.32-3.8.05a.25.25 0 0 0-.2-.17h2.4c0-.26-1.12-.3-.23-.66a12.58 12.58 0 0 1-3.53.49.5.5 0 0 1-.15-.09h.11a2.26 2.26 0 0 0-.69 0 7.42 7.42 0 0 0-.91-.08c-.13-.21-1.29-.11-1.85-.13 0 .28-.69.24 0 .47h2.11a2.54 2.54 0 0 1-1.52.11c-.29.18-.6.37-.78.45-.77-.39-2.24-.6-2.45-.85-1.71.16-4 .1-5.09.63-.49.07-.56-.15-.74-.23a4.63 4.63 0 0 0 .76-.12c-1 .14-2.88.05-3.11.42-1.22-.17.69-.34-1-.28l.23-.11c-3.31-.59-5.37.94-9 .18.25 0 .38.07.43.13-4.18-.33-8.62.31-12.74-.22a3.92 3.92 0 0 0-2 .31l-.25-.3-1.22.35c-1.73.26-3-.74-5.2-.26l.28.2c-.79 0-2.5.12-2.37-.11a.61.61 0 0 1-.57.11v-.16l-1.94.27c-1.5-.11.24-.63-2-.66-.82.06-2.32.46-2 .57s.84.1.87.26l-.75.08c-.13.47-.71.94 1.12 1.27l1.15-.27.41.23H1.92a2 2 0 0 0 1.43-.1.89.89 0 0 0 .53.25l1.25-.44c.15.18-.56.36.28.46.59-.21-.56-.41.41-.54.61.21.43.38 1.15.2.1.12-.05.2-.33.25.64-.14 1.69-.06 2-.31.64.26 2.15-.07 2.09.37a6 6 0 0 1 1.71-.36c-1.07.53 2.19 0 1.91.6.79-.47 2.86-.21 4.26-.47a.64.64 0 0 1-.36.09 8 8 0 0 1 1.53.27c.1-.39 1.33-.48 2-.72 1 .38-.59.46-.28.82 0-.32 1.68-.32 1.35-.58.74.23.64.11 1 .44.13-.49.69-.08 1.3-.38 1.07.24.28.46 1.45.31.58.14-.47.31-.47.31zm28-.85h-.58zm2.35 0h-1c-.08-.1 0-.2.24-.19-.18.05.38.11.73.19zm-5-1.95c.37 0 .5 0 .55.07h-.65a.38.38 0 0 1 .09-.07z"/><path class="b" d="M50.81 35.88h-.15l.22.06.13-.09zm180.15-13.12l-.1.06zM88.91 38v-.08l-.21.07.21.01zm131.21-9.26a.34.34 0 0 0-.17 0 .42.42 0 0 0 .17 0zm-5.45.09a6.23 6.23 0 0 0-.93-.12l.57.07zm-2.84 2.97a.29.29 0 0 0 .14 0zm6.5 5.84h-.17c-.39.09-.12.06.17 0zm16.42-10.74a4.13 4.13 0 0 1-.1.7c.16-.35.25-.6.1-.7zm-39.11 11.23zm38.59-9.62a2.65 2.65 0 0 0 .41-.91c-.1.29-.31.61-.41.91zm-4.91 2.18l.17-.12v-.05zm.17-.17l.16-.17c-.11.07-.11.13-.16.17zm.52-.52l-.36.37c.13-.11.32-.24.36-.37zm-5.66 3.43v.12a.14.14 0 0 0 0-.12zm-1.93.89a2.89 2.89 0 0 0 1.07-.15 2.68 2.68 0 0 0 .88-.53v-.09c-.05.12-.32.28-.74.46a8.78 8.78 0 0 1-1.21.31zm-7.1-.98a3.78 3.78 0 0 0 1.31 0c-.25-.05-.53-.14 0-.29-.75 0-.66 0-.59.1s.18.26-.72.19zm-2.26-2.26c.18.43.15 0 .23 0-.16-.21-.22-.33-.23 0zm21.78-13.47l-.16.21c.58.18.04-.08.16-.21zm2.19 3.56a4.69 4.69 0 0 0 .8-.28 2.37 2.37 0 0 0 .13-.39 5.18 5.18 0 0 1-.93.67zm-4.41.2a2.21 2.21 0 0 1 .07-.39 2.45 2.45 0 0 0 0 1.42v.06-.06a2.55 2.55 0 0 1-.07-1.03zm-43.34 14.29l.19.32c.4-.06.48-.41-.19-.32zm-23.54.34a1.88 1.88 0 0 0-1.33-.1c.54 0 1.07.1 1.33.1zm-70.6-.53l.47-.11-.89.09.42.02z"/></svg>