<svg xmlns="http://www.w3.org/2000/svg" width="219.04" height="34.81" viewBox="0 0 219.04 34.81"><defs><style>.a{fill:none;stroke:#f03c00;stroke-linecap:round;stroke-linejoin:round;stroke-width:.6px}.b{fill:#f03c00}</style></defs><title>tit_interview</title><path class="a" d="M34.06 5.41s1.35-.83 1.37-.79-1.88 1.58-1.85 1.62 3-1.82 3-1.76-3.28 3-3.21 3.09 5.33-3.28 5.42-3.13-5.51 3.79-5.42 4 6.31-3.84 6.4-3.69-6.48 4.48-6.4 4.62 7-4.25 7.08-4.09-7.17 4.83-7.08 5 7.38-4.54 7.5-4.33-7.62 5.48-7.5 5.68S41 6.93 41.1 7.14s-7.8 5.22-7.69 5.41S41 7.92 41.1 8.11s-7.8 5.9-7.69 6.1S41 9.61 41.1 9.78s-7.81 5.3-7.69 5.51 7.59-4.66 7.69-4.44-7.78 5.51-7.69 5.68S41 11.91 41.1 12.1s-7.79 5-7.69 5.16S41 12.6 41.1 12.82s-7.82 5.54-7.69 5.78S41 14 41.1 14.16s-7.8 5.27-7.69 5.47S41 15 41.1 15.2s-7.8 5.62-7.68 5.8 7.58-4.63 7.68-4.41-7.79 5.34-7.69 5.53S41 17.5 41.1 17.68s-7.81 5.71-7.69 5.93S41 19 41.1 19.17s-7.8 4.8-7.69 5 7.59-4.64 7.69-4.44-7.79 5.47-7.69 5.66 7.59-4.62 7.69-4.44-7.79 5.72-7.69 5.89 7.59-4.6 7.69-4.44-7.81 4.86-7.69 5.08S41 22.87 41.1 23s-7.81 5.86-7.69 6.07 7.59-4.6 7.69-4.39-7.74 5.32-7.64 5.54 7.54-4.61 7.64-4.41-7.41 5.19-7.28 5.46 7.16-4.41 7.28-4.2-6.88 4.62-6.77 4.81S41 27.78 41.1 28s-6.16 4.2-6.09 4.33 6-3.69 6.09-3.51-4.63 3.55-4.55 3.69 4.5-2.72 4.55-2.63-2.1 2.43-2.1 2.51 1.52-.93 1.55-.89"/><path class="a" d="M35.6 4.75s.83-.5.84-.48.77.33.78.35.7-.43.71-.41 1.43.44 1.45.47.41-.25.42-.24l.49.78s.32-.2.33-.19-.05.58 0 .59l.33-.19V6.9c0 .03.36-.22.37-.21s-.39 1.71-.37 1.74.38-.23.38-.22-.4 1.42-.38 1.46.38-.23.38-.22-.39 1-.38 1 .38-.23.38-.22-.4 1.82-.38 1.85.38-.23.38-.22-.4 1.38-.38 1.41.38-.23.38-.22-.39.88-.38.9.38-.23.38-.22-.39.84-.38.87.38-.23.38-.22-.39.87-.38.89.38-.23.38-.22-.4 1.57-.38 1.6.38-.23.38-.22-.4 1.8-.38 1.84.38-.23.38-.22-.39 1-.38 1.06.38-.23.38-.22-.41 1.11-.39 1.11.38-.23.38-.22-.39 1.22-.38 1.22.38-.23.38-.22-.4 1.64-.38 1.67.38-.23.38-.22-.4 1.7-.38 1.73.38-.23.38-.22-.4 1.14-.38 1.16.38-.23.38-.22-.39 1.21-.38 1.23.38-.23.38-.22-.4 1.12-.38 1.15.38-.23.38-.22-.4 1.68-.38 1.72.38-.23.38-.22-.4 1.81-.38 1.85.38-.23.38-.22-1 1.68-.95 1.72.7-.42.71-.41"/><path class="a" d="M33.9 5.24s1.41-.86 1.43-.83-2 1.64-1.95 1.68.63-.38.63-.37-.85 1.66-.82 1.71.38-.23.38-.22-.4 1-.38 1.06.38-.23.38-.22-.39 1.12-.38 1.14.38-.23.38-.22-.39 1.1-.38 1.12.38-.23.38-.22-.4 1.54-.38 1.57.38-.23.38-.22-.4 1.17-.38 1.19.38-.23.38-.22-.41 1.85-.38 1.89.38-.23.38-.22-.4 1.26-.38 1.29.38-.23.38-.22-.4 1.44-.38 1.46.38-.23.38-.22-.39.93-.38.95.38-.23.38-.22-.4 1.52-.38 1.56.38-.23.38-.22-.4 1.23-.38 1.25.38-.23.38-.22-.4 1.58-.38 1.61.38-.23.38-.22S33.18 22 33.2 22s.38-.23.38-.22-.4 1.67-.38 1.71.38-.23.38-.22-.39.76-.38.78.38-.23.38-.22-.4 1.41-.38 1.44.38-.23.38-.22-.4 1.64-.38 1.67.38-.23.38-.22-.4.84-.38.87.38-.23.38-.22S33.17 29 33.2 29s.38-.23.38-.22-.37 1.31-.36 1.33.35-.22.36-.21-.09 1.26-.07 1.29.32-.2.33-.19.1.81.11.83.33-.2.33-.19l.3.65s.36-.22.36-.21.82.56.83.58.61-.37.62-.36 1.64.34 1.66.38.68-.42.69-.4l.44.33s1.44-.89 1.46-.84M53.5 17.26c.09.16 7.09-4.32 7.19-4.15s-6.19 4.13-6.09 4.32 6.72-4.12 6.83-3.94-5.59 4.31-5.49 4.51 6.38-3.87 6.46-3.73-5.76 4.18-5.67 4.34 6.32-3.89 6.42-3.71S56.94 18.78 57 19s6.34-3.85 6.43-3.71-5.88 4.71-5.81 4.83 6.5-4 6.61-3.82-6.44 5-6.34 5.2 6.78-4.14 6.88-4-6.91 4.97-6.77 5.19 6.91-4.24 7-4.05-7.12 4.64-7 4.81 7-4.29 7.09-4.09-7.21 5.54-7.09 5.72 7-4.32 7.15-4.13-7.27 5.15-7.15 5.32 7-4.32 7.15-4.13-7.25 4.62-7.15 4.8 7-4.29 7.15-4.13-7.28 4.59-7.15 4.78 7-4.32 7.15-4.13-7.27 4.62-7.15 4.8 7-4.34 7.15-4.13-7.27 5.32-7.15 5.51 7-4.33 7.15-4.13-7 5.42-6.86 5.58 6.75-4.16 6.86-4-6.54 4.41-6.45 4.56S65 27.81 65.13 28s-5.81 4.09-5.71 4.25 5.62-3.46 5.71-3.3-4.56 3.44-4.5 3.54 4.45-2.69 4.5-2.6-2 2.43-2 2.5 1.33-.81 1.35-.78"/><path class="a" d="M46.05 13.62s1.35-.83 1.37-.79-1.88 1.58-1.85 1.63 3-1.83 3.06-1.76-3.29 3-3.22 3.09 5.41-3.33 5.5-3.18-5.6 3.84-5.5 4 6.34-3.86 6.43-3.71-6.51 4.5-6.43 4.64 6.86-4.18 7-4-7 4.76-7 4.92 7.08-4.35 7.2-4.16-7.31 5.31-7.2 5.51S58 12.06 58.17 12.42s-12.94 8-12.76 8.34 13.9-8.5 14.11-8.14-14.32 9.45-14.11 9.81c.11.18 7.05-4.28 7.15-4.13s-7.26 5-7.15 5.2 7-4.33 7.15-4.13-7.24 5.21-7.15 5.37 7-4.3 7.15-4.13-7.24 4.69-7.15 4.85 7-4.33 7.15-4.13-7.27 5.25-7.15 5.47 7.06-4.27 7.15-4.13-7.25 5-7.15 5.16 7.06-4.28 7.15-4.13-7.26 5.3-7.15 5.53 7-4.32 7.15-4.13-7.19 5-7.09 5.18 7-4.26 7.09-4.09-6.7 5.11-6.56 5.3 6.48-4 6.59-3.8-6.34 4-6.25 4.17 6.15-3.77 6.25-3.61-5.13 4-5.06 4.14 5-3 5.06-2.92-2.71 2.92-2.67 3 2.36-1.43 2.39-1.38"/><path class="a" d="M47.68 12.92s.77-.47.78-.45 1.68.27 1.7.31.7-.43.71-.41 1.1.8 1.11.83.32-.2.33-.19.2 1.36.22 1.39l.27-.16c.06.11 4.41-1.68 4.48-1.57s.77-.48.79-.45 1.61.53 1.64.58.4-.24.41-.24l.29.57s.39-.24.39-.23l.18.51s.39-.24.39-.23l.62.9s.35-.21.35-.2l.77 1.16s.33-.2.33-.19.24.91.25.93l.33-.19v.59c0 .01.33-.2.33-.19s.21 1.4.23 1.43.33-.2.34-.19-.13 1.13-.12 1.15.34-.21.35-.2-.22 1.45-.2 1.48.36-.22.37-.21-.36 1.67-.33 1.71.37-.23.38-.22-.39.88-.38.9.38-.23.38-.22-.39.77-.38.79.38-.23.38-.22-.43 1.76-.37 1.81.37-.23.38-.22-.4 1.63-.38 1.67.38-.23.38-.22-.38 1.12-.38 1.15.38-.23.38-.22-.39.9-.38.93.38-.23.38-.22-.4 1-.38 1 .38-.23.38-.22-.4 1.61-.38 1.65.38-.23.38-.22S64.67 31 64.7 31s.5-.3.51-.29"/><path class="a" d="M53.61 17.48s.51-.31.52-.3.79.56.8.59.43-.26.43-.25.84.87.85.9.37-.23.37-.22.39 1 .4 1.06.34-.21.34-.2.12 1.26.14 1.29.33-.2.34-.19-.17 1-.16 1S58 21 58 21s-.31.72-.3.74.35-.21.36-.21-.31 1.63-.29 1.67.37-.23.38-.22-.4 1.2-.38 1.23.38-.23.38-.22-.4 1.23-.38 1.26.38-.23.38-.22-.4 1.32-.38 1.35.37-.23.38-.22-.39.83-.38.85.38-.23.38-.22-.4 1.3-.38 1.33.38-.23.38-.22-.4 1.64-.38 1.67.38-.23.38-.22-.23 1.47-.22 1.5.34-.2.34-.2.05.93.07 1 .32-.2.33-.19l.61 1s.39-.24.4-.23 1.37.5 1.39.53.65-.4.66-.38l.51.38s.77-.47.78-.45M52.59 17.6s.8-.49.81-.47-1 1.34-1 1.38.38-.23.38-.22-.4 1.5-.38 1.53.38-.23.38-.22-.4 1.26-.38 1.28.38-.23.38-.22-.39.77-.38.79.38-.23.38-.22-.4 1.68-.38 1.72.38-.23.38-.22-.4 1.72-.38 1.75.38-.23.38-.22-.4 1.42-.38 1.46.38-.23.38-.22-.39 1-.38 1 .38-.23.38-.22-.4 1.82-.38 1.85.38-.23.38-.22-.4 1.38-.38 1.41.38-.23.38-.22-.39.88-.38.9.38-.23.38-.22-.54.92-.52.95.42-.26.43-.25M45.9 13.45s1.41-.86 1.43-.83-2 1.64-2 1.68.65-.4.66-.38-.88 1.67-.85 1.72.38-.23.38-.22-.4 1-.38 1.06.38-.23.38-.22-.39 1.12-.38 1.14.38-.23.38-.22-.39 1.1-.38 1.12.38-.23.38-.22-.4 1.54-.38 1.57.38-.23.38-.22-.4 1.17-.38 1.19.38-.23.38-.22-.41 1.85-.38 1.89.38-.23.38-.22-.4 1.26-.38 1.29.38-.23.38-.22-.4 1.44-.38 1.46.38-.23.38-.22-.39.93-.38.95.38-.23.38-.22-.4 1.52-.38 1.56.38-.23.38-.22-.4 1.23-.38 1.25.38-.23.38-.22-.4 1.58-.38 1.61.38-.23.38-.22-.36 1.26-.34 1.29.34-.21.34-.2.07 1.41.08 1.44.32-.2.33-.19-.06.58-.05.59.32-.2.33-.19l.63.85s.48-.29.49-.28 1.67.45 1.69.48.65-.39.66-.38l.51.35s2-1.22 2-1.17m29.2-13.24c.05.09 4.41-2.68 4.47-2.58s-2.42 2.36-2.37 2.42 1.7-1 1.72-1"/><path class="a" d="M69.69 13.64s1.14-.7 1.16-.67-2 1.86-2 1.93c.15.25 11.28-6.9 11.46-6.58S68.43 16 68.63 16.37s11.56-7 11.7-6.75S68.68 17 68.86 17.31s11.28-7 11.47-6.62-11.41 6.71-11.22 7S80.19 11 80.33 11.25s-9.88 6.91-9.76 7.13 10.07-6.22 10.25-5.92-8.13 6-8 6.16 10.32-6.29 10.46-6-10.28 6.71-10.1 7.02 11.59-7.1 11.82-6.79-12 7.27-11.82 7.55 12.14-7.48 12.34-7.13S73 21.74 73.18 22 85.76 14.31 86 14.66s-13 8.26-12.81 8.56 7.07-4.34 7.18-4.15-7.28 4.64-7.18 4.82 7-4.28 7.13-4.12-7.22 4.55-7.11 4.75 7-4.3 7.11-4.11-7.18 4.59-7.08 4.77 7-4.3 7.09-4.09-7.11 5.24-7 5.42 6.9-4.25 7-4.05-6.87 5.38-6.78 5.54 6.8-4.19 6.91-4-6.79 4.55-6.7 4.7 6.79-4.14 6.88-4-6.64 4.57-6.5 4.75 6.88-4.23 7-4-6.54 4.53-6.46 4.67 7.27-4.4 7.36-4.25-6.43 5-6.33 5.11 8.07-4.95 8.2-4.73S77 31.52 77 31.68s7.86-4.78 8-4.58-7.06 4.77-7 5 7-4.3 7.09-4.09-6.06 4.34-6 4.47 5.43-3.3 5.5-3.18-4.48 3.37-4.42 3.48S84 30.46 84 30.55s-2.53 2.14-2.49 2.2 1.63-1 1.66-1"/><path class="a" d="M74 7.61s1.44-.88 1.46-.84-2 1.68-2 1.72 3.41-2.06 3.45-2-3.74 3.22-3.67 3.35S78.9 6.32 79 6.49s-5.92 4-5.82 4.2 6.42-3.9 6.5-3.75-6.58 4.54-6.5 4.68 6.87-4.18 7-4S73 12.07 73 12.22s7.09-4.36 7.2-4.16"/><path class="a" d="M75.76 6.83s.91-.56.93-.53.58.28.58.29.79-.49.81-.47 1.39.78 1.42.82.32-.2.33-.19.1.74.11.76.32-.2.33-.19-.11 1.48-.09 1.51.38-.23.38-.22-.41 1.73-.38 1.77.38-.23.38-.22-.4 1.3-.38 1.33.38-.23.39-.22 0 1.14 0 1.17.38-.23.39-.22l.16.5s.57-.35.58-.34 2.11.3 2.13.34.53-.32.53-.31l.62.61s.35-.21.35-.2.48 1.32.5 1.35.35-.21.35-.2-.45 1.53-.43 1.58.43-.26.43-.25-1.34 1.83-1.32 1.88.9-.55.91-.53m-4.24 1.79s.67-.42.68-.39 1.37.21 1.39.24 1.61-1 1.63-.94"/><path class="a" d="M80.37 18.62s1-.58 1-.56S80.13 20 80.17 20s.38-.23.38-.22-.4 1.66-.38 1.7.37-.23.38-.22-.39 1.74-.36 1.74.37-.23.38-.22-.3 1.15-.28 1.18.35-.21.35-.2.1 1.41.13 1.45.34-.21.35-.2.14.64.15.66.41-.25.42-.24l.21.49s.42-.26.43-.25 1.17.55 1.18.57.42-.26.43-.25l.88 1.09s.33-.2.33-.19-.25 1.18-.23 1.21.42-.26.43-.25-.73 1-.71 1 .57-.35.58-.33-1.73 2.48-1.69 2.55.64-.39.65-.37M69.36 13.62s1.61-1 1.63-.94-2.48 2.32-2.43 2.45.53-.32.53-.31-.7 1.74-.67 1.78.36-.22.36-.21v1.28c0 .03.32-.2.32-.19l.69 1s.48-.3.49-.28.86.42.87.43.68-.41.69-.4l.31.38s.47-.28.47-.27.28 1.3.3 1.33.38-.23.38-.22-.4 1.2-.38 1.23.38-.23.38-.22-.4 1.23-.38 1.26.37-.23.38-.22-.3 1.29-.3 1.32.37-.23.38-.22-.39.82-.38.84.37-.23.38-.22-.38 1.29-.38 1.32.37-.22.37-.22S73 25.93 73 26s.37-.23.37-.22-.26 1.48-.25 1.51.36-.22.36-.21-.2 1.07-.18 1.1.34-.21.34-.2 0 1.27.06 1.3.32-.2.33-.19.35 1.1.37 1.12.34-.21.35-.2.12.58.13.6.35-.21.35-.2l.76 1s.39-.24.4-.23l.75.79s.4-.24.4-.23 1.06.75 1.08.78.44-.27.45-.26l.58.57s.45-.28.45-.26l.29.43s.67-.41.68-.39.64.29.65.31 1.56-1 1.58-.91M70.87 13.15s1-.63 1.05-.61m1.92-5.12s1.44-.88 1.46-.84-2.09 1.7-2.06 1.74.76-.46.76-.44-1.07 1.78-1 1.83.39-.24.4-.23-.42 1-.4 1.07.38-.23.38-.22-.39 1.12-.38 1.14.38-.23.38-.22m24.99 5.34c.08.13 6-3.64 6-3.49s-5.25 3.62-5.16 3.78 5.79-3.55 5.88-3.39-5 4-4.9 4.14 5.87-3.56 5.94-3.43-5.46 4-5.38 4.17 6-3.69 6.09-3.52-6.24 3.92-6.13 4.11 6.44-3.9 6.52-3.76"/><path class="a" d="M92.12 14.57c0 .07 3-1.81 3-1.73s-4.28 2.91-4.23 3 6-3.65 6.1-3.52-7.4 5.19-7.27 5.43 9.62-5.92 9.78-5.65-10.44 6.45-10.26 6.76 11.39-6.93 11.54-6.66-12 7.5-11.82 7.75 13-7.9 13.15-7.59-13.49 8.3-13.32 8.59 14.16-8.7 14.39-8.31S88.5 22 88.72 22.34c.1.18 7.59-4.67 7.71-4.45s-7.72 5.18-7.61 5.37 6.72-4.11 6.82-3.94-6.64 5.27-6.56 5.45 6.07-3.68 6.15-3.55-5.94 4.28-5.84 4.45 6-3.71 6.12-3.53-5.77 4.4-5.7 4.53c.3.51 18-11 18.21-10.51S89.91 26.81 90.14 27.2s18-11.07 18.26-10.54-17.93 11-17.64 11.52S108.81 17.26 109 17.63 91.14 28.41 91.39 28.85s17.66-10.71 17.88-10.32S92 29.3 92.28 29.72s16.24-10 16.5-9.53-15.84 9.75-15.63 10.12c.12.2 7.08-4.31 7.18-4.14s-6 4.72-5.88 4.89 7.67-4.72 7.8-4.5-7.36 4.54-7.25 4.73 8.07-4.94 8.19-4.73-7.08 5.08-7 5.25 9.18-5.58 9.3-5.37-7.73 5.69-7.63 5.86 9.9-6 10-5.78-9.38 5.71-9.23 6 9.45-5.76 9.58-5.53-7.51 5.7-7.4 5.91 6.78-4.18 6.89-4-5.32 4-5.25 4.15 4.55-2.73 4.55-2.61-2.78 2.44-2.73 2.53 1.74-1.07 1.77-1"/><path class="a" d="M98.43 16.85s.46-.28.47-.27l.76.85s.34-.21.34-.2l.53 1.17s.36-.22.36-.21-2.81 2.31-2.76 2.39 2.7-1.58 2.73-1.58"/><path class="a" d="M96.7 17.36s1.49-.9 1.51-.87-2.63 2.45-2.58 2.51.59-.36.6-.35-1.07 1.95-1 2 .41-.25.42-.24-.44 1.51-.42 1.54.34-.21.35-.2l.3.59c0 .06 2.48-1.53 2.52-1.46"/><path class="a" d="M95.38 12.85s1.26-.77 1.28-.74.95.22 1 .25.72-.44.73-.42 1.67.29 1.7.33.57-.35.58-.34 1 .44 1 .46.5-.31.51-.29l.2.45s.46-.28.47-.27 1.22.75 1.24.78.38-.24.39-.23.94 1 1 1 .39-.24.39-.23l.52.94s.34-.21.35-.2.15.66.16.67.34-.21.35-.2l.61 1.28s.33-.2.33-.19.26 1 .27 1 .33-.2.33-.19v.67c0 .01.33-.2.33-.19s-.12.69-.11.71.32-.2.33-.19-.18.75-.17.77.37-.23.37-.22-.93 1.86-.9 1.9.63-.39.64-.37c.15.26-8.95 6.51-8.83 6.72 0 0 .48-.3.49-.28s.7.41.7.43.62-.38.63-.36 1 .36 1 .39.69-.43.7-.41 1 .32 1 .34.82-.49.83-.48 1.86.33 1.88.37.35-.21.35-.2.09 1.42.11 1.45.41-.25.42-.24-1.06 1.5-1 1.54.57-.35.58-.33-1.26 1.69-1.24 1.73.57-.35.58-.33-1.5 1.68-1.48 1.72.82-.5.83-.48"/><path class="a" d="M92.06 14.3c0 .07 2.87-1.75 2.91-1.68s-4.27 2.9-4.22 3 1-.61 1-.59-2.29 2.44-2.24 2.53.62-.38.63-.36S89 18.61 89 18.66s.5-.3.5-.29-.81 1.36-.8 1.38.47-.28.47-.27-.67 1.26-.66 1.28.41-.25.41-.24-.55 1.62-.53 1.66.39-.24.4-.23-.29 1.11-.28 1.13.35-.21.35-.2-.17 1.71-.15 1.75.35-.21.35-.2-.06 1.07 0 1.1.32-.2.33-.19.08 1.17.1 1.19.33-.2.33-.19-.09.76-.08.77.32-.2.33-.19.33 1.11.35 1.14.33-.2.33-.19.22.88.24.9l.33-.19.52 1.09s.35-.22.36-.21l.48.81s.35-.22.36-.21l.81 1s.41-.25.41-.24.12.47.13.49.42-.26.43-.25l.75.78s.45-.27.46-.26 1.13.77 1.14.79.48-.29.48-.28l.24.51s.53-.33.54-.31S100 33 100 33s.55-.34.56-.32 1 .5 1 .52.59-.36.59-.34 1.36.42 1.39.46.93-.57.94-.54m20.78-13.3c.06.1 4.56-2.78 4.62-2.67s-2.61 2.2-2.56 2.28 2.13-1.31 2.17-1.25"/><path class="a" d="M114.31 13.62s1.35-.83 1.37-.79-1.88 1.58-1.85 1.62 3-1.83 3.06-1.76-3.29 3-3.22 3.09 5.3-3.26 5.39-3.11-5.49 3.78-5.39 3.95 6.2-3.78 6.33-3.62-6.37 4.42-6.29 4.56 6.78-4.13 6.88-4-7 4.72-6.88 4.87 7-4.29 7.09-4.1-7.2 5.25-7.09 5.45 11.95-7.35 12.15-7-12.32 7.69-12.15 8 14.5-8.86 14.71-8.49-14.93 9.79-14.71 10.16 16-9.71 16.21-9.36-16.45 10-16.21 10.43 16.25-10 16.53-9.54-16.77 10.42-16.57 10.76 16.21-9.91 16.45-9.5-16.66 9.86-16.45 10.22S129.72 15.58 130 16s-16.6 10.29-16.33 10.77c.11.2 7.22-4.37 7.31-4.22s-7.42 5.06-7.31 5.25 7.06-4.28 7.15-4.13-7.25 5.33-7.15 5.51 7-4.32 7.15-4.13-7.19 5-7.09 5.18 7-4.26 7.09-4.09-6.7 5.11-6.59 5.29 6.48-4 6.59-3.8-6.34 4-6.25 4.17 6.15-3.77 6.25-3.61-5.13 4-5.06 4.14 5-3 5.06-2.92-2.71 2.92-2.67 3 2.36-1.43 2.39-1.38"/><path class="a" d="M115.86 13s.83-.5.84-.48 1.68.27 1.7.31.62-.38.63-.36 1.08.82 1.09.84.32-.2.33-.19.18 1.37.2 1.4l.34-.2.36.81c.06.1 4.33-2.67 4.4-2.54s2.79-.18 2.83-.11.5-.31.51-.29l.25.6s.36-.22.37-.21 0 .6 0 .61.32-.2.32-.19v1.25c0 .02.35-.21.35-.2s-.59 1.88-.56 1.93.42-.26.42-.24-.66 1.41-.64 1.45.46-.28.46-.27-.85 1-.83 1.06.61-.37.62-.36m-4.56 2.08s1-.62 1-.6 1.52.09 1.54.13 1.52-.92 1.54-.89M122.34 21c0 .06 2.67-1.63 2.7-1.56s-4.31 3.11-4.24 3.25.58-.35.59-.34-.77 1.7-.74 1.74.38-.23.38-.22-.4 1.26-.38 1.28.38-.23.38-.22-.39.77-.38.79.38-.23.38-.22-.4 1.68-.38 1.72.38-.23.38-.22-.4 1.72-.38 1.75.38-.23.38-.22-.4 1.42-.38 1.46.38-.23.38-.22-.56 1-.54 1.07.42-.26.43-.25m-6.77-17.14s1.41-.86 1.43-.83-2 1.64-1.95 1.68.63-.38.64-.37-.85 1.66-.83 1.71.38-.23.38-.22-.4 1-.38 1.06.38-.23.38-.22-.39 1.12-.38 1.14.38-.23.38-.22-.39 1.1-.38 1.12.38-.23.38-.22-.4 1.54-.38 1.57.38-.23.38-.22-.4 1.17-.38 1.19.38-.23.38-.22-.41 1.85-.38 1.89.38-.23.38-.22-.4 1.26-.38 1.29.38-.23.38-.22-.4 1.44-.38 1.46.38-.23.38-.22-.39.93-.38.95.38-.23.38-.22-.4 1.52-.38 1.56.38-.23.38-.22-.4 1.23-.38 1.25.38-.23.38-.22-.4 1.58-.38 1.61.38-.23.38-.22-.36 1.26-.35 1.29.34-.21.35-.2.06 1.41.08 1.44.32-.2.33-.19-.06.58-.05.59.32-.2.33-.19l.63.85s.48-.29.49-.28 1.67.45 1.69.48.65-.39.66-.38.54.32.55.33 2-1.2 2-1.15m25.7-17.77s1.29-.79 1.31-.76-2.2 2-2.16 2 3.94-2.41 4-2.31-4.56 3.76-4.48 3.9 6.44-3.9 6.52-3.77-7 4.84-6.86 5 7.42-4.57 7.54-4.35-7.85 4.79-7.72 5 7.83-4.75 7.92-4.58-8.5 6.15-8.39 6.34 8-5 8.18-4.72-8.79 6.32-8.66 6.53 8-4.86 8.07-4.66-8.62 5.85-8.46 6.12 7.87-4.82 8-4.61-8.34 5.31-8.23 5.51 7.81-4.81 7.94-4.58-8.22 5-8.11 5.22 7.77-4.78 7.9-4.56"/><path class="a" d="M133.36 13.47s1.15-.71 1.17-.67-1.53 1.41-1.53 1.45 2.68-1.62 2.72-1.57-2.72 2.67-2.72 2.77 4.63-2.85 4.71-2.72-4.61 3.31-4.52 3.45 5.31-3.23 5.39-3.11-5.24 3.8-5.18 3.91 5.76-3.51 5.84-3.37-5.71 4-5.64 4.16 6-3.68 6.09-3.51-5.88 4.53-5.79 4.69 6.06-3.73 6.15-3.55-6 4.25-5.94 4.4 6-3.68 6.11-3.53-5.84 4.82-5.74 5 6-3.62 6-3.49-5.9 4.26-5.81 4.42 5.9-3.64 6-3.47-5.67 4.4-5.67 4.53 5.87-3.58 6-3.44-5.87 3.94-5.79 4.07 5.82-3.59 5.92-3.42-5.72 4.41-5.62 4.59 5.8-3.51 5.87-3.39-5.72 4.14-5.64 4.29 5.75-3.49 5.82-3.36S136 27 136 27.17s5.67-3.49 5.77-3.33-5.6 4.14-5.52 4.28 5.64-3.44 5.72-3.3-5.48 4.44-5.39 4.6c.19.34 13.36-8.23 13.59-7.84s-13.66 8-13.46 8.33 13-8 13.25-7.65-13 8.34-12.84 8.63 12.21-7.42 12.37-7.14-11.65 7.85-11.51 8.1 10.82-6.55 11-6.32-10.54 6.34-10.37 6.64 10-6.08 10.12-5.85-7.94 5.94-7.82 6.15 7.07-4.36 7.19-4.15-5.32 4-5.25 4.15 4.75-2.9 4.82-2.78-2.48 2.49-2.43 2.58 1.54-.95 1.56-.9"/><path class="a" d="M134.83 12.88s.7-.43.71-.41 1.63.3 1.65.34.52-.32.53-.31 1.08.82 1.09.84.34-.21.35-.2.44 1.22.46 1.26l.33-.19s-.06 1 0 1 .34-.21.35-.2-.1 1.53-.07 1.57.35-.21.35-.2-.23.85-.22.87.35-.21.35-.2-.25.74-.24.76.35-.21.35-.2-.14 1.3-.13 1.33.35-.21.36-.21-.09 1.6-.07 1.64.35-.22.36-.21-.18 1.15-.16 1.17.36-.22.36-.21-.27.71-.26.73.36-.22.36-.21-.1 1.58-.08 1.61.36-.22.36-.21-.18 1.16-.17 1.18.36-.22.37-.21-.12 1.39-.12 1.42.79-.48.8-.46"/><path class="a" d="M146.13 13.49s1.28-.78 1.3-.75-2.42 2.34-2.38 2.42.58-.35.59-.34-1.05 1.94-1 2 .45-.28.46-.27-.88 1.75-.86 1.79.45-.27.45-.26-.91 1.83-.88 1.88.44-.27.45-.26-.77 1.3-.76 1.3.44-.27.44-.26-.63.9-.62.92.44-.26.44-.26-.94 2-.91 2 .43-.26.44-.25-.77 1.41-.75 1.44.43-.26.43-.25m4.65-11.26s1-.62 1-.59.77.33.78.35.7-.43.71-.41 1.25.55 1.26.58.34-.21.35-.2.27.88.28.9.32-.2.32-.19-.18.65-.17.67.37-.22.37-.21-.77 1.89-.75 1.93.48-.3.49-.28-1.1 2.11-1.07 2.15.48-.29.49-.28-1 1.74-1 1.79.48-.29.49-.28-.8 1.18-.78 1.21.48-.3.49-.28-1.14 2.23-1.11 2.28.48-.29.49-.28-1 1.69-.94 1.73.48-.29.49-.28-.76 1.08-.75 1.11.48-.29.49-.28-.75 1-.73 1.07.48-.29.49-.28-.76 1.07-.74 1.09.48-.3.49-.28-1 1.92-1 2 .48-.3.49-.28-1.13 2.21-1.11 2.26.48-.29.49-.28-1.09 1.42-1.07 1.46.64-.39.65-.38m-14.25-17.32s1.16-.71 1.18-.68-1.64 1.45-1.62 1.49.54-.33.55-.31-.61 1.52-.58 1.57.34-.21.35-.2-.18.91-.16.93.34-.21.34-.2-.15 1-.14 1 .34-.21.34-.2-.15 1-.14 1 .34-.21.34-.2-.06 1.35 0 1.37.34-.21.34-.2-.14 1-.13 1 .34-.21.34-.2v1.65c0 .03.34-.21.34-.2s-.12 1.11-.1 1.13.34-.21.34-.2-.08 1.26-.07 1.28.34-.21.34-.2-.19.82-.18.83.34-.21.34-.2-.06 1.33 0 1.37.34-.21.34-.2-.13 1.08-.11 1.1l.34-.2s-.05 1.38 0 1.41.34-.21.34-.2S136 28 136 28s.34-.21.34-.2v1.5c0 .04.34-.21.34-.2s-.23.67-.22.69.34-.21.34-.2v1.2c0 .03.35-.21.36-.21s.39 1.2.41 1.22.39-.23.39-.23.11.57.12.58.36-.22.36-.21 1.55.69 1.57.73.65-.4.66-.38 1.27.36 1.29.38.65-.4.66-.38 1.49.34 1.51.38 1-.59 1-.57m12.01-18.48s1.35-.83 1.37-.79-1.94 1.83-1.9 1.9 3.51-2.15 3.57-2.06-3.75 3.33-3.68 3.43 5.62-3.4 5.69-3.28-5.78 4.19-5.69 4.35 6.4-3.94 6.5-3.76-6.62 4.13-6.5 4.32 6.7-4.07 6.79-3.92-6.88 5.26-6.79 5.41 7-4.34 7.15-4.13-7.25 5.48-7.15 5.66 7-4.3 7.15-4.13-7.28 5.13-7.15 5.36 7-4.32 7.15-4.13-7.25 4.71-7.15 4.89 7-4.33 7.15-4.13-7.25 5.58-7.15 5.76 7-4.32 7.15-4.13-7.25 5.14-7.15 5.31 7-4.32 7.15-4.13-7.25 4.62-7.15 4.8 7-4.29 7.15-4.13-7.26 4.57-7.15 4.77 7-4.32 7.15-4.13-7.25 4.61-7.15 4.79 7-4.34 7.15-4.13-7.25 5.32-7.15 5.51 7-4.33 7.15-4.13-7.14 5.52-7 5.68 6.92-4.26 7-4.06-6.88 4.6-6.79 4.75 6.69-4.08 6.79-3.92-6.36 4.39-6.26 4.57 6.16-3.79 6.26-3.62-5.5 4-5.43 4.08 5.36-3.25 5.43-3.13-3.22 3.19-3.17 3.28 3-1.83 3-1.75-1.85 1.6-1.82 1.64 1.33-.81 1.35-.78M157.14 5.4s1.35-.83 1.37-.79-1.88 1.58-1.85 1.63 3-1.83 3.06-1.76-3.29 3-3.22 3.09 5.2-3.2 5.28-3-5.38 3.66-5.28 3.83 6-3.67 6.11-3.53-6 4.23-5.94 4.36 6.44-3.92 6.53-3.77-6.2 4.31-6.2 4.45 6.36-3.91 6.47-3.73-5.54 4.35-5.45 4.5 5.49-3.38 5.58-3.22-4.18 3.24-4.11 3.35 4-2.44 4.06-2.34-2 2.1-2 2.17S163 9.8 163 9.83"/><path class="a" d="M158.69 13s.82-.5.84-.48 1.67.28 1.69.32.5-.31.51-.3 1 .85 1 .88.33-.21.34-.2.27 1.32.29 1.36l.34-.2s-.26 1.13-.25 1.16.38-.23.38-.22-.41 1.7-.38 1.74.38-.23.38-.22-.4.94-.38 1 .38-.23.38-.22-.39.82-.38.84.38-.23.38-.22-.4 1.45-.38 1.48.38-.23.38-.22-.41 1.78-.38 1.82.38-.23.38-.22-.4 1.27-.38 1.3.38-.23.38-.22-.39.78-.38.8.38-.23.38-.22-.4 1.75-.38 1.79.38-.23.38-.22-.4 1.28-.38 1.31.38-.23.38-.22-.4 1.55-.38 1.58.38-.23.38-.22-.41 1.7-.38 1.74.38-.23.38-.22-.39.88-.38.9.38-.23.38-.22-.39.77-.38.79.38-.23.38-.22-1 1.94-.95 2 .72-.44.73-.42"/><path class="a" d="M157 13.45s1.41-.86 1.43-.83-2.1 2.16-2.06 2.23.41-.25.42-.24-.52 1.64-.5 1.68.38-.23.38-.22-.4 1.48-.38 1.51.38-.23.38-.22-.41 1.55-.38 1.59.38-.23.38-.22-.39 1.13-.38 1.15.38-.23.38-.22-.39.77-.38.78.38-.23.38-.22-.41 1.69-.38 1.73.38-.23.38-.22-.4 1.2-.38 1.23.38-.23.38-.22-.4 1.23-.38 1.26.38-.23.38-.22-.4 1.32-.38 1.35.38-.23.38-.22-.39.83-.38.85.38-.23.38-.22-.4 1.3-.38 1.33.38-.23.38-.22-.4 1.64-.38 1.67.38-.23.38-.22-.4 1.56-.38 1.59.38-.23.38-.22-.27 1.11-.25 1.14.34-.2.34-.2.15 1.21.17 1.24.32-.2.33-.19l.64 1s.45-.28.46-.27l.38.45s.56-.35.57-.33 1.84.34 1.86.38 2.25-1.37 2.28-1.32m-4.76-26.63s.82-.5.84-.48.77.33.78.35.7-.43.71-.41 1.18.59 1.2.62.36-.22.37-.21l.39.84s.32-.2.33-.19-.05.58 0 .59l.33-.19s-.12 1.53-.11 1.56.38-.23.38-.22-.53 1.79-.51 1.83.43-.26.44-.25-.92 1.1-.9 1.14.69-.42.7-.4"/><path class="a" d="M157 5.24s1.41-.86 1.43-.83-2 1.64-1.95 1.68.63-.38.64-.37-.85 1.66-.83 1.71.38-.23.38-.22-.4 1-.38 1.06.38-.23.38-.22-.26 1-.25 1.07.34-.21.34-.2v.91c0 .01.32-.2.33-.19l.56 1s.36-.22.37-.21.73.52.74.54.61-.37.62-.36 2.5.05 2.53.1 1.23-.75 1.25-.72m13.95 6.6c.08.13 6-3.64 6-3.49s-5.25 3.62-5.16 3.78 5.79-3.55 5.88-3.39-5 4-4.9 4.14 5.87-3.56 5.94-3.43-5.46 4-5.37 4.17 6-3.69 6.09-3.52-6.24 3.92-6.14 4.11 6.44-3.9 6.52-3.76"/><path class="a" d="M170.86 14.57c0 .07 3-1.81 3-1.73s-4.28 2.91-4.23 3 6-3.65 6.1-3.52-7.4 5.19-7.27 5.43 9.62-5.92 9.78-5.65-10.43 6.44-10.24 6.75 11.39-6.93 11.54-6.66-12 7.5-11.82 7.75 13-7.9 13.15-7.59-13.49 8.3-13.32 8.59 14.16-8.7 14.39-8.31-14.69 9.33-14.47 9.7c.1.18 7.59-4.67 7.71-4.45s-7.72 5.18-7.61 5.37 6.72-4.11 6.82-3.94-6.66 5.27-6.55 5.45 6.07-3.68 6.15-3.55-5.94 4.28-5.84 4.45 6-3.71 6.12-3.53-5.77 4.4-5.7 4.53c.3.51 18-11 18.21-10.51s-18.13 10.66-17.9 11.05 18-11.07 18.26-10.54-17.93 11-17.64 11.52 18.05-10.93 18.27-10.55-17.89 10.77-17.64 11.22S187.8 18.14 188 18.52s-17.24 10.78-17 11.2 16.24-10 16.5-9.53-15.85 9.75-15.63 10.12c.12.2 7.08-4.31 7.18-4.14s-6 4.72-5.88 4.89 7.67-4.72 7.8-4.5-7.35 4.55-7.24 4.74 8.07-4.94 8.19-4.73-7.08 5.08-7 5.25 9.18-5.58 9.3-5.37-7.73 5.69-7.63 5.86 9.9-6 10-5.78-9.38 5.71-9.23 6 9.5-5.79 9.64-5.53-7.51 5.7-7.4 5.91 6.78-4.18 6.89-4-5.32 4-5.25 4.15 4.45-2.72 4.52-2.61S183 32.87 183 33s1.74-1.07 1.77-1"/><path class="a" d="M177.17 16.84s.46-.28.46-.27l.77.85s.34-.21.34-.2l.53 1.17s.36-.22.36-.21-2.8 2.31-2.75 2.4S179.57 19 179.6 19"/><path class="a" d="M175.47 17.33s1.38-.84 1.4-.81-2.55 2.41-2.5 2.49.51-.31.52-.3-1 1.91-1 2 .4-.25.41-.24-.42 1.5-.41 1.53.34-.21.34-.2l.3.6c0 .06 2.48-1.53 2.52-1.46"/><path class="a" d="M174.12 12.85s1.26-.77 1.28-.74.95.22 1 .25.72-.44.73-.42 1.67.29 1.7.33.57-.35.58-.34 1 .44 1 .46.5-.31.51-.29l.2.45s.46-.28.47-.27 1.22.75 1.24.78.38-.24.39-.23.94 1 1 1 .39-.24.39-.23l.52.94s.34-.21.35-.2.15.66.16.67.34-.21.35-.2l.61 1.28s.33-.2.33-.19.26 1 .27 1 .33-.2.33-.19v.67c0 .01.33-.2.33-.19s-.12.69-.11.71.32-.2.33-.19-.18.75-.17.77.37-.23.37-.22-.93 1.86-.9 1.9.63-.39.64-.37c.15.26-8.95 6.51-8.83 6.72 0 0 .48-.3.49-.28s.7.41.7.43.62-.38.63-.36 1 .36 1 .39.69-.43.7-.41 1 .32 1 .34.82-.49.83-.48 1.86.33 1.88.37.35-.21.35-.2.09 1.42.11 1.45.41-.25.42-.24-1.06 1.5-1 1.54.57-.35.58-.33-1.26 1.69-1.24 1.73.57-.35.58-.33-1.5 1.68-1.48 1.72.82-.5.83-.48"/><path class="a" d="M170.8 14.3c0 .07 2.86-1.75 2.91-1.68s-4.27 2.9-4.22 3 1-.62 1-.59-2.3 2.44-2.25 2.53.62-.38.63-.36-1.14 1.43-1.11 1.48.5-.3.5-.29-.81 1.36-.8 1.38.47-.28.47-.27-.67 1.25-.66 1.28.41-.25.41-.24-.55 1.62-.53 1.66.39-.24.4-.23-.29 1.11-.28 1.13.35-.21.35-.2-.17 1.71-.15 1.75.35-.21.35-.2-.06 1.07 0 1.1.32-.2.33-.19.08 1.17.1 1.19.33-.2.33-.19-.09.76-.08.77.33-.2.33-.19.33 1.11.34 1.14.33-.2.33-.19.22.88.24.9l.33-.19.52 1.09s.35-.22.36-.21l.48.81s.35-.22.36-.21l.81 1s.41-.25.41-.24.12.47.13.49.42-.26.43-.25l.75.78s.45-.27.46-.26 1.13.77 1.14.79.48-.29.48-.28l.24.51s.54-.33.54-.31 1.55.69 1.58.73.55-.34.56-.32 1 .5 1 .52.59-.36.59-.34 1.36.42 1.38.46.93-.57.94-.54m29.96-19.23s1.15-.69 1.16-.67-2.24 2.48-2.19 2.56 4.74-2.92 4.82-2.78-5.2 4.3-5.12 4.43 6.28-3.86 6.38-3.69-6.81 5.18-6.7 5.39 6.9-4.17 7-4-7.31 5-7.19 5.16 6.8-4.18 6.91-4-7.36 5.45-7.22 5.69 6.67-4.06 6.76-3.9-7 4.52-6.91 4.73 6.58-4 6.68-3.86-6.9 4.39-6.81 4.55 6.51-4 6.62-3.82"/><path class="a" d="M204.85 24.1c.06.11 5-3 5-2.91S205 24.86 205.09 25s4.91-3 5-2.87-4.81 4-4.73 4.13 4.9-3 5-2.87-4.81 3.92-4.75 4c.17.3 11.28-6.89 11.44-6.61s-11.4 7.51-11.21 7.84 10.61-6.55 10.79-6.23-10.77 6.85-10.64 7.07 10.22-6.2 10.35-6S205.9 29.79 206 30s10-6 10.08-5.82-9.7 6.75-9.54 7 8.94-5.5 9.08-5.24-8.58 5.69-8.46 5.89 8-4.91 8.15-4.71-7.3 5-7.17 5.18 6.75-4.13 6.85-4-5.21 4-5.12 4.09 4.7-2.9 4.78-2.76-3.75 2.65-3.69 2.76 3.31-2 3.36-1.94-2 1.68-2 1.74 1.34-.82 1.36-.79m-11.34-17.82s1.13-.69 1.15-.66-2 1.87-2 1.94 3.75-2.3 3.81-2.2-4.24 3.59-4.17 3.72 5.91-3.58 6-3.45-6.28 4.47-6.18 4.63 6.9-4.25 7-4-7.25 4.47-7.12 4.68 7.36-4.47 7.45-4.3-7.84 5.79-7.74 6 8.09-5 8.23-4.75-8.65 6.24-8.52 6.45 8.65-5.28 8.77-5.07-9.18 6.16-9 6.44 9.08-5.57 9.22-5.32"/><path class="a" d="M192 13.48s1.18-.72 1.2-.69-1.6 1.43-1.58 1.47 2.73-1.65 2.76-1.59-2.77 2.7-2.72 2.8 4.54-2.8 4.62-2.67-4.53 3.26-4.45 3.4 5.12-3.12 5.19-3-5.07 3.7-5 3.81 5.49-3.34 5.57-3.21-5.45 3.89-5.38 4 5.64-3.47 5.74-3.31-5.55 4.35-5.46 4.5 5.66-3.48 5.75-3.32-5.64 4-5.56 4.18 5.63-3.44 5.71-3.3-5.46 4.62-5.37 4.77 5.56-3.38 5.63-3.25-5.5 4-5.41 4.2 5.49-3.38 5.58-3.22-5.4 4.2-5.33 4.32 5.45-3.33 5.52-3.19-5.45 3.71-5.38 3.83 5.4-3.33 5.49-3.17-5.31 4.19-5.22 4.35 5.36-3.25 5.43-3.13-5.3 3.91-5.22 4 5.31-3.22 5.38-3.11-5.18 4.19-5.1 4.33c.23.4 14.83-9.12 15.07-8.7s-15.08 9.42-14.88 9.73 14.82-9 15-8.68-15 9.6-14.73 10 14.73-9.07 15-8.64-15.07 8.74-14.85 9.12 9.27-5.68 9.42-5.44-9.1 6.19-9 6.4 8.61-5.23 8.72-5-7.85 5.75-7.75 5.93 7.35-4.45 7.44-4.29-7 4.41-6.86 4.61 6.63-4 6.72-3.88-4.26 3.93-4.19 4.06 3.7-2.28 3.77-2.17-2 1.92-2 2 1.17-.72 1.19-.69"/><path class="a" d="M193.46 12.87s.71-.43.72-.41 1.27.35 1.29.38.52-.31.53-.3l.29.48s.38-.23.38-.22l.6.93s.33-.2.33-.19v.72c0 .01.33-.2.33-.19s0 1.51.05 1.55l.35-.2s-.14 1.52-.12 1.55l.36-.21s-.28.67-.27.69.35-.21.36-.21-.2 1.18-.19 1.2.35-.22.36-.21-.14 1.57-.12 1.61.36-.22.36-.21-.24 1-.23 1 .36-.22.37-.21-.15 1.57-.13 1.61.36-.22.37-.21-.21 1.18-.2 1.21.37-.22.37-.21-.2.86-.19.88.64-.4.65-.38"/><path class="a" d="M202 13.55s1.59-1 1.61-.93-2.39 2.17-2.36 2.23.55-.34.56-.32-.76 1-.75 1 .42-.26.43-.25-.65 1.38-.63 1.41.42-.26.43-.25-.66 1.44-.64 1.48.43-.26.43-.25-.64 1.31-.62 1.35.42-.26.43-.25-.7 1.65-.68 1.69.43-.26.43-.25S199.93 22 200 22s.43-.26.43-.25-.58 1-.57 1 .43-.26.43-.25m3.28-9.44s1-.62 1-.59l.46.36s.7-.43.72-.41 1.48.73 1.51.77.38-.23.38-.22.21.68.22.69.33-.2.33-.19.28 1.26.3 1.29.32-.2.33-.19-.05 1.53 0 1.57.35-.21.35-.2-.19 1.18-.17 1.21.35-.22.36-.21-.18 1.22-.17 1.25.35-.21.36-.21-.27.73-.26.75.35-.22.36-.21-.12 1.6-.1 1.63.36-.22.36-.21-.22 1.07-.2 1.09.36-.22.37-.21-.12 1.65-.1 1.69.36-.22.37-.21-.09 1.33-.07 1.37.62-.38.63-.37"/><path class="a" d="M212.85 13.56s1.6-1 1.62-.94-2.62 2.94-2.57 3 .43-.26.43-.25-.77 2-.75 2 .43-.26.43-.25-.57.89-.56.91.43-.26.43-.25-.58 1-.57 1 .43-.26.43-.25-.65 1.29-.63 1.33.43-.26.43-.25-.64 1.25-.62 1.29.43-.26.43-.25-.64 1.2-.62 1.24.43-.26.44-.25-.62 1.15-.6 1.17.43-.26.44-.25m3.41-9.5s1-.61 1-.59 1.55.35 1.57.39.49-.3.5-.29l.66 1.09s.32-.2.32-.19-.21 1.59-.19 1.63.43-.26.43-.25-.76 1.4-.74 1.44.45-.28.46-.27-1 2-.93 2.06.46-.28.46-.27-.71 1.11-.69 1.14.46-.28.46-.27-.66 1-.65 1 .45-.28.46-.27-.87 1.71-.85 1.74.46-.28.46-.27-1 2.1-1 2.15.46-.28.46-.27-.82 1.5-.79 1.54.46-.28.46-.27-.66.92-.64.95.46-.28.46-.27-1 2.06-.94 2.11.45-.28.46-.27-.81 1.51-.79 1.54.46-.28.46-.27-.9 1.83-.88 1.87.46-.28.46-.27-1.35 1.82-1.32 1.88.76-.47.77-.45m-9.53-6.2s.37-.22.37-.21-.21 1.13-.19 1.16.36-.22.37-.21-.15 1.44-.13 1.47.36-.22.36-.21-.15 1.35-.14 1.37.35-.22.36-.21-.14 1.4-.12 1.44.33-.25.33-.25-.2 1-.19 1 .34-.21.35-.2-.18.65-.17.66.32-.2.33-.19.33 1.27.35 1.3.33-.2.33-.19l.42.77s.37-.23.38-.22.76.57.77.6.53-.32.54-.31 1.29.35 1.31.38.65-.4.66-.38l.43.38s1.07-.66 1.09-.63m-8.25-7.8s.5-.3.51-.29-.69 1.16-.68 1.19.43-.26.44-.25-.74 1.68-.72 1.73.43-.26.44-.25-.68 1.41-.66 1.45.43-.26.44-.25-.57.86-.56.89.43-.26.44-.25-.79 1.9-.77 1.94.45-.27.45-.26-1.29 1.6-1.26 1.64.88-.53.89-.51"/><path class="a" d="M191.86 13.29s1.19-.73 1.21-.7-1.67 1.47-1.65 1.51.55-.33.56-.32-.63 1.54-.61 1.58.34-.21.35-.2-.19.92-.18.94.34-.21.35-.2-.17 1-.16 1 .34-.21.35-.2-.17 1-.16 1 .34-.21.35-.2-.09 1.36-.07 1.39.34-.21.35-.2-.16 1-.15 1.06.34-.21.35-.2 0 1.64 0 1.67.34-.21.35-.2-.14 1.12-.13 1.15.34-.21.35-.2-.11 1.27-.09 1.3.34-.21.35-.2-.21.83-.2.84.34-.21.35-.2-.09 1.35-.07 1.38.34-.21.35-.2-.15 1.09-.14 1.11l.35-.2s-.08 1.4-.06 1.43.34-.21.35-.2-.14 1.14-.12 1.16.34-.21.35-.2-.06 1.48 0 1.51.34-.21.35-.2-.24.68-.23.69.34-.21.35-.2 0 1.17.05 1.19.37-.22.37-.21S196 32 196 32s.41-.25.42-.24.15.54.15.56.4-.24.41-.24 1.74.58 1.76.62.65-.4.66-.38 1.35.31 1.37.33 2.32-1.42 2.36-1.36"/><path class="b" d="M9.53 11.55a.19.19 0 0 1-.07-.11c0-.22 0-.22 3.53-1.2l1-.28-1.89.38c-3.31.67-3.63.71-3.75.63a.18.18 0 0 1-.07-.11c0-.23 0-.26 4.24-1.33l1.72-.43-2 .39c-4.17.83-4.62.89-4.76.8a.18.18 0 0 1-.07-.11c0-.25-.05-.3 5.28-1.52l1.17-.27-2.2.44c-4.13.84-4.59.9-4.73.8a.19.19 0 0 1-.07-.11c0-.24 0-.26 5.06-1.42l2.84-.65-3.29.66c-4.35.89-4.82 1-5 .85a.19.19 0 0 1-.08-.12c0-.24 0-.27 5-1.49 1.43-.34 3.06-.73 4.22-1-1.2.22-2.88.55-4.35.85-4.62.93-5.11 1-5.25.9A.19.19 0 0 1 6 7.91c0-.25 0-.28 5.26-1.46l3.36-.76-2.86.56c-5 1-5.72 1.09-5.87 1a.19.19 0 0 1-.07-.11c0-.25-.05-.29 5.34-1.43 1.29-.27 2.74-.58 3.88-.84-1.24.23-2.85.56-4.18.83-4.44.9-4.92 1-5.07.87a.19.19 0 0 1-.07-.11c0-.24 0-.26 5.52-1.62l2.49-.61-.64.1-1.41.28C7 5.55 6 5.72 5.8 5.6a.2.2 0 0 1-.08-.12.18.18 0 0 1 0-.07c0-.11 0-.19.51-.34C6 5 6 5 5.92 5a.19.19 0 0 1-.08-.12c0-.08 0-.14.1-.21a.18.18 0 0 1 0-.08c0-.24 0-.27 4.95-1.48l2.65-.65-2.86.54c-3.84.78-4.23.84-4.37.74a.18.18 0 0 1-.07-.11c0-.23 0-.24 4-1.18-3.08.61-3.46.65-3.59.57a.18.18 0 0 1-.07-.11c0-.22 0-.24 3.49-1.18l1.52-.41-.71.14c-3.14.63-3.3.63-3.42.56a.18.18 0 0 1-.07-.11c0-.18 0-.18 2-1l.61-.2c-.37.07-.4.06-.45 0A.17.17 0 0 1 9.5.62a.17.17 0 0 1 .13-.19h.07c.11 0 .54-.1.85-.16.92-.19.93-.19 1-.13a.17.17 0 0 1 .07.11c0 .18 0 .19-2.09 1l-.78.3 2.09-.41C13.79.55 13.93.55 14 .63a.18.18 0 0 1 .07.11c0 .22 0 .26-3.92 1.32L9 2.39 11.1 2c3.76-.75 3.95-.76 4.07-.68a.18.18 0 0 1 .07.11c0 .21 0 .25-3.47 1.07 3.17-.64 3.9-.75 4.05-.64a.2.2 0 0 1 .08.12c0 .24 0 .27-5 1.49l-1.85.45 1.45-.29c4.66-.94 5.7-1.11 5.89-1a.2.2 0 0 1 .08.12.19.19 0 0 1 0 .09.25.25 0 0 1 .12 0 .19.19 0 0 1 .08.12c0 .11 0 .18-.37.3h.5a.2.2 0 0 1 .07.1v.06a.18.18 0 0 1 0 .08c0 .24 0 .27-5.62 1.65l-2.54.65 2.09-.42c5-1 6.22-1.22 6.41-1.08a.21.21 0 0 1 .08.12c0 .26.06.32-5.48 1.5 4.84-1 5.4-1 5.55-.94a.18.18 0 0 1 .07.11c0 .26.06.32-6.1 1.69l-.62.14.55-.11c4.94-1 6-1.16 6.16-1a.2.2 0 0 1 .08.12c0 .25.05.31-6 1.76l-2 .49 1.88-.38c4.71-1 5.76-1.13 6-1a.2.2 0 0 1 .08.12c0 .24 0 .28-5.39 1.51 4.07-.82 4.95-1 5.13-.84a.2.2 0 0 1 .08.12c0 .24 0 .26-4.48 1.29l-2.2.51 1.62-.32c4.08-.81 4.52-.88 4.66-.78a.18.18 0 0 1 .07.11c0 .23 0 .26-4.35 1.36l-1.09.27L12 10c3.7-.75 4.14-.8 4.29-.71a.19.19 0 0 1 .08.12c0 .21 0 .22-3.35 1.14l-1.02.28.86-.17c2.49-.5 2.51-.49 2.6-.42a.18.18 0 0 1 .07.11c0 .18 0 .18-1.85.85l-.16.06h.18a.17.17 0 0 1 .07.11.17.17 0 0 1-.13.19h-.06c-.11 0-.53.1-.84.16-.93.19-.94.19-1 .13a.17.17 0 0 1-.07-.11c0-.19 0-.19 1.93-.88l.18-.06-.83.17c-2.77.56-3.26.63-3.42.58z"/><path class="b" d="M13.48 11.48a.17.17 0 0 1-.07-.11c0-.15 0-.17.65-.37 0-.1.09-.14.74-.41 0-.12 0-.13.51-.38 0-.11 0-.11.53-.54l.16-.15a.16.16 0 0 1 0-.08c0-.1 0-.13.19-.24a.15.15 0 0 1 .03-.2c0-.06.06-.14.42-.6l.14-.19a.17.17 0 0 1-.07-.11.15.15 0 0 1 .06-.1.14.14 0 0 1 0-.11c0-.06 0-.09.08-.16a.17.17 0 0 1 0-.06c0-.07 0-.09.11-.22a.16.16 0 0 1 0-.08c0-.07 0-.07.24-.55v-.09a.17.17 0 0 1-.07-.11c0-.05 0-.06.1-.3a.17.17 0 0 1-.07-.1c0-.06 0-.06.08-.24a.17.17 0 0 1-.07-.11l.09-.46v-.16a.14.14 0 0 1-.1 0A.17.17 0 0 1 17 5a2.42 2.42 0 0 1 0-.4v-.08a.17.17 0 0 1-.21-.13v-.28a.16.16 0 0 1-.12 0 .17.17 0 0 1-.06-.1v-.15h-.05a.16.16 0 0 1-.07-.1.17.17 0 0 1 0-.12h-.08a.17.17 0 0 1-.07-.11l.05-.53h-.2a.17.17 0 0 1-.06-.1L16 2.53l-.1-.25h-.24a.17.17 0 0 1-.07-.11l-.09-.23-.06-.15h-.28l-.32-.35-.27-.3h-.4l-.66-.32c-.42-.2-.63-.3-.73-.37h-.23c-.31.06-.32.07-.39 0a.17.17 0 0 1-.06-.01H12c-.52.11-.54.11-.61.06a.17.17 0 0 1 .07-.3L12 .13c.51-.1.52-.1.59-.06a.17.17 0 0 1 .06.08h.29c.08.05.46.23.71.35l.57.28h.11c.24 0 .26-.05.32 0v.05l.31.34.28.31c.17 0 .31-.06.34.1l.1.25.05.14h.24a.17.17 0 0 1 .07.11l.14.34.1.24h.23a.17.17 0 0 1 .07.1l.08.45h.19a.17.17 0 0 1 .07.11.18.18 0 0 1 0 .11h.07a.16.16 0 0 1 .07.1v.15a.17.17 0 0 1 .07.1v.31a.15.15 0 0 1 .18.13 1.88 1.88 0 0 1 0 .34v.15c.09 0 .18 0 .21.12s0 .05-.09.47v.16a.14.14 0 0 1 .1 0 .17.17 0 0 1 .07.11c0 .05 0 .06-.08.24a.17.17 0 0 1 .07.11c0 .05 0 .06-.1.29h.05a.17.17 0 0 1 .07.1c0 .06 0 .06-.2.47l-.09.17a.17.17 0 0 1 .07.11c0 .07 0 .09-.1.21a.17.17 0 0 1 0 .08c0 .07 0 .11-.07.18v.05a.14.14 0 0 1 0 .12.13.13 0 0 1 0 .13c0 .09 0 .09-.4.61l-.16.21a.16.16 0 0 1 .09.12.15.15 0 0 1-.06.16c0 .08 0 .12-.18.2 0 .12 0 .12-.57.57l.06.3c0 .13 0 .14-.47.38 0 .13 0 .14-.51.37 0 .16 0 .16-.7.37v.11l-.32.17c-.37.08-.46.1-.52.08z"/><path class="b" d="M9.1 11.47l-.37-.32-.31-.27h-.4a.16.16 0 0 1-.02-.1l-.26-.34-.22-.29h-.26a.17.17 0 0 1-.11-.15L7 9.67l-.07-.18c-.12 0-.27.05-.3-.11L6.55 9v-.19h-.2a.17.17 0 0 1-.07-.1l-.14-.78h-.18a.17.17 0 0 1-.07-.11 2.61 2.61 0 0 1 0-.43v-.24a.16.16 0 0 1-.14 0A.17.17 0 0 1 5.67 7l.07-.4v-.15a.15.15 0 0 1-.18-.12c0-.05 0-.05.12-.58l.07-.28a.15.15 0 0 1-.18-.12.2.2 0 0 1 0-.11.16.16 0 0 1 0-.07s0-.1.2-.33a.16.16 0 0 1-.07-.11c0-.07 0-.1.1-.21a.16.16 0 0 1 0-.07c0-.08 0-.08.33-.62l.12-.19a.17.17 0 0 1-.07-.11c0-.09 0-.09.39-.52l.09-.09a.15.15 0 0 1-.08-.11c0-.12 0-.12.66-.67l.29-.23a.17.17 0 0 1-.07-.11c0-.18 0-.18 1.89-1L10 .55 9.9.53a.17.17 0 0 1-.07-.11.17.17 0 0 1 .17-.2l.57-.11c.65-.13.66-.13.73-.08a.17.17 0 0 1 .07.11c0 .18 0 .18-2 1l-1.27.52c0 .11 0 .13-.74.73l-.26.21a.17.17 0 0 1 0 .08c0 .1 0 .1-.41.55l-.09.09a.17.17 0 0 1 .05.1c0 .08 0 .08-.33.61l-.14.22a.17.17 0 0 1 .07.11c0 .07 0 .1-.1.21a.16.16 0 0 1 0 .07c0 .08 0 .08-.19.37a.15.15 0 0 1 .08.11.19.19 0 0 1 0 .09.13.13 0 0 1 0 .07 5.54 5.54 0 0 1-.04.57v.25a.14.14 0 0 1 .1 0 .17.17 0 0 1 .07.1l-.08.45v.1a.14.14 0 0 1 .1 0 .17.17 0 0 1 .07.11 3.4 3.4 0 0 1 0 .47v.18c.09 0 .17 0 .2.12l.14.79h.19a.17.17 0 0 1 .07.11l.08.33.05.22h.22a.17.17 0 0 1 .07.11l.11.28.1.27h.24a.16.16 0 0 1 .05.06l.26.35.21.29h.28l.34.3.34.29h.41l.57.24.62.26.38-.07c.5-.1.51-.1.59-.06l.13.09.1.07.62-.12c.77-.16.77-.15.85-.1a.17.17 0 0 1 .07.11.17.17 0 0 1-.13.19h-.05l-.66.13C12 12 12 12 11.89 12l-.12-.08-.11-.07-.38.07c-.49.1-.51.1-.58.05l-.6-.25-.58-.25h-.09c-.22.01-.28.02-.33 0zm-7.22 7.24a.19.19 0 0 1-.08-.12c0-.26-.05-.29 6.2-1.69 2.06-.46 4.45-1 5.88-1.36-1.57.26-4.26.8-6.56 1.26C1.68 17.91.58 18.11.4 18a.19.19 0 0 1-.08-.12c0-.26-.05-.31 6.24-1.63 1.6-.34 3.42-.72 4.8-1l-4.2.75C1.56 17.13.4 17.34.2 17.2a.19.19 0 0 1-.08-.12c0-.26-.05-.3 5.81-1.51 1.55-.32 3.31-.68 4.59-1-1.36.25-3.23.63-4.77.94-4.69 1-5.24 1-5.39.93a.19.19 0 0 1-.08-.12c0-.23 0-.26 5.16-1.56l2.33-.59-.41.07-1.36.32c-4.55.91-5.2 1-5.35.9a.19.19 0 0 1-.08-.12.2.2 0 0 1 0-.12c0-.1 0-.17.58-.32H.78a.18.18 0 0 1-.07-.11c0-.08 0-.14.12-.2a.17.17 0 0 1 0-.08c0-.21 0-.23 3.33-1.19l1.31-.38-1.38.28c-2.72.55-2.83.55-2.94.48a.18.18 0 0 1-.15-.19c0-.2 0-.2 2.48-.92-2.11.42-2.13.4-2.23.34a.18.18 0 0 1-.07-.11c0-.17 0-.17 1.6-.85l.54-.22h-.18c-1.55.31-1.56.3-1.65.24a.17.17 0 0 1-.07-.11c0-.11 0-.11.61-.7l.21-.2h-.19l.09-.14h.16-.16v-.16l.27-.05c.33-.07.34-.07.41 0a.17.17 0 0 1 .07.11c0 .11 0 .11-.63.73l-.22.21 1-.2c1.45-.29 1.46-.28 1.54-.23a.17.17 0 0 1 .07.11c0 .18 0 .18-1.78.94l-.42.17 1.33-.26c2.28-.45 2.3-.45 2.39-.38a.17.17 0 0 1 .07.11c0 .2 0 .21-2.48.93h.14c3-.61 3.36-.65 3.49-.57a.19.19 0 0 1 .07.12c0 .21 0 .23-3.34 1.2L3 13.94l1.36-.27c3.94-.79 4.5-.88 4.66-.77a.19.19 0 0 1 .08.12V13h.42a.19.19 0 0 1 .07.11c0 .11 0 .17-.33.29.84-.15 1-.14 1.11-.09h.08a.23.23 0 0 1 .12 0 .18.18 0 0 1 .07.11c0 .24 0 .26-5.25 1.59L3 15.77l2.72-.55c5.33-1.08 6.6-1.31 6.82-1.15a.21.21 0 0 1 .08.12c0 .27.06.34-6.58 1.71l-.64.1 1.69-.33c5.74-1.14 6.55-1.26 6.71-1.15a.19.19 0 0 1 .07.12c0 .27.06.36-7.24 1.89l-2 .42 2.59-.52c6.35-1.27 7.86-1.52 8.08-1.38a.21.21 0 0 1 .08.12c0 .27.06.35-7.33 2l-3.23.73 3.37-.68c5.62-1.14 7.41-1.47 7.66-1.3a.21.21 0 0 1 .08.12c0 .25.05.31-6 1.6 4.42-.89 5.46-1.06 5.65-.92a.2.2 0 0 1 .08.12c0 .25 0 .27-5.05 1.39l-2.92.65 2.26-.45c4.56-.91 5.1-1 5.25-.89a.19.19 0 0 1 .07.11c0 .23 0 .27-4.59 1.4l-1.24.3.72-.15c3.91-.79 4.46-.87 4.61-.77a.19.19 0 0 1 .08.12c0 .22 0 .22-3.49 1.17l-1.27.34 1.34-.27c2.82-.57 2.84-.56 2.94-.49a.18.18 0 0 1 .07.11c0 .2 0 .21-2.61 1l-.5.15h.14c2.29-.47 2.4-.47 2.5-.4a.18.18 0 0 1 .07.11c0 .11 0 .16-.33.27h.07a.18.18 0 0 1 .07.11c0 .14 0 .14-1.12.76l-.37.2c.88-.18.88-.17 1-.12a.17.17 0 0 1 .07.11c0 .14 0 .15-.55.4v.16l-.32.06c-.36.07-.36.07-.42 0a.17.17 0 0 1-.07-.11.13.13 0 0 1 .07-.17c-.63.13-.64.12-.71.07a.17.17 0 0 1-.07-.11c0-.15 0-.15 1.27-.85l.27-.14-1.06.21c-1.9.38-1.92.37-2 .31a.17.17 0 0 1-.07-.11c0-.08 0-.13.13-.2-.63.12-.69.1-.76.06a.18.18 0 0 1-.14.02c0-.21 0-.21 2.74-1l.32-.1-.57.11c-3.31.67-3.7.72-3.83.62a.19.19 0 0 1-.08-.12c0-.22 0-.23 3.68-1.23l1.16-.31-2.2.44c-3.53.72-3.89.77-4 .68a.19.19 0 0 1-.07-.11c0-.23 0-.26 4.48-1.37l2-.5-2.63.49c-4.66.93-5.21 1-5.37.9a.19.19 0 0 1-.07-.12c0-.26-.06-.32 6-1.64l2.07-.46-3.66.73c-4.66.94-5.51 1.1-5.69 1a.19.19 0 0 1-.08-.12c0-.25-.05-.29 6.11-1.6 1.53-.33 3.27-.7 4.55-1-1.51.27-3.68.71-5.57 1.1-5 1.01-6.15 1.21-6.41 1.12z"/><path class="b" d="M12.74 22.17a.17.17 0 0 1-.07-.11c0-.11 0-.16.13-.19s.16-.2.4-.46l.15-.17a.17.17 0 0 1-.06-.1c0-.09 0-.11.16-.25a.16.16 0 0 1 0-.05.14.14 0 0 1 .06-.15c0-.07 0-.11.36-.5a.17.17 0 0 1-.07-.1c0-.09 0-.11.19-.29a.2.2 0 0 1 0-.06c0-.1 0-.12.19-.28a.17.17 0 0 1 0-.07c0-.09 0-.09.32-.49l.07-.08a.15.15 0 0 1-.07-.11c0-.09 0-.12.11-.2a.14.14 0 0 1 .06-.15c0-.07 0-.12.4-.61l.14-.18a.17.17 0 0 1-.07-.11.14.14 0 0 1 .07-.16.13.13 0 0 1 0-.14c0-.06 0-.1.13-.17 0-.09 0-.11.17-.25v-.06c0-.06 0-.06.17-.53v-.1a.14.14 0 0 1-.13-.13v-.22h-.25a.17.17 0 0 1-.07-.1l-.07-.1v-.08h-.08c-.28.06-.3.06-.36 0l-.61-.42-.45-.27h-.13c-.27.06-.29.06-.36 0l-.38-.25-.31-.21h-.16c-.24 0-.26.05-.33 0l-.18-.16-.22-.11h-.14c-.25.05-.27.05-.33 0a.17.17 0 0 1-.07-.11v-.1h-.09c-.26.05-.28.06-.34 0a.17.17 0 0 1-.07-.1v-.08c-.28.06-.3.06-.37 0l-.34-.23-.31-.21h-.15c-.26.05-.28.05-.34 0l-.48-.28-.47-.27h-.16c-.25.05-.27.05-.33 0l-.28-.2-.27-.2h-.13c-.27.05-.29.06-.35 0L5.81 12l-.53-.29h-.15c-.26.05-.28.05-.34 0l-.54-.29-.7-.42h-.16c-.24 0-.26.05-.33 0A.16.16 0 0 1 3 11h-.2l.09-.14h.14-.17v-.16h.2c.26-.05.28-.06.34 0a.17.17 0 0 1 .06.08h.2l.67.36.54.29h.14c.27-.05.29-.06.35 0l.53.29.55.31h.15c.26-.05.27-.05.34 0l.29.22.25.19h.12c.28-.06.3-.06.36 0l.47.27.58.19h.14c.27-.05.29-.06.35 0l.32.22.33.22h.16c.23 0 .36-.07.39.09v.11h.06c.26-.05.29-.06.35 0a.17.17 0 0 1 .07.12v.11h.07c.27-.06.29-.06.36 0l.19.18.14.13h.11c.28-.06.3-.06.37 0l.33.22.37.24h.15c.25-.05.27-.06.34 0l.46.27.45.27h.16c.25-.05.27-.06.33 0a.17.17 0 0 1 .06.07l.09.17h.29a.17.17 0 0 1 .07.1v.26a.17.17 0 0 1 .15 0 .17.17 0 0 1 .07.11c0 .05 0 .05-.14.45l-.07.17a.15.15 0 0 1 .11 0 .17.17 0 0 1 .07.1c0 .09 0 .11-.17.26a.16.16 0 0 1 0 .06c0 .08 0 .12-.12.21a.14.14 0 0 1 0 .15.14.14 0 0 1-.07.13c0 .08 0 .1-.38.6l-.16.21a.17.17 0 0 1 .07.11.14.14 0 0 1-.06.16c0 .07 0 .1-.11.17 0 .09 0 .09-.34.51l-.05.06a.17.17 0 0 1 .07.11c0 .09 0 .11-.19.28a.16.16 0 0 1 0 .06c0 .09 0 .11-.19.29a.17.17 0 0 1 0 .07c0 .09 0 .09-.29.44l-.08.1a.17.17 0 0 1 .07.11.14.14 0 0 1-.05.16c0 .07 0 .1-.16.22v.05c0 .09 0 .09-.44.6l-.12.14a.13.13 0 0 1 .09.12c0 .13 0 .17-.19.22h-.18c.19.06.14.07.09.06z"/><path class="b" d="M9.29 21.54a.12.12 0 0 1-.07-.08l-.11-.13-.11-.1h-.12c-.21 0-.33.07-.39 0L8.08 21l-.43-.26h-.11c-.29.06-.31.06-.37 0l-.49-.29-.46-.27h-.16c-.25 0-.27.05-.33 0l-.51-.29-.52-.3h-.14c-.27.05-.29.06-.35 0l-.48-.29-.4-.24h-.16c-.24 0-.26.06-.33 0l-.42-.26-.45-.27h-.16c-.24 0-.26.05-.33 0l-.4-.34-.45-.39c-.12 0-.26.05-.3-.1a1.65 1.65 0 0 1 0-.44v-.22a.16.16 0 0 1-.13 0A.17.17 0 0 1 0 17c0-.07 0-.07.22-.48l.07-.13a.17.17 0 0 1-.07-.1c0-.07 0-.07.27-.64l.13-.26a.14.14 0 0 1-.13-.12.19.19 0 0 1 0-.12.16.16 0 0 1 0-.07s0-.11.21-.33a.17.17 0 0 1-.07-.11c0-.07 0-.1.11-.21a.17.17 0 0 1 0-.07c0-.07 0-.07.26-.59l.11-.2a.17.17 0 0 1-.07-.11c0-.07 0-.07.23-.47l.06-.1a.17.17 0 0 1-.07-.11c0-.07 0-.07.25-.56l.11-.22h-.05a.17.17 0 0 1-.07-.11c0-.11 0-.11.68-.72l.23-.2h-.29a.17.17 0 0 1-.07-.11.17.17 0 0 1 .13-.19l.33-.06c.4-.08.42-.09.48 0a.17.17 0 0 1 .07.11c0 .12 0 .12-.71.75l-.35.31a.17.17 0 0 1 0 .06c0 .07 0 .07-.27.6l-.09.17h.05a.17.17 0 0 1 .07.1c0 .07 0 .07-.24.5v.07a.17.17 0 0 1 .07.11c0 .07 0 .07-.26.59l-.11.2a.17.17 0 0 1 .07.11c0 .08 0 .1-.11.22a.19.19 0 0 1 0 .06c0 .09 0 .09-.2.39H1a.16.16 0 0 1 .07.1.16.16 0 0 1 0 .1.12.12 0 0 1 0 .06 2.71 2.71 0 0 1-.28.61L.63 16a.14.14 0 0 1 .13.12c0 .08 0 .08-.24.53l-.05.09a.17.17 0 0 1 .07.11 2.33 2.33 0 0 1-.05.5v.16a.16.16 0 0 1 .13 0l.47.41.38.32h.11c.28-.06.3-.06.37 0l.46.28.41.25h.13c.28-.06.3-.06.36 0l.41.24.48.29h.14c.26-.05.28-.06.35 0l.52.3.51.29h.13c.27-.06.3-.06.36 0l.47.28.49.29h.17c.23 0 .25-.05.32 0l.44.26.46.28h.14c.26-.05.28-.06.35 0v.05l.12.15.07.09h.11c.26-.05.29-.06.35 0l.5.28.59.33h.14c.25 0 .37-.07.41.05l.1.13.07.09h.13c.34-.07.36-.07.42 0a.17.17 0 0 1 .07.12h.11c.38-.08.39-.08.46 0l-.09.14h-.16.16v.16l-.3.06c-.35.07-.35.07-.42 0a.17.17 0 0 1-.07-.11h-.11c-.29.06-.3.06-.37 0l-.05-.06-.11-.14-.07-.09h-.12c-.2 0-.32.07-.38 0l-.57-.32-.5-.28h-.15a.73.73 0 0 1-.1-.11zM2.3 33.28a.17.17 0 0 1-.07-.11.17.17 0 0 1 .09-.17h.06l.7-.13c.78-.16.78-.16.86-.11a.17.17 0 0 1 .07.11c0 .1 0 .14-.14.2 0 .11 0 .15-.32.21l-.33.06c-.38.07-.39.08-.46 0s-.13 0-.17 0a.17.17 0 0 1-.06-.07.53.53 0 0 1-.23.01z"/><path class="b" d="M1.12 34.65a.14.14 0 0 1-.12-.12.15.15 0 0 1 0-.1.14.14 0 0 1-.13 0 .17.17 0 0 1-.07-.11c0-.11 0-.11.66-.72l.12-.11c-.4.08-.4.08-.47 0a.17.17 0 0 1-.07-.11c0-.11 0-.15.3-.26a.15.15 0 0 1-.09 0 .17.17 0 0 1-.03-.12c0-.18 0-.18 1.76-.87l.18-.13-.25.05c-2.19.44-2.31.44-2.41.38a.18.18 0 0 1-.07-.11c0-.19 0-.19 2.42-1l.47-.16-.76.15c-2.24.45-2.26.44-2.35.38a.18.18 0 0 1-.07-.11c0-.2 0-.21 2.73-1.06l.76-.23-.63.14c-2.63.52-2.66.5-2.75.44a.18.18 0 0 1-.07-.11c0-.21 0-.23 3.18-1.14l.21-.06-.52.1c-2.51.51-2.54.49-2.64.43A.18.18 0 0 1 .38 30c0-.21 0-.21 3-1.05l.82-.23-.81.17c-2.53.52-2.65.52-2.74.45a.18.18 0 0 1-.07-.11c0-.21 0-.21 3-1.14l1.87-.57-1.66.33c-2.83.57-2.85.55-2.95.48a.18.18 0 0 1-.07-.11c0-.22 0-.22 3.18-1.1l1.27-.35-.8.16c-3.15.62-3.3.63-3.41.56a.18.18 0 0 1-.07-.11c0-.22 0-.23 3.34-1.08l1.07-.3-1.12.23c-2.85.58-3 .58-3.08.51a.18.18 0 0 1-.07-.11c0-.21 0-.22 3.74-1.31l1.58-.46-1.16.23c-3.38.68-3.75.72-3.88.64a.17.17 0 0 1-.06-.22c0-.11 0-.18.63-.34h-.45a.18.18 0 0 1-.07-.17c0-.08 0-.13.1-.2a.17.17 0 0 1 0-.09c0-.21 0-.23 3.26-1.18L6 23.17l-1.37.28c-2.68.54-2.79.55-2.9.48a.18.18 0 0 1-.07-.11c0-.2 0-.2 2.45-.91-2.12.42-2.15.4-2.24.34a.18.18 0 0 1-.07-.11c0-.17 0-.17 1.58-.85l.54-.23h-.2c-1.56.31-1.57.3-1.66.25a.17.17 0 0 1-.06-.08c0-.11 0-.11.61-.7l.21-.2h-.18l.09-.14h.16-.16V21H3c.32-.07.35-.07.41 0a.17.17 0 0 1 .07.11c0 .11 0 .11-.63.73L2.6 22l1-.21c1.46-.3 1.47-.29 1.55-.23a.17.17 0 0 1 .07.11c0 .18 0 .18-1.77.94l-.41.17 1.32-.26c2.27-.45 2.29-.44 2.38-.38a.17.17 0 0 1 .07.11c0 .2 0 .21-2.45.92h.14c3-.61 3.33-.65 3.45-.56a.19.19 0 0 1 .07.11c0 .21 0 .23-3.27 1.19l-1 .29.95-.2c3.56-.72 4-.77 4.11-.67a.19.19 0 0 1 .07.12v.16a.18.18 0 0 1 .07.11c0 .13 0 .19-.62.36h.4a.18.18 0 0 1 .07.11.18.18 0 0 1 0 .13c0 .17-.33.27-3.8 1.27L3.54 26l.62-.13c3.34-.68 3.74-.73 3.88-.63a.19.19 0 0 1 .08.12c0 .22 0 .26-3.49 1.14 2.87-.5 2.9-.5 3-.5a.18.18 0 0 1 .07.11c0 .22 0 .25-3.68 1.26l-.24.07c3.09-.62 3.25-.63 3.37-.55a.18.18 0 0 1 .07.11c0 .21 0 .24-3.56 1.33l-.84.26.48-.1c2.83-.49 3.14-.56 3.27-.49a.18.18 0 0 1 .07.11c0 .21 0 .22-3.2 1.12h-.07c2.49-.5 2.64-.51 2.75-.43a.18.18 0 0 1 .08.2c0 .21 0 .21-2.71 1l-.81.23.3-.06c2.57-.51 2.6-.5 2.7-.43a.17.17 0 0 1 .07.11c0 .21 0 .22-2.79 1.08l-.57.07h.1c2.46-.5 2.59-.5 2.68-.43a.18.18 0 0 1 .07.11c0 .19 0 .19-2.3 1l-.61.2.5-.1c1.77-.36 1.78-.35 1.86-.29a.17.17 0 0 1 .07.11c0 .17 0 .17-1.68.83l-.27.1c1.32-.27 1.34-.26 1.42-.2a.17.17 0 0 1 .07.11c0 .18 0 .18-1.62.65l-.4.11c0 .08 0 .12-.58.62l-.2.18c.31-.06.31-.06.37 0a.17.17 0 0 1 .07.11c0 .12 0 .14-.32.33v.16h-.21a.68.68 0 0 1-.29.05z"/><path class="b" d="M3.48 33.16a.17.17 0 0 1-.11-.16c0-.12 0-.15.29-.28 0-.08 0-.12.45-.53l.05-.05a.17.17 0 0 1 0-.09c0-.09 0-.09.41-.61l.19-.23a.17.17 0 0 1-.07-.11c0-.09 0-.09.38-.53l.09-.11a.17.17 0 0 1-.16-.08c0-.09 0-.09.41-.6l.12-.14a.15.15 0 0 1-.07-.11.14.14 0 0 1 .05-.16c0-.06 0-.09.13-.16 0-.09 0-.09.39-.56l.12-.13a.17.17 0 0 1-.07-.11c0-.09 0-.09.41-.6l.14-.16a.17.17 0 0 1-.07-.11c0-.08 0-.12.1-.18s0-.09.38-.53l.09-.1a.15.15 0 0 1-.07-.1c0-.1 0-.1.35-.49A.16.16 0 0 1 7.4 26c0-.1 0-.1.29-.4a.17.17 0 0 1 0-.08c0-.1 0-.1.37-.54l.14-.16a.15.15 0 0 1-.07-.11c0-.09 0-.09.35-.56l.1-.14a.17.17 0 0 1-.07-.11v-.77h-.25l-.45-.28-.47-.3H7.2c-.27.05-.28.06-.35 0l-.58-.31-.69-.37h-.15c-.25.05-.27.06-.34 0a.17.17 0 0 1-.07-.11v-.08c-.25.05-.28.06-.34 0a.14.14 0 0 1-.11 0l-.3-.22-.24-.17H3.9c-.27.06-.29.06-.35 0l.09-.14h.16-.16V21h.2c.26-.05.27-.06.34 0l.26.19.28.2h.16c.25 0 .26-.05.32 0a.14.14 0 0 1 .11 0 .17.17 0 0 1 .07.12v.07c.27-.05.29-.06.36 0l.68.36.58.31h.15c.27-.05.29-.06.35 0l.47.3.44.28H8.4h.29a.17.17 0 0 1 .07.11v.77h.17a.16.16 0 0 1 .07.11c0 .09 0 .09-.34.55l-.1.13a.16.16 0 0 1 .07.11c0 .1 0 .1-.42.59l-.09.1a.17.17 0 0 1 .07.11c0 .09 0 .1-.3.4a.17.17 0 0 1 0 .08c0 .09 0 .09-.35.47a.17.17 0 0 1 .06.1c0 .09 0 .09-.38.54l-.09.1a.17.17 0 0 1 .07.11c0 .08 0 .12-.09.18s0 .1-.41.59l-.14.16a.15.15 0 0 1 .08.11c0 .1 0 .1-.4.58l-.05.17a.17.17 0 0 1 .07.11c0 .08 0 .12-.13.2a.14.14 0 0 1 0 .15c0 .06-.07.14-.41.53l-.14.16a.15.15 0 0 1 .07.11c0 .1 0 .1-.38.55l-.08.09a.16.16 0 0 1 .07.11c0 .09 0 .09-.45.67l-.14.17a.15.15 0 0 1 .08.11c0 .11 0 .11-.37.5l-.09.09a.17.17 0 0 1 .07.11c0 .11 0 .14-.21.24a.17.17 0 0 1-.13.19H3.8c-.22.07-.27.08-.32.07z"/><path class="b" d="M2.41 33.46a.17.17 0 0 1-.07-.11.17.17 0 0 1 .14-.19h.05l.61-.16c.73-.15.73-.15.8-.09A.17.17 0 0 1 4 33c0 .14 0 .17-.44.29v.07l-.35.06c-.38.08-.38.08-.44 0v-.05a.74.74 0 0 1-.36.09z"/><path class="b" d="M1.55 34.49a.17.17 0 0 1-.07-.11c0-.08 0-.11.09-.17 0-.09 0-.09.4-.61l.21-.26h-.2a.17.17 0 0 1-.07-.11.14.14 0 0 1 0-.15.17.17 0 0 1 .09-.23h.32a.17.17 0 0 1 .06.07h.2a.17.17 0 0 1 .07.11c0 .09 0 .09-.49.73L2 34a.17.17 0 0 1 .07.11c0 .11 0 .14-.22.27v.1h-.11c-.1.02-.15.03-.19.01z"/><path class="b" d="M1.15 34.8a.17.17 0 0 1-.07-.1H1a.15.15 0 0 1-.11 0 .17.17 0 0 1-.07-.11v-.21a.15.15 0 0 1-.1 0 .17.17 0 0 1-.06-.1c0-.07 0-.07.3-.63l.08-.14H.97a.17.17 0 0 1 .03-.24c0-.08 0-.09.18-.29a.13.13 0 0 1 0-.06l-.29-.3-.25-.26H.39a.16.16 0 0 1-.07-.11v-.63a.17.17 0 0 1-.15 0 .17.17 0 0 1-.17-.11c0-.06 0-.06.18-.53l.08-.19a.14.14 0 0 1-.15-.13c0-.07 0-.07.23-.55L.39 30a.14.14 0 0 1-.12-.12c0-.07 0-.07.2-.5l.07-.15a.17.17 0 0 1-.07-.11c0-.06 0-.06.22-.58l.13-.29H.75a.17.17 0 0 1-.07-.11c0-.06 0-.06.2-.51l.1-.2a.14.14 0 0 1-.13-.12c0-.08 0-.08.2-.48l.07-.13a.17.17 0 0 1-.07-.1c0-.06 0-.06.23-.62l.11-.26h-.07a.17.17 0 0 1-.07-.1.15.15 0 0 1 0-.11.16.16 0 0 1 0-.07s0-.11.19-.32a.17.17 0 0 1-.07-.11c0-.07 0-.09.1-.2a.17.17 0 0 1 0-.08c0-.06 0-.06.22-.57l.1-.21a.14.14 0 0 1-.13-.13c0-.07 0-.07.2-.46l.05-.1a.16.16 0 0 1-.22-.26c0-.06 0-.06.21-.54l.1-.22h-.06a.17.17 0 0 1-.07-.11c0-.11 0-.11.69-.72l.23-.2h-.3a.17.17 0 0 1 .07-.3l.33-.06c.41-.08.43-.09.49 0a.17.17 0 0 1 .07.11c0 .11 0 .11-.72.75l-.32.29a.16.16 0 0 1 0 .06c0 .07 0 .07-.24.6l-.08.16h.06a.16.16 0 0 1 .07.11c0 .07 0 .07-.21.49v.07a.17.17 0 0 1 .07.11c0 .07 0 .07-.23.59l-.09.2h.06a.16.16 0 0 1 .07.11c0 .07 0 .1-.1.21a.17.17 0 0 1 0 .07c0 .07 0 .08-.18.37a.18.18 0 0 1 .06.2.12.12 0 0 1 0 .06 2.53 2.53 0 0 1-.24.6l-.11.26a.14.14 0 0 1 .14.13c0 .08 0 .08-.22.52V27a.14.14 0 0 1 .11.12c0 .08 0 .08-.23.58l-.06.13h.06a.17.17 0 0 1 .07.11c0 .07 0 .07-.25.66l-.09.21h.07A.17.17 0 0 1 1 29c0 .07 0 .07-.22.53l-.06.11a.17.17 0 0 1 .07.11c0 .06 0 .06-.2.48l-.08.17h.06a.16.16 0 0 1 .07.1c0 .06 0 .06-.18.55l-.07.18h.06a.17.17 0 0 1 .07.11v.62a.18.18 0 0 1 .16 0l.29.3.27.27h.34a.17.17 0 0 1 .07.11c0 .08 0 .09-.2.31a.17.17 0 0 1 0 .09c0 .08 0 .08-.26.56l-.02.4a.16.16 0 0 1 .07.1v.21h.22a.17.17 0 0 1 .07.11h.31l-.09.14h-.16.16v.16H1.5c-.25.08-.31.1-.35.08z"/></svg>