<svg id="レイヤー_1" xmlns="http://www.w3.org/2000/svg" xmlns:xlink="http://www.w3.org/1999/xlink" viewBox="0 0 149 53.2"><style>.st0{fill:none}.st1{enable-background:new}.st2{fill:#002147}.st3,.st4{stroke:#fff;stroke-linecap:round;stroke-linejoin:round}.st3{fill:none;stroke-width:6}.st4{stroke-width:7}.st4,.st5{fill:#e9528e}.st6{fill:#0075c2}.st7{opacity:.2}.st8{fill:url(#SVGID_1_)}.st9{fill:url(#SVGID_2_)}.st10{fill:url(#SVGID_7_)}.st11{fill:url(#SVGID_8_)}</style><pattern y="53.2" width="149" height="53.2" patternUnits="userSpaceOnUse" id="SVGID_3_" viewBox="0 -53.2 149 53.2" overflow="visible"><path class="st0" d="M0-53.2h149V0H0z"/></pattern><pattern y="53.2" width="149" height="53.2" patternUnits="userSpaceOnUse" id="SVGID_4_" viewBox="0 -53.2 149 53.2" overflow="visible"><path class="st0" d="M0-53.2h149V0H0z"/></pattern><pattern y="53.2" width="149" height="53.2" patternUnits="userSpaceOnUse" id="SVGID_5_" viewBox="0 -53.2 149 53.2" overflow="visible"><path class="st0" d="M0-53.2h149V0H0z"/></pattern><pattern y="53.2" width="149" height="53.2" patternUnits="userSpaceOnUse" id="SVGID_6_" viewBox="0 -53.2 149 53.2" overflow="visible"><path class="st0" d="M0-53.2h149V0H0z"/></pattern><g class="st1"><path class="st2" d="M48 49.3c-.3 0-.5-.1-.7-.3s-.3-.4-.3-.7v-6.9c0-.3.1-.5.3-.7s.4-.3.7-.3h2.1c.5 0 1 0 1.4.1s.8.3 1.1.5.6.5.8.9.3.8.3 1.4c0 .5-.1 1-.3 1.4s-.5.7-.8 1-.7.4-1.1.5-.9.2-1.4.2h-.9c-.1 0-.1 0-.1.1v1.8c0 .3-.1.5-.3.7s-.4.3-.7.3H48zm1.1-4.8c0 .1 0 .1.1.1h.8c1 0 1.5-.5 1.5-1.4 0-.4-.1-.7-.4-.9s-.7-.3-1.2-.3h-.8c-.1 0-.1 0-.1.1v2.4zm6.9 4.8c-.3 0-.5-.1-.7-.3s-.3-.4-.3-.7v-4.9c0-.2.1-.4.3-.6s.4-.3.6-.3c.2 0 .5.1.7.3s.3.4.3.6v.3c.2-.4.5-.7.8-1s.7-.4 1-.4c.2 0 .4.1.6.3.1.2.2.3.2.5v.2c0 .2-.2.4-.4.6s-.5.2-.7.3c-.5.1-1 .4-1.2 1.1v3c0 .3-.1.5-.3.7s-.5.3-.9.3zm7.4.2c-.4 0-.9-.1-1.3-.2s-.8-.4-1.1-.7-.6-.7-.7-1.1-.3-1-.3-1.5.1-1.1.3-1.5.4-.8.7-1.1.7-.5 1.1-.7.8-.2 1.3-.2c.4 0 .8.1 1.2.2s.8.4 1.1.7.6.7.7 1.1.3 1 .3 1.5-.1 1-.3 1.5-.4.8-.7 1.1-.7.5-1.1.7-.7.2-1.2.2zm0-1.7c.4 0 .7-.2.9-.5s.3-.8.3-1.4-.1-1-.3-1.4-.5-.5-.9-.5-.7.2-.9.5-.3.8-.3 1.4.1 1 .3 1.4.5.5.9.5zm7.2 1.7c-.9 0-1.5-.3-2-1s-.8-1.5-.8-2.6c0-.5.1-1 .2-1.5s.4-.8.6-1.1.6-.5.9-.7.7-.3 1-.3c.3 0 .6.1.9.2s.5.3.7.5v-2.3c0-.3.1-.5.3-.7s.4-.3.7-.3h.1c.3 0 .5.1.7.3s.3.4.3.7v7.7c0 .2-.1.4-.3.6s-.4.3-.6.3H73c-.2 0-.3-.1-.5-.2s-.2-.3-.3-.4c-.2.2-.5.4-.8.6s-.5.2-.8.2zm.5-1.8c.4 0 .7-.2.9-.5 0-.1.1-.1.1-.2v-2.5c0-.1 0-.1-.1-.2-.3-.2-.6-.3-1-.3-.3 0-.6.2-.8.5s-.2.8-.2 1.4c0 1.2.3 1.8 1.1 1.8zm7 1.8c-.7 0-1.3-.2-1.6-.7s-.5-1.2-.5-2v-3.2c0-.3.1-.5.3-.7s.4-.3.7-.3c.3 0 .5.1.7.3s.3.4.3.7v2.9c0 .5.1.8.2 1s.3.3.6.3c.2 0 .4 0 .6-.1s.3-.2.5-.5c0-.1.1-.1.1-.2v-3.3c0-.3.1-.5.3-.7s.4-.3.7-.3h.1c.3 0 .5.1.7.3s.3.4.3.7v4.9c0 .2-.1.4-.3.6s-.4.3-.6.3c-.2 0-.5-.1-.6-.2s-.3-.4-.3-.6v-.1c-.3.4-.6.6-1 .8s-.8.1-1.2.1zm8.8 0c-1 0-1.8-.3-2.4-1s-1-1.5-1-2.6c0-.7.2-1.4.5-1.9s.8-1 1.3-1.2 1.1-.4 1.8-.4c.5 0 .9.1 1.3.3.2.1.3.3.4.5v.1c0 .2-.1.4-.2.5-.1.2-.4.3-.8.3h-.6c-.5 0-.8.2-1.1.5s-.4.8-.4 1.4c0 .6.1 1 .4 1.3s.6.5 1 .5c.2 0 .3 0 .5-.1.1 0 .2-.1.4-.1h.3c.2.1.4.2.5.4.1.1.1.3.1.5v.2c0 .2-.2.4-.4.5-.6.2-1.1.3-1.6.3zm6.1 0c-.8 0-1.4-.2-1.8-.7s-.6-1.1-.6-2v-2.5c0-.1 0-.1-.1-.1-.2 0-.4-.1-.6-.2s-.2-.3-.2-.6c0-.2.1-.4.2-.6s.3-.3.6-.3h.1c.1 0 .1 0 .1-.1l.1-.8c0-.2.1-.5.3-.6s.4-.3.7-.3c.2 0 .5.1.6.3s.3.4.3.6v.8c0 .1 0 .1.1.1h.7c.2 0 .4.1.6.2s.2.4.2.6-.1.4-.2.6-.4.2-.6.2h-.7c-.1 0-.1 0-.1.1v2.5c0 .6.2 1 .7 1 .2 0 .4.1.6.2s.3.3.3.4v.2c0 .1 0 .3-.1.4-.1.2-.3.3-.5.3-.2.3-.5.3-.7.3zm4.6 0c-.6 0-1.3-.2-1.9-.5-.2-.1-.3-.3-.4-.5v-.1c0-.2.1-.3.2-.5s.3-.3.5-.3h.2c.2 0 .3 0 .5.1.4.2.7.3 1 .3.5 0 .8-.2.8-.5v-.2c0-.1-.1-.1-.1-.1s-.1-.1-.2-.1-.1-.1-.2-.1-.2-.1-.2-.1-.2-.1-.3-.1-.2-.1-.3-.1l-.6-.3c-.2-.1-.5-.4-.6-.6s-.3-.3-.4-.6-.2-.5-.2-.7c0-.6.2-1.2.7-1.6s1.1-.6 1.9-.6c.6 0 1.2.1 1.8.4.2.1.3.3.3.5v.1c0 .2-.1.3-.2.5s-.3.3-.5.3h-.2c-.1 0-.3 0-.4-.1-.3-.1-.5-.2-.7-.2-.5 0-.7.2-.7.5v.1s0 .1.1.1.1.1.1.1l.1.1s.1.1.2.1.1.1.2.1.2.1.2.1.1 0 .2.1.2.1.2.1c.2.1.5.2.7.3s.4.2.6.4.3.4.4.6.1.5.1.8c0 .7-.2 1.2-.7 1.6s-1.3.6-2.2.6z"/></g><image width="149" height="43" xlink:href="56D27176EF63A71C.png" transform="translate(.132 -.462) scale(.9982)" overflow="visible" opacity=".25"/><path d="M6.5 18.7c0-.6.4-1 1-1h2.4l.6-.1c.3 0 .5-.3.5-.5l-.2-2.4c0-.3-.3-.5-.5-.5l-2.6.1c-.6 0-1.2-.3-1.4-.9l-.6-1.3c-.2-.4 0-.8.4-.9.1 0 .1-.1.2-.1l8.5-.8c.3 0 .5-.3.5-.6v-.3c0-.6.4-1 1-1l2.7.1c.5 0 .9.5.9 1 0 .2.2.4.4.4l7.1-.6c.6-.1 1.1.3 1.4.9l.8 2.1c.1.4 0 .8-.4.9-.1 0-.2 0-.2.1l-3.1.2c-.3 0-.6.2-.6.5l-.6 2c0 .1 0 .3.2.3h.1c.5 0 1.1.1 1.5.3l2 1.1c.5.3.9.9.9 1.5v6.2c0 2.5-.1 5-.5 7.4-.1.5-.5.8-1 .7h-.1l-4.6-1.4c-.3-.1-.7-.1-1-.1l-8.2.4c-.6 0-1-.4-1.1-.9v-.1l-.4-5c0-.3-.2-.5-.5-.6l-1-.3c-.2 0-.4.1-.5.3V33c0 .6-.4 1-1 1l-2.2.1c-.5 0-1-.3-1-.9v-.1l.2-14.4zm17 6.3c-.3 0-.5.3-.5.5l-.2 3.8c0 .1.1.3.2.3h.1l.4-.3c1.2-.8 1.3-1.1 1.3-2.3v-1.6c0-.2-.2-.5-.4-.5l-.9.1zm-6.8 1.8c-.3 0-.5.3-.5.6v1c0 .3.2.5.5.5l1.5-.1c.3 0 .5-.3.5-.5l.1-1.1c0-.2-.1-.4-.4-.4h-1.7zM11 20.4c-.3 0-.5.3-.5.5v3.6c0 .1.1.1.2.1 0 0 .1 0 .1-.1l2.3-4c.1-.1 0-.3-.1-.4h-.2l-1.8.3zm4.4 3c-.1.1 0 .3.1.3h.2l2.5-.3c.3 0 .5-.2.5-.5v-2.6c0-.3-.2-.5-.5-.5l-2 .1c-.3 0-.5.2-.6.5v.1c0 .2.1.4.3.5.3.1.5.5.4.9v.1l-.9 1.4zm7.6-3.9c-.3 0-.5.2-.5.5 0 .6 0 1 .3 1.3.2.2.6.3.9.3.2 0 .5 0 .7-.1h.2c.3 0 .5-.3.5-.5v-1.1c0-.3-.2-.5-.4-.5l-1.7.1zm-8.3-2.6c-.1.1-.1.2 0 .3 0 0 .1.1.2.1l5-.5c.3 0 .5-.2.6-.5l.4-2c0-.2-.1-.4-.3-.5h-.1l-6.3.3c-.3 0-.5.2-.6.5 0 .3.2.6.5.6l.8.2c.3.1.6.4.5.7 0 .1-.1.2-.1.3l-.6.5z"/><path class="st3" d="M6.5 18.7c0-.6.4-1 1-1h2.4l.6-.1c.3 0 .5-.3.5-.5l-.2-2.4c0-.3-.3-.5-.5-.5l-2.6.1c-.6 0-1.2-.3-1.4-.9l-.6-1.3c-.2-.4 0-.8.4-.9.1 0 .1-.1.2-.1l8.5-.8c.3 0 .5-.3.5-.6v-.3c0-.6.4-1 1-1l2.7.1c.5 0 .9.5.9 1 0 .2.2.4.4.4l7.1-.6c.6-.1 1.1.3 1.4.9l.8 2.1c.1.4 0 .8-.4.9-.1 0-.2 0-.2.1l-3.1.2c-.3 0-.6.2-.6.5l-.6 2c0 .1 0 .3.2.3h.1c.5 0 1.1.1 1.5.3l2 1.1c.5.3.9.9.9 1.5v6.2c0 2.5-.1 5-.5 7.4-.1.5-.5.8-1 .7h-.1l-4.6-1.4c-.3-.1-.7-.1-1-.1l-8.2.4c-.6 0-1-.4-1.1-.9v-.1l-.4-5c0-.3-.2-.5-.5-.6l-1-.3c-.2 0-.4.1-.5.3V33c0 .6-.4 1-1 1l-2.2.1c-.5 0-1-.3-1-.9v-.1l.2-14.4zm17 6.3c-.3 0-.5.3-.5.5l-.2 3.8c0 .1.1.3.2.3h.1l.4-.3c1.2-.8 1.3-1.1 1.3-2.3v-1.6c0-.2-.2-.5-.4-.5l-.9.1zm-6.8 1.8c-.3 0-.5.3-.5.6v1c0 .3.2.5.5.5l1.5-.1c.3 0 .5-.3.5-.5l.1-1.1c0-.2-.1-.4-.4-.4h-1.7zM11 20.4c-.3 0-.5.3-.5.5v3.6c0 .1.1.1.2.1 0 0 .1 0 .1-.1l2.3-4c.1-.1 0-.3-.1-.4h-.2l-1.8.3zm4.4 3c-.1.1 0 .3.1.3h.2l2.5-.3c.3 0 .5-.2.5-.5v-2.6c0-.3-.2-.5-.5-.5l-2 .1c-.3 0-.5.2-.6.5v.1c0 .2.1.4.3.5.3.1.5.5.4.9v.1l-.9 1.4zm7.6-3.9c-.3 0-.5.2-.5.5 0 .6 0 1 .3 1.3.2.2.6.3.9.3.2 0 .5 0 .7-.1h.2c.3 0 .5-.3.5-.5v-1.1c0-.3-.2-.5-.4-.5l-1.7.1zm-8.3-2.6c-.1.1-.1.2 0 .3 0 0 .1.1.2.1l5-.5c.3 0 .5-.2.6-.5l.4-2c0-.2-.1-.4-.3-.5h-.1l-6.3.3c-.3 0-.5.2-.6.5 0 .3.2.6.5.6l.8.2c.3.1.6.4.5.7 0 .1-.1.2-.1.3l-.6.5z"/><path d="M32.8 24.5c0-.6.4-1.1 1-1.1l6.8-.9c.6-.1 1.3.1 1.8.4l3.3 2.1c.1.1.3 0 .4-.1v-1.2c0-.6.4-1.1 1-1.1l6.8-.8c.6-.1 1.3.1 1.8.5l2 1.4c.5.3.8 1 .7 1.6l-.9 7.6c-.1.6-.6 1-1.1 1l-9 .2c-.6 0-1-.4-1-1l-.1-6.7c0-.3-.2-.6-.6-.7-.3 0-.6.2-.7.6l-1 6.5c-.1.6-.6 1-1.2 1l-8.7.2c-.6 0-1-.4-1-1l-.3-8.5zm4.8 2.3c-.3 0-.5.3-.5.6l.1 2.2c0 .3.2.5.5.5l1.9-.2c.3 0 .5-.3.5-.5l.2-2.3c0-.2-.1-.4-.4-.4h-.1l-2.2.1zm13.3-.7c-.3 0-.5.3-.5.6v2.7c0 .2.2.4.4.4h.1l1.7-.2c.3 0 .5-.3.6-.5l.3-2.8c0-.2-.1-.4-.3-.4h-.1l-2.2.2zm-14.8-15c-.1-.5.3-1 .9-1.1l12.9-1.4c.6-.1 1.3.1 1.8.4l2.8 1.6c.5.3.8.9.6 1.5l-1.7 6.8c-.2.6-.7 1-1.2 1l-14.5.9c-.5 0-1-.4-1.1-.9l-.5-8.8zm5.5 2.4c-.3 0-.5.3-.5.6l.1 2.1c0 .3.2.5.5.5l6.8-.7c.3 0 .5-.2.6-.5l.5-2.3c0-.2-.1-.4-.3-.4h-.1l-7.6.7z"/><path class="st3" d="M32.8 24.5c0-.6.4-1.1 1-1.1l6.8-.9c.6-.1 1.3.1 1.8.4l3.3 2.1c.1.1.3 0 .4-.1v-1.2c0-.6.4-1.1 1-1.1l6.8-.8c.6-.1 1.3.1 1.8.5l2 1.4c.5.3.8 1 .7 1.6l-.9 7.6c-.1.6-.6 1-1.1 1l-9 .2c-.6 0-1-.4-1-1l-.1-6.7c0-.3-.2-.6-.6-.7-.3 0-.6.2-.7.6l-1 6.5c-.1.6-.6 1-1.2 1l-8.7.2c-.6 0-1-.4-1-1l-.3-8.5zm4.8 2.3c-.3 0-.5.3-.5.6l.1 2.2c0 .3.2.5.5.5l1.9-.2c.3 0 .5-.3.5-.5l.2-2.3c0-.2-.1-.4-.4-.4h-.1l-2.2.1zm13.3-.7c-.3 0-.5.3-.5.6v2.7c0 .2.2.4.4.4h.1l1.7-.2c.3 0 .5-.3.6-.5l.3-2.8c0-.2-.1-.4-.3-.4h-.1l-2.2.2zm-14.8-15c-.1-.5.3-1 .9-1.1l12.9-1.4c.6-.1 1.3.1 1.8.4l2.8 1.6c.5.3.8.9.6 1.5l-1.7 6.8c-.2.6-.7 1-1.2 1l-14.5.9c-.5 0-1-.4-1.1-.9l-.5-8.8zm5.5 2.4c-.3 0-.5.3-.5.6l.1 2.1c0 .3.2.5.5.5l6.8-.7c.3 0 .5-.2.6-.5l.5-2.3c0-.2-.1-.4-.3-.4h-.1l-7.6.7z"/><path d="M78.4 32.5c-.2-.1-.3-.3-.3-.5 0-.1.1-.2.2-.2l.2-.1c2.1-1 2.7-1.4 2.8-2.3v-5.6c0-.2-.2-.5-.4-.5h-.1l-5.4.6c-.3 0-.5.3-.5.5v.8c0 .2.2.4.4.4h.1l3-.6c.6-.1 1.1 0 1.6.4.4.3.4.8.1 1.2l-.8.9c-.1.1-.1.4 0 .5 0 0 .1 0 .1.1.3.2.4.6.2.9 0 .1-.1.1-.1.2l-.5.4c-.4.4-1.1.5-1.6.2l-.7-.4c-.4-.2-.5-.7-.3-1.1 0-.1.1-.1.1-.1l1-1.1c.1-.1 0-.2 0-.3h-.1l-2 .3c-.3 0-.5.3-.5.6v5.1c0 .6-.4 1-1 1l-2.2.1c-.5 0-1-.3-1-.9v-.1l.3-9.4c0-.6.4-1 1-1.1l9.4-1.1c.6-.1 1.3.1 1.8.4l1.2.7c.6.3.9.9 1 1.6v5.9c0 1.3 0 2.2-.1 3.2 0 .5-.4.8-.9.8h-.2l-5.8-1.4zM63.6 21.2c0-.3-.2-.6-.5-.6s-.5.2-.6.4l-.2.7c-.1.3-.4.5-.7.4-.1 0-.2-.1-.3-.2l-.4-.5c-.4-.5-.6-1.1-.4-1.7l1.1-4.2c.1-.3.4-.5.8-.4.1 0 .2.1.2.1l.7.6c.1.1.3.1.3 0 0 0 .1-.1.1-.2l.2-5.7c0-.5.4-.8.9-.8h.1l1.6.3c.6.1 1 .6 1 1.2v3.9c0 .3.2.6.5.7l2.6.8c.1 0 .2 0 .2-.1v-.1c-.1-.2 0-.5.2-.7h.2l4-.5c.3 0 .5-.3.5-.6v-.7c0-.2-.2-.4-.4-.4h-.1l-3.6.4c-.6.1-1.1-.2-1.4-.8l-.1-.2c-.2-.3-.1-.7.3-.9.1 0 .2-.1.2-.1l4.8-.6c.3 0 .5-.3.5-.6v-.5c0-.5.5-.9 1-.9l2.1.1c.5 0 .9.4.9.9 0 .2.2.4.4.4l2.8-.4c.6-.1 1.2.2 1.5.8l.1.2c.2.3 0 .8-.3.9-.1 0-.2.1-.2.1l-3.8.5c-.3 0-.5.3-.5.6v.6c0 .2.2.4.4.4h.1l2.9-.4c.6-.1 1.2.2 1.4.8.2.4.1.8-.3 1-.1 0-.1.1-.2.1l-3.8.6c-.3 0-.5.3-.5.6v.5c0 .2.2.4.4.4h.1l3.7-.6c.6-.1 1.1.3 1.3.8l.3 1c.1.4-.1.8-.5 1H85l-13.9 1.2c-.6 0-1.1-.3-1.4-.8-.1-.3-.4-.5-.7-.6l-1.1-.4c-.2-.1-.4 0-.4.2v.1l.1 13.2c0 .6-.4 1.1-1 1.1l-2.3.3c-.5.1-.9-.2-1-.7V33l.3-11.8zm7.5-4.3c-.3 0-.6.3-.7.5l-.3.9c-.1.1 0 .3.2.4h.2l4.7-.8c.3 0 .5-.3.5-.6v-.6c0-.2-.2-.4-.4-.4h-.1l-4.1.6z"/><path class="st3" d="M78.4 32.5c-.2-.1-.3-.3-.3-.5 0-.1.1-.2.2-.2l.2-.1c2.1-1 2.7-1.4 2.8-2.3v-5.6c0-.2-.2-.5-.4-.5h-.1l-5.4.6c-.3 0-.5.3-.5.5v.8c0 .2.2.4.4.4h.1l3-.6c.6-.1 1.1 0 1.6.4.4.3.4.8.1 1.2l-.8.9c-.1.1-.1.4 0 .5 0 0 .1 0 .1.1.3.2.4.6.2.9 0 .1-.1.1-.1.2l-.5.4c-.4.4-1.1.5-1.6.2l-.7-.4c-.4-.2-.5-.7-.3-1.1 0-.1.1-.1.1-.1l1-1.1c.1-.1 0-.2 0-.3h-.1l-2 .3c-.3 0-.5.3-.5.6v5.1c0 .6-.4 1-1 1l-2.2.1c-.5 0-1-.3-1-.9v-.1l.3-9.4c0-.6.4-1 1-1.1l9.4-1.1c.6-.1 1.3.1 1.8.4l1.2.7c.6.3.9.9 1 1.6v5.9c0 1.3 0 2.2-.1 3.2 0 .5-.4.8-.9.8h-.2l-5.8-1.4zM63.6 21.2c0-.3-.2-.6-.5-.6s-.5.2-.6.4l-.2.7c-.1.3-.4.5-.7.4-.1 0-.2-.1-.3-.2l-.4-.5c-.4-.5-.6-1.1-.4-1.7l1.1-4.2c.1-.3.4-.5.8-.4.1 0 .2.1.2.1l.7.6c.1.1.3.1.3 0 0 0 .1-.1.1-.2l.2-5.7c0-.5.4-.8.9-.8h.1l1.6.3c.6.1 1 .6 1 1.2v3.9c0 .3.2.6.5.7l2.6.8c.1 0 .2 0 .2-.1v-.1c-.1-.2 0-.5.2-.7h.2l4-.5c.3 0 .5-.3.5-.6v-.7c0-.2-.2-.4-.4-.4h-.1l-3.6.4c-.6.1-1.1-.2-1.4-.8l-.1-.2c-.2-.3-.1-.7.3-.9.1 0 .2-.1.2-.1l4.8-.6c.3 0 .5-.3.5-.6v-.5c0-.5.5-.9 1-.9l2.1.1c.5 0 .9.4.9.9 0 .2.2.4.4.4l2.8-.4c.6-.1 1.2.2 1.5.8l.1.2c.2.3 0 .8-.3.9-.1 0-.2.1-.2.1l-3.8.5c-.3 0-.5.3-.5.6v.6c0 .2.2.4.4.4h.1l2.9-.4c.6-.1 1.2.2 1.4.8.2.4.1.8-.3 1-.1 0-.1.1-.2.1l-3.8.6c-.3 0-.5.3-.5.6v.5c0 .2.2.4.4.4h.1l3.7-.6c.6-.1 1.1.3 1.3.8l.3 1c.1.4-.1.8-.5 1H85l-13.9 1.2c-.6 0-1.1-.3-1.4-.8-.1-.3-.4-.5-.7-.6l-1.1-.4c-.2-.1-.4 0-.4.2v.1l.1 13.2c0 .6-.4 1.1-1 1.1l-2.3.3c-.5.1-.9-.2-1-.7V33l.3-11.8zm7.5-4.3c-.3 0-.6.3-.7.5l-.3.9c-.1.1 0 .3.2.4h.2l4.7-.8c.3 0 .5-.3.5-.6v-.6c0-.2-.2-.4-.4-.4h-.1l-4.1.6z"/><path d="M93.2 31c0-.2-.2-.4-.4-.5h-.1l-1.5.2c-.6.1-1.2-.2-1.4-.8l-.4-.8c-.2-.4 0-.9.4-1 .1 0 .1 0 .2-.1l2.9-.6c.3-.1.5-.3.5-.6v-.9c0-.2-.2-.4-.4-.4h-.1l-1.9.4c-.6.1-1.2-.1-1.5-.6l-.3-.5c-.2-.3-.1-.8.2-1 .1 0 .2-.1.2-.1l.4-.1c.3-.1.4-.3.4-.6l-.4-1.7c-.1-.4.2-.8.6-.9h.2l1.8.1c.3 0 .5.3.5.6 0 .1 0 .2-.1.3l-1 1.4c-.1.1 0 .2.1.3h.1l2.2-.5c.3-.1.6-.3.7-.6l1.4-3.4c.1-.1 0-.3-.1-.4h-.2l-5.2.9c-.6.1-1.2-.2-1.5-.7l-.5-.9c-.2-.4-.1-.8.3-1 .1 0 .1-.1.2-.1l3-.7.4-.1c.3-.1.5-.3.5-.6v-.6c0-.2-.2-.4-.4-.4h-.1l-1.5.3c-.6.1-1.2-.2-1.5-.7l-.4-.7c-.2-.3-.1-.8.2-1 .1-.1.2-.1.3-.1l3-.6c.3-.1.5-.3.5-.6v-1c0-.5.5-1 1-.9l1.6.1c.6 0 1 .5 1 1.1 0 .2.2.5.4.5h.1l1-.2c.6-.1 1.2.2 1.4.7l.7 1.6c0 .1.2.2.3.1l-3.4 1c-.3.1-.5.4-.5.6v.7c0 .2.2.4.4.4h.1l2.3-.5c.3-.1.7.1.8.4.1.2.2.2.4.2h.2c.3-.1.5-.3.5-.6v-3.5c0-.6.4-1 1-1l2.2-.1c.3 0 .7-.1 1-.1l3.4-.9c.6-.2 1.3 0 1.8.3l2 1.4c.5.4.8 1 .8 1.6-.2 2.2-.5 4.4-1.2 6.5-.1.3 0 .6.2.8l.6.6c.4.4.6 1 .4 1.6-.6 2-1.1 3.4-1.9 5.4-.1.3-.1.6.1.8.6.6 1 1.1 1.3 1.4.4.4.5 1 .1 1.5l-1.2 1.6c-.2.3-.7.4-1 .2-.1 0-.1-.1-.2-.1l-.7-.9c-.1-.1-.3-.2-.4-.1l-.1.1-.1.3-.5 1.1c-.3.4-.8.6-1.3.4l-2.3-1.2c-.1-.1-.3 0-.4.1v.1c0 .6-.4 1-1 1.1l-1.7.1c-.5 0-1-.4-1-1V30c0-.2-.2-.4-.4-.4h-.1l-3.5.4c-.3 0-.5.3-.5.6l.1 2.4c0 .6-.4 1-.9 1.1h-.1l-2.1.1c-.5 0-1-.3-1-.8V31zm12.3.1c0 .1 0 .2.1.2s.2 0 .2-.1l.8-1.4.8-1.4c.2-.2.2-.6 0-.8l-1-1.4c-.3-.5-.3-1.1.1-1.5l.8-.9c.3-.3.9-.4 1.2 0l.1.1.5.6c.1.1.3.2.4.1l.1-.1.4-.9.8-1.7c.1-.1 0-.3-.1-.3h-.2l-3.3.8-1.4.3c-.3.1-.5.3-.5.6l.2 7.8zm-4.8-3.5c.1.3.4.5.7.4.3-.1.4-.3.4-.6v-2.5c0-.2-.2-.4-.4-.4h-.1l-3.8.8c-.3.1-.5.3-.5.6v.8c0 .2.2.4.4.4h.1l1.7-.3c.7-.1 1.2.2 1.5.8zm0-5.2c.1.2.4.3.6.3.3-.1.5-.3.5-.6v-3.9c0-.2-.2-.4-.4-.4h-.1l-1.5.2c-.3 0-.5.3-.5.5v.1c0 .2.1.4.3.5.3.1.5.5.4.8v.1l-1 1.6c-.1.1 0 .3.1.3h.3c.5-.1 1 .1 1.3.5zm4.8-3.2c0 .2.2.4.4.4h.1l3.5-.9c.1 0 .1-.1.1-.2l-.1-.1-2.2-1c-.2-.1-.3-.4-.2-.6 0-.1.1-.2.2-.2l.6-.2c1.7-.7 1.7-1.4 1.8-3.2V13c0-.2-.1-.4-.3-.4h-.1l-3.3 1c-.3.1-.5.4-.5.6v5z"/><path class="st3" d="M93.2 31c0-.2-.2-.4-.4-.5h-.1l-1.5.2c-.6.1-1.2-.2-1.4-.8l-.4-.8c-.2-.4 0-.9.4-1 .1 0 .1 0 .2-.1l2.9-.6c.3-.1.5-.3.5-.6v-.9c0-.2-.2-.4-.4-.4h-.1l-1.9.4c-.6.1-1.2-.1-1.5-.6l-.3-.5c-.2-.3-.1-.8.2-1 .1 0 .2-.1.2-.1l.4-.1c.3-.1.4-.3.4-.6l-.4-1.7c-.1-.4.2-.8.6-.9h.2l1.8.1c.3 0 .5.3.5.6 0 .1 0 .2-.1.3l-1 1.4c-.1.1 0 .2.1.3h.1l2.2-.5c.3-.1.6-.3.7-.6l1.4-3.4c.1-.1 0-.3-.1-.4h-.2l-5.2.9c-.6.1-1.2-.2-1.5-.7l-.5-.9c-.2-.4-.1-.8.3-1 .1 0 .1-.1.2-.1l3-.7.4-.1c.3-.1.5-.3.5-.6v-.6c0-.2-.2-.4-.4-.4h-.1l-1.5.3c-.6.1-1.2-.2-1.5-.7l-.4-.7c-.2-.3-.1-.8.2-1 .1-.1.2-.1.3-.1l3-.6c.3-.1.5-.3.5-.6v-1c0-.5.5-1 1-.9l1.6.1c.6 0 1 .5 1 1.1 0 .2.2.5.4.5h.1l1-.2c.6-.1 1.2.2 1.4.7l.7 1.6c0 .1.2.2.3.1l-3.4 1c-.3.1-.5.4-.5.6v.7c0 .2.2.4.4.4h.1l2.3-.5c.3-.1.7.1.8.4.1.2.2.2.4.2h.2c.3-.1.5-.3.5-.6v-3.5c0-.6.4-1 1-1l2.2-.1c.3 0 .7-.1 1-.1l3.4-.9c.6-.2 1.3 0 1.8.3l2 1.4c.5.4.8 1 .8 1.6-.2 2.2-.5 4.4-1.2 6.5-.1.3 0 .6.2.8l.6.6c.4.4.6 1 .4 1.6-.6 2-1.1 3.4-1.9 5.4-.1.3-.1.6.1.8.6.6 1 1.1 1.3 1.4.4.4.5 1 .1 1.5l-1.2 1.6c-.2.3-.7.4-1 .2-.1 0-.1-.1-.2-.1l-.7-.9c-.1-.1-.3-.2-.4-.1l-.1.1-.1.3-.5 1.1c-.3.4-.8.6-1.3.4l-2.3-1.2c-.1-.1-.3 0-.4.1v.1c0 .6-.4 1-1 1.1l-1.7.1c-.5 0-1-.4-1-1V30c0-.2-.2-.4-.4-.4h-.1l-3.5.4c-.3 0-.5.3-.5.6l.1 2.4c0 .6-.4 1-.9 1.1h-.1l-2.1.1c-.5 0-1-.3-1-.8V31zm12.3.1c0 .1 0 .2.1.2s.2 0 .2-.1l.8-1.4.8-1.4c.2-.2.2-.6 0-.8l-1-1.4c-.3-.5-.3-1.1.1-1.5l.8-.9c.3-.3.9-.4 1.2 0l.1.1.5.6c.1.1.3.2.4.1l.1-.1.4-.9.8-1.7c.1-.1 0-.3-.1-.3h-.2l-3.3.8-1.4.3c-.3.1-.5.3-.5.6l.2 7.8zm-4.8-3.5c.1.3.4.5.7.4.3-.1.4-.3.4-.6v-2.5c0-.2-.2-.4-.4-.4h-.1l-3.8.8c-.3.1-.5.3-.5.6v.8c0 .2.2.4.4.4h.1l1.7-.3c.7-.1 1.2.2 1.5.8zm0-5.2c.1.2.4.3.6.3.3-.1.5-.3.5-.6v-3.9c0-.2-.2-.4-.4-.4h-.1l-1.5.2c-.3 0-.5.3-.5.5v.1c0 .2.1.4.3.5.3.1.5.5.4.8v.1l-1 1.6c-.1.1 0 .3.1.3h.3c.5-.1 1 .1 1.3.5zm4.8-3.2c0 .2.2.4.4.4h.1l3.5-.9c.1 0 .1-.1.1-.2l-.1-.1-2.2-1c-.2-.1-.3-.4-.2-.6 0-.1.1-.2.2-.2l.6-.2c1.7-.7 1.7-1.4 1.8-3.2V13c0-.2-.1-.4-.3-.4h-.1l-3.3 1c-.3.1-.5.4-.5.6v5z"/><path class="st4" d="M119 25.2c0 .1.1.2.1.4s-.3.3-.2.5c0 .1.1.2.1.2 0 .1 0 .2-.1.2-.1.2-.1.3 0 .5 0 .2.7-.1.9-.4.3-.1.6-.4.8-.7.1-.2.2-.3.3-.4l.2-.1c.2-.1.1-.4.3-.6.1-.1.2-.2.3-.2.1-.1.1-.2.2-.3h.2c.3-.5.6-.7.8-1.2.5-.5.9-1 1.3-1.5.3-.4.8-.8.9-1.3.2 0 .4-.4.5-.5-.1.1.4-.3.4-.6s.2 0 .2-.1c.7-.9 1.3-1.9 1.9-2.9v.2c.1-.1 0-.4.1-.4s0 .1.1.1c.5-.7.9-1.5 1.3-2.3-.6.5-1 1.5-1.6 2.1 0 .1-.1.4-.3.2.2-.4.4-.5.5-.9.3-.2.6-.8.8-1.2.4-.6.8-1.2 1.1-1.8.2.1.2-.3.4-.2-.1.7-.8 1.3-.8 1.8.5-.6 1-1.2 1.4-1.9.1-.3.4-.6.2-.9-.2 0 0 .3-.2.3-.1-.1-.2 0-.4-.1.5-.6.9-1.3 1.2-2.1-.1-.1-.2-.1-.3-.2s0 .1-.1.3c-.4-.1-.6.2-1-.1.1-.2.1-.5.1-.7-.3-.1-.3-.1-.5 0-.1 0 0-.1-.1-.1-.2.2-.6.2-.7.5 0-.2-.4.1-.1.1-.1 0-.1.1-.2.2s.1-.2 0-.2c-.1.1-.3.3-.4.3s.1.1 0 .2c-.6.2-1 .6-1.3 1.1-.4.1-.7.7-1.1.8l-.1.3c-.9.9-1.8 1.9-2.6 3-.1.3-.3.6-.5.7.2-3 1.2-6.4.2-8.8-.3-.1-.2-.4-.5-.5h-.3c0-.1.1-.2 0-.2 0 .2-.2 0-.2 0-.5.2-.9.7-1.1 1.3-.4 0-.6.6-.6.9l-.1-.1c-.1.3-.3.5-.3.8-.4.6-.6 1.3-.8 2-.1 0-.1.1-.2.2v.4c-.4.4-.2 1.4-.5 1.8-.1 1.5-.2 2.6-.3 4.1.2.6-.2 1.4.1 1.9-.1.3-.1.6.1.8-.3.2.2.4 0 .7 0 .2.3.2.2.4-.1 0-.1-.2-.2 0 0 .6.3 1.1.3 1.7-.2.4.2.8.2 1.2v1.3zm10-12.4c-.2 0-.1-.1 0-.3.1.1 0 .2 0 .3zm-6.5 5.7c.1.1 0 .4-.1.6-.2-.2.1-.4.1-.6zm2-4c.3-.2.6-.5.8-.9.3-.1.4-.6.7-.1-.4.1-.7.4-.7.8h-.3c-.3.6-.8 1-1.3 1.5 0-.6.7-.8.8-1.3zm1.1-.3c.2-.1.4-.2.4-.5.2.1.2-.2.3-.3.3 0 .8-.5.8-.7.2-.1.4-.2.6-.4.1 0 0 .1.1.1-.4.4-.8.9-1 1.5-.2-.1.2-.3 0-.4-.1.2-.3.3-.5.4-.1.1.1.1.1.2-.1.3-.6.2-.4.5-.1.1-.2-.1-.2.1s.1 0 .2.1c-.2.2-.2.4-.5.4v-.1s.2-.1.3-.2-.1-.1-.1-.2c-.2.1-.3.5-.6.4.1.1 0 .3-.1.4h-.1c.1.1.1 0 .3.1 0-.2.1-.2.3-.1-.3.3-.6.7-1 .7 0 .2.1.4-.1.5s-.1-.2-.2-.2c-.2.2-.3.6-.6.6.5-1.2 1.4-1.8 2-2.9zm.7-1.5c.2 0 .1.2 0 .2v-.2zm0 2.2c-.1-.1-.1-.3-.2-.4.1 0 .1-.2.2-.1-.1.2.1.2.2.1 0 .1.1.1.1.2s0-.1-.1-.1-.1.2-.2.3zm.2-.4c-.1-.1.1-.1.1-.2.1.1.1.3-.1.2zm0-.3l.1-.2c.1.1.4.1.3.3-.2 0-.2-.1-.4-.1zm-1.7 2.4c.2 0 .5 0 .7-.1v.2c-.3-.1-.6.2-.9.2-.1-.1.1-.1.2-.3zm.2-.1c0-.2.2-.2.3-.1s-.3.1-.3.1zm.6 0c-.1-.1-.3-.2-.2-.4.1.2.3.1.4 0-.2.2-.3.2-.2.4zm-2.2 1c-.1-.2.2-.1.2-.2 0 .1-.2.3-.2.2zm-.4.6c-.2-.2.3-.3.3-.5.1.2-.3.5-.3.5zm-2.9 6.5c.1-.1.1-.2.1-.3.1 0 0 .2-.1.3zm.4-.5c-.1-.1.1-.5.2-.6s0 .1.1.1c-.2.2-.3.3-.4.5h.1zm2-4.1c0-.2.4-.9.6-.9-.2.4-.5.6-.7 1l.1-.1zm.8-1.4c.1-.1.2.1.2.3s-.2-.2-.3-.2l.1-.1zm.3.2c0-.1.1-.1.1-.2s.1.1-.1.2zm.4-1.2l.1-.1.2.1c-.2.2-.4.1-.4.1l.1-.1zm.8-.5c.2 0 .3-.1.4-.3.1 0 .1.1.1.1-.3.3-.5.6-.7 1-.1 0-.2 0-.3-.1s.2-.1.2-.2 0-.1-.1-.1c0 0 .3-.1.3-.3l.1-.1zm-.5.9h.2l-.1.1c-.2 0-.4 0-.3-.1h.2zm-2.5 5.7l-.1.2s-.1.1-.1 0-.1-.1 0-.1c0 0 .1-.1.1 0l.1-.1zm.1-.1c-.1-.4.4-.4.5-.8.1 0 .1.1.1.1-.2.2-.5.5-.6.7zm3.9-7.5c-.1-.1-.2-.1-.3-.1 0-.1.1-.1 0-.1.1-.1.3 0 .3-.1s-.1-.1-.2-.2c.4 0 .8-.3.9-.7-.1.6-.7.8-.9 1.3l.2-.1zm2.1-3.9c0-.1.2-.3.4-.3-.2.3-.3.3-.4.3zm.5-.5l.1.1c0 .1-.1.2-.2.2l.1-.3zm-.9 2c.1-.1.2-.1.3 0l-.1.1-.2-.1zm1.7-3c-.2-.2-.2.2-.5.1 0-.3.3 0 .3-.3.1 0 .2-.1.3 0 .1-.2.3-.3.5-.3-.3.3-.6.3-.7.6l.1-.1zm.8-1.9c.1.1 0 .3-.1.4-.4-.1-.5.2-.8.2.2-.3.6-.5.9-.6zm-2.3 1.8c-.1 0-.1.2-.3.1 0-.1.2-.3.3-.1zm-1.6 1.4c.3.2.8-.1.7-.4.2 0 .4-.2.4-.4.3 0 .7-.5.8-.7.5-.2.9-.8 1.4-.9l.1-.2c0 .3.2 0 .3.2 0 .2-.2.1-.2.4-.2-.1-.4.1-.3.2s-.2-.1-.1.1c-.5 0-.6.7-1.1.7 0 .2-.1.2-.4.5-.1.1-.2.1-.4.2-.4.3-.6.8-.9.8s-.4-.4-.5-.2c-.1-.2.1-.2.2-.3zm-.5.6l.1.1c0 .2-.3.1-.2.3-.1.1-.2 0-.3 0 .1-.3.3-.3.4-.4zm-.6.5c.1 0 0 .1.1.1-.2.1-.2.5-.5.4.1-.2.4-.2.4-.5zm-1.4 2.8c.2.2-.2.1-.2.3-.2 0 .1-.3.2-.3zm-4.3 8.2c0 .1.1.2.3.2v.2s-.1.6-.2.6-.2-.6-.2-.6c-.1-.1 0-.3.1-.4zm4.1-8.7c.1.1-.1.3-.2.2l.2-.2zm-1.7 1.5c-.1-.1-.1-.2 0-.4.1.1 0 .2 0 .4zm-1.5 2.8c-.2-.3.2-.8.2-1.1.2.2-.2.7-.2 1.1zm-.4.3c-.1-.1.1-.2.1-.4 0 .2 0 .4-.1.4zm2.8-7c-.3.9-.6 1.9-.8 2.8 0-.9.2-1.8.6-2.6 0-.1-.1 0-.1-.1s.1-.2.2-.2c0 .2 0 .1.1.1zm-2 4.1c-.1.5.1 1-.3 1.4 0-.5.1-.9.3-1.4zm-1 2.8c-.1-.2.1-.5.2-.7-.1.2-.1.6-.2.7zm-.2-1.3c-.1-.1-.1.1-.2 0 .1-.1.1-.1.2-.3v.3c.2-.1.1-.3.2-.5 0 .3 0 .7-.1 1h-.3c.1-.1.1-.3.2-.2 0-.1-.1-.1 0-.3zm.6-1.8c0-.2.2 0 .2-.2.1 0 .1.1 0 .2 0 .1-.1.1-.2 0zm.2.7c-.1 0-.1-.1-.2-.1 0-.1.1-.1.1-.2.1.1.1.2.1.3 0 0-.1 0 0 0zm2.3-4.7c-.2-.1.1-.2 0-.3.2 0 .1.3 0 .3zm-1 1.3c-.4.6 0 1.3-.5 1.6.1-.9.3-1.9.7-2.8 0 .4-.3.8-.2 1.2zm-1 .9c.1 0 .1.1.2.1-.2.2-.1.2-.1.5-.1 0-.2 0-.3-.1.2-.1.1-.3.2-.5zm2.3-4.7c-.1 0-.1.1-.3 0l.3-.6c.1.2.2.4 0 .6zm-2.1 3.8c-.1 0 0-.2.1-.3s-.1.2-.1.3zm.8-3c.1-.1.2-.2.3-.2-.2-.2 0-.4.2-.6.2.3-.2 1-.4 1.1 0 .6-.2 1.1-.5 1.6 0-.5.1-1 .3-1.4-.1 0-.1.1-.2 0s.5-.3.3-.5zm1.5-1.8c-.1-.1-.2.1-.3 0 .1-.8.1-1.5 0-2.3.4.8.5 1.6.3 2.3zm-1-1c0 .9-.2 1.8-.6 2.6-.3-.8.3-1.8.6-2.6zm.5-1.4c-.2.3-.5.1-.9-.1.2-.2.5-.2.7-.1l.2.2zm-.8.3c.3.2 0 1.1-.2 1.3s0 .4-.2.6c-.2-.2 0-.6-.2-.8.2-.3.1-.9.6-1.1zm-3 10.3c.1-.3.1-.6 0-.8.1-1.3.2-2.7.5-4 .2-1.6.8-3.1 1.6-4.6-.2 1.3-.6 2.5-1 3.7-.1.4-.2.9-.2 1.4 0 .1-.1.1-.2.2-.1.9-.3 1.5-.3 2.3 0 .1.2.1.2.2-.6.3-.2 1.5-.6 1.7v-.1zm.1.7c-.1-.1-.1-.4.1-.5-.3.2 0 .3-.1.5zm.7-1.7c.1-.5.1-1.2.2-1.7 0-.1-.3 0-.2-.2.1 0 .2.1.2.1 0-.3.2-.6 0-.9 0-.1.1-.1.1-.2s-.2 0-.2-.2c.1-.1.2-.1.3-.2-.1-.3.2-.8 0-1 .4-.9.7-1.8.9-2.8l.1.1c.1.9-.5 2-.4 2.8-.3.1-.1.6-.3.9.1.1.1.2.2.2s.1-.3 0-.3c.1-.1.2-.1.2-.2-.1-.3.3-1 .4-1.6.2.3-.1 1-.3 1.3 0 .1.1.1.1.2-.2.3-.2.6-.3.8-.2 0 0-.2-.2-.3-.1.1-.2.2-.2.3.1.1.2 0 .4.1 0 .3-.1.6-.3.8-.1-.1.1-.5-.2-.4 0 .2.1.2 0 .4 0 .1.2.1.3.2s-.2 0-.3 0c-.2.3-.2.6 0 .9-.1.1-.1.1-.2.1 0 .2.2.3 0 .5 0 .1.2.1.2.2-.4 0-.5.1-.7 0l.2.1zm.1.1c.1.1.1.2.2.3-.2.1-.2.4-.1.6h-.2c-.1.1.1.1.1.2s-.1.1-.2.2c-.1-.1-.2-.2-.1-.4 0 0 0-.1.1-.1-.2-.3-.1-.6.2-.8zm-.7 1.4c.2 0 .2.2.3.1.2 0 0 .2 0 .2 0-.1-.4-.1-.3-.3zm0 1.2c-.1-.1.1-.3.1-.5.1.2 0 .4-.1.5zm0 1.1h.2c.1 0 0-.2 0-.3l-.2-.1v-.6c.2-.1.1.2.2.2s.1-.1.1-.2.2.1.1.3c-.1-.1-.2-.1-.3 0-.1.1.1.1 0 .2.1 0 .1-.1.2 0s-.1.3.1.4c-.2.1-.2.3-.4.4v-.3zm0 .5c.1 0 .3-.1.3 0s-.2.1-.2.3c-.1-.1-.1-.2-.1-.3zm.2.8c0-.1-.2-.2-.1-.5.1 0 .1.2.2.1.2.4-.2 1.1.2 1.4-.1.2-.1.2-.1.4.1 0 .1 0 .1-.1 0 .1.1.2.1.4-.1 0-.1-.1-.2-.1.1.2.1.4 0 .5-.3-.7-.4-1.4-.2-2.1zm3.7-4.9c-.1-.2.1-.3.2-.5.1 0-.2.3-.2.5zm18 4.4c-.1-.3-.4-.3-.7-.4-1.9.5-4.9.5-6.7 1.7 0-.1-.1-.1-.2 0-.3.3-.6.4-1 .5 1.5-1.9 2.8-3.9 3.9-6-.1-1.1 1-1.7.6-2.9-.4-.2-1.2.2-1.1.5-.5-.1-1.1 0-1.5.2-.2 0-.3-.1-.4 0-1.3.4-2.2 1.7-3.2 2.5-2.1 3.4-4.6 6.2-6 10 0 .1-.1.4-.1.6-.5 1.1-.6 1.8-1 2.7.2.5-.8 1.8-.3 2.7.7.1 1.9.2 2-.8.3-.1.3-.2.6-.3 0-.1-.2-.1-.1-.2 1.3-.6 3.1-.7 4-1.9.4.1.9-.3 1.1-.4-.4.5-1 .9-1.6 1.2-1.1.7-2.4 1.1-2.9 1.8-.6.1-1.2.4-1.7.8 1.1-.1 1.9-.8 2.8-1.1 2.6-1.9 5.7-3.7 8.4-5.5h-.3c.6-.2 1-1 1.7-1-.2.1-.4.2-.4.3.6-.3 1.1-.7 1.6-1.2.4-.2.7-.4 1-.6.1-.1.1-.3.1-.3s.3-.1.5-.3c.5-.6 1.2-2 .9-2.6zm-12 1.5c.3-.1.4.2.4.5-.2.2-.3-.1-.5.1-.2-.3.2-.3.1-.6zm1.4-1.5c0 .3-.2.1-.4.1v-.3c.2.2.1.3.4.2zm.2-.9c0 .1.1.2.1.2 0 .2-.2.3-.3.4-.2-.3-.1-.4.2-.6zm1.8-.9c0 .1-.1.3-.3.2s.1-.1.3-.2zm.4-.5c0-.2.1-.3.2-.4l.1.2c-.1.1-.2.1-.3.2zm1.3-1.6c0 .4-.2.7-.5.9.1-.3 0-.7.5-.9zm-7.5 7.8l.1.2h-.2s0-.1.1-.2zm2.5-1.3l-.2.1-.1-.2c.1-.2.2-.1.3.1zm-.4.2c.1.1.1.2.1.3l-.1.1c-.2-.2-.2-.4 0-.4zm2.1-2.6c.5-.5.6-1.1 1-1.6.1-.1.2-.1.3-.1-.5 1.2-1 2.7-2.2 3.5.1-.7.9-1.1.9-1.8zm4.4-3.7c0-.6.5-1.5.2-2.4 1.1.4-.1 1.8-.2 2.4zm-4.1 2l.1.2c-.2.1-.4.2-.5 0 .1 0 .2-.1.4-.2zm-3.2 3.4c-.1-.2.1-.5.2-.5 0 .2.1.4-.2.5zm6.7-8.1c.2 0 .4 0 .5.1-.2.1-.5 0-.5-.1zm-8.5 10.2c-.1-.2.4-.4-.1-.5 0-.2.2 0 .3-.1 0 .3 0 .5-.2.6zm1.4-1.3c0 .2-.1.3-.2.4-.1-.2-.1-.3.2-.4-.1 0-.1 0 0 0zm-1.6 1.6c0 .2-.1.5-.2.6.4.1.1.5.1.7-.3-.4-.2-.9.1-1.3zm-.5 1.8c0 .3-.2.6-.4.8.2-.2.1-.6.4-.8zm-.1 1.3c-.1-.2 0-.3.2-.4 0 .1.1.3-.2.4zm.7-1c.2-.2.4-.3.3-.6.8-.5.8-1.6 1.4-2 .1-.2.2-.4.1-.6.1.1.5.3.4-.1.9.5-.7 2.1-1.2 2.7-.2-.3.3-.3.1-.6-.5.4-.6 1-1 1.4 0 .1.1 0 .2 0 .1.2-.2.1-.3-.2zm2.3-1c.2-.3.3-.6.5-.9.4.3-.4.8-.5.9zm1.7-.6c.1-.1.2 0 .3 0 .1.2 0 .3-.2.4-.1-.3.1-.3-.1-.4zm-5 5.8c0-.2.2-.3.3-.4.1.2 0 .2.1.4 0 0-.2.1-.4 0zm5-4.8c.1.1 0 .2 0 .3-.2 0-.4.1-.6.2 0-.3.3-.5.6-.5zm-1.2 1.3c.4.1 1.1-.3 1.8-.7 1.3-.9 2.6-1.6 4.1-2.1-1.9 1.4-4 2.5-6.2 3.4.1-.2.5-.4.3-.6zm4.7-4.1c.2-.3.4.4.6.2s-.3.3-.5.2.1-.4-.1-.4zm1.6-.4c.1.2-.2.3-.3.2s.2-.2.3-.2zm-8.5 7.3c.3-.8 1.4-.7 2.2-1.1.5-.2.8-.8 1.3-.7.1.1 0 .1 0 .2-1.1.7-2.3 1.2-3.5 1.6zm3.5-1.7c1.5-1.1 3.5-2 5.3-3-1.6 1.2-3.4 2.2-5.3 3zm7.3-6.8c-.4.3-.9.4-1.3.4-.2 0-.1.2-.3.3 0-.2-.3 0-.4 0l-.2-.2c-.3.4-.9.2-1 .6-.6.2-1.2.5-1.6.9.2.1.5.1.7-.1.1 0 .1.2.2.2-.2.2-.6.1-.8.3-.1-.1-.1-.3-.2-.3-.4.1-.3.4-.4.7-.1 0-.3.1-.2.2-.2.1-.2-.1-.4-.1-.3.3-.7.5-1.1.4-.1-.8 1-1.1 1.1-1.9 1-.3 1.1-.9 2.3-1.2.1-.1-.1-.1-.1-.3.3.1.6.1.9 0 0-.1-.1-.1-.2 0 .4-.4 1.4-.2 2-.7.5.2 1-.4 1.4-.1.2-.2.2-.2.5-.2.1.7-1.3.3-1.2.9.9-.1 1.8-.7 2.6-.6-.4.7-1.7.7-2.3.8zm-1.8 3.7c.1-.2.1-.4.4-.5.1.3-.1.4-.4.5zm.5-.4c0-.1.3-.1.4-.2.1.1-.2.2-.4.2z"/><path class="st5" d="M140.8 21.1c-.1-.3-.4-.3-.7-.4-1.9.5-4.9.5-6.7 1.7 0-.1-.1-.1-.2 0-.3.3-.6.4-1 .5 1.5-1.9 2.8-3.9 3.9-6-.1-1.1 1-1.7.6-2.9-.4-.2-1.2.2-1.1.5-.5-.1-1.1 0-1.5.2-.2 0-.3-.1-.4 0-1.3.4-2.2 1.7-3.2 2.5-2.1 3.4-4.6 6.2-6 10 0 .1-.1.4-.1.6-.5 1.1-.6 1.8-1 2.7.2.5-.8 1.8-.3 2.7.7.1 1.9.2 2-.8.3-.1.3-.2.6-.3 0-.1-.2-.1-.1-.2 1.3-.6 3.1-.7 4-1.9.4.1.9-.3 1.1-.4-.4.5-1 .9-1.6 1.2-1.1.7-2.4 1.1-2.9 1.8-.6.1-1.2.4-1.7.8 1.1-.1 1.9-.8 2.8-1.1 2.6-1.9 5.7-3.7 8.4-5.5h-.3c.6-.2 1-1 1.7-1-.2.1-.4.2-.4.3.6-.3 1.1-.7 1.6-1.2.4-.2.7-.4 1-.6.1-.1.1-.3.1-.3s.3-.1.5-.3c.5-.6 1.2-2 .9-2.6zm-12 1.5c.3-.1.4.2.4.5-.2.2-.3-.1-.5.1-.2-.3.2-.3.1-.6zm1.4-1.5c0 .3-.2.1-.4.1v-.3c.2.2.1.3.4.2zm.2-.9c0 .1.1.2.1.2 0 .2-.2.3-.3.4-.2-.3-.1-.4.2-.6zm1.8-.9c0 .1-.1.3-.3.2s.1-.1.3-.2zm.4-.5c0-.2.1-.3.2-.4l.1.2c-.1.1-.2.1-.3.2zm1.3-1.6c0 .4-.2.7-.5.9.1-.3 0-.7.5-.9zm-7.5 7.8l.1.2h-.2s0-.1.1-.2zm2.5-1.3l-.2.1-.1-.2c.1-.2.2-.1.3.1zm-.4.2c.1.1.1.2.1.3l-.1.1c-.2-.2-.2-.4 0-.4zm2.1-2.6c.5-.5.6-1.1 1-1.6.1-.1.2-.1.3-.1-.5 1.2-1 2.7-2.2 3.5.1-.7.9-1.1.9-1.8zm4.4-3.7c0-.6.5-1.5.2-2.4 1.1.4-.1 1.8-.2 2.4zm-4.1 2l.1.2c-.2.1-.4.2-.5 0 .1 0 .2-.1.4-.2zm-3.2 3.4c-.1-.2.1-.5.2-.5 0 .2.1.4-.2.5zm6.7-8.1c.2 0 .4 0 .5.1-.2.1-.5 0-.5-.1zm-8.5 10.2c-.1-.2.4-.4-.1-.5 0-.2.2 0 .3-.1 0 .3 0 .5-.2.6zm1.4-1.3c0 .2-.1.3-.2.4-.1-.2-.1-.3.2-.4-.1 0-.1 0 0 0zm-1.6 1.6c0 .2-.1.5-.2.6.4.1.1.5.1.7-.3-.4-.2-.9.1-1.3zm-.5 1.8c0 .3-.2.6-.4.8.2-.2.1-.6.4-.8zm-.1 1.3c-.1-.2 0-.3.2-.4 0 .1.1.3-.2.4zm.7-1c.2-.2.4-.3.3-.6.8-.5.8-1.6 1.4-2 .1-.2.2-.4.1-.6.1.1.5.3.4-.1.9.5-.7 2.1-1.2 2.7-.2-.3.3-.3.1-.6-.5.4-.6 1-1 1.4 0 .1.1 0 .2 0 .1.2-.2.1-.3-.2zm2.3-1c.2-.3.3-.6.5-.9.4.3-.4.8-.5.9zm1.7-.6c.1-.1.2 0 .3 0 .1.2 0 .3-.2.4-.1-.3.1-.3-.1-.4zm-5 5.8c0-.2.2-.3.3-.4.1.2 0 .2.1.4 0 0-.2.1-.4 0zm5-4.8c.1.1 0 .2 0 .3-.2 0-.4.1-.6.2 0-.3.3-.5.6-.5zm-1.2 1.3c.4.1 1.1-.3 1.8-.7 1.3-.9 2.6-1.6 4.1-2.1-1.9 1.4-4 2.5-6.2 3.4.1-.2.5-.4.3-.6zm4.7-4.1c.2-.3.4.4.6.2s-.3.3-.5.2.1-.4-.1-.4zm1.6-.4c.1.2-.2.3-.3.2s.2-.2.3-.2zm-8.5 7.3c.3-.8 1.4-.7 2.2-1.1.5-.2.8-.8 1.3-.7.1.1 0 .1 0 .2-1.1.7-2.3 1.2-3.5 1.6zm3.5-1.7c1.5-1.1 3.5-2 5.3-3-1.6 1.2-3.4 2.2-5.3 3zm7.3-6.8c-.4.3-.9.4-1.3.4-.2 0-.1.2-.3.3 0-.2-.3 0-.4 0l-.2-.2c-.3.4-.9.2-1 .6-.6.2-1.2.5-1.6.9.2.1.5.1.7-.1.1 0 .1.2.2.2-.2.2-.6.1-.8.3-.1-.1-.1-.3-.2-.3-.4.1-.3.4-.4.7-.1 0-.3.1-.2.2-.2.1-.2-.1-.4-.1-.3.3-.7.5-1.1.4-.1-.8 1-1.1 1.1-1.9 1-.3 1.1-.9 2.3-1.2.1-.1-.1-.1-.1-.3.3.1.6.1.9 0 0-.1-.1-.1-.2 0 .4-.4 1.4-.2 2-.7.5.2 1-.4 1.4-.1.2-.2.2-.2.5-.2.1.7-1.3.3-1.2.9.9-.1 1.8-.7 2.6-.6-.4.7-1.7.7-2.3.8zm-1.8 3.7c.1-.2.1-.4.4-.5.1.3-.1.4-.4.5zm.5-.4c0-.1.3-.1.4-.2.1.1-.2.2-.4.2zm-16.9-.6c0 .1.1.2.1.4s-.3.3-.2.5c0 .1.1.2.1.2 0 .1 0 .2-.1.2-.1.2-.1.3 0 .5 0 .2.7-.1.9-.4.3-.1.6-.4.8-.7.1-.2.2-.3.3-.4l.2-.1c.2-.1.1-.4.3-.6.1-.1.2-.2.3-.2.1-.1.1-.2.2-.3h.2c.3-.5.6-.7.8-1.2.5-.5.9-1 1.3-1.5.3-.4.8-.8.9-1.3.2 0 .4-.4.5-.5-.1.1.4-.3.4-.6s.2 0 .2-.1c.7-.9 1.3-1.9 1.9-2.9v.2c.1-.1 0-.4.1-.4s0 .1.1.1c.5-.7.9-1.5 1.3-2.3-.6.5-1 1.5-1.6 2.1 0 .1-.1.4-.3.2.2-.4.4-.5.5-.9.3-.2.6-.8.8-1.2.4-.6.8-1.2 1.1-1.8.2.1.2-.3.4-.2-.1.7-.8 1.3-.8 1.8.5-.6 1-1.2 1.4-1.9.1-.3.4-.6.2-.9-.2 0 0 .3-.2.3-.1-.1-.2 0-.4-.1.5-.6.9-1.3 1.2-2.1-.1-.1-.2-.1-.3-.2s0 .1-.1.3c-.4-.1-.6.2-1-.1.1-.2.1-.5.1-.7-.3-.1-.3-.1-.5 0-.1 0 0-.1-.1-.1-.2.2-.6.2-.7.5 0-.2-.4.1-.1.1-.1 0-.1.1-.2.2s.1-.2 0-.2c-.1.1-.3.3-.4.3s.1.1 0 .2c-.6.2-1 .6-1.3 1.1-.4.1-.7.7-1.1.8l-.1.3c-.9.9-1.8 1.9-2.6 3-.1.3-.3.6-.5.7.2-3 1.2-6.4.2-8.8-.3-.1-.2-.4-.5-.5h-.3c0-.1.1-.2 0-.2 0 .2-.2 0-.2 0-.5.2-.9.7-1.1 1.3-.4 0-.6.6-.6.9l-.1-.1c-.1.3-.3.5-.3.8-.4.6-.6 1.3-.8 2-.1 0-.1.1-.2.2v.4c-.4.4-.2 1.4-.5 1.8-.1 1.5-.2 2.6-.3 4.1.2.6-.2 1.4.1 1.9-.1.3-.1.6.1.8-.3.2.2.4 0 .7 0 .2.3.2.2.4-.1 0-.1-.2-.2 0 0 .6.3 1.1.3 1.7-.2.4.2.8.2 1.2v1.3zm10-12.4c-.2 0-.1-.1 0-.3.1.1 0 .2 0 .3zm-6.5 5.7c.1.1 0 .4-.1.6-.2-.2.1-.4.1-.6zm2-4c.3-.2.6-.5.8-.9.3-.1.4-.6.7-.1-.4.1-.7.4-.7.8h-.3c-.3.6-.8 1-1.3 1.5 0-.6.7-.8.8-1.3zm1.1-.3c.2-.1.4-.2.4-.5.2.1.2-.2.3-.3.3 0 .8-.5.8-.7.2-.1.4-.2.6-.4.1 0 0 .1.1.1-.4.4-.8.9-1 1.5-.2-.1.2-.3 0-.4-.1.2-.3.3-.5.4-.1.1.1.1.1.2-.1.3-.6.2-.4.5-.1.1-.2-.1-.2.1s.1 0 .2.1c-.2.2-.2.4-.5.4v-.1s.2-.1.3-.2-.1-.1-.1-.2c-.2.1-.3.5-.6.4.1.1 0 .3-.1.4h-.1c.1.1.1 0 .3.1 0-.2.1-.2.3-.1-.3.3-.6.7-1 .7 0 .2.1.4-.1.5s-.1-.2-.2-.2c-.2.2-.3.6-.6.6.5-1.2 1.4-1.8 2-2.9zm.7-1.5c.2 0 .1.2 0 .2v-.2zm0 2.2c-.1-.1-.1-.3-.2-.4.1 0 .1-.2.2-.1-.1.2.1.2.2.1 0 .1.1.1.1.2s0-.1-.1-.1-.1.2-.2.3zm.2-.4c-.1-.1.1-.1.1-.2.1.1.1.3-.1.2zm0-.3l.1-.2c.1.1.4.1.3.3-.2 0-.2-.1-.4-.1zm-1.7 2.4c.2 0 .5 0 .7-.1v.2c-.3-.1-.6.2-.9.2-.1-.1.1-.1.2-.3zm.2-.1c0-.2.2-.2.3-.1s-.3.1-.3.1zm.6 0c-.1-.1-.3-.2-.2-.4.1.2.3.1.4 0-.2.2-.3.2-.2.4zm-2.2 1c-.1-.2.2-.1.2-.2 0 .1-.2.3-.2.2zm-.4.6c-.2-.2.3-.3.3-.5.1.2-.3.5-.3.5zm-2.9 6.5c.1-.1.1-.2.1-.3.1 0 0 .2-.1.3zm.4-.5c-.1-.1.1-.5.2-.6s0 .1.1.1c-.2.2-.3.3-.4.5h.1zm2-4.1c0-.2.4-.9.6-.9-.2.4-.5.6-.7 1l.1-.1zm.8-1.4c.1-.1.2.1.2.3s-.2-.2-.3-.2l.1-.1zm.3.2c0-.1.1-.1.1-.2s.1.1-.1.2zm.4-1.2l.1-.1.2.1c-.2.2-.4.1-.4.1l.1-.1zm.8-.5c.2 0 .3-.1.4-.3.1 0 .1.1.1.1-.3.3-.5.6-.7 1-.1 0-.2 0-.3-.1s.2-.1.2-.2 0-.1-.1-.1c0 0 .3-.1.3-.3l.1-.1zm-.5.9h.2l-.1.1c-.2 0-.4 0-.3-.1h.2zm-2.5 5.7l-.1.2s-.1.1-.1 0-.1-.1 0-.1c0 0 .1-.1.1 0l.1-.1zm.1-.1c-.1-.4.4-.4.5-.8.1 0 .1.1.1.1-.2.2-.5.5-.6.7zm3.9-7.5c-.1-.1-.2-.1-.3-.1 0-.1.1-.1 0-.1.1-.1.3 0 .3-.1s-.1-.1-.2-.2c.4 0 .8-.3.9-.7-.1.6-.7.8-.9 1.3l.2-.1zm2.1-3.9c0-.1.2-.3.4-.3-.2.3-.3.3-.4.3zm.5-.5l.1.1c0 .1-.1.2-.2.2l.1-.3zm-.9 2c.1-.1.2-.1.3 0l-.1.1-.2-.1zm1.7-3c-.2-.2-.2.2-.5.1 0-.3.3 0 .3-.3.1 0 .2-.1.3 0 .1-.2.3-.3.5-.3-.3.3-.6.3-.7.6l.1-.1zm.8-1.9c.1.1 0 .3-.1.4-.4-.1-.5.2-.8.2.2-.3.6-.5.9-.6zm-2.3 1.8c-.1 0-.1.2-.3.1 0-.1.2-.3.3-.1zm-1.6 1.4c.3.2.8-.1.7-.4.2 0 .4-.2.4-.4.3 0 .7-.5.8-.7.5-.2.9-.8 1.4-.9l.1-.2c0 .3.2 0 .3.2 0 .2-.2.1-.2.4-.2-.1-.4.1-.3.2s-.2-.1-.1.1c-.5 0-.6.7-1.1.7 0 .2-.1.2-.4.5-.1.1-.2.1-.4.2-.4.3-.6.8-.9.8s-.4-.4-.5-.2c-.1-.2.1-.2.2-.3zm-.5.6l.1.1c0 .2-.3.1-.2.3-.1.1-.2 0-.3 0 .1-.3.3-.3.4-.4zm-.6.5c.1 0 0 .1.1.1-.2.1-.2.5-.5.4.1-.2.4-.2.4-.5zm-1.4 2.8c.2.2-.2.1-.2.3-.2 0 .1-.3.2-.3zm-4.3 8.2c0 .1.1.2.3.2v.2s-.1.6-.2.6-.2-.6-.2-.6c-.1-.1 0-.3.1-.4zm4.1-8.7c.1.1-.1.3-.2.2l.2-.2zm-1.7 1.5c-.1-.1-.1-.2 0-.4.1.1 0 .2 0 .4zm-1.5 2.8c-.2-.3.2-.8.2-1.1.2.2-.2.7-.2 1.1zm-.4.3c-.1-.1.1-.2.1-.4 0 .2 0 .4-.1.4zm2.8-7c-.3.9-.6 1.9-.8 2.8 0-.9.2-1.8.6-2.6 0-.1-.1 0-.1-.1s.1-.2.2-.2c0 .2 0 .1.1.1zm-2 4.1c-.1.5.1 1-.3 1.4 0-.5.1-.9.3-1.4zm-1 2.8c-.1-.2.1-.5.2-.7-.1.2-.1.6-.2.7zm-.2-1.3c-.1-.1-.1.1-.2 0 .1-.1.1-.1.2-.3v.3c.2-.1.1-.3.2-.5 0 .3 0 .7-.1 1h-.3c.1-.1.1-.3.2-.2 0-.1-.1-.1 0-.3zm.6-1.8c0-.2.2 0 .2-.2.1 0 .1.1 0 .2 0 .1-.1.1-.2 0zm.2.7c-.1 0-.1-.1-.2-.1 0-.1.1-.1.1-.2.1.1.1.2.1.3 0 0-.1 0 0 0zm2.3-4.7c-.2-.1.1-.2 0-.3.2 0 .1.3 0 .3zm-1 1.3c-.4.6 0 1.3-.5 1.6.1-.9.3-1.9.7-2.8 0 .4-.3.8-.2 1.2zm-1 .9c.1 0 .1.1.2.1-.2.2-.1.2-.1.5-.1 0-.2 0-.3-.1.2-.1.1-.3.2-.5zm2.3-4.7c-.1 0-.1.1-.3 0l.3-.6c.1.2.2.4 0 .6zm-2.1 3.8c-.1 0 0-.2.1-.3s-.1.2-.1.3zm.8-3c.1-.1.2-.2.3-.2-.2-.2 0-.4.2-.6.2.3-.2 1-.4 1.1 0 .6-.2 1.1-.5 1.6 0-.5.1-1 .3-1.4-.1 0-.1.1-.2 0s.5-.3.3-.5zm1.5-1.8c-.1-.1-.2.1-.3 0 .1-.8.1-1.5 0-2.3.4.8.5 1.6.3 2.3zm-1-1c0 .9-.2 1.8-.6 2.6-.3-.8.3-1.8.6-2.6zm.5-1.4c-.2.3-.5.1-.9-.1.2-.2.5-.2.7-.1l.2.2zm-.8.3c.3.2 0 1.1-.2 1.3s0 .4-.2.6c-.2-.2 0-.6-.2-.8.2-.3.1-.9.6-1.1zm-3 10.3c.1-.3.1-.6 0-.8.1-1.3.2-2.7.5-4 .2-1.6.8-3.1 1.6-4.6-.2 1.3-.6 2.5-1 3.7-.1.4-.2.9-.2 1.4 0 .1-.1.1-.2.2-.1.9-.3 1.5-.3 2.3 0 .1.2.1.2.2-.6.3-.2 1.5-.6 1.7v-.1zm.1.7c-.1-.1-.1-.4.1-.5-.3.2 0 .3-.1.5zm.7-1.7c.1-.5.1-1.2.2-1.7 0-.1-.3 0-.2-.2.1 0 .2.1.2.1 0-.3.2-.6 0-.9 0-.1.1-.1.1-.2s-.2 0-.2-.2c.1-.1.2-.1.3-.2-.1-.3.2-.8 0-1 .4-.9.7-1.8.9-2.8l.1.1c.1.9-.5 2-.4 2.8-.3.1-.1.6-.3.9.1.1.1.2.2.2s.1-.3 0-.3c.1-.1.2-.1.2-.2-.1-.3.3-1 .4-1.6.2.3-.1 1-.3 1.3 0 .1.1.1.1.2-.2.3-.2.6-.3.8-.2 0 0-.2-.2-.3-.1.1-.2.2-.2.3.1.1.2 0 .4.1 0 .3-.1.6-.3.8-.1-.1.1-.5-.2-.4 0 .2.1.2 0 .4 0 .1.2.1.3.2s-.2 0-.3 0c-.2.3-.2.6 0 .9-.1.1-.1.1-.2.1 0 .2.2.3 0 .5 0 .1.2.1.2.2-.4 0-.5.1-.7 0l.2.1zm.1.1c.1.1.1.2.2.3-.2.1-.2.4-.1.6h-.2c-.1.1.1.1.1.2s-.1.1-.2.2c-.1-.1-.2-.2-.1-.4 0 0 0-.1.1-.1-.2-.3-.1-.6.2-.8zm-.7 1.4c.2 0 .2.2.3.1.2 0 0 .2 0 .2 0-.1-.4-.1-.3-.3zm0 1.2c-.1-.1.1-.3.1-.5.1.2 0 .4-.1.5zm0 1.1h.2c.1 0 0-.2 0-.3l-.2-.1v-.6c.2-.1.1.2.2.2s.1-.1.1-.2.2.1.1.3c-.1-.1-.2-.1-.3 0-.1.1.1.1 0 .2.1 0 .1-.1.2 0s-.1.3.1.4c-.2.1-.2.3-.4.4v-.3zm0 .5c.1 0 .3-.1.3 0s-.2.1-.2.3c-.1-.1-.1-.2-.1-.3zm.2.8c0-.1-.2-.2-.1-.5.1 0 .1.2.2.1.2.4-.2 1.1.2 1.4-.1.2-.1.2-.1.4.1 0 .1 0 .1-.1 0 .1.1.2.1.4-.1 0-.1-.1-.2-.1.1.2.1.4 0 .5-.3-.7-.4-1.4-.2-2.1zm3.7-4.9c-.1-.2.1-.3.2-.5.1 0-.2.3-.2.5z"/><path class="st6" d="M6.5 18.7c0-.6.4-1 1-1h2.4l.6-.1c.3 0 .5-.3.5-.5l-.2-2.4c0-.3-.3-.5-.5-.5l-2.6.1c-.6 0-1.2-.3-1.4-.9l-.6-1.3c-.2-.4 0-.8.4-.9.1 0 .1-.1.2-.1l8.5-.8c.3 0 .5-.3.5-.6v-.3c0-.6.4-1 1-1l2.7.1c.5 0 .9.5.9 1 0 .2.2.4.4.4l7.1-.6c.6-.1 1.1.3 1.4.9l.8 2.1c.1.4 0 .8-.4.9-.1 0-.2 0-.2.1l-3.1.2c-.3 0-.6.2-.6.5l-.6 2c0 .1 0 .3.2.3h.1c.5 0 1.1.1 1.5.3l2 1.1c.5.3.9.9.9 1.5v6.2c0 2.5-.1 5-.5 7.4-.1.5-.5.8-1 .7h-.1l-4.6-1.4c-.3-.1-.7-.1-1-.1l-8.2.4c-.6 0-1-.4-1.1-.9v-.1l-.4-5c0-.3-.2-.5-.5-.6l-1-.3c-.2 0-.4.1-.5.3V33c0 .6-.4 1-1 1l-2.2.1c-.5 0-1-.3-1-.9v-.1l.2-14.4zm17 6.3c-.3 0-.5.3-.5.5l-.2 3.8c0 .1.1.3.2.3h.1l.4-.3c1.2-.8 1.3-1.1 1.3-2.3v-1.6c0-.2-.2-.5-.4-.5l-.9.1zm-6.8 1.8c-.3 0-.5.3-.5.6v1c0 .3.2.5.5.5l1.5-.1c.3 0 .5-.3.5-.5l.1-1.1c0-.2-.1-.4-.4-.4h-1.7zM11 20.4c-.3 0-.5.3-.5.5v3.6c0 .1.1.1.2.1 0 0 .1 0 .1-.1l2.3-4c.1-.1 0-.3-.1-.4h-.2l-1.8.3zm4.4 3c-.1.1 0 .3.1.3h.2l2.5-.3c.3 0 .5-.2.5-.5v-2.6c0-.3-.2-.5-.5-.5l-2 .1c-.3 0-.5.2-.6.5v.1c0 .2.1.4.3.5.3.1.5.5.4.9v.1l-.9 1.4zm7.6-3.9c-.3 0-.5.2-.5.5 0 .6 0 1 .3 1.3.2.2.6.3.9.3.2 0 .5 0 .7-.1h.2c.3 0 .5-.3.5-.5v-1.1c0-.3-.2-.5-.4-.5l-1.7.1zm-8.3-2.6c-.1.1-.1.2 0 .3 0 0 .1.1.2.1l5-.5c.3 0 .5-.2.6-.5l.4-2c0-.2-.1-.4-.3-.5h-.1l-6.3.3c-.3 0-.5.2-.6.5 0 .3.2.6.5.6l.8.2c.3.1.6.4.5.7 0 .1-.1.2-.1.3l-.6.5zm18.1 7.6c0-.6.4-1.1 1-1.1l6.8-.9c.6-.1 1.3.1 1.8.4l3.3 2.1c.1.1.3 0 .4-.1v-1.2c0-.6.4-1.1 1-1.1l6.8-.8c.6-.1 1.3.1 1.8.5l2 1.4c.5.3.8 1 .7 1.6l-.9 7.6c-.1.6-.6 1-1.1 1l-9 .2c-.6 0-1-.4-1-1l-.1-6.7c0-.3-.2-.6-.6-.7-.3 0-.6.2-.7.6l-1 6.5c-.1.6-.6 1-1.2 1l-8.7.2c-.6 0-1-.4-1-1l-.3-8.5zm4.8 2.3c-.3 0-.5.3-.5.6l.1 2.2c0 .3.2.5.5.5l1.9-.2c.3 0 .5-.3.5-.5l.2-2.3c0-.2-.1-.4-.4-.4h-.1l-2.2.1zm13.3-.7c-.3 0-.5.3-.5.6v2.7c0 .2.2.4.4.4h.1l1.7-.2c.3 0 .5-.3.6-.5l.3-2.8c0-.2-.1-.4-.3-.4h-.1l-2.2.2zm-14.8-15c-.1-.5.3-1 .9-1.1l12.9-1.4c.6-.1 1.3.1 1.8.4l2.8 1.6c.5.3.8.9.6 1.5l-1.7 6.8c-.2.6-.7 1-1.2 1l-14.5.9c-.5 0-1-.4-1.1-.9l-.5-8.8zm5.5 2.4c-.3 0-.5.3-.5.6l.1 2.1c0 .3.2.5.5.5l6.8-.7c.3 0 .5-.2.6-.5l.5-2.3c0-.2-.1-.4-.3-.4h-.1l-7.6.7zm36.8 19c-.2-.1-.3-.3-.3-.5 0-.1.1-.2.2-.2l.2-.1c2.1-1 2.7-1.4 2.8-2.3v-5.6c0-.2-.2-.5-.4-.5h-.1l-5.4.6c-.3 0-.5.3-.5.5v.8c0 .2.2.4.4.4h.1l3-.6c.6-.1 1.1 0 1.6.4.4.3.4.8.1 1.2l-.8.9c-.1.1-.1.4 0 .5 0 0 .1 0 .1.1.3.2.4.6.2.9 0 .1-.1.1-.1.2l-.5.4c-.4.4-1.1.5-1.6.2l-.7-.4c-.4-.2-.5-.7-.3-1.1 0-.1.1-.1.1-.1l1-1.1c.1-.1 0-.2 0-.3h-.1l-2 .3c-.3 0-.5.3-.5.6v5.1c0 .6-.4 1-1 1l-2.2.1c-.5 0-1-.3-1-.9v-.1l.3-9.4c0-.6.4-1 1-1.1l9.4-1.1c.6-.1 1.3.1 1.8.4l1.2.7c.6.3.9.9 1 1.6v5.9c0 1.3 0 2.2-.1 3.2 0 .5-.4.8-.9.8h-.2l-5.8-1.4zM63.6 21.2c0-.3-.2-.6-.5-.6s-.5.2-.6.4l-.2.7c-.1.3-.4.5-.7.4-.1 0-.2-.1-.3-.2l-.4-.5c-.4-.5-.6-1.1-.4-1.7l1.1-4.2c.1-.3.4-.5.8-.4.1 0 .2.1.2.1l.7.6c.1.1.3.1.3 0 0 0 .1-.1.1-.2l.2-5.7c0-.5.4-.8.9-.8h.1l1.6.3c.6.1 1 .6 1 1.2v3.9c0 .3.2.6.5.7l2.6.8c.1 0 .2 0 .2-.1v-.1c-.1-.2 0-.5.2-.7h.2l4-.5c.3 0 .5-.3.5-.6v-.7c0-.2-.2-.4-.4-.4h-.1l-3.6.4c-.6.1-1.1-.2-1.4-.8l-.1-.2c-.2-.3-.1-.7.3-.9.1 0 .2-.1.2-.1l4.8-.6c.3 0 .5-.3.5-.6v-.5c0-.5.5-.9 1-.9l2.1.1c.5 0 .9.4.9.9 0 .2.2.4.4.4l2.8-.4c.6-.1 1.2.2 1.5.8l.1.2c.2.3 0 .8-.3.9-.1 0-.2.1-.2.1l-3.8.5c-.3 0-.5.3-.5.6v.6c0 .2.2.4.4.4h.1l2.9-.4c.6-.1 1.2.2 1.4.8.2.4.1.8-.3 1-.1 0-.1.1-.2.1l-3.8.6c-.3 0-.5.3-.5.6v.5c0 .2.2.4.4.4h.1l3.7-.6c.6-.1 1.1.3 1.3.8l.3 1c.1.4-.1.8-.5 1H85l-13.9 1.2c-.6 0-1.1-.3-1.4-.8-.1-.3-.4-.5-.7-.6l-1.1-.4c-.2-.1-.4 0-.4.2v.1l.1 13.2c0 .6-.4 1.1-1 1.1l-2.3.3c-.5.1-.9-.2-1-.7V33l.3-11.8zm7.5-4.3c-.3 0-.6.3-.7.5l-.3.9c-.1.1 0 .3.2.4h.2l4.7-.8c.3 0 .5-.3.5-.6v-.6c0-.2-.2-.4-.4-.4h-.1l-4.1.6zM93.2 31c0-.2-.2-.4-.4-.5h-.1l-1.5.2c-.6.1-1.2-.2-1.4-.8l-.4-.8c-.2-.4 0-.9.4-1 .1 0 .1 0 .2-.1l2.9-.6c.3-.1.5-.3.5-.6v-.9c0-.2-.2-.4-.4-.4h-.1l-1.9.4c-.6.1-1.2-.1-1.5-.6l-.3-.5c-.2-.3-.1-.8.2-1 .1 0 .2-.1.2-.1l.4-.1c.3-.1.4-.3.4-.6l-.4-1.7c-.1-.4.2-.8.6-.9h.2l1.8.1c.3 0 .5.3.5.6 0 .1 0 .2-.1.3l-1 1.4c-.1.1 0 .2.1.3h.1l2.2-.5c.3-.1.6-.3.7-.6l1.4-3.4c.1-.1 0-.3-.1-.4h-.2l-5.2.9c-.6.1-1.2-.2-1.5-.7l-.5-.9c-.2-.4-.1-.8.3-1 .1 0 .1-.1.2-.1l3-.7.4-.1c.3-.1.5-.3.5-.6v-.6c0-.2-.2-.4-.4-.4h-.1l-1.5.3c-.6.1-1.2-.2-1.5-.7l-.4-.7c-.2-.3-.1-.8.2-1 .1-.1.2-.1.3-.1l3-.6c.3-.1.5-.3.5-.6v-1c0-.5.5-1 1-.9l1.6.1c.6 0 1 .5 1 1.1 0 .2.2.5.4.5h.1l1-.2c.6-.1 1.2.2 1.4.7l.7 1.6c0 .1.2.2.3.1l-3.4 1c-.3.1-.5.4-.5.6v.7c0 .2.2.4.4.4h.1l2.3-.5c.3-.1.7.1.8.4.1.2.2.2.4.2h.2c.3-.1.5-.3.5-.6v-3.5c0-.6.4-1 1-1l2.2-.1c.3 0 .7-.1 1-.1l3.4-.9c.6-.2 1.3 0 1.8.3l2 1.4c.5.4.8 1 .8 1.6-.2 2.2-.5 4.4-1.2 6.5-.1.3 0 .6.2.8l.6.6c.4.4.6 1 .4 1.6-.6 2-1.1 3.4-1.9 5.4-.1.3-.1.6.1.8.6.6 1 1.1 1.3 1.4.4.4.5 1 .1 1.5l-1.2 1.6c-.2.3-.7.4-1 .2-.1 0-.1-.1-.2-.1l-.7-.9c-.1-.1-.3-.2-.4-.1l-.1.1-.1.3-.5 1.1c-.3.4-.8.6-1.3.4l-2.3-1.2c-.1-.1-.3 0-.4.1v.1c0 .6-.4 1-1 1.1l-1.7.1c-.5 0-1-.4-1-1V30c0-.2-.2-.4-.4-.4h-.1l-3.5.4c-.3 0-.5.3-.5.6l.1 2.4c0 .6-.4 1-.9 1.1h-.1l-2.1.1c-.5 0-1-.3-1-.8V31zm12.3.1c0 .1 0 .2.1.2s.2 0 .2-.1l.8-1.4.8-1.4c.2-.2.2-.6 0-.8l-1-1.4c-.3-.5-.3-1.1.1-1.5l.8-.9c.3-.3.9-.4 1.2 0l.1.1.5.6c.1.1.3.2.4.1l.1-.1.4-.9.8-1.7c.1-.1 0-.3-.1-.3h-.2l-3.3.8-1.4.3c-.3.1-.5.3-.5.6l.2 7.8zm-4.8-3.5c.1.3.4.5.7.4.3-.1.4-.3.4-.6v-2.5c0-.2-.2-.4-.4-.4h-.1l-3.8.8c-.3.1-.5.3-.5.6v.8c0 .2.2.4.4.4h.1l1.7-.3c.7-.1 1.2.2 1.5.8zm0-5.2c.1.2.4.3.6.3.3-.1.5-.3.5-.6v-3.9c0-.2-.2-.4-.4-.4h-.1l-1.5.2c-.3 0-.5.3-.5.5v.1c0 .2.1.4.3.5.3.1.5.5.4.8v.1l-1 1.6c-.1.1 0 .3.1.3h.3c.5-.1 1 .1 1.3.5zm4.8-3.2c0 .2.2.4.4.4h.1l3.5-.9c.1 0 .1-.1.1-.2l-.1-.1-2.2-1c-.2-.1-.3-.4-.2-.6 0-.1.1-.2.2-.2l.6-.2c1.7-.7 1.7-1.4 1.8-3.2V13c0-.2-.1-.4-.3-.4h-.1l-3.3 1c-.3.1-.5.4-.5.6v5z"/><g class="st7"><pattern id="SVGID_1_" xlink:href="#SVGID_3_" patternTransform="translate(121.281 16506.479)" class="st7"/><path class="st8" d="M6.5 18.7c0-.6.4-1 1-1h2.4l.6-.1c.3 0 .5-.3.5-.5l-.2-2.4c0-.3-.3-.5-.5-.5l-2.6.1c-.6 0-1.2-.3-1.4-.9l-.6-1.3c-.2-.4 0-.8.4-.9.1 0 .1-.1.2-.1l8.5-.8c.3 0 .5-.3.5-.6v-.3c0-.6.4-1 1-1l2.7.1c.5 0 .9.5.9 1 0 .2.2.4.4.4l7.1-.6c.6-.1 1.1.3 1.4.9l.8 2.1c.1.4 0 .8-.4.9-.1 0-.2 0-.2.1l-3.1.2c-.3 0-.6.2-.6.5l-.6 2c0 .1 0 .3.2.3h.1c.5 0 1.1.1 1.5.3l2 1.1c.5.3.9.9.9 1.5v6.2c0 2.5-.1 5-.5 7.4-.1.5-.5.8-1 .7h-.1l-4.6-1.4c-.3-.1-.7-.1-1-.1l-8.2.4c-.6 0-1-.4-1.1-.9v-.1l-.4-5c0-.3-.2-.5-.5-.6l-1-.3c-.2 0-.4.1-.5.3V33c0 .6-.4 1-1 1l-2.2.1c-.5 0-1-.3-1-.9v-.1l.2-14.4zm17 6.3c-.3 0-.5.3-.5.5l-.2 3.8c0 .1.1.3.2.3h.1l.4-.3c1.2-.8 1.3-1.1 1.3-2.3v-1.6c0-.2-.2-.5-.4-.5l-.9.1zm-6.8 1.8c-.3 0-.5.3-.5.6v1c0 .3.2.5.5.5l1.5-.1c.3 0 .5-.3.5-.5l.1-1.1c0-.2-.1-.4-.4-.4h-1.7zM11 20.4c-.3 0-.5.3-.5.5v3.6c0 .1.1.1.2.1 0 0 .1 0 .1-.1l2.3-4c.1-.1 0-.3-.1-.4h-.2l-1.8.3zm4.4 3c-.1.1 0 .3.1.3h.2l2.5-.3c.3 0 .5-.2.5-.5v-2.6c0-.3-.2-.5-.5-.5l-2 .1c-.3 0-.5.2-.6.5v.1c0 .2.1.4.3.5.3.1.5.5.4.9v.1l-.9 1.4zm7.6-3.9c-.3 0-.5.2-.5.5 0 .6 0 1 .3 1.3.2.2.6.3.9.3.2 0 .5 0 .7-.1h.2c.3 0 .5-.3.5-.5v-1.1c0-.3-.2-.5-.4-.5l-1.7.1zm-8.3-2.6c-.1.1-.1.2 0 .3 0 0 .1.1.2.1l5-.5c.3 0 .5-.2.6-.5l.4-2c0-.2-.1-.4-.3-.5h-.1l-6.3.3c-.3 0-.5.2-.6.5 0 .3.2.6.5.6l.8.2c.3.1.6.4.5.7 0 .1-.1.2-.1.3l-.6.5z"/><pattern id="SVGID_2_" xlink:href="#SVGID_4_" patternTransform="translate(148.46 16506.305)" class="st7"/><path class="st9" d="M32.8 24.5c0-.6.4-1.1 1-1.1l6.8-.9c.6-.1 1.3.1 1.8.4l3.3 2.1c.1.1.3 0 .4-.1v-1.2c0-.6.4-1.1 1-1.1l6.8-.8c.6-.1 1.3.1 1.8.5l2 1.4c.5.3.8 1 .7 1.6l-.9 7.6c-.1.6-.6 1-1.1 1l-9 .2c-.6 0-1-.4-1-1l-.1-6.7c0-.3-.2-.6-.6-.7-.3 0-.6.2-.7.6l-1 6.5c-.1.6-.6 1-1.2 1l-8.7.2c-.6 0-1-.4-1-1l-.3-8.5zm4.8 2.3c-.3 0-.5.3-.5.6l.1 2.2c0 .3.2.5.5.5l1.9-.2c.3 0 .5-.3.5-.5l.2-2.3c0-.2-.1-.4-.4-.4h-.1l-2.2.1zm13.3-.7c-.3 0-.5.3-.5.6v2.7c0 .2.2.4.4.4h.1l1.7-.2c.3 0 .5-.3.6-.5l.3-2.8c0-.2-.1-.4-.3-.4h-.1l-2.2.2zm-14.8-15c-.1-.5.3-1 .9-1.1l12.9-1.4c.6-.1 1.3.1 1.8.4l2.8 1.6c.5.3.8.9.6 1.5l-1.7 6.8c-.2.6-.7 1-1.2 1l-14.5.9c-.5 0-1-.4-1.1-.9l-.5-8.8zm5.5 2.4c-.3 0-.5.3-.5.6l.1 2.1c0 .3.2.5.5.5l6.8-.7c.3 0 .5-.2.6-.5l.5-2.3c0-.2-.1-.4-.3-.4h-.1l-7.6.7z"/><pattern id="SVGID_7_" xlink:href="#SVGID_5_" patternTransform="translate(176.082 16506.18)" class="st7"/><path class="st10" d="M78.4 32.5c-.2-.1-.3-.3-.3-.5 0-.1.1-.2.2-.2l.2-.1c2.1-1 2.7-1.4 2.8-2.3v-5.6c0-.2-.2-.5-.4-.5h-.1l-5.4.6c-.3 0-.5.3-.5.5v.8c0 .2.2.4.4.4h.1l3-.6c.6-.1 1.1 0 1.6.4.4.3.4.8.1 1.2l-.8.9c-.1.1-.1.4 0 .5 0 0 .1 0 .1.1.3.2.4.6.2.9 0 .1-.1.1-.1.2l-.5.4c-.4.4-1.1.5-1.6.2l-.7-.4c-.4-.2-.5-.7-.3-1.1 0-.1.1-.1.1-.1l1-1.1c.1-.1 0-.2 0-.3h-.1l-2 .3c-.3 0-.5.3-.5.6v5.1c0 .6-.4 1-1 1l-2.2.1c-.5 0-1-.3-1-.9v-.1l.3-9.4c0-.6.4-1 1-1.1l9.4-1.1c.6-.1 1.3.1 1.8.4l1.2.7c.6.3.9.9 1 1.6v5.9c0 1.3 0 2.2-.1 3.2 0 .5-.4.8-.9.8h-.2l-5.8-1.4zM63.6 21.2c0-.3-.2-.6-.5-.6s-.5.2-.6.4l-.2.7c-.1.3-.4.5-.7.4-.1 0-.2-.1-.3-.2l-.4-.5c-.4-.5-.6-1.1-.4-1.7l1.1-4.2c.1-.3.4-.5.8-.4.1 0 .2.1.2.1l.7.6c.1.1.3.1.3 0 0 0 .1-.1.1-.2l.2-5.7c0-.5.4-.8.9-.8h.1l1.6.3c.6.1 1 .6 1 1.2v3.9c0 .3.2.6.5.7l2.6.8c.1 0 .2 0 .2-.1v-.1c-.1-.2 0-.5.2-.7h.2l4-.5c.3 0 .5-.3.5-.6v-.7c0-.2-.2-.4-.4-.4h-.1l-3.6.4c-.6.1-1.1-.2-1.4-.8l-.1-.2c-.2-.3-.1-.7.3-.9.1 0 .2-.1.2-.1l4.8-.6c.3 0 .5-.3.5-.6v-.5c0-.5.5-.9 1-.9l2.1.1c.5 0 .9.4.9.9 0 .2.2.4.4.4l2.8-.4c.6-.1 1.2.2 1.5.8l.1.2c.2.3 0 .8-.3.9-.1 0-.2.1-.2.1l-3.8.5c-.3 0-.5.3-.5.6v.6c0 .2.2.4.4.4h.1l2.9-.4c.6-.1 1.2.2 1.4.8.2.4.1.8-.3 1-.1 0-.1.1-.2.1l-3.8.6c-.3 0-.5.3-.5.6v.5c0 .2.2.4.4.4h.1l3.7-.6c.6-.1 1.1.3 1.3.8l.3 1c.1.4-.1.8-.5 1H85l-13.9 1.2c-.6 0-1.1-.3-1.4-.8-.1-.3-.4-.5-.7-.6l-1.1-.4c-.2-.1-.4 0-.4.2v.1l.1 13.2c0 .6-.4 1.1-1 1.1l-2.3.3c-.5.1-.9-.2-1-.7V33l.3-11.8zm7.5-4.3c-.3 0-.6.3-.7.5l-.3.9c-.1.1 0 .3.2.4h.2l4.7-.8c.3 0 .5-.3.5-.6v-.6c0-.2-.2-.4-.4-.4h-.1l-4.1.6z"/><pattern id="SVGID_8_" xlink:href="#SVGID_6_" patternTransform="translate(204.56 16506.191)" class="st7"/><path class="st11" d="M93.2 31c0-.2-.2-.4-.4-.5h-.1l-1.5.2c-.6.1-1.2-.2-1.4-.8l-.4-.8c-.2-.4 0-.9.4-1 .1 0 .1 0 .2-.1l2.9-.6c.3-.1.5-.3.5-.6v-.9c0-.2-.2-.4-.4-.4h-.1l-1.9.4c-.6.1-1.2-.1-1.5-.6l-.3-.5c-.2-.3-.1-.8.2-1 .1 0 .2-.1.2-.1l.4-.1c.3-.1.4-.3.4-.6l-.4-1.7c-.1-.4.2-.8.6-.9h.2l1.8.1c.3 0 .5.3.5.6 0 .1 0 .2-.1.3l-1 1.4c-.1.1 0 .2.1.3h.1l2.2-.5c.3-.1.6-.3.7-.6l1.4-3.4c.1-.1 0-.3-.1-.4h-.2l-5.2.9c-.6.1-1.2-.2-1.5-.7l-.5-.9c-.2-.4-.1-.8.3-1 .1 0 .1-.1.2-.1l3-.7.4-.1c.3-.1.5-.3.5-.6v-.6c0-.2-.2-.4-.4-.4h-.1l-1.5.3c-.6.1-1.2-.2-1.5-.7l-.4-.7c-.2-.3-.1-.8.2-1 .1-.1.2-.1.3-.1l3-.6c.3-.1.5-.3.5-.6v-1c0-.5.5-1 1-.9l1.6.1c.6 0 1 .5 1 1.1 0 .2.2.5.4.5h.1l1-.2c.6-.1 1.2.2 1.4.7l.7 1.6c0 .1.2.2.3.1l-3.4 1c-.3.1-.5.4-.5.6v.7c0 .2.2.4.4.4h.1l2.3-.5c.3-.1.7.1.8.4.1.2.2.2.4.2h.2c.3-.1.5-.3.5-.6v-3.5c0-.6.4-1 1-1l2.2-.1c.3 0 .7-.1 1-.1l3.4-.9c.6-.2 1.3 0 1.8.3l2 1.4c.5.4.8 1 .8 1.6-.2 2.2-.5 4.4-1.2 6.5-.1.3 0 .6.2.8l.6.6c.4.4.6 1 .4 1.6-.6 2-1.1 3.4-1.9 5.4-.1.3-.1.6.1.8.6.6 1 1.1 1.3 1.4.4.4.5 1 .1 1.5l-1.2 1.6c-.2.3-.7.4-1 .2-.1 0-.1-.1-.2-.1l-.7-.9c-.1-.1-.3-.2-.4-.1l-.1.1-.1.3-.5 1.1c-.3.4-.8.6-1.3.4l-2.3-1.2c-.1-.1-.3 0-.4.1v.1c0 .6-.4 1-1 1.1l-1.7.1c-.5 0-1-.4-1-1V30c0-.2-.2-.4-.4-.4h-.1l-3.5.4c-.3 0-.5.3-.5.6l.1 2.4c0 .6-.4 1-.9 1.1h-.1l-2.1.1c-.5 0-1-.3-1-.8V31zm12.3.1c0 .1 0 .2.1.2s.2 0 .2-.1l.8-1.4.8-1.4c.2-.2.2-.6 0-.8l-1-1.4c-.3-.5-.3-1.1.1-1.5l.8-.9c.3-.3.9-.4 1.2 0l.1.1.5.6c.1.1.3.2.4.1l.1-.1.4-.9.8-1.7c.1-.1 0-.3-.1-.3h-.2l-3.3.8-1.4.3c-.3.1-.5.3-.5.6l.2 7.8zm-4.8-3.5c.1.3.4.5.7.4.3-.1.4-.3.4-.6v-2.5c0-.2-.2-.4-.4-.4h-.1l-3.8.8c-.3.1-.5.3-.5.6v.8c0 .2.2.4.4.4h.1l1.7-.3c.7-.1 1.2.2 1.5.8zm0-5.2c.1.2.4.3.6.3.3-.1.5-.3.5-.6v-3.9c0-.2-.2-.4-.4-.4h-.1l-1.5.2c-.3 0-.5.3-.5.5v.1c0 .2.1.4.3.5.3.1.5.5.4.8v.1l-1 1.6c-.1.1 0 .3.1.3h.3c.5-.1 1 .1 1.3.5zm4.8-3.2c0 .2.2.4.4.4h.1l3.5-.9c.1 0 .1-.1.1-.2l-.1-.1-2.2-1c-.2-.1-.3-.4-.2-.6 0-.1.1-.2.2-.2l.6-.2c1.7-.7 1.7-1.4 1.8-3.2V13c0-.2-.1-.4-.3-.4h-.1l-3.3 1c-.3.1-.5.4-.5.6v5z"/></g></svg>