<svg xmlns="http://www.w3.org/2000/svg" width="146" height="21" viewBox="0 0 146 21"><defs><style>.a{fill:#5d0e5a}.b{fill:#6d2e6a}.c{fill:none}</style></defs><title>txt_shizuku</title><path class="a" d="M65 3.79l.18.18v.25a.57.57 0 0 1-.18.43.6.6 0 0 1-.43.18H57.8a.22.22 0 0 0-.21.12q-.26.55-.6 1.16a.09.09 0 0 0 0 .08.07.07 0 0 0 .06 0h5.28a1.19 1.19 0 0 1 1.19 1.19v5.82a2 2 0 0 1-.14.85.92.92 0 0 1-.5.45 5.56 5.56 0 0 1-1.78.21.77.77 0 0 1-.51-.18 1.08 1.08 0 0 1-.31-.46.42.42 0 0 1 .05-.41.39.39 0 0 1 .36-.18h1.24a.37.37 0 0 0 .25-.06.3.3 0 0 0 .07-.23v-1.07a.12.12 0 0 0-.14-.14h-5.2a.12.12 0 0 0-.14.14v2a.63.63 0 0 1-.18.45.6.6 0 0 1-.45.19.62.62 0 0 1-.46-.19.61.61 0 0 1-.19-.45V8.44a.07.07 0 0 0-.06 0 11.88 11.88 0 0 1-1.48 1.42.61.61 0 0 1-.38.14h-.1a.69.69 0 0 1-.47-.29.59.59 0 0 1-.15-.4.57.57 0 0 1 .23-.48A12 12 0 0 0 56.16 5a.11.11 0 0 0 0-.08.08.08 0 0 0-.08 0h-2.56a.58.58 0 0 1-.42-.18.58.58 0 0 1-.18-.43.59.59 0 0 1 .18-.43.58.58 0 0 1 .42-.18h3.09a.19.19 0 0 0 .19-.12c.13-.33.24-.65.34-1a.72.72 0 0 1 .34-.42.71.71 0 0 1 .36-.1H58a.64.64 0 0 1 .4.3.63.63 0 0 1 .08.3.82.82 0 0 1 0 .21q-.12.38-.23.66a.11.11 0 0 0 0 .1.09.09 0 0 0 .08 0h6.21a.61.61 0 0 1 .46.16zm-2.88 4.79a.12.12 0 0 0 .14-.14V7.5a.12.12 0 0 0-.14-.14h-5.21a.12.12 0 0 0-.14.14v.94a.12.12 0 0 0 .14.14zm-5.35 2.17a.12.12 0 0 0 .14.14h5.21a.12.12 0 0 0 .14-.14v-.94a.12.12 0 0 0-.14-.14h-5.21a.12.12 0 0 0-.14.14zm20.47-5.21a.66.66 0 0 1 .2-.48.67.67 0 0 1 1 0 .66.66 0 0 1 .2.48v8a.65.65 0 0 1-.2.47.68.68 0 0 1-1 0 .65.65 0 0 1-.2-.47v-.23a.1.1 0 0 0-.11-.11H68.9a.1.1 0 0 0-.11.11v.26a.67.67 0 0 1-1.34 0v-8a.67.67 0 0 1 1.34 0v6.17a.12.12 0 0 0 .14.14h3.2a.12.12 0 0 0 .14-.14V2.55a.68.68 0 1 1 1.37 0v9.17a.12.12 0 0 0 .14.14h3.32a.12.12 0 0 0 .14-.14zM93 9.25a.56.56 0 0 1-.4 1h-4.87a.12.12 0 0 0-.14.14v.14a.17.17 0 0 0 .14.18 34.15 34.15 0 0 1 4 1.56.54.54 0 0 1 .29.34.64.64 0 0 1 0 .18.54.54 0 0 1-.02.21.63.63 0 0 1-.38.29.53.53 0 0 1-.18 0 .62.62 0 0 1-.3-.08 30.77 30.77 0 0 0-3.38-1.45.1.1 0 0 0-.08 0 .1.1 0 0 0 0 .08v2.17a.63.63 0 1 1-1.26 0v-3.67a.12.12 0 0 0-.14-.14h-4.86a.56.56 0 1 1 0-1.12h11.2a.54.54 0 0 1 .38.17zM82.34 5.17a.12.12 0 0 0-.14.14v1.34a.55.55 0 0 1-.17.4.58.58 0 0 1-.82 0 .55.55 0 0 1-.17-.4V5.38a1.19 1.19 0 0 1 1.19-1.19h4a.12.12 0 0 0 .14-.14v-.51a.12.12 0 0 0-.14-.14h-3.82a.5.5 0 0 1-.41-.14.49.49 0 0 1-.15-.36.5.5 0 0 1 .15-.37.51.51 0 0 1 .37-.15h9.16a.51.51 0 0 1 .37.15.5.5 0 0 1 .15.36.49.49 0 0 1-.15.36.5.5 0 0 1-.37.15h-3.8a.12.12 0 0 0-.14.14v.51a.12.12 0 0 0 .14.14h4.06A1.19 1.19 0 0 1 93 5.38v1.24a.6.6 0 0 1-1.2 0V5.31a.12.12 0 0 0-.14-.14h-3.93a.12.12 0 0 0-.14.14v2.8a.63.63 0 1 1-1.26 0v-2.8a.12.12 0 0 0-.14-.14zm.6 3.17a.44.44 0 0 1-.32-.13.45.45 0 0 1 0-.63.44.44 0 0 1 .32-.13h2.38a.42.42 0 0 1 .31.13.44.44 0 0 1-.31.76zm0-1.72a.42.42 0 0 1-.12-.31.42.42 0 0 1 .09-.31.43.43 0 0 1 .31-.12h2.08a.43.43 0 0 1 .31.12.41.41 0 0 1 .13.31.4.4 0 0 1-.13.31.43.43 0 0 1-.31.12h-2.07a.43.43 0 0 1-.32-.12zm5.39 0a.4.4 0 0 1-.13-.31.41.41 0 0 1 .11-.31.43.43 0 0 1 .31-.12h2.13a.43.43 0 0 1 .31.12.42.42 0 0 1 .12.31.42.42 0 0 1-.12.31.43.43 0 0 1-.31.12h-2.13a.43.43 0 0 1-.31-.12zm.31 1.72a.42.42 0 0 1-.31-.13.45.45 0 0 1 0-.63.42.42 0 0 1 .31-.13h2.46a.44.44 0 0 1 .32.13.45.45 0 0 1 0 .63.44.44 0 0 1-.32.13z"/><path class="b" d="M96.91 19.47s0-.14-.06-.12v.17zm-.46-.31a.37.37 0 0 0-.12.37c.08-.16.1-.09.19-.28a.09.09 0 0 1 .11.11s.11 0 .15-.07a.19.19 0 0 0-.32 0s-.02-.1-.01-.13zm-6.79-.26zm-4.2-.09s-.01-.01 0 0zm-.72-.18s.01-.01 0 0zm4.92.27l-.11-.05c-.01.06.06.04.11.05zm5.85.66h.06-.06zm-3.99-.79v-.07zm1.42-.02s0 .13-.06.2 0-.09.07-.1a.37.37 0 0 0-.01-.1zm2.25.25zm-4.69-.26a.17.17 0 0 0 0-.05.11.11 0 0 0 0 .05zM50.74 19.8s-.02 0 0 0zm-1.65-.7v-.08zm34.34-.65s.02-.01 0 0zm-12.05.11c.14.13-.22.16 0 .3-.04-.06.17-.22 0-.3zm24.09.98zm-24.11-.68zm9.05-.32a.18.18 0 0 0 0 .06.12.12 0 0 0 0-.06zm2.25.2h-.06zm-3.42-.01h-.08s.04-.02.08 0zm-1.24.01zm-23.56.99a.47.47 0 0 1-.06-.13c.02.1-.16.14.06.13zm41.07-.25v.06a.07.07 0 0 0 0-.06zm-16.32.36H79zm-16.01-.13zm15.24.13a.28.28 0 0 0-.11-.1zm-24.04-.24z"/><path class="b" d="M53.11 19.93c.18 0 .09-.18.13-.29.22-.05.1.14.18.23s.24-.22.35-.21 0 0 0 .08c.15-.15.43 0 .6-.19a.71.71 0 0 1 0-.25c.08 0 .15-.12.18 0s-.06 0-.08.08l.09-.05c.08.17-.12.06-.12.19.17-.06.37-.2.5-.15s-.3.06-.13.21l-.2-.06c.15.27-.12 0 0 .27.26 0 .29-.09.56 0 .06-.09 0-.14 0-.23.37-.17.29.43.57.2.07-.11.1-.33.29-.21l-.07.19c.26 0 .15-.28.41-.15 0 .08-.2.06-.16.09s.12-.11.26-.11v.17c.27 0 .57-.15.87-.18 0 .05-.07.1 0 .16a2.54 2.54 0 0 1 1.18.12l.14-.15a.06.06 0 0 1 0 .09c.14.06 0-.09.08-.15a.07.07 0 0 1 .06.13 1.21 1.21 0 0 1 1-.11h-.05c.21.06.23-.3.42-.16.45.06.94-.07 1.29.15.07-.21.44.09.47-.2.26.15.18.2.54.3.1 0 .14-.18.26-.21v.15l.16-.16.09.18h.11a.12.12 0 0 1-.09-.11.39.39 0 0 1 .43.19l.41-.13c0 .06-.08.08-.13.12.22-.16 0 .16.24 0v-.12a.63.63 0 0 0 .5.05v.11c.31 0 .65-.05 1 0a.14.14 0 0 1 0-.25v.16c.07-.1-.1-.06 0-.18s.09.19 0 .24l.16-.06v.14c.06-.1.27.16.36 0 .34 0 .5-.05.78-.06 0-.14.11-.11.2-.22a2.53 2.53 0 0 0 .68.14c.17-.07.05-.12.13-.2 0 .13.26.12.13.21a2.83 2.83 0 0 0 .76-.13c0-.05-.09-.08-.06-.12a.12.12 0 0 1 .15.12c.42-.19 1 .37 1.31.11l.35-.14c.16 0-.1.1 0 .18.38-.21.59 0 .9-.11.24.38.85 0 1.17.21v-.09c.08-.09.1.05.16.07s-.09-.08 0-.13a8.74 8.74 0 0 1 2.19.21c.27 0 .15-.46.49-.25l-.1.17c.54-.2 1.1 0 1.62-.16 0 0 0 .09-.08.09.11.12.41 0 .41-.09s0 .09.07.14.28-.15.34 0 0 0-.05 0 .34 0 .27-.12c.2.07.38-.06.53 0 .1-.15.34.07.37-.14 0 .23.35.18.47.08 0 .07.11.07.06.17.14 0 .27 0 .25-.16.26.27.53-.22.67.13a8.54 8.54 0 0 1 1.19-.26c0 .23-.42 0-.4.26.36-.09.57-.29.92-.23.09 0-.05.1-.08.14.36-.09.7 0 1-.1l-.07.06c-.07.06.15 0 .14-.07h-.06c-.1-.15.25-.31.26-.39-.11.29.32.07.15.45a.14.14 0 0 0 .08-.14c.06 0 .08.06 0 .14.23-.06.15-.16.35-.16 0 0 0 .07-.06.13a.39.39 0 0 1 .38-.15v.07c.3 0 .51-.26.83-.16-.1.22.11.07.13.26l.18-.06-.08-.04c.15 0 .29-.13.42-.07l-.11.08h.29l-.16-.07c.16-.1 0-.24.19-.18 0 0 .15 0 .23.11.08-.06.15-.12.27-.08s0 .21 0 .25c.07-.16.36 0 .45-.21a.22.22 0 0 0 0 .16l.06-.13c.07 0 .08.06.07.14.21 0-.07-.24.19-.13h-.05c.25.05.49-.08.73 0 .07.19-.21 0-.13.2a4.81 4.81 0 0 1 1-.18h-.06c0-.27.24.13.41 0 0 0-.05.15 0 .12a2.12 2.12 0 0 0 .8-.15v.07a2.64 2.64 0 0 0 .49.07c0-.07.12-.06.07-.16.44.39.84-.21 1.23.12 0 0-.11.06-.07.06l.33-.06c0-.12 0-.07-.11-.16a.28.28 0 0 1 .22-.12c-.15.08 0 .19.07.25s0-.07 0-.11c.17.21 0-.23.27-.09v.06c.09 0 .17-.11.27-.09s-.09.06-.1.17.27-.25.39-.12c-.06 0-.14 0-.2.07.13.16.15.12.25.14l.23.07h-.06c.17-.35.34-.06.57-.29-.22.22 0 .13-.05.28s.15.09.12.13c.11-.12.18.1.33-.08 0 0 .11 0 .09.13.14 0 0-.08 0-.15.21-.17.5.2.81 0s.32-.26.56-.34c.08.08-.07.18-.07.18a.37.37 0 0 0 .36 0v.13c0 .05.07-.18.2-.11a.7.7 0 0 1-.1.2c.12 0 .24-.14.36-.18s-.08.13-.12.18c.14 0 .36-.08.4-.21h-.09c.05 0 0 .12 0 .14s-.17 0-.18-.1h.09c-.09-.29-.35 0-.53 0l.07-.21-.18.17c0-.05-.07-.17 0-.2-.13-.1-.11.07-.22 0l-.12.06s0-.15.06-.12c-.22-.12-.36.16-.44 0-.31.07 0 .15-.26.33l-.16-.38v.15s-.1 0-.08-.08c-.12.1 0 .07 0 .17-.15-.14-.42.07-.46-.18-.06.12.15.09 0 .17 0-.26-.19 0-.33-.08 0-.14.18-.06 0-.18-.08.23-.27 0-.39 0s-.26.08-.46.14c0-.06-.37-.1-.56-.17 0 .18-.23.15-.37.19a.21.21 0 0 1 .11-.2h-.13a.21.21 0 0 1-.16.11v-.14c-.17 0-.35.16-.57.07 0 .13.18.36-.06.44v-.22c0-.03-.07.06-.11 0l.09-.12c-.1-.05-.05.1-.13.09s-.06-.07 0-.15.07 0 .1 0a.36.36 0 0 1-.24-.15c0 .06 0 .13-.07.15s-.06-.12-.16-.17-.15 0-.16.15-.06-.07-.08-.11-.42 0-.32.18c-.29.15-.61-.08-.91 0-.17.06-.39 0-.51.14a.13.13 0 0 1-.1-.15c-.13 0-.15.09-.34 0 .13-.09 0-.08.14-.06-.17 0-.21-.12-.4 0 .06-.13-.13-.16-.21-.12l.12.09a.75.75 0 0 1-.26 0v-.17c-.36-.2-.64.34-.91 0-.09.12.19.08.11.22-.16 0-.33-.26-.39-.26-.22-.09-.21.24-.44.18a.19.19 0 0 1-.12.27c-.16 0-.2-.25-.1-.3s.06 0 .06 0 .12 0 .06-.11v.06c-.08-.06-.31-.05-.25-.15-.12.06-.05.1 0 .13-.21-.09-.33 0-.54-.06 0 0 .07.1 0 .1-.32-.07-.14.11-.35.14s0-.22-.17-.14 0-.16 0-.21c-.2.11-.37-.08-.48-.1h.1a.35.35 0 0 1-.16 0l.06.12c-.06 0-.11 0-.11-.07s0 .2-.08.3c-.08-.06-.25.06-.28-.09.26.05 0-.16.19-.18a.21.21 0 0 1-.15 0c-.24-.14-.11.18-.37.17 0-.09-.06-.17-.1-.15s0 .15 0 .22-.18.05-.26 0h.1c0 .09-.11.08-.23.1s.1 0 .06-.08c-.13.16-.28-.16-.46-.06-.08-.06 0-.17-.08-.21-.2.12-.21-.12-.42 0 .06.12.07.09-.08.21l.34-.08-.22.17c.1 0 .22-.08.28-.05-.1.1-.09.07 0 .17-.14-.18-.28.1-.44 0v-.3c-.24-.13-.43.15-.75.08l.1.05c0 .12-.2 0-.3.06s-.05-.13-.1-.2-.23 0-.26.19l-.23-.38c-.26-.05-.29.28-.54.25.07-.11 0-.18.13-.25h-.16s-.23.13-.3 0 0 .15-.14.14-.14.07-.06.18c-.25-.31-.71 0-.92-.24a4.45 4.45 0 0 1-.56.07c-.22-.09-.14.28-.39.18s.14-.09.05-.15c0-.32-.31 0-.48-.15-.13-.11-.32.12-.53.1a1.19 1.19 0 0 1-.63.27c.06-.13.09-.07.05-.2s0 .21-.16.24-.19-.13-.21-.27h.17c-.09-.18-.22 0-.32 0v-.08c-.27 0-.27.22-.56.21v.06c-.16.19-.13-.11-.29 0v-.2a2.83 2.83 0 0 1-.55.23 1.55 1.55 0 0 1 .46-.31c-.1 0-.35 0-.4.11s.09-.07.13 0a.59.59 0 0 1-.5.23c0-.38-.53-.1-.68-.39-.36.14-.72-.06-1.14 0 .15.3-.12 0-.1.31h-.14l-.3-.18c-.07-.09.09-.07.08-.14-.21 0-.09-.13-.23-.21 0 .11-.07.16-.2.11l.17.14c-.3.16-.26-.26-.56-.1l.1-.1c-.16.06-.57 0-.72.24 0 0-.06-.12 0-.14-.37 0-.82.26-1.11.11v-.07c-.07 0-.12.14-.21.07s0-.07 0-.08-.18.13-.27.09l.08-.08c-.36-.1-.55.2-.86.26 0-.22-.28-.29-.43-.33a3.68 3.68 0 0 0-1.1.27c-.24-.24-.82-.1-1.21-.23.06 0 0 .17-.08.19s-.25.15-.24 0c-.07-.2-.26-.15-.4-.15v.26c-.38-.38-1 .14-1.21-.2-.09.07-.21.07-.3.13v-.36a2.29 2.29 0 0 0-.7 0l.06-.1c-.18 0-.23.41-.39.42v-.21c-.31 0-.63-.18-.93 0 0 0 0-.09.06-.1-.15 0-.57-.14-.51.15 0-.19-.32 0-.49.06v-.14c-.14.18-.15.23-.34.28v-.08c-.16-.07-.12.13-.31.06l.07-.09c-.16 0-.15 0-.24.14a.26.26 0 0 1-.33-.16c0 .08-.11.18-.2.14a.09.09 0 0 1 0-.09c-.27-.09-.4.16-.59 0a.12.12 0 0 0 0-.08 1.8 1.8 0 0 1 .37 0c0-.13-.17-.15 0-.33-.14.1-.38.31-.54.25a.12.12 0 0 0-.11 0 .39.39 0 0 0-.14 0c0-.11-.2-.06-.28-.06s-.11.12 0 .23 0 0 .07 0H57c-.07.07-.14.13-.23.05l.03.16c-.12-.2-.35-.3-.38-.42-.26.08-.62.05-.78.32-.07 0-.09-.08-.11-.12s.09 0 .12-.06c-.15.07-.44 0-.48.21-.19-.08.11-.17-.15-.14v-.06c-.51-.29-.83.47-1.39.09 0 0 .06 0 .07.06-.64-.17-1.33.16-2-.11-.18-.05-.2.06-.31.15v-.15l-.19.17c-.27.13-.46-.37-.8-.13v.1c-.12 0-.39.06-.36-.06s0 .11-.09.05v-.08l-.3.14c-.23-.06 0-.31-.3-.33-.13 0-.36.23-.31.28a.15.15 0 0 1 .13.13h-.11c0 .23-.11.47.17.63l.2-.14.06.11h-.17c.09.11.15 0 .22-.05a.19.19 0 0 0 .08.12l.19-.22c0 .09-.09.18 0 .23.09-.1-.09-.2.06-.27.09.11.07.19.18.1a.1.1 0 0 1-.05.12c.1-.07.26 0 .31-.15.1.13.33 0 .32.19a.5.5 0 0 1 .26-.18c-.17.26.34 0 .29.3.12-.24.44-.11.66-.24 0 0 0 .06-.05 0s.16.09.23.14c0-.2.21-.24.31-.36.15.19-.09.23 0 .41 0-.16.26-.16.21-.29.11.12.1.06.16.22 0-.24.11 0 .2-.19.17.12 0 .23.22.15s-.01.26-.01.26zm4.31-.42zm.36 0h-.16v-.1s.1.06.15.1zm-.77-1h.08-.1a.23.23 0 0 1 .01.03zm-.1.21zm32.81.21z"/><path class="b" d="M62.77 19.78v-.04l-.03.03.03.01zm28.94-.37zm.86.03l.12.05zm.66.07a.27.27 0 0 0 0-.06zm-10.53.17c-.08.03-.04.02 0 0zm3.14-.33l-.1.07c.05.01.1.01.1-.07zm-6.63.5zm6.38-.44a.16.16 0 0 0 .15 0 .24.24 0 0 0-.15 0zm10.51.16zm.04-.01s0-.02 0 0zm.11-.05h-.07s.05.04.07 0zm-1.03 0v.05a.13.13 0 0 0 0-.05zm-.22.01c.06 0 .16.11.25.08-.08.04-.25-.16-.25-.08zm-1.15-.63h.22c0-.05-.09-.13 0-.14-.27-.12.07.17-.22.14zm-.7-.07c.12 0 0-.08 0-.11s-.08.06 0 .11zm-5 0v-.13c-.08.02.01.05 0 .13zm-.95.66l.09.08.04-.12-.13.04zm-.57-.91l.04-.02-.15.04.11-.02zm-8.4.04v.16c.09-.03.11-.21 0-.16zm-3.62.16c0-.08-.14-.13-.2-.05s.16.07.2.05zm-10.88-.25l.08-.06-.14.05.06.01z"/><path class="c" d="M0 0h146v21H0z"/></svg>