<svg xmlns="http://www.w3.org/2000/svg" width="146" height="23.04" viewBox="0 0 146 23.04"><defs><style>.a{fill:#5d0e5a}.b{fill:#6d2e6a}.c{fill:none}</style></defs><title>txt_music</title><path class="a" d="M68.93 8.37a.07.07 0 0 0 0 .08.08.08 0 0 0 .07 0h2.64a.58.58 0 0 1 0 1.16H60.4a.57.57 0 0 1-.4-.13.58.58 0 0 1 0-.82.57.57 0 0 1 .42-.17H63a.11.11 0 0 0 .09 0 .1.1 0 0 0 0-.1 6.7 6.7 0 0 0-.36-1.07.61.61 0 0 1 0-.32.74.74 0 0 1 .05-.27.54.54 0 0 1 .41-.31h-2a.59.59 0 1 1 0-1.18h4a.11.11 0 0 0 .12-.12v-.36a.68.68 0 1 1 1.37 0v.38a.11.11 0 0 0 .12.12H71a.59.59 0 1 1 0 1.18h-1.89a.54.54 0 0 1 .4.3.71.71 0 0 1 .05.26.61.61 0 0 1-.05.25q-.38.75-.58 1.12zm-6.45 8.56a.65.65 0 0 1-.66-.66v-4.39A1.19 1.19 0 0 1 63 10.69h6.22a1.19 1.19 0 0 1 1.19 1.19v4.33a.66.66 0 0 1-.21.48.67.67 0 0 1-.49.21h-.27a.42.42 0 0 1-.41-.41l-.05-.05h-5.81l-.05.05a.44.44 0 0 1-.44.44zm6.56-5a.12.12 0 0 0-.14-.14h-5.65a.12.12 0 0 0-.14.14v1a.12.12 0 0 0 .14.14h5.65a.12.12 0 0 0 .14-.14zm-5.92 3.27a.12.12 0 0 0 .14.14h5.64a.12.12 0 0 0 .1-.14v-1a.12.12 0 0 0-.1-.2h-5.65a.12.12 0 0 0-.14.14zm5.18-8.62a.12.12 0 0 0 0-.1.09.09 0 0 0-.08 0H63.9a.07.07 0 0 0-.06 0 .08.08 0 0 0 0 .07 5.63 5.63 0 0 1 .56 1.19.56.56 0 0 1-.05.46.59.59 0 0 1-.4.27h4.16a.45.45 0 0 1-.3-.25.42.42 0 0 1 0-.39 11.71 11.71 0 0 0 .49-1.25zm8.09 2.27a.44.44 0 0 1 .39 0 .43.43 0 0 1 .27.28.68.68 0 0 1 0 .46.65.65 0 0 1-.29.36l-2 1.22a.65.65 0 0 1-.31.08h-.16a.64.64 0 0 1-.4-.29.62.62 0 0 1-.08-.3.51.51 0 0 1 0-.16.58.58 0 0 1 .3-.37q.61-.37 2.28-1.28zM86 12.42a.56.56 0 0 1 .17.41.54.54 0 0 1-.17.4.56.56 0 0 1-.4.16h-3.73a.05.05 0 0 0-.05 0 .05.05 0 0 0 0 .06 11.53 11.53 0 0 0 4 2.15.46.46 0 0 1 .29.31.67.67 0 0 1 0 .12.42.42 0 0 1-.11.29 1 1 0 0 1-.48.36 1 1 0 0 1-.27 0 1 1 0 0 1-.31-.05A12.43 12.43 0 0 1 80.73 14a.05.05 0 0 0-.06 0 .05.05 0 0 0 0 .05v2.49a.66.66 0 1 1-1.31 0V14a.05.05 0 0 0 0-.05.05.05 0 0 0-.06 0 12.56 12.56 0 0 1-4.17 2.8.84.84 0 0 1-.33.07.77.77 0 0 1-.25 0 1 1 0 0 1-.48-.34.42.42 0 0 1-.11-.29.67.67 0 0 1 0-.12.46.46 0 0 1 .29-.31 12 12 0 0 0 3.91-2.26.09.09 0 0 0 0-.06h-3.74a.56.56 0 0 1-.4-.16.54.54 0 0 1-.17-.4.58.58 0 0 1 .57-.58h4.76a.12.12 0 0 0 .14-.14v-.78a.12.12 0 0 0-.14-.14h-.6a1.14 1.14 0 0 1-.85-.35 1.16 1.16 0 0 1-.34-.84V7a1.16 1.16 0 0 1 .34-.84 1.14 1.14 0 0 1 .85-.35h.36a.17.17 0 0 0 .18-.12q.08-.33.15-.57a.78.78 0 0 1 .31-.46.73.73 0 0 1 .42-.2h.11a.59.59 0 0 1 .42.27.55.55 0 0 1 .08.29.51.51 0 0 1 0 .21l-.08.21-.08.21a.09.09 0 0 0 0 .08.08.08 0 0 0 .07 0h1A1.19 1.19 0 0 1 82.65 7v2.08a1.1 1.1 0 0 1 .63-.36h.21a1 1 0 0 1 .49.14A20.22 20.22 0 0 1 85.95 10a.55.55 0 0 1 .25.41v.07a.6.6 0 0 1-.15.4.56.56 0 0 1-.42.22h-.07a.6.6 0 0 1-.4-.15 18.72 18.72 0 0 0-2.39-1.53.09.09 0 0 0-.08 0 .07.07 0 0 0 0 .06V10a1.19 1.19 0 0 1-1.19 1.19h-.7a.12.12 0 0 0-.14.14v.78a.12.12 0 0 0 .14.14h4.84a.55.55 0 0 1 .36.17zm-9.33-5.6a.6.6 0 0 1 .15.4.65.65 0 0 1-.23.51.56.56 0 0 1-.37.14h-.07a.66.66 0 0 1-.42-.22 10 10 0 0 0-1.37-1.3.5.5 0 0 1-.16-.35.46.46 0 0 1 .16-.37.8.8 0 0 1 .46-.18.74.74 0 0 1 .44.14 10.88 10.88 0 0 1 1.42 1.23zm2.05 0a.12.12 0 0 0-.14.14v.94a.12.12 0 0 0 .14.14h2.52a.12.12 0 0 0 .14-.14v-.98a.12.12 0 0 0-.14-.14zm0 2.17a.12.12 0 0 0-.14.14v1a.12.12 0 0 0 .14.14h2.52a.12.12 0 0 0 .14-.14v-1a.12.12 0 0 0-.13-.13zm5.76-3.38a.85.85 0 0 1 .52-.29h.14a.7.7 0 0 1 .37.11.5.5 0 0 1 .26.37v.1a.49.49 0 0 1-.14.34 18.8 18.8 0 0 1-1.49 1.39.73.73 0 0 1-.45.18.77.77 0 0 1-.44-.14.42.42 0 0 1-.25-.35.45.45 0 0 1 .11-.32 14.06 14.06 0 0 0 1.38-1.42z"/><path class="b" d="M89.47 22.56v-.12.17zm-.32-.3a.47.47 0 0 0-.08.37c.06-.16.07-.09.13-.28 0 0 .08.05.08.11s.07 0 .1-.07-.14-.13-.22 0a.19.19 0 0 1-.01-.13zM84.48 22zm-2.9-.09s0-.02 0 0zm-.49-.19s.01-.01 0 0zm3.39.28l-.08-.05c0 .05.04.05.08.05zm4.03.65zm-2.75-.79v-.07zm.97-.02v.1a.52.52 0 0 0 0-.1zm1.56.24zm-3.24-.25a.21.21 0 0 0 0-.05.16.16 0 0 0 0 .05zm-27.39 1.06zm-1.13-.7v-.08zm23.66-.65s.01-.01 0 0zm-8.31.11c.09.13-.15.16 0 .3-.02-.06.12-.22 0-.3zm16.6.99zm-16.61-.69zm6.23-.32a.22.22 0 0 0 0 .06.15.15 0 0 0 0-.06zm1.55.2zm-2.35 0h-.06s.03-.03.06 0zm-.84 0zm-16.25.99a.59.59 0 0 1 0-.13c-.02.1-.15.14 0 .13zm28.3-.24v.06a.11.11 0 0 0 0-.06zm-11.25.36h-.13zm-11.03-.14s-.01.02 0 0zm10.5.14a.24.24 0 0 0-.08-.1zm-16.56-.25z"/><path class="b" d="M59.3 23c.13 0 .06-.18.09-.29s.07.14.12.23.17-.22.24-.21 0 0 0 .08c.1-.15.3 0 .41-.19a1 1 0 0 1 0-.25c.06 0 .11-.12.13 0s0 0-.05.08l.06-.05c.05.17-.08.06-.08.19.12-.06.25-.2.34-.15s-.21.06-.09.21l-.14-.06c.11.27-.08 0 0 .27.18 0 .2-.09.38 0s0-.14 0-.23c.26-.17.2.43.39.2s.07-.33.2-.21v.19c.18 0 .1-.28.28-.15 0 .08-.14.06-.11.09s.08-.11.18-.11v.17c.19 0 .39-.15.6-.18v.16a1.24 1.24 0 0 1 .81.12l.1-.15v.09c0 .02 0-.09.05-.15s.07.08 0 .13c.17-.12.49-.27.68-.11.14.06.16-.3.29-.16.31.06.65-.07.89.15 0-.21.31.09.33-.2.18.15.13.2.37.3.07 0 .1-.18.18-.21v.15l.11-.16.06.18h.08a.12.12 0 0 1-.06-.11c.12-.07.29.11.3.19l.28-.13c0 .06-.05.08-.09.12.15-.16 0 .16.17 0v-.12a.32.32 0 0 0 .34.05v.11a6.72 6.72 0 0 0 .68 0c-.08 0-.07-.23 0-.25v.16c0-.1-.07-.06 0-.18s.06.19 0 .24l.18-.05v.14c0-.1.19.16.25 0 .24 0 .34-.05.54-.06 0-.14.08-.11.14-.22a1.29 1.29 0 0 0 .47.14c.12-.07 0-.12.09-.2 0 .13.18.12.09.21a1.41 1.41 0 0 0 .52-.13c0-.05-.06-.08 0-.12s.11.05.1.12c.29-.19.67.37.9.11l.24-.14c.11 0-.07.1 0 .18.26-.21.41 0 .62-.11.17.38.59 0 .81.21v-.09c.06-.09.07.05.11.07s-.06-.08 0-.13a4.23 4.23 0 0 1 1.51.21c.18 0 .1-.46.33-.25l-.07.17c.37-.2.75 0 1.12-.16 0 0 0 .09-.06.09s.28 0 .28-.09v.14c0 .05.19-.15.23 0s.23 0 .18-.12c.14.07.26-.06.37 0 .07-.15.23.07.25-.14 0 .23.24.18.32.08 0 .07.07.07 0 .17s.19 0 .17-.16c.18.27.36-.22.46.13a4.36 4.36 0 0 1 .82-.26c0 .23-.29 0-.28.26.25-.09.39-.29.64-.23.06 0 0 .1-.06.14.25-.09.48 0 .7-.1v.06c0 .06.1 0 .1-.07-.07-.15.17-.31.18-.39-.07.29.22.07.1.45a.15.15 0 0 0 .06-.14s.06.06 0 .14c.16-.06.1-.16.24-.16s0 .07 0 .13c.07-.1.14-.19.26-.15s0 .07 0 .07c.2 0 .35-.26.57-.16-.07.22.08.07.09.26l.12-.06v-.09c.11 0 .2-.13.29-.07l-.08.08h.2l-.11-.07c.11-.1 0-.24.13-.18 0 0 .11 0 .16.11.05-.06.11-.12.18-.08s0 .21 0 .25c.05-.16.25 0 .31-.21a.31.31 0 0 0 0 .16v-.13s.06.06 0 .14c.15 0 0-.24.13-.13.18.05.34-.08.5 0s-.14 0-.09.2c.23 0 .48-.23.71-.18 0-.27.17.13.28 0s0 .15 0 .12.32-.07.55-.15v.07c.09.06.24 0 .34.07s.09-.06.05-.16c.3.39.58-.21.85.12 0 0-.08.06-.05.06l.23-.06c0-.12 0-.07-.08-.16a.19.19 0 0 1 .15-.12c-.1.08 0 .19 0 .25a1.05 1.05 0 0 1 0-.11c.12.21 0-.23.18-.09v.06c.06 0 .12-.11.18-.09s-.06.06-.07.17.18-.25.27-.12-.1 0-.14.07.1.12.17.14l.16.07c.12-.35.24-.06.39-.29-.15.22 0 .13 0 .28s.1.09.08.13c.07-.12.12.1.23-.08 0 0 .08 0 .06.13.1 0 0-.08 0-.15s.35.2.56 0 .22-.26.39-.34c.06.08 0 .18 0 .18a.19.19 0 0 0 .25 0v.13c0 .05 0-.18.14-.11a.88.88 0 0 1-.07.2c.08 0 .16-.14.25-.18s-.05.13-.08.18.25-.08.28-.21h-.06v.14c0 .02-.12 0-.12-.1h.06c-.06-.29-.24 0-.37 0l.05-.21-.13.17v-.2c0-.03-.08.07-.15 0l-.09.06v-.12c-.15-.12-.25.16-.31 0-.21.07 0 .15-.18.33l-.43-.52v.15a.06.06 0 0 1-.06-.08c-.08.1 0 .07 0 .17-.11-.14-.29.07-.32-.18 0 .12.1.09 0 .17 0-.26-.13 0-.23-.08s.12-.06 0-.18c-.06.23-.19 0-.27 0s-.18.08-.31.14-.26-.1-.39-.17c0 .18-.16.15-.25.19a.24.24 0 0 1 .07-.2h-.09a.16.16 0 0 1-.11.11v-.14c-.12 0-.24.16-.4.07 0 .13.12.36 0 .44v-.22c0-.03 0 .06-.08 0l.06-.12c-.07-.05 0 .1-.09.09s0-.07 0-.15 0 0 .07 0a.26.26 0 0 1-.17-.15v.15c0 .02 0-.12-.11-.17s-.11 0-.11.15 0-.07-.06-.11-.29 0-.22.18c-.2.15-.42-.08-.62 0-.12.06-.27 0-.35.14s-.08-.09-.07-.15-.1.09-.24 0c.09-.09 0-.08.09-.06-.12 0-.15-.12-.27 0a.1.1 0 0 0-.15-.12l.08.09a.36.36 0 0 1-.18 0v-.17c-.24-.2-.44.34-.63 0-.06.12.13.08.08.22-.11 0-.23-.26-.27-.26s-.14.24-.31.18c0 .06 0 .22-.08.27s-.14-.25-.07-.3.08 0 0-.11v.06c-.06-.06-.21-.05-.17-.15-.08.06 0 .1 0 .13-.14-.09-.23 0-.37-.06v.1c-.22-.07-.1.11-.24.14s0-.22-.12-.14 0-.16 0-.21c-.14.11-.25-.08-.33-.1h.07a.18.18 0 0 1-.11 0v.12s-.08 0-.08-.07 0 .2-.05.3c-.06-.06-.17.06-.19-.09.18.05 0-.16.13-.18a.1.1 0 0 1-.11 0c-.17-.14-.08.18-.25.17 0-.09 0-.17-.07-.15s0 .15 0 .22-.12.05-.18 0h.07c0 .09-.08.08-.16.1s.07 0 0-.08c-.09.16-.2-.16-.32-.06-.06-.06 0-.17-.05-.21-.14.12-.15-.12-.29 0 0 .12 0 .09-.05.21l.23-.08-.15.17c.07 0 .15-.08.19-.05s-.06.07 0 .17c-.1-.18-.19.1-.3 0v-.3c-.17-.13-.3.15-.52.08l.07.05c0 .12-.13 0-.21.06s0-.13-.07-.2-.16 0-.18.19l-.1-.13c-.18-.05-.2.28-.37.25.05-.11 0-.18.09-.25h-.11s-.16.13-.21 0 0 .15-.09.14-.1.07 0 .18c-.17-.31-.49 0-.64-.24a2.17 2.17 0 0 1-.38.07c-.15-.09-.09.28-.27.18s.09-.09 0-.15c0-.32-.21 0-.33-.15-.09-.11-.22.12-.37.1a.72.72 0 0 1-.43.27c0-.13.06-.07 0-.2s0 .21-.11.24-.13-.13-.15-.27h.12c-.06-.18-.16 0-.22 0v-.08c-.18 0-.19.22-.38.21v.06c-.11.19-.09-.11-.2 0v-.2a1.69 1.69 0 0 1-.38.23c.07-.15.22-.22.31-.31-.07 0-.24 0-.28.11s.06-.07.09 0a.37.37 0 0 1-.34.23c0-.38-.37-.1-.47-.39-.25.14-.49-.06-.78 0 .1.3-.08 0-.07.31h-.1l-.2-.18c0-.09.06-.07.06-.14s-.06-.13-.16-.21c0 .11-.05.16-.14.11l.12.14c-.21.16-.18-.26-.39-.1l.07-.1c-.11.06-.39 0-.5.24v-.14c-.25 0-.57.26-.77.11v-.07s-.08.14-.14.07 0-.07 0-.08-.13.13-.19.09l.05-.08c-.25-.1-.38.2-.59.26 0-.22-.2-.29-.29-.33-.29 0-.49.18-.76.27-.17-.24-.56-.1-.83-.23 0 0 0 .17-.05.19s-.17.15-.16 0c0-.2-.18-.15-.28-.15v.26c-.26-.38-.69.14-.83-.2-.06.07-.14.07-.21.13v-.14a1.09 1.09 0 0 0-.48 0v-.1c-.12 0-.16.41-.27.42v-.21c-.21 0-.43-.18-.64 0v-.1c0-.01-.39-.14-.35.15 0-.19-.22 0-.34.06v-.14c-.1.18-.1.23-.24.28s0-.11 0-.08c-.11-.07-.08.13-.21.06v-.09c-.11 0-.1 0-.16.14s-.21 0-.23-.16c0 .08-.08.18-.14.14a.11.11 0 0 1 0-.09c-.19-.09-.28.16-.4 0a.15.15 0 0 0 0-.08.87.87 0 0 1 .25 0c0-.13-.12-.15 0-.33-.1.1-.26.31-.37.25a.06.06 0 0 0-.07 0 .21.21 0 0 0-.1 0c0-.11-.14-.06-.2-.06s-.07.12 0 .23 0 0 .05 0h.17c0 .07-.1.13-.16.05l-.08.23c-.08-.2-.24-.3-.26-.42-.18.08-.43.05-.54.32.34-.33.34-.43.34-.47s.07 0 .08-.06-.31 0-.33.21c-.13-.08.07-.17-.11-.14v-.06c-.35-.29-.57.47-1 .09v.06c-.44-.17-.91.16-1.35-.11-.12-.05-.14.06-.21.15v-.15L58 22c-.18.13-.32-.37-.55-.13v.1c-.08 0-.27.06-.25-.06s0 .11-.06.05v-.08l-.21.14c-.16-.06 0-.31-.21-.33s-.25.23-.21.28a.13.13 0 0 1 .09.13h-.08c0 .23-.08.47.12.63l.14-.14v.11h-.11c.06.11.11 0 .15-.05a.21.21 0 0 0 .06.12l.13-.22c0 .09-.06.18 0 .23.06-.1-.06-.2 0-.27.06.11 0 .19.12.1a.12.12 0 0 1 0 .12c.07-.07.18 0 .21-.15.07.13.23 0 .22.19 0-.05.12-.17.18-.18-.11.26.23 0 .2.3.08-.24.3-.11.45-.24 0 0 0 .06 0 0s.11.09.16.14c0-.2.14-.24.21-.36.1.19-.06.23 0 .41 0-.16.18-.16.14-.29.08.12.07.06.11.22 0-.24.07 0 .14-.19.11.12 0 .23.15.15s0 .27 0 .27zm3-.42zm.25 0h-.15v-.1s.07.08.11.12zm-.53-1h.06-.07a.34.34 0 0 1-.01.05zm-.11.23zm22.6.19z"/><path class="b" d="M65.95 22.87v-.03l-.02.03h.02zm19.94-.37zm.59.03l.08.05zm.46.07a.38.38 0 0 0 0-.06zm-7.25.17s-.04.02 0 0zm2.15-.33l-.07.07s.07.01.07-.07zm-4.56.5zm4.39-.44a.08.08 0 0 0 .1 0 .12.12 0 0 0-.1 0zm7.24.17zm.03-.02s0-.02 0 0zm.06-.05h-.05s.05.04.05 0zm-.69 0v.05a.18.18 0 0 0 0-.05zm-.18.02s.11.11.17.08c-.03.03-.13-.17-.17-.08zm-.77-.62h.15c0-.05-.06-.13 0-.14-.18-.13.05.14-.15.14zm-.48-.09c.08 0 0-.08 0-.11s-.06.06 0 .11zm-3.44 0v-.13c-.06.02.01.05 0 .13zm-.66.66l.06.08.03-.12-.09.04zm-.39-.91l.03-.02-.11.05.08-.03zm-5.78.04v.16s.07-.2 0-.16zm-2.5.16c0-.08-.1-.13-.14-.05s.11.07.14.05zm-7.49-.25l.05-.06-.1.05.05.01z"/><path class="c" d="M0 0h146v21H0z"/></svg>