<svg xmlns="http://www.w3.org/2000/svg" width="146" height="21" viewBox="0 0 146 21"><defs><style>.a{fill:#5d0e5a}.b{fill:#6d2e6a}.c{fill:none}</style></defs><title>txt_acostic_d</title><path class="a" d="M56.22 5.72a.07.07 0 0 0 0 .08.08.08 0 0 0 .07 0h2.64a.58.58 0 0 1 0 1.16H47.69a.57.57 0 0 1-.42-.17.58.58 0 0 1 0-.82.57.57 0 0 1 .42-.17h2.64a.11.11 0 0 0 .09 0 .1.1 0 0 0 0-.1 6.7 6.7 0 0 0-.36-1.07.61.61 0 0 1-.06-.24.74.74 0 0 1 .05-.27.54.54 0 0 1 .41-.31h-2a.58.58 0 0 1-.59-.59.58.58 0 0 1 .59-.59h4a.11.11 0 0 0 .12-.12v-.4a.68.68 0 1 1 1.37 0v.38a.11.11 0 0 0 .12.12h4.18a.59.59 0 0 1 .42 1 .57.57 0 0 1-.42.17H56.4a.54.54 0 0 1 .4.3.71.71 0 0 1 .05.26.61.61 0 0 1-.05.25q-.38.77-.58 1.13zm-6.45 8.56a.65.65 0 0 1-.66-.66V9.23A1.19 1.19 0 0 1 50.3 8h6.22a1.19 1.19 0 0 1 1.19 1.19v4.33a.66.66 0 0 1-.21.48.67.67 0 0 1-.49.21h-.27a.42.42 0 0 1-.41-.41l-.05-.05h-5.82l-.05.05a.44.44 0 0 1-.44.44zm6.56-5a.12.12 0 0 0-.14-.14h-5.65a.12.12 0 0 0-.14.14v1a.12.12 0 0 0 .14.14h5.65a.12.12 0 0 0 .14-.14zm-5.92 3.27a.12.12 0 0 0 .14.14h5.65a.12.12 0 0 0 .14-.14v-1a.12.12 0 0 0-.14-.14h-5.66a.12.12 0 0 0-.14.14zm5.18-8.63a.12.12 0 0 0 0-.1.09.09 0 0 0-.08 0h-4.32a.07.07 0 0 0-.06 0 .08.08 0 0 0 0 .07 5.63 5.63 0 0 1 .56 1.19.56.56 0 0 1-.05.46.59.59 0 0 1-.4.27h4.16a.45.45 0 0 1-.3-.25.42.42 0 0 1 0-.39 11.71 11.71 0 0 0 .49-1.25zm14.82 5.02a.09.09 0 0 1 .07.05.09.09 0 0 1 0 .08l-.53.64h3.16a.44.44 0 0 1 .32.13.43.43 0 0 1 0 .62.44.44 0 0 1-.32.13h-11.6a.44.44 0 0 1-.32-.13.43.43 0 0 1 0-.62.44.44 0 0 1 .32-.13h3.16v-.05l-.18-.3a.29.29 0 0 1 0-.28.27.27 0 0 1 .2-.2h-1.54a.63.63 0 0 1-.64-.64l-.51.24a.55.55 0 0 1-.42 0 .69.69 0 0 1-.35-.25.36.36 0 0 1-.06-.32.35.35 0 0 1 .21-.24 5.3 5.3 0 0 0 1.94-1.23v-.05a.06.06 0 0 0-.05 0l-1.78.22a.51.51 0 0 1-.38-.1.51.51 0 0 1-.21-.33.27.27 0 0 1 0-.08.37.37 0 0 1 .1-.25.39.39 0 0 1 .3-.16h.49a.22.22 0 0 0 .21-.12l.45-.57a.14.14 0 0 0 0-.21 13 13 0 0 0-1.08-.86.48.48 0 0 1-.18-.31.4.4 0 0 1 .08-.32.48.48 0 0 1 .29-.17.45.45 0 0 1 .33.06h.07q.34-.52.6-1a.57.57 0 0 1 .3-.26.47.47 0 0 1 .38 0 .37.37 0 0 1 .23.25.43.43 0 0 1 0 .35q-.45.64-.78 1.07a.12.12 0 0 0 0 .19L63 4a.12.12 0 0 0 .19 0l.52-.77a.6.6 0 0 1 .35-.23.51.51 0 0 1 .39 0 .35.35 0 0 1 .23.25.41.41 0 0 1-.06.35 22.2 22.2 0 0 1-1.48 1.8.07.07 0 0 0 0 .06.05.05 0 0 0 .05 0l.81.02a.13.13 0 0 0 .11-.08.76.76 0 0 0 .07-.15.66.66 0 0 1 .27-.32.6.6 0 0 1 .4-.09.42.42 0 0 1 .3.2.34.34 0 0 1 0 .35 5.34 5.34 0 0 1-2.32 2.67h3.69a.07.07 0 0 0 .1-.06.61.61 0 0 1 1.22 0c0 .05 0 .08.07.08h4a.41.41 0 0 1 .3.12.4.4 0 0 1 .12.29.38.38 0 0 1-.12.29.42.42 0 0 1-.3.12zm-6.79 5.65a.56.56 0 0 1-.42-.18.59.59 0 0 1-.2-.41v-1.64a1.19 1.19 0 0 1 1.19-1.19h6.36a1.19 1.19 0 0 1 1.19 1.19v1.59a.63.63 0 0 1-.63.63h-.33a.31.31 0 0 1-.23-.09.29.29 0 0 1-.09-.21h-6.22a.33.33 0 0 1-.31.31zM70.49 12a.12.12 0 0 0-.14-.14h-6a.12.12 0 0 0-.14.14v.26a.12.12 0 0 0 .14.14h6a.12.12 0 0 0 .14-.14zm-6.28 1.41a.12.12 0 0 0 .14.14h6a.12.12 0 0 0 .14-.14v-.27a.12.12 0 0 0-.14-.14h-6a.12.12 0 0 0-.14.14zM64.84 7a.4.4 0 0 1 .07-.33.39.39 0 0 1 .3-.17h.08a.06.06 0 0 0 .07-.07V3.35a1.19 1.19 0 0 1 1.19-1.19H68a1.19 1.19 0 0 1 1.19 1.19v1.12a.85.85 0 0 1-.25.62.83.83 0 0 1-.62.26 6.7 6.7 0 0 1 1.23 1.33.38.38 0 0 1 .06.33.44.44 0 0 1-.21.28.41.41 0 0 1-.34 0 .54.54 0 0 1-.29-.21l-.08-.12a.1.1 0 0 0-.11 0l-3.16.44a.58.58 0 0 1-.38-.1.49.49 0 0 1-.2-.3zm.9 2.76h2.75a.26.26 0 0 0 .22-.11c.15-.21.28-.42.41-.64a.08.08 0 0 0-.07-.12h-3.5a.06.06 0 0 0 0 .05 3.13 3.13 0 0 1 .34.53.15.15 0 0 1 0 .14.18.18 0 0 1-.14.19zM68.24 3a.12.12 0 0 0-.14-.14h-1.59a.12.12 0 0 0-.14.14v.27a.12.12 0 0 0 .14.14h1.59a.12.12 0 0 0 .14-.14zm-1.73 1.1a.12.12 0 0 0-.14.14v.26a.12.12 0 0 0 .14.14h1.59a.12.12 0 0 0 .14-.14v-.26a.12.12 0 0 0-.14-.14zm0 1.24a.12.12 0 0 0-.14.14v.81a.11.11 0 0 0 0 .09.14.14 0 0 0 .1 0l1.44-.15a.51.51 0 0 1-.14-.36v-.09a.47.47 0 0 1 .25-.36h.07-1.58zm4.54-2.28a.12.12 0 0 0-.14.14v4.14a.51.51 0 0 1-.16.38.55.55 0 0 1-.75 0 .51.51 0 0 1-.16-.38v-4A1.19 1.19 0 0 1 71 2.15h1.7a.32.32 0 0 1 .27 0l.26.12a.45.45 0 0 1 .21.25.38.38 0 0 1 0 .32q-.31.62-.81 1.5a.14.14 0 0 0 0 .21 2.17 2.17 0 0 1 1 1.54 1.14 1.14 0 0 1-.55 1.05 1.41 1.41 0 0 1-.63.22L72 7.4a.52.52 0 0 1-.36-.14.82.82 0 0 1-.23-.35.31.31 0 0 1 0-.28.26.26 0 0 1 .23-.13H72a1.27 1.27 0 0 0 .37-.07.43.43 0 0 0 .25-.43 1 1 0 0 0-.22-.59 2.48 2.48 0 0 1-.45-.9 1.63 1.63 0 0 1 0-.37 1.82 1.82 0 0 1 .11-.6l.16-.37a.09.09 0 0 0 0-.08.09.09 0 0 0-.08 0zm15.1 9.85a.12.12 0 0 0 .14.14H87a.58.58 0 0 1 .57.58.54.54 0 0 1-.17.4.56.56 0 0 1-.4.16H75.55a.56.56 0 0 1-.4-.16.54.54 0 0 1-.17-.4.58.58 0 0 1 .57-.58h.81a.12.12 0 0 0 .14-.14v-2a1.19 1.19 0 0 1 1.19-1.19H85a1.19 1.19 0 0 1 1.19 1.19zM81 7.86a.49.49 0 0 1 .36.15.51.51 0 0 1 0 .72.49.49 0 0 1-.36.15h-4.41A1.19 1.19 0 0 1 75.4 7.7V3.43a1.19 1.19 0 0 1 1.19-1.19h4.27a.49.49 0 0 1 .36.14.51.51 0 0 1 0 .71.49.49 0 0 1-.36.14h-1.63a.12.12 0 0 0-.14.14V4a.12.12 0 0 0 .14.14h.66a1.19 1.19 0 0 1 1.19 1.19v.4a1.19 1.19 0 0 1-1.19 1.19h-.66a.12.12 0 0 0-.14.14v.68a.12.12 0 0 0 .14.14zm-3-4.48a.12.12 0 0 0-.14-.14h-1.13a.12.12 0 0 0-.14.14V4a.12.12 0 0 0 .14.14h1.16A.12.12 0 0 0 78 4zM79.86 6a.12.12 0 0 0 .14-.11v-.76a.12.12 0 0 0-.14-.13h-3.13a.12.12 0 0 0-.14.14v.77a.12.12 0 0 0 .14.14zm-3.13.88a.12.12 0 0 0-.14.14v.68a.12.12 0 0 0 .14.14h1.16a.12.12 0 0 0 .11-.11V7a.12.12 0 0 0-.14-.14zm1.12 3.87a.12.12 0 0 0-.14.14v2a.12.12 0 0 0 .14.14h1.3a.12.12 0 0 0 .14-.14v-2a.12.12 0 0 0-.14-.14zm4.21.14a.12.12 0 0 0-.14-.14h-1.3a.12.12 0 0 0-.14.14v2a.12.12 0 0 0 .14.14h1.3a.12.12 0 0 0 .14-.14zm5.22-7a.54.54 0 0 1 .16.4.52.52 0 0 1-.16.39.55.55 0 0 1-.4.16h-3.62a.19.19 0 0 0-.19.12 9.93 9.93 0 0 1-.63 1.13.56.56 0 0 1-.38.23H82a.58.58 0 0 1-.36-.12.55.55 0 0 1-.23-.37v-.1a.55.55 0 0 1 .11-.33 9.66 9.66 0 0 0 1.35-3.12.68.68 0 0 1 .24-.28.6.6 0 0 1 .33-.1h.11a.54.54 0 0 1 .37.25.55.55 0 0 1 .08.29.36.36 0 0 1 0 .14q-.15.55-.34 1.09a.09.09 0 0 0 0 .08.09.09 0 0 0 .08 0h3.16a.54.54 0 0 1 .38.19zm-.34 3.51a.54.54 0 0 1 0 .78.53.53 0 0 1-.38.16h-3.63a.53.53 0 0 1-.38-.16.54.54 0 0 1 0-.78.53.53 0 0 1 .38-.16h3.62a.53.53 0 0 1 .39.16zm-2.08 3.51a.12.12 0 0 0-.14-.14h-1.34a.12.12 0 0 0-.14.14v2a.12.12 0 0 0 .14.14h1.34a.12.12 0 0 0 .14-.14zm8.2-5.74a.12.12 0 0 0-.14.14v1.81a1.86 1.86 0 0 1-.08.64.63.63 0 0 1-.36.33 3.06 3.06 0 0 1-1.07.15.63.63 0 0 1-.4-.14.78.78 0 0 1-.26-.36.37.37 0 0 1 0-.33.32.32 0 0 1 .28-.15h.53a.25.25 0 0 0 .14 0V5.31a.12.12 0 0 0-.14-.14h-2a.47.47 0 0 1-.35-.17.48.48 0 0 1 0-.68.47.47 0 0 1 .35-.14h2a.12.12 0 0 0 .14-.14V2.31a.59.59 0 1 1 1.18 0v.1a.07.07 0 0 0 .08.08h1.76a.46.46 0 0 1 .33.79.44.44 0 0 1-.33.14H93a.12.12 0 0 0-.14.14v.51a.12.12 0 0 0 .14.13h2.15a.47.47 0 0 1 .35.14.48.48 0 0 1 0 .68.47.47 0 0 1-.35.14zm-3.1.7a.63.63 0 0 1 .3-.31.6.6 0 0 1 .42 0 .45.45 0 0 1 .29.24.39.39 0 0 1 0 .38 9.41 9.41 0 0 1-.9 1.5.51.51 0 0 1-.36.21.56.56 0 0 1-.4-.1.43.43 0 0 1-.21-.31.4.4 0 0 1 .1-.35 6.82 6.82 0 0 0 .8-1.26zm1.72 8.72a.63.63 0 0 1-.63-.63V9.54a1.19 1.19 0 0 1 1.19-1.19h6a1.19 1.19 0 0 1 1.19 1.19v4.38a.63.63 0 0 1-.19.46.62.62 0 0 1-.45.19h-.29a.35.35 0 0 1-.26-.11.37.37 0 0 1-.11-.27h-5.78a.4.4 0 0 1-.4.4zm6.48-5.13a.12.12 0 0 0-.16-.13h-5.55a.12.12 0 0 0-.14.14v.48a.12.12 0 0 0 .14.14H98a.12.12 0 0 0 .14-.14zm-5.85 2a.12.12 0 0 0 .14.14H98a.12.12 0 0 0 .14-.14V11a.12.12 0 0 0-.14-.14h-5.55a.12.12 0 0 0-.14.14zm0 1.54a.12.12 0 0 0 .14.14H98a.12.12 0 0 0 .14-.14v-.51a.12.12 0 0 0-.14-.09h-5.55a.12.12 0 0 0-.14.14zm7.78-10.71h.12a.82.82 0 0 1 .26 0l.22.1a.47.47 0 0 1 .25.23.42.42 0 0 1 .06.38 7.81 7.81 0 0 1-1.77 3 .12.12 0 0 0 0 .19 7.45 7.45 0 0 0 1.93 1.07.41.41 0 0 1 .27.3.73.73 0 0 1 0 .14.44.44 0 0 1-.1.27.92.92 0 0 1-.45.34.77.77 0 0 1-.25 0 .83.83 0 0 1-.29-.05 7.87 7.87 0 0 1-2.05-1.31.15.15 0 0 0-.21 0 9.06 9.06 0 0 1-1.41.82 1.39 1.39 0 0 1-.46.08 1.22 1.22 0 0 1-.37-.05 1.77 1.77 0 0 1-.72-.49.09.09 0 0 0-.11 0 .5.5 0 0 1-.25.07.48.48 0 0 1-.19 0 .59.59 0 0 1-.36-.38q-.25-.4-.55-.81a.38.38 0 0 1-.08-.23v-.1a.37.37 0 0 1 .22-.26.66.66 0 0 1 .42 0 .69.69 0 0 1 .37.21 7.14 7.14 0 0 1 .75 1.08.17.17 0 0 1 0 .15.16.16 0 0 1-.11.11 7.27 7.27 0 0 0 2-1c.07-.05.08-.12 0-.19a9.22 9.22 0 0 1-1-1.64.6.6 0 0 1 .4-.83h-.62a.54.54 0 0 1-.53-.53.49.49 0 0 1 .16-.37.53.53 0 0 1 .38-.15h4zm-.63 1.18a.07.07 0 0 0 0-.08.09.09 0 0 0-.08 0h-2.13a.08.08 0 0 0-.07 0 .09.09 0 0 0 0 .08 6.47 6.47 0 0 0 1 1.61.1.1 0 0 0 .18 0 6.86 6.86 0 0 0 1.1-1.57z"/><path class="b" d="M108 19.91a.08.08 0 0 0-.09-.12l-.07.17zm-.7-.31c-.12.08-.26.22-.18.37.12-.16.15-.09.27-.28.1 0 .18.05.16.11s.16 0 .21-.07a.36.36 0 0 0-.47 0s0-.1.01-.13zm-9.92-.25h.06zm-6.15-.1h.07s-.08-.01-.07 0zm-1.05-.18h.06s-.05-.01-.06 0zm7.2.28l-.16-.05c-.02.05.08.03.16.05zm8.55.65h.09-.08zm-5.84-.79h.05v-.07zm2.08-.02s-.06.13-.08.2a.15.15 0 0 1 .1-.1.27.27 0 0 0-.02-.1zm3.29.24h.06zm-6.86-.25a.13.13 0 0 0 0-.05.09.09 0 0 0 0 .05zm-58.17 1.06s-.02 0 0 0zm-2.43-.7a.62.62 0 0 0 0-.08zm50.26-.65c.06-.01.03-.01 0 0zM70.63 19c.2.13-.33.16 0 .3-.06-.06.24-.22 0-.3zm35.25 1zm-35.28-.7zm13.23-.3a.17.17 0 0 0 0 .06s.04-.06 0-.06zm3.3.18h-.08zm-5.01 0H82a.09.09 0 0 1 .12 0zm-1.78 0h.06zm-34.49.99a.41.41 0 0 1-.08-.13c.02.1-.24.14.08.13zm60.08-.25a.08.08 0 0 1-.05.06h.06a.05.05 0 0 0-.01-.06zM82 20.28h-.28zm-23.37-.13h-.07a.08.08 0 0 0 .07 0zm22.3.13a.41.41 0 0 0-.16-.1zM45.76 20z"/><path class="b" d="M43.9 20.38c.27 0 .13-.18.18-.29.32-.05.15.14.26.23s.36-.22.51-.21 0 0 0 .08c.21-.15.63 0 .88-.19a.5.5 0 0 1 0-.25c.12 0 .22-.12.27 0s-.08 0-.12.08l.13-.05c.11.17-.17.06-.17.19.25-.06.54-.2.72-.15s-.44.06-.19.21l-.3-.03c.22.27-.18 0 0 .27.39 0 .43-.09.82 0 .09-.09 0-.14.06-.23.55-.17.43.43.83.2.1-.11.14-.33.43-.21l-.1.19c.37 0 .21-.28.6-.15-.07.08-.29.06-.24.09.25.15.18-.11.37-.11v.17c.4 0 .83-.15 1.27-.18 0 .05-.1.1 0 .16a5.34 5.34 0 0 1 1.72.12l.2-.15s.09.07 0 .09c.21.06 0-.09.11-.15s.16.08.08.13a2.51 2.51 0 0 1 1.44-.11h-.08c.3.06.34-.3.62-.16h-.05a7 7 0 0 1 1.88.15c.1-.21.65.09.69-.2a2.43 2.43 0 0 0 .79.3c.14 0 .21-.18.38-.21v.15l.24-.16.13.18h.16c-.06 0-.14-.07-.13-.11a.68.68 0 0 1 .63.19l.6-.13c0 .06-.11.08-.19.12.32-.16.06.16.35 0v-.12a1.29 1.29 0 0 0 .73.05v.11c.45 0 .94-.05 1.45 0-.18 0-.14-.23 0-.25l.06.16c.1-.1-.15-.06 0-.18s.13.19 0 .24l.23-.06s0 .07-.05.14c.09-.1.39.16.53 0 .5 0 .73-.05 1.14-.06 0-.14.17-.11.29-.22a5.22 5.22 0 0 0 1 .14c.25-.07.07-.12.19-.2 0 .13.38.12.19.21a5.93 5.93 0 0 0 1.1-.13c-.06-.05-.13-.08-.09-.12s.23.05.21.12c.62-.19 1.42.37 1.92.11l.51-.14c.23 0-.14.1 0 .18.55-.21.87 0 1.32-.11.35.38 1.24 0 1.72.21v-.09c.12-.09.15.05.24.07s-.13-.08-.06-.13a18.52 18.52 0 0 1 3.2.21c.39 0 .22-.46.71-.25l-.14.17c.78-.2 1.6 0 2.37-.16 0 0 0 .09-.12.09.16.12.6 0 .6-.09s0 .09.1.14.41-.15.49 0 0 0-.08 0 .49 0 .39-.12c.29.07.55-.06.78 0 .15-.15.49.07.54-.14 0 .23.5.18.69.08-.06.07.16.07.09.17.21 0 .4 0 .36-.16.38.27.77-.22 1 .13.62-.12 1.19-.2 1.74-.26 0 .23-.61 0-.59.26a4.37 4.37 0 0 1 1.49-.25c.14 0-.08.1-.12.14.53-.09 1 0 1.49-.1 0 0-.05 0-.1.06s.21 0 .2-.07h-.09c-.15-.15.37-.31.38-.39-.16.29.46.07.21.45.06 0 .14-.07.12-.14s.12.06 0 .14c.33-.06.21-.16.51-.16 0 0-.06.07-.09.13a.72.72 0 0 1 .56-.15V20c.43 0 .74-.26 1.22-.16-.14.22.16.07.19.26l.26-.06-.1-.09c.22 0 .42-.13.62-.07L91 20h.42l-.24-.07c.23-.1 0-.24.27-.18-.06 0 .22 0 .34.11a.48.48 0 0 1 .39-.08v.25c.11-.16.53 0 .67-.21a.16.16 0 0 0 0 .16l.09-.13c.1 0 .12.06.1.14.31 0-.1-.24.27-.13h-.08c.37.05.72-.08 1.06 0 .1.19-.3 0-.18.2a10.06 10.06 0 0 1 1.5-.18h-.09c.07-.27.36.13.6 0-.06 0-.08.15-.06.12a4.4 4.4 0 0 0 1.17-.15l-.06.07a5.56 5.56 0 0 0 .72.07c.06-.07.18-.06.11-.16.64.39 1.23-.21 1.8.12-.07 0-.16.06-.11.06l.49-.06c0-.12-.06-.07-.17-.16a.47.47 0 0 1 .32-.12c-.22.08 0 .19.1.25s0-.07 0-.11c.25.21 0-.23.39-.09v.06a1.09 1.09 0 0 1 .39-.09c.06.13-.14.06-.15.17.2 0 .39-.25.57-.12-.08 0-.2 0-.29.07a.48.48 0 0 0 .36.14l.33.07h-.08c.25-.35.5-.06.83-.29-.32.22-.05.13-.08.28s.21.09.18.13c.16-.12.26.1.48-.08 0 0 .17 0 .13.13.2 0 0-.08 0-.15.31-.17.74.2 1.19 0s.46-.26.82-.34c.12.08-.1.18-.1.18a.76.76 0 0 0 .53 0s0 .08.06.13.1-.18.3-.11a.67.67 0 0 1-.15.2c.18 0 .35-.14.53-.18s-.11.13-.17.18c.2 0 .53-.08.59-.21h-.13c.07 0 0 .12 0 .14a.16.16 0 0 1-.26-.1h.13c-.13-.29-.52 0-.78 0l.11-.21-.27.17c-.06-.05-.1-.17 0-.2-.19-.1-.17.07-.33 0l-.18.06s0-.15.08-.12c-.33-.12-.53.16-.65 0-.45.07 0 .15-.38.33l-.23-.38v.15s-.14 0-.12-.08c-.17.1 0 .07-.07.17-.23-.14-.62.07-.67-.18-.08.12.22.09 0 .17-.07-.26-.28 0-.48-.08.06-.14.26-.06.05-.18-.12.23-.4 0-.57 0 0 .18-.38.08-.67.14 0-.06-.55-.1-.82-.17-.05.18-.33.15-.54.19 0-.11 0-.15.15-.2h-.19a.32.32 0 0 1-.23.11v-.14c-.25 0-.51.16-.84.07 0 .13.26.36-.09.44 0-.07 0-.19.06-.22s-.11.06-.17 0l.14-.12c-.15-.05-.08.1-.2.09s-.09-.07-.07-.15.1 0 .15 0a.59.59 0 0 1-.35-.15.11.11 0 0 1-.1.15c-.25 0-.09-.12-.24-.17s-.22 0-.23.15-.09-.07-.12-.11-.62 0-.47.18c-.43.15-.9-.08-1.33 0a3.13 3.13 0 0 0-.75.14c-.08 0-.18-.09-.15-.15a.7.7 0 0 1-.5 0c.2-.09-.07-.08.2-.06-.25 0-.31-.12-.58 0 .09-.13-.19-.16-.31-.12l.18.09a1.6 1.6 0 0 1-.37 0l.07-.17c-.52-.2-.94.34-1.33 0-.14.12.28.08.16.22-.24 0-.49-.26-.56-.26-.33-.09-.31.24-.65.18 0 .06.08.22-.17.27s-.29-.25-.14-.3.08 0 .08 0 .18 0 .08-.11v.06c-.12-.06-.45-.05-.37-.15-.18.06-.08.1.06.13a7.36 7.36 0 0 0-.79-.06s.1.1 0 .1c-.46-.07-.2.11-.52.14s.06-.22-.25-.14 0-.16 0-.21c-.29.11-.54-.08-.7-.1h.15a.73.73 0 0 1-.24 0l.09.12c-.09 0-.16 0-.16-.07s.07.2-.11.3c-.12-.06-.36.06-.4-.09.37.05 0-.16.27-.18a.43.43 0 0 1-.23 0c-.36-.14-.16.18-.53.17 0-.09-.09-.17-.15-.15.15 0 .07.15-.07.22s-.26.05-.38 0h.14c0 .09-.17.08-.33.1 0-.07.15 0 .09-.08-.18.16-.42-.16-.67-.06-.12-.06 0-.17-.12-.21-.29.12-.31-.12-.61 0 .09.12.1.09-.11.21l.5-.08-.32.17c.15 0 .32-.08.41-.05-.15.1-.14.07-.06.17-.2-.18-.41.1-.64 0V19c-.36-.13-.63.15-1.1.08l.15.05c-.06.12-.29 0-.44.06 0-.1-.08-.13-.14-.2s-.34 0-.38.19l-.21-.13c-.37-.05-.43.28-.79.25.11-.11-.06-.18.19-.25h-.23s-.33.13-.44 0-.07.15-.2.14-.21.07-.09.18c-.37-.31-1 0-1.35-.24-.26 0-.58.06-.81.07-.33-.09-.2.28-.57.18-.19-.16.2-.09.08-.15-.05-.32-.45 0-.7-.15h.06c-.19-.11-.47.12-.78.1a2.22 2.22 0 0 1-.92.27c.09-.13.14-.07.08-.2s0 .21-.23.24c-.09-.07-.28-.13-.31-.27h.25c-.13-.18-.33 0-.46 0v-.08c-.39 0-.4.22-.81.21v.06c-.23.19-.19-.11-.42 0l-.07-.2a5.32 5.32 0 0 1-.8.23 2.52 2.52 0 0 1 .67-.31c-.15 0-.51 0-.59.11s.14-.07.2 0a1.06 1.06 0 0 1-.72.23c.05-.38-.78-.1-1-.39A7.89 7.89 0 0 1 71 19c.22.3-.18 0-.14.31h-.21l-.43-.18c-.1-.09.14-.07.12-.14-.31 0-.13-.13-.34-.21 0 .11-.11.16-.29.11l.25.14c-.44.16-.38-.26-.82-.1l.14-.1c-.23.06-.84 0-1.06.24 0 0-.09-.12 0-.14-.54 0-1.21.26-1.63.11v-.07c-.1 0-.18.14-.3.07s0-.07 0-.08a.67.67 0 0 1-.4.09L66 19c-.53-.1-.81.2-1.25.26 0-.22-.41-.29-.62-.33a7.49 7.49 0 0 0-1.62.27c-.35-.24-1.2-.1-1.77-.23.09 0 0 .17-.12.19s-.37.15-.35 0c-.1-.2-.37-.15-.59-.15v.26c-.56-.38-1.47.14-1.77-.2-.13.07-.3.07-.44.13v-.14a4.87 4.87 0 0 0-1 0l.09-.1c-.26 0-.33.41-.57.42l-.05-.38a3.34 3.34 0 0 0-1.37 0 .11.11 0 0 1 .09-.1c-.21 0-.83-.14-.75.15 0-.19-.47 0-.72.06v-.14c-.21.18-.21.23-.5.28-.07 0-.06-.11 0-.08-.23-.07-.18.13-.46.06l.1-.09c-.24 0-.22 0-.35.14s-.45 0-.48-.16a.27.27 0 0 1-.3.14s0-.08.06-.09c-.39-.09-.59.16-.86 0a.1.1 0 0 0 0-.08 3.85 3.85 0 0 1 .54 0c0-.13-.25-.15-.05-.33-.2.1-.55.31-.8.25A.24.24 0 0 0 50 19a.78.78 0 0 0-.2 0c0-.11-.29-.06-.42-.06s-.15.12 0 .23h.47a.29.29 0 0 1-.34.05l-.18.23c-.17-.2-.5-.3-.55-.42-.38.08-.91.05-1.15.32-.11 0-.13-.08-.17-.12s.14 0 .17-.06c-.22.07-.65 0-.7.21-.28-.08.15-.17-.22-.14l.05-.06c-.75-.29-1.21.47-2 .09.06 0 .09 0 .1.06-.94-.17-1.94.16-2.87-.11-.26-.05-.29.06-.45.15l-.06-.15-.28.17c-.39.13-.68-.37-1.17-.13l.06.1c-.18 0-.56.06-.53-.06s-.06.11-.13.05v-.08l-.44.14c-.34-.06.05-.31-.44-.33-.18 0-.52.23-.45.28s.19 0 .19.13h-.17c0 .23-.16.47.25.63l.29-.14.09.11h-.24c.14.11.22 0 .32-.05a.21.21 0 0 0 .12.12l.28-.22c0 .09-.13.18.06.23.13-.1-.13-.2.09-.27.14.11.1.19.26.1 0 .06 0 .1-.08.12.14-.07.38 0 .45-.15.14.13.48 0 .47.19a.8.8 0 0 1 .38-.18c-.24.26.49 0 .43.3.18-.24.64-.11 1-.24 0 0-.05.06-.08 0a1 1 0 0 1 .34.14c0-.2.3-.24.45-.36.22.19-.13.23-.06.41 0-.16.38-.16.3-.29.17.12.14.06.23.22 0-.24.16 0 .29-.19.24.12.06.23.33.15s-.19.26-.19.26zm6.3-.38zm.53 0h-.23s0-.1.05-.1.1.01.18.05zm-1.12-1h.12-.15a.19.19 0 0 1 .03 0zm-.15.16h.05zm47.99.21z"/><path class="b" d="M58.04 20.22v-.04l-.05.03.05.01zm42.33-.37zm1.26.03l.18.05zm.97.12a.2.2 0 0 0 0-.06zm-15.4.12c-.13.03-.07.02 0 0zm4.58-.33l-.15.07c.08.01.15.01.15-.07zm-9.7.5zm9.34-.44a.33.33 0 0 0 .21 0 .5.5 0 0 0-.21 0zm15.37.15zm.06 0h.05-.05zm.15-.05h-.11s.11.05.11 0zm-1.49.05zm-.39 0c.09 0 .23.11.36.08-.04 0-.27-.2-.36-.08zm-1.62-.66h.33c-.06-.05-.13-.13 0-.14-.4-.13.09.16-.33.14zm-1.02-.08c.18 0 0-.08 0-.11s-.13.06 0 .11zm-7.31 0v-.13c-.17.02.01.05 0 .13zm-1.4.66l.13.08.06-.12-.19.04zm-.83-.91l.06-.02-.22.04.16-.02zm-12.28.04v.16c.13-.03.15-.21 0-.16zm-5.31.16a.22.22 0 0 0-.3-.05c.12.01.24.07.3.05zm-15.9-.26l.1-.05-.2.05h.1z"/><path class="c" d="M0 0h146v21H0z"/></svg>