<svg xmlns="http://www.w3.org/2000/svg" viewBox="0 0 59.27 19.71"><defs><style>.cls-1{fill:#5d0e5a}.cls-2{fill:#6d2e6a}</style></defs><title>misaki72</title><g id="レイヤー_2" data-name="レイヤー 2"><g id="text"><path class="cls-1" d="M11.49 8.13a.49.49 0 0 1 .37.07l.23.15a.47.47 0 0 1 .21.31.4.4 0 0 1-.08.35 7.52 7.52 0 0 1-2.05 1.75.09.09 0 0 0 0 .07 21.4 21.4 0 0 0 4.06.71.38.38 0 0 1 .31.22.64.64 0 0 1 0 .18.49.49 0 0 1-.05.22 1.14 1.14 0 0 1-.45.41.93.93 0 0 1-.46.12h-.12a18.6 18.6 0 0 1-4.74-1.13.33.33 0 0 0-.25 0 21.66 21.66 0 0 1-4.76 1.16h-.09a.79.79 0 0 1-.4-.11 1 1 0 0 1-.41-.38.39.39 0 0 1-.07-.23.36.36 0 0 1 0-.16.31.31 0 0 1 .29-.21 22.65 22.65 0 0 0 4.09-.78.07.07 0 0 0 0-.05v-.05a7.7 7.7 0 0 1-1.36-1.04.18.18 0 0 0-.22 0q-.71.42-1.44.77a.76.76 0 0 1-.34.08H3.6a1 1 0 0 1-.48-.25.37.37 0 0 1-.12-.4.34.34 0 0 1 .23-.27 10.36 10.36 0 0 0 3.6-2.27.08.08 0 0 0 0-.08.09.09 0 0 0-.07-.05.83.83 0 0 1-.48-.38 1.73 1.73 0 0 1-.14-.78V5.5a.6.6 0 0 1 1.2 0v.56c0 .16 0 .25.11.29a1.32 1.32 0 0 0 .55.06h1.8a.67.67 0 0 0 .31-.05.37.37 0 0 0 .15-.22.47.47 0 0 1 .22-.29.38.38 0 0 1 .34 0 .61.61 0 0 1 .36.26.52.52 0 0 1 .08.4 1.06 1.06 0 0 1-.42.68 1.75 1.75 0 0 1-.91.18h-1.8a.1.1 0 0 1 .08.07.11.11 0 0 1 0 .11l-.51.55h3.79zm-7.36-4a.12.12 0 0 0-.13.18V5a.6.6 0 0 1-.18.43.61.61 0 0 1-.87 0A.6.6 0 0 1 2.77 5v-.67A1.19 1.19 0 0 1 4 3.14h1.12a.1.1 0 0 0 .08 0 .08.08 0 0 0 0-.14 6.54 6.54 0 0 0-.57-1 .25.25 0 0 1 0-.22.23.23 0 0 1 .14-.16h-.79a.58.58 0 0 1-.38-.14.65.65 0 0 1-.22-.34.37.37 0 0 1 0-.33.36.36 0 0 1 .29-.1A69.88 69.88 0 0 0 12.35 0h.22a1.08 1.08 0 0 1 .82.37.3.3 0 0 1 .08.33.33.33 0 0 1-.27.23q-1.83.31-4.35.51a.07.07 0 0 0-.06 0 .11.11 0 0 0 0 .08c.13.21.24.42.34.63a.58.58 0 0 1 0 .55.76.76 0 0 1-.42.38h2a.23.23 0 0 0 .18-.08q.46-.68.81-1.3a.72.72 0 0 1 .4-.36.61.61 0 0 1 .27-.07.64.64 0 0 1 .26.05.49.49 0 0 1 .31.33.51.51 0 0 1 0 .16.49.49 0 0 1-.1.29l-.64.9a.07.07 0 0 0 0 .08.07.07 0 0 0 .06 0h1.07a1.19 1.19 0 0 1 1.19 1.19v.78a.62.62 0 0 1-.19.45.62.62 0 0 1-.46.19.6.6 0 0 1-.45-.19.63.63 0 0 1-.18-.45v-.74a.12.12 0 0 0-.14-.14H8.74v.07q.49.25.89.49A.41.41 0 0 1 9.8 5a.44.44 0 0 1-.12.36.52.52 0 0 1-.35.17.57.57 0 0 1-.39-.1 11.28 11.28 0 0 0-1.19-.7.35.35 0 0 1-.2-.25.33.33 0 0 1 .1-.31H4.14zm.36 3.17a.67.67 0 0 1-.42.15H4a.79.79 0 0 1-.46-.18.43.43 0 0 1-.11-.27.44.44 0 0 1 .18-.35 4.2 4.2 0 0 0 1-1.23.58.58 0 0 1 .31-.28.54.54 0 0 1 .4 0 .51.51 0 0 1 .29.7 4.79 4.79 0 0 1-1.12 1.5zm1.59-4.17h2a.11.11 0 0 0 .09 0 .08.08 0 0 0 0-.08 5.85 5.85 0 0 0-.68-1.38.23.23 0 0 0-.21-.11l-1.49.08a.07.07 0 0 0-.06 0 .08.08 0 0 0 0 .08 4.87 4.87 0 0 1 .52.85.36.36 0 0 1 0 .32.42.42 0 0 1-.17.24zm4.42 6a.05.05 0 0 0-.05 0H6.72v.05a6.88 6.88 0 0 0 1.83 1.13.29.29 0 0 0 .25 0 6.65 6.65 0 0 0 1.69-1.16zm1-3.49a.37.37 0 0 1-.16-.33.41.41 0 0 1 .15-.31.71.71 0 0 1 .42-.14.65.65 0 0 1 .44.16 11.92 11.92 0 0 1 1.41 1.34.5.5 0 0 1 .14.34.27.27 0 0 1 0 .08.51.51 0 0 1-.23.38.55.55 0 0 1-.33.11h-.1a.69.69 0 0 1-.4-.22 13.11 13.11 0 0 0-1.36-1.39zm6.38-4.31a.65.65 0 0 1 .19-.47.66.66 0 0 1 .94 0 .65.65 0 0 1 .19.47V5.4q0 1.05-.05 1.86T18.94 9a8.38 8.38 0 0 1-.49 1.77 7.4 7.4 0 0 1-.84 1.55.56.56 0 0 1-.45.25.71.71 0 0 1-.48-.18.72.72 0 0 1-.26-.48v-.11a.75.75 0 0 1 .12-.41 6.82 6.82 0 0 0 1.06-2.63 18.17 18.17 0 0 0 .27-3.36zm4.32.59a.65.65 0 0 1 .2-.47.66.66 0 0 1 .94 0 .65.65 0 0 1 .2.47v8.93a.67.67 0 0 1-1.34 0zm4.47-.6a.68.68 0 1 1 1.37 0v10.75a.67.67 0 0 1-.2.48.68.68 0 0 1-1 0 .67.67 0 0 1-.2-.48zm16.1 7.07l.16.16v.25a.55.55 0 0 1-.16.4.56.56 0 0 1-.41.16h-4.25a.07.07 0 0 0-.06 0 .05.05 0 0 0 0 .07q1.26 1.64 4.4 2a.4.4 0 0 1 .31.25.41.41 0 0 1 0 .4 1.22 1.22 0 0 1-.46.42.92.92 0 0 1-.44.11h-.15a8.35 8.35 0 0 1-3.07-1.07 5.55 5.55 0 0 1-1.92-2.06.07.07 0 0 0-.07 0 .07.07 0 0 0-.05 0 4.39 4.39 0 0 1-1.72 1.92 10 10 0 0 1-3.37 1.17h-.15a.85.85 0 0 1-.38-.1 1 1 0 0 1-.4-.41.41.41 0 0 1 0-.4.37.37 0 0 1 .31-.24 10.45 10.45 0 0 0 2.77-.79 3.69 3.69 0 0 0 1.5-1.23.08.08 0 0 0-.16-.03h-4.05a.56.56 0 0 1-.4-.16.56.56 0 0 1 0-.81.56.56 0 0 1 .4-.16h4.53a.15.15 0 0 0 .16-.14 7.88 7.88 0 0 0 .15-.85.1.1 0 0 0 0-.1.11.11 0 0 0-.09 0h-4.64a.57.57 0 0 1-.42-.17.58.58 0 0 1 0-.82.57.57 0 0 1 .42-.17h4.74a.12.12 0 0 0 .14-.14v-.72A.12.12 0 0 0 35.8 5h-3.53a.56.56 0 1 1 0-1.12h3.53a.12.12 0 0 0 .14-.14v-.68a.12.12 0 0 0-.14-.14h-4.18a.57.57 0 0 1-.42-.17.58.58 0 0 1 0-.82.57.57 0 0 1 .42-.17h1.93a.08.08 0 0 0 .07 0 .09.09 0 0 0 0-.08 6.39 6.39 0 0 0-.48-.79.46.46 0 0 1-.08-.41.43.43 0 0 1 .27-.3.85.85 0 0 1 .33-.07h.19a.83.83 0 0 1 .45.29 5.18 5.18 0 0 1 .57.89.33.33 0 0 1 0 .28.37.37 0 0 1-.21.21h3.76a.29.29 0 0 1-.21-.19.3.3 0 0 1 0-.29q.27-.38.51-.75a.89.89 0 0 1 .44-.4 1 1 0 0 1 .34-.07h.23a.5.5 0 0 1 .36.33.55.55 0 0 1 0 .18.49.49 0 0 1-.1.29q-.31.42-.63.79v.06a.07.07 0 0 0 .06 0h2.13a.57.57 0 0 1 .42.17.58.58 0 0 1 0 .82.57.57 0 0 1-.42.17h-4.14a.12.12 0 0 0-.14.14v.67a.12.12 0 0 0 .14.14h3.69a.56.56 0 1 1 0 1.16h-3.69a.12.12 0 0 0-.14.14v.68a.12.12 0 0 0 .14.14h4.79a.57.57 0 0 1 .42.17.58.58 0 0 1 0 .82.57.57 0 0 1-.42.17h-4.88a.14.14 0 0 0-.15.14q-.08.53-.14.85a.1.1 0 0 0 0 .1.11.11 0 0 0 .09 0h5.22a.56.56 0 0 1 .43.18zm6-.58A1.19 1.19 0 0 1 47.59 9H46c-.08 0-.12 0-.12.14v.49a.6.6 0 0 1-.18.44.59.59 0 0 1-.85 0 .6.6 0 0 1-.18-.44V2.52a1.15 1.15 0 0 1 .33-.85 1.15 1.15 0 0 1 .84-.35h1.7a1.15 1.15 0 0 1 .84.35 1.15 1.15 0 0 1 .35.84zm-1.23-5.14a.12.12 0 0 0-.14-.14H46a.12.12 0 0 0-.14.14v5a.12.12 0 0 0 .14.14h1.37a.12.12 0 0 0 .14-.14zm9.28 3.81a.62.62 0 0 1-.44 1.05h-2.61a.09.09 0 0 0-.08 0 .12.12 0 0 0 0 .1A7.43 7.43 0 0 0 54.8 9.9a5.27 5.27 0 0 0 1.76 1.5.49.49 0 0 1 .27.37.52.52 0 0 1 0 .12.49.49 0 0 1-.11.31.89.89 0 0 1-.46.34h-.21a.67.67 0 0 1-.34-.1A6.75 6.75 0 0 1 53 9.15a.06.06 0 0 0-.11 0 7 7 0 0 1-3.54 3.34 1 1 0 0 1-.34.07h-.22a.93.93 0 0 1-.48-.3.46.46 0 0 1-.12-.31.5.5 0 0 1 .27-.42A5.45 5.45 0 0 0 52 7.67a.1.1 0 0 0 0-.1.11.11 0 0 0-.09 0h-2.29a.6.6 0 0 1-.43-.18.61.61 0 0 1 0-.87.6.6 0 0 1 .43-.18H52a.12.12 0 0 0 .14-.14V4.25a.12.12 0 0 0-.14-.13h-2.12a.62.62 0 0 1-.44-1.05.6.6 0 0 1 .44-.18h.72a.09.09 0 0 0 .08 0 .11.11 0 0 0 0-.1A11.16 11.16 0 0 0 49.9 1a.53.53 0 0 1-.08-.27.47.47 0 0 1 0-.15.5.5 0 0 1 .29-.33.74.74 0 0 1 .29-.03h.21a.64.64 0 0 1 .39.31 10.93 10.93 0 0 1 .59 1.05 1 1 0 0 1 .08.38.84.84 0 0 1-.07.33 1 1 0 0 1-.49.55h3.54a.82.82 0 0 1-.48-.51 1.09 1.09 0 0 1 0-.29 1 1 0 0 1 .1-.41q.27-.52.49-1.05a.77.77 0 0 1 .34-.4.76.76 0 0 1 .31-.07.77.77 0 0 1 .25 0 .53.53 0 0 1 .34.4.52.52 0 0 1 0 .21.62.62 0 0 1 0 .28q-.68 1.18-1.07 1.76a.05.05 0 0 0 0 .07.07.07 0 0 0 .06 0h1.11a.62.62 0 0 1 .44 1.05.59.59 0 0 1-.44.18h-2.51a.12.12 0 0 0-.14.14v1.97a.12.12 0 0 0 .14.14h2.8a.6.6 0 0 1 .44.17z"/><path class="cls-2" d="M59.25 19.24s0-.14-.07-.12l-.06.17zm-.57-.31c-.1.08-.22.22-.15.37.1-.16.12-.09.23-.28a.11.11 0 0 1 .14.11s.13 0 .18-.07a.27.27 0 0 0-.4 0s-.01-.06 0-.13zm-8.41-.26h.05zm-5.2-.09h.06s-.07-.01-.06 0zm-.89-.18h.05s-.04-.01-.05 0zm6.09.27l-.14-.05c0 .05.08.04.14.05zm7.25.66h.08-.07zm-4.95-.79v-.07zm1.76-.03s-.05.13-.07.2a.14.14 0 0 1 .09-.1.31.31 0 0 0-.02-.1zm2.79.25zm-5.81-.25a.14.14 0 0 0 0-.05.1.1 0 0 0 0 .05zM2 19.56zm-2-.69a.72.72 0 0 0 0-.08zm42.55-.65s.03-.01 0 0zm-14.93.1c.17.13-.28.16 0 .3-.04-.05.21-.22 0-.3zm29.85.99zm-29.87-.69zm11.21-.32a.17.17 0 0 0 0 .06s.02-.03 0-.06zm2.79.2h-.07zm-4.24 0h-.1s.05-.02.1 0zm-1.51 0zm-29.21 1a.42.42 0 0 1-.07-.13c.02.1-.2.14.07.13zm50.88-.25v.06h.05a.06.06 0 0 0-.05-.06zm-20.23.36h-.24zm-19.83-.13h-.06a.06.06 0 0 0 .06 0zm18.88.13a.34.34 0 0 0-.13-.1zm-29.78-.24z"/><path class="cls-2" d="M5 19.7c.23 0 .11-.18.16-.29.27-.05.13.14.22.23s.3-.22.43-.21 0 0 0 .08c.18-.15.53 0 .74-.19a.59.59 0 0 1 0-.25c.1 0 .19-.12.23 0s-.07 0-.1.08l.11-.05c.1.17-.15.06-.15.19.21-.06.45-.2.61-.15s-.37.06-.16.21l-.25-.06c.19.27-.15 0 0 .27.33 0 .37-.09.69 0 .07-.09 0-.14 0-.23.46-.17.36.43.7.2.09-.11.12-.33.36-.21l-.08.19c.32 0 .18-.28.51-.15-.06.08-.25.06-.2.09.21.15.15-.11.32-.11v.17c.34 0 .71-.15 1.08-.18 0 .05-.08.1 0 .16a3.86 3.86 0 0 1 1.46.12l.17-.15s.07.07 0 .09c.18.06 0-.09.09-.15s.13.08.07.13a1.82 1.82 0 0 1 1.22-.11h-.06c.26.06.29-.3.53-.16a5 5 0 0 1 1.59.15c.08-.21.55.09.59-.2.32.15.23.2.67.3.12 0 .18-.18.33-.21v.15l.2-.16.11.18h.14c-.06 0-.12-.07-.11-.11a.53.53 0 0 1 .53.19l.51-.13c0 .06-.1.08-.16.12.27-.16 0 .16.3 0v-.12a.94.94 0 0 0 .62.05v.11c.38 0 .8-.05 1.22 0a.13.13 0 0 1 0-.25l.05.16c.08-.1-.13-.06 0-.18s.11.19 0 .24l.19-.06v.14c.08-.1.33.16.45 0 .43 0 .62-.05 1-.06 0-.14.14-.11.25-.22a3.79 3.79 0 0 0 .84.14c.22-.07.06-.12.16-.2 0 .13.32.12.16.21a4.29 4.29 0 0 0 .94-.13c-.05-.05-.11-.08-.08-.12s.19.05.18.12c.52-.19 1.21.37 1.62.11l.43-.14c.2 0-.12.1 0 .18.47-.21.74 0 1.12-.11.3.38 1.05 0 1.45.21v-.09c.1-.09.13.05.2.07s-.11-.08 0-.13a13.32 13.32 0 0 1 2.71.21c.33 0 .19-.46.6-.25l-.12.17c.66-.2 1.36 0 2-.16 0 0 0 .09-.1.09.14.12.51 0 .51-.09s0 .09.09.14.35-.15.42 0 0 0-.06 0 .42 0 .33-.12c.24.07.47-.06.66 0 .13-.15.42.07.46-.14 0 .23.43.18.58.08-.05.07.13.07.07.17.18 0 .34 0 .31-.16.32.27.65-.22.83.13a12.79 12.79 0 0 1 1.48-.26c0 .23-.52 0-.5.26a3.19 3.19 0 0 1 1.15-.23c.11 0-.07.1-.1.14.45-.09.86 0 1.26-.1l-.08.06c-.08.06.18 0 .17-.07h-.08c-.12-.15.31-.31.32-.39-.13.29.39.07.18.45.05 0 .12-.07.1-.14s.1.06 0 .14c.28-.06.18-.16.43-.16 0 0-.05.07-.08.13a.54.54 0 0 1 .47-.15s0 .07-.05.07c.37 0 .63-.26 1-.16-.12.22.14.07.16.26l.22-.06-.09-.09c.19 0 .36-.13.52-.07l-.14.08h.36l-.2-.07c.19-.1 0-.24.23-.18-.05 0 .19 0 .29.11a.36.36 0 0 1 .33-.08v.25c.09-.16.45 0 .56-.21a.18.18 0 0 0 0 .16l.08-.13c.09 0 .1.06.09.14.26 0-.08-.24.23-.13h-.06c.32.05.61-.08.9 0 .09.19-.25 0-.16.2a7.28 7.28 0 0 1 1.27-.18h-.08c.06-.27.3.13.51 0-.05 0-.07.15-.05.12a3.19 3.19 0 0 0 1-.15l-.05.07a4 4 0 0 0 .61.07c.05-.07.15-.06.09-.16.54.39 1-.21 1.52.12-.06 0-.14.06-.09.06l.41-.06c0-.12-.05-.07-.14-.16a.37.37 0 0 1 .27-.12c-.19.08 0 .19.08.25s0-.07 0-.11c.21.21 0-.23.33-.09v.06c.11 0 .21-.11.33-.09s-.12.06-.12.17c.17 0 .33-.25.48-.12-.07 0-.17 0-.24.07a.37.37 0 0 0 .3.14l.28.07h-.07c.21-.35.42-.06.7-.29-.27.22 0 .13-.07.28s.18.09.15.13c.13-.12.22.1.41-.08 0 0 .14 0 .11.13.17 0 0-.08 0-.15.27-.17.62.2 1 0s.39-.26.7-.34c.1.08-.08.18-.08.18a.55.55 0 0 0 .45 0v.13c0 .05.08-.18.25-.11a.66.66 0 0 1-.13.2c.15 0 .29-.14.45-.18s-.09.13-.15.18c.17 0 .45-.08.5-.21h-.11c.06 0 0 .12 0 .14s-.21 0-.22-.1h.11c-.11-.29-.44 0-.66 0l.09-.21-.23.17c0-.05-.08-.17 0-.2-.16-.1-.14.07-.28 0l-.15.06s0-.15.07-.12c-.28-.12-.45.16-.55 0-.38.07 0 .15-.33.33l-.15-.56v.15s-.12 0-.1-.08c-.15.1 0 .07-.06.17-.19-.14-.53.07-.57-.18-.07.12.18.09 0 .17-.06-.26-.24 0-.41-.08.05-.14.22-.06 0-.18-.1.23-.34 0-.49 0s-.32.08-.57.14c0-.06-.46-.1-.69-.17 0 .18-.28.15-.45.19a.2.2 0 0 1 .13-.2h-.16a.26.26 0 0 1-.19.11v-.14c-.22 0-.43.16-.71.07 0 .13.22.36-.07.44 0-.07 0-.19.05-.22s-.09.06-.14 0l.12-.12c-.13-.05-.07.1-.17.09s-.07-.07-.06-.15.09 0 .13 0a.46.46 0 0 1-.3-.15c0 .06 0 .13-.08.15s-.07-.12-.2-.17-.19 0-.19.15-.07-.07-.1-.11-.52 0-.4.18c-.37.15-.76-.08-1.12 0-.22.06-.48 0-.64.14s-.15-.09-.12-.15c-.17 0-.18.09-.42 0 .17-.09-.06-.08.17-.06-.22 0-.26-.12-.5 0 .08-.13-.16-.16-.26-.12l.15.09a1.15 1.15 0 0 1-.32 0l.06-.17c-.44-.2-.79.34-1.13 0-.12.12.24.08.14.22-.2 0-.41-.26-.48-.26-.28-.09-.26.24-.55.18 0 .06.07.22-.15.27s-.25-.25-.12-.3.07 0 .07 0 .15 0 .07-.11v.06c-.1-.06-.38-.05-.31-.15-.15.06-.07.1 0 .13-.26-.09-.41 0-.67-.06 0 0 .08.1 0 .1-.39-.07-.17.11-.44.14s.05-.22-.21-.14 0-.16 0-.21c-.24.11-.46-.08-.59-.1h.13a.53.53 0 0 1-.2 0l.07.12c-.08 0-.14 0-.14-.07s.06.2-.09.3c-.1-.06-.31.06-.34-.09.32.05 0-.16.23-.18a.31.31 0 0 1-.19 0c-.3-.14-.14.18-.45.17 0-.09-.07-.17-.12-.15.13 0 .06.15-.06.22s-.22.05-.32 0h.12c0 .09-.14.08-.28.1s.13 0 .08-.08c-.16.16-.35-.16-.57-.06-.1-.06 0-.17-.1-.21-.24.12-.26-.12-.52 0 .07.12.09.09-.09.21l.42-.08-.27.17c.13 0 .27-.08.34-.05-.13.1-.12.07-.05.17-.17-.18-.34.1-.54 0v-.3c-.3-.13-.54.15-.93.08l.13.05c-.05.12-.24 0-.37.06s-.07-.13-.12-.2-.29 0-.32.19l-.17-.13c-.32-.05-.36.28-.66.25.09-.11 0-.18.16-.25h-.19s-.28.13-.37 0-.06.15-.17.14-.18.07-.08.18c-.31-.31-.87 0-1.15-.24a6.79 6.79 0 0 1-.69.07c-.28-.09-.17.28-.49.18-.16-.16.17-.09.07-.15 0-.32-.38 0-.59-.15h.05c-.16-.11-.4.12-.66.1a1.68 1.68 0 0 1-.78.27c.08-.13.12-.07.07-.2s0 .21-.19.24c-.07-.07-.24-.13-.26-.27h.22c-.11-.18-.28 0-.39 0v-.08c-.33 0-.33.22-.69.21v.06c-.19.19-.16-.11-.36 0l-.06-.2a4 4 0 0 1-.68.23 2 2 0 0 1 .56-.31c-.13 0-.43 0-.5.11s.12-.07.17 0a.81.81 0 0 1-.61.23c0-.38-.66-.1-.84-.39-.45.14-.89-.06-1.41 0 .18.3-.15 0-.12.31h-.18l-.37-.18c-.09-.09.12-.07.1-.14-.27 0-.11-.13-.29-.21 0 .11-.09.16-.24.11l.21.14c-.37.16-.32-.26-.69-.1l.12-.1c-.19.06-.71 0-.9.24 0 0-.08-.12 0-.14-.46 0-1 .26-1.38.11v-.07c-.09 0-.15.14-.26.07s0-.07 0-.08-.23.13-.34.09l.1-.08c-.45-.1-.69.2-1.06.26 0-.22-.35-.29-.53-.33a5.46 5.46 0 0 0-1.37.27c-.3-.24-1-.1-1.5-.23.07 0 0 .17-.1.19s-.31.15-.29 0c-.09-.2-.32-.15-.5-.15v.26c-.47-.38-1.24.14-1.5-.2-.11.07-.26.07-.37.13v-.14a3.5 3.5 0 0 0-.87 0l.08-.1c-.22 0-.28.41-.48.42l-.06-.21c-.39 0-.78-.18-1.16 0 0 0 0-.09.08-.1-.18 0-.7-.14-.64.15 0-.19-.4 0-.61.06v-.14c-.18.18-.18.23-.43.28-.06 0-.05-.11 0-.08-.19-.07-.15.13-.39.06l.09-.09c-.2 0-.18 0-.29.14s-.38 0-.41-.16a.22.22 0 0 1-.25.14v-.09c-.33-.09-.5.16-.73 0a.11.11 0 0 0 0-.08 2.76 2.76 0 0 1 .46 0c0-.13-.21-.15 0-.33-.17.1-.47.31-.67.25a.18.18 0 0 0-.13 0 .57.57 0 0 0-.17 0c0-.11-.25-.06-.35-.06s-.13.12 0 .23 0 0 .09 0H10c-.08.07-.17.13-.29.05l-.15.23c-.15-.2-.43-.3-.47-.42-.33.08-.77.05-1 .32-.09 0-.11-.08-.14-.12s.12 0 .15-.06c-.19.07-.55 0-.59.21-.23-.08.13-.17-.19-.14v-.06c-.63-.29-1 .47-1.73.09 0 0 .07 0 .08.06-.8-.17-1.64.16-2.43-.11-.22-.05-.25.06-.38.15v-.15l-.23.17c-.33.13-.57-.37-1-.13l.05.1c-.15 0-.48.06-.45-.06s0 .11-.11.05v-.38l-.37.14c-.29-.06 0-.31-.37-.33-.16 0-.44.23-.38.28s.16 0 .17.13H.03c0 .23-.14.47.21.63l.24-.14.08.11H.37c.12.11.19 0 .27-.05a.2.2 0 0 0 .1.12l.26-.17c0 .09-.11.18.05.23.11-.1-.11-.2.08-.27.12.11.08.19.22.1 0 .06 0 .1-.06.12.12-.07.32 0 .38-.15.12.13.41 0 .4.19a.64.64 0 0 1 .33-.18c-.2.26.42 0 .36.3.15-.24.55-.11.81-.24 0 0 0 .06-.07 0 .15 0 .19.09.29.14 0-.2.25-.24.38-.36.18.19-.11.23-.05.41 0-.16.32-.16.26-.29.14.12.12.06.19.22 0-.24.13 0 .25-.19.2.12.05.23.28.15s-.1.2-.1.2zm5.34-.42zm.45 0h-.19v-.1s.1.06.17.1zm-.95-1h.1-.12a.21.21 0 0 1 0 .02zm-.15.21zm40.65.21z"/><path class="cls-2" d="M16.96 19.55v-.04l-.04.03.04.01zm35.85-.37zm1.06.03l.15.05zm.82.07a.21.21 0 0 0 0-.06zm-13.04.16c-.1.04-.05.03 0 0zm3.88-.32l-.12.07c.07 0 .12.01.12-.07zm-8.21.49zm7.91-.43a.24.24 0 0 0 .18 0 .36.36 0 0 0-.18 0zm13.02.16zm.04-.01s.01-.02 0 0zm.14-.06h-.09s.07.04.09 0zm-1.27.01v.05a.11.11 0 0 0 0-.05zm-.33.01c.08 0 .2.11.31.08-.04.03-.23-.16-.31-.08zm-1.37-.63h.28c0-.05-.11-.13 0-.14-.34-.12.08.16-.28.14zm-.86-.08c.15 0 0-.08 0-.11s-.11.07 0 .11zm-6.2 0v-.13c-.1.02.02.06 0 .13zm-1.18.67l.11.07.05-.11-.16.04zm-.7-.92l.05-.01-.19.04.14-.03zm-10.4.05v.16c.11-.03.12-.21 0-.16zm-4.5.16a.17.17 0 0 0-.25-.05c.1.01.2.07.25.05zm-13.47-.26l.09-.05-.17.04.08.01z"/></g></g></svg>