<svg xmlns="http://www.w3.org/2000/svg" viewBox="0 0 43.19 18.15"><defs><style>.cls-1{fill:none;stroke:#e9528e;stroke-linecap:round;stroke-linejoin:round;stroke-width:.43px}</style></defs><title>txt_nav_05</title><g id="レイヤー_2" data-name="レイヤー 2"><g id="nav"><path class="cls-1" d="M8.69 16.17s.46-.28.46-.27-.13.89-.12.91 2.78-1.7 2.82-1.63-2.24 1.7-2.21 1.76 2.09-1.28 2.12-1.23-1.1 1.12-1.09 1.15.77-.47.78-.45M7.24 14L9 13s-.54 1-.52 1 1.71-1 1.74-1-1 1-1 1 1.71-1 1.73-1-.86 1-.84 1 1.34-.82 1.36-.78-.72 1.29-.7 1.33 1.18-.72 1.2-.69-1.28 1-1.26 1.08 1.28-.78 1.3-.75-1.46 1.21-1.43 1.25 1.34-.82 1.36-.78"/><path class="cls-1" d="M5.69 14.63c0 .07 2.79-1.71 2.83-1.64s-2.85 2.1-2.81 2.18 1.15-.7 1.16-.67-1.18 1-1.16 1.06 1.14-.7 1.16-.67-1.18 1-1.16 1 1.14-.7 1.16-.67-1.18 1.1-1.16 1.13 1.14-.7 1.16-.67-1.12 1.32-1.1 1.37 1.09-.67 1.1-.64-.65 1-.63 1.07.53-.32.54-.31m-6.35-.68s1.06-.65 1.07-.62-1 .95-1 1 6.57-4 6.67-3.85S.73 16.87.82 17s6.89-4.21 7-4-5.74 3.61-5.66 3.76 2.18-1.33 2.21-1.27M2 11.35s.67-.41.68-.4-1.25 1.6-1.22 1.64 3-1.84 3.06-1.77-3.4 2.79-3.34 2.88 1.43-.88 1.46-.84-1.14 1.38-1.12 1.42 2.2-1.34 2.23-1.28-.23 1-.22 1 1.71-1 1.73-1-.74 1-.72 1.07 2.31-1.41 2.35-1.36m.48-3.14s1.68-1 1.7-1-.33 1-.31 1 1.56-1 1.58-.91-.25 1-.24 1 1-.59 1-.56-1 1.16-.94 1.19 1.14-.7 1.16-.67m-4.08 2.21s1.7-1 1.73-1-.59 1-.57 1 2.88-1.76 2.92-1.69-1.44 1.63-1.42 1.68 1.23-.75 1.25-.72"/><path class="cls-1" d="M3.3 11.82s1.69-1 1.71-1-.82 1-.81 1 2.65-1.62 2.68-1.55-1.34 1.53-1.32 1.58 1.72-1.05 1.74-1-1.62 1.27-1.6 1.31S8 10.78 8 10.84s-2.3 1.87-2.26 1.94 1.14-.7 1.15-.67M1.32 8.9s.53-.33.54-.31-.55.67-.54.69 1.18-.72 1.2-.69-.37 1-.36 1 1.67-1 1.69-1-.12 1-.11 1 1.67-1 1.69-1-1.08.94-1.06 1 1.67-1 1.69-1-.63 1-.61 1 1.66-1 1.69-1-1.46 1.13-1.43 1.17 2-1.23 2-1.18-2.06 1.94-2 2 1.14-.7 1.16-.67m3.3-3.03s1.68-1 1.71-1-.16 1-.15 1 .84-.51.85-.49"/><path class="cls-1" d="M8 6.88s1.68-1 1.7-1-1 1.28-1 1.32 2.24-1.36 2.3-1.3-2 1.75-2 1.81.94-.58 1-.55-.59 1-.58 1 .85-.52.86-.5M7.31 5.15s.57-.35.58-.34-1.27 1.3-1.25 1.34 1.72-1.05 1.75-1"/><path class="cls-1" d="M4.11 6.88S5.55 6 5.57 6s-.64.82-.63.84 1-.58 1-.56 0 .54.05.55l.15-.09s-.43.62-.42.64S8.31 5.83 8.35 5.9s-2.69 2-2.64 2 3.48-2.13 3.53-2-3.11 2.22-3.06 2.3.73-.45.74-.43"/><path class="cls-1" d="M2.4 6.9s1.71-1 1.74-1-1.53 1.17-1.51 1.21S4.7 5.85 4.73 5.9s-1.94 1.58-1.9 1.64 1-.6 1-.58-.58 1.22-.56 1.25.81-.49.82-.47M1.75 5.16s.58-.36.59-.34S1 6.41 1 6.45s1.84-1.12 1.86-1.08S.28 7.27.32 7.34s2.45-1.5 2.49-1.44S.26 8.07.3 8.14s1.51-.92 1.53-.89-1.2 1-1.18 1 .73-.45.74-.43m5.96 1.84l.15-.09s1.5.06 1.5.09l.15-.08s.75.07.75.08l.1-.06v.61h.08s-.09.41-.08.42h.08m-3.19-.85L7 9.72s-.11.86-.1.88h.09l.35.27.14-.08s.69.07.7.08l.15-.08s.75.07.76.08l.15-.09s.56.07.57.08l.15-.09m-6.69 1.14l.14-.08s1 .06 1 .08l.14-.08s.59.07.6.08l.14-.08.28.19h.07s-.08.74-.07.76h.08m-2.9-.67l.11-.11s-.25.67-.24.68l.14-.08.08.33.17-.1s1.34.07 1.36.1l.16-.09s.84.07.85.09l.15-.09"/><path class="cls-1" d="M2 8.57l.15-.08s.55.07.56.08l.15-.08.43.08.15-.08s1.14.06 1.16.08l.14-.08s.66.07.67.08l.14-.08s.63.07.64.08l.14-.08.47.08.14-.08s.6.07.61.08l.14-.08s.84.06.85.08l.14-.08s1 .06 1 .08l.14-.08s.7.18.71.2l.18-.11.47.65.14-.08s.06.74.07.75h.08s-.09.43-.08.44h.08s-.35 1-.34 1.07l.23-.13m-4.11.64l.15-.09s1.43.05 1.45.08l.15-.08s1.34 0 1.36.05.79-.48.8-.46M6.89 12H7s-.12.82-.1.84h.08s1.16.16 1.18.16l.14-.08.7.08.14-.08s1.35.05 1.37.08l.14-.08.49.15.16-.09.51.51h.07s.13.69.14.71h.09s-.25 1.06-.24 1.08l.1-.06s-.29.8-.28.82l.1-.06s-.33.54-.32.55l.13-.07m-3-.35h.08s.07.59.07.6h.07s.74.4.75.42l.15-.13s.52.05.52.06l.15-.09m-1.31-1.09l.14-.08s.75 0 .76.06l.24-.14"/><path class="cls-1" d="M7.25 14.09L7.4 14l.48.09L8 14s1.15.06 1.16.09l.19-.09s1.15.06 1.16.09l.14-.08v.83h.08s-.26.7-.25.71h.09m-3.68-1.34l.11-.07s-.12.92-.11.94L7 15s-.09.74-.08.76H7s-.09.66-.08.68H7s-.09.41-.08.42H7s-.19.42-.18.43l.1-.06m-1.3-2.44h.08s-.09.77-.08.79h.08s-.09.7-.08.71h.08s-.09.54-.08.55h.08v.55h.07l.45.43.29-.17m-1.68-2.5s.63-.39.64-.37M.35 16.43l.11-.06v.48h.07l.37.36h.08s1.25-.31 1.27-.28 1.12-.69 1.14-.66m-1.91-.41s.55-.34.56-.32m-.13-4.26l.14-.08s-.69 1.2-.68 1.23l.1-.06s-.26.61-.25.63l.1-.06s-.29.78-.28.8h.08l.21.6h.07s1.42-.17 1.43-.14L3 14s.74.07.75.09l.18-.09s.56.07.57.09m-1.82-3.16s.32-.2.33-.19 1.06.06 1.07.08l.15-.08s.6.07.61.08l.16-.08M1.25 8.82l.1-.06s-.09.59-.08.61h.07l.23.26h.08l.46.11.15-.08s.66.07.66.08l.14-.08s1 .06 1 .08l.14-.08s1.37.14 1.39.17h.07s-.07.46-.06.47h.08s-.09.44-.08.45h.08M2.44 4.84h.08l.24.28h.07v.33l.09-.05.53.6.15-.09s1 .06 1 .08l.15-.09.44.08h.08l.61.51h.09s.08.44.09.45l.11-.06m1.1-1.79L7.49 5S6.31 6.51 6.33 6.55l.13-.08m1.43-1.64L8 4.75l.41.56h.08l.51.61.15-.09s1 .06 1 .09l.15-.09s.57.07.57.08l.13-.08s1.31.17 1.33.17h.09s.07.58.08.6l.11-.06M10.14 7l.14-.08s1 .06 1 .08l.14-.08s.55.07.56.08l.2-.12M9.89 7H10l.18.42h.07v.59l.12-.07M8 7l.15-.09.32.09h.08l.3.6h.07l.45.66h.07l.28.19.2-.12M7.41 7.15L7.6 7s-.71.71-.69.73l.2-.12m-3-.61l.14-.08s1.16.06 1.17.08l.14-.08v.66l.1-.06v.63h.07l.39.21.18-.1M3.82 7h.06l.12.52h.07s-.07.4-.07.41l.12-.07M2.41 7h.07l.17.38h.08s.13.49.14.51h.07l.12.33h.06l.33.32.18-.1M1.84 7.23L2 7.12s-.6.66-.59.68l.18-.1m.13-2.6l.21-.1s-1 1.39-1 1.42l.14-.08s-.83.94-.81 1l.18-.11s-.25.91-.24.93h.07l.38.29.12-.15m31.48 5.57s1.53-.93 1.55-.89-.58.87-.57.89 1.13-.69 1.15-.66-.65.74-.64.76.83-.51.84-.48-.79.8-.77.83.89-.54.9-.52-.91 1-.9 1 1-.61 1-.58-1 1.22-1 1.25 1-.61 1-.58-1.93 2-1.9 2.06 1.84-1.12 1.87-1.08-1.13 1-1.11 1.07.88-.54.89-.51"/><path class="cls-1" d="M31 13.43s.84-.51.85-.49-1.1 1-1.08 1 1.79-1.1 1.82-1.05-1.89 1.37-1.86 1.42 2.43-1.48 2.46-1.42-2.5 2.25-2.46 2.33 1-.61 1-.58-1 1.22-1 1.25 1-.61 1-.59-1 .89-1 .92 1-.61 1-.59-1 1.39-1 1.43 1.9-1.16 1.93-1.11-1.55 1.45-1.52 1.5.48-.29.49-.28m-.8-5.91s.52-.32.53-.3 0 .93 0 1 1.63-1 1.65-1 0 .93 0 1 1.5-.92 1.52-.88-.3.86-.29.88.51-.31.52-.3m-3.93-2.29s.52-.32.53-.31-.22.9-.21.92 1.57-1 1.59-.92-.09.93-.08 1 1.63-1 1.65-1-.54.93-.53 1 1-.59 1-.57m3.07 3.75c0 .05 2-1.22 2-1.17S39 13.21 39 13.24s1.82-1.11 1.84-1.06-.36 1-.34 1.06 1.35-.83 1.37-.79-.75.92-.74.94 1-.59 1-.57-1 1.15-1 1.18 1.16-.71 1.18-.68-1.2 1.28-1.17 1.32 1.16-.71 1.17-.68-1.19 1.19-1.17 1.23 1.15-.7 1.17-.68-1.19 1-1.17 1 1.15-.7 1.17-.67m-4.66 2.02s1.84-1.12 1.87-1.08-1 1-1 1.07 1.84-1.12 1.86-1.08-.45 1-.44 1.07 2.3-1.41 2.33-1.35-1.68 1.3-1.65 1.34 1.63-1 1.65-1-1 1.37-1 1.41 1-.62 1-.59-.7.72-.69.75.58-.35.59-.34"/><path class="cls-1" d="M36.46 12.67s.79-.48.8-.46-1 .92-1 1 1.7-1 1.73-1-1.82 1.75-1.79 1.8 3.56-2.18 3.61-2.09-3.67 2.9-3.61 3 1.13-.69 1.15-.66-1.17 1-1.15 1 1.13-.69 1.15-.66-1.17 1.25-1.15 1.28 1.14-.7 1.15-.67-1.17 1-1.15 1 1.14-.7 1.16-.67S36.22 17 36.24 17s2.13-1.3 2.16-1.25-1.95 1.57-1.92 1.63.92-.56.94-.54m2.75-6.9s1.93-1.18 2-1.13-.4 1.09-.39 1.12 1.15-.7 1.17-.67"/><path class="cls-1" d="M35.53 9.14s.56-.34.57-.33-.42 1-.41 1 1.71-1 1.74-1-.79 1.1-.77 1.12 3.1-1.93 3.15-1.82-2 1.76-2 1.82 2.06-1.26 2.09-1.21-1.35 1.49-1.32 1.53 2.42-1.5 2.47-1.44-2.53 2-2.48 2 1.21-.74 1.23-.71-1.25 1.46-1.22 1.5 1.22-.74 1.23-.71m.47-4.44s1.68-1 1.71-1-.48.71-.47.72.6-.37.61-.35"/><path class="cls-1" d="M36 6.23s.57-.35.58-.34-.47.72-.46.74 1.5-.92 1.52-.88-1 1.14-1 1.18 2.31-1.41 2.34-1.35-1.57 1.22-1.55 1.26S39.94 5.31 40 5.38s-1.53 1.34-1.5 1.38 2.76-1.68 2.8-1.61-2.73 2.07-2.69 2.14 3.25-2 3.3-1.9-3.35 2.4-3.29 2.49 1.21-.74 1.23-.71-1.25 1.38-1.22 1.42 1.21-.74 1.23-.71m-9.69-.46s.52-.32.53-.3-.55.63-.54.65 1.11-.68 1.13-.65-.75.94-.74 1 1.65-1 1.67-1-.11 1-.1 1 1.68-1 1.7-1-.47 1-.46 1 1.56-1 1.58-.91-.31.89-.3.91.53-.33.54-.31m-4.27-2.27s.52-.32.53-.3-.16.92-.15.94 1.6-1 1.63-.94-.81.93-.8 1 1.63-1 1.65-1-.29.93-.28 1 1.17-.72 1.19-.69-.51.67-.5.69.51-.31.52-.3m3.13 7.4l.15-.09s1 .06 1 .08l.16-.09s.58.08.58.09l.16-.09.46.09.17-.1.5.43h.09s-.09.51-.08.52h.09s-.09.6-.08.61h.09s-.09.77-.08.79h.09m-3.78-2.08l.1-.06s-.1.59-.09.6l.09-.05s-.1.42-.09.43l.09-.05s-.1.91-.08.93l.09-.05s.67.51.68.53l.17-.1s1.2.06 1.21.09l.16-.09s.64.07.65.09l.15-.09M32.24 14l.15-.09s.55.07.56.08l.15-.08.44.08.13-.07s.05.7.06.72h.08s-.09.51-.08.52h.08s-.09.49-.08.5h.08m-2.04-1.57l.1-.06s-.11 1-.1 1h.09v1l.09-.05s.88.09.9.11l.15-.08s.51.07.52.08l.15-.09"/><path class="cls-1" d="M32 12.92l.15-.08s1.2.05 1.22.08l.14-.08s.9.35.91.37l.1-.06.13.42.13-.08s.06.81.07.83h.08s-.09.47-.08.48h.08s-.09.83-.08.85h.08s-.35.89-.34.91l.23-.13m-2.74.57l.2-.11s.95.07 1 .09l.16-.09m-1.69.22l.3-.18m-1.13-3.6s.79-.48.8-.46-1 .93-1 1l.17-.1s-.23.87-.22.89h.08s-.09.79-.08.81h.08s-.09.85-.08.87h.08s-.09.77-.08.79h.09s0 .45.05.46h.07l.18.23.09-.05m.32-6.77l.15-.08S33 10.94 33 11l.15-.08s1.08.06 1.09.08l.11-.07.38.41h.07m-4.02-.12l.09-.05s0 .7.05.71l.09-.05s.86.15.87.16l.12-.09s.72.07.73.08l.15-.08s.83.06.84.08l.15-.08m-2.44-2.83l.14-.07s.89.06.9.08l.15-.08s.92.06.93.08l.14-.08.5.08.13-.08.45.51h.07m-4.06-.19l.1-.06s-.1.51-.09.52h.07l.39.35.14-.08s1.4.05 1.41.08L33 10s1.3.05 1.31.08.37-.23.38-.22m1.97-4l.18-.11s2-.22 2-.18l.21-.12s1.17-.18 1.18-.15l.22-.12s1.21 0 1.22.06h.08l.32.34h.07v.36l.1-.06m-1.94.67l.26-.15s1-.14 1-.11l.25-.14m-1.99.58l.11-.06s-.13.75-.12.77l.09-.05s-.09.48-.09.49l.09-.05s-.09.55-.09.56l.09-.05s.78.44.79.46l.14-.08.47.08.15-.08s.58.07.58.08l.15-.08s.59.22.6.24h.07v.69l.15-.12m-2.83.47l.15-.09s.82.07.83.08l.15-.09s.52.07.53.08l.17-.04m-2.19.21l.11-.06s-.12.47-.11.48h.08s-.09.38-.08.39h.08s-.1.93-.08 1h.09l.47.39.14-.08.44.08.14-.08s.82.36.84.38l.09-.05s.25.77.26.78l.09-.05s-.06.59-.05.6h.09s-.09.79-.08.81h.09s-.09.43-.08.44h.09s-.09.69-.08.71h.09s-.09.46-.08.47h.09s-.09.73-.08.74h.09s-.19.49-.18.5l.1-.06M37.67 17l.2-.11s1.44.07 1.45.1l.17-.1S41 16.92 41 17l.1-.06.33.59h.08M37.35 17l.3-.18m-1.27-4.25s.79-.48.8-.46-1.08 1.24-1.06 1.27h.08s-.09.89-.08.91h.08s-.09.55-.08.57h.08s-.09.65-.08.66h.08s-.09.67-.08.69h.08s-.09.59-.08.6h.09s-.06.5-.05.51h.06l.42.56.09-.05m.6-5.67l.15-.08s.73.07.74.08l.15-.09m-2.91-3l.11-.07s-.19.47-.18.48h.07l.43.52h.08s1.4.07 1.42.1l.15-.08L38 10l.14-.08.31.44h.08s-.09.39-.08.4h.08s-.09.86-.08.88h.08s-.09.39-.08.4h.08M36.11 8.8l.15-.09s1.39.05 1.41.08l.15-.09m-1.95-2.52h.08s.13.66.14.68h.07s.77.21.78.23l.17-.1s1.17-.06 1.19 0l.16-.09v.78l.12-.07s-.11.65-.1.66l.1-.06s-.09.46-.09.47h.09m-7.77-1.55L31 7s.91.06.93.08L32 7s.94.06.95.08l.18-.08s.76.07.77.08L34 7s1.09.3 1.11.33h.07s-.05.44 0 .45l.11-.06m-5.16-.34l.09-.05s-.1.52-.09.53h.07l.4.36.14-.08s.54.07.54.08l.15-.08s.74.07.75.08l.15-.08s.86.06.87.08l.15-.08s.86.06.87.08l.15-.08m-2.86-2.9l.14-.08.45.08.14-.08s.78.06.79.08l.14-.08s1.3.13 1.32.16l.09-.05s.11.59.11.6l.11-.06m-3.94-.32l.1-.05s.17.74.18.75h.09s.64.11.65.12l.12-.14s1.22.06 1.23.08l.15-.08s.84.06.85.08.34-.21.35-.2M15.37 14s.53-.33.54-.31-.54.76-.53.78 1.26-.77 1.28-.74-1.1 1.18-1.08 1.21 2-1.23 2-1.18-1.95 1.45-1.92 1.5 2.62-1.6 2.65-1.53-2.52 1.88-2.48 1.95 3.42-2.09 3.47-2-3.3 2.37-3.23 2.46 4.59-2.8 4.65-2.69-4.53 3-4.46 3.16c.16.28 11.06-6.76 11.22-6.48S16.5 17 16.67 17.27 27.44 10.68 27.6 11s-10.7 6.43-10.55 6.7 10.47-6.4 10.63-6.13-10.17 6-10 6.3 9.89-6 10-5.79-9.1 5.61-9 5.84 8.75-5.35 8.88-5.13-7.28 4.86-7.17 5.05 6.78-4.14 6.87-4-5.46 3.66-5.38 3.8 4.83-2.95 4.9-2.83-3 2.23-3 2.31S25.72 16 25.74 16M20.46 4.08c.09.16 6.26-3.83 6.36-3.67S21 3.93 21 4.08s5.93-3.6 6-3.45-5.12 3.32-5 3.45 5.14-3.14 5.21-3-3.67 2.91-3.61 3S27.11 1.92 27.17 2s-2.38 2-2.34 2.07 2.25-1.37 2.28-1.32-1 1.26-1 1.29.74-.45.75-.43"/><path class="cls-1" d="M16.26.88s.79-.48.8-.46S15.95 1.86 16 1.9 18.54.33 18.58.4s-2.69 1.95-2.65 2S19.41.3 19.46.38s-3.64 2.76-3.58 2.86 4.93-3 5-2.89-5.16 3.72-5.08 3.85 6.6-4 6.7-3.87-6.84 4.3-6.74 4.47S23.41.13 23.52.32 15.62 5 15.73 5.2 24.07.1 24.19.31s-8.63 5.27-8.5 5.49S25.09.05 25.23.29s-9.71 5.62-9.57 5.86S25.68 0 25.83.28 15.47 6.45 15.62 6.71 26.47.08 26.63.35 15.4 7.18 15.57 7.47c.06.11 4.42-2.7 4.49-2.59s-4.63 3.48-4.56 3.6S19.89 5.79 20 5.9s-4.6 3.32-4.53 3.44 5.81-3.55 5.9-3.4-5.94 3.6-5.85 3.75S21.77 5.84 21.86 6s-6.34 3.79-6.25 3.95 6.65-4.06 6.75-3.89-5.1 3.65-5 3.79 6.07-3.71 6.16-3.55-4.41 3.27-4.34 3.39 5.21-3.19 5.29-3.05-4.11 3-4 3.12S25 6.91 25.1 7s-4.24 2.69-4.18 2.8 4.4-2.69 4.47-2.58-3.67 2.71-3.61 2.78 4.1-2.51 4.16-2.4-3.57 2.63-3.51 2.73S26.29 8 26.34 8.1s-3.66 2.37-3.61 2.46 3.77-2.3 3.83-2.21-3.46 2.79-3.4 2.89S26.94 8.93 27 9s-4 3-3.93 3.07 4.16-2.54 4.22-2.44"/><path class="cls-1" d="M17.17.43l.15-.09s1.43 0 1.45.06l.15-.09s1.13 0 1.14.07l.15-.08s1.23 0 1.25.06l.15-.09s.85.05.86.07l.15-.09s1.51 0 1.53.06l.15-.08s1.44 0 1.45.06l.15-.08s.79.2.8.22l.14-.08.16.29.09-.05s.1.73.11.75l.09-.05s-.14.64-.13.65l.09-.05s-.17.9-.15.92h.09s-.36.83-.35.85l.16-.17"/><path class="cls-1" d="M20.42 4.19l.23-.13s1.09.1 1.1.12l.25-.12s1 .09 1 .11l.19-.11s1 .08 1 .1l.17-.1s1.16.06 1.18.09l.15-.09h.59c.01 0 .71-.43.72-.42m-6.91.65l.11-.06s-.18.7-.18.72l.1-.06s-.18.71-.17.73l.09-.05.14.44.16-.09 1.5.08H22s1.17.21 1.19.24l.11-.07s.63.31.64.32L24 6.4l.28.22.09-.05s.64.36.65.38l.09-.05.52.53h.08l.35.43h.08l.47.61h.07l.33.77h.07l.09.34h.07s.21.83.22.85h.08v.48h.07v.43h.07v.77h.08s-.13.6-.12.62h.08s-.24.84-.23.86l.09-.05s-.48 1.11-.47 1.13l.11-.06s-.58.82-.57.84l.18-.1s-1.2 1.14-1.18 1.17.47-.29.48-.28m-10.81-2.31l.19-.11s-.22.59-.21.6h.07s.12.5.12.51h.07s.06.35.06.36h.07s.09.45.1.46h.07s.12.51.12.52h.07s.12.5.12.52h.07l.31.7h.07l.28.45h.07l.5.23.09-.05s.9.12.91.14l.15-.09h1.54l.15-.09s1.35-.13 1.37-.1l.22-.13s1.4-.24 1.42-.21l.22-.13m-7.61-3.84l.14-.08.39.11.12-.07s.73.09.74.11l.13-.08H19l.14-.08s1.43-.15 1.45-.12l.19-.11"/><path class="cls-1" d="M16.18.82s.73-.45.74-.43-1 1.4-1 1.44h.09s-.13.55-.12.56l.11-.1s-.16.86-.15.88l.09-.05s-.17 1-.16 1l.09-.05s-.14.63-.13.65l.09-.05s-.12.44-.12.45l.09-.05s-.14.64-.13.66l.09-.05s-.12.39-.11.4l.04-.08s-.14.59-.13.61l.09-.05s-.15.79-.14.81l.09-.05s-.18 1-.16 1.06l.09-.05s-.16.9-.15.92l.09-.05s-.08.4-.08.41l.09-.05v.34l.12-.07s1.15.19 1.17.21l.23-.12s1.76-.19 1.79-.15l.16-.09s1.13.1 1.14.13l.12-.07.42.12.12-.07s.77.26.78.28l.09-.05s.65.31.66.32l.09-.05.19.27h.07l.41.69h.07L23 12l.13-.07"/></g></g></svg>