<svg xmlns="http://www.w3.org/2000/svg" viewBox="0 0 59.19 18.11"><defs><style>.cls-1{fill:#5d0e5a}.cls-2{fill:#6d2e6a}</style></defs><title>shizumori72</title><g id="レイヤー_2" data-name="レイヤー 2"><g id="text"><path class="cls-1" d="M14.55 6.08a.52.52 0 0 1 .39.16.55.55 0 0 1 .16.39.52.52 0 0 1-.16.38.53.53 0 0 1-.39.16h-.18a.07.07 0 0 0-.08.08v2.28a.56.56 0 0 1-.18.42.59.59 0 0 1-.42.17h-.11a.47.47 0 0 1-.48-.48l-.1-.06h-1.17a.12.12 0 0 0-.14.14v1.72a2.11 2.11 0 0 1-.11.77.76.76 0 0 1-.42.4 3.34 3.34 0 0 1-1.29.22.72.72 0 0 1-.46-.16.91.91 0 0 1-.31-.44.43.43 0 0 1 .05-.39.39.39 0 0 1 .34-.18h.79a.24.24 0 0 0 .18-.05.29.29 0 0 0 0-.19v-1.7a.12.12 0 0 0-.14-.14H9.26a.53.53 0 0 1 0-1.07h1.09a.12.12 0 0 0 .14-.14V7.31a.12.12 0 0 0-.14-.14H8.73A.54.54 0 0 1 8.35 7a.51.51 0 0 1-.16-.38.53.53 0 0 1 .16-.39.53.53 0 0 1 .38-.16h1.63a.12.12 0 0 0 .14-.14v-1a.12.12 0 0 0-.14-.14H9.28a.47.47 0 0 1-.33-.14.45.45 0 0 1-.14-.34.17.17 0 0 0 0-.1L8 3.58a.16.16 0 0 1-.05.13.18.18 0 0 1-.12 0H6a.12.12 0 0 0-.14.14v.46A.12.12 0 0 0 6 4.5h1.9a.47.47 0 0 1 .35.14.48.48 0 0 1 0 .68.47.47 0 0 1-.35.14H2.66a.47.47 0 0 1-.35-.14.48.48 0 0 1 0-.68.47.47 0 0 1 .35-.14h1.91a.12.12 0 0 0 .14-.14V3.9a.12.12 0 0 0-.14-.14H3.18a.45.45 0 1 1 0-.9h1.39a.12.12 0 0 0 .14-.14V2.3a.12.12 0 0 0-.14-.14H2.89A.46.46 0 0 1 2.56 2a.46.46 0 0 1-.14-.33.44.44 0 0 1 .14-.33.47.47 0 0 1 .33-.14h1.7a.11.11 0 0 0 .12-.12V.63a.58.58 0 0 1 .18-.42.59.59 0 0 1 .43-.21.57.57 0 0 1 .42.18.59.59 0 0 1 .17.42v.46a.11.11 0 0 0 .09.16h1.76a.47.47 0 0 1 .46.46.47.47 0 0 1-.13.32.44.44 0 0 1-.33.14H6a.12.12 0 0 0-.14.14v.42a.12.12 0 0 0 .14.16h1.4a.53.53 0 0 1 .39.14.52.52 0 0 1 .21.39A8.41 8.41 0 0 0 9.88.56a.69.69 0 0 1 .33-.36.66.66 0 0 1 .3-.07h.16a.5.5 0 0 1 .33.28.48.48 0 0 1 .07.23.58.58 0 0 1 0 .21l-.18.37a.06.06 0 0 0 0 .06.07.07 0 0 0 .06 0h1.67a.38.38 0 0 1 .33 0l.25.16a.49.49 0 0 1 .23.31.47.47 0 0 1 0 .36q-.38.66-.93 1.42a.07.07 0 0 0 0 .08.07.07 0 0 0 .06 0h.64a1.19 1.19 0 0 1 1.19 1.19V6a.07.07 0 0 0 .08.08zm-8 0a1.19 1.19 0 0 1 1.18 1.23v4.32a1.63 1.63 0 0 1-.11.66.8.8 0 0 1-.37.38 2.9 2.9 0 0 1-1.12.18.65.65 0 0 1-.41-.15.83.83 0 0 1-.27-.38.37.37 0 0 1 0-.35.33.33 0 0 1 .29-.16h.6c.15 0 .22-.07.22-.21v-.94a.12.12 0 0 0-.14-.14H4.25a.12.12 0 0 0-.14.14v1.64a.56.56 0 0 1-.16.4.54.54 0 0 1-.4.17.56.56 0 0 1-.41-.17.55.55 0 0 1-.14-.4v-5a1.19 1.19 0 0 1 1.15-1.17zm0 1.12a.12.12 0 0 0-.14-.14H4.25a.12.12 0 0 0-.14.14v.52a.12.12 0 0 0 .14.14h2.18a.12.12 0 0 0 .14-.14zM4.11 9.5a.12.12 0 0 0 .14.14h2.18a.12.12 0 0 0 .14-.14v-.56a.12.12 0 0 0-.14-.14H4.25a.12.12 0 0 0-.14.14zm7.77-7a.11.11 0 0 0 0-.08.07.07 0 0 0-.06 0h-1.41a.23.23 0 0 0-.21.11 11.63 11.63 0 0 1-.79 1.16.08.08 0 0 0 0 .08.05.05 0 0 0 .05 0h1.44a.26.26 0 0 0 .22-.11 9.32 9.32 0 0 0 .75-1.2zm0 2.32a.12.12 0 0 0-.14.14v1a.12.12 0 0 0 .14.14H13a.12.12 0 0 0 .14-.14v-1a.12.12 0 0 0-.14-.17zM13 8.52a.12.12 0 0 0 .14-.14V7.31a.12.12 0 0 0-.14-.13h-1.17a.12.12 0 0 0-.14.14v1.06a.12.12 0 0 0 .14.14zm7.16-.08c-.08 0-.12 0-.12.14a.22.22 0 0 0 .11.21l1.34.92a.61.61 0 0 1 .25.41v.08a.6.6 0 0 1-.12.37.52.52 0 0 1-.4.21.57.57 0 0 1-.4-.16q-.22-.22-.64-.59a.06.06 0 0 0-.1 0v2.21a.6.6 0 0 1-.18.44.61.61 0 0 1-.86 0 .6.6 0 0 1-.18-.44V9.73a8.27 8.27 0 0 1-1.63 2 .42.42 0 0 1-.29.12h-.14a.54.54 0 0 1-.36-.3.75.75 0 0 1-.08-.34 1.31 1.31 0 0 1 0-.18.83.83 0 0 1 .29-.45 7.82 7.82 0 0 0 1.68-2 .11.11 0 0 0 0-.08.07.07 0 0 0-.06 0h-1.35a.56.56 0 0 1-.4-.16.54.54 0 0 1-.17-.4.56.56 0 0 1 .17-.41.55.55 0 0 1 .4-.17h1.76a.12.12 0 0 0 .14-.14v-.9a.58.58 0 0 1 .18-.43.61.61 0 0 1 .86 0 .58.58 0 0 1 .18.42v.83a.12.12 0 0 0 .14.14h1.22a.55.55 0 0 1 .4.17.56.56 0 0 1 .17.41.54.54 0 0 1-.17.4.56.56 0 0 1-.4.16zM23 6a.64.64 0 0 1-.92 0 .62.62 0 0 1-.19-.45V3.16h-.06a10.88 10.88 0 0 1-3.84 2.73.87.87 0 0 1-.3.05h-.23a1 1 0 0 1-.46-.38.44.44 0 0 1 .18-.68 10.27 10.27 0 0 0 3.42-2.13v-.06h-2.92a.56.56 0 0 1-.41-.16.55.55 0 0 1-.16-.4.57.57 0 0 1 .16-.41.55.55 0 0 1 .41-.17h4.06a.12.12 0 0 0 .14-.14V.64a.62.62 0 0 1 .19-.45.64.64 0 0 1 .92 0 .62.62 0 0 1 .19.45v.72a.12.12 0 0 0 .14.14h4.27a.55.55 0 0 1 .4.17.56.56 0 0 1 .17.41.54.54 0 0 1-.17.4.56.56 0 0 1-.4.16h-3.08a.06.06 0 0 0 0 .06 10.67 10.67 0 0 0 3.61 2 .4.4 0 0 1 .28.29.44.44 0 0 1-.08.4 1 1 0 0 1-.46.34.9.9 0 0 1-.26 0 .72.72 0 0 1-.3-.07 11.14 11.14 0 0 1-4-2.71.06.06 0 0 0-.1 0v2.56A.62.62 0 0 1 23 6zm5.74 1.5a.56.56 0 0 1 .17.41.54.54 0 0 1-.17.4.56.56 0 0 1-.4.16H26.8a.07.07 0 0 0-.06 0 .11.11 0 0 0 0 .08 9.6 9.6 0 0 0 2 2.27.62.62 0 0 1 .05.89.69.69 0 0 1-.46.25h-.05a.56.56 0 0 1-.41-.18 11.19 11.19 0 0 1-1.72-2.42v2.87a.62.62 0 1 1-1.23 0V9.46a8.8 8.8 0 0 1-2 2.49.58.58 0 0 1-.36.12h-.1a.66.66 0 0 1-.42-.25.49.49 0 0 1-.14-.34v-.07a.55.55 0 0 1 .22-.38 7.71 7.71 0 0 0 2.13-2.45.11.11 0 0 0 0-.08.07.07 0 0 0-.06 0h-.92a.56.56 0 0 1-.41-.16.55.55 0 0 1-.16-.4.57.57 0 0 1 .16-.41.55.55 0 0 1 .41-.17h1.6a.12.12 0 0 0 .14-.14v-.89a.62.62 0 1 1 1.23 0v.82a.12.12 0 0 0 .14.14h2.15a.55.55 0 0 1 .19.17zm13.6.98a.58.58 0 0 1 .44.18.61.61 0 0 1 .22.44.59.59 0 0 1-.18.43.59.59 0 0 1-.44.18h-5a.12.12 0 0 0-.14.14v2.35a.65.65 0 0 1-.19.47.66.66 0 0 1-.94 0 .65.65 0 0 1-.19-.47V9.84a.12.12 0 0 0-.14-.14h-4.87a.6.6 0 0 1-.43-.18.57.57 0 0 1-.18-.43.6.6 0 0 1 .18-.44.59.59 0 0 1 .43-.18h4.84a.12.12 0 0 0 .14-.14V6.75a.12.12 0 0 0-.14-.14h-2.83a1.19 1.19 0 0 1-1.19-1.19V1.85a1.15 1.15 0 0 1 .34-.85 1.15 1.15 0 0 1 .84-.35h7.33a1.15 1.15 0 0 1 .84.35 1.15 1.15 0 0 1 .35.84v3.59a1.19 1.19 0 0 1-1.19 1.19h-2.9a.12.12 0 0 0-.14.14v1.58a.12.12 0 0 0 .14.14zM33.13 1.8a.12.12 0 0 0-.14.14v1a.12.12 0 0 0 .14.14H40a.12.12 0 0 0 .14-.14v-1A.12.12 0 0 0 40 1.8zm0 2.35a.12.12 0 0 0-.14.14v1a.12.12 0 0 0 .14.14H40a.12.12 0 0 0 .14-.14v-1a.12.12 0 0 0-.14-.13zm22.26-.02a.64.64 0 0 1 .41.05l.21.1a.51.51 0 0 1 .26.27.5.5 0 0 1 0 .36 12 12 0 0 1-2.68 4.87c-.06.07-.06.14 0 .19a10.69 10.69 0 0 0 2.87 1.56.45.45 0 0 1 .3.31 1 1 0 0 1 0 .15.45.45 0 0 1-.11.29.94.94 0 0 1-.48.37.77.77 0 0 1-.29.05.88.88 0 0 1-.3-.05 10.79 10.79 0 0 1-2.94-1.8.13.13 0 0 0-.21 0 12.44 12.44 0 0 1-3.06 1.79.88.88 0 0 1-.3.05.9.9 0 0 1-.26 0 .92.92 0 0 1-.45-.34.45.45 0 0 1-.11-.29.52.52 0 0 1 0-.12.45.45 0 0 1 .29-.33 11.66 11.66 0 0 0 3-1.63c.07-.05.08-.12 0-.19A12.46 12.46 0 0 1 50 7.45a.11.11 0 0 0-.08 0 .1.1 0 0 0-.09 0q-.3.33-.57.59a.61.61 0 0 1-.41.15.72.72 0 0 1-.49-.19.6.6 0 0 1-.16-.42.54.54 0 0 1 .18-.41 10.75 10.75 0 0 0 1.7-2 12.34 12.34 0 0 0 1.22-2.28.12.12 0 0 0 0-.1.09.09 0 0 0-.08 0h-3.38a.78.78 0 0 1 .53.46.82.82 0 0 1 .08.34.77.77 0 0 1-.1.37q-.36.7-.75 1.34a.45.45 0 0 0-.07.25v6.7a.62.62 0 0 1-.19.45.63.63 0 0 1-.46.19.6.6 0 0 1-.45-.19.63.63 0 0 1-.18-.45V7.31a.05.05 0 0 0-.06 0q-.36.42-.75.82a.64.64 0 0 1-.45.18.67.67 0 0 1-.48-.22.64.64 0 0 1-.18-.45.63.63 0 0 1 .21-.48 11.49 11.49 0 0 0 1.6-1.96 13.38 13.38 0 0 0 1.29-2.34.12.12 0 0 0 0-.1.08.08 0 0 0-.07 0H45.1a.59.59 0 0 1-.44-.18.59.59 0 0 1-.18-.43.61.61 0 0 1 .18-.44.58.58 0 0 1 .44-.18h4.63a.12.12 0 0 0 .14-.14V.7a.66.66 0 0 1 .2-.49.69.69 0 0 1 1 0 .66.66 0 0 1 .2.49v.66a.12.12 0 0 0 .14.14h4.77a.59.59 0 0 1 .43.18.6.6 0 0 1 .18.44.57.57 0 0 1-.18.43.6.6 0 0 1-.43.18h-4.45a.78.78 0 0 1 .53.44.76.76 0 0 1 .08.34.72.72 0 0 1-.1.34l-.05.15a.11.11 0 0 0 0 .08.07.07 0 0 0 .06 0h3.13zm-.55 1.2a.09.09 0 0 0 0-.08.09.09 0 0 0-.08 0h-3.09a.26.26 0 0 0-.22.11q-.3.49-.64 1a.2.2 0 0 0 0 .23 9.12 9.12 0 0 0 1.71 2.43c.05.06.11.06.18 0a9.64 9.64 0 0 0 2.14-3.69zm-1.47 1.33a.49.49 0 0 1 .13.34.54.54 0 0 1-.2.38.48.48 0 0 1-.38.11.59.59 0 0 1-.37-.19 8.42 8.42 0 0 0-.75-.77.43.43 0 0 1 0-.66.64.64 0 0 1 .79 0 9.93 9.93 0 0 1 .78.79z"/><path class="cls-2" d="M59.17 17.63s0-.14-.07-.12l-.06.17zm-.57-.3c-.1.08-.22.22-.15.37.1-.16.12-.09.23-.28a.11.11 0 0 1 .14.11s.13 0 .18-.07a.27.27 0 0 0-.4 0s-.01-.1 0-.13zm-8.4-.26h.05zM45 17zm-.88-.21h.05s-.04-.01-.05 0zm6.08.28l-.13-.07c-.01.07.07.06.13.07zm7.24.66h.08-.07zm-4.94-.8v-.07zm1.75-.02s-.05.13-.07.2a.14.14 0 0 1 .09-.1.3.3 0 0 0-.02-.1zm2.75.25zm-5.76-.26a.15.15 0 0 0 0-.05.1.1 0 0 0 0 .05zM2 18zm-2-.74a.72.72 0 0 0 0-.08zm42.49-.65s.03-.01 0 0zm-14.91.11c.17.13-.27.16 0 .3-.04-.02.21-.22 0-.3zm29.81.99zM27.56 17zm11.19-.3a.17.17 0 0 0 0 .06.11.11 0 0 0 0-.06zm2.79.2h-.07zm-4.24 0h-.1s.06-.02.1 0zm-1.5 0zm-29.17.99a.42.42 0 0 1-.07-.13c.02.11-.2.14.07.13zm50.81-.24v.06a.06.06 0 0 0 0-.06zm-20.2.35H37zm-19.8-.13h-.06a.06.06 0 0 0 .06 0zm18.85.13a.34.34 0 0 0-.13-.1zm-29.73-.24z"/><path class="cls-2" d="M5 18.1c.23 0 .11-.18.16-.29.27-.05.13.14.22.23s.3-.22.43-.21 0 0 0 .08c.18-.15.53 0 .74-.19a.59.59 0 0 1 0-.25c.1 0 .19-.12.23 0s-.07 0-.1.08l.11-.05c.1.17-.15.06-.15.19.21-.06.45-.2.61-.15s-.37.06-.16.21l-.25-.06c.19.27-.15 0 0 .27.33 0 .36-.09.69 0 .07-.09 0-.14 0-.23.46-.17.36.43.7.2.09-.11.12-.33.36-.21l-.08.19c.32 0 .18-.28.51-.15-.06.08-.25.06-.2.09.21.15.15-.11.32-.11v.17c.34 0 .71-.15 1.08-.18 0 .05-.08.1 0 .16a3.84 3.84 0 0 1 1.46.12l.17-.15s.07.07 0 .09c.18.06 0-.09.09-.15s.13.08.07.13a1.81 1.81 0 0 1 1.21-.11h-.06c.26.06.29-.3.53-.16a5 5 0 0 1 1.59.15c.08-.21.55.09.58-.2.32.15.23.2.67.3.12 0 .18-.18.32-.21v.15l.2-.16.11.18h.14c-.06 0-.12-.07-.11-.11a.53.53 0 0 1 .53.19l.51-.13c0 .06-.1.08-.16.12.27-.16 0 .16.3 0v-.12a.94.94 0 0 0 .62.05L19 18c.38 0 .8-.05 1.22 0a.13.13 0 0 1 0-.25v.16c.08-.1-.13-.06 0-.18s.11.19 0 .24l.19-.06v.14c.08-.1.33.16.45 0 .42 0 .62-.05 1-.06 0-.14.14-.11.25-.22a3.78 3.78 0 0 0 .84.14c.22-.07.06-.12.16-.2 0 .13.32.12.16.21a4.27 4.27 0 0 0 .93-.13c-.05-.05-.11-.08-.08-.12s.19.05.18.12c.52-.19 1.2.37 1.62.11l.43-.14c.2 0-.12.1 0 .18.46-.21.73 0 1.12-.11.3.38 1.05 0 1.45.21L29 18c.1-.09.13.05.2.07s-.11-.08 0-.13a13.29 13.29 0 0 1 2.71.21c.33 0 .19-.46.6-.25l-.12.17c.66-.2 1.35 0 2-.16 0 0 0 .09-.1.09.14.12.51 0 .51-.09s0 .09.09.14.35-.15.42 0 0 0-.06 0 .42 0 .33-.12c.24.07.47-.06.66 0 .13-.15.42.07.46-.14 0 .23.43.18.58.08-.05.07.13.07.07.17.18 0 .34 0 .31-.16.32.27.65-.22.83.13a12.76 12.76 0 0 1 1.47-.26c0 .23-.52 0-.5.26a3.19 3.19 0 0 1 1.14-.23c.11 0-.06.1-.1.14.44-.09.86 0 1.26-.1l-.08.06c-.08.06.18 0 .17-.07h-.08c-.12-.15.31-.31.32-.39-.13.29.39.07.18.45.05 0 .12-.07.1-.14s.1.06 0 .14c.28-.06.18-.16.43-.16 0 0-.05.07-.08.13a.54.54 0 0 1 .47-.15s0 .07-.05.07c.37 0 .63-.26 1-.16-.12.22.14.07.16.26l.22-.06-.09-.09c.19 0 .36-.13.52-.07l-.14.08h.36l-.2-.07c.19-.1 0-.24.23-.18-.05 0 .19 0 .29.11a.36.36 0 0 1 .33-.08v.25c.09-.16.44 0 .56-.21a.18.18 0 0 0 0 .16l.08-.13c.09 0 .1.06.09.14.26 0-.08-.24.23-.13h-.06c.32.05.61-.08.9 0 .09.19-.25 0-.16.2a7.26 7.26 0 0 1 1.27-.18h-.08c.06-.27.3.13.51 0-.05 0-.07.15-.05.12a3.18 3.18 0 0 0 1-.15l-.05.07a4 4 0 0 0 .61.07c.05-.07.15-.06.09-.16.54.39 1-.21 1.52.12-.06 0-.14.06-.09.06l.41-.06c0-.12-.05-.07-.14-.16a.37.37 0 0 1 .27-.12c-.18.08 0 .19.08.25s0-.07 0-.11c.21.21 0-.23.33-.09v.06c.11 0 .21-.11.33-.09s-.12.06-.12.17c.17 0 .33-.25.48-.12-.07 0-.17 0-.24.07a.37.37 0 0 0 .3.14l.28.07h-.07c.21-.35.42-.06.7-.29-.27.22 0 .13-.07.28s.18.09.15.13c.13-.12.22.1.41-.08 0 0 .14 0 .11.13.17 0 0-.08 0-.15.27-.17.62.2 1 0s.39-.26.7-.34c.1.08-.08.18-.08.18a.55.55 0 0 0 .45 0v.13c0 .05.08-.18.25-.11a.67.67 0 0 1-.13.2c.15 0 .29-.14.45-.18s-.09.13-.15.18c.17 0 .45-.08.5-.21h-.11c.06 0 0 .12 0 .14s-.21 0-.22-.1h.11c-.11-.29-.44 0-.66 0l.09-.21-.23.17c0-.05-.08-.17 0-.2-.16-.1-.14.07-.27 0l-.15.06s0-.15.07-.12c-.28-.12-.45.16-.55 0-.38.07 0 .15-.32.33l-.24-.68v.15s-.12 0-.1-.08c-.15.1 0 .07-.06.17-.19-.14-.52.07-.57-.18-.07.12.18.09 0 .17-.06-.26-.23 0-.41-.08.05-.14.22-.06 0-.18-.1.23-.34 0-.49 0s-.32.08-.57.14c0-.06-.46-.1-.69-.17 0 .18-.28.15-.45.19a.2.2 0 0 1 .13-.2h-.16a.26.26 0 0 1-.19.11v-.14c-.22 0-.43.16-.71.07 0 .13.22.36-.07.44 0-.07 0-.19.06-.22s-.09.06-.14 0l.12-.12c-.13-.05-.07.1-.17.09s-.07-.07-.06-.15.09 0 .13 0a.46.46 0 0 1-.3-.15c0 .06 0 .13-.08.15s-.07-.12-.2-.17-.19 0-.19.15-.07-.07-.1-.11-.52 0-.4.18c-.37.15-.76-.08-1.12 0-.22.06-.48 0-.64.14s-.15-.09-.12-.15c-.17 0-.18.09-.42 0 .17-.09-.06-.08.17-.06-.21 0-.26-.12-.49 0 .08-.13-.16-.16-.26-.12l.15.09a1.15 1.15 0 0 1-.32 0l.06-.17c-.44-.2-.79.34-1.13 0-.12.12.24.08.13.22-.2 0-.41-.26-.48-.26-.28-.09-.26.24-.55.18 0 .06.07.22-.14.27s-.25-.25-.12-.3.07 0 .07 0 .15 0 .07-.11v.06c-.1-.06-.38-.05-.31-.15-.15.06-.07.1 0 .13-.26-.09-.41 0-.67-.06 0 0 .08.1 0 .1-.39-.07-.17.11-.44.14s.05-.22-.21-.14 0-.16 0-.21c-.24.11-.46-.08-.59-.1h.13a.53.53 0 0 1-.2 0l.07.12c-.08 0-.14 0-.14-.07s.06.2-.09.3c-.1-.06-.31.06-.34-.09.32.05 0-.16.23-.18a.31.31 0 0 1-.19 0c-.3-.14-.14.18-.45.17 0-.09-.07-.17-.12-.15.13 0 .06.15-.06.22s-.22.05-.32 0h.12c0 .09-.14.08-.28.1s.13 0 .08-.08c-.16.16-.35-.16-.57-.06-.1-.06 0-.17-.1-.21-.24.12-.26-.12-.52 0 .07.12.09.09-.09.21l.42-.08-.27.17c.13 0 .27-.08.34-.05-.13.1-.12.07-.05.17-.17-.18-.34.1-.54 0v-.3c-.3-.13-.53.15-.93.08l.13.05c-.05.12-.24 0-.37.06s-.07-.13-.12-.2-.29 0-.32.19l-.17-.13c-.32-.05-.36.28-.66.25.09-.11 0-.18.16-.25h-.19s-.28.13-.37 0-.06.15-.17.14-.18.07-.08.18c-.31-.31-.87 0-1.14-.24a6.74 6.74 0 0 1-.69.07c-.28-.09-.17.28-.49.18-.16-.16.17-.09.07-.15 0-.32-.38 0-.59-.15h.05c-.16-.11-.4.12-.66.1a1.67 1.67 0 0 1-.78.27c.08-.13.12-.07.07-.2s0 .21-.19.24c-.07-.07-.24-.13-.26-.27h.21c-.11-.18-.28 0-.39 0v-.08c-.33 0-.33.22-.69.21v.06c-.19.19-.16-.11-.36 0l-.06-.2a4 4 0 0 1-.68.23 2 2 0 0 1 .56-.31c-.13 0-.43 0-.5.11s.12-.07.17 0a.81.81 0 0 1-.61.23c0-.38-.66-.1-.84-.39-.45.14-.89-.06-1.41 0 .18.3-.15 0-.12.31h-.18l-.37-.18c-.09-.09.12-.07.1-.14-.27 0-.11-.13-.29-.21 0 .11-.09.16-.24.11l.21.14c-.37.16-.32-.26-.69-.1l.12-.1c-.19.06-.71 0-.9.24 0 0-.08-.12 0-.14-.46 0-1 .26-1.38.11v-.07c-.09 0-.15.14-.26.07s0-.07 0-.08-.23.13-.34.09l.1-.08c-.45-.1-.69.2-1.06.26 0-.22-.35-.29-.53-.33a5.45 5.45 0 0 0-1.37.27c-.3-.24-1-.1-1.49-.23.07 0 0 .17-.1.19s-.31.15-.29 0c-.08-.2-.32-.15-.5-.15v.26c-.47-.38-1.24.14-1.5-.2-.11.07-.26.07-.37.13v-.14a3.49 3.49 0 0 0-.87 0l.08-.1c-.22 0-.28.41-.48.42l-.06-.21c-.39 0-.77-.18-1.16 0 0 0 0-.09.08-.1-.18 0-.7-.14-.64.15 0-.19-.4 0-.61.06v-.14c-.18.18-.18.23-.43.28-.06 0-.05-.11 0-.08-.19-.07-.15.13-.39.06l.09-.09c-.2 0-.18 0-.29.14s-.38 0-.41-.16a.22.22 0 0 1-.25.14v-.09c-.33-.09-.5.16-.72 0a.11.11 0 0 0 0-.08 2.76 2.76 0 0 1 .46 0c0-.13-.21-.15 0-.33-.17.1-.46.31-.67.25a.17.17 0 0 0-.13 0 .57.57 0 0 0-.17 0c0-.11-.24-.06-.35-.06s-.13.12 0 .23 0 0 .09 0H10c-.08.07-.17.13-.29.05l-.15.23c-.15-.2-.43-.3-.47-.42-.33.08-.77.05-1 .32C8 17.08 8 17 8 16.93s.12 0 .15-.06c-.19.07-.55 0-.59.21-.23-.08.13-.17-.19-.14v-.06c-.63-.29-1 .47-1.72.09 0 0 .07 0 .08.06-.8-.17-1.64.16-2.43-.11-.22-.05-.25.06-.38.15v-.15l-.23.17c-.33.13-.57-.37-1-.13l.05.1c-.15 0-.48.06-.45-.06s0 .11-.11.05V17l-.37.14c-.29-.06 0-.31-.37-.33-.16 0-.44.23-.38.28s.16 0 .17.13H.09c0 .23-.14.47.21.63l.24-.14.08.11H.37c.12.11.19 0 .27-.05a.2.2 0 0 0 .1.12l.26-.17c0 .09-.11.18.05.23.11-.1-.11-.2.08-.27.12.11.08.19.22.1 0 .06 0 .1-.06.12.12-.07.32 0 .38-.15.12.13.41 0 .4.19a.64.64 0 0 1 .33-.18c-.2.26.42 0 .36.3.15-.24.54-.11.81-.24 0 0 0 .06-.07 0 .15 0 .19.09.29.14 0-.2.25-.24.38-.36.18.19-.11.23-.05.41 0-.16.32-.16.26-.29.14.12.12.06.19.22 0-.24.13 0 .25-.19.2.12.05.23.28.15s-.1.2-.1.2zm5.33-.42zm.45 0h-.19v-.1s.1.05.16.09zm-.95-1h.1-.12a.21.21 0 0 1 0 .02zm-.15.2zm40.59.21z"/><path class="cls-2" d="M16.94 17.94v-.03l-.04.03h.04zm35.79-.37zm1.07.03l.15.05zm.82.07a.23.23 0 0 0 0-.06zm-13.02.17c-.11.03-.06.02 0 0zm3.87-.33l-.12.07c.07.01.12.01.12-.07zm-8.2.49zm7.9-.42a.24.24 0 0 0 .18 0 .36.36 0 0 0-.18 0zm13 .16zm.04-.02s.01-.01 0 0zm.14-.05h-.09s.07.04.09 0zm-1.27 0v.05a.11.11 0 0 0 0-.05zm-.33.02c.08 0 .2.11.31.08-.06.03-.23-.17-.31-.08zm-1.37-.63h.28c0-.05-.11-.13 0-.14-.34-.12.08.16-.28.14zm-.86-.06c.15 0 0-.08 0-.11s-.11.04 0 .11zm-6.18 0v-.13c-.1 0 .01.03 0 .13zm-1.19.64l.12.08.05-.12-.17.04zm-.69-.91l.05-.02-.2.05.15-.03zm-10.4.04v.16c.12-.03.13-.2 0-.16zm-4.48.16a.17.17 0 0 0-.25-.05c.1.01.2.12.25.05zm-13.45-.25l.09-.05-.17.04.08.01z"/></g></g></svg>