<svg xmlns="http://www.w3.org/2000/svg" viewBox="0 0 43.19 18.18"><defs><style>.cls-1{fill:none;stroke:#0098f5;stroke-linecap:round;stroke-linejoin:round;stroke-width:.43px}</style></defs><title>txt_nav_06</title><g id="レイヤー_2" data-name="レイヤー 2"><g id="nav"><path class="cls-1" d="M8.68 15.74s.46-.28.46-.27-.13.89-.12.91 2.78-1.7 2.82-1.63-2.24 1.7-2.21 1.76 2.09-1.28 2.12-1.23-1.1 1.12-1.09 1.15.77-.47.78-.45m-4.2-2.41S9 12.52 9 12.57s-.54 1-.52 1 1.71-1 1.74-1-1 1-1 1 1.71-1 1.73-1-.86 1-.84 1 1.34-.82 1.36-.78-.72 1.29-.7 1.33 1.18-.72 1.2-.69-1.28 1-1.26 1.08 1.28-.78 1.3-.75-1.46 1.19-1.43 1.24 1.34-.82 1.36-.78"/><path class="cls-1" d="M5.69 14.2c0 .07 2.79-1.71 2.83-1.64s-2.85 2.1-2.81 2.18 1.15-.7 1.16-.67-1.18 1-1.16 1.06 1.14-.7 1.16-.67-1.18 1-1.16 1 1.14-.7 1.16-.67S5.7 15.95 5.72 16s1.14-.7 1.16-.67-1.12 1.27-1.1 1.31S6.86 16 6.88 16s-.65 1-.63 1.07.53-.32.54-.31m-6.36-.7s1.06-.65 1.07-.62-1 .95-1 1 6.57-4 6.67-3.85-6.49 3.87-6.4 4 6.89-4.21 7-4-5.74 3.61-5.66 3.76 2.22-1.35 2.26-1.3M2 10.92s.67-.41.68-.4-1.25 1.6-1.22 1.64 3-1.84 3.06-1.77-3.4 2.79-3.34 2.88 1.43-.88 1.46-.84-1.14 1.38-1.12 1.42 2.2-1.34 2.23-1.29-.23 1-.22 1 1.71-1 1.73-1-.74 1-.72 1.07 2.31-1.41 2.35-1.36m.48-3.13s1.68-1 1.7-1-.33 1-.31 1 1.56-1 1.58-.91-.25 1-.24 1 1-.59 1-.56-1 1.16-.94 1.19 1.14-.7 1.16-.67M7.24 11.4s1.7-1 1.73-1-.59 1-.57 1 2.88-1.76 2.92-1.69-1.44 1.63-1.42 1.68 1.23-.75 1.25-.72"/><path class="cls-1" d="M3.3 11.39s1.69-1 1.71-1-.82 1-.81 1 2.65-1.62 2.69-1.55-1.35 1.53-1.32 1.58 1.72-1.05 1.74-1-1.62 1.27-1.6 1.31S8 10.35 8 10.41s-2.3 1.87-2.26 1.94 1.14-.7 1.15-.67M1.32 8.47s.53-.33.54-.31-.55.67-.54.69 1.18-.72 1.2-.69-.37 1-.36 1 1.67-1 1.69-1-.12 1-.11 1 1.67-1 1.69-1-1.08.94-1.06 1 1.67-1 1.69-1-.63 1-.61 1 1.66-1 1.69-1-1.46 1.13-1.43 1.17 2-1.23 2-1.18-2.06 1.94-2 2 1.14-.7 1.16-.67m3.3-3.03s1.68-1 1.71-1-.16 1-.15 1 .84-.51.85-.49"/><path class="cls-1" d="M8 6.45s1.68-1 1.7-1-1 1.28-1 1.32 2.24-1.36 2.3-1.3-2 1.75-2 1.81.94-.58 1-.55-.59 1-.58 1 .85-.52.86-.5M7.31 4.72s.57-.35.58-.34-1.27 1.3-1.25 1.34 1.72-1.05 1.75-1"/><path class="cls-1" d="M4.11 6.45s1.44-.88 1.46-.84-.64.82-.63.84 1-.58 1-.56 0 .54.05.55l.15-.09S5.68 7 5.69 7s2.62-1.6 2.66-1.53-2.69 2-2.64 2 3.48-2.13 3.53-2-3.11 2.22-3.06 2.3.73-.45.74-.43"/><path class="cls-1" d="M2.4 6.47s1.71-1 1.74-1S2.6 6.64 2.63 6.68s2.07-1.26 2.1-1.21-1.94 1.58-1.9 1.64 1-.6 1-.58-.58 1.22-.56 1.25.81-.49.82-.47M1.75 4.73s.58-.36.59-.34S1 6 1 6s1.84-1.1 1.86-1.06S.28 6.84.32 6.91s2.45-1.5 2.48-1.43S.26 7.64.3 7.71s1.51-.92 1.53-.89-1.2 1-1.18 1 .73-.45.74-.43m5.96 1.84l.15-.09S9 9.2 9 9.23l.16-.09s.73.08.74.09h.05s.05.57.06.58h.09s-.09.41-.08.42h.09m-3.22-.88L7 9.29s-.11.86-.1.88h.09l.33.28.17-.1s.67.08.68.09l.16-.09s.74.07.75.09l.16-.09s.56.07.57.09l.15-.09m-6.69 1.13l.14-.08s1 .06 1 .08l.14-.08s.59.07.6.08l.14-.08.28.19h.07s-.08.74-.07.76h.08m-2.9-.67l.11-.06s-.25.67-.24.68l.14-.08.09.33.17-.1s1.34.07 1.36.1l.16-.09s.84.07.85.09l.15-.09"/><path class="cls-1" d="M2 8.14l.15-.08s.55.07.56.08l.15-.08.43.08.15-.08s1.14.06 1.16.08l.14-.08s.66.07.67.08l.14-.08s.63.07.64.08l.14-.08.47.08.14-.08s.6.07.61.08l.14-.08s.84.06.85.08l.14-.08s1 .06 1 .08l.14-.08s.7.18.71.2l.18-.11.47.65.14-.08s.06.74.07.75h.08s-.09.43-.08.44h.08s-.35 1-.34 1.07l.23-.13m-4.11.64l.15-.09s1.43.05 1.45.08L9 11.4s1.34 0 1.36.05.79-.48.8-.46m-4.27.61l.11-.06s-.11.82-.1.84h.08s1.14.2 1.16.23l.16-.09s.69.07.7.09l.15-.09s1.35.05 1.37.08l.14-.08.49.15.16-.09.51.51h.07s.13.69.14.71h.09s-.27 1.07-.25 1.09l.11-.06s-.31.81-.3.83l.13-.07s-.35.55-.34.56l.15-.09m-3.02-.38h.09s.07.59.07.6h.07s.74.4.75.42l.14-.08s.52.05.52.06l.15-.09m-1.31-1.14l.14-.08s.75 0 .76.06l.14-.08"/><path class="cls-1" d="M7.25 13.66l.15-.09.48.09.12-.08s1.15.06 1.17.09l.15-.09s1.15.06 1.17.09l.14-.08v.83h.08s-.26.7-.25.71h.09m-3.66-1.35l.11-.07s-.12.92-.11.94h.08s-.09.74-.08.76h.08s-.09.66-.08.68h.08s-.09.41-.08.42h.08s-.19.43-.18.44l.1-.06m-1.27-2.53h.08s-.09.77-.08.79h.08s-.09.7-.08.71h.08s-.09.54-.08.55h.08v.55h.07l.45.43.33-.39m-1.72-2.28s.64-.39.65-.37M.35 16l.11-.06v.48h.07l.37.36h.08s1.25-.31 1.26-.28 1.12-.69 1.14-.66m-1.9-.41s.52-.33.52-.32m-.09-4.27l.14-.08S1.36 12 1.38 12l.1-.06s-.26.61-.25.63l.1-.06s-.29.78-.28.8h.08l.21.6h.07s1.41-.17 1.43-.14l.18-.1s.74.07.75.09l.17-.1s.56.07.57.09M2.68 10.5s.32-.2.33-.19 1.06.06 1.07.08l.15-.08s.6.07.61.08l.16-.08M1.25 8.39l.1-.06s-.09.59-.08.61h.07l.23.26h.08l.46.11.15-.08s.66.07.66.08l.15-.08s1 .06 1 .08l.14-.08s1.37.14 1.39.17h.07s-.07.46-.06.47h.08s-.09.44-.08.45h.08M2.44 4.41h.08l.24.28h.07v.33l.09-.05.53.6.15-.09s1 .06 1 .08l.15-.09.44.08h.08l.62.51L6 5.9s.09.44.09.45l.11-.06m1.07-1.63l.21-.12S6.31 6.08 6.33 6.12L6.46 6m1.43-1.6L8 4.33l.41.56h.08l.51.6.15-.09s1 .06 1 .09l.15-.09s.57.07.57.08L11 5.4s1.36.15 1.38.18l.09-.05s.07.58.08.6l.11-.06m-2.53.45l.14-.08s1 .06 1 .08l.14-.08s.55.07.56.08l.2-.12m-2.29.21h.07l.18.42h.07v.59l.12-.07M8 6.52l.15-.09.37.17h.08l.3.6h.07l.45.66h.07l.28.19.2-.12M7.4 6.72l.19-.11s-.71.71-.69.73l.2-.12m-2.99-.7l.14-.08s1.16.06 1.17.08l.14-.08v.67L5.69 7v.63h.07l.39.21.26-.15M3.81 6.6h.06s.16.51.16.52h.07s-.1.37-.1.38l.11-.07m-1.7-.89h.07l.17.38h.08s.13.49.14.51h.07l.12.33h.06l.33.32.18-.1M1.83 6.8L2 6.69s-.6.66-.59.68l.18-.1m.13-2.6l.21-.12S.92 5.94.95 6l.14-.08s-.83.94-.81 1l.18-.1s-.25.91-.24.93h.07l.38.29.12-.07m31.45 5.47s1.53-.93 1.55-.89-.58.87-.57.89 1.13-.69 1.15-.66-.65.74-.64.76.83-.51.84-.48-.79.8-.77.83.89-.54.9-.52-.91 1-.9 1 1-.61 1-.58-1 1.22-1 1.25 1-.61 1-.58-1.93 2-1.9 2.06 1.84-1.12 1.87-1.08-1.13 1-1.11 1.07.88-.54.89-.51"/><path class="cls-1" d="M31 13s.84-.51.85-.49-1.1 1-1.08 1 1.79-1.1 1.82-1.05-1.89 1.37-1.86 1.42 2.43-1.48 2.46-1.42-2.5 2.25-2.46 2.33 1-.61 1-.58-1 1.22-1 1.25 1-.61 1-.59-1 .89-1 .92 1-.61 1-.59-1 1.39-1 1.43 1.9-1.16 1.93-1.11-1.49 1.48-1.46 1.54.48-.29.49-.28m-.86-5.95s.52-.32.53-.3 0 .93 0 1 1.63-1 1.65-1 0 .93 0 1 1.5-.92 1.52-.88-.3.86-.29.88.51-.31.52-.3m-3.93-2.29s.52-.32.53-.31-.22.9-.21.92 1.57-1 1.59-.92-.09.93-.08 1 1.63-1 1.65-1-.54.93-.53 1 1-.59 1-.57m3.07 3.75c0 .05 2-1.22 2-1.17S39 12.78 39 12.81s1.82-1.11 1.84-1.06-.36 1-.34 1.06 1.35-.81 1.37-.81-.75.92-.74.94 1-.59 1-.57-1 1.15-1 1.18 1.16-.71 1.18-.68-1.2 1.28-1.17 1.32 1.16-.71 1.17-.68-1.19 1.19-1.17 1.23 1.15-.7 1.17-.68-1.19 1-1.17 1 1.15-.7 1.17-.67m-4.66 2.04s1.84-1.12 1.87-1.08-1 1-1 1.07 1.84-1.12 1.86-1.08-.45 1-.44 1.07 2.3-1.41 2.33-1.35-1.68 1.3-1.65 1.34 1.63-1 1.65-1-1 1.37-1 1.41 1-.62 1-.59-.7.72-.69.75.58-.35.59-.34"/><path class="cls-1" d="M36.46 12.25s.79-.48.8-.46-1 .92-1 1 1.7-1 1.73-1-1.82 1.75-1.79 1.8 3.56-2.18 3.61-2.09-3.67 2.9-3.61 3 1.13-.69 1.15-.66-1.17 1-1.15 1 1.13-.69 1.15-.66-1.17 1.25-1.15 1.28 1.14-.7 1.15-.67-1.17 1-1.15 1 1.14-.7 1.16-.67-1.15 1.44-1.12 1.48 2.13-1.3 2.16-1.25-1.94 1.58-1.91 1.65.92-.56.94-.54m2.74-6.95s1.93-1.18 2-1.13-.4 1.09-.39 1.12 1.15-.7 1.17-.67"/><path class="cls-1" d="M35.53 8.71s.56-.34.57-.33-.42 1-.41 1 1.71-1 1.74-1-.79 1.1-.77 1.12 3.11-1.9 3.16-1.82-2 1.76-2 1.82 2.06-1.26 2.09-1.21-1.35 1.49-1.32 1.53 2.41-1.5 2.46-1.44-2.53 2-2.49 2 1.21-.74 1.23-.71-1.25 1.46-1.22 1.5 1.22-.74 1.23-.71M40.28 6L42 5s-.48.71-.47.72.6-.37.61-.35"/><path class="cls-1" d="M36 5.8s.57-.35.58-.34-.47.72-.46.74 1.5-.92 1.52-.88-1 1.14-1 1.18 2.31-1.41 2.34-1.35-1.51 1.21-1.49 1.26S39.93 4.88 40 4.95s-1.53 1.34-1.5 1.38 2.76-1.68 2.8-1.61-2.74 2.07-2.69 2.14 3.25-2 3.3-1.9-3.35 2.4-3.29 2.49 1.21-.74 1.23-.71-1.25 1.38-1.22 1.42 1.21-.74 1.23-.71M30.17 7s.52-.32.53-.3-.55.63-.54.65 1.11-.68 1.13-.65-.75.94-.74 1 1.65-1 1.67-1-.11 1-.1 1 1.68-1 1.7-1-.47 1-.46 1 1.56-1 1.58-.91-.31.89-.3.91.53-.33.54-.31m-4.27-2.28s.52-.32.53-.3-.16.92-.15.94 1.6-1 1.63-.94-.81.93-.8 1 1.63-1 1.65-1-.29.93-.28 1 1.17-.72 1.19-.69-.51.67-.5.69.51-.31.52-.3m3.13 7.4l.15-.09s1 .06 1 .08l.15-.08s.59.07.59.08l.15-.08.47.08.14-.08.52.42h.08s-.09.51-.08.52h.08s-.09.6-.08.61h.08L41 15h.08m-3.71-2l.1-.06s-.11.59-.1.6h.08s-.09.42-.08.43h.08s-.1.91-.08.93h.09l.64.56.14-.08s1.21.06 1.22.08l.15-.08s.64.07.65.08l.15-.08m-8.18-1.84l.15-.09s.55.07.56.08l.15-.08.44.08.13-.07s.05.7.06.72h.08s-.09.51-.08.52h.08s-.09.49-.08.5h.08m-2.03-1.54l.1-.06s-.11 1-.1 1h.09v1l.09-.05s.88.09.9.11l.15-.09s.51.07.51.08l.15-.09"/><path class="cls-1" d="M32 12.49l.15-.08s1.2.05 1.22.08l.14-.08s.9.35.91.37l.1-.06.13.42.13-.08s.06.81.07.83h.08s-.09.47-.08.48h.08s-.09.83-.08.85h.08s-.35.89-.34.91l.23-.13m-2.74.61l.2-.11s.95.07 1 .09l.16-.09m-1.69.18l.3-.18m-1.13-3.6s.79-.49.81-.47-1 .93-1 1l.17-.1s-.23.87-.22.89h.08s-.09.79-.08.81h.08s-.09.85-.08.87h.08s-.09.77-.08.79h.09s0 .45.05.46h.07l.18.23.09-.05m.31-6.79l.15-.08s1.37.05 1.38.08l.15-.08s1.08.06 1.09.08l.11-.07.38.41h.07m-4.02-.09l.09-.05s0 .69.05.71l.09-.05s.86.15.87.16l.15-.08s.72.07.73.08l.15-.08s.83.06.84.08l.15-.08m-2.47-2.84l.14-.08s.89.06.9.08l.14-.08s.92.06.93.08l.14-.08.5.08.13-.07.45.51h.07m-4.05-.19l.1-.06s-.1.51-.09.52h.07l.39.35.14-.08s1.4.05 1.41.08l.2-.13s1.3.05 1.31.08.37-.23.37-.22m1.97-4l.18-.11s2-.22 2-.18l.22-.14s1.17-.18 1.18-.15l.22-.12s1.21 0 1.22.06h.08l.32.34h.07v.36l.1-.06m-1.94.69l.26-.12s1-.14 1-.11l.25-.14m-1.99.55l.11-.06s-.13.76-.12.76h.09s-.09.48-.09.49l.09-.05s-.09.55-.09.56h.09s.76.45.77.47l.16-.09.46.09.16-.09s.57.07.58.08l.15-.09s.59.22.6.24h.07v.69l.15-.19m-2.83.49l.15-.09s.82.07.83.08l.15-.09s.53.07.53.08l.17-.07m-2.19.2l.11-.06s-.12.47-.11.49h.08s-.09.38-.08.39h.08s-.09.93-.08 1h.08l.47.39.14-.08.44.08.14-.08s.83.36.84.38L42 12s.25.77.26.78l.09-.05s-.06.59-.05.6h.09s-.09.79-.08.81h.09s-.09.43-.08.44h.09s-.09.69-.08.71h.09s-.09.46-.08.47h.09s-.09.73-.08.74h.09s-.19.49-.18.5l.1-.06m-4.69-.39l.2-.11s1.44.07 1.45.1l.17-.1s1.48.06 1.5.09l.1-.06.33.58h.08m-4.15-.44l.3-.18m-1.28-4.29s.79-.48.8-.46-1.08 1.24-1.06 1.32h.08s-.09.89-.08.91h.08s-.09.55-.08.57h.08s-.09.65-.08.66h.08s-.09.67-.08.69h.08s-.09.59-.08.6h.08s-.06.5-.05.51h.06l.42.56.09-.05m.62-5.72l.15-.08s.68.07.69.08l.15-.09m-2.86-2.99l.11-.06s-.19.47-.18.48h.07l.42.52h.08s1.4.07 1.42.1l.16-.09H38l.17-.1.29.45.09-.05s-.09.39-.09.4l.09-.05s-.1.87-.09.88l.09-.05s-.1.4-.09.41l.1-.06m-2.45-3.06l.15-.08s1.39.05 1.41.08l.15-.09m-1.95-2.53h.08s.13.66.13.68h.07s.77.21.78.23l.17-.1s1.18-.06 1.19 0l.16-.09v.78l.13-.07s-.11.65-.1.66l.11-.06s-.1.46-.1.47l.1-.06M30.81 6.7l.19-.08s.91.06.93.08l.07-.08s.94.06.95.08l.15-.08s.76.07.77.08l.13-.08s1.09.3 1.11.33h.07s-.05.44 0 .45l.11-.06m-5.16-.39l.09-.05s-.1.52-.09.53h.07l.4.35.14-.08s.54.07.54.08l.15-.08s.74.07.75.08l.15-.08s.86.06.87.08l.15-.08s.86.06.87.08l.15-.08m-2.86-2.89l.14-.08.45.08.14-.08s.78.06.79.08l.14-.08s1.3.13 1.32.16h.09s.11.59.11.61l.11-.06m-3.94-.38L31 5s.17.74.18.75h.09s.64.11.65.12l.08-.13s1.22.06 1.23.08l.15-.08s.84.06.85.08.34-.21.35-.2m-14.16 2.9c.06.11 4.2-2.57 4.27-2.46s-3.89 2.45-3.83 2.55S24.92 6.13 25 6.23s-3.59 2.48-3.53 2.57 3.9-2.39 4-2.29-3.16 2.63-3.11 2.72S26 7 26.1 7s-3.39 2.6-3.34 2.69 3.74-2.28 3.79-2.19-3.39 2.74-3.34 2.83S27 8 27.06 8.12s-3.72 2.5-3.66 2.6 3.83-2.34 3.89-2.24-3.76 2.77-3.7 2.87 4-2.42 4-2.32-4 2.66-4 2.76 4-2.47 4.11-2.37-4.21 3.13-4.14 3.24S27.95 10 28 10.11s-4.68 3.23-4.61 3.36 4.67-2.85 4.74-2.73"/><path class="cls-1" d="M19.33.9s1-.62 1-.59-2.17 2-2.13 2.08 3.29-2 3.34-1.93-4 2.69-4 2.79S22.08.51 22.15.62s-5.3 3.67-5.22 3.81S23 .73 23.08.88s-7 4.72-6.9 4.9 7.63-4.66 7.74-4.47-8.16 5-8 5.21 7.89-4.82 8-4.62-8.33 4.89-8.21 5.1 7.53-4.6 7.64-4.41-8 4.94-7.9 5.14 7-4.28 7.1-4.1S15.2 8 15.31 8.15s6.75-4.13 6.85-4S15 8.6 15.12 8.79s6.4-3.91 6.49-3.79S14.92 9.4 15 9.57 20.9 6 21 6.13s-6.19 4.32-6.09 4.49 8.51-5.2 8.63-5-8.81 5.61-8.68 5.84 9.48-5.79 9.62-5.55-9.72 5.65-9.58 5.9 4.95-3 5-2.9-5.06 3.09-5 3.22 4.78-2.92 4.85-2.8S15 12.84 15 13s4.5-2.75 4.57-2.64-4.37 3.25-4.3 3.36 4.23-2.59 4.29-2.48-4.1 3-4 3.12 4.08-2.49 4.14-2.39-4.08 2.58-4 2.68 4-2.47 4.1-2.37S16 15 16.06 15.13s3.92-2.4 4-2.3-3.66 2.68-3.61 2.78 3.87-2.37 3.93-2.27-3.78 2.44-3.73 2.53 3.89-2.38 3.95-2.28-3.32 2.72-3.27 2.81 3.88-2.37 3.93-2.27-3.38 2.63-3.32 2.72 4.13-2.53 4.2-2.42-3.75 2.58-3.7 2.68 9.66-5.9 9.8-5.66-9.29 5.66-9.16 5.9 9-5.48 9.1-5.26-8.12 5.38-8 5.59S27.87 13 28 13.18s-7 4.44-6.86 4.62 6.45-3.94 6.54-3.78-5.08 3.68-5 3.82 4.14-2.53 4.2-2.42-2.79 2.09-2.75 2.16 1.6-1 1.62-.94"/><path class="cls-1" d="M20.44 8.62l.11-.06s.66.22.67.23h.08l.5.34h.08l.4.3h.07l.52.67h.07l.31.74h.07s.13.6.14.61h.07v.39h.07v.77l.1-.06s-.28 1-.27 1l.12-.07s-.54.68-.53.7l.26-.15M20 8.76l.1-.06s-.3.63-.3.65l.1-.06s-.25.71-.24.73l.09-.05s-.14.47-.14.48h.09s-.12.57-.11.58h.07v.59h.07v.59h.07s.22.73.23.75h.07l.19.51h.07l.23.38h.06L21 14h.07s.81.42.82.44l.11-.06"/><path class="cls-1" d="M20.45.25h.06l.49.03.1-.06.53.23.1-.06s1 .33 1 .36l.1-.06s.73.27.74.29l.09-.05.32.72.15-.09s-.54.77-.53.79l.21-.12s-1.24 1.39-1.22 1.44l.16-.09s-.72.86-.71.88l.16-.09s-1 1.39-1 1.43l.15-.09s1 .08 1 .1l.26-.15s1.48 0 1.5.08l.1-.06.3.26h.08l.6.47h.08l.2.22h.08l.35.33h.07l.24.37h.07l.15.27h.07l.46.59h.07l.25.59h.07l.17.44h.07s.16.53.17.55h.07s.17.74.18.76h.07v.59h.07v.87h.08s-.12.47-.11.48l.09-.05s-.16.56-.16.57l.09-.05s-.35 1.08-.33 1.1l.11-.06s-.49 1-.48 1l.11-.06s-.8 1.07-.78 1.1l.16-.09s-1.28 1.25-1.26 1.29l.28-.16"/><path class="cls-1" d="M19.26.83l.24-.14S18 2.32 18.06 2.37l.18-.11s-.7.87-.69.89l.15-.09s-1 1.3-.95 1.34l.13-.07s-.78 1.32-.76 1.36l.12-.07s-.53.85-.52.87l.12-.07s-.28.52-.27.53l.1-.06s-.34.76-.33.77l.1-.06s-.24.46-.23.47l.1-.06s-.32.69-.31.71l.1-.06s-.22.83-.21.85l.11-.04s-.22 1.06-.21 1.09l.09-.05s-.15.89-.14.91h.08v.39h.08v.36h.08v.87h.08s.17.76.18.78h.07s.17.66.18.68h.07v.33h.07l.29.56h.07l.3.53h.07l.13.31h.07l.57.59h.08l.54.49h.08l.36.34.09-.05.56.29.09-.05s.93.41.94.43l.1-.06s.84.15.85.17l.12-.07s1.31.14 1.33.17l.15-.09s2-.37 2-.33 1.26-.77 1.28-.74"/></g></g></svg>