<svg xmlns="http://www.w3.org/2000/svg" viewBox="0 0 43.19 18.41"><defs><style>.cls-1{fill:none;stroke:#e9528e;stroke-linecap:round;stroke-linejoin:round;stroke-width:.43px}</style></defs><title>txt_nav_03</title><g id="レイヤー_2" data-name="レイヤー 2"><g id="nav"><path class="cls-1" d="M8.69 16.44s.46-.28.46-.27-.13.89-.12.91 2.78-1.7 2.82-1.63-2.24 1.7-2.21 1.76 2.09-1.28 2.12-1.23-1.1 1.12-1.09 1.15.77-.47.78-.45m-4.21-2.41S9 13.22 9 13.27s-.54 1-.52 1 1.71-1 1.74-1-1 1-1 1 1.71-1 1.73-1-.86 1-.84 1 1.34-.82 1.36-.78-.72 1.29-.7 1.33 1.18-.72 1.2-.69-1.28 1-1.26 1.08 1.28-.78 1.3-.75-1.46 1.21-1.43 1.25 1.34-.82 1.36-.78"/><path class="cls-1" d="M5.69 14.9c0 .07 2.79-1.71 2.83-1.64s-2.85 2.1-2.81 2.18 1.15-.7 1.16-.67-1.18 1-1.16 1.06 1.14-.7 1.16-.67-1.18 1-1.16 1 1.14-.7 1.16-.67-1.18 1.1-1.16 1.13S6.86 16 6.88 16s-1.12 1.27-1.1 1.31 1.09-.67 1.1-.64-.65 1-.63 1.07.53-.32.54-.31m-6.36-.67s1.06-.65 1.07-.62-1 .95-1 1 6.57-4 6.67-3.85-6.49 3.87-6.4 4 6.89-4.21 7-4-5.7 3.59-5.61 3.71 2.18-1.33 2.21-1.28M2 11.62s.67-.41.68-.4-1.25 1.6-1.22 1.64S4.45 11 4.5 11.1 1.1 13.89 1.15 14s1.43-.88 1.46-.84-1.11 1.37-1.09 1.4 2.2-1.34 2.23-1.29-.23 1-.22 1 1.71-1 1.73-1-.74 1-.72 1.07S6.86 12.92 6.89 13m.48-3.17s1.68-1 1.7-1-.33 1-.31 1 1.56-1 1.58-.91-.25 1-.24 1 1-.59 1-.56-1 1.16-.94 1.19 1.14-.7 1.16-.67M7.24 12.1s1.7-1 1.73-1-.59 1-.57 1 2.88-1.76 2.92-1.69S9.88 12 9.9 12.08s1.23-.75 1.25-.72"/><path class="cls-1" d="M3.3 12.09s1.69-1 1.71-1-.82 1-.81 1 2.65-1.62 2.68-1.55-1.35 1.53-1.32 1.58 1.72-1.05 1.74-1-1.62 1.27-1.6 1.31S8 11 8 11.11 5.69 13 5.72 13s1.14-.7 1.15-.67M1.32 9.16s.53-.33.54-.31-.55.67-.54.69 1.18-.72 1.2-.69-.37 1-.36 1 1.67-1 1.69-1-.12 1-.11 1 1.67-1 1.69-1-1.08.94-1.06 1 1.67-1 1.69-1-.63 1-.61 1 1.67-1 1.69-1S5.68 10 5.71 10s2-1.23 2-1.18-2.06 1.94-2 2 1.14-.7 1.16-.67m3.3-3s1.68-1 1.71-1-.16 1-.15 1 .84-.51.85-.49"/><path class="cls-1" d="M8 7.15s1.68-1 1.7-1-1 1.28-1 1.32 2.24-1.36 2.3-1.3S9 7.92 9 8s.94-.58 1-.55-.59 1-.58 1 .85-.52.86-.5M7.31 5.42s.57-.35.58-.34-1.27 1.3-1.25 1.34 1.72-1.05 1.75-1"/><path class="cls-1" d="M4.11 7.15s1.44-.88 1.46-.84-.64.82-.63.84 1-.58 1-.56 0 .54.05.55l.15-.09s-.43.62-.42.64S8.31 6.1 8.35 6.17s-2.69 2-2.64 2 3.48-2.13 3.53-2-3.11 2.22-3.06 2.3.73-.47.74-.47"/><path class="cls-1" d="M2.4 7.17s1.71-1 1.74-1S2.6 7.34 2.63 7.38s2.07-1.26 2.1-1.21-1.94 1.58-1.9 1.64 1-.6 1-.58-.58 1.22-.56 1.25.8-.48.81-.48M1.75 5.43s.58-.36.59-.34S1 6.68 1 6.72 2.84 5.6 2.86 5.64.28 7.54.32 7.6 2.77 6.1 2.8 6.17.26 8.34.3 8.41s1.51-.92 1.53-.89-1.2 1-1.18 1 .73-.45.74-.43m5.96 1.84l.15-.09s1.5.05 1.5.09l.16-.09s.73.08.74.09h.05s.05.57.06.58h.08s-.09.41-.08.42h.08m-3.21-.83L7 10s-.09.85-.08.87H7l.4.24.17-.1s.67.08.68.09l.14-.1s.74.07.75.09l.15-.09.5.08.15-.08m-6.67 1.18l.14-.08s1 .06 1 .08l.16-.09s.57.08.58.09l.17-.1.26.21h.06s-.07.73-.06.75h.08m-2.91-.66l.11-.06s-.25.67-.24.68l.14-.08.09.33.17-.1s1.34.07 1.36.1l.16-.09s.84.07.85.09l.15-.09"/><path class="cls-1" d="M2 8.84l.15-.08s.55.07.56.08l.15-.08.43.08.15-.08s1.14.06 1.16.08l.14-.08s.66.07.67.08l.14-.08s.63.07.64.08l.14-.08.47.08.14-.08s.6.07.61.08l.14-.08s.84.06.85.08l.14-.08s1 .06 1 .08l.14-.08s.7.18.71.2l.18-.11.47.65.14-.08s.06.74.07.75h.08s-.09.43-.08.44h.08s-.35 1-.34 1.07l.23-.13m-4.11.64l.15-.09s1.43.05 1.45.08L9 12.1s1.34 0 1.35.05.79-.48.8-.46m-4.27.65l.1-.06s-.06.8-.05.81h.06s1.19.17 1.21.2l.16-.09s.69.07.7.09l.15-.09s1.35.05 1.37.08l.14-.08.47.17.17-.1.49.52h.07s.12.7.13.72l.09-.05s-.27 1.07-.25 1.09l.11-.06s-.32.82-.31.84l.13-.08s-.34.52-.33.53l.15-.09m-3.04-.31h.08s.07.59.07.6h.07s.74.4.75.42l.14-.08s.52.05.52.06l.15-.09m-1.3-1.14l.14-.08s.75 0 .76.06l.24-.14"/><path class="cls-1" d="M7.25 14.36l.15-.09.48.09.12-.09s1.15.06 1.16.09l.15-.09s1.15.06 1.16.09l.14-.08v.83h.08s-.26.7-.25.71h.08m-3.64-1.31l.1-.06s-.1.91-.09.93l.11-.05s-.1.75-.09.76L7 16s-.09.67-.09.68H7s-.09.41-.08.42L7 17m-1.38-1.94h.08s-.09.77-.08.79h.08s-.09.7-.08.71h.08s-.09.54-.08.55h.08v.55h.07l.45.43.29-.17m-1.68-2.5s.64-.39.64-.37M.35 16.7l.11-.06v.49h.07l.37.36h.08s1.25-.31 1.27-.28 1.12-.68 1.14-.66m-1.91-.42s.55-.34.56-.32m-.13-4.27l.14-.08s-.69 1.2-.68 1.23l.1-.06s-.26.61-.25.63l.1-.06s-.32.8-.27.8h.08l.21.6h.07s1.42-.17 1.43-.14l.18-.1s.74.07.75.09l.16-.09s.56.07.57.09M2.68 11.2L3 11s1.06.06 1.07.08l.16-.08s.6.07.61.08L5 11M1.25 9.09l.1-.09s-.09.59-.08.61h.07l.23.26h.08l.46.11.15-.09s.65.07.66.08l.15-.09s1 .07 1 .09l.16-.09S5.6 10 5.62 10s0 .45 0 .46h.08s-.09.44-.08.45h.08m-3.26-5.8h.08l.24.28h.07v.33l.09-.05.53.6.15-.09s1 .06 1 .08l.15-.09.44.08h.08l.62.51L6 6.6s.09.44.09.45L6.2 7m1.07-1.65l.2-.12S6.31 6.78 6.33 6.82l.13-.08m1.43-1.65L8 5l.41.56h.08l.51.63.15-.09s1 .06 1 .09l.15-.09s.57.07.57.08L11 6.1s1.36.15 1.38.18l.09-.05s.07.58.08.6l.11-.06m-2.53.45l.14-.08s1 .06 1 .08l.14-.08s.55.07.56.08l.2-.12m-2.29.21h.07l.18.42h.07v.59l.12-.07M8 7.22l.15-.09.37.17h.08l.3.6h.07l.45.66h.07l.28.19.2-.12M7.41 7.42l.19-.11S6.89 8 6.9 8l.2-.12m-2.99-.66l.14-.08s1.16.05 1.17.08l.14-.08v.67l.1-.06v.63h.07l.39.21.17-.1M3.82 7.3h.06s.16.51.16.52h.07S4 8.18 4 8.19l.11-.07m-1.7-.88h.07l.17.38h.08s.13.49.14.51h.07l.12.33h.06l.34.32.18-.1M1.84 7.5L2 7.39s-.6.66-.59.68L1.6 8m.12-2.63l.21-.12s-1 1.39-1 1.42l.14-.08s-.83.94-.81 1l.18-.1s-.25.91-.24.93h.07l.38.29.11-.07m31.48 5.5s1.53-.93 1.55-.89-.58.87-.57.89 1.13-.69 1.15-.66-.65.74-.64.76.83-.51.84-.48-.79.8-.77.83.89-.54.9-.52-.91 1-.9 1 1-.61 1-.58-1 1.22-1 1.25 1-.61 1-.58-1.93 2-1.9 2.06 1.84-1.12 1.87-1.08-1.13 1-1.11 1.07.88-.54.89-.51"/><path class="cls-1" d="M31 13.7s.84-.51.85-.49-1.1 1-1.08 1 1.79-1.1 1.82-1.05-1.89 1.37-1.86 1.42 2.43-1.48 2.46-1.42-2.5 2.25-2.46 2.33 1-.61 1-.58-1 1.22-1 1.25 1-.61 1-.59-1 .89-1 .92 1-.61 1-.59-1 1.39-1 1.43 1.9-1.16 1.93-1.11-1.55 1.45-1.52 1.5.48-.29.49-.28m-.8-5.91s.52-.32.53-.3 0 .93 0 1 1.63-1 1.65-1 0 .93 0 1 1.5-.92 1.52-.88-.3.86-.29.88.51-.31.52-.3m-3.93-2.3s.52-.32.53-.31-.22.9-.21.92 1.57-1 1.59-.92-.09.93-.08 1 1.63-1 1.65-1-.54.93-.53 1 1-.59 1-.57m3.07 3.76c0 .05 2-1.22 2-1.17S39 13.48 39 13.51s1.82-1.11 1.84-1.06-.36 1-.34 1.06 1.35-.83 1.37-.79-.75.92-.74.94 1-.59 1-.57-1 1.15-1 1.18 1.16-.71 1.18-.68-1.2 1.28-1.17 1.32 1.16-.71 1.17-.68-1.19 1.19-1.17 1.23 1.15-.7 1.17-.68-1.19 1-1.17 1 1.15-.7 1.17-.67m-4.66 2.02s1.84-1.13 1.87-1.08-1 1-1 1.07S40.39 16 40.42 16s-.45 1-.44 1.07 2.3-1.41 2.33-1.35-1.68 1.3-1.65 1.34 1.63-1 1.65-1-1 1.37-1 1.41 1-.62 1-.59-.7.72-.69.75.58-.35.59-.34"/><path class="cls-1" d="M36.46 12.94s.79-.48.8-.46-1 .92-1 1 1.7-1 1.73-1-1.82 1.75-1.79 1.8 3.56-2.18 3.61-2.09-3.67 2.9-3.61 3 1.13-.69 1.15-.66-1.17 1-1.15 1 1.13-.69 1.15-.66-1.17 1.25-1.15 1.28 1.14-.7 1.15-.67-1.17 1-1.15 1 1.14-.7 1.16-.67-1.15 1.44-1.12 1.48 2.13-1.3 2.16-1.25-1.95 1.57-1.92 1.63.92-.56.94-.54m2.75-6.92s1.93-1.18 2-1.13-.4 1.09-.39 1.12 1.15-.7 1.17-.67"/><path class="cls-1" d="M35.53 9.41s.56-.34.57-.33-.42 1-.41 1 1.71-1 1.74-1-.79 1.1-.77 1.12 3.11-1.9 3.16-1.82-2 1.76-2 1.82 2.03-1.26 2.06-1.2-1.35 1.49-1.32 1.53S41 9 41.05 9.08s-2.53 2-2.49 2 1.21-.74 1.23-.71-1.25 1.46-1.22 1.5 1.22-.74 1.23-.71m.48-4.45s1.68-1 1.71-1-.48.71-.47.72.6-.37.61-.35"/><path class="cls-1" d="M36 6.5s.57-.35.58-.34-.47.72-.46.74 1.46-.9 1.49-.9-1 1.14-1 1.18 2.31-1.41 2.34-1.35-1.51 1.21-1.49 1.26S39.93 5.58 40 5.64 38.44 7 38.47 7s2.76-1.68 2.8-1.61-2.74 2.07-2.69 2.14 3.25-2 3.3-1.9-3.35 2.4-3.29 2.49 1.21-.74 1.23-.71-1.25 1.38-1.22 1.42 1.21-.74 1.23-.71m-9.66-.43s.52-.32.53-.3-.55.63-.54.65 1.11-.68 1.13-.65-.75.94-.74 1 1.65-1 1.67-1-.11 1-.1 1 1.68-1 1.7-1-.47 1-.46 1 1.56-1 1.58-.91-.31.89-.3.91.53-.33.54-.31m-4.27-2.27s.52-.32.53-.3-.16.92-.15.94 1.6-1 1.63-.94-.81.93-.8 1 1.63-1 1.65-1-.29.93-.28 1 1.17-.72 1.19-.69-.51.67-.5.69.51-.31.52-.3m3.13 7.4l.15-.09s1 .06 1 .08l.15-.08s.59.07.59.08l.15-.08.47.08.14-.08.52.42h.09s-.09.51-.08.52h.09L41 15h.08s-.09.77-.08.79h.08m-3.71-2.06l.1-.06s-.11.59-.1.6h.08s-.09.42-.08.43h.08s-.09.91-.08.93h.09l.62.57.17-.1s1.2.06 1.21.09l.14-.19s.64.07.65.09l.15-.09m-8.16-1.76l.15-.09s.55.07.56.09l.16-.09.42.09.1-.06s.08.68.09.7h.09s-.09.51-.08.52h.08s-.09.49-.08.5h.08m-2.05-1.5l.1-.06s-.1 1-.09 1l.09-.05v.92s.91.07.92.09l.16-.09.45.08.15-.09"/><path class="cls-1" d="M32 13.18l.15-.08s1.2.05 1.21.08l.14-.08s.9.35.91.37l.1-.06.13.42.13-.08s.06.81.07.83h.08s-.09.47-.08.48h.08s-.09.83-.08.85h.08s-.35.89-.34.91l.23-.13"/><path class="cls-1" d="M32.08 17.31l.2-.11s.95.07 1 .09l.16-.09h.53c.01 0 .7-.43.71-.41m-2.93.59s.3-.18.31-.18m-1.14-3.6s.79-.48.8-.46-1 .93-1 1l.17-.1s-.23.87-.22.89h.08s-.09.79-.08.81h.08s-.09.85-.08.87h.08s-.09.77-.08.79h.09s0 .45.05.46h.07l.18.23.09-.05m.32-6.8l.15-.08s1.36.05 1.38.08l.15-.08s1.08.06 1.09.08l.11-.07.38.41h.07m-4.02-.09l.09-.05s0 .69.05.71l.09-.05s.86.14.87.16l.15-.08s.72.07.73.08l.15-.08s.83.06.84.08l.15-.08m-2.47-2.84l.14-.08s.89.06.9.08l.14-.08s.92.06.93.08l.14-.08.5.08.13-.07.45.51h.07m-4.05-.19l.1-.06s-.1.51-.09.52h.07l.39.35.14-.08s1.4.05 1.41.08l.15-.08s1.3.05 1.31.08.37-.23.38-.22m2.01-4.05l.19-.13s2-.22 2-.18l.21-.12s1.17-.18 1.18-.15l.22-.12s1.21 0 1.22.06h.08l.32.34h.07v.36l.1-.06m-1.94.68l.26-.15s1-.14 1-.11l.25-.14M39.82 7l.11-.06s-.13.75-.12.77l.09-.05s-.09.48-.09.49l.09-.05s-.09.55-.08.56h.09s.76.45.77.47l.16-.13.46.09.15-.09s.57.07.58.09l.15-.09s.59.22.6.24h.07v.69L43 9.8m-2.83.5l.15-.09s.82.07.83.08l.15-.09s.52.07.53.08l.15-.09m-2.18.26l.1-.06s-.1.46-.09.48l.09-.05s-.1.39-.09.4l.09-.05s-.1.93-.08 1h.09l.51.38.16-.09.44.08.14-.08s.81.37.82.39h.08s.24.77.25.79l.09-.05s-.07.59-.06.6h.09s-.09.79-.08.81h.09s-.09.43-.08.44h.09s-.09.69-.08.71h.09s-.09.46-.08.47h.09s-.09.73-.08.74h.09s-.19.46-.18.48l.1-.06m-4.73-.53l.2-.11s1.44.07 1.45.1l.17-.1s1.48.06 1.5.09l.1-.06.33.58h.08m-4.15-.44l.3-.18m-1.28-4.29s.79-.48.8-.46-1.08 1.24-1.06 1.27h.08s-.09.89-.08.91h.08s-.09.55-.08.57h.08s-.09.65-.08.66h.08s-.09.67-.08.69h.08s-.09.59-.08.6h.09s-.06.5-.05.51h.06l.42.56.09-.05m.61-5.67l.15-.08s.73.06.74.08l.15-.09"/><path class="cls-1" d="M35.46 9.34l.11-.06s-.19.47-.18.48h.07l.42.52h.08s1.4.07 1.42.1l.14-.08.49.08.14-.08.31.44h.08s-.09.39-.08.4h.08s-.09.86-.08.88h.08s-.09.39-.08.4h.08m-2.43-3.35l.14-.07s1.39.05 1.41.08l.15-.08m-1.94-2.56h.08s.13.66.14.68h.07s.77.21.78.23l.17-.1s1.18-.06 1.19 0l.16-.25v.78l.12-.07s-.11.65-.1.66l.1-.06s-.09.46-.09.47h.09M30.81 7.4l.19-.08s.91.06.93.08l.07-.08s.94.06.95.08l.15-.08s.76.07.77.08l.13-.09s1.09.3 1.11.33h.07s-.05.44 0 .45l.1-.09m-5.15-.36l.09-.05s-.1.52-.09.53h.07l.4.36.14-.08s.54.07.54.08l.15-.08s.74.07.75.08l.15-.08s.86.06.87.08l.15-.08s.86.06.87.08l.15-.08m-2.86-2.89l.14-.08.45.08.14-.08s.78.06.79.08l.14-.08s1.3.13 1.32.16h.09s.11.59.11.61l.11-.06m-3.94-.38L31 5.7s.17.73.18.75h.09s.64.11.65.12l.08-.13s1.22.06 1.23.08l.15-.08s.84.06.85.08.34-.21.35-.2m-19.36 7.57s.48-.29.49-.28-.5.74-.49.76 1.22-.74 1.24-.71-1 1.13-1 1.17 1.89-1.16 1.92-1.11-1.79 1.37-1.76 1.42 2.38-1.5 2.45-1.44-2.31 1.76-2.27 1.83 3.23-2 3.28-1.89S16 15.9 16 16s4.53-2.77 4.6-2.66-4.44 3-4.37 3.11c.16.27 10.74-6.57 10.9-6.29s-10.71 6.7-10.56 7 10.71-6.55 10.87-6.28-10.7 6.43-10.54 6.7 10.54-6.44 10.69-6.17-10.53 6.24-10.38 6.51 10.32-6.31 10.47-6-9.85 6-9.71 6.27 9.57-5.85 9.71-5.6-8.13 5.33-8 5.54 7.72-4.72 7.84-4.52-6.36 4.15-6.27 4.32 5.87-3.59 6-3.44S23 17.3 23 17.42s3.59-2.2 3.65-2.11"/><path class="cls-1" d="M17.62 8s.89-.54.9-.52-1.08.92-1.06 1 2.17-1.33 2.2-1.27S17.45 8.94 17.49 9c.14.24 9.49-5.8 9.62-5.56s-9.6 6.14-9.46 6.38 9.48-5.79 9.62-5.55-9.56 5.91-9.42 6.15 9.24-5.65 9.38-5.41-8.69 5.62-8.56 5.85 8.13-5 8.25-4.76-7.33 4.47-7.22 4.65 6.57-4 6.66-3.85-5.36 3.56-5.29 3.7 3.71-2.27 3.77-2.18-3.18 2.2-3.14 2.29 3.58-2.19 3.63-2.1-3 2.48-3 2.56S26.07 8.92 26.12 9s-3.62 2.66-3.57 2.76 4-2.45 4.06-2.35-4.52 2.94-4.45 3.06 4.65-2.84 4.72-2.73"/><path class="cls-1" d="M15.15 2.23s1.23-.75 1.24-.72-1.34 1.57-1.31 1.61 4.44-2.7 4.5-2.59-4.39 2.88-4.32 3S20.66.22 20.74.35 15.49 4 15.57 4.13s6.59-4 6.68-3.86-6.42 4.4-6.32 4.57S23.43.26 23.54.45s-7.45 4.62-7.34 4.81 7.88-4.82 8-4.62-7.88 4.66-7.77 4.86 8-4.9 8.13-4.69-7.18 4.48-7.07 4.67S25 .88 25.12 1.07s-5.7 3.43-5.61 3.58 5.83-3.56 5.91-3.41-4.55 3-4.48 3.12 4.77-2.92 4.84-2.79-4 2.89-3.93 3S26.21 1.89 26.27 2s-4.13 3.2-4.06 3.32 4.48-2.74 4.55-2.63-5 3.16-5 3.29 5.07-3.1 5.15-3"/><path class="cls-1" d="M16.64 1.46s.48-.3.49-.28 2.77-.79 2.8-.73l.18-.1s1.3-.07 1.32 0l.16-.1s1.11.11 1.13.13l.11-.06s.67.16.68.17l.11-.06s.89.4.9.42h.09s.75.44.76.46h.08l.4.45h.07l.19.27h.07l.39.59h.07l.19.46h.07s.22.68.23.7h.08s.06.76.07.78h.07s-.13.69-.12.71l.1-.06s-.45 1.2-.44 1.22L27 6s-.67.78-.66.8l.18-.11s-1.27 1-1.25 1.06.56-.34.56-.33S25 8.46 25 8.49l.1-.06s.81.4.83.42h.08l.44.48h.08l.29.37h.07l.1.32h.07l.21.5h.07s.1.45.11.46h.07s.14.84.15.85h.07v.95l.09-.05s-.19.57-.18.58l.11-.06s-.23.71-.22.73l.13-.07s-.48.83-.46.85l.16-.09s-.57.78-.56.8l.16-.09m-11.85-1.45l.12-.07v.74h.07l.19.57h.07l.19.55h.07l.23.63h.07l.16.51h.07l.24.66h.07l.26.38H17s.7.47.71.49l.1-.06s.6.13.6.15l.16-.09h1l.17-.1s1.75-.21 1.77-.17l.25-.14s1.45-.32 1.47-.29.4-.24.41-.23m-7.83-3.83l.13-.08s.8.13.81.15l.13-.07s.92.07.93.09l.16-.09h.9l.16-.09s1.8-.36 1.82-.32l.28-.16M17.57 7.9l.16-.09s-.36.66-.35.68h.08v.6h.08v.4h.08v.5h.08s.12.5.13.52h.06l.25.44.1-.06s1.42 0 1.43.06l.29-.16s.93 0 .95.07l.11-.06s.58.16.59.17l.1-.06.46.4h.07s.21.77.22.79l.13-.07s-.38.57-.37.59l.24-.14m-3.92-5.04l.28-.16s.86-.18.87-.16.41-.25.42-.24"/><path class="cls-1" d="M15.13 2.17s.36-.22.37-.21S15 3.07 15 3.1l.09-.1s.07.44.08.45h.07l.24.66h.07l.29.75h.07l.18.47h.07l.16.29h.07s.59.22.6.24l.22-.13s1.66-.68 1.68-.64.33-.2.33-.19 1.38-.3 1.39-.27l.19-.11s.91.18.92.2l.1-.06.34.78.1-.06s-.52.69-.51.71l.19-.11"/></g></g></svg>