<svg xmlns="http://www.w3.org/2000/svg" width="146" height="21" viewBox="0 0 146 21"><defs><style>.a{fill:#5d0e5a}.b{fill:#6d2e6a}.c{fill:none}</style></defs><title>txt_ending</title><path class="a" d="M16.3 11.31a.12.12 0 0 0 .14.14h4.29a.75.75 0 0 1 .51.19.73.73 0 0 1 0 1.07.75.75 0 0 1-.53.22H10.48a.75.75 0 0 1-.53-.22.7.7 0 0 1-.23-.53.66.66 0 0 1 .23-.52.75.75 0 0 1 .51-.19h4.2a.12.12 0 0 0 .14-.14V5.46a.12.12 0 0 0-.14-.14h-3.34a.72.72 0 0 1-.51-.21.68.68 0 0 1 0-1 .7.7 0 0 1 .49-.19H20a.7.7 0 0 1 .49.19.68.68 0 0 1 0 1 .69.69 0 0 1-.51.21h-3.54a.12.12 0 0 0-.14.14zm9.89 2.29h-.27a1.2 1.2 0 0 1-.46-.1 1.27 1.27 0 0 1-.57-.48.62.62 0 0 1-.08-.3.74.74 0 0 1 0-.23.59.59 0 0 1 .42-.34 14.33 14.33 0 0 0 4.66-1.8 13 13 0 0 0 2.54-2.06 13.7 13.7 0 0 0 1.9-2.46.45.45 0 0 1 .42-.25.44.44 0 0 1 .41.25 1.41 1.41 0 0 1 .21.74 1.32 1.32 0 0 1-.23.77 14.53 14.53 0 0 1-1.95 2.36 13.67 13.67 0 0 1-2.51 2 15.86 15.86 0 0 1-4.49 1.9zm-.75-9.11a.65.65 0 0 1-.27-.49.15.15 0 0 1 0-.07.63.63 0 0 1 .18-.44.88.88 0 0 1 .55-.27h.1a.83.83 0 0 1 .48.15q1.3 1 2.41 2a.72.72 0 0 1 .25.56.76.76 0 0 1-.23.56.71.71 0 0 1-.55.23.79.79 0 0 1-.56-.22q-1.22-1.12-2.37-2.01zM39 6.62h9.65a.7.7 0 0 1 .46.18.61.61 0 0 1 .22.48.67.67 0 0 1-.22.51.69.69 0 0 1-.49.19h-3.95a.14.14 0 0 0-.15.14 8.35 8.35 0 0 1-.86 3.58 5.3 5.3 0 0 1-.85 1.16 7.37 7.37 0 0 1-1.23 1 1.09 1.09 0 0 1-.62.19h-.05a1.27 1.27 0 0 1-.67-.25.46.46 0 0 1-.19-.38.49.49 0 0 1 .26-.45 5.39 5.39 0 0 0 1.87-1.74A6.43 6.43 0 0 0 43 8.11.13.13 0 0 0 43 8a.13.13 0 0 0-.1 0h-4.49a.69.69 0 0 1-.49-.19.65.65 0 0 1-.22-.49.63.63 0 0 1 .22-.49.64.64 0 0 1 .46-.19H39zm6.47-2.21H40a.68.68 0 0 1-.68-.68.63.63 0 0 1 .21-.48.7.7 0 0 1 .47-.17h6.14a.66.66 0 0 1 .46.18.61.61 0 0 1 .22.48.65.65 0 0 1-.22.49.67.67 0 0 1-.48.19h-.71zm3.06-1a.41.41 0 0 1 0 .37.45.45 0 0 1-.26.27.5.5 0 0 1-.39 0 .54.54 0 0 1-.29-.25c-.22-.4-.43-.8-.59-1.06a.43.43 0 0 1 0-.34.39.39 0 0 1 .23-.26.57.57 0 0 1 .4 0 .54.54 0 0 1 .31.24q.24.49.56 1.05zm.07-1.29a.4.4 0 0 1-.07-.22.24.24 0 0 1 0-.11.34.34 0 0 1 .22-.26.66.66 0 0 1 .23 0h.16a.65.65 0 0 1 .33.25q.36.53.66 1.07a.41.41 0 0 1 .05.21.39.39 0 0 1 0 .15.45.45 0 0 1-.26.27.51.51 0 0 1-.21 0h-.18a.55.55 0 0 1-.3-.26c-.23-.39-.44-.75-.66-1.08zm11.53 3.25a.82.82 0 0 1 .53-.23.73.73 0 0 1 .49.19.71.71 0 0 1 .23.53.67.67 0 0 1-.22.51 19.05 19.05 0 0 1-2.46 1.92.23.23 0 0 0-.11.21v5.26a.78.78 0 0 1-.21.53.7.7 0 0 1-.55.25.77.77 0 0 1-.75-.77V9.36a.08.08 0 0 0 0-.07.11.11 0 0 0-.08 0 23.23 23.23 0 0 1-3.38 1.39.72.72 0 0 1-.27.05.86.86 0 0 1-.34-.07.93.93 0 0 1-.46-.41.52.52 0 0 1-.08-.27.5.5 0 0 1 .05-.22.54.54 0 0 1 .38-.33 17 17 0 0 0 2.24-.78 16 16 0 0 0 1.93-1 14.51 14.51 0 0 0 3.06-2.28zm8.06 8.23h-.27a1.2 1.2 0 0 1-.46-.1 1.27 1.27 0 0 1-.57-.48.62.62 0 0 1-.08-.3.74.74 0 0 1 0-.23.59.59 0 0 1 .42-.34 14.33 14.33 0 0 0 4.66-1.8 13 13 0 0 0 2.54-2.06 13.7 13.7 0 0 0 1.9-2.46.45.45 0 0 1 .42-.25.44.44 0 0 1 .41.25 1.41 1.41 0 0 1 .21.74 1.32 1.32 0 0 1-.23.77 14.53 14.53 0 0 1-1.95 2.36 13.67 13.67 0 0 1-2.51 2 15.86 15.86 0 0 1-4.49 1.9zm-.75-9.11a.65.65 0 0 1-.27-.49.15.15 0 0 1 0-.07.63.63 0 0 1 .18-.44.88.88 0 0 1 .55-.27h.1a.83.83 0 0 1 .48.15q1.3 1 2.41 2a.72.72 0 0 1 .25.56.76.76 0 0 1-.23.56.71.71 0 0 1-.55.23.79.79 0 0 1-.56-.22q-1.22-1.12-2.37-2.01zM85 4.31a.07.07 0 0 0 0 .08.08.08 0 0 0 .07 0h3.88a1.85 1.85 0 0 1 1 .23.68.68 0 0 1 .31.42.89.89 0 0 1 0 .22 1 1 0 0 1-.05.31c0 .08-.07.16-.1.25a14.86 14.86 0 0 1-1 2.41 11.73 11.73 0 0 1-1.51 2.37 12.44 12.44 0 0 1-4.79 3.54 1.32 1.32 0 0 1-.52.11h-.25a1.35 1.35 0 0 1-.7-.34.46.46 0 0 1-.16-.3.51.51 0 0 1 .07-.33.52.52 0 0 1 .27-.22 11.09 11.09 0 0 0 4.79-3.21 10.16 10.16 0 0 0 1.3-2 9.76 9.76 0 0 0 .81-2 .11.11 0 0 0 0-.1.11.11 0 0 0-.09 0H84.2a.26.26 0 0 0-.2.05 14.48 14.48 0 0 1-2.83 2.86 1 1 0 0 1-.6.21 1.13 1.13 0 0 1-.63-.22.48.48 0 0 1-.21-.41.52.52 0 0 1 .23-.45 12 12 0 0 0 3.76-4.22q.1-.18.22-.45a1 1 0 0 1 .46-.49.81.81 0 0 1 .38-.1.9.9 0 0 1 .26 0 .66.66 0 0 1 .42.41.77.77 0 0 1 0 .25.67.67 0 0 1-.1.34l-.29.51-.07.14zm3.8-1.45a.4.4 0 0 1-.07-.22.68.68 0 0 1 0-.12.41.41 0 0 1 .23-.26.57.57 0 0 1 .4 0 .54.54 0 0 1 .31.24q.31.51.63 1.08a.43.43 0 0 1 0 .36.46.46 0 0 1-.25.27.62.62 0 0 1-.22 0h-.18a.49.49 0 0 1-.3-.26c-.21-.42-.41-.78-.59-1.09zm1.59-.6a.43.43 0 0 1-.11-.26.48.48 0 0 1 0-.11.42.42 0 0 1 .22-.26.73.73 0 0 1 .23 0h.18a.52.52 0 0 1 .31.23q.34.52.66 1.07a.5.5 0 0 1 .05.22.46.46 0 0 1 0 .15.4.4 0 0 1-.25.27.59.59 0 0 1-.21 0 .53.53 0 0 1-.18 0 .49.49 0 0 1-.3-.26c-.21-.31-.42-.72-.64-1.05zm9.91 10.37a.12.12 0 0 0 .14.14h4.74a.63.63 0 0 1 .45.19.63.63 0 0 1 0 .9.63.63 0 0 1-.45.18H94.05a.63.63 0 0 1-.45-.18.63.63 0 0 1 0-.9.63.63 0 0 1 .45-.19h4.69a.12.12 0 0 0 .14-.14V9.81a.12.12 0 0 0-.14-.14h-3.39a.61.61 0 0 1-.44-.18.64.64 0 0 1 0-.9.61.61 0 0 1 .44-.19h3.39a.12.12 0 0 0 .14-.14v-2.5a.12.12 0 0 0-.14-.14h-4.06A.65.65 0 0 1 94 5a.65.65 0 0 1 .64-.64h5.16V4.3a18.42 18.42 0 0 0-1.6-1.52.43.43 0 0 1-.2-.37.44.44 0 0 1 .21-.41.93.93 0 0 1 1.05 0 17.15 17.15 0 0 1 1.56 1.29.6.6 0 0 1 .19.44.65.65 0 0 1-.27.55h3.73a.6.6 0 0 1 .44.19.63.63 0 0 1 .18.45.63.63 0 0 1-.18.45.59.59 0 0 1-.44.19h-4a.12.12 0 0 0-.14.14v2.5a.12.12 0 0 0 .14.14h3.43a.61.61 0 0 1 .44.19.64.64 0 0 1 0 .9.61.61 0 0 1-.44.18h-3.43a.12.12 0 0 0-.14.14zm10.92-1.75a.12.12 0 0 0-.14.14v1.56a.17.17 0 0 0 .12.18 11.86 11.86 0 0 0 3.6.4h4.72a.34.34 0 0 1 .3.16.47.47 0 0 1 .05.21.39.39 0 0 1 0 .15.92.92 0 0 1-.3.4.75.75 0 0 1-.46.16h-4.28a14 14 0 0 1-3.66-.38 4 4 0 0 1-2.17-1.58.07.07 0 0 0-.07 0 5.87 5.87 0 0 1-.67 1.76.36.36 0 0 1-.33.18.46.46 0 0 1-.37-.18.73.73 0 0 1-.19-.42v-.1a.8.8 0 0 1 .1-.38 8.5 8.5 0 0 0 .7-3.4.57.57 0 0 1 .17-.37.52.52 0 0 1 .38-.16.5.5 0 0 1 .38.16.48.48 0 0 1 .14.38q0 .48-.07.9a.43.43 0 0 0 .05.26 3.86 3.86 0 0 0 .72 1 .07.07 0 0 0 .08 0 .05.05 0 0 0 0-.05V8.72a.12.12 0 0 0-.14-.14h-2a.48.48 0 0 1-.36-.15.5.5 0 0 1-.14-.36.47.47 0 0 1 .14-.35.49.49 0 0 1 .36-.14H113a.49.49 0 0 1 .49.49.5.5 0 0 1-.14.36.46.46 0 0 1-.35.15h-1.82a.12.12 0 0 0-.14.14v1a.12.12 0 0 0 .14.14h1.57a.46.46 0 0 1 .33.14.5.5 0 0 1 0 .7.46.46 0 0 1-.33.14zm.38-8.67a1.19 1.19 0 0 1 1.2 1.19v2.06a1.19 1.19 0 0 1-1.19 1.19h-2.39A1.19 1.19 0 0 1 108 5.46V3.4a1.19 1.19 0 0 1 1.19-1.19zM111.46 4a.12.12 0 0 0 .14-.14v-.61a.12.12 0 0 0-.14-.14h-2.15a.12.12 0 0 0-.14.14v.62a.12.12 0 0 0 .14.14zm0 1.75a.12.12 0 0 0 .14-.14V5a.12.12 0 0 0-.14-.14h-2.15a.12.12 0 0 0-.14.14v.63a.12.12 0 0 0 .14.14zM114.7 11a1 1 0 0 1 .66-.29 1 1 0 0 1 .27 0 .39.39 0 0 1 .25.26.31.31 0 0 1-.09.34 8.18 8.18 0 0 1-1.57 1.31.68.68 0 0 1-.37.11h-.11a.83.83 0 0 1-.44-.22.39.39 0 0 1-.12-.33.36.36 0 0 1 .2-.29 6.6 6.6 0 0 0 1.32-.89zm-.75-5.62a1.19 1.19 0 0 1 1.19-1.19h.45a.17.17 0 0 0 .18-.12l.18-.66a.09.09 0 0 0 0-.08.09.09 0 0 0-.08 0h-1.91a.45.45 0 0 1-.34-.14.5.5 0 0 1 0-.68.45.45 0 0 1 .34-.14h5.39a.48.48 0 0 1 .35.14.48.48 0 0 1 0 .68.47.47 0 0 1-.35.14h-2a.19.19 0 0 0-.19.12l-.26.66a.07.07 0 0 0 0 .08.09.09 0 0 0 .08 0h1.16a1.19 1.19 0 0 1 1.19 1.19v3.8a1.19 1.19 0 0 1-1.19 1.19h-3a1.19 1.19 0 0 1-1.19-1.19zm4 .6a.12.12 0 0 0 .14-.14v-.62a.12.12 0 0 0-.14-.14h-2.69a.12.12 0 0 0-.14.14v.58a.12.12 0 0 0 .14.14zm0 1.74a.12.12 0 0 0 .14-.14V7a.12.12 0 0 0-.14-.14h-2.69a.12.12 0 0 0-.14.14v.59a.12.12 0 0 0 .14.14zm0 1.76a.12.12 0 0 0 .14-.14V8.7a.12.12 0 0 0-.14-.14h-2.69a.12.12 0 0 0-.14.14v.6a.12.12 0 0 0 .14.14zm-.52 1.85a.32.32 0 0 1-.12-.29.3.3 0 0 1 .16-.26.86.86 0 0 1 .42-.12.8.8 0 0 1 .46.16 12.07 12.07 0 0 1 1.3 1.09.41.41 0 0 1 .12.36.46.46 0 0 1-.21.33.66.66 0 0 1-.34.1h-.1a.8.8 0 0 1-.41-.21 12 12 0 0 0-1.28-1.2zm14.06-6.02a.12.12 0 0 0-.14.14v1.78a7.63 7.63 0 0 0 .1 1.13 12.21 12.21 0 0 0 .33 1.46 7.15 7.15 0 0 0 .72 1.67 6.49 6.49 0 0 0 1.16 1.51.7.7 0 0 1 .25.46.42.42 0 0 1 0 .1.69.69 0 0 1-.14.41.59.59 0 0 1-.42.27h-.11a.53.53 0 0 1-.37-.15 5.84 5.84 0 0 1-1.11-1.47 9.18 9.18 0 0 1-.7-1.56 8.32 8.32 0 0 1-.31-1.31 8.21 8.21 0 0 1-.64 2.09 6.63 6.63 0 0 1-1.36 2 .78.78 0 0 1-.55.23h-.2a1 1 0 0 1-.64-.41h-.05a.82.82 0 0 1-.45.64 3.82 3.82 0 0 1-1.26.16.67.67 0 0 1-.42-.15.82.82 0 0 1-.27-.38.36.36 0 0 1 0-.35.35.35 0 0 1 .3-.16h.71a.35.35 0 0 0 .18-.05.19.19 0 0 0 0-.15V9.45a.12.12 0 0 0-.14-.14h-4.26a.54.54 0 0 1-.55-.54.55.55 0 0 1 .16-.39.52.52 0 0 1 .39-.16h6.14a.52.52 0 0 1 .39.16.55.55 0 0 1 .16.39.54.54 0 0 1-.55.54h-.41a.1.1 0 0 0-.11.11v3.78a.07.07 0 0 0 0 .06.06.06 0 0 0 .08 0 5.64 5.64 0 0 0 1.14-1.18 7 7 0 0 0 .78-1.35 8.62 8.62 0 0 0 .45-1.37 9.81 9.81 0 0 0 .23-1.21 8.61 8.61 0 0 0 .05-.92V5.45a.12.12 0 0 0-.14-.14h-.3a.17.17 0 0 0-.18.14 11.45 11.45 0 0 1-.74 1.87.53.53 0 0 1-.38.29h-.15a.6.6 0 0 1-.33-.1.64.64 0 0 1-.29-.4.51.51 0 0 1 0-.16.65.65 0 0 1 .08-.31 13.25 13.25 0 0 0 1.29-4.33.66.66 0 0 1 .25-.42.6.6 0 0 1 .37-.12h.1A.56.56 0 0 1 130 2a.58.58 0 0 1 .12.36v.14q-.14.85-.3 1.49a.1.1 0 0 0 0 .1.11.11 0 0 0 .09 0h3a.72.72 0 0 1 .34 0l.26.05a.46.46 0 0 1 .38.45.23.23 0 0 1 0 .07q-.23 1.44-.53 2.6a.55.55 0 0 1-.25.34.57.57 0 0 1-.3.08h-.12a.48.48 0 0 1-.33-.23.57.57 0 0 1-.08-.41q.18-.76.29-1.61a.11.11 0 0 0 0-.1.11.11 0 0 0-.09 0zm-5.33 1.46V3.59a.12.12 0 0 0-.14-.14h-4.2a.53.53 0 0 1-.38-.91.51.51 0 0 1 .38-.16h5.88a.53.53 0 0 1 .38.91.51.51 0 0 1-.38.16h-.3c-.07 0-.11 0-.11.1v3.24a1.57 1.57 0 0 1-.1.63.7.7 0 0 1-.37.33 3.39 3.39 0 0 1-1.27.16.55.55 0 0 1-.4-.13.85.85 0 0 1-.26-.35.36.36 0 0 1 0-.32.31.31 0 0 1 .27-.14h.71a.3.3 0 0 0 .18 0 .16.16 0 0 0 .1-.19zm-.89 5a1.19 1.19 0 0 1-1.19 1.23h-1.28s-.05 0-.05.07v.05a.49.49 0 1 1-1 0v-1.89A1.19 1.19 0 0 1 123 10h1.12a1.19 1.19 0 0 1 1.19 1.19zM124 4.1a1.19 1.19 0 0 1 1.19 1.19v.37A1.19 1.19 0 0 1 124 6.84h-1.19a.44.44 0 0 1-.13.32.42.42 0 0 1-.31.13h-.05a.46.46 0 0 1-.33-.14.48.48 0 0 1-.14-.35V5.28A1.19 1.19 0 0 1 123 4.1zm.26 7a.12.12 0 0 0-.14-.14h-1.27a.12.12 0 0 0-.14.14v.9a.12.12 0 0 0 .14.14h1.27a.12.12 0 0 0 .14-.14zm-.18-5a.12.12 0 0 0 .14-.14v-.91a.12.12 0 0 0-.14-.14h-1.18a.12.12 0 0 0-.14.14v.83a.12.12 0 0 0 .14.14z"/><path class="b" d="M141.64 19.82c.07 0 0-.14-.17-.12l-.14.17zm-1.34-.31c-.23.08-.5.22-.35.37.23-.16.29-.09.54-.28.2 0 .35.05.31.11s.31 0 .42-.07a1.26 1.26 0 0 0-.93 0c-.08-.05-.01-.09.01-.13zm-19.47-.25h.13zm-12.06-.09h.13s-.15-.02-.13 0zm-2.06-.17h.12a.19.19 0 0 0-.12 0zm14.12.26l-.32-.05c-.02.05.16.03.32.05zm16.78.65h.18-.16zm-11.46-.79h.1l.08-.07zm4.08-.02c-.09 0-.12.13-.16.2a.31.31 0 0 1 .2-.1.16.16 0 0 0-.04-.1zm6.47.24h.11zm-13.47-.25a.1.1 0 0 0 0-.05s-.02.04 0 .05zM9.09 20.15s-.03 0 0 0zm-4.73-.7h.07a.32.32 0 0 0 0-.08zm98.58-.65c.12-.01.06-.01 0 0zm-34.6.11c.39.13-.64.16 0 .3-.1-.06.49-.21 0-.3zm69.17.99zm-69.22-.69zm25.97-.32a.25.25 0 0 0 .09.06s-.03-.03-.09-.06zm6.47.2h-.16zm-9.83 0a.6.6 0 0 0-.24 0 .3.3 0 0 1 .24 0zm-3.5 0h.17zm-67.68.99a.51.51 0 0 1-.16-.13c.05.1-.46.14.16.13zm117.89-.25a.12.12 0 0 1-.1.06h.12s.01-.04-.02-.06zm-46.85.37h-.56zm-45.96-.14h-.13a.26.26 0 0 0 .13 0zm43.75.14a1.12 1.12 0 0 0-.31-.1h-.06zm-69-.2z"/><path class="b" d="M15.9 20.29c.53 0 .25-.18.36-.29.63-.05.29.14.51.23a10 10 0 0 1 1-.21s.08 0 0 .08c.42-.15 1.24 0 1.72-.19h.06a.29.29 0 0 1-.07-.25c.24 0 .44-.12.53 0-.15 0-.16 0-.23.08l.25-.05c.22.17-.34.06-.34.19a7.31 7.31 0 0 1 1.42-.15c.08.17-.87.06-.37.21l-.57-.06c.44.27-.35 0 .05.27.76 0 .85-.09 1.6 0 .17-.09-.06-.14.11-.23 1.07-.17.84.43 1.63.2a.84.84 0 0 1 .84-.21l-.19.19c.73 0 .42-.28 1.19-.15-.14.08-.58.06-.46.09.5.15.35-.11.73-.11l.08.17c.78 0 1.64-.15 2.5-.18 0 .05-.2.1 0 .16a20.37 20.37 0 0 1 3.38.12L32 20c.09 0 .17.07.07.09.41.06 0-.09.22-.15s.31.08.16.13a9.43 9.43 0 0 1 2.86-.07h-.15c.59.06.67-.3 1.22-.16h-.11a26.63 26.63 0 0 1 3.69.15c.19-.21 1.27.09 1.36-.2a8 8 0 0 0 1.56.3c.28 0 .41-.18.75-.21v.15l.46-.16.25.18h.32c-.13 0-.27-.07-.25-.11a2.22 2.22 0 0 1 1.23.19l1.2-.13c0 .06-.22.08-.38.12.63-.16.11.16.69 0-.08 0 0-.09.05-.12a4.88 4.88 0 0 0 1.43.05l-.09.11c.88 0 1.85-.05 2.84 0-.35 0-.27-.23 0-.25l.12.16c.19-.1-.3-.06.08-.18s.25.19 0 .24l.45-.06s-.08.07-.11.14c.18-.1.77.16 1 0 1 0 1.43-.05 2.24-.06 0-.14.33-.11.57-.22a19.56 19.56 0 0 0 2 .14c.5-.07.15-.12.37-.2 0 .13.75.12.38.21.85 0 1.09 0 2.17-.13-.12-.05-.25-.08-.18-.12s.45.05.42.12h.01c1.21-.19 2.79.37 3.76.11h-.06l1-.14c.46 0-.28.1.06.18 1.08-.21 1.7 0 2.59-.11.69.38 2.44 0 3.37.21l-.05-.09c.24-.09.29.05.47.07 0-.07-.26-.08-.11-.13 2-.11 4.19.13 6.28.21.76 0 .43-.46 1.39-.25l-.27.17c1.54-.2 3.14 0 4.65-.16-.09 0-.09.09-.24.09a1.92 1.92 0 0 0 1.18-.11c.23 0 .05.09.2.14.32.07.8-.15 1 0s-.09 0-.15 0c.21-.06 1 0 .77-.12.56.07 1.08-.06 1.53 0 .29-.15 1 .07 1.06-.14 0 .23 1 .18 1.35.08-.12.07.31.07.17.17.41 0 .78 0 .71-.16.75.27 1.51-.22 1.93.13 1.21-.12 2.33-.2 3.42-.26 0 .23-1.2 0-1.16.26a16.24 16.24 0 0 1 2.65-.23c.27 0-.15.1-.24.14 1-.09 2 0 2.92-.1 0 0-.1 0-.2.06.18 0 .42 0 .4-.07h-.18c-.29-.15.72-.31.75-.39-.31.29.91.07.42.45.12 0 .27-.07.24-.14.18 0 .23.06.05.14.65-.06.42-.16 1-.16 0 0-.12.07-.18.13a2.46 2.46 0 0 1 1.09-.15s0 .07-.12.07a16.79 16.79 0 0 1 2.39-.16c-.28.22.32.07.37.26l.5-.06-.2-.09a9 9 0 0 1 1.21-.07l-.33.08h.83l-.47-.07c.45-.1 0-.24.54-.18a4 4 0 0 1 .67.11 1.72 1.72 0 0 1 .77-.08c.08.06-.07.21 0 .25.22-.16 1 0 1.3-.21-.09 0-.1.14-.07.16l.18-.13c.2 0 .23.06.2.14.61 0-.19-.24.53-.13h-.15c.73.05 1.41-.08 2.09 0 .2.19-.59 0-.36.2 1 0 2-.23 2.95-.18h-.17c.13-.27.7.13 1.17 0-.12 0-.15.15-.12.12a16.6 16.6 0 0 0 2.29-.15l-.12.07c.38.06 1 0 1.41.07.12-.07.36-.06.21-.16 1.26.39 2.41-.21 3.52.12-.13 0-.32.06-.21.06l1-.06c-.08-.12-.12-.07-.33-.16a1.51 1.51 0 0 1 .63-.12c-.43.08 0 .19.19.25v-.11c.5.21.08-.23.76-.09v.06a3.92 3.92 0 0 1 .76-.09c.11.13-.27.06-.29.17.39 0 .76-.25 1.11-.12-.16 0-.4 0-.56.07a1.57 1.57 0 0 0 .71.14l.65.07h-.17c.48-.35 1-.06 1.63-.29-.63.22-.1.13-.15.28.17 0 .42.09.35.13.31-.12.51.1.95-.08 0 0 .33 0 .26.13.4 0-.09-.08-.06-.15.62-.17 1.45.2 2.33 0s.9-.26 1.61-.34c.24.08-.2.18-.2.18a2.85 2.85 0 0 0 1 0c-.07 0 0 .08.11.13.29 0 .19-.18.58-.11a1 1 0 0 1-.29.2c.34 0 .68-.14 1-.18.09.08-.21.13-.34.18a3.15 3.15 0 0 0 1.16-.21h-.26c.15 0 .08.12 0 .14-.34.11-.49 0-.51-.1h.25c-.26-.29-1 0-1.53 0l.21-.21-.52.17c-.11-.05-.19-.17.06-.2-.37-.1-.32.07-.64 0l-.36.06c.07 0-.06-.15.16-.12-.64-.12-1 .16-1.28 0h.05c-.89.07-.09.15-.75.33l-.45-.38-.09.15c-.09 0-.27 0-.24-.08-.34.1.06.07-.14.17-.44-.14-1.22.07-1.32-.18-.16.12.42.09 0 .17-.13-.26-.55 0-.95-.08.12-.14.51-.06.1-.18-.24.23-.79 0-1.13 0 0 .18-.74.08-1.31.14a15.18 15.18 0 0 0-1.61-.17c-.1.18-.65.15-1.05.19 0-.11.09-.15.3-.2h-.38a.93.93 0 0 1-.45.11l.09-.14a8.61 8.61 0 0 1-1.65.07c0 .13.51.36-.17.44 0-.07-.05-.19.13-.22a.81.81 0 0 1-.32 0l.27-.12c-.29-.05-.15.1-.39.09 0-.1-.17-.07-.14-.15s.2 0 .29 0a1.82 1.82 0 0 1-.69-.15c0 .06 0 .13-.19.15-.5 0-.17-.12-.46-.17-.12.07-.44 0-.45.15s-.17-.07-.23-.11c-.26.07-1.21 0-.92.18-.85.15-1.76-.08-2.6 0a11.56 11.56 0 0 0-1.48.14c-.15 0-.35-.09-.29-.15a2.64 2.64 0 0 1-1 0c.39-.09-.13-.08.4-.06a2.51 2.51 0 0 0-1.15 0c.18-.13-.38-.16-.61-.12l.35.09a6.16 6.16 0 0 1-.74 0L114 19c-1-.2-1.84.34-2.62 0-.27.12.55.08.31.22a7.78 7.78 0 0 1-1.1-.26c-.64-.09-.6.24-1.27.18.09.06.17.22-.34.27s-.58-.25-.28-.3h.16c.15 0 .35 0 .17-.11l-.06.06c-.23-.06-.88-.05-.73-.15-.35.06-.15.1.11.13-.6-.09-.94 0-1.56-.06.1 0 .19.1.09.1-.91-.07-.4.11-1 .14-.35-.09.13-.22-.49-.14-.38-.06-.08-.16.07-.21a4.15 4.15 0 0 1-1.38-.1h.3a2.76 2.76 0 0 1-.47 0l.17.12c-.17 0-.32 0-.32-.07-.18.08.14.2-.22.3-.23-.06-.71.06-.79-.09.73.05-.08-.16.54-.18a1.64 1.64 0 0 1-.44 0h.07c-.7-.14-.32.18-1 .17.09-.09-.17-.17-.29-.15.29 0 .14.15-.13.22-.47-.07-.51.05-.75 0h.28c-.09.09-.33.08-.65.1 0-.07.29 0 .18-.08-.36.16-.81-.16-1.32-.06-.23-.06 0-.17-.23-.21-.56.12-.61-.12-1.2 0 .17.12.2.09-.22.21l1-.08-.62.17c.29 0 .62-.08.8-.05-.3.1-.27.07-.13.17-.4-.18-.8.1-1.26 0V19c-.7-.13-1.24.15-2.15.08l.29.05c-.12.12-.56 0-.85.06 0-.1-.16-.13-.28-.2s-.66 0-.75.19l-.4-.13c-.73-.05-.84.28-1.54.25.21-.11-.11-.18.36-.25h-.45s-.65.13-.87 0-.13.15-.4.14-.41.07-.18.18c-.72-.31-2 0-2.66-.24-.51 0-1.13.06-1.6.07h.09c-.64-.09-.4.28-1.13.18-.37-.16.39-.09.16-.15-.1-.32-.88 0-1.37-.15h.12c-.38-.11-.92.12-1.53.1a7.76 7.76 0 0 1-1.81.27c.18-.13.27-.07.16-.2-.27 0 .08.21-.45.24-.17-.07-.55-.13-.6-.27H80c-.26-.18-.65 0-.91 0v-.08c-.76 0-.78.22-1.6.21l.08.06c-.45.19-.38-.11-.82 0l-.14-.2c-.3 0-1 .19-1.57.23a7.82 7.82 0 0 1 1.35-.44 4 4 0 0 0-1.15.11 1 1 0 0 1 .38 0 3.58 3.58 0 0 1-1.42.23c.1-.38-1.53-.1-2-.39a30.3 30.3 0 0 1-3.26 0c.43.3-.35 0-.28.31a1.06 1.06 0 0 1-.41 0l-.81-.26c-.2-.09.27-.07.24-.14-.62 0-.26-.13-.67-.21.08.11-.21.16-.56.11l.49.14c-.86.16-.74-.26-1.61-.1l.27-.1a7.76 7.76 0 0 0-2.08.24c-.08 0-.18-.12 0-.14-1.06 0-2.37.26-3.19.11l.08-.07c-.2 0-.35.14-.59.07 0 0 .08-.07 0-.08A2.41 2.41 0 0 1 59 19l.22-.08a12.32 12.32 0 0 0-2.46.26c0-.22-.81-.29-1.22-.33a27.91 27.91 0 0 0-3.17.27A30 30 0 0 0 49 18.8c.17 0 0 .17-.23.19s-.72.15-.68 0h.09c-.2-.2-.74-.15-1.16-.15l-.07.26c-1.1-.38-2.88.14-3.48-.2-.27.07-.59.07-.86.13v-.14a18.71 18.71 0 0 0-2 0l.19-.1c-.51 0-.65.41-1.12.42l-.14-.21a12.75 12.75 0 0 0-2.68 0s0-.09.19-.1c-.42 0-1.63-.14-1.47.15 0-.19-.92 0-1.4.06l.08-.14a2.12 2.12 0 0 1-1 .28c-.13 0-.12-.11.06-.08-.45-.07-.35.13-.89.06l.2-.09a1 1 0 0 0-.68.14c-.29.06-.88 0-.94-.16a.76.76 0 0 1-.59.14s.06-.08.11-.09c-.77-.09-1.15.16-1.68 0a.12.12 0 0 0-.09-.08h1.06c-.05 0-.5-.15-.1-.33a5 5 0 0 1-1.56.25h-.06.05a.89.89 0 0 0-.31 0 2.9 2.9 0 0 0-.4 0c-.06-.11-.57-.06-.82-.06 0 .14-.3.12 0 .23h.91a1 1 0 0 1-.67.05l-.35.23c-.34-.2-1-.3-1.08-.42a7.75 7.75 0 0 0-2.25.32c-.21 0-.25-.08-.33-.12a1.82 1.82 0 0 0 .34-.06c-.43.07-1.27 0-1.37.21-.54-.08.3-.17-.44-.14l.1-.06c-1.46-.29-2.38.47-4 .09.11 0 .17 0 .19.06-1.85-.17-3.81.16-5.63-.11a1.56 1.56 0 0 0-.89.15l-.15-.26-.54.17c-.77.13-1.33-.37-2.3-.13l.13.1c-.35 0-1.1.06-1-.06a.25.25 0 0 1-.25.05v-.08l-.86.14c-.66-.06.1-.31-.87-.33-.36 0-1 .23-.89.28s.37 0 .38.13h-.33c-.06.23-.31.47.5.63l.56-.14.18.11h-.52a.79.79 0 0 0 .63.01.37.37 0 0 0 .24.12l.55-.22c.07.09-.25.18.12.23.26-.1-.25-.2.18-.27.27.11.19.19.51.1 0 .06 0 .1-.15.12.28-.07.75 0 .89-.15.28.13 1 0 .92.19a2.4 2.4 0 0 1 .75-.18c-.47.26 1 0 .84.3.33-.24 1.33-.11 1.9-.24a.26.26 0 0 1-.16 0 3.16 3.16 0 0 1 .67.14c0-.2.59-.24.88-.36.43.19-.26.23-.13.41 0-.16.74-.16.6-.29.33.12.28.06.45.22.06-.24.3 0 .58-.19.47.12.12.23.64.15.26.12-.2.21-.2.21zm12.36-.42zm1 0h-.45s0-.1.11-.1c-.02.02.22.05.38.09zm-2.2-1h.24-.29a.18.18 0 0 1 .09.02zm-.26.2h-.07.16zm94.2.21z"/><path class="b" d="M43.64 20.13v-.04l-.09.04h.09zm83.06-.37h.08zm2.47.03l.35.05zm1.9.07a.15.15 0 0 0 0-.06zm-30.21.14h-.07c-.18.06-.06.05.07 0zm8.99-.3l-.29.07c.16.01.28.01.29-.07zm-19.03.5zm18.32-.44a1.24 1.24 0 0 0 .42 0 1.9 1.9 0 0 0-.42 0zm30.17.17h.09zm.1-.02h.1s-.08-.02-.1 0zm.32-.05h-.21a.36.36 0 0 0 .21 0zm-2.94 0v.05a.07.07 0 0 0 0-.05zm-.79.02a3.34 3.34 0 0 0 .71.08c-.06.04-.51-.17-.71-.08zm-3.16-.63h.64c-.11-.05-.26-.13 0-.14-.78-.11.2.16-.64.14zm-1.99-.08c.34 0 0-.08 0-.11-.2.05-.26.06 0 .11zm-14.35 0v-.13c-.23.02.03.05 0 .13zm-2.75.66l.26.08.12-.12-.38.04zm-1.62-.91l.12-.02-.44.05.32-.03zM88 19l.08.16c.2-.07.24-.24-.08-.16zm-10.38.12a.74.74 0 0 0-.59-.05 5.42 5.42 0 0 0 .59.05zm-31.22-.25l.21-.06-.39.05.18.01z"/><path class="c" d="M0 0h146v21H0z"/></svg>