<svg xmlns="http://www.w3.org/2000/svg" viewBox="0 0 43.19 18.41"><defs><style>.cls-1{fill:none;stroke:#0098f5;stroke-linecap:round;stroke-linejoin:round;stroke-width:.43px}</style></defs><title>txt_nav_08</title><g id="レイヤー_2" data-name="レイヤー 2"><g id="nav"><path class="cls-1" d="M8.69 16s.46-.28.46-.27-.15.87-.15.89 2.78-1.7 2.82-1.63-2.24 1.7-2.21 1.76 2.09-1.28 2.12-1.23-1.1 1.12-1.09 1.15.77-.47.78-.45m-4.18-2.41S9 12.76 9 12.8s-.54 1-.52 1 1.71-1 1.74-1-1 1-1 1 1.71-1 1.73-1-.86 1-.84 1 1.35-.8 1.37-.8-.72 1.29-.7 1.33 1.18-.72 1.2-.69-1.28 1-1.26 1.08S12 13.95 12 14s-1.46 1.21-1.43 1.25 1.34-.82 1.36-.78"/><path class="cls-1" d="M5.69 14.44c0 .07 2.79-1.71 2.83-1.64S5.67 14.91 5.71 15s1.15-.7 1.16-.67-1.18 1-1.16 1.06 1.14-.7 1.16-.67-1.18 1-1.16 1 1.14-.7 1.16-.67-1.18 1.1-1.16 1.13 1.14-.7 1.16-.67-1.12 1.27-1.1 1.31 1.09-.67 1.1-.64-.65 1-.63 1.07.53-.32.54-.31M.43 16.3s1.06-.65 1.07-.62-1 .95-1 1 6.57-4 6.67-3.85-6.49 3.87-6.4 4 6.89-4.21 7-4-5.74 3.61-5.66 3.76 2.18-1.33 2.21-1.27M2 11.16s.67-.41.68-.4-1.25 1.6-1.22 1.64 3-1.84 3.06-1.77-3.4 2.79-3.34 2.88 1.43-.88 1.46-.84-1.14 1.38-1.12 1.42 2.2-1.34 2.23-1.29-.23 1-.22 1 1.71-1 1.73-1-.74 1-.72 1.07 2.31-1.41 2.35-1.36m.48-3.14s1.68-1 1.7-1-.33 1-.31 1 1.56-1 1.58-.91-.25 1-.24 1 1-.59 1-.56-1 1.16-.94 1.19 1.14-.7 1.16-.67m-4.08 2.22s1.7-1 1.73-1-.59 1-.57 1 2.88-1.76 2.92-1.69-1.44 1.63-1.42 1.67 1.23-.75 1.25-.72"/><path class="cls-1" d="M3.3 11.63s1.69-1 1.71-1-.82 1-.81 1S6.85 10 6.89 10.07s-1.35 1.53-1.32 1.58 1.72-1.05 1.74-1-1.63 1.26-1.6 1.35S8 10.59 8 10.64s-2.3 1.87-2.26 1.94 1.14-.7 1.15-.67M1.32 8.7s.53-.33.54-.31-.55.67-.54.69 1.18-.72 1.2-.69-.37 1-.36 1 1.67-1 1.69-1-.12 1-.11 1 1.67-1 1.69-1-1.08.94-1.06 1 1.67-1 1.69-1-.63 1-.61 1 1.66-1 1.69-1-1.46 1.14-1.43 1.18 2-1.23 2-1.18-2.06 1.94-2 2 1.14-.7 1.16-.67m3.3-3.03s1.68-1 1.71-1-.16 1-.15 1 .84-.51.85-.49"/><path class="cls-1" d="M8 6.69s1.68-1 1.7-1S8.67 7 8.69 7 10.94 5.65 11 5.71 9 7.46 9 7.52s1-.58 1-.52-.59 1-.58 1 .85-.52.86-.5M7.31 5s.57-.35.58-.34S6.62 5.92 6.64 6s1.72-1.05 1.75-1"/><path class="cls-1" d="M4.11 6.69s1.44-.88 1.46-.84-.64.82-.63.84 1-.58 1-.56 0 .54.05.55l.15-.09s-.43.62-.42.64 2.62-1.6 2.66-1.53-2.69 2-2.64 2 3.48-2.13 3.53-2S6.13 7.93 6.18 8s.73-.45.74-.43"/><path class="cls-1" d="M2.4 6.71s1.71-1 1.74-1-1.53 1.17-1.51 1.21 2.07-1.27 2.1-1.21-1.94 1.58-1.9 1.63 1-.6 1-.58S3.25 8 3.26 8s.81-.49.82-.47M1.75 5s.58-.36.59-.34S1 6.21 1 6.26s1.84-1.12 1.86-1.08S.28 7.07.32 7.14s2.45-1.5 2.48-1.43S.26 7.88.3 7.95 1.81 7 1.83 7.06s-1.2 1-1.18 1 .73-.45.74-.43m5.96 1.84l.15-.09s1.5.05 1.5.09l.15-.08s.75.07.75.08l.1-.07v.61h.08s-.09.41-.08.42h.08m-3.19-.84L7 9.53s-.11.86-.1.88h.09l.35.27.14-.08s.69.07.7.08l.15-.08s.75.07.76.08l.15-.09s.56.07.57.08l.15-.09m-6.69 1.14l.14-.08s1 .06 1 .08l.14-.08s.59.07.6.08l.14-.08.28.19h.07s-.08.74-.07.76h.08m-2.9-.67l.11-.06s-.25.67-.24.68l.14-.08.08.33.17-.1s1.34.07 1.36.1l.16-.09s.84.07.85.09l.15-.09"/><path class="cls-1" d="M2 8.38l.15-.08s.55.07.56.08l.15-.08.43.08.15-.08s1.14.06 1.16.08l.14-.08s.66.07.67.08l.14-.08s.63.07.64.08l.14-.08.47.08.14-.08s.6.07.61.08l.14-.08s.84.06.85.08l.14-.08s1 .06 1 .08l.14-.08s.7.18.71.2l.18-.11.47.65.14-.08s.06.74.07.75h.08s-.09.43-.08.44h.08s-.35 1-.34 1.07l.23-.13m-4.11.64l.15-.09s1.43.05 1.45.08l.15-.08s1.34 0 1.36.05.78-.48.79-.46m-4.26.61l.11-.06s-.12.82-.1.84h.08s1.16.19 1.17.22l.14-.08s.7.07.71.08l.14-.08s1.35.05 1.37.08l.14-.08.49.15.16-.09.51.51h.07s.13.69.14.71h.09s-.24.96-.23.96l.1-.06s-.29.8-.28.82l.1-.06s-.33.54-.32.55l.13-.07m-3.01-.26h.08s.07.59.07.6h.07s.74.4.75.42l.14-.08s.52.05.52.06l.15-.09m-1.3-1.14l.14-.08s.75 0 .76.06l.24-.14"/><path class="cls-1" d="M7.25 13.9l.15-.09.48.09.12-.09s1.15.06 1.16.09l.15-.09s1.15.06 1.16.09l.14-.08v.83h.08s-.26.7-.25.71h.09M6.89 14H7s-.12.92-.11.94h.08s-.09.74-.08.76h.08s-.09.66-.08.68h.08s-.09.41-.08.42h.08s-.18.2-.17.2l.1-.06M5.62 14.6h.08s-.09.77-.08.79h.08s-.09.7-.08.71h.08s-.09.54-.08.55h.08v.55h.07l.45.43.29-.17M4.83 15s.64-.39.64-.37M.35 16.24l.11-.06v.48h.07l.33.34h.08s1.25-.31 1.27-.28S3.32 16 3.33 16m-1.85-.33s.55-.34.56-.32m-.13-4.27l.15-.08s-.69 1.2-.68 1.23l.1-.06s-.26.61-.25.63l.1-.06s-.29.78-.28.8h.08l.21.6h.07s1.42-.17 1.43-.14l.17-.1s.74.07.75.09l.16-.09s.56.07.57.09m-1.81-3.25s.32-.2.33-.19 1.06.06 1.07.08l.15-.08s.6.07.61.08l.16-.09M1.25 8.63l.1-.06s-.09.59-.08.61h.07l.23.26h.08l.46.11.15-.08s.66.07.66.08l.14-.08s1 .06 1 .08l.14-.08s1.37.14 1.39.17h.07s-.07.46-.06.47h.08s-.09.44-.08.45h.08M2.44 4.65h.08l.24.28h.07v.33l.09-.05.53.6.15-.09s1 .06 1 .08l.15-.09.44.08h.08l.61.51h.09s.08.44.09.45l.11-.06m1.1-1.8l.21-.12S6.31 6.31 6.33 6.36l.13-.08m1.43-1.65L8 4.56l.41.56h.08l.51.61.15-.09s1 .06 1 .09l.15-.09s.57.07.57.08l.13-.08s1.36.15 1.38.18l.09-.05s.07.58.08.6l.11-.06m-2.52.45l.14-.08s1 .06 1 .08l.14-.08s.55.07.56.08l.2-.12m-2.29.21h.07l.18.42h.07v.59l.12-.07M8 6.76l.15-.09.37.17h.08l.3.6h.07l.4.56h.07l.28.19.2-.19M7.41 7l.19-.11s-.71.71-.69.73l.2-.12m-3-.74l.14-.08s1.16.06 1.17.08l.14-.08v.66l.1-.06v.63h.07l.39.21.25-.12M3.82 6.84h.06l.12.49h.07s-.07.39-.07.4l.12-.07m-1.71-.88h.07l.17.38h.08s.13.49.14.51h.07l.12.33h.06l.33.32.18-.1M1.84 7L2 6.93s-.6.66-.59.68l.18-.1m.13-2.6l.21-.12s-1 1.39-1 1.42l.14-.08s-.83.94-.81 1L.46 7s-.26.9-.25.92h.07l.38.29.11-.07m31.48 5.54s1.53-.93 1.55-.89-.58.87-.57.89 1.13-.68 1.14-.68-.65.74-.64.76.83-.51.84-.48-.79.8-.77.83.89-.54.9-.52-.91 1-.9 1 1-.61 1-.58-1 1.22-1 1.25 1-.61 1-.58-1.93 2-1.9 2.06 1.84-1.12 1.87-1.08-1.13 1-1.11 1.07.88-.54.89-.51"/><path class="cls-1" d="M31 13.23s.84-.51.85-.49-1.1 1-1.08 1 1.79-1.1 1.82-1.05-1.89 1.37-1.86 1.42 2.43-1.48 2.46-1.42-2.5 2.25-2.46 2.33 1-.61 1-.58-1 1.22-1 1.25 1-.61 1-.59-1 .89-1 .92 1-.61 1-.59-1 1.39-1 1.43 1.9-1.16 1.93-1.11-1.55 1.45-1.52 1.5.48-.29.49-.28m-.8-5.9s.52-.32.53-.3 0 .93 0 1 1.63-1 1.65-1 0 .93 0 1 1.5-.92 1.52-.88-.3.86-.29.88.51-.31.52-.3m-3.93-2.3s.52-.32.53-.31-.22.9-.21.92 1.57-1 1.59-.92-.09.93-.08 1 1.63-1 1.65-1-.54.93-.53 1 1-.59 1-.57m3.07 3.76c0 .05 2-1.22 2-1.17S39 13 39 13s1.82-1.11 1.84-1.06-.36 1-.34 1.06 1.35-.83 1.37-.79-.75.92-.74.94 1-.59 1-.57-1 1.15-1 1.18 1.16-.71 1.18-.68-1.2 1.28-1.17 1.32 1.16-.71 1.17-.68S41.12 15 41.14 15s1.15-.7 1.17-.68-1.19 1-1.17 1 1.15-.7 1.17-.67m-4.66 2.02s1.84-1.12 1.87-1.08-1 1-1 1.07 1.84-1.12 1.86-1.08-.45 1-.44 1.07 2.3-1.41 2.33-1.35-1.68 1.3-1.65 1.34 1.63-1 1.65-1-1 1.37-1 1.41 1-.62 1-.59-.7.72-.69.75.58-.35.59-.34"/><path class="cls-1" d="M36.46 12.48s.79-.48.8-.46-1 .92-1 1 1.7-1 1.73-1-1.82 1.75-1.79 1.8 3.56-2.18 3.61-2.09-3.67 2.9-3.61 3 1.14-.73 1.16-.73-1.17 1-1.15 1 1.13-.69 1.15-.66-1.17 1.25-1.15 1.28 1.14-.7 1.15-.67-1.17 1-1.15 1 1.14-.7 1.16-.67-1.15 1.44-1.12 1.48 2.13-1.3 2.16-1.25-1.95 1.57-1.92 1.63.92-.56.94-.54m2.74-6.85s1.93-1.18 2-1.13-.4 1.09-.39 1.12 1.15-.7 1.17-.67"/><path class="cls-1" d="M35.53 9s.56-.34.57-.33-.42 1-.41 1 1.71-1 1.74-1-.79 1.1-.77 1.12 3.11-1.9 3.16-1.82-2 1.76-2 1.82 2.06-1.26 2.09-1.21-1.37 1.42-1.35 1.48 2.44-1.5 2.49-1.44-2.53 2-2.49 2 1.21-.74 1.23-.71-1.25 1.46-1.22 1.5 1.22-.74 1.23-.71m.48-4.45s1.68-1 1.71-1-.48.71-.47.72.6-.37.61-.35"/><path class="cls-1" d="M36 6s.57-.35.58-.34-.47.72-.46.74 1.5-.92 1.52-.88-1 1.14-1 1.18 2.31-1.41 2.34-1.35-1.51 1.21-1.49 1.26S39.94 5.12 40 5.18s-1.53 1.34-1.5 1.38S41.22 4.88 41.27 5s-2.74 2-2.7 2.09 3.25-2 3.3-1.9-3.35 2.4-3.29 2.49 1.2-.74 1.22-.68-1.25 1.38-1.22 1.42 1.21-.74 1.23-.71m-9.64-.48s.52-.32.53-.3-.55.63-.54.65 1.11-.68 1.13-.65-.75.94-.74 1 1.65-1 1.67-1-.11 1-.1 1 1.68-1 1.7-1-.47 1-.46 1S34.92 7 34.94 7s-.31.89-.3.91.53-.33.54-.31m-4.27-2.26s.52-.32.53-.3-.16.96-.14.96 1.6-1 1.62-1-.81.93-.8 1 1.63-1 1.65-1-.29.93-.28 1 1.17-.72 1.19-.69-.51.67-.5.69.51-.31.52-.3m3.13 7.45l.15-.09s1 .06 1 .08l.16-.09s.58.08.58.09l.16-.09.46.09.17-.1.5.43h.09s-.09.51-.08.52h.09s-.09.6-.08.61h.09s-.09.77-.08.79h.09m-3.78-2.08l.1-.06s-.1.59-.09.6l.09-.05s-.1.42-.09.43l.09-.05s-.1.91-.08.93l.09-.05s.67.51.68.53l.17-.1s1.2.06 1.21.09l.16-.09s.64.07.65.09l.15-.09m-8.24-1.71l.15-.09s.55.07.56.08l.15-.08.44.08.13-.07s.05.7.06.72h.08s-.09.51-.08.52h.08s-.09.49-.08.5h.08m-2.04-1.54l.1-.06s-.11 1-.1 1h.09v1l.09-.05s.88.09.9.11l.15-.2s.51.07.52.08l.15-.09"/><path class="cls-1" d="M32 12.72l.15-.08s1.2.05 1.22.08l.14-.08s.9.35.91.37l.1-.06.13.42.13-.08s.06.81.07.83h.08s-.09.47-.08.48h.08s-.09.83-.08.85h.08s-.35.89-.34.91l.23-.13m-2.74.62l.2-.11s.95.07 1 .09l.16-.09m-1.69.18l.3-.18m-1.13-3.6s.79-.48.8-.46-1 .93-1 1l.17-.1s-.23.87-.22.89h.08s-.09.79-.08.81h.08s-.09.85-.08.87h.08s-.09.77-.08.79h.09s0 .45.05.46h.07l.18.23.09-.05m.32-6.8l.15-.08s1.36.05 1.38.08l.15-.08s1.08.06 1.09.08l.11-.07.38.41h.07M30.78 11l.09-.05s0 .7.05.71l.09-.05s.86.15.87.16l.15-.08s.72.07.73.08l.15-.08s.83.06.84.08l.15-.08m-2.47-2.81l.14-.08s.89.06.9.08l.14-.08s.92.06.93.08l.14-.08.5.08.13-.07.45.51h.07m-4.05-.2l.1-.06s-.1.51-.09.52h.07l.39.35.14-.08s1.4.05 1.41.08l.2-.12s1.3.05 1.31.08.37-.23.38-.22m1.97-4l.18-.11s2-.22 2-.18l.21-.12s1.17-.18 1.18-.15l.22-.11s1.21 0 1.22.06h.08l.32.34h.07v.36l.1-.06m-1.94.65l.26-.15s1-.14 1-.11l.25-.14m-1.99.59l.11-.06s-.13.75-.12.77l.09-.05s-.09.48-.09.49l.09-.05s-.09.55-.09.56l.09-.05s.78.44.79.46l.14-.08.47.08.15-.08s.58.07.58.08l.15-.08s.59.22.6.24h.07v.69l.15-.12m-2.83.5l.15-.09s.82.07.83.08l.15-.09s.52.07.53.08l.17-.07m-2.19.25l.11-.06s-.12.47-.11.48h.08s-.09.38-.08.39h.08s-.1.93-.08 1h.09l.47.39.14-.08L41 12l.14-.08s.82.36.84.38l.09-.05s.25.77.26.78l.09-.05s-.06.59-.05.6h.09s-.09.79-.08.81h.09s-.09.43-.08.44h.09s-.09.69-.08.71h.09s-.09.46-.08.47h.09s-.09.73-.08.74h.09s-.19.49-.18.5l.1-.06m-4.76-.4l.2-.11s1.44.07 1.45.1l.17-.1s1.48.06 1.5.09l.1-.06.33.59h.08m-4.15-.45l.3-.18m-1.27-4.29s.79-.48.8-.46-1.08 1.24-1.06 1.27h.08s-.09.89-.08.91h.08s-.09.55-.08.57h.08s-.09.65-.08.66h.08s-.09.67-.08.69h.08s-.09.59-.08.6h.09s-.06.5-.05.51h.06l.42.56.09-.05m.6-5.64l.15-.08s.73.07.74.08l.15-.09m-2.91-3.03l.11-.06s-.18.47-.18.48h.07l.42.52h.08s1.4.07 1.42.1l.15-.08.49.08.14-.08.31.44h.08s-.09.39-.08.4h.08s-.09.86-.08.88h.08s-.09.39-.08.4h.08m-2.44-3.35l.15-.09s1.39.05 1.41.08l.15-.09M35.87 6h.09s.13.66.14.68h.07s.77.21.78.23l.17-.1s1.17-.06 1.19 0l.16-.09v.78l.12-.07s-.11.65-.1.66l.1-.06s-.09.46-.09.47h.09m-7.78-1.56l.19-.08s.91.06.93.08l.07-.09s.94.06.95.08l.15-.08s.76.07.77.08l.13-.08s1.09.3 1.11.33h.07s-.05.44 0 .45l.11-.06m-5.16-.39l.09-.05s-.1.52-.09.53h.07l.4.36.14-.08s.54.07.54.08l.15-.08s.74.07.75.08l.15-.08s.86.06.87.08l.15-.08s.86.06.87.08l.15-.08m-2.86-2.89l.15-.05.45.08.13-.08s.76 0 .76.05l.18-.05s1.3.13 1.32.16l.09-.05s.11.59.11.61l.11-.06m-3.95-.36l.1-.05s.17.74.18.75h.09s.64.11.65.12L32 6s1.22.06 1.23.08l.16-.08s.84.06.85.08.34-.21.35-.2m-13.86 4.61c.1.17 6.51-4 6.6-3.81s-6.26 3.88-6.17 4 5-3.06 5.08-2.93-4.62 3.13-4.55 3.25 4.36-2.67 4.43-2.56S22 11.08 22 11.19s4.27-2.61 4.34-2.5-4 2.67-3.92 2.78 4.24-2.58 4.3-2.47-3.84 2.67-3.78 2.77S27 9.28 27.09 9.38s-3.8 2.65-3.75 2.75 4-2.42 4-2.32-3.64 2.85-3.58 3 3.91-2.39 4-2.29-3.93 2.75-3.87 2.85 4-2.45 4.06-2.34m-7.08-7.85c.06.1 4-2.43 4-2.33s-3.47 2.24-3.42 2.33S25.21.88 25.27 1s-3.21 2.28-3.16 2.37 3.63-2.22 3.68-2.13-2.95 2.51-2.9 2.6 3.55-2.17 3.6-2.08-3.26 2.45-3.21 2.54S27 2.06 27 2.15s-3.68 2.9-3.62 3 4-2.45 4.07-2.35S22.9 5.73 23 5.85 27.61 3 27.68 3.13"/><path class="cls-1" d="M17.07 1.88S18.86.78 18.89.83s-3.07 2.51-3 2.6S21.13.21 21.2.35s-5.7 3.59-5.62 3.74S22 .14 22.14.3 15.25 4.83 15.35 5 23.18.23 23.3.43s-8 5.27-7.91 5.48S24.32.45 24.45.68s-9.09 5.51-9 5.74S19.69 3.85 19.76 4s-4.2 2.66-4.13 2.77 4-2.42 4-2.32-3.81 2.65-3.76 2.75 3.86-2.36 3.92-2.26S16 7.3 16 7.4s3.93-2.4 4-2.28-3.67 2.52-3.62 2.62 3.9-2.38 4-2.28-3.52 2.63-3.47 2.73 4-2.47 4.1-2.36-5.11 3.74-5 3.87 5.83-3.57 5.92-3.42-6.75 4.49-6.65 4.67 12.46-7.61 12.64-7.3-13 7.44-12.81 7.76S27.72 3.65 27.91 4 14.77 11.46 15 11.79 27.78 4 28 4.28s-13.27 8.1-13.08 8.44 12.84-7.85 13-7.52-13.11 8-12.92 8.33S27.37 6 27.55 6.29 15 13.91 15.17 14.22c.07.12 4.58-2.8 4.64-2.68s-4.59 2.85-4.52 3 4.36-2.67 4.43-2.56-4.24 3-4.18 3.15 4.13-2.52 4.19-2.42-3.9 2.81-3.84 2.92 4-2.46 4.08-2.35-3.97 2.48-3.87 2.58 4.05-2.48 4.11-2.37-3.62 2.88-3.56 3S20.89 13.88 21 14s-3.75 2.83-3.69 2.93 4.57-2.79 4.63-2.67-4.27 2.86-4.21 3 5.2-3.18 5.28-3-4.74 3.18-4.67 3.31 9.66-6.02 9.78-5.77-8.92 5.81-8.79 6 8.7-5.32 8.83-5.1-8 5-7.93 5.24 7.77-4.69 7.87-4.49-6.59 4.55-6.49 4.68 6.1-3.73 6.19-3.57-4.5 3.29-4.43 3.44 3.69-2.26 3.75-2.16-2.54 1.73-2.5 1.8 1.76-1.07 1.78-1"/><path class="cls-1" d="M20.7 10.56l.09-.05s.7.47.71.49h.09l.55.41h.08l.56.46h.08l.33.37h.07l.44.69h.07s-.09.87-.08.89l.14-.08m-3.59-3.01l.13-.08s-.63 1.08-.62 1.11l.09-.05s-.18.76-.17.78h.07s.08.59.09.6h.07l.38.55h.07l.41.37h.09s.76.33.77.35l.11-.06s.68.12.68.14l.23-.13M20.93 3.27l.2-.11s.73.18.74.19l.13-.06.53.33h.09l.3.36h.07l.36.76h.07s-.48 1.14-.46 1.16l.22-.13M19.9 3.71s.31-.19.31-.18-.57.78-.55.8l.1-.06v.56h.08l.13.32h.07l.26.36h.07l.43.34h.08l.45.33h.08s.63.36.64.37l.1-.06"/><path class="cls-1" d="M19.06.77s.39-.24.4-.23.73-.11.74-.09l.23-.13h.94l.19-.11s1.35.1 1.37.13L23 .28s.85.2.86.22L24 .44s.94.34.95.36L25 .74l.37.27h.08l.57.41h.08l.31.3h.07l.48.57h.07l.32.51h.07l.33.75h.07v.41h.08s0 .76.06.78h.08s-.1.38-.1.39l.09-.05s-.21.64-.2.65l.17-.39s-.25.64-.25.65l.14-.08s-.46.6-.45.61l.14-.08c0 .05-1.67 1.75-1.64 1.8H26l.41.5h.07l.28.37h.07l.35.44h.07l.28.7h.07l.18.51h.07s.16.77.17.79h.08v.42h.08v.48h.08s-.06.92-.05.94h.08s-.23.84-.22.86l.12-.07s-.37.84-.36.86h.08s-1 1.42-1 1.46l.2-.12M17 1.82s.68-.42.69-.4-2 1.92-2 2l.13-.07s-.4.7-.39.72l.18-.07s-.36 1-.35 1l.1-.06s-.09.94-.08 1h.07v.55h.08v.36h.07l.2.47h.07l.08.29h.08l.24.39h.07l.41.49h.08s-1 1.51-1 1.55.36-.22.37-.21-1.07 1.4-1 1.43l.14-.08s-.25.5-.25.51l.09-.05s-.15.42-.15.43l.09-.05s-.24 1-.23 1h.08v.86h.08s.06.73.07.75h.07s.05.32.05.33h.07s.18.61.18.63h.07l.25.56h.07l.14.3h.07l.45.66h.08l.55.48h.08l.35.34h.08l.47.34.09-.05s1 .39 1 .41l.09-.05s.71.23.72.25l.12-.07s1.25.18 1.26.2l.12-.07h1.47l.24-.14s1.26-.21 1.27-.18.58-.35.59-.34"/></g></g></svg>