<svg xmlns="http://www.w3.org/2000/svg" width="146" height="21" viewBox="0 0 146 21"><defs><style>.a{fill:#5d0e5a}.b{fill:#6d2e6a}.c{fill:none}</style></defs><title>txt_rina</title><path class="a" d="M58 2.58a.63.63 0 0 1 0 .89.61.61 0 0 1-.44.18h-3.37a.12.12 0 0 0-.14.14v1.53a.12.12 0 0 0 .14.14h2.27a1.19 1.19 0 0 1 1.19 1.19v7a.66.66 0 1 1-1.33 0 .07.07 0 0 0-.08-.08h-8.46a.07.07 0 0 0-.08.08v.1a.64.64 0 0 1-1.29 0V6.64a1.19 1.19 0 0 1 1.19-1.19h2a.12.12 0 0 0 .14-.14V3.78a.12.12 0 0 0-.14-.14h-3.13a.63.63 0 0 1-.63-.64.63.63 0 0 1 .63-.63h11a.61.61 0 0 1 .53.21zm-10.3 9.59a.12.12 0 0 0 .14.14h8.35a.12.12 0 0 0 .14-.14v-2.1a.05.05 0 0 0 0-.05h-.08a1.25 1.25 0 0 1-.77.21h-1.32A1.56 1.56 0 0 1 53 9.92a1.84 1.84 0 0 1-.28-1.2V6.79a.12.12 0 0 0-.14-.14H51.1a.12.12 0 0 0-.14.14v.3a4 4 0 0 1-1.52 3.34 1.13 1.13 0 0 1-.66.22h-.16a1.92 1.92 0 0 1-.83-.37h-.06a.07.07 0 0 0 0 .06zm2.06-5.37a.12.12 0 0 0-.14-.14h-1.79a.12.12 0 0 0-.14.14V10a.08.08 0 0 0 0 .07.06.06 0 0 0 .08 0 3.23 3.23 0 0 0 1.94-3zm2.86-1.34a.12.12 0 0 0 .14-.14V3.78a.12.12 0 0 0-.14-.14H51.1a.12.12 0 0 0-.14.14v1.54a.12.12 0 0 0 .14.14zm3.64 3s.07 0 .07-.05V6.79a.12.12 0 0 0-.14-.14h-2.07a.12.12 0 0 0-.14.14v1.93c0 .16 0 .27.06.3a.53.53 0 0 0 .31.05h.94a.27.27 0 0 0 .27-.16v-.1a.48.48 0 0 1 .25-.32.52.52 0 0 1 .44-.03zm14.57-1.31a.66.66 0 0 1 .27-.38.68.68 0 0 1 .34-.1h.12a.54.54 0 0 1 .37.25.55.55 0 0 1 .08.29.94.94 0 0 1 0 .15 16 16 0 0 1-1.7 4 .27.27 0 0 0 0 .25q.45 1.72 1 1.72c.2 0 .33-.54.38-1.63a.26.26 0 0 1 .17-.23.27.27 0 0 1 .29 0 .92.92 0 0 1 .45.77.41.41 0 0 1 0 .1 4 4 0 0 1-.46 1.7 1.12 1.12 0 0 1-1 .46q-1 0-1.68-1.71a.06.06 0 0 0-.05 0 .11.11 0 0 0-.08 0 11 11 0 0 1-1.56 1.5.72.72 0 0 1-.4.12h-.1a.73.73 0 0 1-.45-.22.48.48 0 0 1-.15-.36.5.5 0 0 1 .21-.42 9 9 0 0 0 2.08-2 .29.29 0 0 0 .05-.25 38.49 38.49 0 0 1-.63-5.95.12.12 0 0 0-.14-.14h-2.83a.12.12 0 0 0-.14.14v1.46a.12.12 0 0 0 .14.14h1.23a1.11 1.11 0 0 1 .83.36 1.14 1.14 0 0 1 .33.82q0 1.66-.1 2.91a2.7 2.7 0 0 1-.22 1.1 1.12 1.12 0 0 1-.75.41 4.51 4.51 0 0 1-.66 0 .59.59 0 0 1-.41-.16.86.86 0 0 1-.25-.41.35.35 0 0 1 .05-.33.32.32 0 0 1 .3-.14h.4a.38.38 0 0 0 .34-.16A13.59 13.59 0 0 0 66.73 8a.12.12 0 0 0-.14-.14h-1.18a.12.12 0 0 0-.14.14v.34a17.11 17.11 0 0 1-.27 3.23 7.1 7.1 0 0 1-1.07 2.69.48.48 0 0 1-.4.22.61.61 0 0 1-.41-.15.6.6 0 0 1-.23-.41.46.46 0 0 1 0-.11.63.63 0 0 1 .11-.36 6.24 6.24 0 0 0 .82-1.93.06.06 0 0 0 0-.07.08.08 0 0 0-.08 0l-3 1.23a.59.59 0 0 1-.25.05.51.51 0 0 1-.26-.07.62.62 0 0 1-.34-.37.87.87 0 0 1 0-.22.72.72 0 0 1 .07-.3.73.73 0 0 1 .4-.34l.78-.27a.17.17 0 0 0 .14-.18V6.57a.12.12 0 0 0-.28-.13h-.63a.58.58 0 0 1-.42-.18.58.58 0 0 1-.18-.43.56.56 0 0 1 .18-.42.59.59 0 0 1 .42-.17H61a.12.12 0 0 0 .14-.14V2.64a.59.59 0 0 1 .17-.42.57.57 0 0 1 .42-.22.59.59 0 0 1 .43.18.58.58 0 0 1 .18.42v2.5c0 .09 0 .14.12.14H63a.59.59 0 0 1 .42.17.56.56 0 0 1 .18.42.58.58 0 0 1-.18.43.58.58 0 0 1-.42.18h-.51a.11.11 0 0 0-.12.12v4a.09.09 0 0 0 0 .08.09.09 0 0 0 .08 0l.12-.05a1 1 0 0 1 .31-.05.92.92 0 0 1 .44.11.88.88 0 0 1 .44.62h.05a14.64 14.64 0 0 0 .25-2.91V5.11a1.19 1.19 0 0 1 1.19-1.19h2.87a.13.13 0 0 0 .1 0 .1.1 0 0 0 0-.1V2.49a.58.58 0 0 1 .19-.49.59.59 0 0 1 .43-.18.61.61 0 0 1 .44.18.59.59 0 0 1 .18.44v1.31a.12.12 0 0 0 .14.14h1.26a.05.05 0 0 0 .05 0 .11.11 0 0 0 0-.08q-.37-.46-.92-1a.39.39 0 0 1-.12-.33.37.37 0 0 1 .18-.29.72.72 0 0 1 .41-.19h.05a.65.65 0 0 1 .41.18 7.88 7.88 0 0 1 .67.67.59.59 0 0 1 .16.41.45.45 0 0 1 0 .11.67.67 0 0 1-.31.46h.29a.56.56 0 0 1 .42.18.58.58 0 0 1 .17.42.56.56 0 0 1-.17.41.57.57 0 0 1-.42.17h-2.09a.13.13 0 0 0-.1 0 .13.13 0 0 0 0 .1q.11 2.37.37 4.32a13.47 13.47 0 0 0 .92-2.28zm6.81 1.73a.6.6 0 0 1-1-.42V6.59a.06.06 0 0 0-.05 0 8.55 8.55 0 0 1-1.68 1.8.58.58 0 0 1-.36.12h-.1a.7.7 0 0 1-.45-.27.48.48 0 0 1-.14-.33v-.07a.51.51 0 0 1 .22-.37A7.61 7.61 0 0 0 76 5.59a.05.05 0 0 0 0-.07.07.07 0 0 0-.06 0H74.4a.53.53 0 0 1 0-1.07h2.08a.12.12 0 0 0 .14-.14v-.79a.11.11 0 0 0 0-.09.14.14 0 0 0-.1 0q-.75.08-1.71.12a.57.57 0 0 1-.4-.12.62.62 0 0 1-.27-.43.35.35 0 0 1 0-.33.36.36 0 0 1 .29-.17 34.34 34.34 0 0 0 4.25-.48L79 2a.92.92 0 0 1 .74.37.35.35 0 0 1 .07.36.37.37 0 0 1-.31.27q-.67.12-1.54.23a.14.14 0 0 0-.14.15v.88a.12.12 0 0 0 .14.14h1.83a.53.53 0 0 1 0 1.07h-2q.62.34 1.87 1.11A.59.59 0 0 1 80 7a.74.74 0 0 1 0 .14.59.59 0 0 1-.52.57h-.08a.56.56 0 0 1-.4-.14l-1.09-.81a.06.06 0 0 0-.07 0 .06.06 0 0 0 0 .06v1.64a.58.58 0 0 1-.2.42zM86 10a.53.53 0 0 1 .17.4.58.58 0 0 1-.57.57h-3.7a.05.05 0 0 0 0 .05 11.59 11.59 0 0 0 4 2.12.4.4 0 0 1 .28.29.43.43 0 0 1-.08.4 1 1 0 0 1-.46.34 1 1 0 0 1-.27 0 1.09 1.09 0 0 1-.29 0A13.76 13.76 0 0 1 82.77 13a11.57 11.57 0 0 1-2-1.54.06.06 0 0 0-.06 0 .05.05 0 0 0 0 .05v2.5a.66.66 0 1 1-1.31 0v-2.47a.05.05 0 0 0 0-.05.06.06 0 0 0-.06 0 11.9 11.9 0 0 1-1.94 1.58A14.11 14.11 0 0 1 75 14.3a.86.86 0 0 1-.3.05.82.82 0 0 1-.26 0A1 1 0 0 1 74 14a.45.45 0 0 1-.09-.42.4.4 0 0 1 .28-.29 12.15 12.15 0 0 0 3.81-2.2V11h-3.6a.58.58 0 0 1-.57-.57A.53.53 0 0 1 74 10a.56.56 0 0 1 .4-.16h4.8a.11.11 0 0 0 .12-.12v-.3a.66.66 0 1 1 1.31 0v.33c0 .08 0 .12.11.12h4.87A.56.56 0 0 1 86 10zm-4.53-7.31a.61.61 0 0 1 .44-.18.59.59 0 0 1 .43.18.6.6 0 0 1 .18.44v3.5a.59.59 0 0 1-.18.44.58.58 0 0 1-.43.18.61.61 0 0 1-.44-.18.58.58 0 0 1-.18-.44v-3.5a.59.59 0 0 1 .18-.44zm3-.48l.24-.21H85a.63.63 0 0 1 .63.63v5a1.69 1.69 0 0 1-.14.77.82.82 0 0 1-.48.38 5.14 5.14 0 0 1-1.66.22.76.76 0 0 1-.46-.16 1 1 0 0 1-.3-.41.4.4 0 0 1 0-.37.37.37 0 0 1 .32-.17h1.12a.36.36 0 0 0 .22 0 .24.24 0 0 0 .05-.19v-5a.61.61 0 0 1 .22-.49zm15.4 1.55a.56.56 0 0 1 .17.42.58.58 0 0 1-.59.59h-2.9a.07.07 0 0 0-.06 0 .06.06 0 0 0 0 .07A9.27 9.27 0 0 0 98 6.34a9.8 9.8 0 0 0 1.88 1.13.5.5 0 0 1 .27.36.48.48 0 0 1 0 .11.45.45 0 0 1-.12.31.91.91 0 0 1-.48.33.69.69 0 0 1-.21 0 .66.66 0 0 1-.34-.1A10.42 10.42 0 0 1 96.93 7a.78.78 0 0 1-.25.58.81.81 0 0 1-.59.24h-4.15a.79.79 0 0 1-.79-.79 12.78 12.78 0 0 1-2.23 1.57.76.76 0 0 1-.34.08h-.19a1.07 1.07 0 0 1-.46-.3.47.47 0 0 1-.12-.33V8a.46.46 0 0 1 .19-.36 10 10 0 0 0 3.39-2.76.11.11 0 0 0 0-.07.05.05 0 0 0-.05 0h-2.78a.58.58 0 0 1-.56-.63.59.59 0 0 1 .59-.59H92a.19.19 0 0 0 .19-.12 8.49 8.49 0 0 0 .41-.92.9.9 0 0 1 .4-.46.85.85 0 0 1 .47-.09h.11a.52.52 0 0 1 .42.26.56.56 0 0 1 .1.3.58.58 0 0 1 0 .21q-.15.37-.31.74a.07.07 0 0 0 0 .08.08.08 0 0 0 .07 0h5.65a.57.57 0 0 1 .36.17zm-9.82 7.85a1 1 0 0 1 .46-.33.79.79 0 0 1 .29-.05h.25a.5.5 0 0 1 .33.3.61.61 0 0 1 0 .16.47.47 0 0 1-.1.27 11.14 11.14 0 0 1-1.85 1.94.72.72 0 0 1-.46.16.85.85 0 0 1-.51-.21.44.44 0 0 1-.18-.37.48.48 0 0 1 .19-.4 8.15 8.15 0 0 0 1.58-1.46zm8.78-2.16l.17.16v.23a.58.58 0 0 1-.57.57H94.8a.12.12 0 0 0-.14.14v2.86a1.58 1.58 0 0 1-.14.73.84.84 0 0 1-.49.38 5.83 5.83 0 0 1-1.59.19.72.72 0 0 1-.46-.16 1 1 0 0 1-.33-.42.36.36 0 0 1 0-.36.32.32 0 0 1 .31-.16h1.09a.44.44 0 0 0 .23-.06.21.21 0 0 0 .06-.17v-2.81a.12.12 0 0 0-.14-.14h-3.61a.58.58 0 0 1-.59-.58.53.53 0 0 1 .17-.4.56.56 0 0 1 .4-.16h8.85a.56.56 0 0 1 .42.17zM91.5 6.66a.05.05 0 0 0 0 .06.05.05 0 0 0 .05 0h5a.05.05 0 0 0 0-.06 10.37 10.37 0 0 1-1.45-1.78.23.23 0 0 0-.21-.11h-1.74a.23.23 0 0 0-.21.11 11.76 11.76 0 0 1-1.44 1.78zm5 5.41a.42.42 0 0 1-.14-.37.4.4 0 0 1 .21-.33.81.81 0 0 1 .42-.12h.1a.86.86 0 0 1 .48.21q1.14 1 1.8 1.71a.55.55 0 0 1 .14.36.31.31 0 0 1 0 .1.54.54 0 0 1-.27.4.69.69 0 0 1-.37.11h-.14a.81.81 0 0 1-.46-.27 17.67 17.67 0 0 0-1.79-1.8z"/><path class="b" d="M103.47 19.48s0-.14-.07-.12l-.06.17zm-.59-.31c-.1.08-.22.22-.16.37.1-.16.13-.09.24-.28a.11.11 0 0 1 .14.11s.14 0 .19-.07a.29.29 0 0 0-.41 0s-.01-.1 0-.13zm-8.64-.26h.06zm-5.36-.09h.06s-.07-.01-.06 0zm-.88-.18s0-.01 0 0zm6.24.27l-.14-.05c-.02.05.07.04.14.05zm7.45.66h.08-.07zm-5.09-.79v-.07zm1.81-.03s-.06.13-.07.2a.15.15 0 0 1 .09-.1.28.28 0 0 0-.02-.1zm2.87.25h.05zm-5.98-.25a.15.15 0 0 0 0-.05.09.09 0 0 0 0 .05zM44.63 19.8s-.02 0 0 0zm-2.1-.69a.62.62 0 0 0 0-.08zm43.76-.65s.03-.01 0 0zm-15.36.1c.17.13-.28.16 0 .3-.04-.05.22-.22 0-.3zm30.71.99zm-30.73-.69zm11.53-.32a.17.17 0 0 0 0 .06s.03-.03 0-.06zm2.87.2h-.07zm-4.36 0h-.1s.05-.02.1 0zm-1.56 0zm-30.05 1a.42.42 0 0 1-.07-.13c.03.1-.2.13.07.13zm52.35-.25v.06h.05a.06.06 0 0 0-.05-.06zm-20.81.36h-.25zm-20.4-.13h-.06a.06.06 0 0 0 .06 0zm19.42.13a.35.35 0 0 0-.14-.1zm-30.63-.24z"/><path class="b" d="M47.65 19.94c.23 0 .11-.18.16-.29.28-.05.13.14.23.23s.31-.22.44-.21 0 0 0 .08c.19-.15.55 0 .77-.19a.56.56 0 0 1 0-.25c.1 0 .2-.12.23 0s-.07 0-.1.08l.11-.05c.1.17-.15.06-.15.19.21-.06.47-.2.63-.15s-.39.06-.17.21l-.26-.06c.2.27-.15 0 0 .27.34 0 .38-.09.71 0 .08-.09 0-.14.05-.23.48-.17.38.43.73.2.09-.11.13-.33.38-.21l-.08.19c.33 0 .19-.28.53-.15-.06.08-.26.06-.21.09.22.15.16-.11.33-.11v.17c.35 0 .73-.15 1.11-.18 0 .05-.09.1 0 .16a4.08 4.08 0 0 1 1.5.12l.18-.15s.08.07 0 .09c.18.06 0-.09.1-.15s.14.08.07.13a1.92 1.92 0 0 1 1.25-.11h-.07c.26.06.3-.3.54-.16a5.33 5.33 0 0 1 1.64.15c.08-.21.57.09.6-.2.33.15.23.2.69.3.12 0 .18-.18.33-.21v.15l.21-.16.11.18h.14c-.06 0-.12-.07-.11-.11a.55.55 0 0 1 .55.19l.53-.13c0 .06-.1.08-.17.12.28-.16.05.16.31 0v-.12a1 1 0 0 0 .64.05v.11c.39 0 .82-.05 1.26 0a.13.13 0 0 1 0-.25l.05.16c.08-.1-.13-.06 0-.18s.11.19 0 .24l.2-.06v.14c.08-.1.34.16.46 0 .44 0 .64-.05 1-.06 0-.14.15-.11.25-.22a4 4 0 0 0 .87.14c.22-.07.06-.12.16-.2 0 .13.33.12.17.21a4.53 4.53 0 0 0 1-.13c-.05-.05-.11-.08-.08-.12s.2.05.19.12c.54-.19 1.24.37 1.67.11l.44-.14c.2 0-.12.1 0 .18.48-.21.76 0 1.15-.11.31.38 1.08 0 1.5.21v-.09c.11-.09.13.05.21.07s-.12-.08 0-.13a14.09 14.09 0 0 1 2.79.21c.34 0 .19-.46.62-.25l-.12.17c.68-.2 1.4 0 2.06-.16 0 0 0 .09-.11.09.14.12.52 0 .52-.09s0 .09.09.14.36-.15.43 0 0 0-.07 0 .43 0 .34-.12c.25.07.48-.06.68 0 .13-.15.43.07.47-.14 0 .23.44.18.6.08-.05.07.14.07.08.17.18 0 .35 0 .31-.16.33.27.67-.22.86.13a13.51 13.51 0 0 1 1.52-.26c0 .23-.53 0-.51.26a3.37 3.37 0 0 1 1.18-.23c.12 0-.07.1-.11.14.46-.09.89 0 1.29-.1l-.09.06c-.09.06.19 0 .18-.07h-.08c-.13-.15.32-.31.33-.39-.14.29.4.07.19.45.05 0 .12-.07.11-.14s.1.06 0 .14c.29-.06.19-.16.45-.16 0 0-.05.07-.08.13a.57.57 0 0 1 .48-.15s0 .07-.05.07c.38 0 .65-.26 1.06-.16-.12.22.14.07.16.26l.22-.06-.09-.09c.2 0 .37-.13.54-.07l-.15.08h.37l-.21-.07c.2-.1 0-.24.24-.18-.05 0 .2 0 .3.11a.38.38 0 0 1 .34-.08v.25c.1-.16.46 0 .58-.21a.18.18 0 0 0 0 .16l.08-.13c.09 0 .1.06.09.14.27 0-.09-.24.24-.13h-.07c.33.05.63-.08.93 0 .09.19-.26 0-.16.2a7.69 7.69 0 0 1 1.31-.18h-.08c.06-.27.31.13.52 0-.05 0-.07.15-.05.12a3.36 3.36 0 0 0 1-.15l-.05.07a4.23 4.23 0 0 0 .62.07c.05-.07.16-.06.09-.16.56.39 1.07-.21 1.56.12-.06 0-.14.06-.09.06l.42-.06c0-.12-.06-.07-.14-.16a.38.38 0 0 1 .28-.12c-.19.08 0 .19.08.25s0-.07 0-.11c.22.21 0-.23.34-.09v.06c.11 0 .22-.11.34-.09s-.12.06-.13.17c.17 0 .34-.25.49-.12-.07 0-.18 0-.25.07a.39.39 0 0 0 .31.14l.29.07h-.07c.21-.35.44-.06.72-.29-.28.22 0 .13-.07.28s.19.09.15.13c.14-.12.23.1.42-.08 0 0 .15 0 .11.13.18 0 0-.08 0-.15.27-.17.64.2 1 0s.4-.26.72-.34c.11.08-.09.18-.09.18a.58.58 0 0 0 .46 0s0 .08.05.13.09-.18.26-.11a.67.67 0 0 1-.13.2c.15 0 .3-.14.46-.18s-.1.13-.15.18c.18 0 .46-.08.51-.21h-.11c.06 0 0 .12 0 .14a.14.14 0 0 1-.23-.1h.11c-.12-.29-.45 0-.68 0l.09-.21-.23.17c0-.05-.08-.17 0-.2-.16-.1-.14.07-.28 0l-.16.06s0-.15.07-.12c-.28-.12-.46.16-.57 0-.4.07 0 .15-.33.33l-.2-.38v.15L100 19c-.15.1 0 .07-.06.17-.2-.14-.54.07-.58-.18-.07.12.19.09 0 .17-.06-.26-.24 0-.42-.08.06-.14.23-.06 0-.18-.11.23-.35 0-.5 0s-.33.08-.58.14c0-.06-.48-.1-.71-.17 0 .18-.29.15-.47.19a.2.2 0 0 1 .13-.2h-.17a.27.27 0 0 1-.2.11v-.14c-.22 0-.45.16-.73.07 0 .13.23.36-.07.44 0-.07 0-.19.06-.22s-.09.06-.14 0l.12-.12c-.13-.05-.07.1-.17.09s-.08-.07-.06-.15.09 0 .13 0a.48.48 0 0 1-.31-.15c0 .06 0 .13-.09.15s-.08-.12-.21-.17-.2 0-.2.15-.08-.07-.1-.11-.54 0-.41.18c-.38.15-.78-.08-1.15 0a2.42 2.42 0 0 0-.65.14c-.07 0-.16-.09-.13-.15a.54.54 0 0 1-.44 0c.17-.09-.06-.08.18-.06-.22 0-.27-.12-.51 0 .08-.13-.17-.16-.27-.12l.15.09a1.22 1.22 0 0 1-.33 0l.06-.17c-.45-.2-.82.34-1.16 0-.12.12.25.08.14.22-.21 0-.43-.26-.49-.26-.29-.09-.27.24-.56.18 0 .06.07.22-.15.27s-.26-.25-.12-.3.07 0 .07 0 .16 0 .07-.11v.06c-.1-.06-.39-.05-.32-.15-.16.06-.07.1 0 .13-.27-.09-.42 0-.69-.06 0 0 .08.1 0 .1-.4-.07-.18.11-.45.14s.06-.22-.22-.14 0-.16 0-.21c-.25.11-.47-.08-.61-.1h.13a.56.56 0 0 1-.21 0l.08.12c-.08 0-.14 0-.14-.07s.06.2-.1.3c-.1-.06-.31.06-.35-.09.33.05 0-.16.24-.18a.33.33 0 0 1-.2 0c-.31-.14-.14.18-.47.17 0-.09-.07-.17-.13-.15.13 0 .06.15-.06.22s-.22.05-.33 0h.12c0 .09-.15.08-.29.1s.13 0 .08-.08c-.16.16-.36-.16-.58-.06-.1-.06 0-.17-.1-.21-.25.12-.27-.12-.53 0 .08.12.09.09-.1.21l.43-.08-.28.17c.13 0 .28-.08.35-.05-.13.1-.12.07-.06.17-.18-.18-.35.1-.56 0v-.3c-.31-.13-.55.15-1 .08l.13.05c-.05.12-.25 0-.38.06s-.07-.13-.12-.2-.29 0-.33.19l.08-.2c-.33-.05-.37.28-.68.25.09-.11 0-.18.16-.25h-.2s-.29.13-.39 0-.06.15-.18.14-.18.07-.08.18c-.32-.31-.9 0-1.18-.24-.23 0-.5.06-.71.07-.29-.09-.18.28-.5.18-.17-.16.17-.09.07-.15 0-.32-.39 0-.61-.15h.05c-.17-.11-.41.12-.68.1a1.76 1.76 0 0 1-.8.27c.08-.13.12-.07.07-.2s0 .21-.2.24c-.08-.07-.25-.13-.27-.27h.22c-.11-.18-.29 0-.4 0v-.08c-.34 0-.34.22-.71.21v.06c-.2.19-.17-.11-.37 0l-.06-.2a4.19 4.19 0 0 1-.7.23 2.08 2.08 0 0 1 .58-.31c-.13 0-.44 0-.51.11s.12-.07.17 0a.85.85 0 0 1-.63.23c0-.38-.68-.1-.87-.39-.46.14-.91-.06-1.45 0 .19.3-.16 0-.12.31h-.18l-.38-.18c-.09-.09.12-.07.11-.14-.27 0-.11-.13-.3-.21 0 .11-.1.16-.25.11l.22.14c-.38.16-.33-.26-.71-.1l.12-.1c-.2.06-.73 0-.92.24 0 0-.08-.12 0-.14-.47 0-1.05.26-1.42.11v-.07c-.09 0-.15.14-.26.07s0-.07 0-.08-.23.13-.35.09l.1-.08c-.46-.1-.71.2-1.09.26 0-.22-.36-.29-.54-.33a5.77 5.77 0 0 0-1.41.27c-.31-.24-1-.1-1.54-.23.08 0 0 .17-.1.19s-.32.15-.3 0c-.09-.2-.33-.15-.51-.15v.26c-.49-.38-1.28.14-1.54-.2-.12.07-.26.07-.38.13v-.14a3.7 3.7 0 0 0-.89 0l.08-.1c-.23 0-.29.41-.5.42l-.06-.21c-.4 0-.8-.18-1.19 0 0 0 0-.09.08-.1-.19 0-.72-.14-.65.15 0-.19-.41 0-.62.06v-.14c-.18.18-.19.23-.44.28-.06 0-.05-.11 0-.08-.2-.07-.16.13-.4.06l.09-.09c-.21 0-.19 0-.3.14s-.39 0-.42-.16a.23.23 0 0 1-.26.14V19c-.34-.09-.51.16-.75 0a.11.11 0 0 0 0-.08 2.91 2.91 0 0 1 .47 0c0-.13-.22-.15 0-.33-.18.1-.48.31-.69.25a.18.18 0 0 0-.14 0 .61.61 0 0 0-.18 0c0-.11-.25-.06-.36-.06s-.13.12 0 .23h.4c-.09.07-.18.13-.3.05l-.15.23c-.15-.2-.44-.3-.48-.42-.33.08-.79.05-1 .32-.1 0-.11-.08-.15-.12s.12 0 .15-.06c-.19.07-.56 0-.61.21-.24-.08.13-.17-.2-.14v-.06c-.65-.29-1.06.47-1.78.09 0 0 .07 0 .08.06-.82-.17-1.69.16-2.5-.11-.23-.05-.25.06-.4.15v-.15l-.24.17c-.34.13-.59-.37-1-.13l.06.1c-.15 0-.49.06-.46-.06s-.05.11-.11.05v-.08l-.38.14c-.29-.06 0-.31-.38-.33-.16 0-.46.23-.4.28s.17 0 .17.13h-.15c0 .23-.14.47.22.63l.25-.14.08.11h-.08c.12.11.2 0 .28-.05a.2.2 0 0 0 .1.12l.25-.22c0 .09-.11.18.05.23.12-.1-.11-.2.08-.27.12.11.08.19.23.1 0 .06 0 .1-.07.12.13-.07.33 0 .4-.15.12.13.42 0 .41.19a.66.66 0 0 1 .37-.4c-.21.26.43 0 .37.3.16-.24.56-.11.84-.24 0 0 0 .06-.07 0 .15 0 .2.09.3.14 0-.2.26-.24.39-.36.19.19-.12.23-.06.41 0-.16.33-.16.27-.29.15.12.13.06.2.22 0-.24.14 0 .26-.19.21.12.05.23.28.15s-.13.2-.13.2zm5.49-.42zm.46 0h-.2v-.1s.13.05.2.1zm-1-1h.11-.13a.2.2 0 0 1 .04.02zm-.11.21zm41.81.2z"/><path class="b" d="M59.97 19.79v-.04l-.04.03.04.01zm36.87-.37zm1.1.03l.16.05zm.84.07a.23.23 0 0 0 0-.06zm-13.41.16c-.11.04-.06.03 0 0zm3.99-.33l-.13.07c.07.01.13.01.13-.07zm-8.45.5zm8.09-.43a.25.25 0 0 0 .19 0 .38.38 0 0 0-.19 0zm13.44.16zm.04-.02s.01-.01 0 0zm.14-.05h-.1s.08.04.1 0zm-1.3.01v.05a.1.1 0 0 0 0-.05zm-.32.01c.08 0 .2.11.32.08-.06.03-.26-.16-.32-.08zm-1.43-.63h.28c0-.05-.12-.13 0-.14-.34-.12.09.16-.28.14zm-.89-.08c.15 0 0-.08 0-.11s-.11.07 0 .11zm-6.37 0v-.13c-.1.02.01.05 0 .13zm-1.22.66l.12.08.05-.11-.17.03zm-.72-.91l.05-.02-.19.05.14-.03zm-10.7.05v.16c.11-.03.13-.21 0-.16zm-4.67.16a.18.18 0 0 0-.26-.05c.15.01.26.07.26.05zm-13.81-.26l.09-.05-.17.04.08.01z"/><path class="c" d="M0 0h146v21H0z"/></svg>