<svg xmlns="http://www.w3.org/2000/svg" width="146" height="21" viewBox="0 0 146 21"><defs><style>.a{fill:#5d0e5a}.b{fill:#6d2e6a}.c{fill:none}</style></defs><title>txt_akiho</title><path class="a" d="M58 4.95a.59.59 0 0 1-.42 1h-3.46a.09.09 0 0 0 0 .06 14.24 14.24 0 0 0 2.05 1.44 13.54 13.54 0 0 0 1.76.85.42.42 0 0 1 .26.31.43.43 0 0 1-.1.4.92.92 0 0 1-.45.33.77.77 0 0 1-.25 0 .88.88 0 0 1-.3-.05q-.3-.14-.59-.3a.07.07 0 0 0-.08 0 .08.08 0 0 0 0 .07v4.65a.68.68 0 0 1-.67.67h-.26A.4.4 0 0 1 55 14h-5.79l-.05.05a.42.42 0 0 1-.41.41h-.23a.65.65 0 0 1-.64-.64V9.16a.08.08 0 0 0 0-.07.07.07 0 0 0-.08 0q-.37.21-.75.38a.92.92 0 0 1-.31.05h-.23a1 1 0 0 1-.51-.34.46.46 0 0 1-.1-.41.4.4 0 0 1 .27-.31 11.44 11.44 0 0 0 1.79-.9 11 11 0 0 0 2-1.5.06.06 0 0 0 0-.1h-3.54a.59.59 0 1 1 0-1.18h4.78a.12.12 0 0 0 .14-.14v-1a.11.11 0 0 0 0-.09.15.15 0 0 0-.1 0q-1.8.16-3.31.22a.6.6 0 0 1-.4-.15.82.82 0 0 1-.27-.4.41.41 0 0 1 0-.38.4.4 0 0 1 .32-.18A46.24 46.24 0 0 0 55 1.84h.27a1.26 1.26 0 0 1 .37.05 1.19 1.19 0 0 1 .53.33.39.39 0 0 1 .09.41.37.37 0 0 1-.31.27q-1.42.3-3.19.52a.14.14 0 0 0-.14.15v1.07a.12.12 0 0 0 .14.14h4.79a.57.57 0 0 1 .45.17zm-9.86 3.9h7.96a14 14 0 0 1-3.35-2.58.06.06 0 0 0-.1 0v1.65a.67.67 0 0 1-1.34 0V6.28a12.34 12.34 0 0 1-3.16 2.57zM54.87 11a.12.12 0 0 0 .14-.14v-.77a.12.12 0 0 0-.14-.14H49.3a.12.12 0 0 0-.14.14v.77a.12.12 0 0 0 .14.14zm-5.71 1.85a.12.12 0 0 0 .14.14h5.58a.12.12 0 0 0 .14-.14V12a.12.12 0 0 0-.14-.14H49.3a.12.12 0 0 0-.14.14zM63.3 9.63a.59.59 0 0 1 .21 0 .52.52 0 0 1 .23.05.49.49 0 0 1 .26.32.55.55 0 0 1 0 .18.65.65 0 0 1-.08.31.69.69 0 0 1-.36.34l-3 1.35a.74.74 0 0 1-.27.05.71.71 0 0 1-.26-.05.62.62 0 0 1-.36-.37.61.61 0 0 1-.05-.25.63.63 0 0 1 .07-.29.66.66 0 0 1 .4-.37l1.05-.41a.19.19 0 0 0 .12-.19V6.53a.12.12 0 0 0-.14-.14h-.81a.59.59 0 0 1-.43-.18.61.61 0 0 1 0-.87.59.59 0 0 1 .43-.18h.81a.12.12 0 0 0 .19-.16V2.64a.6.6 0 0 1 .18-.44.61.61 0 0 1 .86 0 .6.6 0 0 1 .18.44V5a.12.12 0 0 0 .14.14h.6a.58.58 0 0 1 .44.18.63.63 0 0 1 0 .88.58.58 0 0 1-.44.18h-.6a.12.12 0 0 0-.14.14v3.3a.08.08 0 0 0 0 .07.09.09 0 0 0 .08 0l.39-.13zM70.94 6a.73.73 0 0 1 .4 0l.25.08a.49.49 0 0 1 .28.23.44.44 0 0 1 0 .36 12.42 12.42 0 0 1-2.19 4.94.12.12 0 0 0 0 .19 8.15 8.15 0 0 0 1 .81 8.06 8.06 0 0 0 1.12.64.5.5 0 0 1 .3.37.36.36 0 0 1 0 .14.51.51 0 0 1-.12.33 1 1 0 0 1-.51.36h-.23a.81.81 0 0 1-.34-.08 8.78 8.78 0 0 1-2.17-1.57.12.12 0 0 0-.19 0 10.31 10.31 0 0 1-2.3 1.63.73.73 0 0 1-.3.07.62.62 0 0 1-.22 0 .88.88 0 0 1-.44-.31.58.58 0 0 1-.1-.31.65.65 0 0 1 0-.12.5.5 0 0 1 .27-.36 8.66 8.66 0 0 0 2.2-1.54.14.14 0 0 0 0-.21A14.21 14.21 0 0 1 66 8a10.67 10.67 0 0 1-1.86 6.12.52.52 0 0 1-.42.21.68.68 0 0 1-.68-.59v-.08a.6.6 0 0 1 .12-.37 6.63 6.63 0 0 0 .84-1.51 7.7 7.7 0 0 0 .5-1.74q.15-.91.21-1.63t.05-1.62v-3a1.19 1.19 0 0 1 1.19-1.19h5.75a.6.6 0 0 1 .43.18.61.61 0 0 1 0 .88.6.6 0 0 1-.43.18h-5.57a.12.12 0 0 0-.14.14v1.88a.12.12 0 0 0 .14.14h4.81zm-.53 1.35a.1.1 0 0 0 0-.1.1.1 0 0 0-.08 0h-3.18a.09.09 0 0 0-.08 0 .09.09 0 0 0 0 .08 10.43 10.43 0 0 0 1.61 3.27.09.09 0 0 0 .08 0 .12.12 0 0 0 .09 0 10.57 10.57 0 0 0 1.56-3.27zm8.21 1.54a.8.8 0 0 1 .18.52.91.91 0 0 1-.15.51.39.39 0 0 1-.35.16.38.38 0 0 1-.3-.2q-.27-.48-.62-1v5.26a.63.63 0 0 1-1.26 0v-5a15.59 15.59 0 0 1-1.48 2.8.38.38 0 0 1-.31.16h-.07a.49.49 0 0 1-.36-.26 1.12 1.12 0 0 1-.12-.51.47.47 0 0 1 0-.11 1.11 1.11 0 0 1 .22-.57 14.32 14.32 0 0 0 1.85-3.45.09.09 0 0 0 0-.08.08.08 0 0 0-.07 0H74.3a.58.58 0 0 1-.42-.18.59.59 0 0 1-.18-.43.57.57 0 0 1 .18-.42.59.59 0 0 1 .42-.17h1.59a.12.12 0 0 0 .11-.17V4a.11.11 0 0 0 0-.09.1.1 0 0 0-.1 0q-.7.14-1.26.22h-.08a.6.6 0 0 1-.33-.1.84.84 0 0 1-.29-.36.44.44 0 0 1 0-.37.41.41 0 0 1 .29-.22 24.51 24.51 0 0 0 3.42-.81 1.14 1.14 0 0 1 .3 0h.26a1 1 0 0 1 .48.3.45.45 0 0 1 .11.29.33.33 0 0 1 0 .12.42.42 0 0 1-.29.31q-.49.15-1.08.29a.17.17 0 0 0-.14.18v2a.12.12 0 0 0 .14.14h1.19a.59.59 0 0 1 .42.17.57.57 0 0 1 .18.42.59.59 0 0 1-.18.43.58.58 0 0 1-.42.18h-1.2c-.09 0-.14 0-.14.12a.3.3 0 0 0 .1.22q.52.56 1.24 1.45zM82 2.55a.58.58 0 0 1 .18-.42.59.59 0 0 1 .43-.18.57.57 0 0 1 .42.18.59.59 0 0 1 .17.42q0 2.88-.15 4.59a.92.92 0 0 0 0 .27q.73 4.38 2.93 6a.56.56 0 0 1 .23.38v.1a.53.53 0 0 1-.12.34.76.76 0 0 1-.44.27h-.12a.63.63 0 0 1-.36-.11 8.12 8.12 0 0 1-2.58-4.09 7.43 7.43 0 0 1-2.76 4.14.68.68 0 0 1-.36.11h-.12a.77.77 0 0 1-.45-.25.53.53 0 0 1-.15-.37.47.47 0 0 1 .22-.41 5.64 5.64 0 0 0 1.13-1.05 8 8 0 0 0 .81-1.18 6.26 6.26 0 0 0 .55-1.46q.23-.88.34-1.53a15.55 15.55 0 0 0 .18-1.8Q82 5.32 82 4.62t0-2.07zm-1.61 5.94a.63.63 0 0 1-.36.33.73.73 0 0 1-.23 0 .71.71 0 0 1-.26-.05.49.49 0 0 1-.29-.31.48.48 0 0 1 0-.19.55.55 0 0 1 .05-.25 8.3 8.3 0 0 0 .62-2.5.57.57 0 0 1 .21-.37.48.48 0 0 1 .41-.11.58.58 0 0 1 .52.59 7.16 7.16 0 0 1-.67 2.86zm4.38-2.9a.68.68 0 0 1 .31-.4.73.73 0 0 1 .33-.08h.18a.58.58 0 0 1 .38.3.6.6 0 0 1 .07.27.62.62 0 0 1 0 .22q-.59 1.5-1.07 2.53a.64.64 0 0 1-.34.31.74.74 0 0 1-.27.05h-.19a.43.43 0 0 1-.31-.26.48.48 0 0 1 0-.41 21.7 21.7 0 0 0 .9-2.52zm7.37 3.23a.78.78 0 0 1 .18.51.74.74 0 0 1-.16.48.35.35 0 0 1-.34.16.44.44 0 0 1-.34-.21q-.19-.34-.53-.86v5.22a.61.61 0 0 1-.18.44.64.64 0 0 1-.9 0 .61.61 0 0 1-.18-.44V9.45a14.65 14.65 0 0 1-1.11 2.32.32.32 0 0 1-.33.17.4.4 0 0 1-.33-.23 1.19 1.19 0 0 1-.14-.53 1.13 1.13 0 0 1 .19-.62 15.44 15.44 0 0 0 1.57-3.43.09.09 0 0 0 0-.08.09.09 0 0 0-.08 0h-1.19a.58.58 0 0 1-.44-.18.61.61 0 0 1 0-.86.58.58 0 0 1 .44-.18h1.19a.12.12 0 0 0 .14-.14V4a.11.11 0 0 0 0-.09.08.08 0 0 0-.08 0l-.94.15h-.1a.59.59 0 0 1-.37-.06.68.68 0 0 1-.27-.34.41.41 0 0 1 0-.37.37.37 0 0 1 .3-.29 24 24 0 0 0 2.42-.53 1.94 1.94 0 0 1 .56-.08 2 2 0 0 1 .45.05 1.66 1.66 0 0 1 .88.48.28.28 0 0 0 .22.1h2.93a.11.11 0 0 0 .12-.12v-.4a.59.59 0 0 1 .18-.43.61.61 0 0 1 .88 0 .59.59 0 0 1 .18.43v.4a.11.11 0 0 0 .12.12h2.54a.54.54 0 0 1 .38.16.51.51 0 0 1 .16.38.53.53 0 0 1-.16.44.53.53 0 0 1-.38.16h-2.51a.12.12 0 0 0-.14.14v.6a.12.12 0 0 0 .14.14h1.65A1.19 1.19 0 0 1 100 6.23v2.39a1.19 1.19 0 0 1-1.19 1.19H96a9.24 9.24 0 0 1 1.19.85.49.49 0 0 1 .17.39.56.56 0 0 1-.17.39.55.55 0 0 1-.38.15.63.63 0 0 1-.4-.18 8.68 8.68 0 0 0-1-.81.48.48 0 0 1-.25-.44.47.47 0 0 1 .18-.37H94a1.19 1.19 0 0 1-1.19-1.19V6.23A1.19 1.19 0 0 1 94 5h1.56a.12.12 0 0 0 .14-.14v-.58a.12.12 0 0 0-.14-.14h-2.14a.93.93 0 0 1-.92-.92.07.07 0 0 0-.1-.07 11.94 11.94 0 0 1-1.4.44.17.17 0 0 0-.12.18v1.87a.12.12 0 0 0 .14.14h.89a.57.57 0 0 1 .42.18.61.61 0 0 1 0 .86.57.57 0 0 1-.43.18H91a.12.12 0 0 0-.14.14v.07a.4.4 0 0 0 .08.25q.48.49 1.2 1.36zm.86 4.92a.55.55 0 0 1-.36.27h-.15a.62.62 0 0 1-.3-.08.46.46 0 0 1-.23-.33.67.67 0 0 1 0-.12.55.55 0 0 1 .08-.29 7.61 7.61 0 0 0 .71-1.74.48.48 0 0 1 .24-.31.44.44 0 0 1 .38 0 .61.61 0 0 1 .33.28.48.48 0 0 1 0 .4 8 8 0 0 1-.7 1.92zM94.14 6a.12.12 0 0 0-.14.14v.72a.12.12 0 0 0 .14.14h1.45a.12.12 0 0 0 .14-.14v-.73a.12.12 0 0 0-.14-.13zm0 1.87A.12.12 0 0 0 94 8v.74a.12.12 0 0 0 .14.14h1.45a.12.12 0 0 0 .14-.14V8a.12.12 0 0 0-.14-.14zm1.76 5.73h1.27a.36.36 0 0 0 .33-.14 1.54 1.54 0 0 0 .14-.62.32.32 0 0 1 .18-.28.43.43 0 0 1 .36 0 .85.85 0 0 1 .38.31.63.63 0 0 1 .11.36.42.42 0 0 1 0 .1 2 2 0 0 1-.4 1.1 1.28 1.28 0 0 1-.94.29h-1.59a1.74 1.74 0 0 1-1.2-.3 1.69 1.69 0 0 1-.3-1.18v-1.78a.58.58 0 0 1 .18-.42.59.59 0 0 1 .43-.18.57.57 0 0 1 .42.18.59.59 0 0 1 .17.42v1.74c0 .17 0 .28.09.33a.68.68 0 0 0 .37.06zm2.84-7.46a.12.12 0 0 0-.13-.14h-1.5a.12.12 0 0 0-.14.14v.72a.12.12 0 0 0 .14.14h1.5a.12.12 0 0 0 .14-.14zm-.14 2.75a.12.12 0 0 0 .14-.14V8a.12.12 0 0 0-.14-.14h-1.5A.12.12 0 0 0 97 8v.74a.12.12 0 0 0 .14.14zm-.22 2.73a.44.44 0 0 1-.08-.25.72.72 0 0 1 0-.14.5.5 0 0 1 .26-.3.74.74 0 0 1 .27-.05.55.55 0 0 1 .18 0 .59.59 0 0 1 .37.26 9.55 9.55 0 0 1 1 1.94.73.73 0 0 1 0 .23.61.61 0 0 1-.05.25.69.69 0 0 1-.36.34.51.51 0 0 1-.21 0 .62.62 0 0 1-.22 0 .6.6 0 0 1-.29-.33 10.23 10.23 0 0 0-.86-1.96z"/><path class="b" d="M103.71 19.52s0-.14-.08-.12l-.06.17zm-.6-.3c-.1.08-.23.22-.16.37.1-.16.13-.09.24-.28a.11.11 0 0 1 .14.11s.14 0 .19-.07a.29.29 0 0 0-.42 0s0-.1.01-.13zM94.4 19h.06zm-5.4-.13h.06s-.06-.02-.06 0zm-.92-.18h.05s-.04-.02-.05 0zm6.32.31l-.14-.05c-.01.05.07 0 .14.05zm7.51.62h.08-.07zm-5.13-.8v-.07zm1.82-.02s-.06.13-.07.2a.14.14 0 0 1 .09-.1.28.28 0 0 0-.02-.1zm2.9.2h.05zm-6.03-.21a.14.14 0 0 0 0-.05.09.09 0 0 0 0 .05zm-51.06 1.06s-.02 0 0 0zm-2.12-.7a.72.72 0 0 0 0-.08zm44.11-.64s.02-.01 0 0zm-15.48.1c.18.13-.29.16 0 .3-.05-.05.21-.22 0-.3zm30.94.99zm-30.97-.69zm11.62-.32a.18.18 0 0 0 0 .06s.03-.03 0-.06zm2.89.2h-.07zm-4.4 0h-.1s.1-.02.1 0zm-1.56 0zm-30.28.99a.42.42 0 0 1-.07-.13c.02.11-.21.14.07.13zm52.75-.24v.06h.05a.06.06 0 0 0-.05-.06zm-20.97.36h-.25zm-20.56-.14h-.06a.06.06 0 0 0 .06 0zM80 19.9a.35.35 0 0 0-.14-.1zm-30.91-.24z"/><path class="b" d="M47.45 20c.24 0 .11-.18.16-.29.28-.05.13.14.23.23s.31-.22.44-.21 0 0 0 .08c.19-.15.55 0 .77-.19a.56.56 0 0 1 0-.25c.11 0 .2-.12.24 0s-.07 0-.1.08l.11-.05c.1.17-.15.06-.15.19.22-.06.47-.2.64-.15s-.39.06-.17.21l-.26-.06c.2.27-.16 0 0 .27.34 0 .38-.09.72 0 .08-.09 0-.14.05-.23.48-.17.38.43.73.2.09-.11.13-.33.38-.21l-.09.19c.33 0 .19-.28.53-.15-.06.08-.26.06-.21.09.22.15.16-.11.33-.11v.17c.35 0 .73-.15 1.12-.18 0 .05-.09.1 0 .16a4.14 4.14 0 0 1 1.51.12l.18-.15s.08.07 0 .09c.18.06 0-.09.1-.15s.14.08.07.13a2 2 0 0 1 1.26-.11h-.07c.27.06.3-.3.55-.16a5.41 5.41 0 0 1 1.65.15c.08-.21.57.09.61-.2.33.15.23.2.7.3.12 0 .18-.18.34-.21v.15l.21-.16.11.18h.14c-.06 0-.12-.07-.11-.11a.56.56 0 0 1 .55.19l.53-.13c0 .06-.1.08-.17.12.28-.16.05.16.31 0v-.12a1 1 0 0 0 .64.05v.11c.39 0 .83-.05 1.27 0a.13.13 0 0 1 0-.25l.05.16c.08-.1-.13-.06 0-.18s.11.19 0 .24l.2-.06v.14c.08-.1.35.16.46 0 .44 0 .64-.05 1-.06 0-.14.15-.11.25-.22a4.05 4.05 0 0 0 .87.14c.22-.07.07-.12.17-.2 0 .13.33.12.17.21a4.59 4.59 0 0 0 1-.13c-.05-.05-.11-.08-.08-.12s.2.05.19.12c.54-.19 1.25.37 1.68.11l.45-.14c.21 0-.12.1 0 .18.48-.21.76 0 1.16-.11.31.38 1.09 0 1.51.21v-.09c.11-.09.13.05.21.07s-.12-.08 0-.13a14.31 14.31 0 0 1 2.81.21c.34 0 .19-.46.62-.25l-.12.17c.69-.2 1.41 0 2.08-.16 0 0 0 .09-.11.09.14.12.53 0 .53-.09s0 .09.09.14.36-.15.43 0 0 0-.07 0 .43 0 .34-.12c.25.07.48-.06.69 0 .13-.15.43.07.47-.14 0 .23.44.18.6.08-.05.07.14.07.08.17.18 0 .35 0 .32-.16.34.27.68-.22.86.13a13.73 13.73 0 0 1 1.53-.26c0 .23-.54 0-.52.26a3.42 3.42 0 0 1 1.19-.23c.12 0-.07.1-.11.14.46-.09.89 0 1.3-.1l-.09.06c-.09.06.19 0 .18-.07h-.08c-.13-.15.32-.31.34-.39-.14.29.41.07.19.45.05 0 .12-.07.11-.14s.1.06 0 .14c.29-.06.19-.16.45-.16 0 0-.05.07-.08.13a.58.58 0 0 1 .49-.15s0 .07-.05.07c.38 0 .65-.26 1.07-.16-.12.22.14.07.16.26l.23-.06-.09-.09c.2 0 .37-.13.54-.07l-.15.08h.37l-.21-.07c.2-.1 0-.24.24-.18-.05 0 .2 0 .3.11a.38.38 0 0 1 .34-.08v.25c.1-.16.46 0 .58-.21a.18.18 0 0 0 0 .16l.08-.13c.09 0 .1.06.09.14.27 0-.09-.24.24-.13h-.07c.33.05.63-.08.93 0 .09.19-.26 0-.16.2a7.81 7.81 0 0 1 1.32-.18h-.08c.06-.27.31.13.52 0-.05 0-.07.15-.05.12a3.42 3.42 0 0 0 1-.15l-.05.07a4.29 4.29 0 0 0 .63.07c.05-.07.16-.06.1-.16.56.39 1.08-.21 1.58.12-.06 0-.14.06-.1.06l.43-.06c0-.12-.06-.07-.15-.16a.39.39 0 0 1 .28-.12c-.19.08 0 .19.08.25s0-.07 0-.11c.22.21 0-.23.34-.09v.06c.11 0 .22-.11.34-.09s-.12.06-.13.17c.17 0 .34-.25.5-.12-.07 0-.18 0-.25.07a.39.39 0 0 0 .32.14l.29.07h-.07c.22-.35.44-.06.73-.29-.28.22 0 .13-.07.28s.19.09.15.13c.14-.12.23.1.42-.08 0 0 .15 0 .12.13.18 0 0-.08 0-.15.28-.17.65.2 1 0s.4-.26.72-.34c.11.08-.09.18-.09.18a.59.59 0 0 0 .46 0s0 .08.05.13.09-.18.26-.11a.67.67 0 0 1-.13.2c.15 0 .31-.14.46-.18s-.1.13-.15.18c.18 0 .46-.08.52-.21h-.12c.07 0 0 .12 0 .14a.14.14 0 0 1-.23-.1h.11c-.12-.29-.46 0-.68 0l.1-.21-.23.17c0-.05-.08-.17 0-.2-.16-.1-.15.07-.29 0l-.16.06s0-.15.07-.12c-.29-.12-.46.16-.57 0-.4.07 0 .15-.34.33l-.2-.38v.15s-.12 0-.11-.08c-.15.1 0 .07-.06.17-.2-.14-.55.07-.59-.18-.07.12.19.09 0 .17-.06-.26-.24 0-.42-.08.06-.14.23-.06 0-.18-.11.23-.35 0-.5 0s-.34-.1-.63-.1c0-.06-.48-.1-.72-.17 0 .18-.29.15-.47.19a.2.2 0 0 1 .14-.2h-.17a.27.27 0 0 1-.2.11v-.14c-.22 0-.45.16-.74.07 0 .13.23.36-.08.44 0-.07 0-.19.06-.22s-.09.06-.15 0l.12-.12c-.13-.05-.07.1-.17.09s-.08-.07-.06-.15.09 0 .13 0a.49.49 0 0 1-.31-.15c0 .06 0 .13-.09.15s-.08-.12-.21-.17-.2 0-.2.15-.08-.07-.1-.11-.54 0-.41.18c-.38.15-.79-.08-1.16 0a2.45 2.45 0 0 0-.66.14c-.07 0-.16-.09-.13-.15a.55.55 0 0 1-.44 0c.17-.09-.06-.08.18-.06-.22 0-.27-.12-.51 0 .08-.13-.17-.16-.27-.12l.16.09a1.23 1.23 0 0 1-.33 0l.06-.17c-.46-.2-.82.34-1.17 0-.12.12.25.08.14.22-.21 0-.43-.26-.49-.26-.29-.09-.27.24-.57.18 0 .06.08.22-.15.27s-.26-.25-.13-.3.07 0 .07 0 .16 0 .07-.11v.06c-.1-.06-.39-.05-.33-.15-.16.06-.07.1 0 .13-.27-.09-.42 0-.7-.06 0 0 .08.1 0 .1-.41-.07-.18.11-.46.14s.06-.22-.22-.14 0-.16 0-.21c-.25.11-.47-.08-.62-.1h.13a.56.56 0 0 1-.21 0l.08.12c-.08 0-.14 0-.14-.07s.06.2-.1.3c-.1-.06-.32.06-.35-.09.33.05 0-.16.24-.18a.33.33 0 0 1-.2 0c-.31-.14-.14.18-.47.17 0-.09-.08-.17-.13-.15.13 0 .06.15-.06.22s-.23.05-.34 0h.12c0 .09-.15.08-.29.11s.13 0 .08-.08c-.16.16-.36-.16-.59-.06-.1-.06 0-.17-.1-.21-.25.12-.27-.12-.54 0 .08.12.09.09-.1.21l.44-.08-.28.17c.13 0 .28-.08.36-.05-.13.1-.12.07-.06.17-.18-.18-.36.1-.56 0v-.3c-.31-.13-.56.15-1 .08l.13.05c-.05.12-.25 0-.38.06s-.07-.13-.13-.2-.3 0-.33.19l.07-.12c-.33-.05-.37.28-.69.25.09-.11 0-.18.16-.25h-.2s-.29.13-.39 0-.06.15-.18.14-.18.07-.08.18c-.32-.31-.91 0-1.19-.24-.23 0-.51.06-.71.07-.29-.09-.18.28-.5.18-.17-.16.17-.09.07-.15 0-.32-.4 0-.62-.15h.05c-.17-.11-.41.12-.69.1a1.78 1.78 0 0 1-.81.27c.08-.13.12-.07.07-.2s0 .21-.2.24c-.08-.07-.25-.13-.27-.27h.22c-.11-.18-.29 0-.41 0v-.08c-.34 0-.35.22-.71.21v.06c-.2.19-.17-.11-.37 0l-.06-.2a4.27 4.27 0 0 1-.7.23 2.09 2.09 0 0 1 .59-.31c-.13 0-.45 0-.52.11s.12-.07.17 0a.86.86 0 0 1-.64.23c0-.38-.68-.1-.87-.39a6.09 6.09 0 0 1-1.46 0c.19.3-.16 0-.12.31h-.18l-.38-.18c-.09-.09.12-.07.11-.14-.27 0-.12-.13-.3-.21 0 .11-.1.16-.25.11l.22.14c-.38.16-.33-.26-.72-.1l.12-.1c-.2.06-.73 0-.93.24 0 0-.08-.12 0-.14-.48 0-1.06.26-1.43.11v-.07c-.09 0-.15.14-.27.07s0-.07 0-.08-.24.13-.35.09l.1-.08c-.46-.1-.71.2-1.1.26 0-.22-.36-.29-.55-.33a5.85 5.85 0 0 0-1.42.27c-.31-.24-1.05-.1-1.55-.23.08 0 0 .17-.1.19s-.32.15-.31 0c-.09-.2-.33-.15-.52-.15v.26c-.49-.38-1.29.14-1.56-.2-.12.07-.27.07-.38.13v-.14a3.76 3.76 0 0 0-.9 0l.08-.1c-.23 0-.29.41-.5.42l.13-.45c-.4 0-.8-.18-1.2 0 0 0 0-.09.08-.1-.19 0-.73-.14-.66.15 0-.19-.41 0-.63.06v-.14c-.18.18-.19.23-.44.28-.06 0-.05-.11 0-.08-.2-.07-.16.13-.4.06l.09-.09c-.21 0-.19 0-.3.14s-.39 0-.42-.16a.23.23 0 0 1-.26.14s0-.08.05-.09c-.35-.09-.51.16-.75 0a.1.1 0 0 0 0-.08 3 3 0 0 1 .48 0c0-.13-.22-.15 0-.33-.18.1-.48.31-.7.25a.19.19 0 0 0-.14 0 .62.62 0 0 0-.18 0c0-.11-.25-.06-.37-.06s-.14.12 0 .23h.4c-.09.07-.18.13-.3.05l-.15.23c-.15-.2-.44-.3-.48-.42-.34.08-.8.05-1 .32-.1 0-.11-.08-.15-.12s.12 0 .15-.06c-.19.07-.57 0-.61.21-.24-.08.14-.17-.2-.14v-.06c-.65-.29-1.06.47-1.79.09.05 0 .08 0 .09.06-.83-.17-1.7.16-2.52-.11-.23-.05-.26.06-.4.15l-.05-.15L45 19c-.34.13-.59-.37-1-.13l.06.1c-.16 0-.49.06-.47-.06s-.05.11-.11.05v-.08l-.38.14c-.3-.06 0-.31-.39-.33-.16 0-.46.23-.4.28s.17 0 .17.13h-.15c0 .23-.14.47.22.63l.25-.14.08.11h-.21c.12.11.2 0 .28-.05a.2.2 0 0 0 .11.12l.25-.22c0 .09-.11.18.06.23.12-.1-.11-.2.08-.27.12.11.09.19.23.1 0 .06 0 .1-.07.12.13-.07.33 0 .4-.15.13.13.43 0 .41.19a.67.67 0 0 1 .34-.18c-.21.26.43 0 .38.3.16-.24.57-.11.84-.24 0 0 0 .06-.07 0 .16 0 .2.09.3.14 0-.2.26-.24.39-.36.19.19-.12.23-.06.41 0-.16.33-.16.27-.29.15.12.13.06.2.22 0-.24.14 0 .26-.19.21.12.05.23.29.15s-.11.27-.11.27zm5.55-.43zm.46 0h-.2v-.1s.12.05.19.09zm-1-1h.11-.13a.21.21 0 0 1 .02.02zm-.13.2zm42.14.23z"/><path class="b" d="M59.87 19.83l-.01-.03-.04.03h.05zM97 19.46zm1.13.04l.16.05zm.87.07a.23.23 0 0 0 0-.06zm-13.54.16c-.11.03-.05.02 0 0zm4.03-.33l-.13.07c.07.01.12.01.13-.07zm-8.49.5zm8.17-.43a.25.25 0 0 0 .19 0 .38.38 0 0 0-.19 0zm13.5.16zm.04-.02s.01-.01 0 0zm.14-.05h-.1s.08.04.1 0zm-1.31 0v.05a.1.1 0 0 0 0-.05zm-.34.02c.08 0 .21.11.32.08-.04.03-.24-.17-.32-.08zm-1.43-.63h.29c0-.05-.12-.13 0-.14-.35-.12.09.19-.29.14zm-.89-.08c.15 0 0-.08 0-.11s-.11.06 0 .11zm-6.42 0v-.13c-.1.02.02.05 0 .13zm-1.23.66l.12.08.05-.12-.17.04zm-.72-.91l.05-.02-.2.05.15-.03zm-10.79.05v.16c.12-.04.13-.21 0-.16zm-4.65.16a.18.18 0 0 0-.26-.05c.1 0 .19.07.26.05zm-13.97-.26l.09-.05-.17.04.08.01z"/><path class="c" d="M0 0h146v21H0z"/></svg>