<svg xmlns="http://www.w3.org/2000/svg" viewBox="0 0 332.45 66.14"><defs><style>.cls-1,.cls-2,.cls-3{fill:none;stroke-linecap:round;stroke-linejoin:round}.cls-1,.cls-3{stroke:#e9528e}.cls-1{stroke-width:.85px}.cls-2{stroke:#7f2334;stroke-width:.95px}.cls-3{stroke-width:.6px}</style></defs><title>name_akiho72</title><g id="レイヤー_2" data-name="レイヤー 2"><g id="text"><path class="cls-1" d="M13.87 19.4c.11.19 7.3-4.46 7.41-4.28s-5.21 3.8-5.13 3.94 5.93-3.62 6-3.47-4.09 3.07-4 3.18 4.22-2.58 4.28-2.47-1.35 2-1.32 2 1.22-.75 1.24-.71"/><path class="cls-1" d="M.55 18.54s1.27-.78 1.29-.75S.4 19.27.43 19.31s3-1.83 3-1.76S.5 19.92.55 20s4.63-2.83 4.7-2.71S1 20.72 1.1 20.84s6.73-4.11 6.83-3.94-4.25 3.75-4.17 3.87 8.9-5.44 9-5.21-7 4.73-6.9 4.91 7.3-4.46 7.41-4.28-5.79 3.89-5.7 4 7.3-4.46 7.41-4.28-5 4.22-4.91 4.36 8.28-5.06 8.4-4.85-8.47 5.18-8.31 5.39 9.44-5.81 9.57-5.53-9.63 5.82-9.49 6.06c0 .08 3-1.85 3.07-1.77s-3 2.45-3 2.53 3-1.84 3.06-1.77-3 2.29-3 2.37 3-1.84 3.06-1.76-3 2-3 2.12 3-1.84 3.05-1.76-2.94 2.77-2.89 2.85 3-1.83 3-1.76-2.92 2.86-2.87 3 3-1.83 3-1.75S10.91 26 11 26.12s3-1.82 3-1.75-3 2.43-2.92 2.51 3-1.82 3-1.75-2.67 2.69-2.62 2.77 2.75-1.68 2.79-1.61-1.42 1.93-1.39 2 1.32-.81 1.34-.77M9.32 3.53c.06.1 3.9-2.39 4-2.29S10 3.43 10.07 3.51s3.52-2.15 3.57-2.06S11 3.57 11 3.64s3.17-1.94 3.21-1.86S11.88 3.94 11.92 4s2.83-1.73 2.87-1.66-2.49 1.9-2.46 2 2.77-1.69 2.81-1.62-1.92 2.58-1.88 2.65 2.64-1.61 2.68-1.55-2.48 1.87-2.44 1.94 2.64-1.62 2.68-1.55-2.4 2.51-2.36 2.58 2.72-1.66 2.76-1.59-3 3.15-2.9 3.24 3.19-1.95 3.23-1.87-4.13 3.29-4.07 3.43 4-2.46 4.09-2.36"/><path class="cls-1" d="M5.13 2.35C5.17 2.42 7.95.63 8 .7S3.37 4.64 3.44 4.77 10.86.24 11 .43s-7.81 4.82-7.7 5S11.53.4 11.65.61 2.94 6 3.07 6.2 12.27.58 12.4.81 2.86 7 3 7.2s3.91-2.39 4-2.3S2.94 8 3 8.09s3.22-2 3.26-1.88S3 8.33 3 8.41s3.08-1.87 3.13-1.79-2.94 2.5-2.89 2.59S6.06 7.49 6.1 7.56s-2.55 2.66-2.51 2.74 2.7-1.65 2.74-1.58-2.51 2-2.47 2 2.63-1.57 2.67-1.5-2.29 2.18-2.25 2.25S7 9.82 7 9.89s-2.34 2-2.3 2.1 2.77-1.69 2.81-1.62-2.43 2-2.39 2S8 10.66 8 10.73s-2.47 2-2.43 2.11S8.67 11 8.71 11s-2.08 2.42-2 2.49 4-2.45 4.07-2.35S7.51 13.87 7.57 14s9.13-5.58 9.27-5.35-8.17 5.44-8 5.65 7.64-4.67 7.75-4.47-7.4 4.4-7.29 4.59 7-4.25 7.06-4.08-7 4.62-6.92 4.81 6.17-3.77 6.26-3.61S9.46 16 9.55 16.15s3-1.83 3-1.76"/><path class="cls-2" d="M55 52.39c.06.11 4.25-2.6 4.31-2.49s-2.89 3-2.84 3.05 1.47-.9 1.5-.86M52 38.34c.08.14 5.7-3.49 5.79-3.34s-2.42 3.11-2.37 3.2 2.44-1.49 2.47-1.43"/><path class="cls-2" d="M43.74 41.26c.19.33 12.86-7.86 13-7.53s-12 8-11.79 8.35 12.45-7.61 12.63-7.29-12.27 7.5-12.09 7.81c.07.12 4.83-2.95 4.9-2.83S45.95 43 46 43.16s4.5-2.75 4.57-2.64-3.86 3.33-3.8 3.48 4.5-2.75 4.57-2.64-4.08 3.51-4 3.62 4.85-3 4.92-2.84-5.11 3.74-5 3.87 5.62-3.44 5.7-3.29"/><path class="cls-2" d="M33.35 51.08c.14.24 9.37-5.73 9.51-5.49s-7.25 5.17-7.14 5.41 7.83-4.79 7.95-4.59-4 4.26-4 4.38c.19.34 13.31-8.14 13.51-7.8s-9.91 7.34-9.76 7.6 11-6.71 11.14-6.43-8.27 6.14-8.14 6.36 9.19-5.61 9.32-5.38-8.19 6.41-8.06 6.64 9.35-5.72 9.49-5.48-10 6.7-9.83 7S58 46.74 58.15 47"/><path class="cls-2" d="M34 57.38c.07.12 4.69-2.87 4.76-2.75s-3 2.57-3 2.65 4.7-2.87 4.76-2.75-1 2.5-1 2.56 4.71-2.88 4.78-2.76-1.59 2.53-1.55 2.59c.23.4 15.73-9.62 16-9.22s-13 9.13-12.79 9.48 13.16-8 13.36-7.71-13 8.33-12.81 8.67c.1.18 7-4.3 7.15-4.13s-7.6 5.45-7.49 5.65 7.13-4.36 7.23-4.18M34.64 42.6c.24.42 16.57-10.13 16.81-9.71s-15.74 10.58-15.51 11 18.9-11.55 19.17-11.07S34.9 45.71 35.2 46.23c.1.18 7-4.28 7.11-4.1"/><path class="cls-2" d="M19.66 36s1.46-.89 1.48-.86-1.46 2.5-1.42 2.57 4.8-2.93 4.87-2.81-3.88 3.89-3.81 4 7.28-4.45 7.39-4.26-6.4 4.62-6.3 4.79 8.45-5.17 8.58-5-6 4.81-5.93 5 8.87-5.42 9-5.2-6.71 4.87-6.6 5c.22.38 15.14-9.25 15.36-8.87s-14.08 9.16-13.87 9.52 13.74-8.4 13.95-8.05S28 41.07 28.25 41.44s14.65-9 14.87-8.58c.36.62-24.34 15.35-24 16S45.66 32.62 46.05 33.3 18.24 49.37 18.64 50.07s28.87-17.65 29.29-16.91S18.59 50.54 19 51.28s27.35-16.71 27.75-16S19.6 51.61 20 52.3c.15.26 10.31-6.3 10.47-6s-10 6.29-9.83 6.55 9.82-6 10-5.75-6 5.26-5.93 5.44 8.27-5.06 8.39-4.85-8 5.21-7.86 5.42c.24.42 16.68-10.19 16.92-9.77S25.2 54.07 25.45 54.51s16.68-10.19 16.92-9.77-17.05 10.5-16.8 10.94c.09.15 6-3.64 6.05-3.49s-6 5.31-5.85 5.48 6.05-3.7 6.14-3.54-6.1 4.72-6 4.88 7.15-4.37 7.25-4.19-7.28 4.8-7.17 5 8.46-5.17 8.59-5-8.62 5.71-8.49 5.94 10.32-6.31 10.47-6S26 61.64 26.19 61.91s6-3.64 6-3.49-5.87 4.65-5.78 4.82 5.69-3.47 5.77-3.33S26.88 64 27 64.17s5.8-3.55 5.89-3.4-4.58 4.32-4.5 4.45 6.86-4.2 7-4-5.66 4.06-5.57 4.21 7.35-4.49 7.46-4.31-5.4 4.09-5.28 4.23 7.48-4.57 7.59-4.38-5.66 4.18-5.59 4.34 7.59-4.64 7.7-4.45-4.59 4.24-4.51 4.37c.23.4 15.94-9.74 16.18-9.34s-14.78 8.93-14.56 9.3 14.19-8.66 14.41-8.3-11.56 7.94-11.38 8.24 10.9-6.66 11.06-6.39-8.79 6.1-8.66 6.33 8.29-5.06 8.41-4.85-5.18 4.63-5.09 4.78 4.6-2.81 4.67-2.7-2.88 2.48-2.84 2.56 2.11-1.29 2.14-1.24m-28.9-36.43S24 26.36 24 26.4s-1.2 2.07-1.17 2.13 4.42-2.7 4.49-2.59-3.25 3.45-3.19 3.56 7-4.3 7.14-4.12-6.31 4.3-6.22 4.47 8.15-5 8.27-4.77-5.28 4.82-5.19 5 9.74-6 9.88-5.7-5.86 5.07-5.77 5.24 10.21-6.24 10.36-6-8.14 5.67-8 5.88 10.92-6.67 11.08-6.39-10.24 6.71-10.08 7 12.31-7.52 12.49-7.21S36 31.21 36.21 31.53s13.69-8.37 13.89-8c.08.15-5.1 4.41-5 4.56s6.13-3.74 6.22-3.59-3 3.13-3 3.22 3.52-2.15 3.58-2.06-1.67 1.79-1.64 1.84 1.43-.87 1.45-.84"/><path class="cls-2" d="M34.06 57.63s.72-.44.73-.42 1 .31 1 .33.72-.44.73-.42 3 .16 3 .23.72-.44.73-.42 1.85.25 1.88.29.72-.44.73-.42 2.32.27 2.35.32.49-.3.49-.28l.6 1.17.32-.19s-.38 1-.37 1 .46-.28.47-.27"/><path class="cls-2" d="M32.26 58.17s1.56-1 1.58-.91-1.68 2.88-1.64 3 .32-.2.33-.19 1.07 1.22 1.09 1.25.47-.29.48-.28 1.31.3 1.33.33.72-.44.73-.42 3.23.14 3.27.21.72-.44.73-.42 3.41.12 3.45.2.72-.44.73-.42m-10.88-9.2s.72-.44.73-.42 2.5.2 2.53.25.72-.44.73-.42 2.64.19 2.67.24.72-.44.73-.42.83.32.84.34.72-.44.73-.42 1.42.28 1.44.31.72-.44.73-.42 1.92.32 1.95.36.44-.27.45-.26.53 1.43.55 1.46.36-.22.36-.21-.72 1.3-.7 1.33.53-.32.54-.31"/><path class="cls-2" d="M31.67 51.86s1.55-.95 1.57-.91-1.83 2.39-1.79 2.45.32-.19.32-.19.5 1.36.52 1.39.34-.21.34-.2 2.37.5 2.4.55.72-.44.73-.42 2.23.21 2.26.26.72-.44.73-.42 3.35.13 3.39.2.72-.44.73-.42 2.22.21 2.25.26 1-.6 1-.57M43.81 41.5s.37-.23.38-.22l.5.84s.34-.21.34-.2l.63 1.23s.34-.21.34-.2l.68 1.27L47 44s-.13 1.94-.11 2 .51-.31.51-.3M42.22 42s1.33-.81 1.35-.78S42 42.86 42 42.91s.39-.24.39-.23-.26 1.6-.24 1.63.34-.21.34-.2.1 1.29.11 1.32.32-.2.33-.19.18.9.19.92.36-.22.37-.21 1.74 1.06 1.76 1.11.52-.32.53-.31M34.6 42.86s.48-.3.49-.28.6 1.53.62 1.56.36-.22.37-.21-1 1.9-.95 1.95.68-.41.69-.4m-3.18-1.93s1.79-1.1 1.82-1.05-4.21 3.89-4.14 4 .39-.24.39-.23.11 1.2.12 1.23.31-.19.31-.18l.48.57s.55-.33.56-.32M24.19 26.5s.87-.53.88-.51 2.14 0 2.16.08.87-.53.88-.51 1.86.07 1.89.11.88-.54.9-.52 3.62-.24 3.66-.16.9-.55.91-.53 1.27.15 1.28.18.9-.55.92-.53 2.34 0 2.37 0 .91-.56.92-.53 3.51-.28 3.56-.21.92-.56.94-.54 1.94.08 2 .13.68-.42.69-.4 1.56.79 1.58.82.37-.23.38-.22 1.22 1.43 1.24 1.47.34-.21.34-.2v.88c0 .01.32-.19.32-.19s-.42 1.31-.4 1.34.46-.28.46-.27m-7.25 2.15s.81-.5.83-.48 1.39.19 1.41.22.82-.5.83-.48 1.54.17 1.56.21.82-.5.83-.48"/><path class="cls-2" d="M42.72 29.12s1.93-1.18 2-1.13-2.56 3.48-2.51 3.58.34-.2.34-.2v1s.32-.2.32-.19l.64 1s.36-.22.37-.21 2.34.35 2.37.41S47 33 47 33s1.88.2 1.91.24.75-.46.76-.44 2 .19 2 .23.75-.46.76-.44 2.73.35 2.77.41.4-.24.41-.23l.7.74s.34-.21.34-.2.22.69.23.71.34-.21.34-.2.19.9.21.92.32-.2.33-.19.05 1.16.07 1.19.34-.21.35-.2-.61 1.57-.59 1.61.49-.3.5-.29m-6.04 1.72s.7-.43.71-.41 2.67.21 2.71.27.84-.51.85-.49"/><path class="cls-2" d="M50.54 39s1.38-.84 1.4-.81-1.48 2.31-1.44 2.37.31-.19.32-.18.11.73.12.75.35-.21.35-.2.24.7.24.72.34-.21.35-.2l.51.95s.34-.21.35-.2l.56 1s.34-.21.35-.2l.33.78s.34-.21.35-.2l.61 1s.35-.21.35-.2l1 1.34s.35-.21.35-.2l.28.71s.35-.21.35-.2l.5.88s.35-.21.36-.21l.52 1s.33-.2.33-.19.26 1.5.28 1.53.33-.2.33-.19-.94 2.12-.91 2.17.61-.37.62-.36m-4.2 1.97s.37-.23.38-.22.8.75.81.78.75-.46.76-.44m-3.21.18s1.16-.73 1.16-.7S53.54 54 53.57 54s.42-.26.43-.25-.84 2.42-.81 2.47.42-.26.43-.25-.78 2.08-.75 2.13.42-.26.43-.25-.86 2.51-.83 2.57.42-.26.43-.25-.69 1.62-.67 1.66.42-.26.43-.25-1.23 1.86-1.21 1.91.78-.48.79-.46M19.49 35.77s1.55-1 1.58-.91-1.59 2.87-1.55 2.94.33-.2.34-.2l.78 1.45s.4-.24.4-.23 1 .82 1 .85.58-.36.59-.34 1.3.34 1.31.37.73-.45.74-.43 2.85.22 2.89.28.46-.28.46-.27.28 1.49.3 1.52.44-.27.45-.26c.11.19-6.8 5.46-6.69 5.65s2.43-1.49 2.47-1.42-6 4.31-5.94 4.47.66-.4.67-.39-.74 2-.71 2 .34-.21.34-.2.27 1.17.29 1.2.32-.19.32-.19l.73 1.11s.35-.21.35-.2 1 .8 1 .83.68-.42.69-.4 2.62 0 2.65 0 .32-.19.32-.19-.15.93-.14.95.36-.22.36-.21-.3 1-.28 1 .36-.22.36-.21-.21 1.91-.19 1.95.36-.22.36-.21-.27 1.3-.25 1.33.36-.22.36-.21-.28 1.21-.26 1.24.36-.22.36-.21-.3 1-.28 1 .36-.22.36-.21-.19 2.13-.17 2.17.36-.22.36-.21-.16 1.77-.13 1.81.33-.2.33-.19.08 1.27.1 1.29.32-.2.33-.19.11.74.12.75.32-.2.33-.19l.58.85s.37-.22.37-.21 2.31.55 2.34.6.68-.41.69-.4 2.13.28 2.16.33.68-.41.69-.4 2.3.28 2.32.33.68-.41.69-.4 1.71.3 1.74.34.68-.41.69-.4 2.61.26 2.64.32.68-.41.69-.4 1.13.33 1.15.36.68-.41.69-.4.88.34.89.36.68-.41.69-.4 1.06.33 1.08.36.68-.41.69-.4.77.34.79.36 1-.6 1-.58"/><path class="cls-2" d="M21.19 35.23s.75-.46.76-.44 2.66.13 2.7.19.75-.46.76-.44 2.79.12 2.82.18.75-.46.76-.44 1.5.24 1.52.27.75-.46.76-.44 2.29.17 2.32.22S35.84 33 35.87 33m-13.39-6s1.43-.87 1.45-.84-1.45 2.21-1.42 2.27.31-.19.32-.18l.85 1.22s.35-.22.36-.21l.42.63s.43-.26.43-.25 2.16.67 2.19.72.71-.43.72-.41 3.25-.06 3.29 0 .81-.5.82-.48 1.85.13 1.88.17.56-.34.57-.33.77.67.79.7.37-.23.37-.22.38 1.56.41 1.6.34-.21.34-.2-.88 1.73-.85 1.77.72-.44.73-.42m61.3 28.83c.1.18 7.08-4.33 7.19-4.15s-5 4.53-4.92 4.67 6.16-3.77 6.25-3.61-5.61 4-5.52 4.1 5.89-3.6 6-3.45-5.21 4-5.13 4.09 5.31-3.25 5.39-3.11-4.7 3.36-4.63 3.49 4.5-2.75 4.56-2.64-3.17 2.75-3.12 2.84 2-1.23 2-1.18M93.55 44.45c.15.26 10.26-6.27 10.41-6s-6.82 5.23-6.71 5.41 7.56-4.62 7.67-4.43-7 4.6-6.87 4.78 7.23-4.42 7.34-4.24-7 4.66-6.9 4.84 7.2-4.4 7.31-4.22-7.46 5.28-7.34 5.48 7.71-4.71 7.82-4.51-8.89 5.7-8.76 5.93 8.84-5.4 9-5.18"/><path class="cls-2" d="M87.82 52.22c.09.15 6-3.69 6.13-3.54s-4.86 3.87-4.78 4c.25.43 17.09-10.44 17.34-10S90 53.74 90.24 54.18s15.61-9.54 15.83-9.14S90.21 55.61 90.45 56s14-8.53 14.16-8.17-15.51 10.1-15.28 10.5 13.7-8.37 13.9-8-15.54 10.39-15.3 10.8 14-8.58 14.24-8.22S88.8 62.28 89 62.64s13.24-8.09 13.44-7.76-12.69 7.94-12.5 8.26 12.73-7.78 12.91-7.46-11.52 7.88-11.35 8.18 12.21-7.46 12.39-7.15-11 7-10.82 7.31c0 0 1.94-1.19 2-1.14m-2.66-30.75c.18.31 12.41-7.59 12.59-7.27s-10.32 6.56-10.17 6.82 10.57-6.46 10.73-6.19-6 5.22-5.86 5.39 6.53-4 6.63-3.83-2.56 3.06-2.51 3.14 2.38-1.45 2.41-1.39"/><path class="cls-2" d="M79.47 39c.36.63 24.71-15.1 25.08-14.48S81.1 39.28 81.45 39.88c.11.19 7.37-4.51 7.48-4.32s-7.18 5.78-7.06 6 7-4.26 7.08-4.09-7.49 5.48-7.37 5.68 8-4.88 8.1-4.68-8.47 5.73-8.34 5.95 9.25-5.65 9.38-5.42-10 7.38-9.87 7.65 14.45-8.83 14.66-8.46M84.08 27.51s1.82-1.11 1.84-1.06-2.45 3-2.4 3.13 5.48-3.35 5.56-3.21-5.86 5-5.77 5.14 9.74-6 9.89-5.71-10.19 6.68-10 6.95 12.94-7.91 13.13-7.58-13.71 8.93-13.51 9.28 17.26-10.55 17.52-10.11"/><path class="cls-2" d="M71 25.45s1.79-1.09 1.81-1-2.37 2.71-2.32 2.79 4.07-2.49 4.13-2.39-4.22 4-4.15 4.11 5.15-3.15 5.23-3-5.32 3.76-5.24 3.9 5.51-3.37 5.59-3.23-5.7 5.05-5.61 5.22 5.74-3.51 5.82-3.36S69.8 33.84 69.9 34s6.32-3.86 6.41-3.7-10.38 6.89-10.22 7.16 10.09-6.17 10.24-5.91-10.16 6.67-10 6.93 10-6.11 10.15-5.86S66.81 39.7 67 40s10.57-6.46 10.73-6.19-9.27 6.68-9.13 6.93S79.85 33.8 80 34.08s-10.08 7-9.93 7.23 10.65-6.51 10.8-6.24-10.61 7.4-10.45 7.68c.47.81 32-19.59 32.52-18.77S70 43.63 70.44 44.47c.09.16 6.42-3.93 6.52-3.76s-6.62 4.66-6.52 4.84 6-3.65 6.06-3.5-6.16 4.23-6.07 4.39 5.91-3.61 6-3.46-6.09 4.26-6 4.42 5.92-3.62 6-3.47-6.33 5.44-6.23 5.62 6.16-3.77 6.25-3.61-10.51 7.32-10.35 7.6 10.25-6.26 10.4-6-10.44 7.4-10.28 7.68 11-6.7 11.13-6.42-11 6.81-10.81 7.09 11.92-7.29 12.1-7-11.51 7.63-11.34 7.93c.49.85 33.46-20.45 33.95-19.6S69.41 56.55 69.87 57.36 102.95 37.15 103.43 38c.4.69-27.11 16.34-26.71 17 .21.37 14.63-8.94 14.85-8.57s-13.84 9.12-13.63 9.48 14.06-8.6 14.31-8.25S77.9 56.59 78.11 57s14.8-9 15-8.67-15.7 9.9-15.47 10.3c.12.21 8.18-5 8.3-4.79s-8.83 5.69-8.7 5.91 8.37-5.11 8.49-4.9-9 6.85-8.83 7.1 8.2-5 8.32-4.81-7.22 6.1-7.12 6.3 6.45-3.94 6.54-3.78-5.06 4.07-5 4.21 4.52-2.76 4.58-2.65S80.85 64 80.9 64.1s3-1.86 3.09-1.78"/><path class="cls-2" d="M93.65 44.69s1-.63 1-.6 2-.06 2 0 .68-.42.69-.4l.86 1.1s.32-.2.33-.19-.74 2-.71 2.07.7-.43.71-.41"/><path class="cls-2" d="M91.73 45.35s1.74-1.07 1.77-1-2.07 1.94-2 2 .35-.22.36-.21.13 1.38.15 1.41.31-.19.32-.18l.7 1s.38-.23.39-.22l.57.7s.56-.34.56-.33.88.39.89.41 2.15-1.31 2.18-1.26m-18.05-8.43s.57-.35.58-.33 1.15 1.21 1.17 1.24.32-.19.32-.19v1.41c0 .03.35-.22.36-.21s-.57 1.4-.55 1.43.43-.26.43-.25-.77 1.84-.74 1.88.43-.26.43-.25-.77 1.8-.75 1.84.43-.27.44-.25-.8 1.32-.78 1.35.52-.32.52-.3m-3.87-6.47c0 .06 2.21-1.35 2.24-1.29s-3.1 3.28-3 3.38.41-.25.42-.24-.48 1.53-.46 1.56.37-.23.38-.22-.38 1-.37 1.05.37-.23.38-.22-.38 2-.35 2.09.37-.23.38-.22-.18 2.13-.15 2.18.32-.2.33-.19 1.4 1 1.42 1.06 1.94-1.19 2-1.14M73 24.51s.59-.36.6-.35 1 .74 1 .77.35-.21.35-.2l.48.92s.32-.2.33-.19.31 1.72.33 1.76.34-.21.34-.2-.27 1-.26 1.07.37-.23.38-.22-.38 1.55-.36 1.59.37-.23.38-.22-.38 2-.36 2.05.37-.23.38-.22-.29 1.38-.27 1.42.33-.2.34-.19.58 1.36.6 1.39.38-.23.38-.22 2.36.75 2.39.8.32-.19.32-.19.07.84.08.86.35-.21.35-.2.71.61.72.63 1.41-.86 1.43-.83"/><path class="cls-2" d="M83.92 27.32s1.9-1.16 1.92-1.11-2.52 2.39-2.48 2.47.48-.29.49-.28-.63 1.42-.61 1.46.4-.25.41-.24-.63 2-.6 2 .4-.25.41-.24-.61 1.65-.59 1.69.41-.25.41-.24-.71 1.36-.69 1.39.55-.34.56-.32m2.68-7.28s.83-.51.84-.48 3.11.24 3.15.31.86-.53.87-.5 1.41.16 1.42.19 1-.58 1-.56 2.7-.23 2.73-.17 1-.63 1-.6 3.67-.45 3.72-.37 1-.63 1-.6 1.71.31 1.73.34.43-.26.44-.25.9.85.92.88.35-.21.35-.2l.78 1.56s.32-.2.32-.19v1.11c0 .02.34-.2.34-.2s-.22.93-.2 1 .34-.21.34-.2-.76 1.34-.74 1.37.58-.35.59-.34m-13.88 3.62s1-.61 1-.58 3.47-.27 3.52-.2S98 31 98 31s1.26.15 1.28.17.92-.56.94-.54 1.79 0 1.81.09.92-.56.94-.54 1 .19 1 .21 2.37-1.45 2.4-1.39"/><path class="cls-2" d="M89.92 33.42c0 .06 2.41-1.47 2.44-1.41s-3.64 3.49-3.57 3.6.47-.29.48-.27-.62 1.13-.6 1.16.35-.21.35-.2-.27 1-.26 1 .35-.21.35-.2.18 1.1.19 1.13.32-.19.32-.19l.68.91s.39-.24.4-.23 1 .37 1 .39 1-.62 1-.59 2.67-.25 2.7-.2 1.07-.65 1.08-.62 3.93-.45 4-.36.67-.41.68-.39l.63.51s.49-.3.5-.29l.72.75s.39-.24.39-.23l.63 1s.34-.21.34-.2l.68 1.3s.33-.2.34-.19.46 1.33.48 1.36.32-.2.33-.19 0 .84 0 .86.33-.2.34-.2-.13 1.38-.11 1.41.38-.23.38-.22-.41 1.08-.4 1.1.38-.23.38-.22-1 1.69-.93 1.74.55-.34.56-.32-1.7 2.39-1.66 2.45.61-.37.62-.36S104 48.56 104 48.6s.63-.38.64-.37-1.53 1.85-1.5 1.9.64-.39.65-.38-1.85 3-1.8 3 .45-.28.46-.26-.46 1.19-.45 1.22.37-.22.37-.22-.2 1.11-.19 1.14.33-.2.33-.19.54 1.62.56 1.65.33-.2.33-.19 1.15 1.37 1.18 1.41.36-.22.37-.21l.57.9s.33-.2.33-.19.55 1.51.57 1.55.32-.2.33-.19-.38 1.62-.36 1.66.46-.28.47-.27-1.47 1.68-1.44 1.72.9-.55.91-.52m-8.8-.14s.59-.36.6-.34 1 .6 1.06.63.38-.23.39-.22 1.28 1.31 1.3 1.35.35-.22.36-.21 1.64 1 1.67 1 .6-.37.61-.35m-8.15-1.05c0 .05 2-1.22 2-1.17m-9.48-8.74s.58-.35.59-.34 1.1 1.36 1.12 1.4.35-.21.35-.2.25 1.71.27 1.75.38-.23.38-.22-.5 1.66-.48 1.7.43-.26.44-.25-1.72 2-1.69 2.11 1-.6 1-.57-2.25 3.1-2.2 3.2.38-.23.39-.23.28 1.49.3 1.52.34-.21.34-.2 1.08 1.12 1.1 1.15.38-.23.39-.22l.55.73s.4-.24.4-.23 1.63.63 1.65.67 1.28-.78 1.3-.75m-7.93-10.45s1.69-1 1.71-1-2.4 3-2.35 3.1.44-.27.44-.26-.94 2.28-.91 2.33.44-.27.45-.26-.78 1.55-.75 1.58.44-.27.45-.26-1 2-.93 2.09.52-.32.52-.3-.86 1.67-.83 1.72.44-.27.45-.26-1 1.5-.95 1.54.61-.37.62-.36"/><path class="cls-2" d="M70.86 25.25s1.86-1.14 1.89-1.09-2.54 2.81-2.5 2.89.39-.24.39-.23-.43 1.9-.4 1.95.38-.23.38-.22-.41 1.08-.39 1.1.38-.23.38-.22-.43 2.16-.4 2.21.38-.23.38-.22-.91 2.36-.88 2.42.64-.39.65-.38-4.63 3.76-4.55 3.88.43-.26.43-.25S66 38.37 66 38.4s.33-.2.34-.19.25 1.64.27 1.68.32-.19.32-.19l.82 1.19s.56-.34.57-.33 1.37.66 1.39.69.33-.2.33-.19.13 1.53.15 1.56.38-.23.38-.22-.42 1.89-.39 1.93.38-.23.38-.22-.41 1.27-.39 1.3.38-.23.38-.22-.4 1.08-.39 1.11.38-.23.38-.22-.4 1.15-.39 1.18.38-.23.38-.22-.61 2.3-.58 2.35.42-.25.42-.24-4.58 4.1-4.51 4.24.6-.36.61-.35-.61 2-.58 2.08.33-.2.33-.19-.06.86 0 .88.32-.2.32-.19.31 1.17.33 1.19.35-.22.36-.21 1.56 1.06 1.59 1.1.66-.4.67-.39 5.88-2 6-1.83 1.07-.66 1.09-.63 1 1 1 1l.32-.19v1.15c0 .03.37-.22.37-.21s-.83 1.82-.8 1.87.49-.3.5-.29-.97 1.37-.97 1.4.51-.31.51-.3-1 2.48-.94 2.54.33-.2.33-.19.61 1.78.64 1.83.37-.22.37-.21 1 .73 1 .75.5-.31.51-.3.71.5.73.52.5-.31.51-.3 1.33.43 1.34.46 1.67-1 1.69-1M151.35 33l1.65-1s-2.45 2.35-2.41 2.43 3.64-2.23 3.7-2.13-4.46 3.52-4.39 3.64 5.06-3.09 5.14-3-6.29 5.08-6.19 5.25 6.74-4.12 6.84-3.95-7.8 5.58-7.68 5.78 7.52-4.59 7.63-4.4S148 41.8 148.17 42s6-3.67 6.09-3.52-4.67 4.14-4.59 4.28 3.29-2 3.34-1.93m-24.26 11.45c.05.09 3.64-2.22 3.69-2.13s-2.13 2.5-2.09 2.57 1.38-.85 1.4-.81"/><path class="cls-2" d="M120.21 52.18c.14.24 9.47-5.79 9.61-5.55s-8.68 6.53-8.55 6.77 10-6.09 10.11-5.84-10.26 6.49-10.11 6.75 10.52-6.43 10.67-6.16-10.84 7-10.67 7.3 10.94-6.68 11.1-6.41-11.27 6.96-11.1 7.22 11.06-6.76 11.22-6.48-11.4 8.19-11.23 8.5c.09.15 5.93-3.62 6-3.47s-6.11 4.5-6 4.66 5.93-3.62 6-3.47-6.12 5-6 5.16 5.94-3.63 6-3.48-6.12 4.16-6 4.32 5.94-3.63 6-3.48-6 4.79-5.9 5 5.81-3.55 5.9-3.41-5.59 4.13-5.5 4.28 5.42-3.32 5.5-3.18-4.68 3.81-4.6 3.95 4.43-2.71 4.5-2.6-3.51 2.76-3.45 2.85 3-1.86 3.08-1.78m16.51-12.1c.07.13 5.1-3.12 5.18-3s-4.09 3.74-4 3.86 4.65-2.84 4.72-2.72-4.47 3.23-4.4 3.35 4.72-2.88 4.78-2.76-4.52 3.3-4.45 3.43 4.78-2.92 4.85-2.8-4.44 3.64-4.37 3.76 4.88-3 5-2.86-4.51 3.74-4.44 3.87 5-3.06 5.09-2.94-4.77 3.55-4.7 3.68 5.1-3.12 5.18-3-4.69 3.9-4.61 4 5.21-3.19 5.29-3.05-4.57 4.39-4.49 4.52 5.41-3.3 5.49-3.17-5.2 3.69-5.12 3.83 5.49-3.35 5.57-3.21-5.14 3.95-5.06 4.09 5.58-3.41 5.66-3.27-5.16 4.14-5.08 4.28 5.55-3.39 5.63-3.25-4.8 4.28-4.72 4.42 4.84-3 4.91-2.83-3.31 3.26-3.25 3.36 2.13-1.3 2.16-1.25"/><path class="cls-2" d="M129.06 41.8c.25.42 16.73-10.23 17-9.8s-14.87 9.32-14.65 9.7 14.24-8.7 14.45-8.34-13.39 9.36-13.19 9.72 12.63-7.72 12.81-7.4-8.16 6.38-8 6.61 7.54-4.61 7.66-4.42-7.48 5.71-7.36 5.92 6.92-4.23 7-4.05-7.77 6.18-7.64 6.39 7.48-4.57 7.59-4.38-8.45 6.7-8.32 6.94 9-5.51 9.15-5.28S135.83 49.7 136 50s9.79-6 9.94-5.74-10.79 7.42-10.62 7.74 11.17-6.82 11.33-6.54-12.25 8.19-12.07 8.54 12.56-7.68 12.74-7.36S133.8 55.2 134 55.55s13.67-8.35 13.87-8-14.93 9.52-14.71 9.9c.13.22 8.62-5.27 8.75-5.05s-9.57 6.34-9.43 6.59 8.87-5.42 9-5.19-9.71 7.33-9.55 7.6 8.71-5.32 8.84-5.1-8.76 5.6-8.63 5.83 8.21-5 8.33-4.81-7 5.9-6.93 6.1 6-3.7 6.13-3.54-4.41 4-4.34 4.16 3.63-2.22 3.68-2.12M141.33 25s1.77-1.08 1.8-1-2.38 2.23-2.33 2.3 3.65-2.23 3.7-2.14-4 4.14-3.92 4.27 5.43-3.32 5.5-3.18-5.79 4.82-5.7 5 6.13-3.74 6.22-3.59-6.6 5.65-6.49 5.84 6.28-3.84 6.37-3.68-6.65 4.87-6.55 5.05 6.27-3.83 6.37-3.68-6.84 4.63-6.74 4.81 6.5-4 6.59-3.81M133.21 34s.87-.53.89-.51-1.36 1.51-1.33 1.51 2-1.2 2-1.15"/><path class="cls-2" d="M114.56 39.07s1.55-.95 1.57-.91-1.66 2.61-1.62 2.68c.18.32 12.53-7.66 12.71-7.34s-11.89 8.26-11.71 8.57 12-7.33 12.17-7-11.32 7.3-11.15 7.59 11.72-7.17 11.9-6.87-9.93 6.94-9.78 7.2 11.72-7.17 11.9-6.87-11.44 7.45-11.27 7.74 16-9.77 16.23-9.37-17.56 11-17.3 11.46 18.07-11 18.34-10.59-20.95 12.84-20.64 13.38S138 35.25 138.3 35.81s-24.95 15.68-24.58 16.32c.2.34 13.43-8.21 13.62-7.87s-13.78 8.44-13.58 8.79 13.7-8.37 13.9-8-13.58 8.8-13.37 9.15 14.06-8.59 14.27-8.24-13.22 8.76-13 9.1c0 .08 3.13-1.92 3.18-1.84"/><path class="cls-2" d="M114.75 26.73s1.85-1.13 1.88-1.09-2 2.54-2 2.61 6.53-4 6.62-3.82-5.82 4.85-5.72 5 10.82-6.61 11-6.34-10.53 6.58-10.33 6.85 11.5-7 11.67-6.74-9.11 6.91-9 7.16 10.6-6.48 10.76-6.21-9.06 6.81-8.92 7.06 9.84-6 10-5.77-9.66 6.5-9.52 6.75 9.88-6 10-5.79-10.07 6.61-9.92 6.87 9.53-5.82 9.67-5.58-10.09 7.29-9.93 7.57 6.08-3.72 6.17-3.56-7 4.65-6.92 4.83 6.81-4.16 6.91-4m25.92-.36s.59-.36.6-.35l.51.62s.39-.24.39-.23.69 1.53.71 1.57.32-.2.33-.19-.1 1.39-.09 1.42.36-.22.36-.21-1.12 2.25-1.09 2.3.61-.37.62-.36-1.83 2.48-1.79 2.55.61-.37.62-.36-1.26 1.53-1.26 1.58.61-.37.62-.36m-2.42-7.35s1.7-1 1.72-1-3.2 3.71-3.13 3.82.56-.34.57-.33-1.79 2.82-1.75 2.9.56-.34.57-.33-1.29 1.78-1.26 1.82.56-.34.57-.33-.74 2.45-.71 2.51.33-.2.34-.19S149.57 43 149.6 43s.7-.43.71-.41"/><path class="cls-2" d="M116.9 25.74s1.23-.75 1.25-.72 4.19-.83 4.24-.74 1.28-.78 1.3-.75 3.55-.37 3.6-.29.49-.3.49-.29l.54.51s.38-.23.38-.22l.63.78s.33-.2.33-.19l.56 1.16s.33-.2.33-.19.46 1.47.48 1.5.32-.19.32-.19-4 3.92-3.9 4 .64-.39.65-.37-1.09 2.68-1.05 2.74.38-.23.38-.22-.23 2.14-.2 2.19.33-.2.34-.2.62 1.49.64 1.53.37-.23.38-.22 2.43.53 2.46.58 1.77-1.08 1.8-1"/><path class="cls-2" d="M133 33.8s1.05-.64 1.07-.62-1.48 1.61-1.46 1.66.49-.3.5-.29m1.02-.94s.39-.24.39-.23l.45.87s.35-.21.35-.2l.77 1.15s.35-.21.35-.2 1.12 1 1.14 1 .71-.43.72-.41m2.92-10.78s1.82-1.11 1.84-1.06-2.44 2.14-2.4 2.22.46-.28.46-.27-.72 1.85-.7 1.9.4-.24.4-.23-.56 1.66-.54 1.7.4-.24.41-.23-.55 1.31-.53 1.34.4-.25.41-.24-.72 2.46-.69 2.52.41-.25.41-.24-.59 1.42-.57 1.45.41-.25.42-.24-.68 1.19-.67 1.22.51-.31.52-.3m3.19-10.23s.68-.42.69-.4 1.48 1 1.51 1.05.34-.21.34-.2.41 1.12.43 1.15.32-.2.33-.19 0 1.11 0 1.13.36-.22.36-.21-.43 1.65-.41 1.69.41-.25.42-.24-.65 1.73-.63 1.77.41-.25.42-.24-.57 1.19-.55 1.22.41-.25.42-.24-.74 2.26-.71 2.31.42-.25.42-.24-.61 1.25-.59 1.28.42-.25.42-.24-.83 2.55-.8 2.61.42-.26.42-.24-.89 2.59-.85 2.65.43-.26.43-.25-.66 1.33-.64 1.36.43-.26.43-.25-.63 1.17-.61 1.2.43-.26.44-.25-.22 1.84-.2 1.88.42-.25.42-.24.46 1.84.49 1.88.34-.21.35-.2 0 .94.05 1 .37-.22.37-.21.37 1.45.39 1.48.33-.2.33-.19.19 1.09.2 1.11.32-.2.33-.19.06.86.07.87.32-.2.33-.19 0 .8 0 .82.33-.2.33-.19.44 1.43.45 1.47.32-.2.33-.19.2 1 .21 1 .33-.2.33-.19.4 1.3.41 1.33.33-.2.33-.19.35 1.2.37 1.23.33-.2.33-.19.72 1.69.74 1.73.33-.2.33-.19.15.87.16.89.33-.2.33-.19.63 1.49.65 1.53.33-.2.33-.19.12.8.13.82.33-.2.33-.19.44 1.38.46 1.41.32-.2.32-.19.06 2 .09 2 .38-.23.39-.22-1.5 2.29-1.47 2.35.85-.52.86-.5m-11.46-9.53s.47-.29.48-.28l.64 1.26s.33-.2.33-.19.17 1.17.18 1.19.33-.2.33-.19v.84c0 .02.33-.2.33-.19s.39 1.61.42 1.64.33-.2.33-.19.48 1.76.5 1.8.33-.2.33-.19.53 1.71.55 1.75.33-.2.33-.19.33 1.35.35 1.38.33-.2.33-.19.52 1.68.54 1.72.33-.2.33-.19.46 1.17.48 1.2.33-.2.33-.19l.38.62s.41-.25.42-.24.83.43.84.45 2-1.2 2-1.15m-12.19-10.1s1.31-.8 1.33-.77-1.9 2.34-1.86 2.41.46-.28.47-.27-.91 1.67-.88 1.71.47-.29.48-.28-1.21 2.57-1.18 2.63.48-.29.48-.28-.85 1.37-.83 1.4.48-.29.48-.28-1 1.92-1 2 .49-.3.49-.28-1.47 2.61-1.43 2.67.63-.39.64-.37"/><path class="cls-2" d="M129.13 42s.76-.47.78-.45 1.24.28 1.26.31.46-.28.46-.27.16 1 .17 1 .35-.21.35-.2 3.72-.58 3.77-.5.64-.39.65-.37l.69.95.32-.19s-.31 2.17-.28 2.22.46-.28.47-.27-1 2.14-1 2.2.46-.28.47-.27-.79 1.35-.77 1.38.46-.28.47-.27-1 2-1 2 .48-.29.48-.28-1.07 2.06-1 2.11.48-.29.48-.28-.94 1.46-.92 1.5.51-.31.51-.3-1.09 1.74-1.06 1.78.51-.31.51-.3-1.56 2.77-1.52 2.84.55-.34.56-.32-1.62 2.55-1.58 2.61.55-.34.56-.32-1.28 2.84-1.24 2.91.34-.21.34-.2.27 1.66.29 1.7.32-.2.33-.19l.64.92s.37-.23.37-.22.85.69.87.71.43-.26.43-.25 1.66.51 1.69.54 1.91-1.17 1.94-1.12"/><path class="cls-2" d="M127.42 42.56s1.56-1 1.58-.91-1.75 3-1.71 3.11.33-.2.33-.19.12.91.13.93.33-.2.33-.19l.72 1s.39-.24.39-.23 1.22 1 1.24 1.06.39-.24.39-.23l.67 1s.35-.21.35-.2.3 1.2.32 1.22.33-.2.33-.19-.43 2.19-.4 2.24.43-.26.44-.25m-3.73 1.78s.44-.27.44-.25 1.13.63 1.14.66 1.6-1 1.63-.94m-4.7.95s1.4-.86 1.42-.82-1.66 2.41-1.62 2.47.38-.23.38-.22-.4 1-.38 1 .38-.23.38-.22-.4 1.05-.38 1.08.38-.23.38-.22-.4 1.43-.38 1.46.38-.23.38-.22-.4 1.49-.38 1.53.38-.23.38-.22-.4 1.16-.38 1.19.38-.23.38-.22-.4 1.55-.38 1.59.38-.23.38-.22-.69 2.26-.66 2.31.47-.29.48-.28m-7.03-10.49s.4-.24.4-.23.33 1 .34 1 .32-.19.32-.19-.32 2.22-.29 2.27.38-.23.38-.22-.42 2.15-.39 2.2.38-.23.38-.22S121 58.93 121 59s.38-.23.38-.22S121 60.91 121 61s.38-.23.38-.22-.38 2.28-.35 2.34.34-.21.34-.2-.16 1.1-.14 1.13.34-.2.34-.2l.58 1.3s.38-.23.38-.22 1.45.7 1.48.73 1.29-.79 1.31-.75m-6.54-12.07s1.32-.81 1.34-.78m-5.68-13.18s1.59-1 1.61-.93-1.76 3-1.72 3 .33-.2.33-.19l.76 1.47s.36-.22.37-.21.93.85.95.88.55-.34.56-.32 1 .51 1 .53.44-.27.45-.26 0 1.87.06 1.91.53-.32.54-.31-3.2 3.41-3.14 3.51.93-.57.95-.55-3.52 3.67-3.45 3.78.62-.38.63-.36-.94 1.53-.92 1.57.4-.25.41-.24-.1 1.63-.08 1.67.32-.2.33-.19.42 1.09.43 1.11.36-.22.37-.21 1.28.74 1.3.78 2.06-1.26 2.09-1.21m-2.09-15.79s.87-.53.88-.51m-2.44-11.25s1.93-1.18 2-1.13-2.26 2.66-2.22 2.73.32-.2.33-.19.48 1.39.5 1.43.33-.2.34-.19.22.73.23.74.38-.23.38-.22 2 .77 2 .82.62-.38.62-.36 1.64.91 1.66 1 .32-.2.33-.19.21 1.1.22 1.13.33-.2.34-.2-.22 1.24-.21 1.27.38-.23.38-.22-.65 2.14-.62 2.19.42-.26.43-.25-1.15 1.44-1.13 1.48.66-.4.67-.38m57.01 22.4s1.67-1 1.7-1-3.08 3.07-3 3.16 4.53-2.77 4.6-2.65-5.08 4.43-5 4.58 5.74-3.51 5.82-3.37-5 4.62-4.9 4.77 4.57-2.79 4.64-2.68-2.92 3-2.87 3.07 1.85-1.13 1.87-1.08m16.59-2.61c.08.13 5.29-3.23 5.37-3.1s-4.56 3.59-4.49 3.72 4.79-2.91 4.79-2.79-4.12 3.81-4.05 3.93 4.31-2.63 4.37-2.53-2.78 2.91-2.73 3 2.11-1.29 2.14-1.23m-6.21-8.46s1.52-.93 1.54-.89-1.81 1.8-1.78 1.86 3-1.83 3-1.76-3 3.09-2.92 3.18 4.17-2.55 4.23-2.44-4.83 3.71-4.76 3.85 5.29-3.23 5.37-3.1m-5.85-12.52c.12.2 7.89-4.82 8-4.62s-6 5.15-5.89 5.32 5.76-3.52 5.84-3.37-5.71 4.48-5.62 4.64 5.41-3.31 5.49-3.17c.2.35-13.63 8.52-13.43 8.87s13.14-8 13.33-7.7-10.61 7.21-10.44 7.49 10.16-6.21 10.31-6-7.63 5.55-7.52 5.75 7.28-4.45 7.39-4.27-5.69 4-5.6 4.14 5.41-3.31 5.49-3.17-2.86 2.82-2.81 2.91 2-1.22 2-1.17m-6.54-11.69c.06.11 4.23-2.59 4.29-2.48s-2.1 2.74-2.05 2.81 3.68-2.25 3.74-2.16-3.28 3.06-3.22 3.16 4.1-2.51 4.16-2.4-4.38 3.21-4.31 3.33 4.71-2.88 4.77-2.76"/><path class="cls-2" d="M184.9 42.52c.12.21 8.17-5 8.29-4.78s-6.55 4.88-6.45 5.05 6.92-4.23 7-4.05-6.5 4.72-6.4 4.9 7.6-4.65 7.71-4.45-8.14 6-8 6.25c.23.41 16-9.78 16.24-9.37"/><path class="cls-2" d="M178.25 49.83c.09.15 5.94-3.63 6-3.48s-4 3.21-4 3.32c.2.34 13.49-8.24 13.69-7.9s-11.8 7.51-11.62 7.82 10.58-6.46 10.73-6.2-9.34 6.74-9.19 7 9.54-5.83 9.68-5.59-9.42 6.45-9.27 6.7 10.46-6.39 10.61-6.13-13.54 9.39-13.34 9.75c.11.19 7.35-4.5 7.46-4.31s-7 5.41-6.88 5.6 7.66-4.68 7.78-4.49-7.47 5-7.35 5.19 7.25-4.43 7.35-4.25-6.71 5.07-6.6 5.25 5.44-3.32 5.52-3.19-4.68 4-4.6 4.17 4.79-2.93 4.86-2.81-4.31 3.3-4.25 3.42 4.71-2.88 4.77-2.76-4.09 3.38-4 3.49 4.83-3 4.9-2.83-3.69 3.94-3.62 4.05 5.82-3.56 5.9-3.41-4.71 4.24-4.63 4.38c.2.34 13.32-8.14 13.52-7.8s-12 8.67-11.77 9 12.26-7.49 12.44-7.18-10.87 7.75-10.7 8c.06.1 3.8-2.32 3.86-2.23m-21.66-11.74c.13.23 9.07-5.54 9.2-5.31s-7.74 5.78-7.62 6c0 0 1.33-.81 1.35-.78m7.93-13.84c.12.22 8.52-5.21 8.64-5S187 37 187.07 37.21s7.51-4.59 7.62-4.4-7.39 4.92-7.28 5.12 9-5.5 9.14-5.28-9.38 6.22-9.24 6.47 11.09-6.78 11.25-6.5M195.28 29c.1.17 6.85-4.18 6.95-4s-3.69 3.52-3.63 3.63 4.14-2.53 4.2-2.43-2.49 2.15-2.44 2.23 2.35-1.43 2.39-1.43m-14.95-4s1.37-.84 1.39-.8-1.79 2.2-1.76 2.26 3.79-2.32 3.85-2.22"/><path class="cls-2" d="M174.06 27.77c0 .07 2.66-1.63 2.7-1.56s-1.62 1.81-1.59 1.87 2.5-1.53 2.54-1.46-1.52 2.79-1.48 2.86 4.88-3 5-2.86-3.88 3.78-3.82 3.9 7.59-4.68 7.73-4.52-4.42 4.46-4.34 4.6c.18.31 12.26-7.49 12.44-7.18s-9.83 6.6-9.68 6.86 10.11-6.18 10.26-5.92-7.23 5.82-7.11 6 10.69-6.53 10.84-6.26-10.18 7.62-10 7.9 13.44-8.21 13.63-7.87S186.83 33 187 33.32s14.7-9 14.92-8.61"/><path class="cls-2" d="M174.21 40.24c.14.25 9.82-6 10-5.76s-7.38 6-7.26 6.23c.24.41 16.05-9.81 16.29-9.4s-15.74 10.44-15.51 10.85c.07.12 4.93-3 5-2.89s-4.94 4.09-4.86 4.23 5.52-3.37 5.6-3.23"/><path class="cls-2" d="M161.33 38.05s1.64-1 1.67-1-1.75 2.66-1.71 2.73c.16.28 10.86-6.64 11-6.36s-10.13 7.3-10 7.57 10.63-6.5 10.78-6.23-9.53 6.32-9.39 6.57 10.82-6.62 11-6.34-8.93 6.39-8.79 6.63 10.48-6.41 10.64-6.14-10.33 6.84-10.18 7.11 12.66-7.74 12.85-7.42-14.62 9.41-14.4 9.79 17.57-10.74 17.83-10.29S161.71 47.56 162 48.1c.15.26 10.22-6.25 10.37-6s-11.73 8.48-11.55 8.79 12.22-7.47 12.4-7.16-12.36 7.66-12.18 8 12.66-7.74 12.85-7.42-12.25 8.08-12.07 8.4 13.1-8 13.29-7.67-9.42 6.69-9.28 6.94c.3.51 20.26-12.38 20.55-11.87S166.21 52 166.5 52.47c.39.67 26.34-16.1 26.73-15.43s-26.9 16.63-26.51 17.32c.23.41 16-9.76 16.2-9.35s-16.44 9.82-16.2 10.23c.08.14 5.67-3.47 5.75-3.32s-5.85 4.75-5.76 4.91 5.69-3.48 5.77-3.33-5.87 4.41-5.78 4.57 5.7-3.49 5.79-3.34-5.89 5.28-5.79 5.45 5.73-3.5 5.81-3.35-5.91 4.61-5.82 4.77 5.74-3.51 5.83-3.36-5.92 4.06-5.83 4.22 5.75-3.52 5.84-3.37-5.8 4.18-5.71 4.33 5.63-3.44 5.72-3.3-5.38 4.09-5.29 4.24 5.22-3.19 5.3-3.06-4.32 3.81-4.25 3.93 4.11-2.51 4.17-2.4-2.62 2.53-2.58 2.61 1.92-1.18 2-1.13m-10.31-37.86s1.86-1.13 1.88-1.09-2 2.49-1.91 2.56 6.9-4.21 7-4-6.2 5.06-6.1 5.24S172.82 22.78 173 23s-9.87 6.24-9.73 6.49 10.46-6.4 10.62-6.13-8 6.32-7.89 6.54 9-5.52 9.16-5.29-8.47 6.49-8.33 6.72 9.36-5.72 9.5-5.48-9.63 6.48-9.48 6.73 5.36-3.28 5.44-3.14-5.73 4.25-5.64 4.4 5.56-3.4 5.64-3.25-6.65 4.84-6.54 5 6.46-3.95 6.56-3.78m7.39 25.8s.54-.33.55-.32 1.31 1.17 1.33 1.21l.3-.17v1.86c0 .04.46-.28.46-.27s-1.71 3-1.66 3.12.7-.43.71-.41"/><path class="cls-2" d="M177.62 58.36s1.85-1.13 1.87-1.08-3.4 3.5-3.34 3.61.63-.38.64-.37-.84 2.18-.81 2.23.34-.21.35-.2.61 1.48.63 1.52.36-.22.37-.21 1.63.63 1.65.66 1.92-1.18 2-1.13m14.42-21.82s.7-.43.71-.41 1 .78 1 .8.32-.2.33-.19-.1 1.68-.08 1.71.48-.29.48-.28m-4.38-1s1.68-1 1.7-1-2.26 2.3-2.22 2.37.45-.27.45-.26 0 1.5.07 1.53.32-.2.33-.19.9.78.91.81.64-.39.64-.37M185 42.76s.73-.44.74-.42 1.36 1.34 1.39 1.38.33-.2.34-.2-.61 1.68-.59 1.71.6-.37.61-.35"/><path class="cls-2" d="M183.15 43.36s1.64-1 1.66-1-2 2.92-1.93 3 .33-.2.34-.19l.5 1.09s.38-.23.38-.22 1.36.41 1.37.44 1.7-1 1.73-1m8.22-9.95s.85-.52.86-.5 1.26.82 1.28.86.32-.2.32-.19v1.29c0 .03.4-.24.4-.23m-4.8-.59s1.68-1 1.7-1-2.18 2.48-2.18 2.55.34-.21.34-.2.06 1.11.08 1.14.32-.2.33-.19 1.34.81 1.36.84.82-.5.83-.48M184.83 37s.82-.5.84-.48.79.52.8.54.37-.23.38-.22.28.89.29.91.33-.2.34-.2-.45 1.57-.43 1.6.48-.3.49-.28m-4.62-1.28s1.65-1 1.67-1-1.87 3.07-1.83 3.15.32-.2.33-.19l.31.81s.37-.23.38-.22 1.06.44 1.07.46 1-.58 1-.56m-11.58.45s.79-.48.8-.46 1.62.81 1.64.85.33-.2.34-.2.15.78.16.79.32-.2.33-.19.06 2.1.08 2.14.36-.22.37-.21"/><path class="cls-2" d="M172.48 41s1.52-.93 1.54-.89-1.66 2.38-1.62 2.44.33-.2.33-.19.71 1.71.74 1.75.33-.2.33-.19 1.24 1.15 1.26 1.19.41-.25.41-.24l.51.53s1.81-1.11 1.84-1.06M174.16 28s.52-.32.53-.31l.64.84s.32-.2.33-.19.7 1.63.72 1.66.32-.2.33-.19.92 1.07.94 1.1.48-.29.49-.28 1.54.31 1.56.35.82-.5.83-.48 1 .25 1 .27.82-.5.83-.48 1.44.18 1.45.21.82-.5.83-.48 1.64.37 1.66.41.37-.23.38-.22.54 1.29.56 1.32.34-.2.34-.2-.65 1.65-.63 1.69.6-.37.61-.35"/><path class="cls-2" d="M172.43 28.52s1.5-.92 1.52-.88-1.87 1.92-1.84 2 .41-.25.41-.24-.42 2.16-.39 2.21.37-.23.38-.22-.39 1.55-.37 1.58.37-.23.38-.22 0 1.63 0 1.67.32-.2.33-.19.92.95.94 1 .63-.38.63-.37 1.1.17 1.11.19.52-.32.53-.31.26.87.27.89.51-.31.51-.3 2.19 0 2.22.06.89-.54.9-.52 3.78-.26 3.83-.18.88-.54.9-.52m-20.99-8.74s1.34-.82 1.36-.79 5.66-1.43 5.74-1.3 1-.63 1.05-.61 1.9.73 1.93.77.37-.22.37-.21l.4.87s.32-.2.33-.19l.83 1.62s.33-.2.33-.19 1.51 1.26 1.53 1.31.44-.27.44-.26 2.83.28 2.87.34.88-.54.9-.52 3.63-.24 3.67-.16 1.73-1.06 1.75-1m.44-2.3s1.5-.92 1.52-.88-2.22 2.79-2.17 2.86.56-.34.57-.33m1.69-2.15s.63-.39.64-.37 1.72.37 1.74.41.6-.37.61-.35l.8 1.23s.36-.22.36-.21.56 1.56.58 1.6.52-.32.52-.3 2.68-.06 2.71 0 .88-.54.9-.52 2.91.39 2.94.46.42-.26.43-.25l.71 1.15s.32-.2.33-.19.16 1.35.17 1.38.34-.21.34-.2-.54 1.13-.53 1.16.5-.31.5-.31m-7.65 2.21s.82-.5.83-.48 1.58.17 1.6.2.82-.5.83-.48 2.48 0 2.51.1 1.62-1 1.64-.95"/><path class="cls-2" d="M193.54 29.82s1.67-1 1.69-1-2.16 2-2.13 2.06.44-.27.44-.26-.16 1.54-.14 1.58.32-.2.33-.19l.81.92s.6-.37.61-.35 1.5.12 1.52.15.69-.42.7-.41 2.51.6 2.54.66.4-.25.41-.24l.71.71s.41-.25.41-.24l.27.68s.34-.21.34-.2l.47 1s.32-.2.33-.19.24 1.26.26 1.29.32-.2.33-.19-.22 2.16-.19 2.2.4-.24.4-.23-.5 1.18-.49 1.21.4-.24.4-.23-.55 1.66-.53 1.7.4-.24.4-.23-.54 1.59-.52 1.62.4-.24.4-.23-.63 2.44-.6 2.49.4-.24.4-.23-.68 2-.66 2 .45-.28.46-.26-1.1 1.46-1.08 1.5.76-.47.78-.45M190 49.22s.75-.46.76-.44 3 .1 3 .16.75-.46.76-.44 2 .19 2 .24.75-.46.76-.44 1.43.25 1.45.28.75-.46.77-.44"/><path class="cls-2" d="M188.66 49.56s1.22-.74 1.23-.71S189 50.92 189 51s.36-.22.37-.21.37 1.05.39 1.08.33-.2.33-.19-.28 1-.27 1 .4-.24.41-.23-1.6 2.71-1.56 2.78.42-.26.42-.24.27 1.88.29 1.92.32-.2.32-.19S191 58 191 58s.39-.24.4-.23 1.73.53 1.75.57 1-.62 1-.59m2.18-4.75l1.67-1s-2 2.37-1.92 2.44.35-.21.36-.21-.27 1.32-.26 1.35.35-.21.36-.21-.81 1.33-.79 1.36.58-.36.59-.34m1.77-4.01s.59-.36.6-.35.83.53.84.55.4-.25.41-.24l.54.8s.34-.21.34-.2.51 1.34.53 1.37.32-.2.32-.19.08 1.26.1 1.29.33-.2.33-.19.26 1.85.28 1.89.33-.2.33-.19.14 1.5.16 1.54.33-.2.33-.19-.11 1-.1 1 .34-.21.35-.2-.43 1.64-.41 1.67.45-.27.45-.26m-6.14.4s.4-.25.41-.24.75 1.64.77 1.68.34-.21.34-.2l.4.78s.44-.27.45-.26 1.07.39 1.09.41 2.1-1.29 2.13-1.23m-6.96-.61s1.26-.77 1.28-.74-2.62 2.94-2.57 3 .77-.47.78-.45m-17.15-12.95s.75-.46.76-.44 2.27.16 2.3.21.72-.44.74-.42l.6.47s.46-.28.46-.27l.31.68s.35-.21.35-.2.21 1.09.23 1.11.32-.19.32-.19-.68 1.65-.66 1.69.61-.37.61-.35-3 2.6-3 2.69.4-.24.4-.23v1.38c0 .03.33-.2.34-.2s.51 1.59.53 1.62.37-.22.37-.21.11.79.12.81.35-.22.36-.21.34.94.35 1 .34-.21.34-.2l.49 1.06s.35-.21.36-.21l.72 1.28s.39-.24.4-.23l.72 1.22s.36-.22.37-.21l.25.69s.32-.2.33-.19l.66 1s.43-.26.43-.25l.28.71s.42-.26.43-.25l.58.87s.39-.24.4-.23 1 .88 1 .91.44-.27.45-.26.81.34.82.36 2.08-1.27 2.11-1.22m-21.12-12.99s.43-.26.43-.25l.7.84c0 .07 2.73-1.67 2.77-1.6m-5.25 1.35s1.28-.78 1.3-.75-1.48 1.74-1.45 1.79.38-.23.38-.22-.39 2.17-.36 2.21.38-.23.38-.22-.39 1.87-.37 1.91.37-.23.38-.22-.39 2.25-.36 2.3.37-.23.38-.22-.39 1.45-.37 1.48.37-.23.38-.22-.39 2.08-.36 2.12.37-.23.38-.22-.6 2.38-.57 2.44.42-.26.43-.25m-11.49-25.29s1.7-1 1.73-1-1.88 3-1.83 3.1.33-.2.34-.19l.76 1.47s.43-.26.44-.25 1.31.62 1.33.66.8-.49.82-.47.91.57.92.6.32-.19.32-.19-.4 2.11-.37 2.16.76-.46.77-.45-4 3.86-4 4 1.08-.66 1.1-.63-3 3.39-2.95 3.49.44-.27.45-.26-.45 1.26-.43 1.29.35-.21.36-.21.17 1.48.19 1.51.34-.21.34-.2l.77.92s.45-.28.46-.27 3.37-.52 3.42-.45.33-.2.33-.19v1.44c0 .03.38-.23.38-.22s-.41 1.76-.39 1.8.38-.23.38-.22-.4 1.06-.39 1.09.38-.23.38-.22-.4 1-.39 1.06.38-.23.38-.22-.42 2-.39 2.06.38-.23.38-.22-.4 1.38-.39 1.41.38-.23.38-.22-.4 1.28-.39 1.31.38-.23.38-.22-.4 1-.39 1.07.38-.23.38-.22-.19 2.12-.16 2.17.34-.21.34-.2.58 1.36.6 1.39.37-.22.37-.21 1 .75 1 .78.53-.32.54-.31M163 37.21c0 .07 2.9-1.77 2.94-1.7m-4.53-9.25s1.91-1.17 1.94-1.12-2.14 2.59-2.1 2.66.32-.2.33-.19.42 1.39.42 1.45.33-.2.33-.19l.31.7s.4-.24.41-.23 2.32.58 2.35.63.38-.24.39-.23l.69 1.51s.33-.2.34-.19-.31 1.39-.29 1.42.38-.23.38-.22-.57 1.43-.55 1.47.42-.26.43-.25-1.27 1.91-1.24 2 .67-.41.68-.39"/><path class="cls-3" d="M224.25 52c0 .08 3-1.84 3.06-1.77s-2.07 1.52-2 1.58 2.4-1.47 2.43-1.4-1.61 1.57-1.58 1.62 2-1.2 2-1.15-1.16 1.36-1.16 1.4 1.15-.7 1.16-.67"/><path class="cls-3" d="M220.92 51.35c0 .06 2.21-1.35 2.25-1.3s-3.75 3.33-3.69 3.44 6.26-3.83 6.36-3.67-6.67 4.25-6.57 4.42 7.29-4.45 7.39-4.27-7.67 4.68-7.56 4.88 4.49-2.74 4.55-2.63-4.72 3.67-4.65 3.78 2.89-1.77 2.93-1.69-2.93 2.69-2.85 2.83 2.59-1.58 2.63-1.52-2.56 2.45-2.51 2.52 2.46-1.5 2.49-1.44-2.12 2.54-2.08 2.61 2.22-1.36 2.26-1.3-1.94 1.92-1.9 2 2.22-1.36 2.26-1.3-1.53 2.29-1.5 2.29 2.22-1.35 2.25-1.3-2 1.48-2 1.53 2.21-1.35 2.25-1.3-1.5 1.86-1.46 1.91 2.44-1.49 2.48-1.43-1.39 1.86-1.36 1.91 3.35-2 3.4-2-2.21 2.14-2.17 2.21 4-2.45 4.07-2.35-1.53 2.07-1.5 2.13 1.53-.94 1.55-.9"/><path class="cls-3" d="M223.44 50.13s1-.6 1-.57.92.33.93.35.52-.32.53-.31.65.47.66.49.4-.24.4-.23.76.73.77.75.34-.21.35-.2-.09 1.21-.08 1.23.48-.29.49-.28m-4.15.86s.95-.58 1-.56l.3.47s.54-.33.54-.31l.4.55s.46-.28.46-.27l.3.43s.93-.57.94-.55"/><path class="cls-3" d="M222.92 52.6s1.24-.76 1.26-.73-2 1.46-1.92 1.51 1-.61 1-.58-1.58 1.55-1.55 1.6.61-.37.62-.36-.75 1.14-.73 1.17.4-.21.4-.21-.54 1-.53 1.06.41-.25.41-.24-.4.8-.39.82.35-.21.35-.2-.21 1.34-.19 1.37.35-.21.35-.2-.23.64-.22.66.32-.2.33-.19.11 1 .13 1.05.32-.2.33-.19.13.79.14.8.34-.21.35-.2-.1.4-.09.41.34-.21.35-.2l.43.77s.48-.29.48-.28.06.38.06.39.48-.29.48-.28l.26.43s.77-.47.78-.45 2.19-.06 2.21 0 .34-.21.34-.2-.06.65 0 .66.32-.2.33-.19-.46.74-.45.76.54-.33.55-.32"/><path class="cls-3" d="M220.8 51.16c0 .06 2.25-1.37 2.28-1.32s-3.83 3.37-3.76 3.48.59-.36.6-.35-.85 1.08-.83 1.11.46-.28.47-.27-.66.86-.64.89.46-.28.47-.27-.6 1.42-.58 1.45.39-.24.4-.23-.37 1.33-.35 1.36.35-.22.36-.21-.28 1.2-.22 1.2.35-.22.36-.21 0 1.37 0 1.4.33-.2.33-.19v.9c0 .02.33-.2.33-.19s.4 1.21.42 1.24.32-.2.33-.19-.09.44-.08.45.31-.21.31-.21l.43.82s.35-.21.35-.2l.66.74s.41-.25.42-.24l.62.59s.54-.33.55-.32 1.5.37 1.52.4.87-.53.88-.51l.51.21s1.64-1 1.66-1m10.89-10.82s.9-.55.91-.52-1.35 1.13-1.33 1.17 2-1.23 2-1.18-2.35 2-2.31 2 2.67-1.63 2.71-1.56-3 2.39-3 2.47 2.92-1.79 3-1.71-3.31 2.55-3.26 2.64 2.89-1.77 2.93-1.69-3.21 2.34-3.16 2.42 2.86-1.75 2.91-1.68-3.45 3.11-3.39 3.22 2.81-1.72 2.85-1.65-3.1 2.2-3 2.29 2.78-1.7 2.82-1.63-3.28 2.89-3.22 3 2.7-1.65 2.74-1.58-3.1 2.56-3.05 2.65 2.63-1.61 2.67-1.54-2.84 1.89-2.79 2 2.6-1.59 2.64-1.52"/><path class="cls-3" d="M230.84 50.52s.8-.49.81-.47-.73 1.68-.7 1.72 1.89-1.16 1.92-1.11-1.77 1.58-1.74 1.63 2-1.24 2.05-1.19-1.93 1.56-1.9 1.62 2.07-1.27 2.1-1.21-1.81 2.08-1.78 2.14 2-1.25 2.07-1.2-1.77 2.1-1.73 2.16 2-1.23 2-1.18-1.76 2-1.73 2.07 2-1.22 2-1.16-1.64 2.28-1.6 2.34 2-1.19 2-1.14-1.76 1.82-1.72 1.87 1.93-1.18 2-1.13-1.56 2.3-1.53 2.36 1.88-1.15 1.91-1.1-1.82 1.39-1.79 1.44 1.86-1.14 1.89-1.09-1.61 1.92-1.58 2 1.82-1.11 1.85-1.07-1.55 1.94-1.52 2 1.78-1.09 1.8-1-1.48 1.74-1.45 1.79 4.27-2.61 4.34-2.5-3.42 3.12-3.37 3.22 2.77-1.7 2.81-1.63-1.81 1.67-1.78 1.72 1.11-.68 1.13-.65"/><path class="cls-3" d="M231.74 50.25s.53-.32.54-.31l.37.68s.35-.22.36-.21.08.8.09.82.34-.21.34-.2v1.19c0 .02.33-.2.34-.2s0 1.19 0 1.21.33-.2.34-.2-.18.71-.17.72.33-.2.34-.2-.22.58-.21.59.33-.2.34-.2-.07 1.07-.05 1.09.33-.2.34-.2-.22.57-.21.59.33-.2.34-.19-.12.9-.11.92.27-.15.27-.15v1.38c0 .03.33-.2.34-.19s-.12 1-.11 1 .33-.2.34-.19 0 1.32 0 1.34.33-.2.34-.19-.09 1-.08 1.05.76-.46.77-.44-.55.79-.54.81.36-.22.36-.21"/><path class="cls-3" d="M239.16 50.61s1.09-.67 1.11-.64-1.51 1.46-1.48 1.5.53-.32.54-.31-.86 1.24-.84 1.28.48-.3.49-.28-.89 1.44-.87 1.47.49-.3.49-.28-.66.76-.65.78.49-.3.49-.29-1 1.7-1 1.74.49-.3.5-.29-1.07 2-1 2 .48-.29.48-.28-.79 1.2-.77 1.24.48-.29.48-.28-.92 1.62-.89 1.66.49-.3.5-.29m3.78-9.07s.6-.36.6-.35-.1.44-.09.45.4-.25.41-.24 0 .7 0 .72.31-.19.32-.18-.58 1-.56 1.07.5-.3.5-.29-.85 1.21-.83 1.24.5-.3.5-.29-.78 1-.76 1 .5-.3.5-.29S240 55 240 55s.5-.3.5-.29-.75.92-.73.95.5-.3.5-.29-1 1.65-1 1.7.5-.3.5-.29-.91 1.36-.89 1.4.5-.3.5-.29-.67.71-.66.73.5-.3.5-.29-1 1.52-.94 1.56.5-.3.5-.29-.7.8-.69.82.5-.3.5-.29-.91 1.07-.89 1.1.63-.39.64-.37"/><path class="cls-3" d="M230.67 50.37s.93-.57.95-.55-1 1.8-.93 1.85.33-.2.34-.19-.16.7-.15.71.33-.2.34-.19-.19.61-.18.62.33-.2.34-.19 0 1.09 0 1.12.33-.2.34-.19 0 1.13 0 1.16.33-.2.34-.19 0 1.06 0 1.09.33-.2.34-.19.06 1.34.08 1.37.33-.2.34-.19-.09.9-.08.92.33-.2.34-.19.08 1.39.1 1.42.33-.2.34-.19-.23.52-.22.53.33-.2.34-.19 0 1.06 0 1.08.33-.2.34-.19 0 1.1 0 1.13.33-.2.34-.19 0 .93 0 1 .37-.23.38-.22.41 1 .42 1 .45-.28.46-.26 1.29.43 1.31.46 1.12-.69 1.14-.66m7.68-1.42s1-.61 1-.58-1.25 1.08-1.23 1.11 1.76-1.07 1.78-1-1.81 1.68-1.78 1.73 2.27-1.39 2.3-1.33-2.05 1.85-2 1.91 2.26-1.38 2.3-1.33-1.69 1.67-1.66 1.72 1.64-1 1.66-1m-2.38-8.32s1-.61 1-.58-1.21 1.94-1.18 2 2.33-1.42 2.36-1.37-2.11 1.76-2.07 1.82 2.24-1.37 2.27-1.31-1.89 1.54-1.86 1.59 1.85-1.13 1.88-1.08-1.26 1.15-1.23 1.19 1-.61 1-.58"/><path class="cls-3" d="M246.84 60s.49-.3.5-.29l.31.71.34-.2s-.08.89-.07.91.36-.22.37-.21-.5 1-.49 1 .48-.3.49-.28"/><path class="cls-3" d="M245.56 60.28s1.06-.65 1.08-.62-1.41 1.41-1.39 1.45.53-.33.54-.31-.49 1-.48 1.06.4-.24.4-.23.06.91.07.93.41-.25.42-.24-.1.45-.1.46.51-.31.51-.3l.42.39s1-.59 1-.56m-1.19-9.38s.49-.3.5-.29 0 .41 0 .41.35-.22.36-.21 0 .66 0 .68.37-.22.37-.22-.15.81-.14.82.35-.21.36-.21-.6.92-.59.95.57-.35.58-.33"/><path class="cls-3" d="M245.55 53.19s1.07-.65 1.08-.62-1.37 2-1.34 2.09.38-.23.39-.22-.17.7-.16.72.36-.22.37-.21-.07.54-.06.55.42-.26.43-.25.77.52.78.55 1-.59 1-.57m22.41 1.26s.9-.55.91-.53-.93 1-.91 1 1.56-1 1.59-.92-1.33 1.39-1.31 1.43 1.89-1.15 1.91-1.11-1.35 1.7-1.32 1.74 1.91-1.1 1.93-1.1-1.64 1.42-1.61 1.46 1.92-1.17 1.94-1.12-1.76 1.3-1.73 1.35 1.92-1.18 2-1.13-1.45 1.65-1.43 1.7 1.94-1.18 2-1.14-1.58 1.64-1.55 1.69 2-1.19 2-1.14-1.41 1.9-1.38 2 2-1.21 2-1.16-1.86 1.49-1.83 1.49 2-1.21 2-1.16-1.66 1.43-1.66 1.47 1.79-1.1 1.82-1.05-1.13 1.38-1.1 1.42.8-.49.81-.47M268.9 59s.51-.31.51-.3-1 1.59-.93 1.63 1.92-1.17 1.95-1.13"/><path class="cls-3" d="M260.22 56.7s.93-.57.94-.54S260 58 260 58s2-1.25 2.07-1.19-2.07 1.64-2.07 1.7 2.21-1.35 2.24-1.3S260 59 260 59s2.23-1.36 2.26-1.3-2.26 2.49-2.26 2.56 2.19-1.34 2.23-1.29-2 2.54-2 2.61 2-1.22 2-1.17-1.82 1.5-1.79 1.55 2.14-1.31 2.18-1.26-1 1.91-.94 2 3.19-2 3.24-1.87-2.27 1.89-2.24 2 3.34-2 3.39-2-2.59 1.94-2.55 2 3.44-2.1 3.49-2-2.49 1.94-2.45 2 5.83-3.56 5.91-3.41-4.32 3.3-4.25 3.41 4.27-2.61 4.33-2.5-3.07 2.41-3 2.5 2.75-1.68 2.79-1.61-1.71 1.45-1.68 1.5S270 61.93 270 62"/><path class="cls-3" d="M262.08 55s1.12-.68 1.13-.65-1 1.43-1 1.47 1.91-1.17 1.94-1.12-1.63 1.3-1.6 1.3 2-1.23 2-1.18-.78 1.84-.76 1.89 2-1.23 2-1.18-1.71 1.37-1.69 1.42 2-1.24 2.06-1.19-1.38 1.62-1.35 1.67 2-1.2 2-1.15-1 1.54-1 1.58 1-.59 1-.56m-10.15-.55s.82-.5.84-.48-1.46 1.45-1.44 1.5 2-1.22 2-1.17-2.31 1.6-2.27 1.66 2.47-1.51 2.51-1.45-4 3.39-4 3.51 3.79-2.32 3.84-2.22-4.19 3.07-4.12 3.18 3.6-2.2 3.65-2.11-2.58 2.74-2.53 2.82 1.18-.72 1.2-.69m7.75-8.37s1.69-1 1.72-1-1.81 1.43-1.81 1.48c.12.21 8.47-5.18 8.59-5s-7.85 5.67-7.73 5.88 6.39-3.9 6.48-3.74-1.34 1.76-1.34 1.81 2-1.24 2.06-1.19-1.21 1.83-1.19 1.83 2.13-1.27 2.13-1.22-1.49 1.65-1.46 1.7 2.21-1.35 2.25-1.3-1.3 1.82-1.27 1.82 2.32-1.42 2.35-1.36-1.8 1.59-1.77 1.64 2.3-1.41 2.34-1.35-1.32 1.77-1.29 1.82 1.72-1 1.74-1m-1.27-8.67s1.22-.75 1.24-.72"/><path class="cls-3" d="M267.93 45.08c0 .08 3.3-2 3.35-1.93s-1.49 1.88-1.46 1.93 3.3-2 3.35-1.93-1.5 2.05-1.47 2.11 3.46-2.11 3.51-2-3.79 2.6-3.74 2.7 4.17-2.55 4.23-2.44-4.72 3.26-4.64 3.39 4.83-2.95 4.9-2.83-5.73 3.94-5.65 4.09 3.3-2 3.35-1.93"/><path class="cls-3" d="M266 46.95s1.66-1 1.69-1-1.35 1.56-1.33 1.61 1.64-1 1.67-1-1.21 1.81-1.18 1.86 1.67-1 1.7-1-1 2-1 2 1.72-1 1.74-1-1.3 1.75-1.27 1.8 5.12-3.13 5.2-3m-10.22.41c.11.19 7.66-4.68 7.77-4.49s-7.36 4.59-7.25 4.78 3.92-2.4 4-2.3-3.31 2.28-3.26 2.37 1.1-.67 1.12-.65m1.5-6.27s.87-.53.88-.51-1.35 1.08-1.33 1.12 1.74-1.06 1.77-1-2.65 2.44-2.61 2.52 3.12-1.91 3.16-1.83-4.31 3.34-4.24 3.46 3.81-2.33 3.87-2.23-5 3.33-4.92 3.46 4.94-3 5-2.89"/><path class="cls-3" d="M260.86 43.89s.86-.52.87-.5-1.11 1.84-1.08 1.89 1.91-1.17 1.94-1.12-2 2-1.94 2.06 2-1.22 2-1.17-2.07 1.89-2 2 2-1.23 2-1.18-2.07 2.08-2 2.15 8.23-5 8.35-4.82-8.48 5.37-8.35 5.59 9.54-5.83 9.68-5.59-9.83 6.51-9.68 6.76c0 .05 2-1.22 2-1.17s-2.07 2.43-2 2.5 2-1.22 2-1.17-2.06 1.85-2 1.91 2-1.22 2-1.17-1.54 2.07-1.5 2.13 1.48-.91 1.5-.87-1.08 1-1.07 1 .86-.52.87-.5m-5.79-5.34c0 .05 2.09-1.28 2.12-1.22s-2.16 2.17-2.12 2.24 2.09-1.28 2.12-1.22-2.15 2-2.12 2.08 2.09-1.27 2.12-1.22-2.15 1.71-2.12 1.77 2.09-1.27 2.12-1.22-2.15 2.51-2.11 2.51 2.08-1.27 2.11-1.22-2.15 2.48-2.11 2.55 2.08-1.27 2.11-1.22-2.15 2.14-2.11 2.21 2.08-1.27 2.11-1.22-1.74 2-1.7 2 1.68-1 1.7-1-1.22 1.15-1.2 1.19 1-.62 1-.6m-.08-12.47s1.13-.69 1.15-.66-2.13 1.92-2.09 2 2.75-1.68 2.79-1.61-3.79 2.83-3.74 2.93 3.93-2.4 4-2.3-6.93 5.23-6.83 5.42 5.36-3.27 5.44-3.14-5.64 3.59-5.56 3.74 5.1-3.11 5.17-3-5 3.43-4.9 3.57 4.78-2.92 4.85-2.8-4.22 3.06-4.16 3.18 1.17-.72 1.19-.69m15.79 8.22s.48-.29.49-.28 0 .46 0 .47.42-.25.42-.24.1.58.11.59.34-.21.34-.2.09.64.1.65.34-.21.34-.2l.5 1.05s.33-.2.34-.2 0 .55 0 .56.33-.2.33-.19.27.95.28 1 .33-.2.33-.19.23.91.24.93.33-.2.33-.19-.16 1.22-.14 1.25.49-.3.49-.28m-5.83-4.26s1-.6 1-.57-.77 1.77-.75 1.81.33-.2.34-.2 0 .56 0 .57.33-.2.34-.2-.06.5 0 .51.33-.2.34-.2 0 .53 0 .55.33-.2.34-.2.33.9.34.92.33-.2.34-.19.15.84.16.85.33-.2.33-.19.08.74.09.75.33-.2.33-.19.14.81.15.83.33-.2.33-.19l.28.72s.42-.26.43-.25l.23.39s1-.63 1-.6m-14.7-4.93s.48-.3.49-.28.29.94.3 1 .38-.24.39-.23-.3.65-.29.66.38-.23.38-.22-.4 1.59-.38 1.62.38-.23.38-.22-.4 1.09-.38 1.11.38-.23.38-.22-.35.71-.34.72.34-.21.35-.2 0 .75 0 .77.48-.29.49-.28l.24.4s.62-.38.63-.36l.5.38s.65-.4.66-.38 1.88.34 1.9.38.67-.41.68-.39l.16.36s.87-.53.88-.51m.01-1.58s.84-.52.86-.49-1.1 1.47-1.08 1.51.42-.26.43-.25m.67-.83s.47-.28.47-.27.12.56.13.57.34-.21.34-.2v1.49c0 .03.45-.28.46-.26s-.87 1.4-.85 1.44.55-.34.56-.32"/><path class="cls-3" d="M260 56.53s1-.63 1-.6-1.21 1.07-1.19 1.07.56-.34.56-.33-.63 1.71-.6 1.75.38-.23.38-.22-.39.92-.38.94.38-.23.38-.22-.39 1-.38 1 .37-.23.38-.22-.27 1.3-.25 1.3.34-.21.35-.2.09 1.28.11 1.31.32-.2.32-.19l.29.72s.45-.27.45-.26.82.57.84.6.61-.38.62-.36.9.4.91.42.65-.4.66-.38 1.32.35 1.34.38.65-.4.66-.38.05.37.06.38.65-.4.66-.38 1.54.25 1.56.29 1.4-.85 1.42-.82m-12.55-5.69s.41-.25.42-.24.29 1.11.3 1.13.34-.21.35-.2-1.09 1.89-1.06 1.94.55-.34.56-.32-.87 1-.85 1 .55-.34.56-.32S255.26 62 255.3 62s1.39-.85 1.42-.82m-.15-4.63s.87-.53.88-.51-1.86 2.05-1.83 2.12.58-.36.59-.34-2.1 2.36-2.06 2.43.85-.52.86-.5-1 1.92-.94 2 .36-.22.36-.21-.14.43-.14.44.43-.26.43-.25l.29.46.17-.1M268 45.32s.65-.39.66-.38.76.35.77.37.64-.39.65-.37 1.35.34 1.37.37.31-.19.31-.18-1.05 1.74-1 1.79.55-.33.56-.32-1.26 1.4-1.24 1.4.72-.44.73-.42"/><path class="cls-3" d="M267.25 45.26s.55-.33.56-.32-.44.8-.43.82.32-.2.33-.19.1 1 .11 1 .32-.2.33-.19.06.9.07.92.32-.2.33-.19.19.93.2 1 .32-.2.33-.19.16.88.17.9.32-.2.33-.19 0 .4 0 .41.54-.33.54-.31m-8.3 6.15s1.35-.82 1.37-.79-1 2-.95 2 .37-.23.38-.22l.5.71s.38-.23.38-.22l.27.58s.36-.22.36-.21l.76 1s.36-.22.37-.21 0 .41 0 .42.46-.28.46-.27v.43c0 .01 1.28-.78 1.3-.75m-5.21-13.79s.46-.28.47-.27.26 1.05.27 1.08.34-.21.34-.2-.36 1.09-.34 1.12.38-.23.38-.22-.39.71-.38.73.38-.23.38-.22-.39.82-.38.84.38-.23.38-.22-.23.54-.22.55.64-.39.65-.38"/><path class="cls-3" d="M266.58 41s1.06-.65 1.08-.62-1.95 2-1.91 2.09.62-.38.63-.36-1.33 1.55-1.31 1.59.61-.37.61-.35-2.52 2.63-2.48 2.71.92-.56.93-.54m3.67-4.82s.47-.29.48-.28.18.62.19.64.35-.21.35-.2-.22.86-.21.88.43-.27.44-.25-.86 1.65-.84 1.69.46-.28.47-.27 1.62.35 1.64.39.66-.4.67-.39 1 .36 1 .38.65-.4.66-.38 1.16.35 1.18.38.65-.4.66-.38.91.51.92.53.4-.24.4-.23-1.33 2.1-1.3 2.16 1.65-1 1.68-1"/><path class="cls-3" d="M273.9 45.3s.6-.37.61-.35-.91 1-.89 1 .55-.33.56-.32-1 1.18-.94 1.22.54-.33.55-.32-1.22 1.62-1.19 1.67.62-.38.63-.37S272 49 272 49.08s.77-.47.78-.45-1.2 1-1.18 1 .8-.49.81-.47-1.2 1.51-1.18 1.56.33-.2.34-.19l.28.64s.37-.22.37-.21l.57.83s.37-.22.37-.21v.48c0 .01.4-.24.41-.23s.07.44.08.45.4-.24.41-.23l.44.61s.4-.24.41-.23.1.45.1.46.4-.24.41-.23.3.86.31.88.34-.21.35-.2-.44.67-.43.69.46-.28.46-.27"/><path class="cls-3" d="M265 54.61c.07.11 4.46-2.73 4.53-2.61l.81.94s.37-.23.38-.22.07.54.08.55.37-.22.37-.21.2.62.21.63.36-.22.36-.21l.41.65s.39-.24.39-.23l.46.65s.39-.24.4-.23l.25.55s.39-.24.4-.23l.19.42S276 54 276.06 54m-12.83.48s.45-.28.46-.27l.72.75s.4-.24.4-.23.06.46.07.47.37-.22.37-.21.09.46.1.47.34-.21.35-.2l.69.84.37-.22s-.08 1.34-.06 1.37.49-.3.5-.29m-3.39-4.16s1.89-1.16 1.92-1.11-2.06 1.78-2 1.84.4-.24.41-.23-.28.5-.28.51.34-.21.35-.2 0 .62 0 .63.41-.25.41-.24m1.22-6.64s.39-.24.4-.23-.22.53-.21.55.38-.23.38-.22.23 1.25.25 1.28.33-.2.33-.19.13.89.14.91.33-.2.33-.19.23 1 .24 1 .32-.2.33-.19m-2.76-2.86s.69-.42.7-.4m-2.82 1.26s.45-.27.45-.26.69.4.7.42 1.18-.72 1.19-.69m-2.92.14s.33-.2.33-.19-.37 1-.36 1 .38-.23.39-.22-.4 1.37-.38 1.4.38-.23.38-.22-.4 1.65-.38 1.69.38-.23.38-.22-.47 1.29-.45 1.32.45-.27.45-.26"/><path class="cls-3" d="M260.62 43.71s1-.62 1-.59-1.27 1.28-1.25 1.32.46-.28.47-.27-.49 1.34-.47 1.37.38-.23.38-.22-.4 1.42-.38 1.46.38-.23.38-.22-.4 1.6-.38 1.64.38-.23.38-.22-.4 1-.38 1 .38-.23.38-.22-.39.59-.38.61.38-.23.38-.22-.4.91-.38.93.38-.23.38-.22-.4 1.43-.38 1.46.38-.23.38-.22-.33 1.38-.31 1.41.37-.23.38-.22.15.87.16.89.45-.28.46-.26l.23.46s1-.61 1-.58"/><path class="cls-3" d="M259.76 40.74s.44-.27.45-.26-.11.41-.11.41.41-.25.41-.24-.14 1.07-.13 1.09.45-.28.46-.26-1.54 1.83-1.51 1.88.72-.44.73-.42-1.33 1.33-1.31 1.37.65-.39.66-.38-.82 1.78-.79 1.82.38-.23.38-.22-.4 1.54-.38 1.58.38-.23.38-.22-.39.64-.38.66.38-.23.38-.22-.4 1.18-.38 1.21.38-.23.38-.22-.39.87-.38.89.38-.21.38-.21-.4 1.23-.38 1.26.38-.26.38-.26-.4 1.54-.38 1.58.38-.23.38-.22-.39.75-.38.76.38-.23.38-.22-.42 1.47-.4 1.51.4-.24.4-.23m-2.55-5.46s.37-.23.38-.22-.4 1.45-.38 1.48.38-.23.38-.22-.4 1.13-.38 1.16.38-.23.38-.22-.4 1-.38 1 .38-.23.38-.22-.4 1.16-.38 1.19.38-.23.38-.22-.4 1-.38 1 .38-.23.38-.22-.36 1.34-.34 1.37.34-.21.34-.2.32 1.11.34 1.13.48-.29.49-.28l.14.41s.94-.57 1-.55m-2.87-6.6s.72-.44.73-.42"/><path class="cls-3" d="M258.41 41s1.17-.71 1.18-.68-2.22 2-2.19 2 .79-.48.8-.46-1.78 1.73-1.75 1.78.79-.48.8-.46-3.81 3.53-3.74 3.64.85-.52.87-.5-1 1.06-1 1.09.41-.25.41-.24-.21.83-.2.85.32-.19.32-.19.17.69.18.7.44-.27.45-.26.1.4.11.41S256 48 256 48m35.72 2.75s1.8-1.1 1.83-1.05-1.55 1.43-1.55 1.48 1.79-1.09 1.81-1-1.3 1.79-1.28 1.84 1.76-1.08 1.79-1-1.21 1.87-1.19 1.92 1.87-1.2 1.87-1.16-1.16 2-1.13 2.07 1.89-1.16 1.92-1.11-1.5 1.6-1.47 1.65 1.89-1.16 1.92-1.11-1.73 1.32-1.71 1.37 1.89-1.16 1.92-1.11-1.55 1.54-1.52 1.59S296.87 54 296.9 54s-1.28 1.91-1.25 2 2-1.24 2.07-1.19-1.32 1.92-1.29 2 2.06-1.26 2.09-1.21-1.52 1.72-1.52 1.77 2.14-1.31 2.17-1.25-1.32 2-1.29 2.05 2.24-1.37 2.27-1.31-1.59 1.85-1.56 1.9 2.27-1.39 2.3-1.33-1.68 1.81-1.65 1.86 2-1.23 2-1.18-1.46 1.33-1.43 1.37 1.23-.75 1.25-.72"/><path class="cls-3" d="M289.11 50.82c.05.09 3.72-2.27 3.77-2.18s-3.83 2.43-3.77 2.53S293 48.81 293 48.9s-4 3.18-3.94 3.29 2.37-1.45 2.41-1.39-2.45 2.33-2.41 2.4 2.37-1.45 2.41-1.39-2.45 1.94-2.41 2 2.37-1.45 2.41-1.39-2.45 2.67-2.41 2.75 2.37-1.45 2.41-1.39-2.45 2.67-2.41 2.74 2.37-1.45 2.41-1.39-2.44 1.76-2.41 1.83 2.37-1.45 2.41-1.39-2.45 2.31-2.41 2.38 2.37-1.45 2.41-1.39-2.45 2-2.41 2.06 2.37-1.45 2.41-1.39-2.45 2.35-2.41 2.43 2.37-1.45 2.41-1.39-2.45 2.67-2.4 2.75 2.37-1.45 2.41-1.39-2.38 1.83-2.35 1.9 2.31-1.41 2.35-1.35-1.68 2.16-1.64 2.22 1.58-1 1.61-.93-1.23 1.06-1.21 1.09 1-.6 1-.57M293 47.94c.06.1 3.82-2.34 3.88-2.24s-1.72 2.18-1.69 2.24 3.82-2.33 3.88-2.24-2.29 2.17-2.25 2.24 3.5-2.14 3.55-2.05-2.24 2-2.2 2.05 2.66-1.62 2.7-1.56-1 1.52-1 1.56 1-.59 1-.57"/><path class="cls-3" d="M279.84 46.27s1-.59 1-.57-1 1.56-1 1.6 2.73-1.67 2.77-1.6-2.2 2-2.17 2.11 3.6-2.2 3.65-2.11-3 2.16-2.92 2.24S285 45.6 285 45.69s-1.62 2.18-1.58 2.24 3.83-2.34 3.88-2.24-1.61 2.18-1.57 2.24 5.69-3.48 5.77-3.33-4.13 3.22-4.06 3.33 4.09-2.5 4.15-2.4-4.21 3.33-4.14 3.45 5.61-3.43 5.69-3.28-6.25 3.89-6.16 4.05 6.92-4.23 7-4.05-7.79 4.93-7.67 5.13 8.75-5.35 8.88-5.13-10.68 6.94-10.52 7.22 7.84-4.79 8-4.59-11.77 7.84-11.59 8.15 6.52-4 6.62-3.82-8.6 5.45-8.47 5.67 7.42-4.54 7.53-4.35-7.38 4.86-7.27 5.05 5.84-3.57 5.92-3.42-5.41 3.61-5.41 3.75 4-2.42 4-2.32-3.4 2.44-3.35 2.53 1.39-.85 1.41-.81"/><path class="cls-3" d="M289.38 40.34s1-.59 1-.57-1.27 1.45-1.25 1.49 2-1.22 2-1.17-2.06 1.88-2 1.94 2.26-1.38 2.3-1.33-2.34 2.73-2.3 2.81 2.37-1.45 2.41-1.39-2.46 1.88-2.42 1.88 2.37-1.45 2.41-1.39-2.45 2.06-2.41 2.13 2.37-1.45 2.41-1.39-2.45 1.92-2.41 2 2.37-1.45 2.41-1.39"/><path class="cls-3" d="M290.43 40s.49-.3.49-.29.13.58.13.59.34-.21.34-.2-.23.47-.22.48.39-.24.39-.23-.24 1.32-.22 1.35.39-.24.39-.23-.4 1-.39 1 .39-.24.4-.23-.42 1.64-.4 1.68.41-.25.42-.24-.44 1.51-.42 1.54.43-.26.43-.25v.88c0 .01.63-.39.64-.37s1.62.34 1.64.38.65-.4.66-.38l.34.38s.65-.4.66-.38l.57.38s.65-.4.66-.38 1.16.35 1.18.38.65-.4.66-.38 1 .36 1.06.38.51-.31.52-.3l.48 1.1s.37-.22.37-.21-.5.78-.49.8.53-.33.54-.31m-8.15 1.21s.65-.4.66-.38.07.37.08.38.65-.4.66-.38 1.78.34 1.81.38.65-.4.66-.38 1 .36 1.06.38.65-.4.66-.38 1.3.34 1.32.37 1-.61 1-.59"/><path class="cls-3" d="M292.45 48.11s.58-.36.59-.34-.07 1.33 0 1.36.32-.2.33-.19.28 1.14.3 1.17.33-.2.33-.19v.75c0 .02.33-.2.33-.19s-.17.44-.17.45.33-.2.33-.19.42 1.14.43 1.17.32-.2.33-.19.18.8.19.82.33-.2.33-.19-.14.42-.13.43.33-.2.33-.19.12.73.13.75.33-.2.33-.19v.6c0 .01.33-.2.33-.19s.17.7.18.71.34-.21.34-.2l.42.92s.34-.21.34-.2l.46 1s.34-.21.34-.2l.35.76s.35-.21.36-.21.08.53.09.54.35-.21.36-.21.08.53.08.54.35-.21.36-.21l.22.64s.35-.21.36-.21 0 .53 0 .54.32-.2.33-.19-.35 1.07-.33 1.1.49-.3.49-.29"/><path class="cls-3" d="M291.83 51.33s.35-.21.35-.2.18 1 .19 1 .33-.2.34-.2S293 53 293 53s.32-.2.33-.19-.07.56-.06.57.32-.19.32-.19v.69c0 .02.34-.21.35-.2s.11.74.12.76.34-.21.34-.2.07.69.08.7.34-.2.34-.2.35 1 .36 1 .33-.2.34-.19 0 .57 0 .58.34-.21.34-.2l.42 1 .34-.2s.2.73.21.75.34-.2.34-.2l.47.94.36-.22s.19.64.2.65.35-.21.35-.2l.6 1s.42-.26.43-.25l.26.46s1.5-.92 1.53-.88m-10.01-8.03l.32-.19s-.34 1-.33 1 .38-.23.39-.22-.4 1.37-.39 1.4.38-.23.39-.22-.41 1.65-.39 1.69.38-.23.39-.22-.4 1.25-.38 1.28.38-.23.38-.22-.4 1.58-.38 1.61.38-.23.38-.22-.39.77-.38.79.38-.23.38-.22-.4 1.17-.38 1.19.38-.23.38-.22-.4 1.67-.38 1.71.38-.23.38-.22-.39.84-.38.86.38-.23.38-.22-.4 1.12-.38 1.15.38-.23.38-.22-.59.78-.58.81.54-.33.55-.32"/><path class="cls-3" d="M288.9 51.45s.37-.23.38-.22-.39.8-.38.82.38-.23.38-.22-.4 1.29-.38 1.32.38-.23.38-.22-.4 1.42-.38 1.46.38-.23.38-.22-.4 1.6-.38 1.64.38-.23.38-.22-.4 1-.38 1 .38-.23.38-.22-.39.59-.38.6.38-.23.38-.22-.4.91-.38.93.38-.23.38-.22-.4 1.43-.38 1.46.38-.23.38-.22-.4 1.42-.38 1.45.38-.23.38-.22-.4 1.18-.38 1.2.38-.23.39-.22-.07 1.31-.05 1.34.34-.21.34-.2l.52.71s1.54-.94 1.56-.9M288.61 51s.53-.33.54-.31-.92.85-.9.88 1-.62 1-.6-2.12 2.15-2.08 2.22.72-.44.73-.42-2.27 2.22-2.23 2.29 1-.59 1-.56-2.08 1.74-2 1.8 1-.63 1.05-.61-3.71 2.88-3.65 3 1.76-1.08 1.79-1m-4.22-11.61s1-.62 1-.59-1.15 1.86-1.13 1.91.38-.23.39-.22.2.8.21.82.47-.28.47-.27l.61.43s.65-.4.66-.38 1 .36 1 .38.65-.4.66-.38.66.37.67.38.66-.4.67-.38 1.35.35 1.36.38.66-.4.67-.39.36 1.09.37 1.11.67-.41.67-.39-1.36 1.51-1.34 1.51.68-.41.69-.4-2.27 2.52-2.27 2.59.9-.55.91-.53-2.93 2.67-2.88 2.75 1.19-.72 1.2-.69-5.23 4.28-5.18 4.42.64-.39.65-.38-.37 1.41-.35 1.44.36-.22.37-.21 0 .45.05.46.36-.22.36-.21l.19.53s.91-.55.92-.53"/><path class="cls-3" d="M280.86 45.86s.67-.41.68-.39 1.07.36 1.09.39.69-.42.7-.4.78.38.79.4.7-.43.71-.41l.24.41s.72-.44.73-.42 1.55.38 1.57.42.74-.45.75-.43l.53.43s.58-.36.59-.34m-.06-5.36s1.05-.64 1.07-.62-1.37 1.51-1.35 1.55.42-.26.43-.25-.44 1-.43 1 .38-.23.38-.22-.4 1.66-.38 1.7.37-.23.38-.22-.39.73-.38.74.37-.23.38-.22-.39.93-.38 1 .37-.23.38-.22-.39.84-.38.86.37-.23.38-.22m27.94 13.11c0 .07 2.89-1.77 2.93-1.69s-2.1 1.63-2.07 1.69 2.92-1.76 2.92-1.69-1.79 1.64-1.76 1.69 2.89-1.77 2.93-1.69-1.26 1.65-1.23 1.69 2.89-1.76 2.93-1.69-2 1.63-2 1.69 2.88-1.76 2.93-1.69-2.35 1.63-2.32 1.69 2.88-1.76 2.93-1.69S324 58.1 324 58.15s2.88-1.76 2.92-1.69-1.57 1.64-1.54 1.69 2.72-1.66 2.76-1.59-1 1.67-1 1.72 1.95-1.19 2-1.14-1.85 1.51-1.82 1.56 2-1.25 2.07-1.2-2.1 1.63-2.07 1.68 2.22-1.36 2.25-1.3-2.25 2.12-2.21 2.12 2.34-1.43 2.37-1.37"/><path class="cls-3" d="M316.92 62.34c0 .08 3-1.81 3-1.73s-.58 1.69-.56 1.73 3-1.81 3-1.73-2 1.67-2 1.73 3-1.8 3-1.73-1.72 1.67-1.69 1.73 2.95-1.8 3-1.73-1.48 1.68-1.45 1.72 2.95-1.8 3-1.73-1.43 1.67-1.4 1.72 4.82-2.94 4.89-2.82-3.74 2.72-3.68 2.82 3.63-2.22 3.68-2.13-2.8 2-2.76 2.12 2.72-1.66 2.76-1.59-2.21 2.1-2.18 2.17 2.15-1.31 2.18-1.26-1.26 1.37-1.24 1.37 1-.61 1-.59M314.19 59c.06.11 4.39-2.68 4.46-2.57s-4.46 3.57-4.39 3.7 2.25-1.37 2.28-1.32-2.32 1.77-2.28 1.83 2.25-1.38 2.29-1.32-2.32 1.78-2.28 1.84 2.25-1.38 2.29-1.32-2.19 2.41-2.15 2.48 3-1.82 3-1.75-1.92 2.5-1.88 2.57.92-.56.93-.54m2.42-8.13c0 .08 3-1.82 3-1.74s-1.46 1.69-1.43 1.74 3-1.82 3-1.74-2.3 1.68-2.27 1.74 3-1.82 3-1.74-.52 1.7-.5 1.74 3-1.82 3-1.74-2.28 1.68-2.25 1.74 3-1.82 3-1.74-1.43 1.68-1.43 1.73 3-1.82 3-1.74-.47 1.7-.44 1.74 2.73-1.67 2.77-1.6-.8 1.56-.77 1.6 1.22-.74 1.23-.71"/><path class="cls-3" d="M310.12 53.21s.83-.51.84-.49-.89 1.14-.87 1.18 2-1.23 2-1.18-1.94 1.4-1.91 1.45 2.48-1.52 2.52-1.45-.92 1.7-.89 1.74 3-1.81 3-1.74-1.66 1.69-1.63 1.74 3-1.81 3-1.74-.61 1.75-.59 1.79 3.06-1.87 3.1-1.79c.13.23-8.66 6-8.53 6.22s10.63-6.49 10.78-6.22-11.17 7-11 7.24 7.43-4.54 7.54-4.35-6.54 4.86-6.44 5 7.16-4.38 7.27-4.2m5.46-12.72c0 .08 3.24-2 3.28-1.9s-2.58 1.83-2.55 1.9 2.89-1.76 2.93-1.69-.48 1.65-.46 1.69 2.64-1.61 2.68-1.54-1.07 1.56-1 1.6 1.78-1.09 1.8-1-1.6 2-1.57 2.06 2-1.22 2-1.17-2 1.86-2 1.92 2.07-1.26 2.1-1.21"/><path class="cls-3" d="M323.76 47.42c0 .07 2.68-1.64 2.72-1.57s-.42 1.53-.4 1.57 4.8-2.93 4.87-2.81-2.59 2.73-2.54 2.81 2.5-1.53 2.54-1.47-2.15 1.92-2.11 2 2.08-1.27 2.11-1.22-2.14 1.51-2.11 1.57 2.08-1.27 2.11-1.22-2.14 2.14-2.1 2.2 2.07-1.26 2.1-1.21M325.22 41s.91-.55.92-.53-1.33 1.14-1.31 1.18 1.77-1.08 1.79-1"/><path class="cls-3" d="M321.55 42.78s1.22-.75 1.24-.72-1.72 1.76-1.69 1.82 3.23-2 3.28-1.89-3.37 3-3.31 3.09 2.09-1.28 2.12-1.22-2.16 2.61-2.12 2.69 2-1.22 2-1.16-2.06 2.16-2 2.23 3-1.83 3-1.76-3.1 3.05-3 3.15 2-1.21 2-1.16-2 1.63-1.94 1.69 1.92-1.18 2-1.13-1.68 1.87-1.65 1.93 1.65-1 1.68-1-.6 1.78-.57 1.82 2.69-1.64 2.73-1.58-1.85 1.63-1.82 1.69 2.89-1.76 2.93-1.69-1.43 1.67-1.43 1.71 2.89-1.77 2.93-1.69-.78 1.65-.75 1.69 3.67-2.24 3.73-2.15-1.74 2-1.71 2.08 1.2-.74 1.22-.71m-20.29-.3s.95-.58 1-.56-1 1.16-1 1.19 2.21-1.35 2.24-1.29-1.46 1.87-1.43 1.93 5.21-3.18 5.28-3-2.88 2.78-2.83 2.87 3.61-2.21 3.67-2.12-.76 1.8-.73 1.84 3.25-2 3.3-1.91-1.67 1.69-1.64 1.74 2.05-1.25 2.08-1.2-1.3 1.08-1.28 1.12 1.19-.73 1.21-.7M316.71 47c0 .06 2.38-1.46 2.42-1.39S317.29 47 317.32 47s1.9-1.16 1.92-1.11-.91 1.08-.89 1.11.82-.5.83-.48"/><path class="cls-3" d="M310.78 45.79s.82-.5.83-.48-.54 1.53-.52 1.56 5-3 5.06-2.92-3.77 3-3.71 3.08 3.66-2.24 3.72-2.15-2.44 2.12-2.4 2.12 3-1.82 3-1.74S314 47.8 314 47.88s4.39-2.68 4.45-2.57-4.52 3.22-4.45 3.34 2.11-1.29 2.14-1.23S314 49 314 49.1s2.1-1.29 2.14-1.23m.57-4.61c0 .07 2.65-1.62 2.69-1.55s-.94 1.51-.92 1.55 1.22-.75 1.24-.72"/><path class="cls-3" d="M310.52 42s.83-.51.84-.49-.86 1.23-.85 1.26 2.15-1.31 2.18-1.26-1.62 1.64-1.59 1.69 2.9-1.77 2.9-1.7-.48 1.71-.46 1.75 3-1.82 3-1.75-2.64 2-2.59 2 3.46-2.11 3.51-2-3.46 2.67-3.46 2.76 4.71-2.88 4.78-2.76-4.84 3.35-4.78 3.5 2.11-1.29 2.14-1.23m1.08 14.65s.7-.43.71-.41l.11.41s.69-.42.7-.41l.44.4s.69-.42.7-.4l.54.4s.68-.42.69-.4 1.62.35 1.64.39.67-.41.68-.39l.29.39s.66-.4.67-.39 1.28.35 1.3.38.65-.4.66-.38l.72.66s.41-.25.42-.24-.38 1.34-.36 1.37.37-.22.37-.22-.36.57-.35.58.35-.21.36-.21"/><path class="cls-3" d="M316.45 58.36L317 58s-.65 1.7-.63 1.74.41-.25.41-.24-.41.79-.4.81.41-.25.42-.24-.2.58-.19.59.53-.33.54-.31l.28.38s.65-.39.66-.38 1.27.35 1.29.38.65-.4.66-.38 1 .36 1 .38.65-.4.66-.38.72.36.73.38.65-.4.66-.38.92.36.93.38.65-.4.66-.38.87.36.88.38.65-.4.66-.38.67.36.68.38.54-.33.54-.31m-3.68-12.73s.7-.42.71-.41 1.27.36 1.28.39.67-.41.68-.4l.18.39s.67-.41.68-.39 1.26.64 1.27.67.41-.25.42-.24-.39 1.08-.37 1.11.37-.23.38-.22"/><path class="cls-3" d="M323 47.63s.58-.36.59-.34-.65 1.22-.63 1.25.39-.24.4-.23-.41.63-.4.64.41-.25.41-.24.24 1 .26 1 .65-.39.66-.38 1.49.34 1.51.38.65-.4.66-.38 1.22.35 1.24.38.65-.4.66-.38.06.37.06.38.52-.31.52-.3m-17.85 3.45s.66-.4.67-.38l.45.38s.66-.4.67-.38 1.88.34 1.91.38.66-.4.67-.38 1 .36 1 .38.66-.4.67-.38l.11.38s.66-.4.67-.38l.2.38s.66-.4.67-.38 0 .38 0 .38.66-.4.67-.38 1.32.35 1.34.38.66-.4.67-.38 1.61.35 1.64.38.66-.4.67-.38-.06.38-.05.38.66-.4.67-.38 1.22.36 1.24.38.66-.4.67-.38 0 .38 0 .38.66-.4.67-.38l.19.38s.66-.4.67-.38.8.36.81.38.66-.4.67-.38l.13.38s.66-.4.67-.38 1 .36 1 .38.4-.25.41-.24l.21.58s.31-.19.31-.18-.28.82-.27.84.5-.3.5-.29m-13.37 1.15s.66-.4.67-.39 0 .38 0 .39.66-.4.67-.39 1.74.35 1.77.39.66-.4.67-.39l.58.39s.66-.4.67-.39.71.37.72.39.66-.4.67-.39 1.16.36 1.17.38.66-.4.67-.39 1.69.35 1.71.38.66-.4.67-.39.86.36.87.38.85-.52.86-.5"/><path class="cls-3" d="M317.87 54.93s1-.62 1-.59-1.7 2.21-1.66 2.27.66-.41.67-.39 1.6.35 1.62.39.66-.4.67-.39l.19.39s.66-.4.67-.39 1.32.35 1.34.38.66-.4.67-.38l.15.38s.66-.4.67-.38 1.38.35 1.39.38.65-.4.66-.38l.42.38s.65-.4.66-.38.74.38.75.4.49-.3.5-.29 0 .37 0 .38.41-.25.41-.24l.51.92s.32-.2.33-.19-.1.51-.1.52.32-.2.32-.19-.18.81-.17.83.34-.21.34-.2-.32.6-.31.61.38-.23.38-.22-.39.68-.38.7.43-.25.43-.25-.4 1.24-.38 1.27.38-.23.38-.22-.4 1.05-.38 1.08.38-.23.38-.22-.6 1.4-.59 1.43.54-.33.55-.32"/><path class="cls-3" d="M317.08 62.6s.71-.43.72-.41 1.12.38 1.13.41.7-.43.71-.41 1.44.37 1.46.4.69-.42.7-.4 1.75.36 1.78.4.68-.42.69-.4-.07.39-.07.4.68-.41.69-.4 1.1.37 1.11.39.67-.41.68-.39l.57.68s.34-.21.34-.2-.14.42-.14.43.38-.23.39-.22l.26.43s1.78-1.09 1.81-1m-13.49.15s.47-.29.47-.27M314 59.45s.37-.23.38-.22-.38.77-.38.77.38-.23.38-.22-.4 1.27-.38 1.3.38-.23.38-.22-.38 1.14-.38 1.2.37-.23.38-.22-.05 1.07 0 1.09.33-.2.34-.19l.6.66s.84-.51.85-.49M309.94 53s.95-.58 1-.55-.94 1.75-.94 1.8.31-.19.32-.18l.49.63s.62-.38.63-.37l.22.38s.66-.4.67-.39l.41.38s.66-.4.67-.39 1 .36 1 .38.66-.4.67-.39-4.33 3.76-4.26 3.89 3.4-2.08 3.45-2-4.74 3-4.67 3.14 1.24-.76 1.25-.72-1.13 1.39-1.11 1.39.31-.19.32-.18.28.85.3.87.41-.25.42-.24l.51.39c0 .07 2.65-1.62 2.69-1.55M323.76 44s.7-.43.71-.41 1 .37 1 .4.68-.41.69-.4.77.37.78.39.66-.4.67-.39.93.86.94.89.41-.25.41-.24-.37 1.16-.36 1.18.35-.22.36-.21"/><path class="cls-3" d="M323 43.89s.58-.36.59-.34-.65 1.08-.63 1.11.39-.24.39-.23-.41 1-.39 1 .42-.25.42-.24l.62.81s.65-.39.66-.38 1.63.34 1.66.38.65-.4.66-.38 1 .36 1 .38 1-.59 1-.57m-6.05-3.25s.76-.46.77-.44l.18.4s1.16-.71 1.17-.68m-.16-.57s1.08-.66 1.1-.63-1.4 1.2-1.38 1.24.67-.41.68-.39"/><path class="cls-3" d="M326.22 40.57s.46-.28.47-.27.32.95.33 1 .32-.2.32-.19-.43.74-.42.75.48-.29.49-.28-.1.57-.1.58.66-.4.67-.39 1.33.43 1.35.46.46-.28.47-.27l.67 1.09s.32-.2.33-.19-.12.56-.11.58.34-.21.34-.2-.24 1.51-.22 1.54.38-.23.38-.22-.39.86-.38.88.38-.23.38-.22-.39.74-.38.76.38-.23.38-.22-.39.8-.38.82.38-.23.38-.22-.4 1.15-.38 1.18.38-.23.38-.22-.39 1-.38 1 .38-.23.38-.22-.39.84-.38.87.38-.23.38-.22-.45.79-.44.81.42-.26.43-.25-.52.66-.51.68.42-.26.43-.25m-9.72-7.15s1.29-.79 1.31-.76-1.86 1.91-1.83 2 .42-.26.43-.25-.49.69-.47.71.38-.23.38-.22-.41 1.64-.38 1.67.38-.23.38-.22-.39.65-.38.66.38-.23.38-.22-.4 1.08-.38 1.11.38-.23.38-.22-.4 1.66-.38 1.7.38-.23.38-.22-.32 1.3-.3 1.33.34-.21.34-.2-.24.54-.24.54.34-.21.34-.2.16 1 .17 1 .34-.21.35-.2.15.55.16.56.36-.22.36-.21.79.53.8.55.65-.4.66-.38 1.83.34 1.86.38.65-.4.66-.38 1.08.36 1.09.38.65-.4.66-.38l.33.38s.73-.45.75-.43l.34.27s1.09-.67 1.11-.64m-19.14-9.03s.66-.4.67-.38l.5.38s.66-.4.67-.38-.06.38-.06.38.66-.4.67-.38 1.43.35 1.45.38.66-.4.67-.38.71.37.72.38.66-.4.67-.38 1.67.43 1.69.47.38-.23.39-.22 0 1.08 0 1.11.49-.3.5-.29m-3.36 1.16s.74-.45.75-.43 0 .41 0 .42.71-.44.72-.42.63.37.64.39 1-.59 1-.56"/><path class="cls-3" d="M316 43.43s.58-.36.59-.34-.64 1.65-.62 1.69.41-.25.42-.24l.72.93s.65-.4.66-.38.66.36.67.38.39-.24.4-.23 0 .36 0 .37.39-.24.4-.23-.16 1-.15 1 .48-.3.49-.28m-2.9 1.2s.74-.45.75-.43 1 .36 1 .38.94-.57.95-.55"/><path class="cls-3" d="M316 47.21s.58-.36.59-.34-.59 1.13-.59 1.2.39-.24.4-.23-.31 1.32-.29 1.35.34-.2.34-.2 2.15.16 2.18.21.66-.41.67-.39l.52.76s.3-.18.31-.18-.36.68-.35.69.5-.31.51-.29m-10.41.33s1.16-.71 1.17-.68-1.29 1.29-1.26 1.33.39-.24.4-.23.1 1 .12 1 .46-.28.46-.27 1.59.27 1.61.31.78-.47.79-.45 2.11.13 2.14.18.78-.48.79-.46.85.28.86.3.79-.48.8-.46 0 .37 0 .38.79-.48.81-.46l.54.33s.88-.54.89-.52"/><path class="cls-3" d="M311 49.82s.76-.46.77-.44-.06.38-.06.39.77-.47.78-.45 1 .27 1 .29.62-.38.62-.36m-3.48-3.62s.93-.57.95-.55-.9 1.72-.87 1.77.31-.19.31-.18l.62.58s.66-.4.67-.38.69.36.7.38.65-.4.66-.38.08.9.1.92.42-.26.43-.25-.42 1-.41 1 .41-.25.41-.24-.41.66-.4.68.4-.24.4-.23"/><path class="cls-3" d="M311.66 45.47s.69-.42.7-.41 1 .38 1.06.4.73-.45.74-.43m-3.8-3.19s.95-.58 1-.56-1.09 1.35-1.07 1.39.31-.19.31-.18.06.72.07.74.33-.23.33-.23 1.74.42 1.76.46.65-.4.66-.38l.26.38s.36-.22.37-.21-.32.89-.3.91.41-.25.41-.24-.4.91-.38.93.38-.23.38-.22"/></g></g></svg>