<svg xmlns="http://www.w3.org/2000/svg" width="146" height="21" viewBox="0 0 146 21"><defs><style>.a{fill:#5d0e5a}.b{fill:#6d2e6a}.c{fill:none}</style></defs><title>txt_character_design</title><path class="a" d="M19 7.81h.18a.76.76 0 0 1 .38.11.67.67 0 0 1 .31.46.8.8 0 0 1 0 .15.68.68 0 0 1-.14.4.73.73 0 0 1-.48.3l-.62.1-3.12.49a.12.12 0 0 0-.11.16q.1.46.21 1.07l.18 1q.07.36.11.52l.12.52a.84.84 0 0 1 0 .21.79.79 0 0 1-.11.4.68.68 0 0 1-.49.33h-.14a.75.75 0 0 1-.45-.15.76.76 0 0 1-.31-.53 4.79 4.79 0 0 0-.1-.55c0-.1 0-.27-.08-.51l-.18-1-.16-1.1c0-.09-.07-.13-.15-.11l-3.47.59-.55.11h-.17a.81.81 0 0 1-.42-.12.77.77 0 0 1-.33-.48 1 1 0 0 1 0-.15.62.62 0 0 1 .09-.37.68.68 0 0 1 .48-.29l.57-.07 3.49-.53a.12.12 0 0 0 .11-.16l-.41-2.31a.13.13 0 0 0-.16-.11l-2.8.46-.44.1h-.17a.76.76 0 0 1-.42-.14.72.72 0 0 1-.33-.48 1 1 0 0 1 0-.15.65.65 0 0 1 .15-.41.69.69 0 0 1 .51-.27h.44q.73-.08 2.82-.4c.09 0 .13-.07.11-.15q-.25-1.23-.26-1.27c0-.09 0-.17-.05-.25a.68.68 0 0 1 0-.19.66.66 0 0 1 .12-.38.67.67 0 0 1 .46-.31h.14a.72.72 0 0 1 .44.15.82.82 0 0 1 .31.52c0 .09 0 .17.05.23s.1.63.23 1.29a.12.12 0 0 0 .16.11q2.34-.38 2.87-.49l.39-.16H18a.75.75 0 0 1 .7.57.72.72 0 0 1 0 .14.7.7 0 0 1-.14.41.68.68 0 0 1-.48.29h-.38l-2.93.46a.11.11 0 0 0-.11.15l.44 2.3a.12.12 0 0 0 .16.11L18.39 8zm10.89 2.62a.8.8 0 0 1-.49.29h-.16a.81.81 0 0 1-.41-.11.46.46 0 0 1-.26-.36v-.08a.47.47 0 0 1 .15-.34 12.51 12.51 0 0 0 1.7-2.13.09.09 0 0 0 0-.08h-.06l-.75.15-1.38.23-1.43.29a.11.11 0 0 0-.1.16q1.16 4.24 1.35 4.84c0 .07.06.17.1.3a.62.62 0 0 1 0 .22.75.75 0 0 1-.1.36.67.67 0 0 1-.45.34h-.18a.66.66 0 0 1-.38-.12.73.73 0 0 1-.33-.48c0-.12-.06-.23-.1-.34q-.3-1-1.31-4.85a.12.12 0 0 0-.16-.11l-2 .4h-.15a.69.69 0 0 1-.28-.01.67.67 0 0 1-.31-.42.47.47 0 0 1 0-.15.61.61 0 0 1 .08-.43.65.65 0 0 1 .44-.26l.53-.08 1.39-.25a.12.12 0 0 0 .16-.12q-.14-.53-.38-1.35l-.05-.19a.73.73 0 0 1 0-.23.65.65 0 0 1 .08-.31.58.58 0 0 1 .35-.35h.18a.71.71 0 0 1 .38.11.75.75 0 0 1 .34.48.93.93 0 0 1 0 .11.93.93 0 0 0 0 .11L26.31 7c0 .08.07.11.16.1l4.46-.86h.1a1.71 1.71 0 0 1 .36 0 1 1 0 0 1 .6.19.55.55 0 0 1 .25.36.47.47 0 0 1 0 .15.55.55 0 0 1-.08.29 19.77 19.77 0 0 1-2.27 3.2zm13.83-4.24H44a1.52 1.52 0 0 1 .82.21.6.6 0 0 1 .27.37.68.68 0 0 1 0 .46A9.94 9.94 0 0 1 43 11.1a10.07 10.07 0 0 1-4.21 2.73 1.15 1.15 0 0 1-.38.07 1.08 1.08 0 0 1-.34-.05 1.27 1.27 0 0 1-.62-.4.49.49 0 0 1-.12-.31.51.51 0 0 1 0-.16.47.47 0 0 1 .36-.34 9 9 0 0 0 4.11-2.34 6.37 6.37 0 0 0 1.52-2.68.09.09 0 0 0 0-.08.09.09 0 0 0-.08 0h-7.8a.68.68 0 0 1-.44-.22.66.66 0 0 1-.22-.5.62.62 0 0 1 .22-.48.64.64 0 0 1 .45-.18h8.31zm-7-1.94a.68.68 0 0 1-.48-.19.66.66 0 0 1 0-1 .69.69 0 0 1 .46-.18h6.8a.69.69 0 0 1 .46.18.69.69 0 0 1 0 1 .69.69 0 0 1-.49.19h-6.73zM56 4.08h.26a1.84 1.84 0 0 1 1 .23.74.74 0 0 1 .31.42.88.88 0 0 1 0 .22.92.92 0 0 1-.05.31l-.1.25a14.89 14.89 0 0 1-1 2.41 12.06 12.06 0 0 1-1.52 2.36 11.68 11.68 0 0 1-2.05 2 13.91 13.91 0 0 1-2.73 1.57 1.37 1.37 0 0 1-.53.11h-.23a1.52 1.52 0 0 1-.7-.34.47.47 0 0 1-.16-.36.67.67 0 0 1 0-.12.5.5 0 0 1 .33-.38 11.22 11.22 0 0 0 4.79-3.23 9.28 9.28 0 0 0 1.38-2 10.06 10.06 0 0 0 .81-2 .17.17 0 0 0 0-.1.09.09 0 0 0-.08 0h-4.1a.26.26 0 0 0-.22.11 14.62 14.62 0 0 1-2.84 2.87 1 1 0 0 1-.6.19 1.06 1.06 0 0 1-.63-.21.51.51 0 0 1-.34-.48.54.54 0 0 1 .23-.46A11.87 11.87 0 0 0 51 3.23q.1-.18.22-.46a1 1 0 0 1 .46-.48.77.77 0 0 1 .37-.1 1 1 0 0 1 .27 0 .65.65 0 0 1 .42.41.77.77 0 0 1 0 .25.67.67 0 0 1-.1.34l-.29.51-.03.3a.05.05 0 0 0 0 .07.08.08 0 0 0 .08 0H56zm12.06-.22h.29a1.76 1.76 0 0 1 .93.23.74.74 0 0 1 .31.42.88.88 0 0 1 0 .22.81.81 0 0 1-.07.31l-.1.26a14.64 14.64 0 0 1-1.91 3.91c-.05.07 0 .13 0 .18l.56.37a.72.72 0 0 1 .33.51v.14a.8.8 0 0 1-.15.46.78.78 0 0 1-.53.3h-.12a.78.78 0 0 1-.48-.16l-.57-.41a.14.14 0 0 0-.21 0A13.2 13.2 0 0 1 62 13.83a1.34 1.34 0 0 1-.52.11h-.23a1.33 1.33 0 0 1-.67-.33.43.43 0 0 1-.16-.34.53.53 0 0 1 .33-.48 11.83 11.83 0 0 0 4.48-3 .1.1 0 0 0 0-.18Q64 8.89 63 8.31a.58.58 0 0 1-.29-.4V7.8a.56.56 0 0 1 .14-.37.86.86 0 0 1 .51-.29h.16a.81.81 0 0 1 .41.11q1 .53 2.15 1.23a.13.13 0 0 0 .21 0 10.82 10.82 0 0 0 1.53-3.14.12.12 0 0 0 0-.1.09.09 0 0 0-.08 0h-4.19a.26.26 0 0 0-.22.11 15.5 15.5 0 0 1-3 3.09 1 1 0 0 1-.6.19 1 1 0 0 1-.6-.21.55.55 0 0 1 0-.87 11.71 11.71 0 0 0 2.33-2.13A13.65 13.65 0 0 0 63 3.1a4.87 4.87 0 0 0 .25-.46.89.89 0 0 1 .45-.48.77.77 0 0 1 .37-.1.82.82 0 0 1 .26 0 .62.62 0 0 1 .41.38.77.77 0 0 1 0 .25.76.76 0 0 1-.08.34c-.13.21-.22.38-.29.51l-.11.19a.11.11 0 0 0 0 .08.08.08 0 0 0 .08 0h3.25zm5.07 4.98a.81.81 0 0 1-.58-.23.8.8 0 0 1-.26-.6.74.74 0 0 1 .26-.57.76.76 0 0 1 .56-.23h9.57a.79.79 0 0 1 .56.22.74.74 0 0 1 .26.57.8.8 0 0 1-.26.6.84.84 0 0 1-.57.22h-8.32zm14.16-2.21h9.65a.69.69 0 0 1 .46.18.61.61 0 0 1 .22.48.67.67 0 0 1-.22.51.69.69 0 0 1-.49.19H93a.14.14 0 0 0-.15.14A8.35 8.35 0 0 1 92 11.7a5.3 5.3 0 0 1-.85 1.16 7.37 7.37 0 0 1-1.23 1 1.09 1.09 0 0 1-.62.19h-.05a1.28 1.28 0 0 1-.67-.25.47.47 0 0 1-.19-.38.49.49 0 0 1 .26-.45 5.39 5.39 0 0 0 1.87-1.74 6.43 6.43 0 0 0 .83-3.16.14.14 0 0 0-.15-.07h-4.48a.69.69 0 0 1-.49-.19.65.65 0 0 1-.23-.52.7.7 0 0 1 .68-.68h.59zm6.47-2.21h-5.4a.68.68 0 0 1-.68-.68.63.63 0 0 1 .21-.48.69.69 0 0 1 .46-.18h6.14a.66.66 0 0 1 .46.18.61.61 0 0 1 .22.48.65.65 0 0 1-.22.49.68.68 0 0 1-.48.19h-.71zm3.06-1a.41.41 0 0 1 0 .37.45.45 0 0 1-.26.27.5.5 0 0 1-.39 0 .54.54 0 0 1-.29-.25q-.34-.63-.62-1.08a.43.43 0 0 1 0-.34.39.39 0 0 1 .23-.26.57.57 0 0 1 .4 0 .54.54 0 0 1 .31.24q.3.49.61 1.06zm.07-1.29a.41.41 0 0 1-.07-.22.24.24 0 0 1 0-.11.34.34 0 0 1 .22-.26.66.66 0 0 1 .23 0h.16a.64.64 0 0 1 .33.25q.36.53.66 1.07a.41.41 0 0 1 .08.14.4.4 0 0 1 0 .15.45.45 0 0 1-.26.27.51.51 0 0 1-.21 0h-.18a.56.56 0 0 1-.3-.26q-.34-.53-.67-1.02zm12.02 3.2a.12.12 0 0 0 .14.14h1.87a.68.68 0 0 1 .48.19.63.63 0 0 1 .22.49.65.65 0 0 1-.22.49.72.72 0 0 1-.51.21h-1.85a.12.12 0 0 0-.14.14v.34a14.69 14.69 0 0 1-.15 2.26 7.08 7.08 0 0 1-.53 1.8 4.75 4.75 0 0 1-1 1.48 7.44 7.44 0 0 1-1.67 1.13 1.15 1.15 0 0 1-.52.12h-.18a1.16 1.16 0 0 1-.63-.31.51.51 0 0 1-.16-.37.46.46 0 0 1 0-.11.5.5 0 0 1 .31-.38 6 6 0 0 0 1.74-1.13 4.13 4.13 0 0 0 1-1.72 9 9 0 0 0 .35-2.72V7a.12.12 0 0 0-.14-.14h-3.42a.12.12 0 0 0-.14.14v2.55a.72.72 0 0 1-.21.51.66.66 0 0 1-.52.23.7.7 0 0 1-.53-.23.74.74 0 0 1-.19-.51V7a.12.12 0 0 0-.14-.14h-2a.73.73 0 0 1-.52-.21.71.71 0 0 1-.22-.52.67.67 0 0 1 .22-.51.69.69 0 0 1 .46-.18h2.01a.12.12 0 0 0 .14-.14V3.47a.72.72 0 0 1 .21-.51.7.7 0 0 1 1 0 .73.73 0 0 1 .21.52v1.85a.12.12 0 0 0 .14.14h3.42a.12.12 0 0 0 .14-.14V3.38a.73.73 0 0 1 .21-.52.71.71 0 0 1 1.05 0 .72.72 0 0 1 .21.51v2zm1.91-1.19a.38.38 0 0 1 0 .33.41.41 0 0 1-.25.22.44.44 0 0 1-.33 0 .39.39 0 0 1-.22-.24q-.26-.73-.45-1.16a.36.36 0 0 1 0-.31.33.33 0 0 1 .22-.2.49.49 0 0 1 .34 0 .42.42 0 0 1 .23.23q.26.55.47 1.13zm1.44-.42a.36.36 0 0 1 0 .14.39.39 0 0 1 0 .18.42.42 0 0 1-.57.2.45.45 0 0 1-.23-.24q-.26-.71-.46-1.16a.36.36 0 0 1 0-.3.35.35 0 0 1 .23-.21.42.42 0 0 1 .33 0 .42.42 0 0 1 .25.23q.19.58.45 1.15zm8.67 2.58a.26.26 0 0 0-.11.22v6.58a.82.82 0 0 1-.22.56.76.76 0 0 1-1.15 0 .79.79 0 0 1-.23-.56V7.42a.08.08 0 0 0 0-.08.11.11 0 0 0-.08 0 26.76 26.76 0 0 1-4.2 1.76.85.85 0 0 1-.29.05 1 1 0 0 1-.36-.07 1 1 0 0 1-.51-.44.55.55 0 0 1-.08-.29.58.58 0 0 1 .05-.23.54.54 0 0 1 .4-.34 23.36 23.36 0 0 0 3-1.05 18.91 18.91 0 0 0 2.56-1.31 15.17 15.17 0 0 0 3.12-2.53.87.87 0 0 1 .56-.26h.05a.74.74 0 0 1 .51.19.73.73 0 0 1 .26.56.72.72 0 0 1-.23.55 23.35 23.35 0 0 1-3.05 2.37zm7.33 7.3h-.27a1.22 1.22 0 0 1-.46-.1 1.27 1.27 0 0 1-.57-.48.62.62 0 0 1-.08-.3.73.73 0 0 1 0-.23.58.58 0 0 1 .42-.34 14.37 14.37 0 0 0 4.66-1.8 12.93 12.93 0 0 0 2.54-2.06 13.73 13.73 0 0 0 1.9-2.45.45.45 0 0 1 .42-.25.44.44 0 0 1 .41.25 1.41 1.41 0 0 1 .21.74 1.33 1.33 0 0 1-.23.77 14.53 14.53 0 0 1-1.95 2.36 13.72 13.72 0 0 1-2.51 2 15.88 15.88 0 0 1-4.49 1.89zm-.75-9.11a.65.65 0 0 1-.26-.48.16.16 0 0 1 0-.07.63.63 0 0 1 .18-.44.87.87 0 0 1 .55-.27h.1a.82.82 0 0 1 .48.15q1.3 1 2.41 2a.72.72 0 0 1 .25.56.76.76 0 0 1-.23.56.72.72 0 0 1-.55.23.79.79 0 0 1-.56-.22q-1.22-1.13-2.37-2.02z"/><path class="b" d="M141.92 19.82c.07 0 0-.14-.17-.12l-.14.17zm-1.34-.31c-.23.08-.51.22-.35.37.23-.16.29-.09.54-.28.2 0 .35.05.32.11s.31 0 .42-.07a1.27 1.27 0 0 0-.93 0c-.09-.05-.02-.1 0-.13zM121 19.26h.13zm-12.08-.09h.14c.01 0-.16-.02-.14 0zm-2.07-.17h.15a.19.19 0 0 0-.15 0zm14.15.26l-.32-.05c0 .05.19.03.32.05zm16.88.65h.18-.17zm-11.51-.79h.1l.08-.07zm4.09-.02c-.09 0-.12.13-.16.2a.31.31 0 0 1 .2-.1.16.16 0 0 0-.04-.1zm6.54.24h.12zm-13.57-.25a.1.1 0 0 0 0-.05s-.02.04 0 .05zM8.83 20.15s-.03 0 0 0zm-4.75-.7h.07a.3.3 0 0 0 0-.08zm98.98-.65c.12-.01.06-.01 0 0zm-34.74.11c.39.13-.64.16 0 .3-.1-.06.49-.21 0-.3zm69.45.99zm-69.5-.69zm26.07-.32a.25.25 0 0 0 .09.06s-.02-.03-.09-.06zm6.5.2h-.16zm-9.84 0a.6.6 0 0 0-.24 0 .3.3 0 0 1 .24 0zm-3.54 0h.17zm-67.96.99a.52.52 0 0 1-.16-.13c.05.1-.47.14.16.13zm118.38-.25a.13.13 0 0 1-.1.06h.12s0-.04-.02-.06zm-47.05.36h-.56zm-46.15-.13h-.13a.26.26 0 0 0 .13 0zm43.94.13a1.13 1.13 0 0 0-.31-.1h-.06zM19.33 20z"/><path class="b" d="M15.66 20.29c.53 0 .25-.18.36-.29.63-.05.29.14.51.23a10.13 10.13 0 0 1 1-.21s.08 0 0 .08c.42-.15 1.24 0 1.73-.19h.06a.29.29 0 0 1-.08-.25c.24 0 .44-.12.53 0-.15 0-.16 0-.23.08l.25-.05c.22.17-.34.06-.34.19a7.37 7.37 0 0 1 1.43-.15c.08.17-.87.06-.37.21l-.58-.06c.44.27-.35 0 .05.27.76 0 .85-.09 1.61 0 .17-.09-.06-.14.11-.23 1.08-.17.85.43 1.64.2a.84.84 0 0 1 .85-.21l-.19.19c.74 0 .42-.28 1.19-.15-.14.08-.58.06-.47.09.5.15.35-.11.74-.11l.08.17c.78 0 1.65-.15 2.51-.18 0 .05-.2.1 0 .16a20.54 20.54 0 0 1 3.39.12l.4-.15c.09 0 .17.07.07.09.41.06 0-.09.22-.15s.31.08.16.13a9.51 9.51 0 0 1 2.86-.12H35c.6.06.67-.3 1.22-.16h-.11a26.86 26.86 0 0 1 3.71.15c.19-.21 1.28.09 1.36-.2a8.08 8.08 0 0 0 1.57.3c.28 0 .41-.18.76-.21v.15l.47-.16.25.18h.32c-.13 0-.27-.07-.25-.11a2.24 2.24 0 0 1 1.24.19l1.19-.13c0 .06-.23.08-.38.12.63-.16.12.16.7 0-.08 0 0-.09.06-.12a4.91 4.91 0 0 0 1.44.05l-.09.11c.88 0 1.86-.05 2.85 0-.35 0-.27-.23 0-.25l.12.16c.19-.1-.3-.06.08-.18s.25.19 0 .24l.45-.06s-.08.07-.11.14c.18-.1.78.16 1 0 1 0 1.44-.05 2.24-.06 0-.14.33-.11.57-.22.59 0 1.25.16 2 .14.5-.07.15-.12.37-.2 0 .13.75.12.38.21.86 0 1.09 0 2.18-.13-.12-.05-.25-.08-.18-.12s.45.05.42.12h-.05c1.22-.19 2.81.37 3.77.11h-.05l1-.14c.46 0-.28.1.06.18 1.08-.21 1.71 0 2.6-.11.69.38 2.45 0 3.38.21l-.05-.09c.24-.09.29.05.47.07 0-.07-.26-.08-.11-.13 2-.11 4.21.13 6.3.21.77 0 .43-.46 1.4-.25l-.27.17c1.54-.2 3.16 0 4.67-.16-.09 0-.09.09-.24.09A1.93 1.93 0 0 0 85 20c.24 0 .05.09.2.14.32.07.8-.15 1 0s-.09 0-.15 0c.21-.06 1 0 .77-.12.57.07 1.08-.06 1.54 0 .29-.15 1 .07 1.06-.14 0 .23 1 .18 1.35.08-.12.07.31.07.17.17.41 0 .78 0 .71-.16.75.27 1.52-.22 1.94.13 1.22-.12 2.34-.2 3.44-.26 0 .23-1.21 0-1.16.26a16.36 16.36 0 0 1 2.67-.23c.27 0-.15.1-.24.14 1-.09 2 0 2.93-.1 0 0-.1 0-.2.06.18 0 .42 0 .4-.07h-.18c-.29-.15.72-.31.75-.39-.31.29.91.07.42.45.12 0 .27-.07.24-.14.18 0 .23.06.05.14.65-.06.42-.16 1-.16 0 0-.12.07-.18.13a2.48 2.48 0 0 1 1.1-.15s0 .07-.12.07a16.94 16.94 0 0 1 2.4-.16c-.28.22.32.07.37.26l.51-.06-.2-.09a9.1 9.1 0 0 1 1.21-.07l-.33.08h.83l-.47-.07c.45-.1 0-.24.54-.18a4.06 4.06 0 0 1 .67.11 1.74 1.74 0 0 1 .77-.08c.08.06-.07.21 0 .25.22-.16 1 0 1.31-.21-.09 0-.1.14-.07.16l.18-.13c.2 0 .23.06.2.14.62 0-.2-.24.54-.13h-.15c.73.05 1.42-.08 2.09 0 .2.19-.59 0-.36.2 1 0 2-.23 3-.18h-.18c.13-.27.7.13 1.18 0-.12 0-.15.15-.12.12a16.74 16.74 0 0 0 2.3-.15l-.12.07c.38.06 1 0 1.41.07.12-.07.36-.06.21-.16 1.27.39 2.42-.21 3.54.12-.13 0-.32.06-.21.06l1-.06c-.08-.12-.13-.07-.33-.16a1.52 1.52 0 0 1 .63-.12c-.43.08 0 .19.19.25v-.11c.5.21.08-.23.77-.09v.06a4 4 0 0 1 .77-.09c.11.13-.27.06-.29.17.39 0 .76-.25 1.11-.12-.16 0-.4 0-.56.07a1.58 1.58 0 0 0 .71.14l.66.07h-.17c.48-.35 1-.06 1.64-.29-.63.22-.1.13-.15.28.17 0 .42.09.35.13.31-.12.51.1.95-.08 0 0 .33 0 .26.13.4 0-.09-.08-.06-.15.62-.17 1.45.2 2.34 0s.91-.26 1.62-.34c.24.08-.2.18-.2.18a2.87 2.87 0 0 0 1 0c-.07 0 0 .08.11.13.29 0 .2-.18.58-.11a1 1 0 0 1-.29.2c.35 0 .69-.14 1-.18.09.08-.22.13-.34.18a3.18 3.18 0 0 0 1.16-.21h-.26c.15 0 .08.12 0 .14-.34.11-.5 0-.52-.1h.25c-.26-.29-1 0-1.53 0l.21-.21-.53.17c-.11-.05-.19-.17.06-.2-.37-.1-.32.07-.64 0l-.36.06c.07 0-.06-.15.16-.12-.64-.12-1 .16-1.28 0h.05c-.89.07-.09.15-.76.33l-.45-.38-.09.15c-.09 0-.27 0-.24-.08-.34.1.06.07-.14.17-.44-.14-1.22.07-1.32-.18-.16.12.42.09 0 .17-.14-.26-.55 0-1-.08.12-.13.51-.06.1-.18-.24.23-.79 0-1.13 0 0 .18-.74.08-1.32.14a15.31 15.31 0 0 0-1.61-.17c-.1.18-.65.15-1.05.19 0-.11.09-.15.31-.2h-.38a.94.94 0 0 1-.45.11l.09-.14a8.69 8.69 0 0 1-1.66.07c0 .13.51.36-.17.44 0-.07-.05-.19.13-.22a.82.82 0 0 1-.33 0l.27-.12c-.29-.05-.15.1-.39.09 0-.1-.17-.07-.14-.15s.21 0 .29 0a1.84 1.84 0 0 1-.69-.15c0 .06 0 .13-.19.15-.5 0-.17-.12-.46-.17-.12.07-.44 0-.45.15s-.17-.07-.23-.11c-.26.07-1.21 0-.92.18-.85.15-1.77-.08-2.61 0a11.66 11.66 0 0 0-1.48.14c-.15 0-.35-.09-.29-.15a2.66 2.66 0 0 1-1 0c.39-.09-.13-.08.4-.06a2.53 2.53 0 0 0-1.15 0c.18-.13-.38-.16-.61-.12l.35.09a6.19 6.19 0 0 1-.74 0l.13-.17c-1-.2-1.85.34-2.63 0-.27.12.56.08.31.22a7.83 7.83 0 0 1-1.11-.26c-.65-.09-.6.24-1.28.18.09.06.17.22-.34.27s-.58-.25-.28-.3h.16c.15 0 .35 0 .17-.11l-.06.06c-.23-.06-.88-.05-.73-.15-.36.06-.15.1.11.13-.6-.09-.94 0-1.57-.06.1 0 .19.1.09.1-.91-.07-.4.11-1 .14-.35-.09.13-.22-.5-.14-.38-.06-.08-.16.07-.21a4.19 4.19 0 0 1-1.38-.1h.3a2.77 2.77 0 0 1-.47 0l.17.12c-.18 0-.32 0-.32-.07-.18.08.14.2-.22.3-.23-.06-.71.06-.79-.09.74.05-.08-.16.54-.18a1.66 1.66 0 0 1-.44 0h.07c-.7-.14-.32.18-1.05.17.09-.09-.17-.17-.29-.15.29 0 .14.15-.13.22-.47-.07-.51.05-.75 0h.28c-.09.09-.33.08-.65.1 0-.07.3 0 .18-.08-.36.16-.82-.16-1.32-.06-.23-.06 0-.17-.23-.21-.57.12-.61-.12-1.21 0 .17.12.2.09-.22.21l1-.08-.63.17c.29 0 .62-.08.8-.05-.3.1-.27.07-.13.17-.4-.18-.8.1-1.27 0V19c-.7-.13-1.25.15-2.16.08l.29.05c-.12.12-.56 0-.86.06 0-.1-.16-.13-.28-.2s-.67 0-.75.19l-.46-.18c-.74-.05-.84.28-1.55.25.21-.11-.11-.18.37-.25h-.45s-.65.13-.87 0-.13.15-.4.14-.41.07-.18.18c-.73-.31-2 0-2.67-.24-.52 0-1.14.06-1.6.07h.09c-.65-.09-.4.28-1.13.18-.37-.16.39-.09.16-.15-.1-.32-.89 0-1.38-.15h.12c-.38-.11-.92.12-1.54.1a7.82 7.82 0 0 1-1.81.27c.19-.13.27-.07.16-.2-.27 0 .08.21-.45.24-.17-.07-.56-.13-.61-.27H80c-.26-.18-.65 0-.91 0v-.08c-.77 0-.78.22-1.6.21l.09.06c-.45.19-.38-.11-.83 0l-.14-.2c-.3 0-1 .19-1.58.23A7.87 7.87 0 0 1 76.4 19a4 4 0 0 0-1.16.11 1 1 0 0 1 .39 0 3.61 3.61 0 0 1-1.43.23c.1-.38-1.53-.1-2-.39a30.55 30.55 0 0 1-3.27 0c.43.3-.35 0-.28.31a1.08 1.08 0 0 1-.42 0l-.81-.26c-.2-.09.27-.07.24-.14-.62 0-.26-.13-.67-.21.08.11-.21.16-.57.11l.5.14c-.86.16-.75-.26-1.62-.1l.28-.1a7.83 7.83 0 0 0-2.08.3c-.08 0-.18-.12 0-.14-1.07 0-2.38.26-3.21.11l.08-.07c-.2 0-.35.14-.6.07 0 0 .08-.07 0-.08A2.43 2.43 0 0 1 59 19l.23-.08a12.43 12.43 0 0 0-2.47.26c0-.22-.82-.29-1.23-.33a28.19 28.19 0 0 0-3.18.27 30.23 30.23 0 0 0-3.48-.23c.17 0 0 .17-.23.19s-.73.15-.69 0H48c-.2-.2-.74-.15-1.16-.15l-.07.26c-1.1-.38-2.89.14-3.49-.2-.27.07-.6.07-.86.13v-.14a18.85 18.85 0 0 0-2 0l.19-.1c-.51 0-.65.41-1.12.42l-.14-.21a12.86 12.86 0 0 0-2.69 0s0-.09.19-.1c-.42 0-1.63-.14-1.48.15 0-.19-.93 0-1.41.06l.08-.14a2.13 2.13 0 0 1-1 .28c-.14 0-.12-.11.06-.08-.45-.07-.35.13-.9.06l.2-.09a1 1 0 0 0-.68.14c-.29.06-.88 0-.95-.16a.76.76 0 0 1-.59.14s.06-.08.11-.09c-.78-.09-1.15.16-1.69 0a.12.12 0 0 0-.09-.08h1.07c-.04 0-.5-.15-.1-.33a5 5 0 0 1-1.57.25h-.06.05a.89.89 0 0 0-.31 0 2.93 2.93 0 0 0-.4 0c-.06-.11-.57-.06-.82-.06 0 .14-.3.12 0 .23h.92a1 1 0 0 1-.68.05l-.35.23c-.34-.2-1-.3-1.09-.42a7.81 7.81 0 0 0-2.26.32c-.22 0-.25-.08-.33-.12a1.84 1.84 0 0 0 .34-.06c-.43.07-1.28 0-1.38.21-.54-.08.31-.17-.44-.14l.1-.06c-1.47-.29-2.39.47-4 .09.11 0 .17 0 .19.06-1.86-.17-3.82.16-5.66-.11a1.57 1.57 0 0 0-.89.15l-.11-.15-.54.17c-.77.13-1.33-.37-2.31-.13l.13.1c-.35 0-1.11.06-1.05-.06a.25.25 0 0 1-.25.05v-.08l-.86.14C5.19 19.26 6 19 5 19c-.36 0-1 .23-.89.28s.37 0 .38.13h-.33c-.06.23-.31.47.5.63l.57-.14.18.11h-.5a.79.79 0 0 0 .64-.01.38.38 0 0 0 .24.12l.56-.22c.07.09-.25.18.12.23.26-.1-.25-.2.18-.27.27.11.19.19.51.1 0 .06 0 .1-.15.12.28-.07.75 0 .89-.15.28.13 1 0 .93.19a2.42 2.42 0 0 1 .76-.18c-.47.26 1 0 .85.3.35-.24 1.27-.11 1.89-.24a.26.26 0 0 1-.16 0 3.18 3.18 0 0 1 .68.14c0-.2.59-.24.88-.36.43.19-.26.23-.13.41 0-.16.75-.16.6-.29.33.12.28.06.45.22.06-.24.31 0 .58-.19.48.12.12.23.64.15.25.12-.21.21-.21.21zm12.41-.42zm1 0h-.45s0-.1.11-.1c-.02.02.27.05.39.09zm-2.21-1h.24-.29a.18.18 0 0 1 .1.02zm-.25.2h-.07.16zm94.57.21z"/><path class="b" d="M43.52 20.13v-.04l-.09.04h.09zm83.4-.37h.08zm2.48.03l.35.05zm1.91.07a.15.15 0 0 0 0-.06zM101 20h-.07c-.2.06-.09.05.07 0zm9-.3l-.29.07c.16.01.29.01.29-.07zm-19.11.5zm18.4-.44a1.25 1.25 0 0 0 .42 0 1.92 1.92 0 0 0-.42 0zm30.29.17h.09zm.11-.02h.1s-.09-.02-.1 0zm.31-.05h-.21a.37.37 0 0 0 .21 0zm-2.94 0v.05a.07.07 0 0 0 0-.05zm-.77.02a3.37 3.37 0 0 0 .71.12c-.09 0-.54-.21-.71-.12zm-3.21-.63h.64c-.11-.05-.26-.13 0-.14-.77-.11.21.16-.64.14zm-1.99-.08c.35 0 0-.08 0-.11-.21.05-.26.06 0 .11zm-14.41 0v-.13c-.24.02.03.05 0 .13zm-2.76.66l.26.08.12-.12-.38.04zm-1.63-.91l.12-.02-.44.05.32-.03zm-24.2.08l.08.16c.18-.07.21-.25-.08-.16zm-10.46.12a.75.75 0 0 0-.59-.05 5.46 5.46 0 0 0 .59.05zm-31.34-.25l.21-.06-.39.05.18.01z"/><path class="c" d="M0 0h146v21H0z"/></svg>