<svg xmlns="http://www.w3.org/2000/svg" width="146" height="21" viewBox="0 0 146 21"><defs><style>.a{fill:#5d0e5a}.b{fill:#6d2e6a}.c{fill:none}</style></defs><title>txt_director</title><path class="a" d="M70.85 12.76a.12.12 0 0 0 .14.14h.77a.55.55 0 0 1 .4.17.56.56 0 0 1 .17.41.54.54 0 0 1-.17.4.56.56 0 0 1-.4.16h-11.5a.56.56 0 0 1-.4-.16.54.54 0 0 1-.17-.4.56.56 0 0 1 .17-.41.55.55 0 0 1 .4-.17h.81a.12.12 0 0 0 .14-.14v-2a1.19 1.19 0 0 1 1.18-1.16h7.27a1.19 1.19 0 0 1 1.19 1.19zm-5.18-5a.49.49 0 0 1 .36.15.51.51 0 0 1 0 .72.49.49 0 0 1-.36.15H61.3a1.19 1.19 0 0 1-1.19-1.19V3.28a1.19 1.19 0 0 1 1.19-1.19h4.27a.49.49 0 0 1 .36.14.51.51 0 0 1 0 .71.49.49 0 0 1-.36.14h-1.63a.12.12 0 0 0-.14.14v.62a.12.12 0 0 0 .14.14h.66a1.19 1.19 0 0 1 1.19 1.19v.4a1.19 1.19 0 0 1-1.19 1.19h-.66a.12.12 0 0 0-.14.14v.68a.12.12 0 0 0 .14.14zm-2.94-4.53a.12.12 0 0 0-.14-.14h-1.16a.12.12 0 0 0-.14.14v.62a.12.12 0 0 0 .14.14h1.17a.12.12 0 0 0 .14-.14zm1.83 2.65a.12.12 0 0 0 .14-.14V5a.12.12 0 0 0-.14-.14h-3.13a.12.12 0 0 0-.13.14v.77a.12.12 0 0 0 .14.14zm-3.13.88a.12.12 0 0 0-.14.14v.68a.12.12 0 0 0 .14.14h1.17a.12.12 0 0 0 .14-.14v-.69a.12.12 0 0 0-.14-.14zm1.12 3.87a.12.12 0 0 0-.14.14v2a.12.12 0 0 0 .14.14h1.3a.12.12 0 0 0 .14-.14v-2a.12.12 0 0 0-.14-.14zm4.21.14a.12.12 0 0 0-.14-.14h-1.3a.12.12 0 0 0-.14.14v2a.12.12 0 0 0 .14.14h1.3a.12.12 0 0 0 .14-.14zm5.22-7a.54.54 0 0 1 .16.4.52.52 0 0 1-.16.39.55.55 0 0 1-.4.16H68a.19.19 0 0 0-.19.12A10 10 0 0 1 67.15 6a.56.56 0 0 1-.38.23h-.08a.58.58 0 0 1-.36-.12.55.55 0 0 1-.23-.37v-.1a.55.55 0 0 1 .11-.33 9.66 9.66 0 0 0 1.35-3.12.67.67 0 0 1 .26-.37.6.6 0 0 1 .33-.1h.11a.54.54 0 0 1 .37.25.55.55 0 0 1 .08.29.36.36 0 0 1 0 .14q-.15.55-.34 1.09a.09.09 0 0 0 0 .08.09.09 0 0 0 .08 0h3.16a.54.54 0 0 1 .39.22zm-.34 3.46a.54.54 0 0 1 0 .78.53.53 0 0 1-.38.16h-3.62a.53.53 0 0 1-.38-.17.54.54 0 0 1 0-.78.53.53 0 0 1 .38-.16h3.62a.53.53 0 0 1 .39.19zm-2.08 3.51a.12.12 0 0 0-.14-.14h-1.33a.12.12 0 0 0-.14.14v2a.12.12 0 0 0 .14.14h1.34a.12.12 0 0 0 .14-.14zM77.77 5a.12.12 0 0 0-.14.14V7a1.86 1.86 0 0 1-.08.64.63.63 0 0 1-.36.33 3.08 3.08 0 0 1-1.07.15.64.64 0 0 1-.4-.14.79.79 0 0 1-.26-.36.37.37 0 0 1 0-.33.32.32 0 0 1 .28-.15h.53a.25.25 0 0 0 .14 0V5.16a.12.12 0 0 0-.03-.16h-2.11a.47.47 0 0 1-.35-.14.48.48 0 0 1 0-.68.47.47 0 0 1 .35-.18h2a.12.12 0 0 0 .14-.14v-1.7a.59.59 0 1 1 1.18 0v.1a.07.07 0 0 0 .08.08h1.76a.46.46 0 0 1 .33.79.45.45 0 0 1-.33.14h-1.75a.12.12 0 0 0-.14.14v.51a.12.12 0 0 0 .14.14h2.15a.47.47 0 0 1 .35.14.48.48 0 0 1 0 .68.47.47 0 0 1-.35.14zm-3.1.7a.63.63 0 0 1 .3-.31.6.6 0 0 1 .42 0 .45.45 0 0 1 .29.24.39.39 0 0 1 0 .38 9.45 9.45 0 0 1-.9 1.5.52.52 0 0 1-.36.21.56.56 0 0 1-.4-.1.44.44 0 0 1-.21-.31.4.4 0 0 1 .1-.35 6.82 6.82 0 0 0 .76-1.24zm1.72 8.72a.63.63 0 0 1-.63-.63v-4.4A1.19 1.19 0 0 1 77 8.2h6a1.19 1.19 0 0 1 1.19 1.19v4.38a.63.63 0 0 1-.19.46.62.62 0 0 1-.45.19h-.29a.36.36 0 0 1-.26-.11.37.37 0 0 1-.11-.27h-5.83a.4.4 0 0 1-.4.4zm6.48-5.13a.12.12 0 0 0-.14-.14h-5.57a.12.12 0 0 0-.14.14v.48a.12.12 0 0 0 .14.14h5.58a.12.12 0 0 0 .14-.14zm-5.85 2a.12.12 0 0 0 .14.14h5.58a.12.12 0 0 0 .14-.14v-.49a.12.12 0 0 0-.14-.14h-5.58a.12.12 0 0 0-.14.14zm0 1.54a.12.12 0 0 0 .14.14h5.58a.12.12 0 0 0 .14-.14v-.51a.12.12 0 0 0-.14-.14h-5.58a.12.12 0 0 0-.14.14zM84.8 2.19h.12a.82.82 0 0 1 .26 0l.22.1a.47.47 0 0 1 .25.23.42.42 0 0 1 0 .33 7.82 7.82 0 0 1-1.74 2.94.12.12 0 0 0 0 .19 7.51 7.51 0 0 0 1.93 1.07.41.41 0 0 1 .27.3.72.72 0 0 1 0 .14.44.44 0 0 1-.1.27.92.92 0 0 1-.45.34.77.77 0 0 1-.25 0 .85.85 0 0 1-.29-.05A7.87 7.87 0 0 1 83 6.8a.15.15 0 0 0-.21 0 9.06 9.06 0 0 1-1.41.82 1.39 1.39 0 0 1-.46.08 1.26 1.26 0 0 1-.37-.05 1.77 1.77 0 0 1-.72-.49.08.08 0 0 0-.11 0 .5.5 0 0 1-.25.07.48.48 0 0 1-.19 0 .6.6 0 0 1-.34-.27q-.25-.4-.55-.81a.38.38 0 0 1-.08-.23V5.7a.37.37 0 0 1 .22-.26.65.65 0 0 1 .42 0 .69.69 0 0 1 .37.21 7.09 7.09 0 0 1 .75 1.08.17.17 0 0 1 0 .15.17.17 0 0 1-.11.11 7.29 7.29 0 0 0 2-1c.07-.05.08-.12 0-.19a9.22 9.22 0 0 1-1-1.64.6.6 0 0 1 .4-.83h-.62a.54.54 0 0 1-.53-.53.49.49 0 0 1 .16-.37.52.52 0 0 1 .38-.15h4zm-.63 1.18a.07.07 0 0 0 0-.08.09.09 0 0 0-.08 0H82a.08.08 0 0 0-.07 0 .09.09 0 0 0 0 .08A6.48 6.48 0 0 0 82.9 5a.1.1 0 0 0 .18 0 6.88 6.88 0 0 0 1.09-1.64z"/><path class="b" d="M89.47 19.76v-.12.17zm-.32-.31a.48.48 0 0 0-.08.37c.06-.16.07-.09.13-.28 0 0 .08.05.08.11s.07 0 .1-.07-.14-.13-.22 0a.19.19 0 0 1-.01-.13zm-4.67-.26zm-2.9-.09s0-.01 0 0zm-.49-.18s.01-.01 0 0zm3.39.27l-.08-.05c0 .06.04.04.08.05zm4.03.66zm-2.75-.79v-.07zm.97-.06v.1a.56.56 0 0 0 0-.1zm1.56.28zM85.05 19a.24.24 0 0 0-.05 0 .16.16 0 0 0 .05 0zm-27.39 1.09s-.01 0 0 0zm-1.13-.7v-.08zm23.66-.65s.01-.01 0 0zm-8.31.11c.09.13-.15.16 0 .3-.02-.06.12-.22 0-.3zm16.6.98zm-16.61-.68zm6.23-.32a.21.21 0 0 0 0 .06.14.14 0 0 0 0-.06zm1.55.17zm-2.35 0h-.06.06zm-.84 0zm-16.25 1a.56.56 0 0 1 0-.13c-.02.13-.15.13 0 .13zm28.3-.23v.06a.11.11 0 0 0 0-.06zm-11.25.36h-.13zM66.23 20zm10.5.13a.25.25 0 0 0-.08-.1zm-16.56-.24z"/><path class="b" d="M59.3 20.22c.13 0 .06-.18.09-.29s.07.14.12.23.17-.22.24-.21 0 0 0 .08c.1-.15.3 0 .41-.19a1 1 0 0 1 0-.25c.06 0 .11-.12.13 0s0 0-.05.08l.06-.05c.05.17-.08.06-.08.19.12-.06.25-.2.34-.15s-.21.06-.09.21l-.14-.06c.11.27-.08 0 0 .27.18 0 .2-.09.38 0s0-.14 0-.23c.26-.17.2.43.39.2s.07-.33.2-.21v.19c.18 0 .1-.28.28-.15 0 .08-.14.06-.11.09s.08-.11.18-.11v.17c.19 0 .39-.15.6-.18v.16a1.24 1.24 0 0 1 .81.12l.1-.15v.09c0 .02 0-.09.05-.15s.07.08 0 .13c.17-.12.49-.27.68-.11.14.06.16-.3.29-.16.31.06.65-.07.89.15 0-.21.31.09.33-.2.18.15.13.2.37.3.07 0 .1-.18.18-.21V20l.11-.16.06.18h.08a.12.12 0 0 1-.06-.11c.12-.07.29.11.3.19l.28-.13c0 .06-.05.08-.09.12.15-.16 0 .16.17 0v-.12a.32.32 0 0 0 .34.05v.11a6.73 6.73 0 0 0 .68 0c-.08 0-.07-.23 0-.25v.16c0-.1-.07-.06 0-.18s.06.19 0 .24L68 20v.14c0-.1.19.16.25 0 .24 0 .34-.05.54-.06 0-.14.08-.11.14-.22a1.29 1.29 0 0 0 .47.14c.12-.07 0-.12.09-.2 0 .13.18.12.09.21a1.42 1.42 0 0 0 .52-.13c0-.05-.06-.08 0-.12s.11.05.1.12c.29-.19.67.37.9.11l.24-.14c.11 0-.07.1 0 .18.26-.21.41 0 .62-.11.17.38.59 0 .81.21v-.09c.06-.09.07.05.11.07s-.06-.08 0-.13a4.22 4.22 0 0 1 1.51.21c.18 0 .1-.46.33-.25l-.07.17c.37-.2.75 0 1.12-.16 0 0 0 .09-.06.09s.28 0 .28-.09v.14c0 .05.19-.15.23 0s.23 0 .18-.12c.14.07.26-.06.37 0 .07-.15.23.07.25-.14 0 .23.24.18.32.08 0 .07.07.07 0 .17s.19 0 .17-.16c.18.27.36-.22.46.13a4.36 4.36 0 0 1 .82-.26c0 .23-.29 0-.28.26.25-.09.39-.29.64-.23.06 0 0 .1-.06.14.25-.09.48 0 .7-.1v.06c0 .06.1 0 .1-.07-.07-.15.17-.31.18-.39-.07.29.22.07.1.45a.15.15 0 0 0 .06-.14s.06.06 0 .14c.16-.06.1-.16.24-.16s0 .07 0 .13c.07-.1.14-.19.26-.15s0 .07 0 .07c.2 0 .35-.26.57-.16-.07.22.08.07.09.26l.12-.06v-.09c.11 0 .2-.13.29-.07l-.08.08h.2l-.11-.07c.11-.1 0-.24.13-.18 0 0 .11 0 .16.11.05-.06.11-.12.18-.08s0 .21 0 .25c.05-.16.25 0 .31-.21a.31.31 0 0 0 0 .16v-.13s.06.06 0 .14c.15 0 0-.24.13-.13.18.05.34-.08.5 0s-.14 0-.09.2c.23 0 .48-.23.71-.18 0-.27.17.13.28 0s0 .15 0 .12.32-.07.55-.15v.07c.09.06.24 0 .34.07s.08-.06.05-.16c.3.39.58-.21.85.12 0 0-.08.06-.05.06l.23-.06c0-.12 0-.07-.08-.16a.19.19 0 0 1 .15-.12c-.1.08 0 .19 0 .25a1 1 0 0 1 0-.11c.12.21 0-.23.18-.09v.06c.06 0 .12-.11.18-.09s-.07.06-.07.17.18-.25.27-.12-.1 0-.14.07.1.12.17.14l.16.07c.12-.35.24-.06.39-.29-.15.22 0 .13 0 .28s.1.09.08.13c.07-.12.12.1.23-.08 0 0 .08 0 .06.13.1 0 0-.08 0-.15s.35.2.56 0 .22-.26.39-.34c.06.08 0 .18 0 .18a.19.19 0 0 0 .25 0v.13c0 .05 0-.18.14-.11a.85.85 0 0 1-.07.2c.08 0 .16-.14.25-.18s-.05.13-.08.18.25-.08.28-.21h-.06v.14c0 .02-.12 0-.12-.1h.06c-.06-.29-.24 0-.37 0l.05-.21-.13.17v-.2c0-.03-.08.07-.15 0l-.09.06v-.12c-.15-.12-.25.16-.31 0-.21.07 0 .15-.18.33l-.11-.38v.15a.06.06 0 0 1-.06-.08c-.08.1 0 .07 0 .17-.11-.14-.29.07-.32-.18 0 .12.1.09 0 .17 0-.26-.13 0-.23-.08s.12-.06 0-.18c-.06.23-.19 0-.27 0s-.18.08-.31.14-.26-.1-.39-.17c0 .18-.16.15-.25.19a.24.24 0 0 1 .07-.2h-.09a.16.16 0 0 1-.11.11v-.14c-.12 0-.24.16-.4.07 0 .13.12.36 0 .44v-.22c0-.03 0 .06-.08 0l.07-.12c-.07-.05 0 .1-.09.09s0-.07 0-.15 0 0 .07 0a.26.26 0 0 1-.17-.15v.15c0 .02 0-.12-.11-.17s-.11 0-.11.15 0-.07-.06-.11-.29 0-.22.18c-.2.15-.42-.08-.62 0-.12.06-.27 0-.35.14s-.08-.09-.07-.15-.1.09-.24 0c.09-.09 0-.08.09-.06-.12 0-.15-.12-.28 0a.1.1 0 0 0-.15-.12l.08.09a.36.36 0 0 1-.18 0v-.17c-.24-.2-.44.34-.63 0-.06.12.13.08.07.22-.11 0-.23-.26-.27-.26s-.14.24-.31.18c0 .06 0 .22-.08.27s-.14-.25-.07-.3.08 0 0-.11V19c-.06-.06-.21-.05-.17-.15-.08.06 0 .1 0 .13-.14-.09-.23 0-.37-.06v.1c-.22-.07-.1.11-.24.14s0-.22-.12-.14 0-.16 0-.21c-.14.11-.25-.08-.33-.1h.07a.18.18 0 0 1-.11 0v.12s-.08 0-.08-.07 0 .2-.05.3c-.06-.06-.17.06-.19-.09.18.05 0-.16.13-.18a.1.1 0 0 1-.11 0c-.17-.14-.08.18-.25.17 0-.09 0-.17-.07-.15s0 .15 0 .22-.12.05-.18 0h.07c0 .09-.08.08-.16.11s.07 0 0-.08c-.09.16-.2-.16-.32-.06-.06-.06 0-.17-.05-.21-.14.12-.15-.12-.29 0 0 .12 0 .09-.05.21l.23-.08-.15.17c.07 0 .15-.08.19-.05s-.06.07 0 .17c-.1-.18-.19.1-.3 0v-.3c-.17-.13-.3.15-.52.08l.07.05c0 .12-.13 0-.2.06a.31.31 0 0 0-.07-.2c0 .07-.16 0-.18.19l-.1-.13c-.18-.05-.2.28-.37.25.05-.11 0-.18.09-.25h-.11s-.16.13-.21 0 0 .15-.1.14-.1.07 0 .18c-.17-.31-.49 0-.64-.24a2.17 2.17 0 0 1-.38.07c-.15-.09-.09.28-.27.18s.09-.09 0-.15c0-.32-.21 0-.33-.15-.09-.11-.22.12-.37.1a.72.72 0 0 1-.43.27c0-.13.06-.07 0-.2s0 .21-.11.24-.13-.13-.15-.27h.12c-.06-.18-.16 0-.22 0v-.08c-.18 0-.19.22-.38.21v.06c-.11.19-.09-.11-.2 0v-.2a1.68 1.68 0 0 1-.38.23c.07-.15.22-.22.31-.31-.07 0-.24 0-.28.11s.06-.07.09 0a.38.38 0 0 1-.34.23c0-.38-.37-.1-.47-.39-.25.14-.49-.06-.78 0 .1.3-.08 0-.07.31h-.1l-.2-.18c0-.09.06-.07.06-.14s-.06-.13-.16-.21c0 .11-.05.16-.14.11l.12.14c-.21.16-.18-.26-.39-.1l.07-.1c-.11.06-.39 0-.5.24v-.14c-.25 0-.57.26-.77.11v-.07s-.08.14-.14.07 0-.07 0-.08-.13.13-.19.09l.05-.08c-.25-.1-.38.2-.59.26 0-.22-.2-.29-.29-.33-.29 0-.49.18-.76.27-.17-.24-.56-.1-.83-.23 0 0 0 .17-.05.19s-.17.15-.16 0c0-.2-.18-.15-.28-.15v.26c-.26-.38-.69.14-.83-.2-.06.07-.14.07-.21.13v-.14a1.09 1.09 0 0 0-.48 0v-.1c-.12 0-.15.41-.27.42v-.21c-.21 0-.43-.18-.64 0v-.1c0-.01-.39-.14-.35.15 0-.19-.22 0-.34.06v-.14c-.1.18-.1.23-.24.28s0-.11 0-.08c-.11-.07-.08.13-.21.06v-.09c-.11 0-.1 0-.16.14s-.21 0-.23-.16c0 .08-.08.18-.14.14a.1.1 0 0 1 0-.09c-.19-.09-.28.16-.4 0a.15.15 0 0 0 0-.08.87.87 0 0 1 .25 0c0-.13-.12-.15 0-.33-.1.1-.26.31-.37.25a.06.06 0 0 0-.07 0 .21.21 0 0 0-.1 0c0-.11-.14-.06-.2-.06s-.07.12 0 .23 0 0 .05 0h.17c0 .07-.1.13-.16.05l-.08.23c-.08-.2-.24-.3-.26-.42-.18.08-.43.05-.54.32-.05 0-.06-.08-.08-.12S61 19 61 19s-.31 0-.33.21c-.13-.08.07-.17-.11-.14v-.06c-.35-.29-.57.47-1 .09v.06c-.44-.17-.91.16-1.35-.11-.12-.05-.14.06-.21.15v-.15l-.13.17c-.18.13-.32-.37-.55-.13v.1c-.08 0-.27.06-.25-.06s0 .11-.06.05v-.08l-.21.14c-.16-.06 0-.31-.21-.33s-.25.23-.21.28a.13.13 0 0 1 .09.13h-.08c0 .23-.08.47.12.63l.14-.14v.11h-.11c.06.11.11 0 .15-.05a.21.21 0 0 0 .06.12l.13-.22c0 .09-.06.18 0 .23.06-.1-.06-.2 0-.27.06.11 0 .19.12.1a.12.12 0 0 1 0 .12c.07-.07.18 0 .21-.15.07.13.23 0 .22.19 0-.05.12-.17.18-.18-.11.26.23 0 .2.3.08-.24.3-.11.45-.24 0 0 0 .06 0 0s.11.09.16.14c0-.2.14-.24.21-.36.1.19-.06.23 0 .41 0-.16.18-.16.14-.29.08.12.07.06.11.22 0-.24.07 0 .14-.19.11.12 0 .23.15.15s.13.27.13.27zm3-.42zm.25 0h-.15v-.1s.07.06.11.1zm-.53-1h.06-.07a.34.34 0 0 1-.01.02zm-.11.2zm22.6.22z"/><path class="b" d="M65.95 20.07v-.04l-.02.03.02.01zm19.94-.37zm.59.03l.08.05zm.46.07a.44.44 0 0 0 0-.06zm-7.25.2s-.04 0 0 0zm2.15-.36l-.07.07s.07.01.07-.07zm-4.56.5zm4.39-.44a.08.08 0 0 0 .1 0 .11.11 0 0 0-.1 0zm7.24.16zm.03-.01s0-.02 0 0zm.06-.05h-.05s.05.04.05 0zm-.69 0v.05a.17.17 0 0 0 0-.05zm-.18.01s.11.11.17.08c-.03.04-.13-.16-.17-.08zm-.77-.63h.15c0-.05-.06-.13 0-.14-.18-.12.05.17-.15.14zm-.48-.07c.08 0 0-.08 0-.11s-.06.06 0 .11zm-3.44 0V19c-.06 0 .01 0 0 .11zm-.66.66l.06.08.03-.12-.09.04zm-.39-.91l.03-.02-.11.04.08-.02zm-5.78.04v.16s.07-.21 0-.16zm-2.5.16c0-.08-.1-.13-.14-.05s.11.07.14.05zm-7.49-.26l.05-.05-.1.05h.05z"/><path class="c" d="M0 0h146v21H0z"/></svg>