<svg xmlns="http://www.w3.org/2000/svg" viewBox="0 0 43.19 18"><defs><style>.cls-1{fill:none;stroke:#0098f5;stroke-linecap:round;stroke-linejoin:round;stroke-width:.43px}</style></defs><title>txt_nav_02</title><g id="レイヤー_2" data-name="レイヤー 2"><g id="nav"><path class="cls-1" d="M8.69 16s.46-.28.46-.27-.13.89-.12.91 2.78-1.7 2.82-1.63-2.25 1.69-2.21 1.75 2.09-1.28 2.12-1.23-1.1 1.12-1.08 1.15.77-.47.78-.45m-4.22-2.4S9 12.78 9 12.82s-.54 1-.52 1 1.71-1 1.74-1-1 1-1 1 1.71-1 1.73-1-.86 1-.84 1 1.35-.82 1.37-.82-.72 1.29-.7 1.33 1.18-.72 1.2-.69-1.28 1-1.26 1.08S12 14 12 14s-1.46 1.21-1.43 1.25 1.34-.82 1.36-.78"/><path class="cls-1" d="M5.69 14.46c0 .07 2.79-1.71 2.83-1.64S5.67 14.92 5.71 15s1.15-.7 1.16-.67-1.18 1-1.16 1.06 1.14-.7 1.16-.67-1.18 1-1.16 1 1.14-.7 1.16-.67-1.17 1.15-1.15 1.19 1.14-.7 1.16-.67-1.12 1.27-1.1 1.31 1.09-.67 1.1-.64-.65 1-.63 1.07.53-.32.54-.31m-6.36-.68s1.06-.65 1.07-.62-1 .95-1 1 6.57-4 6.67-3.85-6.49 3.87-6.4 4 6.89-4.21 7-4-5.74 3.61-5.66 3.76 2.18-1.33 2.21-1.28M2 11.17s.67-.41.68-.4-1.25 1.6-1.22 1.64 3-1.84 3.06-1.77-3.4 2.79-3.34 2.88 1.43-.88 1.46-.84-1.14 1.39-1.12 1.42 2.2-1.34 2.23-1.29-.23 1-.22 1 1.71-1 1.73-1-.74 1-.72 1.07 2.31-1.41 2.35-1.36m.48-3.13s1.68-1 1.7-1-.33 1-.31 1 1.56-1 1.58-.91-.25 1-.24 1 1-.59 1-.56-1 1.16-.94 1.19 1.14-.7 1.16-.67m-4.08 2.21s1.7-1 1.73-1-.59 1-.57 1 2.88-1.77 2.92-1.65-1.44 1.59-1.42 1.64 1.23-.75 1.25-.72"/><path class="cls-1" d="M3.3 11.64s1.69-1 1.71-1-.82 1-.81 1S6.85 10 6.89 10.09s-1.35 1.53-1.32 1.58 1.72-1.05 1.74-1-1.63 1.26-1.6 1.33S8 10.6 8 10.66s-2.3 1.87-2.26 1.94 1.14-.7 1.15-.67M1.32 8.72s.53-.33.54-.31-.55.67-.54.69 1.18-.72 1.2-.69-.37 1-.36 1 1.67-1 1.69-1-.12 1-.11 1 1.67-1 1.69-1-1.08.94-1.06 1 1.67-1 1.69-1-.63 1-.61 1 1.66-1 1.69-1-1.46 1.13-1.43 1.17 2-1.23 2-1.18-2.06 1.94-2 2 1.14-.7 1.16-.67m3.3-3.02s1.68-1 1.71-1-.16 1-.15 1 .84-.51.85-.49"/><path class="cls-1" d="M8 6.7s1.68-1 1.7-1S8.67 7 8.69 7 10.94 5.66 11 5.72 9 7.47 9 7.53 10 7 10 7s-.59 1-.58 1 .85-.52.86-.5M7.31 5s.57-.35.58-.34S6.62 5.93 6.64 6s1.73-1.08 1.75-1"/><path class="cls-1" d="M4.11 6.71s1.44-.88 1.46-.84-.64.82-.63.84 1-.58 1-.56 0 .54.05.55l.15-.09s-.43.62-.42.64 2.62-1.6 2.66-1.53-2.69 2-2.64 2 3.48-2.13 3.53-2S6.13 7.94 6.18 8s.73-.45.74-.43"/><path class="cls-1" d="M2.4 6.73s1.71-1 1.74-1-1.54 1.16-1.51 1.2 2.07-1.26 2.1-1.21-1.94 1.58-1.9 1.64 1-.6 1-.58S3.24 8 3.26 8s.81-.49.82-.47M1.75 5s.58-.36.59-.34S1 6.23 1 6.28 2.84 5.15 2.86 5.2.28 7.09.32 7.16s2.45-1.5 2.48-1.43S.26 7.89.3 8s1.51-1 1.53-.92-1.2 1-1.18 1 .73-.45.74-.43m5.96 1.83l.15-.08s1.5.05 1.5.08l.14-.08s.75.07.76.08l.1-.06v.61h.08s-.09.41-.08.42h.08m-3.2-.8L7 9.59s-.09.85-.08.87H7l.4.24.17-.1s.67.08.68.09l.16-.09s.74.07.75.09l.15-.09.5.08.15-.09m-6.69 1.15l.14-.08s1 .06 1 .08l.16-.09s.57.08.58.09l.17-.1.26.21h.06s-.07.73-.06.75h.08m-2.91-.67l.11-.06s-.25.67-.24.68l.14-.08.08.33.17-.1s1.34.07 1.36.1l.16-.09s.84.07.85.09l.15-.09"/><path class="cls-1" d="M2 8.39l.15-.08s.55.07.56.08l.15-.08.43.08.15-.08s1.14.06 1.16.08l.14-.08s.66.07.67.08l.14-.08s.63.07.64.08l.14-.08.47.08.14-.08s.6.07.61.08l.14-.08s.84.06.85.08l.14-.08s1 .06 1 .08l.14-.08s.7.18.71.2l.18-.11.47.65.08-.05s.06.74.07.75h.08s-.09.43-.08.44h.08s-.35 1-.34 1.07l.23-.13"/><path class="cls-1" d="M7.25 11.74l.15-.09s1.43.05 1.45.08l.15-.08s1.34 0 1.36.05.78-.48.79-.46m-4.27.65l.1-.06s-.06.8-.05.81h.06s1.19.17 1.21.2l.16-.09s.69.07.7.09l.15-.09s1.35.05 1.37.08l.14-.08.47.17.17-.1.49.52h.07L12 14l.09-.05S11.85 15 11.86 15H12s-.32.82-.31.84l.13-.08s-.34.52-.33.53l.15-.09m-3.04-.26h.08s.07.59.07.6h.07s.74.4.75.42l.14-.08s.52.05.52.06l.15-.09m-1.3-1.15l.14-.08s.75 0 .76.06l.24-.14"/><path class="cls-1" d="M7.25 13.91l.15-.09.48.09.12-.08s1.15.06 1.16.09l.15-.09s1.15.06 1.17.09l.14-.08v.83h.08s-.26.69-.25.71h.08m-3.65-1.32L7 14s-.1.91-.09.93l.09-.04s-.1.75-.09.76L7 15.6s-.09.67-.09.68l.09-.05s-.09.41-.08.42H7m-1.38-2.04h.08s-.09.77-.08.79h.08s-.09.7-.08.71h.08s-.09.54-.08.55h.08v.55h.07l.45.43.29-.17M4.84 15s.64-.39.64-.37M.35 16.25l.1-.06v.48h.07l.34.33h.08s1.25-.31 1.27-.28S3.32 16 3.33 16m-1.85-.31s.56-.34.56-.33m-.13-4.26l.15-.1s-.69 1.2-.68 1.23l.1-.06s-.26.61-.25.63l.1-.06s-.29.78-.28.8h.08l.21.6h.07s1.41-.17 1.43-.14l.18-.1s.74.07.75.09l.16-.09s.56.07.57.09m-1.82-3.24s.32-.2.33-.19 1.06.06 1.07.08l.15-.08s.6.07.61.08l.16-.08M1.25 8.65l.1-.06s-.09.59-.08.61h.07l.23.26h.08l.46.11.15-.09s.65.07.66.08l.15-.09s1 .07 1 .09l.16-.09s1.36.15 1.37.18 0 .45 0 .46h.08s-.09.44-.08.45h.08m-3.24-5.9h.08l.24.28h.07v.33l.09-.05.53.6.15-.09s1 .06 1 .08l.15-.09.44.08h.08l.62.51h.08s.09.44.09.45l.11-.06m1.1-1.79l.21-.12S6.31 6.33 6.33 6.37l.13-.07m1.43-1.65L8 4.58l.41.56h.08l.51.6.15-.09s1 .06 1 .09l.15-.09s.57.07.57.08l.13-.08s1.36.15 1.38.18l.09-.05s.07.58.08.6l.11-.06m-2.53.45l.14-.08s1 .06 1 .08l.14-.08s.55.07.56.08l.2-.12m-2.28.21h.07l.18.42h.07v.59l.13-.07M8 6.78l.15-.09.37.17h.08l.3.6h.07l.4.54h.07l.28.19.2-.12M7.41 7l.19-.11s-.71.71-.69.73l.2-.12m-3-.73l.14-.08s1.16.05 1.17.08l.14-.08v.66l.1-.06v.63h.07l.39.21.23-.13M3.82 6.85h.06l.12.49h.07s-.07.4-.07.41l.11-.07m-1.7-.88h.07l.17.38h.08s.13.49.14.51h.07l.12.33h.06l.34.32.18-.1M1.84 7L2 6.95s-.6.66-.59.68l.18-.1m.13-2.61l.21-.12s-1 1.39-1 1.42l.14-.08s-.83.94-.81 1L.45 7s-.25.91-.24.93h.07l.38.29.12-.07m31.47 5.54s1.53-.93 1.55-.89-.58.87-.57.89 1.13-.69 1.14-.69-.65.74-.64.76.83-.51.84-.48-.79.8-.77.83.89-.54.9-.52-.91 1-.9 1 1-.61 1-.58-1 1.22-1 1.25 1-.61 1-.58-1.93 2-1.9 2.06 1.84-1.12 1.87-1.08-1.13 1-1.11 1.07.88-.54.89-.51"/><path class="cls-1" d="M31 13.25s.84-.51.85-.49-1.1 1-1.08 1 1.79-1.1 1.82-1.05-1.89 1.37-1.86 1.42 2.43-1.48 2.46-1.42-2.5 2.25-2.46 2.33 1-.61 1-.58-1 1.22-1 1.25 1-.61 1-.59-1 .89-1 .92 1-.61 1-.59-1 1.39-1 1.43 1.9-1.16 1.93-1.11-1.55 1.45-1.52 1.5.48-.29.49-.28m-.8-5.9s.52-.32.53-.3 0 .93 0 1 1.63-1 1.65-1 0 .93 0 1 1.5-.92 1.52-.88-.3.86-.29.88.51-.31.52-.3m-3.93-2.3s.52-.32.53-.31-.22.9-.21.92 1.57-1 1.59-.92-.09.93-.08 1 1.63-1 1.65-1-.54.93-.53 1 1-.59 1-.57m3.07 3.76c0 .05 2-1.22 2-1.17S39 13 39 13.06 40.81 12 40.84 12s-.36 1-.34 1.06 1.35-.83 1.37-.79-.75.92-.74.94 1-.59 1-.57-1 1.15-1 1.18 1.16-.71 1.18-.68-1.2 1.28-1.17 1.32 1.16-.71 1.17-.68S41.12 15 41.14 15s1.15-.7 1.17-.68-1.19 1-1.17 1 1.15-.7 1.17-.67m-4.66 2.03s1.84-1.12 1.87-1.08-1 1-1 1.07 1.84-1.12 1.86-1.08-.45 1-.44 1.07 2.3-1.41 2.33-1.35-1.68 1.3-1.65 1.34 1.63-1 1.65-1-1 1.37-1 1.41 1-.62 1-.59-.7.72-.69.75.58-.35.59-.34"/><path class="cls-1" d="M36.46 12.5s.79-.48.8-.46-1 .92-1 1 1.7-1 1.73-1-1.82 1.75-1.79 1.8 3.56-2.18 3.61-2.09-3.67 2.9-3.61 3 1.14-.75 1.16-.75-1.17 1-1.15 1 1.13-.69 1.15-.66-1.17 1.25-1.15 1.28 1.14-.7 1.15-.67-1.17 1-1.15 1 1.14-.7 1.16-.67-1.15 1.44-1.12 1.48 2.13-1.3 2.16-1.25-1.95 1.57-1.92 1.63.92-.56.94-.54m2.74-6.83s1.93-1.18 2-1.13-.4 1.09-.39 1.12 1.15-.7 1.17-.67"/><path class="cls-1" d="M35.53 9s.56-.34.57-.33-.42 1-.41 1 1.71-1 1.74-1-.79 1.1-.77 1.12 3.11-1.9 3.16-1.82-2 1.76-2 1.82 2.06-1.26 2.09-1.21-1.38 1.42-1.35 1.49 2.44-1.5 2.49-1.43-2.53 2-2.49 2 1.21-.74 1.23-.71-1.25 1.46-1.22 1.5 1.22-.74 1.23-.71m.48-4.45s1.68-1 1.71-1-.48.71-.47.73.6-.37.61-.35"/><path class="cls-1" d="M36 6.05s.57-.35.58-.34-.47.72-.46.74 1.5-.92 1.52-.88-1 1.14-1 1.18 2.31-1.41 2.34-1.35-1.51 1.21-1.49 1.26S39.94 5.13 40 5.2s-1.53 1.34-1.5 1.38S41.22 4.9 41.27 5s-2.74 2-2.7 2.11 3.25-2 3.3-1.9-3.35 2.4-3.29 2.49 1.2-.7 1.22-.7-1.25 1.38-1.22 1.42 1.21-.74 1.23-.71m-9.64-.46s.52-.32.53-.3-.55.63-.54.65 1.11-.68 1.13-.65-.75.94-.74 1 1.65-1 1.67-1-.11 1-.1 1 1.68-1 1.7-1-.47 1-.46 1S34.92 7 34.94 7s-.31.89-.3.91.53-.33.54-.31m-4.27-2.24s.52-.32.53-.3-.16.94-.14.94 1.6-1 1.63-.94-.81.93-.8 1 1.63-1 1.65-1-.29.93-.28 1 1.17-.72 1.19-.69-.51.67-.5.69.51-.31.52-.3m3.12 7.4l.15-.09s1 .06 1 .08l.16-.09s.58.08.58.09l.16-.09.46.09.17-.1.5.43h.09L41 14h.09s-.09.6-.08.61h.09s-.09.77-.08.79l.09-.05m-3.76-2.02l.1-.06s-.1.59-.09.6l.09-.05s-.1.42-.09.43l.09-.05s-.1.91-.08.93l.09-.05s.67.51.68.53l.16-.1s1.2.06 1.21.09l.16-.09s.64.07.65.09l.15-.09m-8.23-1.72l.15-.09s.55.07.55.09l.16-.09.42.09.1-.06s.08.68.09.7h.09s-.09.51-.08.52h.08s-.09.49-.08.5h.08M31.76 14l.1-.06s-.1 1-.09 1l.09-.05v.92s.91.07.92.09l.16-.09.45.08.15-.09"/><path class="cls-1" d="M32 12.74l.15-.08s1.2.05 1.21.08l.14-.08s.9.35.91.37l.1-.06.13.42.13-.08s.06.81.07.83h.08s-.09.47-.08.48h.08s-.09.83-.08.85h.08s-.35.89-.34.91l.23-.13"/><path class="cls-1" d="M32.08 16.87l.2-.11s.95.07 1 .09l.16-.09h.53c.01 0 .7-.43.71-.41m-2.93.58s.3-.18.31-.18m-1.14-3.6s.8-.49.81-.47-1 .93-1 1l.17-.1s-.23.87-.22.89h.08s-.09.79-.08.81h.08s-.09.85-.08.87h.08s-.09.77-.08.79h.09s0 .45.05.46h.07l.18.23.09-.05m.31-6.78l.15-.08s1.36.05 1.38.08l.15-.08s1.08.06 1.09.08l.11-.07.38.41h.07M30.78 11l.1-.05s0 .69.05.71l.09-.05s.86.15.87.16l.15-.08s.72.07.73.08l.15-.08s.83.06.84.08l.15-.08m-2.48-2.8l.14-.08s.89.06.9.08l.14-.08s.92.06.93.08l.14-.08.5.08.13-.07.45.51h.07m-4.05-.19l.1-.06s-.1.51-.09.52h.07l.39.35.14-.08s1.4.05 1.41.08l.2-.13s1.3.05 1.31.08.37-.23.37-.22m1.97-4l.18-.11s2-.22 2-.18l.21-.12s1.17-.18 1.18-.15l.23-.12s1.21 0 1.22.06h.08l.32.34h.07v.36l.1-.06m-1.94.67l.26-.15s1-.14 1-.11l.23-.11m-1.97.56l.11-.06s-.13.75-.12.77l.09-.05s-.09.48-.09.49l.09-.05s-.09.55-.08.56h.09s.76.45.77.47l.16-.09.46.09.16-.09s.57.07.58.09l.15-.09s.59.22.6.24h.07v.69l.14-.17m-2.83.49l.15-.09s.82.07.83.08l.15-.09s.52.07.53.08l.17-.07m-2.2.24l.1-.06s-.1.46-.09.48l.09-.05s-.1.39-.09.4l.09-.05s-.1.93-.08 1h.09l.51.38.16-.09L41 12l.14-.08s.81.37.82.39h.08s.24.77.25.79l.09-.05s-.07.59-.06.6h.09s-.09.79-.08.81h.09s-.09.43-.08.44h.09s-.09.69-.08.71h.09s-.09.46-.08.47h.09s-.09.73-.08.74h.09s-.19.47-.18.48l.1-.06m-4.71-.44l.2-.12s1.43.07 1.45.1l.18-.11s1.47.06 1.49.1h.06l.37.56h.08m-4.15-.47s.3-.18.31-.18m-1.29-4.28s.79-.48.8-.46-1.09 1.24-1.06 1.27h.08s-.09.89-.08.91h.08s-.09.55-.08.57h.08s-.09.65-.08.66h.08s-.09.67-.08.69h.08s-.09.59-.08.6h.09s-.06.5-.05.51h.06l.42.56.09-.05m.61-5.66l.15-.08s.68.07.69.08l.15-.09M35.46 8.9l.11-.06s-.18.47-.18.48h.07l.42.52h.08s1.4.07 1.42.1l.15-.08.49.08.14-.08.31.44h.09s-.09.39-.09.4l.09-.05s-.1.87-.09.88l.09-.05s-.1.4-.09.41l.1-.06m-2.46-3.21l.15-.08s1.39.05 1.41.08l.15-.09M35.87 6h.08s.13.66.14.68h.07s.77.21.78.23l.17-.1s1.18-.06 1.19 0l.16-.09v.78l.13-.07s-.11.65-.1.66l.11-.06s-.1.46-.1.47l.1-.06M30.81 7l.19-.13s.91.06.93.08l.07-.08s1 .06 1 .13l.15-.08s.76.07.77.08l.08-.13s1.09.3 1.11.33h.07s-.05.44 0 .45l.11-.06m-5.16-.39l.1-.05s-.1.52-.09.53h.07l.4.36.14-.08s.54.07.54.08l.15-.08s.74.07.75.08l.15-.08s.86.06.87.08l.15-.08s.86.06.87.08l.15-.08m-2.87-2.89l.15-.07.45.08.13-.08s.76 0 .76.06l.18-.06s1.3.13 1.32.16h.09s.11.59.11.61l.11-.06m-3.95-.4l.14-.05s.17.73.18.75h.09s.64.11.65.12L32 6s1.22.06 1.23.08l.16-.08s.84.06.85.08.34-.21.35-.2M16.33 2s1.21-.74 1.23-.71S16 3 16 3.08 20.46.35 20.52.46s-4.63 3-4.56 3.13S21.48.22 21.56.36s-5.72 3.9-5.63 4S22.89.14 23 .32s-7.22 4.84-7.12 5S24.15.29 24.27.5s-8.54 5.21-8.41 5.43 8.84-5.4 9-5.18-9.06 5.3-8.93 5.53S25.06.68 25.19.92s-8.82 5.37-8.69 5.6S25.59 1 25.72 1.19 20 4.63 20.11 4.77s5.76-3.52 5.84-3.37-4.63 3-4.56 3.16 4.84-3 4.92-2.84-4 2.91-4 3 4.37-2.67 4.43-2.56-4 3.11-3.89 3.22 4.23-2.58 4.29-2.48-4.43 3.23-4.36 3.35 4.6-2.81 4.67-2.69-4.88 3-4.81 3.14 4.79-2.93 4.86-2.81-5.21 3.17-5.14 3.31 5.11-3.12 5.19-3-6.16 4.23-6.06 4.39S27.62 4.88 27.71 5s-7.58 5-7.47 5.19S27.52 5.78 27.62 6s-9.14 5.75-9 6 8.65-5.29 8.78-5.07-9.85 5.72-9.71 6 9.42-5.76 9.56-5.52-12 7.26-11.83 7.56 11.19-6.92 11.35-6.63-11.5 7-11.33 7.24S26 9.13 26.15 9.4s-10.74 6.22-10.58 6.49S25.62 9.74 25.77 10s-10 6.34-9.83 6.6 8.53-5.21 8.66-5-8.36 5.34-8.23 5.55 6.85-4.19 7-4-6.7 4.18-6.6 4.36 6.48-4 6.57-3.79-5.94 3.84-5.85 4 6.94-4.24 7-4.07-5.49 3.94-5.4 4.09 7.19-4.39 7.3-4.21-6.24 4.05-6.15 4.21 7.12-4.35 7.22-4.17-5.69 4-5.61 4.17 6-3.64 6-3.49-4.64 3.37-4.56 3.49 4.42-2.7 4.48-2.59-3.58 2.49-3.52 2.59 3.39-2.07 3.44-2-1.83 1.93-1.79 2 1.62-1 1.64-.95-1 .87-1 .9.7-.43.71-.41"/><path class="cls-1" d="M17.87 1.21s.38-.23.39-.22.88-.2.89-.18l.25-.14s1.29-.24 1.31-.22l.17-.1s1.71-.11 1.73-.07l.11-.06s.88.18.9.2l.11-.06s1 .33 1 .35h.07l.4.25h.07l.58.4h.06l.26.32h.06l.51.56h.05l.25.55h.06l.32.75h.06v.41h.07v.79h.07v.35h.07s-.05.55 0 .56h.08s-.13.57-.12.58h.09s-.17.44-.17.45l.1-.05s-.42 1.07-.41 1.09l.11-.06s-.55 1-.53 1l.16-.52s-.61.86-.59.88l.14-.08S25.7 10 25.71 10l.16-.09s-1.27 1.53-1.24 1.58l.19-.11s-1.2 1.26-1.18 1.29l.2-.12s-.41 1.09-.4 1.11l.17-.1h.64l.17-.1h.77l.16-.09s1.6-.06 1.62 0l.13-.08.59.39.09-.05s.09.58.09.6h.08s-.22 1-.21 1l.09-.05s-.21.83-.2.85l.09-.05s-.45 1.15-.44 1.18l.2-.12"/><path class="cls-1" d="M16.32 2s.5-.3.51-.29S15.9 3 15.92 3H16s-.11.54-.11.56h.09s-.13.85-.12.86l.09-.05s-.14 1-.13 1l.09-.05s-.12.62-.12.64l.09-.05v.4h.05l.29.42.22-.13c0 .08 3.18-1.61 3.23-1.53l.23-.13s1.22-.21 1.24-.18l.16-.09s.93.17.94.19l.1-.06.52.67h.08s-.14.88-.13.9l.1-.06s-.24.49-.24.5l.12-.07s-.41.56-.4.57l.15-.08s-1 1.44-1 1.48l.19-.11s-1.49 1.68-1.46 1.73l.23-.14c0 .06-1.89 1.8-1.86 1.86l.3-.17s-1.24 1-1.22 1.07l.28-.16c0 .07-2.61 2.14-2.57 2.22l.19-.11s-.2.79-.19.81l.09-.05v.37h.07l.31.75h.07l.34.6h.07l.27.39h.07s.59.25.59.27l.09-.05s1.44.1 1.46.13l.14-.42s1 .06 1 .08l.14-.08s1.46 0 1.48.08l.14-.08s1.33.05 1.34.08l.14-.08s.8.06.81.08l.14-.08s1.49.05 1.51.08l.14-.08h.86c.01 0 .72-.44.73-.42"/></g></g></svg>