<svg xmlns="http://www.w3.org/2000/svg" viewBox="0 0 49.43 18.5"><defs><style>.cls-1{fill:none;stroke:#0098f5;stroke-linecap:round;stroke-linejoin:round;stroke-width:.43px}</style></defs><title>txt_nav_10</title><g id="レイヤー_2" data-name="レイヤー 2"><g id="nav"><path class="cls-1" d="M8.69 16s.46-.28.46-.27-.13.89-.12.91 2.78-1.7 2.82-1.63-2.24 1.7-2.21 1.76 2.09-1.28 2.12-1.23-1.1 1.12-1.08 1.15.77-.47.78-.45m-4.22-2.4S9 12.79 9 12.83s-.54 1-.52 1 1.71-1 1.74-1-1 1-1 1 1.71-1 1.73-1-.86 1-.84 1 1.35-.83 1.37-.83-.72 1.29-.7 1.33 1.18-.72 1.2-.69-1.28 1-1.26 1.08S12 14 12 14s-1.46 1.21-1.43 1.25 1.34-.82 1.36-.78"/><path class="cls-1" d="M5.69 14.47c0 .07 2.79-1.71 2.83-1.64S5.67 14.94 5.71 15s1.15-.7 1.16-.67-1.18 1-1.16 1.06 1.14-.7 1.16-.67-1.18 1-1.16 1 1.14-.7 1.16-.67-1.18 1.1-1.16 1.13 1.14-.7 1.16-.67-1.12 1.27-1.1 1.31 1.09-.67 1.1-.64-.65 1-.63 1.07.53-.32.54-.31m-6.35-.61s1.06-.65 1.07-.62-1 .95-1 1 6.57-4 6.67-3.85-6.49 3.87-6.4 4 6.89-4.21 7-4-5.74 3.61-5.66 3.76 2.18-1.33 2.21-1.28M2 11.19s.67-.41.68-.4-1.25 1.6-1.22 1.64 3-1.84 3.06-1.77-3.4 2.79-3.34 2.88 1.43-.88 1.46-.84-1.14 1.38-1.12 1.42 2.2-1.34 2.23-1.29-.23 1-.22 1 1.71-1 1.73-1-.74 1-.72 1.07 2.31-1.41 2.35-1.36m.48-3.14s1.68-1 1.7-1-.33 1-.31 1 1.56-1 1.58-.91-.25 1-.24 1 1-.59 1-.56-1 1.16-.94 1.19 1.14-.7 1.16-.67m-4.08 2.22s1.7-1 1.73-1-.59 1-.57 1S11.28 9.9 11.32 10s-1.44 1.6-1.42 1.65 1.23-.75 1.25-.72"/><path class="cls-1" d="M3.3 11.66s1.69-1 1.71-1-.82 1-.81 1S6.85 10 6.89 10.1s-1.35 1.53-1.32 1.58 1.72-1.05 1.74-1-1.63 1.26-1.6 1.32S8 10.62 8 10.67s-2.3 1.87-2.26 1.94 1.14-.7 1.15-.67M1.32 8.73s.53-.33.54-.31-.55.67-.54.69 1.18-.72 1.2-.69-.37 1-.36 1 1.67-1 1.69-1-.12 1-.11 1 1.67-1 1.69-1-1.08.94-1.06 1 1.67-1 1.69-1-.63 1-.61 1 1.66-1 1.69-1S5.68 9.56 5.71 9.6s2-1.23 2-1.18-2.06 1.94-2 2 1.14-.7 1.16-.67m3.3-3.03s1.68-1 1.71-1-.16 1-.15 1 .84-.51.85-.49"/><path class="cls-1" d="M8 6.72s1.68-1 1.7-1-1 1.28-1 1.32 2.24-1.36 2.3-1.3-2 1.75-2 1.81S10 7 10 7s-.59 1-.58 1 .85-.52.86-.5M7.31 5s.57-.35.58-.34S6.62 5.95 6.64 6s1.73-1.07 1.75-1"/><path class="cls-1" d="M4.11 6.72s1.44-.88 1.46-.84-.64.82-.63.84 1-.58 1-.56 0 .54.05.55l.15-.09s-.43.62-.42.64 2.62-1.6 2.66-1.53-2.69 2-2.64 2 3.48-2.13 3.53-2S6.13 8 6.18 8s.73-.45.74-.43"/><path class="cls-1" d="M2.4 6.74s1.71-1 1.74-1-1.53 1.17-1.51 1.21 2.07-1.27 2.1-1.21-1.94 1.58-1.9 1.63 1-.6 1-.58S3.25 8 3.26 8s.81-.49.82-.47M1.75 5s.58-.36.59-.34S1 6.24 1 6.29s1.84-1.12 1.86-1.08S.28 7.1.32 7.17s2.45-1.5 2.48-1.43S.26 7.91.3 8s1.51-.92 1.53-.89-1.2 1-1.18 1 .73-.45.74-.43M7.35 9.5l.15-.09S9 9.46 9 9.5l.15-.08s.75.07.75.08l.1-.07v.61h.08s-.09.41-.08.42h.08m-3.19-.84L7 9.56s-.11.86-.1.88h.09l.35.27.14-.08s.69.07.7.08l.15-.08s.75.07.76.08l.15-.09s.56.07.57.08l.15-.09m-6.69 1.14l.14-.08s1 .06 1 .08l.14-.08s.59.07.6.08l.14-.08.28.19h.07s-.08.74-.07.76h.08m-2.9-.67l.11-.06s-.25.67-.24.68l.14-.08.09.33.17-.1s1.34.07 1.36.1l.16-.09s.84.07.85.09l.15-.09"/><path class="cls-1" d="M2 8.41l.15-.08s.55.07.56.08l.15-.08.43.08.15-.08s1.14.06 1.16.08l.14-.08s.66.07.67.08l.14-.08s.63.07.64.08l.14-.08.47.08.14-.08s.6.07.61.08l.14-.08s.84.06.85.08l.14-.08s1 .06 1 .08l.14-.08s.7.18.71.2l.18-.11.47.65.08-.07s.06.74.07.75h.08s-.09.43-.08.44h.08s-.35 1-.34 1.07l.23-.13"/><path class="cls-1" d="M7.25 11.76l.15-.09s1.43.05 1.45.08l.15-.08s1.34 0 1.36.05.78-.48.8-.46m-4.27.61l.11-.06s-.12.82-.1.84h.08s1.16.19 1.18.22l.14-.08s.7.07.71.08l.14-.08s1.35.05 1.37.08l.14-.08.49.15.16-.09.51.51h.07L12 14h.09s-.22 1-.21 1H12s-.29.8-.28.82l.1-.06s-.33.54-.32.55l.13-.07M8.6 16h.08s.07.59.07.6h.07s.74.4.75.42l.14-.08s.52.05.52.06l.15-.09m-1.3-1.19l.14-.08s.75 0 .76.06l.24-.14"/><path class="cls-1" d="M7.25 13.93l.15-.09.48.09.12-.09s1.15.06 1.16.09l.15-.09s1.15.06 1.16.09l.14-.08v.83h.08s-.26.7-.25.71h.09M6.89 14H7s-.12.92-.11.94h.08s-.09.74-.08.76h.08s-.09.66-.08.68h.08s-.09.41-.08.42h.08s-.18.2-.17.2h.1m-1.28-2.37h.08s-.09.77-.08.79h.08s-.09.7-.08.71h.08s-.09.54-.08.55h.08v.55h.07l.45.43.29-.17M4.84 15s.64-.39.65-.37M.35 16.27l.11-.06v.48h.07l.32.31h.08s1.25-.31 1.26-.28S3.31 16 3.33 16m-1.84-.3s.55-.34.56-.32m-.14-4.27l.15-.11s-.69 1.2-.68 1.23l.1-.06s-.26.61-.25.63l.1-.06s-.29.78-.28.8h.08l.21.6h.07s1.41-.17 1.43-.14l.18-.1s.74.07.75.09l.16-.09s.56.07.57.09m-1.82-3.23s.32-.2.33-.19 1.06.06 1.07.08l.15-.08s.6.07.61.08l.16-.08M1.25 8.66l.1-.06s-.09.59-.08.61h.07l.23.26h.08l.46.11.15-.09s.65.07.66.08l.15-.09s1 .07 1 .09l.16-.09s1.36.15 1.37.18 0 .45 0 .46h.08s-.09.44-.08.45h.08M2.44 4.68h.08l.24.28h.07v.33l.09-.05.53.6.15-.09s1 .06 1 .08l.15-.09.44.08h.08l.61.51h.09s.08.44.09.45l.11-.06m1.1-1.8l.21-.12S6.31 6.34 6.33 6.39l.13-.08m1.43-1.65L8 4.59l.41.56h.08l.51.61.15-.09s1 .06 1 .09l.15-.09s.57.07.57.08l.13-.08s1.36.15 1.38.18l.09-.05s.07.58.08.6l.11-.06m-2.52.45l.14-.08s1 .06 1 .08l.14-.08s.55.07.56.08l.2-.12m-2.29.21h.07l.18.42h.07v.59l.13-.07M8 6.79l.15-.09.37.17h.08l.3.6h.07l.4.53h.07l.28.19.2-.12M7.41 7l.19-.11s-.71.71-.69.73l.2-.12m-2.99-.71l.14-.08s1.16.06 1.17.08l.14-.08v.67l.11-.06v.63h.07l.39.2.23-.15M3.82 6.87h.07s.15.52.16.53h.07S4 7.75 4 7.76l.11-.07m-1.7-.88h.07l.17.38h.08s.13.49.14.51h.07l.12.33h.06l.33.32.18-.1M1.84 7.07L2 7s-.6.66-.59.68l.18-.1m.13-2.64l.21-.12s-1 1.39-1 1.42l.14-.08s-.83.94-.81 1L.46 7S.2 7.93.21 8h.07l.38.29.11-.07m37.71 5.49s1.52-.93 1.52-.9-.58.87-.57.89 1.16-.7 1.18-.7-.65.74-.64.76.83-.51.84-.48-.79.8-.77.83.89-.54.9-.52-.91 1-.9 1 1-.61 1-.58-1 1.22-1 1.25 1-.61 1-.58-1.93 2-1.9 2.06S41 15.63 41 15.68s-1.13 1-1.11 1.07.88-.54.89-.51"/><path class="cls-1" d="M37.26 13.26s.84-.51.85-.49-1.1 1-1.08 1 1.79-1.1 1.82-1.05S37 14.14 37 14.19s2.43-1.48 2.46-1.42S36.95 15 37 15.09s1-.61 1-.58-1 1.22-1 1.25 1-.61 1-.59-1 .89-1 .92 1-.61 1-.59-1 1.39-1 1.43 1.9-1.16 1.93-1.11-1.55 1.46-1.52 1.5.48-.29.49-.28m-.83-5.94s.52-.32.53-.3 0 .93 0 1 1.63-1 1.65-1 0 .93 0 1 1.5-.92 1.52-.88-.3.86-.29.88.51-.31.52-.3m-3.93-2.3s.52-.32.53-.31-.22.9-.21.92S39 8.86 39 8.9s-.09.93-.08 1 1.63-1 1.65-1-.54.93-.53 1 1-.59 1-.57m3.05 3.75c0 .05 2-1.22 2-1.17s-.89 1.13-.88 1.16S47.05 12 47.08 12s-.36 1-.34 1.06 1.35-.83 1.37-.79-.75.92-.74.94 1-.59 1-.57-1 1.15-1 1.18 1.16-.71 1.18-.68-1.2 1.28-1.17 1.32 1.16-.71 1.17-.68S47.36 15 47.38 15s1.15-.7 1.17-.68-1.19 1-1.17 1 1.15-.7 1.17-.67m-4.66 2.05s1.84-1.12 1.87-1.08-1 1-1 1.07 1.84-1.12 1.86-1.08-.45 1-.44 1.07 2.3-1.41 2.33-1.35-1.68 1.3-1.65 1.34 1.63-1 1.65-1-1 1.37-1 1.41 1-.62 1-.59-.7.72-.69.75.58-.35.59-.34"/><path class="cls-1" d="M42.7 12.51s.79-.48.8-.46-1 .92-1 1 1.7-1 1.73-1-1.82 1.75-1.79 1.8 3.56-2.18 3.61-2.09-3.67 2.9-3.61 3 1.13-.69 1.15-.66-1.17 1-1.15 1 1.13-.69 1.15-.66-1.17 1.25-1.15 1.28S43.59 15 43.6 15s-1.17 1-1.15 1 1.14-.7 1.16-.67-1.15 1.44-1.12 1.48 2.13-1.3 2.16-1.25-1.95 1.57-1.92 1.63.92-.56.94-.54m2.73-6.87s1.93-1.18 2-1.13-.4 1.09-.4 1.12 1.15-.7 1.17-.67"/><path class="cls-1" d="M41.77 9s.56-.34.57-.33-.42 1-.41 1 1.71-1 1.74-1-.79 1.1-.77 1.12S46 7.87 46 7.95s-2 1.76-2 1.82 2.06-1.26 2.09-1.21-1.32 1.44-1.29 1.53 2.46-1.5 2.49-1.44-2.53 2-2.49 2S46 9.95 46 10s-1.25 1.46-1.22 1.5 1.22-.76 1.22-.73m.52-4.49s1.68-1 1.71-1-.48.71-.47.72.6-.37.61-.35"/><path class="cls-1" d="M42.2 6.07s.57-.35.58-.34-.47.72-.46.74 1.5-.92 1.52-.88-1 1.14-1 1.18 2.31-1.41 2.34-1.35-1.51 1.21-1.49 1.26 2.5-1.53 2.54-1.47-1.53 1.34-1.5 1.38S47.46 4.91 47.5 5s-2.73 2-2.69 2.12 3.25-2 3.3-1.9-3.35 2.4-3.29 2.49S46 7 46 7s-1.25 1.38-1.22 1.42S46 7.68 46 7.71m-9.59-.45s.52-.32.53-.3-.55.63-.54.65 1.11-.68 1.13-.65-.75.94-.74 1 1.65-1 1.67-1-.11 1-.1 1 1.68-1 1.7-1-.47 1-.46 1S41.16 7 41.18 7s-.31.89-.3.91.53-.33.54-.31m-4.27-2.23s.52-.32.53-.3-.16.92-.15.94 1.6-1 1.63-.94-.81.93-.8 1S40 5 40 5.07s-.29.93-.28 1 1.17-.72 1.19-.69-.51.67-.5.69.51-.31.52-.3m3.13 7.41l.15-.09s1 .06 1 .08l.16-.09s.58.08.58.09l.16-.09.46.09.17-.1.5.43h.09s-.09.51-.08.52h.09s-.09.6-.08.61h.08s-.09.77-.08.79h.08m-3.75-2.08l.1-.06s-.1.59-.09.6l.09-.05s-.1.42-.09.43l.09-.05s-.1.91-.08.93l.09-.05s.67.51.68.53l.16-.1s1.2.06 1.21.09l.16-.09s.64.07.65.09l.15-.09m-8.24-1.71l.15-.09s.55.07.56.08l.15-.08.44.08.13-.07s.05.7.06.72h.09s-.09.51-.08.52h.09s-.09.49-.08.5h.09M38 13.93l.1-.06s-.11 1-.1 1h.09v1l.09-.05s.88.09.9.11l.15-.08s.51.07.51.08l.15-.09"/><path class="cls-1" d="M38.22 12.75l.15-.08s1.2.05 1.22.08l.14-.08s.9.35.91.37l.1-.06.13.42.13-.08s.06.81.07.83h.08s-.09.47-.08.48h.08s-.09.83-.08.85h.08s-.35.89-.34.91l.23-.13m-2.72.62l.2-.11s.95.07 1 .09l.16-.09m-1.68.18l.3-.18m-1.14-3.6s.79-.48.8-.46-1 .93-1 1l.17-.1s-.23.87-.22.89h.08s-.09.79-.08.81h.08s-.09.85-.08.87L37 16s-.09.77-.08.79h.09s0 .45.05.46h.07l.18.23.09-.05m.31-6.62l.15-.08s1.36.05 1.38.08l.15-.08s1.08.06 1.09.08l.11-.07.38.41h.07m-4.04-.1l.09-.05s0 .69.05.71l.09-.05s.86.14.87.16l.15-.08s.72.07.73.08l.15-.08s.83.06.84.08l.15-.08m-2.45-2.83l.14-.08s.89.06.9.08l.14-.08s.92.06.93.08l.14-.08.5.08.13-.07.45.51h.07M37 9.15l.1-.06s-.1.51-.09.52h.07l.39.35.14-.08s1.4.05 1.41.08l.15-.08s1.3.05 1.31.08.37-.23.38-.22m2.03-4.04l.18-.11s2-.22 2-.18l.21-.12s1.17-.18 1.18-.15l.23-.14s1.21 0 1.22.06L48 5l.32.34h.07v.36l.1-.06m-1.95.74l.26-.15s1-.14 1-.11L48 6m-1.94.57l.11-.06s-.13.75-.12.77l.09-.05s-.14.47-.14.48l.09-.05s-.09.55-.09.56l.09-.05s.78.44.79.46l.14-.08.47.08.15-.08s.58.07.58.08l.15-.08s.59.22.6.24h.07v.69l.11-.06m-2.74.45l.15-.09s.82.07.83.08l.15-.09s.52.07.53.08l.15-.09m-2.17.24l.11-.06s-.12.47-.11.48h.08s-.09.38-.08.39h.08s-.1.93-.08 1h.09l.47.39.14-.08.44.08.14-.08s.83.36.84.38l.09-.05s.25.77.26.78l.09-.05s-.06.59-.05.6h.09s-.09.79-.08.81h.09s-.09.43-.08.44h.09s-.09.69-.08.71h.09s-.09.46-.08.47h.09s-.09.73-.08.74h.09s-.19.49-.18.5l.1-.06m-4.71-.57l.2-.11s1.44.07 1.45.1l.17-.1s1.48.06 1.5.09l.1-.06.33.59h.08m-4.16-.45l.3-.18m-1.27-4.29s.79-.48.8-.46-1.09 1.24-1.07 1.27h.08s-.09.89-.08.91h.08s-.09.55-.08.57h.08s-.09.65-.08.66h.08s-.09.67-.08.69h.08s-.09.59-.08.6h.09s-.06.5-.05.51h.06l.42.56.09-.05m.61-5.67l.15-.08s.73.07.74.08l.15-.09m-2.9-3l.11-.06s-.18.47-.18.48h.07l.42.52h.08s1.4.07 1.42.1l.15-.08.49.08.14-.08.31.44h.08s-.09.39-.08.4h.08s-.09.86-.08.88h.08s-.09.39-.08.4h.08m-2.45-3.35l.15-.09s1.39.05 1.41.08l.1-.08M42.11 6h.08s.13.66.14.68h.07s.77.21.78.23l.17-.1s1.17-.06 1.19 0l.16-.09v.78l.12-.07s-.11.65-.1.66l.1-.06s-.09.46-.09.47h.09M37 7l.15-.08s.91.06.93.08l.15-.08s.94.06.95.08l.15-.08s.76.07.77.08l.15-.08s1.09.3 1.11.33h.07s-.05.44 0 .45l.11-.06m-5.18-.43l.09-.05s-.1.52-.09.53h.07l.4.36.17-.13s.54.07.54.08l.15-.08s.74.07.75.08l.15-.08s.86.06.87.08l.15-.08s.86.06.87.08l.15-.08m-2.88-2.84l.14-.08.45.08.14-.08s.78.06.79.08l.15-.08s1.3.13 1.32.16h.09s.11.59.11.61l.06-.12m-3.9-.32l.09-.05s.17.73.18.75h.09s.64.11.65.12l.14-.15s1.22.06 1.23.08l.15-.08s.84.06.85.08.34-.21.35-.2M13.61 2.57s.94-.58 1-.55-1.08 1.42-1.06 1.46 3.9-2.39 4-2.29-3.9 2.61-3.84 2.71S19.07.58 19.15.72s-5.41 3.73-5.33 3.87 6.55-4 6.65-3.84S14 5.2 14.06 5.37s6.54-4 6.64-3.83-6.46 4.08-6.36 4.24S20.6 2 20.69 2.11s-6.11 3.7-6 3.86 5.93-3.63 6-3.48-4.58 3.07-4.51 3.19S20.63 3 20.69 3.07s-4.25 2.65-4.19 2.76 4.13-2.52 4.19-2.42-4.25 2.84-4.19 3 4.13-2.52 4.19-2.42-4.25 3-4.19 3.15 4.13-2.52 4.19-2.42-4.26 3.27-4.19 3.39 4.13-2.52 4.19-2.42-4.25 3.13-4.19 3.25 4.13-2.52 4.19-2.42S16.44 9.2 16.5 9.3s4.13-2.52 4.19-2.42-4.25 2.65-4.19 2.76 4.13-2.52 4.19-2.42-4.25 3.19-4.19 3.3S20.63 8 20.69 8.06s-4.25 3.18-4.18 3.3 4.12-2.52 4.18-2.42-4.25 3.09-4.18 3.2 4.12-2.52 4.18-2.42-4.25 2.67-4.18 2.77 4.12-2.52 4.18-2.42-4.25 3-4.18 3.15 4.12-2.52 4.18-2.41-4.25 3-4.18 3.12 4.12-2.52 4.18-2.41-4.24 2.69-4.18 2.8 4.12-2.52 4.18-2.41-4.25 3.22-4.18 3.34 4.12-2.52 4.18-2.41-4.25 3.1-4.18 3.21 4.12-2.52 4.18-2.41-4.24 2.85-4.18 3 4.12-2.52 4.18-2.41-4.14 2.86-4.08 3 4-2.46 4.08-2.35-3.41 2.81-3.36 2.91 3.31-2 3.36-1.94-2.32 1.91-2.28 2 2.25-1.37 2.28-1.32-.9 1.26-.88 1.29.67-.41.68-.39"/><path class="cls-1" d="M14.69 2l.31-.17s.86-.18.87-.16l.29-.17s1.53-.39 1.55-.35L18 1s2.15-.42 2.18-.37l.14-.08.29.55h.06V2l.09-.05s-.09.52-.09.53h.09s-.1.77-.09.78h.09s-.09.51-.09.52h.09s-.1.88-.09.9h.09s-.09.73-.09.75h.09s-.1 1-.09 1h.09s-.09.47-.09.48h.09s-.1.84-.08.86h.08s-.09.38-.08.38h.08s-.09.57-.08.58h.08s-.09.55-.08.56h.08s-.09.39-.08.4h.08s-.1.89-.08.91h.08s-.09.76-.08.78h.08s-.09.57-.08.58h.08s-.09.68-.08.69h.08s-.09.89-.08.91h.08s-.09.65-.08.66h.08s-.09.91-.08.93h.08s-.09.45-.08.46h.08s-.09.52-.08.53h.08s-.09.94-.08 1h.08s-.11.77-.1.79l.1-.06s-.3.52-.29.53l.22-.12"/><path class="cls-1" d="M13.57 2.52l.24-.14s-.39 1-.38 1.07h.07v.47h.07s.11.71.12.73h.07s.14.81.15.83h.07l.24.43h.07l.21.09.13-.08h1s.32-.2.33-.19l.42.09.16-.09s-.16.61-.15.62l.15-.09s-.16.8-.15.81l.14-.07s-.16 1-.15 1h.15s-.15.89-.14.91l.14-.08s-.14.43-.13.44l.13-.08s-.14.41-.13.42l.13-.08s-.14.94-.13 1l.13-.07s-.13.93-.12 1l.12-.07s-.13.83-.12.85l.12-.07s-.12.42-.11.42l.11-.07s-.12.78-.11.8l.11-.06s-.11.74-.1.76l.1-.06s-.11.43-.1.44l.1-.06s-.11 1-.09 1l.1-.05s-.1.83-.09.85l.09-.05s-.09.58-.09.59h.09v.58h.07l.49.69.16-.09s.86.14.87.16l.14-.08s1.51 0 1.52.05.72-.44.73-.42m7.06-13.5c.05.09 3.62-2.21 3.67-2.12s-3.41 2.19-3.36 2.28 3.52-2.15 3.57-2.06-3.2 2.27-3.15 2.36 3.42-2.09 3.47-2-3.06 2.57-3 2.66 3.4-2.08 3.45-2S29 5.63 29.08 5.72s3.45-2.11 3.5-2-3.24 2.66-3.19 2.75 3.5-2.14 3.55-2-3.43 2.34-3.38 2.44 3.5-2.14 3.55-2-3.44 2.59-3.39 2.69 3.59-2.19 3.64-2.1-3.59 2.42-3.54 2.52 3.65-2.23 3.7-2.14S29.95 8.53 30 8.63s3.66-2.23 3.71-2.14S30 9.2 30.07 9.3s3.75-2.3 3.8-2.2-3.78 3-3.72 3.09S34 7.84 34 7.94s-3.94 2.58-3.88 2.68S34 8.26 34.08 8.35s-4 3-4 3.1 4-2.42 4-2.32-4.08 2.58-4 2.68 4-2.46 4.09-2.36S30 12.27 30 12.38s4.14-2.52 4.2-2.38-4.37 2.88-4.3 3 4.2-2.56 4.26-2.46-4.43 2.76-4.36 2.87 4.27-2.61 4.34-2.5-4.8 3-4.73 3.17 4.63-2.83 4.7-2.71"/><path class="cls-1" d="M25 1.59s1.74-1.07 1.77-1-3.07 2.51-3 2.6S28.49.28 28.56.4s-5.2 3.32-5.13 3.45S29.11.39 29.2.53s-6.38 4.25-6.28 4.42 6.91-4.22 7-4-7.41 4.89-7.3 5.05 7.95-4.86 8.06-4.66-8.36 5.16-8.24 5.37 8.51-5.2 8.63-5-8.85 5.19-8.72 5.41 4.29-2.62 4.35-2.51-4.47 3-4.4 3.12 4-2.43 4-2.33-4.09 2.6-4.03 2.71 3.88-2.37 3.94-2.27-4 2.73-4 2.83 3.84-2.35 3.9-2.25-4 2.89-3.94 3S26 7.09 26 7.19s-3.83 3-3.77 3.15S26 8 26.08 8.14s-3.78 2.88-3.72 3 3.72-2.27 3.77-2.18-3.8 2.43-3.74 2.53 3.72-2.27 3.77-2.18-3.78 2.4-3.73 2.49 3.73-2.28 3.78-2.19-3.6 2.84-3.55 2.94 3.64-2.23 3.7-2.13-3.52 2.78-3.46 2.88 3.59-2.19 3.64-2.1-3.47 2.67-3.42 2.76 3.58-2.19 3.63-2.1-3.53 2.27-3.47 2.37 3.52-2.15 3.57-2.06-3.3 2.52-3.25 2.61 3.46-2.11 3.51-2-3.25 2.46-3.2 2.55 3.42-2.09 3.47-2-3.36 2.2-3.31 2.29 3.43-2.1 3.48-2-3 2.53-2.93 2.61 3.4-2.08 3.45-2-3 2.42-2.95 2.5 8.82-5.39 9-5.17-8.78 5.25-8.66 5.44 8.41-5.11 8.54-4.9-8.12 5-8 5.23 7.71-4.71 7.82-4.52-7.08 4.81-7 5 6.57-4 6.66-3.85-5.95 3.89-5.86 4 5.36-3.28 5.44-3.14-4 3.1-3.95 3.21 3-1.81 3-1.73"/><path class="cls-1" d="M27.58 4.16l.09-.05.46.35h.06l.29.46h.07l.18.42h.07l.32.78h.07s.18.79.19.81h.07s.1.61.11.63h.07v.36h.07s.1.68.11.69h.08v.83h.08v.64h.08v.89h.08s-.15 1-.13 1l.09-.05L30 12l.09-.05s-.3 1.12-.29 1.15l.1-.06s-.36.66-.35.68l.17-.1m-2.88-9.15l.18-.1s-.59.79-.58.81l.1-.06s-.34.76-.33.77l.1-.06s-.18.49-.17.5h.08s-.14.58-.13.59h.08s-.13.64-.12.66h.08s-.05.6 0 .61h.08v.9h.08v.62h.08v.51h.08v.65h.08s.12.82.13.84h.08s.1.62.11.63h.08s.09.54.1.55h.09v.31h.08l.25.69h.06l.36.59h.07l.3.4.1-.06.38.25s.49-.3.5-.29"/><path class="cls-1" d="M27.06.43s.72-.1.73-.08L28 .21s.59.18.59.2l.1-.06s1 .34 1 .36h.07l.5.43h.08l.65.53h.07l.21.36h.07l.35.53h.07l.2.36h.07l.37.64h.07l.21.58h.07l.31.76h.07l.1.37h.07s.17.69.18.71h.07v.33h.07s.06.49.06.5h.07s.05.47.06.48h.07v.34L34 7s.07.8.08.81h.08v.74h.08v.55h.08v.65h.08s-.12.91-.11.93l.09-.05s-.15.68-.14.69l.09-.05s-.22 1-.2 1l.09-.05s-.21.52-.2.53l.1-.06s-.24.6-.23.61l.11-.06s-.49 1.16-.48 1.19l.11-.06s-.57 1-.56 1.06l.16-.09s-1 1.16-.94 1.19l.22-.13M25 1.52s.61-.37.62-.36-1.92 1.89-1.89 1.95l.09-.11s-.47.74-.46.76l.12-.07s-.67 1.14-.65 1.17l.11-.06s-.42 1.2-.4 1.2l.1-.06s-.29.72-.28.73l.1-.06s-.2.48-.2.49h.08s-.15.65-.14.66h.08s-.12.39-.11.4h.08s-.14.59-.13.61h.08s-.14.79-.13.8h.08v1h.08v.83h.08v.39h.08v.36h.07s.15.78.16.79h.07s.15.77.16.79h.07s.14.68.15.7h.07l.09.31h.07l.25.59h.07l.23.57h.07l.1.33h.07l.46.66h.07l.43.55h.07l.27.39h.07l.42.37h.08s.76.51.77.53h.08s.63.28.64.29l.11-.06s1.11.26 1.12.29l.21-.12S30.08 18 30.09 18s1.26-.77 1.28-.74"/></g></g></svg>