<svg xmlns="http://www.w3.org/2000/svg" viewBox="0 0 61.44 18.19"><defs><style>.cls-1{fill:#5d0e5a}.cls-2{fill:#6d2e6a}</style></defs><title>txt_natsuo72</title><g id="レイヤー_2" data-name="レイヤー 2"><g id="text"><path class="cls-1" d="M15.73 3.14a.59.59 0 0 1-.42 1h-3.47a.09.09 0 0 0 0 .06 14.24 14.24 0 0 0 2.05 1.44 13.54 13.54 0 0 0 1.76.85.42.42 0 0 1 .26.31.43.43 0 0 1-.1.4.92.92 0 0 1-.45.33.77.77 0 0 1-.25 0 .88.88 0 0 1-.3-.05q-.3-.14-.59-.3a.07.07 0 0 0-.08 0 .08.08 0 0 0 0 .07V12a.68.68 0 0 1-.67.67h-.26a.4.4 0 0 1-.41-.41H6.93l-.05.05a.42.42 0 0 1-.41.41h-.23a.65.65 0 0 1-.65-.72V7.36a.08.08 0 0 0 0-.07.07.07 0 0 0-.08 0q-.37.21-.75.38a.92.92 0 0 1-.31.05h-.23a1 1 0 0 1-.46-.33A.46.46 0 0 1 3.6 7a.4.4 0 0 1 .27-.31 11.44 11.44 0 0 0 1.79-.9 11 11 0 0 0 2-1.5.06.06 0 0 0 0-.1H4.14a.59.59 0 0 1-.42-1A.57.57 0 0 1 4.14 3h4.77a.12.12 0 0 0 .14-.14v-1a.11.11 0 0 0 0-.09.15.15 0 0 0-.1 0Q7.11 1.9 5.61 2a.6.6 0 0 1-.4-.15.82.82 0 0 1-.27-.4A.41.41 0 0 1 5 1a.4.4 0 0 1 .28-.14A46.24 46.24 0 0 0 12.76 0H13a1.26 1.26 0 0 1 .37.05 1.19 1.19 0 0 1 .53.33.39.39 0 0 1 .1.41.37.37 0 0 1-.31.27q-1.42.3-3.19.52a.14.14 0 0 0-.14.15v1.1a.12.12 0 0 0 .14.14h4.79a.57.57 0 0 1 .44.17zM5.87 7h7.94a14 14 0 0 1-3.35-2.58.06.06 0 0 0-.1 0v1.69a.67.67 0 0 1-1.34 0V4.47A12.34 12.34 0 0 1 5.87 7zm6.73 2.13a.12.12 0 0 0 .13-.13v-.73a.12.12 0 0 0-.14-.14H7a.12.12 0 0 0-.14.14V9a.12.12 0 0 0 .14.17zM6.88 11a.12.12 0 0 0 .14.14h5.58a.12.12 0 0 0 .14-.14v-.78a.12.12 0 0 0-.14-.14H7a.12.12 0 0 0-.14.14zM21 7.82a.59.59 0 0 1 .21 0 .52.52 0 0 1 .23.05.49.49 0 0 1 .27.34.55.55 0 0 1 0 .18.65.65 0 0 1-.08.31.69.69 0 0 1-.36.34l-3 1.35a.74.74 0 0 1-.27.05.71.71 0 0 1-.26-.05.62.62 0 0 1-.36-.37.61.61 0 0 1-.05-.25.63.63 0 0 1 .07-.29.66.66 0 0 1 .4-.37l1.05-.41a.19.19 0 0 0 .15-.21V4.72a.12.12 0 0 0-.14-.14h-.81a.59.59 0 0 1-.43-.18.61.61 0 0 1 0-.87.59.59 0 0 1 .43-.18h.81A.12.12 0 0 0 19 3.2V.83a.6.6 0 0 1 .21-.43.61.61 0 0 1 .86 0 .6.6 0 0 1 .18.44V3.2a.12.12 0 0 0 .14.14H21a.58.58 0 0 1 .44.18.63.63 0 0 1 0 .88.58.58 0 0 1-.44.18h-.6a.12.12 0 0 0-.14.14V8a.08.08 0 0 0 0 .07.09.09 0 0 0 .08 0l.37-.07zm7.64-3.65a.73.73 0 0 1 .4 0l.25.08a.49.49 0 0 1 .28.23.44.44 0 0 1 0 .36 12.42 12.42 0 0 1-2.13 4.96.12.12 0 0 0 0 .19 8.15 8.15 0 0 0 1 .81 8.06 8.06 0 0 0 1.12.64.5.5 0 0 1 .3.37.36.36 0 0 1 0 .14.51.51 0 0 1-.12.33 1 1 0 0 1-.51.36H29a.81.81 0 0 1-.34-.08A8.78 8.78 0 0 1 26.55 11a.12.12 0 0 0-.19 0 10.31 10.31 0 0 1-2.3 1.63.73.73 0 0 1-.3.07.62.62 0 0 1-.22 0 .88.88 0 0 1-.44-.31.58.58 0 0 1-.1-.39.65.65 0 0 1 0-.12.5.5 0 0 1 .27-.36A8.66 8.66 0 0 0 25.5 10a.14.14 0 0 0 0-.21 14.21 14.21 0 0 1-1.79-3.61 10.67 10.67 0 0 1-1.86 6.13.52.52 0 0 1-.42.21.68.68 0 0 1-.68-.59v-.08a.6.6 0 0 1 .12-.37 6.63 6.63 0 0 0 .82-1.48 7.7 7.7 0 0 0 .5-1.74q.15-.91.21-1.63T22.45 5V2a1.15 1.15 0 0 1 .35-.84 1.15 1.15 0 0 1 .84-.35h5.78a.6.6 0 0 1 .43.18.58.58 0 0 1 .18.44.58.58 0 0 1-.18.44.6.6 0 0 1-.43.18h-5.58a.12.12 0 0 0-.14.14V4a.12.12 0 0 0 .14.14h4.81zm-.53 1.35a.1.1 0 0 0 0-.1.1.1 0 0 0-.08 0h-3.16a.09.09 0 0 0-.08 0 .09.09 0 0 0 0 .08 10.43 10.43 0 0 0 1.61 3.27.09.09 0 0 0 .08 0 .12.12 0 0 0 .09 0 10.57 10.57 0 0 0 1.55-3.25zm12.77 2.79a.47.47 0 0 1 .4.07l.23.14a.47.47 0 0 1 .21.31.38.38 0 0 1-.1.35A7.5 7.5 0 0 1 39.36 11v.05c0 .05 0 0 0 0a21.35 21.35 0 0 0 4.2.68.35.35 0 0 1 .31.22.39.39 0 0 1 0 .18.35.35 0 0 1-.07.21 1.13 1.13 0 0 1-.45.42 1 1 0 0 1-.48.12h-.1a17.94 17.94 0 0 1-5-1.12.33.33 0 0 0-.25 0 23.65 23.65 0 0 1-5.29 1.13h-.08a.64.64 0 0 1-.37-.12.87.87 0 0 1-.33-.37.46.46 0 0 1 0-.18.48.48 0 0 1 0-.19.34.34 0 0 1 .3-.19 23 23 0 0 0 4.42-.78.07.07 0 0 0 0-.07 7.42 7.42 0 0 1-1.52-1.24.14.14 0 0 0-.21 0 13.15 13.15 0 0 1-1.83.88.9.9 0 0 1-.26 0 .73.73 0 0 1-.23 0 .87.87 0 0 1-.41-.29.4.4 0 0 1-.08-.35.34.34 0 0 1 .37-.34 9.15 9.15 0 0 0 3.39-1.87.06.06 0 0 0 0-.1h-1a1.19 1.19 0 0 1-1.19-1.19V3.65a1.19 1.19 0 0 1 1.1-1.19h2.3a.17.17 0 0 0 .18-.14v-.43a.08.08 0 0 0 0-.08.1.1 0 0 0-.08 0h-4.4a.51.51 0 0 1-.3-.19.53.53 0 0 1 0-.75.51.51 0 0 1 .38-.16h10.71a.51.51 0 0 1 .38.16.53.53 0 0 1 0 .75.51.51 0 0 1-.38.16h-4.63a.19.19 0 0 0-.19.12c-.1.28-.16.43-.16.44a.09.09 0 0 0 0 .08.09.09 0 0 0 .08 0h3a1.19 1.19 0 0 1 1.19 1.19v2.88a1.19 1.19 0 0 1-1.19 1.19h-4a.32.32 0 0 0-.23.1l-.42.45a.06.06 0 0 0 0 .1h4.33zm-6.37-5.07a.12.12 0 0 0-.14.14v.41a.12.12 0 0 0 .14.14h6.41a.12.12 0 0 0 .14-.14v-.41a.12.12 0 0 0-.14-.14zm0 1.48a.12.12 0 0 0-.14.14v.42a.12.12 0 0 0 .14.14h6.41a.12.12 0 0 0 .14-.14v-.43a.12.12 0 0 0-.14-.14zm0 1.48a.12.12 0 0 0-.14.14v.44a.12.12 0 0 0 .14.14h6.41a.12.12 0 0 0 .14-.14v-.45a.12.12 0 0 0-.14-.14zm5.33 3.13v-.05H36a.06.06 0 0 0 0 .1 6.51 6.51 0 0 0 1.78 1.15.29.29 0 0 0 .25 0 7.06 7.06 0 0 0 1.81-1.21zm17.68 1.83a.59.59 0 0 1 .42.17.56.56 0 0 1 .18.42.61.61 0 0 1-.6.6h-4.2l-.05.05a.56.56 0 0 1-.56.56.57.57 0 0 1-.43-.18.59.59 0 0 1-.17-.42v-7l-.31.45a.49.49 0 0 1-.42.22.56.56 0 0 1-.44-.21.75.75 0 0 1-.21-.53.72.72 0 0 1 .16-.46 11.65 11.65 0 0 0 .79-1.22v-.07a.08.08 0 0 0-.07 0h-3a.12.12 0 0 0-.14.14A26.67 26.67 0 0 1 47.85 8a15.57 15.57 0 0 1-1.39 4 .5.5 0 0 1-.36.29h-.18a.62.62 0 0 1-.3-.08.59.59 0 0 1-.3-.34.48.48 0 0 1 0-.19.52.52 0 0 1 .07-.26 18.81 18.81 0 0 0 1.86-7.74.14.14 0 0 0-.14-.14h-1a.58.58 0 0 1-.42-.18.59.59 0 0 1-.18-.43.57.57 0 0 1 .18-.42.59.59 0 0 1 .42-.17h1a.14.14 0 0 0 .15-.14V.68a.56.56 0 0 1 .18-.42.58.58 0 0 1 .41-.16.56.56 0 0 1 .41.17.57.57 0 0 1 .17.42v1.47a.15.15 0 0 0 0 .1.11.11 0 0 0 .09 0h2.06a1 1 0 0 1 .73.3 1 1 0 0 1 .31.74A14.86 14.86 0 0 0 52.83.7a.68.68 0 0 1 .31-.38.62.62 0 0 1 .3-.08h.18a.53.53 0 0 1 .38.31.53.53 0 0 1 .08.27A.48.48 0 0 1 54 1q-.27.83-.62 1.64a.08.08 0 0 0 0 .09.1.1 0 0 0 .08 0h1.18a.19.19 0 0 0 .19-.12 17.62 17.62 0 0 0 .68-1.8.63.63 0 0 1 .31-.38.65.65 0 0 1 .31-.08h.18a.54.54 0 0 1 .36.3.5.5 0 0 1 .07.25.62.62 0 0 1 0 .22q-.33.81-.64 1.48a.08.08 0 0 0 0 .09.09.09 0 0 0 .07 0h1.23a.58.58 0 0 1 .59.59.54.54 0 0 1-.17.41.58.58 0 0 1-.42.16h-1.19a.12.12 0 0 0-.14.14v1.47a.12.12 0 0 0 .14.14h1.05a.52.52 0 0 1 .39.16.56.56 0 0 1 0 .78.52.52 0 0 1-.39.16h-1.05a.12.12 0 0 0-.14.14v1.38a.12.12 0 0 0 .14.14h1.05a.52.52 0 0 1 .39.16.56.56 0 0 1 0 .78.52.52 0 0 1-.39.16h-1.05a.12.12 0 0 0-.14.14V11a.12.12 0 0 0 .14.14zm-7.41-2.37a.52.52 0 0 1 .31-.66.45.45 0 0 1 .38 0 .43.43 0 0 1 .25.28 20.64 20.64 0 0 1 .71 2.93v.11a.73.73 0 0 1-.08.33.65.65 0 0 1-.36.29A.41.41 0 0 1 51 12a.44.44 0 0 1-.21-.31 2.16 2.16 0 0 0 0-.25c0-.06 0-.09-.1-.07l-2.68.72h-.16a.57.57 0 0 1-.3-.08.63.63 0 0 1-.31-.37.55.55 0 0 1 0-.18.5.5 0 0 1 .07-.25.49.49 0 0 1 .36-.26l.26-.05a.17.17 0 0 0 .12-.12A46.84 46.84 0 0 0 49 5.3a.51.51 0 0 1 .23-.38.51.51 0 0 1 .3-.1h.12a.6.6 0 0 1 .38.26.6.6 0 0 1 .1.33.67.67 0 0 1 0 .12q-.57 3-1.12 5a.09.09 0 0 0 0 .09.07.07 0 0 0 .08 0l1.23-.29c.09 0 .13-.08.11-.16q-.14-.74-.32-1.38zm4.61-3.2a.12.12 0 0 0 .14-.14V4.07a.12.12 0 0 0-.14-.14H53.4a.12.12 0 0 0-.14.14v1.39a.12.12 0 0 0 .14.14zm0 2.76a.12.12 0 0 0 .14-.14V6.84a.12.12 0 0 0-.14-.14H53.4a.12.12 0 0 0-.14.14v1.38a.12.12 0 0 0 .14.14zM53.4 9.46a.12.12 0 0 0-.14.14V11a.12.12 0 0 0 .14.14h1.31a.12.12 0 0 0 .14-.14V9.6a.12.12 0 0 0-.14-.14z"/><path class="cls-2" d="M61.43 17.71s0-.14-.08-.12l-.06.17zm-.6-.3c-.1.08-.23.22-.16.37.1-.16.13-.09.24-.28a.11.11 0 0 1 .14.11s.14 0 .19-.07a.29.29 0 0 0-.42 0s0-.1.01-.13zm-8.71-.26h.06zm-5.4-.09h.06s-.07-.06-.06 0zm-.92-.18h.05s-.04-.02-.05 0zm6.32.27L52 17.1c0 .05 0 .04.12.05zm7.51.66h.08-.07zM54.5 17v-.07zm1.82 0s-.06.13-.07.2a.14.14 0 0 1 .09-.1.28.28 0 0 0-.02-.1zm2.9.24h.05zM53.19 17a.14.14 0 0 0 0-.05.09.09 0 0 0 0 .05zM2.12 18s-.01 0 0 0zM0 17.35a.62.62 0 0 0 0-.08zm44.11-.65s.03-.01 0 0zm-15.48.1c.18.13-.29.16 0 .3-.04-.1.22-.22 0-.3zm30.95.99zm-30.97-.69zm11.62-.32a.17.17 0 0 0 0 .06s.03-.03 0-.06zm2.89.22h-.07zm-4.39 0h-.11.11zm-1.57 0zM6.88 18a.42.42 0 0 1-.07-.13c.02.08-.21.13.07.13zm52.75-.27v.06h.05a.06.06 0 0 0-.05-.06zm-20.97.36h-.25zM18.1 18H18a.06.06 0 0 0 .1 0zm19.58.09a.35.35 0 0 0-.14-.1zm-30.87-.24z"/><path class="cls-2" d="M5.17 18.18c.24 0 .11-.18.16-.29.28-.05.13.14.23.23s.31-.22.44-.21S6 18 6 18c.19-.15.55 0 .77-.19a.56.56 0 0 1 0-.25c.11 0 .2-.12.24 0s-.07 0-.1.08l.09-.01c.1.17-.15.06-.15.19.22-.06.47-.2.64-.15s-.39.06-.17.21l-.26-.06c.2.27-.16 0 0 .27.34 0 .38-.09.72 0 .08-.09 0-.14.05-.23.48-.17.38.43.73.2.09-.11.13-.33.38-.21l-.05.15c.33 0 .19-.28.53-.15-.06.08-.26.06-.21.09.22.15.16-.11.33-.11V18c.35 0 .73-.15 1.12-.18 0 .05-.09.1 0 .16a4.13 4.13 0 0 1 1.51.12l.18-.15s.08.07 0 .09c.18.06 0-.09.1-.15s.14.08.07.13a2 2 0 0 1 1.26-.11h-.07c.27.06.3-.3.55-.16a5.41 5.41 0 0 1 1.65.15c.08-.21.57.09.61-.2.33.15.23.2.7.3.12 0 .18-.18.34-.21V18l.21-.16.11.18L18 18c-.06 0-.12-.07-.11-.11a.56.56 0 0 1 .55.19l.53-.13c0 .06-.1.08-.17.12.28-.16.05.16.31 0v-.12a1 1 0 0 0 .64.05v.11c.39 0 .83-.05 1.27 0a.13.13 0 0 1 0-.25l.05.16c.08-.1-.13-.06 0-.18s.11.19 0 .24l.2-.06v.14c.08-.1.35.16.46 0 .44 0 .64-.05 1-.06 0-.14.15-.11.25-.22a4.05 4.05 0 0 0 .88.14c.22-.07.06-.12.17-.2 0 .13.33.12.17.21a4.6 4.6 0 0 0 1-.13c-.05-.05-.11-.08-.08-.12s.2.05.19.12c.54-.19 1.25.37 1.68.11l.45-.14c.21 0-.12.1 0 .18.48-.21.76 0 1.16-.11.31.38 1.09 0 1.51.21v-.09c.11-.09.13.05.21.07s-.12-.08 0-.13a14.31 14.31 0 0 1 2.81.21c.34 0 .19-.46.62-.25l-.12.17c.69-.2 1.41 0 2.08-.16 0 0 0 .09-.11.09.14.12.53 0 .53-.09s0 .09.09.14.36-.15.43 0 0 0-.07 0 .43 0 .34-.12c.25.07.48-.06.69 0 .13-.15.43.07.47-.14 0 .23.44.18.6.08-.05.07.14.07.08.17.18 0 .35 0 .32-.16.34.27.68-.22.86.13a13.76 13.76 0 0 1 1.53-.26c0 .23-.54 0-.52.26a3.42 3.42 0 0 1 1.19-.23c.12 0-.07.1-.11.14.46-.09.89 0 1.3-.1l-.09.06c-.09.06.19 0 .18-.07h-.08c-.13-.15.32-.31.34-.39-.14.29.41.07.19.45.05 0 .12-.07.11-.14s.1.06 0 .14c.29-.06.19-.16.45-.16 0 0-.05.07-.08.13a.58.58 0 0 1 .49-.15s0 .07-.05.07c.38 0 .65-.26 1.07-.16-.12.22.14.07.16.26l.23-.06-.09-.09c.2 0 .37-.13.54-.07l-.15.08h.37l-.21-.07c.2-.1 0-.24.24-.18-.05 0 .2 0 .3.11a.38.38 0 0 1 .34-.08v.25c.1-.16.46 0 .58-.21a.18.18 0 0 0 0 .16l.08-.13c.09 0 .1.06.09.14.27 0-.09-.24.24-.13h-.07c.33.05.63-.08.93 0 .09.19-.26 0-.16.2a7.81 7.81 0 0 1 1.32-.18h-.08c.06-.27.31.13.52 0-.05 0-.07.15-.05.12a3.41 3.41 0 0 0 1-.15l-.05.07a4.28 4.28 0 0 0 .63.07c.05-.07.16-.06.1-.16.56.39 1.08-.21 1.58.12-.06 0-.14.06-.1.06l.43-.06c0-.12-.06-.07-.15-.16a.39.39 0 0 1 .28-.12c-.19.08 0 .19.08.25s0-.07 0-.11c.22.21 0-.23.34-.09v.06c.11 0 .22-.11.34-.09s-.12.06-.13.17c.17 0 .34-.25.5-.12-.07 0-.18 0-.25.07a.39.39 0 0 0 .32.14l.29.07h-.07c.22-.35.44-.06.73-.29-.28.22 0 .13-.07.28s.19.09.15.13c.14-.12.23.1.42-.08 0 0 .15 0 .12.13.18 0 0-.08 0-.15.28-.17.65.2 1 0s.4-.26.72-.34c.11.08-.09.18-.09.18a.59.59 0 0 0 .46 0s0 .08.05.13.09-.18.26-.11a.67.67 0 0 1-.13.2c.15 0 .31-.14.46-.18s-.1.13-.15.18c.18 0 .46-.08.52-.21h-.11c.06 0 0 .12 0 .14a.14.14 0 0 1-.23-.1h.11c-.12-.29-.46 0-.68 0l.1-.21-.23.17c0-.05-.08-.17 0-.2-.16-.1-.15.07-.29 0l-.16.06s0-.15.07-.12c-.29-.12-.46.16-.57 0-.4.07 0 .15-.34.33l-.2-.38v.15s-.12 0-.11-.08c-.15.1 0 .07-.06.17-.2-.14-.54.06-.59-.18-.07.12.19.09 0 .17-.06-.26-.24 0-.42-.08.06-.13.23-.06 0-.18-.11.23-.35 0-.5 0s-.33.08-.59.14c0-.06-.48-.1-.72-.17 0 .18-.29.15-.47.19a.2.2 0 0 1 .14-.2h-.17a.27.27 0 0 1-.2.11v-.14c-.22 0-.45.16-.74.07 0 .13.23.36-.08.44 0-.07 0-.19.06-.22s-.09.06-.15 0l.12-.12c-.13-.05-.07.1-.17.09s-.08-.07-.06-.15.09 0 .13 0a.49.49 0 0 1-.31-.15c0 .06 0 .13-.09.15S53 17 52.9 17s-.2 0-.2.15-.08-.07-.1-.11-.54 0-.41.18c-.38.15-.79-.08-1.16 0a2.45 2.45 0 0 0-.66.14c-.07 0-.16-.09-.13-.15a.55.55 0 0 1-.44 0c.17-.09-.06-.08.18-.06-.22 0-.27-.12-.51 0 .08-.13-.17-.16-.27-.12l.16.09A1.23 1.23 0 0 1 49 17l.06-.17c-.46-.2-.82.34-1.17 0-.12.12.25.08.14.22-.21 0-.43-.26-.49-.26-.29-.09-.27.24-.57.18 0 .06.08.22-.15.27s-.26-.25-.13-.3.07 0 .07 0 .16 0 .07-.11v.06c-.1-.06-.39-.05-.33-.15-.16.06-.07.1 0 .13-.27-.09-.42 0-.7-.06 0 0 .08.1 0 .1-.41-.07-.18.11-.46.14s.06-.22-.22-.14 0-.16 0-.21c-.25.11-.47-.08-.62-.1h.13a.57.57 0 0 1-.21 0l.08.12c-.08 0-.14 0-.14-.07s.06.2-.1.3c-.1-.06-.32.06-.35-.09.33.05 0-.16.24-.18a.34.34 0 0 1-.2 0c-.31-.14-.14.18-.47.17 0-.09-.08-.17-.13-.15.13 0 .06.15-.06.22s-.23.05-.34 0h.12c0 .09-.15.08-.29.1s.13 0 .08-.08c-.16.16-.36-.16-.59-.06-.1-.06 0-.17-.1-.21-.25.11-.27-.12-.54 0 .08.12.09.09-.1.21l.44-.08-.28.17c.13 0 .28-.08.36-.05-.13.1-.12.07-.06.17-.18-.18-.36.1-.56 0v-.3c-.31-.13-.56.15-1 .08l.13.05c-.05.12-.25 0-.38.06s-.07-.13-.13-.2-.3 0-.33.19l-.18-.13c-.33-.05-.37.28-.69.25.09-.11 0-.18.16-.25h-.2s-.29.13-.39 0-.06.15-.18.14-.18.07-.08.18c-.32-.31-.91 0-1.19-.24-.23 0-.51.06-.71.07-.29-.09-.18.28-.5.18-.17-.16.17-.09.07-.15 0-.32-.4 0-.62-.15h.05c-.17-.11-.41.12-.69.1a1.78 1.78 0 0 1-.81.27c.08-.13.12-.07.07-.2s0 .21-.2.24c-.08-.07-.25-.13-.27-.27h.22c-.11-.18-.29 0-.41 0v-.08c-.34 0-.35.22-.71.21v.06c-.2.19-.17-.11-.37 0l-.06-.2a4.24 4.24 0 0 1-.7.23 2.09 2.09 0 0 1 .59-.31c-.13 0-.45 0-.52.11s.12-.07.17 0a.86.86 0 0 1-.64.23c0-.38-.68-.1-.87-.39a6.09 6.09 0 0 1-1.46 0c.19.3-.16 0-.12.31h-.18l-.38-.18c-.09-.09.12-.07.11-.14-.27 0-.12-.13-.3-.21 0 .11-.1.16-.25.11l.22.14c-.38.16-.33-.26-.72-.1l.12-.1c-.2.06-.73 0-.93.24 0 0-.08-.12 0-.14-.48 0-1.06.26-1.43.11v-.07c-.09 0-.15.14-.27.07s0-.07 0-.08-.24.13-.35.09l.1-.08c-.46-.1-.71.2-1.1.26 0-.22-.36-.29-.55-.33a5.86 5.86 0 0 0-1.42.27c-.31-.24-1.05-.1-1.55-.23.08 0 0 .17-.1.19s-.32.15-.31 0c-.09-.2-.33-.15-.52-.15v.26c-.49-.38-1.29.14-1.56-.2-.12.07-.27.07-.38.13v-.14a3.75 3.75 0 0 0-.9 0l.08-.1c-.23 0-.29.41-.5.42l-.06-.21c-.4 0-.8-.18-1.2 0 0 0 0-.09.08-.1-.19 0-.73-.14-.66.15 0-.19-.41 0-.63.06v-.14c-.18.18-.19.23-.44.28-.06 0-.05-.11 0-.08-.2-.07-.16.13-.4.06l.09-.09c-.21 0-.19 0-.3.14s-.39 0-.42-.16a.23.23 0 0 1-.26.14s0-.08.05-.09c-.35-.09-.51.16-.75 0a.11.11 0 0 0 0-.08 2.93 2.93 0 0 1 .48 0c0-.13-.22-.15 0-.33-.18.1-.48.31-.7.25a.19.19 0 0 0-.14 0 .62.62 0 0 0-.18 0c0-.11-.25-.06-.37-.06s-.14.12 0 .23h.4c-.09.07-.18.13-.3.05l-.15.23c-.15-.2-.44-.3-.48-.42-.34.08-.8.05-1 .32-.1 0-.11-.08-.15-.12s.12 0 .15-.06c-.19.07-.57 0-.61.21-.24-.08.14-.17-.2-.14v-.06c-.65-.29-1.06.47-1.79.09.05 0 .08 0 .09.06-.83-.17-1.7.16-2.52-.11-.23-.05-.26.06-.4.15L3 17l-.24.17c-.34.13-.59-.37-1-.13l.06.1c-.16 0-.49.06-.47-.06s-.05.11-.11.05v-.08l-.38.14c-.3-.06 0-.31-.39-.33-.16 0-.46.23-.4.28s.17 0 .17.13H.09c0 .23-.14.47.22.63l.25-.14.08.11H.38c.12.11.2 0 .28-.05a.2.2 0 0 0 .11.18l.23-.2c0 .09-.11.18.06.23.12-.1-.11-.2.08-.27.12.11.09.19.23.1 0 .06 0 .1-.07.12.13-.07.33 0 .4-.15.13.13.43 0 .41.19a.67.67 0 0 1 .34-.18c-.21.26.43 0 .38.3.16-.24.57-.11.84-.24 0 0 0 .06-.07 0 .16 0 .2.09.3.14 0-.2.26-.24.39-.36.19.19-.12.23-.06.41 0-.16.33-.16.27-.29.15.12.13.06.2.22 0-.24.14 0 .26-.19.21.12.05.23.29.15s-.08.2-.08.2zm5.53-.42zm.46 0H11v-.1s.1.05.16.09zm-1-1h.11-.13a.2.2 0 0 1 .04.02zM10 17zm42.18.17z"/><path class="cls-2" d="M17.58 18.02v-.03l-.04.03h.04zm37.16-.36zm1.11.03l.16.05zm.85.07a.23.23 0 0 0 0-.06zm-13.52.16c-.11.08-.06.02 0 0zm4.02-.33l-.13.07c.08.01.13.01.13-.07zm-8.51.5z"/><path class="cls-2" d="M46.89 17.66a.25.25 0 0 0 .19 0 .39.39 0 0 0-.19 0zm13.5.16zm.04-.02s.01-.01 0 0zm.14-.05h-.1s.08.04.1 0zm-1.31.01v.05a.11.11 0 0 0 0-.05zm-.34.01c.08 0 .21.11.32.08-.05.03-.24-.17-.32-.08zm-1.43-.63h.29c-.05-.05-.12-.13 0-.14-.35-.12.09.16-.29.14zm-.89-.08c.15 0 0-.08 0-.11s-.11.05 0 .11zm-6.42 0v-.13c-.1.07.01.07 0 .13zm-1.23.66l.12.08.05-.12-.17.04zm-.72-.91l.05-.02-.2.05.15-.03zm-10.79.05v.16c.12-.02.13-.21 0-.16zm-4.66.14a.18.18 0 0 0-.26-.05c.11.05.21.05.26.05zm-13.96-.24l.09-.05-.18.04.09.01z"/></g></g></svg>