<svg xmlns="http://www.w3.org/2000/svg" width="146" height="21" viewBox="0 0 146 21"><defs><style>.a{fill:#5d0e5a}.b{fill:#6d2e6a}.c{fill:none}</style></defs><title>txt_acoustic</title><path class="a" d="M54.93 5.72a.07.07 0 0 0 0 .08.08.08 0 0 0 .07 0h2.64a.58.58 0 0 1 0 1.16H46.4a.57.57 0 0 1-.4-.13.58.58 0 0 1 0-.83.57.57 0 0 1 .42-.17H49a.11.11 0 0 0 .09 0 .1.1 0 0 0 0-.1 6.7 6.7 0 0 0-.36-1.07.61.61 0 0 1-.05-.25.74.74 0 0 1 .05-.27.54.54 0 0 1 .41-.31h-2a.58.58 0 0 1-.59-.59.58.58 0 0 1 .59-.59h4a.11.11 0 0 0 .12-.12v-.42a.68.68 0 1 1 1.37 0v.38a.11.11 0 0 0 .12.12H57a.59.59 0 0 1 .42 1 .57.57 0 0 1-.42.17h-1.89a.54.54 0 0 1 .4.3.71.71 0 0 1 .05.26.61.61 0 0 1-.05.25q-.38.77-.58 1.13zm-6.45 8.56a.65.65 0 0 1-.66-.66V9.23A1.19 1.19 0 0 1 49 8h6.22a1.19 1.19 0 0 1 1.19 1.19v4.33a.66.66 0 0 1-.21.48.67.67 0 0 1-.49.21h-.27a.42.42 0 0 1-.41-.41l-.05-.05h-5.81l-.05.05a.44.44 0 0 1-.44.44zm6.56-5a.12.12 0 0 0-.14-.14h-5.64a.12.12 0 0 0-.14.14v1a.12.12 0 0 0 .14.14h5.64a.12.12 0 0 0 .14-.14zm-5.92 3.27a.12.12 0 0 0 .14.14h5.64a.12.12 0 0 0 .14-.14v-1a.12.12 0 0 0-.14-.14h-5.64a.12.12 0 0 0-.14.14zm5.18-8.63a.12.12 0 0 0 0-.1.09.09 0 0 0-.08 0H49.9a.07.07 0 0 0-.06 0 .08.08 0 0 0 0 .07 5.63 5.63 0 0 1 .56 1.19.56.56 0 0 1-.05.46.59.59 0 0 1-.4.27h4.15a.45.45 0 0 1-.3-.25.42.42 0 0 1 0-.39 11.71 11.71 0 0 0 .5-1.25zm14.82 5.02a.09.09 0 0 1 .07.05.09.09 0 0 1 0 .08l-.53.64h3.16a.44.44 0 0 1 .32.13.43.43 0 0 1 0 .62.44.44 0 0 1-.32.13h-11.6a.44.44 0 0 1-.32-.13.43.43 0 0 1 0-.62.44.44 0 0 1 .32-.13h3.16v-.05l-.18-.3a.29.29 0 0 1 0-.28.27.27 0 0 1 .2-.2h-1.54a.63.63 0 0 1-.64-.64l-.44.21a.55.55 0 0 1-.42 0 .69.69 0 0 1-.35-.25.36.36 0 0 1-.06-.32.35.35 0 0 1 .21-.24A5.3 5.3 0 0 0 62 6.47v-.05a.06.06 0 0 0-.05 0l-1.78.22a.51.51 0 0 1-.38-.1.51.51 0 0 1-.21-.33.27.27 0 0 1 0-.08.37.37 0 0 1 .1-.25.39.39 0 0 1 .3-.16h.49a.22.22 0 0 0 .18-.08l.51-.64a.14.14 0 0 0 0-.21 13 13 0 0 0-1.08-.86.48.48 0 0 1-.18-.31.4.4 0 0 1 .1-.31.48.48 0 0 1 .29-.17.45.45 0 0 1 .33.06h.07q.34-.52.6-1a.57.57 0 0 1 .3-.26.47.47 0 0 1 .38 0 .37.37 0 0 1 .23.25.43.43 0 0 1 0 .35q-.45.64-.78 1.07a.12.12 0 0 0 0 .19l.33.29a.12.12 0 0 0 .19 0l.52-.77a.6.6 0 0 1 .31-.32.51.51 0 0 1 .39 0 .35.35 0 0 1 .23.25.41.41 0 0 1-.06.35 22.2 22.2 0 0 1-1.48 1.8.07.07 0 0 0 0 .06.05.05 0 0 0 .05 0l.79-.05a.13.13 0 0 0 .11-.08.76.76 0 0 0 .07-.15.66.66 0 0 1 .27-.32.6.6 0 0 1 .4-.09.42.42 0 0 1 .3.2.34.34 0 0 1 0 .35 5.34 5.34 0 0 1-2.32 2.67h3.69a.07.07 0 0 0 .12.01.61.61 0 0 1 1.22 0c0 .05 0 .08.07.08h4a.41.41 0 0 1 .3.12.4.4 0 0 1 .12.29.38.38 0 0 1-.12.29.42.42 0 0 1-.3.12zm-6.79 5.65a.56.56 0 0 1-.42-.18.59.59 0 0 1-.17-.42v-1.63a1.19 1.19 0 0 1 1.19-1.19h6.36a1.19 1.19 0 0 1 1.19 1.19v1.59a.63.63 0 0 1-.63.63h-.33a.31.31 0 0 1-.23-.09.29.29 0 0 1-.09-.21H63a.33.33 0 0 1-.31.31zM69.2 12a.12.12 0 0 0-.14-.14h-6a.12.12 0 0 0-.14.14v.26a.12.12 0 0 0 .14.14h6a.12.12 0 0 0 .14-.14zm-6.28 1.41a.12.12 0 0 0 .14.14h6a.12.12 0 0 0 .14-.14v-.27a.12.12 0 0 0-.14-.14h-6a.12.12 0 0 0-.14.14zM63.56 7a.4.4 0 0 1 .07-.33.39.39 0 0 1 .3-.17H64a.06.06 0 0 0 .07-.07V3.35a1.19 1.19 0 0 1 1.19-1.19h1.49a1.19 1.19 0 0 1 1.19 1.19v1.12a.85.85 0 0 1-.25.62.83.83 0 0 1-.62.26 6.7 6.7 0 0 1 1.23 1.33.38.38 0 0 1 .06.33.44.44 0 0 1-.21.28.41.41 0 0 1-.34 0 .54.54 0 0 1-.29-.21l-.08-.12a.1.1 0 0 0-.11 0l-3.16.44a.58.58 0 0 1-.38-.1.49.49 0 0 1-.23-.3zm.9 2.76h2.75a.26.26 0 0 0 .22-.11c.15-.21.28-.42.41-.64a.08.08 0 0 0-.07-.12h-3.5a.06.06 0 0 0 0 .05 3.13 3.13 0 0 1 .34.53.15.15 0 0 1 0 .14.18.18 0 0 1-.15.19zM66.95 3a.12.12 0 0 0-.14-.14h-1.59a.12.12 0 0 0-.14.14v.27a.12.12 0 0 0 .14.14h1.59a.12.12 0 0 0 .14-.14zm-1.73 1.1a.12.12 0 0 0-.14.14v.26a.12.12 0 0 0 .14.14h1.59a.12.12 0 0 0 .14-.14v-.26a.12.12 0 0 0-.14-.14zm0 1.24a.12.12 0 0 0-.14.14v.81a.11.11 0 0 0 0 .09.14.14 0 0 0 .1 0l1.44-.15a.51.51 0 0 1-.14-.36v-.09a.47.47 0 0 1 .25-.36h.07-1.58zm4.54-2.28a.12.12 0 0 0-.14.14v4.14a.51.51 0 0 1-.16.38.55.55 0 0 1-.75 0 .51.51 0 0 1-.16-.38v-4a1.19 1.19 0 0 1 1.19-1.19h1.7a.32.32 0 0 1 .27 0l.26.12a.45.45 0 0 1 .21.25.38.38 0 0 1 0 .32q-.31.62-.81 1.5a.14.14 0 0 0 0 .21 2.17 2.17 0 0 1 1 1.54 1.14 1.14 0 0 1-.55 1.05 1.41 1.41 0 0 1-.63.22h-.53a.52.52 0 0 1-.36-.14.82.82 0 0 1-.23-.35.31.31 0 0 1 0-.28.26.26 0 0 1 .23-.13h.41a1.27 1.27 0 0 0 .37-.07.43.43 0 0 0 .26-.39 1 1 0 0 0-.22-.59 2.48 2.48 0 0 1-.45-.9 1.63 1.63 0 0 1 0-.37 1.82 1.82 0 0 1 .11-.6l.16-.37a.09.09 0 0 0 0-.08.09.09 0 0 0-.08 0zm8.56 1.79a.12.12 0 0 0-.14.14V6a.12.12 0 0 0 .14.14h2.49a.56.56 0 0 1 .42.18.59.59 0 0 1 .17.42.58.58 0 0 1-.59.59h-2.49a.12.12 0 0 0-.14.14v1a.12.12 0 0 0 .14.14h1.48A1.19 1.19 0 0 1 81 9.76v2.49a2 2 0 0 1-.1.68.72.72 0 0 1-.36.39 2.43 2.43 0 0 1-1 .19.63.63 0 0 1-.42-.15.9.9 0 0 1-.27-.41.39.39 0 0 1 0-.37.36.36 0 0 1 .31-.16h.48a.24.24 0 0 0 .15 0 .18.18 0 0 0 0-.14V9.87a.12.12 0 0 0-.14-.14h-1.33a.12.12 0 0 0-.14.14V14a.59.59 0 0 1-.18.43.6.6 0 0 1-.44.18.57.57 0 0 1-.43-.18A.6.6 0 0 1 77 14V9.87a.12.12 0 0 0-.14-.14h-1.3a.12.12 0 0 0-.14.14v3a.57.57 0 0 1-.17.42.58.58 0 0 1-.82 0 .57.57 0 0 1-.17-.42V9.76a1.19 1.19 0 0 1 1.19-1.19h1.37a.12.12 0 0 0 .18-.13v-1a.12.12 0 0 0-.14-.14h-2.6a.59.59 0 0 1-.42-.17.56.56 0 0 1-.18-.42.61.61 0 0 1 .6-.6h.29a1 1 0 0 1-.55-.6.94.94 0 0 1-.07-.34.91.91 0 0 1 .1-.41 12.64 12.64 0 0 0 .7-2.11.65.65 0 0 1 .29-.4.6.6 0 0 1 .33-.1h.14a.54.54 0 0 1 .38.26.58.58 0 0 1 .1.31.47.47 0 0 1 0 .15l-.18.66a.08.08 0 0 0 0 .08.11.11 0 0 0 .09 0h.94a.12.12 0 0 0 .18-.07V2.43a.6.6 0 0 1 .13-.43.59.59 0 0 1 .43-.18A.61.61 0 0 1 78 2a.59.59 0 0 1 .18.44v1.1a.12.12 0 0 0 .14.14h1.94a.59.59 0 1 1 0 1.18zM74.77 6a.06.06 0 0 0 0 .08.08.08 0 0 0 .07 0h2A.12.12 0 0 0 77 6V5a.12.12 0 0 0-.14-.14h-1.41a.19.19 0 0 0-.19.12A6.22 6.22 0 0 1 74.77 6zm7.67-2.87a.6.6 0 0 1 1 .42v6.55a.6.6 0 0 1-1.2 0V3.57a.58.58 0 0 1 .2-.42zm2.28-.59a.63.63 0 0 1 1.26 0v10.38a2.29 2.29 0 0 1-.14.9.94.94 0 0 1-.49.47 4.18 4.18 0 0 1-1.59.25.84.84 0 0 1-.52-.18 1 1 0 0 1-.33-.49.47.47 0 0 1 0-.15.49.49 0 0 1 .1-.29.43.43 0 0 1 .37-.19h1.09a.3.3 0 0 0 .23-.07.35.35 0 0 0 .06-.23zm5.88-.15a.72.72 0 0 1 .66-.39h.21a.58.58 0 0 1 .37.33.61.61 0 0 1 .05.25.73.73 0 0 1 0 .23A21.37 21.37 0 0 1 90.76 5a.52.52 0 0 0-.07.26v8.65a.66.66 0 1 1-1.31 0V7.3h-.05q-.26.36-.55.7a.45.45 0 0 1-.36.18h-.1a.52.52 0 0 1-.4-.29 1.07 1.07 0 0 1-.13-.51.53.53 0 0 1 0-.12 1 1 0 0 1 .21-.63 15.45 15.45 0 0 0 2.6-4.24zm9.67 1.82a.59.59 0 0 1 .18.44.63.63 0 0 1-.63.63h-3.37a.12.12 0 0 0-.14.14v1.5a.12.12 0 0 0 .14.14h3.08a.59.59 0 0 1 0 1.19h-3.08a.12.12 0 0 0-.14.14V10a.12.12 0 0 0 .14.14h3.25a.6.6 0 0 1 .44.18.61.61 0 0 1-.44 1h-3.25a.12.12 0 0 0-.14.14v2.45a.68.68 0 0 1-.67.67.62.62 0 0 1-.46-.2.65.65 0 0 1-.19-.47v-8.5a.12.12 0 0 0-.14-.14h-.52a.19.19 0 0 0-.19.12 15.81 15.81 0 0 1-1.41 2.17.53.53 0 0 1-.45.22.6.6 0 0 1-.45-.18.65.65 0 0 1-.23-.51.62.62 0 0 1 .15-.41A15 15 0 0 0 94.1 2.5a.68.68 0 0 1 .33-.38.73.73 0 0 1 .33-.12h.18a.6.6 0 0 1 .44.56.62.62 0 0 1 0 .22q-.23.6-.45 1.08a.09.09 0 0 0 0 .08A.08.08 0 0 0 95 4h4.87a.62.62 0 0 1 .4.21z"/><path class="b" d="M105.23 19.91a.08.08 0 0 0-.08-.12l-.07.17zm-.63-.31c-.11.08-.24.22-.17.37.11-.16.14-.09.25-.28.09 0 .16.05.15.11s.15 0 .2-.07a.32.32 0 0 0-.44 0s0-.1.01-.13zm-9.14-.25h.06zm-5.66-.1h.06s-.07-.01-.06 0zm-.97-.18h.06s-.05-.01-.06 0zm6.63.28l-.15-.05c-.01.05.07.03.15.05zm7.88.65h.08-.08zM98 19.21v-.07zm1.87-.02s-.06.13-.08.2a.15.15 0 0 1 .09-.1.28.28 0 0 0-.01-.1zm3.04.24h.05zm-6.33-.25a.13.13 0 0 0 0-.05.09.09 0 0 0 0 .05zM43 20.24zm-2.23-.7a.62.62 0 0 0 0-.08zm46.29-.65s.03-.01 0 0zM70.81 19c.18.13-.3.16 0 .3-.05-.06.19-.22 0-.3zm32.48 1zm-32.5-.7zM83 19zm3 .18h-.07zm-4.6 0h-.11s.07-.03.11 0zm-1.64 0h.05zM48 20.17a.41.41 0 0 1-.08-.13c.01.1-.23.14.08.13zm55.34-.25v.06h.05a.06.06 0 0 0-.05-.06zm-22 .36h-.26zm-21.58-.13h-.06a.07.07 0 0 0 .06 0zm20.54.13a.37.37 0 0 0-.15-.1zM47.91 20z"/><path class="b" d="M46.19 20.38c.25 0 .12-.18.17-.29.3-.05.14.14.24.23s.33-.22.47-.21 0 0 0 .08c.2-.15.58 0 .81-.19a.54.54 0 0 1 0-.25c.11 0 .21-.12.25 0s-.07 0-.11.08l.12-.05c.1.17-.16.06-.16.19.23-.06.49-.2.67-.15s-.41.06-.18.21l-.28-.03c.21.27-.16 0 0 .27.36 0 .4-.09.75 0 .08-.09 0-.14.05-.23.5-.17.4.43.77.2.1-.11.13-.33.4-.21l-.09.19c.34 0 .2-.28.56-.15-.06.08-.27.06-.22.09.23.15.17-.11.34-.11v.17c.37 0 .77-.15 1.18-.18 0 .05-.09.1 0 .16a4.55 4.55 0 0 1 1.58.12l.19-.15s.08.07 0 .09c.19.06 0-.09.1-.15s.14.08.08.13a2.14 2.14 0 0 1 1.32-.11h-.07c.28.06.31-.3.57-.16a6 6 0 0 1 1.73.15c.09-.21.6.09.64-.2.34.15.25.2.73.3.13 0 .19-.18.35-.21v.15l.22-.16.12.18h.15c-.06 0-.13-.07-.12-.11a.6.6 0 0 1 .58.19l.56-.13c0 .06-.11.08-.18.12.3-.16.05.16.33 0v-.12a1.11 1.11 0 0 0 .67.05v.11c.41 0 .87-.05 1.33 0a.13.13 0 0 1 0-.25l.05.16c.09-.1-.14-.06 0-.18s.12.19 0 .24l.21-.06v.14c.09-.1.36.16.49 0 .46 0 .67-.05 1-.06 0-.14.15-.11.27-.22a4.45 4.45 0 0 0 .92.14c.23-.07.07-.12.17-.2 0 .13.35.12.18.21a5.06 5.06 0 0 0 1-.13c-.05-.05-.12-.08-.08-.12s.21.05.2.12c.57-.19 1.31.37 1.77.11l.47-.14c.22 0-.13.1 0 .18.51-.21.8 0 1.22-.11.32.38 1.15 0 1.58.21v-.09c.11-.09.14.05.22.07s-.12-.08-.05-.13a15.74 15.74 0 0 1 2.95.21c.36 0 .2-.46.65-.25l-.03.16c.72-.2 1.48 0 2.18-.16 0 0 0 .09-.11.09.15.12.55 0 .55-.09s0 .09.09.14.38-.15.46 0 0 0-.07 0 .45 0 .36-.12c.27.07.51-.06.72 0 .14-.15.45.07.5-.14 0 .23.47.18.63.08-.06.07.15.07.08.17.19 0 .37 0 .33-.16.35.27.71-.22.91.13a15.05 15.05 0 0 1 1.58-.24c0 .23-.57 0-.54.26a3.74 3.74 0 0 1 1.25-.26c.12 0-.07.1-.11.14.48-.09.94 0 1.37-.1l-.09.06c-.09.06.2 0 .19-.07h-.08c-.14-.15.34-.31.35-.39-.14.29.43.07.2.45.06 0 .13-.07.11-.14s.11.06 0 .14c.3-.06.2-.16.47-.16 0 0-.06.07-.08.13a.63.63 0 0 1 .51-.15s0 .07-.06.07c.4 0 .68-.26 1.12-.16-.13.22.15.07.17.26l.24-.06-.1-.09c.21 0 .39-.13.57-.07l-.15.08h.39l-.22-.07c.21-.1 0-.24.25-.18-.06 0 .21 0 .31.11a.42.42 0 0 1 .36-.08v.25c.1-.16.48 0 .61-.21a.17.17 0 0 0 0 .16l.08-.13c.1 0 .11.06.09.14.29 0-.09-.24.25-.13h-.07c.34.05.66-.08 1 0 .09.19-.28 0-.17.2a8.56 8.56 0 0 1 1.38-.18h-.08c.06-.27.33.13.55 0-.05 0-.07.15-.06.12a3.75 3.75 0 0 0 1.07-.15l-.06.07a4.73 4.73 0 0 0 .66.07c.06-.07.17-.06.1-.16.59.39 1.13-.21 1.65.12-.06 0-.15.06-.1.06l.45-.06c0-.12-.06-.07-.15-.16a.42.42 0 0 1 .29-.12c-.2.08 0 .19.09.25s0-.07 0-.11c.23.21 0-.23.36-.09v.06c.12 0 .23-.11.36-.09s-.13.06-.14.17c.18 0 .36-.25.52-.12-.08 0-.19 0-.26.07a.42.42 0 0 0 .33.14l.31.07h-.08c.23-.35.46-.06.77-.29-.3.22 0 .13-.07.28s.2.09.16.13c.14-.12.24.1.44-.08 0 0 .15 0 .12.13.19 0 0-.08 0-.15.29-.17.68.2 1.09 0s.42-.26.76-.34c.11.08-.09.18-.09.18a.65.65 0 0 0 .49 0s0 .08.05.13.09-.18.27-.11a.67.67 0 0 1-.14.2c.16 0 .32-.14.49-.18s-.1.13-.16.18c.19 0 .49-.08.54-.21h-.12c.07 0 0 .12 0 .14a.15.15 0 0 1-.24-.1h.12c-.12-.29-.48 0-.72 0l.1-.21-.25.17c-.05-.05-.09-.17 0-.2-.17-.1-.15.07-.3 0l-.17.06s0-.15.08-.12c-.3-.12-.49.16-.6 0-.42.07 0 .15-.35.33l-.21-.38v.15s-.13 0-.11-.08c-.16.1 0 .07-.07.17-.21-.14-.57.07-.62-.18-.07.12.2.09 0 .17-.06-.26-.26 0-.45-.08.06-.14.24-.06 0-.18-.11.23-.37 0-.53 0 0 .18-.35.08-.62.14 0-.06-.5-.1-.75-.17 0 .18-.31.15-.49.19a.2.2 0 0 1 .14-.2H98a.29.29 0 0 1-.21.11v-.14c-.23 0-.47.16-.77.07 0 .13.24.36-.08.44 0-.07 0-.19.06-.22s-.1.06-.15 0l.13-.12c-.14-.05-.07.1-.18.09s-.08-.07-.07-.15.1 0 .14 0a.52.52 0 0 1-.32-.15.11.11 0 0 1-.09.15c-.23 0-.08-.12-.22-.17s-.21 0-.21.15-.08-.07-.11-.11-.57 0-.43.18c-.4.15-.83-.08-1.22 0a2.68 2.68 0 0 0-.69.14c-.07 0-.16-.09-.13-.15a.6.6 0 0 1-.46 0c.18-.09-.06-.08.19-.06-.23 0-.29-.12-.54 0 .09-.13-.18-.16-.29-.12l.16.09a1.36 1.36 0 0 1-.35 0l.06-.17c-.48-.2-.86.34-1.23 0-.13.12.26.08.15.22-.22 0-.45-.26-.52-.26-.3-.09-.28.24-.6.18 0 .06.08.22-.16.27s-.27-.25-.13-.3.08 0 .08 0 .17 0 .08-.11v.06c-.11-.06-.41-.05-.34-.15-.17.06-.07.1.05.13a6.27 6.27 0 0 0-.73-.06s.09.1 0 .1c-.43-.07-.19.11-.48.14s.06-.22-.23-.14 0-.16 0-.21c-.27.11-.5-.08-.65-.1h.14a.62.62 0 0 1-.22 0l.08.12c-.08 0-.15 0-.15-.07s.06.2-.1.3c-.11-.06-.33.06-.37-.09.34.05 0-.16.25-.18a.37.37 0 0 1-.21 0c-.33-.14-.15.18-.49.17 0-.09-.08-.17-.13-.15.14 0 .07.15-.06.22s-.24.05-.35 0h.13c0 .09-.15.08-.31.11s.14 0 .08-.08c-.17.16-.38-.16-.62-.06-.11-.06 0-.17-.11-.21-.26.12-.29-.12-.56 0 .08.12.09.09-.1.21l.46-.08-.29.17c.14 0 .29-.08.37-.05-.14.1-.12.07-.06.17-.19-.18-.37.1-.59 0V19c-.33-.13-.58.15-1 .08l.14.05c-.06.12-.26 0-.4.06 0-.1-.07-.13-.13-.2s-.31 0-.35.19l-.19-.13c-.34-.05-.39.28-.72.25.1-.11-.05-.18.17-.25h-.21s-.31.13-.41 0-.06.15-.19.14-.19.07-.09.18c-.34-.31-1 0-1.25-.24-.24 0-.53.06-.75.07-.3-.09-.19.28-.53.18-.18-.16.18-.09.07-.15 0-.32-.41 0-.65-.15h.06c-.18-.11-.43.12-.72.1a1.93 1.93 0 0 1-.85.27c.09-.13.13-.07.07-.2s0 .21-.21.24c-.08-.07-.26-.13-.28-.27h.23c-.12-.18-.3 0-.43 0v-.08c-.36 0-.36.22-.75.21v.06c-.21.19-.18-.11-.39 0l-.06-.2a4.62 4.62 0 0 1-.74.23 2.24 2.24 0 0 1 .61-.31c-.14 0-.47 0-.54.11s.13-.07.18 0a.93.93 0 0 1-.67.23c0-.38-.72-.1-.92-.39a6.7 6.7 0 0 1-1.53 0c.2.3-.17 0-.13.31h-.19l-.4-.18c-.09-.09.13-.07.11-.14-.29 0-.12-.13-.31-.21 0 .11-.1.16-.27.11l.23.14c-.4.16-.35-.26-.76-.1l.13-.1c-.21.06-.77 0-1 .24 0 0-.09-.12 0-.14-.5 0-1.11.26-1.5.11v-.07c-.09 0-.16.14-.28.07s0-.07 0-.08-.25.13-.37.09l.11-.08c-.49-.1-.75.2-1.16.26 0-.22-.38-.29-.57-.33a6.41 6.41 0 0 0-1.49.27c-.33-.24-1.1-.1-1.63-.23.08 0 0 .17-.11.19s-.34.15-.32 0c-.09-.2-.35-.15-.54-.15v.26c-.52-.38-1.35.14-1.63-.2-.12.07-.28.07-.4.13v-.14a4.14 4.14 0 0 0-.94 0l.09-.1c-.24 0-.3.41-.53.42l.27-.43c-.42 0-.84-.18-1.26 0a.11.11 0 0 1 .09-.1c-.2 0-.76-.14-.69.15 0-.19-.43 0-.66.06v-.14c-.19.18-.2.23-.46.28-.06 0-.06-.11 0-.08-.21-.07-.16.13-.42.06l.1-.09c-.22 0-.2 0-.32.14s-.41 0-.44-.16a.25.25 0 0 1-.28.14s0-.08.05-.09c-.36-.09-.54.16-.79 0a.11.11 0 0 0 0-.08 3.27 3.27 0 0 1 .5 0c0-.13-.23-.15 0-.33-.19.1-.51.31-.73.25a.21.21 0 0 0-.14 0 .67.67 0 0 0-.19 0c0-.11-.27-.06-.38-.06s-.14.12 0 .23h.43c-.09.07-.19.13-.32.05l-.16.23c-.16-.2-.47-.3-.51-.42-.35.08-.83.05-1.06.32-.1 0-.12-.08-.15-.12s.13 0 .16-.06c-.2.07-.6 0-.65.21-.25-.08.14-.17-.21-.14v-.06c-.69-.29-1.12.47-1.88.09.05 0 .08 0 .09.06-.87-.17-1.79.16-2.64-.11-.24-.05-.27.06-.42.15l-.05-.15-.25.17c-.36.13-.62-.37-1.08-.13l.06.1c-.16 0-.52.06-.49-.06s-.05.11-.12.05v-.08l-.4.14c-.31-.06 0-.31-.41-.33-.17 0-.48.23-.42.28s.17 0 .18.13h-.15c0 .23-.15.47.23.63l.26-.13.08.11h-.22c.13.11.21 0 .3-.05a.2.2 0 0 0 .11.12l.26-.22c0 .09-.12.18.06.23.12-.1-.12-.2.08-.27.13.11.09.19.24.1 0 .06 0 .1-.07.12.13-.07.35 0 .42-.15.13.13.45 0 .43.19a.71.71 0 0 1 .35-.18c-.22.26.46 0 .4.3.16-.24.59-.11.88-.24 0 0 0 .06-.07 0a.86.86 0 0 1 .32.14c0-.2.28-.24.41-.36.2.19-.12.23-.06.41 0-.16.35-.16.28-.29.15.12.13.06.21.22 0-.24.14 0 .27-.19.22.12.06.23.3.15s-.09.24-.09.24zM52 20zm.49 0h-.21s0-.1.05-.1.08.01.15.05zm-1-1h.11-.14a.2.2 0 0 1-.01 0zm-.18.16zm44.22.21z"/><path class="b" d="M59.22 20.22v-.04l-.05.03.05.01zm38.99-.37zm1.16.03l.16.05zm.9.12a.22.22 0 0 0 0-.06zm-14.19.12c-.08.03-.08.02 0 0zm4.22-.33l-.14.07c.08.01.14.01.14-.07zm-8.93.5z"/><path class="b" d="M90 19.85a.28.28 0 0 0 .2 0 .42.42 0 0 0-.2 0zm14.13.15zm.05 0s.01 0 0 0zm.15-.05h-.1s.08.05.1 0zM103 20zm-.41 0c.09 0 .21.11.33.08-.04 0-.24-.2-.33-.08zm-1.49-.66h.3c-.05-.05-.12-.13 0-.14-.4-.13.09.16-.3.14zm-.94-.08c.16 0 0-.08 0-.11s-.16.06 0 .11zm-6.74 0v-.13c-.1.02.02.05 0 .13zm-1.28.66l.12.08.05-.12-.17.04zm-.77-.91l.06-.02-.21.04.15-.02zm-11.32.04v.16c.13-.03.14-.21 0-.16zm-4.88.16a.19.19 0 0 0-.28-.05c.11.01.22.07.28.05zm-14.66-.26l.1-.05-.19.05h.09z"/><path class="c" d="M0 0h146v21H0z"/></svg>