<svg xmlns="http://www.w3.org/2000/svg" width="146" height="21" viewBox="0 0 146 21"><defs><style>.a{fill:#5d0e5a}.b{fill:#6d2e6a}.c{fill:none}</style></defs><title>txt_product</title><path class="a" d="M59.69 5.65a.12.12 0 0 0 .14-.14v-.35a.12.12 0 0 0-.14-.16h-2.42a.45.45 0 0 1-.33-.14.45.45 0 0 1 0-.64.45.45 0 0 1 .33-.14h.37a.77.77 0 0 1-.34-.46 1.4 1.4 0 0 1 0-.19.79.79 0 0 1 .1-.43 7.76 7.76 0 0 0 .45-.92.58.58 0 0 1 .27-.31.53.53 0 0 1 .4 0 .46.46 0 0 1 .29.23.44.44 0 0 1 0 .37l-.05.14v.05h.9a.08.08 0 0 0 .1-.1v-.32a.56.56 0 1 1 1.12 0v.29c0 .06 0 .1.11.1h1.87a.44.44 0 0 1 .44.44.44.44 0 0 1-.44.44h-1.78a.12.12 0 0 0-.14.14V4a.12.12 0 0 0 .14.14h2.24a.43.43 0 0 1 .32.14.46.46 0 0 1 0 .64.43.43 0 0 1-.32.14h-2.24a.12.12 0 0 0-.14.14v.36a.12.12 0 0 0 .14.14h1.19a1.19 1.19 0 0 1 1.19 1.19v.46a1.29 1.29 0 0 1-.08.52.56.56 0 0 1-.31.27 2.56 2.56 0 0 1-.92.14.59.59 0 0 1-.56-.41.25.25 0 0 1 0-.25.25.25 0 0 1 .23-.12h.42a.25.25 0 0 0 .12 0 .12.12 0 0 0 0-.1v-.7a.12.12 0 0 0-.14-.14h-1.14a.12.12 0 0 0-.14.14v1.4a.56.56 0 1 1-1.12 0V6.62a.12.12 0 0 0-.14-.14h-1.07a.12.12 0 0 0-.14.14V7.8a.48.48 0 0 1-.15.36.53.53 0 0 1-.72 0 .48.48 0 0 1-.15-.36v-1a1.19 1.19 0 0 1 1.19-1.19zm7.56 4.83a.82.82 0 0 1 .48-.15.76.76 0 0 1 .46.15.39.39 0 0 1 .18.33.35.35 0 0 1-.18.32 16.53 16.53 0 0 1-1.93 1 .08.08 0 0 0 0 .06v.06a8.47 8.47 0 0 0 2.61 1 .34.34 0 0 1 .27.23.39.39 0 0 1-.05.37 1.07 1.07 0 0 1-.42.36.73.73 0 0 1-.33.08h-.19A7.42 7.42 0 0 1 63 10.41q-.05-.12-.16 0a9.92 9.92 0 0 1-1.6.94.22.22 0 0 0-.12.21v1.22a.11.11 0 0 0 0 .09.14.14 0 0 0 .1 0l2.34-.36a.47.47 0 0 1 .37.1.45.45 0 0 1 .18.33.53.53 0 0 1-.13.39.61.61 0 0 1-.36.21l-2.5.38-2 .3a.58.58 0 0 1-.41-.1.53.53 0 0 1-.23-.36.48.48 0 0 1 .1-.4.52.52 0 0 1 .36-.21l.72-.1a.14.14 0 0 0 .14-.15v-.86a.09.09 0 0 0 0-.08.12.12 0 0 0-.1 0q-.93.33-1.87.56h-.16a.84.84 0 0 1-.33-.07 1.06 1.06 0 0 1-.4-.33.32.32 0 0 1 .06-.32.31.31 0 0 1 .26-.21 14.54 14.54 0 0 0 4.09-1.38h-3.97A.49.49 0 0 1 57 10a.51.51 0 0 1-.16-.37.49.49 0 0 1 .16-.37.51.51 0 0 1 .36-.15h4.95a.07.07 0 0 0 .1-.11.64.64 0 0 1 .18-.46.64.64 0 0 1 .92 0 .64.64 0 0 1 .18.46.07.07 0 0 0 .08.08h5a.51.51 0 0 1 .36.15.49.49 0 0 1 .16.36.51.51 0 0 1-.16.37.49.49 0 0 1-.36.16h-4.48a.09.09 0 0 0-.07 0 .06.06 0 0 0 0 .08 5.09 5.09 0 0 0 1 1.24.18.18 0 0 0 .22 0 19.83 19.83 0 0 0 1.81-.96zM57.94 4a.07.07 0 0 0 .05.11h1.7a.12.12 0 0 0 .13-.11v-.46a.12.12 0 0 0-.14-.14h-1.22a.22.22 0 0 0-.21.12zm6.69-1.7a.58.58 0 0 1 .37-.17.58.58 0 0 1 .58.59v3.47a.57.57 0 0 1-.17.42.56.56 0 0 1-.41.17.58.58 0 0 1-.42-.17.56.56 0 0 1-.18-.42V2.71a.56.56 0 0 1 .22-.41zm3.1-.42l.17-.18h.25a.61.61 0 0 1 .6.6v5.09a1.59 1.59 0 0 1-.12.7.84.84 0 0 1-.44.38 4.89 4.89 0 0 1-1.49.18.72.72 0 0 1-.44-.15.91.91 0 0 1-.29-.4.36.36 0 0 1 0-.34.33.33 0 0 1 .29-.16h1a.37.37 0 0 0 .21-.06.2.2 0 0 0 .05-.16V2.3a.59.59 0 0 1 .2-.42zm5.92.36a.74.74 0 0 1 .35-.37.72.72 0 0 1 .3-.07h.21a.58.58 0 0 1 .37.33.61.61 0 0 1 .05.25.73.73 0 0 1 0 .23 21.37 21.37 0 0 1-1.08 2.2.52.52 0 0 0-.07.26v8.65a.66.66 0 1 1-1.31 0V7.14h-.05q-.26.36-.55.7a.45.45 0 0 1-.36.18h-.1a.52.52 0 0 1-.4-.29 1.07 1.07 0 0 1-.13-.51.52.52 0 0 1 0-.12 1 1 0 0 1 .25-.59 15.45 15.45 0 0 0 2.52-4.27zm9.67 1.82a.58.58 0 0 1 .18.44.63.63 0 0 1-.63.63H79.5a.12.12 0 0 0-.14.14v1.5a.12.12 0 0 0 .14.14h3.08a.59.59 0 0 1 0 1.19H79.5a.12.12 0 0 0-.14.14v1.57a.12.12 0 0 0 .14.14h3.25a.6.6 0 0 1 .44.18.61.61 0 0 1 0 .86.6.6 0 0 1-.44.18H79.5a.12.12 0 0 0-.14.14v2.45a.68.68 0 0 1-.67.67.62.62 0 0 1-.46-.2.65.65 0 0 1-.19-.47v-8.5a.12.12 0 0 0-.14-.14h-.52a.19.19 0 0 0-.19.12 15.81 15.81 0 0 1-1.41 2.17.53.53 0 0 1-.45.22.6.6 0 0 1-.44-.18.65.65 0 0 1-.26-.45.61.61 0 0 1 .15-.41 15 15 0 0 0 2.37-4.21.68.68 0 0 1 .32-.38.73.73 0 0 1 .33-.08h.2a.6.6 0 0 1 .44.56.62.62 0 0 1 0 .22q-.23.6-.45 1.08a.09.09 0 0 0 0 .08.08.08 0 0 0 .07 0h4.87a.62.62 0 0 1 .39.19z"/><path class="b" d="M92.46 19.75v-.12.17zm-.38-.3a.42.42 0 0 0-.1.37c.07-.16.08-.09.15-.28.06 0 .1.05.09.11s.09 0 .12-.07-.17-.13-.26 0 0-.1 0-.13zm-5.52-.26zm-3.42-.09s0-.02 0 0zm-.58-.18s.01-.02 0 0zm4 .27l-.09-.05c-.01.05.05.04.09.05zm4.76.66zm-3.25-.8v-.07zm1.16-.05v.2c0 .07 0-.09.06-.1a.47.47 0 0 0-.06-.1zm1.83.28zM87.24 19a.2.2 0 0 0 0-.05.13.13 0 0 0 0 .05zm-32.36 1.08s-.01 0 0 0zm-1.34-.7v-.08zm27.95-.65s.02-.01 0 0zm-9.81.11c.11.13-.18.16 0 .3-.03-.06.14-.22 0-.3zm19.61.99zm-19.62-.69zm7.33-.32a.2.2 0 0 0 0 .06.13.13 0 0 0 0-.06zm1.86.18zm-2.79 0H78h.07zm-.99 0zm-19.19 1a.51.51 0 0 1 0-.13c-.03.13-.17.13 0 .13zm33.43-.23v.06a.09.09 0 0 0 0-.06zM78 20.13h-.16zM65 20zm12.41.13a.26.26 0 0 0-.09-.1zm-19.56-.25z"/><path class="b" d="M56.81 20.22c.15 0 .07-.18.1-.29s.08.14.14.23.2-.22.28-.21 0 0 0 .08c.12-.15.35 0 .49-.19a.87.87 0 0 1 0-.25c.07 0 .13-.12.15 0s0 0-.06.08l.07-.05c.06.17-.1.06-.1.19.14-.06.3-.2.4-.15s-.25.06-.11.21l-.17-.02c.12.27-.1 0 0 .27.21 0 .24-.09.45 0v-.23c.3-.17.24.43.46.2.06-.11.08-.33.24-.21l-.05.19c.21 0 .12-.28.34-.15 0 .08-.16.06-.13.09s.1-.11.21-.11v.17c.22 0 .46-.15.71-.18 0 .05-.06.1 0 .16a1.71 1.71 0 0 1 1 .12l.11-.15v.09c0 .02 0-.09.06-.15s.09.08 0 .13c.21-.12.58-.27.8-.11.17.06.19-.3.35-.16.36.06.77-.07 1 .15.05-.21.36.09.38-.2.21.15.15.2.44.3.08 0 .12-.18.21-.21V20l.13-.16.07.18L65 20a.12.12 0 0 1-.07-.11c.14-.07.35.11.35.19l.34-.13c0 .06-.06.08-.11.12.18-.16 0 .16.2 0v-.12a.43.43 0 0 0 .41.05v.11c.25 0 .53-.05.8 0-.1 0-.08-.23 0-.25v.16c.05-.1-.09-.06 0-.18s.07.19 0 .24l.13-.06v.14c.05-.1.22.16.29 0 .28 0 .41-.05.63-.06 0-.14.09-.11.16-.22a1.74 1.74 0 0 0 .55.14c.14-.07 0-.12.1-.2 0 .13.21.12.11.21a1.92 1.92 0 0 0 .61-.13c0-.05-.07-.08-.05-.12s.13.05.12.12c.34-.19.79.37 1.07.11l.28-.14c.13 0-.08.1 0 .18.31-.21.48 0 .74-.11.19.38.69 0 1 .21v-.09c.07-.09.08.05.13.07s-.07-.08 0-.13a5.84 5.84 0 0 1 1.78.21c.22 0 .12-.46.4-.25l-.08.17c.44-.2.89 0 1.32-.16 0 0 0 .09-.07.09s.33 0 .33-.09 0 .09.06.14.23-.15.27 0 .27 0 .22-.12c.16.07.31-.06.43 0 .08-.15.27.07.3-.14 0 .23.28.18.38.08 0 .07.09.07 0 .17.12 0 .22 0 .2-.16.21.27.43-.22.55.13a5.86 5.86 0 0 1 1-.26c0 .23-.34 0-.33.26.29-.09.46-.29.75-.23.08 0 0 .1-.07.14.29-.09.57 0 .83-.1l-.06.06c-.06.06.12 0 .11-.07h-.05c-.08-.15.2-.31.21-.39-.09.29.26.07.12.45a.14.14 0 0 0 .07-.14c.05 0 .07.06 0 .14.18-.06.12-.16.29-.16 0 0 0 .07-.05.13.08-.1.17-.19.31-.15s0 .07 0 .07c.24 0 .41-.26.68-.16-.08.22.09.07.1.26l.14-.06-.06-.09c.13 0 .24-.13.34-.07l-.09.08h.23l-.13-.07c.13-.1 0-.24.15-.18 0 0 .13 0 .19.11.06-.06.13-.12.22-.08s0 .21 0 .25c.06-.16.29 0 .37-.21a.27.27 0 0 0 0 .16l.05-.13c.06 0 .07.06.06.14.17 0-.06-.24.15-.13.21.05.4-.08.59 0s-.17 0-.1.2c.28 0 .57-.23.84-.18 0-.27.2.13.33 0v.12c.18 0 .37-.07.65-.15v.07c.11.06.28 0 .4.07s.1-.06.06-.16c.36.39.68-.21 1 .12 0 0-.09.06-.06.06l.27-.06c0-.12 0-.07-.09-.16a.22.22 0 0 1 .18-.12c-.12.08 0 .19.05.25s0-.07 0-.11c.14.21 0-.23.22-.09v.06c.07 0 .14-.11.22-.09s-.08.06-.08.17.22-.25.31-.12-.11 0-.16.07c.11.16.12.12.2.14l.19.07c.14-.35.28-.06.46-.29-.18.22 0 .13 0 .28s.12.09.1.13c.09-.12.15.1.27-.08 0 0 .09 0 .07.13.11 0 0-.08 0-.15.17-.17.41.2.66 0s.26-.26.46-.34c.07.08-.06.18-.06.18a.25.25 0 0 0 .29 0v.13c0 .05.06-.18.16-.11a.77.77 0 0 1-.08.2c.1 0 .19-.14.29-.18s-.06.13-.1.18.29-.08.33-.21h-.07v.14c0 .02-.14 0-.15-.1h.07c-.07-.29-.29 0-.43 0l.06-.21-.15.17c0-.05-.05-.17 0-.2-.1-.1-.09.07-.18 0l-.1.06v-.12c-.18-.12-.29.16-.36 0-.25.07 0 .15-.21.33l-.13-.38v.15s-.08 0-.07-.08c-.1.1 0 .07 0 .17-.13-.14-.35.07-.37-.18 0 .12.12.09 0 .17 0-.26-.15 0-.27-.08s.14-.06 0-.18c-.07.23-.22 0-.32 0s-.21.08-.37.14c0-.06-.3-.1-.46-.17 0 .18-.18.15-.3.19a.22.22 0 0 1 .09-.2h-.46a.18.18 0 0 1-.13.11L88 19c-.14 0-.29.16-.47.07 0 .13.15.36 0 .44v-.22c0-.03-.06.06-.09 0l.08-.12c-.08-.05 0 .1-.11.09s0-.07 0-.15.06 0 .08 0a.29.29 0 0 1-.2-.15c0 .06 0 .13-.05.15s0-.12-.13-.17-.12 0-.13.15 0-.07-.06-.11-.34 0-.26.18c-.24.15-.5-.08-.74 0-.14.06-.32 0-.42.14s-.1-.09-.08-.15-.12.09-.28 0c.11-.09 0-.08.11-.06-.14 0-.17-.12-.33 0 .05-.13-.11-.16-.17-.12l.1.09a.5.5 0 0 1-.21 0v-.17c-.29-.2-.52.34-.74 0-.08.12.16.08.09.22-.13 0-.27-.26-.31-.26s-.17.24-.36.18a.2.2 0 0 1-.1.27c-.13 0-.16-.25-.08-.3s.1 0 0-.11v.06c-.07-.06-.25-.05-.21-.15-.1.06 0 .1 0 .13-.17-.09-.27 0-.44-.06 0 0 .05.1 0 .1-.26-.07-.11.11-.29.14s0-.22-.14-.14 0-.16 0-.21c-.16.11-.3-.08-.39-.1h.08a.24.24 0 0 1-.13 0v.12s-.09 0-.09-.07 0 .2-.06.3c-.07-.06-.2.06-.22-.09.21.05 0-.16.15-.18a.14.14 0 0 1-.12 0c-.2-.14-.09.18-.3.17 0-.09 0-.17-.08-.15s0 .15 0 .22-.14.05-.21 0h.08c0 .09-.09.08-.19.11s.08 0 .05-.08c-.1.16-.23-.16-.37-.06-.07-.06 0-.17-.06-.21-.16.12-.17-.12-.34 0 0 .12.06.09-.06.21l.28-.08-.18.17c.08 0 .18-.08.23-.05s-.08.07 0 .17c-.11-.18-.23.1-.36 0v-.3c-.2-.13-.35.15-.61.08l.08.05c0 .12-.16 0-.24.06s0-.13-.08-.2-.19 0-.21.19l-.11-.13c-.21-.05-.24.28-.44.25.06-.11 0-.18.1-.25h-.13s-.19.13-.25 0 0 .15-.11.14-.12.07-.05.18c-.21-.31-.57 0-.75-.24a3 3 0 0 1-.45.07c-.18-.09-.11.28-.32.18s.11-.09 0-.15c0-.32-.25 0-.39-.15-.11-.11-.26.12-.43.1a.89.89 0 0 1-.51.27c.05-.13.08-.07 0-.2s0 .21-.13.24-.16-.13-.17-.27H75c-.07-.18-.18 0-.26 0V19c-.22 0-.22.22-.45.21v.06c-.13.19-.11-.11-.23 0v-.2a2.09 2.09 0 0 1-.45.23c.09-.15.26-.22.37-.31-.08 0-.28 0-.33.11s.08-.07.11 0a.45.45 0 0 1-.4.23c0-.38-.43-.1-.55-.39-.29.14-.58-.06-.92 0 .12.3-.1 0-.08.31h-.12l-.27-.25c-.06-.09.08-.07.07-.14-.17 0-.07-.13-.19-.21 0 .11-.06.16-.16.11l.14.14c-.24.16-.21-.26-.46-.1l.08-.1c-.13.06-.47 0-.59.24 0 0-.05-.12 0-.14-.3 0-.67.26-.9.11v-.07c-.06 0-.1.14-.17.07s0-.07 0-.08-.15.13-.22.09l.06-.08c-.29-.1-.45.2-.7.26 0-.22-.23-.29-.35-.33-.34 0-.58.18-.9.27-.2-.24-.67-.1-1-.23 0 0 0 .17-.06.19s-.21.15-.19 0c-.06-.2-.21-.15-.33-.15v.26c-.31-.38-.82.14-1-.2-.08.07-.17.07-.24.13v-.14a1.52 1.52 0 0 0-.57 0l.05-.1c-.15 0-.18.41-.32.42v-.21c-.25 0-.51-.18-.76 0 0 0 0-.09.05-.1-.12 0-.46-.14-.42.15 0-.19-.26 0-.4.06v-.14c-.12.18-.12.23-.28.28s0-.11 0-.08c-.13-.07-.1.13-.25.06l.06-.09c-.13 0-.12 0-.19.14s-.25 0-.27-.16c0 .08-.09.18-.17.14A.09.09 0 0 1 61 19c-.22-.09-.33.16-.48 0a.13.13 0 0 0 0-.08 1.21 1.21 0 0 1 .3 0c0-.13-.14-.15 0-.33-.11.1-.31.31-.44.25a.08.08 0 0 0-.09 0 .27.27 0 0 0-.11 0c0-.11-.16-.06-.23-.06s-.09.12 0 .23 0 0 .06 0h.2c-.06.07-.11.13-.19.05l-.1.23c-.1-.2-.28-.3-.31-.42-.21.08-.5.05-.64.32-.06 0-.07-.08-.09-.12s.08 0 .1-.06-.36 0-.39.21c-.15-.08.09-.17-.12-.14v-.06c-.41-.29-.67.47-1.13.09l.05.06c-.52-.17-1.08.16-1.6-.11-.15-.05-.16.06-.25.15v-.15l-.15.17c-.22.13-.38-.37-.65-.13v.1c-.1 0-.31.06-.3-.06s0 .11-.07.05v-.08l-.24.14c-.19-.06 0-.31-.25-.33-.1 0-.29.23-.25.28a.13.13 0 0 1 .11.13h-.09c0 .23-.09.47.14.63l.16-.14.05.11h-.13c.08.11.12 0 .18-.05a.2.2 0 0 0 .07.12l.16-.22c0 .09-.07.18 0 .23.07-.1-.07-.2.05-.27.08.11.05.19.14.1a.11.11 0 0 1 0 .12c.08-.07.21 0 .25-.15.08.13.27 0 .26.19a.42.42 0 0 1 .21-.18c-.13.26.27 0 .24.3.1-.24.36-.11.53-.24 0 0 0 .06 0 0s.13.09.19.14c0-.2.17-.24.25-.36.12.19-.07.23 0 .41 0-.16.21-.16.17-.29.09.12.08.06.13.22 0-.24.09 0 .16-.19.13.12 0 .23.18.15s-.23.26-.23.26zm3.5-.42zm.29 0h-.13v-.1s.1.05.14.09zm-.62-1h.07-.08a.28.28 0 0 1 .03.02zm-.08.2zm26.7.21z"/><path class="b" d="M64.68 20.06v-.03l-.03.03h.03zm23.54-.37zm.71.03l.1.05zm.53.07a.36.36 0 0 0 0-.06zM80.9 20s-.04 0 0 0zm2.55-.37l-.08.07s.08.01.08-.07zm-5.4.5zm5.2-.43a.11.11 0 0 0 .12 0 .16.16 0 0 0-.12 0zm8.55.16zm.03-.02s0-.01 0 0zm.09-.05h-.06s.04.04.06 0zm-.83 0v.05a.16.16 0 0 0 0-.05zm-.22.02c.05 0 .13.11.2.08-.07.03-.15-.17-.2-.08zm-.87-.63h.18c0-.05-.07-.13 0-.14-.25-.12.02.16-.18.14zm-.6-.08c.1 0 0-.08 0-.11s-.07.06 0 .11zm-4.07 0V19c-.06 0 .01 0 0 .1zm-.78.66l.08.08.03-.12-.11.04zm-.46-.91l.04-.02-.13.05.09-.03zm-6.83.04v.16c.07-.05.08-.2 0-.16zm-2.95.16c0-.08-.12-.13-.17-.05s.13.08.17.05zm-8.85-.25l.06-.05-.11.04.05.01z"/><path class="c" d="M0 0h146v21H0z"/></svg>