<svg xmlns="http://www.w3.org/2000/svg" viewBox="0 0 60.97 18.19"><defs><style>.cls-1{fill:#5d0e5a}.cls-2{fill:#6d2e6a}</style></defs><title>huyumi72</title><g id="レイヤー_2" data-name="レイヤー 2"><g id="text"><path class="cls-1" d="M15.49 3.14a.59.59 0 0 1-.42 1H11.6a.09.09 0 0 0 0 .06 14.24 14.24 0 0 0 2.05 1.44 13.48 13.48 0 0 0 1.76.85.42.42 0 0 1 .26.31.43.43 0 0 1-.1.4.92.92 0 0 1-.45.33.77.77 0 0 1-.25 0 .87.87 0 0 1-.3-.05q-.3-.14-.59-.3a.07.07 0 0 0-.08 0 .08.08 0 0 0 0 .07V12a.68.68 0 0 1-.67.67h-.33a.4.4 0 0 1-.41-.41H6.7l-.05.05a.42.42 0 0 1-.41.41H6a.65.65 0 0 1-.64-.72V7.36a.08.08 0 0 0 0-.07.07.07 0 0 0-.08 0q-.37.21-.75.38a.91.91 0 0 1-.31.05h-.23a1 1 0 0 1-.46-.33.46.46 0 0 1-.16-.39.4.4 0 0 1 .27-.31 11.36 11.36 0 0 0 1.79-.9 11 11 0 0 0 2-1.5.06.06 0 0 0 0-.1H3.91a.59.59 0 0 1-.42-1A.57.57 0 0 1 3.91 3h4.77a.12.12 0 0 0 .14-.14v-1a.11.11 0 0 0 0-.09.15.15 0 0 0-.1 0Q6.87 1.9 5.37 2a.6.6 0 0 1-.4-.15.82.82 0 0 1-.27-.4.41.41 0 0 1 0-.38.4.4 0 0 1 .3-.21A46.18 46.18 0 0 0 12.52 0h.27a1.26 1.26 0 0 1 .37.05 1.2 1.2 0 0 1 .53.33.39.39 0 0 1 .09.41.37.37 0 0 1-.31.27q-1.42.3-3.19.52a.14.14 0 0 0-.14.15v1.1a.12.12 0 0 0 .14.14h4.79a.57.57 0 0 1 .42.17zM5.63 7h7.94a14 14 0 0 1-3.35-2.58.06.06 0 0 0-.1 0v1.69a.67.67 0 0 1-1.34 0V4.47A12.34 12.34 0 0 1 5.63 7zm6.73 2.13a.12.12 0 0 0 .13-.13v-.73a.12.12 0 0 0-.14-.14H6.78a.12.12 0 0 0-.14.14V9a.12.12 0 0 0 .14.14zM6.64 11a.12.12 0 0 0 .14.14h5.58a.12.12 0 0 0 .14-.14v-.78a.12.12 0 0 0-.14-.14H6.78a.12.12 0 0 0-.14.14zm14.14-3.18a.59.59 0 0 1 .21 0 .52.52 0 0 1 .23.05.49.49 0 0 1 .27.34.55.55 0 0 1 0 .18.65.65 0 0 1-.08.31.68.68 0 0 1-.36.34l-3 1.35a.73.73 0 0 1-.27.05.7.7 0 0 1-.26-.05.62.62 0 0 1-.36-.37.61.61 0 0 1-.05-.25.63.63 0 0 1 .07-.29.66.66 0 0 1 .4-.37l1.05-.41a.19.19 0 0 0 .12-.19V4.72a.12.12 0 0 0-.14-.14h-.81a.59.59 0 0 1-.43-.18.61.61 0 0 1 0-.87.59.59 0 0 1 .43-.18h.81a.12.12 0 0 0 .14-.14V.83A.6.6 0 0 1 19 .4a.61.61 0 0 1 .86 0 .6.6 0 0 1 .14.43V3.2a.12.12 0 0 0 .14.14h.6a.58.58 0 0 1 .44.18.63.63 0 0 1 0 .88.58.58 0 0 1-.44.18h-.6a.12.12 0 0 0-.14.14V8a.08.08 0 0 0 0 .07.09.09 0 0 0 .08 0l.4-.07zm7.64-3.65a.73.73 0 0 1 .4 0l.25.08a.49.49 0 0 1 .28.23.44.44 0 0 1 0 .36A12.42 12.42 0 0 1 27.2 9.8a.12.12 0 0 0 0 .19 8.15 8.15 0 0 0 1 .81 8 8 0 0 0 1.12.64.5.5 0 0 1 .3.37.36.36 0 0 1 0 .14.51.51 0 0 1-.12.33 1 1 0 0 1-.51.36h-.23a.81.81 0 0 1-.34-.08A8.77 8.77 0 0 1 26.31 11a.12.12 0 0 0-.19 0 10.31 10.31 0 0 1-2.3 1.63.72.72 0 0 1-.3.07.62.62 0 0 1-.22 0 .88.88 0 0 1-.44-.31.58.58 0 0 1-.1-.31.66.66 0 0 1 0-.12.5.5 0 0 1 .27-.36 8.65 8.65 0 0 0 2.23-1.6.14.14 0 0 0 0-.21 14.2 14.2 0 0 1-1.79-3.61 10.67 10.67 0 0 1-1.86 6.13.52.52 0 0 1-.42.21.68.68 0 0 1-.68-.59v-.08a.6.6 0 0 1 .12-.37 6.62 6.62 0 0 0 .82-1.48A7.69 7.69 0 0 0 22 8.24q.15-.91.21-1.63t0-1.61V2a1.15 1.15 0 0 1 .35-.84 1.15 1.15 0 0 1 .84-.39h5.78a.6.6 0 0 1 .43.18.58.58 0 0 1 .18.44.58.58 0 0 1-.18.44.6.6 0 0 1-.43.18h-5.57a.12.12 0 0 0-.14.14V4a.12.12 0 0 0 .14.14h4.81zm-.53 1.35a.1.1 0 0 0 0-.1.1.1 0 0 0-.08 0h-3.18a.09.09 0 0 0-.08 0 .09.09 0 0 0 0 .08 10.43 10.43 0 0 0 1.61 3.27.09.09 0 0 0 .08 0 .12.12 0 0 0 .09 0 10.57 10.57 0 0 0 1.56-3.25zM40.7 1.38a.54.54 0 0 1 .41.05l.26.15a.55.55 0 0 1 .26.32.48.48 0 0 1 0 .4 11.29 11.29 0 0 1-2.64 3.14.07.07 0 0 0 0 .08.1.1 0 0 0 0 .08 18.17 18.17 0 0 0 4.43 1.6.39.39 0 0 1 .31.27.45.45 0 0 1 0 .18.42.42 0 0 1-.1.26 1.21 1.21 0 0 1-.48.41 1 1 0 0 1-.38.08h-.22a18 18 0 0 1-4.76-1.93.22.22 0 0 0-.23 0 18.49 18.49 0 0 1-5.3 2.32h-.21a.76.76 0 0 1-.34-.08 1 1 0 0 1-.42-.4.5.5 0 0 1-.07-.25.48.48 0 0 1 0-.19.45.45 0 0 1 .33-.29 17.17 17.17 0 0 0 4.83-1.94.06.06 0 0 0 0-.07.09.09 0 0 0 0-.08 12.53 12.53 0 0 1-1.87-1.72.1.1 0 0 0-.18 0 17.36 17.36 0 0 1-1.6 1.34.8.8 0 0 1-.46.15h-.1a.91.91 0 0 1-.48-.26.52.52 0 0 1-.16-.38.49.49 0 0 1 .23-.44 12.84 12.84 0 0 0 2-1.61 12.31 12.31 0 0 0 1.65-2 .93.93 0 0 1 .44-.36.88.88 0 0 1 .3-.05.71.71 0 0 1 .26.05.53.53 0 0 1 .34.33.55.55 0 0 1 0 .18.48.48 0 0 1-.08.27 1.71 1.71 0 0 1-.18.25.07.07 0 0 0 0 .06.05.05 0 0 0 .05 0h4.1zm-6.92 10a.42.42 0 0 1-.33-.26.39.39 0 0 1 0-.41 1 1 0 0 1 .48-.4 1 1 0 0 1 .42-.1h.18a49.75 49.75 0 0 1 6.34 1.41.5.5 0 0 1 .36.33.58.58 0 0 1 0 .21.55.55 0 0 1-.08.29 1 1 0 0 1-.77.44.77.77 0 0 1-.29-.05 45.06 45.06 0 0 0-6.31-1.44zm1.91-8.85a.3.3 0 0 0-.23.11.13.13 0 0 0 0 .21 10 10 0 0 0 2.11 1.86.17.17 0 0 0 .22 0 9.57 9.57 0 0 0 2-2.08.05.05 0 0 0 0-.07.07.07 0 0 0-.06 0zm.22 6a.43.43 0 0 1-.28-.27.37.37 0 0 1 .06-.38.92.92 0 0 1 .42-.31 1 1 0 0 1 .27 0 .77.77 0 0 1 .25 0 22.33 22.33 0 0 1 3 1.13.46.46 0 0 1 .29.34.36.36 0 0 1 0 .14.52.52 0 0 1-.11.31.7.7 0 0 1-.42.29h-.16a.68.68 0 0 1-.33-.08 19.24 19.24 0 0 0-2.99-1.11zm21.71.04l.16.16V9a.55.55 0 0 1-.16.4.56.56 0 0 1-.41.16H53a.07.07 0 0 0-.06 0 .05.05 0 0 0 0 .07q1.26 1.64 4.4 2a.4.4 0 0 1 .31.25.41.41 0 0 1 0 .4 1.22 1.22 0 0 1-.46.42.92.92 0 0 1-.44.11h-.15a8.35 8.35 0 0 1-3.07-1.07 5.55 5.55 0 0 1-1.92-2.06.07.07 0 0 0-.07 0 .07.07 0 0 0-.05 0 4.39 4.39 0 0 1-1.72 1.92 10 10 0 0 1-3.37 1.17h-.15a.85.85 0 0 1-.38-.1 1 1 0 0 1-.4-.41.41.41 0 0 1 0-.4.37.37 0 0 1 .31-.24 10.45 10.45 0 0 0 2.77-.79 3.69 3.69 0 0 0 1.5-1.23.08.08 0 0 0-.07-.12H45.8a.56.56 0 0 1-.4-.16.56.56 0 0 1 0-.81.56.56 0 0 1 .4-.16h4.53a.15.15 0 0 0 .16-.14 7.88 7.88 0 0 0 .15-.85.1.1 0 0 0 0-.1.11.11 0 0 0-.09 0h-4.64a.57.57 0 0 1-.42-.17.58.58 0 0 1 0-.82.57.57 0 0 1 .42-.17h4.74a.12.12 0 0 0 .14-.1v-.7a.12.12 0 0 0-.14-.14h-3.53a.56.56 0 1 1 0-1.12h3.53a.12.12 0 0 0 .14-.14v-.66a.12.12 0 0 0-.14-.14h-4.18a.57.57 0 0 1-.47-.17.58.58 0 0 1 0-.82.57.57 0 0 1 .42-.17h1.93a.08.08 0 0 0 .07 0 .09.09 0 0 0 0-.08A6.39 6.39 0 0 0 48 1a.46.46 0 0 1-.08-.41.43.43 0 0 1 .27-.3.85.85 0 0 1 .33-.07h.19a.83.83 0 0 1 .45.29 5.18 5.18 0 0 1 .57.89.33.33 0 0 1 0 .28.37.37 0 0 1-.21.21h3.78a.29.29 0 0 1-.21-.19.3.3 0 0 1 0-.29q.27-.38.51-.75a.89.89 0 0 1 .44-.4 1 1 0 0 1 .34-.07h.23a.5.5 0 0 1 .39.4.55.55 0 0 1 0 .18.49.49 0 0 1-.1.29q-.31.42-.63.79v.06a.07.07 0 0 0 .06 0h2.17a.57.57 0 0 1 .42.17.58.58 0 0 1 0 .82.57.57 0 0 1-.42.17h-4.24a.12.12 0 0 0-.14.14v.67a.12.12 0 0 0 .14.14H56a.56.56 0 1 1 0 1.12h-3.74a.12.12 0 0 0-.14.14V6a.12.12 0 0 0 .14.14H57a.57.57 0 0 1 .42.17.58.58 0 0 1 0 .82.57.57 0 0 1-.42.17h-4.83a.14.14 0 0 0-.15.14q-.08.53-.14.85a.1.1 0 0 0 0 .1.11.11 0 0 0 .09 0h5.22a.56.56 0 0 1 .43.18z"/><path class="cls-2" d="M61 17.71s0-.14-.07-.12l-.06.17zm-.64-.3c-.1.08-.22.22-.16.37.1-.16.13-.09.24-.28a.11.11 0 0 1 .14.11s.14 0 .19-.07a.29.29 0 0 0-.41 0s-.01-.1 0-.13zm-8.64-.26h.06zm-5.36-.09h.06s-.07-.06-.06 0zm-.91-.18h.05s-.04-.02-.05 0zm6.27.27l-.14-.05c-.02.05.07.04.14.05zm7.45.66h.08-.07zM54.08 17v-.07zm1.81 0s-.06.13-.07.2a.14.14 0 0 1 .09-.1.3.3 0 0 0-.02-.1zm2.87.24h.05zM52.78 17a.13.13 0 0 0 0-.05.1.1 0 0 0 0 .05zM2.11 18s-.02 0 0 0zM0 17.35a.72.72 0 0 0 0-.08zm43.77-.65s.03-.01 0 0zm-15.36.1c.17.13-.28.16 0 .3-.04-.1.22-.22 0-.3zm30.71.99zm-30.73-.69zm11.53-.32a.17.17 0 0 0 0 .06s.03-.03 0-.06zm2.87.22h-.07zm-4.36 0h-.1.1zm-1.56 0zM6.83 18a.41.41 0 0 1-.07-.13c.02.08-.21.13.07.13zm52.34-.27v.06h.05a.06.06 0 0 0-.05-.06zm-20.81.36h-.25zM18 18h-.06a.06.06 0 0 0 .06 0zm19.39.09a.35.35 0 0 0-.14-.1zm-30.64-.24z"/><path class="cls-2" d="M5.13 18.18c.24 0 .11-.18.16-.29.28-.05.13.14.23.23s.31-.22.44-.21S6 18 6 18c.19-.15.55 0 .77-.19a.58.58 0 0 1 0-.25c.11 0 .2-.12.24 0s-.07 0-.1.08l.09-.01c.1.17-.15.06-.15.19.22-.06.47-.2.63-.15s-.39.06-.17.21L7 17.81c.19.27-.16 0 0 .27.34 0 .38-.09.71 0 .08-.09 0-.14.05-.23.48-.17.38.43.72.2.09-.11.13-.33.38-.21l-.03.16c.33 0 .19-.28.53-.15-.06.08-.26.06-.21.09.22.15.16-.11.33-.11V18c.35 0 .73-.15 1.11-.18 0 .05-.09.1 0 .16a4.07 4.07 0 0 1 1.5.12l.18-.15s.08.07 0 .09c.18.06 0-.09.1-.15s.14.08.07.13a1.92 1.92 0 0 1 1.25-.11h-.07c.26.06.3-.3.54-.16a5.33 5.33 0 0 1 1.64.15c.08-.21.57.09.6-.2.33.15.23.2.69.3.12 0 .18-.18.33-.21V18l.21-.16.11.18h.14c-.06 0-.12-.07-.11-.11a.55.55 0 0 1 .55.19l.53-.13c0 .06-.1.08-.17.12.28-.16.05.16.31 0v-.12a1 1 0 0 0 .64.05v.11c.39 0 .82-.05 1.26 0a.13.13 0 0 1 0-.25l.05.16c.08-.1-.13-.06 0-.18s.11.19 0 .24l.2-.06v.14c.08-.1.34.16.46 0 .44 0 .64-.05 1-.06 0-.14.15-.11.25-.22a4 4 0 0 0 .87.14c.22-.07.06-.12.16-.2 0 .13.33.12.17.21a4.53 4.53 0 0 0 1-.13c-.05-.05-.11-.08-.08-.12s.2.05.19.12c.54-.19 1.24.37 1.67.11l.44-.14c.2 0-.12.1 0 .18.48-.21.76 0 1.15-.11.31.38 1.08 0 1.5.21v-.09c.11-.09.13.05.21.07S29.94 18 30 18a14.09 14.09 0 0 1 2.79.21c.34 0 .19-.46.62-.25l-.12.17c.68-.2 1.4 0 2.06-.16 0 0 0 .09-.11.09.14.12.52 0 .52-.09s0 .09.09.14.36-.15.43 0 0 0-.07 0 .43 0 .34-.12c.25.07.48-.06.68 0 .13-.15.43.07.47-.14 0 .23.44.18.6.08-.05.07.14.07.08.17.18 0 .35 0 .32-.16.33.27.67-.22.86.13a13.52 13.52 0 0 1 1.52-.26c0 .23-.53 0-.51.26a3.37 3.37 0 0 1 1.18-.23c.12 0-.07.1-.11.14.46-.09.89 0 1.29-.1l-.09.06c-.09.06.19 0 .18-.07h-.08c-.13-.15.32-.31.33-.39-.14.29.4.07.19.45.05 0 .12-.07.11-.14s.1.06 0 .14c.29-.06.19-.16.45-.16 0 0-.05.07-.08.13a.57.57 0 0 1 .49-.15s0 .07-.05.07c.38 0 .65-.26 1.06-.16-.12.22.14.07.16.26l.22-.06-.09-.09c.2 0 .37-.13.54-.07l-.15.08h.37l-.21-.07c.2-.1 0-.24.24-.18-.05 0 .2 0 .3.11a.38.38 0 0 1 .34-.08v.25c.1-.16.46 0 .58-.21a.18.18 0 0 0 0 .16l.08-.13c.09 0 .1.06.09.14.27 0-.09-.24.24-.13h-.07c.33.05.63-.08.93 0 .09.19-.26 0-.16.2a7.69 7.69 0 0 1 1.31-.18h-.08c.06-.27.31.13.52 0-.05 0-.07.15-.05.12a3.37 3.37 0 0 0 1-.15l-.05.07a4.24 4.24 0 0 0 .62.07c.05-.07.16-.06.09-.16.56.39 1.07-.21 1.56.12-.06 0-.14.06-.09.06l.42-.06c0-.12-.06-.07-.14-.16a.38.38 0 0 1 .28-.12c-.19.08 0 .19.08.25s0-.07 0-.11c.22.21 0-.23.34-.09v.06c.11 0 .22-.11.34-.09s-.12.06-.13.17c.17 0 .34-.25.49-.12-.07 0-.18 0-.25.07a.39.39 0 0 0 .31.14l.29.07h-.07c.21-.35.44-.06.72-.29-.28.22 0 .13-.07.28s.19.09.15.13c.14-.12.23.1.42-.08 0 0 .15 0 .12.13.18 0 0-.08 0-.15.27-.17.64.2 1 0s.4-.26.72-.34c.11.08-.09.18-.09.18a.58.58 0 0 0 .46 0s0 .08.05.13.09-.18.26-.11a.67.67 0 0 1-.13.2c.15 0 .3-.14.46-.18s-.1.13-.15.18c.18 0 .46-.08.52-.21h-.11c.06 0 0 .12 0 .14a.14.14 0 0 1-.23-.1h.11c-.12-.29-.45 0-.68 0l.09-.21-.23.17c0-.05-.08-.17 0-.2-.16-.1-.14.07-.28 0l-.16.06s0-.15.07-.12c-.28-.12-.46.16-.57 0-.4.07 0 .15-.33.33l-.2-.38v.15s-.12 0-.11-.08c-.15.1 0 .07-.06.17-.2-.14-.54.07-.58-.18-.07.12.19.09 0 .17-.06-.26-.24 0-.42-.08.06-.14.22-.06 0-.18-.11.23-.35 0-.5 0s-.33.08-.58.14c0-.06-.48-.1-.71-.17 0 .18-.29.15-.47.19a.2.2 0 0 1 .13-.2h-.17a.27.27 0 0 1-.2.11L54 17c-.22 0-.45.16-.73.07 0 .13.23.36-.08.44 0-.07 0-.19.06-.22s-.09.06-.14 0l.12-.12c-.13-.05-.07.1-.17.09s-.08-.07-.06-.15.09 0 .13 0a.48.48 0 0 1-.31-.15c0 .06 0 .13-.09.15s-.08-.12-.21-.17-.2 0-.2.15-.08-.07-.1-.11-.54 0-.41.18c-.38.15-.78-.08-1.15 0a2.42 2.42 0 0 0-.66.14c-.07 0-.16-.09-.13-.15a.54.54 0 0 1-.44 0c.17-.09-.06-.08.18-.06-.22 0-.27-.12-.51 0 .08-.13-.17-.16-.27-.12L49 17a1.22 1.22 0 0 1-.33 0l.06-.17c-.45-.2-.82.34-1.16 0-.12.12.25.08.14.22-.21 0-.43-.26-.49-.26-.29-.09-.27.24-.56.18 0 .06.07.22-.15.27s-.26-.25-.12-.3.07 0 .07 0 .16 0 .07-.11v.06c-.1-.06-.39-.05-.32-.15-.16.06-.07.1 0 .13-.27-.09-.42 0-.69-.06 0 0 .08.1 0 .1-.4-.07-.18.11-.45.14s.06-.22-.22-.14 0-.16 0-.21c-.25.11-.47-.08-.61-.1h.13a.56.56 0 0 1-.21 0l.08.12c-.08 0-.14 0-.14-.07s.06.2-.1.3c-.1-.06-.31.06-.35-.09.33.05 0-.16.24-.18a.33.33 0 0 1-.2 0c-.31-.14-.14.18-.47.17 0-.09-.07-.17-.13-.15.13 0 .06.15-.06.22s-.23.05-.33 0h.12c0 .09-.15.08-.29.1s.13 0 .08-.08c-.16.16-.36-.16-.58-.06-.1-.06 0-.17-.1-.21-.25.12-.27-.12-.53 0 .08.12.09.09-.1.21l.43-.08-.28.17c.13 0 .28-.08.35-.05-.13.1-.12.07-.06.17-.18-.18-.35.1-.56 0v-.3c-.31-.13-.55.15-1 .08l.13.05c-.05.12-.25 0-.38.06s-.07-.13-.12-.2-.29 0-.33.19l-.18-.13c-.33-.05-.37.28-.68.25.09-.11 0-.18.16-.25h-.2s-.29.13-.39 0-.06.15-.18.14-.18.07-.08.18c-.32-.31-.9 0-1.18-.24-.23 0-.5.06-.71.07-.29-.09-.18.28-.5.18-.17-.16.17-.09.07-.15 0-.32-.39 0-.61-.15h.05c-.17-.11-.41.12-.68.1a1.76 1.76 0 0 1-.8.27c.08-.13.12-.07.07-.2s0 .21-.2.24c-.08-.07-.25-.13-.27-.27h.22c-.11-.18-.29 0-.4 0v-.11c-.34 0-.34.22-.71.21v.06c-.2.19-.17-.11-.37 0l.19-.17a4.19 4.19 0 0 1-.7.23 2.07 2.07 0 0 1 .58-.31c-.13 0-.44 0-.51.11s.12-.07.17 0a.85.85 0 0 1-.63.23c0-.38-.68-.1-.87-.39-.46.14-.91-.06-1.45 0 .19.3-.16 0-.12.31h-.18l-.39-.26c-.09-.09.12-.07.11-.14-.27 0-.11-.13-.3-.21 0 .11-.09.16-.25.11l.22.14c-.38.16-.33-.26-.71-.1l.12-.1c-.2.06-.73 0-.92.24 0 0-.08-.12 0-.14-.47 0-1.05.26-1.42.11v-.07c-.09 0-.15.14-.26.07s0-.07 0-.08-.23.13-.35.09l.1-.08c-.46-.1-.71.2-1.09.26 0-.22-.36-.29-.54-.33a5.76 5.76 0 0 0-1.41.27c-.31-.24-1-.1-1.54-.23.08 0 0 .17-.1.19s-.32.15-.3 0c-.09-.2-.33-.15-.51-.15v.26c-.49-.38-1.28.14-1.54-.2-.12.07-.26.07-.38.13v-.14a3.7 3.7 0 0 0-.89 0l.08-.1c-.23 0-.29.41-.5.42l-.06-.21c-.4 0-.8-.18-1.19 0 0 0 0-.09.08-.1-.19 0-.72-.14-.65.15 0-.19-.41 0-.62.06v-.14c-.18.18-.19.23-.44.28-.06 0-.05-.11 0-.08-.2-.07-.16.13-.4.06l.09-.09c-.21 0-.19 0-.3.14s-.39 0-.42-.16a.23.23 0 0 1-.26.14v-.09c-.34-.09-.51.16-.75 0a.1.1 0 0 0 0-.08 2.92 2.92 0 0 1 .47 0c0-.13-.22-.15 0-.33-.18.1-.48.31-.69.25a.19.19 0 0 0-.14 0 .6.6 0 0 0-.18 0c0-.11-.25-.06-.36-.06s-.13.12 0 .23h.4c-.09.07-.18.13-.3.05l-.15.23c-.15-.2-.44-.3-.48-.42-.33.08-.79.05-1 .32-.1 0-.11-.08-.15-.12s.12 0 .15-.06c-.19.07-.56 0-.61.21-.24-.08.14-.17-.19-.14v-.06c-.65-.29-1.06.47-1.77.09 0 0 .07 0 .08.06-.82-.17-1.69.16-2.5-.11-.23-.05-.26.06-.4.15L3 17l-.24.17c-.34.13-.59-.37-1-.13l.06.1c-.15 0-.49.06-.46-.06s-.05.11-.11.05v-.08l-.38.14c-.29-.06 0-.31-.38-.33-.16 0-.46.23-.4.28s.17 0 .17.13H.11c0 .23-.14.47.22.63l.25-.14.08.11H.38c.12.11.2 0 .28-.05a.2.2 0 0 0 .1.12L1 17.8c0 .09-.11.18.05.23.12-.1-.11-.2.08-.27.12.11.08.19.23.1 0 .06 0 .1-.07.12.13-.07.33 0 .4-.15.13.13.42 0 .41.19a.66.66 0 0 1 .33-.18c-.21.26.43 0 .37.3.16-.24.56-.11.84-.24 0 0 0 .06-.07 0 .15 0 .2.09.3.14 0-.2.26-.24.39-.36.19.19-.12.23-.06.41 0-.16.33-.16.27-.29.15.12.13.06.2.22 0-.24.14 0 .26-.19.21.12.05.23.28.15s-.08.2-.08.2zm5.49-.42zm.46 0h-.2v-.1s.12.05.2.09zm-1-1h.11-.13a.21.21 0 0 1 .04.02zM10 17zm41.78.17z"/><path class="cls-2" d="M17.45 18.02v-.03l-.04.03h.04zm36.87-.36zm1.1.03l.16.05zm.84.07a.21.21 0 0 0 0-.06zm-13.41.16c-.11.08-.06.02 0 0zm3.99-.33l-.13.07c.07.01.13.01.13-.07zm-8.45.5z"/><path class="cls-2" d="M46.53 17.66a.25.25 0 0 0 .19 0 .38.38 0 0 0-.19 0zm13.39.16zm.08-.02s0-.01 0 0zm.1-.05H60s.08.04.1 0zm-1.3.01v.05a.11.11 0 0 0 0-.05zm-.34.01c.08 0 .2.11.32.08-.04.03-.24-.17-.32-.08zM57 17.14h.28c0-.05-.11-.13 0-.14-.28-.12.14.16-.28.14zm-.84-.08c.15 0 0-.08 0-.11s-.11.05 0 .11zm-6.37 0v-.13c-.1.07.02.07 0 .13zm-1.22.66l.12.08.05-.12-.17.04zm-.72-.91l.06-.02-.2.05.14-.03zm-10.7.05v.16c.12-.02.13-.21 0-.16zm-4.62.14a.18.18 0 0 0-.26-.05c.1.05.21.05.26.05zm-13.86-.24l.1-.05-.18.04.08.01z"/></g></g></svg>