<svg xmlns="http://www.w3.org/2000/svg" viewBox="0 0 43.19 17.8"><defs><style>.cls-1{fill:none;stroke:#e9528e;stroke-linecap:round;stroke-linejoin:round;stroke-width:.43px}</style></defs><title>txt_nav_07</title><g id="レイヤー_2" data-name="レイヤー 2"><g id="nav"><path class="cls-1" d="M8.69 16.17s.46-.28.46-.27-.13.89-.12.91 2.78-1.7 2.82-1.63-2.24 1.7-2.21 1.76 2.09-1.28 2.12-1.23-1.1 1.12-1.09 1.15.77-.47.78-.45M7.24 14L9 13s-.54 1-.52 1 1.71-1 1.74-1-1 1-1 1 1.71-1 1.73-1-.86 1-.84 1 1.34-.82 1.36-.78-.72 1.29-.7 1.33 1.18-.72 1.2-.69-1.28 1-1.26 1.08 1.28-.78 1.3-.75-1.46 1.21-1.43 1.25 1.34-.82 1.36-.78"/><path class="cls-1" d="M5.69 14.63c0 .07 2.79-1.71 2.83-1.64s-2.85 2.1-2.81 2.18 1.15-.7 1.16-.67-1.18 1-1.16 1.06 1.14-.7 1.16-.67-1.18 1-1.16 1 1.14-.7 1.16-.67-1.18 1.1-1.16 1.13 1.14-.7 1.16-.67-1.12 1.32-1.1 1.37 1.09-.67 1.1-.64-.65 1-.63 1.07.53-.32.54-.31m-6.35-.68s1.06-.65 1.07-.62-1 .95-1 1 6.57-4 6.67-3.85S.73 16.87.82 17s6.89-4.21 7-4-5.74 3.61-5.66 3.76 2.18-1.33 2.21-1.28M2 11.35s.68-.41.68-.4-1.25 1.6-1.22 1.64 3-1.84 3.06-1.77-3.4 2.79-3.34 2.88 1.43-.88 1.46-.84-1.11 1.37-1.09 1.4 2.17-1.32 2.2-1.26-.23 1-.22 1 1.71-1 1.73-1-.74 1-.72 1.07 2.31-1.41 2.35-1.36m.48-3.15s1.68-1 1.7-1-.33 1-.31 1 1.56-1 1.58-.91-.25 1-.24 1 1-.59 1-.56-1 1.16-.94 1.19 1.14-.7 1.16-.67m-4.08 2.22s1.7-1 1.73-1-.59 1-.57 1 2.88-1.76 2.92-1.69-1.44 1.62-1.42 1.67 1.23-.75 1.25-.72"/><path class="cls-1" d="M3.3 11.82s1.69-1 1.71-1-.82 1-.81 1 2.65-1.62 2.68-1.55-1.34 1.53-1.32 1.57 1.72-1.05 1.74-1-1.62 1.27-1.6 1.31S8 10.78 8 10.83s-2.3 1.87-2.26 1.94 1.14-.7 1.15-.67M1.32 8.89s.53-.33.54-.31-.55.67-.54.69 1.18-.72 1.2-.69-.37 1-.36 1 1.67-1 1.69-1-.12 1-.11 1 1.67-1 1.69-1-1.08.95-1.06 1 1.67-1 1.69-1-.63 1-.61 1 1.67-1 1.69-1-1.46 1.14-1.43 1.18 2-1.23 2-1.18-2.06 1.94-2 2 1.14-.7 1.16-.67m3.3-3.03s1.68-1 1.71-1-.16 1-.15 1 .84-.51.85-.49"/><path class="cls-1" d="M8 6.88s1.68-1 1.7-1-1 1.28-1 1.32 2.24-1.36 2.3-1.3-2 1.75-2 1.81.94-.58 1-.55-.59 1-.58 1 .85-.52.86-.5M7.31 5.14s.57-.35.58-.34-1.27 1.31-1.25 1.35 1.72-1.05 1.75-1"/><path class="cls-1" d="M4.11 6.88S5.55 6 5.57 6s-.64.82-.63.84 1-.58 1-.56 0 .54.05.55l.15-.09s-.43.62-.42.64 2.62-1.6 2.66-1.53-2.69 2-2.64 2 3.48-2.13 3.53-2S6.13 8.12 6.18 8.2s.73-.45.74-.43"/><path class="cls-1" d="M2.4 6.9s1.71-1 1.74-1S2.6 7.07 2.63 7.11 4.7 5.84 4.73 5.9s-1.94 1.58-1.9 1.63 1-.6 1-.58-.59 1.23-.57 1.25.81-.49.82-.47M1.75 5.16s.58-.36.59-.34S1 6.4 1 6.45s1.84-1.13 1.86-1.08S.28 7.26.32 7.33 2.77 5.84 2.81 5.9.26 8.07.3 8.14s1.51-.92 1.53-.89-1.2 1-1.18 1 .73-.45.74-.43m5.96 1.84l.15-.09s1.5.05 1.5.09l.16-.09s.73.08.74.09h.05s.05.57.06.58h.08s-.09.41-.08.42h.08m-3.21-.84L7 9.77s-.09.85-.08.87H7l.4.24.17-.1s.67.08.68.09l.16-.09s.74.07.75.09l.15-.09.5.08.15-.09m-6.69 1.14l.14-.08s1 .06 1 .08l.16-.09s.57.08.58.09l.17-.1.26.21h.06s-.07.74-.06.75h.08m-2.91-.66l.11-.11s-.25.67-.24.68l.14-.08.08.33.17-.1s1.34.07 1.36.1l.16-.09s.84.07.85.09l.15-.09"/><path class="cls-1" d="M2 8.57l.15-.08s.55.07.56.08l.15-.08.43.08.15-.08s1.14.06 1.16.08l.14-.08s.66.07.67.08l.14-.08s.63.07.64.08l.14-.08.47.08.14-.08s.6.07.61.08l.14-.08s.84.06.85.08l.14-.08s1 .06 1 .08l.14-.08s.7.18.71.2l.18-.11.47.65.14-.08s.06.74.07.75h.08s-.09.43-.08.44h.08s-.35 1-.34 1.07l.23-.13m-4.11.64l.15-.09s1.43.05 1.45.08l.15-.08s1.34 0 1.35.05.79-.48.8-.46m-4.27.64L7 12s-.06.8-.05.81h.06s1.19.17 1.21.2l.16-.09L9 13l.15-.09s1.35.05 1.37.08l.14-.08.47.17.17-.1.49.52h.07s.12.7.13.72l.09-.05s-.27 1.07-.26 1.09l.11-.06s-.32.82-.31.84l.13-.08s-.34.52-.33.53l.15-.09m-2.97-.29h.08s.07.59.07.6h.07s.74.4.75.42l.15-.13s.52.05.52.06l.15-.09m-1.31-1.09l.14-.08s.75 0 .76.06l.24-.14"/><path class="cls-1" d="M7.25 14.09L7.4 14l.48.09L8 14s1.15.06 1.16.09l.19-.09s1.15.06 1.16.09l.14-.08v.83h.08s-.26.7-.25.71h.08m-3.68-1.31l.1-.06s-.1.91-.09.93l.11-.05s-.1.75-.09.76l.09-.05s-.09.67-.09.68H7s-.09.41-.08.42H7m-1.38-2.08h.08s-.09.77-.08.79h.08s-.09.7-.08.71h.08s-.09.54-.08.55h.08v.55h.07l.45.43.29-.17m-1.68-2.5s.64-.39.64-.37M.35 16.43l.11-.06v.49h.07l.37.36h.08s1.25-.31 1.27-.28 1.12-.68 1.13-.66m-1.9-.42s.55-.34.56-.33m-.13-4.26l.14-.08s-.69 1.2-.68 1.23l.1-.06s-.26.61-.25.63l.1-.06s-.29.78-.28.8h.08l.21.6h.07s1.42-.17 1.43-.14L3 14s.74.07.75.09l.18-.09s.56.07.57.09m-1.82-3.17s.32-.2.33-.19 1.06.06 1.07.08l.15-.08s.6.07.61.08l.16-.08M1.25 8.82l.1-.06s-.09.59-.08.61h.07l.23.26h.08l.46.11.15-.09s.65.07.66.08l.15-.09s1 .07 1 .09l.16-.09s1.36.15 1.37.18 0 .45 0 .46h.08s-.09.44-.08.45h.08M2.44 4.84h.08l.24.28h.07v.33l.09-.05.53.6.15-.09s1 .06 1 .08l.15-.09.44.08h.08l.62.51h.08s.09.44.09.45l.11-.06m1.1-1.8L7.49 5S6.31 6.5 6.33 6.54l.13-.08m1.43-1.64L8 4.75l.41.56h.08l.51.61.15-.09s1 .06 1 .09l.15-.09s.57.07.57.08l.13-.08s1.31.17 1.33.17h.09s.07.58.08.6l.11-.06m-2.48.41l.14-.08s1 .06 1 .08l.14-.08s.55.07.56.08l.21-.12M9.88 7H10l.18.42h.07v.59l.12-.07M8 7l.15-.09.32.09h.08l.3.6h.07l.45.66h.07l.28.19.2-.12M7.41 7.15L7.6 7s-.7.71-.69.73l.2-.12m-3-.66l.14-.08s1.16.06 1.17.08l.14-.08v.67l.1-.06v.63h.07l.39.21.17-.1M3.82 7h.06s.12.5.12.52h.07s-.07.39-.07.4l.11-.07M2.41 7h.07l.17.38h.08s.13.49.14.51h.07l.12.33h.06l.34.32.18-.1m-1.8-1.22l.16-.1s-.6.66-.59.68l.18-.1m.13-2.6l.21-.1s-1 1.39-1 1.42l.14-.08s-.83.94-.81 1l.18-.1s-.25.91-.24.93h.07l.38.29.12-.16m31.48 5.57s1.53-.93 1.55-.89-.58.87-.57.89 1.13-.69 1.15-.66-.65.74-.64.76.83-.51.84-.48-.79.8-.77.83.89-.54.9-.52-.91 1-.9 1 1-.61 1-.58-1 1.22-1 1.25 1-.61 1-.58-1.93 2-1.9 2.06 1.84-1.12 1.87-1.08-1.13 1-1.11 1.07.88-.53.89-.51"/><path class="cls-1" d="M31 13.42s.84-.51.85-.49-1.1 1-1.08 1 1.79-1.1 1.82-1.05-1.89 1.37-1.86 1.42 2.43-1.48 2.46-1.42-2.5 2.25-2.46 2.33 1-.61 1-.58-1 1.22-1 1.25 1-.61 1-.59-1 .89-1 .92 1-.61 1-.59-1 1.39-1 1.43 1.9-1.16 1.93-1.11-1.55 1.46-1.52 1.5.48-.29.49-.28m-.8-5.9s.52-.32.53-.3 0 .93 0 1 1.63-1 1.65-1 0 .93 0 1S34.48 11 34.5 11s-.3.86-.29.88.51-.31.52-.3m-3.9-2.22s.52-.32.53-.31-.22.9-.21.92 1.57-1 1.59-.92-.09.93-.08 1 1.63-1 1.65-1-.54.93-.53 1 1-.59 1-.57m3.07 3.76c0 .05 2-1.22 2-1.17S39 13.21 39 13.24s1.82-1.11 1.84-1.06-.36 1-.34 1.06 1.35-.83 1.37-.79-.75.92-.74.94 1-.59 1-.57-1 1.15-1 1.18 1.16-.71 1.18-.68-1.2 1.28-1.17 1.32 1.16-.71 1.17-.68-1.19 1.19-1.17 1.23 1.15-.7 1.17-.68-1.19 1-1.17 1 1.15-.7 1.17-.67m-4.66 2.02s1.84-1.13 1.87-1.08-1 1-1 1.07 1.84-1.12 1.86-1.08-.45 1-.44 1.07 2.3-1.41 2.33-1.35-1.68 1.3-1.65 1.34 1.63-1 1.65-1-1 1.37-1 1.41 1-.62 1-.59-.7.72-.69.75.58-.35.59-.34"/><path class="cls-1" d="M36.46 12.67s.79-.48.8-.46-1 .93-1 1 1.7-1 1.73-1-1.82 1.75-1.79 1.8 3.56-2.18 3.61-2.09-3.67 2.9-3.61 3 1.13-.69 1.15-.66-1.17 1-1.15 1 1.13-.69 1.15-.66-1.17 1.25-1.15 1.28 1.14-.7 1.15-.67-1.17 1-1.15 1 1.14-.7 1.16-.67S36.22 17 36.24 17s2.13-1.3 2.16-1.25-1.95 1.57-1.92 1.63.92-.56.94-.54m2.75-6.9s1.93-1.18 2-1.13-.4 1.09-.39 1.12 1.15-.7 1.17-.67"/><path class="cls-1" d="M35.53 9.14s.56-.34.57-.33-.42 1-.41 1 1.71-1 1.74-1-.79 1.1-.77 1.12S39.76 8 39.81 8.1s-2 1.76-2 1.82 2.06-1.26 2.09-1.21-1.35 1.49-1.32 1.53S41 8.75 41.05 8.81s-2.53 2-2.49 2 1.21-.74 1.23-.71-1.25 1.46-1.22 1.5 1.22-.74 1.23-.71m.48-4.45s1.68-1 1.71-1-.48.71-.47.72.6-.37.61-.35"/><path class="cls-1" d="M36 6.23s.57-.35.58-.34-.47.72-.46.74 1.5-.92 1.52-.88-1 1.14-1 1.18 2.31-1.41 2.34-1.35-1.57 1.22-1.55 1.26S39.94 5.31 40 5.37s-1.53 1.34-1.5 1.38 2.76-1.68 2.8-1.61-2.74 2.07-2.69 2.14 3.25-2 3.3-1.9-3.35 2.4-3.29 2.49 1.21-.74 1.23-.71-1.25 1.38-1.22 1.42 1.21-.74 1.23-.71m-9.69-.45s.52-.32.53-.3-.55.63-.54.65 1.11-.68 1.13-.65-.75.94-.74 1 1.65-1 1.67-1-.11 1-.1 1 1.68-1 1.7-1-.47 1-.46 1 1.56-1 1.58-.91-.31.89-.3.91.53-.33.54-.31m-4.27-2.28s.52-.32.53-.31-.16.92-.15.94 1.6-1 1.63-.94-.81.93-.8 1 1.63-1 1.65-1-.29.93-.28 1 1.17-.72 1.19-.69-.51.67-.5.69.51-.31.52-.3m3.13 7.42l.15-.09s1 .06 1 .08l.15-.08s.59.07.59.08l.15-.08.47.08.14-.08.52.42h.08s-.09.51-.08.52h.08s-.09.6-.08.61h.08s-.09.77-.08.79h.08m-3.73-2.09l.1-.06s-.1.59-.09.6l.09-.05s-.1.42-.09.43l.09-.05s-.1.91-.08.93l.09-.05s.67.51.68.53l.16-.1s1.2.06 1.21.09l.16-.09s.64.07.65.09l.15-.09M32.24 14l.15-.09s.55.07.56.09l.16-.09.42.09.1-.06s.08.68.09.7h.09s-.09.51-.08.52h.08s-.09.49-.08.5h.08m-2.05-1.53l.1-.06s-.1 1-.09 1l.09-.05v.92s.91.07.92.09l.16-.09.45.08.15-.09"/><path class="cls-1" d="M32 12.91l.15-.08s1.2.05 1.21.08l.14-.08s.9.35.91.37l.1-.06.13.42.13-.08s.06.81.07.83h.08s-.09.47-.08.48h.08s-.09.83-.08.85h.08s-.35.89-.34.91l.23-.13m-2.73.58l.2-.11s.95.07 1 .09l.16-.09m-1.69.22s.3-.18.31-.18m-1.14-3.6s.79-.48.8-.46-1 .93-1 1l.17-.1s-.23.87-.22.89h.08s-.09.79-.08.81h.08s-.09.85-.08.87h.08s-.09.77-.08.79h.09s0 .45.05.46h.07l.18.23.09-.05m.32-6.77l.15-.08S33 10.94 33 11l.15-.08s1.08.06 1.09.08l.11-.07.38.41h.07m-4.02-.13l.09-.05s0 .69.05.71l.09-.05s.86.14.87.16l.12-.08s.72.07.73.08l.15-.08s.83.06.84.08l.15-.08m-2.44-2.83l.14-.07s.89.06.9.08l.15-.08s.92.06.93.08L33.7 9l.5.08.12-.08.45.51h.07m-4.06-.2l.1-.06s-.1.51-.09.52h.07l.39.35.14-.08s1.4.05 1.41.08L33 10s1.3.05 1.31.08.37-.23.37-.22m1.97-4l.18-.11s2-.22 2-.18l.21-.12s1.17-.18 1.18-.15l.21-.12s1.21 0 1.22.06h.08l.32.34h.07v.36l.1-.06m-1.92.66l.26-.15s1-.14 1-.11l.25-.14m-1.99.59l.11-.06s-.13.75-.12.77l.09-.05s-.09.48-.09.49l.09-.05s-.09.55-.08.56h.09s.76.45.77.47l.16-.09.46.09.16-.09s.57.07.58.09l.15-.09s.59.22.6.24h.07v.69l.14-.17m-2.83.47l.15-.09s.82.07.83.08l.15-.09s.52.07.53.08l.17-.04m-2.2.24l.1-.06s-.1.46-.09.48l.09-.05s-.1.39-.09.4l.09-.05s-.1.93-.08 1h.09l.51.38.16-.09.44.08.14-.08s.81.37.82.39h.08s.24.77.25.79l.09-.05s-.07.59-.06.6h.09s-.09.79-.08.81h.09s-.09.43-.08.44h.09s-.09.69-.08.71h.09s-.09.46-.08.47h.09s-.09.73-.08.74h.09s-.19.47-.18.48l.1-.06M37.67 17l.2-.11s1.44.07 1.45.1l.17-.1s1.48.06 1.5.09l.1-.06.33.58h.08m-4.15-.5l.3-.18m-1.28-4.25s.79-.48.8-.46-1.09 1.24-1.06 1.27h.08s-.09.89-.08.91h.08s-.09.55-.08.57h.08s-.09.65-.08.66h.08s-.09.67-.08.69h.08s-.09.59-.08.6h.09s-.06.5-.05.51h.06l.42.56.09-.05m.61-5.67l.15-.08s.73.06.74.08l.15-.09m-2.91-3l.11-.07s-.19.47-.18.48h.07l.43.52h.08s1.4.07 1.42.1l.14-.08L38 10l.14-.08.31.44h.08s-.09.39-.08.4h.08s-.09.86-.08.88h.08s-.09.39-.08.4h.08M36.11 8.8l.15-.08s1.39.05 1.41.08l.15-.09m-1.95-2.54h.08s.13.66.14.68h.07s.77.21.78.23l.17-.1s1.18-.06 1.19 0l.16-.09v.78l.12-.07s-.11.65-.1.66l.1-.06s-.09.46-.09.47h.09m-7.77-1.54L31 7s.91.06.93.08L32 7s.94.06.95.08l.18-.08s.76.07.77.08L34 7s1.09.3 1.11.33h.07s-.05.44 0 .45l.11-.06m-5.16-.35l.09-.05s-.1.52-.09.53h.07l.4.36.14-.08s.54.07.54.08l.15-.08s.74.07.75.08l.15-.08s.86.06.87.08l.15-.08s.86.06.87.08l.15-.08m-2.86-2.89l.14-.08.45.08.14-.08s.78.06.79.08l.14-.08s1.3.13 1.32.16l.09-.05s.11.59.11.61l.11-.06m-3.94-.33l.14-.06s.17.73.18.75h.09s.64.11.65.12l.08-.13s1.22.06 1.23.08l.15-.08s.84.06.85.08.34-.21.35-.2M16 .89s.68-.41.69-.4S15.46 2 15.49 2 18.27.33 18.31.4s-3 2.13-3 2.21S19.13.29 19.19.39s-4.08 3-4 3.11S20.52.23 20.6.36s-5.06 3.66-5 3.79 6.52-4 6.61-3.82-5.85 3.75-5.76 3.9 6.7-4.07 6.79-3.9-6.24 3.75-6.11 3.9S23.82.15 23.92.32s-5.86 3.76-5.77 3.91S24.85.13 25 .3s-6.31 3.76-6.22 3.92S25.45.12 25.55.29s-6 3.77-5.88 3.93S26.39.11 26.49.28s-5.64 3.79-5.55 3.93S27.29.33 27.38.49s-5.54 4-5.45 4.12 5.53-3.38 5.61-3.24-6 4.1-5.94 4.26 5.58-3.41 5.66-3.27-5.89 3.57-5.81 3.72 5.6-3.43 5.69-3.28-5.91 3.55-5.82 3.7S26.94 3.06 27 3.21s-6.14 4.22-6 4.38 5.68-3.47 5.77-3.33-6.22 4.25-6.12 4.42 5.74-3.51 5.83-3.36-6.28 4.16-6.19 4.33 5.79-3.54 5.88-3.39-6.11 3.68-6 3.84S26 6.53 26.05 6.68s-6.29 4.15-6.2 4.31 5.87-3.59 6-3.44-6.33 4.13-6.23 4.3 5.91-3.61 6-3.46-6.24 3.78-6.15 3.93 5.94-3.63 6-3.48-6.47 4.45-6.42 4.62 6-3.67 6.09-3.51-6.5 4.33-6.41 4.5 6.05-3.7 6.14-3.54-6.45 4-6.36 4.21 6.09-3.72 6.18-3.57-6.52 4.15-6.42 4.32 6.13-3.74 6.22-3.59S18 16.79 18.06 17s6-3.67 6.1-3.52-5.73 3.77-5.65 3.92 5.35-3.27 5.43-3.13-4 3.09-3.93 3.2 3.56-2.18 3.61-2.09-2.17 2-2.13 2.09 1.82-1.11 1.84-1.06-1 .94-1 1 .67-.47.67-.41"/><path class="cls-1" d="M16.88.43L17 .35l.46.08.15-.08s.8.05.81.07l.15-.08s1.48 0 1.49.06l.17-.1s1.11 0 1.13.07l.14-.09s1.5.03 1.5.06l.15-.08s.7.06.71.07L24 .24s1.14 0 1.16.06l.15-.08s.69.06.7.07l.15-.08s1.07.2 1.09.22l.13-.07s.18.57.19.59l.14-.08S27.33 2 27.34 2l.11-.06s-.26.57-.25.58l.11-.06s-.39 1-.38 1l.07-.04s-.22.45-.22.46l.11-.06s-.29.68-.28.7l.11-.06s-.29.66-.28.67l.11-.06s-.23.47-.22.48l.11-.06s-.41 1.06-.39 1.09l.11-.06s-.36.91-.35.94l.1-.06s-.29.68-.28.7l.1-.06s-.33.81-.32.83l.1-.06s-.41 1.06-.39 1.09l.1-.06s-.32.77-.31.79l.1-.06s-.41 1.09-.4 1.11l.1-.06s-.25.54-.24.55l.1-.06s-.27.62-.26.63l.1-.06S24 13.8 24 13.82l.1-.06s-.36.91-.35.93l.1-.06s-.33.82-.32.83l.1-.06s-.45 1.12-.44 1.15l.14-.08"/><path class="cls-1" d="M15.93.84l.17-.1S15.41 2 15.42 2l.1-.06s-.26.62-.25.64l.1-.06s-.3.94-.29 1l.1-.06s.26.74.27.76l.14-.08s.61.2.61.22l.14-.08s.51.07.52.08l.14-.14s.86.06.88.08l.12-.08.44.08.15-.08s.77.06.78.08l.15-.08s1.11.05 1.13.08l.15-.09s.94.39 1 .42l.2-.13s-.54 1.11-.53 1.13l.2-.11s-.35.55-.34.56l.18-.08s-.33.52-.33.53l.19-.11s-.55 1.17-.54 1.2l.18-.1s-.54 1.16-.53 1.19l.17-.1s-.49 1-.48 1.06l.16-.09s-.31.52-.31.54l.18-.12s-.46 1-.45 1l.15-.09s-.44.93-.43.95l.15-.09s-.3.54-.3.55l.14-.08S19 13.4 19 13.43l.13-.08s-.46 1-.45 1.06l.13-.07s-.35.72-.34.74l.12-.07s-.37.8-.36.82l.12-.07S18 16.9 18 16.92l.14-.08.21.54.15-.08s1.26.17 1.27.2l.14-.08s1.33.05 1.34.08l.14-.08h.93c.01 0 .41-.25.41-.24"/></g></g></svg>