<svg xmlns="http://www.w3.org/2000/svg" viewBox="0 0 43.19 17.84"><defs><style>.cls-1{fill:none;stroke:#e9528e;stroke-linecap:round;stroke-linejoin:round;stroke-width:.43px}</style></defs><title>txt_nav_01</title><g id="レイヤー_2" data-name="レイヤー 2"><g id="nav"><path class="cls-1" d="M8.69 16.2s.46-.28.46-.27-.13.89-.12.91 2.78-1.7 2.82-1.63S9.6 16.91 9.64 17s2.09-1.28 2.12-1.23-1.1 1.12-1.09 1.15.77-.47.78-.45M7.24 14L9 13s-.54 1-.52 1 1.71-1 1.74-1-1 1-1 1 1.71-1 1.73-1-.86 1-.84 1 1.34-.82 1.36-.78-.72 1.29-.7 1.33 1.18-.72 1.2-.69-1.28 1-1.26 1.08 1.28-.78 1.3-.75-1.46 1.21-1.43 1.25 1.34-.82 1.36-.78"/><path class="cls-1" d="M5.69 14.67c0 .07 2.79-1.71 2.83-1.64s-2.85 2.1-2.81 2.18 1.15-.7 1.16-.67-1.18 1-1.16 1.06 1.14-.7 1.16-.67-1.18 1-1.16 1 1.14-.7 1.16-.67-1.18 1.1-1.16 1.13 1.14-.7 1.16-.67-1.12 1.28-1.1 1.37 1.09-.67 1.1-.64-.65 1-.63 1.07.53-.32.54-.31m-6.35-.68s1.06-.65 1.07-.62-1 .95-1 1 6.57-4 6.67-3.85-6.49 3.87-6.4 4 6.89-4.21 7-4-5.74 3.61-5.66 3.76 2.18-1.33 2.21-1.28M2 11.39s.67-.41.68-.4-1.25 1.6-1.22 1.64 3-1.84 3.06-1.77-3.4 2.79-3.34 2.88 1.43-.88 1.46-.84-1.11 1.37-1.09 1.4S3.72 13 3.75 13s-.23 1-.22 1 1.71-1 1.73-1-.74 1-.72 1.07 2.31-1.41 2.35-1.36m.48-3.11s1.68-1 1.7-1-.33 1-.31 1 1.56-1 1.58-.91-.25 1-.24 1 1-.59 1-.56-1 1.16-.94 1.19 1.14-.7 1.16-.67m-4.08 2.21s1.7-1 1.73-1-.59 1-.57 1 2.88-1.76 2.92-1.69-1.44 1.63-1.42 1.68 1.23-.75 1.25-.72"/><path class="cls-1" d="M3.3 11.85s1.69-1 1.71-1-.82 1-.81 1 2.65-1.62 2.68-1.55-1.35 1.53-1.32 1.58 1.72-1.05 1.74-1-1.62 1.27-1.6 1.31S8 10.81 8 10.87s-2.3 1.87-2.26 1.94 1.14-.7 1.15-.67M1.32 8.93s.53-.33.54-.31-.55.67-.54.69 1.18-.72 1.2-.69-.37 1-.36 1 1.67-1 1.69-1-.12 1-.11 1 1.67-1 1.69-1-1.08.95-1.06 1 1.67-1 1.69-1-.63 1-.61 1 1.67-1 1.69-1-1.46 1.13-1.43 1.17 2-1.23 2-1.18-2.06 1.94-2 2 1.14-.7 1.16-.67m3.3-3.02s1.68-1 1.71-1-.16 1-.15 1 .84-.51.85-.49"/><path class="cls-1" d="M8 6.92s1.68-1 1.7-1-1 1.28-1 1.32 2.24-1.36 2.3-1.31-2 1.75-2 1.81.94-.58 1-.55-.59 1-.58 1 .85-.52.86-.5M7.31 5.18s.57-.35.58-.34-1.27 1.3-1.25 1.34 1.72-1.05 1.75-1"/><path class="cls-1" d="M4.11 6.92S5.55 6 5.57 6.08s-.64.82-.63.84 1-.58 1-.56 0 .54.05.55l.15-.09s-.43.62-.42.64 2.62-1.6 2.66-1.53-2.69 2-2.64 2 3.48-2.13 3.53-2-3.14 2.22-3.09 2.3.73-.45.74-.43"/><path class="cls-1" d="M2.4 6.94s1.71-1 1.74-1S2.6 7.1 2.63 7.14s2.07-1.26 2.1-1.21-1.94 1.58-1.9 1.64 1-.6 1-.58-.58 1.22-.56 1.25.81-.49.82-.47M1.75 5.2s.58-.36.59-.34S1 6.44 1 6.49s1.84-1.13 1.86-1.08S.28 7.3.32 7.37s2.45-1.5 2.48-1.43S.26 8.1.3 8.17s1.51-.92 1.53-.89-1.2 1-1.18 1 .73-.45.74-.43m5.96 1.84l.15-.09s1.5.06 1.5.09l.16-.09s.73.08.74.09h.05s.05.57.06.58h.08s-.09.41-.08.42h.08m-3.21-.83L7 9.8s-.09.85-.08.87H7l.4.24.17-.1s.67.08.68.09l.16-.09s.74.07.75.09l.15-.09.5.08.15-.09m-6.69 1.15l.14-.08s1 .06 1 .08l.16-.09s.57.08.58.09l.17-.1.26.21h.06s-.07.73-.06.75h.08m-2.91-.67l.11-.06s-.25.67-.24.68l.14-.08.08.33.17-.1s1.34.07 1.36.1l.16-.09s.84.07.85.09l.15-.09"/><path class="cls-1" d="M2 8.6l.15-.08s.55.07.56.08l.15-.08.43.08.15-.08s1.14.06 1.16.08l.14-.08s.66.07.67.08l.14-.08s.63.07.64.08l.14-.08.47.08.14-.08s.6.07.61.08l.14-.08s.84.06.85.08l.14-.08s1 .06 1 .08l.14-.08s.7.18.71.2l.18-.11.47.65.14-.08s.06.74.07.75h.08s-.09.43-.08.44h.08s-.35 1-.34 1.07l.23-.13M7.25 12l.15-.09s1.43.05 1.45.08l.15-.13s1.34 0 1.36.05.78-.48.8-.46m-4.28.65L7 12s-.06.8-.05.81h.06s1.19.17 1.21.2l.16-.09L9 13l.15-.09s1.35.05 1.37.08l.14-.08.47.17.17-.1.49.52h.07s.12.7.13.72l.09-.05s-.27 1.07-.25 1.09l.11-.06s-.32.82-.31.84l.13-.08s-.34.52-.33.53l.15-.09m-2.98-.25h.08s.07.59.07.6h.07s.74.4.75.42l.15-.17s.52.05.52.06l.15-.09m-1.31-1.06l.14-.08s.75 0 .76.06l.24-.14"/><path class="cls-1" d="M7.25 14.13L7.4 14l.48.09L8 14s1.15.06 1.16.09l.19-.09s1.15.06 1.16.09l.14-.08v.83h.08s-.26.7-.25.71h.08m-3.68-1.28l.1-.06s-.1.91-.09.93L7 15.1s-.1.75-.09.76l.09-.05s-.09.67-.09.68l.09-.05s-.09.41-.08.42H7m-1.38-2.04h.08s-.09.77-.08.79h.08s-.09.7-.08.71h.08s-.09.54-.08.55h.08v.55h.07l.45.43.29-.17m-1.68-2.5s.64-.39.65-.37M.35 16.46l.11-.06v.49h.07l.37.36h.08s1.25-.31 1.27-.28 1.12-.68 1.13-.66m-1.9-.41s.56-.34.56-.33m-.13-4.26l.14-.08s-.69 1.2-.68 1.23l.1-.06s-.26.61-.25.63l.1-.06s-.29.78-.28.8h.08l.21.6h.07s1.41-.17 1.43-.14L3 14s.74.07.75.09l.18-.09s.56.07.57.09M2.68 11s.32-.2.33-.19 1.06.06 1.07.08l.15-.08s.6.07.61.08l.16-.12M1.25 8.86l.1-.06s-.09.59-.08.61h.07l.23.26h.08l.46.11.15-.09s.65.07.66.08l.15-.09s1 .07 1 .09l.16-.09s1.36.15 1.37.18 0 .45 0 .46h.08s-.09.44-.08.45h.08m-3.24-5.9h.08l.24.28h.07v.33l.09-.05.53.6.15-.09s1 .06 1 .08l.15-.09.44.08h.08l.62.51h.08s.09.44.09.45l.11-.06m1.1-1.79L7.48 5S6.31 6.54 6.33 6.58l.13-.08m1.43-1.64L8 4.79l.41.56h.08L9 6l.15-.09s1 .06 1 .09l.15-.09s.57.07.57.08l.13-.13s1.31.14 1.33.14h.09s.07.58.08.6l.11-.06M10.13 7l.14-.08s1 .06 1 .08l.14-.08L12 7l.2-.12m-2.32.2L10 7l.18.42h.07v.59l.13-.07M8 7l.15-.09.37.17h.08l.3.6h.07l.45.66h.07l.28.19.2-.12M7.4 7.19l.19-.11s-.7.71-.69.73l.2-.12M4.11 7l.14-.08L5.42 7l.14-.08v.67l.1-.06v.63h.07l.39.2.17-.1m-2.47-1.2h.06s.16.51.16.52h.07S4 7.95 4 8l.11-.07M2.41 7h.07l.17.38h.08s.13.49.14.51h.07l.12.33h.06l.34.32.18-.1m-1.8-1.18l.16-.1s-.6.66-.59.68l.18-.1m.13-2.61L1.93 5s-1 1.39-1 1.42l.14-.08s-.83.94-.81 1l.18-.11s-.25.91-.24.93h.07l.38.29.12-.07m31.48 5.52s1.52-.9 1.54-.9-.58.87-.57.89 1.13-.69 1.15-.66-.65.74-.64.76.83-.51.84-.48-.79.8-.77.83.89-.54.9-.52-.91 1-.9 1 1-.61 1-.58-1 1.22-1 1.25 1-.61 1-.58-1.93 2-1.9 2.06 1.84-1.12 1.87-1.08-1.13 1-1.11 1.07.88-.53.89-.51"/><path class="cls-1" d="M31 13.46s.84-.51.85-.49-1.1 1-1.08 1 1.79-1.1 1.82-1.05-1.89 1.37-1.86 1.42 2.45-1.44 2.48-1.34-2.5 2.25-2.46 2.33 1-.61 1-.58-1 1.22-1 1.25 1-.61 1-.59-1 .89-1 .92 1-.61 1-.59-1 1.39-1 1.43S32.69 16 32.72 16s-1.55 1.46-1.52 1.5.48-.29.49-.28m-.86-5.92s.52-.32.53-.3 0 .93 0 1 1.63-1 1.65-1 0 .93 0 1 1.5-.92 1.52-.88-.3.86-.29.88.51-.31.52-.3m-3.93-2.3s.52-.32.53-.31-.22.9-.21.92 1.57-1 1.59-.92-.09.93-.08 1 1.63-1 1.65-1-.54.93-.53 1 1-.59 1-.57m3.07 3.76c0 .05 2-1.22 2-1.17S39 13.24 39 13.27s1.82-1.11 1.84-1.06-.36 1-.34 1.06 1.35-.83 1.37-.79-.75.92-.74.94 1-.59 1-.57-1 1.15-1 1.18 1.16-.71 1.18-.68-1.2 1.28-1.17 1.32S42.3 14 42.31 14s-1.19 1.19-1.17 1.23 1.15-.7 1.17-.68-1.19 1-1.17 1 1.15-.7 1.17-.67m-4.66 2.01s1.84-1.13 1.87-1.08-1 1-1 1.07 1.84-1.12 1.86-1.08-.45 1-.44 1.07 2.3-1.41 2.33-1.35-1.68 1.3-1.65 1.34 1.63-1 1.65-1-1 1.37-1 1.41 1-.62 1-.59-.7.72-.69.75.58-.35.59-.34"/><path class="cls-1" d="M36.46 12.71s.79-.48.8-.46-1 .93-1 1 1.7-1 1.73-1-1.82 1.75-1.79 1.8 3.56-2.18 3.61-2.09-3.67 2.9-3.61 3 1.13-.69 1.15-.66-1.17 1-1.15 1 1.13-.69 1.15-.66-1.17 1.25-1.15 1.28 1.14-.7 1.15-.67-1.17 1-1.15 1 1.14-.7 1.16-.67-1.14 1.42-1.12 1.49 2.13-1.3 2.16-1.25-1.95 1.57-1.92 1.63.92-.56.94-.54M40.17 10s1.93-1.18 2-1.13-.4 1.09-.39 1.12 1.15-.7 1.17-.67"/><path class="cls-1" d="M35.53 9.18s.56-.34.57-.33-.42 1-.41 1 1.71-1 1.74-1-.79 1.1-.77 1.12 3.11-1.9 3.16-1.82-2 1.76-2 1.82 2.06-1.26 2.09-1.21-1.35 1.49-1.32 1.53S41 8.78 41.05 8.85s-2.53 2-2.49 2 1.21-.74 1.23-.71-1.25 1.46-1.22 1.5 1.22-.74 1.23-.71m.48-4.45s1.68-1 1.71-1-.48.71-.47.73.6-.37.61-.35"/><path class="cls-1" d="M36 6.26s.57-.35.58-.34-.47.72-.46.74 1.5-.92 1.52-.88-1 1.14-1 1.18 2.31-1.41 2.34-1.35-1.51 1.21-1.49 1.26S39.93 5.34 40 5.41s-1.53 1.34-1.5 1.38 2.76-1.68 2.8-1.61-2.74 2.07-2.69 2.14 3.25-2 3.3-1.9-3.35 2.4-3.29 2.49 1.21-.74 1.23-.71-1.25 1.38-1.22 1.42 1.21-.74 1.23-.71m-9.69-.45s.52-.32.53-.3-.55.63-.54.65 1.11-.68 1.13-.65-.75.94-.74 1 1.65-1 1.67-1-.11 1-.1 1 1.68-1 1.7-1-.47 1-.46 1 1.56-1 1.58-.91-.31.89-.3.91.53-.33.54-.31m-4.27-2.28s.52-.32.53-.3-.16.92-.15.94 1.6-1 1.63-.94-.81.93-.8 1 1.63-1 1.65-1-.29.93-.28 1 1.17-.72 1.19-.69-.51.67-.5.69.51-.31.52-.3m3.13 7.4l.15-.09s1 .06 1 .08l.15-.08s.59.07.59.08l.15-.08.47.08.14-.08.52.42h.08s-.09.51-.08.52h.08s-.09.6-.08.61h.08s-.09.77-.08.79h.08m-3.73-2.08l.1-.06s-.1.59-.09.6l.09-.05s-.1.42-.09.43l.09-.05s-.1.91-.08.93l.09-.05s.67.51.68.53l.16-.1s1.2.06 1.21.09l.16-.09s.64.07.65.09l.15-.09M32.24 14l.15-.09s.55.07.56.09l.16-.09.42.09.1-.06s.08.68.09.7h.09s-.09.51-.08.52h.08s-.09.49-.08.5h.08m-2.04-1.54l.1-.06s-.11 1-.1 1h.08v.93s.87.09.88.11l.16-.09s.51.07.51.08l.15-.09"/><path class="cls-1" d="M32 12.95l.15-.08s1.2.05 1.21.08l.14-.08s.9.35.91.37l.1-.06.13.42.13-.08s.06.81.08.83h.08s-.09.47-.08.48h.08s-.09.83-.08.85h.08s-.35.89-.34.91l.23-.13"/><path class="cls-1" d="M32.08 17.08l.19-.11s.95.07 1 .09l.16-.09h.53c.01 0 .7-.43.71-.41m-2.92.58s.3-.18.31-.18m-1.14-3.6s.79-.48.8-.46-1 .93-1 1l.17-.1s-.23.87-.22.89h.08s-.09.79-.08.81h.08s-.09.85-.08.87h.08s-.09.77-.08.79h.09s0 .45.05.46h.07l.18.23.09-.05m.32-6.8l.15-.08L33 11l.15-.08s1.08.06 1.09.08l.11-.07.38.41h.07m-4.02-.09l.1-.05s0 .69.05.71l.09-.05s.86.15.87.16l.15-.08s.72.07.73.08l.15-.08s.83.06.84.08l.15-.08M31.43 9.1l.14-.1s.89.06.9.08l.15-.08s.92.06.93.08l.14-.08.5.08.13-.08.45.51h.07m-4.06-.16l.1-.06s-.1.51-.09.52h.07l.39.35.14-.08s1.4.05 1.41.08L33 10s1.3.05 1.31.08.37-.23.37-.22m1.97-3.97l.18-.11s2-.22 2-.18l.21-.12s1.17-.18 1.18-.15l.21-.12s1.21 0 1.22.06h.08l.32.34h.07v.36l.1-.06m-1.92.67l.26-.15s1-.13 1-.11l.25-.14m-1.99.59l.11-.06s-.13.75-.12.77l.09-.05s-.09.48-.09.49l.09-.05s-.09.55-.08.56h.09s.76.45.77.47l.16-.09.46.09.16-.09s.57.07.58.09l.15-.09s.59.22.6.24h.07v.69l.14-.17m-2.83.49l.15-.09s.82.07.83.08l.15-.09s.52.07.53.08L42 10m-2.2.21l.1-.06s-.1.46-.09.48l.09-.05s-.1.39-.09.4l.09-.05s-.1.93-.08 1h.09l.51.38.16-.09.44.08.14-.08s.81.37.82.39h.08s.24.77.25.79l.09-.05s-.07.59-.06.6h.09s-.09.79-.08.81h.09s-.09.43-.08.44h.09s-.09.69-.08.71h.09s-.09.46-.08.47h.09s-.09.73-.08.74h.09s-.19.47-.18.48l.1-.06M37.67 17l.2-.11s1.44.07 1.45.1l.17-.1L41 17l.1-.06.33.58h.08m-4.16-.45l.3-.18m-1.28-4.28s.79-.48.8-.46-1.08 1.24-1.06 1.27h.08s-.09.89-.08.91h.08s-.09.55-.08.57h.08s-.09.65-.08.66h.08s-.09.67-.08.69h.08s-.09.59-.08.6h.09s-.06.5-.05.51h.06l.42.56.09-.05m.61-5.67l.15-.08s.73.06.74.08l.15-.09m-2.91-3l.11-.11s-.18.47-.18.48h.07l.42.52H36s1.4.07 1.42.1l.14-.08.49.08.14-.08.31.44h.08s-.09.39-.08.4h.08s-.09.86-.08.88h.08s-.09.39-.08.4h.08m-2.47-3.31l.15-.08s1.39.05 1.41.08l.15-.09m-1.95-2.53h.08s.13.66.14.68h.07s.77.21.78.23l.17-.1s1.18-.06 1.19 0l.16-.09v.78l.13-.07s-.11.65-.1.66l.11-.06s-.1.46-.09.47l.1-.06m-7.8-1.48l.19-.09s.91.06.93.08l.07-.08s.94.06.95.08l.15-.08s.76.07.77.08l.13-.08s1.09.3 1.11.33h.07s-.05.44 0 .45l.11-.06m-5.16-.39l.09-.05s-.1.52-.09.53h.07l.4.36.14-.08s.54.07.54.08l.15-.08s.74.07.75.08l.15-.08s.86.06.87.08l.15-.08s.86.06.87.08l.15-.08m-2.86-2.89l.14-.08.45.08.14-.08s.78.06.79.08l.14-.08s1.3.13 1.32.16l.09-.05s.11.59.11.61l.11-.06m-3.94-.34l.14-.05s.17.73.18.75h.09s.64.11.65.12L32 6.2s1.22.06 1.23.08l.15-.08s.84.06.85.08.34-.21.35-.2M16.25 2.32s.9-.55.91-.53-1 1.39-1 1.42 3.6-2.21 3.65-2.09-3.56 2.42-3.51 2.52 5-3 5-2.91-4.9 3.45-4.83 3.58 6.9-4.22 7-4-6.86 4.64-6.76 4.82S24 .66 24.12.84 16.92 5.32 17 5.51s7-4.3 7.13-4.12-6.89 4.13-6.79 4.3 6.69-4.09 6.79-3.92-5.62 3.65-5.53 3.79 5.48-3.35 5.56-3.21-4.77 2.93-4.7 3 4.63-2.83 4.7-2.71-4.73 3.1-4.66 3.22 4.59-2.81 4.66-2.69-4.73 3.34-4.66 3.46 4.59-2.81 4.66-2.69-4.73 3.53-4.66 3.66 4.59-2.81 4.66-2.69-4.73 3.39-4.66 3.52 4.59-2.81 4.66-2.69-4.73 2.94-4.66 3.06 4.59-2.8 4.66-2.69S19.43 9 19.5 9.14s4.59-2.8 4.66-2.69S19.43 9.9 19.5 10s4.59-2.8 4.66-2.69-4.73 3.44-4.65 3.57 4.59-2.8 4.65-2.69-4.73 3.35-4.65 3.47S24.09 8.89 24.16 9s-4.72 2.93-4.65 3 4.59-2.8 4.65-2.69-4.72 3.29-4.65 3.42 4.59-2.8 4.65-2.69-4.72 3.26-4.65 3.39 4.58-2.8 4.65-2.69-4.72 2.95-4.65 3.07 4.58-2.8 4.65-2.69-4.72 3.48-4.65 3.61 4.58-2.8 4.65-2.69-4.72 3.36-4.65 3.48 4.58-2.8 4.65-2.68-4.72 3.1-4.65 3.23 4.58-2.8 4.65-2.68-4.66 3.14-4.59 3.26 4.52-2.76 4.59-2.65-4.11 3.19-4 3.31 4-2.44 4-2.34-3.16 2.41-3.07 2.49 3-1.85 3.07-1.77-1.48 1.72-1.45 1.77 1.39-.85 1.41-.81"/><path class="cls-1" d="M17.25 1.79l.26-.15s.78-.14.79-.12l.26-.15S20 1.06 20 1.09l.26-.15c0 .06 2.57-.64 2.6-.58l.24-.15s.78.24.79.26h.07s.18.78.19.8l.09-.05s-.09.52-.09.53h.09s-.1.77-.09.78h.09s-.09.51-.09.52h.09s-.1.88-.09.9h.09s-.1.73-.09.75h.09s-.1 1-.09 1h.09s-.09.47-.09.48h.09s-.1.84-.09.86h.09s-.09.38-.09.39h.09s-.09.57-.08.58h.09s-.09.55-.08.56h.08s-.09.39-.08.4h.08s-.1.89-.08.91h.08s-.09.77-.08.78h.08s-.09.57-.08.59h.08s-.09.68-.08.69h.08s-.1.89-.08.91h.08s-.09.65-.08.66h.08s-.1.91-.08.93h.08s-.09.45-.08.46h.08s-.09.52-.08.53h.08s-.09.94-.08 1h.08s-.09.76-.08.78h.08s-.21.75-.2.77l.14-.08"/><path class="cls-1" d="M16.13 2.32l.26-.15s-.3 1-.29 1h.07s.05.45.06.46h.07s.13.7.14.72h.07s.16.8.17.82h.07l.19.46h.07l.23.25h.08s.78.11.79.12l.29-.17s.82-.16.83-.14l.22-.12s-.08.56-.07.57l.15-.09s-.16.8-.15.81l.15-.09s-.16 1-.14 1.05l.14-.08s-.15.89-.14.91l.14-.08s-.14.43-.13.45l.13-.08s-.14.41-.13.42l.13-.08s-.14.94-.13 1l.13-.07s-.13.93-.12 1l.12-.07s-.13.83-.12.85l.12-.07s-.12.42-.11.43l.11-.07s-.12.78-.11.8l.11-.06s-.11.74-.1.76l.1-.06s-.11.43-.1.44l.1-.06s-.11 1-.1 1l.1-.06s-.1.83-.09.85l.09-.05s-.09.58-.09.59l.09-.05v.63h.08l.38.75.15-.09s.73.22.74.24l.14-.08s1.46 0 1.48.08l.14-.08h.71c.01 0 .67-.41.68-.39"/></g></g></svg>