<svg xmlns="http://www.w3.org/2000/svg" width="146" height="21" viewBox="0 0 146 21"><defs><style>.a{fill:#5d0e5a}.b{fill:#6d2e6a}.c{fill:none}</style></defs><title>txt_opening</title><path class="a" d="M19.33 4.62a.12.12 0 0 0 .14.14H22a.69.69 0 0 1 .46.18.65.65 0 0 1 .22.49.67.67 0 0 1-.22.51.72.72 0 0 1-.51.21H19.5a.14.14 0 0 0-.14.14q.1 4.77.11 6.33a1.2 1.2 0 0 1-.36.94 1.53 1.53 0 0 1-1.05.32h-1.6a.87.87 0 0 1-.53-.23.8.8 0 0 1-.25-.59.54.54 0 0 1 .18-.41.56.56 0 0 1 .41-.18h.07q.68.06 1.2.05a.52.52 0 0 0 .4-.13.59.59 0 0 0 .12-.42V7.6a16.82 16.82 0 0 1-2.27 2.38A19 19 0 0 1 12.73 12a.91.91 0 0 1-.45.12h-.16a.88.88 0 0 1-.55-.31.54.54 0 0 1-.14-.49.59.59 0 0 1 .3-.42A17.64 17.64 0 0 0 15 8.68a14.28 14.28 0 0 0 2.32-2.46.07.07 0 0 0 0-.08.07.07 0 0 0-.06 0h-4.87a.69.69 0 0 1-.49-.19.71.71 0 0 1-.22-.52.65.65 0 0 1 .22-.49.69.69 0 0 1 .46-.18h5.47a.11.11 0 0 0 .09 0 .15.15 0 0 0 0-.1V3.03a.73.73 0 0 1 .19-.49.7.7 0 0 1 1 0 .78.78 0 0 1 .21.53v1.55zm6.91 4.16a.81.81 0 0 1-.57-.23.8.8 0 0 1-.26-.6.74.74 0 0 1 .26-.57.77.77 0 0 1 .56-.23h9.57a.79.79 0 0 1 .56.22.74.74 0 0 1 .26.57.8.8 0 0 1-.26.6.83.83 0 0 1-.57.22h-8.34zm14.94-5.19h7.25c.09 0 .13 0 .11-.15a1.93 1.93 0 0 1 0-.23A1.56 1.56 0 0 1 49 2.05a1.56 1.56 0 0 1 1.14-.47 1.58 1.58 0 0 1 1.15.47 1.54 1.54 0 0 1 .48 1.14 1.52 1.52 0 0 1-.48 1.13 1.59 1.59 0 0 1-1.15.46h-.24a.13.13 0 0 0-.16.11v.14a13 13 0 0 1-2.11 5.14 10.67 10.67 0 0 1-4.72 3.49 1.12 1.12 0 0 1-.45.1 1.29 1.29 0 0 1-.31 0 1.39 1.39 0 0 1-.67-.41.52.52 0 0 1-.15-.36.61.61 0 0 1 0-.16.54.54 0 0 1 .38-.38 9.73 9.73 0 0 0 2.68-1.26 8.82 8.82 0 0 0 1.92-1.89 7.78 7.78 0 0 0 1.11-2A11.19 11.19 0 0 0 48 5.15a.15.15 0 0 0 0-.1.11.11 0 0 0-.09 0h-7.48a.77.77 0 0 1-.75-.75.66.66 0 0 1 .23-.52.7.7 0 0 1 .49-.19zm9 .46a.84.84 0 0 0 .62-.25.83.83 0 0 0 .2-.61.86.86 0 0 0-.87-.87.85.85 0 0 0-.62.25.84.84 0 0 0-.26.62.83.83 0 0 0 .25.61.84.84 0 0 0 .63.25zm3.93 8.54a.82.82 0 0 1-.56-.22.76.76 0 0 1-.25-.57.74.74 0 0 1 .26-.57.76.76 0 0 1 .53-.22h9.62a.77.77 0 0 1 .55.22.72.72 0 0 1 .25.56.76.76 0 0 1-.25.57.77.77 0 0 1-.55.22h-9.6zm1.13-7a.75.75 0 0 1-.53-.22.72.72 0 0 1-.23-.55.71.71 0 0 1 .23-.53.77.77 0 0 1 .52-.21h7.34a.73.73 0 0 1 .52.21.71.71 0 0 1 .23.53.72.72 0 0 1-.23.55.71.71 0 0 1-.52.22h-7.3zm14.36 7.95h-.27a1.22 1.22 0 0 1-.46-.1 1.27 1.27 0 0 1-.57-.48.62.62 0 0 1-.08-.3.74.74 0 0 1 0-.23.58.58 0 0 1 .42-.34 14.33 14.33 0 0 0 4.66-1.8 12.93 12.93 0 0 0 2.54-2.06 13.7 13.7 0 0 0 1.9-2.45.45.45 0 0 1 .42-.25.44.44 0 0 1 .41.25 1.41 1.41 0 0 1 .21.74 1.33 1.33 0 0 1-.23.77 14.53 14.53 0 0 1-1.95 2.36 13.72 13.72 0 0 1-2.51 2 15.88 15.88 0 0 1-4.49 1.89zm-.75-9.11a.65.65 0 0 1-.26-.43.15.15 0 0 1 0-.07.63.63 0 0 1 .18-.44.88.88 0 0 1 .55-.27h.1a.83.83 0 0 1 .48.15q1.3 1 2.41 2a.72.72 0 0 1 .25.56.76.76 0 0 1-.23.56.72.72 0 0 1-.55.23.79.79 0 0 1-.56-.22Q70 5.33 68.85 4.44zm17.53-.17a.07.07 0 0 0 0 .08.08.08 0 0 0 .07 0h3.88a1.85 1.85 0 0 1 1 .23.68.68 0 0 1 .31.42.89.89 0 0 1 0 .22 1 1 0 0 1-.05.31c0 .08-.07.16-.1.25a14.86 14.86 0 0 1-1 2.41A11.71 11.71 0 0 1 89 10.55a12.45 12.45 0 0 1-4.79 3.54 1.32 1.32 0 0 1-.52.11h-.25a1.36 1.36 0 0 1-.7-.34.47.47 0 0 1-.16-.3.51.51 0 0 1 .07-.33.52.52 0 0 1 .27-.22 11.1 11.1 0 0 0 4.79-3.21 10.14 10.14 0 0 0 1.3-2 9.73 9.73 0 0 0 .81-2 .1.1 0 0 0 0-.1.11.11 0 0 0-.09 0h-4.12a.26.26 0 0 0-.22.11 14.5 14.5 0 0 1-2.83 2.86 1 1 0 0 1-.6.21 1.14 1.14 0 0 1-.63-.22.48.48 0 0 1-.21-.41.52.52 0 0 1 .23-.45 12 12 0 0 0 3.76-4.22q.1-.18.22-.45a1 1 0 0 1 .46-.49.8.8 0 0 1 .38-.1.9.9 0 0 1 .26 0 .66.66 0 0 1 .42.41.77.77 0 0 1 0 .25.67.67 0 0 1-.1.34l-.23.46-.05.11zm3.8-1.45a.4.4 0 0 1-.07-.22.67.67 0 0 1 0-.12.41.41 0 0 1 .23-.26.57.57 0 0 1 .4 0 .54.54 0 0 1 .31.24q.31.51.63 1.08a.42.42 0 0 1 0 .36.46.46 0 0 1-.25.27.62.62 0 0 1-.22 0h-.18a.5.5 0 0 1-.3-.26q-.28-.64-.55-1.09zm1.59-.6A.43.43 0 0 1 91.7 2a.47.47 0 0 1 0-.11.41.41 0 0 1 .22-.26.73.73 0 0 1 .23 0h.18a.51.51 0 0 1 .31.23q.34.52.66 1.07a.49.49 0 0 1 .05.22.47.47 0 0 1 0 .15.41.41 0 0 1-.25.27.59.59 0 0 1-.21 0 .55.55 0 0 1-.18 0 .5.5 0 0 1-.3-.26q-.32-.61-.64-1.1zm9.95 10.36a.12.12 0 0 0 .14.14h4.74a.63.63 0 0 1 .45.18.63.63 0 0 1 0 .9.63.63 0 0 1-.45.18H95.47a.63.63 0 0 1-.47-.17.63.63 0 0 1 0-.9.63.63 0 0 1 .45-.18h4.69a.12.12 0 0 0 .14-.14V9.76a.12.12 0 0 0-.14-.14h-3.37a.61.61 0 0 1-.44-.18.64.64 0 0 1 0-.9.61.61 0 0 1 .44-.18h3.39a.12.12 0 0 0 .14-.14V5.71a.12.12 0 0 0-.14-.14H96.1a.64.64 0 0 1 0-1.29h5.11v-.06a18.27 18.27 0 0 0-1.64-1.46.43.43 0 0 1-.19-.37.44.44 0 0 1 .25-.39.93.93 0 0 1 1.05 0 17 17 0 0 1 1.56 1.29.6.6 0 0 1 .19.44.65.65 0 0 1-.27.55h3.73a.6.6 0 0 1 .44.19.64.64 0 0 1 0 .9.59.59 0 0 1-.44.19h-4a.12.12 0 0 0-.14.14v2.5a.12.12 0 0 0 .14.14h3.43a.61.61 0 0 1 .44.18.64.64 0 0 1 0 .9.61.61 0 0 1-.44.18h-3.43a.12.12 0 0 0-.14.14zm10.92-1.75a.12.12 0 0 0-.14.14v1.56a.17.17 0 0 0 .12.18 11.89 11.89 0 0 0 3.6.4h4.72a.34.34 0 0 1 .3.16.47.47 0 0 1 .05.21.4.4 0 0 1 0 .15.91.91 0 0 1-.3.4.75.75 0 0 1-.46.16h-4.28a14 14 0 0 1-3.66-.38 4 4 0 0 1-2.19-1.53.08.08 0 0 0-.07 0 5.88 5.88 0 0 1-.67 1.76.36.36 0 0 1-.33.18.47.47 0 0 1-.37-.18.73.73 0 0 1-.19-.42v-.1a.8.8 0 0 1 .1-.38 8.51 8.51 0 0 0 .7-3.4.57.57 0 0 1 .17-.38.52.52 0 0 1 .38-.16.5.5 0 0 1 .38.16.48.48 0 0 1 .14.38q0 .48-.07.9a.43.43 0 0 0 .05.26 3.89 3.89 0 0 0 .72 1 .08.08 0 0 0 .08 0 .05.05 0 0 0 0-.05V8.66a.12.12 0 0 0-.14-.14h-2a.48.48 0 0 1-.36-.15.5.5 0 0 1-.22-.37.47.47 0 0 1 .14-.35.49.49 0 0 1 .36-.14h5.25A.49.49 0 0 1 115 8a.5.5 0 0 1-.14.36.46.46 0 0 1-.35.15h-1.82a.12.12 0 0 0-.14.14v1a.12.12 0 0 0 .14.14h1.57a.46.46 0 0 1 .33.14.5.5 0 0 1 0 .7.46.46 0 0 1-.33.14zm.36-8.67a1.19 1.19 0 0 1 1.19 1.19v2.07A1.19 1.19 0 0 1 113 6.6h-2.39a1.19 1.19 0 0 1-1.19-1.19V3.34a1.19 1.19 0 0 1 1.19-1.19zm-.15 1.79a.12.12 0 0 0 .14-.14v-.61a.12.12 0 0 0-.14-.14h-2.15a.12.12 0 0 0-.14.14v.62a.12.12 0 0 0 .14.14zm0 1.75a.12.12 0 0 0 .14-.14v-.62a.12.12 0 0 0-.14-.14h-2.15a.12.12 0 0 0-.14.14v.63a.12.12 0 0 0 .14.14zm3.24 5.21a1 1 0 0 1 .66-.29 1 1 0 0 1 .27 0 .39.39 0 0 1 .25.26.32.32 0 0 1-.09.34 8.18 8.18 0 0 1-1.57 1.31.69.69 0 0 1-.37.11h-.11a.83.83 0 0 1-.44-.22.39.39 0 0 1-.12-.33.36.36 0 0 1 .2-.29 6.64 6.64 0 0 0 1.35-.89zm-.75-5.62a1.19 1.19 0 0 1 1.19-1.19h.47a.17.17 0 0 0 .18-.12l.18-.66a.09.09 0 0 0 0-.08.09.09 0 0 0-.08 0h-1.91A.45.45 0 0 1 115 3a.5.5 0 0 1 0-.68.45.45 0 0 1 .34-.14h5.39a.47.47 0 0 1 .35.14.48.48 0 0 1 0 .68.47.47 0 0 1-.35.14h-2a.19.19 0 0 0-.19.12l-.26.66a.07.07 0 0 0 0 .08.09.09 0 0 0 .08 0h1.16a1.19 1.19 0 0 1 1.19 1.19v3.94a1.19 1.19 0 0 1-1.19 1.19h-3a1.19 1.19 0 0 1-1.19-1.19zm4 .6a.12.12 0 0 0 .14-.14v-.58a.12.12 0 0 0-.14-.14h-2.69a.12.12 0 0 0-.14.14v.59a.12.12 0 0 0 .14.14zm0 1.74a.12.12 0 0 0 .14-.14V6.9a.12.12 0 0 0-.14-.14h-2.69a.12.12 0 0 0-.14.14v.59a.12.12 0 0 0 .14.14zm0 1.76a.12.12 0 0 0 .14-.14v-.6a.12.12 0 0 0-.14-.14h-2.69a.12.12 0 0 0-.14.14v.6a.12.12 0 0 0 .14.14zm-.52 1.85a.32.32 0 0 1-.12-.29.3.3 0 0 1 .16-.26.86.86 0 0 1 .42-.12.8.8 0 0 1 .46.16 12 12 0 0 1 1.3 1.09.41.41 0 0 1 .12.36.46.46 0 0 1-.21.33.66.66 0 0 1-.34.1h-.1a.8.8 0 0 1-.41-.21 11.87 11.87 0 0 0-1.25-1.16zm14.08-5.97a.12.12 0 0 0-.14.14v1.77a7.65 7.65 0 0 0 .1 1.13 12.16 12.16 0 0 0 .33 1.46 7.13 7.13 0 0 0 .72 1.67 6.51 6.51 0 0 0 1.16 1.47.7.7 0 0 1 .25.46.42.42 0 0 1 0 .1.7.7 0 0 1-.14.41.59.59 0 0 1-.42.27h-.11a.53.53 0 0 1-.37-.15 5.85 5.85 0 0 1-1.11-1.47 9.18 9.18 0 0 1-.7-1.56 8.31 8.31 0 0 1-.31-1.31 8.2 8.2 0 0 1-.64 2.08 6.63 6.63 0 0 1-1.36 2 .78.78 0 0 1-.55.23h-.15a1 1 0 0 1-.64-.41h-.05a.82.82 0 0 1-.45.64 3.82 3.82 0 0 1-1.26.16.67.67 0 0 1-.42-.15.82.82 0 0 1-.27-.38.36.36 0 0 1 0-.35.35.35 0 0 1 .3-.16h.71a.35.35 0 0 0 .18-.05.19.19 0 0 0 0-.15V9.4a.12.12 0 0 0-.14-.14h-4.32a.54.54 0 0 1-.55-.54.55.55 0 0 1 .16-.39.52.52 0 0 1 .39-.16h6.14a.52.52 0 0 1 .39.16.55.55 0 0 1 .16.39.54.54 0 0 1-.55.54h-.41a.1.1 0 0 0-.11.11v3.77a.07.07 0 0 0 0 .06.07.07 0 0 0 .08 0A5.62 5.62 0 0 0 130 12a7 7 0 0 0 .78-1.35 8.62 8.62 0 0 0 .45-1.37 9.82 9.82 0 0 0 .23-1.21 8.58 8.58 0 0 0 .05-.92V5.39a.12.12 0 0 0-.14-.14h-.3a.17.17 0 0 0-.18.14 11.48 11.48 0 0 1-.74 1.87.54.54 0 0 1-.38.29h-.15a.6.6 0 0 1-.33-.1.64.64 0 0 1-.29-.4.51.51 0 0 1 0-.16.65.65 0 0 1 0-.29 13.25 13.25 0 0 0 1.29-4.33.66.66 0 0 1 .25-.42.6.6 0 0 1 .37-.12h.1a.55.55 0 0 1 .41.25.58.58 0 0 1 .12.36v.11q-.14.85-.3 1.49a.1.1 0 0 0 0 .1.11.11 0 0 0 .09 0h3a.72.72 0 0 1 .34 0l.26.05a.46.46 0 0 1 .38.45.23.23 0 0 1 0 .07q-.23 1.44-.53 2.6a.55.55 0 0 1-.25.34.57.57 0 0 1-.3.08h-.12a.48.48 0 0 1-.33-.23.57.57 0 0 1-.08-.41q.18-.76.29-1.61a.1.1 0 0 0 0-.1.11.11 0 0 0-.09 0zm-5.33 1.46V3.53a.12.12 0 0 0-.14-.14h-4.2a.54.54 0 0 1-.53-.53.54.54 0 0 1 .53-.53h5.88a.53.53 0 0 1 .38.91.51.51 0 0 1-.38.16h-.3c-.07 0-.11 0-.11.1v3.23a1.57 1.57 0 0 1-.1.63.7.7 0 0 1-.37.33 3.39 3.39 0 0 1-1.27.16.55.55 0 0 1-.4-.13.85.85 0 0 1-.26-.35.36.36 0 0 1 0-.32.31.31 0 0 1 .27-.14h.71a.3.3 0 0 0 .18 0 .16.16 0 0 0 .11-.19zm-.89 5a1.19 1.19 0 0 1-1.19 1.19h-1.27s-.05 0-.05.07V13a.49.49 0 1 1-1 0v-1.82a1.19 1.19 0 0 1 1.2-1.18h1.12a1.19 1.19 0 0 1 1.19 1.19zM125.45 4a1.19 1.19 0 0 1 1.19 1.19v.41a1.19 1.19 0 0 1-1.19 1.19h-1.19a.43.43 0 0 1-.13.32.42.42 0 0 1-.31.13h-.05a.46.46 0 0 1-.33-.14.47.47 0 0 1-.14-.35V5.23A1.19 1.19 0 0 1 124.44 4zm.26 7a.12.12 0 0 0-.14-.14h-1.27a.12.12 0 0 0-.14.14v.9a.12.12 0 0 0 .14.14h1.27a.12.12 0 0 0 .14-.14zm-.18-5a.12.12 0 0 0 .14-.14V5a.12.12 0 0 0-.14-.14h-1.18a.12.12 0 0 0-.14.14v.83a.12.12 0 0 0 .14.14z"/><path class="b" d="M145.89 19.77c.08 0 0-.14-.18-.12l-.15.17zm-1.42-.31c-.25.08-.54.22-.37.37.25-.16.31-.09.57-.28.21 0 .37.05.33.11s.33 0 .44-.07a1.42 1.42 0 0 0-1 0c-.06-.06.01-.1.03-.13zm-20.68-.26h.13zM111 19.11h.14s-.14-.01-.14 0zm-2.2-.18h.13a.22.22 0 0 0-.13 0zm14.99.27l-.34-.05c-.02.05.18.04.34.05zm17.83.66h.19-.17zm-12.18-.79h.1l.09-.07zm4.34-.07c-.1 0-.13.13-.17.2a.34.34 0 0 1 .21-.1.15.15 0 0 0-.04-.1zm6.87.29h.12zM126.34 19a.1.1 0 0 0 0-.05s-.02.05 0 .05zM5.13 20.09s-.03 0 0 0zM.11 19.4h.07a.28.28 0 0 0 0-.08zm104.69-.65c.12-.01.06-.01 0 0zm-36.75.1c.42.13-.68.16-.05.3-.06-.05.57-.22.05-.3zm73.46.99zM68 19.15zm27.57-.32a.26.26 0 0 0 .09.06s-.02-.03-.09-.06zm6.87.17h-.17zM92 19a.67.67 0 0 0-.25 0 .34.34 0 0 1 .25 0zm-3.71 0h.19zm-71.87 1a.54.54 0 0 1-.17-.13c.05.13-.49.13.17.13zm125.2-.22a.13.13 0 0 1-.11.06h.12s.01-.05-.01-.06zm-49.76.36h-.59zM43.05 20h-.14a.29.29 0 0 0 .14 0zm46.47.14a1.25 1.25 0 0 0-.33-.1h-.07zm-73.28-.24z"/><path class="b" d="M12.36 20.23c.56 0 .26-.18.38-.29.67-.05.31.14.54.23.42 0 .74-.22 1.05-.21 0 0 .08 0 0 .08.44-.15 1.31 0 1.83-.19h.07a.28.28 0 0 1-.08-.25c.25 0 .47-.12.56 0-.15 0-.17 0-.24.08l.26-.05c.24.17-.36.06-.36.19a8.24 8.24 0 0 1 1.51-.15c.08.17-.92.06-.4.21l-.61-.07c.47.27-.37 0 .06.27.8 0 .9-.09 1.7 0 .18-.09-.06-.14.12-.23 1.14-.17.9.43 1.73.2a.92.92 0 0 1 .9-.21l-.2.19c.78 0 .44-.28 1.26-.15-.15.08-.61.06-.49.09.53.15.37-.11.78-.11l.08.17c.83 0 1.74-.15 2.66-.18-.05.05-.21.1 0 .16a23 23 0 0 1 3.58.12l.45-.13c.1 0 .18.07.08.09.44.06 0-.09.23-.15s.33.08.17.13a10.63 10.63 0 0 1 3-.11h-.16c.63.06.71-.3 1.29-.16H34a30 30 0 0 1 3.92.15c.2-.21 1.35.09 1.44-.2a9 9 0 0 0 1.66.3c.29 0 .44-.18.8-.21V20l.49-.16.26.18h.34c-.14 0-.29-.07-.27-.11a2.49 2.49 0 0 1 1.36.19l1.22-.1c0 .06-.24.08-.41.12.67-.16.12.16.74 0-.08 0 0-.09.06-.12a5.49 5.49 0 0 0 1.52.05l-.1.11c.93 0 2-.05 3 0-.38 0-.29-.23 0-.25l.12.16c.2-.1-.32-.06.09-.18s.26.19 0 .24l.48-.06s-.08.07-.11.14c.19-.1.82.16 1.1 0 1 0 1.52-.05 2.37-.06 0-.14.35-.11.6-.22.63 0 1.32.16 2.08.14.53-.07.15-.12.39-.2 0 .13.79.12.4.21.91 0 1.16 0 2.3-.13-.12-.05-.26-.08-.19-.12s.47.05.44.12h-.06c1.29-.19 3 .37 4 .11h-.06l1.06-.14c.49 0-.29.1.07.18 1.15-.21 1.81 0 2.75-.11.73.38 2.59 0 3.58.21l-.06-.09c.25-.09.31.05.5.07 0-.07-.28-.08-.12-.13 2.16-.11 4.45.13 6.67.21.81 0 .46-.46 1.48-.25l-.29.17c1.63-.2 3.34 0 4.94-.16-.1 0-.1.09-.25.09a2.15 2.15 0 0 0 1.35-.11c.25 0 .06.09.21.14.34.07.85-.15 1 0s-.09 0-.16 0c.22-.06 1 0 .82-.12.6.07 1.15-.06 1.63 0 .31-.15 1 .07 1.13-.14 0 .23 1.05.18 1.43.08-.13.07.33.07.18.17.43 0 .83 0 .75-.16.8.27 1.6-.22 2.05.13 1.29-.12 2.48-.2 3.63-.26 0 .23-1.28 0-1.23.26a18.28 18.28 0 0 1 2.82-.23c.28 0-.16.1-.26.14 1.1-.09 2.12 0 3.1-.1 0 0-.11 0-.21.06.19 0 .45 0 .43-.07h-.19c-.31-.15.76-.31.8-.39-.33.29 1 .07.45.45.13 0 .29-.07.26-.14.19 0 .25.06.06.14.69-.06.44-.16 1.07-.16 0 0-.13.07-.19.13a2.76 2.76 0 0 1 1.16-.15s0 .07-.13.07a18.92 18.92 0 0 1 2.54-.16c-.29.22.34.07.39.26l.53-.06-.21-.09a10.17 10.17 0 0 1 1.28-.07l-.35.08h.88l-.5-.07c.47-.1-.05-.24.57-.18a4.52 4.52 0 0 1 .71.11 1.93 1.93 0 0 1 .82-.08c.09.06-.07.21 0 .25.23-.16 1.1 0 1.39-.21-.1 0-.1.14-.07.16l.19-.13c.22 0 .25.06.21.14.65 0-.21-.24.57-.13h-.16c.78.05 1.5-.08 2.22 0 .21.19-.62 0-.38.2 1 0 2.13-.23 3.13-.18h-.19c.14-.27.74.13 1.25 0-.12 0-.16.15-.13.12a18.7 18.7 0 0 0 2.43-.15l-.13.07c.4.06 1.06 0 1.49.07.13-.07.38-.06.23-.16 1.34.39 2.56-.21 3.74.12-.14 0-.34.06-.23.06l1-.06c-.08-.12-.13-.07-.35-.16a1.69 1.69 0 0 1 .66-.12c-.46.08 0 .19.2.25v-.11c.53.21.09-.23.81-.09v.06a4.4 4.4 0 0 1 .81-.09c.12.13-.29.06-.31.17.41 0 .81-.25 1.18-.12-.17 0-.42 0-.6.07a1.75 1.75 0 0 0 .75.14l.69.07h-.18c.51-.35 1-.06 1.73-.29-.67.22-.11.13-.16.28.18 0 .44.09.37.13.33-.12.54.1 1-.08 0 0 .35 0 .28.13.42 0-.1-.08-.06-.15.65-.17 1.54.2 2.48 0s1-.26 1.71-.34c.25.08-.21.18-.21.18a3.21 3.21 0 0 0 1.1 0c-.08 0 0 .08.12.13.31 0 .21-.18.62-.11a1 1 0 0 1-.31.2c.36 0 .73-.14 1.1-.18.1.08-.23.13-.36.18a3.53 3.53 0 0 0 1.23-.21h-.27c.15 0 .08.12 0 .14-.36.11-.52 0-.55-.1h.27c-.28-.29-1.08 0-1.62 0l.23-.21-.56.17c-.12-.05-.2-.17.07-.2-.39-.1-.34.07-.68 0l-.38.06c.07 0-.06-.15.17-.12-.68-.12-1.1.16-1.35 0h.06c-.94.07-.09.15-.8.33l-.48-.38-.09.15c-.1 0-.29 0-.25-.08-.36.1.06.07-.15.17-.47-.14-1.29.06-1.4-.18-.17.12.45.09-.05.17-.14-.26-.58 0-1-.08.13-.14.54-.06.11-.18-.26.23-.83 0-1.2 0 0 .18-.79.08-1.39.14a17.1 17.1 0 0 0-1.71-.17c-.11.18-.69.15-1.12.19 0-.11.09-.15.32-.2h-.4a1 1 0 0 1-.48.11l.1-.14a9.72 9.72 0 0 1-1.75.07c0 .13.54.36-.18.44 0-.07-.05-.19.14-.22a.91.91 0 0 1-.35 0l.29-.12c-.31-.05-.16.1-.41.09 0-.1-.18-.07-.15-.15s.22 0 .31 0a2 2 0 0 1-.73-.15c0 .06 0 .13-.21.15-.53 0-.18-.12-.49-.17-.13.07-.47 0-.48.15a.32.32 0 0 1-.24-.11c-.27.07-1.28 0-1 .18-.9.15-1.87-.08-2.76 0a13 13 0 0 0-1.57.14c-.16 0-.37-.09-.3-.15a3 3 0 0 1-1 0c.41-.09-.14-.08.42-.06a2.82 2.82 0 0 0-1.22 0c.19-.13-.4-.16-.65-.12l.37.09a6.92 6.92 0 0 1-.78 0l.14-.17c-1.08-.2-2 .34-2.78 0-.29.12.59.08.33.22a8.68 8.68 0 0 1-1.17-.26c-.68-.09-.64.24-1.35.18.09.06.18.22-.36.27s-.61-.25-.3-.3h.17c.16 0 .37 0 .17-.11l-.06.06c-.25-.06-.93-.05-.77-.15-.38.06-.16.1.12.13-.64-.09-1 0-1.66-.06.1 0 .2.1.1.1-1-.07-.43.11-1.08.14-.37-.09.13-.22-.53-.14-.4-.06-.09-.16.07-.21a4.67 4.67 0 0 1-1.46-.1h.32a3.12 3.12 0 0 1-.5 0l.18.12c-.19 0-.34 0-.34-.07-.19.08.15.2-.23.3-.25-.06-.75.06-.84-.09.78.05-.09-.16.57-.18a1.85 1.85 0 0 1-.47 0h.08c-.74-.14-.34.18-1.11.17.1-.09-.18-.17-.31-.15.31 0 .15.15-.14.22a2.75 2.75 0 0 0-.8 0h.3c-.1.09-.35.08-.69.1 0-.07.31 0 .19-.08-.38.16-.87-.16-1.4-.06-.25-.06 0-.17-.24-.21-.6.12-.65-.12-1.28 0 .18.12.21.09-.23.21l1-.08-.66.17c.31 0 .66-.08.85-.05-.32.1-.28.07-.13.17-.43-.18-.85.1-1.34 0v-.3c-.74-.13-1.32.15-2.28.08l.31.05c-.13.12-.6 0-.91.06 0-.1-.17-.13-.3-.2s-.71 0-.79.19l-.4-.32c-.78-.05-.89.28-1.64.25.23-.11-.11-.18.39-.25h-.48c-.01 0-.69.13-.92 0a.61.61 0 0 1-.42.14s-.44.07-.19.18c-.77-.31-2.15 0-2.82-.24-.54 0-1.2.06-1.7.07h.1c-.68-.09-.42.28-1.2.18-.4-.16.41-.09.17-.15-.11-.32-.94 0-1.46-.15h.13a12.24 12.24 0 0 0-1.63.1 8.71 8.71 0 0 1-1.92.27c.2-.13.29-.07.17-.2-.28 0 .08.21-.48.24-.18-.07-.59-.13-.64-.27h.53c-.27-.18-.69 0-1 0v-.08c-.81 0-.82.22-1.7.21l.09.06c-.48.19-.4-.11-.88 0l-.14-.2c-.31 0-1.1.19-1.67.23A8.73 8.73 0 0 1 76.6 19a4.47 4.47 0 0 0-1.22.11 1.15 1.15 0 0 1 .41 0 4 4 0 0 1-1.51.23c.11-.38-1.62-.1-2.07-.39a34.17 34.17 0 0 1-3.46 0c.45.3-.37 0-.3.31a1.2 1.2 0 0 1-.44 0L67.1 19c-.21-.09.28-.07.26-.14-.65 0-.27-.13-.71-.21.09.11-.23.16-.6.11l.52.14c-.91.16-.79-.26-1.71-.1l.29-.1a8.74 8.74 0 0 0-2.21.24c-.08 0-.19-.12 0-.14-1.13 0-2.51.26-3.39.11l.09-.07c-.21 0-.37.14-.63.07 0 0 .08-.07 0-.08a2.71 2.71 0 0 1-.84.09l.24-.08a13.87 13.87 0 0 0-2.61.26c0-.22-.86-.29-1.3-.33a31.52 31.52 0 0 0-3.37.27 33.81 33.81 0 0 0-3.68-.23c.18 0 0 .17-.24.19s-.77.15-.72 0h.1c-.21-.2-.78-.15-1.23-.15l-.07.26c-1.17-.38-3.06.14-3.69-.2-.28.07-.63.07-.91.13v-.14a21.14 21.14 0 0 0-2.13 0l.2-.1c-.54 0-.69.41-1.19.42l-.15-.21a14.37 14.37 0 0 0-2.85 0s0-.09.2-.1c-.45 0-1.73-.14-1.57.15 0-.19-1 0-1.49.06l.08-.14a2.35 2.35 0 0 1-1.05.28c-.14 0-.12-.11.06-.08-.48-.07-.37.13-1 .06l.3-.24a1.15 1.15 0 0 0-.72.14 1.59 1.59 0 0 1-1-.16.84.84 0 0 1-.62.14s.07-.08.12-.09c-.82-.09-1.22.16-1.78 0A.12.12 0 0 0 26 19h1.13c-.05 0-.53-.15-.11-.33a5.58 5.58 0 0 1-1.66.25h-.07.05a1 1 0 0 0-.32 0 3.28 3.28 0 0 0-.42 0c-.06-.11-.6-.06-.87-.06 0 .14-.32.12 0 .23h.97a1.13 1.13 0 0 1-.71.05l-.37.23c-.36-.2-1.05-.3-1.15-.42a8.71 8.71 0 0 0-2.39.32c-.23 0-.26-.08-.35-.12a2.06 2.06 0 0 0 .36-.06c-.46.07-1.35 0-1.46.21-.57-.08.32-.17-.47-.14l.11-.06c-1.55-.29-2.52.47-4.25.09.12 0 .18 0 .2.06-2-.17-4 .16-6-.11a1.74 1.74 0 0 0-.95.15l-.12-.15-.57.17c-.81.13-1.41-.37-2.44-.13l.13.1c-.37 0-1.17.06-1.11-.06a.27.27 0 0 1-.27.05v-.08l-.89.08c-.71-.06.11-.31-.92-.33-.38 0-1.09.23-.95.28s.39 0 .41.13H.19c-.06.23-.33.47.53.63l.6-.14.18.16H1a.88.88 0 0 0 .67-.05.41.41 0 0 0 .25.12l.59-.22c.07.09-.26.18.13.23.27-.1-.26-.2.19-.27.29.11.2.19.54.1 0 .06 0 .1-.16.12.3-.07.79 0 .95-.15.3.13 1 0 1 .19a2.68 2.68 0 0 1 .8-.18c-.5.26 1 0 .9.3.37-.24 1.34-.11 2-.24a.29.29 0 0 1-.17 0 3.54 3.54 0 0 1 .72.14c0-.2.62-.24.94-.36.45.19-.28.23-.13.41 0-.16.79-.16.63-.29.35.12.3.06.48.22.06-.24.32 0 .61-.19.5.12.13.23.68.15.23.12-.26.2-.26.2zm13.13-.42zm1.1 0h-.48s0-.1.11-.1c-.06.03.2.06.37.1zm-2.33-1h.26-.31a.18.18 0 0 1 .05.02zm-.32.19h-.07.13zm100.06.22z"/><path class="b" d="M41.82 20.07v-.03l-.09.03h.09zm88.18-.36h.08zm2.65.03l.37.05zm2.02.07a.15.15 0 0 0 0-.06zm-32.09.19zm9.55-.35l-.31.07c.18 0 .31.01.31-.07zm-20.21.49zm19.46-.43a1.39 1.39 0 0 0 .44 0 2.14 2.14 0 0 0-.44 0zm32.04.16h.1zm.11-.01h.11s-.1-.02-.11 0zm.33-.06h-.23a.41.41 0 0 0 .23 0zm-3.11.01v.05a.07.07 0 0 0 0-.05zm-.82.01a3.77 3.77 0 0 0 .76.08c-.1.03-.57-.16-.76-.08zm-3.38-.63h.68c-.12-.05-.27-.13 0-.14-.83-.12.21.16-.68.14zm-2.11-.08c.37 0 0-.08 0-.11-.22.05-.28.07 0 .11zm-15.25 0v-.13c-.24.02.04.02 0 .13zm-2.91.66l.27.08.13-.11-.4.03zm-1.72-.91l.12-.02-.47.05.35-.03zM89 18.91l.08.16c.15-.07.19-.21-.08-.16zm-11.1.16a.83.83 0 0 0-.62-.05 6.18 6.18 0 0 0 .62.05zm-33.15-.26l.23-.05-.42.04.19.01z"/><path class="c" d="M0 0h146v21H0z"/></svg>