<svg xmlns="http://www.w3.org/2000/svg" viewBox="0 0 43.19 17.69"><defs><style>.cls-1{fill:none;stroke:#0098f5;stroke-linecap:round;stroke-linejoin:round;stroke-width:.43px}</style></defs><title>txt_nav_04</title><g id="レイヤー_2" data-name="レイヤー 2"><g id="nav"><path class="cls-1" d="M8.69 15.68s.46-.28.46-.27-.15.89-.15.91 2.78-1.7 2.82-1.63-2.24 1.7-2.21 1.76 2.09-1.28 2.12-1.23-1.1 1.12-1.09 1.15.77-.47.78-.45m-4.18-2.4S9 12.47 9 12.51s-.54 1-.52 1 1.71-1 1.74-1-1 1-1 1 1.71-1 1.73-1-.85 1-.84 1 1.34-.82 1.36-.78-.72 1.27-.7 1.27 1.18-.72 1.2-.69-1.28 1-1.26 1.08 1.28-.78 1.3-.75-1.46 1.21-1.43 1.25 1.34-.82 1.36-.78"/><path class="cls-1" d="M5.69 14.15c0 .07 2.79-1.71 2.83-1.64s-2.85 2.1-2.81 2.18S6.86 14 6.88 14s-1.18 1-1.16 1.08 1.14-.7 1.16-.67-1.18 1-1.16 1 1.14-.7 1.16-.67-1.18 1.1-1.16 1.13 1.14-.7 1.16-.67-1.12 1.27-1.1 1.31 1.09-.67 1.1-.64S6.23 17 6.24 17s.53-.32.54-.31M.43 16s1.06-.65 1.07-.62-1 .95-1 1 6.57-4 6.67-3.85-6.49 3.87-6.4 4 6.89-4.21 7-4-5.74 3.61-5.66 3.76S4.33 14.94 4.37 15M2 10.87s.68-.41.68-.4-1.25 1.6-1.22 1.64 3-1.84 3.06-1.77-3.4 2.79-3.34 2.88 1.43-.88 1.46-.84-1.14 1.38-1.12 1.42 2.2-1.34 2.23-1.29-.23 1-.22 1 1.71-1 1.73-1-.74 1-.72 1.07 2.31-1.41 2.35-1.36m.48-3.14s1.68-1 1.7-1-.33 1-.31 1 1.56-1 1.58-.91-.25 1-.24 1 1-.59 1-.56-1 1.16-.94 1.19 1.14-.7 1.16-.67m-4.08 2.21s1.7-1 1.73-1-.59 1-.57 1 2.88-1.76 2.92-1.69-1.44 1.63-1.42 1.68 1.23-.75 1.25-.72"/><path class="cls-1" d="M3.3 11.33s1.69-1 1.71-1-.82 1-.81 1 2.65-1.62 2.69-1.55-1.35 1.53-1.32 1.58 1.72-1.05 1.74-1-1.62 1.27-1.6 1.31S8 10.29 8 10.35s-2.3 1.87-2.26 1.94 1.14-.7 1.15-.67M1.32 8.41s.53-.33.54-.31-.55.67-.54.69 1.18-.72 1.2-.69-.37 1-.36 1 1.67-1 1.69-1-.12 1-.11 1 1.67-1 1.69-1-1.08.95-1.06 1 1.67-1 1.69-1-.63 1-.61 1 1.67-1 1.69-1-1.46 1.13-1.43 1.18 2-1.23 2-1.18-2.06 1.94-2 2 1.14-.7 1.16-.67m3.3-3.03s1.68-1 1.71-1-.16 1-.15 1 .84-.51.85-.49"/><path class="cls-1" d="M8 6.4s1.68-1 1.7-1-1 1.28-1 1.32 2.24-1.36 2.3-1.31-2 1.75-2 1.81.94-.58 1-.55-.59 1-.58 1 .85-.52.86-.5M7.31 4.66s.57-.35.58-.34-1.27 1.3-1.25 1.34 1.72-1.05 1.75-1"/><path class="cls-1" d="M4.11 6.4s1.44-.88 1.46-.84-.64.82-.63.84 1-.58 1-.56 0 .54.05.55l.15-.09s-.43.62-.42.64 2.62-1.6 2.66-1.53-2.69 2-2.64 2 3.48-2.13 3.53-2-3.14 2.22-3.09 2.31.73-.45.74-.43"/><path class="cls-1" d="M2.4 6.42s1.71-1 1.74-1-1.54 1.16-1.51 1.2 2.07-1.26 2.1-1.21S2.79 7 2.83 7.05s1-.6 1-.58-.58 1.22-.56 1.25.81-.49.82-.47M1.75 4.68s.58-.36.59-.34S1 5.92 1 6s1.84-1.16 1.86-1.11S.28 6.78.32 6.85s2.45-1.5 2.48-1.43S.26 7.58.3 7.66s1.51-.92 1.53-.89-1.2 1-1.18 1 .73-.45.74-.43m5.96 1.84l.15-.09s1.5.05 1.5.08l.16-.09s.73.08.74.09h.05s.05.57.06.58h.08s-.09.41-.08.42h.08m-3.21-.83L7 9.28s-.09.85-.08.87H7l.4.24.17-.1s.67.08.68.09l.16-.09s.74.07.75.09l.15-.09.5.08.15-.09m-6.69 1.15l.14-.08s1 .06 1 .08l.16-.09s.57.08.58.09l.17-.1.26.21h.06s-.07.73-.06.75h.08m-2.91-.66l.11-.06s-.25.67-.24.68l.14-.08.08.33.16-.1s1.34.07 1.36.1l.16-.09s.84.07.85.09l.15-.09"/><path class="cls-1" d="M2 8.08L2.11 8s.55.07.56.08L2.81 8l.43.08.15-.08s1.14.06 1.16.08L4.69 8s.66.07.67.08L5.51 8s.63.07.64.08L6.29 8l.47.08.15-.08s.6.07.61.08L7.66 8s.84.06.85.08L8.65 8s1 .06 1 .08L9.76 8s.7.18.71.2l.18-.11.47.65.14-.08s.06.74.07.75h.08s-.09.43-.08.44h.08s-.35 1-.34 1.07l.23-.13m-4.05.64l.15-.09s1.43.05 1.45.08l.15-.08s1.34 0 1.36.05.79-.48.8-.46m-4.28.65l.1-.06s-.06.8-.05.81h.06s1.19.17 1.21.2l.16-.09s.69.07.7.09l.15-.09s1.35.05 1.37.08l.14-.08.47.17.17-.1.49.52h.07s.12.7.13.72l.09-.05s-.27 1.07-.25 1.09l.11-.06s-.32.82-.31.84l.13-.08s-.34.52-.33.53l.15-.09m-3.04-.3h.08s.07.59.07.6h.07s.74.4.75.42l.14-.08s.52.05.52.06l.15-.09m-1.3-1.14l.14-.08s.75 0 .76.06l.24-.14"/><path class="cls-1" d="M7.25 13.61l.15-.09.48.09.12-.09s1.15.06 1.16.09l.15-.09s1.15.06 1.16.09l.14-.08v.83h.08s-.26.7-.25.71h.08m-3.64-1.31L7 13.7s-.1.91-.09.93l.09-.05s-.1.75-.09.76l.09-.05s-.09.67-.09.68H7s-.09.41-.08.42H7M5.62 14.3h.08s-.09.77-.08.79h.08s-.09.7-.08.71h.08s-.09.54-.08.55h.08v.55h.07l.45.43.29-.17m-1.68-2.5s.64-.39.64-.37M.35 15.94l.11-.06v.49h.07l.37.36h.08s1.25-.31 1.27-.28 1.12-.68 1.13-.66m-1.9-.41S2 15 2 15.05m-.09-4.26l.14-.08s-.69 1.2-.68 1.23l.1-.06s-.26.61-.25.63l.1-.06s-.29.78-.28.8h.08l.21.6h.07s1.42-.17 1.43-.14l.18-.1s.74.07.75.09l.16-.1s.56.07.57.09m-1.81-3.25s.32-.2.33-.19 1.06.06 1.07.08l.15-.08s.6.07.61.08l.16-.08M1.25 8.34l.1-.06s-.09.59-.08.61h.07l.23.26h.08l.46.11.15-.09s.65.07.66.08l.15-.09s1 .07 1 .09l.16-.09s1.36.15 1.37.18 0 .45 0 .46h.08s-.09.44-.08.45h.08m-3.24-5.9h.08l.24.28h.07v.33l.09-.05.53.6.15-.09s1 .06 1 .08l.15-.09.44.08h.08l.62.51h.08s.09.44.09.45l.11-.06m1.1-1.79l.21-.12S6.31 6 6.33 6.06L6.46 6m1.43-1.66L8 4.27l.41.56h.08l.51.6.15-.09s1 .06 1 .09l.15-.09s.57.07.57.08l.13-.08s1.36.15 1.38.18l.09-.05s.07.58.08.6l.06-.07m-2.48.46l.14-.08s1 .06 1 .08l.14-.08s.55.07.56.08l.2-.12m-2.28.22h.07l.18.42h.07v.59l.12-.07M8 6.47l.15-.09.37.17h.08l.3.6h.07l.45.66h.07l.28.19.2-.12M7.41 6.67l.19-.11s-.7.71-.69.73l.2-.12m-3-.71l.14-.08s1.16.05 1.17.08l.14-.08v.67L5.69 7v.63h.07l.39.21.17-.1m-2.5-1.2h.06L4 7h.07S4 7.43 4 7.44l.11-.07m-1.7-.88h.07l.17.38h.08s.13.49.14.51h.07l.12.33h.06l.33.32.18-.1M1.84 6.74l.16-.1s-.6.66-.59.68l.18-.1m.13-2.6l.21-.12s-1 1.39-1 1.42l.14-.08s-.83.94-.81 1l.18-.1s-.25.91-.24.93h.07l.38.29.11-.07m31.48 5.5s1.53-.93 1.55-.89-.58.87-.57.89 1.13-.69 1.15-.66-.65.74-.64.76.83-.51.84-.48-.79.8-.77.83.89-.54.9-.52-.91 1-.9 1 1-.61 1-.58-1 1.22-1 1.25 1-.61 1-.58-1.93 2-1.9 2.06 1.84-1.12 1.87-1.08-1.13 1-1.11 1.07.88-.54.89-.51"/><path class="cls-1" d="M31 12.94s.84-.51.85-.49-1.1 1-1.08 1 1.79-1.1 1.82-1.05-1.89 1.37-1.86 1.42 2.43-1.48 2.46-1.42-2.5 2.25-2.46 2.33 1-.61 1-.58-1 1.22-1 1.25 1-.61 1-.59-1 .89-1 .92 1-.61 1-.59-1 1.39-1 1.43 1.9-1.16 1.93-1.11S31.18 17 31.2 17s.48-.29.49-.28m-.86-5.94s.52-.32.53-.3 0 .93 0 1 1.63-1 1.65-1 0 .93 0 1 1.5-.92 1.52-.88-.3.86-.29.88.51-.31.52-.3m-3.93-2.3s.52-.32.53-.31-.22.9-.21.92 1.57-1 1.59-.92-.09.93-.08 1 1.63-1 1.65-1-.54.93-.53 1 1-.59 1-.57m3.07 3.76c0 .05 2-1.22 2-1.17S39 12.72 39 12.75s1.82-1.11 1.84-1.06-.36 1-.34 1.06 1.35-.83 1.37-.79-.75.92-.74.94 1-.59 1-.57-1 1.15-1 1.18 1.16-.71 1.18-.68-1.2 1.28-1.17 1.32 1.16-.71 1.17-.68-1.19 1.19-1.17 1.23 1.16-.7 1.17-.7-1.19 1-1.17 1 1.15-.7 1.17-.67m-4.66 2.05s1.84-1.13 1.87-1.08-1 1-1 1.07 1.84-1.12 1.86-1.08-.45 1-.44 1.07S42.28 15 42.32 15s-1.68 1.3-1.65 1.34 1.63-1 1.65-1-1 1.37-1 1.41 1-.62 1-.59-.7.72-.69.75.58-.35.59-.34"/><path class="cls-1" d="M36.46 12.19s.79-.48.8-.46-1 .92-1 1 1.7-1 1.73-1-1.82 1.75-1.79 1.8 3.56-2.18 3.61-2.09-3.67 2.9-3.61 3 1.13-.69 1.15-.66-1.17 1-1.15 1 1.13-.69 1.15-.66-1.17 1.25-1.15 1.28 1.14-.7 1.15-.67-1.17 1-1.15 1 1.14-.7 1.16-.67-1.15 1.44-1.12 1.48 2.13-1.3 2.16-1.25-1.95 1.57-1.92 1.63.92-.56.94-.54m2.75-6.92s1.93-1.18 2-1.13-.4 1.09-.39 1.12 1.15-.7 1.17-.67"/><path class="cls-1" d="M35.53 8.66s.56-.34.57-.33-.42 1-.41 1 1.71-1 1.74-1-.79 1.1-.77 1.12 3.11-1.9 3.16-1.82-2 1.76-2 1.82 2.06-1.26 2.09-1.21-1.35 1.49-1.32 1.53 2.41-1.5 2.46-1.44-2.53 2-2.49 2 1.21-.74 1.23-.71-1.25 1.46-1.22 1.5 1.22-.74 1.23-.71M40.28 6S42 4.93 42 5s-.48.71-.47.73.6-.37.61-.35"/><path class="cls-1" d="M36 5.74s.57-.35.58-.34-.47.72-.46.74 1.5-.92 1.52-.88-1 1.14-1 1.18S38.89 5 38.92 5.1s-1.51 1.21-1.49 1.26S39.94 4.83 40 4.89s-1.53 1.34-1.5 1.38 2.76-1.68 2.8-1.61-2.77 2.06-2.73 2.14 3.25-2 3.3-1.9-3.35 2.4-3.29 2.49 1.21-.74 1.23-.71-1.26 1.38-1.23 1.42 1.21-.74 1.23-.71m-9.64-.45s.52-.32.53-.3-.55.63-.54.65 1.11-.68 1.13-.65-.75.94-.74 1 1.65-1 1.67-1-.11 1-.1 1 1.68-1 1.7-1-.47 1-.46 1 1.56-1 1.58-.91-.31.89-.3.91.53-.33.54-.31m-4.27-2.28s.52-.32.53-.3-.16.92-.15.94 1.6-1 1.63-.94-.81.93-.8 1 1.63-1 1.65-1-.29.93-.28 1S34.68 5 34.69 5s-.51.67-.5.69.51-.31.52-.3m3.12 7.46l.15-.08s1 .06 1 .08l.15-.08s.59.07.59.08l.15-.08.47.08.14-.08.52.42h.09s-.09.51-.08.52h.08s-.09.6-.08.61h.08s-.09.62-.09.68h.08m-3.73-2l.1-.06s-.1.59-.09.6l.09-.05s-.1.42-.09.43l.09-.05s-.1.91-.08.93l.09-.05s.67.51.68.53l.16-.1s1.2.06 1.21.09l.16-.09s.64.07.65.09l.15-.09m-8.23-1.7l.15-.09s.55.07.56.09l.16-.09.42.09.1-.06s.08.68.09.7h.09s-.09.51-.08.52h.08s-.09.49-.08.5h.08m-2.05-1.49l.1-.06s-.1 1-.09 1l.09-.05v.92s.91.07.92.09l.22-.15.45.08.15-.09"/><path class="cls-1" d="M32 12.43l.15-.08s1.2.05 1.21.08l.14-.08s.9.35.91.37l.1-.06.13.42.13-.08s.06.81.07.83h.08s-.09.47-.08.48h.08s-.09.83-.08.85h.08s-.35.89-.34.91l.23-.13"/><path class="cls-1" d="M32.08 16.56l.2-.11s.95.07 1 .09l.16-.09h.53c.01 0 .7-.43.71-.41m-2.93.58s.3-.18.31-.18m-1.14-3.6s.79-.48.8-.46-1 .93-1 1l.17-.1s-.23.87-.22.89h.08s-.09.79-.08.81h.08s-.09.85-.08.87h.08s-.09.77-.08.79h.09s0 .45.05.46h.07L31 17l.09-.05m.38-6.46l.15-.08s1.36.05 1.38.08l.15-.08s1.08.06 1.09.08l.11-.07.38.41h.07m-4.02-.1l.09-.05s0 .69.05.71l.09-.05s.86.15.87.16l.15-.08s.72.07.73.08l.15-.08s.83.06.84.08l.15-.08m-2.47-2.83l.14-.08s.89.06.9.08l.14-.08s.92.06.93.08l.14-.08.5.08.13-.07.45.51h.07m-4.05-.2l.1-.06s-.1.51-.09.52h.07l.39.35.14-.08s1.4.05 1.41.08l.2-.13s1.3.05 1.31.08.37-.23.37-.22m1.97-3.99l.18-.11s2-.22 2-.18l.22-.09s1.17-.18 1.18-.15l.21-.12s1.21 0 1.22.06h.08l.32.33h.07v.36l.1-.06m-1.93.64l.26-.15s1-.13 1-.11l.25-.14m-1.99.59l.11-.06s-.13.75-.12.77l.09-.05s-.09.48-.09.49l.09-.05s-.09.55-.08.56h.09s.76.45.77.47l.16-.09.46.09.16-.09s.57.07.58.09l.15-.09s.59.22.6.24h.07v.69L43 9m-2.83.55l.15-.09s.82.07.83.08l.15-.09s.52.07.53.08l.17-.07m-2.2.23l.1-.06s-.1.46-.09.48l.09-.05s-.1.39-.09.4l.09-.05s-.1.93-.08 1h.09l.51.38.16-.09.44.08.14-.08.84.3h.08s.24.77.25.79l.09-.05s-.07.59-.06.6h.09s-.09.79-.08.81h.09s-.09.43-.08.44h.09s-.09.69-.08.71h.09s-.09.46-.08.47h.09s-.09.73-.08.74h.09s-.19.47-.19.48l.1-.06m-4.74-.44l.2-.11s1.44.07 1.45.1l.17-.1s1.48.06 1.5.09l.1-.06.33.58h.08m-4.15-.44l.3-.18m-1.28-4.28s.79-.48.8-.46-1.08 1.24-1.06 1.27h.08s-.09.89-.08.91h.08s-.09.55-.08.57h.08s-.09.65-.08.66h.08s-.09.67-.08.69h.08s-.09.59-.08.6h.09s-.06.5-.05.51h.06l.42.56.09-.05m.61-5.67l.15-.08s.73.06.74.08l.15-.09"/><path class="cls-1" d="M35.46 8.59l.11-.06s-.19.47-.18.48h.07l.42.52h.08s1.4.07 1.42.1l.14-.08.49.08.14-.08.31.44h.08s-.09.39-.08.4h.08s-.09.86-.08.88h.08s-.09.39-.08.4h.08m-2.43-3.36l.15-.08s1.39.05 1.41.08l.15-.09m-1.95-2.53h.08s.13.66.14.68h.07s.77.21.78.23l.17-.1s1.18-.06 1.19 0l.16-.09v.78l.1-.19s-.11.65-.1.66l.1-.06s-.09.46-.09.47h.09m-7.75-1.42l.19-.09s.91.06.93.08l.07-.08s.94.06.95.08l.15-.08s.76.07.77.08l.13-.08s1.09.3 1.11.33h.07s-.05.44 0 .45l.11-.06m-5.16-.39l.09-.05s-.1.52-.09.53h.07l.4.36.14-.08s.54.07.54.08l.15-.08s.74.07.75.08l.15-.08s.86.06.87.08l.15-.08s.86.06.87.08l.15-.08m-2.86-2.89l.14-.08.45.08.14-.08s.78.06.79.08l.14-.08s1.3.13 1.32.16h.09s.11.59.11.61l.11-.06M30.86 5l.14-.05s.17.73.18.75h.09s.64.11.65.12l.08-.13s1.22.06 1.23.08l.15-.08s.84.06.85.08.34-.21.35-.2m-7.64 9.07s1.65-1 1.68-1-.89.9-.88.92.68-.42.69-.4m-6.49-8.63c.07.12 4.59-2.81 4.66-2.69s-4.73 2.91-4.66 3 4.59-2.81 4.66-2.69-4.72 3.1-4.65 3.23 4.59-2.8 4.66-2.69S21.88 7.2 22 7.32s4.58-2.8 4.65-2.68S21.89 7.91 22 8s4.58-2.8 4.64-2.68S21.9 8.81 22 8.94s4.57-2.79 4.64-2.68-4.7 3-4.63 3.16 4.57-2.79 4.63-2.67S21.91 10 22 10.15s4.56-2.79 4.63-2.67-4.69 2.88-4.62 3 4.56-2.79 4.62-2.67"/><path class="cls-1" d="M20.72 1s.74-.45.75-.43-1.85 1.85-1.82 1.9S23.18.28 23.23.37s-4.15 2.74-4.08 2.85 4.92-3 5-2.88-5.88 4-5.79 4.14S25.48.12 25.59.3s-8.3 5.42-8.18 5.64 8.92-5.45 9-5.22-9.73 5.88-9.58 6.12S26.46 1 26.6 1.2s-10.31 6-10.16 6.24 10-6.12 10.16-5.87-10.91 6.52-10.75 6.8 10.61-6.48 10.76-6.21-11.26 6.46-11.1 6.74 10.94-6.69 11.11-6.41S14.8 9.45 15 9.74 21.37 5.83 21.46 6s-7 4.55-6.94 4.73 6.15-3.73 6.24-3.6-6.46 4.47-6.36 4.64 5.34-3.26 5.42-3.13-5.5 3.81-5.42 4 4.54-2.82 4.6-2.7-4.68 2.91-4.61 3 4.2-2.56 4.26-2.46-4.32 2.69-4.26 2.8 4.36-2.66 4.42-2.55-4.37 3.27-4.3 3.4 5.84-3.57 5.93-3.42-5.34 3.77-5.26 3.92S26.45 7.74 26.61 8s-10.29 6.4-10.14 6.67 10-6.11 10.14-5.86-9.61 5.61-9.51 5.85 9.38-5.73 9.52-5.49-8.36 5.28-8.24 5.49 8.12-5 8.24-4.76-7.13 4.57-7 4.75 7-4.3 7.13-4.12-6.56 4-6.47 4.12 7-4.29 7.12-4.11-5.63 4-5.54 4.12 6.5-4 6.59-3.81-6.57 4.36-6.45 4.54 6.59-4 6.69-3.86-6.78 4.23-6.68 4.4 6.58-4 6.67-3.85-6.77 4.27-6.68 4.44 6.54-4 6.63-3.83-6.29 4.38-6.19 4.55 4.09-2.5 4.15-2.4-3.29 2.45-3.24 2.53 3.2-2 3.24-1.87-1.64 1.82-1.59 1.88 1.6-1 1.62-.94-.87.89-.85.91.66-.41.67-.39"/><path class="cls-1" d="M21.88 5.75l.1-.06s-.11.93-.09.95l.11-.05s-.1.76-.09.78l.09-.06s-.1.82-.09.84L22 8.1s-.1.6-.09.62l.09-.06s-.1 1-.09 1L22 9.6s-.1.81-.09.82l.09-.05"/><path class="cls-1" d="M21.71 5.63l.29-.16s-1 1.31-1 1.34l.15-.09s-.84 1.12-.82 1.15l.15-.09s-.82 1.09-.8 1.12l.15-.09s-.93 1.26-.91 1.29L19 10s-.2.7-.19.72l.16-.09s1.27 0 1.28.05l.18-.1s.78.06.79.08l.19-.11m.27-10.1l.24-.14s1 0 1 .05l.15-.09h1l.15-.09s.78.1.78.12l.15-.09s1.15.29 1.16.32h.08s.22.77.23.79h.09s-.09.72-.09.74l.09-.05s-.1.42-.09.43l.09-.05s-.1.79-.09.81l.1-.06s-.11.87-.1.89l.1-.06s-.11.68-.1.69l.11-.06s-.12.93-.11.95l.11-.06s-.12 1-.11 1l.12-.07s-.12.45-.12.46l.12-.07s-.13 1-.12 1l.13-.07s-.13.54-.12.55l.13-.07s-.13.49-.13.5l.13-.08s-.14.85-.13.87l.14-.08s-.14.61-.14.63l.14-.08.25.59.15-.09s1.06.22 1.07.25l.12-.07.17.41h.07s.08.67.09.69h.09s-.12.94-.1 1h.09s-.11 1-.1 1h.08s-.31.68-.3.7l.18-.11"/><path class="cls-1" d="M26.95 14.77l.22-.13h.63s.68-.41.69-.4m-1.89.62l.1-.06s-.1.39-.09.39l.09-.05s-.1.58-.09.59l.09-.05s-.21 1-.19 1l.16-.09m-6-15.71l.27-.15s-1.38 1.59-1.36 1.64l.15-.09s-.67.85-.66.87l.15-.09s-1 1.31-1 1.35l.15-.09s-1.11 1.5-1.09 1.54l.15-.09s-.75 1-.73 1l.15-.09s-.55.67-.54.69l.15-.09s-.76 1-.74 1l.15-.09s-.5.6-.49.62l.15-.09s-.71.91-.69.93l.15-.09s-.63 1.06-.62 1.08l.11-.07s-.26 1.09-.25 1.11h.08s-.09.86-.08.88h.08s-.09.41-.08.42h.08s-.09.38-.08.39h.08s0 .84.05.86h.07l.41.65.16-.09s1 .17 1 .19l.15-.08.48.08.15-.09s1.12.06 1.13.08l.15-.09s1.05.06 1.07.08l.16-.09s.5.08.51.09l.16-.09s1.43.06 1.45.09l.17-.1s.18.68.19.69l.12-.07s-.11.59-.1.6l.1-.06s-.08.64-.07.65h.08l.31.79h.08s.6.29.61.31l.14-.08s1.46 0 1.48.08l.14-.08h1s.68-.42.69-.4"/></g></g></svg>