<svg xmlns="http://www.w3.org/2000/svg" width="146" height="21" viewBox="0 0 146 21"><defs><style>.a{fill:#5d0e5a}.b{fill:#6d2e6a}.c{fill:none}</style></defs><title>txt_kanata</title><path class="a" d="M49.12 4.77q-.37.82-.81 1.61a.55.55 0 0 0-.05.25v6.66a.55.55 0 0 1-.17.4.56.56 0 0 1-.41.17.54.54 0 0 1-.4-.17.56.56 0 0 1-.16-.4V8.34a.05.05 0 0 0-.06 0q-.29.36-.53.63a.42.42 0 0 1-.39.12.46.46 0 0 1-.33-.23.81.81 0 0 1-.11-.41v-.1a.83.83 0 0 1 .21-.46 11 11 0 0 0 1.91-3 1 1 0 0 1 .45-.46.85.85 0 0 1 .38-.1.77.77 0 0 1 .25 0q-.18-.4-.46-.9a.23.23 0 0 0-.21-.11H48a.26.26 0 0 0-.22.11 10.86 10.86 0 0 1-.78 1 .67.67 0 0 1-.46.23h-.07a.71.71 0 0 1-.42-.14.48.48 0 0 1-.23-.52.49.49 0 0 1 .18-.32 8.23 8.23 0 0 0 1.44-2.15.79.79 0 0 1 .37-.38.76.76 0 0 1 .31-.07h.19a.49.49 0 0 1 .34.29.49.49 0 0 1 .05.22.58.58 0 0 1-.05.23l-.12.25a.06.06 0 0 0 0 .06.07.07 0 0 0 .06 0h2.52a.79.79 0 0 1 .79.79 8.06 8.06 0 0 0 1-1.46.73.73 0 0 1 .37-.37.73.73 0 0 1 .33-.08h.19a.5.5 0 0 1 .36.29.51.51 0 0 1 .05.23.5.5 0 0 1-.05.23l-.15.33a.07.07 0 0 0 0 .06.05.05 0 0 0 .05 0h3.68a.51.51 0 0 1 .37.15.51.51 0 0 1 0 .72.5.5 0 0 1-.37.15H55.9v.07a3.05 3.05 0 0 1 .25.34.5.5 0 0 1 .1.29.79.79 0 0 1 0 .15.59.59 0 0 1-.3.36.63.63 0 0 1-.29.07h-.19a.76.76 0 0 1-.4-.3 8.54 8.54 0 0 0-.66-.88.28.28 0 0 0-.22-.1h-.68a.26.26 0 0 0-.22.11 8.39 8.39 0 0 1-.87 1 .67.67 0 0 1-.49.21.82.82 0 0 1-.48-.15.46.46 0 0 1-.29-.34.46.46 0 0 1 .15-.38l.36-.36a.05.05 0 0 0 0-.06.05.05 0 0 0-.05 0h-1.83a.07.07 0 0 0-.06 0 .07.07 0 0 0 0 .08 4.6 4.6 0 0 1 .25.45A.61.61 0 0 1 50 4a.51.51 0 0 1 0 .21.58.58 0 0 1-.33.33zm.22.9a.55.55 0 0 1 .39-.16.52.52 0 0 1 .38.16.53.53 0 0 1 .16.39v5.64a.53.53 0 0 1-.16.39.52.52 0 0 1-.38.16.54.54 0 0 1-.39-.16.52.52 0 0 1-.16-.39V6.06a.52.52 0 0 1 .16-.39zm8.73 4.21a.47.47 0 0 1 .14.35.45.45 0 0 1-.14.34.48.48 0 0 1-.35.14h-2a.05.05 0 0 0-.05 0 .06.06 0 0 0 0 .07 6 6 0 0 0 1 .92 7.82 7.82 0 0 0 1.26.72.37.37 0 0 1 .23.29.31.31 0 0 1 0 .1.39.39 0 0 1-.11.26.82.82 0 0 1-.41.26h-.16a.62.62 0 0 1-.3-.08 7.64 7.64 0 0 1-2.17-1.74.05.05 0 0 0-.06 0 .05.05 0 0 0 0 .05v1.65a.61.61 0 0 1-.18.44.61.61 0 0 1-.87 0 .61.61 0 0 1-.18-.44v-1.59a.05.05 0 0 0 0-.05.05.05 0 0 0-.06 0 9.14 9.14 0 0 1-2.49 1.83.63.63 0 0 1-.29.07h-.16a.73.73 0 0 1-.4-.25.39.39 0 0 1-.11-.26.27.27 0 0 1 0-.08.34.34 0 0 1 .22-.27A8 8 0 0 0 53 10.82a.06.06 0 0 0 0-.07.05.05 0 0 0-.05 0h-1.69a.48.48 0 0 1-.35-.14.45.45 0 0 1-.14-.34.49.49 0 0 1 .49-.49h2.35a.1.1 0 0 0 .11-.11v-.32a.61.61 0 0 1 .18-.44.61.61 0 0 1 .88 0 .61.61 0 0 1 .18.44v.27a.1.1 0 0 0 .11.11h2.64a.47.47 0 0 1 .36.15zm0-4.71a.46.46 0 0 1 0 .66.46.46 0 0 1-.34.14h-.68a.21.21 0 0 0-.19.12 5.51 5.51 0 0 1-1.22 1.37.07.07 0 0 0 0 .12 12 12 0 0 0 2.19.52.31.31 0 0 1 .26.21.35.35 0 0 1 0 .34 1 1 0 0 1-.41.34.78.78 0 0 1-.36.08h-.15a10.5 10.5 0 0 1-2.54-.81.27.27 0 0 0-.25 0 12.06 12.06 0 0 1-2.58.94h-.19a.69.69 0 0 1-.29-.07.84.84 0 0 1-.4-.31.31.31 0 0 1-.05-.33.33.33 0 0 1 .25-.22 11 11 0 0 0 2.23-.66.07.07 0 0 0 0-.06.07.07 0 0 0 0-.08 5.83 5.83 0 0 1-1-.9.12.12 0 0 0-.19 0q-.25.22-.53.44a.63.63 0 0 1-.36.11h-.07a.71.71 0 0 1-.41-.19.39.39 0 0 1 0-.62 6.51 6.51 0 0 0 1.79-1.78 1 1 0 0 1 .42-.3.76.76 0 0 1 .34-.08h.14a.36.36 0 0 1 .29.22.37.37 0 0 1 0 .37l-.15.26a.06.06 0 0 0 0 .05.05.05 0 0 0 .05 0h4.09a.46.46 0 0 1 .34.12zm-2.53.9a.05.05 0 0 0 0-.07.07.07 0 0 0-.06 0h-2.27a.05.05 0 0 0-.05 0 .06.06 0 0 0 0 .07 4.47 4.47 0 0 0 1.19.93.26.26 0 0 0 .25 0 3.89 3.89 0 0 0 .97-.93zm7.78 3.83a.12.12 0 0 0 .14-.14V3.84a.45.45 0 1 1 .9 0v7.52a.45.45 0 1 1-.9 0V11c0-.05 0-.08-.1-.08h-2.3a.12.12 0 0 0-.14.14v.68a.46.46 0 0 1-.93 0V3.86a.46.46 0 0 1 .93 0v5.9a.12.12 0 0 0 .14.14h.45a.12.12 0 0 0 .14-.14V1.85a.53.53 0 0 1 .15-.38.51.51 0 0 1 .74 0 .53.53 0 0 1 .15.38v7.91a.12.12 0 0 0 .14.14zm8.59-3.83a.53.53 0 0 1 .39.16.54.54 0 0 1-.39.92h-.29a.08.08 0 0 0-.1.1v5.21a1.85 1.85 0 0 1-.13.79.9.9 0 0 1-.49.42 5.5 5.5 0 0 1-1.63.21.74.74 0 0 1-.48-.16 1.12 1.12 0 0 1-.33-.44.4.4 0 0 1 0-.38.38.38 0 0 1 .33-.18H70a.34.34 0 0 0 .23-.05.29.29 0 0 0 .06-.22V7.29a.12.12 0 0 0-.14-.14H65a.53.53 0 0 1-.34-.15.53.53 0 0 1 0-.77.54.54 0 0 1 .34-.16h.18a.06.06 0 0 0 0-.05V6a.84.84 0 0 1-.08-.36.78.78 0 0 1 .05-.29.7.7 0 0 1 .45-.44 3.69 3.69 0 0 0 1.23-.62 2.34 2.34 0 0 0 .68-.93.06.06 0 0 0 0-.08.1.1 0 0 0-.08 0h-1.99a.54.54 0 0 1-.53-.53.54.54 0 0 1 .53-.53h2.32q.11 0 .12-.12t0-.41a.61.61 0 0 1 .2-.43.62.62 0 0 1 .48-.26.58.58 0 0 1 .42.18.55.55 0 0 1 .15.38v.45c0 .08 0 .12.11.12h2.26a.51.51 0 0 1 .38.16.55.55 0 0 1 0 .75.5.5 0 0 1-.38.16H69a.17.17 0 0 0-.18.12.14.14 0 0 0 .1.18q1.2.57 2.27 1.16a.71.71 0 0 1 .4.56 1 1 0 0 1 0 .15.76.76 0 0 1-.21.52.07.07 0 0 0 0 .06zm-2.73 4.14A1.19 1.19 0 0 1 68 11.4h-1.49c-.05 0-.08 0-.08.07v.18a.52.52 0 1 1-1 0V9.27a1.19 1.19 0 0 1 1.19-1.19H68a1.19 1.19 0 0 1 1.19 1.19zM65.51 6H71q-1-.63-2.57-1.46a.16.16 0 0 0-.21.05A4.88 4.88 0 0 1 65.51 6zm2.61 3.12A.12.12 0 0 0 68 9h-1.44a.12.12 0 0 0-.14.14v1.18a.12.12 0 0 0 .14.14H68a.12.12 0 0 0 .14-.14zm17.99-3.04a.52.52 0 0 1 .16.38.49.49 0 0 1-.16.37.52.52 0 0 1-.38.15H83.5a.05.05 0 0 0-.05 0 .05.05 0 0 0 0 .06 7.55 7.55 0 0 0 2.41 1.75.49.49 0 0 1 .27.34.67.67 0 0 1 0 .12.52.52 0 0 1-.13.35.91.91 0 0 1-.46.33.62.62 0 0 1-.22 0 .7.7 0 0 1-.32-.04 8.3 8.3 0 0 1-2.07-1.59.46.46 0 0 1-.15.35.5.5 0 0 1-.36.14H80.6a.12.12 0 0 0-.14.14v.71a.15.15 0 0 0 0 .1.11.11 0 0 0 .09 0h3.36a.51.51 0 0 1 .36.15.51.51 0 0 1 0 .74.51.51 0 0 1-.36.15h-2.76a.07.07 0 0 0-.06 0v.06a5.78 5.78 0 0 0 3.58 1.79.34.34 0 0 1 .33.37.41.41 0 0 1 0 .37 1.09 1.09 0 0 1-.41.36.84.84 0 0 1-.36.08H84a6.08 6.08 0 0 1-3.87-2.41.09.09 0 0 0-.15 0q-1 1.57-4 2.41h-.22a.85.85 0 0 1-.29-.05 1 1 0 0 1-.44-.31.35.35 0 0 1 .16-.57A6.4 6.4 0 0 0 78.75 11a.07.07 0 0 0 0-.08.07.07 0 0 0-.06 0H76a.52.52 0 1 1 0-1h3.1a.13.13 0 0 0 .15-.14 4.25 4.25 0 0 0 0-.48V9a.12.12 0 0 0-.14-.14h-1.7a.37.37 0 0 1-.41-.41A11 11 0 0 1 74.93 10a.66.66 0 0 1-.34.1h-.16a.87.87 0 0 1-.43-.31.47.47 0 0 1-.12-.39.42.42 0 0 1 .22-.33 9.34 9.34 0 0 0 2.54-2 .07.07 0 0 0 0-.08.07.07 0 0 0-.06 0h-2.29a.52.52 0 0 1-.38-.15.49.49 0 0 1-.16-.37.54.54 0 0 1 .53-.53h3a.23.23 0 0 0 .21-.11q.19-.31.37-.67a.07.07 0 0 0 0-.08.08.08 0 0 0-.07 0h-2.01a.52.52 0 1 1 0-1h2.47a.19.19 0 0 0 .19-.12q.08-.26.19-.64a.12.12 0 0 0 0-.1.09.09 0 0 0-.08 0H75.3a.51.51 0 0 1-.36-.15.51.51 0 0 1 0-.74.51.51 0 0 1 .36-.33h3.47a.11.11 0 0 0 .12-.11 2.16 2.16 0 0 0 0-.25.66.66 0 0 1 .25-.46.64.64 0 0 1 .42-.16h.05a.63.63 0 0 1 .45.23.58.58 0 0 1 .15.38.46.46 0 0 1 0 .11v.16c0 .04 0 .1.08.1h4.55a.51.51 0 0 1 .52.52.51.51 0 0 1-.52.52h-4.71a.17.17 0 0 0-.18.14l-.18.63a.08.08 0 0 0 0 .1.11.11 0 0 0 .09 0h4.44a.51.51 0 0 1 .52.52.51.51 0 0 1-.52.57h-2.11a.09.09 0 0 0-.08 0 .07.07 0 0 0 0 .08q.18.36.37.67a.23.23 0 0 0 .21.11h3a.51.51 0 0 1 .42.22zm-8.42 1.63a.06.06 0 0 0 0 .07.05.05 0 0 0 .05 0h4.61a.07.07 0 0 0 .06 0 .05.05 0 0 0 0-.07q-.25-.3-.46-.63a.26.26 0 0 0-.24-.08h-3.32a.26.26 0 0 0-.22.11c-.17.22-.33.43-.48.6zm3.16-2.57a.19.19 0 0 0-.19-.14h-1.19a.19.19 0 0 0-.19.12q-.12.29-.31.66a.07.07 0 0 0 0 .08.08.08 0 0 0 .07 0h2.05a.08.08 0 0 0 .07-.12c-.11-.14-.16-.36-.31-.6zm16.26-3.03a.48.48 0 0 1 .36.05l.25.15a.51.51 0 0 1 .23.31.46.46 0 0 1-.05.38 9.18 9.18 0 0 1-1.62 1.91 11.77 11.77 0 0 1-2.14 1.54 17.65 17.65 0 0 1-2.4 1.13 21.48 21.48 0 0 1-2.59.8h-.16a.76.76 0 0 1-.34-.08.88.88 0 0 1-.37-.38.4.4 0 0 1-.07-.22.39.39 0 0 1 0-.18.41.41 0 0 1 .3-.26 17.8 17.8 0 0 0 4.25-1.45.1.1 0 0 0 0-.08.07.07 0 0 0 0-.08 12.36 12.36 0 0 0-2-1.29.29.29 0 0 0-.25 0q-.52.27-1.09.52a.75.75 0 0 1-.31.07L89 5a1.07 1.07 0 0 1-.46-.3.43.43 0 0 1-.1-.38.38.38 0 0 1 .2-.32 11.64 11.64 0 0 0 4.07-2.47 1.29 1.29 0 0 1 .93-.42 1 1 0 0 1 .29 0 .39.39 0 0 1 .31.29.36.36 0 0 1 0 .14.38.38 0 0 1-.12.27l-.17.19h3.13zM99 7a.51.51 0 0 1 .38 0l.26.14a.51.51 0 0 1 .25.3.51.51 0 0 1 0 .16.62.62 0 0 1 0 .22 8.89 8.89 0 0 1-1.65 2.32 9.31 9.31 0 0 1-2.3 1.7 16.63 16.63 0 0 1-2.69 1.13 21.39 21.39 0 0 1-3.06.72h-.12a.79.79 0 0 1-.4-.11 1 1 0 0 1-.36-.41.44.44 0 0 1 0-.42.38.38 0 0 1 .31-.23 17 17 0 0 0 5-1.41.1.1 0 0 0 .06-.08.07.07 0 0 0 0-.08 13.61 13.61 0 0 0-2.15-1.45.24.24 0 0 0-.25 0q-.71.33-1.45.62a.72.72 0 0 1-.27.05.9.9 0 0 1-.26 0 1 1 0 0 1-.42-.31.43.43 0 0 1-.08-.39.41.41 0 0 1 .26-.29A12.64 12.64 0 0 0 95 6.28a1.3 1.3 0 0 1 .92-.41h.3a.43.43 0 0 1 .33.3.73.73 0 0 1 0 .14.38.38 0 0 1-.12.27l-.34.34a.05.05 0 0 0 0 .06H99zm-2.86-3.69a.05.05 0 0 0 0-.06.05.05 0 0 0-.05 0h-3.43a.44.44 0 0 0-.25.08l-.49.33a.09.09 0 0 0 0 .08.06.06 0 0 0 0 .06 11.9 11.9 0 0 1 2 1.27.19.19 0 0 0 .23 0 8.73 8.73 0 0 0 1.99-1.76zm2.05 5a.08.08 0 0 0-.07-.12h-3.4a.4.4 0 0 0-.25.08l-.77.49a.08.08 0 0 0 0 .07.08.08 0 0 0 0 .07 13.06 13.06 0 0 1 2.19 1.49.16.16 0 0 0 .22 0 7.2 7.2 0 0 0 2.08-2.1z"/><path class="b" d="M102.62 20.32s0-.14-.07-.12l-.06.17zM102 20c-.1.08-.22.22-.15.37.1-.16.12-.09.23-.28a.11.11 0 0 1 .14.11s.13 0 .18-.07a.27.27 0 0 0-.4 0V20zm-8.36-.25h.05zm-5.2-.09h.06s-.07-.01-.06 0zm-.89-.18h.05s-.04-.01-.05 0zm6.09.27l-.14-.05c-.01.06.08.04.14.05zm7.25.66h.08-.07zm-4.95-.79v-.07zm1.76-.02s-.05.13-.07.2a.14.14 0 0 1 .09-.1.29.29 0 0 0-.02-.1zm2.79.24zm-5.81-.25a.14.14 0 0 0 0-.05.1.1 0 0 0 0 .05zm-49.26 1.06s-.02 0 0 0zM43.38 20a.72.72 0 0 0 0-.08zm42.54-.7s.03-.01 0 0zM71 19.41c.17.13-.28.16 0 .3-.05-.06.2-.22 0-.3zm29.84.98zM71 19.71zm11.17-.32a.17.17 0 0 0 0 .06.11.11 0 0 0 0-.06zm2.83.2h-.07zm-4.28-.01h-.1s.06-.02.1 0zm-1.5.01zM50 20.58a.42.42 0 0 1-.07-.13c.07.1-.19.14.07.13zm50.89-.25v.06h.05a.06.06 0 0 0-.05-.06zm-20.23.36h-.24zm-19.83-.13h-.05a.06.06 0 0 0 .05 0zm18.88.13a.34.34 0 0 0-.13-.1zm-29.78-.24z"/><path class="b" d="M48.35 20.78c.23 0 .11-.18.16-.29.27-.05.13.14.22.23s.3-.22.43-.21 0 0 0 .08c.18-.15.53 0 .74-.19a.58.58 0 0 1 0-.25c.1 0 .19-.12.23 0s-.07 0-.1.08l.11-.05c.1.17-.15.06-.15.19.21-.06.45-.2.61-.15s-.37.06-.16.21l-.25-.06c.19.27-.15 0 0 .27.33 0 .37-.09.69 0 .07-.09 0-.14 0-.23.46-.17.36.43.7.2.09-.11.12-.33.36-.21l-.08.19c.32 0 .18-.28.51-.15-.06.08-.25.06-.2.09.21.15.15-.11.32-.11v.17c.34 0 .71-.15 1.08-.18 0 .05-.08.1 0 .16a3.86 3.86 0 0 1 1.46.12l.17-.15s.07.07 0 .09c.18.06 0-.09.09-.15s.13.08.07.13a1.82 1.82 0 0 1 1.22-.11h-.06c.26.06.29-.3.53-.16a5 5 0 0 1 1.59.15c.08-.21.55.09.59-.2.32.15.23.2.67.3.12 0 .18-.18.33-.21v.15l.2-.16.11.18h.14c-.06 0-.12-.07-.11-.11a.53.53 0 0 1 .53.19l.51-.13c0 .06-.1.08-.16.12.27-.16 0 .16.3 0v-.12a.94.94 0 0 0 .62.05v.11c.38 0 .8-.05 1.22 0a.13.13 0 0 1 0-.25v.16c.08-.1-.13-.06 0-.18s.11.19 0 .24l.19-.06v.14c.08-.1.33.16.45 0 .43 0 .62-.05 1-.06 0-.14.14-.11.25-.22a3.8 3.8 0 0 0 .84.14c.22-.07.06-.12.16-.2 0 .13.32.12.16.21a4.28 4.28 0 0 0 .94-.13c-.05-.05-.11-.08-.08-.12s.19.05.18.12c.52-.19 1.21.37 1.62.11l.43-.14c.2 0-.12.1 0 .18.47-.21.74 0 1.12-.11.3.38 1.05 0 1.45.21v-.09c.1-.09.13.05.2.07s-.11-.08 0-.13a13.33 13.33 0 0 1 2.71.21c.33 0 .19-.46.6-.25l-.12.17c.66-.2 1.36 0 2-.16 0 0 0 .09-.1.09.14.12.51 0 .51-.09s0 .09.09.14.35-.15.42 0 0 0-.06 0 .42 0 .33-.12c.24.07.47-.06.66 0 .13-.15.42.07.46-.14 0 .23.43.18.58.08-.05.07.13.07.07.17.18 0 .34 0 .31-.16.32.27.65-.22.83.13a12.81 12.81 0 0 1 1.48-.26c0 .23-.52 0-.5.26a3.2 3.2 0 0 1 1.23-.19c.11 0-.06.1-.1.14.45-.09.86 0 1.26-.1l-.08.06c-.08.06.18 0 .17-.07h-.08c-.12-.15.31-.31.32-.39-.13.29.39.07.18.45.05 0 .12-.07.1-.14s.1.06 0 .14c.28-.06.18-.16.43-.16 0 0-.05.07-.08.13a.55.55 0 0 1 .47-.15s0 .07-.05.07c.37 0 .63-.26 1-.16-.12.22.14.07.16.26l.22-.06-.09-.09c.19 0 .36-.13.52-.07l-.14.08h.36l-.2-.07c.19-.1 0-.24.23-.18-.05 0 .19 0 .29.11a.36.36 0 0 1 .33-.08v.25c.09-.16.45 0 .56-.21a.18.18 0 0 0 0 .16l.08-.13c.09 0 .1.06.09.14.27 0-.08-.24.23-.13h-.06c.32.05.61-.08.9 0 .09.19-.25 0-.16.2a7.28 7.28 0 0 1 1.27-.18h-.08c.06-.27.3.13.51 0 0 0-.07.15-.05.12a3.18 3.18 0 0 0 1-.15l-.05.07a4 4 0 0 0 .61.07c.05-.07.15-.06.09-.16.54.39 1-.21 1.52.12-.06 0-.14.06-.09.06l.41-.06c0-.12-.05-.07-.14-.16a.37.37 0 0 1 .27-.12c-.19.08 0 .19.08.25s0-.07 0-.11c.22.21 0-.23.33-.09v.06c.11 0 .21-.11.33-.09s-.12.06-.12.17c.17 0 .33-.25.48-.12-.07 0-.17 0-.24.07a.37.37 0 0 0 .3.14l.28.07h-.07c.21-.35.42-.06.7-.29-.27.22 0 .13-.07.28s.18.09.15.13c.13-.12.22.1.41-.08 0 0 .14 0 .11.13.17 0 0-.08 0-.15.27-.17.62.2 1 0s.39-.26.7-.34c.1.08-.08.18-.08.18a.55.55 0 0 0 .45 0v.13c0 .05.08-.18.25-.11a.67.67 0 0 1-.13.2c.15 0 .29-.14.45-.18s-.09.13-.15.18c.17 0 .45-.08.5-.21h-.11c.06 0 0 .12 0 .14s-.21 0-.22-.1h.11c-.11-.29-.44 0-.66 0l.09-.21-.23.17c0-.05-.08-.17 0-.2-.16-.1-.14.07-.28 0l-.15.06s0-.15.07-.12c-.28-.12-.45.16-.55 0-.38.07 0 .15-.33.33l-.19-.38v.15s-.12 0-.1-.08c-.15.1 0 .07-.06.17-.19-.14-.53.07-.57-.18-.07.12.18.09 0 .17-.06-.26-.24 0-.41-.08.05-.14.22-.06 0-.18-.1.23-.34 0-.49 0s-.32.08-.57.14c0-.06-.46-.1-.69-.17 0 .18-.28.15-.45.19a.2.2 0 0 1 .13-.2H96a.26.26 0 0 1-.19.11v-.14c-.22 0-.43.16-.71.07 0 .13.22.36-.07.44 0-.07 0-.19.06-.22s-.09.06-.14 0l.12-.12c-.13-.05-.07.1-.17.09s-.07-.07-.06-.15.09 0 .13 0a.46.46 0 0 1-.3-.15c0 .06 0 .13-.08.15s-.07-.12-.2-.17-.19 0-.19.15-.07-.07-.1-.11-.52 0-.4.18c-.37.15-.76-.08-1.12 0-.22.06-.48 0-.64.14s-.15-.09-.12-.15c-.17 0-.18.09-.42 0 .17-.09-.06-.08.17-.06-.21 0-.26-.12-.49 0 .08-.13-.16-.16-.26-.12l.15.09a1.15 1.15 0 0 1-.32 0l.06-.17c-.44-.2-.79.34-1.13 0-.12.12.24.08.13.22-.2 0-.41-.26-.48-.26-.28-.09-.26.24-.55.18 0 .06.07.22-.14.27s-.25-.25-.12-.3.07 0 .07 0 .15 0 .07-.11v.06c-.1-.06-.38-.05-.31-.15-.15.06-.07.1 0 .13-.26-.09-.41 0-.67-.06 0 0 .08.1 0 .1-.39-.07-.17.11-.44.14s.05-.22-.21-.14 0-.16 0-.21c-.24.11-.46-.08-.59-.1h.13a.53.53 0 0 1-.2 0l.07.12c-.08 0-.14 0-.14-.07s.06.2-.09.3c-.1-.06-.31.06-.34-.09.32.05 0-.16.23-.18a.31.31 0 0 1-.19 0c-.3-.14-.14.18-.45.17 0-.09-.07-.17-.12-.15.13 0 .06.15-.06.22s-.22.05-.32 0h.12c0 .09-.14.08-.28.1s.13 0 .08-.08c-.16.16-.35-.16-.57-.06-.1-.06 0-.17-.1-.21-.24.12-.26-.12-.52 0 .07.12.09.09-.09.21l.42-.08-.27.17c.13 0 .27-.08.34-.05-.13.1-.12.07-.05.17-.17-.18-.34.1-.54 0v-.3c-.3-.13-.54.15-.93.08l.13.05c-.05.12-.24 0-.37.06s-.07-.13-.12-.2-.29 0-.32.19l-.17-.13c-.32-.05-.36.28-.67.25.09-.11 0-.18.16-.25h-.19s-.28.13-.37 0-.06.15-.17.14-.18.07-.08.18c-.31-.31-.87 0-1.15-.24a6.77 6.77 0 0 1-.69.07c-.28-.09-.17.28-.49.18-.16-.16.17-.09.07-.15 0-.32-.38 0-.59-.15h.05c-.16-.11-.4.12-.66.1a1.67 1.67 0 0 1-.78.27c.08-.13.12-.07.07-.2s0 .21-.19.24c-.07-.07-.24-.13-.26-.27H76c-.11-.18-.28 0-.39 0v-.42c-.33 0-.33.22-.69.21v.06c-.19.19-.16-.11-.36 0l-.06-.2a4 4 0 0 1-.68.23 2 2 0 0 1 .56-.31c-.13 0-.43 0-.5.11s.12-.07.17 0a.81.81 0 0 1-.61.23c0-.38-.66-.1-.84-.39-.45.14-.89-.06-1.41 0 .18.3-.15 0-.12.31h-.18l-.37-.18c-.09-.09.12-.07.1-.14-.27 0-.11-.13-.29-.21 0 .11-.09.16-.24.11l.21.14c-.37.16-.32-.26-.69-.1l.12-.1c-.19.06-.71 0-.9.24 0 0-.08-.12 0-.14-.46 0-1 .26-1.38.11v-.07c-.09 0-.15.14-.26.07s0-.07 0-.08-.23.13-.34.09l.1-.08c-.45-.1-.69.2-1.06.26 0-.22-.35-.29-.53-.33a5.47 5.47 0 0 0-1.37.27c-.3-.24-1-.1-1.5-.23.07 0 0 .17-.1.19s-.31.15-.29 0c-.08-.2-.32-.15-.5-.15v.26c-.47-.38-1.24.14-1.5-.2-.11.07-.26.07-.37.13v-.14a3.5 3.5 0 0 0-.87 0l.08-.1c-.22 0-.28.41-.48.42l-.06-.21c-.39 0-.78-.18-1.16 0 0 0 0-.09.08-.1-.18 0-.7-.14-.64.15 0-.19-.4 0-.61.06v-.14c-.18.18-.18.23-.43.28-.06 0-.05-.11 0-.08-.19-.07-.15.13-.39.06l.09-.09c-.2 0-.18 0-.29.14s-.38 0-.41-.16a.22.22 0 0 1-.25.14v-.09c-.33-.09-.5.16-.73 0a.11.11 0 0 0 0-.08 2.76 2.76 0 0 1 .46 0c0-.13-.21-.15 0-.33-.17.1-.47.31-.67.25a.18.18 0 0 0-.13 0 .58.58 0 0 0-.17 0c0-.11-.25-.06-.35-.06s-.13.12 0 .23 0 0 .09 0h.3c-.08.07-.17.13-.29.05l-.15.23c-.15-.2-.43-.3-.47-.42-.33.08-.77.05-1 .32-.09 0-.11-.08-.14-.12s.12 0 .15-.06c-.19.07-.55 0-.59.21-.23-.08.13-.17-.19-.14v-.06c-.63-.29-1 .47-1.73.09 0 0 .07 0 .08.06-.8-.17-1.64.16-2.43-.11-.22-.05-.25.06-.38.15v-.15l-.23.17c-.33.13-.57-.37-1-.13l.05.1c-.15 0-.48.06-.45-.06s0 .11-.11.05v-.08l-.37.14c-.29-.06 0-.31-.37-.33-.16 0-.44.23-.38.28s.16 0 .17.13h-.14c0 .23-.14.47.21.63l.24-.14.08.11h-.2c.12.11.19 0 .27-.05a.2.2 0 0 0 .1.12l.24-.22c0 .09-.11.18.05.23.11-.1-.11-.2.08-.27.12.11.08.19.22.1 0 .06 0 .1-.06.12.12-.07.32 0 .38-.15.12.13.41 0 .4.19a.64.64 0 0 1 .33-.18c-.2.26.42 0 .36.3.15-.24.55-.11.81-.24 0 0 0 .06-.07 0 .15 0 .19.09.29.14 0-.2.25-.24.38-.36.18.19-.11.23-.05.41 0-.16.32-.16.26-.29.14.12.12.06.19.22 0-.24.13 0 .25-.19.2.12.05.23.28.15s.09.07.09.07zm5.34-.42zm.45 0h-.19v-.1s.12.06.19.1zm-.95-1h.1-.12a.21.21 0 0 1 .02.03zm-.13.21zm40.65.21z"/><path class="b" d="M60.33 20.63v-.04l-.04.03.04.01zm35.85-.37zm1.06.03l.15.05zm.82.07a.25.25 0 0 0 0-.06zM85 20.53c-.08.03 0 .02 0 0zm3.9-.33l-.12.07c.07.01.12.01.12-.07zm-8.21.5zm7.91-.44a.24.24 0 0 0 .18 0 .36.36 0 0 0-.18 0zm13.02.17zm.04-.02s.01-.02 0 0zm.14-.05h-.09s.07.04.09 0zm-1.27 0v.05a.1.1 0 0 0 0-.05zm-.33.01c.08 0 .2.11.31.08-.04.04-.23-.16-.31-.08zm-1.38-.63h.28c0-.05-.11-.13 0-.14-.33-.12.09.17-.28.14zm-.82-.07c.15 0 0-.08 0-.11s-.14.06 0 .11zm-6.23 0v-.13c-.1.02.02.05 0 .13zm-1.18.66l.11.08.05-.12-.16.04zm-.7-.91l.05-.02-.19.04.14-.02zm-10.41.04v.16c.12-.03.13-.21 0-.16zm-4.48.16a.17.17 0 0 0-.25-.05c.09.01.19.07.25.05zm-13.48-.26l.09-.05-.17.05h.08z"/><path class="c" d="M0 0h146v21H0z"/></svg>