<svg xmlns="http://www.w3.org/2000/svg" width="146" height="21" viewBox="0 0 146 21"><defs><style>.a{fill:#5d0e5a}.b{fill:#6d2e6a}.c{fill:none}</style></defs><title>txt_haruka</title><path class="a" d="M56.12 5.62q-.37.82-.81 1.61a.55.55 0 0 0-.05.25v6.66a.55.55 0 0 1-.17.4.56.56 0 0 1-.41.17.54.54 0 0 1-.4-.17.56.56 0 0 1-.16-.4V9.19a.05.05 0 0 0-.06 0q-.29.36-.53.63a.42.42 0 0 1-.39.12.46.46 0 0 1-.33-.23.81.81 0 0 1-.11-.41v-.1a.83.83 0 0 1 .21-.46 11 11 0 0 0 1.91-3 1 1 0 0 1 .45-.46.85.85 0 0 1 .38-.1.77.77 0 0 1 .25 0q-.18-.4-.46-.9a.23.23 0 0 0-.21-.11H55a.26.26 0 0 0-.22.11 10.86 10.86 0 0 1-.78 1 .67.67 0 0 1-.46.23h-.07a.71.71 0 0 1-.42-.14.48.48 0 0 1-.23-.42.49.49 0 0 1 .18-.42 8.23 8.23 0 0 0 1.44-2.15.79.79 0 0 1 .34-.38.76.76 0 0 1 .31-.07h.19a.49.49 0 0 1 .34.29.49.49 0 0 1 .05.22.58.58 0 0 1-.05.23l-.12.25a.06.06 0 0 0 0 .06.07.07 0 0 0 .06 0h2.52a.79.79 0 0 1 .79.79 8.06 8.06 0 0 0 1-1.46.81.81 0 0 1 .7-.45h.19a.5.5 0 0 1 .36.29.51.51 0 0 1 .05.23.5.5 0 0 1-.05.23l-.12.33A.07.07 0 0 0 61 3a.05.05 0 0 0 .05 0h3.68a.51.51 0 0 1 .37.15.51.51 0 0 1 0 .72.5.5 0 0 1-.37.15H62.9v.07a3.05 3.05 0 0 1 .25.34.5.5 0 0 1 .1.29.79.79 0 0 1 0 .15.59.59 0 0 1-.3.36.63.63 0 0 1-.29.07h-.19A.76.76 0 0 1 62 5a8.54 8.54 0 0 0-.66-.87.28.28 0 0 0-.22-.1h-.68a.26.26 0 0 0-.22.11 8.39 8.39 0 0 1-.87 1 .67.67 0 0 1-.49.21.82.82 0 0 1-.48-.15.46.46 0 0 1-.21-.37.46.46 0 0 1 .15-.38l.36-.36a.05.05 0 0 0 0-.06.05.05 0 0 0-.05 0h-1.84a.07.07 0 0 0-.06 0 .07.07 0 0 0 0 .08 4.6 4.6 0 0 1 .25.45.61.61 0 0 1 .05.25.51.51 0 0 1 0 .21.58.58 0 0 1-.33.33zm.22.9a.55.55 0 0 1 .39-.16.52.52 0 0 1 .38.16.53.53 0 0 1 .16.39v5.65a.53.53 0 0 1-.16.39.52.52 0 0 1-.38.16.54.54 0 0 1-.39-.16.52.52 0 0 1-.16-.39V6.91a.52.52 0 0 1 .16-.39zm8.73 4.21a.47.47 0 0 1 .14.35.45.45 0 0 1-.14.34.48.48 0 0 1-.35.14h-2a.05.05 0 0 0-.05 0 .06.06 0 0 0 0 .07 6 6 0 0 0 1 .92 7.82 7.82 0 0 0 1.26.72.37.37 0 0 1 .23.29.31.31 0 0 1 0 .1.39.39 0 0 1-.11.26.82.82 0 0 1-.41.26h-.16a.62.62 0 0 1-.3-.08 7.64 7.64 0 0 1-2.17-1.74.05.05 0 0 0-.06 0 .05.05 0 0 0 0 .05v1.65a.61.61 0 0 1-.18.44.61.61 0 0 1-.87 0 .61.61 0 0 1-.18-.44v-1.59a.05.05 0 0 0 0-.05.05.05 0 0 0-.06 0 9.14 9.14 0 0 1-2.49 1.83.63.63 0 0 1-.29.07h-.16a.73.73 0 0 1-.4-.25.39.39 0 0 1-.11-.26.27.27 0 0 1 0-.08.34.34 0 0 1 .22-.27A8 8 0 0 0 60 11.67a.06.06 0 0 0 0-.07.05.05 0 0 0-.05 0h-1.69a.48.48 0 0 1-.35-.14.45.45 0 0 1-.14-.34.49.49 0 0 1 .49-.49h2.35a.1.1 0 0 0 .11-.11v-.32a.61.61 0 0 1 .18-.44.61.61 0 0 1 .88 0 .61.61 0 0 1 .18.44v.27a.1.1 0 0 0 .11.11h2.64a.47.47 0 0 1 .36.15zM65.1 6a.46.46 0 0 1 0 .66.46.46 0 0 1-.34.14h-.68a.21.21 0 0 0-.19.12 5.51 5.51 0 0 1-1.22 1.38.07.07 0 0 0 0 .12 12 12 0 0 0 2.19.52.31.31 0 0 1 .26.21.35.35 0 0 1 0 .34 1 1 0 0 1-.41.34.78.78 0 0 1-.36.08h-.15a10.5 10.5 0 0 1-2.54-.81.27.27 0 0 0-.25 0 12.06 12.06 0 0 1-2.58.94h-.19a.69.69 0 0 1-.29-.07.84.84 0 0 1-.4-.31.31.31 0 0 1-.05-.33.33.33 0 0 1 .25-.22 11 11 0 0 0 2.23-.66.07.07 0 0 0 0-.06.07.07 0 0 0 0-.08 5.83 5.83 0 0 1-1-.9.12.12 0 0 0-.19 0q-.25.22-.53.44a.63.63 0 0 1-.36.11h-.07a.71.71 0 0 1-.41-.19.39.39 0 0 1 0-.62 6.51 6.51 0 0 0 1.8-1.75 1 1 0 0 1 .38-.32.76.76 0 0 1 .34-.08h.14a.36.36 0 0 1 .29.22.37.37 0 0 1 0 .37l-.14.21a.06.06 0 0 0 0 .05.05.05 0 0 0 .05 0h4.09a.46.46 0 0 1 .33.15zm-2.53.9a.05.05 0 0 0 0-.07.07.07 0 0 0-.06 0h-2.3a.05.05 0 0 0-.05 0 .06.06 0 0 0 0 .07 4.47 4.47 0 0 0 1.19.93.26.26 0 0 0 .25 0 3.89 3.89 0 0 0 .97-.91zm7.75 3.85a.12.12 0 0 0 .14-.14V4.69a.45.45 0 1 1 .9 0v7.52a.45.45 0 1 1-.9 0v-.33c0-.05 0-.08-.1-.08h-2.3a.12.12 0 0 0-.14.14v.68a.46.46 0 0 1-.93 0V4.71a.46.46 0 0 1 .93 0v5.91a.12.12 0 0 0 .14.14h.45a.12.12 0 0 0 .14-.14V2.7a.53.53 0 0 1 .15-.38.51.51 0 0 1 .74 0 .53.53 0 0 1 .15.38v7.92a.12.12 0 0 0 .14.14zm8.59-3.83a.53.53 0 0 1 .39.16.54.54 0 0 1-.39.92h-.29a.08.08 0 0 0-.1.1v5.21a1.85 1.85 0 0 1-.13.79.9.9 0 0 1-.49.42 5.5 5.5 0 0 1-1.63.21.74.74 0 0 1-.48-.16 1.12 1.12 0 0 1-.33-.44.4.4 0 0 1 0-.38.38.38 0 0 1 .33-.18H77a.34.34 0 0 0 .23-.05.29.29 0 0 0 .06-.22V8.14a.12.12 0 0 0-.12-.14H72a.53.53 0 0 1-.38-.16.53.53 0 0 1 0-.77.54.54 0 0 1 .38-.15h.18a.06.06 0 0 0 0-.05.84.84 0 0 1-.08-.36.78.78 0 0 1 .05-.29.7.7 0 0 1 .45-.44 3.69 3.69 0 0 0 1.23-.62 2.34 2.34 0 0 0 .68-.93.06.06 0 0 0 0-.08.1.1 0 0 0-.08 0h-1.99a.54.54 0 0 1-.53-.53.54.54 0 0 1 .53-.62h2.32q.11 0 .12-.12t0-.41a.61.61 0 0 1 .2-.43.62.62 0 0 1 .43-.17A.58.58 0 0 1 76 2a.55.55 0 0 1 .15.38v.45c0 .08 0 .12.11.12h2.24a.51.51 0 0 1 .38.16.55.55 0 0 1 0 .75.5.5 0 0 1-.38.16H76a.17.17 0 0 0-.18.12.14.14 0 0 0 .1.18q1.2.57 2.27 1.16a.71.71 0 0 1 .4.56 1 1 0 0 1 0 .15.76.76 0 0 1-.21.52.07.07 0 0 0 0 .06zm-2.73 4.14A1.19 1.19 0 0 1 75 12.25h-1.49c-.05 0-.08 0-.08.07v.18a.52.52 0 1 1-1 0v-2.38a1.19 1.19 0 0 1 1.19-1.19H75a1.19 1.19 0 0 1 1.19 1.19zm-3.67-4.18H78q-1-.63-2.57-1.46a.16.16 0 0 0-.21.05 4.88 4.88 0 0 1-2.71 1.41zM75.12 10a.12.12 0 0 0-.12-.14h-1.44a.12.12 0 0 0-.14.14v1.18a.12.12 0 0 0 .14.14H75a.12.12 0 0 0 .14-.14zm7.29-2.71a1.19 1.19 0 0 1 1.19 1.19v3.16a.4.4 0 0 0 .08.25 3.8 3.8 0 0 0 3.19 1.35q1 .06 2.17.05 1.74 0 3.76-.11a.37.37 0 0 1 .36.18.42.42 0 0 1 .1.26.47.47 0 0 1 0 .15 1 1 0 0 1-.33.48.8.8 0 0 1-.52.19q-1.75.05-3.24.05h-2.28a6.44 6.44 0 0 1-2.19-.4A3.77 3.77 0 0 1 83.15 13a.12.12 0 0 0-.15 0q-.56.53-1.26 1.16a.51.51 0 0 1-.36.14h-.11a.54.54 0 0 1-.4-.29.87.87 0 0 1-.08-.37.89.89 0 0 1 0-.22.91.91 0 0 1 .33-.48q.59-.44 1.15-.92a.32.32 0 0 0 .1-.23V8.63a.12.12 0 0 0-.14-.14h-.94a.6.6 0 0 1 0-1.2zm1.18-3.38a.64.64 0 0 1 .14.4v.1a.69.69 0 0 1-.27.46.58.58 0 0 1-.36.12H83a.64.64 0 0 1-.42-.26 12.16 12.16 0 0 0-1.31-1.38.48.48 0 0 1 0-.77.77.77 0 0 1 .46-.15.71.71 0 0 1 .48.18 11.55 11.55 0 0 1 1.38 1.3zm9.11 1.94l.14.14v.21a.49.49 0 0 1-.49.49h-2.87a.12.12 0 0 0-.14.14v.68a.12.12 0 0 0 .14.14h3.25a.47.47 0 0 1 .35.14.48.48 0 0 1 0 .68.47.47 0 0 1-.35.14h-3.25a.12.12 0 0 0-.14.14v2.15a.12.12 0 0 0 .14.14H91a.12.12 0 0 0 .14-.14V9.78a.6.6 0 0 1 .18-.44.61.61 0 0 1 .86 0 .6.6 0 0 1 .18.44v2.28a.61.61 0 0 1-.6.6h-.07a.53.53 0 0 1-.39-.16.51.51 0 0 1-.16-.38s0-.07-.05-.07h-4.65s-.05 0-.05.07a.51.51 0 0 1-.16.38.53.53 0 0 1-.39.16h-.05a.59.59 0 0 1-.42-.17.57.57 0 0 1-.18-.43V9.77a.6.6 0 0 1 1.2 0v1.13a.12.12 0 0 0 .14.14h1.42a.12.12 0 0 0 .14-.14V8.75a.12.12 0 0 0-.14-.14h-3.08a.46.46 0 0 1-.33-.14.48.48 0 0 1 0-.68.46.46 0 0 1 .33-.14h3.08a.12.12 0 0 0 .14-.14v-.68a.12.12 0 0 0-.14-.14h-2.71a.49.49 0 1 1 0-1h.63a.1.1 0 0 0 .08 0 .09.09 0 0 0 0-.09 6.18 6.18 0 0 0-.51-1.07.4.4 0 0 1 0-.36.39.39 0 0 1 .25-.27.61.61 0 0 1 .25-.05h.21a.6.6 0 0 1 .36.27q.15.23.27.46a.73.73 0 0 1 .08.33.71.71 0 0 1-.07.3.78.78 0 0 1-.48.45h3.77A.14.14 0 0 1 90 5.6a.14.14 0 0 1 0-.13A13.58 13.58 0 0 0 90.9 4a.68.68 0 0 1 .37-.34.76.76 0 0 1 .49 0 .45.45 0 0 1 .3.31.51.51 0 0 1 0 .16.52.52 0 0 1-.08.27q-.49.75-.85 1.23v.06a.07.07 0 0 0 .06 0h1.13a.47.47 0 0 1 .38.16zM90.87 2a1.35 1.35 0 0 1 .33 0 1.32 1.32 0 0 1 .83.3.31.31 0 0 1 .11.33.29.29 0 0 1-.25.25 39.21 39.21 0 0 1-6.78.75.58.58 0 0 1-.37-.13.7.7 0 0 1-.23-.33.4.4 0 0 1 0-.31.29.29 0 0 1 .27-.15A40 40 0 0 0 90.87 2zm-3.1 2.23a.42.42 0 0 1 0-.37.39.39 0 0 1 .23-.21h.21a.77.77 0 0 1 .25 0 .66.66 0 0 1 .34.29 6 6 0 0 1 .34.75.64.64 0 0 1 0 .18.52.52 0 0 1-.07.26.54.54 0 0 1-.34.27.46.46 0 0 1-.42 0 .57.57 0 0 1-.23-.4 8.33 8.33 0 0 0-.31-.73z"/><path class="b" d="M96 19.47s0-.14-.06-.12v.17zm-.43-.31a.38.38 0 0 0-.12.37c.08-.16.1-.09.18-.28.07 0 .12.05.11.11s.1 0 .14-.07a.18.18 0 0 0-.31 0v-.13zM89 18.9zm-4-.09s0-.01 0 0zm-.69-.18s.01-.01 0 0zm4.69.27l-.11-.05c.04.06.11.04.11.05zm5.67.66h.06-.06zm-3.84-.79v-.07zm1.37-.02s0 .13-.05.2 0-.09.07-.1a.37.37 0 0 0-.02-.1zm2.17.25zm-4.52-.26a.17.17 0 0 0 0-.05.11.11 0 0 0 0 .05zM51.56 19.8s-.01 0 0 0zM50 19.1V19zm33-.65s.06-.01 0 0zm-11.56.1c.13.13-.21.16 0 .3-.04-.05.16-.21 0-.3zm23.2.99zm-23.22-.68zm8.71-.32a.18.18 0 0 0 0 .06.12.12 0 0 0 0-.06zm2.17.2h-.05zm-3.3-.01h-.08s.08-.02.08 0zm-1.17.01zm-22.7.99a.48.48 0 0 1-.05-.13c.01.1-.16.14.05.13zm39.54-.25v.06a.08.08 0 0 0 0-.06zM79 19.84h-.19zm-15.46-.13zm14.68.13a.28.28 0 0 0-.1-.1zm-23.15-.24z"/><path class="b" d="M53.84 19.93c.18 0 .08-.18.12-.29.21-.05.1.14.17.23s.23-.22.33-.21 0 0 0 .08c.14-.15.42 0 .58-.19a.74.74 0 0 1 0-.25c.08 0 .15-.12.18 0s-.05 0-.08.08l.08-.05c.08.17-.11.06-.11.19.16-.06.35-.2.48-.15s-.29.06-.12.21l-.19-.06c.15.27-.12 0 0 .27.25 0 .28-.09.54 0 .06-.09 0-.14 0-.23.36-.17.28.43.55.2.07-.11.09-.33.28-.21l-.06.19c.25 0 .14-.28.4-.15 0 .08-.19.06-.16.09s.12-.11.25-.11v.17c.26 0 .55-.15.84-.18 0 .05-.07.1 0 .16a2.36 2.36 0 0 1 1.13.12l.13-.15a.06.06 0 0 1 0 .09c.14.06 0-.09.07-.15a.07.07 0 0 1 .05.13 1.13 1.13 0 0 1 .95-.11c.2.06.22-.3.41-.16.43.06.91-.07 1.24.15.06-.21.43.09.45-.2.25.15.18.2.52.3.09 0 .14-.18.25-.21v.15l.16-.16.08.18h.11a.12.12 0 0 1-.08-.11.37.37 0 0 1 .41.19l.4-.13c0 .06-.08.08-.13.12.21-.16 0 .16.23 0v-.12a.58.58 0 0 0 .48.05v.11c.29 0 .62-.05 1 0a.14.14 0 0 1 0-.25v.16c.06-.1-.1-.06 0-.18s.08.19 0 .24l.15-.06v.14c.06-.1.26.16.35 0 .33 0 .48-.05.75-.06 0-.14.11-.11.19-.22a2.36 2.36 0 0 0 .66.14c.17-.07 0-.12.12-.2 0 .13.25.12.13.21a2.64 2.64 0 0 0 .73-.13c0-.05-.08-.08-.06-.12a.12.12 0 0 1 .14.12c.41-.19.94.37 1.26.11l.34-.14c.15 0-.09.1 0 .18.36-.21.57 0 .87-.11.23.38.82 0 1.13.21v-.09c.08-.09.1.05.16.07s-.09-.08 0-.13a8.11 8.11 0 0 1 2.11.21c.26 0 .15-.46.47-.25l-.09.17c.52-.2 1.05 0 1.56-.16 0 0 0 .09-.08.09.11.12.39 0 .4-.09s0 .09.07.14.27-.15.33 0 .32 0 .26-.12c.19.07.36-.06.51 0 .1-.15.32.07.36-.14 0 .23.33.18.45.08 0 .07.1.07.06.17.14 0 .26 0 .24-.16.25.27.51-.22.65.13a8 8 0 0 1 1-.22c0 .23-.4 0-.39.26.35-.09.55-.29.89-.23.09 0-.05.1-.08.14.35-.09.67 0 1-.1l-.07.06c-.07.06.14 0 .13-.07h-.06c-.1-.15.24-.31.25-.39-.1.29.3.07.14.45a.14.14 0 0 0 .08-.14c.06 0 .08.06 0 .14.22-.06.14-.16.34-.16 0 0 0 .07-.06.13.1-.1.2-.19.37-.15v.07c.29 0 .49-.26.8-.16-.09.22.11.07.12.26l.17-.06-.07-.09c.15 0 .28-.13.41-.07l-.11.08h.28l-.14-.1c.15-.1 0-.24.18-.18 0 0 .15 0 .23.11.07-.06.15-.12.26-.08s0 .21 0 .25c.07-.16.35 0 .44-.21a.23.23 0 0 0 0 .16l.06-.13c.07 0 .08.06.07.14.21 0-.07-.24.18-.13h-.05c.25.05.47-.08.7 0 .07.19-.2 0-.12.2a4.49 4.49 0 0 1 1-.18h-.06c0-.27.23.13.39 0 0 0-.05.15 0 .12a2 2 0 0 0 .77-.15v.07a2.45 2.45 0 0 0 .47.07c0-.07.12-.06.07-.16.42.39.81-.21 1.18.12 0 0-.11.06-.07.06l.32-.06c0-.12 0-.07-.11-.16a.26.26 0 0 1 .21-.12c-.14.08 0 .19.06.25s0-.07 0-.11c.17.21 0-.23.26-.09v.06c.09 0 .16-.11.26-.09s-.09.06-.1.17.25-.25.37-.12c-.06 0-.13 0-.19.07.13.16.14.12.24.14l.22.07h-.06c.16-.35.33-.06.55-.29-.21.22 0 .13-.05.28s.14.09.12.13c.1-.12.17.1.32-.08 0 0 .11 0 .09.13.13 0 0-.08 0-.15.21-.17.49.2.78 0s.3-.26.54-.34c.08.08-.07.18-.07.18a.34.34 0 0 0 .35 0v.13c0 .05.07-.18.19-.11a.71.71 0 0 1-.1.2c.12 0 .23-.14.35-.18s-.07.13-.11.18c.13 0 .35-.08.39-.21h-.09v.14c0 .02-.17 0-.17-.1h.08c-.09-.29-.34 0-.51 0l.07-.21-.18.17c0-.05-.06-.17 0-.2-.12-.1-.11.07-.21 0l-.12.06s0-.15.05-.12c-.21-.12-.35.16-.43 0-.3.07 0 .15-.25.33l-.15-.38v.15s-.09 0-.08-.08c-.11.1 0 .07 0 .17-.15-.14-.41.07-.44-.18-.05.12.14.09 0 .17 0-.26-.18 0-.32-.08 0-.14.17-.06 0-.18-.08.23-.26 0-.38 0s-.25.08-.44.14c0-.06-.36-.1-.54-.17 0 .18-.22.15-.35.19a.21.21 0 0 1 .1-.2h-.13a.2.2 0 0 1-.15.11v-.14c-.17 0-.34.16-.55.07 0 .13.17.36-.06.44v-.22c0-.03-.07.06-.11 0l.09-.12c-.1-.05-.05.1-.13.09S90 19 90 18.89s.07 0 .1 0a.34.34 0 0 1-.23-.15c0 .06 0 .13-.06.15s-.06-.12-.16-.17-.15 0-.15.15-.06-.07-.08-.11-.41 0-.31.18c-.28.15-.59-.08-.87 0-.17.06-.37 0-.49.14a.13.13 0 0 1-.1-.15c-.13 0-.14.09-.33 0 .13-.09 0-.08.13-.06-.17 0-.21-.12-.38 0 .06-.13-.13-.16-.21-.12l.12.09a.7.7 0 0 1-.25 0v-.17c-.34-.2-.62.34-.88 0-.09.12.19.08.1.22-.16 0-.32-.26-.37-.26-.22-.09-.2.24-.43.18a.19.19 0 0 1-.11.27c-.16 0-.19-.25-.09-.3s.06 0 .05 0 .12 0 .06-.11v.06c-.08-.06-.29-.05-.24-.15-.12.06-.05.1 0 .13-.2-.09-.32 0-.52-.06 0 0 .06.1 0 .1-.31-.07-.13.11-.34.14s0-.22-.17-.14 0-.16 0-.21c-.19.11-.35-.08-.46-.1h.1a.33.33 0 0 1-.16 0l.06.12c-.06 0-.11 0-.11-.07s0 .2-.07.3c-.08-.06-.24.06-.27-.09.25.05 0-.16.18-.18a.19.19 0 0 1-.15 0c-.24-.14-.11.18-.35.17 0-.09-.06-.17-.1-.15s0 .15 0 .22-.17.05-.25 0h.09c0 .09-.11.08-.22.1s.1 0 .06-.08c-.12.16-.27-.16-.44-.06-.08-.06 0-.17-.08-.21-.19.12-.21-.12-.4 0 .06.12.07.09-.07.21l.33-.08-.21.17c.1 0 .21-.08.27-.05-.1.1-.09.07 0 .17-.13-.18-.27.1-.42 0v-.3c-.23-.13-.42.15-.72.08l.1.05c0 .12-.19 0-.29.06s-.05-.13-.09-.2-.22 0-.25.19l-.14-.13c-.25-.05-.28.28-.52.25.07-.11 0-.18.12-.25h-.15s-.22.13-.29 0 0 .15-.13.14-.14.07-.06.18c-.24-.31-.68 0-.89-.24a4.15 4.15 0 0 1-.54.07c-.22-.09-.13.28-.38.18s.13-.09.05-.15c0-.32-.3 0-.46-.15-.13-.11-.31.12-.51.1a1.13 1.13 0 0 1-.61.27c.06-.13.09-.07.05-.2s0 .21-.15.24-.19-.13-.2-.27h.17c-.09-.18-.22 0-.3 0v-.08c-.26 0-.26.22-.54.21v.06c-.15.19-.13-.11-.28 0v-.2a2.66 2.66 0 0 1-.53.23 1.49 1.49 0 0 1 .44-.31c-.1 0-.33 0-.39.11s.09-.07.13 0a.56.56 0 0 1-.48.23c0-.38-.51-.1-.65-.39-.35.14-.69-.06-1.09 0 .14.3-.12 0-.09.31h-.14l-.29-.18c-.07-.09.09-.07.08-.14-.21 0-.09-.13-.22-.21 0 .11-.07.16-.19.11l.17.14c-.29.16-.25-.26-.54-.1l.09-.1c-.15.06-.55 0-.7.24 0 0-.06-.12 0-.14-.36 0-.79.26-1.07.11v-.07c-.07 0-.12.14-.2.07s0-.07 0-.08-.18.13-.26.09l.08-.08c-.35-.1-.53.2-.83.26 0-.22-.27-.29-.41-.33a3.43 3.43 0 0 0-1.06.27c-.23-.24-.79-.1-1.16-.23.06 0 0 .17-.08.19s-.24.15-.23 0c-.07-.2-.25-.15-.39-.15v.26c-.37-.38-1 .14-1.17-.2-.09.07-.2.07-.29.13v-.38a2.12 2.12 0 0 0-.67 0l.06-.1c-.17 0-.22.41-.38.42v-.21c-.3 0-.6-.18-.9 0 0 0 0-.09.06-.1-.14 0-.55-.14-.49.15 0-.19-.31 0-.47.06v-.14c-.14.18-.14.23-.33.28s0-.11 0-.08c-.15-.07-.12.13-.3.06l.07-.09c-.16 0-.14 0-.23.14a.25.25 0 0 1-.32-.16c0 .08-.11.18-.2.14a.09.09 0 0 1 0-.09c-.26-.09-.39.16-.56 0a.12.12 0 0 0 0-.08 1.68 1.68 0 0 1 .36 0c0-.13-.17-.15 0-.33-.13.1-.36.31-.52.25a.11.11 0 0 0-.1 0 .36.36 0 0 0-.13 0c0-.11-.19-.06-.27-.06s-.1.12 0 .23 0 0 .07 0h.24c-.07.07-.13.13-.23.05V19c-.11-.2-.33-.3-.36-.42-.25.08-.6.05-.76.32-.07 0-.08-.08-.11-.12s.09 0 .11-.06c-.14.07-.43 0-.46.21-.18-.08.1-.17-.15-.14v-.06c-.49-.29-.8.47-1.34.09 0 0 .06 0 .06.06-.62-.17-1.28.16-1.89-.11-.17-.05-.19.06-.3.15v-.15l-.18.17c-.26.13-.45-.37-.77-.13v.1c-.12 0-.37.06-.35-.06s0 .11-.08.05v-.08l-.29.14c-.22-.06 0-.31-.29-.33-.12 0-.34.23-.3.28a.14.14 0 0 1 .13.13h-.11c0 .23-.1.47.17.63l.19-.14.06.11h-.16c.09.11.15 0 .21-.05a.19.19 0 0 0 .08.12l.19-.22c0 .09-.08.18 0 .23.09-.1-.08-.2.06-.27.09.11.06.19.17.1a.1.1 0 0 1 0 .12c.09-.07.25 0 .3-.15.09.13.32 0 .31.19a.48.48 0 0 1 .25-.18c-.16.26.33 0 .28.3.12-.24.42-.11.63-.24 0 0 0 .06-.05 0s.15.09.23.14c0-.2.2-.24.3-.36.14.19-.09.23 0 .41 0-.16.25-.16.2-.29.11.12.09.06.15.22 0-.24.1 0 .19-.19.16.12 0 .23.22.15s-.1.26-.1.26zm4.16-.42zm.35 0h-.15v-.1s.09.06.14.1zm-.74-1h.08-.1a.24.24 0 0 1 .01.02zm-.11.21zm31.59.21z"/><path class="b" d="M63.15 19.78v-.04l-.03.03.03.01zM91 19.41zm.84.03l.12.05zm.64.07a.3.3 0 0 0 0-.06zm-10.14.17c-.08.03-.04.02 0 0zm3.02-.33l-.1.07c.06 0 .1.01.1-.07zm-6.36.5zm6.12-.44a.15.15 0 0 0 .14 0 .22.22 0 0 0-.14 0zm10.12.16zm.04-.01s0-.02 0 0zm.1-.05h-.07s.06.04.07 0zm-.98 0v.05a.13.13 0 0 0 0-.05zm-.26.01c.06 0 .15.11.24.08-.03.04-.18-.16-.24-.08zm-1.07-.63h.22c0-.05-.09-.13 0-.14-.29-.12.06.17-.22.14zm-.66-.07c.12 0 0-.08 0-.11s-.09.06 0 .11zm-4.82 0v-.13c-.08.02.01.05 0 .13zm-.92.66l.09.08.04-.12-.13.04zm-.54-.91l.04-.02-.15.04.11-.02zm-8.13.04v.16c.13-.03.14-.21 0-.16zm-3.45.16c0-.08-.14-.13-.2-.05s.16.07.2.05zm-10.47-.25l.07-.06-.13.05.06.01z"/><path class="c" d="M0 0h146v21H0z"/></svg>