<svg xmlns="http://www.w3.org/2000/svg" viewBox="0 0 43.19 18.22"><defs><style>.cls-1{fill:none;stroke:#e9528e;stroke-linecap:round;stroke-linejoin:round;stroke-width:.43px}</style></defs><title>txt_nav_09</title><g id="レイヤー_2" data-name="レイヤー 2"><g id="nav"><path class="cls-1" d="M8.69 16.46s.46-.28.46-.27-.15.89-.15.91 2.78-1.7 2.82-1.63-2.24 1.7-2.21 1.76S11.73 16 11.76 16s-1.1 1.12-1.09 1.15.77-.47.78-.45m-4.21-2.4S9 13.25 9 13.29s-.54 1-.52 1 1.71-1 1.74-1-1 1-1 1 1.71-1 1.73-1-.86 1-.84 1 1.34-.82 1.36-.78-.72 1.29-.7 1.33 1.18-.72 1.2-.69-1.28 1-1.26 1.08 1.28-.78 1.3-.75-1.46 1.21-1.43 1.25 1.34-.82 1.36-.78"/><path class="cls-1" d="M5.69 14.93c0 .07 2.79-1.71 2.83-1.64s-2.85 2.1-2.81 2.18 1.15-.7 1.16-.67-1.18 1-1.16 1.06 1.14-.7 1.16-.67-1.18 1-1.16 1 1.14-.7 1.16-.67-1.18 1.1-1.16 1.13S6.86 16 6.88 16s-1.12 1.27-1.1 1.31 1.09-.67 1.1-.64-.65 1-.63 1.07.53-.32.54-.31m-6.36-.64s1.06-.65 1.07-.62-1 .95-1 1 6.57-4 6.67-3.85-6.49 3.87-6.4 4 6.89-4.21 7-4S2.07 16.9 2.16 17s2.18-1.33 2.21-1.28M2 11.64s.67-.41.68-.4-1.25 1.6-1.22 1.64 3-1.84 3.06-1.77S1.1 13.91 1.15 14s1.43-.88 1.46-.84-1.11 1.37-1.09 1.4 2.2-1.34 2.23-1.29-.23 1-.22 1 1.71-1 1.73-1-.74 1-.72 1.07 2.32-1.4 2.35-1.34m.48-3.14s1.68-1 1.7-1-.33 1-.31 1 1.56-1 1.58-.91-.25 1-.24 1 1-.59 1-.56-1 1.16-.94 1.19 1.14-.7 1.16-.67m-4.08 2.21s1.7-1 1.73-1-.59 1-.57 1 2.88-1.76 2.92-1.69-1.44 1.63-1.42 1.68 1.23-.75 1.25-.72"/><path class="cls-1" d="M3.3 12.11s1.69-1 1.71-1-.82 1-.81 1 2.65-1.62 2.68-1.55-1.35 1.53-1.32 1.58 1.72-1.05 1.74-1-1.62 1.27-1.6 1.31S8 11.07 8 11.13 5.69 13 5.72 13.07s1.14-.7 1.15-.67M1.32 9.19s.53-.33.54-.31-.55.67-.54.69 1.18-.72 1.2-.69-.37 1-.36 1 1.67-1 1.69-1-.12 1-.11 1 1.67-1 1.69-1-1.08.95-1.06 1 1.67-1 1.69-1-.63 1-.61 1 1.67-1 1.69-1S5.68 10 5.71 10.05s2-1.23 2-1.18-2.06 1.94-2 2 1.14-.7 1.16-.67m3.3-3.02s1.68-1 1.71-1-.16 1-.15 1 .84-.51.85-.49"/><path class="cls-1" d="M8 7.17s1.68-1 1.7-1-1 1.28-1 1.32 2.24-1.36 2.3-1.3S9 7.94 9 8s.94-.58 1-.55-.59 1-.58 1 .85-.52.86-.5M7.31 5.44s.57-.35.58-.34-1.27 1.3-1.25 1.34 1.72-1.05 1.75-1"/><path class="cls-1" d="M4.11 7.18s1.44-.88 1.46-.84-.64.82-.63.84 1-.58 1-.56 0 .54.05.55l.15-.09s-.43.62-.42.64 2.62-1.6 2.66-1.53-2.69 2-2.64 2 3.48-2.13 3.53-2-3.14 2.22-3.09 2.3.73-.45.74-.43"/><path class="cls-1" d="M2.4 7.2s1.71-1 1.74-1S2.6 7.36 2.63 7.4s2.07-1.26 2.1-1.21-1.94 1.58-1.9 1.64 1-.6 1-.58-.59 1.22-.57 1.25.81-.5.82-.5M1.75 5.46s.58-.36.59-.34S1 6.7 1 6.74s1.84-1.12 1.86-1.07S.28 7.56.32 7.63 2.77 6.13 2.8 6.2.26 8.36.3 8.43s1.51-.92 1.53-.89-1.2 1-1.18 1 .73-.45.74-.43M7.35 10l.15-.09S9 9.92 9 10l.16-.09s.73.08.74.09h.05s.05.57.06.58h.08s-.09.41-.08.42h.08m-3.21-.88l.1-.06s-.09.85-.08.87h.08l.4.24.17-.1s.67.08.68.09l.15-.16s.74.07.75.09l.16-.09.5.08.15-.08m-6.67 1.21l.14-.08s1 .06 1 .08l.16-.09s.57.08.58.09l.17-.1.26.21h.06s-.07.73-.06.75h.08m-2.91-.67l.11-.06s-.25.67-.24.68l.14-.08.08.33.17-.1s1.34.07 1.36.1l.16-.09s.84.07.85.09l.15-.09"/><path class="cls-1" d="M2 8.86l.15-.08s.55.07.56.08l.15-.08.43.08.15-.08s1.14.06 1.16.08l.14-.08s.66.07.67.08l.14-.08s.63.07.64.08l.14-.08.47.08.14-.08s.6.07.61.08l.14-.08s.84.06.85.08l.14-.08s1 .06 1 .08l.14-.08s.7.18.71.2l.18-.11.47.65.14-.08s.06.74.07.75h.08s-.09.43-.08.44h.08s-.35 1-.34 1.07l.23-.13m-4.11.64l.15-.09s1.43.05 1.45.08l.15-.08s1.34 0 1.35.05.79-.48.8-.46m-4.27.65L7 12.3s-.06.8-.05.81h.06s1.19.17 1.21.2l.16-.09s.69.07.7.09l.15-.09s1.35.05 1.37.08l.14-.08.47.17.17-.1.49.52h.07s.12.7.13.71l.09-.05s-.27 1.07-.25 1.09l.11-.06s-.32.82-.31.84l.13-.08s-.34.52-.33.53l.15-.09m-3.06-.3h.08s.07.59.07.6h.07s.74.4.75.42l.14-.08s.52.05.52.06l.15-.09m-1.3-1.14l.14-.08s.75 0 .76.06l.24-.14"/><path class="cls-1" d="M7.25 14.38l.15-.09.48.09.12-.08s1.15.06 1.16.09l.15-.09s1.15.06 1.16.09l.14-.08v.83h.08s-.26.69-.25.71h.08m-3.64-1.32l.1-.06s-.1.91-.09.93l.11-.04s-.1.75-.09.76l.09-.05s-.09.67-.09.68L7 16.7s-.09.41-.08.42H7m-1.38-2.04h.08s-.09.77-.08.79h.08s-.09.7-.08.71h.08s-.09.54-.08.55h.08v.55h.07l.45.43.29-.17m-1.68-2.5s.64-.39.65-.37M.35 16.72l.11-.06v.49h.07l.37.36h.08s1.25-.31 1.27-.28 1.12-.69 1.14-.66m-1.91-.42s.55-.34.56-.32m-.13-4.26l.14-.08s-.69 1.2-.68 1.23l.1-.06s-.26.61-.25.63l.1-.06S1 14 1.05 14h.08l.21.6h.07s1.42-.17 1.43-.14L3 14.3s.74.07.75.09l.16-.09s.56.07.57.09m-1.8-3.17L3 11s1.06.06 1.07.08l.16-.08s.6.07.61.08L5 11M1.25 9.12l.1-.06s-.09.59-.08.61h.07l.23.26h.08l.46.11.15-.09s.65.07.66.08l.15-.09s1 .07 1 .09l.16-.09 1.39.06v.46h.08s-.09.44-.08.45h.08M2.44 5.13h.08l.24.28h.07v.33l.09-.05.53.6.15-.09s1 .06 1 .08l.15-.09.44.08h.08l.62.51h.08s.09.44.09.45L6.2 7m1.07-1.62l.21-.12S6.31 6.8 6.33 6.84l.13-.08m1.43-1.64L8 5l.41.56h.08l.51.65.15-.09s1 .06 1 .09l.15-.09s.57.07.57.08l.13-.08s1.36.15 1.38.18l.09-.05s.07.58.08.6l.11-.06m-2.53.45l.14-.08s1 .06 1 .08l.14-.08s.55.07.56.08l.2-.12m-2.29.21h.07l.18.42h.07v.59l.13-.07M8 7.25l.15-.09.37.17h.08l.3.6h.07l.45.66h.07l.28.19.2-.12M7.41 7.44l.19-.11s-.7.71-.69.73l.2-.12m-3-.7l.14-.08s1.16.06 1.17.08l.14-.08v.67l.1-.06v.63h.07l.39.21.17-.1M3.82 7.32h.06s.12.48.12.49h.07s-.07.4-.07.41l.11-.07m-1.7-.89h.07l.17.38h.08s.13.49.14.51h.07l.12.33h.06l.34.32.18-.1m-1.8-1.18L2 7.41s-.6.66-.59.68L1.6 8m.12-2.61l.21-.12s-1 1.39-1 1.42l.14-.08s-.83.94-.81 1l.18-.11s-.25.91-.24.93h.07l.38.29.12-.07m31.47 5.51s1.53-.93 1.55-.89-.58.87-.57.89 1.13-.69 1.15-.66-.65.74-.64.76.83-.51.84-.48-.79.8-.77.83.89-.54.9-.52-.91 1-.9 1 1-.61 1-.58-1 1.22-1 1.25 1-.61 1-.58-1.93 2-1.9 2.06 1.84-1.12 1.87-1.08-1.13 1-1.11 1.07.88-.54.89-.51"/><path class="cls-1" d="M31 13.72s.84-.51.85-.49-1.1 1-1.08 1 1.79-1.1 1.82-1.05-1.89 1.37-1.86 1.42 2.43-1.48 2.46-1.42-2.5 2.25-2.46 2.33 1-.61 1-.58-1 1.22-1 1.25 1-.61 1-.59-1 .89-1 .92 1-.61 1-.59-1 1.39-1 1.43 1.9-1.16 1.93-1.11-1.55 1.45-1.52 1.5.48-.29.49-.28m-.8-5.9s.52-.32.53-.3 0 .93 0 1 1.63-1 1.65-1 0 .93 0 1 1.5-.92 1.52-.88-.3.86-.29.88.51-.31.52-.3m-3.93-2.3s.52-.32.53-.31-.22.9-.21.92 1.57-1 1.59-.92-.09.93-.08 1 1.63-1 1.65-1-.54.93-.53 1 1-.59 1-.57m3.07 3.75c0 .05 2-1.22 2-1.17S39 13.5 39 13.53s1.82-1.11 1.84-1.06-.36 1-.34 1.06 1.35-.83 1.37-.79-.75.92-.74.94 1-.59 1-.57-1 1.15-1 1.18 1.16-.71 1.18-.68-1.2 1.28-1.17 1.32 1.16-.71 1.17-.68-1.19 1.19-1.17 1.23 1.15-.7 1.17-.68-1.19 1-1.17 1 1.15-.7 1.17-.67m-4.66 2.02s1.84-1.13 1.87-1.08-1 1-1 1.07 1.84-1.12 1.86-1.08-.45 1-.44 1.07 2.3-1.41 2.33-1.35-1.68 1.3-1.65 1.34 1.63-1 1.65-1-1 1.37-1 1.41 1-.62 1-.59-.7.72-.69.75.58-.35.59-.34"/><path class="cls-1" d="M36.46 13s.79-.48.8-.46-1 .92-1 1 1.7-1 1.73-1-1.82 1.75-1.79 1.8 3.56-2.18 3.61-2.09-3.67 2.9-3.61 3 1.13-.69 1.15-.66-1.17 1-1.15 1 1.13-.69 1.15-.66-1.17 1.25-1.15 1.28 1.14-.7 1.15-.67-1.17 1-1.15 1 1.14-.7 1.16-.67-1.15 1.44-1.12 1.48 2.13-1.3 2.16-1.25-1.95 1.57-1.92 1.63.92-.56.94-.54m2.75-6.95s1.93-1.18 2-1.13-.4 1.09-.39 1.12 1.15-.7 1.17-.67"/><path class="cls-1" d="M35.53 9.44s.56-.34.57-.33-.42 1-.41 1 1.71-1 1.74-1-.79 1.1-.77 1.12 3.11-1.9 3.16-1.82-2 1.76-2 1.82S39.85 9 39.88 9s-1.35 1.49-1.32 1.53S41 9 41.05 9.11s-2.53 2-2.49 2 1.21-.74 1.23-.71-1.25 1.46-1.22 1.5 1.22-.74 1.23-.71m.48-4.45s1.68-1 1.71-1-.48.71-.47.72.6-.37.61-.35"/><path class="cls-1" d="M36 6.52s.57-.35.58-.34-.47.72-.46.74S37.58 6 37.61 6s-1 1.14-1 1.18 2.31-1.41 2.34-1.35-1.51 1.21-1.49 1.26S39.93 5.6 40 5.67 38.44 7 38.47 7s2.76-1.68 2.8-1.61-2.74 2.11-2.7 2.19 3.25-2 3.3-1.9-3.35 2.4-3.29 2.49 1.21-.74 1.23-.71-1.25 1.38-1.22 1.42 1.21-.74 1.23-.71m-9.65-.46s.52-.32.53-.3-.55.63-.54.65 1.11-.68 1.13-.65-.75.94-.74 1 1.65-1 1.67-1-.11 1-.1 1 1.68-1 1.7-1-.47 1-.46 1 1.56-1 1.58-.91-.31.89-.3.91.53-.33.54-.31m-4.27-2.27s.52-.32.53-.3-.16.92-.15.94 1.6-1 1.63-.94-.81.93-.8 1 1.63-1 1.65-1-.29.93-.28 1 1.17-.72 1.19-.69-.51.67-.5.69.51-.31.52-.3m3.13 7.4l.15-.09s1 .06 1 .08l.15-.08s.59.07.59.08l.15-.08.47.08.14-.08.52.46h.08s-.09.51-.08.52h.08L41 15h.08s-.09.77-.08.79h.08m-3.71-2.04l.1-.06s-.11.59-.1.6h.08s-.09.42-.08.43h.08s-.09.91-.08.93h.08l.64.56.14-.08s1.21.06 1.22.08l.15-.21s.64.07.65.08l.15-.08m-8.16-1.74l.15-.09s.55.07.56.09l.16-.09.42.09.1-.06s.08.68.09.7h.09s-.09.51-.08.52h.08s-.09.49-.08.5h.08m-2.05-1.49l.1-.06s-.1 1-.09 1l.09-.05v.92s.91.07.92.09l.16-.09.45.08.15-.09"/><path class="cls-1" d="M32 13.21l.15-.08s1.2.05 1.21.08l.14-.08s.9.35.91.37l.1-.06.13.42.13-.08s.06.81.08.83h.08s-.09.47-.08.48h.08s-.09.83-.08.85h.08s-.35.89-.34.91l.23-.13m-2.74.62l.2-.11s.95.07 1 .09l.16-.09m-1.69.17s.3-.18.31-.18m-1.14-3.6s.79-.48.8-.46-1 .93-1 1l.17-.1s-.23.87-.22.89h.08s-.09.79-.08.81h.08s-.09.85-.08.87h.08s-.09.77-.08.79h.09s0 .45.05.46h.07l.18.23.09-.05m.32-6.79l.15-.08s1.36.05 1.38.08l.15-.08s1.08.06 1.09.08l.11-.07.38.41h.07m-4.02-.1l.1-.05s0 .69.05.71l.09-.05s.86.15.87.16l.15-.08s.72.07.73.08l.15-.08s.83.06.84.08l.15-.08m-2.48-2.84l.14-.08s.89.06.9.08l.14-.08s.92.06.93.08l.14-.08.5.08.13-.07.45.51h.07m-4.05-.19l.1-.06s-.1.51-.09.52h.07l.39.35.14-.08s1.4.05 1.41.08l.15-.08s1.3.05 1.31.08.37-.23.38-.22m2.01-4.05l.19-.15s2-.22 2-.18l.21-.12s1.17-.18 1.18-.15l.21-.12s1.21 0 1.22.06h.08l.32.34h.07v.36l.1-.06m-1.93.71l.26-.15s1-.14 1-.11l.25-.14M39.82 7h.11s-.13.75-.12.77l.09-.05s-.09.48-.09.49l.09-.05s-.09.55-.08.56h.09s.76.45.77.47l.16-.19.46.09.15-.09s.57.07.58.09l.15-.09s.59.22.6.24h.07v.69l.15-.1m-2.83.49l.15-.09s.82.07.83.08l.15-.09s.52.07.53.08l.15-.09m-2.18.26l.1-.06s-.1.46-.09.48l.09-.05s-.1.39-.09.4l.09-.05s-.1.93-.08 1h.09l.51.37.16-.09.44.08.14-.08s.81.38.82.39h.08s.24.77.25.79l.09-.05s-.07.59-.06.6h.09s-.09.79-.08.81h.09s-.09.43-.08.44h.09s-.09.69-.08.71h.09s-.09.46-.08.47h.09s-.09.73-.08.74h.09s-.19.46-.18.48l.1-.06m-4.73-.52l.2-.11s1.44.07 1.45.1l.17-.1s1.48.06 1.5.09l.1-.06.33.59h.08m-4.15-.45l.3-.18m-1.27-4.29s.79-.48.8-.46-1.08 1.24-1.06 1.27h.08s-.09.89-.08.91h.08s-.09.55-.08.57h.08s-.09.65-.08.66h.08s-.09.67-.08.69h.08s-.09.59-.08.6h.09s-.06.5-.05.51h.06l.42.56.09-.05m.6-5.66l.15-.08s.73.06.74.08l.15-.09"/><path class="cls-1" d="M35.46 9.37l.11-.06s-.18.47-.18.48h.07l.42.52h.08s1.4.07 1.42.1l.14-.08.49.08.14-.08.31.44h.08s-.09.39-.08.4h.08s-.09.86-.08.88h.08s-.09.39-.08.4h.08m-2.43-3.36l.14-.09s1.39.05 1.41.08l.15-.08m-1.94-2.53h.08s.13.66.14.68h.07s.77.21.78.23l.17-.1s1.18-.06 1.19 0l.16-.09v.78l.12-.07s-.11.65-.1.66l.1-.06s-.09.46-.09.47h.09m-7.77-1.55l.19-.08s.91.06.93.08l.07-.08s.94.06.95.08l.15-.08s.76.07.77.08l.13-.08s1.09.3 1.11.33h.07s-.05.44 0 .45l.1-.12m-5.15-.33l.09-.05s-.1.52-.09.53h.07l.4.36.14-.08s.54.07.54.08l.15-.08s.74.07.75.08l.15-.08s.86.06.87.08l.15-.08s.86.06.87.08l.15-.08m-2.86-2.9l.14-.08.45.08.14-.08s.78.06.79.08l.14-.08s1.3.13 1.32.16l.09-.05s.1.59.11.61l.11-.06m-3.94-.33l.14-.05s.17.73.18.75h.09s.64.11.65.12l.08-.14s1.22.06 1.23.08l.15-.08s.84.06.85.08.34-.21.35-.2M20.79 3.77c.06.11 4.15-2.54 4.21-2.43s-3.84 2.43-3.79 2.53 4-2.44 4-2.34S21.68 4 21.74 4.1s3.88-2.37 3.93-2.27-3.34 2.73-3.28 2.82 3.88-2.37 3.94-2.27-3.6 2.62-3.55 2.75 3.87-2.36 3.92-2.26-3.65 2.88-3.59 3 4-2.45 4.07-2.35-4 2.66-3.95 2.76 4.07-2.49 4.13-2.38-4.1 3-4 3.06 4.21-2.57 4.27-2.46-4.28 2.8-4.21 2.91 4.3-2.63 4.37-2.52-4.59 3.29-4.51 3.41 4.59-2.8 4.65-2.69S23 9 23.08 9.11s4.86-3 4.93-2.85"/><path class="cls-1" d="M17.15 1.58s1.56-1 1.58-.91-3.06 2.51-3 2.59 5-3.09 5.12-3S15.23 3.85 15.31 4 21.5.21 21.59.37 14.81 4.84 14.92 5 22.63.3 22.74.5s-8.11 5.32-8 5.53 8.9-5.44 9-5.22-9.24 5.6-9.11 5.83S24.25.79 24.39 1s-9.82 5.72-9.68 6S24.64.93 24.78 1.19s-10.15 6.1-10 6.36 4.57-2.79 4.63-2.68-4.64 2.86-4.57 3 4.44-2.71 4.5-2.6S14.9 8.19 15 8.3s4.22-2.58 4.28-2.47-4.11 3-4 3.07 4-2.46 4.08-2.36-3.76 3-3.7 3.11 3.84-2.35 3.9-2.25-3.66 2.76-3.56 2.85 3.74-2.3 3.79-2.25-3.68 2.37-3.63 2.46S19.92 8.21 20 8.3s-3.65 2.32-3.59 2.42 3.75-2.29 3.8-2.2-3.29 2.67-3.24 2.76S20.74 9 20.8 9.06s-3.22 2.62-3.17 2.71 3.94-2.41 4-2.31-3.39 2.62-3.33 2.71 4.25-2.59 4.31-2.49-4.06 2.57-4 2.67 9.35-5.72 9.49-5.48-8.73 5.48-8.6 5.7 8.38-5.13 8.5-4.91-6 3.95-5.89 4.1 5.71-3.49 5.8-3.35-6.22 3.76-6.13 3.92 6-3.66 6.07-3.51-7 4.75-6.94 4.93 6.66-4.07 6.75-3.9-7.8 5-7.68 5.24 7.23-4.42 7.33-4.23-8.26 5-8.13 5.24 7.78-4.76 7.9-4.56-8.22 5.08-8.1 5.29 7.7-4.71 7.81-4.51-7.09 4.82-7 5 6.1-3.73 6.19-3.58-5.5 3.64-5.41 3.79 4.81-2.94 4.88-2.82-3.84 3-3.78 3.11 2.58-1.58 2.62-1.51-1.77 1.52-1.74 1.57 1-.6 1-.58"/><path class="cls-1" d="M20.82 3.87l.1-.06s.59.26.6.27h.07l.45.37h.07l.24.39h.07l.4.74h.07s.23.77.24.78h.07v.68h.07v.4h.07s-.14.56-.12.56l.09-.05s-.28 1-.27 1l.11-.06s-.29.55-.28.56l.13-.09m-3.12-5.09l.26-.15s-.74.87-.72.9l.11-.06s-.25.71-.24.72l.1-.06s-.17.48-.17.49h.08v.52h.08v.58h.07s.13.5.13.51h.07l.3.71h.07l.31.44h.07l.26.36h.08l.54.35h.08s.9.36.91.39l.11-.07"/><path class="cls-1" d="M18.81.64s.33-.2.34-.19.64 0 .65 0l.2-.17h.94l.12-.07s1.23.19 1.24.21l.12-.07s.81.22.82.24l.09-.05s.86.38.88.4l.09-.05.41.24h.08l.49.45h.08l.29.31h.08l.52.55h.08l.31.52h.08l.44.69h.07s.08.38.08.39h.07s.19.68.2.7h.07v.31h.07s.09.47.1.48h.08v.52h.08v.37h.08v.85h.08s-.12.78-.11.8l.09-.05S28 8 28 8.06l.06-.06s-.18.72-.17.74L28 8.7s-.27 1-.26 1l.1-.06s-.37.8-.36.82l.1-.06s-.49 1.13-.48 1.16l.11-.06s-.29.56-.28.58L27 12s-.49.74-.48.76l.13-.08s-.87 1.37-.85 1.4L26 14s-.87 1.19-.85 1.22l.17-.1s-1 1.2-1 1.24l.18-.1s-.88 1-.86 1l.18-.1M17.09 1.5l.28-.16c0 .05-1.75 1.79-1.72 1.85l.16-.09s-.59.81-.58.83l.11-.06s-.52 1.06-.51 1.09l.11-.06s-.3 1.06-.29 1.08l.09-.05s-.18.65-.17.67l.09-.05s-.07.41-.07.42h.08v.58h.07v.34h.07v.5h.07s.13.63.14.65h.07l.31.79h.07l.3.66h.07l.13.29h.07l.14.26h.07l.48.61h.07l.59.54h.08l.58.45h.08l.22.23h.08s.72.3.73.32l.1-.06s1.84-.42 1.87-.38.87-.53.88-.51-.31.54-.3.56l.15-.08s-1.08 1.49-1.06 1.53l.16-.09s-1.09.84-1.06.84l.19-.11s-1 1.07-1 1.1l.2-.11s-.47.86-.46.88l.11-.06.6.63.1-.06s.67.25.68.27l.1-.06s1 .33 1 .36l.1-.06s1.08.18 1.1.2.93-.57.95-.55"/></g></g></svg>