<svg xmlns="http://www.w3.org/2000/svg" viewBox="0 0 68.67 18.4"><defs><style>.cls-1{fill:#5d0e5a}.cls-2{fill:#6d2e6a}</style></defs><title>saori72</title><g id="レイヤー_2" data-name="レイヤー 2"><g id="text"><path class="cls-1" d="M10.12 11a.12.12 0 0 0 .14.14h1.48a.65.65 0 0 1 0 1.3H.66a.63.63 0 0 1-.46-.19.64.64 0 0 1 0-.92.63.63 0 0 1 .46-.19h2.28A.15.15 0 0 0 3.1 11q.38-1.57.83-3.92a.1.1 0 0 0 0-.1.11.11 0 0 0-.09 0H2a.61.61 0 0 1-.44-.18.64.64 0 0 1 0-.9.61.61 0 0 1 .44-.21h2.09a.14.14 0 0 0 .15-.14q.3-1.67.44-2.52a.1.1 0 0 0 0-.1.13.13 0 0 0-.1 0H1.49A.61.61 0 0 1 1 2.71a.61.61 0 0 1-.18-.45.61.61 0 0 1 .18-.45.61.61 0 0 1 .44-.18h9.28a.62.62 0 0 1 .46.18.61.61 0 0 1 .18.45.61.61 0 0 1-.18.45.62.62 0 0 1-.46.18H6.29a.15.15 0 0 0-.16.11q-.13.77-.47 2.55a.1.1 0 0 0 0 .1.11.11 0 0 0 .09 0h3.18a1.19 1.19 0 0 1 1.19 1.19zM8.76 7.1a.12.12 0 0 0-.13-.1H5.54a.15.15 0 0 0-.16.14Q4.91 9.39 4.54 11a.14.14 0 0 0 0 .08.09.09 0 0 0 .08 0h4a.12.12 0 0 0 .14-.08zm17.05-1.99a.67.67 0 0 1 0 1.34H21a.12.12 0 0 0-.14.14v5.55a.69.69 0 0 1-.21.51.71.71 0 0 1-1 0 .69.69 0 0 1-.21-.51V6.59a.12.12 0 0 0-.14-.14h-4.7a.67.67 0 0 1 0-1.34h4.7a.12.12 0 0 0 .18-.11V.71a.69.69 0 0 1 .21-.51.71.71 0 0 1 1 0 .69.69 0 0 1 .21.51V5a.12.12 0 0 0 .14.14zM29.24 5a1.19 1.19 0 0 1 1.19-1.2h7.4A1.19 1.19 0 0 1 39 5v.37q0 3.21.15 4.83t.64 1.71q.22 0 .26-1.59a.23.23 0 0 1 .16-.21.22.22 0 0 1 .25.05 1.26 1.26 0 0 1 .4.89v.1a4.34 4.34 0 0 1-.34 1.57.86.86 0 0 1-.82.45 1.28 1.28 0 0 1-.6-.14 1.25 1.25 0 0 1-.46-.44 3.89 3.89 0 0 1-.34-.67 4.66 4.66 0 0 1-.24-1q-.1-.59-.16-1.16t-.1-1.42V4.95a.12.12 0 0 0-.14-.14h-7a.12.12 0 0 0-.14.14v1.67A10.4 10.4 0 0 1 29 12.7a.52.52 0 0 1-.41.22.57.57 0 0 1-.44-.19.72.72 0 0 1-.23-.46v-.07a.72.72 0 0 1 .14-.42 9.05 9.05 0 0 0 1.18-5.18zm9.2-4.17a.66.66 0 0 1 1 0 .67.67 0 0 1 .2.48v.59a1.15 1.15 0 0 1-.35.84 1.15 1.15 0 0 1-.84.35H30a1.15 1.15 0 0 1-.84-.35 1.15 1.15 0 0 1-.35-.84v-.61A.63.63 0 0 1 29 .82a.64.64 0 0 1 .92 0 .63.63 0 0 1 .19.46v.59a.12.12 0 0 0 .14.14h3.08a.12.12 0 0 0 .14-.14V1a.63.63 0 0 1 .19-.46.68.68 0 0 1 .94 0 .63.63 0 0 1 .19.46v.92a.12.12 0 0 0 .14.14h3.17a.12.12 0 0 0 .14-.14v-.61a.67.67 0 0 1 .2-.48zm-2.51 10.26a.39.39 0 0 1-.05-.34.37.37 0 0 1 .23-.25.75.75 0 0 1 .44 0 .58.58 0 0 1 .34.25 12.08 12.08 0 0 1 .93 1.56.5.5 0 0 1 0 .4.52.52 0 0 1-.29.28.56.56 0 0 1-.41 0 .57.57 0 0 1-.3-.29l-.08-.16a.13.13 0 0 0-.12-.07l-5.54.34a.54.54 0 0 1-.4-.14.58.58 0 0 1-.2-.38.51.51 0 0 1 .13-.38.52.52 0 0 1 .39-.21l2.43-.1a.14.14 0 0 0 .14-.15v-1.07a.12.12 0 0 0-.14-.14h-1.16a1.19 1.19 0 0 1-1.19-1.19v-.51a1.19 1.19 0 0 1 1.19-1.19h1.13a.12.12 0 0 0 .14-.14v-.6a.11.11 0 0 0 0-.09.15.15 0 0 0-.1 0l-1.74.05a.47.47 0 0 1-.35-.12.63.63 0 0 1-.21-.32.33.33 0 0 1 0-.3.32.32 0 0 1 .25-.15A38.75 38.75 0 0 0 36 5.3h.16a.81.81 0 0 1 .67.34.31.31 0 0 1 0 .32.33.33 0 0 1-.25.21q-.81.12-1.85.22a.14.14 0 0 0-.14.15v.68a.12.12 0 0 0 .14.14H36a1.19 1.19 0 0 1 1.19 1.19v.51A1.19 1.19 0 0 1 36 10.24h-1.2a.12.12 0 0 0-.14.14v1a.14.14 0 0 0 .14.14l1.29-.07a.05.05 0 0 0 .05 0 .06.06 0 0 0 0-.05zM32.21 8.2a.12.12 0 0 0-.14.14v.89a.12.12 0 0 0 .14.14h1.3a.12.12 0 0 0 .14-.14v-.89a.12.12 0 0 0-.14-.14zM36 9.37a.12.12 0 0 0 .14-.14v-.89A.12.12 0 0 0 36 8.2h-1.3a.12.12 0 0 0-.14.14v.89a.12.12 0 0 0 .14.14zm6.26-4.02A.5.5 0 0 1 42 5a.36.36 0 0 1 0-.14.48.48 0 0 1 .1-.27.7.7 0 0 1 .4-.29h.21a.77.77 0 0 1 .29.05 14.37 14.37 0 0 1 1.54.82.6.6 0 0 1 .27.41.67.67 0 0 1 0 .12.6.6 0 0 1-.12.37.59.59 0 0 1-.41.26h-.1a.65.65 0 0 1-.37-.11 11.27 11.27 0 0 0-1.55-.87zm1.39 7a.63.63 0 0 1-.42.29h-.12a.6.6 0 0 1-.37-.12.67.67 0 0 1-.29-.46 1 1 0 0 1 0-.15.79.79 0 0 1 .11-.4q1-1.53 1.83-3.27a.46.46 0 0 1 .34-.24h.11a.49.49 0 0 1 .31.12.82.82 0 0 1 .27.46 1.31 1.31 0 0 1 0 .18.87.87 0 0 1-.08.37q-.8 1.7-1.69 3.24zM43 1.61a.5.5 0 0 1-.26-.33.46.46 0 0 1 .08-.4.76.76 0 0 1 .41-.29h.19a.66.66 0 0 1 .3.07 11.27 11.27 0 0 1 1.5.83.63.63 0 0 1 .27.44V2a.66.66 0 0 1-.12.38.55.55 0 0 1-.41.25h-.1a.6.6 0 0 1-.37-.12 11.12 11.12 0 0 0-1.49-.9zm3.92 1.54a.68.68 0 0 1 .31-.4.63.63 0 0 1 .36-.11h.14a.58.58 0 0 1 .4.29.6.6 0 0 1 .07.27.68.68 0 0 1 0 .19 15.23 15.23 0 0 1-1.39 3.1.55.55 0 0 1-.4.26h-.12a.63.63 0 0 1-.36-.11.54.54 0 0 1-.27-.37 1 1 0 0 1 0-.15.58.58 0 0 1 .1-.31 11.72 11.72 0 0 0 1.19-2.65zm5.4 4a.71.71 0 0 1 .68-.4h.18a.63.63 0 0 1 .38.3.6.6 0 0 1 .07.27.48.48 0 0 1 0 .19A8 8 0 0 1 51.26 11a10.32 10.32 0 0 1-4.06 2H47a.84.84 0 0 1-.36-.08 1 1 0 0 1-.42-.41.46.46 0 0 1-.08-.26.45.45 0 0 1 0-.18.42.42 0 0 1 .31-.29 9.33 9.33 0 0 0 3.73-1.62 6.75 6.75 0 0 0 2.17-2.95zM49.42 1a.62.62 0 0 1 .19-.45.63.63 0 0 1 .46-.19.6.6 0 0 1 .45.19.63.63 0 0 1 .18.45v6.49a2 2 0 0 1-.13.81.94.94 0 0 1-.47.44 4.11 4.11 0 0 1-1.47.26.78.78 0 0 1-.51-.19.94.94 0 0 1-.33-.46.51.51 0 0 1 0-.16.46.46 0 0 1 .08-.26.43.43 0 0 1 .37-.19h1a.29.29 0 0 0 .21-.05.27.27 0 0 0 .05-.19zM52 3.32a.52.52 0 0 1 0-.26.51.51 0 0 1 0-.16.49.49 0 0 1 .29-.31.61.61 0 0 1 .27-.07.62.62 0 0 1 .22 0 .64.64 0 0 1 .38.29 15 15 0 0 1 1.34 2.65.77.77 0 0 1 0 .25.74.74 0 0 1-.05.27.72.72 0 0 1-.38.37.51.51 0 0 1-.23.05.57.57 0 0 1-.23-.05.63.63 0 0 1-.3-.35A13.92 13.92 0 0 0 52 3.32zM67.12 7a.58.58 0 0 1 .26-.32.49.49 0 0 1 .4-.05.53.53 0 0 1 .32.25.47.47 0 0 1 0 .4 12.86 12.86 0 0 1-1.38 2.9.32.32 0 0 0 0 .25q.33 1.37.77 1.37.25 0 .38-1.31a.25.25 0 0 1 .17-.21.27.27 0 0 1 .27 0 .87.87 0 0 1 .37.68 1 1 0 0 1 0 .16q-.37 2.08-1.22 2.08-1 0-1.54-1.74a.07.07 0 0 0-.05 0 .08.08 0 0 0-.07 0 10.38 10.38 0 0 1-1.53 1.38.57.57 0 0 1-.34.11h-.1a.76.76 0 0 1-.41-.22.44.44 0 0 1-.13-.37.45.45 0 0 1 .2-.34c.17-.12.33-.24.48-.36a.06.06 0 0 0 0-.06h-2.26a.07.07 0 0 0-.08.08v.19a.5.5 0 0 1-.15.37.51.51 0 0 1-.72 0 .5.5 0 0 1-.15-.37v-4a1.19 1.19 0 0 1 1.19-1.23h1.49a1.19 1.19 0 0 1 1.19 1.19v3.25h.06a9 9 0 0 0 .88-1 .29.29 0 0 0 .05-.25A36.74 36.74 0 0 1 65.13 6a.14.14 0 0 0-.13-.13h-5a.08.08 0 0 0-.08 0 .14.14 0 0 0 0 .1 8.31 8.31 0 0 1 .42 1.16.5.5 0 0 1 0 .4.63.63 0 0 1-.32.29.42.42 0 0 1-.36 0 .44.44 0 0 1-.23-.29c0-.05 0-.12-.05-.19a.11.11 0 0 0-.11-.08l-.44.05a.14.14 0 0 0-.14.15v5.13a.53.53 0 0 1-.16.39.54.54 0 0 1-.77 0 .53.53 0 0 1-.16-.39v-5a.11.11 0 0 0 0-.09.15.15 0 0 0-.1 0l-1.09.08h-.05a.56.56 0 0 1-.37-.14.57.57 0 0 1-.21-.45.54.54 0 0 1 .12-.36.57.57 0 0 1 .4-.19h.22a.21.21 0 0 0 .14-.08q.27-.4.62-1a.19.19 0 0 0 0-.23 11 11 0 0 0-1.08-1.41.71.71 0 0 1-.18-.48.69.69 0 0 1-.02-.41l.05-.08a.36.36 0 0 1 .25-.16.34.34 0 0 1 .28.09h.05a18.13 18.13 0 0 0 .68-1.79.55.55 0 0 1 .27-.34.58.58 0 0 1 .26-.07h.18a.54.54 0 0 1 .33.29.6.6 0 0 1 0 .44q-.59 1.37-1 2.12a.2.2 0 0 0 0 .22q.16.21.36.48a.09.09 0 0 0 .08 0 .06.06 0 0 0 .06 0q.46-.85.81-1.59a.54.54 0 0 1 .34-.27.51.51 0 0 1 .21 0 .62.62 0 0 1 .22 0 .49.49 0 0 1 .29.31.48.48 0 0 1 0 .4q-1.08 1.91-2 3.32a.05.05 0 0 0 0 .07.07.07 0 0 0 .06 0l1.08-.05a.11.11 0 0 0 .08 0 .09.09 0 0 0 0-.08l-.25-.56a.44.44 0 0 1 0-.36.41.41 0 0 1 .14-.22.5.5 0 0 1 .39 0 .48.48 0 0 1 .28.27l.22.45a.84.84 0 0 1 .85-.85h.29a.12.12 0 0 0 .08 0 .1.1 0 0 0 0-.1 6.32 6.32 0 0 0-.25-1.31.45.45 0 0 1 0-.33.4.4 0 0 1 .27-.2.53.53 0 0 1 .37.05.46.46 0 0 1 .23.29 6.3 6.3 0 0 1 .22 1 .49.49 0 0 1-.09.4.6.6 0 0 1-.35.23h1.8a.48.48 0 0 1-.14-.33.51.51 0 0 1 0-.39 11.13 11.13 0 0 0 .34-1.3.1.1 0 0 0 0-.1.11.11 0 0 0-.09 0h-2.7a.5.5 0 0 1-.36-.14.46.46 0 0 1-.19-.38.51.51 0 0 1 .51-.51h1.11a.12.12 0 0 0 .14-.14V.89A.56.56 0 0 1 62 .47a.59.59 0 0 1 .4-.17.58.58 0 0 1 .6.59v.72a.12.12 0 0 0 .14.14h1.12a.46.46 0 0 1 .35.15.5.5 0 0 1 .14.36.49.49 0 0 1-.49.49h-.56a.62.62 0 0 1 .41.31.55.55 0 0 1 .08.29.62.62 0 0 1 0 .22q-.31.92-.4 1.11a.11.11 0 0 0 0 .1.09.09 0 0 0 .08 0h1.09a.14.14 0 0 0 .14-.14Q65 1.83 65 .93a.53.53 0 0 1 .16-.38.56.56 0 0 1 .79 0 .54.54 0 0 1 .16.4q0 2.24.05 3.75a.14.14 0 0 0 .15.14h1.65a.53.53 0 0 1 .38.15.51.51 0 0 1 0 .74.52.52 0 0 1-.38.15h-1.6a.14.14 0 0 0-.14.14q.05 1.12.19 2.5A10 10 0 0 0 67.12 7zm-11 1.8a.48.48 0 0 1 .18-.33.43.43 0 0 1 .36-.08.5.5 0 0 1 .35.2.51.51 0 0 1 .1.39 13.71 13.71 0 0 1-.49 2.57.41.41 0 0 1-.25.25.42.42 0 0 1-.36 0 .51.51 0 0 1-.26-.27.56.56 0 0 1 0-.38 12.58 12.58 0 0 0 .4-2.33zm2.75.12a.45.45 0 0 1 0-.35.44.44 0 0 1 .27-.23.48.48 0 0 1 .36 0 .49.49 0 0 1 .24.28 15.52 15.52 0 0 1 .46 1.64.53.53 0 0 1-.07.39.56.56 0 0 1-.3.25.42.42 0 0 1-.36 0 .4.4 0 0 1-.19-.29 14.38 14.38 0 0 0-.38-1.67zm4.51-1.22a.12.12 0 0 0-.14-.14h-1.47a.12.12 0 0 0-.14.14v.82a.12.12 0 0 0 .14.14h1.48a.12.12 0 0 0 .14-.14zm-1.75 2.84a.12.12 0 0 0 .14.14h1.48a.12.12 0 0 0 .14-.14v-.85a.12.12 0 0 0-.14-.14h-1.48a.12.12 0 0 0-.14.14zm6.66-7.33a.52.52 0 0 1 .05.23.48.48 0 0 1 0 .19A.59.59 0 0 1 68 4a.48.48 0 0 1-.41 0 .57.57 0 0 1-.3-.31Q67 3 66.49 2.06a.42.42 0 0 1 0-.38.41.41 0 0 1 .26-.27.55.55 0 0 1 .42 0 .61.61 0 0 1 .33.26q.44.79.79 1.54z"/><path class="cls-2" d="M64.64 17.92s0-.14-.07-.12l-.07.2zm-.64-.31c-.1.08-.22.22-.16.37.1-.16.13-.09.24-.28a.11.11 0 0 1 .14.11s.14 0 .18-.07a.29.29 0 0 0-.41 0s.01-.1.01-.13zm-8.6-.25h.06zm-5.4-.1h.06s-.06-.01-.06 0zm-.87-.18h.05s-.04-.01-.05 0zm6.27.28l-.14-.05c-.02.05.07.03.14.05zm7.45.64h.08-.07zm-5.09-.78v-.07zm1.81-.02s-.06.13-.07.2a.14.14 0 0 1 .09-.1.3.3 0 0 0-.02-.1zm2.87.24h.05zm-5.98-.25a.13.13 0 0 0 0-.05.1.1 0 0 0 0 .05zM5.79 18.25s-.01 0 0 0zm-2.1-.7a.72.72 0 0 0 0-.08zm43.76-.65s.03-.01 0 0zm-15.36.1c.17.13-.28.16 0 .3-.09-.05.22-.21 0-.3zm30.71 1zm-30.73-.69zM43.6 17a.17.17 0 0 0 0 .06s.03-.06 0-.06zm2.87.19h-.07zm-4.36-.01h-.1s.05-.02.1 0zm-1.55.01zm-30.05.99a.41.41 0 0 1-.07-.13c.02.1-.21.14.07.13zm52.34-.25v.06h.05a.06.06 0 0 0-.05-.06zM42 18.29h-.25zm-20.36-.13h-.06a.06.06 0 0 0 .06 0zm19.43.13a.35.35 0 0 0-.14-.1zm-30.64-.24z"/><path class="cls-2" d="M8.81 18.39c.24 0 .11-.18.16-.29.28-.05.13.14.23.23s.31-.22.44-.21 0 0 0 .08c.19-.15.55 0 .77-.19a.58.58 0 0 1 0-.25c.11 0 .2-.12.24 0s-.07 0-.1.08l.11-.05c.1.17-.15.06-.15.19.22-.06.47-.2.63-.15s-.39.06-.17.21l-.26-.04c.19.27-.16 0 0 .27.34 0 .38-.09.71 0 .08-.09 0-.14.05-.23.48-.17.37.43.72.2.09-.11.13-.33.38-.21l-.08.19c.33 0 .19-.28.53-.15-.06.08-.26.06-.21.09.22.15.16-.11.33-.11v.17c.35 0 .73-.15 1.11-.18 0 .05-.09.1 0 .16a4.07 4.07 0 0 1 1.5.12l.18-.15s.08.07 0 .09c.18.06 0-.09.1-.15s.14.08.07.13a1.92 1.92 0 0 1 1.25-.11h-.07c.26.06.3-.3.54-.16a5.33 5.33 0 0 1 1.64.15c.08-.21.57.09.6-.2.33.15.23.2.69.3.12 0 .18-.18.33-.21v.15l.21-.16.11.18h.14c-.06 0-.12-.07-.11-.11a.55.55 0 0 1 .55.19l.53-.13c0 .06-.1.08-.17.12.28-.16.05.16.31 0v-.12a1 1 0 0 0 .64.05v.11c.39 0 .82-.05 1.26 0a.13.13 0 0 1 0-.25l.05.16c.08-.1-.13-.06 0-.18s.11.19 0 .24l.2-.06v.14c.08-.1.34.16.46 0 .44 0 .64-.05 1-.06 0-.14.15-.11.25-.22a4 4 0 0 0 .87.14c.22-.07.06-.12.16-.2 0 .13.33.12.17.21a4.53 4.53 0 0 0 1-.13c-.05-.05-.11-.08-.08-.12s.2.05.19.12c.54-.19 1.24.37 1.67.11l.44-.14c.2 0-.12.1 0 .18.48-.21.76 0 1.15-.11.31.38 1.08 0 1.5.21v-.09c.11-.09.13.05.21.07s-.12-.08 0-.13a14.09 14.09 0 0 1 2.79.21c.34 0 .19-.46.62-.25l-.12.17c.68-.2 1.4 0 2.06-.16 0 0 0 .09-.11.09.14.12.52 0 .52-.09s0 .09.09.14.36-.15.43 0 0 0-.07 0 .43 0 .34-.12c.25.07.48-.06.68 0 .13-.15.43.07.47-.14 0 .23.44.18.6.08-.05.07.14.07.08.17.18 0 .35 0 .32-.16.33.27.67-.22.86.13a13.52 13.52 0 0 1 1.41-.25c0 .23-.53 0-.51.26a3.37 3.37 0 0 1 1.18-.26c.12 0-.07.1-.11.14.46-.09.89 0 1.29-.1l-.09.06c-.09.06.19 0 .18-.07h-.08c-.13-.15.32-.31.33-.39-.14.29.4.07.19.45.05 0 .12-.07.11-.14s.1.06 0 .14c.29-.06.19-.16.45-.16 0 0-.05.07-.08.13a.57.57 0 0 1 .49-.15s0 .07-.05.07c.38 0 .65-.26 1.06-.16-.12.22.14.07.16.26l.22-.06-.06-.02c.2 0 .37-.13.54-.07l-.15.08h.37l-.2-.14c.2-.1 0-.24.24-.18-.05 0 .2 0 .3.11a.38.38 0 0 1 .34-.08v.25c.1-.16.46 0 .58-.21a.18.18 0 0 0 0 .16l.08-.13c.09 0 .1.06.09.14.27 0-.09-.24.24-.13h-.07c.32.05.63-.08.93 0 .09.19-.26 0-.16.2a7.69 7.69 0 0 1 1.31-.18h-.08c.06-.27.31.13.52 0-.05 0-.07.15-.05.12a3.37 3.37 0 0 0 1-.15l-.05.07a4.24 4.24 0 0 0 .62.07c.05-.07.16-.06.09-.16.56.39 1.07-.21 1.56.12-.06 0-.14.06-.09.06l.42-.06c0-.12-.06-.07-.14-.16a.38.38 0 0 1 .28-.12c-.19.08 0 .19.08.25s0-.07 0-.11c.22.21 0-.23.34-.09v.06c.11 0 .22-.11.34-.09s-.12.06-.13.17c.17 0 .34-.25.49-.12-.07 0-.18 0-.25.07a.39.39 0 0 0 .31.14l.29.07h-.07c.21-.35.44-.06.72-.29-.28.22 0 .13-.07.28s.19.09.15.13c.14-.12.23.1.42-.08 0 0 .15 0 .12.13.18 0 0-.08 0-.15.27-.17.64.2 1 0s.4-.26.72-.34c.11.08-.09.18-.09.18a.58.58 0 0 0 .46 0s0 .08.05.13.09-.18.26-.11a.67.67 0 0 1-.13.2c.15 0 .3-.14.46-.18s-.1.13-.15.18c.18 0 .46-.08.52-.21h-.11c.06 0 0 .12 0 .14a.14.14 0 0 1-.23-.1h.11c-.12-.29-.45 0-.68 0l.09-.21-.23.17c0-.05-.08-.17 0-.2-.16-.1-.14.07-.28 0l-.16.06s0-.15.07-.12c-.28-.12-.46.16-.57 0-.4.07 0 .15-.33.33l-.2-.38v.15s-.12 0-.11-.08c-.15.1 0 .07-.06.17-.2-.14-.54.07-.58-.18-.07.12.19.09 0 .17-.06-.26-.24 0-.42-.08.05-.14.22-.06 0-.18-.11.23-.35 0-.5 0s-.33.08-.58.14c0-.06-.48-.1-.71-.17 0 .18-.29.15-.47.19a.2.2 0 0 1 .13-.2h-.18a.27.27 0 0 1-.2.11v-.14c-.22 0-.45.16-.73.07 0 .13.23.36-.08.44 0-.07 0-.19.06-.22s-.09.06-.14 0l.12-.12c-.13-.05-.07.1-.17.09s-.08-.07-.06-.15.09 0 .13 0a.48.48 0 0 1-.31-.15c0 .06 0 .13-.09.15s-.08-.12-.21-.17-.2 0-.2.15-.08-.07-.1-.11-.54 0-.41.18c-.38.15-.78-.08-1.15 0a2.42 2.42 0 0 0-.66.14c-.07 0-.16-.09-.13-.15a.54.54 0 0 1-.44 0c.17-.09-.06-.08.18-.06-.22 0-.27-.12-.51 0 .08-.13-.17-.16-.27-.12l.16.09a1.22 1.22 0 0 1-.33 0l.06-.17c-.45-.2-.82.34-1.16 0-.12.12.25.08.14.22-.21 0-.43-.26-.49-.26-.29-.09-.27.24-.56.18 0 .06.07.22-.15.27s-.26-.25-.12-.3.07 0 .07 0 .16 0 .07-.11v.06c-.1-.06-.39-.05-.32-.15-.16.06-.07.1 0 .13-.27-.09-.42 0-.69-.06 0 0 .08.1 0 .1-.4-.07-.18.11-.45.14s.06-.22-.22-.14 0-.16 0-.21c-.25.11-.47-.08-.61-.1h.13a.56.56 0 0 1-.21 0L48 17c-.08 0-.14 0-.14-.07s.06.2-.1.3c-.1-.06-.31.06-.35-.09.33.05 0-.16.24-.18a.33.33 0 0 1-.2 0c-.31-.14-.14.18-.47.17 0-.09-.07-.17-.13-.15.13 0 .06.15-.06.22s-.23.05-.33 0h.12c0 .09-.15.08-.29.1s.13 0 .08-.08c-.16.16-.36-.16-.58-.06-.1-.06 0-.17-.1-.21-.25.12-.27-.12-.53 0 .08.12.09.09-.1.21l.43-.08-.28.17c.13 0 .28-.08.35-.05-.13.1-.12.07-.06.17-.18-.18-.35.1-.56 0v-.3c-.31-.13-.55.15-1 .08l.13.05c-.05.12-.25 0-.38.06s-.07-.13-.12-.2-.29 0-.33.19l-.18-.13c-.33-.05-.37.28-.68.25.09-.11 0-.18.16-.25h-.2s-.29.13-.39 0-.06.15-.18.14-.18.07-.08.18c-.32-.31-.9 0-1.18-.24-.23 0-.5.06-.71.07-.29-.09-.18.28-.5.18-.17-.16.17-.09.07-.15 0-.32-.39 0-.61-.15h.05c-.17-.11-.41.12-.68.1a1.76 1.76 0 0 1-.8.27c.08-.13.12-.07.07-.2s0 .21-.2.24c-.08-.07-.25-.13-.27-.27h.22c-.11-.18-.29 0-.4 0v-.19c-.34 0-.34.22-.71.21v.06c-.2.19-.17-.11-.37 0l-.06-.2a4.19 4.19 0 0 1-.7.23 2.07 2.07 0 0 1 .58-.31c-.13 0-.44 0-.51.11s.12-.07.17 0a.85.85 0 0 1-.63.23c0-.38-.68-.1-.87-.39-.46.14-.91-.06-1.45 0 .19.3-.16 0-.12.31h-.18l-.38-.18c-.09-.09.12-.07.11-.14-.27 0-.11-.13-.3-.21 0 .11-.09.16-.25.11l.22.14c-.38.16-.33-.26-.71-.1l.12-.1c-.2.06-.73 0-.92.24 0 0-.08-.12 0-.14-.47 0-1.05.26-1.42.11v-.07c-.09 0-.15.14-.26.07s0-.07 0-.08-.23.13-.35.09l.1-.08c-.46-.1-.71.2-1.09.26 0-.22-.36-.29-.54-.33a5.76 5.76 0 0 0-1.41.27c-.31-.24-1-.1-1.54-.23.08 0 0 .17-.1.19s-.32.15-.3 0c-.09-.2-.33-.15-.51-.15v.26c-.49-.38-1.28.14-1.54-.2-.12.07-.26.07-.38.13V17a3.7 3.7 0 0 0-.89 0l.08-.1c-.23 0-.29.41-.5.42l.16-.32c-.4 0-.8-.18-1.19 0 0 0 0-.09.08-.1-.19 0-.72-.14-.65.15 0-.19-.41 0-.62.06v-.14c-.18.18-.19.23-.44.28-.06 0-.05-.11 0-.08-.2-.07-.16.13-.4.06l.09-.09c-.21 0-.19 0-.3.14s-.39 0-.42-.16a.23.23 0 0 1-.26.14v-.09c-.34-.09-.51.16-.75 0a.11.11 0 0 0 0-.08 2.92 2.92 0 0 1 .47 0c0-.13-.22-.15 0-.33-.18.1-.48.31-.69.25a.19.19 0 0 0-.14 0 .6.6 0 0 0-.18 0c0-.11-.25-.06-.36-.06s-.13.12 0 .23H14c-.09.07-.18.13-.3.05l-.15.23c-.15-.2-.44-.3-.48-.42-.34.08-.79.05-1 .32-.1 0-.11-.08-.15-.12s.12 0 .15-.06c-.19.07-.56 0-.61.21-.24-.08.14-.17-.19-.14v-.06c-.65-.29-1.06.47-1.77.09 0 0 .07 0 .08.06-.82-.17-1.69.16-2.5-.11-.23-.05-.25.06-.4.15v-.15l-.24.17c-.34.13-.59-.37-1-.13l.06.1c-.16 0-.49.06-.46-.06s-.05.11-.11.05v-.08l-.38.14c-.29-.06 0-.31-.38-.33-.16 0-.46.23-.4.28s.17 0 .17.13h-.15c0 .23-.14.47.22.63l.18-.13.08.11h-.21c.12.11.2 0 .28-.05a.2.2 0 0 0 .1.12l.25-.18c0 .09-.11.18.05.23.12-.1-.11-.2.08-.27.12.11.08.19.23.1 0 .06 0 .1-.07.12.13-.07.33 0 .4-.15.13.13.42 0 .41.19a.66.66 0 0 1 .33-.22c-.21.26.43 0 .37.3.16-.24.56-.11.84-.24 0 0 0 .06-.07 0 .15 0 .2.09.3.14 0-.2.26-.24.39-.36.19.19-.12.23-.06.41 0-.16.33-.16.27-.29.15.12.13.06.2.22 0-.24.14 0 .26-.19.21.12.05.23.28.15s-.09.25-.09.25zM14.3 18zm.46 0h-.2v-.1s.13.02.2.1zm-1-1h.11-.13a.21.21 0 0 1 .04 0zm-.11.17zm41.81.21z"/><path class="cls-2" d="M21.13 18.23v-.04l-.04.03.04.01zM58 17.86zm1.1.03l.16.05zm.84.11a.23.23 0 0 0 0-.06zm-13.41.13c-.11.03-.06.02 0 0zm3.99-.33l-.13.07c.07.01.13.01.13-.07zm-8.45.5zm8.14-.44a.25.25 0 0 0 .19 0 .38.38 0 0 0-.19 0zM63.6 18zm.05 0zm.14 0h-.09.09zm-1.31 0zm-.34 0c.08 0 .2.11.32.08-.04.01-.24-.19-.32-.08zm-1.41-.65h.28c0-.05-.12-.13 0-.14-.34-.13.09.16-.28.14zm-.88-.08c.15 0 0-.08 0-.11s-.12.06 0 .11zm-6.38 0v-.13c-.1.02.02.05 0 .13zm-1.21.66l.11.08.05-.12-.16.04zm-.73-.91l.06-.02-.2.04.14-.02zm-10.7.04v.16c.12-.03.17-.22 0-.16zm-4.62.16a.18.18 0 0 0-.26-.05c.1.01.21.07.26.05zm-13.86-.26l.1-.05-.18.05h.08z"/></g></g></svg>