<svg xmlns="http://www.w3.org/2000/svg" width="146" height="21" viewBox="0 0 146 21"><defs><style>.a{fill:#5d0e5a}.b{fill:#6d2e6a}.c{fill:none}</style></defs><title>txt_series</title><path class="a" d="M33 7.21a.68.68 0 0 1-.31-.44.51.51 0 0 1 0-.16.63.63 0 0 1 .11-.36.77.77 0 0 1 .48-.33h.18a.71.71 0 0 1 .38.11q1 .56 1.89 1.15a.67.67 0 0 1 .31.46 1 1 0 0 1 0 .16.75.75 0 0 1-.12.41.68.68 0 0 1-.46.3.4.4 0 0 1-.15 0 .68.68 0 0 1-.4-.14Q33.87 7.75 33 7.21zm1.63 6.49a1 1 0 0 1-.27 0 1 1 0 0 1-.42-.1 1.06 1.06 0 0 1-.52-.48.55.55 0 0 1-.08-.29.61.61 0 0 1 .05-.25.58.58 0 0 1 .42-.34 14.68 14.68 0 0 0 3.91-1.44 15.6 15.6 0 0 0 2.79-2 13.61 13.61 0 0 0 2.09-2.41.49.49 0 0 1 .4-.23.45.45 0 0 1 .42.25 1.26 1.26 0 0 1 .19.67 1.2 1.2 0 0 1-.26.77 16.5 16.5 0 0 1-5 4.32 15.72 15.72 0 0 1-3.76 1.54zm.45-9.7a.68.68 0 0 1-.31-.44 1 1 0 0 1 0-.16.69.69 0 0 1 .11-.37.73.73 0 0 1 .46-.31h.18a.76.76 0 0 1 .38.11q.92.56 1.89 1.22a.73.73 0 0 1 .3.48.72.72 0 0 1 0 .14.7.7 0 0 1-.14.41.68.68 0 0 1-.46.3h-.14a.64.64 0 0 1-.4-.14Q36 4.59 35.08 4zM48 3.55a.8.8 0 0 1 .2-.55.76.76 0 0 1 .55-.23.71.71 0 0 1 .55.23.77.77 0 0 1 .22.55v5.29a.77.77 0 0 1-.22.55.73.73 0 0 1-1.09 0 .76.76 0 0 1-.21-.54v-5.3zm6.47-.12a.78.78 0 0 1 .21-.53.72.72 0 0 1 .55-.23.76.76 0 0 1 .56.23.8.8 0 0 1 .21.55v3a16.21 16.21 0 0 1-.18 2.63 6.07 6.07 0 0 1-.49 1.68 6.14 6.14 0 0 1-.89 1.24 6.74 6.74 0 0 1-2.56 1.74 1.12 1.12 0 0 1-.45.1h-.27a1.38 1.38 0 0 1-.64-.37.5.5 0 0 1-.14-.34 1 1 0 0 1 0-.15.5.5 0 0 1 .36-.36A5.84 5.84 0 0 0 53.32 11a4.06 4.06 0 0 0 .94-1.77 13.6 13.6 0 0 0 .23-2.88V3.43zm6.76 5.4a.81.81 0 0 1-.58-.23.8.8 0 0 1-.26-.6.74.74 0 0 1 .26-.57.76.76 0 0 1 .56-.23h9.59a.79.79 0 0 1 .56.22.74.74 0 0 1 .26.57.8.8 0 0 1-.26.6.84.84 0 0 1-.57.22h-8.34zM84 4.14a.15.15 0 0 1 0 .23 5.36 5.36 0 0 0-.31.59 18.25 18.25 0 0 1-2.2 3.88.14.14 0 0 0 0 .21 33.6 33.6 0 0 1 3.36 3.38.78.78 0 0 1 .21.53V13a.84.84 0 0 1-.29.57.73.73 0 0 1-.49.19h-.1a.73.73 0 0 1-.53-.29 31.71 31.71 0 0 0-3.1-3.34.12.12 0 0 0-.19 0 18.27 18.27 0 0 1-4.57 3.54 1 1 0 0 1-.48.12h-.21a1.17 1.17 0 0 1-.62-.33.53.53 0 0 1-.15-.37.72.72 0 0 1 0-.14.54.54 0 0 1 .33-.41 14.66 14.66 0 0 0 2.7-1.66 17.26 17.26 0 0 0 2.3-2.11A12.07 12.07 0 0 0 81 7a9.29 9.29 0 0 0 .88-1.8.09.09 0 0 0 0-.08.09.09 0 0 0-.08 0H76a.72.72 0 0 1-.51-.21.7.7 0 0 1-.23-.53.66.66 0 0 1 .23-.52.72.72 0 0 1 .51-.17h6.87a1.31 1.31 0 0 1 .85.27q-.33-.64-.71-1.26a.43.43 0 0 1 0-.35.37.37 0 0 1 .23-.25.57.57 0 0 1 .4 0 .58.58 0 0 1 .33.25l.48.81a.67.67 0 0 1 .1.34.66.66 0 0 1 0 .23.75.75 0 0 1-.4.44zm.7-2a.49.49 0 0 1-.05-.22.52.52 0 0 1 0-.12.41.41 0 0 1 .22-.26.73.73 0 0 1 .23 0h.18a.51.51 0 0 1 .31.23q.34.53.64 1.07a.41.41 0 0 1 .05.21.51.51 0 0 1 0 .16.52.52 0 0 1-.25.27.62.62 0 0 1-.22 0h-.18a.57.57 0 0 1-.29-.26q-.34-.55-.63-1.05zm7.42 6.45a.86.86 0 0 1 0 1 .33.33 0 0 1-.31.14.35.35 0 0 1-.29-.2q-.25-.51-.64-1.22v5.56a.59.59 0 0 1-.17.42.57.57 0 0 1-.42.18.59.59 0 0 1-.43-.18.58.58 0 0 1-.18-.42V8.69a14.76 14.76 0 0 1-1.11 2.69.32.32 0 0 1-.31.16.37.37 0 0 1-.31-.21 1 1 0 0 1-.15-.52 1.13 1.13 0 0 1 .16-.56 12.56 12.56 0 0 0 .94-2 16.57 16.57 0 0 0 .68-2.3.1.1 0 0 0 0-.1.11.11 0 0 0-.09 0h-1a.6.6 0 0 1 0-1.2h1.08a.12.12 0 0 0 .14-.14V2.24a.58.58 0 0 1 .18-.42.59.59 0 0 1 .43-.18.57.57 0 0 1 .42.18.59.59 0 0 1 .17.42v2.21a.12.12 0 0 0 .14.14h.77a.6.6 0 0 1 0 1.2h-.77a.12.12 0 0 0-.14.14v.55a.4.4 0 0 0 .08.25q.35.63 1.13 1.86zm7.94 2.67a.49.49 0 1 1 0 1h-.25a.07.07 0 0 0-.08.08v.85a1.64 1.64 0 0 1-.12.68.8.8 0 0 1-.42.38 4.74 4.74 0 0 1-1.38.18.61.61 0 0 1-.41-.15.82.82 0 0 1-.27-.38.35.35 0 0 1 0-.35.36.36 0 0 1 .31-.16h.81a.26.26 0 0 0 .18 0 .24.24 0 0 0 0-.17v-.78a.12.12 0 0 0-.14-.14h-4.03a.12.12 0 0 0-.14.14v1.44a.59.59 0 0 1-.17.42.56.56 0 0 1-.42.18.61.61 0 0 1-.6-.6v-1.54a.08.08 0 0 0-.1-.1h-.31a.46.46 0 0 1-.33-.14.5.5 0 0 1 0-.7.46.46 0 0 1 .33-.14h.31c.06 0 .1 0 .1-.08V8.95a1.19 1.19 0 0 1 1.19-1.19h1.42a.12.12 0 0 0 .14-.14v-.41a.12.12 0 0 0-.14-.14h-2.78a.47.47 0 0 1-.33-.14.48.48 0 0 1 0-.68.47.47 0 0 1 .33-.14H94a.12.12 0 0 0 .11-.11v-.55a.11.11 0 0 0-.11-.12h-.66A.44.44 0 0 1 93 5.2a.45.45 0 0 1 0-.64.45.45 0 0 1 .31-.13H94c.08 0 .12 0 .12-.14v-.51a.12.12 0 0 0-.12-.14h-.92a.46.46 0 0 1-.33-.79.45.45 0 0 1 .33-.14H94a.1.1 0 0 0 .11-.11v-.36a.58.58 0 0 1 .18-.42.61.61 0 0 1 .86 0 .58.58 0 0 1 .18.42v.37a.1.1 0 0 0 .11.11h1.7c.08 0 .12 0 .12-.11v-.37a.58.58 0 0 1 .18-.42.61.61 0 0 1 .86 0 .58.58 0 0 1 .18.42v.37a.1.1 0 0 0 .11.11h1.08a.47.47 0 0 1 .33.14.45.45 0 0 1 0 .66.47.47 0 0 1-.33.14h-1.06a.12.12 0 0 0-.14.14v.51a.12.12 0 0 0 .14.14h.86a.44.44 0 0 1 .45.45.44.44 0 0 1-.45.45h-.86a.12.12 0 0 0-.14.14V6a.12.12 0 0 0 .14.14h1.33a.47.47 0 0 1 .33.14.48.48 0 0 1 0 .68.47.47 0 0 1-.33.14H97a.12.12 0 0 0-.14.14v.41a.12.12 0 0 0 .14.14h1.54a1.19 1.19 0 0 1 1.19 1.19v2.23a.07.07 0 0 0 .08.08zm-4.37-2.42a.12.12 0 0 0-.14-.14h-1.29a.12.12 0 0 0-.14.14v.52a.12.12 0 0 0 .14.14h1.29a.12.12 0 0 0 .14-.14zm-1.43 1.56a.12.12 0 0 0-.14.14v.59a.12.12 0 0 0 .14.14h1.29a.12.12 0 0 0 .14-.14v-.59a.12.12 0 0 0-.14-.14zm1.2-6.75a.12.12 0 0 0-.14.14v.51a.12.12 0 0 0 .14.14h1.65a.12.12 0 0 0 .14-.14v-.52a.12.12 0 0 0-.14-.14zm0 1.68a.12.12 0 0 0-.14.14V6a.12.12 0 0 0 .14.14h1.65a.12.12 0 0 0 .15-.14v-.54a.12.12 0 0 0-.14-.14zm3 3.51a.12.12 0 0 0-.14-.14H97a.12.12 0 0 0-.14.14v.52a.12.12 0 0 0 .14.14h1.38a.12.12 0 0 0 .14-.14zm-1.65 2.28a.12.12 0 0 0 .14.14h1.38a.12.12 0 0 0 .14-.14v-.59a.12.12 0 0 0-.14-.14H97a.12.12 0 0 0-.14.14zM112 6.72a.78.78 0 0 1 .36-.41.76.76 0 0 1 .34-.08h.18a.58.58 0 0 1 .4.31.53.53 0 0 1 .08.27.62.62 0 0 1 0 .22 15.28 15.28 0 0 1-2.13 4 .22.22 0 0 0 0 .23q.75 1.79 1.56 1.79.23 0 .37-.43a6.77 6.77 0 0 0 .21-1.42.31.31 0 0 1 .21-.29.34.34 0 0 1 .36 0 1.18 1.18 0 0 1 .42.42 1 1 0 0 1 .11.44v.11a4.31 4.31 0 0 1-.57 1.93 1.4 1.4 0 0 1-1.19.53q-1.42 0-2.41-2a.11.11 0 0 0-.08 0 .08.08 0 0 0-.08 0 12 12 0 0 1-2 1.65.7.7 0 0 1-.41.14h-.14a.86.86 0 0 1-.51-.29.55.55 0 0 1-.15-.38.27.27 0 0 1 0-.08.55.55 0 0 1 .25-.41 10.59 10.59 0 0 0 2.35-2 .22.22 0 0 0 .05-.23 25.63 25.63 0 0 1-.94-5.5.14.14 0 0 0-.15-.14h-4.21a.12.12 0 0 0-.14.14v1.47a.12.12 0 0 0 .14.14h2.19a1.18 1.18 0 0 1 .85.34 1.13 1.13 0 0 1 .33.81q0 1.5-.14 2.87a2.63 2.63 0 0 1-.27 1.12 1.33 1.33 0 0 1-.9.44 4.91 4.91 0 0 1-.85.05h-.16a.74.74 0 0 1-.47-.19 1 1 0 0 1-.28-.45.45.45 0 0 1 .07-.39.36.36 0 0 1 .33-.16h.71a.54.54 0 0 0 .44-.16 9.72 9.72 0 0 0 .27-3 .14.14 0 0 0-.2-.13h-2a.12.12 0 0 0-.14.14A13.28 13.28 0 0 1 103 14a.47.47 0 0 1-.4.26h-.08a.6.6 0 0 1-.4-.15.8.8 0 0 1-.29-.48.64.64 0 0 1 0-.18.77.77 0 0 1 .1-.37 8 8 0 0 0 .69-2.41 22.38 22.38 0 0 0 .17-2.88V5.07a1.19 1.19 0 0 1 1.19-1.19h4.43a.13.13 0 0 0 .1 0 .1.1 0 0 0 0-.1q-.05-1-.05-1.42a.63.63 0 0 1 .19-.46.67.67 0 0 1 .49-.21.68.68 0 0 1 .68.68v1.41a.12.12 0 0 0 .14.14h2.43a.05.05 0 0 0 0-.06 13 13 0 0 0-1.61-1.09.42.42 0 0 1-.21-.32.41.41 0 0 1 .12-.36.7.7 0 0 1 .41-.22h.12a.76.76 0 0 1 .34.08 14.42 14.42 0 0 1 1.23.77.69.69 0 0 1 .31.55.27.27 0 0 1 0 .08.73.73 0 0 1-.23.53h.68a.62.62 0 0 1 .46.18.64.64 0 0 1 0 .9.62.62 0 0 1-.46.18H110a.11.11 0 0 0-.09 0 .15.15 0 0 0 0 .1 28.27 28.27 0 0 0 .64 4.16h.06A13.08 13.08 0 0 0 112 6.72z"/><path class="b" d="M117.89 19.81s0-.14-.11-.12l-.09.17zm-.89-.31c-.15.08-.33.22-.23.37.15-.16.19-.09.35-.28.13 0 .23.05.21.11s.2 0 .27-.07a.57.57 0 0 0-.61 0s.01-.1.01-.13zm-12.72-.26h.08zm-7.89-.09h.09s-.1-.01-.09 0zM95 19h.08H95zm9.28.24l-.21-.05c-.02.05.11.04.21.05zm10.97.66h.11-.11zm-7.49-.79h.06l.05-.07zm2.66-.03c-.06 0-.08.13-.1.2a.19.19 0 0 1 .13-.1.21.21 0 0 0-.03-.1zm4.24.25h.08zm-8.81-.25a.11.11 0 0 0 0-.05.08.08 0 0 0 0 .05zm-74.64 1.05s-.02 0 0 0zm-3.1-.69a.49.49 0 0 0 0-.08zm64.47-.65c.08-.01.04-.01 0 0zm-22.58.1c.26.13-.42.16 0 .3-.11-.05.27-.19 0-.3zm45.18.99zm-45.26-.69zm16.98-.32a.18.18 0 0 0 .06.06s-.02-.03-.06-.06zm4.23.2h-.1zm-6.43 0a.26.26 0 0 0-.15 0 .13.13 0 0 1 .15 0zm-2.28 0h.07zm-44.26 1a.41.41 0 0 1-.11-.13c.04.06-.3.14.11.13zm77.09-.25a.08.08 0 0 1-.07.06h.08s.01-.05-.01-.06zm-30.64.36h-.36zM54.56 20h-.08a.12.12 0 0 0 .08 0zm28.61.18a.57.57 0 0 0-.2-.1zM38 19.94z"/><path class="b" d="M35.66 20.27c.35 0 .16-.18.24-.29.41-.05.19.14.33.23s.46-.22.65-.21c0 0 .05 0 0 .08.27-.15.81 0 1.13-.19a.41.41 0 0 1 0-.25c.16 0 .29-.12.35 0-.1 0-.1 0-.15.08l.16-.05c.15.17-.22.06-.22.19a3.2 3.2 0 0 1 .93-.15c.05.17-.57.06-.24.21l-.38-.06c.29.27-.23 0 0 .27.49 0 .55-.09 1 0 .11-.09 0-.14.07-.23.7-.17.55.43 1.07.2.13-.11.19-.33.55-.21l-.13.19c.48 0 .27-.28.78-.15-.09.08-.38.06-.3.09.33.15.23-.11.48-.11l.05.17c.51 0 1.07-.15 1.64-.18 0 .05-.13.1 0 .16a8.75 8.75 0 0 1 2.21.12l.26-.15c.06 0 .11.07 0 .09.27.06 0-.09.14-.15s.2.08.1.13a4.08 4.08 0 0 1 1.97-.1h-.1c.39.06.44-.3.8-.16h-.07a11.45 11.45 0 0 1 2.42.16c.12-.21.83.09.89-.2a3.69 3.69 0 0 0 1 .3c.18 0 .27-.18.49-.21v.15l.3-.16.16.18h.21c-.08 0-.18-.07-.16-.11a1 1 0 0 1 .81.19l.77-.13c0 .06-.15.08-.25.12.41-.16.08.16.45 0-.05 0 0-.09 0-.12a2.11 2.11 0 0 0 .94.05l-.06.11c.57 0 1.21-.05 1.86 0-.23 0-.18-.23 0-.25l.08.16c.12-.1-.2-.06.05-.18s.16.19 0 .24l.29-.06s-.05.07-.07.14c.12-.1.5.16.68 0 .64 0 .94-.05 1.46-.06 0-.14.22-.11.37-.22a8.48 8.48 0 0 0 1.28.14c.33-.07.1-.12.24-.2 0 .13.49.12.25.21A9.69 9.69 0 0 0 65 20c-.08-.05-.16-.08-.12-.12s.29.05.27.12c.79-.19 1.83.37 2.46.11l.65-.14c.3 0-.18.1 0 .18.71-.21 1.11 0 1.7-.11.45.38 1.6 0 2.2.21v-.09c.16-.09.19.05.31.07s-.17-.08-.07-.13a30.39 30.39 0 0 1 4.1.21c.5 0 .28-.46.91-.25l-.18.17c1-.2 2.06 0 3-.16-.06 0-.06.09-.16.09.21.12.77 0 .77-.09s0 .09.13.14.52-.15.63 0-.06 0-.1 0c.14-.06.63 0 .5-.12.37.07.71-.06 1 0 .19-.15.63.07.69-.14 0 .23.65.18.88.08-.08.07.2.07.11.17.27 0 .51 0 .46-.16.49.27 1-.22 1.26.13.79-.12 1.52-.2 2.24-.26 0 .23-.79 0-.76.26a7.06 7.06 0 0 1 1.74-.23c.17 0-.1.1-.16.14.68-.09 1.31 0 1.91-.1 0 0-.07 0-.13.06.12 0 .28 0 .26-.07h-.12c-.19-.15.47-.31.49-.39-.2.29.59.07.27.45.08 0 .18-.07.16-.14s.15.06 0 .14c.42-.06.27-.16.66-.16 0 0-.08.07-.12.13a1.11 1.11 0 0 1 .71-.15s0 .07-.08.07a7.26 7.26 0 0 1 1.56-.16c-.18.22.21.07.24.26l.33-.06-.13-.09c.29 0 .54-.13.79-.07l-.21.08h.54l-.31-.07c.29-.1 0-.24.35-.18-.08 0 .29 0 .44.11a.76.76 0 0 1 .5-.08c.06.06 0 .21 0 .25.14-.16.67 0 .85-.21a.13.13 0 0 0 0 .16l.12-.13c.13 0 .15.06.13.14.4 0-.13-.24.35-.13h-.1c.48.05.92-.08 1.36 0 .13.19-.38 0-.24.2a16.41 16.41 0 0 1 1.93-.18h-.11c.08-.27.46.13.77 0-.08 0-.1.15-.08.12a7.16 7.16 0 0 0 1.5-.15l-.08.07a9.11 9.11 0 0 0 .92.07c.08-.07.23-.06.14-.16.82.39 1.57-.21 2.31.12-.09 0-.21.06-.14.06l.62-.06c0-.12-.08-.07-.21-.16a.71.71 0 0 1 .41-.12c-.28.08 0 .19.12.25s0-.07 0-.11c.33.21.05-.23.5-.09v.06a1.73 1.73 0 0 1 .5-.09c.07.13-.18.06-.19.17.25 0 .5-.25.73-.12-.11 0-.26 0-.37.07a.73.73 0 0 0 .46.14l.43.07h-.11c.32-.35.64-.06 1.07-.29-.41.22-.07.13-.1.28s.27.09.23.13c.2-.12.33.1.62-.08 0 0 .21 0 .17.13.26 0-.06-.08 0-.15.4-.17.95.2 1.52 0s.59-.26 1.05-.34c.16.08-.13.18-.13.18a1.23 1.23 0 0 0 .68 0s0 .08.07.13.13-.18.38-.11a.71.71 0 0 1-.19.2c.22 0 .45-.14.68-.18.06.08-.14.13-.22.18.26 0 .68-.08.76-.21h-.17c.1 0 0 .12 0 .14-.22.11-.32 0-.34-.1h.17c-.17-.29-.67 0-1 0l.14-.21-.34.17c-.07-.05-.12-.17 0-.2-.24-.1-.21.07-.42 0l-.23.06s0-.15.1-.12c-.42-.12-.68.16-.83 0-.58.07-.06.15-.49.33l-.29-.38-.06.15c-.06 0-.18 0-.16-.08-.22.1 0 .07-.09.17-.29-.14-.8.07-.86-.18-.1.12.28.09 0 .17-.09-.26-.36 0-.62-.08.08-.14.33-.06.07-.18-.16.23-.51 0-.74 0 0 .18-.48.08-.86.14a6.67 6.67 0 0 0-1.05-.17c-.07.18-.43.15-.69.19 0-.11.06-.15.2-.2h-.25a.46.46 0 0 1-.29.11l.06-.14a3.71 3.71 0 0 1-1.08.07c0 .13.33.36-.11.44 0-.07 0-.19.08-.22a.36.36 0 0 1-.21 0l.18-.12c-.19-.05-.1.1-.25.09 0-.1-.11-.07-.09-.15s.13 0 .19 0a.87.87 0 0 1-.45-.15c0 .06 0 .13-.13.15-.33 0-.11-.12-.3-.17s-.29 0-.29.15-.11-.07-.15-.11-.79 0-.6.18a11.53 11.53 0 0 1-1.7 0 5 5 0 0 0-1 .14c-.1 0-.23-.09-.19-.15a1.14 1.14 0 0 1-.64 0c.25-.09-.09-.08.26-.06-.33 0-.4-.12-.75 0 .12-.13-.25-.16-.4-.12l.23.09a2.63 2.63 0 0 1-.48 0l.08-.17c-.67-.2-1.2.34-1.71 0-.18.12.36.08.2.22a3.7 3.7 0 0 1-.72-.26c-.42-.09-.39.24-.83.18.06.06.11.22-.22.27s-.38-.25-.18-.3.11 0 .11 0 .23 0 .11-.11v.06c-.15-.06-.57-.05-.48-.15-.23.06-.1.1.07.13-.39-.09-.62 0-1-.06.06 0 .12.1.06.1-.59-.07-.26.11-.66.14-.23-.09.08-.22-.32-.14-.25-.06-.05-.16 0-.21a1.81 1.81 0 0 1-.9-.1h.19a1.19 1.19 0 0 1-.31 0l.11.12c-.11 0-.21 0-.21-.07s.09.2-.14.3c-.15-.06-.46.06-.52-.09.48.05-.05-.16.35-.18a.7.7 0 0 1-.29 0c-.46-.14-.21.18-.69.17.06-.09-.11-.17-.19-.15.19 0 .09.15-.08.22s-.33.05-.49 0h.18c-.06.09-.21.08-.43.11 0-.07.19 0 .12-.08-.24.16-.53-.16-.86-.06-.15-.06 0-.17-.15-.21-.37.12-.4-.12-.79 0 .11.12.13.09-.14.21l.67-.31-.41.17c.19 0 .41-.08.52-.05-.19.1-.17.07-.08.17-.26-.18-.52.1-.83 0v-.3c-.46-.13-.81.15-1.41.08l.19.05c-.08.12-.37 0-.56.06 0-.1-.1-.13-.18-.2s-.43 0-.49.19l-.24-.17c-.48-.05-.55.28-1 .25.14-.11-.07-.18.24-.25h-.29s-.43.13-.57 0-.09.15-.26.14-.27.07-.12.18c-.47-.31-1.32 0-1.74-.24-.34 0-.74.06-1 .07h.06c-.42-.09-.26.28-.74.18-.24-.16.25-.09.1-.15-.07-.32-.58 0-.9-.15L80 19c-.25-.11-.6.12-1 .1a3.48 3.48 0 0 1-1.18.27c.12-.13.18-.07.1-.2s.05.21-.3.24c-.11-.07-.36-.13-.4-.27h.33c-.17-.18-.42 0-.59 0L77 19c-.5 0-.51.22-1 .21l.06.06c-.29.19-.25-.11-.54 0l-.09-.2a8.38 8.38 0 0 1-1 .23 3.71 3.71 0 0 1 .86-.31 1.75 1.75 0 0 0-.75.11c.08 0 .17-.07.25 0a1.64 1.64 0 0 1-.93.23c.07-.38-1-.1-1.28-.39a13 13 0 0 1-2.13 0c.28.3-.23 0-.18.31H70l-.63-.25c-.13-.09.17-.07.16-.14-.4 0-.17-.13-.44-.21.05.11-.14.16-.37.11l.32.14c-.56.16-.49-.26-1.05-.1l.18-.1c-.29.06-1.07 0-1.36.24-.05 0-.12-.12 0-.14a13.71 13.71 0 0 1-2.09.11l.05-.07c-.13 0-.23.14-.39.07 0 0 .05-.07 0-.08a1.07 1.07 0 0 1-.52.09l.15-.08c-.68-.1-1 .2-1.61.26 0-.22-.53-.29-.8-.33a12.12 12.12 0 0 0-2.07.27 13 13 0 0 0-2.27-.23c.11 0 0 .17-.15.19s-.47.15-.45 0h.06c-.13-.2-.48-.15-.76-.15v.26c-.72-.38-1.88.14-2.27-.2-.17.07-.39.07-.56.13v-.14a8 8 0 0 0-1.31 0l.12-.1c-.33 0-.42.41-.73.42l-.09-.21a5.48 5.48 0 0 0-1.75 0 .12.12 0 0 1 .12-.1c-.28 0-1.06-.14-1 .15 0-.19-.6 0-.92.06v-.14a1.06 1.06 0 0 1-.65.28c-.09 0-.08-.11 0-.08-.29-.07-.23.13-.58.06l.13-.09c-.3 0-.28 0-.44.14s-.57 0-.62-.16a.39.39 0 0 1-.38.14s0-.08.07-.09c-.51-.09-.75.16-1.1 0a.1.1 0 0 0 0-.18 6.32 6.32 0 0 1 .69 0c0-.13-.32-.15-.07-.33a2.25 2.25 0 0 1-1 .25.39.39 0 0 0-.2 0 1.27 1.27 0 0 0-.26 0c0-.11-.37-.06-.53-.06 0 .14-.2.12 0 .23h.6a.45.45 0 0 1-.44.05l-.23.23c-.22-.2-.65-.3-.71-.42-.49.08-1.16.05-1.47.32-.14 0-.16-.08-.21-.12s.18 0 .22-.06c-.28.07-.83 0-.9.21-.35-.08.2-.17-.29-.14l.07-.06c-1-.29-1.55.47-2.61.09.07 0 .11 0 .13.06-1.21-.17-2.49.16-3.68-.11-.34-.05-.38.06-.58.15l-.07-.15-.35.17c-.5.13-.87-.37-1.5-.13l.08.1c-.23 0-.72.06-.68-.06s-.07.11-.16.05v-.08l-.56.14c-.43-.06.07-.31-.57-.33-.24 0-.67.23-.58.28s.24 0 .25.13h-.22c0 .23-.21.47.32.63l.37-.14.14.1h-.31c.18.11.29 0 .41-.05a.24.24 0 0 0 .15.12l.36-.22c0 .09-.16.18.08.23.17-.1-.16-.2.12-.27.18.11.13.19.33.1 0 .06 0 .1-.1.12.18-.07.49 0 .58-.15.18.13.62 0 .6.19a1.16 1.16 0 0 1 .49-.18c-.31.26.63 0 .55.3.23-.24.83-.11 1.23-.24 0 0-.07.06-.1 0a1.47 1.47 0 0 1 .44.14c0-.2.38-.24.58-.36.28.19-.17.23-.08.41 0-.16.49-.16.39-.29.21.12.18.06.29.22 0-.24.2 0 .38-.19.31.12.08.23.42.15.19.16-.15.24-.15.24zm8.08-.42zm.68 0h-.29s0-.1.07-.1.12.06.22.1zm-1.44-1h.16-.19a.18.18 0 0 1 .05.02zm-.19.21h.06zm61.59.21z"/><path class="b" d="M53.8 20.12v-.04l-.06.03.06.01zm54.32-.37zm1.61.03l.23.05zm1.27.07a.17.17 0 0 0 0-.06zM91.22 20c-.16 0-.09 0 0 0zm5.88-.31l-.19.07c.09 0 .18.01.19-.07zm-12.45.49zm11.98-.43a.53.53 0 0 0 .27 0 .82.82 0 0 0-.27 0zm19.73.16h.06zm.07-.01h.07s-.06-.02-.07 0zm.21-.06h-.14s.1.04.14 0zm-1.92.01v.05a.08.08 0 0 0 0-.05zm-.5.01a1.47 1.47 0 0 0 .47.08c-.07.06-.36-.16-.47-.08zm-2.09-.63h.42c-.07-.05-.17-.13 0-.14-.55-.09.13.16-.42.14zm-1.3-.08c.23 0 0-.08 0-.11-.13.05-.17.07 0 .11zm-9.39 0v-.13c-.15-.02.03.06 0 .13zm-1.79.67l.17.07.08-.11-.25.04zm-1.06-.92l.08-.01-.29.04.21-.03zm-15.77.05l.05.16c.13-.03.13-.21-.05-.16zm-6.82.16a.34.34 0 0 0-.38-.05 2.36 2.36 0 0 0 .38.05zm-20.39-.26l.13-.05-.25.04.12.01z"/><path class="c" d="M0 0h146v21H0z"/></svg>