<svg xmlns="http://www.w3.org/2000/svg" width="146" height="21" viewBox="0 0 146 21"><defs><style>.a{fill:#5d0e5a}.b{fill:#6d2e6a}.c{fill:none}</style></defs><title>txt_animation</title><path class="a" d="M21.36 1.52h.14a1.25 1.25 0 0 1 .9.36.59.59 0 0 1 .21.46.65.65 0 0 1-.14.41l-.08.12a15.33 15.33 0 0 1-1.22 1.72 12.64 12.64 0 0 1-1.62 1.68.85.85 0 0 1-.56.21 1 1 0 0 1-.59-.22.52.52 0 0 1-.19-.41.57.57 0 0 1 .23-.48 9.22 9.22 0 0 0 1.23-1.17 7.19 7.19 0 0 0 .91-1.2.07.07 0 0 0 0-.08.08.08 0 0 0-.07 0h-8.38a.69.69 0 0 1-.49-.19.7.7 0 0 1-.23-.53.65.65 0 0 1 .23-.51.66.66 0 0 1 .36-.19h8.77zM15.67 4.9a.81.81 0 0 1 .19-.53.7.7 0 0 1 .53-.23.76.76 0 0 1 .56.23.75.75 0 0 1 .23.55q0 1-.08 1.74a10.7 10.7 0 0 1-.27 1.53 5.89 5.89 0 0 1-.53 1.42 5.94 5.94 0 0 1-.91 1.22A7 7 0 0 1 14 12a1.12 1.12 0 0 1-.59.16h-.11a1.32 1.32 0 0 1-.67-.27.47.47 0 0 1-.18-.37.27.27 0 0 1 0-.08.54.54 0 0 1 .29-.41 4.31 4.31 0 0 0 .57-.36 5 5 0 0 0 1.21-1 4 4 0 0 0 .71-1.28 6.86 6.86 0 0 0 .32-1.4 14.4 14.4 0 0 0 .08-1.65zM25.76 11a.82.82 0 0 1-.56-.22.76.76 0 0 1-.25-.57.74.74 0 0 1 .26-.57.76.76 0 0 1 .53-.22h9.62a.77.77 0 0 1 .55.22.72.72 0 0 1 .25.56.76.76 0 0 1-.25.57.77.77 0 0 1-.55.22h-9.6zm1.13-7a.76.76 0 0 1-.53-.22.72.72 0 0 1-.23-.55.7.7 0 0 1 .23-.53.77.77 0 0 1 .52-.21h7.34a.73.73 0 0 1 .52.21.7.7 0 0 1 .23.53.72.72 0 0 1-.23.55.71.71 0 0 1-.52.22h-7.3zm20.43-2.2a.82.82 0 0 1 .79-.62.82.82 0 0 1 .26 0 .7.7 0 0 1 .46.44.82.82 0 0 1 0 .66l-.14.31a18.47 18.47 0 0 1-1.92 3.91.15.15 0 0 0 0 .21Q48.36 8 49.52 9.15a.91.91 0 0 1 0 1.23.74.74 0 0 1-.56.25.76.76 0 0 1-.57-.25 30 30 0 0 0-2.54-2.43.1.1 0 0 0-.18 0 17.77 17.77 0 0 1-4.54 3.91 1.1 1.1 0 0 1-.57.16h-.14a1.16 1.16 0 0 1-.67-.3.52.52 0 0 1-.19-.41v-.08a.55.55 0 0 1 .31-.45A15.4 15.4 0 0 0 44.5 7c.05-.06 0-.12 0-.18a37.4 37.4 0 0 0-3.13-2.27.69.69 0 0 1-.29-.45V4a.6.6 0 0 1 .15-.4.74.74 0 0 1 .51-.29h.12a.8.8 0 0 1 .45.14q1.65 1.09 3.09 2.17c.07.05.14 0 .19 0a15.32 15.32 0 0 0 1.65-3.47 1.94 1.94 0 0 0 .08-.35zm6.56 5.38a.81.81 0 0 1-.6-.18.8.8 0 0 1-.26-.6.74.74 0 0 1 .26-.57.76.76 0 0 1 .56-.23h9.57a.79.79 0 0 1 .56.22.74.74 0 0 1 .26.57A.8.8 0 0 1 64 7a.84.84 0 0 1-.57.22H55.1zm13.73-1.61a.68.68 0 0 1-.31-.44.51.51 0 0 1 0-.16.63.63 0 0 1 .11-.36.77.77 0 0 1 .48-.33h.18a.71.71 0 0 1 .38.11q1 .56 1.89 1.15a.67.67 0 0 1 .31.46 1 1 0 0 1 0 .16.75.75 0 0 1-.12.41.68.68 0 0 1-.46.3.4.4 0 0 1-.15 0 .68.68 0 0 1-.4-.14q-1-.63-1.91-1.16zm1.63 6.49a1 1 0 0 1-.27 0 1 1 0 0 1-.42-.1 1.06 1.06 0 0 1-.52-.48.55.55 0 0 1-.08-.29A.61.61 0 0 1 68 11a.58.58 0 0 1 .42-.34 14.68 14.68 0 0 0 3.91-1.44 15.6 15.6 0 0 0 2.79-2 13.61 13.61 0 0 0 2.13-2.45.49.49 0 0 1 .44-.23.45.45 0 0 1 .42.25 1.26 1.26 0 0 1 .19.67 1.2 1.2 0 0 1-.3.74 16.5 16.5 0 0 1-5 4.32 15.72 15.72 0 0 1-3.77 1.55zm.49-9.67a.68.68 0 0 1-.32-.39 1 1 0 0 1 0-.16.69.69 0 0 1 .11-.37.73.73 0 0 1 .48-.36h.18a.76.76 0 0 1 .38.11q.92.56 1.89 1.22a.73.73 0 0 1 .3.48.72.72 0 0 1 0 .14.7.7 0 0 1-.14.41.68.68 0 0 1-.46.3H72a.64.64 0 0 1-.4-.14q-.98-.68-1.87-1.23zm20.85 9.55a.65.65 0 0 1-.19.48.64.64 0 0 1-.48.22h-.21a.47.47 0 0 1-.35-.15.5.5 0 0 1-.14-.36l-.05-.05h-5.95a.62.62 0 0 1-.45-.19.63.63 0 0 1-.21-.48.57.57 0 0 1 .21-.45.64.64 0 0 1 .45-.18h5.87a.12.12 0 0 0 .14-.14V8.72a.12.12 0 0 0-.14-.14H83.7a.63.63 0 0 1-.46-.19.59.59 0 0 1-.24-.45.63.63 0 0 1 .63-.64h5.4a.12.12 0 0 0 .14-.14V5.39a.12.12 0 0 0-.14-.14h-5.7a.64.64 0 0 1-.45-.18.61.61 0 0 1-.21-.46.57.57 0 0 1 .21-.45.64.64 0 0 1 .49-.16h6a1.14 1.14 0 0 1 .83.34 1.12 1.12 0 0 1 .35.83v6.75zm6.67 0L97 12a1.22 1.22 0 0 1-.46-.1 1.27 1.27 0 0 1-.57-.48.62.62 0 0 1-.08-.3.73.73 0 0 1 0-.23.58.58 0 0 1 .42-.34A14.37 14.37 0 0 0 101 8.72a12.93 12.93 0 0 0 2.54-2.06 13.73 13.73 0 0 0 1.9-2.45.45.45 0 0 1 .42-.25.44.44 0 0 1 .41.25 1.41 1.41 0 0 1 .21.74 1.33 1.33 0 0 1-.23.77 14.53 14.53 0 0 1-1.95 2.36 13.72 13.72 0 0 1-2.51 2 15.88 15.88 0 0 1-4.54 1.86zm-.75-9.1a.65.65 0 0 1-.26-.48.16.16 0 0 1 0-.07.63.63 0 0 1 .18-.44.87.87 0 0 1 .55-.27H97a.82.82 0 0 1 .48.15q1.3 1 2.41 2a.72.72 0 0 1 .25.56.76.76 0 0 1-.23.56.72.72 0 0 1-.55.23.79.79 0 0 1-.56-.22q-1.16-1.14-2.3-2.02zm16.5.27a.12.12 0 0 0-.14.14v1a.12.12 0 0 0 .14.14h2.49a.56.56 0 0 1 .42.18.59.59 0 0 1 .09.43.58.58 0 0 1-.59.59H113a.12.12 0 0 0-.14.14v1a.12.12 0 0 0 .14.14h1.48A1.19 1.19 0 0 1 115.64 8v2.49a2 2 0 0 1-.1.68.72.72 0 0 1-.36.39 2.46 2.46 0 0 1-1 .19.63.63 0 0 1-.42-.15.9.9 0 0 1-.27-.41.39.39 0 0 1 0-.37.36.36 0 0 1 .31-.16h.48a.24.24 0 0 0 .15 0 .18.18 0 0 0 0-.14V8.13a.12.12 0 0 0-.14-.14H113a.12.12 0 0 0-.14.14v4.09a.59.59 0 0 1-.18.43.6.6 0 0 1-.44.18.57.57 0 0 1-.43-.18.6.6 0 0 1-.18-.43V8.13a.12.12 0 0 0-.14-.14h-1.26a.12.12 0 0 0-.14.14v3a.57.57 0 0 1-.17.42.58.58 0 0 1-.82 0 .57.57 0 0 1-.17-.42V8a1.19 1.19 0 0 1 1.19-1.19h1.37a.12.12 0 0 0 .14-.14v-1a.12.12 0 0 0-.14-.14h-2.56a.59.59 0 0 1-.42-.17.56.56 0 0 1-.18-.42.61.61 0 0 1 .6-.6h.29a1 1 0 0 1-.51-.56.94.94 0 0 1-.07-.34.91.91 0 0 1 .1-.41 12.67 12.67 0 0 0 .7-2.11.64.64 0 0 1 .29-.4.6.6 0 0 1 .33-.1h.14a.54.54 0 0 1 .38.26.58.58 0 0 1 .1.31.47.47 0 0 1 0 .15l-.18.66a.08.08 0 0 0 0 .08.11.11 0 0 0 .09 0h.94a.12.12 0 0 0 .14-.14V.69a.6.6 0 0 1 .18-.44.59.59 0 0 1 .43-.18.61.61 0 0 1 .44.18.58.58 0 0 1 .18.44V1.8a.12.12 0 0 0 .14.14h1.94a.58.58 0 0 1 .59.59.58.58 0 0 1-.59.59zm-3.55 1.16a.06.06 0 0 0 0 .08.09.09 0 0 0 .07 0h2a.12.12 0 0 0 .14-.14v-1a.12.12 0 0 0-.14-.14h-1.42a.19.19 0 0 0-.19.12 6.22 6.22 0 0 1-.49 1.08zm7.67-2.87a.6.6 0 0 1 1 .42v6.54a.6.6 0 0 1-1.2 0V1.82a.58.58 0 0 1 .17-.42zm2.28-.59a.61.61 0 0 1 .18-.44.63.63 0 0 1 .89 0 .61.61 0 0 1 .18.44v10.37a2.3 2.3 0 0 1-.14.9.94.94 0 0 1-.49.47 4.18 4.18 0 0 1-1.59.25.84.84 0 0 1-.52-.18 1 1 0 0 1-.33-.49.47.47 0 0 1 0-.15.49.49 0 0 1 .1-.29.43.43 0 0 1 .37-.19h1.09a.3.3 0 0 0 .23-.07.35.35 0 0 0 .06-.23zm5.85-.16a.74.74 0 0 1 .36-.37.72.72 0 0 1 .3-.07h.21a.58.58 0 0 1 .37.33.61.61 0 0 1 .05.25.73.73 0 0 1 0 .23 21.37 21.37 0 0 1-1.08 2.2.52.52 0 0 0-.07.26v8.65a.66.66 0 1 1-1.31 0V5.56h-.05q-.26.36-.55.7a.45.45 0 0 1-.36.18H123a.52.52 0 0 1-.4-.29 1.07 1.07 0 0 1-.13-.51.52.52 0 0 1 0-.12 1 1 0 0 1 .25-.59 15.45 15.45 0 0 0 2.53-4.28zm9.67 1.82a.58.58 0 0 1 .18.44.63.63 0 0 1-.63.63h-3.37a.12.12 0 0 0-.14.14v1.5a.12.12 0 0 0 .14.14h3.08a.57.57 0 0 1 .42.17.61.61 0 0 1 0 .85.57.57 0 0 1-.42.17h-3.08a.12.12 0 0 0-.14.14v1.57a.12.12 0 0 0 .14.14h3.25a.6.6 0 0 1 .44.18.61.61 0 0 1 0 .86.6.6 0 0 1-.44.18h-3.25a.12.12 0 0 0-.14.14v2.45a.68.68 0 0 1-.67.67.62.62 0 0 1-.46-.2.66.66 0 0 1-.19-.47v-8.5a.12.12 0 0 0-.14-.14h-.5a.19.19 0 0 0-.19.12 15.81 15.81 0 0 1-1.41 2.17.53.53 0 0 1-.45.22.6.6 0 0 1-.44-.18.65.65 0 0 1-.23-.51.61.61 0 0 1 .15-.41 15 15 0 0 0 2.32-4.18.68.68 0 0 1 .33-.38.73.73 0 0 1 .33-.08h.18a.58.58 0 0 1 .37.3.58.58 0 0 1 .07.26.62.62 0 0 1 0 .22q-.23.6-.45 1.08a.09.09 0 0 0 0 .08.08.08 0 0 0 .07 0h4.87a.62.62 0 0 1 .4.23z"/><path class="b" d="M140.47 18.17c.07 0 0-.14-.17-.12l-.14.17zm-1.33-.31c-.23.08-.5.22-.35.37.23-.16.28-.09.53-.28.2 0 .34.05.31.11s.31 0 .41-.07a1.23 1.23 0 0 0-.92 0c-.06-.06.01-.1.02-.13zm-19.23-.26h.12zM108 17.51h.13s-.13-.01-.13 0zm-2-.18h.12a.19.19 0 0 0-.12 0zm13.91.27l-.32-.05c-.02.05.16.04.32.05zm16.58.66h.17-.16zm-11.33-.79h.1l.08-.07zm4.03-.03c-.09 0-.12.13-.16.2a.31.31 0 0 1 .2-.1.16.16 0 0 0-.04-.1zm6.4.25h.11zm-13.31-.25a.1.1 0 0 0 0-.05s-.03.03 0 .05zM9.5 18.49s-.03 0 0 0zm-4.68-.69h.06a.3.3 0 0 0 0-.08zm97.41-.65c.11-.02.06-.01 0 0zm-34.23.1c.39.13-.63.16 0 .3-.06-.05.53-.22 0-.3zm68.39.99zM68 17.55zm25.65-.32a.24.24 0 0 0 .09.06s-.03-.03-.09-.06zm6.35.2h-.16zm-9.67 0a.58.58 0 0 0-.23 0 .29.29 0 0 1 .23 0zm-3.45 0H87zM20 18.42a.51.51 0 0 1-.16-.13c.05.11-.46.14.16.13zm116.49-.24a.12.12 0 0 1-.1.06h.12s0-.05-.02-.06zm-46.3.36h-.55zm-45.41-.14h-.13a.26.26 0 0 0 .13 0zm43.22.14a1.09 1.09 0 0 0-.31-.1h-.06zm-68.16-.24z"/><path class="b" d="M16.22 18.63c.52 0 .25-.18.36-.29.62-.05.29.14.5.23a9.82 9.82 0 0 1 1-.21s.08 0 0 .08c.41-.15 1.22 0 1.7-.19h.06a.29.29 0 0 1-.07-.25c.23 0 .44-.12.52 0-.14 0-.16 0-.22.08l.25-.05c.22.17-.34.06-.34.19a7.15 7.15 0 0 1 1.4-.15c.08.17-.86.06-.37.21l-.57-.06c.43.27-.35 0 .05.27.75 0 .84-.09 1.58 0 .17-.09-.06-.14.11-.23 1.06-.17.83.43 1.61.2a.82.82 0 0 1 .83-.21l-.19.19c.72 0 .41-.28 1.17-.15-.13.08-.57.06-.46.09.49.15.35-.11.72-.11l.08.17c.77 0 1.62-.15 2.47-.18 0 .05-.19.1 0 .16a19.87 19.87 0 0 1 3.34.12l.4-.15c.09 0 .17.07.07.09.4.06 0-.09.22-.15s.3.08.16.13a9.21 9.21 0 0 1 2.79-.11h-.15c.59.06.66-.3 1.2-.16h-.1a26 26 0 0 1 3.66.21c.18-.21 1.26.09 1.34-.2a7.84 7.84 0 0 0 1.54.3c.27 0 .41-.18.74-.21v.15l.46-.16.24.18h.32c-.13 0-.27-.07-.25-.11a2.17 2.17 0 0 1 1.22.19l1.17-.13c0 .06-.22.08-.38.12.62-.16.11.16.69 0-.08 0 0-.09.05-.12a4.76 4.76 0 0 0 1.42.05l-.09.11c.87 0 1.83-.05 2.8 0-.35 0-.27-.23 0-.25l.11.16c.18-.1-.3-.06.08-.18s.24.19 0 .24l.54-.14s-.08.07-.1.14c.18-.1.76.16 1 0 1 0 1.42-.05 2.21-.06 0-.14.33-.11.56-.22a19.13 19.13 0 0 0 1.93.14c.49-.07.14-.12.37-.2 0 .13.74.12.37.21.84 0 1.08 0 2.14-.13-.12-.05-.25-.08-.18-.12s.44.05.41.12h-.05c1.2-.19 2.76.37 3.71.11h-.05l1-.14c.45 0-.27.1.06.18 1.07-.21 1.68 0 2.56-.11.68.38 2.41 0 3.33.21l-.05-.09c.24-.09.29.05.46.07 0-.07-.26-.08-.11-.13 2-.11 4.14.13 6.2.21.75 0 .43-.46 1.38-.25l-.27.17c1.52-.2 3.11 0 4.59-.16-.09 0-.09.09-.24.09a1.87 1.87 0 0 0 1.17-.09c.23 0 .05.09.2.14.32.07.79-.15 1 0s-.09 0-.15 0c.21-.06 1 0 .76-.12.56.07 1.07-.06 1.51 0 .29-.15 1 .07 1-.14 0 .23 1 .18 1.33.08-.12.07.31.07.17.17.4 0 .77 0 .7-.16.74.27 1.49-.22 1.91.13 1.2-.12 2.3-.2 3.38-.26 0 .23-1.19 0-1.14.26a15.85 15.85 0 0 1 2.62-.23c.26 0-.15.1-.24.14 1-.09 2 0 2.88-.1 0 0-.1 0-.19.06.18 0 .42 0 .4-.07h-.17c-.29-.15.71-.31.74-.39-.3.29.9.07.41.45.12 0 .27-.07.24-.14.17 0 .23.06.05.14.64-.06.41-.16 1-.16 0 0-.12.07-.18.13a2.4 2.4 0 0 1 1.08-.15s0 .07-.12.07a16.39 16.39 0 0 1 2.41-.1c-.27.22.31.07.36.26l.5-.06-.2-.09a8.84 8.84 0 0 1 1.19-.07l-.32.08h.82l-.46-.07c.44-.1 0-.24.53-.18a3.94 3.94 0 0 1 .66.11 1.68 1.68 0 0 1 .76-.08c.08.06-.07.21 0 .25.21-.16 1 0 1.29-.21-.09 0-.09.14-.06.16l.18-.13c.2 0 .23.06.2.14.61 0-.19-.24.53-.13h-.15c.72.05 1.4-.08 2.06 0 .2.19-.58 0-.36.2 1 0 2-.23 2.91-.18h-.17c.13-.27.69.13 1.16 0-.12 0-.15.15-.12.12a16.21 16.21 0 0 0 2.26-.15l-.12.07c.37.06 1 0 1.39.07.12-.07.35-.06.21-.16 1.25.39 2.38-.21 3.48.12-.13 0-.32.06-.21.06l.94-.06c-.07-.12-.12-.07-.32-.16a1.48 1.48 0 0 1 .62-.12c-.42.08 0 .19.19.25v-.11c.49.21.08-.23.75-.09V18a3.82 3.82 0 0 1 .75-.09c.11.13-.27.06-.29.17.38 0 .75-.25 1.1-.12-.16 0-.39 0-.56.07a1.53 1.53 0 0 0 .7.14l.64.07h-.16c.48-.35 1-.06 1.61-.29-.62.22-.1.13-.15.28.16 0 .41.09.34.13.3-.12.51.1.93-.08 0 0 .32 0 .26.13.39 0-.09-.08-.06-.15.61-.17 1.43.2 2.3 0s.89-.26 1.59-.34c.24.08-.19.18-.19.18a2.78 2.78 0 0 0 1 0c-.07 0 0 .08.11.13.29 0 .19-.18.57-.11a1 1 0 0 1-.29.2c.34 0 .68-.14 1-.18.09.08-.21.13-.34.18a3.09 3.09 0 0 0 1.14-.32h-.25c.14 0 .07.12 0 .14-.34.11-.49 0-.51-.1h.25c-.26-.29-1 0-1.51 0l.21-.21-.52.17c-.11-.05-.19-.17.06-.2-.36-.1-.32.07-.63 0l-.35.06c.07 0-.06-.15.16-.12-.63-.12-1 .16-1.26 0h.05c-.88.07-.08.15-.74.33l-.44-.38-.09.15c-.09 0-.27 0-.24-.08-.34.1.06.07-.14.17-.44-.14-1.2.06-1.3-.18-.16.12.42.09 0 .17-.13-.26-.54 0-.94-.08.12-.14.5-.06.1-.18-.24.23-.78 0-1.11 0 0 .18-.73.08-1.3.14a14.81 14.81 0 0 0-1.59-.17c-.1.18-.64.15-1 .19 0-.11.09-.15.3-.2h-.37a.91.91 0 0 1-.44.11l.09-.14a8.43 8.43 0 0 1-1.63.07c0 .13.51.36-.17.44 0-.07 0-.19.13-.22a.8.8 0 0 1-.32 0l.27-.12c-.29-.05-.15.1-.38.09 0-.1-.17-.07-.14-.15s.2 0 .29 0a1.78 1.78 0 0 1-.68-.15c0 .06 0 .13-.19.15-.49 0-.17-.12-.46-.17-.12.07-.43 0-.44.15s-.17-.07-.23-.11c-.26.07-1.19 0-.9.18-.84.15-1.74-.08-2.57 0a11.29 11.29 0 0 0-1.46.14c-.15 0-.35-.09-.28-.15a2.58 2.58 0 0 1-1 0c.38-.09-.13-.08.39-.06a2.45 2.45 0 0 0-1.13 0c.18-.13-.37-.16-.6-.12l.35.09a6 6 0 0 1-.73 0l.13-.17c-1-.2-1.82.34-2.58 0-.27.12.55.08.31.22a7.58 7.58 0 0 1-1.09-.26c-.64-.09-.59.24-1.26.18.08.06.17.22-.33.27s-.57-.25-.28-.3h.16c.15 0 .35 0 .16-.11l-.06.06c-.23-.06-.87-.05-.72-.15-.35.06-.15.1.11.13-.59-.09-.93 0-1.54-.06.1 0 .19.1.09.1-.9-.07-.4.11-1 .14-.35-.09.12-.22-.49-.14-.37-.06-.08-.16.07-.21a4.05 4.05 0 0 1-1.36-.1h.29a2.7 2.7 0 0 1-.47 0l.17.12c-.17 0-.32 0-.32-.07-.18.08.14.2-.22.3-.23-.06-.7.06-.78-.09.72.05-.08-.16.53-.18a1.61 1.61 0 0 1-.44 0h.07c-.69-.14-.32.18-1 .17.09-.09-.17-.17-.28-.15.29 0 .14.15-.13.22-.46-.07-.5.05-.74 0h.27c-.09.09-.32.08-.64.1 0-.07.29 0 .18-.08-.36.16-.81-.16-1.3-.06-.23-.06 0-.17-.22-.21-.56.11-.6-.12-1.19 0 .17.12.2.09-.21.21l1-.08-.62.17c.29 0 .61-.08.79-.05-.29.1-.26.07-.12.17-.4-.18-.79.1-1.25 0v-.3c-.69-.13-1.23.15-2.12.08l.29.05c-.12.12-.55 0-.84.06 0-.1-.15-.13-.28-.2s-.66 0-.74.19l-.4-.13c-.72-.05-.83.28-1.52.25.21-.11-.11-.18.36-.25h-.44s-.64.13-.86 0-.13.15-.39.14-.41.07-.18.18c-.72-.31-2 0-2.62-.24-.51 0-1.12.06-1.58.07h.09c-.63-.09-.39.28-1.11.18-.37-.16.38-.09.15-.15-.1-.32-.87 0-1.36-.15h.12c-.37-.11-.91.12-1.51.1a7.58 7.58 0 0 1-1.79.27c.18-.13.27-.07.15-.2-.26 0 .08.21-.45.24-.17-.07-.55-.13-.6-.27h.49c-.25-.18-.64 0-.9 0v-.08c-.76 0-.77.22-1.58.21l.08.06c-.44.19-.37-.11-.81 0l-.13-.2c-.29 0-1 .19-1.55.23a7.64 7.64 0 0 1 1.23-.51 3.89 3.89 0 0 0-1.14.11 1 1 0 0 1 .38 0 3.51 3.51 0 0 1-1.4.23c.1-.38-1.51-.1-1.93-.39a29.58 29.58 0 0 1-3.22 0c.42.3-.35 0-.27.31a1 1 0 0 1-.41 0l-.84-.18c-.2-.09.26-.07.24-.14-.61 0-.25-.13-.66-.21.08.11-.21.16-.56.11l.49.14c-.85.16-.73-.26-1.59-.1l.27-.1a7.58 7.58 0 0 0-2.05.24c-.08 0-.18-.12 0-.14a31.17 31.17 0 0 1-3.15.11l.08-.07c-.2 0-.34.14-.59.07 0 0 .08-.07 0-.08a2.35 2.35 0 0 1-.78.09l.22-.08a12 12 0 0 0-2.43.26c0-.22-.8-.29-1.21-.33a27.32 27.32 0 0 0-3.13.27 29.31 29.31 0 0 0-3.43-.23c.17 0 0 .17-.22.19s-.72.15-.67 0h.09c-.19-.2-.73-.15-1.14-.15l-.07.26c-1.09-.38-2.84.14-3.44-.2-.26.07-.59.07-.85.13v-.29a18.27 18.27 0 0 0-2 0l.18-.1c-.51 0-.64.41-1.11.42l-.14-.21a12.45 12.45 0 0 0-2.65 0s0-.09.18-.1c-.42 0-1.61-.14-1.46.15 0-.19-.91 0-1.39.06l.07-.14a2.07 2.07 0 0 1-1 .28c-.13 0-.12-.11.06-.08-.44-.07-.35.13-.88.06l.2-.09a1 1 0 0 0-.67.14c-.29.06-.87 0-.93-.16a.74.74 0 0 1-.58.14s.06-.08.11-.09c-.76-.09-1.14.16-1.66 0a.12.12 0 0 0-.09-.08h1c-.09 0-.49-.15-.1-.33a4.86 4.86 0 0 1-1.54.25h-.06a.87.87 0 0 0-.3 0 2.85 2.85 0 0 0-.4 0c-.06-.11-.56-.06-.81-.06 0 .14-.3.12 0 .23h.9a1 1 0 0 1-.66.05l-.34.23c-.33-.2-1-.3-1.07-.42a7.58 7.58 0 0 0-2.23.32c-.21 0-.24-.08-.32-.12a1.79 1.79 0 0 0 .33-.06c-.42.07-1.26 0-1.36.21-.53-.08.3-.17-.43-.14l.1-.06c-1.44-.29-2.35.47-4 .09.11 0 .17 0 .19.06-1.83-.17-3.76.16-5.57-.11a1.52 1.52 0 0 0-.88.15l-.11-.15-.53.17c-.76.13-1.31-.37-2.27-.13l.12.1c-.34 0-1.09.06-1-.06a.24.24 0 0 1-.25.05v-.08l-.85.14c-.66-.06.1-.31-.85-.33-.36 0-1 .23-.88.28s.37 0 .38.13h-.33c-.06.23-.31.47.49.63l.56-.14.18.11h-.29a.77.77 0 0 0 .62-.05.37.37 0 0 0 .23.12l.55-.22c.07.09-.25.18.12.23.26-.1-.25-.2.18-.27.27.11.19.19.5.1 0 .06 0 .1-.15.12.28-.07.74 0 .88-.15.28.13.94 0 .91.19a2.35 2.35 0 0 1 .75-.18c-.47.26 1 0 .83.3.35-.24 1.25-.11 1.86-.24a.25.25 0 0 1-.16 0 3.1 3.1 0 0 1 .67.14c0-.2.58-.24.87-.36.42.19-.26.23-.12.41 0-.16.73-.16.59-.29.32.12.28.06.44.22.06-.24.3 0 .57-.19.47.12.12.23.63.15.26.1-.2.19-.2.19zm12.22-.42zm1 0H29s0-.1.11-.1c-.04.03.2.05.35.09zm-2.17-1h.24-.28a.18.18 0 0 1 .06.02zm-.27.21h-.07.16zm93.05.2z"/><path class="b" d="M43.64 18.47v-.03l-.09.03h.09zm82.07-.36h.07zm2.44.03l.35.05zm1.85.07a.15.15 0 0 0 0-.06zm-29.83.16h-.07c-.17.04-.1.03.07 0zm8.89-.37l-.29.07c.16.05.28.05.29-.07zm-18.81.54zm18.11-.43a1.2 1.2 0 0 0 .41 0 1.85 1.85 0 0 0-.41 0zm29.81.16h.09zm.1-.02h.1s-.09-.01-.1 0zm.31-.05h-.21a.35.35 0 0 0 .21 0zm-2.9.01v.05a.07.07 0 0 0 0-.05zm-.76.01a3.27 3.27 0 0 0 .7.08c-.09.03-.52-.17-.7-.08zm-3.15-.63h.63c-.11-.05-.26-.13 0-.14-.76-.12.2.16-.63.14zm-1.96-.08c.34 0 0-.08 0-.11-.2.05-.26.06 0 .11zm-14.19 0v-.13c-.22.02.04.05 0 .13zm-2.71.66l.26.08.12-.11-.38.03zm-1.6-.91l.12-.02-.44.05.32-.03zm-23.82.05l.08.16c.18-.03.21-.21-.08-.16zm-10.28.16a.73.73 0 0 0-.58-.05 5.36 5.36 0 0 0 .58.05zm-30.84-.26l.2-.05-.39.04.19.01z"/><path class="c" d="M0 0h146v21H0z"/></svg>