<svg xmlns="http://www.w3.org/2000/svg" viewBox="0 0 61.44 18.38"><defs><style>.cls-1{fill:#5d0e5a}.cls-2{fill:#6d2e6a}</style></defs><title>itika72</title><g id="レイヤー_2" data-name="レイヤー 2"><g id="text"><path class="cls-1" d="M15.87 4.54a.68.68 0 0 1-.67.67h-4.3a.09.09 0 0 0-.08 0 .12.12 0 0 0 0 .1 12.47 12.47 0 0 0 2.05 3.79 8.13 8.13 0 0 0 2.56 2.12.54.54 0 0 1 .29.41.47.47 0 0 1 0 .11.62.62 0 0 1-.14.38 1 1 0 0 1-.52.36.62.62 0 0 1-.22 0 .85.85 0 0 1-.38-.1 11 11 0 0 1-4.65-6 9.69 9.69 0 0 1-4.7 6 .77.77 0 0 1-.37.1h-.21a1.06 1.06 0 0 1-.52-.33.49.49 0 0 1-.15-.36v-.08a.51.51 0 0 1 .14-.32 8.7 8.7 0 0 0 4.55-6 .1.1 0 0 0 0-.1.11.11 0 0 0-.09 0H4.31a.67.67 0 0 1-.47-1.14.64.64 0 0 1 .47-.2H8.7a.14.14 0 0 0 .15-.14Q9 2.67 9 .71a.74.74 0 0 1 .21-.5.69.69 0 0 1 1.19.47 27.6 27.6 0 0 1-.16 3 .15.15 0 0 0 0 .1.11.11 0 0 0 .09 0h4.87a.68.68 0 0 1 .67.67zm5.42 4.17c-.08 0-.12 0-.12.14a.22.22 0 0 0 .11.21l1.34.92a.61.61 0 0 1 .25.41v.08a.6.6 0 0 1-.12.37.52.52 0 0 1-.4.21.57.57 0 0 1-.4-.16q-.22-.22-.64-.59a.06.06 0 0 0-.1 0v2.21A.6.6 0 0 1 21 13a.61.61 0 0 1-.86 0 .6.6 0 0 1-.18-.44V10a8.27 8.27 0 0 1-1.63 2 .42.42 0 0 1-.29.12h-.14a.54.54 0 0 1-.36-.3.75.75 0 0 1-.08-.34 1.31 1.31 0 0 1 0-.18.83.83 0 0 1 .29-.45 7.82 7.82 0 0 0 1.68-2 .11.11 0 0 0 0-.08.07.07 0 0 0-.06 0H18a.56.56 0 0 1-.4-.16.54.54 0 0 1-.17-.4.56.56 0 0 1 .17-.41.55.55 0 0 1 .4-.17h1.76a.12.12 0 0 0 .14-.14v-.9a.58.58 0 0 1 .18-.42.61.61 0 0 1 .86 0 .58.58 0 0 1 .18.42v.83a.12.12 0 0 0 .14.14h1.23a.55.55 0 0 1 .4.17.56.56 0 0 1 .17.41.54.54 0 0 1-.17.4.56.56 0 0 1-.4.16zm2.83-2.47a.64.64 0 0 1-.92 0 .62.62 0 0 1-.2-.46V3.43h-.06a10.88 10.88 0 0 1-3.84 2.73.87.87 0 0 1-.3.05h-.23a1 1 0 0 1-.45-.31.44.44 0 0 1 .18-.68A10.27 10.27 0 0 0 21.72 3v-.06h-2.91a.56.56 0 0 1-.41-.16.55.55 0 0 1-.16-.4.57.57 0 0 1 .16-.41.55.55 0 0 1 .41-.17h4.06a.12.12 0 0 0 .13-.16V.92a.62.62 0 0 1 .2-.46.64.64 0 0 1 .92 0 .62.62 0 0 1 .19.45v.72a.12.12 0 0 0 .14.14h4.27a.55.55 0 0 1 .4.17.56.56 0 0 1 .17.41.54.54 0 0 1-.17.4.56.56 0 0 1-.4.16h-3.09a.06.06 0 0 0 0 .06 10.67 10.67 0 0 0 3.61 2 .4.4 0 0 1 .28.29.44.44 0 0 1-.08.4 1 1 0 0 1-.46.34.9.9 0 0 1-.26 0 .72.72 0 0 1-.3-.07 11.14 11.14 0 0 1-4-2.71.06.06 0 0 0-.1 0v2.56a.62.62 0 0 1-.2.45zm5.74 1.5a.56.56 0 0 1 .17.41.54.54 0 0 1-.17.4.56.56 0 0 1-.4.16h-1.53a.07.07 0 0 0-.06 0 .11.11 0 0 0 0 .08 9.6 9.6 0 0 0 2 2.27.62.62 0 0 1 .05.89.69.69 0 0 1-.46.25h-.05a.56.56 0 0 1-.41-.18 11.19 11.19 0 0 1-1.72-2.42v2.87a.62.62 0 1 1-1.23 0V9.73a8.8 8.8 0 0 1-2 2.49.58.58 0 0 1-.36.12h-.1a.66.66 0 0 1-.42-.25.49.49 0 0 1-.14-.34v-.07a.55.55 0 0 1 .22-.38 7.71 7.71 0 0 0 2.13-2.45.11.11 0 0 0 0-.08.07.07 0 0 0-.06 0H24.2a.56.56 0 0 1-.41-.16.55.55 0 0 1-.16-.4.57.57 0 0 1 .16-.41.55.55 0 0 1 .41-.17h1.6a.12.12 0 0 0 .14-.14V6.6a.62.62 0 1 1 1.23 0v.82a.12.12 0 0 0 .14.14h2.15a.55.55 0 0 1 .39.17zm1.73-.97a.72.72 0 0 1 .5-1.22h11.32a.72.72 0 0 1 .5 1.22.68.68 0 0 1-.5.21H32.09a.68.68 0 0 1-.5-.21zM57.82 6a.54.54 0 0 1 .16.4.52.52 0 0 1-.16.39.55.55 0 0 1-.4.16h-1.8a.12.12 0 0 0-.14.14V8a.12.12 0 0 0 .14.14h1.09a.51.51 0 0 1 .38.16.54.54 0 0 1 0 .77.51.51 0 0 1-.38.16h-4.26a.12.12 0 0 0-.14.14v.75a.12.12 0 0 0 .14.14h4.83a.53.53 0 0 1 .4.17.58.58 0 0 1 0 .81.53.53 0 0 1-.4.17h-4.83a.12.12 0 0 0-.14.14v1a.62.62 0 0 1-.18.46.64.64 0 0 1-.9 0 .62.62 0 0 1-.18-.46v-1a.12.12 0 0 0-.14-.14h-4.67a.54.54 0 0 1-.41-.17.58.58 0 0 1 0-.81.55.55 0 0 1 .41-.17h4.66a.12.12 0 0 0 .14-.14v-.75a.12.12 0 0 0-.14-.14h-4a.51.51 0 0 1-.38-.16.54.54 0 0 1 0-.77.51.51 0 0 1 .38-.16h1A.12.12 0 0 0 48 8v-.9a.12.12 0 0 0-.16-.1H46a.55.55 0 0 1-.4-.16.52.52 0 0 1-.16-.39.56.56 0 0 1 .56-.58h1.8a.12.12 0 0 0 .2-.14v-.86a.12.12 0 0 0-.14-.14H47a.53.53 0 0 1-.39-.16.54.54 0 0 1 0-.77.53.53 0 0 1 .39-.15h9.46a.53.53 0 0 1 .39.16.54.54 0 0 1-.39.92h-.89a.12.12 0 0 0-.14.14v.86a.12.12 0 0 0 .14.14h1.8a.54.54 0 0 1 .45.13zm-8.08-2.88a.62.62 0 0 1-.46.19.6.6 0 0 1-.45-.19.63.63 0 0 1-.18-.45v-.21c0-.07 0-.11-.1-.11H46.2a.56.56 0 0 1-.41-.16.55.55 0 0 1-.16-.4.57.57 0 0 1 .16-.41.55.55 0 0 1 .41-.17h2.35c.06 0 .1 0 .1-.08V.94a.62.62 0 0 1 .18-.46.61.61 0 0 1 .45-.18.64.64 0 0 1 .46.18.61.61 0 0 1 .19.46v.18c0 .05 0 .08.1.08h3.31c.06 0 .1 0 .1-.08V.94a.61.61 0 0 1 .19-.46.64.64 0 0 1 .45-.18.61.61 0 0 1 .45.18.62.62 0 0 1 .18.46v.18c0 .05 0 .08.1.08h2.47a.55.55 0 0 1 .4.17.56.56 0 0 1 .17.41.54.54 0 0 1-.17.4.56.56 0 0 1-.4.16h-2.47c-.06 0-.1 0-.1.11v.21a.63.63 0 0 1-.18.45.6.6 0 0 1-.45.19.62.62 0 0 1-.46-.19.62.62 0 0 1-.19-.45v-.2c0-.07 0-.11-.1-.11H50c-.06 0-.1 0-.1.11v.21a.62.62 0 0 1-.16.45zm-.41 1.61a.12.12 0 0 0-.14.14v.86a.12.12 0 0 0 .14.14h1.57a.12.12 0 0 0 .1-.14v-.86a.12.12 0 0 0-.14-.14zM49.19 8a.12.12 0 0 0 .14.14h1.57A.12.12 0 0 0 51 8v-.9a.12.12 0 0 0-.1-.1h-1.57a.12.12 0 0 0-.14.14zm4.92-2.15a.12.12 0 0 0 .14-.14v-.84a.12.12 0 0 0-.14-.14h-1.66a.12.12 0 0 0-.14.14v.86a.12.12 0 0 0 .14.14zm0 2.28a.12.12 0 0 0 .14-.13v-.9a.12.12 0 0 0-.14-.1h-1.66a.12.12 0 0 0-.14.14V8a.12.12 0 0 0 .14.14z"/><path class="cls-2" d="M61.43 17.91s0-.14-.07-.12l-.06.17zm-.6-.31c-.1.08-.23.22-.16.37.1-.16.13-.09.24-.28a.11.11 0 0 1 .14.11s.14 0 .19-.07a.29.29 0 0 0-.42 0s0-.1.01-.13zm-8.71-.26h.06zm-5.4-.09h.06s-.07-.01-.06 0zm-.92-.18h.05s-.04-.01-.05 0zm6.32.27l-.12-.05c0 .05 0 .04.12.05zm7.51.66h.08-.07zm-5.13-.79v-.07zm1.82-.03s-.06.13-.07.2a.14.14 0 0 1 .09-.1.3.3 0 0 0-.02-.1zm2.9.25h.05zm-6.03-.25a.15.15 0 0 0 0-.05.09.09 0 0 0 0 .05zM2.12 18.23s-.01 0 0 0zM0 17.54a.72.72 0 0 0 0-.08zm44.11-.65s.03-.01 0 0zM28.63 17c.18.13-.29.16 0 .3-.04-.06.22-.23 0-.3zm30.95 1zm-30.97-.71zM40.23 17a.17.17 0 0 0 0 .06s.03-.06 0-.06zm2.89.17h-.07zm-4.39 0h-.11s.06-.02.11 0zm-1.57 0zm-30.28 1a.42.42 0 0 1-.07-.17c.02.14-.21.17.07.17zm52.75-.25v.06h.05a.06.06 0 0 0-.05-.06zm-20.97.36h-.25zm-20.56-.13h-.06a.06.06 0 0 0 .06 0zm19.58.13a.35.35 0 0 0-.14-.1zM6.81 18z"/><path class="cls-2" d="M5.17 18.37c.24 0 .11-.18.16-.29.28-.05.13.14.23.23s.31-.22.44-.21 0 0 0 .08c.19-.15.55 0 .77-.19a.57.57 0 0 1 0-.25c.11 0 .2-.12.24 0s-.07 0-.1.08H7c.1.17-.15.06-.15.19.22-.06.47-.2.64-.15s-.39.06-.17.21L7.08 18c.2.27-.16 0 0 .27.34 0 .38-.09.72 0 .08-.09 0-.14.05-.23.48-.17.38.43.73.2.09-.11.13-.33.38-.21l-.09.19c.33 0 .19-.28.53-.15-.06.08-.26.06-.21.09.22.15.16-.11.33-.11v.17c.35 0 .73-.15 1.12-.18 0 .05-.09.1 0 .16a4.14 4.14 0 0 1 1.51.12l.18-.15s.08.07 0 .09c.18.06 0-.09.1-.15s.14.08.07.13a2 2 0 0 1 1.26-.11h-.07c.27.06.3-.3.55-.16a5.41 5.41 0 0 1 1.65.15c.08-.21.57.09.61-.2.33.15.23.2.7.3.12 0 .18-.18.34-.21v.15l.21-.16.11.18H18c-.06 0-.12-.07-.11-.11a.56.56 0 0 1 .55.19l.56-.16c0 .06-.1.08-.17.12.28-.16.05.16.31 0v-.12a1 1 0 0 0 .64.05v.11c.39 0 .83-.05 1.27 0a.13.13 0 0 1 0-.25l.05.16c.08-.1-.14-.06 0-.18s.11.19 0 .24l.2-.06v.14c.08-.1.35.16.46 0 .44 0 .64-.05 1-.06 0-.14.15-.11.25-.22a4.05 4.05 0 0 0 .87.14c.22-.07.07-.12.17-.2 0 .13.33.12.17.21a4.59 4.59 0 0 0 1-.13c-.05-.05-.11-.08-.08-.12s.2.05.19.12c.54-.19 1.25.37 1.68.11l.45-.14c.21 0-.12.1 0 .18.48-.21.76 0 1.16-.11.31.38 1.09 0 1.51.21v-.09c.11-.09.13.05.21.07s-.12-.08 0-.13a14.31 14.31 0 0 1 2.81.21c.34 0 .19-.46.62-.25l-.12.17c.69-.2 1.41 0 2.08-.16 0 0 0 .09-.11.09.14.12.53 0 .53-.09s0 .09.09.14.36-.15.43 0 0 0-.07 0 .43 0 .34-.12c.25.07.48-.06.69 0 .13-.15.43.07.47-.14 0 .23.44.18.6.08-.05.07.14.07.08.17.18 0 .35 0 .32-.16.34.27.68-.22.86.13A13.71 13.71 0 0 1 41.4 18c0 .23-.54 0-.52.26a3.42 3.42 0 0 1 1.19-.26c.12 0-.07.1-.11.14.46-.09.89 0 1.3-.1l-.09.06c-.09.06.19 0 .18-.07h-.08c-.13-.15.32-.31.34-.39-.14.29.41.07.19.45.05 0 .12-.07.11-.14s.1.06 0 .14c.29-.06.19-.16.45-.16 0 0-.05.07-.08.13a.58.58 0 0 1 .49-.15s0 .07-.05.07c.38 0 .65-.26 1.07-.16-.12.22.14.07.16.26l.25-.08h-.09c.2 0 .37-.13.54-.07l-.15.07h.37l-.21-.07c.2-.1 0-.24.24-.18-.05 0 .2 0 .3.11a.38.38 0 0 1 .34-.08v.25c.1-.16.46 0 .58-.21a.18.18 0 0 0 0 .16l.08-.13c.09 0 .1.06.09.14.27 0-.09-.24.24-.13h-.07c.33.05.63-.08.93 0 .09.19-.26 0-.16.2a7.81 7.81 0 0 1 1.32-.18h-.08c.06-.27.31.13.53 0-.05 0-.07.15-.05.12a3.41 3.41 0 0 0 1-.15l-.05.07a4.3 4.3 0 0 0 .63.07c.05-.07.16-.06.1-.16.56.39 1.08-.21 1.58.12-.06 0-.14.06-.09.06l.43-.06c0-.12-.06-.07-.15-.16a.39.39 0 0 1 .28-.12c-.19.08 0 .19.08.25s0-.07 0-.11c.22.21 0-.23.34-.09v.06c.11 0 .22-.11.34-.09s-.12.06-.13.17c.17 0 .34-.25.5-.12-.07 0-.18 0-.25.07a.4.4 0 0 0 .32.14l.29.07h-.07c.22-.35.44-.06.73-.29-.28.22 0 .13-.07.28s.19.09.15.13c.14-.12.23.1.42-.08 0 0 .15 0 .12.13.18 0 0-.08 0-.15.27-.17.65.2 1 0s.4-.26.72-.34c.11.08-.09.18-.09.18a.59.59 0 0 0 .47 0s0 .08.05.13.09-.18.26-.11a.66.66 0 0 1-.13.2c.15 0 .31-.14.46-.18s-.1.13-.15.18c.18 0 .46-.08.52-.21h-.11c.07 0 0 .12 0 .14a.14.14 0 0 1-.23-.1h.11c-.12-.29-.46 0-.68 0l.1-.21-.23.17c0-.05-.08-.17 0-.2-.16-.1-.14.07-.29 0l-.16.06s0-.15.07-.12c-.29-.12-.46.16-.57 0-.4.07 0 .15-.34.33l-.2-.38v.15s-.12 0-.11-.08c-.15.1 0 .07-.06.17-.2-.14-.54.07-.59-.18-.07.12.19.09 0 .17-.06-.26-.24 0-.42-.08.06-.14.23-.06 0-.18-.11.23-.35 0-.5 0s-.33.08-.59.14c0-.06-.48-.1-.72-.17 0 .18-.29.15-.47.19a.2.2 0 0 1 .14-.2h-.17a.27.27 0 0 1-.2.11v-.14c-.22 0-.45.16-.74.07 0 .13.23.36-.08.44 0-.07 0-.19.06-.22s-.09.06-.15 0l.12-.12c-.13-.05-.07.1-.17.09s-.08-.07-.06-.15.09 0 .13 0a.49.49 0 0 1-.31-.15c0 .06 0 .13-.09.15s-.08-.12-.21-.17-.2 0-.2.15-.08-.07-.1-.11-.54 0-.41.18c-.38.15-.79-.08-1.16 0a2.45 2.45 0 0 0-.66.14c-.07 0-.16-.09-.13-.15a.55.55 0 0 1-.44 0c.17-.09-.06-.08.18-.06-.22 0-.27-.12-.51 0 .08-.13-.17-.16-.27-.12l.16.09a1.24 1.24 0 0 1-.33 0l.06-.17c-.46-.2-.82.34-1.17 0-.12.12.25.08.14.22-.21 0-.43-.26-.49-.26-.29-.09-.27.24-.57.18 0 .06.07.22-.15.27s-.26-.25-.13-.3.07 0 .07 0 .16 0 .07-.11v.06c-.1-.06-.39-.05-.33-.15-.16.06-.07.1 0 .13-.27-.09-.42 0-.7-.06 0 0 .08.1 0 .1-.41-.07-.18.11-.45.14s.06-.22-.22-.14 0-.16 0-.21c-.25.11-.47-.08-.62-.1h.13a.57.57 0 0 1-.21 0l.08.12c-.08 0-.14 0-.14-.07s.06.2-.1.3c-.1-.06-.32.06-.35-.09.33.05 0-.16.24-.18a.33.33 0 0 1-.2 0c-.31-.14-.14.18-.47.17 0-.09-.08-.17-.13-.15.13 0 .06.15-.06.22s-.23.05-.34 0h.12c0 .09-.15.08-.29.1s.13 0 .08-.08c-.16.16-.36-.16-.59-.06-.1-.06 0-.17-.1-.21-.25.12-.27-.12-.54 0 .08.12.09.09-.1.21l.44-.08-.28.17c.13 0 .28-.08.36-.05-.13.1-.12.07-.06.17-.18-.18-.36.1-.56 0V17c-.31-.13-.56.15-1 .08l.13.05c-.05.12-.25 0-.38.06s-.07-.13-.13-.2-.3 0-.33.19l-.18-.13c-.33-.05-.37.28-.69.25.1-.11 0-.18.16-.25h-.2s-.29.13-.39 0-.06.15-.18.14-.19.07-.08.18c-.32-.31-.91 0-1.19-.24-.23 0-.51.06-.71.07-.29-.09-.18.28-.5.18-.17-.16.17-.09.07-.15 0-.32-.39 0-.61-.15h.05c-.17-.11-.41.12-.69.1a1.78 1.78 0 0 1-.81.27c.08-.13.12-.07.07-.2s0 .21-.2.24c-.08-.07-.25-.13-.27-.27h.22c-.11-.18-.29 0-.41 0v-.08c-.34 0-.35.22-.71.21v.06c-.2.19-.17-.11-.37 0l-.06-.2a4.24 4.24 0 0 1-.7.23 2.09 2.09 0 0 1 .59-.31c-.13 0-.45 0-.52.11s.12-.07.17 0a.86.86 0 0 1-.64.23c0-.38-.68-.1-.87-.39a6.09 6.09 0 0 1-1.46 0c.19.3-.16 0-.12.31h-.19l-.38-.18c-.09-.09.12-.07.11-.14-.28 0-.12-.13-.3-.21 0 .11-.1.16-.25.11L28 17c-.38.16-.33-.26-.72-.1l.12-.1c-.2.06-.73 0-.93.24 0 0-.08-.12 0-.14-.48 0-1.06.26-1.43.11v-.07c-.09 0-.15.14-.27.07s0-.07 0-.08-.24.13-.35.09l.1-.08c-.46-.1-.71.2-1.1.26 0-.22-.36-.29-.55-.33a5.85 5.85 0 0 0-1.42.27c-.31-.24-1.05-.1-1.55-.23.08 0 0 .17-.1.19s-.32.15-.31 0c-.09-.2-.33-.15-.52-.15v.26c-.49-.38-1.29.14-1.56-.2-.12.07-.27.07-.38.13V17a3.76 3.76 0 0 0-.9 0l.08-.1c-.23 0-.29.41-.5.42l.03-.32c-.4 0-.8-.18-1.2 0 0 0 0-.09.08-.1-.19 0-.73-.14-.66.15 0-.19-.41 0-.63.06v-.14c-.18.18-.19.23-.44.28-.06 0-.05-.11 0-.08-.2-.07-.16.13-.4.06l.09-.09c-.21 0-.19 0-.3.14s-.39 0-.42-.16a.23.23 0 0 1-.26.14s0-.08.05-.09c-.35-.09-.51.16-.75 0a.11.11 0 0 0 0-.08 3 3 0 0 1 .48 0c0-.13-.22-.15 0-.33-.18.1-.48.31-.7.25a.19.19 0 0 0-.14 0 .61.61 0 0 0-.18 0c0-.11-.25-.06-.36-.06s-.14.12 0 .23h.4c-.09.07-.18.13-.3.05l-.15.23c-.15-.2-.44-.3-.48-.42-.34.08-.8.05-1 .32-.1 0-.11-.08-.15-.12s.12 0 .15-.06c-.19.07-.57 0-.61.21-.24-.08.14-.17-.2-.14v-.06c-.65-.29-1.06.47-1.79.09.05 0 .08 0 .09.06-.83-.17-1.7.16-2.52-.11-.23-.05-.26.06-.4.15v-.15l-.24.17c-.34.13-.59-.37-1-.13l.06.1c-.16 0-.49.06-.47-.06s-.05.11-.11.05v-.08l-.38.14c-.3-.06 0-.31-.39-.33-.16 0-.46.23-.4.28s.17 0 .17.13H.13c0 .23-.14.47.22.63L.51 18l.08.11H.38c.12.11.2 0 .28-.05a.2.2 0 0 0 .11.12L1 18c0 .09-.11.18.05.23.12-.1-.11-.2.08-.27.12.11.09.19.23.1 0 .06 0 .1-.07.12.13-.07.33 0 .4-.15.13.13.43 0 .41.19a.67.67 0 0 1 .36-.22c-.21.26.43 0 .38.3.16-.24.57-.11.84-.24 0 0 0 .06-.07 0 .16 0 .2.09.3.14 0-.2.26-.24.39-.36.19.19-.12.23-.06.41 0-.16.33-.16.27-.29.15.12.13.06.2.22 0-.24.14 0 .26-.19.21.12.05.23.29.15s-.09.23-.09.23zm5.53-.42zm.46 0H11v-.1s.1.05.16.1zm-1-1h.11-.13a.2.2 0 0 1 .04.05zm-.16.21zm42.18.2z"/><path class="cls-2" d="M17.58 18.21v-.03l-.04.03h.04zm37.16-.36zm1.11.03l.16.05zm.85.07a.23.23 0 0 0 0-.06zm-13.52.16c-.11.04-.06.03 0 0zm4.02-.33l-.13.07c.08.01.13.01.13-.07zm-8.51.5z"/><path class="cls-2" d="M46.89 17.85a.25.25 0 0 0 .19 0 .38.38 0 0 0-.19 0zm13.5.15zm.04 0s.01 0 0 0zm.14-.06h-.1s.08.06.1 0zm-1.31.01V18a.11.11 0 0 0 0-.05zm-.34.05c.08 0 .2.11.32.08-.05-.01-.24-.2-.32-.08zm-1.43-.67h.29c0-.05-.12-.13 0-.14-.35-.12.09.16-.29.14zm-.89-.08c.15 0 0-.08 0-.11s-.11.06 0 .11zm-6.42 0v-.13c-.1.02.01.05 0 .13zm-1.23.66l.12.08.05-.11-.17.03zm-.72-.91l.05-.02-.2.05.15-.03zm-10.79 0v.16c.12.02.13-.16 0-.16zm-4.66.21a.18.18 0 0 0-.26-.05c.11.01.21.07.26.05zm-13.96-.26l.09-.05-.18.04.09.01z"/></g></g></svg>