<svg xmlns="http://www.w3.org/2000/svg" width="657.57" height="23.14" viewBox="0 0 657.57 23.14">  <defs>    <style>      .a {        fill: none;        stroke: #0075c2;        stroke-linecap: round;        stroke-linejoin: round;      }    </style>  </defs>  <title>アセット 1</title>  <path class="a" d="M.5,22.64H630l6.54-.2c1,0,1.9-.17,2.85-.14a9.06,9.06,0,0,0,2.78-.21,14.43,14.43,0,0,0,2.87-1.47,25.67,25.67,0,0,0,3.11-1.72,12.21,12.21,0,0,0,2.68-3.16,15.79,15.79,0,0,0,2-3.7,5.75,5.75,0,0,0-.05-4.11,6.09,6.09,0,0,1-.53-1.26,1.08,1.08,0,0,1,.45-1.19c.43-.21.93,0,1.41,0a2.9,2.9,0,0,0,1.33-.43,4,4,0,0,0,1.27-.88A1.36,1.36,0,0,0,657,2.76a2,2,0,0,0-1.21-.82L652.48.76a2.89,2.89,0,0,0-1.25-.25,2.19,2.19,0,0,0-1.58,1.28,2.61,2.61,0,0,0-.33,1.48,1.18,1.18,0,0,0,.79,1l.31.49c.06.06-.08.2-.12.27a22,22,0,0,1-2.46,3.34,16.1,16.1,0,0,0-1.45,1.56c-.31.43-.55.9-.87,1.32A6.36,6.36,0,0,1,642.94,13a23,23,0,0,1-10.6,1.8,7.84,7.84,0,0,0-3.09.13.75.75,0,0,0-.46.33.85.85,0,0,0,0,.59l.51,1.78a2.83,2.83,0,0,0,.54,1.16,3.19,3.19,0,0,0,1.13.67l1.38.06a4.05,4.05,0,0,0,1.54-.17,3.34,3.34,0,0,1,.8-.21,6.71,6.71,0,0,1,1.48.36,10.2,10.2,0,0,0,2.44-.32,7.16,7.16,0,0,0,1.82-.09,13.93,13.93,0,0,0,1.5-.93,9.17,9.17,0,0,1,1.19-.38,7.5,7.5,0,0,0,2.09-1.24l2-1.5a5.54,5.54,0,0,0,1-.91c.82-1,.83-2.47,1.54-3.56"/></svg>